mtllib P-41_tex.mtl
v 0.866105 0.400632 -0.121110
v 0.801541 0.400356 -0.280816
v 0.850731 0.406175 -0.211915
v 0.856320 0.405163 0.181481
v 0.866280 0.401290 0.018715
v 0.897563 0.412296 0.056036
v 0.788999 0.104581 -0.353408
v 0.794465 0.110084 -0.213328
v 0.833323 0.110135 -0.216837
v 0.806082 0.104662 -0.354425
v 0.869186 0.299302 -0.440863
v 0.954102 0.386716 -0.400386
v 0.801541 0.400356 -0.280816
v 0.079821 0.428496 0.219018
v 0.405008 0.422997 0.398774
v 0.293374 0.407003 0.352662
v 0.861636 0.411270 0.141043
v 0.856320 0.405163 0.181481
v 0.802154 0.332110 0.351970
v 0.264456 0.393971 0.365176
v 0.083724 0.407408 0.354109
v 0.405008 0.422997 0.398774
v 0.800677 0.426380 -0.153333
v 0.782053 0.422611 -0.082771
v 0.675749 0.422068 -0.024825
v -0.281687 0.380340 0.354310
v -0.319901 0.379903 0.351182
v -0.060456 0.404928 0.359524
v -0.886473 0.509965 -0.034523
v -0.825398 0.415440 -0.106717
v -0.996008 0.413855 0.071614
v -0.825398 0.415440 -0.106717
v -0.886473 0.509965 -0.034523
v -1.014019 0.543022 -0.069993
v -0.825398 0.415440 -0.106717
v -0.810502 0.415795 -0.068873
v -0.996008 0.413855 0.071614
v -0.788618 0.415871 -0.122972
v -0.554343 0.223574 -0.218679
v -0.610590 0.194546 -0.104682
v -0.552036 0.223599 -0.094381
v -0.610729 0.194849 -0.222178
v -0.610590 0.194546 -0.104682
v -0.610729 0.194849 -0.222178
v -0.552036 0.223599 -0.094381
v -0.554343 0.223574 -0.218679
v 0.850731 0.406175 -0.211915
v 0.800677 0.426380 -0.153333
v 0.782053 0.422611 -0.082771
v -0.298593 0.427739 -0.070108
v -0.788618 0.415871 -0.122972
v -0.286103 0.427450 -0.349306
v -0.821003 0.419432 -0.239941
v -0.032649 0.223575 -0.210784
v -0.043975 0.187934 -0.340650
v 0.207373 0.189047 -0.339304
v -0.291908 0.223602 -0.210229
v 0.224507 0.223602 -0.215738
v -0.300544 0.191017 -0.337428
v 0.272734 0.187949 -0.340678
v -0.610729 0.194849 -0.222178
v -0.569853 0.092015 -0.392929
v 0.012703 0.091839 -0.446813
v -0.057641 0.091875 -0.435198
v 0.272590 0.091858 -0.454221
v 0.788999 0.104581 -0.353408
v -0.441129 0.115663 -0.377377
v 0.794465 0.110084 -0.213328
v 0.288599 0.223614 -0.329959
v 0.310224 0.216119 -0.424007
v 0.768886 0.398755 -0.351476
v 0.277617 0.384017 -0.406103
v 0.732210 0.299724 -0.424621
v -0.279982 0.091831 0.352855
v 0.249171 0.292358 0.316270
v -0.167962 0.291833 0.345733
v 0.544927 0.249428 0.372259
v 0.264456 0.393971 0.365176
v 0.785873 0.361077 0.365497
v 0.803603 0.360497 0.365152
v 0.350507 0.277977 0.364790
v 0.125084 0.223207 0.354610
v 0.105302 0.404643 0.358421
v 0.991500 0.297862 0.400088
v -0.541565 0.294858 -0.353657
v -0.441129 0.115663 -0.377377
v -0.265847 0.299917 -0.390731
v -0.057641 0.091875 -0.435198
v -0.865816 0.223604 -0.354273
v -0.621186 0.296649 -0.354834
v -1.019873 0.241463 -0.239014
v -0.316553 0.223609 -0.095578
v -0.037726 0.223575 -0.188964
v -0.030306 0.223584 0.053303
v -0.291755 0.223604 0.029600
v -0.039044 0.223595 0.107537
v -0.388629 0.223610 0.075937
v -0.750065 0.223623 0.211211
v 0.135078 0.223608 -0.050663
v 0.171202 0.223606 -0.071633
v 0.528523 0.223599 0.051878
v 0.665058 0.223608 -0.057633
v 0.583000 0.223603 -0.205145
v 0.670971 0.223619 0.078522
v 0.527352 0.223596 0.076268
v 0.250329 0.223609 0.076776
v 0.224507 0.223602 -0.215738
v 0.288599 0.223614 -0.329959
v 0.260239 0.223606 -0.102952
v 0.538897 0.223607 -0.331734
v -0.032649 0.223575 -0.210784
v -0.291908 0.223602 -0.210229
v -0.552036 0.223599 -0.094381
v -0.554343 0.223574 -0.218679
v -0.706110 0.214494 0.054523
v -1.045538 0.243558 -0.077317
v -0.541565 0.294858 -0.353657
v 0.369583 0.292700 0.314948
v 0.539458 0.292700 0.318204
v 0.249171 0.292358 0.316270
v -0.167962 0.291833 0.345733
v -0.507517 0.292069 0.344246
v -0.778342 0.223613 0.252995
v -1.019873 0.241463 -0.239014
v -0.956225 0.386072 -0.216711
v -0.554343 0.223574 -0.218679
v 0.402651 0.405354 -0.447355
v 0.086592 0.423639 -0.352410
v 0.036863 0.582599 -0.454516
v 0.263168 0.583300 -0.453812
v -0.805124 0.422429 0.224233
v -0.750754 0.351395 0.334130
v -0.338403 0.423665 0.220923
v -0.319901 0.379903 0.351182
v -0.281687 0.380340 0.354310
v -0.784660 0.423659 0.148428
v -1.054718 0.474415 0.332039
v -0.995872 0.406015 0.082398
v 0.125084 0.223207 0.354610
v 0.264456 0.393971 0.365176
v 0.105302 0.404643 0.358421
v 0.350507 0.277977 0.364790
v 0.086592 0.423639 -0.352410
v 0.402651 0.405354 -0.447355
v 0.263168 0.583300 -0.453812
v 0.036863 0.582599 -0.454516
v 0.544583 0.411823 -0.364292
v 0.530553 0.532746 -0.435377
v -0.750065 0.223623 0.211211
v -0.555717 0.193224 0.128035
v -0.778342 0.223613 0.252995
v -0.558041 0.092054 0.349637
v -0.865816 0.223604 -0.354273
v -1.019873 0.241463 -0.239014
v -0.554343 0.223574 -0.218679
v -0.621186 0.296649 -0.354834
v -0.434100 0.194849 0.293099
v -0.558041 0.092054 0.349637
v -0.507517 0.292069 0.344246
v -0.167962 0.291833 0.345733
v -0.778342 0.223613 0.252995
v -0.283166 0.122917 0.391431
v -0.266177 0.122917 0.392319
v 0.855387 0.110078 -0.133674
v 0.833323 0.110135 -0.216837
v 1.022561 0.296021 -0.072235
v 1.010249 0.280934 -0.269818
v 0.806082 0.104662 -0.354425
v 0.868584 0.196436 0.063247
v 0.830564 0.110112 0.033898
v 0.869186 0.299302 -0.440863
v -0.558041 0.092054 0.349637
v -0.555717 0.193224 0.128035
v -0.750065 0.223623 0.211211
v -0.778342 0.223613 0.252995
v 0.856320 0.405163 0.181481
v 0.977228 0.203380 0.341602
v 0.802154 0.332110 0.351970
v 1.004564 0.241554 0.129370
v 0.977228 0.203380 0.341602
v 1.004564 0.241554 0.129370
v 0.802154 0.332110 0.351970
v 0.856320 0.405163 0.181481
v -0.778342 0.223613 0.252995
v -0.558041 0.092054 0.349637
v -0.434100 0.194849 0.293099
v -0.507517 0.292069 0.344246
v -0.279982 0.091831 0.352855
v -0.434100 0.194849 0.293099
v -0.167962 0.291833 0.345733
v 0.249171 0.292358 0.316270
v 0.032593 0.195538 0.300985
v -0.995872 0.406015 0.082398
v -0.996008 0.413855 0.071614
v -0.784660 0.423659 0.148428
v -0.810502 0.415795 -0.068873
v -0.840099 0.420373 -0.241844
v -1.014005 0.512421 -0.263683
v -0.825398 0.415440 -0.106717
v -1.014019 0.543022 -0.069993
v 1.010249 0.280934 -0.269818
v 0.801541 0.400356 -0.280816
v 0.866105 0.400632 -0.121110
v 0.869186 0.299302 -0.440863
v 1.022561 0.296021 -0.072235
v 0.868584 0.196436 0.063247
v 0.079821 0.428496 0.219018
v 0.105302 0.404643 0.358421
v 0.405008 0.422997 0.398774
v 0.479710 0.421626 -0.033471
v 0.253405 0.421706 0.070699
v 0.256333 0.421758 0.072631
v 0.528232 0.422948 0.076381
v 0.675749 0.422068 -0.024825
v 0.699539 0.422548 0.075016
v 0.525925 0.421615 -0.071947
v 0.782053 0.422611 -0.082771
v 0.608581 0.420579 -0.215334
v 0.328188 0.421216 -0.220347
v 0.190520 0.426129 -0.072755
v -0.144269 0.424267 0.067818
v -0.239891 0.429649 -0.070216
v -0.055298 0.434797 -0.216099
v 0.098890 0.433389 -0.278554
v -0.214308 0.429564 0.202365
v -0.218435 0.429462 0.214942
v -0.298593 0.427739 -0.070108
v -0.286103 0.427450 -0.349306
v -0.288832 0.425467 -0.003099
v -0.355148 0.426274 0.151701
v -0.784660 0.423659 0.148428
v -0.810502 0.415795 -0.068873
v -0.788618 0.415871 -0.122972
v -0.996008 0.413855 0.071614
v -0.825398 0.415440 -0.106717
v -0.840099 0.420373 -0.241844
v -0.821003 0.419432 -0.239941
v -0.338403 0.423665 0.220923
v 0.402651 0.405354 -0.447355
v 0.544583 0.411823 -0.364292
v 0.949424 0.408203 -0.351769
v 0.086592 0.423639 -0.352410
v -0.013758 0.419633 -0.353751
v -0.281720 0.426217 -0.354109
v -0.019346 0.409430 0.353903
v 0.083724 0.407408 0.354109
v -0.350776 0.468974 0.391448
v -0.966013 0.405580 -0.359086
v -0.820712 0.409434 -0.406203
v -0.956225 0.386072 -0.216711
v -0.995947 0.390545 -0.069993
v -0.361508 0.400650 -0.424439
v 0.954102 0.386716 -0.400386
v -0.010585 0.383762 -0.405582
v 0.124340 0.384113 -0.407730
v -0.060456 0.404928 0.359524
v 0.538897 0.223607 -0.331734
v 0.288599 0.223614 -0.329959
v 0.794465 0.110084 -0.213328
v -0.621186 0.296649 -0.354834
v -0.554343 0.223574 -0.218679
v -0.821103 0.319320 -0.434588
v -0.541565 0.294858 -0.353657
v -0.361508 0.400650 -0.424439
v -0.010585 0.383762 -0.405582
v -0.803623 0.301533 -0.350389
v -0.956225 0.386072 -0.216711
v -0.984715 0.343194 -0.352890
v -0.507517 0.292069 0.344246
v -0.434100 0.194849 0.293099
v -0.283166 0.122917 0.391431
v -0.354171 0.298364 0.398773
v -0.202915 0.278467 0.354183
v 1.004564 0.241554 0.129370
v 0.868584 0.196436 0.063247
v 0.856320 0.405163 0.181481
v 0.830564 0.110112 0.033898
v 0.868584 0.196436 0.063247
v 0.866280 0.401290 0.018715
v 0.856320 0.405163 0.181481
v 0.866105 0.400632 -0.121110
v -0.621186 0.296649 -0.354834
v -0.569853 0.092015 -0.392929
v -0.610729 0.194849 -0.222178
v 0.350507 0.277977 0.364790
v 0.249171 0.292358 0.316270
v 0.369583 0.292700 0.314948
v 0.539458 0.292700 0.318204
v 0.544927 0.249428 0.372259
v 0.991500 0.297862 0.400088
v 0.125084 0.223207 0.354610
v 0.032593 0.195538 0.300985
v -0.007656 0.091810 0.406097
v 0.811881 0.195000 0.445484
v 0.530292 0.092514 0.420534
v -1.051231 0.514518 0.325301
v -0.995872 0.406015 0.082398
v -1.013863 0.528590 0.086619
v -1.054718 0.474415 0.332039
v -0.996089 0.374234 0.097937
v -1.010502 0.385860 0.219057
v -0.886473 0.509965 -0.034523
v 0.277617 0.384017 -0.406103
v 0.768886 0.398755 -0.351476
v 0.402651 0.405354 -0.447355
v -0.706110 0.214494 0.054523
v -0.555717 0.193224 0.128035
v -0.750065 0.223623 0.211211
v -1.039289 0.280367 0.102437
v -1.032371 0.280938 -0.041203
v -0.778342 0.223613 0.252995
v -1.024562 0.281287 0.219035
v -0.671168 0.164682 -0.060507
v -1.045538 0.243558 -0.077317
v -0.350776 0.468974 0.391448
v -0.281687 0.380340 0.354310
v -0.019346 0.409430 0.353903
v -0.995947 0.390545 -0.069993
v -0.995808 0.341734 0.063678
v -0.996008 0.413855 0.071614
v -0.996089 0.374234 0.097937
v -0.995872 0.406015 0.082398
v -1.010502 0.385860 0.219057
v -1.054718 0.474415 0.332039
v -1.032371 0.280938 -0.041203
v -1.045538 0.243558 -0.077317
v -0.956225 0.386072 -0.216711
v -1.019873 0.241463 -0.239014
v -1.039289 0.280367 0.102437
v 0.861636 0.411270 0.141043
v 0.897563 0.412296 0.056036
v 1.011495 0.516425 0.187991
v 0.983524 0.520618 0.322722
v 1.011423 0.513629 0.063527
v 0.907973 0.411678 0.232421
v 0.765986 0.405693 0.353739
v 0.785873 0.361077 0.365497
v 0.803059 0.407923 0.353405
v 0.803603 0.360497 0.365152
v 0.264456 0.393971 0.365176
v -0.319901 0.379903 0.351182
v -0.507517 0.292069 0.344246
v -0.167962 0.291833 0.345733
v -0.098973 0.359412 0.353142
v -0.060456 0.404928 0.359524
v 0.071971 0.348563 0.351944
v 0.105302 0.404643 0.358421
v -0.750754 0.351395 0.334130
v 0.466419 0.339359 0.351570
v 0.533648 0.337068 0.351672
v 0.249171 0.292358 0.316270
v 0.802154 0.332110 0.351970
v 0.369583 0.292700 0.314948
v -0.778342 0.223613 0.252995
v 0.539458 0.292700 0.318204
v 0.977228 0.203380 0.341602
v -1.010502 0.385860 0.219057
v -1.024562 0.281287 0.219035
v -1.054718 0.474415 0.332039
v -0.202915 0.278467 0.354183
v -0.266177 0.122917 0.392319
v -0.283166 0.122917 0.391431
v 0.765986 0.405693 0.353739
v 0.405008 0.422997 0.398774
v 0.264456 0.393971 0.365176
v 0.105302 0.404643 0.358421
v 0.083724 0.407408 0.354109
v -0.812012 0.510124 -0.071602
v -0.825398 0.415440 -0.106717
v -1.014019 0.543022 -0.069993
v 0.249171 0.292358 0.316270
v -0.279982 0.091831 0.352855
v 0.032593 0.195538 0.300985
v -0.350776 0.468974 0.391448
v -0.338403 0.423665 0.220923
v -0.281687 0.380340 0.354310
v 0.861636 0.411270 0.141043
v 0.802154 0.332110 0.351970
v 0.907973 0.411678 0.232421
v 1.011495 0.516425 0.187991
v 0.983524 0.520618 0.322722
v 0.402651 0.405354 -0.447355
v 0.768886 0.398755 -0.351476
v 0.544583 0.411823 -0.364292
v 0.277617 0.384017 -0.406103
v 0.402651 0.405354 -0.447355
v 0.544583 0.411823 -0.364292
v 0.954102 0.386716 -0.400386
v 0.768886 0.398755 -0.351476
v 0.800594 0.400053 -0.281078
v 0.608581 0.420579 -0.215334
v 0.850731 0.406175 -0.211915
v 0.782053 0.422611 -0.082771
v 0.801541 0.400356 -0.280816
v -0.507517 0.292069 0.344246
v -0.354171 0.298364 0.398773
v -0.202915 0.278467 0.354183
v 0.800677 0.426380 -0.153333
v 1.011443 0.513101 -0.217702
v 1.011376 0.513875 -0.193605
v 0.850731 0.406175 -0.211915
v 0.954102 0.386716 -0.400386
v 0.768886 0.398755 -0.351476
v 0.544583 0.411823 -0.364292
v 0.949424 0.408203 -0.351769
v 0.608581 0.420579 -0.215334
v -0.610590 0.194546 -0.104682
v -0.671168 0.164682 -0.060507
v -0.706110 0.214494 0.054523
v -0.552036 0.223599 -0.094381
v -0.667301 0.091344 -0.077317
v -0.667315 0.091371 -0.058599
v -0.621186 0.296649 -0.354834
v -0.610729 0.194849 -0.222178
v -0.554343 0.223574 -0.218679
v -0.672218 0.091899 0.367848
v -0.558041 0.092054 0.349637
v -0.283166 0.122917 0.391431
v -0.434100 0.194849 0.293099
v -0.279982 0.091831 0.352855
v -0.266177 0.122917 0.392319
v 0.800677 0.426380 -0.153333
v 0.866105 0.400632 -0.121110
v 0.866280 0.401290 0.018715
v 0.897563 0.412296 0.056036
v -0.266177 0.122917 0.392319
v -0.279982 0.091831 0.352855
v -0.167962 0.291833 0.345733
v -0.984715 0.343194 -0.352890
v -0.956225 0.386072 -0.216711
v -0.966013 0.405580 -0.359086
v -0.821103 0.319320 -0.434588
v -0.820712 0.409434 -0.406203
v -0.361508 0.400650 -0.424439
v -0.554343 0.223574 -0.218679
v -0.610729 0.194849 -0.222178
v -0.291908 0.223602 -0.210229
v 0.792122 0.110040 -0.102596
v 0.794465 0.110084 -0.213328
v 0.855387 0.110078 -0.133674
v 0.795247 0.110066 0.054473
v 0.833323 0.110135 -0.216837
v 0.830564 0.110112 0.033898
v 0.845843 0.110120 0.090287
v 0.798370 0.110120 0.104955
v 0.775721 0.105688 0.214440
v 0.880343 0.104179 0.214397
v 0.806082 0.104662 -0.354425
v 0.788999 0.104581 -0.353408
v 0.583000 0.223603 -0.205145
v 0.538897 0.223607 -0.331734
v 0.670971 0.223619 0.078522
v 0.665058 0.223608 -0.057633
v 0.539458 0.292700 0.318204
v 1.004564 0.241554 0.129370
v 0.977228 0.203380 0.341602
v 0.991500 0.297862 0.400088
v 0.866105 0.400632 -0.121110
v 0.850731 0.406175 -0.211915
v 0.800677 0.426380 -0.153333
v 0.897563 0.412296 0.056036
v 0.675749 0.422068 -0.024825
v 0.699539 0.422548 0.075016
v 0.861636 0.411270 0.141043
v 0.754257 0.405677 0.353111
v 0.293374 0.407003 0.352662
v 0.528232 0.422948 0.076381
v 0.079821 0.428496 0.219018
v 0.907973 0.411678 0.232421
v 0.765986 0.405693 0.353739
v 0.803059 0.407923 0.353405
v 0.405008 0.422997 0.398774
v -0.667315 0.091371 -0.058599
v -0.610590 0.194546 -0.104682
v -0.671168 0.164682 -0.060507
v 0.802154 0.332110 0.351970
v 0.907973 0.411678 0.232421
v 0.803603 0.360497 0.365152
v -0.812012 0.510124 -0.071602
v -0.810502 0.415795 -0.068873
v -0.814424 0.510077 -0.063143
v -0.788618 0.415871 -0.122972
v -0.788618 0.415871 -0.122972
v -0.814424 0.510077 -0.063143
v -0.810502 0.415795 -0.068873
v -0.812012 0.510124 -0.071602
v 0.800677 0.426380 -0.153333
v 0.866280 0.401290 0.018715
v 0.897563 0.412296 0.056036
v 1.011423 0.513629 0.063527
v 1.011376 0.513875 -0.193605
v 0.861636 0.411270 0.141043
v 1.011495 0.516425 0.187991
v 0.856320 0.405163 0.181481
v 0.850731 0.406175 -0.211915
v 1.011443 0.513101 -0.217702
v -0.667315 0.091371 -0.058599
v -0.667301 0.091344 -0.077317
v -0.610590 0.194546 -0.104682
v -0.995808 0.341734 0.063678
v -0.995872 0.406015 0.082398
v -0.996089 0.374234 0.097937
v -0.996008 0.413855 0.071614
v -0.996008 0.413855 0.071614
v -0.886473 0.509965 -0.034523
v -0.995872 0.406015 0.082398
v -0.281687 0.380340 0.354310
v -0.060456 0.404928 0.359524
v -0.019346 0.409430 0.353903
v 0.083724 0.407408 0.354109
v 0.105302 0.404643 0.358421
v 0.405008 0.422997 0.398774
v 0.856320 0.405163 0.181481
v 0.897563 0.412296 0.056036
v 0.861636 0.411270 0.141043
v 0.117700 0.216023 -0.422380
v -0.265847 0.299917 -0.390731
v 0.124340 0.384113 -0.407730
v 0.012703 0.091839 -0.446813
v 0.272590 0.091858 -0.454221
v -0.057641 0.091875 -0.435198
v -0.541565 0.294858 -0.353657
v -0.441129 0.115663 -0.377377
v 0.310224 0.216119 -0.424007
v -0.621186 0.296649 -0.354834
v -0.569853 0.092015 -0.392929
v -0.010585 0.383762 -0.405582
v 0.277617 0.384017 -0.406103
v 0.086592 0.423639 -0.352410
v 0.402651 0.405354 -0.447355
v 0.732210 0.299724 -0.424621
v 0.788999 0.104581 -0.353408
v 0.869186 0.299302 -0.440863
v 0.954102 0.386716 -0.400386
v 0.768886 0.398755 -0.351476
v 0.806082 0.104662 -0.354425
v 0.732210 0.299724 -0.424621
v 0.277617 0.384017 -0.406103
v 0.768886 0.398755 -0.351476
v 0.544583 0.411823 -0.364292
v -0.785956 0.070201 0.376800
v -0.880682 0.012820 0.369018
v -0.771099 0.024087 0.347099
v -0.821736 0.015077 0.353117
v -0.821003 0.419432 -0.239941
v -0.825398 0.415440 -0.106717
v -0.788618 0.415871 -0.122972
v -0.840099 0.420373 -0.241844
v 0.906349 0.015360 0.178523
v 0.845843 0.110120 0.090287
v 0.880343 0.104179 0.214397
v 0.841326 0.078357 0.218102
v 0.799933 0.050419 0.231919
v 0.906349 0.015360 0.178523
v 0.880343 0.104179 0.214397
v 0.775721 0.105688 0.214440
v 0.841326 0.078357 0.218102
v 0.792122 0.078352 0.209151
v 0.906349 0.015360 0.178523
v 0.799933 0.050419 0.231919
v 0.792122 0.078352 0.209151
v 0.841326 0.078357 0.218102
v 0.798370 0.110120 0.104955
v 0.775721 0.105688 0.214440
v 0.906349 0.015360 0.178523
v 0.845843 0.110120 0.090287
v 0.798370 0.110120 0.104955
v 0.795247 0.110066 0.054473
v 0.830564 0.110112 0.033898
v 0.845843 0.110120 0.090287
v 0.798370 0.110120 0.104955
v 0.775721 0.105688 0.214440
v 0.880343 0.104179 0.214397
v 0.845843 0.110120 0.090287
v -1.039289 0.280367 0.102437
v -0.996089 0.374234 0.097937
v -1.024562 0.281287 0.219035
v -1.010502 0.385860 0.219057
v 0.754257 0.405677 0.353111
v 0.785873 0.361077 0.365497
v 0.533648 0.337068 0.351672
v 0.765986 0.405693 0.353739
v 0.293374 0.407003 0.352662
v 0.264456 0.393971 0.365176
v 0.405008 0.422997 0.398774
v -1.024562 0.281287 0.219035
v -1.039289 0.280367 0.102437
v -0.750065 0.223623 0.211211
v -0.778342 0.223613 0.252995
v 0.278008 0.587089 0.383310
v 0.405008 0.422997 0.398774
v 0.063418 0.588077 0.390865
v 0.083724 0.407408 0.354109
v -0.778342 0.223613 0.252995
v -1.024562 0.281287 0.219035
v -0.683932 0.211774 0.354861
v -1.066535 0.273183 0.357165
v -0.354171 0.298364 0.398773
v -0.507517 0.292069 0.344246
v -0.778342 0.223613 0.252995
v -0.354171 0.298364 0.398773
v 0.249171 0.292358 0.316270
v -0.167962 0.291833 0.345733
v 0.125084 0.223207 0.354610
v -0.202915 0.278467 0.354183
v 0.768886 0.398755 -0.351476
v 0.800594 0.400053 -0.281078
v 0.801541 0.400356 -0.280816
v 0.866105 0.400632 -0.121110
v 0.801541 0.400356 -0.280816
v 0.800677 0.426380 -0.153333
v 0.800677 0.426380 -0.153333
v 0.801541 0.400356 -0.280816
v 0.850731 0.406175 -0.211915
v -0.706110 0.214494 0.054523
v -0.671168 0.164682 -0.060507
v -0.552036 0.223599 -0.094381
v -0.610590 0.194546 -0.104682
v -0.558041 0.092054 0.349637
v -0.785956 0.070201 0.376800
v -0.672218 0.091899 0.367848
v -0.771099 0.024087 0.347099
v 0.530866 0.070530 0.416881
v 0.530292 0.092514 0.420534
v 0.264364 0.091868 0.391856
v 0.442242 0.091109 0.402817
v 0.530866 0.070530 0.416881
v 0.264364 0.091868 0.391856
v 0.530292 0.092514 0.420534
v 0.530292 0.092514 0.420534
v 0.442242 0.091109 0.402817
v 0.264364 0.091868 0.391856
v -0.803623 0.301533 -0.350389
v -0.956225 0.386072 -0.216711
v -0.554343 0.223574 -0.218679
v -0.840099 0.420373 -0.241844
v -0.956225 0.386072 -0.216711
v -0.825398 0.415440 -0.106717
v -0.995947 0.390545 -0.069993
v -1.024562 0.281287 0.219035
v -1.039289 0.280367 0.102437
v -1.010502 0.385860 0.219057
v 0.991500 0.297862 0.400088
v 0.785873 0.361077 0.365497
v 0.803603 0.360497 0.365152
v 0.544927 0.249428 0.372259
v 0.803059 0.407923 0.353405
v 0.907973 0.411678 0.232421
v 0.803603 0.360497 0.365152
v 0.949424 0.408203 -0.351769
v 0.954102 0.386716 -0.400386
v 0.850731 0.406175 -0.211915
v 0.608581 0.420579 -0.215334
v 0.949424 0.408203 -0.351769
v 0.850731 0.406175 -0.211915
v 0.544583 0.411823 -0.364292
v 0.768886 0.398755 -0.351476
v 0.608581 0.420579 -0.215334
v 0.869186 0.299302 -0.440863
v 0.768886 0.398755 -0.351476
v 0.954102 0.386716 -0.400386
v 0.732210 0.299724 -0.424621
v 0.124340 0.384113 -0.407730
v 0.086592 0.423639 -0.352410
v 0.402651 0.405354 -0.447355
v 0.277617 0.384017 -0.406103
v 0.124340 0.384113 -0.407730
v 0.402651 0.405354 -0.447355
v -0.784660 0.423659 0.148428
v -0.355148 0.426274 0.151701
v -0.338403 0.423665 0.220923
v -0.788618 0.415871 -0.122972
v -0.812012 0.510124 -0.071602
v -0.825398 0.415440 -0.106717
vt 0.635669 0.810798
vt 0.691375 0.810798
vt 0.664753 0.803286
vt 0.240341 0.996714
vt 0.293351 0.996714
vt 0.281785 0.984507
vt 0.691882 0.850235
vt 0.689578 0.897183
vt 0.702156 0.897183
vt 0.697397 0.850411
vt 0.032645 0.107512
vt 0.021114 0.148826
vt 0.084007 0.148826
vt 0.994160 0.380751
vt 0.994160 0.505634
vt 0.986972 0.465387
vt 0.226864 0.929108
vt 0.214051 0.925352
vt 0.152291 0.929108
vt 0.514539 0.889671
vt 0.456873 0.899061
vt 0.561096 0.899061
vt 0.398473 0.788263
vt 0.386792 0.766928
vt 0.398473 0.728169
vt 0.075569 0.007981
vt 0.063342 0.009859
vt 0.146900 0.009859
vt 0.969003 0.044072
vt 0.999551 0.012676
vt 0.999551 0.095305
vt 0.267296 0.552582
vt 0.230529 0.528169
vt 0.192722 0.552582
vt 0.999551 0.828308
vt 0.986972 0.822559
vt 0.999551 0.745070
vt 0.994325 0.840845
vt 0.958451 0.961753
vt 0.995323 0.983568
vt 0.998652 0.961033
vt 0.957323 0.983568
vt 0.078616 0.880006
vt 0.078616 0.919718
vt 0.057053 0.876526
vt 0.057742 0.918538
vt 0.163971 0.537559
vt 0.139057 0.530047
vt 0.116352 0.537559
vt 0.810872 0.292172
vt 0.859088 0.134683
vt 0.898023 0.315023
vt 0.898023 0.131925
vt 0.348244 0.614087
vt 0.350793 0.659219
vt 0.269797 0.656506
vt 0.431615 0.615945
vt 0.266249 0.613615
vt 0.432563 0.659791
vt 0.248094 0.656127
vt 0.534142 0.628725
vt 0.519578 0.695322
vt 0.331686 0.706573
vt 0.354304 0.704432
vt 0.248184 0.706573
vt 0.080178 0.681717
vt 0.477825 0.687558
vt 0.073226 0.635067
vt 0.242028 0.644754
vt 0.440519 0.213615
vt 0.594340 0.271831
vt 0.432615 0.271831
vt 0.579591 0.233236
vt 0.125337 0.890610
vt 0.306828 0.890610
vt 0.181577 0.840845
vt 0.543607 0.874648
vt 0.630661 0.819675
vt 0.464233 0.841683
vt 0.458566 0.842245
vt 0.605388 0.860840
vt 0.678771 0.874648
vt 0.681491 0.812676
vt 0.399371 0.867763
vt 0.318515 0.888732
vt 0.374214 0.850700
vt 0.311321 0.795909
vt 0.374214 0.720657
vt 0.120280 0.518590
vt 0.199237 0.518779
vt 0.070913 0.478641
vt 0.299180 0.433707
vt 0.388970 0.466566
vt 0.392478 0.384717
vt 0.307776 0.391513
vt 0.389899 0.366346
vt 0.276643 0.375402
vt 0.160316 0.328001
vt 0.445514 0.420624
vt 0.457107 0.427880
vt 0.573285 0.387795
vt 0.616962 0.425442
vt 0.589737 0.474918
vt 0.619497 0.379451
vt 0.573018 0.379546
vt 0.483387 0.378087
vt 0.473695 0.476833
vt 0.493911 0.515736
vt 0.485772 0.438879
vt 0.574889 0.517499
vt 0.390513 0.473964
vt 0.306631 0.472572
vt 0.222993 0.432208
vt 0.221679 0.474209
vt 0.173846 0.381306
vt 0.063342 0.423837
vt 0.225009 0.518779
vt 0.522879 0.297066
vt 0.577858 0.296755
vt 0.483925 0.296065
vt 0.349095 0.284177
vt 0.239222 0.283099
vt 0.151357 0.313748
vt 0.458670 0.920657
vt 0.439811 0.870892
vt 0.309524 0.920657
vt 0.348158 0.999530
vt 0.456531 0.999530
vt 0.466757 0.933803
vt 0.393707 0.938723
vt 0.759703 0.265005
vt 0.797394 0.243560
vt 0.752327 0.104177
vt 0.796509 0.095363
vt 0.797024 0.082160
vt 0.734238 0.258909
vt 0.797394 0.350704
vt 0.715633 0.332199
vt 0.999551 0.529108
vt 0.956618 0.588194
vt 0.941150 0.537082
vt 0.999551 0.607042
vt 0.460414 0.564789
vt 0.354569 0.564789
vt 0.399842 0.505175
vt 0.472147 0.500000
vt 0.302336 0.557377
vt 0.312676 0.511047
vt 0.923464 0.139596
vt 0.871968 0.092112
vt 0.939353 0.142254
vt 0.939353 0.050235
vt 0.661529 0.887679
vt 0.710243 0.929108
vt 0.555705 0.929108
vt 0.579668 0.878404
vt 0.735145 0.737700
vt 0.708930 0.787974
vt 0.770440 0.762278
vt 0.770440 0.648357
vt 0.762992 0.860563
vt 0.686487 0.697099
vt 0.685085 0.691583
vt 0.905928 0.706194
vt 0.909279 0.677100
vt 0.824349 0.731797
vt 0.827384 0.663692
vt 0.914196 0.629199
vt 0.884941 0.774178
vt 0.914196 0.763030
vt 0.850525 0.601408
vt 0.080413 0.962911
vt 0.002246 0.962911
vt 0.023060 0.894760
vt 0.035359 0.884038
vt 0.984795 0.284071
vt 0.916643 0.348826
vt 0.986074 0.348826
vt 0.912399 0.275587
vt 0.984277 0.441187
vt 0.914196 0.437089
vt 0.984277 0.515023
vt 0.922418 0.513269
vt 0.699461 0.999530
vt 0.768301 0.931925
vt 0.815364 0.962286
vt 0.800235 0.999530
vt 0.822552 0.811795
vt 0.775024 0.850235
vt 0.771339 0.754088
vt 0.814210 0.618310
vt 0.822552 0.698748
vt 0.917790 0.655411
vt 0.918664 0.659777
vt 0.983378 0.625822
vt 0.983378 0.699061
vt 0.982070 0.363195
vt 0.984277 0.429577
vt 0.939346 0.354460
vt 0.921384 0.429577
vt 0.156912 0.192958
vt 0.185213 0.268075
vt 0.129955 0.268075
vt 0.225067 0.215078
vt 0.096239 0.213204
vt 0.041779 0.264246
vt 0.280246 0.224095
vt 0.271855 0.271414
vt 0.175591 0.283099
vt 0.152332 0.139298
vt 0.224709 0.174272
vt 0.223788 0.174886
vt 0.136783 0.176081
vt 0.089627 0.142162
vt 0.081999 0.175588
vt 0.137561 0.126403
vt 0.055637 0.122752
vt 0.111131 0.078379
vt 0.200866 0.076699
vt 0.244896 0.126220
vt 0.352058 0.173512
vt 0.382650 0.127171
vt 0.323607 0.078217
vt 0.274328 0.057356
vt 0.374564 0.218774
vt 0.375892 0.223201
vt 0.401421 0.127191
vt 0.397488 0.033736
vt 0.398298 0.149632
vt 0.419532 0.201361
vt 0.556690 0.200354
vt 0.564995 0.127652
vt 0.558135 0.109507
vt 0.623507 0.175579
vt 0.569868 0.115027
vt 0.574614 0.069738
vt 0.568480 0.070328
vt 0.414429 0.224305
vt 0.176977 0.000469
vt 0.131582 0.028387
vt 0.002051 0.032566
vt 0.278191 0.032462
vt 0.310352 0.031729
vt 0.396110 0.032107
vt 0.311731 0.269852
vt 0.278782 0.269841
vt 0.419373 0.283099
vt 0.614855 0.030208
vt 0.568400 0.014578
vt 0.613273 0.078303
vt 0.624888 0.127637
vt 0.421657 0.007126
vt 0.000449 0.014770
vt 0.309289 0.010602
vt 0.266365 0.009708
vt 0.324837 0.272468
vt 0.148744 0.897183
vt 0.072327 0.923474
vt 0.243037 0.923474
vt 0.713101 0.562395
vt 0.661725 0.544460
vt 0.744385 0.627077
vt 0.710733 0.535868
vt 0.744385 0.470929
vt 0.722838 0.355399
vt 0.716249 0.624229
vt 0.684021 0.689671
vt 0.730823 0.687132
vt 0.600629 0.978441
vt 0.619270 0.938101
vt 0.681411 0.932864
vt 0.651974 0.989202
vt 0.703055 0.989202
vt 0.873765 0.582898
vt 0.917724 0.555689
vt 0.926775 0.636150
vt 0.926775 0.524413
vt 0.682390 0.603286
vt 0.637649 0.655812
vt 0.682390 0.684038
vt 0.598832 0.632469
vt 0.021114 0.508451
vt 0.090296 0.508451
vt 0.045672 0.457746
vt 0.024784 0.284324
vt 0.011903 0.248930
vt 0.007602 0.288927
vt 0.003145 0.345524
vt 0.024974 0.350048
vt 0.005292 0.499061
vt 0.037950 0.207939
vt 0.030451 0.171867
vt 0.077718 0.158216
vt 0.045388 0.441903
vt 0.077718 0.347229
vt 0.030423 0.324523
vt 0.115583 0.294564
vt 0.108823 0.336620
vt 0.029200 0.310308
vt 0.111631 0.283099
vt 0.071694 0.283606
vt 0.159479 0.336620
vt 0.505391 0.996714
vt 0.664420 0.996714
vt 0.544075 0.976995
vt 0.858917 0.429394
vt 0.838921 0.376995
vt 0.807870 0.440596
vt 0.835810 0.541480
vt 0.881817 0.542707
vt 0.793801 0.448871
vt 0.798886 0.533999
vt 0.898922 0.417304
vt 0.898922 0.544131
vt 0.602426 0.553521
vt 0.574423 0.526291
vt 0.493711 0.553521
vt 0.850181 0.063155
vt 0.808719 0.042811
vt 0.803209 0.066116
vt 0.796260 0.052283
vt 0.800026 0.063212
vt 0.756085 0.050515
vt 0.714735 0.070892
vt 0.844416 0.022348
vt 0.857362 0.009859
vt 0.898978 0.070892
vt 0.910602 0.017318
vt 0.797593 0.016676
vt 0.964510 0.212722
vt 0.956396 0.242723
vt 0.904313 0.200767
vt 0.908294 0.154460
vt 0.906913 0.242723
vt 0.954260 0.179810
vt 0.584465 0.623516
vt 0.591568 0.608405
vt 0.596305 0.624883
vt 0.597252 0.608503
vt 0.424166 0.610222
vt 0.237449 0.597098
vt 0.178429 0.565425
vt 0.287034 0.569364
vt 0.308366 0.592902
vt 0.320154 0.608737
vt 0.363268 0.591263
vt 0.373121 0.610676
vt 0.099875 0.582299
vt 0.489704 0.594763
vt 0.511255 0.595160
vt 0.421013 0.571770
vt 0.597278 0.597969
vt 0.459562 0.573453
vt 0.090031 0.531837
vt 0.513914 0.576642
vt 0.656334 0.559196
vt 0.008557 0.574923
vt 0.008708 0.539604
vt 0.003145 0.624883
vt 0.276046 0.563635
vt 0.259210 0.508751
vt 0.253774 0.508451
vt 0.911500 0.256808
vt 0.896226 0.377963
vt 0.911376 0.425042
vt 0.910405 0.478560
vt 0.911500 0.485915
vt 0.960018 0.142177
vt 0.989668 0.126291
vt 0.989668 0.204225
vt 0.706649 0.079343
vt 0.888140 0.079343
vt 0.781976 0.068075
vt 0.953729 0.754819
vt 0.991464 0.710329
vt 0.991464 0.761033
vt 0.817698 0.374178
vt 0.804582 0.295305
vt 0.836573 0.346473
vt 0.879342 0.374178
vt 0.884546 0.328004
vt 0.952830 0.775117
vt 0.952830 0.901878
vt 0.937556 0.828082
vt 0.026505 0.877465
vt 0.006739 0.837662
vt 0.026505 0.786385
vt 0.809075 0.854930
vt 0.851472 0.808149
vt 0.866495 0.828744
vt 0.914945 0.782629
vt 0.878518 0.854558
vt 0.925876 0.854930
vt 0.866434 0.829064
vt 0.994160 0.960094
vt 0.977089 0.908224
vt 0.994160 0.857746
vt 0.615004 0.264319
vt 0.608083 0.183568
vt 0.615004 0.185093
vt 0.593441 0.247934
vt 0.599730 0.961972
vt 0.538614 0.950980
vt 0.466757 0.961972
vt 0.596575 0.944782
vt 0.482820 0.909390
vt 0.908786 0.898200
vt 0.933470 0.889549
vt 0.966307 0.916901
vt 0.897125 0.916901
vt 0.930502 0.864319
vt 0.936508 0.864975
vt 0.057053 0.779812
vt 0.007227 0.758216
vt 0.003145 0.779812
vt 0.591644 0.213615
vt 0.555445 0.204225
vt 0.465858 0.213615
vt 0.762354 0.493427
vt 0.746181 0.430371
vt 0.762354 0.423944
vt 0.992363 0.262441
vt 0.973817 0.243662
vt 0.931005 0.262441
vt 0.915993 0.258710
vt 0.012727 0.650235
vt 0.002246 0.664319
vt 0.075921 0.664319
vt 0.205411 0.605654
vt 0.243935 0.633333
vt 0.198271 0.626410
vt 0.147240 0.594836
vt 0.149332 0.626641
vt 0.002246 0.633333
vt 0.953729 0.041896
vt 0.961815 0.022066
vt 0.961815 0.130047
vt 0.483103 0.716919
vt 0.441699 0.713973
vt 0.473229 0.691078
vt 0.540220 0.720224
vt 0.440854 0.696082
vt 0.535606 0.705322
vt 0.555661 0.705049
vt 0.556566 0.722739
vt 0.586206 0.732027
vt 0.591757 0.705408
vt 0.371052 0.705664
vt 0.370620 0.714708
vt 0.441686 0.805202
vt 0.394673 0.818310
vt 0.548677 0.780984
vt 0.500382 0.784198
vt 0.624583 0.818310
vt 0.586256 0.645540
vt 0.640506 0.683519
vt 0.673405 0.688183
vt 0.303211 0.835922
vt 0.313118 0.865258
vt 0.289888 0.856442
vt 0.284294 0.778689
vt 0.234689 0.839073
vt 0.225729 0.805755
vt 0.260893 0.759541
vt 0.197532 0.714657
vt 0.068219 0.790558
vt 0.177424 0.833515
vt 0.029200 0.865258
vt 0.259588 0.725009
vt 0.200726 0.712544
vt 0.211186 0.706573
vt 0.092334 0.758794
vt 0.614106 0.601408
vt 0.655436 0.601408
vt 0.633323 0.586385
vt 0.765049 0.011737
vt 0.822552 0.011737
vt 0.766560 0.000469
vt 0.347790 0.890610
vt 0.373565 0.873709
vt 0.346361 0.888067
vt 0.383199 0.890610
vt 0.186433 0.552582
vt 0.149596 0.550039
vt 0.176799 0.535681
vt 0.151025 0.552582
vt 0.785703 0.852113
vt 0.844108 0.864877
vt 0.855801 0.876250
vt 0.856577 0.927665
vt 0.774329 0.929483
vt 0.883963 0.867292
vt 0.896515 0.930047
vt 0.897125 0.864610
vt 0.763252 0.864869
vt 0.766633 0.930047
vt 0.347260 0.991080
vt 0.345035 0.984507
vt 0.305930 0.991080
vt 0.957323 0.592019
vt 0.936092 0.588099
vt 0.945715 0.581690
vt 0.933962 0.592019
vt 0.704991 0.006103
vt 0.647349 0.008920
vt 0.708446 0.008920
vt 0.539533 0.827700
vt 0.468312 0.825822
vt 0.455076 0.827700
vt 0.553908 0.290610
vt 0.546909 0.288732
vt 0.449686 0.290610
vt 0.613208 0.546009
vt 0.656334 0.546009
vt 0.626365 0.542253
vt 0.672126 0.268607
vt 0.644392 0.139976
vt 0.617977 0.270839
vt 0.712938 0.233707
vt 0.712938 0.320732
vt 0.712499 0.209846
vt 0.644512 0.046840
vt 0.702663 0.080194
vt 0.671985 0.333052
vt 0.643882 0.020188
vt 0.710793 0.036901
vt 0.617963 0.225724
vt 0.617855 0.322031
vt 0.596137 0.258364
vt 0.617057 0.366568
vt 0.645221 0.473990
vt 0.710717 0.496480
vt 0.641234 0.519866
vt 0.606731 0.543193
vt 0.604385 0.479139
vt 0.710304 0.502179
vt 0.021566 0.696244
vt 0.168464 0.721121
vt 0.010332 0.738498
vt 0.082679 0.738498
vt 0.000449 0.529108
vt 0.036388 0.529108
vt 0.004734 0.510329
vt 0.020093 0.517356
vt 0.115062 0.932054
vt 0.072327 0.938498
vt 0.076272 0.925352
vt 0.116352 0.938498
vt 0.789308 0.615493
vt 0.789308 0.663380
vt 0.761456 0.631493
vt 0.287620 0.526229
vt 0.300539 0.537453
vt 0.300539 0.495305
vt 0.275382 0.516378
vt 0.286717 0.549765
vt 0.668014 0.721871
vt 0.677898 0.708451
vt 0.677898 0.753521
vt 0.820315 0.556104
vt 0.832180 0.557703
vt 0.825057 0.572749
vt 0.860287 0.579981
vt 0.839307 0.549765
vt 0.809075 0.595775
vt 0.855437 0.595775
vt 0.587152 0.171362
vt 0.570875 0.174829
vt 0.567385 0.188263
vt 0.586579 0.188263
vt 0.091475 0.856073
vt 0.127134 0.848357
vt 0.127134 0.884038
vt 0.086703 0.872262
vt 0.838520 0.188263
vt 0.805115 0.188263
vt 0.838724 0.148709
vt 0.804582 0.146948
vt 0.291554 0.749765
vt 0.307727 0.740376
vt 0.307727 0.825822
vt 0.291909 0.745827
vt 0.491745 0.280282
vt 0.482929 0.287793
vt 0.530548 0.287793
vt 0.912399 0.700309
vt 0.946541 0.682160
vt 0.946541 0.788263
vt 0.930626 0.784381
vt 0.868402 0.937117
vt 0.829739 0.994836
vt 0.937556 0.931925
vt 0.935193 0.994836
vt 0.758062 0.517206
vt 0.751572 0.603005
vt 0.790081 0.482633
vt 0.798293 0.614554
vt 0.798293 0.369484
vt 0.265893 0.976056
vt 0.172058 0.983568
vt 0.317610 0.983568
vt 0.023810 0.998592
vt 0.157979 0.998592
vt 0.064418 0.973239
vt 0.169362 0.993661
vt 0.315813 0.787324
vt 0.314915 0.761249
vt 0.315813 0.761033
vt 0.297844 0.735681
vt 0.353549 0.735681
vt 0.315421 0.716901
vt 0.814465 0.367606
vt 0.814465 0.411737
vt 0.798293 0.388557
vt 0.775831 0.421127
vt 0.749775 0.386027
vt 0.775831 0.347887
vt 0.757986 0.360167
vt 0.681748 0.715023
vt 0.700359 0.790141
vt 0.694783 0.751547
vt 0.681491 0.790141
vt 0.632075 0.092488
vt 0.624888 0.091825
vt 0.632075 0.002347
vt 0.382778 0.490558
vt 0.352650 0.495305
vt 0.441599 0.495305
vt 0.353290 0.487793
vt 0.323001 0.612676
vt 0.294157 0.609859
vt 0.236748 0.612676
vt 0.286283 0.913146
vt 0.230458 0.958216
vt 0.369721 0.958216
vt 0.044474 0.105634
vt 0.044474 0.064293
vt 0.000871 0.100895
vt 0.000449 0.041784
vt 0.874663 0.457266
vt 0.899820 0.427700
vt 0.899820 0.481221
vt 0.077718 0.968545
vt 0.141799 0.938498
vt 0.136172 0.939191
vt 0.222372 0.968545
vt 0.097527 0.510329
vt 0.048068 0.525352
vt 0.104672 0.525352
vt 0.720126 0.159752
vt 0.729111 0.144131
vt 0.729111 0.216432
vt 0.464061 0.820188
vt 0.581761 0.820188
vt 0.535799 0.788263
vt 0.067835 0.387324
vt 0.140611 0.387324
vt 0.091041 0.338498
vt 0.852397 0.088199
vt 0.811645 0.125352
vt 0.873765 0.125352
vt 0.808176 0.082160
vt 0.956424 0.858067
vt 0.974394 0.839906
vt 0.974394 0.950704
vt 0.714735 0.240963
vt 0.723720 0.190141
vt 0.723720 0.284977
vt 0.721923 0.961033
vt 0.700359 0.819097
vt 0.721923 0.809859
vt 0.252920 0.864319
vt 0.288859 0.864319
vt 0.257847 0.851174
usemtl baked
f 216/216 210/210 217/217
f 217/217 210/210 214/214
f 23/23 24/24 25/25
f 214/214 210/210 213/213
f 216/216 211/211 210/210
f 216/216 220/220 211/211
f 212/212 207/207 213/213
f 218/218 216/216 217/217
f 218/218 219/219 216/216
f 219/219 220/220 216/216
f 219/219 224/224 220/220
f 210/210 211/211 212/212
f 213/213 210/210 212/212
f 221/221 230/230 225/225
f 229/229 230/230 221/221
f 224/224 223/223 220/220
f 220/220 223/223 222/222
f 225/225 230/230 238/238
f 225/225 238/238 226/226
f 211/211 221/221 225/225
f 211/211 225/225 212/212
f 220/220 221/221 211/211
f 220/220 222/222 221/221
f 222/222 223/223 227/227
f 223/223 228/228 227/227
f 227/227 229/229 221/221
f 222/222 227/227 221/221
f 223/223 244/244 228/228
f 243/243 244/244 223/223
f 243/243 223/223 242/242
f 242/242 223/223 224/224
f 543/543 542/542 544/544
f 541/541 542/542 543/543
f 545/545 548/548 546/546
f 557/557 558/558 559/559
f 560/560 561/561 562/562
f 556/556 553/553 552/552
f 556/556 552/552 555/555
f 552/552 554/554 555/555
f 549/549 550/550 551/551
f 561/561 563/563 566/566
f 561/561 566/566 565/565
f 563/563 561/561 564/564
f 564/564 561/561 560/560
f 560/560 561/561 565/565
f 552/552 553/553 554/554
f 441/441 438/438 440/440
f 441/441 440/440 443/443
f 567/567 568/568 569/569
f 438/438 439/439 442/442
f 438/438 442/442 440/440
f 570/570 567/567 569/569
f 571/571 572/572 573/573
f 574/574 571/571 573/573
f 439/439 448/448 442/442
f 449/449 448/448 439/439
f 212/212 225/225 226/226
f 207/207 226/226 245/245
f 246/246 245/245 208/208
f 207/207 245/245 246/246
f 344/344 345/345 341/341
f 26/26 27/27 28/28
f 207/207 212/212 226/226
f 500/500 501/501 502/502
f 500/500 503/503 501/501
f 277/277 275/275 274/274
f 444/444 443/443 455/455
f 233/233 235/235 234/234
f 233/233 234/234 232/232
f 575/575 576/576 577/577
f 577/577 576/576 578/578
f 460/460 462/462 461/461
f 461/461 462/462 463/463
f 464/464 461/461 463/463
f 214/214 213/213 215/215
f 579/579 582/582 580/580
f 583/583 584/584 585/585
f 336/336 340/340 337/337
f 363/363 364/364 365/365
f 465/465 466/466 470/470
f 466/466 472/472 470/470
f 579/579 580/580 581/581
f 470/470 469/469 465/465
f 339/339 338/338 337/337
f 336/336 337/337 338/338
f 469/469 470/470 471/471
f 467/467 468/468 466/466
f 208/208 207/207 246/246
f 207/207 208/208 209/209
f 365/365 364/364 366/366
f 14/14 15/15 16/16
f 467/467 466/466 463/463
f 463/463 466/466 465/465
f 464/464 463/463 465/465
f 464/464 465/465 469/469
f 589/589 586/586 588/588
f 586/586 587/587 588/588
f 245/245 256/256 208/208
f 590/590 591/591 592/592
f 594/594 595/595 596/596
f 596/596 595/595 597/597
f 599/599 600/600 601/601
f 594/594 596/596 598/598
f 343/343 342/342 360/360
f 366/366 367/367 365/365
f 20/20 21/21 22/22
f 77/77 81/81 78/78
f 77/77 78/78 79/79
f 591/591 593/593 592/592
f 81/81 82/82 83/83
f 81/81 83/83 78/78
f 510/510 511/511 512/512
f 139/139 142/142 140/140
f 139/139 140/140 141/141
f 395/395 396/396 397/397
f 602/602 603/603 604/604
f 603/603 605/605 604/604
f 606/606 607/607 608/608
f 609/609 610/610 611/611
f 612/612 613/613 614/614
f 388/388 389/389 390/390
f 388/388 390/390 394/394
f 350/350 355/355 352/352
f 355/355 356/356 352/352
f 458/458 460/460 461/461
f 424/424 423/423 425/425
f 4/4 5/5 6/6
f 513/513 514/514 515/515
f 438/438 439/439 440/440
f 453/453 441/441 452/452
f 441/441 445/445 452/452
f 441/441 444/444 445/445
f 441/441 443/443 444/444
f 7/7 8/8 9/9
f 10/10 7/7 9/9
f 93/93 107/107 100/100
f 93/93 111/111 107/107
f 96/96 94/94 99/99
f 106/106 96/96 99/99
f 94/94 93/93 99/99
f 99/99 93/93 100/100
f 100/100 108/108 109/109
f 107/107 108/108 100/100
f 54/54 55/55 56/56
f 58/58 54/54 56/56
f 58/58 56/56 60/60
f 58/58 60/60 69/69
f 43/43 44/44 45/45
f 44/44 46/46 45/45
f 115/115 92/92 95/95
f 113/113 112/112 92/92
f 113/113 114/114 112/112
f 115/115 113/113 92/92
f 57/57 59/59 55/55
f 57/57 55/55 54/54
f 61/61 59/59 57/57
f 435/435 436/436 437/437
f 615/615 616/616 617/617
f 616/616 618/618 617/617
f 407/407 408/408 409/409
f 410/410 407/407 409/409
f 101/101 109/109 103/103
f 102/102 101/101 103/103
f 101/101 102/102 105/105
f 104/104 105/105 102/102
f 109/109 108/108 110/110
f 109/109 110/110 103/103
f 450/450 438/438 441/441
f 450/450 441/441 453/453
f 451/451 439/439 450/450
f 439/439 438/438 450/450
f 446/446 445/445 444/444
f 446/446 444/444 447/447
f 92/92 93/93 94/94
f 95/95 92/92 94/94
f 95/95 96/96 97/97
f 95/95 94/94 96/96
f 92/92 112/112 93/93
f 112/112 111/111 93/93
f 69/69 60/60 68/68
f 257/257 258/258 259/259
f 99/99 101/101 106/106
f 106/106 101/101 105/105
f 454/454 452/452 446/446
f 452/452 445/445 446/446
f 447/447 444/444 455/455
f 447/447 455/455 456/456
f 115/115 95/95 98/98
f 98/98 95/95 97/97
f 454/454 447/447 456/456
f 454/454 446/446 447/447
f 99/99 100/100 101/101
f 100/100 109/109 101/101
f 123/123 98/98 122/122
f 98/98 97/97 122/122
f 121/121 97/97 96/96
f 122/122 97/97 121/121
f 1/1 2/2 3/3
f 458/458 459/459 460/460
f 401/401 399/399 398/398
f 398/398 399/399 400/400
f 496/496 495/495 491/491
f 491/491 495/495 487/487
f 422/422 423/423 424/424
f 487/487 488/488 489/489
f 491/491 487/487 490/490
f 487/487 489/489 490/490
f 380/380 377/377 379/379
f 335/335 330/330 333/333
f 380/380 379/379 381/381
f 330/330 332/332 333/333
f 377/377 378/378 379/379
f 17/17 18/18 19/19
f 490/490 489/489 492/492
f 490/490 492/492 493/493
f 488/488 494/494 492/492
f 489/489 488/488 492/492
f 182/182 181/181 183/183
f 180/180 181/181 182/182
f 176/176 179/179 177/177
f 176/176 177/177 178/178
f 330/330 331/331 332/332
f 331/331 334/334 332/332
f 190/190 191/191 192/192
f 188/188 190/190 192/192
f 291/291 292/292 286/286
f 291/291 293/293 292/292
f 360/360 361/361 343/343
f 371/371 372/372 373/373
f 74/74 75/75 76/76
f 426/426 427/427 428/428
f 269/269 270/270 271/271
f 269/269 271/271 272/272
f 157/157 159/159 160/160
f 188/188 189/189 190/190
f 157/157 158/158 159/159
f 159/159 158/158 161/161
f 184/184 185/185 186/186
f 416/416 417/417 418/418
f 162/162 158/158 157/157
f 162/162 157/157 163/163
f 419/419 420/420 421/421
f 619/619 620/620 621/621
f 622/622 620/620 619/619
f 457/457 454/454 456/456
f 289/289 288/288 290/290
f 626/626 627/627 628/628
f 623/623 624/624 625/625
f 630/630 631/631 632/632
f 627/627 626/626 629/629
f 272/272 271/271 273/273
f 362/362 361/361 360/360
f 289/289 285/285 288/288
f 285/285 287/287 288/288
f 291/291 286/286 285/285
f 285/285 286/286 287/287
f 313/313 307/307 306/306
f 306/306 307/307 308/308
f 172/172 173/173 174/174
f 172/172 174/174 175/175
f 120/120 106/106 118/118
f 106/106 105/105 118/118
f 96/96 106/106 121/121
f 121/121 106/106 120/120
f 151/151 150/150 152/152
f 149/149 150/150 151/151
f 184/184 186/186 187/187
f 118/118 105/105 104/104
f 118/118 104/104 119/119
f 497/497 498/498 499/499
f 473/473 474/474 475/475
f 408/408 407/407 411/411
f 408/408 411/411 412/412
f 318/318 319/319 320/320
f 235/235 251/251 234/234
f 266/266 262/262 261/261
f 260/260 261/261 262/262
f 267/267 268/268 262/262
f 633/633 634/634 635/635
f 266/266 267/267 262/262
f 432/432 431/431 433/433
f 429/429 431/431 432/432
f 263/263 262/262 264/264
f 260/260 262/262 263/263
f 263/263 264/264 265/265
f 517/517 522/522 527/527
f 321/321 319/319 329/329
f 325/325 329/329 319/319
f 636/636 637/637 638/638
f 637/637 639/639 638/638
f 429/429 430/430 431/431
f 248/248 250/250 236/236
f 318/318 325/325 319/319
f 318/318 326/326 325/325
f 327/327 326/326 318/318
f 327/327 328/328 326/326
f 124/124 125/125 126/126
f 90/90 117/117 112/112
f 193/193 194/194 195/195
f 195/195 194/194 196/196
f 35/35 36/36 37/37
f 35/35 38/38 36/36
f 138/138 137/137 136/136
f 136/136 137/137 131/131
f 226/226 238/238 247/247
f 315/315 316/316 317/317
f 507/507 508/508 509/509
f 247/247 245/245 226/226
f 345/345 344/344 347/347
f 344/344 346/346 347/347
f 322/322 321/321 323/323
f 322/322 323/323 324/324
f 321/321 322/322 320/320
f 319/319 321/321 320/320
f 348/348 354/354 342/342
f 341/341 348/348 342/342
f 359/359 357/357 348/348
f 132/132 131/131 137/137
f 312/312 309/309 311/311
f 309/309 308/308 311/311
f 640/640 641/641 642/642
f 357/357 354/354 348/348
f 357/357 358/358 354/354
f 346/346 351/351 353/353
f 346/346 353/353 349/349
f 346/346 343/343 351/351
f 344/344 343/343 346/346
f 341/341 343/343 344/344
f 353/353 355/355 350/350
f 349/349 353/353 350/350
f 341/341 342/342 343/343
f 374/374 375/375 376/376
f 67/67 64/64 59/59
f 59/59 64/64 55/55
f 61/61 62/62 59/59
f 62/62 67/67 59/59
f 56/56 63/63 60/60
f 63/63 65/65 60/60
f 60/60 65/65 66/66
f 60/60 66/66 68/68
f 55/55 64/64 56/56
f 64/64 63/63 56/56
f 643/643 646/646 644/644
f 643/643 644/644 645/645
f 647/647 648/648 649/649
f 294/294 295/295 289/289
f 289/289 290/290 294/294
f 77/77 79/79 80/80
f 84/84 77/77 80/80
f 340/340 349/349 337/337
f 349/349 350/350 337/337
f 347/347 346/346 340/340
f 346/346 349/349 340/340
f 350/350 352/352 337/337
f 337/337 352/352 339/339
f 476/476 477/477 478/478
f 650/650 651/651 652/652
f 390/390 391/391 392/392
f 394/394 390/390 392/392
f 406/406 403/403 405/405
f 403/403 402/402 405/405
f 653/653 654/654 655/655
f 656/656 657/657 658/658
f 389/389 391/391 390/390
f 659/659 662/662 660/660
f 659/659 660/660 661/661
f 392/392 391/391 393/393
f 47/47 48/48 49/49
f 402/402 403/403 404/404
f 253/253 240/240 241/241
f 385/385 386/386 387/387
f 539/539 538/538 540/540
f 241/241 240/240 218/218
f 240/240 239/239 218/218
f 239/239 219/219 218/218
f 255/255 254/254 242/242
f 242/242 254/254 243/243
f 663/663 664/664 665/665
f 666/666 667/667 668/668
f 219/219 242/242 224/224
f 239/239 242/242 219/219
f 86/86 88/88 87/87
f 85/85 86/86 87/87
f 521/521 522/522 517/517
f 114/114 90/90 112/112
f 523/523 522/522 521/521
f 42/42 40/40 39/39
f 39/39 40/40 41/41
f 310/310 314/314 306/306
f 115/115 116/116 113/113
f 89/89 90/90 91/91
f 90/90 114/114 91/91
f 116/116 91/91 113/113
f 91/91 114/114 113/113
f 413/413 414/414 415/415
f 282/282 283/283 284/284
f 310/310 306/306 309/309
f 309/309 306/306 308/308
f 526/526 525/525 523/523
f 523/523 525/525 522/522
f 153/153 154/154 155/155
f 156/156 153/153 155/155
f 296/296 297/297 298/298
f 504/504 505/505 506/506
f 297/297 302/302 298/298
f 301/301 300/300 299/299
f 299/299 300/300 297/297
f 299/299 297/297 296/296
f 29/29 30/30 31/31
f 32/32 33/33 34/34
f 197/197 198/198 199/199
f 200/200 199/199 198/198
f 236/236 250/250 251/251
f 236/236 251/251 235/235
f 164/164 166/166 169/169
f 164/164 169/169 170/170
f 144/144 147/147 145/145
f 147/147 148/148 145/145
f 516/516 518/518 524/524
f 524/524 518/518 528/528
f 517/517 527/527 518/518
f 516/516 517/517 518/518
f 532/532 520/520 531/531
f 520/520 524/524 531/531
f 520/520 519/519 516/516
f 524/524 520/520 516/516
f 519/519 521/521 517/517
f 519/519 517/517 516/516
f 206/206 205/205 203/203
f 278/278 281/281 279/279
f 274/274 275/275 276/276
f 278/278 279/279 280/280
f 531/531 535/535 534/534
f 531/531 534/534 533/533
f 524/524 528/528 531/531
f 537/537 538/538 539/539
f 201/201 204/204 202/202
f 11/11 12/12 13/13
f 164/164 165/165 166/166
f 166/166 165/165 167/167
f 536/536 532/532 533/533
f 532/532 531/531 533/533
f 165/165 168/168 167/167
f 168/168 171/171 167/167
f 70/70 71/71 72/72
f 70/70 73/73 71/71
f 382/382 383/383 384/384
f 303/303 304/304 305/305
f 205/205 201/201 203/203
f 201/201 202/202 203/203
f 669/669 670/670 671/671
f 136/136 131/131 133/133
f 51/51 53/53 52/52
f 50/50 51/51 52/52
f 237/237 233/233 227/227
f 228/228 237/237 227/227
f 545/545 546/546 547/547
f 131/131 132/132 133/133
f 133/133 132/132 134/134
f 237/237 248/248 236/236
f 672/672 673/673 674/674
f 479/479 482/482 480/480
f 479/479 480/480 481/481
f 368/368 369/369 370/370
f 233/233 236/236 235/235
f 237/237 236/236 233/233
f 135/135 133/133 134/134
f 227/227 233/233 232/232
f 229/229 227/227 232/232
f 483/483 486/486 484/484
f 483/483 484/484 485/485
f 237/237 244/244 249/249
f 244/244 237/237 228/228
f 248/248 237/237 249/249
f 230/230 229/229 231/231
f 229/229 232/232 231/231
f 243/243 252/252 244/244
f 143/143 145/145 146/146
f 143/143 144/144 145/145
f 127/127 129/129 130/130
f 127/127 128/128 129/129
f 528/528 529/529 530/530
f 528/528 518/518 529/529
f 524/524 516/516 528/528
f 254/254 252/252 243/243
f 434/434 432/432 433/433
f 244/244 252/252 249/249
