mtllib P-33_tex.mtl
v 0.413291 0.181085 0.044230
v 1.215420 0.159902 0.022486
v 1.136867 0.180358 0.081143
v 1.136867 0.180358 0.081143
v 1.524096 0.197954 0.057196
v 1.264562 0.178815 0.065427
v -1.618442 0.292755 0.023608
v -1.221237 0.263907 0.036364
v -0.643196 0.263798 -0.002895
v -0.405793 0.271993 -0.056498
v -0.957470 0.282982 -0.086377
v -0.592501 0.292645 -0.024945
v -1.221237 0.263907 0.036364
v -1.618442 0.292755 0.023608
v -1.328686 0.292993 -0.084723
v -1.544155 0.259544 -0.080384
v -1.947396 0.229868 -0.089781
v -1.541953 0.247405 -0.085896
v -1.332765 0.226067 -0.033399
v -1.947396 0.229868 -0.089781
v -1.544155 0.259544 -0.080384
v -0.750167 0.144158 -0.010554
v -1.183264 0.156392 -0.085773
v -0.150914 0.172514 -0.094938
v -2.000691 0.177232 -0.112008
v -1.183264 0.156392 -0.085773
v -0.781120 0.200691 -0.085986
v 0.118799 0.176326 -0.085793
v -1.183264 0.156392 -0.085773
v -0.150914 0.172514 -0.094938
v 1.392493 0.263458 -0.139466
v 0.705021 0.293502 -0.108035
v 1.349338 0.294101 -0.144210
v 1.729466 0.235402 0.047547
v 1.217353 0.263934 0.028512
v 0.763003 0.291200 -0.010190
v 1.729466 0.235402 0.047547
v 1.211772 0.238145 0.060928
v 0.763003 0.291200 -0.010190
v 0.549541 0.250444 -0.104762
v 1.039329 0.290737 -0.110200
v 0.761402 0.291172 -0.012748
v -2.126623 0.231760 -0.108666
v -1.947396 0.229868 -0.089781
v -1.332765 0.226067 -0.033399
v -1.315444 0.201574 -0.039015
v -2.576692 0.187193 -0.085305
v -1.924705 0.160664 -0.079836
v -1.747274 0.172787 -0.140376
v -1.924705 0.160664 -0.079836
v -2.510440 0.189457 -0.120935
v -1.207685 0.141211 -0.078646
v -0.750167 0.144158 -0.010554
v -0.589357 0.115127 -0.010903
v -0.324803 0.144187 -0.081032
v -0.441068 0.111503 0.002220
v -0.589357 0.115127 -0.010903
v -0.435023 0.124963 0.003352
v -0.582720 0.104631 -0.010698
v -0.385758 0.084310 -0.059050
v 0.247510 0.054200 -0.053396
v -0.582720 0.104631 -0.010698
v 1.016338 0.112330 0.025524
v 0.420513 0.082081 0.057993
v 0.430994 0.084063 0.078237
v 0.430994 0.084063 0.078237
v 0.420513 0.082081 0.057993
v 0.499407 0.069081 0.090690
v 0.381737 0.053658 0.079362
v 0.727102 0.044495 0.140244
v 0.575116 0.039404 0.101737
v 0.104257 0.053221 0.043454
v -0.260249 0.083615 0.024157
v 0.133585 0.073313 0.074740
v 1.203599 0.196067 -0.087677
v -0.150914 0.172514 -0.094938
v 0.118799 0.176326 -0.085793
v -1.747274 0.172787 -0.140376
v -2.000691 0.177232 -0.112008
v -0.781120 0.200691 -0.085986
v -0.388407 0.233821 0.017133
v -0.082192 0.259407 0.067947
v 1.211772 0.238145 0.060928
v 2.190812 0.113809 0.041736
v 2.233285 0.109153 0.044146
v 2.823024 0.131545 0.075879
v 2.247015 0.061892 0.088416
v 2.425039 0.081401 0.063923
v 2.233285 0.109153 0.044146
v 2.265822 0.112597 0.070512
v 2.190812 0.113809 0.041736
v 2.823024 0.131545 0.075879
v 2.233285 0.109153 0.044146
v 2.190812 0.113809 0.041736
v 2.265822 0.112597 0.070512
v 0.430994 0.084063 0.078237
v 1.991535 0.113977 0.071248
v 2.001795 0.106928 0.064993
v -1.328686 0.292993 -0.084723
v -1.618442 0.292755 0.023608
v -0.522236 0.292906 0.022684
v -0.592501 0.292645 -0.024945
v -1.231254 0.293961 -0.098253
v -0.455204 0.292599 -0.099734
v -1.737956 0.263217 -0.099582
v -0.839361 0.188865 -0.064347
v 0.054212 0.173364 -0.083967
v -0.158892 0.232729 -0.051896
v 1.127841 0.194188 -0.085273
v 0.682842 0.231061 -0.022264
v 1.526062 0.231884 -0.011728
v 1.478967 0.232925 -0.011309
v 1.214209 0.226987 0.064386
v -0.393411 0.206386 0.015054
v 1.636819 0.176007 -0.010721
v -1.401909 0.108170 0.077441
v -1.618645 0.082406 0.065967
v -1.308628 0.112311 0.012117
v -1.820310 0.080027 0.000058
v 1.127841 0.194188 -0.085273
v -0.393517 0.175383 0.013885
v 0.413291 0.181085 0.044230
v 0.054212 0.173364 -0.083967
v 1.215420 0.159902 0.022486
v -0.324803 0.144187 -0.081032
v 0.430994 0.084063 0.078237
v 1.333431 0.141608 0.013701
v 1.991535 0.113977 0.071248
v 1.204598 0.143366 0.011797
v 1.215420 0.159902 0.022486
v 0.861175 0.172536 -0.045508
v -0.391868 0.148917 0.013152
v -0.379210 0.108004 0.077698
v -0.392599 0.113029 0.012455
v 1.016338 0.112330 0.025524
v 0.430994 0.084063 0.078237
v 1.016338 0.112330 0.025524
v -0.392599 0.113029 0.012455
v 0.430994 0.084063 0.078237
v -0.379210 0.108004 0.077698
v 0.325315 0.203236 -0.104553
v -0.967032 0.236306 -0.099729
v -0.282549 0.233341 -0.104546
v 0.824990 0.207467 -0.110445
v -0.820229 0.215928 -0.092551
v -0.781120 0.200691 -0.085986
v -1.947396 0.229868 -0.089781
v 0.118799 0.176326 -0.085793
v 0.054212 0.173364 -0.083967
v 1.203599 0.196067 -0.087677
v 0.549541 0.250444 -0.104762
v 1.478845 0.237947 -0.159756
v 1.502405 0.232845 -0.158095
v 1.682078 0.201948 -0.099764
v 1.127841 0.194188 -0.085273
v -0.839361 0.188865 -0.064347
v 1.636819 0.176007 -0.010721
v 0.616525 0.292764 -0.017685
v 0.705021 0.293502 -0.108035
v 0.397140 0.293165 -0.024648
v 0.243245 0.293225 -0.096190
v -0.053977 0.291446 -0.085763
v 1.281363 0.300000 -0.084687
v 1.349338 0.294101 -0.144210
v 0.029824 0.265964 -0.011359
v -0.957470 0.282982 -0.086377
v 1.669575 0.262723 -0.029802
v 0.761402 0.291172 -0.012748
v 1.217353 0.263934 0.028512
v 1.729466 0.235402 0.047547
v 0.763003 0.291200 -0.010190
v 1.392493 0.263458 -0.139466
v -1.737956 0.263217 -0.099582
v -2.746949 0.264549 -0.155694
v -2.762077 0.272632 -0.085016
v -1.454740 0.268969 -0.077467
v 1.016338 0.112330 0.025524
v 0.420513 0.082081 0.057993
v -0.392599 0.113029 0.012455
v 0.499407 0.069081 0.090690
v 0.133585 0.073313 0.074740
v -0.260249 0.083615 0.024157
v 0.493988 0.142645 0.084244
v 1.991535 0.113977 0.071248
v 1.484394 0.165935 0.065056
v 0.430994 0.084063 0.078237
v -0.696563 0.232942 -0.070895
v -1.544155 0.259544 -0.080384
v -0.904225 0.203120 -0.067167
v -0.158892 0.232729 -0.051896
v -1.454740 0.268969 -0.077467
v -0.405793 0.271993 -0.056498
v -0.026533 0.258422 -0.071061
v -1.332765 0.226067 -0.033399
v -2.164164 0.206063 -0.085273
v -2.739638 0.260567 -0.085273
v -2.762077 0.272632 -0.085016
v -0.643196 0.263798 -0.002895
v -0.405793 0.271993 -0.056498
v 0.305931 0.264753 0.049486
v 0.029824 0.265964 -0.011359
v -0.750167 0.144158 -0.010554
v -1.315444 0.201574 -0.039015
v -0.839361 0.188865 -0.064347
v -0.781120 0.200691 -0.085986
v -2.000691 0.177232 -0.112008
v -0.409237 0.107067 0.077252
v -0.435023 0.124963 0.003352
v -1.176464 0.141314 0.065049
v -1.269339 0.141108 0.072998
v 1.215420 0.159902 0.022486
v 1.524096 0.197954 0.057196
v 0.413291 0.181085 0.044230
v -0.393915 0.140516 0.012195
v -0.452815 0.146157 0.001865
v -0.391868 0.148917 0.013152
v -0.435023 0.124963 0.003352
v -0.393517 0.175383 0.013885
v -0.471890 0.175558 0.001162
v -0.393411 0.206386 0.015054
v -0.451986 0.203050 0.004665
v 0.413291 0.181085 0.044230
v 1.214209 0.226987 0.064386
v -0.750167 0.144158 -0.010554
v -1.322374 0.176439 0.011935
v 0.147315 0.142210 0.087375
v -1.241612 0.145017 0.018360
v -1.518093 0.204789 0.004607
v 1.486075 0.204856 0.054085
v 1.524096 0.197954 0.057196
v -1.183264 0.156392 -0.085773
v 0.118799 0.176326 -0.085793
v -0.781120 0.200691 -0.085986
v -1.207685 0.141211 -0.078646
v -0.750167 0.144158 -0.010554
v -0.589357 0.115127 -0.010903
v -0.435023 0.124963 0.003352
v -1.924705 0.160664 -0.079836
v -1.315444 0.201574 -0.039015
v 1.211772 0.238145 0.060928
v 0.786132 0.254327 -0.021251
v 1.729466 0.235402 0.047547
v 1.478967 0.232925 -0.011309
v 1.214209 0.226987 0.064386
v 0.682842 0.231061 -0.022264
v -2.576692 0.187193 -0.085305
v -1.315444 0.201574 -0.039015
v -2.510440 0.189457 -0.120935
v -2.000691 0.177232 -0.112008
v -1.747274 0.172787 -0.140376
v -0.393517 0.175383 0.013885
v 1.215420 0.159902 0.022486
v 0.413291 0.181085 0.044230
v 1.215420 0.159902 0.022486
v 0.546714 0.173028 0.085523
v 1.484394 0.165935 0.065056
v 0.054212 0.173364 -0.083967
v 1.127841 0.194188 -0.085273
v 0.861175 0.172536 -0.045508
v 1.203599 0.196067 -0.087677
v -0.324803 0.144187 -0.081032
v -0.391868 0.148917 0.013152
v 0.440970 0.172433 -0.085736
v 1.215420 0.159902 0.022486
v -0.150914 0.172514 -0.094938
v -0.388407 0.233821 0.017133
v 1.214209 0.226987 0.064386
v 1.211772 0.238145 0.060928
v -0.393411 0.206386 0.015054
v -0.393411 0.206386 0.015054
v 1.214209 0.226987 0.064386
v 1.211772 0.238145 0.060928
v -0.388407 0.233821 0.017133
v 1.039329 0.290737 -0.110200
v 0.549541 0.250444 -0.104762
v 0.786132 0.254327 -0.021251
v 1.204598 0.143366 0.011797
v 0.430994 0.084063 0.078237
v 0.493988 0.142645 0.084244
v -0.393517 0.175383 0.013885
v -0.391868 0.148917 0.013152
v 1.215420 0.159902 0.022486
v -1.618442 0.292755 0.023608
v -0.643196 0.263798 -0.002895
v -0.522236 0.292906 0.022684
v -1.241612 0.145017 0.018360
v -1.317816 0.139975 0.011935
v -1.217735 0.166389 0.066761
v -0.452815 0.146157 0.001865
v -0.435023 0.124963 0.003352
v -1.269339 0.141108 0.072998
v -0.441068 0.111503 0.002220
v -1.308628 0.112311 0.012117
v -0.405793 0.271993 -0.056498
v -0.696563 0.232942 -0.070895
v -1.544155 0.259544 -0.080384
v -1.454740 0.268969 -0.077467
v -0.582720 0.104631 -0.010698
v 0.247510 0.054200 -0.053396
v -0.981022 0.083585 -0.010463
v -1.183264 0.156392 -0.085773
v -0.750167 0.144158 -0.010554
v -0.781120 0.200691 -0.085986
v -1.747274 0.172787 -0.140376
v -1.183264 0.156392 -0.085773
v -2.000691 0.177232 -0.112008
v -0.781120 0.200691 -0.085986
v 1.245016 0.206393 0.065320
v 1.214209 0.226987 0.064386
v 1.208831 0.204297 0.071041
v 1.136867 0.180358 0.081143
v 1.486075 0.204856 0.054085
v 1.264562 0.178815 0.065427
v 1.524096 0.197954 0.057196
v 0.413291 0.181085 0.044230
v 1.215420 0.159902 0.022486
v 0.546714 0.173028 0.085523
v 1.136867 0.180358 0.081143
v 0.493988 0.142645 0.084244
v 0.404598 0.168596 0.064990
v -0.391868 0.148917 0.013152
v 0.268568 0.203041 0.081990
v -0.393517 0.175383 0.013885
v 2.190812 0.113809 0.041736
v 1.333431 0.141608 0.013701
v 1.284166 0.167696 0.046130
v -0.324803 0.144187 -0.081032
v 0.118799 0.176326 -0.085793
v 0.054212 0.173364 -0.083967
v -0.391868 0.148917 0.013152
v -0.150914 0.172514 -0.094938
v -0.592501 0.292645 -0.024945
v -0.957470 0.282982 -0.086377
v -0.455204 0.292599 -0.099734
v -0.392599 0.113029 0.012455
v -0.379210 0.108004 0.077698
v 0.147315 0.142210 0.087375
v 0.404598 0.168596 0.064990
v 0.147315 0.142210 0.087375
v 0.493988 0.142645 0.084244
v 0.546714 0.173028 0.085523
v -0.393915 0.140516 0.012195
v -0.391868 0.148917 0.013152
v 0.413291 0.181085 0.044230
v 1.524096 0.197954 0.057196
v 1.136867 0.180358 0.081143
v 0.761402 0.291172 -0.012748
v 0.786132 0.254327 -0.021251
v 1.669575 0.262723 -0.029802
v 1.478967 0.232925 -0.011309
v 0.682842 0.231061 -0.022264
v -1.401909 0.108170 0.077441
v -0.409237 0.107067 0.077252
v -1.269339 0.141108 0.072998
v -2.286091 0.249926 -0.104186
v -2.164164 0.206063 -0.085273
v -2.739638 0.260567 -0.085273
v -2.126623 0.231760 -0.108666
v -2.746949 0.264549 -0.155694
v -2.762077 0.272632 -0.085016
v -0.451986 0.203050 0.004665
v -0.394394 0.236223 0.018571
v -1.195085 0.252565 0.066469
v -1.094167 0.219382 0.065376
v -2.000691 0.177232 -0.112008
v -2.510440 0.189457 -0.120935
v -1.947396 0.229868 -0.089781
v -0.781120 0.200691 -0.085986
v -2.126623 0.231760 -0.108666
v -0.957470 0.282982 -0.086377
v -0.967032 0.236306 -0.099729
v -0.405793 0.271993 -0.056498
v -0.696563 0.232942 -0.070895
v -0.904225 0.203120 -0.067167
v -0.388407 0.233821 0.017133
v -0.026533 0.258422 -0.071061
v -0.158892 0.232729 -0.051896
v 0.029824 0.265964 -0.011359
v 0.305931 0.264753 0.049486
v -0.820229 0.215928 -0.092551
v -1.947396 0.229868 -0.089781
v -1.541953 0.247405 -0.085896
v -0.967032 0.236306 -0.099729
v -1.544155 0.259544 -0.080384
v -1.737956 0.263217 -0.099582
v -2.126623 0.231760 -0.108666
v -2.286091 0.249926 -0.104186
v -2.746949 0.264549 -0.155694
v -1.241612 0.145017 0.018360
v -0.452815 0.146157 0.001865
v -1.322374 0.176439 0.011935
v -0.471890 0.175558 0.001162
v -1.518093 0.204789 0.004607
v -0.451986 0.203050 0.004665
v 1.502405 0.232845 -0.158095
v 1.478967 0.232925 -0.011309
v 1.526062 0.231884 -0.011728
v 1.682078 0.201948 -0.099764
v 1.478845 0.237947 -0.159756
v 1.392493 0.263458 -0.139466
v 1.486075 0.204856 0.054085
v 1.729466 0.235402 0.047547
v 1.636819 0.176007 -0.010721
v 1.039329 0.290737 -0.110200
v -0.455204 0.292599 -0.099734
v -1.737956 0.263217 -0.099582
v -1.231254 0.293961 -0.098253
v -0.405793 0.271993 -0.056498
v -0.026533 0.258422 -0.071061
v 0.029824 0.265964 -0.011359
v -0.957470 0.282982 -0.086377
v -0.405793 0.271993 -0.056498
v -0.592501 0.292645 -0.024945
v 0.029824 0.265964 -0.011359
v 1.215420 0.159902 0.022486
v 0.493988 0.142645 0.084244
v 1.284166 0.167696 0.046130
v 1.484394 0.165935 0.065056
v 0.420513 0.082081 0.057993
v -0.260249 0.083615 0.024157
v 0.499407 0.069081 0.090690
v 0.133585 0.073313 0.074740
v -0.750167 0.144158 -0.010554
v -0.452815 0.146157 0.001865
v -0.471890 0.175558 0.001162
v -0.839361 0.188865 -0.064347
v -2.510440 0.189457 -0.120935
v -2.006321 0.170091 -0.084493
v -2.576692 0.187193 -0.085305
v -1.924705 0.160664 -0.079836
v -0.471890 0.175558 0.001162
v -1.093785 0.199662 0.064947
v -0.451986 0.203050 0.004665
v -1.094167 0.219382 0.065376
v -0.394394 0.236223 0.018571
v -1.195085 0.252565 0.066469
v -1.454740 0.268969 -0.077467
v -1.221237 0.263907 0.036364
v -1.328686 0.292993 -0.084723
v -1.737956 0.263217 -0.099582
v 0.761402 0.291172 -0.012748
v 1.211772 0.238145 0.060928
v 0.786132 0.254327 -0.021251
v 0.549541 0.250444 -0.104762
v -1.186758 0.152254 0.064920
v -0.452815 0.146157 0.001865
v -1.217735 0.166389 0.066761
v -1.269339 0.141108 0.072998
v -1.176464 0.141314 0.065049
v -0.435023 0.124963 0.003352
v -2.510440 0.189457 -0.120935
v -2.164164 0.206063 -0.085273
v -2.576692 0.187193 -0.085305
v -2.126623 0.231760 -0.108666
v -2.126623 0.231760 -0.108666
v -2.510440 0.189457 -0.120935
v -2.576692 0.187193 -0.085305
v -2.164164 0.206063 -0.085273
v 2.823024 0.131545 0.075879
v 2.233285 0.109153 0.044146
v 2.265822 0.112597 0.070512
v 1.215420 0.159902 0.022486
v 1.204598 0.143366 0.011797
v 1.284166 0.167696 0.046130
v 0.493988 0.142645 0.084244
v 1.333431 0.141608 0.013701
v 1.991535 0.113977 0.071248
v 1.484394 0.165935 0.065056
v 2.233285 0.109153 0.044146
v 2.425039 0.081401 0.063923
v 2.265822 0.112597 0.070512
v 2.007482 0.113208 0.040147
v 2.001795 0.106928 0.064993
v 2.190812 0.113809 0.041736
v -0.750167 0.144158 -0.010554
v -0.150914 0.172514 -0.094938
v -0.324803 0.144187 -0.081032
v -0.589357 0.115127 -0.010903
v -0.391039 0.139762 -0.076171
v -0.385758 0.084310 -0.059050
v -0.582720 0.104631 -0.010698
v 0.705021 0.293502 -0.108035
v 1.392493 0.263458 -0.139466
v 1.039329 0.290737 -0.110200
v 1.039329 0.290737 -0.110200
v 0.786132 0.254327 -0.021251
v 0.761402 0.291172 -0.012748
v 0.381737 0.053658 0.079362
v 0.575116 0.039404 0.101737
v 0.133585 0.073313 0.074740
v 0.104257 0.053221 0.043454
v 2.425039 0.081401 0.063923
v 2.247015 0.061892 0.088416
v 2.265822 0.112597 0.070512
v 2.233285 0.109153 0.044146
v -1.308628 0.112311 0.012117
v -1.401909 0.108170 0.077441
v -1.269339 0.141108 0.072998
v -1.820310 0.080027 0.000058
v -1.618645 0.082406 0.065967
v -0.405793 0.271993 -0.056498
v -0.592501 0.292645 -0.024945
v -0.643196 0.263798 -0.002895
v 0.029824 0.265964 -0.011359
v 0.305931 0.264753 0.049486
v 0.763003 0.291200 -0.010190
v 0.761402 0.291172 -0.012748
v 1.211772 0.238145 0.060928
v 0.616525 0.292764 -0.017685
v 0.397140 0.293165 -0.024648
v -0.435023 0.124963 0.003352
v -0.393915 0.140516 0.012195
v -0.391868 0.148917 0.013152
v -0.452815 0.146157 0.001865
v -0.158892 0.232729 -0.051896
v -0.393411 0.206386 0.015054
v -0.388407 0.233821 0.017133
v 2.265822 0.112597 0.070512
v 1.991535 0.113977 0.071248
v 2.823024 0.131545 0.075879
v -0.820229 0.215928 -0.092551
v -0.904225 0.203120 -0.067167
v -0.967032 0.236306 -0.099729
v -0.977529 0.083241 -0.007035
v -0.441068 0.111503 0.002220
v -0.582720 0.104631 -0.010698
v -0.392599 0.113029 0.012455
v -0.981022 0.083585 -0.010463
v 0.133585 0.073313 0.074740
v 0.575116 0.039404 0.101737
v 0.499407 0.069081 0.090690
v 1.016338 0.112330 0.025524
v 0.430994 0.084063 0.078237
v -0.260249 0.083615 0.024157
v 1.284166 0.167696 0.046130
v 1.524096 0.197954 0.057196
v 1.215420 0.159902 0.022486
v 0.413291 0.181085 0.044230
v -0.391868 0.148917 0.013152
v 1.039329 0.290737 -0.110200
v -0.053977 0.291446 -0.085763
v 0.243245 0.293225 -0.096190
v 0.705021 0.293502 -0.108035
v 0.549541 0.250444 -0.104762
v -0.282549 0.233341 -0.104546
v -0.967032 0.236306 -0.099729
v -0.957470 0.282982 -0.086377
v -0.522236 0.292906 0.022684
v -0.643196 0.263798 -0.002895
v -0.592501 0.292645 -0.024945
v 1.284166 0.167696 0.046130
v 1.215420 0.159902 0.022486
v 1.484394 0.165935 0.065056
v 0.546714 0.173028 0.085523
v -0.582720 0.104631 -0.010698
v -0.441068 0.111503 0.002220
v -0.435023 0.124963 0.003352
v -0.589357 0.115127 -0.010903
v -0.324803 0.144187 -0.081032
v -0.589357 0.115127 -0.010903
v -0.391039 0.139762 -0.076171
v -2.510440 0.189457 -0.120935
v -1.924705 0.160664 -0.079836
v -2.006321 0.170091 -0.084493
v -0.324803 0.144187 -0.081032
v -0.391868 0.148917 0.013152
v -0.393517 0.175383 0.013885
v 1.478967 0.232925 -0.011309
v 1.526062 0.231884 -0.011728
v 1.729466 0.235402 0.047547
v 1.669575 0.262723 -0.029802
v 1.486075 0.204856 0.054085
v 1.392493 0.263458 -0.139466
v -0.781120 0.200691 -0.085986
v -0.820229 0.215928 -0.092551
v -0.904225 0.203120 -0.067167
v -0.839361 0.188865 -0.064347
v -1.332765 0.226067 -0.033399
v -1.947396 0.229868 -0.089781
v -1.317816 0.139975 0.011935
v -1.308628 0.112311 0.012117
v -1.269339 0.141108 0.072998
v -0.451986 0.203050 0.004665
v -0.471890 0.175558 0.001162
v -0.393517 0.175383 0.013885
v -0.393411 0.206386 0.015054
v 0.268568 0.203041 0.081990
v 0.266187 0.206522 0.081416
v -0.388407 0.233821 0.017133
v -0.082192 0.259407 0.067947
v -0.391868 0.148917 0.013152
v -0.393517 0.175383 0.013885
v -0.471890 0.175558 0.001162
v -0.452815 0.146157 0.001865
v -0.409237 0.107067 0.077252
v -0.441068 0.111503 0.002220
v -0.435023 0.124963 0.003352
v -1.401909 0.108170 0.077441
v -1.308628 0.112311 0.012117
v -0.391039 0.139762 -0.076171
v -0.150914 0.172514 -0.094938
v -0.324803 0.144187 -0.081032
v -0.393915 0.140516 0.012195
v -0.324803 0.144187 -0.081032
v -0.391868 0.148917 0.013152
v -0.379210 0.108004 0.077698
v -0.409237 0.107067 0.077252
v 0.147315 0.142210 0.087375
v -0.405793 0.271993 -0.056498
v -1.221237 0.263907 0.036364
v -1.454740 0.268969 -0.077467
v -0.643196 0.263798 -0.002895
v -0.957470 0.282982 -0.086377
v -1.737956 0.263217 -0.099582
v -0.455204 0.292599 -0.099734
v -1.544155 0.259544 -0.080384
v 0.493988 0.142645 0.084244
v 1.991535 0.113977 0.071248
v 1.333431 0.141608 0.013701
v 1.204598 0.143366 0.011797
v 2.190812 0.113809 0.041736
v 2.233285 0.109153 0.044146
v 2.265822 0.112597 0.070512
v 0.430994 0.084063 0.078237
v 2.019985 0.067059 0.103340
v 2.001795 0.106928 0.064993
v 0.499407 0.069081 0.090690
v -2.000691 0.177232 -0.112008
v -1.332765 0.226067 -0.033399
v -1.947396 0.229868 -0.089781
v -1.315444 0.201574 -0.039015
v -0.839361 0.188865 -0.064347
v -2.164164 0.206063 -0.085273
v -2.126623 0.231760 -0.108666
v -1.332765 0.226067 -0.033399
v -0.839361 0.188865 -0.064347
v -0.451986 0.203050 0.004665
v -0.904225 0.203120 -0.067167
v -0.452815 0.146157 0.001865
v -0.589357 0.115127 -0.010903
v -0.750167 0.144158 -0.010554
v -0.589357 0.115127 -0.010903
v -0.435023 0.124963 0.003352
v -0.452815 0.146157 0.001865
v -0.392599 0.113029 0.012455
v -0.441068 0.111503 0.002220
v -0.393915 0.140516 0.012195
v -0.435023 0.124963 0.003352
v 0.147315 0.142210 0.087375
v -0.451986 0.203050 0.004665
v -0.393411 0.206386 0.015054
v -0.394394 0.236223 0.018571
v -0.388407 0.233821 0.017133
v -1.820310 0.080027 0.000058
v -0.977529 0.083241 -0.007035
v -1.308628 0.112311 0.012117
v -0.441068 0.111503 0.002220
v -1.820310 0.080027 0.000058
v -1.308628 0.112311 0.012117
v -0.441068 0.111503 0.002220
v -0.977529 0.083241 -0.007035
v -2.001064 0.076853 -0.037454
v -1.820310 0.080027 0.000058
v -1.813413 0.053721 -0.010157
v -1.814014 0.053857 -0.011987
v -2.001064 0.076853 -0.037454
v -1.813413 0.053721 -0.010157
v -1.820310 0.080027 0.000058
v -1.814014 0.053857 -0.011987
v -2.001064 0.076853 -0.037454
v -1.813413 0.053721 -0.010157
v -2.065619 0.071348 0.018955
v -2.080551 0.078484 -0.020034
v -1.820310 0.080027 0.000058
v -2.001064 0.076853 -0.037454
v -2.001064 0.076853 -0.037454
v -1.820310 0.080027 0.000058
v -2.065619 0.071348 0.018955
v -2.080551 0.078484 -0.020034
v -2.001064 0.076853 -0.037454
v -2.005110 0.090170 -0.034503
v -2.023365 0.083933 -0.037611
v -2.080551 0.078484 -0.020034
v -2.005110 0.090170 -0.034503
v -1.207685 0.141211 -0.078646
v 1.214209 0.226987 0.064386
v 1.729466 0.235402 0.047547
v 1.211772 0.238145 0.060928
v 1.486075 0.204856 0.054085
v 0.778374 0.253968 0.072955
v 1.208831 0.204297 0.071041
v 1.211772 0.238145 0.060928
v 1.214209 0.226987 0.064386
v 0.377472 0.051885 -0.055920
v 0.455870 0.049622 -0.055885
v 0.247510 0.054200 -0.053396
v 0.452799 0.054005 -0.043979
v -0.451986 0.203050 0.004665
v -1.225892 0.255692 0.046108
v -0.394394 0.236223 0.018571
v -1.225892 0.255692 0.046108
v -1.451921 0.235189 0.076776
v -0.394394 0.236223 0.018571
v -1.225892 0.255692 0.046108
v -1.518093 0.204789 0.004607
v -1.247989 0.209268 0.064905
v -1.451921 0.235189 0.076776
v -1.518093 0.204789 0.004607
v -1.225892 0.255692 0.046108
v -1.195085 0.252565 0.066469
v -0.394394 0.236223 0.018571
v -1.451921 0.235189 0.076776
v -0.394394 0.236223 0.018571
v -1.225892 0.255692 0.046108
v -1.195085 0.252565 0.066469
v -1.247989 0.209268 0.064905
v -1.518093 0.204789 0.004607
v -1.451921 0.235189 0.076776
v -1.225892 0.255692 0.046108
v -1.247989 0.209268 0.064905
v -1.451921 0.235189 0.076776
v -1.221237 0.263907 0.036364
v -1.225892 0.255692 0.046108
v -1.451921 0.235189 0.076776
v -1.195085 0.252565 0.066469
v -0.597059 0.277217 0.067812
v -0.643196 0.263798 -0.002895
v -1.195085 0.252565 0.066469
v -0.394394 0.236223 0.018571
v -1.195085 0.252565 0.066469
v -0.394394 0.236223 0.018571
v -0.597059 0.277217 0.067812
v -0.643196 0.263798 -0.002895
v -0.394394 0.236223 0.018571
v -1.195085 0.252565 0.066469
v -0.388407 0.233821 0.017133
v -0.394394 0.236223 0.018571
v -0.643196 0.263798 -0.002895
v -0.388407 0.233821 0.017133
v -0.394394 0.236223 0.018571
v -1.195085 0.252565 0.066469
v -0.082192 0.259407 0.067947
v -0.388407 0.233821 0.017133
v -1.195085 0.252565 0.066469
v 1.211772 0.238145 0.060928
v -0.388407 0.233821 0.017133
v 0.305931 0.264753 0.049486
v 1.217077 0.245176 0.065460
v 0.778374 0.253968 0.072955
v 1.729466 0.235402 0.047547
v 0.778374 0.253968 0.072955
v 1.729466 0.235402 0.047547
v 1.211772 0.238145 0.060928
v -0.839361 0.188865 -0.064347
v -0.820229 0.215928 -0.092551
v -0.781120 0.200691 -0.085986
v -0.904225 0.203120 -0.067167
v -0.158892 0.232729 -0.051896
v -0.839361 0.188865 -0.064347
v -0.904225 0.203120 -0.067167
v 0.616525 0.292764 -0.017685
v 0.763003 0.291200 -0.010190
v 0.575229 0.292541 -0.009307
v 0.761402 0.291172 -0.012748
v -2.762077 0.272632 -0.085016
v -2.286091 0.249926 -0.104186
v -2.739638 0.260567 -0.085273
v -2.746949 0.264549 -0.155694
v -2.286091 0.249926 -0.104186
v -2.762077 0.272632 -0.085016
v -1.518093 0.204789 0.004607
v -0.451986 0.203050 0.004665
v -1.225892 0.255692 0.046108
v -1.228597 0.192690 0.064861
v -1.322374 0.176439 0.011935
v -1.247989 0.209268 0.064905
v -1.518093 0.204789 0.004607
v -1.228597 0.192690 0.064861
v -1.241612 0.145017 0.018360
v -1.217735 0.166389 0.066761
v -1.322374 0.176439 0.011935
v -0.592501 0.292645 -0.024945
v -1.454740 0.268969 -0.077467
v -0.405793 0.271993 -0.056498
v -1.328686 0.292993 -0.084723
v -1.454740 0.268969 -0.077467
v -0.592501 0.292645 -0.024945
v -0.592501 0.292645 -0.024945
v -0.455204 0.292599 -0.099734
v 0.243245 0.293225 -0.096190
v 0.397140 0.293165 -0.024648
v -0.957470 0.282982 -0.086377
v -0.053977 0.291446 -0.085763
v 0.243245 0.293225 -0.096190
v -0.455204 0.292599 -0.099734
v -1.737956 0.263217 -0.099582
v -1.541953 0.247405 -0.085896
v -0.957470 0.282982 -0.086377
v -0.967032 0.236306 -0.099729
v 3.237923 0.145518 0.064282
v 3.211366 0.142973 0.074055
v 3.220286 0.143520 0.074315
v 3.169331 0.143144 0.062969
v 3.119986 0.173595 0.022025
v 2.566098 0.199524 -0.015438
v 2.876278 0.190002 -0.014088
v 2.192997 0.233252 -0.029931
v 2.494955 0.203507 -0.020127
v 1.478967 0.232925 -0.011309
v 1.478967 0.232925 -0.011309
v 1.526062 0.231884 -0.011728
v 2.494955 0.203507 -0.020127
v 1.284166 0.167696 0.046130
v 2.190812 0.113809 0.041736
v 2.304639 0.172740 0.017285
v 2.695142 0.193888 -0.008440
v 2.304639 0.172740 0.017285
v 2.202470 0.173110 -0.014645
v 2.566098 0.199524 -0.015438
v 2.695142 0.193888 -0.008440
v 2.733179 0.203081 -0.008229
v 2.695142 0.193888 -0.008440
v 2.494955 0.203507 -0.020127
v 2.566098 0.199524 -0.015438
v 2.695142 0.193888 -0.008440
v 2.566098 0.199524 -0.015438
v 2.733179 0.203081 -0.008229
v 2.494955 0.203507 -0.020127
v 3.119986 0.173595 0.022025
v 2.566098 0.199524 -0.015438
v 2.695142 0.193888 -0.008440
v 0.268568 0.203041 0.081990
v 0.404598 0.168596 0.064990
v -0.393517 0.175383 0.013885
v -0.391868 0.148917 0.013152
v 0.761402 0.291172 -0.012748
v 1.039329 0.290737 -0.110200
v 0.616525 0.292764 -0.017685
v 0.705021 0.293502 -0.108035
v 0.549541 0.250444 -0.104762
v 1.478845 0.237947 -0.159756
v 1.039329 0.290737 -0.110200
v 1.039329 0.290737 -0.110200
v 0.549541 0.250444 -0.104762
v 1.392493 0.263458 -0.139466
v 1.478845 0.237947 -0.159756
v -0.820229 0.215928 -0.092551
v -2.000691 0.177232 -0.112008
v -1.947396 0.229868 -0.089781
v -0.781120 0.200691 -0.085986
v -1.183264 0.156392 -0.085773
v -0.589357 0.115127 -0.010903
v -0.750167 0.144158 -0.010554
v -0.880819 0.143001 -0.085757
v -1.747274 0.172787 -0.140376
v -0.750167 0.144158 -0.010554
v -1.183264 0.156392 -0.085773
v -0.750167 0.144158 -0.010554
v -1.924705 0.160664 -0.079836
v -1.747274 0.172787 -0.140376
v -2.000691 0.177232 -0.112008
v -1.747274 0.172787 -0.140376
v -1.924705 0.160664 -0.079836
v -1.315444 0.201574 -0.039015
v -2.000691 0.177232 -0.112008
v -1.924705 0.160664 -0.079836
v -1.207685 0.141211 -0.078646
v -2.023365 0.083933 -0.037611
v -2.006987 0.113642 -0.035369
v -1.747274 0.172787 -0.140376
v -1.207685 0.141211 -0.078646
v -1.407807 0.143159 -0.088773
v -2.018913 0.172242 -0.098677
v -1.747274 0.172787 -0.140376
v -2.510440 0.189457 -0.120935
v 1.524096 0.197954 0.057196
v 1.667609 0.170488 -0.010554
v 1.636819 0.176007 -0.010721
v 1.284166 0.167696 0.046130
v 1.667609 0.170488 -0.010554
v 1.524096 0.197954 0.057196
v -1.518093 0.204789 0.004607
v -0.451986 0.203050 0.004665
v -0.394394 0.236223 0.018571
v -0.597059 0.277217 0.067812
v -0.522236 0.292906 0.022684
v -0.848347 0.294103 0.064814
v -0.522236 0.292906 0.022684
v -0.597059 0.277217 0.067812
v -0.643196 0.263798 -0.002895
v -0.471890 0.175558 0.001162
v -0.839361 0.188865 -0.064347
v -0.451986 0.203050 0.004665
v 0.413291 0.181085 0.044230
v 0.546714 0.173028 0.085523
v 1.136867 0.180358 0.081143
v 1.215420 0.159902 0.022486
v 0.546714 0.173028 0.085523
v 0.413291 0.181085 0.044230
v 0.268568 0.203041 0.081990
v 0.413291 0.181085 0.044230
v -0.393517 0.175383 0.013885
v -0.082192 0.259407 0.067947
v 1.211772 0.238145 0.060928
v 0.778374 0.253968 0.072955
v 1.016338 0.112330 0.025524
v 0.420513 0.082081 0.057993
v -0.260249 0.083615 0.024157
v 0.133585 0.073313 0.074740
v -0.260249 0.083615 0.024157
v -0.379210 0.108004 0.077698
v -0.392599 0.113029 0.012455
v -0.392599 0.113029 0.012455
v -0.379210 0.108004 0.077698
v 0.133585 0.073313 0.074740
v 0.133585 0.073313 0.074740
v -0.260249 0.083615 0.024157
v -0.392599 0.113029 0.012455
v 1.204598 0.143366 0.011797
v 1.016338 0.112330 0.025524
v 0.430994 0.084063 0.078237
v -0.324803 0.144187 -0.081032
v 0.861175 0.172536 -0.045508
v 1.127841 0.194188 -0.085273
v 0.054212 0.173364 -0.083967
v -0.324803 0.144187 -0.081032
v 1.127841 0.194188 -0.085273
v -0.212072 0.139577 -0.086004
v -0.391039 0.139762 -0.076171
v -0.150914 0.172514 -0.094938
v -0.260249 0.083615 0.024157
v -0.441068 0.111503 0.002220
v -0.977529 0.083241 -0.007035
v -0.392599 0.113029 0.012455
v -1.176464 0.141314 0.065049
v -0.435023 0.124963 0.003352
v -1.186758 0.152254 0.064920
v -0.452815 0.146157 0.001865
v -0.409237 0.107067 0.077252
v -0.441068 0.111503 0.002220
v -1.176464 0.141314 0.065049
v -0.441068 0.111503 0.002220
v -0.435023 0.124963 0.003352
v -1.176464 0.141314 0.065049
v -0.452815 0.146157 0.001865
v -1.093785 0.199662 0.064947
v -1.186758 0.152254 0.064920
v -0.471890 0.175558 0.001162
v -0.905947 0.029302 0.125011
v -0.861630 0.083581 0.110470
v -1.618645 0.082406 0.065967
v -1.207255 0.040337 0.117582
v 0.410448 0.043092 0.140052
v 0.381737 0.053658 0.079362
v 0.727102 0.044495 0.140244
vt 0.994297 0.595631
vt 0.994297 0.833883
vt 0.977567 0.809952
vt 0.367681 0.266694
vt 0.474144 0.266694
vt 0.402830 0.263397
vt 0.311407 0.737428
vt 0.202421 0.728359
vt 0.043726 0.737428
vt 0.846008 0.928689
vt 0.997338 0.928689
vt 0.896699 0.914674
vt 0.430798 0.999588
vt 0.540304 0.999588
vt 0.461880 0.964139
vt 0.345183 0.988871
vt 0.234601 0.992993
vt 0.345627 0.992993
vt 0.436122 0.922094
vt 0.604943 0.922094
vt 0.494928 0.908904
vt 0.475440 0.669827
vt 0.357034 0.694559
vt 0.639924 0.694559
vt 0.801141 0.607172
vt 0.577523 0.595631
vt 0.467300 0.607172
vt 0.467300 0.496702
vt 0.823954 0.496702
vt 0.541177 0.493405
vt 0.798859 0.556884
vt 0.987452 0.556884
vt 0.810957 0.547815
vt 0.780608 0.552762
vt 0.640182 0.548640
vt 0.515209 0.552762
vt 0.275665 0.091921
vt 0.134651 0.076257
vt 0.010266 0.091921
vt 0.614068 0.950948
vt 0.748669 0.950948
vt 0.672528 0.922094
vt 0.668821 0.347486
vt 0.619497 0.346661
vt 0.450570 0.347486
vt 0.650570 0.593157
vt 0.995817 0.593157
vt 0.817637 0.581616
vt 0.431859 0.451360
vt 0.480265 0.470322
vt 0.640684 0.457672
vt 0.284030 0.470322
vt 0.703042 0.868508
vt 0.659376 0.856142
vt 0.584411 0.868508
vt 0.921665 0.828937
vt 0.880989 0.833059
vt 0.923574 0.833059
vt 0.882620 0.829617
vt 0.260411 0.782770
vt 0.087072 0.795136
vt 0.315209 0.795136
vt 0.081749 0.373042
vt 0.245247 0.373042
vt 0.242661 0.366447
vt 0.624923 0.850371
vt 0.620152 0.855317
vt 0.644487 0.855317
vt 0.023954 0.237840
vt 0.120532 0.237840
vt 0.077537 0.232894
vt 0.119228 0.974856
vt 0.019392 0.985573
vt 0.128137 0.985573
vt 0.410266 0.003710
vt 0.781369 0.003710
vt 0.707467 0.001237
vt 0.074066 0.594806
vt 0.004943 0.605523
vt 0.338783 0.605523
vt 0.978327 0.089448
vt 0.894170 0.074608
vt 0.540304 0.089448
vt 0.432319 0.764633
vt 0.420714 0.762160
vt 0.258935 0.764633
vt 0.983634 0.330998
vt 0.936502 0.349959
vt 0.990494 0.349959
vt 0.992776 0.351193
vt 0.999620 0.328524
vt 0.999620 0.516488
vt 0.519504 0.307090
vt 0.508365 0.311212
vt 0.530418 0.311212
vt 0.436882 0.261748
vt 0.010016 0.258450
vt 0.007224 0.261748
vt 0.169547 0.521041
vt 0.090197 0.488458
vt 0.390388 0.488736
vt 0.371146 0.503062
vt 0.196230 0.525109
vt 0.408745 0.525556
vt 0.057414 0.525556
vt 0.070342 0.166210
vt 0.314766 0.153686
vt 0.256846 0.175138
vt 0.608695 0.152102
vt 0.487384 0.176911
vt 0.718199 0.173921
vt 0.705539 0.174518
vt 0.633446 0.198269
vt 0.193158 0.198269
vt 0.749430 0.159421
vt 0.258731 0.934460
vt 0.198536 0.936097
vt 0.284030 0.955070
vt 0.142586 0.955070
vt 0.475163 0.326051
vt 0.054373 0.296751
vt 0.277485 0.287304
vt 0.178210 0.326051
vt 0.499240 0.293523
vt 0.073312 0.325284
vt 0.677947 0.377164
vt 0.430516 0.355407
vt 0.250570 0.377164
vt 0.465774 0.354081
vt 0.963878 0.336768
vt 0.866759 0.316158
vt 0.523574 0.336768
vt 0.056756 0.400247
vt 0.052852 0.420033
vt 0.448289 0.420033
vt 0.284185 0.400466
vt 0.897719 0.451360
vt 0.508365 0.451360
vt 0.736135 0.431575
vt 0.512202 0.431704
vt 0.624531 0.027535
vt 0.270505 0.030958
vt 0.457909 0.024821
vt 0.761259 0.021298
vt 0.310870 0.035993
vt 0.321750 0.040558
vt 0.000380 0.043627
vt 0.568254 0.038910
vt 0.550597 0.040467
vt 0.865052 0.026397
vt 0.685412 0.011784
vt 0.939962 0.000412
vt 0.946437 0.001525
vt 0.995817 0.020389
vt 0.843999 0.027687
vt 0.305934 0.048228
vt 0.983801 0.048228
vt 0.539152 0.118677
vt 0.515465 0.090314
vt 0.600134 0.119008
vt 0.643561 0.099076
vt 0.725977 0.105625
vt 0.355241 0.090681
vt 0.336924 0.072135
vt 0.701883 0.128195
vt 0.976806 0.115875
vt 0.246769 0.104395
vt 0.498872 0.118612
vt 0.371766 0.127055
vt 0.229278 0.128195
vt 0.498403 0.119367
vt 0.324774 0.074277
vt 0.697935 0.539800
vt 0.975041 0.524732
vt 0.979087 0.546167
vt 0.620152 0.546167
vt 0.061217 0.445589
vt 0.224163 0.430991
vt 0.446768 0.445589
vt 0.202421 0.420857
vt 0.302539 0.423381
vt 0.410621 0.435830
vt 0.426066 0.379444
vt 0.013308 0.396950
vt 0.152840 0.377988
vt 0.443726 0.396950
vt 0.740829 0.140657
vt 0.509193 0.142114
vt 0.684331 0.130204
vt 0.887735 0.142282
vt 0.533609 0.145036
vt 0.819904 0.155400
vt 0.923574 0.153119
vt 0.566937 0.124897
vt 0.339554 0.130943
vt 0.182851 0.151628
vt 0.176806 0.155400
vt 0.844487 0.744847
vt 0.780251 0.724237
vt 0.583650 0.744847
vt 0.660217 0.730878
vt 0.370722 0.570899
vt 0.215663 0.570899
vt 0.344679 0.552456
vt 0.360003 0.543693
vt 0.027757 0.562139
vt 0.311407 0.789365
vt 0.318757 0.766282
vt 0.521747 0.786600
vt 0.547148 0.789365
vt 0.716325 0.636851
vt 0.631559 0.650866
vt 0.935741 0.650866
vt 0.453337 0.050677
vt 0.436921 0.052291
vt 0.453931 0.053285
vt 0.441826 0.045754
vt 0.453537 0.061460
vt 0.431682 0.061382
vt 0.453643 0.071040
vt 0.437296 0.069887
vt 0.677920 0.061577
vt 0.900694 0.073784
vt 0.354216 0.052243
vt 0.195429 0.064657
vt 0.604190 0.051736
vt 0.217839 0.054921
vt 0.141065 0.073784
vt 0.976124 0.065805
vt 0.986692 0.063653
vt 0.576806 0.565128
vt 0.933460 0.565128
vt 0.687119 0.553586
vt 0.695005 0.420033
vt 0.820318 0.399372
vt 0.864919 0.403657
vt 0.906844 0.395713
vt 0.498479 0.420033
vt 0.664512 0.394477
vt 0.570279 0.648610
vt 0.687232 0.671476
vt 0.428517 0.654799
vt 0.497315 0.671476
vt 0.569890 0.645095
vt 0.715970 0.667200
vt 0.877947 0.525556
vt 0.523574 0.525556
vt 0.859746 0.514486
vt 0.716648 0.510063
vt 0.645864 0.498351
vt 0.546388 0.355730
vt 0.986692 0.355730
vt 0.767183 0.346661
vt 0.190074 0.124073
vt 0.006464 0.138912
vt 0.263498 0.138912
vt 0.662697 0.296402
vt 0.957388 0.295761
vt 0.884107 0.309116
vt 0.978293 0.294807
vt 0.558459 0.301342
vt 0.540304 0.330173
vt 0.768786 0.296994
vt 0.981369 0.330173
vt 0.606390 0.293075
vt 0.858203 0.337593
vt 0.416350 0.345837
vt 0.417010 0.342488
vt 0.859696 0.345837
vt 0.508365 0.337593
vt 0.065019 0.337593
vt 0.065678 0.334244
vt 0.506873 0.329349
vt 0.768441 0.953421
vt 0.903042 0.953421
vt 0.838634 0.927040
vt 0.630038 0.787716
vt 0.843726 0.787716
vt 0.825470 0.771228
vt 0.954753 0.381286
vt 0.954233 0.373042
vt 0.514449 0.381286
vt 0.349430 0.650866
vt 0.082190 0.639324
vt 0.049049 0.650866
vt 0.519347 0.765357
vt 0.498479 0.767865
vt 0.525802 0.749417
vt 0.735432 0.768376
vt 0.740304 0.772114
vt 0.510012 0.748145
vt 0.738655 0.776175
vt 0.501002 0.776175
vt 0.941065 0.636026
vt 0.861352 0.623660
vt 0.629278 0.633124
vt 0.653780 0.636026
vt 0.432936 0.586562
vt 0.204943 0.597279
vt 0.541825 0.597279
vt 0.004943 0.972383
vt 0.125856 0.972383
vt 0.113493 0.946002
vt 0.877889 0.359852
vt 0.712122 0.371393
vt 0.951711 0.371393
vt 0.594297 0.361730
vt 0.460988 0.505571
vt 0.469475 0.499176
vt 0.471021 0.506407
vt 0.491027 0.514015
vt 0.394174 0.506114
vt 0.455642 0.514015
vt 0.383650 0.508480
vt 0.691635 0.509879
vt 0.198859 0.906430
vt 0.014941 0.897575
vt 0.176495 0.889118
vt 0.000380 0.906430
vt 0.056654 0.844600
vt 0.279173 0.844600
vt 0.093914 0.830585
vt 0.279468 0.837178
vt 0.952471 0.579967
vt 0.717733 0.567601
vt 0.703802 0.579967
vt 0.062087 0.909728
vt 0.182129 0.933636
vt 0.164609 0.930769
vt 0.039163 0.933636
vt 0.110462 0.913365
vt 0.381262 0.954246
vt 0.281749 0.975680
vt 0.419392 0.975680
vt 0.411027 0.931987
vt 0.405008 0.913026
vt 0.261217 0.931987
vt 0.447742 0.751853
vt 0.377756 0.738252
vt 0.472563 0.743265
vt 0.487072 0.752267
vt 0.228517 0.749747
vt 0.229154 0.752267
vt 0.585932 0.042457
vt 0.890114 0.042457
vt 0.784118 0.032564
vt 0.924986 0.675598
vt 0.918011 0.686670
vt 0.668821 0.684187
vt 0.722610 0.693735
vt 0.947148 0.693735
vt 0.006464 0.727535
vt 0.277947 0.727535
vt 0.042710 0.716818
vt 0.518382 0.557939
vt 0.552744 0.569250
vt 0.394426 0.568973
vt 0.562357 0.558031
vt 0.391645 0.547815
vt 0.387452 0.569250
vt 0.277328 0.814922
vt 0.293156 0.826463
vt 0.065779 0.826463
vt 0.094494 0.817335
vt 0.837319 0.274938
vt 0.976806 0.275980
vt 0.822879 0.292251
vt 0.503802 0.287665
vt 0.872176 0.292251
vt 0.999620 0.114735
vt 0.986611 0.111707
vt 0.999620 0.285655
vt 0.986561 0.195828
vt 0.976046 0.132017
vt 0.516730 0.908079
vt 0.418595 0.875927
vt 0.455621 0.881412
vt 0.402205 0.893058
vt 0.325856 0.908079
vt 0.011027 0.251647
vt 0.319196 0.241138
vt 0.208622 0.252059
vt 0.051354 0.256801
vt 0.209130 0.256206
vt 0.262397 0.256282
vt 0.368474 0.242394
vt 0.412160 0.247456
vt 0.538783 0.256801
vt 0.155800 0.657461
vt 0.373588 0.658799
vt 0.133498 0.666997
vt 0.368301 0.667551
vt 0.079468 0.675598
vt 0.373764 0.675598
vt 0.867199 0.830764
vt 0.860108 0.786832
vt 0.872993 0.786718
vt 0.916809 0.812405
vt 0.860617 0.831410
vt 0.835868 0.825943
vt 0.861905 0.765458
vt 0.928897 0.769945
vt 0.906793 0.783446
vt 0.738783 0.831410
vt 0.017110 0.585738
vt 0.368441 0.585738
vt 0.229541 0.579967
vt 0.514324 0.725440
vt 0.410904 0.711871
vt 0.394297 0.729184
vt 0.665779 0.729184
vt 0.667619 0.908904
vt 0.616350 0.920445
vt 0.787452 0.920445
vt 0.402640 0.695383
vt 0.603422 0.710223
vt 0.383621 0.703090
vt 0.328137 0.710223
vt 0.210921 0.053998
vt 0.023194 0.053998
vt 0.233080 0.044400
vt 0.132226 0.044106
vt 0.044298 0.497527
vt 0.128137 0.507809
vt 0.122309 0.514839
vt 0.016350 0.514839
vt 0.024441 0.608821
vt 0.162732 0.618082
vt 0.006464 0.620363
vt 0.185171 0.620363
vt 0.782560 0.788541
vt 0.608249 0.793560
vt 0.787889 0.797088
vt 0.608048 0.799419
vt 0.803422 0.808326
vt 0.579848 0.808326
vt 0.075598 0.859374
vt 0.003422 0.875103
vt 0.041566 0.845425
vt 0.154753 0.875103
vt 0.287725 0.899011
vt 0.160837 0.917148
vt 0.281448 0.910828
vt 0.350951 0.917148
vt 0.732062 0.530620
vt 0.530035 0.528042
vt 0.740643 0.526381
vt 0.754753 0.534625
vt 0.729194 0.533995
vt 0.525095 0.534625
vt 0.677437 0.974856
vt 0.578830 0.985573
vt 0.696198 0.985573
vt 0.567681 0.976806
vt 0.854373 0.972882
vt 0.966741 0.970734
vt 0.985932 0.982275
vt 0.865811 0.982275
vt 0.008745 0.155400
vt 0.170722 0.155400
vt 0.161401 0.147980
vt 0.792913 0.242579
vt 0.795534 0.248803
vt 0.773883 0.235651
vt 0.991255 0.250206
vt 0.760263 0.248206
vt 0.579597 0.236514
vt 0.719033 0.230420
vt 0.513773 0.249263
vt 0.460456 0.247837
vt 0.504565 0.241550
vt 0.575572 0.247336
vt 0.576826 0.239436
vt 0.525373 0.250206
vt 0.041445 0.036686
vt 0.207224 0.036686
vt 0.159265 0.029266
vt 0.919011 0.199093
vt 0.976806 0.199093
vt 0.974928 0.181781
vt 0.920376 0.195708
vt 0.293916 0.478566
vt 0.482509 0.478566
vt 0.385321 0.472795
vt 0.011787 0.578318
vt 0.001141 0.498707
vt 0.011787 0.490932
vt 0.361684 0.839418
vt 0.416350 0.841303
vt 0.292342 0.830585
vt 0.283270 0.841303
vt 0.916730 0.647568
vt 0.965434 0.628607
vt 0.962927 0.646065
vt 0.972243 0.647568
vt 0.970965 0.737428
vt 0.945472 0.716818
vt 0.982890 0.719038
vt 0.828517 0.737428
vt 0.884818 0.718804
vt 0.900941 0.251330
vt 0.952779 0.257256
vt 0.965399 0.269885
vt 0.781418 0.260911
vt 0.705385 0.276587
vt 0.580809 0.253530
vt 0.581251 0.252768
vt 0.457414 0.276587
vt 0.620908 0.251853
vt 0.680967 0.251031
vt 0.298654 0.888294
vt 0.310686 0.892400
vt 0.311407 0.894889
vt 0.293916 0.894889
vt 0.026236 0.776175
vt 0.026236 0.849547
vt 0.018631 0.847404
vt 0.458862 0.397774
vt 0.383650 0.400247
vt 0.611787 0.400247
vt 0.379848 0.889942
vt 0.357677 0.878401
vt 0.338783 0.889942
vt 0.413572 0.203107
vt 0.560315 0.213545
vt 0.521346 0.213932
vt 0.573764 0.211654
vt 0.412548 0.204061
vt 0.718141 0.189894
vt 0.839043 0.176834
vt 0.818368 0.186505
vt 0.959316 0.213932
vt 0.799559 0.191999
vt 0.610061 0.202502
vt 0.143752 0.012043
vt 0.077947 0.020198
vt 0.162541 0.004534
vt 0.381921 0.020198
vt 0.602662 0.013247
vt 0.045247 0.227651
vt 0.344380 0.232894
vt 0.263225 0.232779
vt 0.136827 0.231067
vt 0.179387 0.217401
vt 0.407060 0.214757
vt 0.594297 0.217996
vt 0.591559 0.232894
vt 0.274145 0.807502
vt 0.309125 0.807502
vt 0.295232 0.795960
vt 0.772560 0.169065
vt 0.791349 0.161171
vt 0.717490 0.176010
vt 0.976046 0.176010
vt 0.517380 0.526237
vt 0.478335 0.525556
vt 0.476426 0.529678
vt 0.519011 0.529678
vt 0.872624 0.516488
vt 0.947909 0.516488
vt 0.890505 0.512366
vt 0.801141 0.913026
vt 0.962357 0.913026
vt 0.939841 0.911377
vt 0.989734 0.875103
vt 0.958569 0.866859
vt 0.956274 0.875103
vt 0.937577 0.803406
vt 0.942050 0.816444
vt 0.947543 0.879225
vt 0.963118 0.854114
vt 0.919772 0.812591
vt 0.963118 0.765458
vt 0.519772 0.621927
vt 0.508887 0.626134
vt 0.486031 0.617161
vt 0.503999 0.614305
vt 0.368822 0.607172
vt 0.201141 0.626134
vt 0.913688 0.181781
vt 0.913688 0.190849
vt 0.892395 0.186318
vt 0.333645 0.875408
vt 0.339544 0.883398
vt 0.317559 0.884171
vt 0.317148 0.874910
vt 0.132700 0.884171
vt 0.133334 0.883127
vt 0.315400 0.866747
vt 0.229174 0.861913
vt 0.035361 0.941972
vt 0.035805 0.950124
vt 0.058175 0.950124
vt 0.052821 0.941055
vt 0.305323 0.714345
vt 0.296620 0.691419
vt 0.300571 0.690437
vt 0.033840 0.714345
vt 0.059354 0.694384
vt 0.877947 0.654988
vt 0.944867 0.654988
vt 0.896228 0.653339
vt 0.314449 0.999588
vt 0.346388 0.999588
vt 0.314646 0.996290
vt 0.330283 0.629431
vt 0.322053 0.630256
vt 0.474905 0.630256
vt 0.000380 0.472276
vt 0.224040 0.446414
vt 0.287778 0.480990
vt 0.065549 0.456625
vt 0.151458 0.483625
vt 0.365399 0.487634
vt 0.013841 0.487634
vt 0.312425 0.480517
vt 0.512167 0.286480
vt 0.101438 0.286274
vt 0.281872 0.266702
vt 0.317196 0.265870
vt 0.046738 0.277797
vt 0.035074 0.278854
vt 0.026236 0.286480
vt 0.440684 0.348408
vt 0.005703 0.354081
vt 0.010784 0.337593
vt 0.421925 0.354081
vt 0.205703 0.548640
vt 0.412465 0.526381
vt 0.222437 0.532897
vt 0.417714 0.532973
vt 0.563878 0.548640
vt 0.247529 0.771228
vt 0.237503 0.760511
vt 0.019392 0.771228
vt 0.937077 0.431575
vt 0.829278 0.436521
vt 0.954753 0.436521
vt 0.730418 0.186727
vt 0.692568 0.176834
vt 0.648289 0.186727
vt 0.386692 0.990519
vt 0.429278 0.990519
vt 0.424760 0.983100
vt 0.982234 0.503298
vt 0.995817 0.503298
vt 0.982341 0.495054
vt 0.994003 0.499326
vt 0.832319 0.500237
vt 0.966920 0.359027
vt 0.959316 0.375040
vt 0.966920 0.379372
vt 0.965452 0.380462
vt 0.556274 0.466200
vt 0.787219 0.466200
vt 0.696483 0.455482
vt 0.934221 0.456992
vt 0.847529 0.481039
vt 0.707319 0.470322
vt 0.469582 0.471831
vt 0.616583 0.481039
vt 0.176806 0.198269
vt 0.126670 0.190025
vt 0.124335 0.198269
vt 0.091396 0.994641
vt 0.039163 0.995466
vt 0.091635 0.995466
vt 0.096665 0.424979
vt 0.098783 0.434048
vt 0.046768 0.434048
vt 0.099240 0.433738
vt 0.090681 0.016076
vt 0.093916 0.003705
vt 0.022433 0.016076
vt 0.071591 0.000412
vt 0.000380 0.809242
vt 0.014829 0.756389
vt 0.014829 0.829761
vt 0.217110 0.721764
vt 0.239924 0.721764
vt 0.238565 0.717642
vt 0.789488 0.823166
vt 0.805703 0.826463
vt 0.784455 0.825347
vt 0.565399 0.826463
vt 0.641344 0.968086
vt 0.783650 0.971558
vt 0.640684 0.971558
vt 0.716480 0.961665
vt 0.013308 0.065540
vt 0.132159 0.054823
vt 0.132705 0.065540
vt 0.133460 0.062024
vt 0.939717 0.712696
vt 0.918251 0.712696
vt 0.975285 0.711735
vt 0.919107 0.708574
vt 0.499773 0.802556
vt 0.287072 0.814097
vt 0.515209 0.814097
vt 0.766768 0.090272
vt 0.704563 0.098516
vt 0.994297 0.098516
vt 0.578327 0.630256
vt 0.660456 0.630256
vt 0.585689 0.615416
vt 0.921864 0.399423
vt 0.900000 0.419209
vt 0.982129 0.419209
vt 0.219801 0.021847
vt 0.000380 0.027617
vt 0.290114 0.027617
vt 0.582129 0.819044
vt 0.810266 0.819044
vt 0.801992 0.812449
vt 0.011027 0.209810
vt 0.087072 0.209810
vt 0.064876 0.190849
vt 0.342586 0.461253
vt 0.334736 0.447238
vt 0.279468 0.461253
vt 0.543191 0.983924
vt 0.544736 0.987640
vt 0.607985 0.994641
vt 0.536502 0.994641
vt 0.064179 0.121599
vt 0.077045 0.100165
vt 0.228517 0.121599
vt 0.008745 0.104253
vt 0.370722 0.848722
vt 0.590494 0.848722
vt 0.534055 0.833059
vt 0.078088 0.168590
vt 0.010266 0.181781
vt 0.230038 0.181781
vt 0.349430 0.863561
vt 0.347754 0.862737
vt 0.278707 0.863561
vt 0.790494 0.876752
vt 0.788820 0.875927
vt 0.569202 0.876752
vt 0.634601 0.643446
vt 0.550637 0.626134
vt 0.329658 0.643446
vt 0.522053 0.393652
vt 0.960076 0.393652
vt 0.769891 0.383759
vt 0.845379 0.489283
vt 0.725095 0.490932
vt 0.985932 0.490932
vt 0.019392 0.774526
vt 0.280228 0.774526
vt 0.138293 0.772053
vt 0.555655 0.892416
vt 0.563935 0.902308
vt 0.573004 0.893876
vt 0.539544 0.902308
vt 0.582890 0.800907
vt 0.395955 0.795136
vt 0.378327 0.800907
vt 0.907580 0.101814
vt 0.947909 0.104287
vt 0.896198 0.104287
vt 0.947471 0.103515
vt 0.700760 0.988046
vt 0.831559 0.988046
vt 0.707063 0.984749
vt 0.977104 0.945177
vt 0.851331 0.966612
vt 0.982129 0.966612
vt 0.693916 0.674773
vt 0.985932 0.674773
vt 0.773930 0.654988
vt 0.006464 0.680272
vt 0.035202 0.669827
vt 0.011686 0.684666
vt 0.088593 0.684666
vt 0.850072 0.979802
vt 0.838534 0.963314
vt 0.852091 0.972527
vt 0.819392 0.979802
vt 0.275661 0.676422
vt 0.039163 0.688788
vt 0.326616 0.688788
vt 0.085812 0.801731
vt 0.051331 0.809975
vt 0.287833 0.809975
vt 0.867300 0.719291
vt 0.829748 0.697032
vt 0.638683 0.698024
vt 0.596578 0.719291
vt 0.915209 0.058120
vt 0.661717 0.058120
vt 0.578327 0.054737
vt 0.774279 0.053174
vt 0.772243 0.473619
vt 0.827857 0.467667
vt 0.994297 0.473619
vt 0.991205 0.458780
vt 0.456654 0.247733
vt 0.449332 0.244452
vt 0.451807 0.244435
vt 0.437643 0.247733
vt 0.423954 0.950948
vt 0.576046 0.950948
vt 0.491300 0.944353
vt 0.127344 0.570074
vt 0.044487 0.577494
vt 0.322814 0.577494
vt 0.715970 0.489283
vt 0.703071 0.488458
vt 0.437643 0.489283
vt 0.606464 0.430750
vt 0.855474 0.407667
vt 0.887328 0.425684
vt 0.995057 0.430750
vt 0.513959 0.962490
vt 0.485551 0.973207
vt 0.587321 0.973207
vt 0.623194 0.969546
vt 0.687072 0.081204
vt 0.676537 0.077906
vt 0.620913 0.081204
vt 0.640688 0.079802
vt 0.579319 0.793487
vt 0.543883 0.795383
vt 0.589734 0.796785
vt 0.524335 0.796785
vt 0.473384 0.349959
vt 0.625475 0.349959
vt 0.590078 0.349134
vt 0.359563 0.816570
vt 0.322053 0.830585
vt 0.546388 0.823123
vt 0.546086 0.830585
vt 0.244225 0.956719
vt 0.167681 0.985573
vt 0.284030 0.958493
vt 0.259554 0.985573
vt 0.017110 0.758862
vt 0.271863 0.758862
vt 0.150825 0.743199
vt 0.841172 0.745672
vt 0.975285 0.761336
vt 0.743849 0.752798
vt 0.719772 0.761336
vt 0.364182 0.579978
vt 0.696958 0.584089
vt 0.681537 0.566777
vt 0.353232 0.584089
vt 0.188213 0.546991
vt 0.014829 0.537508
vt 0.061051 0.546991
vt 0.101964 0.530503
vt 0.040684 0.364798
vt 0.315970 0.364798
vt 0.195735 0.359027
vt 0.656654 0.621187
vt 0.979087 0.621187
vt 0.931581 0.598928
vt 0.385932 0.664880
vt 0.455894 0.664880
vt 0.405741 0.651690
vt 0.779087 0.129019
vt 0.967681 0.129019
vt 0.946257 0.119126
vt 0.705323 0.856966
vt 0.929658 0.856966
vt 0.924648 0.847898
vt 0.032319 0.189200
vt 0.181369 0.189200
vt 0.126642 0.184254
vt 0.462092 0.419209
vt 0.387452 0.429926
vt 0.596578 0.429926
vt 0.153232 0.108409
vt 0.197338 0.108409
vt 0.189587 0.104287
vt 0.007985 0.878401
vt 0.114449 0.878401
vt 0.072789 0.861913
vt 0.317490 0.638500
vt 0.025577 0.627782
vt 0.009506 0.638500
vt 0.874089 0.230420
vt 0.852091 0.241962
vt 0.942586 0.241962
vt 0.018631 0.436521
vt 0.001901 0.416886
vt 0.018631 0.398599
vt 0.984683 0.983100
vt 0.882510 0.991344
vt 0.990494 0.991344
vt 0.973764 0.908079
vt 0.936682 0.897362
vt 0.775285 0.908079
vt 0.363878 0.859439
vt 0.180362 0.845425
vt 0.144106 0.859439
vt 0.681411 0.832234
vt 0.642205 0.847073
vt 0.863498 0.847073
vt 0.534221 0.047403
vt 0.888593 0.047403
vt 0.769847 0.043281
vt 0.977567 0.226298
vt 0.814205 0.214757
vt 0.627757 0.226298
vt 0.999620 0.886749
vt 0.890051 0.894889
vt 0.857799 0.875927
vt 0.852852 0.894889
vt 0.563878 0.941880
vt 0.558030 0.922918
vt 0.417871 0.941880
vt 0.565399 0.959192
vt 0.456388 0.952597
vt 0.419392 0.959192
vt 0.753992 0.907255
vt 0.701701 0.901484
vt 0.540304 0.907255
vt 0.475665 0.213932
vt 0.151106 0.201566
vt 0.077947 0.213932
vt 0.541566 0.481863
vt 0.437643 0.486810
vt 0.835361 0.486810
vt 0.991255 0.072359
vt 0.998099 0.019373
vt 0.998099 0.091921
vt 0.467300 0.884996
vt 0.517115 0.875575
vt 0.664259 0.884996
vt 0.503525 0.875103
vt 0.304731 0.781946
vt 0.100760 0.781946
vt 0.307605 0.778572
vt 0.105713 0.775350
vt 0.579848 0.873454
vt 0.570747 0.851195
vt 0.369202 0.873454
vt 0.000380 0.099364
vt 0.004183 0.097692
vt 0.004183 0.318632
vt 0.626996 0.896537
vt 0.803955 0.881698
vt 0.829278 0.896537
vt 0.632257 0.887768
vt 0.866508 0.857791
vt 0.878707 0.875103
vt 0.665779 0.875103
vt 0.781914 0.859826
vt 0.030149 0.651690
vt 0.019392 0.668178
vt 0.115970 0.668178
usemtl baked
f 463/463 466/466 464/464
f 462/462 463/463 464/464
f 555/555 556/556 557/557
f 639/639 640/640 641/641
f 642/642 643/643 644/644
f 558/558 555/555 557/557
f 645/645 646/646 647/647
f 646/646 648/648 647/647
f 214/214 217/217 215/215
f 214/214 215/215 216/216
f 514/514 511/511 513/513
f 511/511 512/512 513/513
f 593/593 594/594 591/591
f 215/215 219/219 218/218
f 216/216 215/215 218/218
f 591/591 592/592 593/593
f 650/650 651/651 652/652
f 219/219 221/221 220/220
f 585/585 586/586 583/583
f 583/583 584/584 585/585
f 218/218 219/219 220/220
f 651/651 653/653 652/652
f 56/56 59/59 57/57
f 56/56 57/57 58/58
f 654/654 655/655 656/656
f 656/656 655/655 657/657
f 658/658 659/659 660/660
f 662/662 663/663 664/664
f 665/665 666/666 667/667
f 671/671 669/669 668/668
f 668/668 669/669 670/670
f 672/672 673/673 674/674
f 673/673 675/675 674/674
f 524/524 525/525 526/526
f 528/528 524/524 526/526
f 661/661 658/658 660/660
f 676/676 677/677 678/678
f 682/682 683/683 684/684
f 679/679 680/680 681/681
f 686/686 687/687 688/688
f 686/686 689/689 687/687
f 690/690 691/691 692/692
f 691/691 693/693 692/692
f 311/311 308/308 310/310
f 313/313 312/312 308/308
f 314/314 312/312 313/313
f 311/311 313/313 308/308
f 308/308 312/312 309/309
f 308/308 309/309 310/310
f 298/298 299/299 300/300
f 60/60 61/61 62/62
f 694/694 695/695 696/696
f 696/696 695/695 697/697
f 713/713 714/714 715/715
f 730/730 731/731 732/732
f 727/727 726/726 729/729
f 739/739 740/740 741/741
f 742/742 743/743 744/744
f 745/745 746/746 747/747
f 378/378 376/376 375/375
f 378/378 375/375 379/379
f 504/504 505/505 506/506
f 505/505 508/508 506/506
f 507/507 504/504 506/506
f 508/508 507/507 506/506
f 441/441 442/442 443/443
f 244/244 245/245 240/240
f 245/245 241/241 240/240
f 37/37 38/38 39/39
f 34/34 35/35 36/36
f 748/748 749/749 750/750
f 751/751 752/752 753/753
f 754/754 757/757 755/755
f 106/106 107/107 108/108
f 758/758 759/759 760/760
f 408/408 409/409 410/410
f 192/192 187/187 193/193
f 187/187 189/189 190/190
f 187/187 190/190 193/193
f 371/371 374/374 373/373
f 521/521 522/522 523/523
f 761/761 762/762 763/763
f 764/764 762/762 761/761
f 509/509 510/510 504/504
f 504/504 507/507 509/509
f 370/370 371/371 372/372
f 371/371 373/373 372/372
f 754/754 755/755 756/756
f 296/296 297/297 294/294
f 294/294 295/295 296/296
f 194/194 189/189 188/188
f 187/187 188/188 189/189
f 632/632 629/629 631/631
f 577/577 576/576 578/578
f 191/191 188/188 187/187
f 191/191 187/187 192/192
f 765/765 766/766 767/767
f 768/768 769/769 770/770
f 358/358 356/356 355/355
f 355/355 356/356 357/357
f 355/355 357/357 359/359
f 359/359 357/357 360/360
f 633/633 634/634 635/635
f 43/43 44/44 45/45
f 16/16 17/17 18/18
f 196/196 195/195 188/188
f 19/19 20/20 21/21
f 195/195 194/194 188/188
f 451/451 454/454 452/452
f 451/451 452/452 453/453
f 455/455 456/456 457/457
f 455/455 457/457 458/458
f 392/392 394/394 393/393
f 724/724 723/723 725/725
f 771/771 772/772 773/773
f 775/775 777/777 776/776
f 774/774 775/775 776/776
f 781/781 779/779 778/778
f 778/778 779/779 780/780
f 286/286 287/287 288/288
f 287/287 291/291 288/288
f 707/707 708/708 709/709
f 716/716 717/717 718/718
f 496/496 499/499 497/497
f 496/496 497/497 498/498
f 497/497 499/499 500/500
f 292/292 293/293 287/287
f 292/292 287/287 290/290
f 392/392 393/393 391/391
f 227/227 225/225 219/219
f 215/215 227/227 219/219
f 217/217 227/227 215/215
f 287/287 286/286 290/290
f 580/580 581/581 582/582
f 161/161 162/162 160/160
f 162/162 165/165 160/160
f 398/398 395/395 397/397
f 403/403 398/398 397/397
f 155/155 154/154 157/157
f 150/150 154/154 155/155
f 611/611 614/614 613/613
f 782/782 783/783 784/784
f 611/611 613/613 609/609
f 332/332 333/333 334/334
f 10/10 11/11 12/12
f 788/788 789/789 790/790
f 788/788 790/790 791/791
f 792/792 793/793 794/794
f 792/792 794/794 795/795
f 411/411 408/408 410/410
f 162/162 166/166 165/165
f 504/504 501/501 503/503
f 504/504 503/503 505/505
f 412/412 413/413 414/414
f 173/173 174/174 175/175
f 173/173 175/175 176/176
f 796/796 797/797 798/798
f 797/797 799/799 798/798
f 384/384 382/382 385/385
f 616/616 614/614 611/611
f 196/196 191/191 197/197
f 191/191 196/196 188/188
f 401/401 397/397 396/396
f 572/572 568/568 570/570
f 800/800 801/801 802/802
f 803/803 801/801 800/800
f 804/804 805/805 806/806
f 807/807 808/808 809/809
f 810/810 811/811 812/812
f 168/168 171/171 169/169
f 167/167 168/168 169/169
f 241/241 243/243 242/242
f 240/240 241/241 242/242
f 822/822 824/824 823/823
f 821/821 822/822 823/823
f 829/829 830/830 831/831
f 570/570 568/568 571/571
f 170/170 167/167 169/169
f 539/539 538/538 537/537
f 216/216 218/218 222/222
f 832/832 833/833 834/834
f 835/835 834/834 833/833
f 159/159 161/161 160/160
f 158/158 159/159 160/160
f 382/382 387/387 385/385
f 385/385 387/387 388/388
f 613/613 614/614 615/615
f 405/405 406/406 407/407
f 836/836 837/837 838/838
f 837/837 839/839 838/838
f 840/840 841/841 842/842
f 144/144 151/151 152/152
f 153/153 144/144 152/152
f 274/274 275/275 276/276
f 347/347 348/348 349/349
f 349/349 348/348 350/350
f 844/844 846/846 845/845
f 485/485 486/486 487/487
f 843/843 844/844 845/845
f 167/167 172/172 163/163
f 163/163 172/172 164/164
f 168/168 167/167 158/158
f 158/158 167/167 163/163
f 159/159 158/158 163/163
f 164/164 159/159 163/163
f 541/541 546/546 547/547
f 545/545 546/546 541/541
f 544/544 541/541 540/540
f 545/545 541/541 544/544
f 145/145 142/142 141/141
f 141/141 142/142 143/143
f 395/395 396/396 397/397
f 396/396 395/395 399/399
f 571/571 568/568 573/573
f 396/396 399/399 400/400
f 110/110 111/111 112/112
f 348/348 351/351 350/350
f 443/443 444/444 441/441
f 40/40 41/41 42/42
f 103/103 99/99 102/102
f 104/104 103/103 102/102
f 785/785 786/786 787/787
f 439/439 440/440 437/437
f 105/105 99/99 103/103
f 141/141 146/146 145/145
f 146/146 141/141 148/148
f 141/141 144/144 148/148
f 150/150 148/148 144/144
f 141/141 143/143 144/144
f 151/151 144/144 143/143
f 540/540 541/541 542/542
f 540/540 542/542 543/543
f 482/482 483/483 484/484
f 31/31 32/32 33/33
f 150/150 144/144 153/153
f 150/150 153/153 154/154
f 399/399 404/404 400/400
f 383/383 380/380 382/382
f 380/380 381/381 382/382
f 386/386 387/387 382/382
f 386/386 382/382 381/381
f 366/366 369/369 367/367
f 365/365 366/366 367/367
f 847/847 848/848 849/849
f 848/848 847/847 850/850
f 108/108 109/109 110/110
f 304/304 305/305 306/306
f 25/25 26/26 27/27
f 852/852 851/851 854/854
f 855/855 856/856 857/857
f 205/205 202/202 204/204
f 301/301 302/302 303/303
f 78/78 79/79 80/80
f 305/305 304/304 307/307
f 858/858 859/859 860/860
f 851/851 852/852 853/853
f 234/234 238/238 235/235
f 234/234 235/235 236/236
f 204/204 203/203 206/206
f 206/206 205/205 204/204
f 861/861 862/862 863/863
f 864/864 865/865 866/866
f 867/867 868/868 869/869
f 682/682 684/684 685/685
f 629/629 628/628 631/631
f 628/628 629/629 630/630
f 870/870 871/871 872/872
f 52/52 50/50 49/49
f 873/873 874/874 875/875
f 427/427 428/428 429/429
f 368/368 365/365 367/367
f 146/146 147/147 145/145
f 576/576 575/575 579/579
f 49/49 50/50 51/51
f 562/562 563/563 564/564
f 249/249 250/250 248/248
f 429/429 428/428 430/430
f 246/246 247/247 248/248
f 249/249 248/248 247/247
f 46/46 47/47 48/48
f 107/107 109/109 108/108
f 146/146 148/148 149/149
f 156/156 146/146 149/149
f 28/28 29/29 30/30
f 231/231 232/232 233/233
f 22/22 23/23 24/24
f 475/475 476/476 477/477
f 327/327 331/331 328/328
f 327/327 328/328 329/329
f 574/574 575/575 576/576
f 577/577 574/574 576/576
f 579/579 578/578 576/576
f 239/239 235/235 238/238
f 202/202 203/203 204/204
f 876/876 877/877 878/878
f 879/879 880/880 881/881
f 324/324 325/325 326/326
f 817/817 818/818 819/819
f 817/817 819/819 820/820
f 826/826 828/828 827/827
f 825/825 826/826 827/827
f 466/466 469/469 472/472
f 469/469 466/466 474/474
f 466/466 472/472 473/473
f 472/472 471/471 473/473
f 472/472 469/469 471/471
f 813/813 814/814 815/815
f 84/84 85/85 86/86
f 459/459 460/460 461/461
f 90/90 91/91 92/92
f 93/93 94/94 95/95
f 494/494 493/493 495/495
f 87/87 88/88 89/89
f 266/266 267/267 268/268
f 698/698 699/699 700/700
f 701/701 702/702 703/703
f 710/710 711/711 712/712
f 435/435 434/434 436/436
f 435/435 433/433 434/434
f 882/882 883/883 884/884
f 433/433 432/432 434/434
f 719/719 720/720 721/721
f 704/704 705/705 706/706
f 722/722 723/723 724/724
f 198/198 199/199 200/200
f 199/199 201/201 200/200
f 736/736 737/737 738/738
f 885/885 886/886 887/887
f 888/888 889/889 890/890
f 733/733 734/734 735/735
f 726/726 727/727 728/728
f 283/283 284/284 285/285
f 7/7 8/8 9/9
f 548/548 549/549 550/550
f 501/501 502/502 503/503
f 437/437 438/438 439/439
f 99/99 100/100 101/101
f 102/102 99/99 101/101
f 13/13 14/14 15/15
f 612/612 610/610 609/609
f 609/609 610/610 611/611
f 221/221 219/219 225/225
f 221/221 225/225 228/228
f 426/426 423/423 425/425
f 423/423 424/424 425/425
f 891/891 892/892 893/893
f 236/236 235/235 237/237
f 224/224 215/215 217/217
f 636/636 637/637 638/638
f 361/361 362/362 363/363
f 364/364 361/361 363/363
f 585/585 587/587 586/586
f 586/586 587/587 588/588
f 589/589 586/586 588/588
f 589/589 588/588 590/590
f 222/222 218/218 223/223
f 218/218 220/220 223/223
f 894/894 895/895 896/896
f 897/897 898/898 899/899
f 81/81 82/82 83/83
f 900/900 901/901 902/902
f 903/903 904/904 905/905
f 568/568 569/569 570/570
f 401/401 402/402 397/397
f 315/315 311/311 309/309
f 309/309 311/311 310/310
f 270/270 271/271 272/272
f 270/270 272/272 273/273
f 536/536 535/535 538/538
f 537/537 538/538 535/535
f 222/222 229/229 230/230
f 222/222 223/223 229/229
f 551/551 552/552 553/553
f 254/254 255/255 256/256
f 906/906 907/907 908/908
f 532/532 534/534 529/529
f 532/532 529/529 533/533
f 533/533 529/529 531/531
f 554/554 552/552 551/551
f 553/553 554/554 551/551
f 534/534 532/532 527/527
f 909/909 910/910 911/911
f 911/911 910/910 912/912
f 133/133 134/134 135/135
f 133/133 135/135 136/136
f 138/138 140/140 139/139
f 137/137 138/138 139/139
f 913/913 914/914 915/915
f 916/916 917/917 918/918
f 178/178 182/182 179/179
f 177/177 178/178 179/179
f 211/211 212/212 213/213
f 535/535 536/536 537/537
f 1/1 2/2 3/3
f 344/344 345/345 346/346
f 4/4 5/5 6/6
f 316/316 317/317 318/318
f 919/919 920/920 921/921
f 645/645 647/647 649/649
f 816/816 813/813 815/815
f 473/473 471/471 467/467
f 466/466 473/473 467/467
f 618/618 621/621 619/619
f 623/623 622/622 618/618
f 518/518 519/519 520/520
f 622/622 621/621 618/618
f 492/492 493/493 494/494
f 469/469 470/470 471/471
f 277/277 278/278 279/279
f 96/96 97/97 98/98
f 186/186 184/184 183/183
f 466/466 467/467 464/464
f 464/464 467/467 468/468
f 417/417 416/416 418/418
f 183/183 184/184 185/185
f 620/620 617/617 619/619
f 617/617 618/618 619/619
f 126/126 127/127 128/128
f 126/126 129/129 127/127
f 531/531 532/532 533/533
f 180/180 178/178 177/177
f 478/478 479/479 480/480
f 480/480 481/481 478/478
f 600/600 601/601 602/602
f 925/925 926/926 927/927
f 922/922 923/923 924/924
f 261/261 265/265 259/259
f 263/263 265/265 260/260
f 259/259 265/265 263/263
f 263/263 260/260 258/258
f 111/111 109/109 115/115
f 110/110 109/109 111/111
f 75/75 76/76 77/77
f 259/259 263/263 258/258
f 108/108 113/113 114/114
f 515/515 516/516 517/517
f 266/266 269/269 267/267
f 108/108 110/110 113/113
f 375/375 376/376 377/377
f 123/123 121/121 120/120
f 120/120 121/121 122/122
f 124/124 120/120 122/122
f 264/264 259/259 258/258
f 280/280 281/281 282/282
f 251/251 252/252 253/253
f 565/565 566/566 567/567
f 123/123 125/125 121/121
f 130/130 131/131 132/132
f 259/259 261/261 257/257
f 259/259 262/262 261/261
f 257/257 258/258 259/259
f 330/330 327/327 329/329
f 559/559 560/560 561/561
f 53/53 54/54 55/55
f 257/257 260/260 258/258
f 149/149 148/148 150/150
f 928/928 929/929 930/930
f 603/603 604/604 605/605
f 181/181 182/182 178/178
f 178/178 180/180 181/181
f 420/420 422/422 421/421
f 419/419 420/420 421/421
f 931/931 934/934 932/932
f 931/931 932/932 933/933
f 431/431 432/432 433/433
f 117/117 119/119 118/118
f 598/598 599/599 596/596
f 595/595 598/598 596/596
f 116/116 117/117 118/118
f 937/937 936/936 938/938
f 939/939 940/940 941/941
f 335/335 336/336 337/337
f 942/942 943/943 944/944
f 217/217 214/214 226/226
f 935/935 936/936 937/937
f 945/945 948/948 946/946
f 945/945 946/946 947/947
f 343/343 342/342 338/338
f 342/342 339/339 338/338
f 286/286 288/288 289/289
f 445/445 446/446 447/447
f 389/389 390/390 391/391
f 391/391 390/390 392/392
f 319/319 317/317 316/316
f 338/338 339/339 340/340
f 338/338 340/340 341/341
f 321/321 323/323 322/322
f 320/320 321/321 322/322
f 449/449 450/450 446/446
f 448/448 449/449 445/445
f 448/448 445/445 447/447
f 449/449 446/446 445/445
f 207/207 208/208 209/209
f 595/595 596/596 597/597
f 352/352 353/353 354/354
f 207/207 209/209 210/210
f 525/525 524/524 527/527
f 527/527 524/524 534/534
f 606/606 607/607 608/608
f 952/952 949/949 951/951
f 949/949 950/950 951/951
f 624/624 625/625 626/626
f 465/465 463/463 462/462
f 488/488 489/489 490/490
f 490/490 491/491 488/488
f 529/529 530/530 531/531
f 72/72 73/73 74/74
f 66/66 67/67 68/68
f 63/63 64/64 65/65
f 415/415 416/416 417/417
f 627/627 625/625 624/624
f 953/953 954/954 955/955
f 69/69 70/70 71/71
