v -0.901362 0.156396 -0.050757 0.5000 0.5000 0.5000
v -0.992005 0.000000 0.040193 0.5000 0.5000 0.5000
v -0.597048 0.207756 -0.027381 0.7546 0.8739 0.7361
v -0.596408 0.201856 -0.007996 0.7472 0.8714 0.7244
v -0.604551 0.194621 0.022410 0.6671 0.7705 0.6500
v -0.604068 0.204482 0.034789 0.6177 0.7278 0.6209
v -0.874477 0.617398 -0.026592 0.7553 0.8729 0.7349
v -0.872832 0.614845 -0.016236 0.7522 0.8685 0.7303
v -0.799804 0.620823 0.025435 0.6750 0.7767 0.6584
v -0.812212 0.616304 0.038782 0.5235 0.6034 0.5229
v -0.823595 0.851362 -0.053640 0.7631 0.8809 0.7497
v -0.866259 0.853986 0.002511 0.7684 0.8861 0.7562
v -0.866509 0.852673 0.003947 0.5993 0.6851 0.5879
v -0.722579 0.843670 0.042597 0.5640 0.6438 0.5503
v -0.674585 1.075008 -0.051492 0.7637 0.8779 0.7484
v -0.875311 0.985221 -0.025921 0.7638 0.8786 0.7477
v -0.869733 1.073221 0.004193 0.5730 0.6488 0.5657
v -0.785818 1.077523 0.041895 0.6604 0.7561 0.6430
v -0.606602 1.316614 -0.051488 0.7614 0.8737 0.7422
v -0.877120 1.189366 -0.025911 0.7625 0.8699 0.7343
v -0.870119 1.098193 0.004689 0.7017 0.7890 0.6844
v -0.790702 1.301061 0.041290 0.6174 0.6900 0.6126
v -0.596568 1.322277 -0.051490 0.7403 0.8580 0.7198
v -0.878733 1.317393 -0.026214 0.7723 0.8852 0.7491
v -0.802970 1.534952 0.003910 0.6940 0.7771 0.6738
v -0.788480 1.317393 0.041593 0.7471 0.8563 0.7209
v -0.903689 1.551576 -0.050083 0.7178 0.8388 0.6968
v -0.803757 1.548368 0.001075 0.7748 0.8962 0.7545
v -0.802595 1.550700 0.003721 0.7645 0.8764 0.7347
v -0.882815 1.560032 0.034392 0.7537 0.8668 0.7251
v -0.108855 0.200470 -0.026441 0.7557 0.8813 0.7478
v -0.099924 0.195063 -0.009697 0.7503 0.8781 0.7396
v -0.425121 0.193316 0.004275 0.7467 0.8743 0.7322
v -0.089711 0.390579 0.042159 0.6999 0.8222 0.6958
v -0.165654 0.621990 -0.049211 0.7603 0.8804 0.7484
v -0.133105 0.612804 0.042181 0.6637 0.7707 0.6521
v -0.149937 0.851252 -0.049203 0.7551 0.8700 0.7349
v -0.089988 0.842086 0.042586 0.7225 0.8374 0.7041
v -0.101437 1.083156 -0.051500 0.7599 0.8731 0.7434
v -0.351357 1.085251 0.043978 0.7475 0.8644 0.7324
v -0.415493 1.314185 -0.051493 0.7633 0.8800 0.7523
v -0.392677 1.113250 0.044114 0.7464 0.8663 0.7236
v -0.392198 1.320893 -0.051486 0.7285 0.8448 0.7094
v -0.495580 1.317393 0.043248 0.7545 0.8705 0.7332
v -0.292647 1.690562 -0.050479 0.7360 0.8529 0.7149
v -0.090670 1.680657 0.044813 0.7560 0.8697 0.7299
v 0.407096 0.200742 -0.026441 0.7574 0.8787 0.7473
v -0.039457 0.195528 -0.011540 0.7527 0.8788 0.7419
v -0.078863 0.191557 0.006518 0.7567 0.8773 0.7385
v -0.084605 0.385329 0.042160 0.7501 0.8726 0.7281
v -0.088035 0.593702 -0.049218 0.7566 0.8767 0.7419
v 0.330755 0.622464 0.042129 0.7486 0.8727 0.7306
v -0.084129 0.844890 -0.049211 0.7612 0.8771 0.7403
v 0.391461 0.764454 0.042108 0.7526 0.8743 0.7370
v -0.083412 1.079674 -0.051498 0.7630 0.8800 0.7484
v 0.402945 1.052589 0.041886 0.7528 0.8735 0.7360
v -0.083330 1.255567 -0.051496 0.7630 0.8791 0.7455
v 0.380452 1.205406 0.041737 0.7463 0.8648 0.7305
v 0.349100 1.545305 -0.051503 0.7660 0.8871 0.7527
v 0.404543 1.317975 0.041701 0.7284 0.8422 0.7109
v 0.383481 1.563533 -0.051506 0.7719 0.8773 0.7480
v 0.146464 1.684006 0.044768 0.7243 0.8344 0.7081
v 0.922689 0.143857 -0.053398 0.6137 0.7353 0.6869
v 0.859867 0.113615 0.040232 0.6044 0.7260 0.6750
v 0.864014 0.379169 -0.026696 0.6920 0.8064 0.6814
v 0.870688 0.385475 -0.012324 0.7202 0.8374 0.7034
v 0.859863 0.293773 0.004956 0.7296 0.8521 0.7141
v 0.681185 0.387663 0.042123 0.6987 0.8133 0.6866
v 0.864189 0.611382 -0.029436 0.7363 0.8542 0.7293
v 0.865546 0.616887 -0.025760 0.7230 0.8372 0.6973
v 0.878913 0.402098 0.003910 0.7357 0.8531 0.7100
v 0.895870 0.547479 0.033882 0.6996 0.8251 0.7065
v 0.864197 0.628115 -0.029502 0.6986 0.8113 0.6908
v 0.865562 0.633037 -0.025727 0.7562 0.8769 0.7355
v 0.879260 0.624470 0.004533 0.7547 0.8755 0.7357
v 0.887660 0.748266 0.033736 0.7346 0.8578 0.7203
v 0.861402 0.854132 -0.040047 0.7436 0.8615 0.7317
v 0.864392 0.865360 -0.024664 0.7580 0.8781 0.7418
v 0.863628 1.081170 0.008030 0.7547 0.8760 0.7352
v 0.573273 1.084499 0.041965 0.7181 0.8411 0.7031
v 0.783050 1.246744 -0.049198 0.7509 0.8694 0.7407
v 0.862162 1.189875 0.003064 0.7605 0.8792 0.7464
v 0.862568 1.122800 0.009863 0.7586 0.8801 0.7396
v 0.418260 1.186740 0.041776 0.6800 0.8115 0.7043
v 0.745316 1.364219 -0.049203 0.6634 0.7708 0.6438
v 0.860525 1.339411 0.003192 0.6470 0.7455 0.6164
v 0.860260 1.317393 0.006820 0.7664 0.8840 0.7477
v 0.424006 1.319142 0.041719 0.7301 0.8520 0.7311
v 0.874547 1.700000 -0.027818 0.5541 0.6536 0.5514
v 0.870629 1.699316 -0.025836 0.7362 0.8558 0.7117
v 0.853879 1.548658 0.007453 0.7176 0.8391 0.7198
v 0.871619 1.557116 0.046347 0.7023 0.8203 0.7016
v 1.007995 0.067952 -0.046463 0.6131 0.7346 0.6863
v 0.946658 0.113549 0.045523 0.6042 0.7288 0.6748
v 0.924688 0.236013 -0.042088 0.6614 0.7781 0.6745
v 0.929577 0.389558 0.001869 0.6815 0.7948 0.6741
v 0.929619 0.381757 0.008332 0.5692 0.6748 0.5429
v 0.943883 0.214723 0.045430 0.6373 0.7568 0.6579
v 0.925608 0.620970 -0.035512 0.7272 0.8516 0.7422
v 0.928961 0.452547 0.003075 0.7640 0.8849 0.7596
v 0.929561 0.391372 0.005633 0.7620 0.8853 0.7594
v 0.923842 0.399128 0.046360 0.7263 0.8541 0.7414
v 0.934278 0.846276 -0.052941 0.6571 0.7716 0.6716
v 0.923679 0.667374 -0.011624 0.7643 0.8842 0.7596
v 0.923554 0.699127 0.015438 0.7639 0.8850 0.7595
v 0.928216 0.851871 0.046180 0.7015 0.8269 0.7178
v 0.925008 1.073260 -0.053322 0.3905 0.4933 0.4511
v 0.937396 1.066733 0.045792 0.5539 0.6856 0.6208
v 0.923558 1.312074 -0.053349 0.5437 0.6777 0.6099
v 0.926821 1.314477 0.046226 0.5925 0.7350 0.6700
v 0.923499 1.361429 -0.053344 0.5921 0.7271 0.6691
v 0.923453 1.428215 0.046348 0.5961 0.7351 0.6684
v 0.924474 1.575198 -0.053303 0.6039 0.7391 0.6788
v 0.924427 1.698475 -0.024022 0.5875 0.7210 0.6615
v 0.924248 1.658448 0.007113 0.5755 0.7104 0.6455
v 0.926860 1.549315 0.046226 0.5665 0.7003 0.6380
f 80 58 84
f 56 58 80
f 84 60 88
f 58 60 84
f 85 59 89
f 59 61 89
f 74 70 75
f 73 70 74
f 69 70 73
f 70 71 75
f 77 73 74
f 77 74 78
f 71 72 76
f 75 71 76
f 70 66 67
f 70 67 71
f 69 65 66
f 69 66 70
f 41 19 43
f 43 19 23
f 41 15 19
f 39 15 41
f 57 43 59
f 57 41 43
f 57 39 41
f 55 39 57
f 81 59 85
f 81 57 59
f 11 12 15
f 15 12 16
f 23 19 24
f 19 20 24
f 15 16 20
f 19 15 20
f 16 13 17
f 16 17 21
f 20 16 21
f 7 8 12
f 11 7 12
f 49 66 67
f 49 48 66
f 31 48 32
f 31 47 48
f 5 32 33
f 48 47 65
f 33 32 49
f 32 48 49
f 48 65 66
f 74 79 78
f 74 75 79
f 75 76 80
f 79 75 80
f 85 81 86
f 81 82 86
f 81 77 78
f 81 78 82
f 83 78 79
f 82 78 83
f 87 83 84
f 88 87 84
f 83 80 84
f 79 80 83
f 86 83 87
f 86 82 83
f 59 43 45
f 59 45 61
f 44 22 26
f 22 44 42
f 42 18 22
f 40 18 42
f 56 40 42
f 56 42 58
f 42 44 60
f 58 42 60
f 54 56 80
f 76 54 80
f 68 50 52
f 68 52 72
f 72 54 76
f 52 54 72
f 38 14 18
f 38 18 40
f 50 34 52
f 52 34 36
f 54 38 56
f 38 40 56
f 36 38 54
f 52 36 54
f 23 43 45
f 27 23 45
f 43 23 27
f 43 27 45
f 45 43 61
f 61 43 59
f 85 57 81
f 59 57 85
f 24 27 28
f 24 23 27
f 66 96 97
f 67 66 97
f 97 96 100
f 97 100 101
f 29 25 26
f 29 26 30
f 28 24 29
f 24 20 25
f 20 21 25
f 24 25 29
f 62 44 46
f 60 44 62
f 26 30 44
f 44 30 46
f 62 60 92
f 92 60 88
f 58 84 88
f 60 58 88
f 9 8 13
f 8 12 13
f 14 13 17
f 14 17 18
f 25 26 22
f 21 25 22
f 21 20 24
f 21 24 25
f 25 24 28
f 25 28 29
f 15 19 16
f 16 19 20
f 36 10 14
f 14 38 36
f 17 21 22
f 18 17 22
f 12 16 17
f 13 12 17
f 57 77 81
f 55 77 57
f 53 73 77
f 55 53 77
f 39 37 55
f 37 53 55
f 37 51 53
f 37 35 51
f 15 39 19
f 41 19 39
f 53 51 73
f 51 69 73
f 15 37 39
f 11 37 15
f 44 42 58
f 44 58 60
f 38 54 40
f 40 54 56
f 22 18 40
f 42 22 40
f 42 40 58
f 58 40 56
f 14 10 38
f 10 36 38
f 38 36 52
f 38 52 54
f 68 49 67
f 49 68 50
f 18 13 14
f 17 13 18
f 12 13 16
f 12 8 9
f 12 9 13
f 32 4 5
f 33 34 50
f 49 33 50
f 33 5 6
f 33 6 34
f 90 85 86
f 89 85 90
f 86 87 91
f 90 86 91
f 81 109 111
f 85 81 111
f 86 89 90
f 86 85 89
f 73 103 107
f 73 107 77
f 74 73 78
f 73 77 78
f 77 107 109
f 81 77 109
f 81 85 109
f 109 85 111
f 111 85 89
f 111 89 113
f 113 89 114
f 89 90 114
f 104 73 74
f 104 103 73
f 100 99 103
f 104 100 103
f 98 97 101
f 67 68 71
f 71 68 72
f 94 64 98
f 64 68 98
f 68 64 94
f 68 94 98
f 68 97 98
f 72 68 98
f 72 98 102
f 67 97 68
f 36 10 34
f 6 34 10
f 6 5 34
f 5 33 34
f 34 33 49
f 34 49 50
f 87 88 91
f 91 88 92
f 82 77 81
f 77 82 78
f 75 78 79
f 84 83 88
f 83 87 88
f 79 78 82
f 79 82 83
f 108 84 110
f 108 80 84
f 106 76 80
f 106 80 108
f 106 75 76
f 105 75 106
f 74 78 75
f 72 102 106
f 76 72 106
f 116 91 92
f 115 91 116
f 110 84 112
f 88 110 112
f 84 88 112
f 88 87 92
f 92 87 91
f 88 92 112
f 112 92 116
f 84 110 88
f 90 91 114
f 114 91 115
f 102 101 106
f 101 105 106
f 98 101 102
f 104 74 105
f 105 74 75
f 105 101 104
f 101 100 104
f 90 89 113
f 90 113 114
f 92 91 115
f 92 115 116
f 65 95 96
f 66 65 96
f 95 99 96
f 96 99 100
f 95 63 65
f 95 65 99
f 65 69 99
f 99 73 103
f 69 73 99
f 53 37 39
f 53 39 55
f 4 3 32
f 32 3 31
f 51 53 69
f 73 69 53
f 55 57 81
f 77 55 81
f 47 51 69
f 65 47 69
f 47 31 35
f 47 35 51
f 35 7 11
f 35 11 37
f 35 3 7
f 31 3 35
f 11 7 37
f 37 7 35
f 93 63 95
f 31 4 32
f 3 4 31
f 48 33 49
f 32 33 48
f 47 32 48
f 47 31 32
f 47 65 51
f 51 65 69
f 66 48 67
f 48 49 67
f 10 9 13
f 10 13 14
f 5 9 10
f 5 10 6
f 14 9 10
f 9 14 13
f 7 3 4
f 7 4 8
f 8 4 5
f 8 5 9
