mtllib P-44_tex.mtl
v 0.418260 1.186740 0.041776
v 0.926821 1.314477 0.046226
v 0.424006 1.319142 0.041719
v 0.380452 1.205406 0.041737
v 0.404543 1.317975 0.041701
v -0.495580 1.317393 0.043248
v -0.392677 1.113250 0.044114
v 0.923453 1.428215 0.046348
v 0.924248 1.658448 0.007113
v 0.853879 1.548658 0.007453
v 0.926860 1.549315 0.046226
v -0.108855 0.200470 -0.026441
v -0.596408 0.201856 -0.007996
v -0.099924 0.195063 -0.009697
v -0.597048 0.207756 -0.027381
v -0.674585 1.075008 -0.051492
v -0.101437 1.083156 -0.051500
v -0.606602 1.316614 -0.051488
v -0.415493 1.314185 -0.051493
v -0.415493 1.314185 -0.051493
v -0.674585 1.075008 -0.051492
v -0.606602 1.316614 -0.051488
v -0.101437 1.083156 -0.051500
v -0.084129 0.844890 -0.049211
v -0.149937 0.851252 -0.049203
v -0.101437 1.083156 -0.051500
v -0.083412 1.079674 -0.051498
v 0.859863 0.293773 0.004956
v 0.929619 0.381757 0.008332
v 0.681185 0.387663 0.042123
v 0.783050 1.246744 -0.049198
v 0.923558 1.312074 -0.053349
v 0.923499 1.361429 -0.053344
v 0.745316 1.364219 -0.049203
v 0.864197 0.628115 -0.029502
v 0.864189 0.611382 -0.029436
v -0.084129 0.844890 -0.049211
v -0.088035 0.593702 -0.049218
v -0.088035 0.593702 -0.049218
v 0.864189 0.611382 -0.029436
v 0.864197 0.628115 -0.029502
v -0.084129 0.844890 -0.049211
v 0.864014 0.379169 -0.026696
v 0.407096 0.200742 -0.026441
v -0.604068 0.204482 0.034789
v -0.089711 0.390579 0.042159
v -0.812212 0.616304 0.038782
v -0.133105 0.612804 0.042181
v -0.604551 0.194621 0.022410
v -0.425121 0.193316 0.004275
v -0.089988 0.842086 0.042586
v 0.391461 0.764454 0.042108
v -0.351357 1.085251 0.043978
v 0.402945 1.052589 0.041886
v 0.380452 1.205406 0.041737
v -0.392677 1.113250 0.044114
v 0.330755 0.622464 0.042129
v -0.722579 0.843670 0.042597
v -0.790702 1.301061 0.041290
v -0.785818 1.077523 0.041895
v 0.928216 0.851871 0.046180
v 0.573273 1.084499 0.041965
v 0.937396 1.066733 0.045792
v 0.418260 1.186740 0.041776
v 0.926821 1.314477 0.046226
v 0.923453 1.428215 0.046348
v 0.424006 1.319142 0.041719
v 0.871619 1.557116 0.046347
v 0.926860 1.549315 0.046226
v 0.887660 0.748266 0.033736
v 0.391461 0.764454 0.042108
v 0.895870 0.547479 0.033882
v 0.330755 0.622464 0.042129
v 0.681185 0.387663 0.042123
v 0.878913 0.402098 0.003910
v 0.859863 0.293773 0.004956
v 0.924248 1.658448 0.007113
v -0.722579 0.843670 0.042597
v -0.799804 0.620823 0.025435
v -0.812212 0.616304 0.038782
v -0.866509 0.852673 0.003947
v -0.089988 0.842086 0.042586
v 0.402945 1.052589 0.041886
v -0.351357 1.085251 0.043978
v -0.392677 1.113250 0.044114
v -0.785818 1.077523 0.041895
v -0.133105 0.612804 0.042181
v -0.089711 0.390579 0.042159
v -0.084605 0.385329 0.042160
v 0.380452 1.205406 0.041737
v 0.404543 1.317975 0.041701
v -0.495580 1.317393 0.043248
v -0.790702 1.301061 0.041290
v -0.083412 1.079674 -0.051498
v -0.083330 1.255567 -0.051496
v 0.783050 1.246744 -0.049198
v 0.861402 0.854132 -0.040047
v 0.783050 1.246744 -0.049198
v 0.861402 0.854132 -0.040047
v 0.923558 1.312074 -0.053349
v -0.083330 1.255567 -0.051496
v -0.083412 1.079674 -0.051498
v 0.925008 1.073260 -0.053322
v 0.864197 0.628115 -0.029502
v 0.934278 0.846276 -0.052941
v 0.923679 0.667374 -0.011624
v 0.871619 1.557116 0.046347
v 0.404543 1.317975 0.041701
v 0.424006 1.319142 0.041719
v 0.146464 1.684006 0.044768
v 0.860260 1.317393 0.006820
v 0.862568 1.122800 0.009863
v 0.418260 1.186740 0.041776
v -0.674585 1.075008 -0.051492
v -0.149937 0.851252 -0.049203
v -0.101437 1.083156 -0.051500
v -0.083412 1.079674 -0.051498
v -0.084129 0.844890 -0.049211
v -0.823595 0.851362 -0.053640
v -0.874477 0.617398 -0.026592
v -0.165654 0.621990 -0.049211
v 0.859863 0.293773 0.004956
v 0.870688 0.385475 -0.012324
v 0.929619 0.381757 0.008332
v 0.929577 0.389558 0.001869
v 0.870688 0.385475 -0.012324
v -0.039457 0.195528 -0.011540
v 0.859863 0.293773 0.004956
v 0.895870 0.547479 0.033882
v 0.923842 0.399128 0.046360
v 0.928216 0.851871 0.046180
v 0.887660 0.748266 0.033736
v 0.943883 0.214723 0.045430
v 0.681185 0.387663 0.042123
v -0.039457 0.195528 -0.011540
v 0.407096 0.200742 -0.026441
v 0.864014 0.379169 -0.026696
v -0.089711 0.390579 0.042159
v -0.078863 0.191557 0.006518
v -0.084605 0.385329 0.042160
v -0.425121 0.193316 0.004275
v -0.425121 0.193316 0.004275
v -0.604068 0.204482 0.034789
v -0.089711 0.390579 0.042159
v -0.084605 0.385329 0.042160
v -0.078863 0.191557 0.006518
v -0.604551 0.194621 0.022410
v 0.923499 1.361429 -0.053344
v 0.745316 1.364219 -0.049203
v 0.874547 1.700000 -0.027818
v 0.923558 1.312074 -0.053349
v 0.783050 1.246744 -0.049198
v 0.924474 1.575198 -0.053303
v 0.924427 1.698475 -0.024022
v 0.870629 1.699316 -0.025836
v 0.860525 1.339411 0.003192
v -0.606602 1.316614 -0.051488
v -0.674585 1.075008 -0.051492
v -0.877120 1.189366 -0.025911
v -0.875311 0.985221 -0.025921
v -0.875311 0.985221 -0.025921
v -0.606602 1.316614 -0.051488
v -0.877120 1.189366 -0.025911
v -0.674585 1.075008 -0.051492
v 0.860525 1.339411 0.003192
v 0.874547 1.700000 -0.027818
v 0.870629 1.699316 -0.025836
v 0.745316 1.364219 -0.049203
v 0.681185 0.387663 0.042123
v 0.929619 0.381757 0.008332
v 0.943883 0.214723 0.045430
v 0.929561 0.391372 0.005633
v -0.872832 0.614845 -0.016236
v -0.604551 0.194621 0.022410
v -0.799804 0.620823 0.025435
v -0.866259 0.853986 0.002511
v -0.722579 0.843670 0.042597
v -0.866509 0.852673 0.003947
v -0.869733 1.073221 0.004193
v -0.785818 1.077523 0.041895
v 0.861402 0.854132 -0.040047
v 0.862162 1.189875 0.003064
v 0.864392 0.865360 -0.024664
v 0.783050 1.246744 -0.049198
v -0.425121 0.193316 0.004275
v -0.099924 0.195063 -0.009697
v -0.078863 0.191557 0.006518
v -0.039457 0.195528 -0.011540
v -0.108855 0.200470 -0.026441
v -0.597048 0.207756 -0.027381
v -0.596408 0.201856 -0.007996
v 0.407096 0.200742 -0.026441
v -0.165654 0.621990 -0.049211
v -0.088035 0.593702 -0.049218
v -0.874477 0.617398 -0.026592
v 1.007995 0.067952 -0.046463
v 0.922689 0.143857 -0.053398
v 0.924688 0.236013 -0.042088
v 0.864014 0.379169 -0.026696
v 0.864189 0.611382 -0.029436
v 0.925608 0.620970 -0.035512
v 0.864197 0.628115 -0.029502
v 0.934278 0.846276 -0.052941
v 0.923554 0.699127 0.015438
v 0.929561 0.391372 0.005633
v 0.923679 0.667374 -0.011624
v 0.928216 0.851871 0.046180
v 0.923842 0.399128 0.046360
v 0.943883 0.214723 0.045430
v -0.823595 0.851362 -0.053640
v -0.874477 0.617398 -0.026592
v -0.866259 0.853986 0.002511
v -0.674585 1.075008 -0.051492
v -0.165654 0.621990 -0.049211
v -0.149937 0.851252 -0.049203
v -0.875311 0.985221 -0.025921
v -0.039457 0.195528 -0.011540
v 0.864014 0.379169 -0.026696
v 0.870688 0.385475 -0.012324
v -0.078863 0.191557 0.006518
v 0.929577 0.389558 0.001869
v -0.039457 0.195528 -0.011540
v -0.078863 0.191557 0.006518
v 0.859863 0.293773 0.004956
v -0.874477 0.617398 -0.026592
v -0.596408 0.201856 -0.007996
v -0.872832 0.614845 -0.016236
v -0.597048 0.207756 -0.027381
v -0.604551 0.194621 0.022410
v -0.866259 0.853986 0.002511
v 0.929577 0.389558 0.001869
v 0.925608 0.620970 -0.035512
v 0.928961 0.452547 0.003075
v 0.924688 0.236013 -0.042088
v 0.929619 0.381757 0.008332
v 0.934278 0.846276 -0.052941
v 0.923679 0.667374 -0.011624
v 0.864014 0.379169 -0.026696
v 0.924688 0.236013 -0.042088
v 0.929577 0.389558 0.001869
v 0.407096 0.200742 -0.026441
v -0.099924 0.195063 -0.009697
v -0.039457 0.195528 -0.011540
v -0.108855 0.200470 -0.026441
v -0.604551 0.194621 0.022410
v -0.799804 0.620823 0.025435
v -0.812212 0.616304 0.038782
v -0.866509 0.852673 0.003947
v 0.865546 0.616887 -0.025760
v 0.878913 0.402098 0.003910
v 0.879260 0.624470 0.004533
v 0.865562 0.633037 -0.025727
v 0.863628 1.081170 0.008030
v 0.864197 0.628115 -0.029502
v 0.864189 0.611382 -0.029436
v 0.870688 0.385475 -0.012324
v 0.887660 0.748266 0.033736
v 0.864014 0.379169 -0.026696
v 0.895870 0.547479 0.033882
v 0.859863 0.293773 0.004956
v 0.862568 1.122800 0.009863
v 0.864392 0.865360 -0.024664
v 0.862162 1.189875 0.003064
v 0.783050 1.246744 -0.049198
v 0.861402 0.854132 -0.040047
v 0.870629 1.699316 -0.025836
v 0.924474 1.575198 -0.053303
v 0.924427 1.698475 -0.024022
v -0.875311 0.985221 -0.025921
v -0.866509 0.852673 0.003947
v -0.869733 1.073221 0.004193
v -0.866259 0.853986 0.002511
v -0.785818 1.077523 0.041895
v -0.799804 0.620823 0.025435
v -0.722579 0.843670 0.042597
v -0.866509 0.852673 0.003947
v -0.866259 0.853986 0.002511
v -0.869733 1.073221 0.004193
v -0.875311 0.985221 -0.025921
v -0.872832 0.614845 -0.016236
v -0.799804 0.620823 0.025435
v 0.923554 0.699127 0.015438
v 0.879260 0.624470 0.004533
v 0.928216 0.851871 0.046180
v 0.887660 0.748266 0.033736
v -0.099924 0.195063 -0.009697
v -0.425121 0.193316 0.004275
v -0.039457 0.195528 -0.011540
v -0.078863 0.191557 0.006518
v -0.604551 0.194621 0.022410
v -0.812212 0.616304 0.038782
v -0.604068 0.204482 0.034789
v 0.871619 1.557116 0.046347
v 0.853879 1.548658 0.007453
v 0.924248 1.658448 0.007113
v 0.860260 1.317393 0.006820
v 0.424006 1.319142 0.041719
v 0.418260 1.186740 0.041776
v 0.862568 1.122800 0.009863
v 0.863628 1.081170 0.008030
v 0.864392 0.865360 -0.024664
v 0.862162 1.189875 0.003064
v 0.862568 1.122800 0.009863
v 0.864197 0.628115 -0.029502
v 0.861402 0.854132 -0.040047
v 0.864392 0.865360 -0.024664
v 0.865562 0.633037 -0.025727
v 0.879260 0.624470 0.004533
v 0.863628 1.081170 0.008030
v 0.923554 0.699127 0.015438
v 0.865562 0.633037 -0.025727
v 0.879260 0.624470 0.004533
v 0.923679 0.667374 -0.011624
v 0.865562 0.633037 -0.025727
v 0.923554 0.699127 0.015438
v 0.864197 0.628115 -0.029502
v 0.926860 1.549315 0.046226
v 0.853879 1.548658 0.007453
v 0.871619 1.557116 0.046347
v 0.424006 1.319142 0.041719
v 0.870629 1.699316 -0.025836
v 0.874547 1.700000 -0.027818
v 0.924474 1.575198 -0.053303
v 0.929561 0.391372 0.005633
v 0.928961 0.452547 0.003075
v 0.923679 0.667374 -0.011624
v 0.929619 0.381757 0.008332
v -0.866259 0.853986 0.002511
v -0.799804 0.620823 0.025435
v -0.866509 0.852673 0.003947
v 0.874547 1.700000 -0.027818
v 0.870629 1.699316 -0.025836
v 0.924427 1.698475 -0.024022
v -0.078863 0.191557 0.006518
v 0.870688 0.385475 -0.012324
v 0.859863 0.293773 0.004956
v 0.783050 1.246744 -0.049198
v 0.349100 1.545305 -0.051503
v 0.745316 1.364219 -0.049203
v -0.083330 1.255567 -0.051496
v 0.349100 1.545305 -0.051503
v -0.292647 1.690562 -0.050479
v 0.383481 1.563533 -0.051506
v -0.392198 1.320893 -0.051486
v -0.903689 1.551576 -0.050083
v -0.596568 1.322277 -0.051490
v 0.349100 1.545305 -0.051503
v -0.083330 1.255567 -0.051496
v 0.745316 1.364219 -0.049203
v 0.783050 1.246744 -0.049198
v -0.596568 1.322277 -0.051490
v -0.392198 1.320893 -0.051486
v -0.292647 1.690562 -0.050479
v -0.903689 1.551576 -0.050083
v 0.383481 1.563533 -0.051506
v 0.349100 1.545305 -0.051503
v -0.878733 1.317393 -0.026214
v -0.495580 1.317393 0.043248
v -0.882815 1.560032 0.034392
v -0.090670 1.680657 0.044813
v -0.788480 1.317393 0.041593
v 0.146464 1.684006 0.044768
v 0.404543 1.317975 0.041701
v -0.790702 1.301061 0.041290
v -0.392677 1.113250 0.044114
v 0.745316 1.364219 -0.049203
v 0.349100 1.545305 -0.051503
v 0.874547 1.700000 -0.027818
v 0.383481 1.563533 -0.051506
v -0.870119 1.098193 0.004689
v -0.802970 1.534952 0.003910
v -0.790702 1.301061 0.041290
v -0.878733 1.317393 -0.026214
v -0.788480 1.317393 0.041593
v -0.869733 1.073221 0.004193
v -0.785818 1.077523 0.041895
v -0.877120 1.189366 -0.025911
v -0.878733 1.317393 -0.026214
v -0.903689 1.551576 -0.050083
v -0.803757 1.548368 0.001075
v -0.802970 1.534952 0.003910
v -0.802595 1.550700 0.003721
v -0.878733 1.317393 -0.026214
v -0.877120 1.189366 -0.025911
v -0.802970 1.534952 0.003910
v -0.802595 1.550700 0.003721
v -0.870119 1.098193 0.004689
v -0.803757 1.548368 0.001075
v 0.861402 0.854132 -0.040047
v 0.865562 0.633037 -0.025727
v 0.864392 0.865360 -0.024664
v 0.864197 0.628115 -0.029502
v -0.415493 1.314185 -0.051493
v -0.606602 1.316614 -0.051488
v -0.392198 1.320893 -0.051486
v -0.083330 1.255567 -0.051496
v 0.349100 1.545305 -0.051503
v -0.101437 1.083156 -0.051500
v -0.083412 1.079674 -0.051498
v -0.596568 1.322277 -0.051490
v -0.878733 1.317393 -0.026214
v -0.877120 1.189366 -0.025911
v -0.877120 1.189366 -0.025911
v -0.875311 0.985221 -0.025921
v -0.870119 1.098193 0.004689
v -0.869733 1.073221 0.004193
v -0.604551 0.194621 0.022410
v -0.099924 0.195063 -0.009697
v -0.425121 0.193316 0.004275
v 0.879260 0.624470 0.004533
v 0.887660 0.748266 0.033736
v 0.573273 1.084499 0.041965
v 0.863628 1.081170 0.008030
v 0.573273 1.084499 0.041965
v 0.862568 1.122800 0.009863
v 0.879260 0.624470 0.004533
v 0.418260 1.186740 0.041776
v 0.745316 1.364219 -0.049203
v 0.783050 1.246744 -0.049198
v 0.860525 1.339411 0.003192
v 0.862162 1.189875 0.003064
v 0.860525 1.339411 0.003192
v 0.860260 1.317393 0.006820
v 0.853879 1.548658 0.007453
v 0.862568 1.122800 0.009863
v 0.870629 1.699316 -0.025836
v 0.862162 1.189875 0.003064
v 0.924427 1.698475 -0.024022
v 0.853879 1.548658 0.007453
v 0.924248 1.658448 0.007113
v 0.870629 1.699316 -0.025836
v -0.089988 0.842086 0.042586
v -0.722579 0.843670 0.042597
v -0.785818 1.077523 0.041895
v -0.351357 1.085251 0.043978
v -0.802595 1.550700 0.003721
v -0.802970 1.534952 0.003910
v -0.788480 1.317393 0.041593
v -0.802595 1.550700 0.003721
v -0.788480 1.317393 0.041593
v -0.882815 1.560032 0.034392
v -0.083412 1.079674 -0.051498
v -0.084129 0.844890 -0.049211
v 0.861402 0.854132 -0.040047
v 0.864197 0.628115 -0.029502
v -0.149937 0.851252 -0.049203
v -0.088035 0.593702 -0.049218
v -0.084129 0.844890 -0.049211
v -0.165654 0.621990 -0.049211
v 0.681185 0.387663 0.042123
v -0.078863 0.191557 0.006518
v 0.859863 0.293773 0.004956
v -0.084605 0.385329 0.042160
v -0.099924 0.195063 -0.009697
v -0.596408 0.201856 -0.007996
v -0.604551 0.194621 0.022410
v 0.859867 0.113615 0.040232
v 0.681185 0.387663 0.042123
v 0.943883 0.214723 0.045430
v 0.946658 0.113549 0.045523
v 0.681185 0.387663 0.042123
v 0.946658 0.113549 0.045523
v 0.943883 0.214723 0.045430
v 0.859867 0.113615 0.040232
vt 0.159393 0.005890
vt 0.017820 0.030097
vt 0.155001 0.042181
vt 0.169317 0.011836
vt 0.160340 0.042278
vt 0.406085 0.061450
vt 0.382343 0.003095
vt 0.016314 0.061450
vt 0.785273 0.591754
vt 0.817019 0.574271
vt 0.817019 0.597259
vt 0.371879 0.883664
vt 0.237834 0.889036
vt 0.374339 0.889036
vt 0.237654 0.882847
vt 0.978395 0.041998
vt 0.978395 0.199381
vt 0.912257 0.061605
vt 0.913672 0.114062
vt 0.430331 0.586299
vt 0.502205 0.651194
vt 0.482650 0.584881
vt 0.345238 0.651194
vt 0.115079 0.569850
vt 0.115079 0.588417
vt 0.049824 0.581127
vt 0.050303 0.575994
vt 0.832633 0.829797
vt 0.814374 0.855438
vt 0.883157 0.855438
vt 0.235891 0.747569
vt 0.193314 0.742194
vt 0.189153 0.729055
vt 0.235891 0.713086
vt 0.519029 0.823855
vt 0.518959 0.819262
vt 0.779982 0.879310
vt 0.779982 0.810345
vt 0.505886 0.742015
vt 0.758808 0.804983
vt 0.757790 0.809461
vt 0.491623 0.809461
vt 0.772928 0.742832
vt 0.661982 0.667109
vt 0.775682 0.107750
vt 0.719106 0.246677
vt 0.665191 0.046222
vt 0.658736 0.232358
vt 0.779982 0.108327
vt 0.778994 0.157777
vt 0.595490 0.241668
vt 0.611490 0.374447
vt 0.531765 0.167389
vt 0.532476 0.374447
vt 0.490882 0.366615
vt 0.524550 0.155760
vt 0.651028 0.359363
vt 0.601954 0.068302
vt 0.477513 0.044651
vt 0.538649 0.048445
vt 0.490741 0.222620
vt 0.387635 0.168899
vt 0.487297 0.163658
vt 0.342612 0.145219
vt 0.477593 0.096252
vt 0.473544 0.065267
vt 0.340541 0.108877
vt 0.455879 0.031477
vt 0.471136 0.032082
vt 0.482447 0.252215
vt 0.346838 0.261355
vt 0.490151 0.306863
vt 0.334176 0.301825
vt 0.436008 0.356430
vt 0.490612 0.347896
vt 0.487915 0.377984
vt 0.467517 0.000442
vt 0.041284 0.270179
vt 0.028109 0.333763
vt 0.023069 0.334771
vt 0.000441 0.271428
vt 0.213601 0.253312
vt 0.342106 0.182293
vt 0.135788 0.194018
vt 0.123772 0.187501
vt 0.017701 0.208048
vt 0.208108 0.317149
vt 0.225978 0.376691
vt 0.227509 0.377984
vt 0.331803 0.141150
vt 0.335282 0.109730
vt 0.090181 0.134534
vt 0.010258 0.147105
vt 0.299695 0.820071
vt 0.310847 0.773083
vt 0.079763 0.720159
vt 0.033951 0.820071
vt 0.521954 0.618309
vt 0.630441 0.637372
vt 0.504850 0.657383
vt 0.513998 0.380004
vt 0.562334 0.378868
vt 0.570488 0.656270
vt 0.692681 0.636701
vt 0.632927 0.657383
vt 0.682458 0.653299
vt 0.477751 0.876658
vt 0.362593 0.789584
vt 0.367805 0.790824
vt 0.275573 0.876658
vt 0.486327 0.810602
vt 0.496032 0.757972
vt 0.372450 0.754642
vt 0.781938 0.171782
vt 0.844253 0.028024
vt 0.780864 0.014231
vt 0.781853 0.009284
vt 0.846126 0.009948
vt 0.842830 0.213176
vt 0.906967 0.227675
vt 0.906967 0.032796
vt 0.671517 0.493811
vt 0.656526 0.472228
vt 0.671517 0.462744
vt 0.669523 0.461096
vt 0.633598 0.370027
vt 0.633598 0.625553
vt 0.608907 0.378092
vt 0.925814 0.767284
vt 0.933496 0.808165
vt 0.936949 0.683908
vt 0.924688 0.712124
vt 0.936949 0.858974
vt 0.865520 0.809842
vt 0.466931 0.929708
vt 0.346903 0.905836
vt 0.214727 0.929708
vt 0.053904 0.492042
vt 0.050705 0.547745
vt 0.052492 0.493461
vt 0.145944 0.547745
vt 0.091395 0.942573
vt 0.041887 0.949461
vt 0.185137 0.995137
vt 0.186508 0.993662
vt 0.186508 0.939434
vt 0.041895 0.945105
vt 0.978330 0.473959
vt 0.928131 0.473346
vt 0.964063 0.378868
vt 0.978395 0.487778
vt 0.938871 0.506189
vt 0.978395 0.414105
vt 0.978087 0.379179
vt 0.962949 0.379037
vt 0.960284 0.479409
vt 0.157407 0.257737
vt 0.112407 0.205570
vt 0.074946 0.257737
vt 0.051587 0.206837
vt 0.035714 0.339481
vt 0.141534 0.391247
vt 0.059073 0.391247
vt 0.096534 0.338196
vt 0.987213 0.375332
vt 0.987213 0.275420
vt 0.986009 0.275696
vt 0.951940 0.368659
vt 0.971340 0.985411
vt 0.913535 0.947933
vt 0.884921 0.985411
vt 0.915009 0.945623
vt 0.065583 0.904951
vt 0.201499 0.932361
vt 0.071795 0.927392
vt 0.004850 0.932361
vt 0.146825 0.331123
vt 0.149959 0.372679
vt 0.211113 0.372679
vt 0.212081 0.347132
vt 0.997795 0.682140
vt 0.974868 0.591607
vt 0.993147 0.679599
vt 0.997795 0.571618
vt 0.406170 0.410624
vt 0.317219 0.403247
vt 0.312059 0.397986
vt 0.300705 0.401682
vt 0.319019 0.408368
vt 0.451404 0.427249
vt 0.451976 0.421699
vt 0.178831 0.390596
vt 0.319923 0.525581
vt 0.299796 0.515194
vt 0.512787 0.548630
vt 0.018551 0.333775
vt 0.039867 0.356847
vt 0.036456 0.382174
vt 0.048530 0.423424
vt 0.040451 0.486815
vt 0.023353 0.487308
vt 0.039874 0.491383
vt 0.012787 0.548630
vt 0.398224 0.382263
vt 0.313041 0.379507
vt 0.389434 0.374447
vt 0.440476 0.391247
vt 0.315215 0.391161
vt 0.264109 0.391247
vt 0.778935 0.621137
vt 0.843474 0.606535
vt 0.778143 0.601795
vt 0.709436 0.645956
vt 0.843474 0.801074
vt 0.780550 0.805924
vt 0.741889 0.594607
vt 0.881878 0.882614
vt 0.625542 0.879310
vt 0.623393 0.883796
vt 0.892857 0.888152
vt 0.607143 0.888152
vt 0.003086 0.345533
vt 0.008377 0.334660
vt 0.008377 0.593722
vt 0.668778 0.969940
vt 0.805921 0.973394
vt 0.669649 0.972936
vt 0.804409 0.967728
vt 0.806437 0.982759
vt 0.604497 0.982759
vt 0.326227 0.966867
vt 0.261210 0.976362
vt 0.308585 0.966226
vt 0.369048 0.980106
vt 0.328445 0.965075
vt 0.197972 0.980106
vt 0.248329 0.969396
vt 0.232363 0.836870
vt 0.232363 0.880195
vt 0.212081 0.840510
vt 0.645062 0.634394
vt 0.639771 0.494506
vt 0.640338 0.511189
vt 0.645062 0.492042
vt 0.541887 0.988064
vt 0.413170 0.980076
vt 0.413159 0.974801
vt 0.347002 0.988064
vt 0.573711 0.037344
vt 0.514292 0.031918
vt 0.575224 0.027892
vt 0.578136 0.037041
vt 0.700367 0.020811
vt 0.576862 0.038238
vt 0.572316 0.038595
vt 0.510137 0.040910
vt 0.608640 0.017241
vt 0.508926 0.045535
vt 0.553510 0.019611
vt 0.484568 0.037407
vt 0.711749 0.019693
vt 0.641747 0.033231
vt 0.730219 0.020590
vt 0.748236 0.045535
vt 0.638675 0.037631
vt 0.433422 0.946508
vt 0.471340 0.946508
vt 0.439293 0.932361
vt 0.921717 0.240363
vt 0.921396 0.277812
vt 0.935737 0.218833
vt 0.921076 0.277375
vt 0.960758 0.223934
vt 0.923925 0.344386
vt 0.960758 0.290567
vt 0.444682 0.565219
vt 0.445096 0.564860
vt 0.504850 0.574271
vt 0.482088 0.561955
vt 0.380699 0.550398
vt 0.378748 0.574271
vt 0.047768 0.707781
vt 0.069224 0.719275
vt 0.004850 0.709112
vt 0.034118 0.719275
vt 0.281915 0.942971
vt 0.192681 0.941803
vt 0.298501 0.942971
vt 0.287543 0.937666
vt 0.982804 0.677719
vt 0.982804 0.806808
vt 0.978395 0.680205
vt 0.602369 0.951813
vt 0.598930 0.940346
vt 0.634480 0.943866
vt 0.535910 0.947067
vt 0.527020 0.827144
vt 0.490739 0.828416
vt 0.482804 0.951813
vt 0.492504 0.171785
vt 0.496914 0.232095
vt 0.496914 0.141910
vt 0.493046 0.160255
vt 0.573898 0.081961
vt 0.570988 0.144493
vt 0.575360 0.147598
vt 0.575022 0.083319
vt 0.584215 0.080902
vt 0.584215 0.207339
vt 0.315256 0.778515
vt 0.342593 0.778515
vt 0.338318 0.769673
vt 0.571869 0.987823
vt 0.578924 0.970198
vt 0.578924 0.996905
vt 0.578188 0.968612
vt 0.831129 0.873348
vt 0.851852 0.863395
vt 0.846368 0.874889
vt 0.985450 0.874889
vt 0.018959 0.424845
vt 0.017196 0.424485
vt 0.018959 0.386826
vt 0.027872 0.829797
vt 0.045022 0.830607
vt 0.105379 0.830681
vt 0.025132 0.830681
vt 0.857584 0.446065
vt 0.857584 0.513263
vt 0.856702 0.446431
vt 0.651421 0.948276
vt 0.650353 0.949160
vt 0.665344 0.949160
vt 0.916667 0.157825
vt 0.916667 0.423961
vt 0.891975 0.415921
vt 0.007496 0.904067
vt 0.127133 0.822723
vt 0.018154 0.871686
vt 0.244709 0.904067
vt 0.573917 0.672310
vt 0.411205 0.750221
vt 0.584215 0.675095
vt 0.362118 0.657383
vt 0.239418 0.750221
vt 0.307572 0.670189
vt 0.840829 0.577218
vt 0.921958 0.459328
vt 0.889663 0.686485
vt 0.921958 0.697171
vt 0.091957 0.622566
vt 0.146417 0.609637
vt 0.195424 0.703360
vt 0.023906 0.703360
vt 0.368166 0.627518
vt 0.357883 0.624707
vt 0.016314 0.638561
vt 0.701893 0.367001
vt 0.783510 0.271883
vt 0.783510 0.491949
vt 0.713958 0.287477
vt 0.774651 0.556469
vt 0.664986 0.611406
vt 0.709631 0.286198
vt 0.642416 0.386503
vt 0.999559 0.879310
vt 0.999559 0.999558
vt 0.900794 0.885363
vt 0.991101 0.993019
vt 0.009945 0.970686
vt 0.130071 0.987811
vt 0.065387 0.995382
vt 0.070499 0.964905
vt 0.069869 0.996021
vt 0.003086 0.970656
vt 0.003998 0.996021
vt 0.035380 0.963307
vt 0.975759 0.495579
vt 0.985450 0.560124
vt 0.954528 0.559518
vt 0.953894 0.555784
vt 0.953704 0.560124
vt 0.675906 0.893457
vt 0.710624 0.898264
vt 0.614076 0.908488
vt 0.609788 0.908026
vt 0.735009 0.908488
vt 0.610422 0.907220
vt 0.865520 0.755067
vt 0.869929 0.694110
vt 0.869929 0.758179
vt 0.868813 0.692750
vt 0.161176 0.596112
vt 0.109804 0.606379
vt 0.167788 0.596757
vt 0.247742 0.563538
vt 0.378748 0.620248
vt 0.234240 0.517764
vt 0.238922 0.515915
vt 0.112791 0.607408
vt 0.036394 0.620248
vt 0.030423 0.585500
vt 0.942240 0.556587
vt 0.942240 0.613174
vt 0.933421 0.581874
vt 0.933549 0.588797
vt 0.861111 0.392131
vt 0.861111 0.530946
vt 0.858466 0.441606
vt 0.971340 0.720159
vt 0.949295 0.692649
vt 0.971340 0.568081
vt 0.790678 0.198485
vt 0.842437 0.260395
vt 0.799734 0.191424
vt 0.690917 0.275420
vt 0.891093 0.275420
vt 0.230600 0.821839
vt 0.263339 0.830815
vt 0.237917 0.857206
vt 0.279101 0.857206
vt 0.364761 0.540671
vt 0.370893 0.540111
vt 0.307143 0.535367
vt 0.424603 0.542813
vt 0.264991 0.543324
vt 0.405995 0.543324
vt 0.430776 0.367769
vt 0.476631 0.383289
vt 0.444065 0.364721
vt 0.432257 0.383289
vt 0.697972 0.957118
vt 0.871792 0.957118
vt 0.889330 0.892365
vt 0.769956 0.889920
vt 0.555115 0.181698
vt 0.554233 0.177408
vt 0.555115 0.116269
vt 0.258397 0.944739
vt 0.197090 0.966843
vt 0.268519 0.966843
vt 0.849647 0.278957
vt 0.787037 0.293742
vt 0.849647 0.545807
vt 0.789541 0.561008
vt 0.872480 0.366490
vt 0.891093 0.295756
vt 0.891093 0.365018
vt 0.869048 0.303221
vt 0.073741 0.079431
vt 0.287037 0.111848
vt 0.027778 0.111848
vt 0.282884 0.057913
vt 0.514550 0.999558
vt 0.378858 0.990716
vt 0.376102 0.999558
vt 0.490741 0.407883
vt 0.490741 0.498232
vt 0.456349 0.418609
vt 0.470814 0.394783
vt 0.975750 0.828028
vt 0.955823 0.724580
vt 0.941358 0.748406
vt 0.975750 0.737681
usemtl baked
f 62/62 90/90 64/64
f 83/83 90/90 62/62
f 64/64 91/91 67/67
f 90/90 91/91 64/64
f 366/366 367/367 368/368
f 367/367 369/369 368/368
f 252/252 249/249 251/251
f 254/254 249/249 252/252
f 255/255 249/249 254/254
f 249/249 250/250 251/251
f 389/389 392/392 390/390
f 389/389 390/390 391/391
f 250/250 259/259 257/257
f 251/251 250/250 257/257
f 249/249 256/256 260/260
f 249/249 260/260 250/250
f 255/255 258/258 256/256
f 255/255 256/256 249/249
f 393/393 394/394 395/395
f 395/395 394/394 400/400
f 20/20 21/21 22/22
f 23/23 21/21 20/20
f 396/396 395/395 397/397
f 396/396 393/393 395/395
f 396/396 398/398 393/393
f 399/399 398/398 396/396
f 337/337 338/338 339/339
f 337/337 340/340 338/338
f 210/210 212/212 213/213
f 213/213 212/212 216/216
f 400/400 394/394 401/401
f 394/394 402/402 401/401
f 158/158 160/160 159/159
f 157/157 158/158 159/159
f 269/269 270/270 271/271
f 404/404 406/406 405/405
f 403/403 404/404 405/405
f 225/225 227/227 230/230
f 210/210 211/211 212/212
f 334/334 335/335 336/336
f 220/220 217/217 219/219
f 189/189 188/188 186/186
f 189/189 192/192 188/188
f 407/407 408/408 409/409
f 135/135 136/136 137/137
f 185/185 186/186 187/187
f 186/186 188/188 187/187
f 217/217 218/218 219/219
f 252/252 253/253 262/262
f 252/252 251/251 253/253
f 410/410 411/411 412/412
f 413/413 416/416 414/414
f 418/418 419/419 420/420
f 419/419 421/421 420/420
f 264/264 265/265 262/262
f 264/264 262/262 263/263
f 261/261 262/262 253/253
f 263/263 262/262 261/261
f 296/296 299/299 298/298
f 297/297 296/296 298/298
f 415/415 414/414 417/417
f 413/413 414/414 415/415
f 422/422 425/425 423/423
f 422/422 427/427 425/425
f 341/341 344/344 342/342
f 341/341 342/342 343/343
f 358/358 364/364 361/361
f 364/364 358/358 365/365
f 85/85 86/86 93/93
f 84/84 86/86 85/85
f 83/83 84/84 85/85
f 83/83 85/85 90/90
f 85/85 92/92 91/91
f 90/90 85/85 91/91
f 71/71 83/83 62/62
f 70/70 71/71 62/62
f 74/74 89/89 73/73
f 74/74 73/73 72/72
f 72/72 71/71 70/70
f 73/73 71/71 72/72
f 432/432 433/433 434/434
f 432/432 434/434 435/435
f 89/89 88/88 73/73
f 73/73 88/88 87/87
f 71/71 82/82 83/83
f 82/82 84/84 83/83
f 87/87 82/82 71/71
f 73/73 87/87 71/71
f 351/351 352/352 353/353
f 354/354 351/351 353/353
f 344/344 346/346 345/345
f 344/344 345/345 342/342
f 353/353 352/352 355/355
f 355/355 352/352 356/356
f 349/349 348/348 350/350
f 347/347 348/348 349/349
f 378/378 379/379 380/380
f 357/357 351/351 354/354
f 123/123 125/125 124/124
f 122/122 123/123 124/124
f 235/235 231/231 233/233
f 327/327 325/325 324/324
f 436/436 437/437 438/438
f 439/439 440/440 441/441
f 388/388 383/383 386/386
f 383/383 384/384 385/385
f 384/384 387/387 385/385
f 383/383 385/385 386/386
f 362/362 358/358 360/360
f 363/363 358/358 362/362
f 361/361 359/359 358/358
f 358/358 359/359 360/360
f 110/110 108/108 107/107
f 107/107 108/108 109/109
f 4/4 1/1 3/3
f 5/5 4/4 3/3
f 281/281 280/280 276/276
f 280/280 277/277 276/276
f 177/177 178/178 179/179
f 177/177 179/179 180/180
f 371/371 374/374 372/372
f 370/370 371/371 372/372
f 370/370 377/377 373/373
f 370/370 373/373 371/371
f 381/381 378/378 380/380
f 381/381 380/380 382/382
f 164/164 162/162 161/161
f 161/161 162/162 163/163
f 87/87 80/80 78/78
f 78/78 82/82 87/87
f 375/375 370/370 372/372
f 376/376 375/375 372/372
f 277/277 279/279 278/278
f 276/276 277/277 278/278
f 101/101 99/99 98/98
f 102/102 99/99 101/101
f 443/443 445/445 444/444
f 442/442 443/443 444/444
f 116/116 115/115 117/117
f 115/115 118/118 117/117
f 446/446 447/447 448/448
f 446/446 449/449 447/447
f 16/16 17/17 18/18
f 19/19 18/18 17/17
f 42/42 39/39 41/41
f 39/39 40/40 41/41
f 114/114 115/115 116/116
f 119/119 115/115 114/114
f 6/6 7/7 4/4
f 6/6 4/4 5/5
f 51/51 52/52 53/53
f 53/53 52/52 54/54
f 59/59 60/60 53/53
f 56/56 59/59 53/53
f 56/56 53/53 55/55
f 55/55 53/53 54/54
f 58/58 47/47 51/51
f 47/47 48/48 51/51
f 51/51 48/48 57/57
f 51/51 57/57 52/52
f 450/450 451/451 452/452
f 451/451 450/450 453/453
f 273/273 270/270 275/275
f 271/271 270/270 273/273
f 272/272 270/270 269/269
f 176/176 173/173 175/175
f 328/328 329/329 330/330
f 454/454 455/455 456/456
f 142/142 144/144 145/145
f 146/146 142/142 145/145
f 142/142 147/147 143/143
f 142/142 143/143 144/144
f 167/167 168/168 165/165
f 150/150 149/149 155/155
f 422/422 423/423 424/424
f 426/426 422/422 424/424
f 31/31 32/32 33/33
f 34/34 31/31 33/33
f 165/165 166/166 167/167
f 156/156 149/149 150/150
f 104/104 105/105 103/103
f 104/104 103/103 99/99
f 307/307 304/304 306/306
f 304/304 305/305 306/306
f 99/99 103/103 100/100
f 98/98 99/99 100/100
f 152/152 149/149 151/151
f 151/151 149/149 148/148
f 148/148 149/149 150/150
f 148/148 150/150 153/153
f 153/153 150/150 154/154
f 331/331 332/332 333/333
f 313/313 316/316 314/314
f 106/106 105/105 104/104
f 233/233 232/232 236/236
f 237/237 233/233 236/236
f 171/171 170/170 172/172
f 76/76 74/74 75/75
f 75/75 74/74 72/72
f 460/460 457/457 459/459
f 457/457 458/458 459/459
f 461/461 464/464 462/462
f 461/461 462/462 463/463
f 169/169 170/170 171/171
f 129/129 134/134 133/133
f 129/129 133/133 130/130
f 28/28 29/29 30/30
f 48/48 47/47 46/46
f 45/45 46/46 47/47
f 45/45 49/49 46/46
f 49/49 50/50 46/46
f 138/138 141/141 139/139
f 138/138 139/139 140/140
f 296/296 297/297 294/294
f 318/318 320/320 319/319
f 182/182 181/181 184/184
f 181/181 182/182 183/183
f 308/308 306/306 309/309
f 113/113 112/112 109/109
f 112/112 111/111 109/109
f 300/300 301/301 302/302
f 300/300 302/302 303/303
f 63/63 64/64 65/65
f 63/63 62/62 64/64
f 61/61 70/70 62/62
f 61/61 62/62 63/63
f 284/284 283/283 285/285
f 282/282 283/283 284/284
f 307/307 306/306 308/308
f 129/129 130/130 131/131
f 132/132 129/129 131/131
f 317/317 318/318 319/319
f 9/9 10/10 11/11
f 65/65 64/64 66/66
f 3/3 2/2 8/8
f 64/64 67/67 66/66
f 109/109 111/111 107/107
f 293/293 296/296 294/294
f 67/67 68/68 66/66
f 66/66 68/68 69/69
f 1/1 2/2 3/3
f 431/431 429/429 428/428
f 428/428 429/429 430/430
f 208/208 205/205 207/207
f 205/205 204/204 207/207
f 209/209 205/205 208/208
f 313/313 314/314 315/315
f 310/310 311/311 312/312
f 204/204 205/205 206/206
f 324/324 325/325 326/326
f 321/321 322/322 323/323
f 266/266 267/267 268/268
f 293/293 294/294 295/295
f 68/68 77/77 69/69
f 238/238 239/239 240/240
f 219/219 218/218 221/221
f 234/234 232/232 231/231
f 231/231 232/232 233/233
f 198/198 197/197 199/199
f 198/198 199/199 201/201
f 199/199 200/200 201/201
f 201/201 202/202 203/203
f 200/200 202/202 201/201
f 24/24 25/25 26/26
f 24/24 26/26 27/27
f 191/191 190/190 186/186
f 186/186 190/190 189/189
f 38/38 37/37 36/36
f 35/35 36/36 37/37
f 94/94 95/95 96/96
f 97/97 94/94 96/96
f 192/192 194/194 200/200
f 199/199 192/192 200/200
f 192/192 189/189 193/193
f 192/192 193/193 194/194
f 214/214 211/211 210/210
f 214/214 210/210 215/215
f 193/193 190/190 195/195
f 189/189 190/190 193/193
f 119/119 120/120 115/115
f 115/115 120/120 121/121
f 196/196 197/197 198/198
f 12/12 13/13 14/14
f 15/15 13/13 12/12
f 288/288 287/287 289/289
f 286/286 287/287 288/288
f 241/241 242/242 243/243
f 241/241 244/244 242/242
f 44/44 43/43 39/39
f 39/39 43/43 40/40
f 126/126 127/127 128/128
f 222/222 223/223 224/224
f 247/247 246/246 248/248
f 80/80 81/81 78/78
f 245/245 246/246 247/247
f 290/290 291/291 292/292
f 78/78 79/79 80/80
f 274/274 275/275 270/270
f 225/225 228/228 226/226
f 225/225 226/226 227/227
f 227/227 226/226 229/229
f 173/173 174/174 175/175
