v -0.431037 0.026926 -0.451455 0.0024 0.2571 0.3704
v -0.575478 0.031193 -0.149994 0.0014 0.2572 0.3736
v -0.578841 0.031230 -0.124152 0.0000 0.2436 0.3526
v -0.578199 0.039870 0.023857 0.0000 0.2487 0.3658
v -0.502230 0.156905 0.190935 0.0000 0.2497 0.3655
v -0.433727 0.055129 0.355015 0.0000 0.2380 0.3451
v -0.428197 0.314425 -0.339893 0.0000 0.2614 0.3804
v -0.530460 0.188927 -0.191515 0.0000 0.2616 0.3789
v -0.539735 0.190152 -0.123415 0.0000 0.2570 0.3818
v -0.446177 0.368396 0.185555 0.0000 0.2568 0.3808
v -0.430205 0.352128 0.221909 0.0000 0.2548 0.3707
v -0.429593 0.372802 -0.313710 0.0000 0.2650 0.3773
v -0.487014 0.375152 -0.174690 0.0000 0.2630 0.3797
v -0.491875 0.373686 -0.137117 0.0000 0.2568 0.3830
v -0.428403 0.406013 0.164965 0.0000 0.2536 0.3800
v -0.428755 0.399781 0.190451 0.0000 0.2582 0.3722
v -0.292953 0.020764 -0.562150 0.0064 0.2558 0.3612
v -0.354136 0.166856 -0.478236 0.0039 0.2506 0.3542
v -0.423039 0.014536 -0.290345 0.0017 0.2428 0.3449
v -0.279043 0.012374 -0.026882 0.0000 0.2401 0.3461
v -0.423761 0.013970 0.080835 0.0000 0.2369 0.3440
v -0.423031 0.181047 0.311113 0.0000 0.2382 0.3467
v -0.425138 0.081940 0.355342 0.0000 0.2443 0.3550
v -0.304515 0.049198 0.531034 0.0000 0.2397 0.3466
v -0.278800 0.187408 -0.531837 0.0000 0.2611 0.3799
v -0.394468 0.186816 -0.439561 0.0000 0.2623 0.3795
v -0.341929 0.356749 0.352154 0.0000 0.2532 0.3681
v -0.276121 0.356773 0.381877 0.0007 0.2500 0.3625
v -0.379381 0.373054 -0.382324 0.0000 0.2643 0.3811
v -0.391450 0.444546 -0.173395 0.0000 0.2670 0.3839
v -0.427283 0.435512 -0.116913 0.0000 0.2671 0.3899
v -0.402478 0.555430 0.025518 0.0004 0.2574 0.3822
v -0.268170 0.549642 0.273148 0.0017 0.2556 0.3750
v -0.267803 0.401724 0.359638 0.0091 0.2453 0.3618
v -0.284735 0.559409 -0.355371 0.0415 0.2711 0.4067
v -0.341579 0.595358 -0.159141 0.4241 0.3165 0.6097
v -0.351928 0.697376 0.014114 0.6067 0.3374 0.7095
v -0.348091 0.739884 0.050788 0.1662 0.2818 0.4744
v -0.276299 0.597033 0.189032 0.5009 0.3176 0.6501
v -0.312794 0.830734 -0.236892 0.8175 0.3435 0.8326
v -0.358511 0.900826 -0.013670 0.7688 0.3114 0.8248
v -0.348905 0.802017 0.052083 0.7206 0.2864 0.8000
v -0.277430 0.753315 0.191475 0.7628 0.3107 0.8105
v -0.353316 1.112639 -0.146458 0.7631 0.4638 0.8163
v -0.353873 1.105857 -0.142294 0.6283 0.2405 0.7817
v -0.351819 0.972004 0.049491 0.5895 0.2234 0.7541
v -0.268483 1.083969 0.211907 0.6310 0.2421 0.7634
v -0.355869 1.294881 -0.146593 0.7121 0.5716 0.8226
v -0.355913 1.283046 -0.145500 0.5222 0.1960 0.7371
v -0.359265 1.271455 0.022810 0.5217 0.1962 0.7234
v -0.268449 1.118790 0.212802 0.5055 0.1911 0.6990
v -0.267408 1.482638 -0.314662 0.5081 0.1755 0.7058
v -0.356684 1.372297 -0.147478 0.5341 0.2222 0.7247
v -0.357008 1.373898 -0.146181 0.4553 0.1668 0.6944
v -0.306622 1.306094 0.165247 0.4363 0.1592 0.6783
v -0.290497 1.337930 0.187876 0.4727 0.1740 0.6786
v -0.268546 1.514472 -0.313866 0.4995 0.1606 0.7071
v -0.359658 1.583206 -0.146830 0.4974 0.1637 0.7047
v -0.358961 1.494576 -0.143589 0.3167 0.1790 0.5951
v -0.307935 1.493603 0.167698 0.2559 0.1924 0.5499
v -0.290964 1.516461 0.191228 0.3587 0.1200 0.5472
v -0.269826 1.858150 -0.319095 0.5090 0.1748 0.7130
v -0.360915 1.691042 -0.146854 0.5016 0.1637 0.7037
v -0.361208 1.686855 -0.143914 0.0720 0.2403 0.4270
v -0.319019 1.681336 0.156403 0.1393 0.2159 0.4652
v -0.294782 1.777477 0.191331 0.3449 0.1038 0.5127
v -0.276060 2.032523 -0.313914 0.4629 0.3090 0.6677
v -0.364746 2.022393 -0.147478 0.1869 0.2267 0.4986
v -0.374421 1.874791 -0.057089 0.0000 0.2619 0.3785
v -0.367647 1.970975 0.024991 0.0877 0.2299 0.4240
v -0.297330 1.963439 0.191408 0.1748 0.2032 0.4698
v -0.267386 2.162033 -0.368414 0.0063 0.2607 0.3815
v -0.315941 2.087511 -0.260756 0.4176 0.1881 0.6073
v -0.383932 2.199801 -0.009206 0.2556 0.2334 0.5005
v -0.345634 2.180122 0.181903 0.1431 0.2713 0.4125
v -0.280573 2.178677 0.264831 0.0117 0.2605 0.3630
v -0.266147 0.020899 -0.573813 0.0008 0.2495 0.3513
v -0.256796 0.012708 -0.324847 0.0038 0.2443 0.3417
v -0.263604 0.012421 -0.242754 0.0000 0.2403 0.3417
v -0.111717 0.012051 -0.085682 0.0000 0.2362 0.3420
v -0.259290 0.012131 0.182964 0.0000 0.2353 0.3410
v -0.267083 0.011947 0.256100 0.0000 0.2338 0.3387
v -0.181988 0.000000 0.512920 0.0000 0.2420 0.3495
v -0.110140 0.082601 0.601220 0.0004 0.2443 0.3522
v -0.263610 0.198296 -0.535567 0.0000 0.2590 0.3783
v -0.267096 0.356033 0.414455 0.1389 0.2018 0.3020
v -0.198197 0.186789 0.628594 0.0021 0.2097 0.3174
v -0.109553 0.377652 -0.547878 0.0000 0.2597 0.3796
v -0.263507 0.392996 -0.479743 0.0000 0.2676 0.3848
v -0.139869 0.520337 0.353489 0.0062 0.2543 0.3719
v -0.203026 0.391322 0.442419 0.1540 0.2175 0.3204
v -0.151805 0.573331 -0.437361 0.5928 0.3484 0.6910
v -0.264277 0.595386 -0.299091 0.8518 0.3775 0.8311
v -0.110052 0.618739 0.314387 0.6477 0.3352 0.7278
v -0.107530 0.576066 0.359151 0.0049 0.2630 0.3797
v -0.257320 0.890787 -0.314504 0.8808 0.4358 0.7945
v -0.262471 0.931305 -0.308475 0.8612 0.3763 0.8395
v -0.179761 0.921802 0.287450 0.8156 0.3859 0.8100
v -0.259277 1.023466 -0.315110 0.6935 0.3599 0.6314
v -0.267001 1.023556 -0.304496 0.7674 0.5149 0.8170
v -0.200182 1.117976 0.274415 0.6885 0.3477 0.6856
v -0.258372 1.125212 -0.318784 0.8096 0.4689 0.7430
v -0.264688 1.153701 -0.310875 0.6791 0.4846 0.8333
v -0.258587 1.301754 0.230182 0.5237 0.1639 0.6244
v -0.267292 1.424394 -0.313371 0.8119 0.4311 0.7688
v -0.267275 1.377181 -0.312376 0.5386 0.1987 0.7229
v -0.258686 1.312607 0.230283 0.7681 0.3116 0.7289
v -0.261964 1.505560 -0.322473 0.8711 0.4733 0.7870
v -0.259783 1.511578 0.232746 0.6405 0.3328 0.6262
v -0.193614 1.683417 -0.379909 0.6518 0.4256 0.7582
v -0.244308 1.680196 0.247896 0.7349 0.4102 0.6837
v -0.107934 2.021623 -0.424237 0.6032 0.4602 0.7258
v -0.259831 1.868643 0.237971 0.5604 0.2555 0.6643
v -0.216899 2.088625 -0.369067 0.4929 0.2282 0.6692
v -0.258042 2.199741 -0.294476 0.5460 0.2811 0.6630
v -0.121672 2.195132 0.012338 0.3557 0.2146 0.5544
v -0.264900 2.198346 0.060992 0.6318 0.3341 0.6891
v -0.267005 2.180122 0.275304 0.3642 0.2126 0.5873
v -0.118022 2.107810 0.363740 0.0105 0.2534 0.3693
v 0.002541 0.151285 -0.618608 0.0000 0.2505 0.3554
v -0.102600 0.012460 -0.359553 0.0002 0.2432 0.3395
v -0.077450 0.012023 -0.152336 0.0000 0.2365 0.3384
v 0.024982 0.012040 0.014504 0.0000 0.2353 0.3401
v 0.025918 0.011972 0.130483 0.0000 0.2353 0.3409
v -0.002602 0.011916 0.190416 0.0000 0.2345 0.3388
v 0.053036 0.011224 0.512111 0.0000 0.2348 0.3384
v -0.097827 0.074642 0.600986 0.0005 0.2357 0.3371
v -0.077287 0.336489 -0.562386 0.0000 0.2576 0.3775
v 0.043997 0.370690 0.491245 0.4211 0.1137 0.1906
v -0.095061 0.287612 0.569658 0.0035 0.2214 0.3243
v -0.035486 0.394800 -0.553069 0.0000 0.2574 0.3774
v -0.106555 0.437590 -0.478408 0.0000 0.2655 0.3833
v -0.102233 0.441755 0.364259 0.5740 0.1125 0.1823
v -0.069915 0.563749 -0.466838 0.6463 0.3545 0.7060
v -0.055436 0.597033 0.328472 0.6819 0.3478 0.7416
v -0.105515 0.579011 0.356050 0.0055 0.2639 0.3821
v 0.046178 0.753315 -0.422239 0.8845 0.4430 0.8042
v 0.048313 0.925154 0.335385 0.8579 0.4262 0.8183
v 0.035109 0.939082 -0.426599 0.8114 0.4593 0.7238
v 0.051013 0.960483 0.335490 0.5583 0.2026 0.6527
v 0.035036 1.131001 -0.429337 0.7426 0.3824 0.6807
v -0.102160 1.122679 0.325524 0.4589 0.1422 0.5812
v 0.042429 1.306094 -0.430618 0.7320 0.3517 0.6737
v -0.061983 1.306094 0.337262 0.7564 0.4500 0.7127
v 0.051083 1.520574 -0.432201 0.8417 0.4490 0.7597
v -0.084737 1.675279 0.338393 0.8024 0.4794 0.7684
v -0.106294 1.825954 -0.422684 0.7995 0.4413 0.7365
v -0.092217 1.748897 0.338009 0.6209 0.2772 0.6890
v -0.094648 1.878410 -0.428269 0.7113 0.3478 0.7549
v -0.073151 1.871537 0.342172 0.5056 0.1702 0.6844
v 0.002726 2.043917 0.354728 0.4758 0.1503 0.6837
v 0.053504 2.079552 -0.437838 0.6117 0.2461 0.6835
v -0.053956 2.194619 -0.153714 0.3236 0.2327 0.4875
v 0.041035 2.192693 -0.110059 0.0120 0.2446 0.3912
v -0.028630 2.192685 0.020984 0.6670 0.3436 0.7259
v -0.044216 2.199967 0.352721 0.5722 0.2468 0.6976
v -0.023954 2.200000 0.355312 0.1702 0.2172 0.4726
v 0.141412 0.179153 -0.592600 0.0000 0.2453 0.3463
v 0.060887 0.012348 -0.352647 0.0000 0.2402 0.3382
v 0.181222 0.012065 -0.149907 0.0000 0.2368 0.3385
v 0.214497 0.012155 -0.061790 0.0000 0.2349 0.3395
v 0.059586 0.011945 0.136486 0.0000 0.2347 0.3399
v 0.076881 0.011927 0.193332 0.0000 0.2350 0.3404
v 0.084830 0.011527 0.363817 0.0000 0.2358 0.3379
v 0.055297 0.099242 0.601566 0.0003 0.2381 0.3417
v 0.056430 0.226383 -0.592625 0.0000 0.2584 0.3773
v 0.125436 0.355783 0.483940 0.1120 0.1932 0.2932
v 0.092310 0.281242 0.574029 0.0038 0.2270 0.3322
v 0.111106 0.377095 -0.548135 0.0000 0.2588 0.3788
v 0.099791 0.445313 -0.461576 0.0000 0.2642 0.3824
v 0.173477 0.444181 0.338470 0.0206 0.2756 0.3813
v 0.133419 0.449385 0.358323 0.3455 0.2472 0.2873
v 0.109506 0.597033 -0.407464 0.4713 0.3311 0.6232
v 0.185779 0.724194 0.286399 0.3650 0.3066 0.5767
v 0.061141 0.563749 0.375791 0.0067 0.2674 0.3821
v 0.211169 0.930436 -0.360728 0.8756 0.4238 0.8165
v 0.092310 0.925517 0.329151 0.7859 0.3256 0.8228
v 0.200526 1.111143 -0.373001 0.8313 0.4762 0.7967
v 0.098770 0.959342 0.328656 0.5623 0.2148 0.7409
v 0.206351 1.299220 -0.371499 0.5806 0.2954 0.6097
v 0.135391 1.120576 0.315080 0.4681 0.1664 0.6774
v 0.211885 1.487340 -0.370267 0.5490 0.2892 0.5675
v 0.214108 1.484897 0.276979 0.4194 0.1735 0.6072
v 0.212371 1.668206 -0.372807 0.7351 0.3820 0.6950
v 0.209959 1.525913 0.281091 0.6980 0.5321 0.7239
v 0.214224 1.860321 -0.374120 0.8089 0.4408 0.7400
v 0.131960 1.681564 0.324283 0.2749 0.1724 0.5381
v 0.053994 2.032883 -0.437410 0.6863 0.3069 0.7615
v 0.192276 1.878952 0.300070 0.2619 0.1939 0.5380
v 0.150910 2.087511 -0.410750 0.0836 0.1614 0.3479
v 0.061141 2.194561 -0.149584 0.2114 0.2235 0.4330
v 0.057400 2.179711 -0.050936 0.6148 0.3333 0.6792
v 0.198181 2.196808 0.089880 0.6142 0.3295 0.6830
v 0.128779 2.199350 0.282422 0.3930 0.2736 0.5867
v 0.143348 2.180050 0.355627 0.0191 0.2391 0.3556
v 0.215150 0.131631 -0.574924 0.0000 0.2516 0.3570
v 0.350208 0.184950 -0.476577 0.0003 0.2436 0.3427
v 0.226654 0.012180 -0.225066 0.0008 0.2411 0.3386
v 0.365361 0.013022 0.001546 0.0000 0.2371 0.3394
v 0.335437 0.012708 0.025842 0.0000 0.2385 0.3418
v 0.223440 0.011558 0.339074 0.0008 0.2408 0.3420
v 0.227589 0.011483 0.363089 0.0001 0.2436 0.3520
v 0.253760 0.137439 0.521841 0.0000 0.2431 0.3492
v 0.216213 0.216233 -0.551897 0.0000 0.2589 0.3780
v 0.310535 0.277486 -0.479432 0.0000 0.2609 0.3792
v 0.366999 0.355016 0.351812 0.0018 0.2557 0.3682
v 0.272912 0.272890 0.519885 0.0028 0.2486 0.3647
v 0.272917 0.269996 0.522477 0.0001 0.2418 0.3534
v 0.248701 0.390188 -0.491675 0.0000 0.2607 0.3812
v 0.274344 0.444437 -0.367773 0.0000 0.2648 0.3820
v 0.364710 0.445863 -0.249133 0.0000 0.2702 0.3873
v 0.367855 0.444557 0.151863 0.0014 0.2635 0.3817
v 0.301774 0.444530 0.246460 0.1214 0.3308 0.3749
v 0.249594 0.410211 0.378426 0.1477 0.3259 0.3538
v 0.288474 0.560855 -0.356363 0.5945 0.3484 0.6937
v 0.368077 0.561941 -0.245155 0.5897 0.3404 0.6967
v 0.361690 0.739477 -0.098842 0.5152 0.3099 0.6659
v 0.351897 0.563942 0.178979 0.6010 0.3237 0.7104
v 0.311329 0.561578 0.233805 0.5276 0.3224 0.6678
v 0.262842 0.792387 -0.315741 0.8467 0.3647 0.8343
v 0.340651 0.904036 -0.190637 0.8416 0.3605 0.8382
v 0.357919 0.890787 -0.146181 0.8013 0.3360 0.8318
v 0.335552 0.928694 0.112166 0.7910 0.3299 0.8288
v 0.287644 0.816624 0.191299 0.7843 0.3248 0.8239
v 0.266083 1.029704 -0.317676 0.7513 0.3034 0.8118
v 0.345101 0.933339 -0.180628 0.7072 0.2827 0.8089
v 0.373706 1.107033 -0.041217 0.6596 0.2622 0.7985
v 0.359197 0.988464 0.054674 0.5809 0.2282 0.7628
v 0.288932 0.934922 0.192273 0.5949 0.2305 0.7622
v 0.271007 1.133894 -0.313700 0.6937 0.3278 0.7682
v 0.363513 1.238710 -0.146894 0.6406 0.2502 0.7785
v 0.368194 1.216016 0.015215 0.5806 0.2301 0.7709
v 0.330948 1.128011 0.131853 0.5397 0.2115 0.7443
v 0.265886 1.131905 0.228553 0.5314 0.2052 0.7310
v 0.273315 1.306094 -0.315050 0.6615 0.2891 0.7125
v 0.362751 1.489847 -0.158499 0.7144 0.3027 0.7643
v 0.370746 1.433686 0.019212 0.5549 0.2196 0.7596
v 0.364037 1.306094 0.055971 0.4578 0.1888 0.6945
v 0.277386 1.306094 0.217201 0.4417 0.1878 0.6781
v 0.273135 1.494304 -0.319449 0.6927 0.3428 0.6317
v 0.334952 1.676362 -0.234858 0.6860 0.3060 0.7251
v 0.370765 1.492043 -0.118968 0.5025 0.2059 0.7225
v 0.344023 1.493400 0.113271 0.3811 0.1986 0.6415
v 0.269991 1.494556 0.231572 0.1374 0.2305 0.4728
v 0.280758 1.710911 -0.313896 0.6956 0.3496 0.6757
v 0.343466 1.858150 -0.219210 0.5648 0.2339 0.6698
v 0.369668 1.680797 -0.146084 0.4886 0.2027 0.7095
v 0.351092 1.682331 0.102032 0.1285 0.2432 0.4688
v 0.229778 1.678308 0.267300 0.0165 0.2556 0.3904
v 0.273965 1.866606 -0.325955 0.5832 0.2145 0.7362
v 0.355376 2.040889 -0.194648 0.4959 0.1979 0.7020
v 0.372177 1.891618 -0.146161 0.2677 0.2302 0.5537
v 0.374535 1.867557 0.032645 0.0007 0.2595 0.3792
v 0.307483 1.884753 0.188612 0.0000 0.2585 0.3728
v 0.276874 2.182508 -0.364076 0.4491 0.1894 0.6777
v 0.332776 2.087511 -0.249776 0.3185 0.2611 0.5517
v 0.374685 2.088280 -0.142698 0.4475 0.3099 0.5951
v 0.371394 2.180122 0.146680 0.2218 0.2830 0.4815
v 0.314242 2.199969 0.188147 0.0001 0.2576 0.3684
v 0.378415 0.079612 -0.487608 0.0000 0.2471 0.3451
v 0.522489 0.035625 -0.318260 0.0010 0.2481 0.3504
v 0.535943 0.175189 -0.188945 0.0011 0.2426 0.3399
v 0.397466 0.013426 0.017581 0.0071 0.2407 0.3374
v 0.499474 0.177738 0.185955 0.0061 0.2423 0.3439
v 0.476333 0.103741 0.271738 0.0017 0.2472 0.3542
v 0.416252 0.022734 0.448998 0.0010 0.2490 0.3642
v 0.479419 0.198276 -0.319115 0.0000 0.2624 0.3796
v 0.531369 0.186670 -0.192756 0.0000 0.2605 0.3797
v 0.535423 0.203180 -0.138897 0.0000 0.2544 0.3785
v 0.481962 0.239699 0.187565 0.0000 0.2548 0.3784
v 0.473038 0.230888 0.216947 0.0012 0.2558 0.3727
v 0.403034 0.230882 0.385031 0.0007 0.2518 0.3739
v 0.376049 0.417226 -0.321950 0.0000 0.2647 0.3809
v 0.392791 0.444627 -0.183762 0.0000 0.2640 0.3839
v 0.461792 0.413331 0.019687 0.0000 0.2614 0.3833
v 0.487220 0.373549 0.081631 0.0000 0.2626 0.3818
v 0.439783 0.394019 0.188147 0.0000 0.2564 0.3753
v 0.401169 0.572117 -0.147153 0.0013 0.2718 0.3913
v 0.382930 0.593819 -0.077537 0.0384 0.2570 0.4134
v 0.375466 0.563749 0.131800 0.0073 0.2683 0.3933
v 0.375775 1.277696 -0.037398 0.5532 0.2189 0.7601
v 0.375527 1.396174 -0.022752 0.5360 0.2109 0.7501
v 0.375463 1.497831 -0.082684 0.5390 0.2129 0.7516
v 0.381812 1.696803 -0.051584 0.3270 0.2278 0.5994
v 0.375550 1.842232 0.021632 0.0275 0.2627 0.4000
v 0.376866 1.868371 0.013758 0.1000 0.2506 0.4439
v 0.375836 1.936201 0.028068 0.0078 0.2623 0.3859
v 0.377207 2.157541 -0.225880 0.0071 0.2591 0.3759
v 0.412646 2.181635 -0.009443 0.0065 0.2581 0.3796
v 0.399750 2.174335 0.075017 0.0000 0.2629 0.3828
v 0.536981 0.173113 -0.187389 0.0097 0.2478 0.3465
v 0.539652 0.184554 -0.143457 0.0125 0.2417 0.3409
v 0.575743 0.051997 0.029537 0.0074 0.2474 0.3565
v 0.537381 0.036939 0.187868 0.0039 0.2549 0.3660
v 0.537356 0.188987 -0.152675 0.0000 0.2580 0.3815
v 0.539712 0.187247 -0.137444 0.0000 0.2574 0.3807
v 0.537019 0.206673 0.021758 0.0000 0.2565 0.3806
f 265 270 271
f 17 25 85
f 77 17 85
f 41 37 38
f 41 38 42
f 2 3 9
f 2 9 8
f 1 18 19
f 2 1 19
f 19 18 79
f 45 46 50
f 106 105 53
f 49 45 50
f 63 59 64
f 63 58 59
f 48 45 49
f 48 49 54
f 48 54 53
f 59 53 54
f 58 53 59
f 44 45 48
f 69 64 70
f 41 42 46
f 45 41 46
f 31 32 38
f 37 31 38
f 30 13 14
f 30 14 31
f 1 2 7
f 8 7 2
f 13 9 14
f 8 9 13
f 12 7 8
f 12 8 13
f 26 7 12
f 29 12 13
f 30 29 13
f 7 26 29
f 29 26 12
f 88 89 132
f 131 88 132
f 29 25 26
f 25 29 85
f 88 29 89
f 85 29 88
f 17 18 26
f 17 26 25
f 7 18 1
f 26 18 7
f 105 53 52
f 52 57 108
f 105 52 108
f 57 53 58
f 52 53 57
f 108 57 58
f 147 110 149
f 179 138 177
f 140 138 179
f 271 270 277
f 270 276 277
f 212 276 280
f 218 212 280
f 218 213 212
f 213 218 219
f 212 213 277
f 276 212 277
f 85 88 128
f 128 88 131
f 120 85 128
f 120 77 85
f 196 158 166
f 196 166 204
f 158 120 128
f 158 128 166
f 17 77 78
f 17 78 18
f 18 78 79
f 78 77 121
f 77 120 121
f 166 128 131
f 166 131 169
f 221 226 222
f 222 226 227
f 217 222 218
f 218 222 223
f 234 233 239
f 233 238 239
f 174 219 177
f 177 219 224
f 219 223 224
f 219 218 223
f 179 177 229
f 224 229 177
f 281 282 237
f 232 281 237
f 227 231 232
f 227 226 231
f 233 227 232
f 228 227 233
f 224 223 229
f 229 223 228
f 233 232 237
f 233 237 238
f 223 227 228
f 229 228 233
f 234 229 233
f 223 222 227
f 135 174 138
f 138 174 177
f 95 91 133
f 95 133 136
f 94 90 95
f 95 90 91
f 135 94 136
f 94 95 136
f 174 172 171
f 175 172 174
f 133 172 136
f 136 172 175
f 135 175 174
f 135 136 175
f 174 171 219
f 219 171 213
f 38 39 42
f 42 39 43
f 54 55 59
f 59 55 60
f 56 50 51
f 55 50 56
f 54 49 50
f 55 54 50
f 140 179 181
f 142 140 181
f 98 138 101
f 101 138 140
f 65 61 66
f 65 60 61
f 56 107 61
f 109 61 107
f 60 56 61
f 55 56 60
f 66 61 109
f 111 66 109
f 118 71 113
f 76 71 118
f 71 66 113
f 113 66 111
f 70 65 66
f 70 66 71
f 56 51 104
f 56 104 107
f 107 104 142
f 107 142 144
f 101 140 142
f 104 101 142
f 59 60 64
f 64 60 65
f 75 70 76
f 76 70 71
f 64 65 70
f 94 135 98
f 98 135 138
f 50 46 47
f 50 47 51
f 51 47 101
f 51 101 104
f 47 98 101
f 43 98 47
f 42 43 47
f 42 47 46
f 43 39 94
f 98 43 94
f 27 28 33
f 33 28 34
f 34 28 91
f 91 28 86
f 90 33 34
f 90 34 91
f 10 4 5
f 10 5 11
f 10 9 4
f 9 3 4
f 33 90 39
f 39 90 94
f 31 14 32
f 14 15 32
f 14 10 15
f 9 10 14
f 15 10 16
f 32 15 33
f 10 11 16
f 15 16 33
f 16 11 27
f 16 27 33
f 38 32 33
f 38 33 39
f 279 217 218
f 279 218 280
f 279 216 217
f 278 216 279
f 275 280 276
f 275 279 280
f 209 169 170
f 209 170 210
f 204 169 209
f 204 166 169
f 204 209 210
f 204 210 205
f 211 210 215
f 211 215 216
f 273 210 211
f 274 273 211
f 274 211 278
f 211 216 278
f 275 274 279
f 274 278 279
f 217 216 221
f 217 221 222
f 131 132 170
f 169 131 170
f 164 163 202
f 202 163 201
f 127 164 165
f 79 78 122
f 78 121 122
f 124 162 125
f 80 79 122
f 80 122 123
f 125 162 163
f 167 172 129
f 129 172 133
f 167 130 168
f 129 130 167
f 86 87 129
f 129 87 130
f 133 91 86
f 86 129 133
f 265 264 293
f 265 294 293
f 265 264 270
f 264 293 270
f 263 291 292
f 263 262 291
f 159 197 198
f 160 159 198
f 197 261 198
f 198 261 262
f 261 196 260
f 197 196 261
f 199 198 263
f 198 262 263
f 120 159 121
f 120 158 159
f 261 267 268
f 268 267 273
f 268 273 274
f 267 205 210
f 267 210 273
f 159 158 197
f 197 158 196
f 162 161 200
f 161 199 200
f 124 123 162
f 123 161 162
f 123 122 161
f 161 122 160
f 121 159 122
f 122 159 160
f 201 200 264
f 201 264 265
f 162 200 163
f 163 200 201
f 200 263 264
f 200 199 263
f 197 205 261
f 261 205 267
f 196 204 205
f 197 196 205
f 161 160 199
f 199 160 198
f 264 292 293
f 263 292 293
f 264 263 292
f 262 261 268
f 292 291 295
f 291 262 268
f 296 268 269
f 295 268 296
f 291 268 295
f 292 295 296
f 291 292 296
f 275 268 274
f 269 268 275
f 297 292 296
f 293 297 270
f 292 297 293
f 270 275 276
f 270 269 275
f 297 269 270
f 297 296 269
f 266 265 271
f 266 271 272
f 271 213 206
f 271 277 213
f 168 165 208
f 165 203 208
f 130 165 168
f 127 165 130
f 87 84 130
f 84 127 130
f 165 164 202
f 165 202 203
f 167 207 214
f 214 172 167
f 167 168 207
f 207 168 208
f 271 206 207
f 207 272 271
f 202 266 207
f 266 272 207
f 202 207 203
f 203 207 208
f 214 207 206
f 206 213 214
f 202 201 266
f 266 201 265
f 213 171 172
f 213 172 214
f 285 284 248
f 248 284 286
f 287 248 286
f 253 248 287
f 252 251 256
f 257 252 256
f 286 252 257
f 286 257 289
f 257 256 288
f 242 241 247
f 247 241 246
f 242 284 283
f 247 246 251
f 247 251 252
f 284 247 252
f 284 252 286
f 242 247 284
f 247 284 248
f 243 247 248
f 243 242 247
f 237 282 242
f 237 242 243
f 237 243 238
f 282 283 242
f 282 237 283
f 283 237 242
f 237 236 242
f 236 241 242
f 188 149 152
f 188 190 255
f 250 188 255
f 251 250 256
f 250 255 256
f 190 188 152
f 232 231 237
f 231 236 237
f 257 288 289
f 245 250 246
f 246 250 251
f 35 36 92
f 93 92 36
f 40 36 37
f 40 37 41
f 45 40 41
f 40 45 44
f 103 48 102
f 48 100 44
f 102 100 48
f 99 100 102
f 40 44 100
f 105 48 53
f 103 48 105
f 103 105 102
f 36 30 31
f 36 31 37
f 29 30 35
f 35 30 36
f 89 29 35
f 89 35 92
f 89 92 132
f 132 92 134
f 93 40 97
f 93 36 40
f 92 93 97
f 96 92 97
f 97 40 100
f 96 97 100
f 96 100 99
f 68 63 64
f 68 64 69
f 68 67 63
f 67 62 63
f 110 62 67
f 112 110 67
f 73 67 68
f 67 73 72
f 149 110 112
f 74 68 69
f 73 68 74
f 74 70 75
f 74 69 70
f 67 72 114
f 114 112 67
f 149 112 114
f 152 149 114
f 115 72 73
f 114 72 115
f 63 62 58
f 110 57 62
f 57 58 62
f 108 57 110
f 3 2 19
f 3 19 20
f 11 5 27
f 126 163 164
f 125 163 126
f 126 164 127
f 83 82 126
f 82 125 126
f 84 83 126
f 84 126 127
f 27 5 22
f 27 22 23
f 28 27 23
f 6 5 22
f 6 22 23
f 80 123 124
f 81 80 124
f 82 81 125
f 81 124 125
f 22 21 81
f 82 22 81
f 3 21 4
f 4 22 5
f 4 21 22
f 3 20 21
f 20 19 80
f 19 79 80
f 21 20 80
f 21 80 81
f 28 23 86
f 86 23 83
f 84 87 86
f 83 84 86
f 84 23 24
f 83 23 84
f 23 22 82
f 23 82 83
f 23 83 24
f 24 83 84
f 193 194 258
f 258 194 259
f 116 73 74
f 115 73 116
f 152 114 115
f 192 154 155
f 192 155 193
f 193 155 194
f 194 155 156
f 156 117 118
f 155 117 156
f 116 155 154
f 155 116 117
f 74 75 116
f 116 75 117
f 290 289 258
f 257 258 289
f 256 257 289
f 288 256 289
f 190 256 255
f 118 75 76
f 117 75 118
f 191 153 192
f 153 154 192
f 191 192 256
f 256 192 257
f 153 115 116
f 153 116 154
f 190 152 153
f 190 153 191
f 192 193 257
f 257 193 258
f 153 152 115
f 256 190 191
f 156 118 119
f 156 119 157
f 119 118 157
f 157 118 156
f 118 150 156
f 118 113 150
f 238 243 239
f 244 239 243
f 111 146 148
f 109 146 111
f 113 111 148
f 113 148 150
f 259 254 258
f 254 253 258
f 234 179 229
f 179 234 181
f 109 107 146
f 107 144 146
f 148 146 187
f 146 185 187
f 144 183 185
f 146 144 185
f 150 148 189
f 148 187 189
f 194 157 195
f 194 156 157
f 185 183 239
f 244 185 239
f 185 244 187
f 187 244 249
f 244 243 248
f 244 248 249
f 157 156 195
f 156 194 195
f 156 150 189
f 156 189 194
f 156 150 157
f 157 151 150
f 144 142 183
f 142 181 183
f 253 287 258
f 286 289 290
f 258 287 290
f 286 290 287
f 187 249 189
f 254 189 249
f 249 253 254
f 248 253 249
f 194 189 259
f 259 189 254
f 183 181 239
f 181 234 239
f 226 225 231
f 231 225 230
f 220 225 221
f 225 226 221
f 220 176 225
f 132 134 173
f 170 132 173
f 210 170 173
f 210 173 215
f 184 147 186
f 184 145 147
f 182 143 184
f 184 143 145
f 141 143 180
f 180 143 182
f 108 110 147
f 108 147 145
f 245 184 186
f 240 184 245
f 182 184 240
f 235 182 240
f 240 245 246
f 240 246 241
f 236 235 240
f 236 240 241
f 230 235 231
f 231 235 236
f 143 105 145
f 105 108 145
f 141 102 105
f 141 105 143
f 176 137 139
f 176 139 178
f 230 180 182
f 230 182 235
f 250 186 188
f 245 186 250
f 186 147 149
f 186 149 188
f 178 180 225
f 230 225 180
f 139 99 141
f 99 102 141
f 176 178 225
f 173 176 215
f 220 215 176
f 92 96 137
f 134 92 137
f 139 137 96
f 96 99 139
f 173 134 176
f 134 137 176
f 178 141 180
f 178 139 141
f 215 220 216
f 216 220 221
