v -11.548255 0.005131 -3.673778 0.5983 0.4349 0.0357
v -11.542729 0.124461 -2.987627 0.5878 0.4412 0.0246
v -11.544225 0.124461 -2.304843 0.4759 0.3620 0.0384
v -11.547631 0.003952 -1.623055 0.4042 0.3273 0.0904
v -11.543311 0.107384 -0.853503 0.3911 0.3063 0.0605
v -11.543061 0.117295 -0.084311 0.3641 0.2828 0.0301
v -11.545013 0.086776 0.644927 0.3059 0.2369 0.0303
v -11.547881 0.001989 1.116656 0.5494 0.4299 0.0645
v -11.545886 0.001989 1.415167 0.3871 0.3255 0.1346
v -11.542978 0.116608 2.096278 0.2501 0.2065 0.0420
v -11.544807 0.070720 2.876239 0.3476 0.2789 0.0329
v -11.542272 0.107777 3.550985 0.3959 0.3055 0.0392
v -11.546717 0.001989 4.327949 0.5381 0.4088 0.0498
v -11.547091 0.004345 4.974581 0.2435 0.1808 0.0079
v -11.041119 0.156858 5.693241 0.7712 0.5621 0.0000
v -12.153061 0.165025 -4.074040 0.7447 0.5215 0.0448
v -12.106863 0.165013 -3.568669 0.8043 0.5897 0.0161
v -12.139851 0.165037 -2.797179 0.8125 0.6061 0.0221
v -12.153061 0.165022 -1.635931 0.7696 0.5814 0.0561
v -12.021115 0.165022 -1.465657 0.6436 0.5022 0.0886
v -10.985656 0.191975 -0.436658 0.4955 0.4236 0.0685
v -11.005473 0.169461 -0.008842 0.4630 0.4098 0.0850
v -12.153061 0.165030 1.232916 0.7718 0.5913 0.0722
v -12.034285 0.165007 2.019760 0.7837 0.6081 0.0985
v -10.990725 0.190492 2.794341 0.3371 0.2915 0.0596
v -10.991806 0.190406 3.522034 0.2104 0.2048 0.0697
v -11.051213 0.165124 3.532486 0.6457 0.4948 0.0768
v -12.153061 0.165057 4.726518 0.7818 0.5858 0.0717
v -11.295538 0.165007 5.536807 0.7281 0.5333 0.0209
v -11.199652 1.004517 -4.302969 0.7699 0.5680 0.5601
v -13.239496 0.995980 -3.060576 0.5641 0.1315 0.3175
v -13.240327 0.983469 -2.303583 0.5875 0.1461 0.3123
v -13.239288 0.995098 -2.086641 0.6993 0.2253 0.3701
v -13.628687 0.968797 -0.911945 0.7015 0.2329 0.3825
v -13.628354 0.960162 -0.221590 0.3053 0.1655 0.2452
v -13.627606 0.965362 0.202583 0.1219 0.0671 0.1048
v -13.629227 0.968014 0.714509 0.1008 0.0521 0.0800
v -13.627025 0.980965 1.770860 0.3136 0.1246 0.2238
v -13.627648 0.978219 2.229131 0.1284 0.1200 0.1352
v -13.242362 1.002948 3.511255 0.1412 0.1438 0.1553
v -13.243443 1.002948 4.101330 0.4768 0.4903 0.4865
v -13.243110 1.003145 4.824638 0.4517 0.4570 0.4270
v -13.627606 0.991956 5.007376 0.3510 0.3294 0.2932
v -11.150173 1.023870 -3.707419 0.8127 0.6685 0.6107
v -11.289016 1.024604 -3.434979 0.7714 0.5958 0.5666
v -11.148512 1.023751 -2.742094 0.7436 0.5070 0.5148
v -11.070989 1.023638 -2.162724 0.7821 0.4777 0.5081
v -13.235217 1.025714 -1.099035 0.8311 0.6457 0.5965
v -13.235134 1.036705 -0.762689 0.4008 0.2715 0.3266
v -13.235051 1.041416 0.146164 0.3389 0.3166 0.3030
v -13.235591 1.026500 0.746468 0.6832 0.6106 0.4890
v -13.235508 1.036705 1.378169 0.6933 0.6045 0.5216
v -11.289016 1.012656 2.656301 0.5145 0.4146 0.3897
v -11.028115 1.011334 2.821112 0.5101 0.4578 0.4225
v -13.235342 1.041416 3.934422 0.7900 0.7624 0.6253
v -13.235175 1.028855 4.284227 0.8077 0.7859 0.6212
v -13.236505 1.029149 4.987194 0.8091 0.7861 0.6040
v -11.501974 1.194584 2.811221 0.2419 0.2126 0.2070
v -11.212865 1.194525 2.813932 0.2251 0.2031 0.2023
v -10.680262 0.000000 -4.041023 0.2138 0.1713 0.0339
v -10.754294 0.157850 -3.180616 0.1920 0.2134 0.1536
v -10.754294 0.157865 -2.254396 0.2803 0.2502 0.1391
v -8.286665 0.157808 -1.561510 0.2231 0.1893 0.0787
v -8.270172 0.157813 -0.929174 0.1949 0.1820 0.0876
v -8.237186 0.157773 -0.177444 0.3183 0.2693 0.0803
v -10.427711 0.157780 0.639463 0.3237 0.2851 0.0942
v -10.589362 0.157788 1.318053 0.3915 0.3947 0.2632
v -8.274285 0.157771 1.461421 0.0825 0.0852 0.0708
v -10.335316 0.157803 2.116461 0.2131 0.1884 0.0646
v -10.675110 0.157600 2.846335 0.1481 0.1425 0.0779
v -8.511006 0.157817 3.629187 0.3724 0.3269 0.1272
v -8.181101 0.157830 4.304399 0.1992 0.2151 0.1612
v -10.113010 0.115039 5.671120 0.2605 0.2583 0.1516
v -9.698769 0.122720 5.722235 0.7087 0.5169 0.0043
v -8.992634 0.165072 -4.296022 0.2946 0.2929 0.1172
v -8.286665 0.325828 -3.622494 0.0181 0.0915 0.0799
v -8.872279 0.300707 -0.117742 0.2597 0.3439 0.1652
v -8.869828 0.322296 0.022682 0.2715 0.2915 0.1153
v -9.197158 0.190406 2.795231 0.2458 0.2405 0.0924
v -10.648729 0.323473 2.885007 0.2740 0.2909 0.1748
v -8.748518 0.165064 4.116048 0.6631 0.5817 0.2611
v -10.609137 0.165128 5.668293 0.7553 0.5700 0.0176
v -8.774899 0.165215 5.777606 0.8108 0.6121 0.0014
v -8.525090 0.336874 -3.786564 0.0402 0.3606 0.3886
v -8.240468 0.486963 -3.621890 0.0453 0.2545 0.2852
v -8.886321 0.494029 -0.175760 0.3453 0.4875 0.4669
v -8.879342 0.435346 -0.048784 0.2465 0.4244 0.4130
v -10.595925 0.486105 2.896284 0.5000 0.5000 0.5000
v -8.528040 0.506002 -3.747775 0.0434 0.3545 0.3818
v -8.194270 0.527984 -3.621647 0.0531 0.2918 0.3295
v -8.891307 0.589219 -0.116894 0.4193 0.3417 0.3458
v -8.886570 0.593930 -0.052988 0.4347 0.4307 0.4117
v -10.404612 0.652025 2.899366 0.5000 0.5000 0.5000
v -8.480638 0.833375 -3.761234 0.0851 0.3300 0.3564
v -8.556955 0.819878 -3.563035 0.2865 0.4086 0.4308
v -8.897829 0.679329 -0.231417 0.2001 0.2950 0.3148
v -8.892968 0.682572 0.013735 0.1276 0.2640 0.2931
v -9.149964 0.810213 3.370841 0.5000 0.5000 0.5000
v -8.468091 1.004517 -4.310286 0.5861 0.6308 0.5547
v -8.155758 0.998921 -2.960836 0.5470 0.5582 0.5040
v -8.339427 0.999616 -2.311567 0.8182 0.7930 0.6304
v -8.537387 1.000605 -1.568245 0.8608 0.8299 0.6698
v -8.207481 0.999156 -1.453881 0.8710 0.8238 0.6639
v -8.836219 0.838753 -0.337203 0.5864 0.5897 0.4962
v -8.826912 0.838083 0.005867 0.1680 0.1838 0.1723
v -8.563769 1.000508 0.678570 0.4547 0.4418 0.3599
v -8.511006 1.000439 2.082819 0.8990 0.8611 0.7037
v -8.537387 1.000624 2.629383 0.4066 0.4056 0.3319
v -8.306441 0.999443 2.848019 0.3703 0.3710 0.3024
v -8.590149 1.000787 3.556873 0.9242 0.8916 0.7122
v -8.563769 1.000763 4.445671 0.9260 0.8928 0.7166
v -8.537387 1.000459 4.983826 0.9262 0.8922 0.7164
v -8.886238 1.014327 -3.668737 0.8973 0.8622 0.7155
v -8.181101 1.010968 -3.566148 0.8828 0.8526 0.7055
v -10.523887 1.021752 -2.295387 0.8857 0.8572 0.7057
v -10.656415 1.022014 -2.141715 0.8982 0.8670 0.7086
v -9.479246 1.016601 -0.929173 0.8883 0.8366 0.6915
v -8.632317 1.053633 -0.196779 0.5508 0.5551 0.4855
v -8.632566 1.091365 -0.066447 0.7600 0.7404 0.5696
v -8.517820 1.012681 1.371720 0.8499 0.8239 0.6293
v -9.655728 1.005572 1.798604 0.8793 0.8286 0.6693
v -10.777892 1.010548 2.521754 0.8802 0.8455 0.6690
v -9.634250 1.005528 2.912995 0.8781 0.8486 0.6673
v -9.701926 1.005763 3.540894 0.9015 0.8779 0.6973
v -10.065359 1.007500 4.445671 0.8955 0.8727 0.6812
v -10.714701 1.010493 4.983826 0.8792 0.8530 0.6523
v -8.635516 1.179587 -0.229574 0.0667 0.4889 0.4837
v -8.634270 1.180373 0.017642 0.0672 0.4886 0.4839
v -9.319258 1.194379 2.809982 0.3477 0.3268 0.2708
v -8.352638 1.194575 2.831193 0.3232 0.3268 0.2710
v -7.979858 0.041906 -4.167046 0.0330 0.0759 0.0814
v -5.433046 0.157835 -3.557317 0.1448 0.1651 0.1260
v -6.663557 0.157736 -2.251029 0.2331 0.2645 0.2113
v -6.610754 0.157605 -1.527042 0.2502 0.3042 0.2878
v -6.320481 0.157642 -0.848452 0.2063 0.2894 0.2895
v -6.096140 0.157630 -0.122782 0.1406 0.1803 0.1825
v -6.115915 0.157632 0.592373 0.1215 0.1429 0.1190
v -6.637176 0.164899 0.672682 0.3221 0.3597 0.2697
v -5.475919 0.157852 2.067687 0.2216 0.3028 0.2869
v -5.396736 0.157869 2.622658 0.0993 0.0969 0.0484
v -6.082929 0.157612 3.396266 0.2226 0.2230 0.1242
v -5.914673 0.157770 4.198454 0.1197 0.1535 0.1503
v -5.475089 0.157825 4.432211 0.0697 0.0956 0.1037
v -5.517173 0.157981 5.289908 0.3352 0.3525 0.2461
v -8.098219 0.158067 5.709707 0.5931 0.4353 0.0080
v -5.409946 0.255958 -4.325418 0.0310 0.2180 0.2364
v -7.270566 0.251640 -3.573953 0.0051 0.1161 0.1434
v -5.475919 0.499722 -4.320685 0.0228 0.2993 0.3282
v -7.989746 0.444864 -3.621223 0.0111 0.2456 0.2736
v -5.759628 0.557817 -4.320801 0.0546 0.3072 0.3313
v -7.908942 0.526022 -3.620853 0.0169 0.2558 0.2902
v -5.360467 0.765858 -4.321076 0.1481 0.3422 0.3590
v -8.022732 0.718828 -3.624262 0.2479 0.3491 0.3667
v -8.086171 0.833924 -0.018901 0.0078 0.1373 0.1778
v -6.707095 1.004490 -3.668737 0.2053 0.4162 0.4203
v -6.346862 1.002795 -3.579607 0.5631 0.5854 0.5075
v -6.197592 1.002038 -2.248508 0.7818 0.7619 0.6009
v -5.607865 0.999248 -1.517787 0.8091 0.7821 0.6161
v -5.555104 0.998877 -1.003171 0.8831 0.8425 0.6786
v -5.555104 0.998949 -0.774454 0.7972 0.7718 0.6084
v -7.422329 0.914580 0.012602 0.6557 0.6481 0.5063
v -5.373387 0.998148 1.243633 0.5942 0.5795 0.4584
v -5.571140 0.987154 2.084503 0.8955 0.8587 0.6938
v -5.439651 0.986351 2.639294 0.8768 0.8490 0.6663
v -5.383566 0.985953 2.822785 0.8926 0.8564 0.6650
v -8.138185 0.998738 3.604800 0.9079 0.8792 0.6943
v -5.614471 0.987418 4.388489 0.8995 0.8733 0.6798
v -7.229312 0.994707 4.988867 0.8192 0.7942 0.5997
v -8.154803 1.010985 -3.684314 0.1209 0.4032 0.4039
v -7.923773 1.009807 -3.559424 0.8131 0.8073 0.6832
v -8.138725 1.010877 -2.721794 0.8373 0.8110 0.6509
v -6.868081 1.005118 -1.511063 0.8935 0.8644 0.7032
v -6.901068 1.005160 -1.157890 0.8691 0.8423 0.6802
v -7.336539 1.007392 -0.068131 0.8518 0.8345 0.6712
v -7.485103 1.007950 -0.047947 0.8444 0.8304 0.6486
v -6.894503 1.005120 1.371445 0.8876 0.8621 0.6694
v -7.974998 1.010269 1.869531 0.8871 0.8587 0.6776
v -7.690749 1.008926 2.582303 0.8740 0.8469 0.6620
v -7.362961 1.014416 2.812174 0.8563 0.8295 0.6279
v -6.887898 1.005194 4.250585 0.8929 0.8717 0.6828
v -7.337661 1.007644 4.876589 0.8813 0.8619 0.6529
v -6.807052 1.005303 5.086150 0.6597 0.6430 0.4625
v -5.433046 1.178042 -4.326540 0.0273 0.3813 0.3935
v -7.884181 1.194463 2.808521 0.3875 0.3922 0.3181
v -7.566655 1.194572 2.822785 0.2223 0.2142 0.1959
v -3.121708 0.157763 -3.666429 0.0035 0.0979 0.1341
v -2.805387 0.157778 -3.007810 0.0312 0.0903 0.0830
v -2.782288 0.157766 -2.452838 0.2141 0.2000 0.0970
v -2.797161 0.157781 -2.200581 0.2339 0.3264 0.3150
v -2.586820 0.164862 -0.838361 0.2849 0.3783 0.3605
v -2.980248 0.164827 -0.745451 0.0384 0.0714 0.0712
v -5.033843 0.157860 0.648294 0.1423 0.1930 0.1746
v -3.087475 0.157857 1.320997 0.2832 0.3634 0.3302
v -4.900235 0.157790 2.089543 0.1970 0.2545 0.2321
v -3.208702 0.157884 2.803448 0.1096 0.1619 0.1556
v -4.873854 0.157872 3.491283 0.1640 0.2179 0.2113
v -2.797161 0.157775 4.250584 0.0928 0.1247 0.1254
v -4.513039 0.157840 4.926644 0.2971 0.3032 0.2594
v -2.797161 0.157869 5.306723 0.2497 0.1973 0.0255
v -5.040448 0.157877 5.811248 0.6620 0.4862 0.0039
v -4.517318 0.323082 -4.329760 0.0029 0.1613 0.1946
v -3.011864 0.165712 2.799679 0.4167 0.5095 0.4656
v -2.818598 0.324259 2.918649 0.4431 0.5009 0.4577
v -2.599201 0.488730 -4.330120 0.0158 0.2941 0.3136
v -2.811369 0.475875 2.925373 0.4022 0.4247 0.4219
v -5.176507 0.595764 -4.320505 0.0336 0.3040 0.3214
v -2.553044 0.620915 3.353602 0.3491 0.3633 0.3633
v -4.948344 0.754103 -4.329654 0.0385 0.3010 0.3291
v -2.589313 0.759577 3.345173 0.5471 0.6027 0.5903
v -4.476313 0.993877 -3.704052 0.0473 0.3526 0.3677
v -3.285394 0.988615 -3.660329 0.8152 0.8066 0.6576
v -5.159225 0.997036 -2.940546 0.8035 0.7823 0.6154
v -5.310987 0.997728 -1.544694 0.8831 0.8516 0.6970
v -5.304382 0.997725 -0.982999 0.8832 0.8278 0.7089
v -4.802937 0.983224 -0.128669 0.8614 0.8342 0.6772
v -5.229393 0.997552 0.496943 0.7973 0.7778 0.6165
v -5.182323 0.997181 1.243633 0.8083 0.7850 0.6257
v -4.079229 0.992137 1.477390 0.8912 0.8615 0.6871
v -2.879087 0.894879 2.807621 0.8038 0.7707 0.6081
v -2.607509 0.837693 3.137275 0.7815 0.7574 0.5795
v -2.945600 0.974806 3.537527 0.9096 0.8794 0.6997
v -4.348522 0.981279 4.586094 0.9045 0.8750 0.6936
v -3.389463 0.976756 4.981306 0.8306 0.8088 0.6037
v -3.243351 1.096076 -4.329103 0.0210 0.3563 0.3712
v -5.135960 1.006106 -2.392352 0.7608 0.6993 0.4889
v -5.190632 1.005377 0.779580 0.8614 0.8301 0.6170
v -2.732060 1.170971 2.794236 0.5309 0.4642 0.3719
v -2.709793 1.119922 2.812916 0.7350 0.7000 0.5404
v -5.185605 1.005303 5.085779 0.3255 0.3333 0.2850
v -2.546439 1.200000 -4.329738 0.0281 0.3656 0.3812
v -2.586031 1.178017 2.795835 0.3052 0.2881 0.2476
v -2.586031 1.190578 2.927767 0.3032 0.2919 0.2525
v -2.378183 0.157800 -3.682196 0.0036 0.0804 0.1068
v -1.939430 0.157833 -2.985954 0.0057 0.0227 0.0309
v -1.317548 0.157761 -2.461246 0.0319 0.0465 0.0456
v -2.088700 0.157810 -2.223073 0.0199 0.0466 0.0502
v -2.224758 0.164849 -0.822392 0.0181 0.0551 0.0669
v 0.277518 0.157573 -0.313664 0.0042 0.0587 0.0646
v 0.264307 0.157593 -0.008641 0.2161 0.2967 0.2736
v 0.277518 0.157531 0.767699 0.1515 0.1893 0.1721
v 0.277518 0.157573 1.535419 0.1913 0.2415 0.2210
v 0.277518 0.157578 2.175739 0.1863 0.2361 0.2116
v 0.251096 0.157555 3.511042 0.2533 0.2946 0.2391
v 0.277518 0.157588 3.618248 0.2124 0.2227 0.1921
v 0.251096 0.157874 4.839198 0.1618 0.1735 0.1587
v 0.251096 0.157627 5.273081 0.3377 0.2781 0.0539
v 0.240585 0.121934 5.803051 0.4455 0.3384 0.0296
v -0.425584 0.191130 -4.100768 0.0077 0.1721 0.1975
v 0.039966 0.165037 -3.545966 0.0182 0.0910 0.1183
v -0.916725 0.165082 2.799244 0.4410 0.5292 0.4816
v -1.279617 0.307086 2.890217 0.4073 0.4804 0.4347
v -0.314659 0.165104 5.772565 0.5000 0.5000 0.5000
v -0.408675 0.496580 -4.384114 0.0155 0.2698 0.2867
v -0.495171 0.427496 -3.640146 0.0197 0.1635 0.1941
v -1.279617 0.355317 2.892567 0.4149 0.4246 0.4215
v -0.263518 0.623270 -4.384008 0.0224 0.2363 0.2589
v -0.408675 0.502860 -3.592431 0.0307 0.2696 0.2938
v -2.245406 0.653458 3.354703 0.3231 0.3509 0.3552
v 0.291934 0.672866 -4.384008 0.0190 0.2530 0.2815
v -2.051725 0.745054 -3.656962 0.0253 0.1798 0.2051
v -2.506847 0.757222 3.344961 0.1005 0.3930 0.3941
v -2.333148 1.003734 -3.831864 0.0276 0.2327 0.2634
v -0.822709 1.000592 -3.561468 0.2178 0.3126 0.2994
v -2.457367 0.984500 -2.755552 0.3436 0.3770 0.3196
v -2.483748 0.984883 -2.210662 0.3063 0.3464 0.3114
v -1.409943 0.967433 -1.501808 0.3604 0.4795 0.4486
v -2.388071 0.984153 -0.391018 0.5929 0.6587 0.5754
v -2.452299 0.984386 -0.024397 0.7457 0.7441 0.6029
v -0.990965 0.977750 1.102362 0.7136 0.7063 0.5646
v -2.403857 0.984144 1.812900 0.5421 0.5977 0.5046
v -2.355084 0.903159 2.781264 0.4991 0.6306 0.5560
v -1.635904 0.863810 3.298231 0.4437 0.4993 0.4363
v -0.764962 0.964193 4.129497 0.6338 0.6062 0.5042
v 0.264307 0.934647 4.895438 0.7801 0.7529 0.6053
v -2.436304 0.972121 4.982990 0.9057 0.8811 0.7036
v -2.332235 1.107361 -3.789825 0.0197 0.3132 0.3403
v -1.178581 1.140385 -3.563331 0.0186 0.2656 0.2965
v 0.277518 1.102650 -2.773596 0.5000 0.5000 0.5000
v -0.223926 1.116538 -1.470697 0.5000 0.5000 0.5000
v 0.131447 1.172602 2.808309 0.5496 0.5143 0.4570
v -1.627762 1.114791 2.864729 0.4524 0.4190 0.3861
v 0.303899 1.112527 4.048775 0.5000 0.5000 0.5000
v 0.039966 1.116489 4.847606 0.5000 0.5000 0.5000
v -2.332401 1.178116 -3.831864 0.0238 0.3820 0.4051
v -1.279617 1.179587 -3.562992 0.0250 0.3084 0.3394
v -2.012008 1.178017 2.795560 0.2480 0.1909 0.2157
v -2.279224 1.181354 2.928497 0.1941 0.1530 0.1612
v 2.918347 0.109653 -4.010134 0.0035 0.1382 0.1812
v 2.857193 0.109532 -3.659037 0.0339 0.0290 0.0204
v 0.345942 0.157739 -2.275522 0.0847 0.0811 0.0496
v 0.350097 0.157751 -1.901330 0.0808 0.0791 0.0453
v 0.759146 0.157701 -1.469225 0.0457 0.0636 0.0644
v 1.597102 0.164842 -0.105130 0.0337 0.0569 0.0643
v 1.938557 0.164820 0.307215 0.0098 0.0188 0.0258
v 1.953389 0.164825 0.752779 0.0430 0.0574 0.0577
v 2.327831 0.164951 1.533735 0.0944 0.1068 0.0846
v 2.659523 0.124461 2.106369 0.1810 0.1962 0.1441
v 2.779878 0.121702 3.497171 0.1385 0.1477 0.1007
v 2.758317 0.121349 3.787686 0.2698 0.2294 0.0639
v 2.790140 0.122889 4.264043 0.0917 0.0965 0.0709
v 2.679174 0.121665 4.982142 0.2217 0.1961 0.0714
v 1.339774 0.121388 5.700251 0.2134 0.2215 0.1151
v 2.750091 0.325762 -4.384241 0.0123 0.2027 0.2355
v 2.520806 0.165267 -3.374431 0.0627 0.1871 0.1862
v 1.188011 0.165055 -2.792552 0.2942 0.2236 0.0596
v 2.362437 0.165077 -1.662415 0.2714 0.2210 0.0735
v 2.520806 0.165198 -1.204145 0.1833 0.1351 0.0518
v 2.355873 0.165032 -0.598091 0.1582 0.1109 0.0368
v 2.494425 0.165181 0.611296 0.1070 0.0702 0.0159
v 2.411959 0.165094 0.656279 0.2480 0.2011 0.0493
v 2.481214 0.165099 1.548030 0.4122 0.3282 0.1057
v 2.520806 0.165222 2.707584 0.3724 0.3073 0.1068
v 2.481214 0.165158 3.496959 0.3809 0.3116 0.0945
v 2.363268 0.165032 4.156414 0.6029 0.4734 0.0795
v 2.326169 0.165044 4.327949 0.5016 0.4801 0.2736
v 2.454833 0.165084 5.028809 0.5696 0.4812 0.1708
v 0.618932 0.165049 5.701088 0.6949 0.5062 0.0013
v 2.375649 0.447907 -4.384273 0.0270 0.2645 0.2840
v 0.330280 0.455756 -3.592008 0.0433 0.2739 0.2897
v 3.134421 0.620228 -4.329802 0.0155 0.3036 0.3219
v 0.330280 0.501783 -3.592050 0.0101 0.1979 0.2149
v 2.761640 0.824739 -4.384050 0.0096 0.2334 0.2583
v 0.484660 0.834159 -3.660329 0.0051 0.2153 0.2379
v 2.834219 0.929509 -3.838588 0.0249 0.2734 0.3050
v 2.824331 0.929509 -3.616606 0.1054 0.2598 0.2829
v 2.929896 0.917034 -2.826183 0.0992 0.2056 0.2214
v 2.565051 0.919199 -1.921470 0.0875 0.1836 0.1952
v 2.547187 0.919330 -0.798005 0.1455 0.2958 0.3078
v 3.131139 0.915774 -0.118578 0.2971 0.4818 0.4637
v 2.151307 0.973115 0.578798 0.3688 0.4970 0.4646
v 2.243703 0.933389 1.247000 0.2243 0.3439 0.3232
v 2.524919 0.919679 2.067687 0.3355 0.5105 0.4697
v 2.934009 0.916982 2.577252 0.5094 0.6621 0.5898
v 3.129477 0.915667 2.841284 0.4962 0.5690 0.5018
v 2.865543 0.917316 3.878924 0.4593 0.5149 0.4512
v 1.712845 0.924199 4.257309 0.2778 0.4633 0.4530
v 2.850712 1.083809 -4.329675 0.0272 0.3534 0.3798
v 2.154548 1.085940 -2.826395 0.5000 0.5000 0.5000
v 2.654746 1.104951 -1.427069 0.5000 0.5000 0.5000
v 2.560398 1.077586 0.618020 0.2219 0.2909 0.3076
v 2.648223 1.075168 0.660091 0.3320 0.4258 0.4086
v 2.412956 1.083102 2.808066 0.5015 0.4778 0.4274
v 2.842445 1.087734 2.916383 0.5546 0.5323 0.4676
v 2.164519 1.083809 4.094203 0.5000 0.5000 0.5000
v 2.611290 1.099590 4.864496 0.5000 0.5000 0.5000
v 3.470932 0.109703 -4.010134 0.0058 0.0759 0.1158
v 3.353403 0.109542 -3.663708 0.0030 0.0341 0.0641
v 4.734430 0.109851 -2.933812 0.0030 0.0343 0.0612
v 3.325775 0.109915 -2.220754 0.0051 0.0344 0.0578
v 3.393410 0.109735 -0.798005 0.0102 0.0402 0.0642
v 4.818974 0.109834 -0.101763 0.0099 0.0391 0.0627
v 4.544322 0.109653 -0.064361 0.0068 0.0168 0.0283
v 5.948448 0.109772 0.883736 0.0052 0.0160 0.0282
v 5.602049 0.109908 1.539622 0.0078 0.0285 0.0484
v 4.278768 0.109658 2.562119 0.0073 0.0317 0.0511
v 5.654852 0.109871 2.817744 0.0063 0.0321 0.0527
v 5.701009 0.109905 3.537526 0.0079 0.0324 0.0559
v 5.285354 0.109505 4.261131 0.0119 0.0337 0.0559
v 5.764530 0.297568 -4.383892 0.0042 0.1475 0.1890
v 4.331946 0.494029 -4.383998 0.0116 0.3089 0.3436
v 5.809897 0.596676 -4.329558 0.0117 0.3379 0.3642
v 5.608655 0.831803 -4.330014 0.0195 0.3379 0.3579
v 5.753812 0.913067 -3.747775 0.0349 0.3394 0.3592
v 5.719413 0.913344 -3.659990 0.3033 0.5103 0.5106
v 4.922462 0.917516 -2.927088 0.0999 0.2226 0.2296
v 5.793404 0.900608 -1.527879 0.1044 0.2048 0.2174
v 5.724938 0.900939 -0.845095 0.1264 0.3105 0.3361
v 5.087435 0.904281 -0.784546 0.0602 0.2535 0.2878
v 5.545590 0.902014 -0.064763 0.1880 0.3935 0.4127
v 4.159701 0.909881 1.343479 0.2657 0.4704 0.4691
v 5.771717 0.900739 1.627069 0.2841 0.5512 0.5337
v 5.907942 0.899918 2.094594 0.4533 0.6206 0.5659
v 5.181285 0.903744 2.814165 0.4489 0.6245 0.5732
v 5.793404 0.900405 3.712429 0.3862 0.6020 0.5771
v 5.263917 0.903502 4.253105 0.2962 0.5345 0.5364
v 5.377708 1.014233 -4.330225 0.0322 0.3861 0.4028
v 5.544136 1.076056 -2.819935 0.5000 0.5000 0.5000
v 5.476834 1.096726 -1.433952 0.5000 0.5000 0.5000
v 3.490708 1.077170 0.624755 0.1105 0.1197 0.1551
v 4.892757 1.056359 0.654818 0.1004 0.1129 0.1452
v 5.657719 1.077731 2.800442 0.4301 0.4151 0.3844
v 3.796476 1.083732 2.915303 0.4357 0.4209 0.3887
v 5.513102 1.091305 4.865280 0.5000 0.5000 0.5000
v 6.141423 0.109624 -4.100948 0.0052 0.0669 0.1010
v 6.242419 0.109535 -3.662130 0.0032 0.0306 0.0552
v 7.505169 0.109619 -2.335118 0.0038 0.0316 0.0539
v 7.271355 0.109871 -2.224121 0.0069 0.0276 0.0448
v 5.974829 0.109928 -1.500972 0.0077 0.0321 0.0521
v 8.208271 0.109841 -0.781189 0.0089 0.0363 0.0585
v 6.941449 0.109752 0.490208 0.0071 0.0282 0.0471
v 8.287413 0.109690 0.806381 0.0070 0.0146 0.0234
v 5.963280 0.109965 1.512715 0.0062 0.0221 0.0371
v 8.706391 0.118257 2.249313 0.0061 0.0294 0.0481
v 8.590939 0.109925 2.817744 0.0062 0.0291 0.0485
v 8.340217 0.109816 3.544250 0.0103 0.0288 0.0483
v 8.256338 0.109544 4.267263 0.0100 0.0304 0.0513
v 7.824938 0.328703 -4.383945 0.0020 0.1501 0.1977
v 6.410508 0.413069 -4.384083 0.0130 0.2982 0.3367
v 6.840828 0.586569 -4.329304 0.0251 0.3434 0.3674
v 6.193853 0.831217 -4.329664 0.0239 0.3568 0.3733
v 6.637924 0.907687 -3.704052 0.0448 0.3480 0.3619
v 6.226092 0.910351 -3.663696 0.1195 0.2675 0.2717
v 8.580843 0.999023 -2.841124 0.1667 0.2544 0.2471
v 6.453175 0.896564 -1.524511 0.2358 0.2796 0.2631
v 6.613330 0.895566 -1.461971 0.1580 0.3520 0.3450
v 7.876703 0.888124 -0.498234 0.1057 0.3209 0.3371
v 6.014338 0.899300 -0.061396 0.0888 0.2605 0.2823
v 8.630531 0.883912 1.364720 0.2628 0.4222 0.4109
v 8.157254 0.886643 1.990322 0.4329 0.5580 0.4930
v 8.610714 0.884006 2.097962 0.3078 0.4566 0.4201
v 8.775688 0.882881 2.854743 0.3913 0.5220 0.4828
v 8.616239 0.883778 3.547618 0.5010 0.6535 0.6187
v 8.664846 0.883739 4.321226 0.4543 0.5914 0.5430
v 6.061034 1.036068 -4.329876 0.0595 0.3429 0.3580
v 8.555169 1.026305 -3.438336 0.1329 0.2043 0.1920
v 6.347277 1.073634 -2.819172 0.1171 0.1326 0.1232
v 6.347609 1.094170 -1.433698 0.1664 0.2762 0.2613
v 8.551471 1.084459 -0.071456 0.3148 0.1048 0.2164
v 6.582337 1.073784 0.603068 0.1679 0.1497 0.1893
v 6.609341 1.055156 0.654850 0.0668 0.0925 0.1117
v 8.577478 1.063398 1.704794 0.2491 0.2597 0.2298
v 8.573490 1.056191 2.806785 0.3666 0.3658 0.2966
v 6.202453 1.079098 2.913725 0.2273 0.2692 0.2664
v 6.066436 1.090870 4.862378 0.5000 0.5000 0.5000
v 9.576835 0.129955 -3.721715 0.0028 0.1119 0.1540
v 9.579702 0.131132 -3.611142 0.0572 0.0736 0.0613
v 8.851050 0.109633 -2.363116 0.0682 0.1236 0.1148
v 9.059396 0.109905 -2.214030 0.0176 0.0861 0.1036
v 9.164961 0.109631 -1.460606 0.0064 0.0420 0.0584
v 8.913283 0.109495 -0.599287 0.0049 0.1360 0.1684
v 9.322499 0.108333 0.009234 0.0085 0.0623 0.0901
v 9.303513 0.109058 0.732384 0.0074 0.0394 0.0630
v 8.960437 0.117978 2.084502 0.0064 0.0487 0.0712
v 9.192672 0.123516 2.797561 0.0048 0.0351 0.0501
v 8.993423 0.118047 2.868191 0.0075 0.0362 0.0511
v 9.620208 0.112683 3.754256 0.0070 0.0209 0.0343
v 9.723903 0.116069 4.479301 0.0062 0.0518 0.0784
v 8.986818 0.240649 -4.330374 0.0190 0.1010 0.1248
v 9.347342 0.176792 -3.564465 0.0300 0.1092 0.1338
v 9.559428 0.255565 -2.247661 0.0837 0.1275 0.1070
v 9.560840 0.255565 -2.146756 0.0118 0.1519 0.1922
v 9.329894 0.175947 -1.369580 0.0083 0.1932 0.2446
v 9.421915 0.328577 -0.229575 0.0078 0.1744 0.2187
v 9.329894 0.176113 0.083232 0.0065 0.1523 0.1884
v 9.307127 0.175403 1.174686 0.0122 0.1051 0.1587
v 9.291673 0.175107 1.990745 0.0052 0.1662 0.2094
v 9.307252 0.175410 2.735762 0.0041 0.2667 0.3055
v 9.308374 0.175420 3.248165 0.0034 0.2212 0.2535
v 9.277132 0.174728 3.561077 0.0068 0.1060 0.1417
v 9.578165 0.325045 4.488747 0.0056 0.0516 0.0770
v 9.655479 0.337999 -4.171578 0.0103 0.2361 0.2848
v 9.423037 0.429359 -2.228961 0.0247 0.2680 0.3052
v 9.556852 0.485589 -1.918039 0.0204 0.2438 0.2891
v 9.556644 0.492213 -1.423088 0.0157 0.2436 0.2885
v 9.421708 0.498152 -0.189208 0.0160 0.2675 0.3006
v 9.375510 0.474990 -0.037856 0.0139 0.2084 0.2406
v 9.558223 0.438487 2.079875 0.0088 0.2616 0.3064
v 9.556395 0.500935 2.766979 0.0107 0.2490 0.2904
v 9.558306 0.494224 3.396573 0.0061 0.2688 0.3042
v 9.514643 0.473913 3.717141 0.0066 0.2403 0.2816
v 9.377379 0.499813 4.417503 0.5000 0.5000 0.5000
v 9.469691 0.559386 -4.373387 0.0493 0.2790 0.3192
v 9.365955 0.667856 -3.122173 0.0940 0.1804 0.2401
v 9.556146 0.622190 -2.227489 0.0990 0.2140 0.2707
v 9.556935 0.522636 -1.868852 0.0438 0.4107 0.4291
v 9.557060 0.572389 -1.431390 0.0529 0.4183 0.4309
v 9.421209 0.662304 -0.264572 0.0392 0.3904 0.4084
v 9.377337 0.614953 -0.042060 0.0568 0.2326 0.2608
v 9.555564 0.547609 2.086186 0.0292 0.3297 0.3655
v 9.555813 0.620326 2.613308 0.0500 0.3393 0.3684
v 9.558971 0.527591 3.429061 0.0355 0.2912 0.3146
v 9.514643 0.663014 3.717766 0.0133 0.1833 0.2209
v 9.376216 0.612771 4.401947 0.5000 0.5000 0.5000
v 9.652571 0.814531 -3.715827 0.0507 0.3037 0.3403
v 9.637906 0.808229 -3.586628 0.0908 0.1860 0.2448
v 9.635413 0.808496 -2.321659 0.0782 0.2070 0.2603
v 9.626315 0.804326 -2.052586 0.0607 0.4050 0.4178
v 9.467032 0.795690 -0.868635 0.0548 0.4029 0.4186
v 9.509990 0.817673 -0.081579 0.0499 0.3312 0.3503
v 9.512192 0.812962 0.638203 0.0385 0.2553 0.2834
v 9.514518 0.813550 1.357890 0.0583 0.3193 0.3478
v 9.512981 0.813355 2.025637 0.0601 0.3096 0.3390
v 9.580782 0.836469 2.314904 0.0494 0.3719 0.3931
v 9.573179 0.834158 3.207905 0.1459 0.3290 0.3222
v 9.036962 0.765858 4.196770 0.1353 0.2640 0.2581
v 9.038790 0.769783 4.320379 0.4738 0.4921 0.3878
v 9.837237 0.897019 -3.724235 0.0437 0.3032 0.3233
v 9.889251 0.892914 -3.007809 0.1284 0.2704 0.2760
v 9.908071 0.892840 -2.557110 0.2020 0.2943 0.2841
v 9.910522 0.892748 -2.084534 0.1447 0.2899 0.2935
v 9.910522 0.892652 -1.370639 0.1664 0.3827 0.3739
v 9.867565 0.892803 -0.394385 0.0883 0.3564 0.3725
v 9.869642 0.892961 0.515442 0.1061 0.1962 0.2242
v 9.824774 0.901676 0.696222 0.2474 0.4421 0.4269
v 9.823860 0.901676 1.410964 0.3014 0.4297 0.3894
v 9.825189 0.906384 2.289680 0.1562 0.3207 0.3207
v 9.824815 0.904814 2.854743 0.2232 0.3757 0.3699
v 9.725772 0.997500 3.962589 0.3609 0.4617 0.4075
v 9.704793 0.997011 4.358214 0.3708 0.4550 0.3895
v 9.382697 1.011977 -4.328192 0.0549 0.2941 0.3176
v 9.527854 1.087504 -3.533353 0.0342 0.1312 0.1534
v 8.828449 1.068653 -2.761535 0.1683 0.1752 0.1505
v 9.316683 1.079894 -2.092602 0.5000 0.5000 0.5000
v 8.788857 1.090196 -1.413525 0.2477 0.2648 0.2116
v 8.921094 1.079988 -0.071551 0.3531 0.1629 0.2531
v 8.868457 1.092460 -0.003928 0.1511 0.1815 0.2059
v 9.393747 1.062531 0.689169 0.2115 0.2252 0.2293
v 9.435459 1.087126 1.814583 0.3799 0.4169 0.3512
v 9.501473 1.087427 2.785373 0.0929 0.1172 0.1231
v 9.501473 1.087343 2.919486 0.1578 0.2115 0.2317
v 9.488262 1.087455 3.614044 0.5000 0.5000 0.5000
v 9.752112 1.004920 4.569533 0.5000 0.5000 0.5000
f 294 295 310
f 310 295 296
f 311 310 296
f 347 346 385
f 288 346 347
f 288 347 289
f 367 366 405
f 405 366 404
f 368 367 405
f 368 405 406
f 369 368 407
f 368 406 407
f 231 232 287
f 232 231 286
f 227 231 228
f 228 231 232
f 232 286 287
f 286 231 287
f 209 207 258
f 209 258 261
f 220 261 272
f 220 209 261
f 207 205 255
f 207 255 258
f 205 207 258
f 205 258 255
f 205 203 255
f 203 251 255
f 219 220 272
f 220 219 271
f 271 219 272
f 271 272 220
f 161 154 97
f 105 97 161
f 105 96 104
f 97 96 105
f 86 87 92
f 91 86 92
f 91 92 97
f 96 91 97
f 104 96 97
f 105 104 97
f 87 86 91
f 92 87 91
f 77 78 87
f 86 77 87
f 78 77 86
f 78 86 87
f 187 186 234
f 186 233 234
f 235 234 289
f 235 289 290
f 236 290 291
f 236 235 290
f 189 188 236
f 188 234 235
f 188 235 236
f 188 187 234
f 128 118 119
f 127 118 128
f 174 118 175
f 175 118 119
f 289 347 290
f 290 347 348
f 292 350 293
f 293 350 351
f 132 60 131
f 237 236 291
f 237 291 292
f 187 131 186
f 132 131 187
f 134 133 188
f 134 188 189
f 133 132 187
f 133 187 188
f 144 143 199
f 73 72 143
f 144 73 143
f 11 10 70
f 12 11 70
f 12 70 71
f 70 10 69
f 245 197 244
f 143 197 198
f 198 197 245
f 143 198 199
f 70 142 71
f 143 142 197
f 142 141 196
f 142 196 197
f 142 70 141
f 72 71 142
f 72 142 143
f 193 192 240
f 192 239 240
f 135 190 136
f 136 190 191
f 191 190 237
f 191 237 238
f 192 191 238
f 192 238 239
f 135 134 189
f 135 189 190
f 192 136 191
f 137 136 192
f 190 189 237
f 237 189 236
f 2 61 62
f 3 2 62
f 2 1 61
f 1 60 61
f 61 60 132
f 61 132 62
f 64 134 135
f 64 63 134
f 4 3 63
f 3 62 63
f 5 4 63
f 5 63 64
f 62 133 134
f 63 62 134
f 62 132 133
f 68 8 67
f 9 8 68
f 9 69 10
f 69 9 68
f 67 66 137
f 137 66 136
f 66 65 136
f 65 64 135
f 65 135 136
f 7 65 66
f 6 65 7
f 6 64 65
f 5 64 6
f 8 7 67
f 7 66 67
f 239 238 293
f 237 293 238
f 293 237 292
f 239 293 294
f 240 239 294
f 240 294 295
f 193 138 137
f 137 192 193
f 70 69 140
f 70 140 141
f 140 68 139
f 69 68 140
f 67 137 138
f 139 138 193
f 68 138 139
f 139 193 194
f 68 67 138
f 242 241 296
f 241 240 295
f 241 295 296
f 243 242 298
f 242 297 298
f 297 242 296
f 244 243 298
f 244 298 299
f 242 195 241
f 194 241 195
f 197 196 244
f 244 196 243
f 195 242 243
f 196 195 243
f 244 299 300
f 245 244 300
f 245 300 301
f 245 301 246
f 140 195 141
f 196 141 195
f 139 194 140
f 140 194 195
f 241 194 240
f 194 193 240
f 199 245 246
f 198 245 199
f 246 301 247
f 247 301 302
f 406 405 491
f 406 491 492
f 499 498 486
f 498 485 486
f 495 482 483
f 495 483 496
f 335 374 336
f 336 374 375
f 497 484 498
f 484 485 498
f 375 374 413
f 374 412 413
f 412 498 413
f 498 499 413
f 411 410 497
f 410 496 497
f 496 483 484
f 496 484 497
f 409 495 410
f 410 495 496
f 412 411 497
f 412 497 498
f 335 334 374
f 374 334 373
f 373 411 374
f 411 412 374
f 408 407 494
f 407 493 494
f 370 407 408
f 370 369 407
f 333 332 371
f 333 371 372
f 333 373 334
f 373 333 372
f 408 494 409
f 409 494 495
f 494 482 495
f 493 481 494
f 480 481 493
f 481 482 494
f 410 372 409
f 371 409 372
f 373 372 410
f 373 410 411
f 330 369 331
f 331 369 370
f 407 406 492
f 407 492 493
f 370 408 371
f 371 408 409
f 171 115 116
f 171 116 172
f 157 172 158
f 171 172 157
f 159 173 160
f 173 117 118
f 174 173 118
f 173 174 160
f 159 160 214
f 214 160 215
f 215 160 161
f 174 161 160
f 174 175 161
f 215 161 216
f 158 159 214
f 213 158 214
f 173 172 117
f 172 116 117
f 172 173 159
f 158 172 159
f 219 227 220
f 220 227 228
f 269 217 270
f 270 217 218
f 218 219 271
f 270 218 271
f 287 286 281
f 433 392 393
f 433 393 434
f 44 45 114
f 113 44 114
f 113 114 170
f 169 113 170
f 45 46 115
f 114 45 115
f 155 170 156
f 155 169 170
f 210 155 156
f 210 156 211
f 156 157 212
f 156 212 211
f 156 170 171
f 156 171 157
f 114 115 171
f 170 114 171
f 262 210 263
f 210 211 263
f 262 263 276
f 276 263 277
f 285 276 277
f 284 276 285
f 276 284 277
f 277 284 285
f 271 219 270
f 219 218 270
f 217 216 268
f 217 268 269
f 161 160 216
f 160 215 216
f 268 216 267
f 216 215 267
f 109 108 165
f 221 220 272
f 221 272 273
f 166 165 220
f 166 220 221
f 165 164 219
f 165 219 220
f 110 109 166
f 109 165 166
f 124 123 110
f 123 109 110
f 219 163 218
f 222 221 273
f 222 221 274
f 221 273 274
f 222 167 166
f 107 163 108
f 108 163 164
f 108 164 165
f 123 122 109
f 122 108 109
f 54 53 122
f 54 122 123
f 163 219 164
f 163 217 218
f 163 162 217
f 222 166 221
f 477 476 490
f 476 489 490
f 346 384 385
f 426 384 425
f 384 426 385
f 386 385 426
f 386 426 427
f 351 389 390
f 352 351 390
f 387 427 428
f 291 290 349
f 290 348 349
f 350 349 388
f 292 349 350
f 291 349 292
f 348 386 387
f 349 348 387
f 349 348 386
f 386 427 387
f 489 475 488
f 349 387 388
f 388 387 428
f 454 465 466
f 351 350 389
f 350 388 389
f 348 385 386
f 347 385 348
f 212 157 158
f 212 158 213
f 171 157 212
f 171 212 225
f 264 212 265
f 212 213 265
f 263 211 264
f 211 212 264
f 402 363 364
f 401 363 402
f 488 487 402
f 487 401 402
f 488 402 501
f 415 488 501
f 402 415 501
f 328 327 367
f 327 366 367
f 327 326 365
f 327 365 366
f 365 403 366
f 366 403 404
f 492 478 479
f 489 477 490
f 476 477 489
f 405 404 491
f 404 490 491
f 404 403 489
f 404 489 490
f 477 478 491
f 490 477 491
f 491 478 492
f 325 324 364
f 324 363 364
f 364 402 365
f 365 402 403
f 364 363 401
f 364 401 402
f 401 487 488
f 401 488 402
f 492 480 493
f 479 480 492
f 403 488 489
f 403 402 488
f 376 363 414
f 363 401 414
f 363 362 400
f 363 400 401
f 414 487 500
f 401 487 414
f 487 475 488
f 475 474 488
f 488 474 487
f 487 474 475
f 489 475 476
f 330 329 368
f 369 330 368
f 329 367 368
f 328 367 329
f 361 399 362
f 362 399 400
f 234 233 289
f 233 288 289
f 337 363 376
f 224 262 276
f 224 210 262
f 169 155 224
f 155 210 224
f 324 276 337
f 324 337 376
f 324 376 363
f 230 224 276
f 230 276 284
f 183 169 224
f 183 224 230
f 462 451 474
f 398 399 462
f 399 400 474
f 462 399 474
f 474 400 401
f 451 398 462
f 474 401 487
f 362 363 401
f 400 362 401
f 169 155 210
f 224 169 210
f 99 113 169
f 155 99 169
f 322 324 363
f 322 363 362
f 438 397 398
f 438 398 451
f 397 359 360
f 397 360 398
f 362 320 361
f 322 320 362
f 360 361 399
f 398 360 399
f 99 30 113
f 361 322 362
f 320 322 361
f 360 318 320
f 360 320 361
f 219 220 228
f 219 228 227
f 219 164 178
f 220 179 228
f 164 179 220
f 219 164 220
f 164 178 179
f 46 47 116
f 115 46 116
f 216 161 162
f 162 176 217
f 217 176 226
f 216 162 217
f 119 120 176
f 175 119 176
f 161 175 176
f 161 176 162
f 119 50 51
f 120 119 51
f 118 49 50
f 118 50 119
f 117 48 118
f 118 48 49
f 55 54 123
f 55 123 124
f 181 126 182
f 167 168 223
f 222 167 223
f 167 181 182
f 167 182 168
f 181 125 126
f 222 223 274
f 274 223 275
f 178 121 122
f 177 121 178
f 164 219 218
f 163 164 218
f 177 178 164
f 163 177 164
f 122 52 53
f 121 52 122
f 162 163 218
f 217 162 218
f 176 177 163
f 162 176 163
f 176 120 121
f 176 121 177
f 120 51 52
f 120 52 121
f 53 54 123
f 53 54 59
f 58 53 59
f 54 40 55
f 55 54 56
f 40 41 55
f 51 52 53
f 122 53 123
f 124 55 56
f 55 41 56
f 41 42 56
f 231 184 232
f 185 130 232
f 184 185 232
f 184 231 185
f 184 130 185
f 185 129 184
f 130 129 185
f 185 231 232
f 116 48 117
f 116 47 48
f 179 180 166
f 165 179 166
f 179 165 220
f 178 123 179
f 178 122 123
f 123 124 180
f 179 123 180
f 275 222 274
f 223 222 275
f 110 166 167
f 125 124 110
f 125 110 111
f 56 55 125
f 125 55 124
f 112 111 167
f 168 112 167
f 57 56 126
f 126 56 125
f 126 125 111
f 126 111 112
f 182 126 168
f 182 223 229
f 182 168 223
f 112 168 126
f 125 56 57
f 125 57 126
f 129 59 130
f 184 129 130
f 54 53 58
f 59 58 130
f 54 58 59
f 129 58 59
f 130 58 129
f 47 33 48
f 32 33 46
f 46 33 47
f 44 30 31
f 44 31 45
f 45 31 46
f 31 32 46
f 167 111 110
f 168 167 222
f 168 222 223
f 221 167 222
f 166 167 221
f 124 56 125
f 180 124 125
f 180 125 181
f 166 180 181
f 166 181 167
f 30 44 113
f 161 104 160
f 104 161 105
f 215 214 267
f 107 106 163
f 106 162 163
f 120 106 121
f 121 106 107
f 162 106 161
f 106 105 161
f 120 119 106
f 106 119 105
f 53 121 122
f 122 107 108
f 122 121 107
f 104 103 160
f 103 159 160
f 117 103 104
f 102 115 101
f 116 115 102
f 47 46 115
f 47 115 116
f 158 157 213
f 157 212 213
f 102 101 158
f 101 157 158
f 215 159 214
f 159 215 160
f 117 104 118
f 116 102 117
f 117 102 103
f 48 47 117
f 47 116 117
f 103 102 159
f 102 158 159
f 213 265 214
f 214 265 266
f 214 266 267
f 99 155 156
f 100 99 156
f 115 114 101
f 114 100 101
f 45 114 46
f 46 114 115
f 101 100 157
f 157 100 156
f 212 211 263
f 211 262 263
f 211 210 262
f 212 263 264
f 114 113 100
f 113 99 100
f 309 294 310
f 303 318 360
f 256 320 259
f 256 253 318
f 256 318 320
f 318 360 361
f 320 318 361
f 206 204 253
f 384 397 425
f 425 397 438
f 148 206 150
f 148 204 206
f 318 253 320
f 320 253 256
f 206 253 256
f 498 496 497
f 496 495 498
f 486 485 499
f 485 498 499
f 434 433 447
f 433 446 447
f 471 459 472
f 459 460 472
f 458 470 457
f 457 470 469
f 458 459 471
f 458 471 470
f 447 446 457
f 447 457 458
f 496 495 497
f 493 491 492
f 491 489 490
f 493 492 494
f 460 459 471
f 460 471 472
f 471 483 484
f 471 470 483
f 449 448 460
f 460 448 459
f 497 483 496
f 483 497 484
f 471 472 485
f 484 471 485
f 485 484 497
f 485 497 498
f 470 469 483
f 469 482 483
f 393 392 434
f 392 433 434
f 470 471 484
f 483 470 484
f 435 447 448
f 435 434 447
f 436 435 449
f 435 448 449
f 437 436 449
f 437 449 450
f 390 430 431
f 390 389 430
f 391 390 432
f 432 390 431
f 392 391 432
f 392 432 433
f 428 429 388
f 448 447 459
f 447 458 459
f 389 388 430
f 430 388 429
f 329 330 369
f 368 329 369
f 216 217 269
f 269 268 216
f 329 266 267
f 328 266 329
f 267 215 268
f 215 216 268
f 324 262 263
f 324 263 325
f 325 263 326
f 326 263 264
f 325 326 364
f 365 364 326
f 364 365 403
f 402 364 403
f 489 403 490
f 490 403 404
f 490 404 405
f 491 490 405
f 491 405 417
f 417 405 504
f 491 417 504
f 405 491 504
f 367 368 406
f 405 367 406
f 405 492 491
f 492 405 406
f 366 327 328
f 366 328 367
f 403 416 489
f 403 489 502
f 489 416 502
f 416 403 502
f 326 327 366
f 365 326 366
f 327 265 266
f 327 266 328
f 264 265 326
f 327 326 265
f 415 402 488
f 418 419 505
f 505 419 506
f 104 105 35
f 35 105 36
f 37 38 51
f 51 36 37
f 50 36 51
f 49 36 50
f 35 36 49
f 273 335 336
f 274 273 336
f 273 272 335
f 272 334 335
f 39 38 53
f 38 52 53
f 37 51 52
f 38 37 52
f 35 34 49
f 34 48 49
f 119 118 105
f 118 104 105
f 53 52 121
f 270 271 272
f 272 271 333
f 272 333 334
f 271 332 333
f 271 270 332
f 39 40 54
f 53 39 54
f 38 52 51
f 42 43 57
f 56 42 57
f 34 47 48
f 34 33 47
f 37 36 106
f 36 37 105
f 36 105 106
f 37 106 105
f 87 92 97
f 269 331 270
f 270 331 332
f 269 268 331
f 268 330 331
f 332 370 371
f 331 370 332
f 45 31 30
f 30 44 45
f 42 56 43
f 43 56 57
f 33 34 48
f 48 35 49
f 34 35 48
f 42 55 56
f 42 41 55
f 494 493 506
f 494 506 507
f 504 505 506
f 281 272 280
f 272 271 280
f 343 281 280
f 343 280 342
f 267 268 330
f 329 267 330
f 407 408 420
f 330 331 370
f 369 330 370
f 493 406 407
f 369 370 408
f 407 369 408
f 492 406 493
f 330 331 341
f 340 330 341
f 493 407 506
f 506 407 419
f 407 420 419
f 419 407 493
f 419 493 506
f 487 488 489
f 335 273 274
f 335 274 336
f 334 272 273
f 334 273 335
f 372 332 333
f 371 332 372
f 332 270 333
f 270 271 333
f 373 334 335
f 373 335 374
f 370 371 409
f 408 370 409
f 411 372 373
f 410 372 411
f 509 410 422
f 496 410 411
f 410 496 509
f 496 411 497
f 509 422 510
f 411 497 423
f 423 497 510
f 411 423 422
f 497 422 510
f 410 411 422
f 410 422 497
f 409 495 508
f 421 409 508
f 495 421 508
f 409 421 495
f 408 409 495
f 494 408 495
f 228 280 281
f 228 227 280
f 286 280 281
f 342 280 281
f 342 281 343
f 280 287 281
f 280 286 287
f 343 334 342
f 333 342 334
f 333 343 342
f 334 343 333
f 382 342 343
f 381 342 382
f 422 381 382
f 422 382 423
f 422 423 510
f 379 341 380
f 379 340 341
f 380 379 420
f 379 380 419
f 419 380 420
f 420 408 507
f 408 494 507
f 507 506 420
f 419 420 506
f 420 379 419
f 506 419 418
f 418 505 506
f 194 195 242
f 241 194 242
f 10 11 26
f 10 26 25
f 69 10 25
f 67 8 9
f 67 9 68
f 67 68 139
f 10 11 25
f 8 23 9
f 25 11 26
f 67 139 138
f 10 9 24
f 24 10 25
f 24 9 23
f 11 12 26
f 69 70 141
f 140 69 141
f 69 25 79
f 69 79 80
f 69 80 70
f 70 80 71
f 25 26 80
f 79 25 80
f 242 243 297
f 240 241 296
f 295 240 296
f 242 250 243
f 250 251 243
f 297 313 298
f 297 243 298
f 242 202 250
f 242 195 202
f 311 296 297
f 311 297 312
f 313 312 297
f 299 300 314
f 298 299 313
f 313 299 314
f 313 314 298
f 298 314 299
f 315 314 300
f 243 244 299
f 298 243 299
f 202 203 251
f 250 202 251
f 195 203 202
f 203 196 243
f 251 203 243
f 197 198 244
f 245 244 198
f 196 141 197
f 141 142 197
f 142 81 71
f 14 72 73
f 14 13 72
f 12 71 72
f 13 12 72
f 311 312 296
f 296 312 297
f 195 196 203
f 65 77 78
f 65 78 66
f 66 67 138
f 137 66 138
f 21 22 77
f 77 22 78
f 65 6 77
f 77 6 21
f 66 7 8
f 66 8 67
f 21 7 22
f 22 7 66
f 78 22 66
f 21 6 7
f 7 22 8
f 40 39 108
f 109 40 108
f 239 192 193
f 239 193 240
f 240 193 241
f 193 192 138
f 192 137 138
f 193 194 241
f 301 302 317
f 301 317 316
f 301 300 316
f 315 300 316
f 82 73 144
f 14 29 82
f 14 82 73
f 72 73 144
f 143 72 144
f 246 200 247
f 246 199 200
f 144 145 199
f 199 145 200
f 74 73 144
f 74 144 145
f 74 14 15
f 73 14 74
f 82 73 74
f 82 74 83
f 73 82 83
f 74 73 83
f 145 73 74
f 144 73 145
f 39 40 109
f 39 109 108
f 12 26 27
f 27 12 28
f 12 13 28
f 27 28 13
f 12 27 13
f 26 11 27
f 27 11 12
f 71 12 81
f 80 26 71
f 26 12 71
f 71 12 13
f 72 71 13
f 484 486 485
f 482 483 484
f 440 441 453
f 452 440 453
f 427 439 440
f 427 426 439
f 425 438 439
f 426 425 439
f 398 397 451
f 397 438 451
f 458 446 447
f 446 458 457
f 459 448 449
f 459 449 460
f 433 432 445
f 433 445 446
f 400 399 462
f 400 462 474
f 400 487 401
f 400 474 487
f 444 430 443
f 431 430 444
f 431 444 445
f 432 431 445
f 479 468 480
f 468 467 480
f 479 467 468
f 467 479 480
f 478 466 467
f 478 467 479
f 441 454 453
f 454 441 442
f 442 443 454
f 455 454 443
f 455 467 468
f 455 444 456
f 455 443 444
f 455 468 456
f 494 480 493
f 482 480 481
f 480 494 481
f 476 464 477
f 464 465 477
f 465 466 477
f 477 466 478
f 482 470 483
f 469 470 482
f 455 454 467
f 467 454 466
f 464 452 453
f 464 453 465
f 465 453 454
f 427 440 441
f 428 427 441
f 428 441 442
f 429 428 442
f 430 429 442
f 430 442 443
f 466 478 479
f 466 479 467
f 466 465 478
f 465 477 478
f 475 464 476
f 475 463 464
f 474 462 475
f 462 463 475
f 463 475 476
f 464 463 476
f 463 462 474
f 463 474 475
f 392 353 354
f 391 353 392
f 433 432 434
f 433 435 434
f 447 446 434
f 433 434 446
f 391 392 433
f 432 391 433
f 448 436 449
f 436 437 450
f 449 436 450
f 447 434 448
f 434 435 448
f 448 435 436
f 435 434 436
f 447 449 448
f 440 426 427
f 439 426 440
f 439 438 440
f 440 441 442
f 427 429 428
f 428 429 441
f 440 427 428
f 440 428 441
f 441 429 442
f 443 430 431
f 443 431 444
f 444 445 446
f 444 431 432
f 444 432 445
f 386 349 387
f 386 387 428
f 427 386 428
f 387 388 429
f 428 387 429
f 429 389 430
f 429 388 389
f 351 293 294
f 351 294 352
f 390 353 391
f 390 352 353
f 293 292 294
f 296 295 297
f 355 298 356
f 355 297 298
f 393 355 356
f 393 356 394
f 434 393 394
f 434 394 435
f 353 296 354
f 295 296 353
f 392 355 393
f 354 355 392
f 296 297 354
f 354 297 355
f 298 299 357
f 356 298 357
f 394 356 357
f 394 357 395
f 394 395 436
f 435 394 436
f 395 357 358
f 395 358 396
f 437 434 435
f 434 437 436
f 437 435 436
f 395 396 437
f 436 395 437
f 357 299 300
f 357 300 358
f 297 299 298
f 247 246 302
f 302 246 301
f 357 395 396
f 358 357 396
f 394 355 393
f 355 394 356
f 394 393 435
f 393 434 435
f 294 293 352
f 293 351 352
f 294 295 353
f 352 294 353
f 295 353 354
f 296 295 354
f 355 354 393
f 354 392 393
f 190 134 135
f 134 190 189
f 3 4 62
f 62 4 63
f 210 224 276
f 262 210 276
f 324 262 276
f 208 155 210
f 152 155 208
f 169 183 230
f 224 169 230
f 204 201 248
f 204 248 253
f 318 248 303
f 253 248 318
f 186 201 248
f 233 186 248
f 384 346 397
f 346 359 397
f 346 288 359
f 359 288 303
f 359 303 360
f 233 248 303
f 288 233 303
f 162 105 161
f 106 105 162
f 161 162 217
f 217 161 216
f 5 6 65
f 64 5 65
f 4 5 20
f 19 3 4
f 20 6 21
f 20 5 6
f 5 20 21
f 5 21 6
f 19 4 20
f 21 6 22
f 6 22 7
f 22 7 23
f 22 23 8
f 7 8 23
f 2 3 17
f 17 3 18
f 17 18 2
f 2 18 3
f 1 2 17
f 61 62 133
f 132 61 133
f 149 146 148
f 146 149 147
f 85 76 149
f 76 147 149
f 61 2 3
f 61 3 62
f 60 1 2
f 61 60 2
f 147 61 132
f 75 60 76
f 60 61 76
f 84 76 85
f 147 76 61
f 186 146 201
f 186 131 146
f 146 147 131
f 131 147 132
f 201 146 204
f 146 201 148
f 148 201 204
f 60 75 146
f 131 60 146
f 75 60 131
f 75 131 146
f 146 148 204
f 60 16 75
f 60 1 16
f 60 75 1
f 75 16 1
f 30 99 44
f 44 99 113
f 208 256 259
f 206 256 208
f 152 150 208
f 155 152 210
f 152 208 210
f 152 208 206
f 206 150 152
f 259 322 320
f 322 259 262
f 322 262 324
f 259 208 210
f 259 210 262
f 259 206 208
f 256 206 259
f 152 153 156
f 155 152 156
f 148 150 204
f 146 75 84
f 146 84 148
f 75 76 84
f 94 99 155
f 152 94 155
f 204 150 206
f 89 90 95
f 94 89 95
f 148 89 150
f 84 89 148
f 90 151 153
f 95 90 153
f 90 149 151
f 151 150 153
f 150 152 153
f 95 94 100
f 94 99 100
f 152 95 153
f 94 95 152
f 153 95 100
f 153 100 156
f 152 153 155
f 155 153 156
f 150 206 208
f 151 148 150
f 149 148 151
f 90 85 149
f 84 85 90
f 89 84 90
f 303 248 253
f 318 303 253
f 152 89 94
f 150 89 152
f 293 309 294
f 292 308 293
f 308 293 309
f 292 306 307
f 291 306 292
f 307 292 308
f 297 296 298
f 259 324 262
f 259 322 324
f 325 262 324
f 263 262 325
f 325 364 365
f 326 325 365
f 337 324 363
f 384 359 397
f 359 346 384
f 438 397 384
f 438 384 425
f 303 288 346
f 359 303 346
f 259 262 263
f 260 259 263
f 266 265 328
f 328 265 327
f 322 323 325
f 324 322 325
f 266 265 267
f 265 264 327
f 327 264 326
f 264 157 212
f 187 132 188
f 188 132 133
f 248 201 233
f 248 234 249
f 233 234 248
f 201 186 233
f 233 186 187
f 233 187 234
f 254 319 321
f 257 254 321
f 289 304 290
f 290 304 305
f 288 303 289
f 289 303 304
f 304 249 289
f 289 249 234
f 318 320 319
f 321 319 320
f 254 249 319
f 249 304 319
f 304 318 319
f 304 303 318
f 290 305 291
f 290 291 306
f 305 290 306
f 305 306 291
f 235 188 189
f 235 189 236
f 289 290 305
f 289 305 304
f 322 320 321
f 322 321 323
f 321 320 323
f 320 322 323
f 325 323 263
f 262 210 208
f 262 208 259
f 253 254 257
f 256 253 257
f 256 257 260
f 259 256 260
f 262 259 260
f 263 262 260
f 257 259 260
f 256 259 257
f 321 256 257
f 248 249 253
f 253 249 254
f 320 256 321
