mtllib P-15_tex.mtl
v 0.588056 3.755806 0.104423
v 1.922798 2.726851 0.142853
v 0.520308 2.561162 0.104302
v 0.588056 3.755806 0.104423
v 0.516320 3.751334 0.104362
v 0.497892 4.083525 0.104240
v 0.497892 4.083525 0.104240
v -0.268786 4.521235 0.104141
v 0.368116 4.461100 0.104222
v -0.242132 4.425554 0.104249
v -1.462135 2.364436 0.142871
v -0.368414 2.016921 0.153014
v -0.253838 2.199246 0.170867
v -1.659659 2.017285 0.171925
v -1.821064 2.364436 0.142937
v -0.946288 2.019995 0.173266
v -1.462135 2.364436 0.142871
v -0.902202 4.425554 0.104295
v -1.663640 4.647879 0.100448
v -0.940182 4.603949 0.104310
v -1.774608 3.817502 0.104288
v -1.603860 3.335535 0.104319
v -0.242132 4.425554 0.104249
v -0.325702 3.800963 0.104256
v -1.627278 3.400026 0.104308
v -0.325702 3.800963 0.104256
v -0.930717 2.546069 0.104326
v -1.603860 3.335535 0.104319
v -0.863220 2.543948 0.104295
v -2.834512 2.522038 0.065373
v -1.821064 2.364436 0.142937
v -2.001805 1.289206 0.007029
v -0.724108 2.507510 -0.102944
v -0.919696 2.522178 -0.102967
v -0.216853 2.556271 -0.102976
v -0.911910 2.722342 -0.102929
v 3.010825 2.525842 0.127493
v 1.933962 2.226436 0.144109
v 2.971146 2.525951 0.177947
v 1.234552 4.789688 0.163594
v 1.799590 4.482785 0.104315
v 2.594675 4.898596 0.192555
v -2.730706 4.511835 -0.152787
v -2.338651 4.664102 -0.021210
v -1.663640 4.647879 0.100448
v 0.545466 3.321001 -0.102958
v 1.406363 2.855828 -0.116138
v 1.236739 3.188099 -0.109801
v 1.940299 2.545522 0.192132
v 1.307906 2.016884 0.170867
v 1.763722 2.598961 0.191724
v 2.301720 2.035331 0.177883
v 1.307906 2.016884 0.170867
v 1.878840 2.206938 0.147218
v 1.933962 2.226436 0.144109
v -0.911910 2.722342 -0.102929
v -1.634000 3.569367 -0.102989
v -0.930345 3.423164 -0.102933
v -0.885981 3.392097 -0.102926
v -0.216853 2.556271 -0.102976
v -1.621794 2.891118 -0.102924
v -1.495965 3.830329 -0.102945
v -1.650411 3.876270 -0.102954
v -0.935077 4.977154 -0.142671
v -2.834634 3.829575 -0.091496
v -1.640730 4.977008 -0.139102
v -0.206014 4.977239 -0.176128
v -2.285350 2.083660 -0.052356
v -0.919696 2.522178 -0.102967
v -0.199040 4.431819 -0.204480
v -2.834573 2.729676 -0.028979
v -2.834722 3.309602 -0.026698
v -0.148231 3.456249 -0.102987
v -2.730706 4.511835 -0.152787
v 0.289252 3.831392 -0.102974
v -0.165163 4.977239 -0.190939
v 0.524918 4.977093 -0.157648
v 0.825679 3.825103 -0.102974
v -2.834681 2.378746 -0.033838
v 0.128875 2.550316 0.104299
v 0.352924 3.165635 0.162061
v 0.520308 2.561162 0.104302
v 0.767308 3.158447 0.169246
v 1.922798 2.726851 0.142853
v -2.000404 2.565634 0.149492
v -2.834647 3.226439 0.000279
v -1.627278 3.400026 0.104308
v -2.834356 3.033742 0.011453
v 0.741365 4.664023 -0.024087
v 0.557672 3.817502 0.104385
v 1.799590 4.482785 0.104315
v 0.524918 4.977093 -0.157648
v 0.368116 4.461100 0.104222
v -0.165163 4.977239 -0.190939
v 1.243570 4.977269 -0.186688
v -0.268786 4.521235 0.104141
v -0.206014 4.977239 -0.176128
v -0.940182 4.603949 0.104310
v -0.935077 4.977154 -0.142671
v -1.640730 4.977008 -0.139102
v -1.663640 4.647879 0.100448
v 1.963236 4.789774 -0.186972
v -2.730706 4.511835 -0.152787
v 2.573735 5.000000 0.112947
v 0.289252 3.831392 -0.102974
v -0.148231 3.456249 -0.102987
v 0.825679 3.825103 -0.102974
v 0.545466 3.321001 -0.102958
v -0.885981 3.392097 -0.102926
v -0.199040 4.431819 -0.204480
v -1.663640 4.647879 0.100448
v -2.834850 3.816609 -0.023061
v -2.338651 4.664102 -0.021210
v -1.774608 3.817502 0.104288
v 0.524918 4.977093 -0.157648
v 0.825679 3.825103 -0.102974
v 1.273534 4.054464 -0.102911
v -0.165163 4.977239 -0.190939
v 0.289252 3.831392 -0.102974
v 1.243570 4.977269 -0.186688
v 0.472545 3.819957 0.171875
v 0.564645 4.789676 0.165842
v 0.518643 3.848904 0.173075
v -0.107441 4.799872 0.190452
v -1.650411 3.876270 -0.102954
v -2.834634 3.829575 -0.091496
v -1.634000 3.569367 -0.102989
v -2.834722 3.309602 -0.026698
v -2.834512 2.522038 0.065373
v -1.821064 2.364436 0.142937
v -1.659659 2.017285 0.171925
v -2.859852 2.012910 0.162966
v -1.603860 3.335535 0.104319
v -0.930717 2.546069 0.104326
v -0.946728 3.432084 0.165107
v -2.834722 3.309602 -0.026698
v -2.834356 3.033742 0.011453
v -2.834647 3.226439 0.000279
v -2.834573 2.729676 -0.028979
v -2.834512 2.522038 0.065373
v -2.834681 2.378746 -0.033838
v -2.834634 3.829575 -0.091496
v -2.834850 3.816609 -0.023061
v -2.338651 4.664102 -0.021210
v -2.738350 2.805700 0.162404
v -2.859852 2.012910 0.162966
v -0.863220 2.543948 0.104295
v -1.663640 4.647879 0.100448
v -1.774608 3.817502 0.104288
v -0.940182 4.603949 0.104310
v -0.902202 4.425554 0.104295
v -1.627278 3.400026 0.104308
v -0.325702 3.800963 0.104256
v -0.242132 4.425554 0.104249
v -2.000404 2.565634 0.149492
v -1.821064 2.364436 0.142937
v -2.730706 4.511835 -0.152787
v 0.520308 2.561162 0.104302
v 0.516320 3.751334 0.104362
v 0.588056 3.755806 0.104423
v 0.128875 2.550316 0.104299
v 0.527281 2.017000 0.153544
v 0.185541 2.086346 0.112253
v 0.557672 3.817502 0.104385
v 1.286979 4.292616 0.104116
v 1.799590 4.482785 0.104315
v 0.741365 4.664023 -0.024087
v 0.368116 4.461100 0.104222
v 0.564645 4.789676 0.165842
v -0.107441 4.799872 0.190452
v -0.268786 4.521235 0.104141
v -0.408270 4.918258 0.178116
v 1.234552 4.789688 0.163594
v -1.821064 2.364436 0.142937
v -2.834512 2.522038 0.065373
v -2.859852 2.012910 0.162966
v -0.368414 2.016921 0.153014
v -1.462135 2.364436 0.142871
v -0.946288 2.019995 0.173266
v -0.863220 2.543948 0.104295
v 0.128875 2.550316 0.104299
v -1.659659 2.017285 0.171925
v 0.185541 2.086346 0.112253
v 0.520308 2.561162 0.104302
v -0.930717 2.546069 0.104326
v 0.527281 2.017000 0.153544
v 1.878840 2.206938 0.147218
v 1.922798 2.726851 0.142853
v 1.933962 2.226436 0.144109
v -0.972177 2.656982 0.163840
v -1.603860 3.335535 0.104319
v -0.946728 3.432084 0.165107
v -0.930717 2.546069 0.104326
v -1.821064 2.364436 0.142937
v -2.285350 2.083660 -0.052356
v -2.001805 1.289206 0.007029
v -2.001697 1.289127 -0.029150
v -2.285350 2.083660 -0.052356
v -1.821064 2.364436 0.142937
v 0.185541 2.086346 0.112253
v -0.368414 2.016921 0.153014
v -0.863220 2.543948 0.104295
v 0.128875 2.550316 0.104299
v 2.146570 1.968312 -0.027624
v 3.010825 2.525842 0.127493
v 1.933962 2.226436 0.144109
v 1.262729 3.202268 0.104294
v 2.619075 3.303635 0.128551
v 1.939324 4.296122 0.104126
v 1.922798 2.726851 0.142853
v 0.520308 2.561162 0.104302
v 3.009789 3.312276 0.160100
v 1.988969 2.666394 0.161049
v 3.010852 2.794660 0.154766
v 2.876737 3.853297 0.051301
v 2.573735 5.000000 0.112947
v 1.799590 4.482785 0.104315
v 3.010649 4.503353 0.160023
v -0.930717 2.546069 0.104326
v -0.368414 2.016921 0.153014
v -1.462135 2.364436 0.142871
v -0.863220 2.543948 0.104295
v -2.834681 2.378746 -0.033838
v -2.001697 1.289127 -0.029150
v -2.285350 2.083660 -0.052356
v -1.621794 2.891118 -0.102924
v -0.919696 2.522178 -0.102967
v -0.911910 2.722342 -0.102929
v -0.930345 3.423164 -0.102933
v -0.216853 2.556271 -0.102976
v -0.885981 3.392097 -0.102926
v -0.148231 3.456249 -0.102987
v 0.195506 3.144849 -0.102972
v -0.724108 2.507510 -0.102944
v -2.834573 2.729676 -0.028979
v -2.834850 3.816609 -0.023061
v -2.980786 3.775480 0.177903
v -2.984889 3.822375 0.177764
v -2.834647 3.226439 0.000279
v -2.834356 3.033742 0.011453
v -2.802232 4.451712 0.170867
v -2.338651 4.664102 -0.021210
v -2.285350 2.083660 -0.052356
v -0.919696 2.522178 -0.102967
v -1.462135 2.364436 0.142871
v 2.301720 2.035331 0.177883
v 1.933962 2.226436 0.144109
v 3.010825 2.525842 0.127493
v 1.307906 2.016884 0.170867
v -2.834512 2.522038 0.065373
v -2.834681 2.378746 -0.033838
v -1.821064 2.364436 0.142937
v -2.285350 2.083660 -0.052356
v -1.462135 2.364436 0.142871
v 2.971146 2.525951 0.177947
v 1.933962 2.226436 0.144109
v 2.301720 2.035331 0.177883
v 2.146306 0.899747 -0.036484
v 2.146529 0.536482 -0.036484
v 1.927795 0.677654 -0.053501
v 2.146644 1.868354 -0.028476
v 1.926238 1.332316 -0.054468
v 1.931105 0.000000 -0.044946
v -2.834850 3.816609 -0.023061
v -2.730706 4.511835 -0.152787
v -2.338651 4.664102 -0.021210
v -2.984889 3.822375 0.177764
v -2.834850 3.816609 -0.023061
v -2.338651 4.664102 -0.021210
v -2.802232 4.451712 0.170867
v -1.462135 2.364436 0.142871
v -0.930717 2.546069 0.104326
v -0.946288 2.019995 0.173266
v -1.663640 4.647879 0.100448
v -2.050442 4.149250 0.162404
v -1.857311 4.766302 0.161919
v -1.774608 3.817502 0.104288
v 3.010825 2.525842 0.127493
v 2.146570 1.968312 -0.027624
v 2.953341 2.541488 -0.131791
v 3.009789 3.312276 0.160100
v 2.876019 3.787997 -0.029078
v 2.876737 3.853297 0.051301
v 2.875952 3.830469 -0.033574
v 3.010649 4.503353 0.160023
v 3.010852 2.794660 0.154766
v 3.011035 4.474740 0.169810
v 3.001273 3.817381 0.172493
v 2.941581 2.671868 -0.072372
v 3.010825 2.525842 0.127493
v 2.953341 2.541488 -0.131791
v 3.015111 4.531965 -0.124188
v 2.573735 5.000000 0.112947
v -0.944230 4.606008 0.161574
v -0.268786 4.521235 0.104141
v -0.408270 4.918258 0.178116
v -0.268786 4.521235 0.104141
v -0.940182 4.603949 0.104310
v -0.408270 4.918258 0.178116
v -1.857311 4.766302 0.161919
v -0.944230 4.606008 0.161574
v -1.663640 4.647879 0.100448
v -2.338651 4.664102 -0.021210
v 0.518643 3.848904 0.173075
v 0.557672 3.817502 0.104385
v 0.564645 4.789676 0.165842
v 0.741365 4.664023 -0.024087
v 0.655243 3.378456 0.169280
v 1.262729 3.202268 0.104294
v 0.588056 3.755806 0.104423
v 1.922798 2.726851 0.142853
v 1.282890 3.182041 0.195520
v 1.763722 2.598961 0.191724
v 1.940299 2.545522 0.192132
v 1.988969 2.666394 0.161049
v 1.878840 2.206938 0.147218
v 1.763722 2.598961 0.191724
v 1.307906 2.016884 0.170867
v 1.922798 2.726851 0.142853
v 2.146448 1.357683 0.018263
v 1.929298 1.045713 0.038045
v 2.146286 1.008849 -0.021005
v 2.146441 0.605057 -0.018392
v 1.903456 0.000237 0.036281
v 1.927125 1.866373 0.051671
v 1.878840 2.206938 0.147218
v 1.933962 2.226436 0.144109
v 1.931105 0.000000 -0.044946
v 2.146529 0.536482 -0.036484
v 0.655243 3.378456 0.169280
v 0.588056 3.755806 0.104423
v 1.282890 3.182041 0.195520
v 2.146306 0.899747 -0.036484
v 1.926238 1.332316 -0.054468
v 1.927795 0.677654 -0.053501
v 2.146644 1.868354 -0.028476
v -2.338651 4.664102 -0.021210
v -2.802232 4.451712 0.170867
v -1.857311 4.766302 0.161919
v 1.493873 2.540941 -0.115403
v 2.146570 1.968312 -0.027624
v 1.933962 2.226436 0.144109
v -2.738350 2.805700 0.162404
v -2.834356 3.033742 0.011453
v -2.834647 3.226439 0.000279
v -2.859852 2.012910 0.162966
v -2.980786 3.775480 0.177903
v -2.834512 2.522038 0.065373
v 0.527281 2.017000 0.153544
v 0.520308 2.561162 0.104302
v 0.767308 3.158447 0.169246
v 0.546210 2.019837 0.168016
v 1.931105 0.000000 -0.044946
v 2.146529 0.536482 -0.036484
v 2.146306 0.899747 -0.036484
v 1.927795 0.677654 -0.053501
v 0.564645 4.789676 0.165842
v -0.107441 4.799872 0.190452
v 0.741365 4.664023 -0.024087
v 0.368116 4.461100 0.104222
v -0.408270 4.918258 0.178116
v -0.268786 4.521235 0.104141
v -0.242132 4.425554 0.104249
v 0.497892 4.083525 0.104240
v 0.546210 2.019837 0.168016
v 1.878840 2.206938 0.147218
v 1.307906 2.016884 0.170867
v 3.011035 4.474740 0.169810
v 3.010649 4.503353 0.160023
v 3.001273 3.817381 0.172493
v 2.876737 3.853297 0.051301
v 2.594675 4.898596 0.192555
v 2.573735 5.000000 0.112947
v 3.011035 4.474740 0.169810
v 3.010649 4.503353 0.160023
v 1.799590 4.482785 0.104315
v -0.368414 2.016921 0.153014
v -0.946288 2.019995 0.173266
v -0.253838 2.199246 0.170867
v -1.462135 2.364436 0.142871
v 2.146448 1.357683 0.018263
v 1.927125 1.866373 0.051671
v 1.933962 2.226436 0.144109
v 1.878840 2.206938 0.147218
v 1.262729 3.202268 0.104294
v 1.282890 3.182041 0.195520
v 0.588056 3.755806 0.104423
v 0.516320 3.751334 0.104362
v 0.352924 3.165635 0.162061
v 0.128875 2.550316 0.104299
v 1.922798 2.726851 0.142853
v 0.588056 3.755806 0.104423
v 1.262729 3.202268 0.104294
v 2.146286 1.008849 -0.021005
v 2.146644 1.868354 -0.028476
v 2.146448 1.357683 0.018263
v 2.146306 0.899747 -0.036484
v 2.146286 1.008849 -0.021005
v 2.146529 0.536482 -0.036484
v 2.146441 0.605057 -0.018392
v 2.146306 0.899747 -0.036484
v 2.146448 1.357683 0.018263
v 2.146644 1.868354 -0.028476
v 1.903456 0.000237 0.036281
v 1.931105 0.000000 -0.044946
v -2.834850 3.816609 -0.023061
v -2.834634 3.829575 -0.091496
v -2.730706 4.511835 -0.152787
v 2.971146 2.525951 0.177947
v 2.301720 2.035331 0.177883
v 3.010825 2.525842 0.127493
v -2.001697 1.289127 -0.029150
v -1.821064 2.364436 0.142937
v -2.001805 1.289206 0.007029
v -0.944230 4.606008 0.161574
v -0.940182 4.603949 0.104310
v -0.268786 4.521235 0.104141
v -2.285350 2.083660 -0.052356
v -2.001697 1.289127 -0.029150
v -2.001805 1.289206 0.007029
v 1.922798 2.726851 0.142853
v 1.988969 2.666394 0.161049
v 1.763722 2.598961 0.191724
v 1.940299 2.545522 0.192132
v 0.546210 2.019837 0.168016
v 0.527281 2.017000 0.153544
v 1.878840 2.206938 0.147218
v -0.940182 4.603949 0.104310
v -0.902202 4.425554 0.104295
v -0.964263 4.373409 0.161912
v -0.944230 4.606008 0.161574
v 2.146441 0.605057 -0.018392
v 2.146306 0.899747 -0.036484
v 2.146286 1.008849 -0.021005
v 2.146529 0.536482 -0.036484
v 0.520308 2.561162 0.104302
v 0.527281 2.017000 0.153544
v 0.546210 2.019837 0.168016
v 0.767308 3.158447 0.169246
v 0.557672 3.817502 0.104385
v 0.588056 3.755806 0.104423
v 0.518643 3.848904 0.173075
v 0.655243 3.378456 0.169280
v 0.406584 3.782565 0.173142
v 0.472545 3.819957 0.171875
v 0.518643 3.848904 0.173075
v 0.516320 3.751334 0.104362
v 0.352924 3.165635 0.162061
v -0.894477 3.181731 0.166395
v -0.717128 2.627330 0.166643
v -0.053396 2.198158 0.163551
v 0.546210 2.019837 0.168016
v 0.767308 3.158447 0.169246
v 1.307906 2.016884 0.170867
v 1.763722 2.598961 0.191724
v -0.972177 2.656982 0.163840
v -0.253838 2.199246 0.170867
v -0.946728 3.432084 0.165107
v -0.946288 2.019995 0.173266
v -1.659659 2.017285 0.171925
v -2.052534 2.546950 0.164927
v -2.859852 2.012910 0.162966
v -2.738350 2.805700 0.162404
v -2.980786 3.775480 0.177903
v -1.928668 3.262209 0.165644
v -2.984889 3.822375 0.177764
v -2.050442 4.149250 0.162404
v -1.857311 4.766302 0.161919
v -0.502983 3.832036 0.165691
v -0.964263 4.373409 0.161912
v -0.944230 4.606008 0.161574
v -0.408270 4.918258 0.178116
v -2.802232 4.451712 0.170867
v 2.301720 2.035331 0.177883
v 1.940299 2.545522 0.192132
v -0.107441 4.799872 0.190452
v -0.368414 2.016921 0.153014
v 0.185541 2.086346 0.112253
v 1.922798 2.726851 0.142853
v 0.497892 4.083525 0.104240
v 0.368116 4.461100 0.104222
v -0.930717 2.546069 0.104326
v -2.980786 3.775480 0.177903
v -2.834356 3.033742 0.011453
v -2.738350 2.805700 0.162404
v -0.171141 2.509297 -0.102989
v -0.216853 2.556271 -0.102976
v 0.195506 3.144849 -0.102972
v 0.844859 3.137637 -0.102913
v -0.148231 3.456249 -0.102987
v 0.545466 3.321001 -0.102958
v 0.289252 3.831392 -0.102974
v 0.825679 3.825103 -0.102974
v -0.885981 3.392097 -0.102926
v -0.724108 2.507510 -0.102944
v -0.216853 2.556271 -0.102976
v -0.885981 3.392097 -0.102926
v 0.195506 3.144849 -0.102972
v 0.557672 3.817502 0.104385
v 0.588056 3.755806 0.104423
v 1.262729 3.202268 0.104294
v 1.286979 4.292616 0.104116
v 0.520308 2.561162 0.104302
v 0.128875 2.550316 0.104299
v 1.939324 4.296122 0.104126
v 0.516320 3.751334 0.104362
v 0.497892 4.083525 0.104240
v 0.516320 3.751334 0.104362
v 0.557672 3.817502 0.104385
v 0.588056 3.755806 0.104423
v 0.705625 2.371594 -0.162600
v 1.493873 2.540941 -0.115403
v 1.878840 2.206938 0.147218
v 1.406363 2.855828 -0.116138
v 2.146570 1.968312 -0.027624
v 0.527281 2.017000 0.153544
v 0.185541 2.086346 0.112253
v -0.171141 2.509297 -0.102989
v 0.844859 3.137637 -0.102913
v -0.368414 2.016921 0.153014
v -0.724108 2.507510 -0.102944
v -1.462135 2.364436 0.142871
v -0.919696 2.522178 -0.102967
v 2.294767 2.567870 -0.102929
v 2.941581 2.671868 -0.072372
v 2.953341 2.541488 -0.131791
v 2.876019 3.787997 -0.029078
v 2.489048 3.426743 -0.135862
v 2.875952 3.830469 -0.033574
v 1.941071 4.449701 -0.163247
v 1.273534 4.054464 -0.102911
v 3.015111 4.531965 -0.124188
v 1.963236 4.789774 -0.186972
v 1.243570 4.977269 -0.186688
v 0.825679 3.825103 -0.102974
v 0.524918 4.977093 -0.157648
v 2.573735 5.000000 0.112947
v 1.236739 3.188099 -0.109801
v 0.545466 3.321001 -0.102958
v 1.878840 2.206938 0.147218
v 1.493873 2.540941 -0.115403
v 1.933962 2.226436 0.144109
v 2.146644 1.868354 -0.028476
v 2.146570 1.968312 -0.027624
v 1.933962 2.226436 0.144109
v 2.146448 1.357683 0.018263
v -0.930345 3.423164 -0.102933
v -1.634000 3.569367 -0.102989
v -1.650411 3.876270 -0.102954
v -1.495965 3.830329 -0.102945
v -1.621794 2.891118 -0.102924
v -1.634000 3.569367 -0.102989
v -0.930345 3.423164 -0.102933
v -0.911910 2.722342 -0.102929
v -1.621794 2.891118 -0.102924
v -2.834573 2.729676 -0.028979
v -2.834722 3.309602 -0.026698
v -1.634000 3.569367 -0.102989
v 0.545466 3.321001 -0.102958
v 0.195506 3.144849 -0.102972
v 0.844859 3.137637 -0.102913
v -0.199040 4.431819 -0.204480
v -0.206014 4.977239 -0.176128
v -0.165163 4.977239 -0.190939
v 0.289252 3.831392 -0.102974
v 1.406363 2.855828 -0.116138
v 0.844859 3.137637 -0.102913
v 0.545466 3.321001 -0.102958
v -0.053396 2.198158 0.163551
v 0.185541 2.086346 0.112253
v 0.527281 2.017000 0.153544
v 0.546210 2.019837 0.168016
v -0.253838 2.199246 0.170867
v -0.368414 2.016921 0.153014
v 0.185541 2.086346 0.112253
v -0.053396 2.198158 0.163551
v -0.930345 3.423164 -0.102933
v -1.495965 3.830329 -0.102945
v -0.199040 4.431819 -0.204480
v -0.885981 3.392097 -0.102926
v 2.963299 3.382928 0.177717
v 2.876737 3.853297 0.051301
v 3.001273 3.817381 0.172493
v 2.971146 2.525951 0.177947
v 3.010825 2.525842 0.127493
v 2.992661 3.171013 0.173241
v 2.992661 3.171013 0.173241
v 3.009789 3.312276 0.160100
v 2.963299 3.382928 0.177717
v 3.010852 2.794660 0.154766
v 2.876737 3.853297 0.051301
v 2.992661 3.171013 0.173241
v 3.010825 2.525842 0.127493
v 3.010852 2.794660 0.154766
v 2.876737 3.853297 0.051301
v 3.009789 3.312276 0.160100
v 2.875952 3.830469 -0.033574
v 2.876019 3.787997 -0.029078
v 2.301720 2.035331 0.177883
v 1.933962 2.226436 0.144109
v 1.988969 2.666394 0.161049
v 2.301720 2.035331 0.177883
v 1.988969 2.666394 0.161049
v 1.940299 2.545522 0.192132
v 1.988969 2.666394 0.161049
v 1.933962 2.226436 0.144109
v 1.940299 2.545522 0.192132
v 1.940299 2.545522 0.192132
v 1.933962 2.226436 0.144109
v 2.301720 2.035331 0.177883
v -1.495965 3.830329 -0.102945
v -1.650411 3.876270 -0.102954
v -1.640730 4.977008 -0.139102
v -0.935077 4.977154 -0.142671
v -2.834634 3.829575 -0.091496
v -2.730706 4.511835 -0.152787
v -1.650411 3.876270 -0.102954
v -1.640730 4.977008 -0.139102
v 1.963236 4.789774 -0.186972
v 2.875952 3.830469 -0.033574
v 3.015111 4.531965 -0.124188
v 1.941071 4.449701 -0.163247
v 1.243570 4.977269 -0.186688
v 1.273534 4.054464 -0.102911
v 1.941071 4.449701 -0.163247
v 1.963236 4.789774 -0.186972
v -1.944869 0.096762 -0.095566
v -2.002036 0.957871 -0.036484
v -1.880844 0.090673 0.071819
v -2.001981 0.783499 0.006626
v -1.944869 0.096762 -0.095566
v -1.880844 0.090673 0.071819
v -2.002036 0.957871 -0.036484
v -2.398932 0.000134 -0.032782
v -2.337209 0.000292 0.014805
v -1.880844 0.090673 0.071819
v -1.944869 0.096762 -0.095566
v -1.880844 0.090673 0.071819
v -2.337209 0.000292 0.014805
v -1.944869 0.096762 -0.095566
v -2.398932 0.000134 -0.032782
v -2.001981 0.783499 0.006626
v -1.880844 0.090673 0.071819
v -2.002036 0.957871 -0.036484
v -2.001981 0.783499 0.006626
v -2.002036 0.957871 -0.036484
v -2.001697 1.289127 -0.029150
v -2.001805 1.289206 0.007029
v -1.821064 2.364436 0.142937
v -2.834512 2.522038 0.065373
v -2.000404 2.565634 0.149492
v -2.834356 3.033742 0.011453
v 1.493873 2.540941 -0.115403
v 1.926238 1.332316 -0.054468
v 2.146644 1.868354 -0.028476
v 2.146570 1.968312 -0.027624
v 1.493873 2.540941 -0.115403
v 0.705625 2.371594 -0.162600
v 0.844859 3.137637 -0.102913
v 1.406363 2.855828 -0.116138
v -0.325702 3.800963 0.104256
v -0.863220 2.543948 0.104295
v 0.516320 3.751334 0.104362
v 0.497892 4.083525 0.104240
v -0.242132 4.425554 0.104249
v 0.128875 2.550316 0.104299
v 0.497892 4.083525 0.104240
v 0.557672 3.817502 0.104385
v 0.368116 4.461100 0.104222
v 0.741365 4.664023 -0.024087
v 0.368116 4.461100 0.104222
v 0.557672 3.817502 0.104385
v -0.268786 4.521235 0.104141
v -0.940182 4.603949 0.104310
v -0.242132 4.425554 0.104249
v -0.902202 4.425554 0.104295
v 3.015111 4.531965 -0.124188
v 2.876737 3.853297 0.051301
v 3.010649 4.503353 0.160023
v 2.875952 3.830469 -0.033574
v 1.939324 4.296122 0.104126
v 3.010649 4.503353 0.160023
v 2.876737 3.853297 0.051301
v 2.573735 5.000000 0.112947
v 1.939324 4.296122 0.104126
v 1.286979 4.292616 0.104116
v 1.799590 4.482785 0.104315
v 0.527281 2.017000 0.153544
v 0.185541 2.086346 0.112253
v 0.546210 2.019837 0.168016
v -1.663640 4.647879 0.100448
v -2.338651 4.664102 -0.021210
v -2.802232 4.451712 0.170867
v -1.663640 4.647879 0.100448
v -2.802232 4.451712 0.170867
v -1.857311 4.766302 0.161919
v -0.940182 4.603949 0.104310
v -1.663640 4.647879 0.100448
v -0.944230 4.606008 0.161574
v -1.857311 4.766302 0.161919
vt 0.859057 0.225436
vt 0.725046 0.134138
vt 0.859057 0.110652
vt 0.566081 0.670799
vt 0.558688 0.669367
vt 0.566081 0.637741
vt 0.310998 0.458678
vt 0.303721 0.543159
vt 0.283272 0.485207
vt 0.310998 0.536979
vt 0.840573 0.217172
vt 0.731782 0.197888
vt 0.723198 0.217172
vt 0.562190 0.882002
vt 0.546673 0.915978
vt 0.630776 0.882253
vt 0.581181 0.915978
vt 0.151220 0.091575
vt 0.162717 0.166667
vt 0.167745 0.097442
vt 0.082133 0.166667
vt 0.038355 0.144348
vt 0.159628 0.028926
vt 0.099012 0.028937
vt 0.044205 0.147389
vt 0.898799 0.354913
vt 0.805098 0.259257
vt 0.898799 0.224518
vt 0.802680 0.265267
vt 0.920055 0.859963
vt 0.847043 0.793591
vt 0.920055 0.717631
vt 0.684760 0.458983
vt 0.665977 0.455923
vt 0.731516 0.475207
vt 0.662200 0.475207
vt 0.877542 0.015152
vt 0.985675 0.015152
vt 0.881309 0.009642
vt 0.676987 0.499082
vt 0.625314 0.464187
vt 0.545749 0.499082
vt 0.502311 0.353076
vt 0.461200 0.342057
vt 0.396026 0.353076
vt 0.877542 0.461433
vt 0.877542 0.555096
vt 0.857209 0.525690
vt 0.940323 0.060886
vt 0.990296 0.122590
vt 0.934843 0.077752
vt 0.990296 0.027089
vt 0.924677 0.851699
vt 0.923752 0.793951
vt 0.924677 0.788338
vt 0.524463 0.611859
vt 0.429457 0.661096
vt 0.458305 0.598663
vt 0.462174 0.595192
vt 0.554991 0.550650
vt 0.493363 0.674393
vt 0.407937 0.642685
vt 0.400306 0.656094
vt 0.312285 0.565940
vt 0.379254 0.767424
vt 0.297135 0.631683
vt 0.327868 0.497948
vt 0.554991 0.753505
vt 0.543078 0.616844
vt 0.379126 0.508837
vt 0.482622 0.790973
vt 0.428207 0.778651
vt 0.472017 0.525106
vt 0.317314 0.743079
vt 0.446222 0.476372
vt 0.328709 0.494107
vt 0.343644 0.429909
vt 0.458346 0.426538
vt 0.515537 0.798439
vt 0.857209 0.852617
vt 0.834053 0.793848
vt 0.819581 0.852617
vt 0.794254 0.795565
vt 0.684381 0.840132
vt 0.282348 0.935262
vt 0.181608 0.909279
vt 0.282348 0.847107
vt 0.189216 0.926247
vt 0.519722 0.374184
vt 0.437616 0.355403
vt 0.498961 0.475267
vt 0.552462 0.353517
vt 0.496812 0.338453
vt 0.554067 0.287624
vt 0.554066 0.422116
vt 0.501825 0.277623
vt 0.553337 0.283542
vt 0.508524 0.213428
vt 0.551586 0.213935
vt 0.551417 0.146614
vt 0.512250 0.144379
vt 0.539409 0.491561
vt 0.516340 0.039027
vt 0.529510 0.558770
vt 0.423653 0.854379
vt 0.405885 0.802215
vt 0.468370 0.880165
vt 0.469963 0.825154
vt 0.347967 0.760790
vt 0.353112 0.880165
vt 0.946858 0.220845
vt 0.863678 0.109734
vt 0.946858 0.154920
vt 0.866495 0.212376
vt 0.779542 0.776206
vt 0.808512 0.665289
vt 0.851664 0.687318
vt 0.713031 0.776400
vt 0.756843 0.665885
vt 0.848729 0.776400
vt 0.981912 0.679982
vt 0.989372 0.772727
vt 0.986297 0.682812
vt 0.924677 0.772727
vt 0.967190 0.697881
vt 0.967190 0.584702
vt 0.937463 0.698347
vt 0.916359 0.582645
vt 0.975508 0.340220
vt 0.964075 0.242411
vt 0.931428 0.225436
vt 0.925601 0.340220
vt 0.200399 0.730229
vt 0.267396 0.656701
vt 0.263611 0.741484
vt 0.079323 0.725221
vt 0.082179 0.698627
vt 0.081688 0.717075
vt 0.077174 0.669461
vt 0.085549 0.649062
vt 0.075347 0.635614
vt 0.074399 0.776021
vt 0.080288 0.773279
vt 0.125406 0.855372
vt 0.099190 0.676296
vt 0.091077 0.599174
vt 0.273851 0.656639
vt 0.191309 0.855372
vt 0.182758 0.775921
vt 0.260938 0.853055
vt 0.265052 0.836166
vt 0.197903 0.736358
vt 0.322179 0.778077
vt 0.328558 0.837926
vt 0.164369 0.655485
vt 0.182213 0.636801
vt 0.084545 0.842256
vt 0.917362 0.424134
vt 0.913104 0.310580
vt 0.920055 0.309917
vt 0.879390 0.426457
vt 0.920055 0.476125
vt 0.886441 0.470557
vt 0.787893 0.400680
vt 0.704059 0.402797
vt 0.652957 0.415519
vt 0.727003 0.342531
vt 0.760399 0.315927
vt 0.723022 0.315172
vt 0.755792 0.259508
vt 0.787893 0.261007
vt 0.762036 0.229109
vt 0.674304 0.357346
vt 0.048093 0.381959
vt 0.067930 0.285917
vt 0.018263 0.281451
vt 0.008687 0.519171
vt 0.046648 0.416203
vt 0.011162 0.464044
vt 0.061814 0.474068
vt 0.058431 0.568746
vt 0.013784 0.395973
vt 0.013445 0.572310
vt 0.057900 0.606135
vt 0.062290 0.467637
vt 0.005083 0.604627
vt 0.017985 0.734331
vt 0.067930 0.740588
vt 0.019664 0.739668
vt 0.939623 0.480506
vt 0.993068 0.556015
vt 0.925601 0.556015
vt 0.937243 0.467860
vt 0.349815 0.983930
vt 0.313512 0.941690
vt 0.243530 0.983930
vt 0.831331 0.989440
vt 0.761627 0.947199
vt 0.725046 0.989440
vt 0.246303 0.935444
vt 0.192860 0.928834
vt 0.145564 0.980257
vt 0.241096 0.980257
vt 0.581956 0.505335
vt 0.542052 0.596013
vt 0.612668 0.514588
vt 0.719049 0.556973
vt 0.615266 0.637421
vt 0.723204 0.680678
vt 0.640385 0.554077
vt 0.744455 0.466024
vt 0.584235 0.658936
vt 0.631794 0.552755
vt 0.556418 0.617533
vt 0.624086 0.695229
vt 0.709844 0.770891
vt 0.744455 0.688177
vt 0.647995 0.754388
vt 0.913430 0.941609
vt 0.846118 0.973829
vt 0.957024 0.973829
vt 0.907152 0.939853
vt 0.588148 0.456841
vt 0.720425 0.452229
vt 0.642061 0.430353
vt 0.615597 0.334001
vt 0.683849 0.299755
vt 0.668531 0.288095
vt 0.612349 0.250822
vt 0.720425 0.243192
vt 0.617272 0.249087
vt 0.653433 0.188148
vt 0.697140 0.178604
vt 0.695928 0.285349
vt 0.560536 0.437464
vt 0.908366 0.591475
vt 0.887517 0.599854
vt 0.885940 0.595553
vt 0.922867 0.647121
vt 0.927449 0.665289
vt 0.884935 0.530945
vt 0.927449 0.497245
vt 0.669593 0.073921
vt 0.808226 0.073921
vt 0.752877 0.051882
vt 0.007856 0.134666
vt 0.035582 0.105748
vt 0.035582 0.212580
vt 0.032074 0.042700
vt 0.876617 0.574380
vt 0.859794 0.575268
vt 0.873678 0.673395
vt 0.836876 0.631003
vt 0.876617 0.707530
vt 0.585490 0.251148
vt 0.585490 0.354913
vt 0.557763 0.325975
vt 0.197402 0.623006
vt 0.232440 0.623049
vt 0.218835 0.601209
vt 0.103974 0.623049
vt 0.155691 0.601010
vt 0.284196 0.601644
vt 0.904344 0.727732
vt 0.875693 0.664906
vt 0.904344 0.633150
vt 0.462569 0.957045
vt 0.455053 0.979339
vt 0.358133 0.979339
vt 0.399234 0.944444
vt 0.810074 0.066575
vt 0.766636 0.034012
vt 0.810074 0.006887
vt 0.999538 0.459201
vt 0.968115 0.511509
vt 0.978522 0.450413
vt 0.999538 0.539486
vt 0.158503 0.599174
vt 0.259242 0.599174
vt 0.166062 0.574380
vt 0.688456 0.021285
vt 0.641866 0.041799
vt 0.635435 0.034136
vt 0.637796 0.042320
vt 0.571445 0.025175
vt 0.738118 0.023760
vt 0.574122 0.024037
vt 0.636886 0.016988
vt 0.749211 0.047144
vt 0.763863 0.027080
vt 0.761833 0.052801
vt 0.569334 0.052801
vt 0.507856 0.028951
vt 0.706562 0.856290
vt 0.706562 0.921488
vt 0.669593 0.903031
vt 0.786044 0.465106
vt 0.814864 0.406992
vt 0.827634 0.465106
vt 0.814974 0.317836
vt 0.820403 0.406247
vt 0.805613 0.338341
vt 0.788340 0.275023
vt 0.571905 0.137794
vt 0.577557 0.143699
vt 0.612914 0.057392
vt 0.630776 0.078557
vt 0.557763 0.182483
vt 0.593795 0.231752
vt 0.576306 0.150155
vt 0.627525 0.302099
vt 0.587274 0.238233
vt 0.607963 0.307515
vt 0.621426 0.319100
vt 0.630776 0.310229
vt 0.563309 0.721588
vt 0.595656 0.744468
vt 0.595656 0.673554
vt 0.590690 0.763545
vt 0.830777 0.496468
vt 0.852162 0.466596
vt 0.830071 0.462910
vt 0.830423 0.424301
vt 0.855360 0.366648
vt 0.852675 0.545075
vt 0.855360 0.579110
vt 0.849873 0.580808
vt 0.847090 0.365014
vt 0.829482 0.417581
vt 0.886012 0.974747
vt 0.857209 0.999541
vt 0.945009 0.999541
vt 0.555779 0.023416
vt 0.514177 0.002296
vt 0.577172 0.002520
vt 0.462569 0.023416
vt 0.977357 0.407359
vt 0.996765 0.358586
vt 0.996765 0.454086
vt 0.989372 0.798439
vt 0.989372 0.882002
vt 0.969039 0.852213
vt 0.584393 0.875574
vt 0.607119 0.859112
vt 0.625709 0.859045
vt 0.507856 0.864949
vt 0.680684 0.875574
vt 0.557562 0.859564
vt 0.784196 0.424377
vt 0.732685 0.412764
vt 0.671442 0.426538
vt 0.783575 0.426538
vt 0.189002 0.625226
vt 0.137203 0.646006
vt 0.102126 0.646006
vt 0.123558 0.624885
vt 0.104857 0.854454
vt 0.161692 0.885398
vt 0.079020 0.864543
vt 0.106186 0.897455
vt 0.192699 0.888234
vt 0.164256 0.917889
vt 0.158064 0.925161
vt 0.079602 0.925161
vt 0.072551 0.284206
vt 0.072551 0.412764
vt 0.061460 0.356205
vt 0.561892 0.074598
vt 0.563377 0.072084
vt 0.549445 0.136364
vt 0.567006 0.136364
vt 0.648397 0.902783
vt 0.646178 0.890266
vt 0.698244 0.931589
vt 0.697677 0.928700
vt 0.566081 0.931589
vt 0.973801 0.985523
vt 0.966266 0.930778
vt 0.993068 0.994031
vt 0.993068 0.877410
vt 0.755545 0.014233
vt 0.702515 0.004132
vt 0.667745 0.014233
vt 0.668235 0.009039
vt 0.286044 0.866326
vt 0.295287 0.862718
vt 0.295287 0.949954
vt 0.824861 0.999541
vt 0.766126 0.993113
vt 0.702865 0.999541
vt 0.713956 0.938935
vt 0.876617 0.938935
vt 0.792471 0.935262
vt 0.210618 0.990619
vt 0.293438 0.992195
vt 0.244265 0.986685
vt 0.200092 0.992195
vt 0.103992 0.006270
vt 0.149069 0.000459
vt 0.142664 0.002869
vt 0.114298 0.003751
vt 0.070975 0.013308
vt 0.021719 0.013315
vt 0.204713 0.013315
vt 0.204482 0.004800
vt 0.932994 0.470615
vt 0.926525 0.468201
vt 0.932994 0.401745
vt 0.919131 0.304688
vt 0.924677 0.225436
vt 0.924677 0.308081
vt 0.015250 0.726814
vt 0.015250 0.832415
vt 0.011553 0.727359
vt 0.016174 0.081267
vt 0.010628 0.080401
vt 0.016174 0.016070
vt 0.117837 0.174013
vt 0.036740 0.170340
vt 0.036506 0.174013
vt 0.654806 0.076708
vt 0.645555 0.077594
vt 0.654806 0.056474
vt 0.639094 0.066226
vt 0.312847 0.398057
vt 0.314695 0.396235
vt 0.314695 0.526630
vt 0.828599 0.661616
vt 0.825786 0.643378
vt 0.834104 0.637741
vt 0.834104 0.661539
vt 0.067006 0.410247
vt 0.068854 0.438890
vt 0.067272 0.449495
vt 0.068854 0.403581
vt 0.112538 0.983930
vt 0.164048 0.995540
vt 0.163428 0.997704
vt 0.051294 0.997704
vt 0.574098 0.055183
vt 0.567580 0.054637
vt 0.578096 0.062902
vt 0.530961 0.062902
vt 0.182815 0.108773
vt 0.177206 0.104981
vt 0.173348 0.102027
vt 0.170086 0.111645
vt 0.187955 0.167799
vt 0.308003 0.166055
vt 0.291011 0.219080
vt 0.227226 0.260398
vt 0.169444 0.277422
vt 0.148072 0.168510
vt 0.096137 0.277778
vt 0.052183 0.222104
vt 0.315494 0.216214
vt 0.246528 0.259859
vt 0.313072 0.142194
vt 0.312979 0.277005
vt 0.381459 0.277300
vt 0.419205 0.226763
vt 0.496681 0.277778
vt 0.485061 0.202106
vt 0.508384 0.109548
vt 0.407344 0.158483
vt 0.508780 0.105076
vt 0.419082 0.073838
vt 0.400573 0.014949
vt 0.270594 0.103957
vt 0.314850 0.052387
vt 0.312935 0.030206
vt 0.261534 0.000459
vt 0.491267 0.045008
vt 0.000462 0.276132
vt 0.035190 0.227238
vt 0.232603 0.011662
vt 0.258227 0.276543
vt 0.204825 0.273283
vt 0.036638 0.209281
vt 0.173057 0.079419
vt 0.185739 0.043421
vt 0.308201 0.226575
vt 0.213956 0.021579
vt 0.141118 0.005969
vt 0.117837 0.021579
vt 0.734338 0.075758
vt 0.736874 0.081487
vt 0.679926 0.120339
vt 0.621691 0.097987
vt 0.700399 0.159679
vt 0.642481 0.124394
vt 0.648373 0.178604
vt 0.600277 0.160110
vt 0.768996 0.178604
vt 0.784196 0.094083
vt 0.528189 0.941690
vt 0.424677 0.941690
vt 0.508682 0.875574
vt 0.604134 0.765415
vt 0.607648 0.770979
vt 0.618807 0.853535
vt 0.528259 0.800760
vt 0.708945 0.825461
vt 0.729667 0.794232
vt 0.494917 0.853535
vt 0.611649 0.765381
vt 0.917283 0.709134
vt 0.949630 0.709366
vt 0.943460 0.704727
vt 0.949630 0.702020
vt 0.290962 0.329507
vt 0.214914 0.342447
vt 0.177025 0.303132
vt 0.222002 0.372669
vt 0.154189 0.285667
vt 0.305938 0.283682
vt 0.338924 0.289746
vt 0.375887 0.332500
vt 0.280657 0.402672
vt 0.391233 0.278696
vt 0.428591 0.328921
vt 0.498614 0.300698
vt 0.447323 0.329391
vt 0.138083 0.342533
vt 0.075862 0.349843
vt 0.073940 0.336326
vt 0.077495 0.456071
vt 0.117473 0.423657
vt 0.077436 0.460126
vt 0.164386 0.523530
vt 0.230278 0.489329
vt 0.061460 0.526708
vt 0.160662 0.555755
vt 0.228243 0.577204
vt 0.274185 0.470055
vt 0.296757 0.580808
vt 0.097647 0.580808
vt 0.238190 0.406212
vt 0.308213 0.423455
vt 0.350768 0.353994
vt 0.406192 0.359504
vt 0.347967 0.359504
vt 0.754105 0.915815
vt 0.763367 0.913223
vt 0.794362 0.932507
vt 0.707486 0.932507
vt 0.090111 0.957300
vt 0.159267 0.957300
vt 0.166821 0.928834
vt 0.151370 0.930133
vt 0.612003 0.928988
vt 0.597505 0.992195
vt 0.667001 0.992195
vt 0.682532 0.926997
vt 0.719560 0.911387
vt 0.837800 0.911387
vt 0.830459 0.856552
vt 0.712107 0.847107
vt 0.599353 0.731807
vt 0.616913 0.698347
vt 0.616913 0.760790
vt 0.962569 0.214486
vt 0.982401 0.165748
vt 0.985675 0.167109
vt 0.985675 0.286042
vt 0.797135 0.118916
vt 0.736632 0.116162
vt 0.702865 0.118916
vt 0.409889 0.941690
vt 0.384486 0.935262
vt 0.350591 0.940095
vt 0.348891 0.941690
vt 0.938540 0.934165
vt 0.955176 0.947199
vt 0.955176 0.893021
vt 0.940922 0.914921
vt 0.068275 0.879108
vt 0.001386 0.876451
vt 0.073475 0.759871
vt 0.073475 0.879247
vt 0.986599 0.328283
vt 0.986599 0.376033
vt 0.970887 0.367644
vt 0.478281 0.860882
vt 0.471811 0.860729
vt 0.478281 0.798439
vt 0.005188 0.215952
vt 0.008780 0.202652
vt 0.004159 0.195485
vt 0.004507 0.252066
vt 0.008780 0.148301
vt 0.995841 0.911387
vt 0.995841 0.973829
vt 0.993993 0.947776
vt 0.469039 0.492654
vt 0.469039 0.438476
vt 0.460570 0.492147
vt 0.459797 0.488144
vt 0.988447 0.129017
vt 0.955903 0.105142
vt 0.920055 0.129017
vt 0.998614 0.242883
vt 0.998614 0.310836
vt 0.988447 0.302405
vt 0.008780 0.658861
vt 0.008780 0.702020
vt 0.003235 0.670991
vt 0.763863 0.193297
vt 0.739106 0.174013
vt 0.703789 0.193297
vt 0.325786 0.407953
vt 0.330074 0.422865
vt 0.436069 0.422865
vt 0.436691 0.354913
vt 0.932070 0.106979
vt 0.919486 0.041714
vt 0.818022 0.106979
vt 0.812847 0.001377
vt 0.313771 0.933425
vt 0.421904 0.864555
vt 0.418327 0.933425
vt 0.319604 0.901305
vt 0.091035 0.973829
vt 0.001386 0.973829
vt 0.037869 0.908138
vt 0.070743 0.904959
vt 0.476433 0.550796
vt 0.493993 0.469697
vt 0.493993 0.554178
vt 0.766731 0.945870
vt 0.835028 0.940771
vt 0.835028 0.958219
vt 0.750000 0.941198
vt 0.413586 0.994615
vt 0.407198 0.998623
vt 0.361830 0.998623
vt 0.369720 0.983012
vt 0.671442 0.994031
vt 0.716812 0.994031
vt 0.679332 0.978421
vt 0.723198 0.990022
vt 0.993993 0.748463
vt 0.997689 0.680900
vt 0.997689 0.765381
vt 0.801756 0.419192
vt 0.797135 0.402414
vt 0.797890 0.370534
vt 0.801756 0.370523
vt 0.958777 0.459596
vt 0.923752 0.367407
vt 0.967190 0.435437
vt 0.967190 0.342975
vt 0.967190 0.904040
vt 0.967190 0.780992
vt 0.928929 0.822046
vt 0.925601 0.831047
vt 0.499538 0.999541
vt 0.577172 0.999541
vt 0.548335 0.930670
vt 0.501388 0.968419
vt 0.814569 0.538922
vt 0.825786 0.668962
vt 0.736035 0.518224
vt 0.747753 0.488660
vt 0.825786 0.479798
vt 0.735213 0.638698
vt 0.791022 0.777319
vt 0.764787 0.779155
vt 0.829482 0.779155
vt 0.787893 0.369605
vt 0.755545 0.341619
vt 0.787893 0.286042
vt 0.026344 0.033517
vt 0.091959 0.033517
vt 0.022643 0.024725
vt 0.086187 0.016988
vt 0.296211 0.649679
vt 0.231722 0.626080
vt 0.296211 0.622130
vt 0.228743 0.634002
vt 0.844270 0.935262
vt 0.928758 0.872254
vt 0.872897 0.839761
vt 0.935767 0.935262
vt 0.799908 0.221763
vt 0.799908 0.284206
vt 0.781423 0.235042
vt 0.652856 0.512856
vt 0.618762 0.514692
vt 0.654806 0.514692
vt 0.347043 0.867309
vt 0.326710 0.804548
vt 0.347043 0.756198
vt 0.989372 0.560606
vt 0.989372 0.671717
vt 0.973660 0.577325
vt 0.828502 0.524793
vt 0.823937 0.594442
vt 0.834104 0.525518
vt 0.834104 0.614784
usemtl baked
f 394/394 395/395 396/396
f 394/394 397/397 395/395
f 543/543 544/544 545/545
f 546/546 543/543 545/545
f 435/435 433/433 432/432
f 432/432 433/433 434/434
f 444/444 445/445 446/446
f 136/136 137/137 138/138
f 136/136 139/139 137/137
f 139/139 140/140 137/137
f 139/139 141/141 140/140
f 142/142 136/136 138/138
f 142/142 138/138 143/143
f 33/33 34/34 35/35
f 34/34 36/36 35/35
f 56/56 58/58 59/59
f 60/60 56/56 59/59
f 490/490 492/492 491/491
f 491/491 492/492 493/493
f 486/486 487/487 488/488
f 547/547 548/548 549/549
f 547/547 549/549 550/550
f 551/551 552/552 553/553
f 554/554 551/551 553/553
f 72/72 65/65 63/63
f 57/57 72/72 63/63
f 488/488 490/490 489/489
f 489/489 490/490 491/491
f 496/496 497/497 498/498
f 490/490 488/488 494/494
f 555/555 556/556 557/557
f 557/557 558/558 555/555
f 487/487 495/495 488/488
f 559/559 560/560 561/561
f 562/562 563/563 564/564
f 565/565 562/562 564/564
f 566/566 567/567 568/568
f 365/365 366/366 367/367
f 569/569 570/570 571/571
f 569/569 571/571 572/572
f 573/573 574/574 575/575
f 573/573 575/575 576/576
f 577/577 578/578 579/579
f 580/580 577/577 579/579
f 67/67 62/62 64/64
f 70/70 62/62 67/67
f 228/228 227/227 234/234
f 228/228 234/234 230/230
f 587/587 590/590 588/588
f 587/587 588/588 589/589
f 598/598 597/597 596/596
f 595/595 596/596 597/597
f 57/57 63/63 62/62
f 57/57 62/62 58/58
f 71/71 72/72 57/57
f 61/61 71/71 57/57
f 227/227 226/226 225/225
f 226/226 227/227 228/228
f 235/235 223/223 225/225
f 235/235 225/225 226/226
f 56/56 61/61 57/57
f 56/56 57/57 58/58
f 68/68 79/79 61/61
f 61/61 79/79 71/71
f 584/584 585/585 586/586
f 592/592 593/593 594/594
f 599/599 600/600 601/601
f 605/605 606/606 607/607
f 608/608 609/609 610/610
f 602/602 603/603 604/604
f 314/314 315/315 311/311
f 311/311 313/313 314/314
f 52/52 50/50 49/49
f 474/474 475/475 455/455
f 49/49 50/50 51/51
f 455/455 454/454 474/474
f 125/125 126/126 127/127
f 126/126 128/128 127/127
f 611/611 612/612 613/613
f 611/611 613/613 614/614
f 231/231 230/230 232/232
f 230/230 233/233 232/232
f 229/229 228/228 230/230
f 229/229 230/230 231/231
f 616/616 618/618 617/617
f 615/615 616/616 617/617
f 539/539 535/535 538/538
f 538/538 535/535 531/531
f 514/514 519/519 538/538
f 519/519 539/539 538/538
f 105/105 106/106 107/107
f 106/106 108/108 107/107
f 109/109 105/105 110/110
f 109/109 106/106 105/105
f 46/46 47/47 48/48
f 622/622 620/620 619/619
f 619/619 620/620 621/621
f 623/623 624/624 625/625
f 623/623 625/625 626/626
f 534/534 535/535 536/536
f 531/531 535/535 534/534
f 115/115 116/116 117/117
f 115/115 117/117 120/120
f 119/119 116/116 118/118
f 118/118 116/116 115/115
f 181/181 183/183 184/184
f 183/183 186/186 184/184
f 178/178 177/177 180/180
f 380/380 379/379 378/378
f 11/11 12/12 13/13
f 477/477 478/478 451/451
f 477/477 451/451 457/457
f 16/16 15/15 17/17
f 14/14 15/15 16/16
f 132/132 129/129 131/131
f 129/129 130/130 131/131
f 642/642 643/643 644/644
f 627/627 628/628 629/629
f 645/645 646/646 647/647
f 645/645 647/647 648/648
f 412/412 413/413 414/414
f 638/638 639/639 640/640
f 639/639 641/641 640/640
f 30/30 31/31 32/32
f 630/630 631/631 632/632
f 633/633 631/631 630/630
f 634/634 635/635 636/636
f 637/637 634/634 636/636
f 418/418 419/419 420/420
f 194/194 195/195 196/196
f 197/197 198/198 199/199
f 174/174 175/175 176/176
f 174/174 176/176 182/182
f 178/178 174/174 182/182
f 178/178 182/182 179/179
f 649/649 650/650 651/651
f 140/140 146/146 145/145
f 137/137 140/140 145/145
f 650/650 652/652 651/651
f 177/177 178/178 179/179
f 377/377 378/378 379/379
f 425/425 426/426 427/427
f 495/495 487/487 486/486
f 519/519 511/511 518/518
f 486/486 488/488 489/489
f 653/653 655/655 656/656
f 653/653 654/654 655/655
f 353/353 354/354 355/355
f 356/356 353/353 355/355
f 334/334 333/333 336/336
f 333/333 334/334 335/335
f 403/403 401/401 402/402
f 401/401 398/398 402/402
f 657/657 658/658 659/659
f 657/657 659/659 660/660
f 517/517 511/511 516/516
f 518/518 511/511 517/517
f 516/516 511/511 513/513
f 511/511 512/512 513/513
f 540/540 541/541 542/542
f 340/340 341/341 342/342
f 383/383 382/382 384/384
f 321/321 320/320 325/325
f 320/320 321/321 322/322
f 326/326 320/320 327/327
f 326/326 325/325 320/320
f 53/53 54/54 55/55
f 249/249 247/247 246/246
f 321/321 323/323 322/322
f 321/321 324/324 323/323
f 398/398 399/399 400/400
f 401/401 399/399 398/398
f 381/381 382/382 383/383
f 399/399 405/405 404/404
f 399/399 404/404 400/400
f 328/328 323/323 324/324
f 328/328 329/329 323/323
f 258/258 259/259 260/260
f 263/263 260/260 259/259
f 260/260 262/262 261/261
f 258/258 260/260 261/261
f 180/180 177/177 181/181
f 181/181 177/177 183/183
f 504/504 503/503 500/500
f 506/506 504/504 500/500
f 661/661 662/662 663/663
f 662/662 666/666 663/663
f 89/89 92/92 93/93
f 94/94 93/93 92/92
f 94/94 97/97 96/96
f 94/94 96/96 93/93
f 75/75 76/76 77/77
f 78/78 75/75 77/77
f 184/184 186/186 187/187
f 184/184 187/187 188/188
f 97/97 99/99 98/98
f 97/97 98/98 96/96
f 62/62 63/63 64/64
f 63/63 66/66 64/64
f 66/66 65/65 74/74
f 63/63 65/65 66/66
f 665/665 661/661 664/664
f 499/499 500/500 501/501
f 499/499 501/501 502/502
f 499/499 506/506 500/500
f 661/661 663/663 664/664
f 507/507 508/508 509/509
f 500/500 503/503 501/501
f 207/207 211/211 210/210
f 667/667 668/668 669/669
f 144/144 142/142 143/143
f 157/157 142/142 144/144
f 75/75 70/70 67/67
f 75/75 67/67 76/76
f 59/59 58/58 62/62
f 59/59 62/62 70/70
f 99/99 100/100 98/98
f 100/100 101/101 98/98
f 673/673 674/674 675/675
f 674/674 676/676 675/675
f 362/362 363/363 360/360
f 363/363 364/364 360/360
f 43/43 44/44 45/45
f 100/100 103/103 101/101
f 185/185 178/178 180/180
f 581/581 582/582 583/583
f 589/589 588/588 591/591
f 288/288 283/283 287/287
f 283/283 285/285 287/287
f 677/677 678/678 679/679
f 283/283 284/284 285/285
f 284/284 292/292 285/285
f 677/677 680/680 678/678
f 204/204 205/205 206/206
f 37/37 38/38 39/39
f 255/255 256/256 257/257
f 681/681 684/684 682/682
f 681/681 682/682 683/683
f 217/217 209/209 216/216
f 685/685 686/686 687/687
f 209/209 215/215 216/216
f 216/216 215/215 218/218
f 532/532 533/533 537/537
f 292/292 293/293 285/285
f 207/207 210/210 208/208
f 208/208 210/210 213/213
f 187/187 189/189 188/188
f 210/210 206/206 213/213
f 213/213 212/212 208/208
f 213/213 214/214 212/212
f 213/213 206/206 205/205
f 213/213 205/205 214/214
f 246/246 247/247 248/248
f 409/409 410/410 411/411
f 502/502 501/501 505/505
f 207/207 208/208 209/209
f 670/670 671/671 672/672
f 515/515 512/512 514/514
f 515/515 514/514 524/524
f 525/525 515/515 524/524
f 526/526 515/515 525/525
f 524/524 514/514 538/538
f 524/524 538/538 528/528
f 528/528 531/531 530/530
f 528/528 538/538 531/531
f 290/290 291/291 289/289
f 527/527 528/528 529/529
f 528/528 530/530 529/529
f 289/289 286/286 290/290
f 525/525 524/524 527/527
f 524/524 528/528 527/527
f 281/281 286/286 282/282
f 286/286 289/289 282/282
f 92/92 89/89 91/91
f 92/92 91/91 95/95
f 531/531 534/534 533/533
f 102/102 95/95 91/91
f 104/104 102/102 91/91
f 530/530 531/531 533/533
f 371/371 370/370 369/369
f 368/368 369/369 370/370
f 529/529 530/530 532/532
f 532/532 530/530 533/533
f 282/282 284/284 283/283
f 281/281 282/282 283/283
f 208/208 212/212 209/209
f 209/209 212/212 215/215
f 89/89 90/90 91/91
f 164/164 165/165 166/166
f 688/688 689/689 690/690
f 451/451 478/478 452/452
f 436/436 438/438 439/439
f 317/317 316/316 319/319
f 316/316 317/317 318/318
f 453/453 454/454 455/455
f 453/453 452/452 454/454
f 84/84 82/82 83/83
f 479/479 453/453 455/455
f 278/278 279/279 280/280
f 346/346 348/348 344/344
f 346/346 344/344 343/343
f 239/239 237/237 236/236
f 239/239 240/240 237/237
f 483/483 484/484 485/485
f 236/236 237/237 238/238
f 133/133 134/134 147/147
f 133/133 147/147 153/153
f 347/347 343/343 345/345
f 343/343 344/344 345/345
f 148/148 149/149 150/150
f 150/150 149/149 151/151
f 510/510 507/507 509/509
f 18/18 21/21 19/19
f 18/18 19/19 20/20
f 137/137 152/152 138/138
f 137/137 155/155 152/152
f 10/10 8/8 7/7
f 7/7 8/8 9/9
f 165/165 167/167 166/166
f 165/165 164/164 167/167
f 151/151 153/153 154/154
f 133/133 153/153 151/151
f 1/1 2/2 3/3
f 391/391 392/392 393/393
f 174/174 178/178 185/185
f 155/155 156/156 134/134
f 143/143 138/138 152/152
f 143/143 152/152 149/149
f 158/158 161/161 159/159
f 158/158 159/159 160/160
f 144/144 143/143 149/149
f 144/144 149/149 148/148
f 4/4 5/5 6/6
f 149/149 152/152 151/151
f 152/152 133/133 151/151
f 200/200 201/201 202/202
f 200/200 202/202 203/203
f 162/162 163/163 161/161
f 162/162 161/161 158/158
f 152/152 155/155 133/133
f 155/155 134/134 133/133
f 29/29 27/27 26/26
f 24/24 22/22 23/23
f 22/22 18/18 23/23
f 26/26 27/27 28/28
f 192/192 193/193 190/190
f 133/133 134/134 135/135
f 428/428 430/430 431/431
f 428/428 429/429 430/430
f 271/271 272/272 273/273
f 459/459 482/482 456/456
f 190/190 191/191 192/192
f 190/190 193/193 191/191
f 463/463 462/462 461/461
f 462/462 460/460 461/461
f 219/219 220/220 221/221
f 222/222 220/220 219/219
f 456/456 457/457 450/450
f 456/456 459/459 457/457
f 421/421 422/422 423/423
f 423/423 422/422 424/424
f 436/436 437/437 438/438
f 80/80 81/81 82/82
f 82/82 81/81 83/83
f 388/388 389/389 390/390
f 448/448 447/447 444/444
f 448/448 452/452 453/453
f 448/448 451/451 452/452
f 311/311 309/309 312/312
f 313/313 311/311 312/312
f 458/458 449/449 470/470
f 470/470 449/449 469/469
f 470/470 472/472 471/471
f 470/470 469/469 472/472
f 297/297 298/298 299/299
f 298/298 301/301 299/299
f 449/449 450/450 448/448
f 449/449 448/448 444/444
f 458/458 456/456 449/449
f 456/456 450/450 449/449
f 352/352 349/349 351/351
f 349/349 350/350 351/351
f 450/450 457/457 451/451
f 450/450 451/451 448/448
f 68/68 61/61 56/56
f 69/69 68/68 56/56
f 250/250 251/251 252/252
f 251/251 253/253 252/252
f 254/254 252/252 253/253
f 243/243 244/244 245/245
f 522/522 521/521 520/520
f 522/522 523/523 521/521
f 520/520 521/521 518/518
f 520/520 518/518 517/517
f 223/223 224/224 225/225
f 691/691 692/692 693/693
f 694/694 695/695 696/696
f 85/85 88/88 86/86
f 85/85 86/86 87/87
f 267/267 268/268 269/269
f 267/267 269/269 270/270
f 111/111 112/112 113/113
f 114/114 112/112 111/111
f 461/461 460/460 456/456
f 460/460 459/459 456/456
f 458/458 465/465 461/461
f 458/458 461/461 456/456
f 274/274 277/277 275/275
f 274/274 275/275 276/276
f 22/22 25/25 21/21
f 22/22 21/21 18/18
f 241/241 236/236 238/238
f 242/242 236/236 241/241
f 406/406 407/407 408/408
f 264/264 265/265 266/266
f 473/473 466/466 468/468
f 468/468 466/466 467/467
f 467/467 465/465 458/458
f 467/467 458/458 470/470
f 463/463 461/461 464/464
f 464/464 461/461 465/465
f 698/698 700/700 699/699
f 697/697 698/698 699/699
f 468/468 467/467 471/471
f 467/467 470/470 471/471
f 466/466 464/464 465/465
f 466/466 465/465 467/467
f 73/73 59/59 70/70
f 75/75 73/73 70/70
f 488/488 486/486 495/495
f 514/514 511/511 519/519
f 511/511 514/514 512/512
f 415/415 416/416 417/417
f 294/294 295/295 296/296
f 168/168 171/171 170/170
f 170/170 171/171 172/172
f 361/361 362/362 360/360
f 361/361 360/360 358/358
f 337/337 338/338 339/339
f 302/302 303/303 300/300
f 167/167 169/169 166/166
f 166/166 169/169 173/173
f 298/298 302/302 300/300
f 298/298 300/300 301/301
f 358/358 360/360 359/359
f 357/357 358/358 359/359
f 169/169 168/168 170/170
f 167/167 168/168 169/169
f 40/40 41/41 42/42
f 376/376 373/373 372/372
f 372/372 373/373 374/374
f 373/373 375/375 374/374
f 308/308 310/310 305/305
f 309/309 310/310 308/308
f 312/312 309/309 308/308
f 308/308 305/305 304/304
f 304/304 305/305 306/306
f 305/305 307/307 306/306
f 472/472 469/469 445/445
f 472/472 445/445 476/476
f 476/476 445/445 480/480
f 476/476 480/480 481/481
f 121/121 124/124 122/122
f 121/121 122/122 123/123
f 441/441 443/443 442/442
f 440/440 441/441 442/442
f 385/385 386/386 387/387
f 330/330 331/331 332/332
f 469/469 449/449 445/445
f 445/445 449/449 444/444
f 445/445 447/447 480/480
f 444/444 447/447 445/445
