mtllib P-24_tex.mtl
v 2.225149 0.373204 0.232054
v 2.107481 0.435010 0.336279
v 2.199329 0.196742 0.380268
v 2.513937 0.564193 -0.173863
v 2.409892 0.443310 -0.339593
v 2.546910 0.595525 -0.086874
v 0.900279 0.540231 0.432519
v 0.473251 0.665655 0.437315
v 1.647361 0.720265 0.446731
v 1.345694 0.557420 0.435430
v 1.688926 0.585420 0.444869
v 1.345694 0.557420 0.435430
v 1.647361 0.720265 0.446731
v -3.398135 0.587103 -0.214845
v -2.053234 0.593301 -0.377223
v -2.589078 0.588551 -0.338149
v -3.391530 0.605210 0.126821
v -3.265488 0.586591 0.287659
v -2.803120 0.635526 0.407931
v 1.982056 0.293936 -0.412703
v 2.428539 0.293320 -0.427997
v 1.713502 0.518260 -0.524232
v 2.126949 0.000000 -0.503581
v 1.986293 0.247288 -0.431430
v 2.319147 0.180497 -0.347205
v 0.968064 0.802030 -0.035310
v 0.943586 0.802765 -0.164136
v 1.701628 0.853831 -0.051569
v 1.708085 0.873626 -0.369789
v 0.213774 0.801463 -0.161668
v 1.009509 0.803197 -0.212769
v 0.166111 0.800701 0.017998
v -0.220421 0.800792 -0.044173
v 0.283196 0.800831 0.023747
v 0.578483 0.800660 0.123569
v 1.668993 0.859874 0.061957
v 2.449855 0.801378 -0.047852
v 2.458096 0.803913 0.008186
v 1.386647 0.865740 0.267581
v 2.598163 0.746266 -0.215324
v -1.305162 0.594119 -0.383726
v -2.053234 0.593301 -0.377223
v -1.984171 0.842711 -0.394092
v -2.057253 0.842826 -0.403063
v -2.806492 0.844109 -0.384074
v -2.869689 0.633842 -0.448072
v -0.749386 0.608366 -0.478496
v -3.334945 0.801636 -0.216370
v -3.398135 0.587103 -0.214845
v -0.595950 0.800308 0.300681
v -1.105939 0.673976 0.437609
v 0.026839 0.596303 0.439556
v -1.385720 0.592510 0.380469
v -2.795314 0.464140 0.342131
v -2.666482 0.438158 0.347469
v -2.571402 0.605782 0.408387
v -2.803120 0.635526 0.407931
v -3.265488 0.586591 0.287659
v -2.818063 0.360799 0.368165
v -2.653210 0.803169 0.289634
v -1.361116 0.801706 0.311017
v -3.285511 0.838269 0.289290
v -3.283881 0.839369 0.288883
v -3.391530 0.605210 0.126821
v -2.064890 0.802577 0.127925
v 1.708085 0.873626 -0.369789
v 1.009509 0.803197 -0.212769
v 1.701628 0.853831 -0.051569
v 0.943586 0.802765 -0.164136
v 0.797372 0.854623 -0.371973
v 0.213774 0.801463 -0.161668
v 1.647361 0.720265 0.446731
v 1.345694 0.557420 0.435430
v 1.667736 0.616818 0.445379
v 1.688926 0.585420 0.444869
v 0.473251 0.665655 0.437315
v 0.900279 0.540231 0.432519
v -3.398135 0.587103 -0.214845
v -2.869689 0.633842 -0.448072
v -2.053234 0.593301 -0.377223
v 2.559268 0.800487 -0.449062
v 1.708443 0.622368 -0.514954
v 1.708254 0.870124 -0.426967
v 2.462263 0.736256 -0.446789
v 1.668860 0.753773 0.446787
v 2.453853 0.802267 0.128604
v 2.410307 0.799737 0.416699
v 1.980349 0.818900 0.137215
v 1.708254 0.870124 -0.426967
v 1.009509 0.803197 -0.212769
v 1.708085 0.873626 -0.369789
v 2.559268 0.800487 -0.449062
v 0.926619 0.851654 -0.377223
v 0.574338 0.859473 -0.465400
v 2.598163 0.746266 -0.215324
v 2.449855 0.801378 -0.047852
v 1.701628 0.853831 -0.051569
v 2.325288 0.629835 -0.212555
v 2.462263 0.736256 -0.446789
v 2.601865 0.722003 -0.214046
v 1.708443 0.622368 -0.514954
v 2.559268 0.800487 -0.449062
v -0.569526 0.638021 -0.051104
v 0.015878 0.641642 -0.146164
v 0.091455 0.639728 0.110118
v -0.561116 0.637168 0.118692
v -1.361116 0.633471 -0.075261
v -1.361116 0.633144 0.038091
v -1.982232 0.630287 0.185951
v -0.583057 0.636896 0.150833
v 0.174401 0.638479 0.282447
v -2.160989 0.629729 0.110097
v -2.097771 0.630451 -0.151382
v 1.158709 0.639761 0.164914
v 1.729605 0.638637 0.120607
v 1.681858 0.638352 0.199852
v 1.183574 0.640063 0.121247
v 0.921729 0.639475 0.218107
v 0.902724 0.640904 0.064107
v 0.192591 0.642263 -0.158522
v 0.972125 0.642499 -0.162046
v 0.983085 0.642476 -0.376076
v 2.330079 0.630895 -0.107780
v 0.425138 0.639315 -0.375994
v -3.394137 0.588331 -0.059466
v -3.398135 0.587103 -0.214845
v -3.394566 0.593840 0.080831
v -0.285936 0.597604 -0.375796
v -1.250874 0.595128 -0.374947
v -1.904281 0.593425 -0.376026
v -2.589078 0.588551 -0.338149
v -1.105939 0.673976 0.437609
v 0.026839 0.596303 0.439556
v -0.749386 0.608366 -0.478496
v -2.558853 0.593815 0.236223
v -2.571402 0.605782 0.408387
v -1.385720 0.592510 0.380469
v 0.473251 0.665655 0.437315
v 1.647361 0.720265 0.446731
v -3.391530 0.605210 0.126821
v -3.265488 0.586591 0.287659
v 0.926619 0.681656 -0.504016
v -0.488195 0.654802 -0.465082
v 0.779288 0.728767 -0.497567
v -2.666482 0.438158 0.347469
v 0.779288 0.728767 -0.497567
v -0.488195 0.654802 -0.465082
v 0.574338 0.859473 -0.465400
v -0.115434 0.743554 -0.464982
v -0.569526 0.841762 -0.385585
v -0.749386 0.608366 -0.478496
v -1.984171 0.842711 -0.394092
v -0.515652 0.800524 -0.211840
v 0.026839 0.596303 0.439556
v -0.595950 0.800308 0.300681
v 0.122024 0.799742 0.290402
v 0.321529 0.799820 0.290809
v 0.473251 0.665655 0.437315
v -0.434054 0.800484 0.125689
v -0.573706 0.800567 0.136908
v 2.462340 0.304207 0.288544
v 2.225149 0.373204 0.232054
v 2.329510 0.585023 0.147899
v 2.566807 0.570682 0.153533
v 1.688926 0.585420 0.444869
v 1.667736 0.616818 0.445379
v 2.463675 0.288006 0.292319
v 2.229526 0.244138 0.187678
v 1.961084 0.453413 -0.372106
v 2.325288 0.629835 -0.212555
v 2.601865 0.722003 -0.214046
v 2.409892 0.443310 -0.339593
v -0.569526 0.841762 -0.385585
v -0.749386 0.608366 -0.478496
v -0.115434 0.743554 -0.464982
v -0.488195 0.654802 -0.465082
v 1.667736 0.616818 0.445379
v 2.412400 0.548786 0.312408
v 2.414220 0.702537 0.404998
v 2.410307 0.799737 0.416699
v 1.668860 0.753773 0.446787
v 1.647361 0.720265 0.446731
v 1.643026 0.739437 0.447819
v 1.688926 0.585420 0.444869
v 2.107481 0.435010 0.336279
v 2.463675 0.288006 0.292319
v 2.199329 0.196742 0.380268
v 2.566807 0.570682 0.153533
v 2.466106 0.274287 0.302330
v 1.386647 0.865740 0.267581
v 1.980349 0.818900 0.137215
v 0.927539 0.546892 -0.532915
v 0.779288 0.728767 -0.497567
v 0.926619 0.681656 -0.504016
v 0.290004 0.520771 -0.542258
v 1.708443 0.622368 -0.514954
v 1.713502 0.518260 -0.524232
v 0.926619 0.851654 -0.377223
v 0.574338 0.859473 -0.465400
v 2.316920 0.586901 -0.118580
v 2.513937 0.564193 -0.173863
v 2.319140 0.579103 -0.036760
v 2.414276 0.563939 -0.014869
v 1.729605 0.638637 0.120607
v 1.681858 0.638352 0.199852
v 2.329510 0.585023 0.147899
v 1.667736 0.616818 0.445379
v 2.566807 0.570682 0.153533
v 2.558151 0.587420 0.048310
v 2.562661 0.587235 0.125485
v 2.409892 0.443310 -0.339593
v 1.961084 0.453413 -0.372106
v 2.546910 0.595525 -0.086874
v 2.126949 0.000000 -0.503581
v 2.455504 0.131945 -0.466570
v 2.433197 0.267309 -0.430663
v 1.986293 0.247288 -0.431430
v -2.550872 0.448153 0.282099
v -2.548750 0.381473 0.288599
v -3.265488 0.586591 0.287659
v -2.936104 0.394333 0.279801
v -2.558853 0.593815 0.236223
v 0.926619 0.681656 -0.504016
v 1.713502 0.518260 -0.524232
v 1.708443 0.622368 -0.514954
v 0.927539 0.546892 -0.532915
v 2.199835 0.288292 -0.249419
v 2.416328 0.391200 -0.372005
v 1.961084 0.453413 -0.372106
v 1.713502 0.518260 -0.524232
v -2.936104 0.394333 0.279801
v -2.795089 0.177783 0.270738
v -2.548750 0.381473 0.288599
v -2.645889 0.165711 0.286674
v 2.325288 0.629835 -0.212555
v 1.961084 0.453413 -0.372106
v 2.316920 0.586901 -0.118580
v 2.330079 0.630895 -0.107780
v 1.713502 0.518260 -0.524232
v 1.708443 0.622368 -0.514954
v 0.574338 0.859473 -0.465400
v 0.926619 0.681656 -0.504016
v 0.926619 0.851654 -0.377223
v 0.779288 0.728767 -0.497567
v -0.115434 0.743554 -0.464982
v -0.488195 0.654802 -0.465082
v 2.416328 0.391200 -0.372005
v 1.982056 0.293936 -0.412703
v 1.961084 0.453413 -0.372106
v 2.428539 0.293320 -0.427997
v 1.986293 0.247288 -0.431430
v 2.433197 0.267309 -0.430663
v 1.713502 0.518260 -0.524232
v 2.126949 0.000000 -0.503581
v 2.455504 0.131945 -0.466570
v -2.785414 0.261198 0.117304
v -2.785119 0.313021 0.122353
v -2.664817 0.287305 0.103129
v -2.778852 0.261395 0.115306
v -2.548750 0.381473 0.288599
v -2.936104 0.394333 0.279801
v 1.986293 0.247288 -0.431430
v 2.233411 0.134498 -0.349017
v 2.319147 0.180497 -0.347205
v 2.126949 0.000000 -0.503581
v -2.645889 0.165711 0.286674
v -2.778852 0.261395 0.115306
v -2.548750 0.381473 0.288599
v -1.305162 0.594119 -0.383726
v -0.749386 0.608366 -0.478496
v -1.904281 0.593425 -0.376026
v -2.589078 0.588551 -0.338149
v 2.319147 0.180497 -0.347205
v 1.986293 0.247288 -0.431430
v 2.433197 0.267309 -0.430663
v 2.410328 0.241830 -0.371496
v 2.466106 0.274287 0.302330
v 2.229526 0.244138 0.187678
v 2.463204 0.282621 0.287325
v 2.199329 0.196742 0.380268
v -2.785414 0.261198 0.117304
v -2.795089 0.177783 0.270738
v -2.785119 0.313021 0.122353
v -2.936104 0.394333 0.279801
v -2.645889 0.165711 0.286674
v -2.778852 0.261395 0.115306
v -2.936104 0.394333 0.279801
v -2.818063 0.360799 0.368165
v -3.265488 0.586591 0.287659
v 1.688926 0.585420 0.444869
v 2.225149 0.373204 0.232054
v 2.107481 0.435010 0.336279
v 1.729605 0.638637 0.120607
v 2.330079 0.630895 -0.107780
v 2.316920 0.586901 -0.118580
v 1.647361 0.720265 0.446731
v 1.681858 0.638352 0.199852
v 1.667736 0.616818 0.445379
v -2.053234 0.593301 -0.377223
v -1.305162 0.594119 -0.383726
v -2.589078 0.588551 -0.338149
v -2.548750 0.381473 0.288599
v -2.778852 0.261395 0.115306
v -2.664817 0.287305 0.103129
v 0.797372 0.854623 -0.371973
v 0.926619 0.851654 -0.377223
v 1.009509 0.803197 -0.212769
v 0.213774 0.801463 -0.161668
v 0.574338 0.859473 -0.465400
v -0.220421 0.800792 -0.044173
v -0.515652 0.800524 -0.211840
v 2.275636 0.303447 0.076501
v 2.161664 0.194628 0.024067
v 2.229526 0.244138 0.187678
v 2.225149 0.373204 0.232054
v 2.107481 0.435010 0.336279
v 2.199329 0.196742 0.380268
v 0.574338 0.859473 -0.465400
v 0.797372 0.854623 -0.371973
v 1.009509 0.803197 -0.212769
v -2.936104 0.394333 0.279801
v -2.818063 0.360799 0.368165
v -2.795314 0.464140 0.342131
v -2.778726 0.358591 0.368404
v -2.666482 0.438158 0.347469
v -2.550872 0.448153 0.282099
v -2.558853 0.593815 0.236223
v -2.548750 0.381473 0.288599
v -3.265488 0.586591 0.287659
v -3.357701 0.585669 0.098223
v -3.391530 0.605210 0.126821
v -3.394566 0.593840 0.080831
v 2.566807 0.570682 0.153533
v 2.562661 0.587235 0.125485
v 2.414220 0.702537 0.404998
v 2.558151 0.587420 0.048310
v 2.546910 0.595525 -0.086874
v 2.449855 0.801378 -0.047852
v 2.458096 0.803913 0.008186
v 2.453853 0.802267 0.128604
v 2.410307 0.799737 0.416699
v 2.598163 0.746266 -0.215324
v 2.601865 0.722003 -0.214046
v 2.559268 0.800487 -0.449062
v 2.409892 0.443310 -0.339593
v 2.410328 0.241830 -0.371496
v 2.428539 0.293320 -0.427997
v 2.416328 0.391200 -0.372005
v 2.433197 0.267309 -0.430663
v 2.199835 0.288292 -0.249419
v 2.319147 0.180497 -0.347205
v 1.986293 0.247288 -0.431430
v 1.982056 0.293936 -0.412703
v -3.391530 0.605210 0.126821
v -3.394566 0.593840 0.080831
v -3.265488 0.586591 0.287659
v -3.357701 0.585669 0.098223
v 2.466106 0.274287 0.302330
v 2.463204 0.282621 0.287325
v 2.462340 0.304207 0.288544
v 2.229526 0.244138 0.187678
v -2.778726 0.358591 0.368404
v -2.818063 0.360799 0.368165
v -2.548750 0.381473 0.288599
v -2.936104 0.394333 0.279801
v 2.466106 0.274287 0.302330
v 2.462340 0.304207 0.288544
v 2.463675 0.288006 0.292319
v -0.569526 0.841762 -0.385585
v -1.984171 0.842711 -0.394092
v -0.639207 0.800523 -0.216021
v -0.515652 0.800524 -0.211840
v -1.630506 0.801659 -0.228797
v -2.057253 0.842826 -0.403063
v -2.112975 0.802029 -0.299169
v -3.334945 0.801636 -0.216370
v -2.806492 0.844109 -0.384074
v -0.115434 0.743554 -0.464982
v -0.220421 0.800792 -0.044173
v -0.975680 0.801057 -0.121368
v -0.746492 0.800830 -0.031799
v 0.213774 0.801463 -0.161668
v 0.283196 0.800831 0.023747
v 0.166111 0.800701 0.017998
v -0.573706 0.800567 0.136908
v -0.434054 0.800484 0.125689
v 0.122024 0.799742 0.290402
v -0.595950 0.800308 0.300681
v 0.578483 0.800660 0.123569
v 0.321529 0.799820 0.290809
v -1.365261 0.801656 0.287093
v -1.361116 0.801706 0.311017
v -2.064890 0.802577 0.127925
v -1.303497 0.801578 0.098905
v -2.129612 0.802606 0.101601
v -2.047410 0.802384 -0.050320
v -3.328902 0.804163 -0.023520
v -1.652068 0.801913 -0.045935
v -3.329001 0.802269 -0.048723
v -2.653210 0.803169 0.289634
v -3.394137 0.588331 -0.059466
v -3.394566 0.593840 0.080831
v -3.391530 0.605210 0.126821
v -3.398135 0.587103 -0.214845
v -3.283881 0.839369 0.288883
v -3.285511 0.838269 0.289290
v 1.980349 0.818900 0.137215
v 0.968064 0.802030 -0.035310
v 1.386647 0.865740 0.267581
v 0.283196 0.800831 0.023747
v 0.578483 0.800660 0.123569
v 1.668993 0.859874 0.061957
v 2.410307 0.799737 0.416699
v 1.668860 0.753773 0.446787
v 2.453853 0.802267 0.128604
v 2.458096 0.803913 0.008186
v 1.701628 0.853831 -0.051569
v 2.449855 0.801378 -0.047852
v 0.574338 0.859473 -0.465400
v -0.515652 0.800524 -0.211840
v 0.797372 0.854623 -0.371973
v 0.213774 0.801463 -0.161668
v 0.122024 0.799742 0.290402
v 0.026839 0.596303 0.439556
v 0.473251 0.665655 0.437315
v 0.321529 0.799820 0.290809
v 1.982056 0.293936 -0.412703
v 2.199835 0.288292 -0.249419
v 1.713502 0.518260 -0.524232
v 0.321529 0.799820 0.290809
v 0.578483 0.800660 0.123569
v -0.434054 0.800484 0.125689
v 0.122024 0.799742 0.290402
v 0.213774 0.801463 -0.161668
v 0.283196 0.800831 0.023747
v 0.943586 0.802765 -0.164136
v 0.968064 0.802030 -0.035310
v -0.311074 0.415375 -0.498073
v -0.912097 0.418847 -0.504524
v -0.905633 0.438468 -0.502653
v -0.188235 0.525628 -0.479501
v -0.488195 0.654802 -0.465082
v -0.905633 0.438468 -0.502653
v -0.188235 0.525628 -0.479501
v -0.749386 0.608366 -0.478496
v -0.912097 0.418847 -0.504524
v -0.311074 0.415375 -0.498073
v 1.647361 0.720265 0.446731
v 0.321529 0.799820 0.290809
v 1.643026 0.739437 0.447819
v 0.473251 0.665655 0.437315
v 0.578483 0.800660 0.123569
v 1.386647 0.865740 0.267581
v -0.215369 0.336428 0.439865
v -0.863759 0.337844 0.453406
v -0.019398 0.530660 0.436600
v -1.139936 0.553363 0.447753
v -0.019398 0.530660 0.436600
v -1.139936 0.553363 0.447753
v -0.215369 0.336428 0.439865
v -0.863759 0.337844 0.453406
v 0.026839 0.596303 0.439556
v -1.105939 0.673976 0.437609
v -1.139936 0.553363 0.447753
v -1.105939 0.673976 0.437609
v -0.019398 0.530660 0.436600
v 0.026839 0.596303 0.439556
v -0.935949 0.452013 0.455660
v -0.863759 0.337844 0.453406
v -1.139936 0.553363 0.447753
v -0.862797 0.372396 0.457742
v -1.139936 0.553363 0.447753
v -0.862797 0.372396 0.457742
v -0.935949 0.452013 0.455660
v -0.863759 0.337844 0.453406
v -1.105939 0.673976 0.437609
v 0.122024 0.799742 0.290402
v 0.026839 0.596303 0.439556
v -0.595950 0.800308 0.300681
v -2.685634 0.286276 -0.071561
v -2.836534 0.184296 -0.098155
v -2.791956 0.289911 -0.089183
v -3.171623 0.585847 -0.212863
v -3.042622 0.285832 -0.347955
v -2.591706 0.304148 -0.355388
v -2.595374 0.179565 -0.373158
v -3.043690 0.269252 -0.351672
v -2.585664 0.574682 -0.321475
v -3.052936 0.287726 -0.410206
v -3.046802 0.439310 -0.380009
v -2.604022 0.290253 -0.414387
v -2.608385 0.166906 -0.440344
v -2.597952 0.442574 -0.380707
v -2.585664 0.574682 -0.321475
v -3.048053 0.161143 -0.378036
v -2.605378 0.121827 -0.428323
v -3.048931 0.131090 -0.379080
v -3.171623 0.585847 -0.212863
v -3.043690 0.269252 -0.351672
v -2.836534 0.184296 -0.098155
v -2.595374 0.179565 -0.373158
v -2.691480 0.284311 -0.072434
v -3.048931 0.131090 -0.379080
v -2.605378 0.121827 -0.428323
v -2.775923 0.109192 -0.328665
v -2.841775 0.121964 -0.310521
v -2.595374 0.179565 -0.373158
v -3.398135 0.587103 -0.214845
v -3.171623 0.585847 -0.212863
v -2.589078 0.588551 -0.338149
v -3.394137 0.588331 -0.059466
v -2.585664 0.574682 -0.321475
v -3.375315 0.585699 -0.069977
v -3.048053 0.161143 -0.378036
v -2.841775 0.121964 -0.310521
v -3.043690 0.269252 -0.351672
v -3.048931 0.131090 -0.379080
v -2.595374 0.179565 -0.373158
v -2.604022 0.290253 -0.414387
v -2.591706 0.304148 -0.355388
v -2.585664 0.574682 -0.321475
v -2.597952 0.442574 -0.380707
v -2.608385 0.166906 -0.440344
v -2.605378 0.121827 -0.428323
v -3.052936 0.287726 -0.410206
v -3.043690 0.269252 -0.351672
v -3.042622 0.285832 -0.347955
v -3.048053 0.161143 -0.378036
v -3.171623 0.585847 -0.212863
v -2.791956 0.289911 -0.089183
v -2.836534 0.184296 -0.098155
v -2.691480 0.284311 -0.072434
v -2.685634 0.286276 -0.071561
v -3.375315 0.585699 -0.069977
v -3.357701 0.585669 0.098223
v -3.394566 0.593840 0.080831
v -3.394137 0.588331 -0.059466
v -3.398135 0.587103 -0.214845
v -3.171623 0.585847 -0.212863
v 1.708254 0.870124 -0.426967
v 0.926619 0.681656 -0.504016
v 1.708443 0.622368 -0.514954
v 0.926619 0.851654 -0.377223
v 1.452964 0.888528 -0.356317
v 1.472130 0.888658 -0.403934
v 1.009509 0.803197 -0.212769
v 0.926619 0.851654 -0.377223
v 1.472130 0.888658 -0.403934
v 1.009509 0.803197 -0.212769
v 2.416328 0.391200 -0.372005
v 2.409892 0.443310 -0.339593
v 1.961084 0.453413 -0.372106
v 1.980349 0.818900 0.137215
v 1.668993 0.859874 0.061957
v 2.453853 0.802267 0.128604
v 2.458096 0.803913 0.008186
v -1.385720 0.592510 0.380469
v -1.105939 0.673976 0.437609
v -1.361116 0.801706 0.311017
v -0.595950 0.800308 0.300681
v 2.199329 0.196742 0.380268
v 2.181350 0.072490 0.322085
v 2.229526 0.244138 0.187678
v 2.167221 0.127590 0.274231
v 2.199329 0.196742 0.380268
v 2.229526 0.244138 0.187678
v 2.181350 0.072490 0.322085
v 2.181350 0.072490 0.322085
v 2.167221 0.127590 0.274231
v 2.229526 0.244138 0.187678
v 2.420171 0.036665 0.409721
v 2.181350 0.072490 0.322085
v 2.466106 0.274287 0.302330
v 2.466106 0.274287 0.302330
v 2.181350 0.072490 0.322085
v 2.199329 0.196742 0.380268
v 2.282367 0.335173 -0.206889
v 2.319147 0.180497 -0.347205
v 2.348164 0.244458 -0.055924
v 2.199835 0.288292 -0.249419
v 2.319147 0.180497 -0.347205
v 2.282367 0.335173 -0.206889
v 2.319147 0.180497 -0.347205
v 2.348164 0.244458 -0.055924
v 2.199835 0.288292 -0.249419
v 1.977812 0.889771 0.294526
v 1.668860 0.753773 0.446787
v 2.410307 0.799737 0.416699
v 1.972719 0.889057 0.263866
v 2.453853 0.802267 0.128604
v 1.980349 0.818900 0.137215
v 2.036035 0.892586 -0.169463
v 1.701628 0.853831 -0.051569
v 2.433900 0.889166 -0.169515
v 1.976962 0.900000 -0.215557
v 1.708085 0.873626 -0.369789
v 2.598163 0.746266 -0.215324
v 2.598163 0.746266 -0.215324
v 1.976962 0.900000 -0.215557
v 2.536603 0.889821 -0.211840
v 2.449855 0.801378 -0.047852
v 2.536603 0.889821 -0.211840
v 2.433900 0.889166 -0.169515
v 1.701628 0.853831 -0.051569
v 2.598163 0.746266 -0.215324
v 2.536603 0.889821 -0.211840
v 2.036035 0.892586 -0.169463
v 2.433900 0.889166 -0.169515
v 1.976962 0.900000 -0.215557
v -3.048931 0.131090 -0.379080
v -2.841775 0.121964 -0.310521
v -3.043690 0.269252 -0.351672
v -2.595374 0.179565 -0.373158
v -2.841775 0.121964 -0.310521
v -3.043690 0.269252 -0.351672
v -2.775923 0.109192 -0.328665
v -2.795089 0.108006 0.304746
v -2.645889 0.096645 0.321155
v -2.674105 0.018260 0.455538
v -2.936005 0.019103 0.455742
v -2.575434 0.285199 0.384626
v -2.808536 0.174971 0.413183
v -2.778726 0.358591 0.368404
v -2.818063 0.360799 0.368165
v -2.645889 0.096645 0.321155
v -2.795089 0.108006 0.304746
v -2.808536 0.174971 0.413183
v -2.575434 0.285199 0.384626
v -2.795089 0.177783 0.270738
v -2.795089 0.108006 0.304746
v -2.645889 0.096645 0.321155
v -2.575434 0.285199 0.384626
v -2.808536 0.174971 0.413183
v -2.645889 0.096645 0.321155
v -2.676072 0.134499 0.265784
v -2.645889 0.165711 0.286674
v -2.575434 0.285199 0.384626
v -2.799234 0.128632 0.274650
v -2.795089 0.108006 0.304746
v -2.795089 0.177783 0.270738
v -2.808536 0.174971 0.413183
v -2.795089 0.177783 0.270738
v -2.795089 0.108006 0.304746
v -2.799234 0.128632 0.274650
v -2.778852 0.261395 0.115306
v -2.645889 0.165711 0.286674
v -2.795089 0.177783 0.270738
v -2.785414 0.261198 0.117304
v -2.795089 0.177783 0.270738
v -2.645889 0.165711 0.286674
v -2.808536 0.174971 0.413183
v -2.575434 0.285199 0.384626
v -2.836534 0.184296 -0.098155
v -2.691480 0.284311 -0.072434
v -2.778852 0.261395 0.115306
v -2.785414 0.261198 0.117304
vt 0.355402 0.792471
vt 0.380585 0.775562
vt 0.380585 0.829755
vt 0.121608 0.254090
vt 0.083266 0.259202
vt 0.137693 0.259202
vt 0.074246 0.006381
vt 0.004468 0.037321
vt 0.199431 0.037321
vt 0.148180 0.005624
vt 0.814689 0.209100
vt 0.762388 0.238753
vt 0.819253 0.238753
vt 0.024777 0.800102
vt 0.248985 0.800102
vt 0.160161 0.793967
vt 0.892364 0.828732
vt 0.862242 0.808282
vt 0.784322 0.828732
vt 0.348678 0.538344
vt 0.279041 0.570041
vt 0.404143 0.570041
vt 0.650284 0.876789
vt 0.650284 0.938139
vt 0.601543 0.897360
vt 0.611468 0.417954
vt 0.610382 0.445322
vt 0.732471 0.400118
vt 0.740808 0.465746
vt 0.490371 0.465746
vt 0.622326 0.453498
vt 0.478442 0.429923
vt 0.416328 0.453878
vt 0.497555 0.425374
vt 0.543814 0.396242
vt 0.724527 0.377534
vt 0.855302 0.378055
vt 0.855383 0.366210
vt 0.673441 0.343047
vt 0.883428 0.408643
vt 0.114895 0.542434
vt 0.241559 0.541896
vt 0.229550 0.488295
vt 0.241831 0.488169
vt 0.368813 0.487219
vt 0.379015 0.532149
vt 0.019903 0.539609
vt 0.459912 0.496374
vt 0.470755 0.542434
vt 0.481335 0.411673
vt 0.396947 0.372825
vt 0.584484 0.360496
vt 0.348087 0.379118
vt 0.113655 0.370479
vt 0.134740 0.363703
vt 0.152582 0.399471
vt 0.114671 0.408912
vt 0.035730 0.397790
vt 0.109955 0.348160
vt 0.142325 0.448956
vt 0.355189 0.424656
vt 0.038516 0.466552
vt 0.038800 0.466769
vt 0.006905 0.417284
vt 0.242249 0.466769
vt 0.445043 0.603783
vt 0.559092 0.648244
vt 0.442323 0.670245
vt 0.569400 0.659257
vt 0.595819 0.616899
vt 0.690089 0.670245
vt 0.601387 0.807260
vt 0.550177 0.775562
vt 0.603964 0.785074
vt 0.607230 0.778190
vt 0.406580 0.807260
vt 0.476302 0.776319
vt 0.890739 0.425869
vt 0.861495 0.310709
vt 0.890739 0.143661
vt 0.743704 0.483777
vt 0.885865 0.443252
vt 0.885865 0.499489
vt 0.759865 0.470901
vt 0.785134 0.939162
vt 0.651909 0.878867
vt 0.661238 0.939162
vt 0.730695 0.875767
vt 0.547164 0.607090
vt 0.431106 0.558910
vt 0.547204 0.595270
vt 0.689519 0.611963
vt 0.416817 0.594266
vt 0.357839 0.611963
vt 0.696588 0.561906
vt 0.671830 0.528119
vt 0.546674 0.528420
vt 0.945964 0.065039
vt 0.970136 0.012596
vt 0.993907 0.060565
vt 0.844248 0.002221
vt 0.989057 0.008577
vt 0.467623 0.103249
vt 0.564265 0.082212
vt 0.577066 0.135536
vt 0.469225 0.138615
vt 0.336439 0.099005
vt 0.336486 0.122923
vt 0.233469 0.154943
vt 0.465591 0.145288
vt 0.590959 0.171253
vt 0.203902 0.137972
vt 0.214709 0.083439
vt 0.753831 0.146353
vt 0.848100 0.135529
vt 0.840399 0.151915
vt 0.757903 0.137095
vt 0.714573 0.157721
vt 0.711320 0.125373
vt 0.593520 0.079020
vt 0.722650 0.078176
vt 0.724312 0.033551
vt 0.946917 0.086840
vt 0.631728 0.032690
vt 0.000824 0.098174
vt 0.000537 0.066041
vt 0.000406 0.127116
vt 0.513969 0.034893
vt 0.354542 0.035358
vt 0.246672 0.036080
vt 0.133905 0.043027
vt 0.379300 0.206033
vt 0.566696 0.205119
vt 0.436899 0.010630
vt 0.137616 0.162468
vt 0.134688 0.197529
vt 0.330310 0.203461
vt 0.641237 0.205832
vt 0.835328 0.206033
vt 0.000830 0.136681
vt 0.021132 0.170786
vt 0.715055 0.005889
vt 0.480651 0.012908
vt 0.690120 0.000511
vt 0.105103 0.180209
vt 0.819253 0.527096
vt 0.609213 0.520523
vt 0.787142 0.495707
vt 0.671859 0.508277
vt 0.597913 0.476967
vt 0.565579 0.527096
vt 0.364338 0.458605
vt 0.604351 0.456544
vt 0.113948 0.195808
vt 0.001106 0.220717
vt 0.123075 0.250466
vt 0.157052 0.258180
vt 0.188871 0.221931
vt 0.023877 0.258180
vt 0.000406 0.250750
vt 0.289838 0.790320
vt 0.328212 0.811595
vt 0.308312 0.857362
vt 0.269293 0.850888
vt 0.425056 0.850787
vt 0.428513 0.857362
vt 0.289629 0.786858
vt 0.332674 0.783742
vt 0.389521 0.696830
vt 0.317178 0.696830
vt 0.272543 0.673072
vt 0.327808 0.643661
vt 0.819253 0.932851
vt 0.855808 0.978016
vt 0.850942 0.843047
vt 0.855808 0.922662
vt 0.839829 0.648841
vt 0.743222 0.573721
vt 0.761831 0.549669
vt 0.771353 0.535960
vt 0.852547 0.628744
vt 0.851681 0.637001
vt 0.854464 0.635674
vt 0.834691 0.650758
vt 0.770020 0.624908
vt 0.715170 0.608920
vt 0.739625 0.652863
vt 0.716590 0.549196
vt 0.713647 0.611407
vt 0.930544 0.652863
vt 0.860530 0.501534
vt 0.991139 0.533014
vt 0.960185 0.564203
vt 0.968096 0.533194
vt 0.995532 0.667178
vt 0.978485 0.368684
vt 0.995532 0.367587
vt 0.933794 0.532877
vt 0.937504 0.607301
vt 0.409410 0.712163
vt 0.443421 0.713387
vt 0.405788 0.728733
vt 0.419967 0.739127
vt 0.304315 0.721774
vt 0.292771 0.734492
vt 0.397845 0.766104
vt 0.278229 0.782720
vt 0.434953 0.782720
vt 0.439971 0.760714
vt 0.436955 0.776372
vt 0.437594 0.666006
vt 0.368139 0.632413
vt 0.446385 0.733531
vt 0.488225 0.507669
vt 0.543867 0.533363
vt 0.541174 0.562883
vt 0.466694 0.562883
vt 0.177354 0.947137
vt 0.177498 0.933027
vt 0.058083 0.979039
vt 0.112793 0.937768
vt 0.176732 0.979039
vt 0.756702 0.942229
vt 0.625102 0.971881
vt 0.626543 0.949472
vt 0.755778 0.971881
vt 0.002031 0.689868
vt 0.035337 0.727505
vt 0.027309 0.632288
vt 0.035337 0.571063
vt 0.075955 0.549591
vt 0.040515 0.580392
vt 0.075955 0.630368
vt 0.039399 0.611644
vt 0.114441 0.309305
vt 0.048387 0.272495
vt 0.122841 0.290258
vt 0.128757 0.296758
vt 0.000406 0.287267
vt 0.000518 0.309305
vt 0.793720 0.705808
vt 0.734887 0.744888
vt 0.734769 0.702965
vt 0.759538 0.734637
vt 0.909923 0.727732
vt 0.972786 0.744888
vt 0.984752 0.894172
vt 0.914421 0.860136
vt 0.907260 0.894001
vt 0.988944 0.872118
vt 0.916178 0.849901
vt 0.990331 0.866789
vt 0.863932 0.894172
vt 0.945311 0.800102
vt 0.997157 0.838115
vt 0.039952 0.317589
vt 0.039752 0.328437
vt 0.019730 0.322272
vt 0.038819 0.317485
vt 0.000406 0.365542
vt 0.064582 0.365542
vt 0.937043 0.112412
vt 0.980601 0.082730
vt 0.986596 0.062883
vt 0.986596 0.133436
vt 0.645410 0.804192
vt 0.606418 0.797571
vt 0.645410 0.754090
vt 0.242144 0.627301
vt 0.335093 0.638548
vt 0.143162 0.635455
vt 0.029651 0.638548
vt 0.652721 0.706992
vt 0.672218 0.775562
vt 0.672218 0.682515
vt 0.661183 0.686096
vt 0.010154 0.514048
vt 0.053209 0.528119
vt 0.010860 0.517381
vt 0.053209 0.486196
vt 0.095059 0.476118
vt 0.103512 0.511759
vt 0.086450 0.474949
vt 0.060520 0.511759
vt 0.127945 0.504808
vt 0.095983 0.475261
vt 0.596057 0.815440
vt 0.573924 0.830777
vt 0.658408 0.830777
vt 0.180747 0.558793
vt 0.283103 0.558793
vt 0.256450 0.547546
vt 0.989033 0.207055
vt 0.989033 0.341002
vt 0.980910 0.339349
vt 0.902924 0.525051
vt 0.902924 0.580266
vt 0.885865 0.532678
vt 0.787170 0.831800
vt 0.663282 0.836912
vt 0.876117 0.836912
vt 0.995532 0.916667
vt 0.995532 0.982106
vt 0.981722 0.963804
vt 0.110635 0.573238
vt 0.089124 0.575929
vt 0.079204 0.614008
vt 0.212131 0.602102
vt 0.145501 0.547546
vt 0.286632 0.614008
vt 0.331844 0.571228
vt 0.981959 0.765114
vt 0.989033 0.799080
vt 0.962595 0.779347
vt 0.953991 0.752602
vt 0.926483 0.744888
vt 0.932968 0.799080
vt 0.203493 0.989264
vt 0.164023 0.981084
vt 0.119821 0.989264
vt 0.818440 0.254090
vt 0.800793 0.276702
vt 0.816044 0.289190
vt 0.798054 0.284172
vt 0.804060 0.312193
vt 0.796314 0.338220
vt 0.818440 0.354294
vt 0.785946 0.332845
vt 0.850122 0.996421
vt 0.885420 0.996421
vt 0.883578 0.986196
vt 0.890739 0.990634
vt 0.731386 0.724669
vt 0.726661 0.728049
vt 0.725824 0.657821
vt 0.720416 0.742119
vt 0.708299 0.765992
vt 0.677854 0.736884
vt 0.682352 0.726508
vt 0.691543 0.704208
vt 0.711283 0.648773
vt 0.677957 0.784925
vt 0.681838 0.786457
vt 0.655158 0.826687
vt 0.732331 0.826687
vt 0.565494 0.670389
vt 0.577985 0.675265
vt 0.575837 0.698875
vt 0.576863 0.669883
vt 0.531028 0.698875
vt 0.547234 0.665133
vt 0.489225 0.671298
vt 0.487815 0.681717
vt 0.892364 0.499676
vt 0.895890 0.508691
vt 0.900487 0.457566
vt 0.900487 0.501994
vt 0.708773 0.599693
vt 0.707083 0.596566
vt 0.703087 0.597021
vt 0.708773 0.542434
vt 0.766203 0.349251
vt 0.759684 0.349182
vt 0.803818 0.368609
vt 0.739643 0.368609
vt 0.818440 0.208078
vt 0.824127 0.208078
vt 0.821324 0.207055
vt 0.292432 0.214996
vt 0.526487 0.209512
vt 0.304324 0.251240
vt 0.283894 0.252412
vt 0.468334 0.246078
vt 0.538556 0.207428
vt 0.547990 0.230521
vt 0.749935 0.244820
vt 0.662368 0.209762
vt 0.214939 0.203988
vt 0.235392 0.288138
vt 0.360180 0.270139
vt 0.322443 0.289394
vt 0.163338 0.264702
vt 0.152222 0.303573
vt 0.171578 0.302080
vt 0.294196 0.325033
vt 0.271072 0.323044
vt 0.179415 0.358820
vt 0.298199 0.359155
vt 0.103574 0.325150
vt 0.146413 0.359407
vt 0.425404 0.354407
vt 0.424764 0.359407
vt 0.540783 0.319618
vt 0.414837 0.315287
vt 0.551432 0.313992
vt 0.537576 0.282516
vt 0.749353 0.285202
vt 0.472219 0.284231
vt 0.749468 0.279832
vt 0.638337 0.352012
vt 0.786481 0.277208
vt 0.785960 0.306274
vt 0.784216 0.315766
vt 0.786759 0.244935
vt 0.742430 0.350811
vt 0.742742 0.350950
vt 0.927146 0.219885
vt 0.904359 0.431917
vt 0.953246 0.342578
vt 0.917757 0.574131
vt 0.933673 0.512358
vt 0.911678 0.284287
vt 0.976848 0.133161
vt 0.976848 0.288049
vt 0.929532 0.121209
vt 0.909642 0.119121
vt 0.893176 0.276188
vt 0.900289 0.120182
vt 0.221510 0.779652
vt 0.036149 0.779652
vt 0.253859 0.749528
vt 0.151629 0.733640
vt 0.798193 0.649795
vt 0.819253 0.699898
vt 0.743704 0.699898
vt 0.765181 0.654896
vt 0.475841 0.976994
vt 0.434200 0.999489
vt 0.534119 0.999489
vt 0.657066 0.838957
vt 0.614541 0.873722
vt 0.781885 0.873722
vt 0.690038 0.839129
vt 0.500812 0.971881
vt 0.489396 0.933027
vt 0.379700 0.971881
vt 0.375711 0.944902
vt 0.556345 0.751023
vt 0.457758 0.767470
vt 0.459220 0.771472
vt 0.578798 0.771472
vt 0.229066 0.910532
vt 0.298292 0.957473
vt 0.179123 0.937831
vt 0.272449 0.920920
vt 0.299350 0.961656
vt 0.199463 0.961656
vt 0.261170 0.725460
vt 0.042648 0.682917
vt 0.260776 0.721354
vt 0.066865 0.725460
vt 0.085619 0.648773
vt 0.220490 0.672195
vt 0.967864 0.666603
vt 0.860716 0.664110
vt 0.999594 0.708078
vt 0.814379 0.708078
vt 0.924458 0.792972
vt 0.738830 0.781669
vt 0.894246 0.749803
vt 0.786959 0.740798
vt 0.931357 0.807260
vt 0.743094 0.807260
vt 0.259545 0.827710
vt 0.254299 0.802147
vt 0.073652 0.827710
vt 0.066206 0.813774
vt 0.676376 0.364519
vt 0.655158 0.374744
vt 0.713647 0.374744
vt 0.658568 0.368457
vt 0.207555 0.623211
vt 0.152475 0.616922
vt 0.170283 0.612986
vt 0.149066 0.623211
vt 0.450447 0.711032
vt 0.654346 0.748977
vt 0.638270 0.695808
vt 0.535353 0.748977
vt 0.009342 0.407464
vt 0.040211 0.407464
vt 0.024050 0.394172
vt 0.866369 0.978016
vt 0.892144 0.911716
vt 0.967303 0.921399
vt 0.967912 0.895194
vt 0.892147 0.908145
vt 0.965725 0.978016
vt 0.027416 0.868880
vt 0.029098 0.900662
vt 0.102935 0.872520
vt 0.103011 0.845798
vt 0.102901 0.905517
vt 0.103574 0.936239
vt 0.028255 0.841238
vt 0.103574 0.835857
vt 0.028285 0.834867
vt 0.004468 0.943252
vt 0.744517 0.999489
vt 0.779160 0.943645
vt 0.820877 0.999489
vt 0.807379 0.932004
vt 0.193745 0.492331
vt 0.119657 0.492331
vt 0.149566 0.475233
vt 0.160950 0.472904
vt 0.116572 0.475981
vt 0.379902 0.426892
vt 0.344175 0.441863
vt 0.245735 0.453954
vt 0.387084 0.458589
vt 0.246122 0.458589
vt 0.383517 0.457903
vt 0.108502 0.885287
vt 0.124695 0.926892
vt 0.124695 0.873722
vt 0.104387 0.888777
vt 0.705598 0.630368
vt 0.689110 0.644683
vt 0.684773 0.632203
vt 0.639724 0.637268
vt 0.663232 0.644306
vt 0.710016 0.644683
vt 0.716897 0.639893
vt 0.343907 0.459611
vt 0.344078 0.473393
vt 0.346787 0.472769
vt 0.326158 0.476994
vt 0.407392 0.476994
vt 0.862307 0.922910
vt 0.872868 0.943252
vt 0.872591 0.905665
vt 0.872868 0.904397
vt 0.444760 0.875147
vt 0.447978 0.839980
vt 0.441729 0.843530
vt 0.441601 0.872906
vt 0.440699 0.905419
vt 0.478879 0.905419
vt 0.414497 0.927914
vt 0.284275 0.883958
vt 0.414703 0.872699
vt 0.283916 0.927914
vt 0.964663 0.304450
vt 0.971162 0.297035
vt 0.971162 0.403374
vt 0.534931 0.992331
vt 0.625914 0.992331
vt 0.546782 0.955521
vt 0.226239 0.389059
vt 0.224008 0.375767
vt 0.149878 0.389059
vt 0.949715 0.422008
vt 0.966288 0.357362
vt 0.945979 0.521465
vt 0.966288 0.524029
vt 0.488627 0.887014
vt 0.536351 0.895570
vt 0.493143 0.933027
vt 0.622665 0.933027
vt 0.234362 0.250000
vt 0.230412 0.221370
vt 0.201056 0.250000
vt 0.438169 0.911534
vt 0.448822 0.936094
vt 0.415516 0.928842
vt 0.448822 0.906442
vt 0.067019 0.188650
vt 0.055618 0.181493
vt 0.029651 0.188650
vt 0.266856 0.655930
vt 0.266856 0.710123
vt 0.222989 0.661640
vt 0.378960 0.630368
vt 0.437449 0.630368
vt 0.423548 0.606851
vt 0.344652 0.928937
vt 0.317222 0.956544
vt 0.366775 0.956544
vt 0.174277 0.910532
vt 0.146629 0.929959
vt 0.182372 0.929959
vt 0.275865 0.735685
vt 0.236799 0.775562
vt 0.278229 0.775562
vt 0.207982 0.871198
vt 0.263607 0.907464
vt 0.135960 0.907464
vt 0.208534 0.866322
vt 0.124695 0.844954
vt 0.208461 0.835890
vt 0.518582 0.853470
vt 0.465660 0.814417
vt 0.586336 0.869003
vt 0.507055 0.861241
vt 0.456946 0.883947
vt 0.614541 0.883947
vt 0.292851 0.990286
vt 0.399269 0.990286
vt 0.308523 0.963701
vt 0.822502 0.316595
vt 0.850122 0.341804
vt 0.847511 0.318879
vt 0.850122 0.164110
vt 0.830753 0.363497
vt 0.320471 0.024029
vt 0.237707 0.013804
vt 0.303532 0.014484
vt 0.227864 0.024029
vt 0.485378 0.697853
vt 0.448822 0.695310
vt 0.485378 0.668200
vt 0.022340 0.877812
vt 0.002843 0.828879
vt 0.022340 0.781697
vt 0.003918 0.843140
vt 0.042944 0.962679
vt 0.018278 0.966826
vt 0.022917 0.999489
vt 0.066206 0.999489
vt 0.815191 0.548923
vt 0.854996 0.570367
vt 0.848457 0.531037
vt 0.854996 0.530164
vt 0.825546 0.591288
vt 0.850309 0.596626
vt 0.674655 0.830777
vt 0.717709 0.830777
vt 0.679461 0.801125
vt 0.227864 0.973228
vt 0.251624 0.962679
vt 0.274980 0.998466
vt 0.230290 0.998466
vt 0.799756 0.875033
vt 0.811317 0.880599
vt 0.812920 0.872465
vt 0.826564 0.838957
vt 0.817610 0.906134
vt 0.810800 0.907464
vt 0.826564 0.900174
vt 0.157189 0.276585
vt 0.132819 0.276585
vt 0.138819 0.261247
vt 0.133703 0.265738
vt 0.872055 0.176832
vt 0.872055 0.226483
vt 0.853371 0.205524
vt 0.870978 0.176380
vt 0.050981 0.735685
vt 0.026881 0.736750
vt 0.054833 0.765337
vt 0.010154 0.765337
vt 0.335093 0.625256
vt 0.309098 0.606812
vt 0.334064 0.576242
vt 0.335093 0.576176
usemtl baked
f 382/382 379/379 383/383
f 383/383 379/379 384/384
f 371/371 380/380 372/372
f 372/372 380/380 379/379
f 384/384 386/386 383/383
f 383/383 386/386 389/389
f 379/379 380/380 381/381
f 379/379 381/381 384/384
f 384/384 381/381 385/385
f 386/386 384/384 385/385
f 430/430 431/431 432/432
f 430/430 432/432 433/433
f 434/434 435/435 436/436
f 436/436 435/435 437/437
f 148/148 147/147 149/149
f 146/146 147/147 148/148
f 442/442 443/443 444/444
f 445/445 443/443 442/442
f 438/438 439/439 440/440
f 438/438 440/440 441/441
f 443/443 446/446 444/444
f 446/446 447/447 444/444
f 387/387 385/385 388/388
f 386/386 385/385 387/387
f 388/388 391/391 392/392
f 391/391 388/388 385/385
f 381/381 394/394 391/391
f 381/381 391/391 385/385
f 7/7 8/8 9/9
f 10/10 7/7 9/9
f 76/76 77/77 73/73
f 76/76 73/73 72/72
f 451/451 449/449 448/448
f 448/448 449/449 450/450
f 11/11 12/12 13/13
f 75/75 72/72 74/74
f 72/72 73/73 74/74
f 73/73 75/75 74/74
f 456/456 455/455 457/457
f 454/454 455/455 456/456
f 459/459 461/461 460/460
f 458/458 459/459 460/460
f 463/463 459/459 462/462
f 459/459 458/458 462/462
f 464/464 465/465 466/466
f 467/467 466/466 465/465
f 468/468 471/471 469/469
f 468/468 469/469 470/470
f 475/475 473/473 472/472
f 472/472 473/473 474/474
f 117/117 115/115 114/114
f 106/106 105/105 111/111
f 111/111 105/105 119/119
f 111/111 119/119 118/118
f 111/111 118/118 133/133
f 114/114 115/115 116/116
f 110/110 106/106 111/111
f 138/138 114/114 139/139
f 118/118 119/119 117/117
f 118/118 117/117 114/114
f 133/133 118/118 138/138
f 114/114 116/116 139/139
f 138/138 118/118 114/114
f 296/296 297/297 298/298
f 63/63 62/62 60/60
f 65/65 63/63 60/60
f 395/395 397/397 405/405
f 395/395 405/405 393/393
f 380/380 398/398 381/381
f 381/381 398/398 394/394
f 393/393 400/400 392/392
f 393/393 392/392 391/391
f 398/398 396/396 394/394
f 394/394 396/396 395/395
f 394/394 393/393 391/391
f 394/394 395/395 393/393
f 396/396 399/399 397/397
f 396/396 397/397 395/395
f 382/382 372/372 379/379
f 421/421 420/420 422/422
f 310/310 305/305 308/308
f 310/310 311/311 305/305
f 69/69 70/70 71/71
f 69/69 67/67 70/70
f 419/419 420/420 421/421
f 149/149 153/153 148/148
f 477/477 476/476 479/479
f 476/476 477/477 478/478
f 305/305 307/307 308/308
f 30/30 31/31 27/27
f 305/305 309/309 306/306
f 305/305 306/306 307/307
f 34/34 26/26 35/35
f 39/39 35/35 26/26
f 449/449 452/452 450/450
f 450/450 452/452 453/453
f 34/34 30/30 26/26
f 30/30 27/27 26/26
f 26/26 28/28 36/36
f 26/26 27/27 28/28
f 536/536 537/537 534/534
f 534/534 535/535 536/536
f 110/110 133/133 132/132
f 133/133 110/110 111/111
f 354/354 355/355 356/356
f 355/355 357/357 356/356
f 192/192 194/194 196/196
f 223/223 226/226 224/224
f 197/197 192/192 196/196
f 223/223 224/224 225/225
f 540/540 541/541 542/542
f 543/543 541/541 540/540
f 544/544 545/545 546/546
f 547/547 548/548 549/549
f 27/27 31/31 29/29
f 27/27 29/29 28/28
f 67/67 69/69 68/68
f 66/66 67/67 68/68
f 89/89 93/93 90/90
f 89/89 90/90 91/91
f 195/195 193/193 192/192
f 192/192 193/193 194/194
f 193/193 198/198 194/194
f 193/193 199/199 198/198
f 244/244 242/242 241/241
f 241/241 242/242 243/243
f 408/408 410/410 409/409
f 409/409 410/410 411/411
f 423/423 425/425 426/426
f 423/423 424/424 425/425
f 157/157 154/154 156/156
f 154/154 157/157 158/158
f 427/427 428/428 429/429
f 230/230 227/227 229/229
f 235/235 236/236 237/237
f 212/212 211/211 200/200
f 200/200 211/211 201/201
f 202/202 206/206 205/205
f 204/204 202/202 205/205
f 550/550 551/551 552/552
f 227/227 228/228 229/229
f 20/20 21/21 22/22
f 248/248 253/253 249/249
f 247/247 248/248 249/249
f 250/250 248/248 247/247
f 252/252 251/251 250/250
f 251/251 248/248 250/250
f 255/255 251/251 252/252
f 254/254 251/251 255/255
f 235/235 237/237 238/238
f 293/293 294/294 295/295
f 200/200 201/201 202/202
f 202/202 201/201 203/203
f 204/204 200/200 202/202
f 553/553 554/554 555/555
f 554/554 556/556 555/555
f 416/416 417/417 412/412
f 418/418 417/417 416/416
f 36/36 28/28 37/37
f 36/36 37/37 38/38
f 17/17 18/18 19/19
f 57/57 56/56 60/60
f 62/62 57/57 60/60
f 60/60 56/56 53/53
f 182/182 177/177 181/181
f 183/183 182/182 181/181
f 177/177 179/179 180/180
f 181/181 177/177 180/180
f 60/60 53/53 61/61
f 154/154 155/155 156/156
f 50/50 51/51 52/52
f 557/557 558/558 559/559
f 559/559 558/558 560/560
f 184/184 178/178 177/177
f 177/177 178/178 179/179
f 203/203 209/209 210/210
f 178/178 188/188 179/179
f 333/333 334/334 335/335
f 208/208 203/203 210/210
f 201/201 213/213 209/209
f 203/203 201/201 209/209
f 81/81 82/82 83/83
f 84/84 82/82 81/81
f 318/318 319/319 320/320
f 93/93 94/94 90/90
f 568/568 569/569 570/570
f 571/571 572/572 573/573
f 574/574 575/575 576/576
f 561/561 562/562 563/563
f 564/564 567/567 565/565
f 564/564 565/565 566/566
f 358/358 359/359 360/360
f 366/366 367/367 368/368
f 163/163 165/165 166/166
f 205/205 206/206 207/207
f 280/280 278/278 277/277
f 277/277 278/278 279/279
f 168/168 162/162 161/161
f 359/359 361/361 360/360
f 312/312 313/313 314/314
f 312/312 314/314 315/315
f 577/577 578/578 579/579
f 580/580 581/581 582/582
f 583/583 584/584 585/585
f 352/352 350/350 353/353
f 352/352 351/351 350/350
f 214/214 216/216 217/217
f 214/214 215/215 216/216
f 262/262 265/265 263/263
f 262/262 263/263 264/264
f 263/263 265/265 264/264
f 23/23 24/24 25/25
f 206/206 202/202 208/208
f 202/202 203/203 208/208
f 350/350 351/351 346/346
f 350/350 346/346 348/348
f 349/349 347/347 346/346
f 346/346 347/347 348/348
f 273/273 275/275 276/276
f 273/273 274/274 275/275
f 178/178 185/185 186/186
f 184/184 185/185 178/178
f 161/161 164/164 167/167
f 178/178 186/186 188/188
f 186/186 185/185 187/187
f 189/189 186/186 187/187
f 314/314 317/317 316/316
f 315/315 314/314 316/316
f 1/1 2/2 3/3
f 165/165 163/163 162/162
f 290/290 291/291 292/292
f 161/161 162/162 163/163
f 161/161 163/163 164/164
f 591/591 587/587 589/589
f 589/589 587/587 586/586
f 591/591 589/589 590/590
f 88/88 86/86 85/85
f 85/85 86/86 87/87
f 416/416 412/412 407/407
f 416/416 407/407 415/415
f 588/588 589/589 586/586
f 590/590 589/589 588/588
f 586/586 587/587 588/588
f 335/335 334/334 341/341
f 334/334 340/340 341/341
f 413/413 407/407 414/414
f 415/415 407/407 413/413
f 595/595 596/596 593/593
f 595/595 593/593 592/592
f 190/190 183/183 181/181
f 191/191 190/190 181/181
f 407/407 408/408 409/409
f 28/28 29/29 40/40
f 28/28 40/40 37/37
f 592/592 593/593 594/594
f 604/604 601/601 603/603
f 598/598 599/599 600/600
f 596/596 595/595 597/597
f 606/606 609/609 607/607
f 606/606 607/607 608/608
f 601/601 605/605 602/602
f 601/601 602/602 603/603
f 91/91 97/97 96/96
f 91/91 96/96 95/95
f 336/336 337/337 338/338
f 336/336 338/338 339/339
f 337/337 342/342 338/338
f 337/337 343/343 342/342
f 336/336 339/339 340/340
f 334/334 336/336 340/340
f 412/412 408/408 407/407
f 62/62 64/64 57/57
f 405/405 403/403 406/406
f 378/378 369/369 372/372
f 369/369 371/371 372/372
f 373/373 398/398 380/380
f 371/371 373/373 380/380
f 375/375 396/396 373/373
f 373/373 396/396 398/398
f 376/376 399/399 375/375
f 375/375 399/399 396/396
f 397/397 402/402 403/403
f 397/397 403/403 405/405
f 537/537 538/538 534/534
f 329/329 330/330 331/331
f 330/330 332/332 331/331
f 539/539 534/534 538/538
f 509/509 511/511 513/513
f 509/509 508/508 511/511
f 508/508 509/509 510/510
f 509/509 512/512 510/510
f 610/610 611/611 612/612
f 514/514 517/517 515/515
f 514/514 515/515 516/516
f 496/496 495/495 492/492
f 525/525 528/528 526/526
f 525/525 526/526 527/527
f 492/492 495/495 489/489
f 492/492 489/489 491/491
f 497/497 495/495 496/496
f 525/525 527/527 529/529
f 490/490 489/489 498/498
f 490/490 494/494 493/493
f 490/490 498/498 494/494
f 489/489 490/490 491/491
f 491/491 490/490 493/493
f 483/483 484/484 485/485
f 523/523 519/519 518/518
f 518/518 519/519 520/520
f 519/519 522/522 521/521
f 519/519 521/521 520/520
f 506/506 503/503 505/505
f 503/503 504/504 505/505
f 616/616 614/614 613/613
f 613/613 614/614 615/615
f 505/505 504/504 507/507
f 518/518 524/524 523/523
f 483/483 485/485 488/488
f 61/61 53/53 50/50
f 53/53 51/51 50/50
f 386/386 387/387 389/389
f 389/389 387/387 390/390
f 32/32 33/33 30/30
f 32/32 30/30 34/34
f 160/160 159/159 155/155
f 155/155 159/159 156/156
f 120/120 124/124 122/122
f 121/121 120/120 122/122
f 121/121 122/122 123/123
f 117/117 121/121 123/123
f 117/117 123/123 115/115
f 119/119 120/120 117/117
f 117/117 120/120 121/121
f 239/239 236/236 235/235
f 240/240 239/239 235/235
f 104/104 128/128 120/120
f 128/128 124/124 120/120
f 105/105 104/104 119/119
f 119/119 104/104 120/120
f 4/4 5/5 6/6
f 337/337 345/345 343/343
f 126/126 131/131 113/113
f 125/125 126/126 113/113
f 122/122 142/142 98/98
f 142/142 101/101 98/98
f 122/122 98/98 123/123
f 98/98 99/99 100/100
f 101/101 99/99 98/98
f 172/172 169/169 171/171
f 169/169 170/170 171/171
f 124/124 144/144 142/142
f 124/124 142/142 122/122
f 106/106 103/103 105/105
f 103/103 104/104 105/105
f 108/108 107/107 106/106
f 107/107 103/103 106/106
f 107/107 130/130 129/129
f 113/113 131/131 107/107
f 107/107 131/131 130/130
f 129/129 143/143 128/128
f 129/129 134/134 143/143
f 128/128 143/143 144/144
f 128/128 144/144 124/124
f 130/130 134/134 129/129
f 269/269 270/270 271/271
f 107/107 129/129 103/103
f 299/299 300/300 301/301
f 272/272 269/269 271/271
f 103/103 129/129 128/128
f 103/103 128/128 104/104
f 89/89 91/91 92/92
f 92/92 91/91 95/95
f 100/100 99/99 102/102
f 343/343 344/344 342/342
f 140/140 127/127 112/112
f 127/127 125/125 112/112
f 125/125 113/113 112/112
f 112/112 113/113 108/108
f 108/108 113/113 107/107
f 54/54 55/55 56/56
f 57/57 54/54 56/56
f 109/109 108/108 106/106
f 109/109 106/106 110/110
f 136/136 135/135 109/109
f 326/326 327/327 325/325
f 145/145 135/135 136/136
f 136/136 109/109 137/137
f 135/135 112/112 109/109
f 112/112 108/108 109/109
f 58/58 54/54 57/57
f 135/135 141/141 140/140
f 218/218 220/220 222/222
f 140/140 112/112 135/135
f 484/484 487/487 486/486
f 484/484 486/486 485/485
f 499/499 500/500 501/501
f 501/501 500/500 502/502
f 109/109 110/110 132/132
f 137/137 109/109 132/132
f 287/287 288/288 289/289
f 58/58 59/59 54/54
f 321/321 322/322 323/323
f 219/219 221/221 220/220
f 218/218 219/219 220/220
f 621/621 622/622 623/623
f 623/623 622/622 624/624
f 362/362 363/363 364/364
f 364/364 363/363 365/365
f 324/324 328/328 326/326
f 324/324 326/326 325/325
f 647/647 648/648 645/645
f 645/645 646/646 647/647
f 651/651 650/650 652/652
f 649/649 650/650 651/651
f 637/637 634/634 636/636
f 634/634 635/635 636/636
f 633/633 630/630 632/632
f 630/630 631/631 632/632
f 653/653 655/655 656/656
f 653/653 654/654 655/655
f 625/625 626/626 622/622
f 625/625 622/622 621/621
f 530/530 531/531 532/532
f 620/620 617/617 619/619
f 617/617 618/618 619/619
f 322/322 324/324 323/323
f 325/325 323/323 324/324
f 480/480 481/481 482/482
f 532/532 531/531 533/533
f 530/530 532/532 533/533
f 627/627 628/628 629/629
f 636/636 640/640 637/637
f 640/640 635/635 638/638
f 640/640 636/636 635/635
f 642/642 644/644 643/643
f 641/641 642/642 643/643
f 634/634 638/638 635/635
f 639/639 638/638 634/634
f 283/283 282/282 284/284
f 231/231 232/232 233/233
f 233/233 232/232 234/234
f 281/281 282/282 283/283
f 258/258 257/257 260/260
f 257/257 261/261 260/260
f 281/281 286/286 285/285
f 256/256 257/257 258/258
f 259/259 256/256 258/258
f 281/281 285/285 282/282
f 266/266 267/267 268/268
f 302/302 303/303 304/304
f 374/374 375/375 373/373
f 374/374 377/377 376/376
f 374/374 376/376 375/375
f 173/173 174/174 175/175
f 175/175 174/174 176/176
f 147/147 150/150 149/149
f 151/151 150/150 147/147
f 151/151 152/152 150/150
f 41/41 43/43 47/47
f 78/78 79/79 80/80
f 14/14 15/15 16/16
f 370/370 373/373 371/371
f 369/369 370/370 371/371
f 370/370 374/374 373/373
f 245/245 244/244 241/241
f 245/245 246/246 244/244
f 46/46 49/49 48/48
f 45/45 46/46 48/48
f 46/46 45/45 42/42
f 43/43 42/42 44/44
f 41/41 42/42 43/43
f 42/42 45/45 44/44
f 399/399 404/404 401/401
f 376/376 404/404 399/399
f 401/401 402/402 397/397
f 399/399 401/401 397/397
