v -1.080606 0.219587 -0.202434 0.1199 0.3209 0.5784
v -0.760715 0.000000 -0.015031 0.1001 0.3087 0.5720
v -0.759698 0.000008 -0.003709 0.0871 0.3070 0.4996
v -0.881061 0.021016 0.156622 0.0667 0.2556 0.4263
v -1.082815 0.543354 -0.179550 0.1039 0.3171 0.5886
v -1.073421 0.520083 -0.160219 0.0607 0.3023 0.5866
v -0.766525 0.532850 0.117924 0.1208 0.3710 0.5993
v -0.808440 0.410102 0.152550 0.1222 0.3271 0.4603
v -1.083205 0.548527 -0.180210 0.2502 0.2045 0.4706
v -1.062360 0.702168 -0.129568 0.1649 0.2254 0.5186
v -0.756644 0.653683 0.118330 0.3061 0.4409 0.6372
v -0.872902 0.758842 0.152785 0.2763 0.4932 0.6299
v -0.900418 0.840376 -0.317550 0.3100 0.1560 0.4318
v -1.061727 1.095863 -0.027075 0.3133 0.1221 0.4046
v -0.785395 0.835125 0.123233 0.3390 0.3667 0.5889
v -0.882917 0.842020 0.155028 0.1251 0.2481 0.3222
v -1.025993 1.112993 -0.317486 0.3306 0.1561 0.4270
v -1.057421 1.207915 -0.145586 0.2253 0.1684 0.4836
v -1.026116 1.192092 0.126768 0.2892 0.3350 0.5596
v -0.927947 1.317087 0.152676 0.1882 0.3793 0.4866
v -1.074546 1.391078 -0.232785 0.2379 0.2437 0.5243
v -1.067017 1.664026 -0.157723 0.2100 0.1945 0.5071
v -0.942469 1.393449 0.151557 0.3121 0.4179 0.6219
v -0.926644 1.388710 0.155243 0.3210 0.5435 0.6772
v -1.055338 1.869891 -0.210141 0.2203 0.2342 0.5202
v -1.057629 1.754498 -0.156427 0.1864 0.2126 0.5226
v -1.051484 1.783916 0.131322 0.3510 0.4124 0.6017
v -0.936302 1.881096 0.153562 0.2378 0.4055 0.4999
v -1.058165 2.118992 -0.302639 0.2194 0.1949 0.4967
v -1.055705 1.958671 -0.147995 0.3390 0.1067 0.3853
v -1.000260 1.949191 0.131573 0.2761 0.2673 0.4204
v -0.800414 2.157135 0.156000 0.3443 0.5388 0.6419
v -1.063147 2.234100 -0.202617 0.1823 0.2361 0.5071
v -1.072141 2.411193 -0.158112 0.2731 0.0803 0.2931
v -1.071062 2.471528 -0.001061 0.2249 0.3300 0.4703
v -0.773190 2.499112 0.154958 0.2138 0.3037 0.3579
v -0.921585 2.600000 -0.176806 0.2505 0.3450 0.5254
v -0.758678 2.582411 -0.008046 0.2476 0.2521 0.3873
v -0.775991 2.576687 0.135811 0.2259 0.2484 0.2851
v -0.811634 2.512903 0.154197 0.7600 0.8701 0.9335
v -0.744257 0.006535 -0.316368 0.1304 0.2935 0.5548
v -0.687522 0.000270 -0.152226 0.1896 0.3075 0.4913
v -0.754606 0.000102 -0.000578 0.4022 0.5088 0.6066
v -0.753674 0.205763 0.152186 0.0191 0.0741 0.1218
v -0.662956 0.526117 -0.317655 0.1002 0.2836 0.5728
v -0.736533 0.331083 0.147027 0.6829 0.8183 0.8765
v -0.740306 0.308689 0.152160 0.0499 0.2127 0.3147
v -0.666010 0.554562 -0.317638 0.1222 0.2879 0.5987
v -0.499003 0.823056 0.117665 0.6853 0.8281 0.8751
v -0.709624 0.831926 -0.317584 0.1449 0.2756 0.5854
v -0.435070 0.868146 0.117732 0.6999 0.8465 0.8956
v -0.444269 1.362312 -0.317540 0.2444 0.2419 0.5175
v -0.619550 1.111807 0.117652 0.7103 0.8541 0.8999
v -0.431795 1.666685 -0.317566 0.2728 0.2234 0.4941
v -0.728065 1.394057 0.119745 0.7259 0.8528 0.8953
v -0.433829 1.901136 -0.317559 0.1913 0.2654 0.5581
v -0.728702 1.676653 0.119729 0.5826 0.7713 0.8414
v -0.436981 2.220623 -0.317569 0.2046 0.2244 0.5267
v -0.739113 2.083006 0.150810 0.2431 0.5228 0.6735
v -0.741687 2.073311 0.152444 0.2611 0.4759 0.5674
v -0.436376 2.307544 -0.317598 0.1995 0.3295 0.5562
v -0.429757 2.260803 0.121787 0.2360 0.4956 0.6639
v -0.753586 2.495663 0.155090 0.3293 0.6469 0.8100
v -0.469472 2.581239 -0.164616 0.3264 0.4086 0.5346
v -0.559848 2.581314 -0.115598 0.5051 0.5078 0.5113
v -0.751042 2.581212 0.135312 0.5153 0.6128 0.6821
v -0.658881 2.533589 0.152223 0.4328 0.6861 0.8717
v -0.412763 0.108127 -0.317587 0.1420 0.2076 0.4530
v -0.408753 0.000303 -0.100136 0.1869 0.1379 0.3870
v -0.121201 0.003738 0.116024 0.4491 0.5237 0.6668
v -0.098477 0.527731 -0.317610 0.0877 0.2035 0.5024
v -0.150923 0.274320 0.117656 0.7016 0.8417 0.9035
v -0.422563 0.641078 -0.317566 0.2039 0.2852 0.5052
v -0.234378 0.826920 0.121276 0.7030 0.8416 0.9019
v -0.097321 1.083421 -0.317573 0.1794 0.2672 0.5672
v -0.238067 0.847725 0.121306 0.3200 0.4241 0.4831
v -0.159294 1.014517 0.152175 0.0405 0.2222 0.3752
v -0.096378 1.339954 -0.317583 0.2357 0.2100 0.4958
v -0.381750 1.191979 0.118077 0.2778 0.3691 0.5134
v -0.129314 1.658121 -0.317564 0.2022 0.2879 0.5226
v -0.278431 1.667332 0.118585 0.5160 0.6355 0.7508
v -0.144616 1.535318 0.152417 0.6510 0.8222 0.9020
v -0.105288 1.939682 -0.317552 0.1650 0.2726 0.5653
v -0.274151 1.839788 0.117853 0.4137 0.6742 0.7767
v -0.188825 2.143991 -0.317547 0.1511 0.2898 0.5947
v -0.352278 1.949270 0.117947 0.1523 0.4792 0.6535
v -0.298454 2.233957 -0.317552 0.1451 0.2060 0.5298
v -0.156844 2.303880 0.129190 0.2775 0.5608 0.7326
v -0.419954 2.423691 0.152171 0.3344 0.6893 0.8219
v -0.409390 2.580984 -0.179310 0.3473 0.3791 0.5227
v -0.200441 2.577191 -0.005396 0.5049 0.5085 0.5120
v -0.097535 2.577356 0.127512 0.4909 0.6067 0.6874
v -0.091670 0.256327 -0.317603 0.1593 0.0957 0.3595
v 0.231145 0.000215 -0.008768 0.1856 0.0963 0.3607
v -0.085909 0.004637 0.116316 0.2932 0.2922 0.5500
v 0.162917 0.503275 -0.317566 0.0695 0.1222 0.3792
v -0.086578 0.299423 0.117668 0.5782 0.6595 0.7835
v 0.227070 0.624378 -0.317513 0.1992 0.2498 0.4544
v 0.232162 0.558008 0.117741 0.7414 0.5114 0.5604
v 0.207213 1.077439 -0.317567 0.2506 0.2658 0.4824
v 0.051091 0.907087 0.128563 0.4318 0.3619 0.4387
v -0.082123 0.974114 0.152167 0.1085 0.2928 0.4157
v 0.098760 1.380305 -0.317561 0.2114 0.1776 0.4395
v 0.224715 1.232306 0.117735 0.0512 0.1313 0.2742
v 0.055734 1.270192 0.182345 0.5000 0.5000 0.5000
v 0.012712 1.662700 -0.317604 0.1086 0.1188 0.3806
v 0.235171 1.611559 0.119261 0.3339 0.4382 0.6079
v 0.075140 1.570355 0.152616 0.7370 0.8627 0.9204
v 0.176155 1.943156 -0.317538 0.1322 0.2675 0.5186
v -0.087085 1.907063 0.117704 0.4889 0.6970 0.7808
v -0.088615 2.202602 -0.317570 0.1258 0.2405 0.5136
v 0.115794 2.226602 0.145049 0.2678 0.5269 0.6407
v -0.069190 2.230541 -0.317572 0.1048 0.1899 0.5030
v -0.008166 2.407746 0.132901 0.3724 0.5257 0.6289
v 0.026967 2.354466 0.152207 0.5101 0.6909 0.7919
v -0.083075 2.580940 -0.161108 0.2422 0.2956 0.5108
v 0.231145 2.591969 -0.008768 0.5039 0.5094 0.5146
v 0.233179 2.584207 0.037721 0.5110 0.5846 0.6333
v 0.239165 0.114860 -0.317563 0.1429 0.1313 0.3728
v 0.508130 0.000187 -0.148718 0.2020 0.2094 0.4355
v 0.508130 0.000195 -0.000939 0.2838 0.2903 0.5429
v 0.248712 0.526871 -0.317590 0.0702 0.0814 0.3201
v 0.563631 0.537322 0.117727 0.3818 0.4111 0.6356
v 0.270415 0.554776 -0.317558 0.0707 0.0857 0.3305
v 0.561086 0.571798 0.117670 0.7440 0.0374 0.1037
v 0.358055 0.845843 -0.317517 0.0934 0.1137 0.3518
v 0.272657 1.107085 0.121336 0.7017 0.0437 0.1106
v 0.256601 1.047594 0.152167 0.1542 0.4641 0.5608
v 0.358945 1.382299 -0.317493 0.1010 0.1328 0.3734
v 0.300517 1.231189 0.117779 0.7566 0.0101 0.0584
v 0.356908 1.319216 0.152149 0.5000 0.5000 0.5000
v 0.401334 1.662970 -0.317532 0.0617 0.0901 0.3443
v 0.257024 1.387442 0.119011 0.7567 0.1176 0.1544
v 0.251032 1.771520 -0.317536 0.0686 0.1167 0.3768
v 0.436847 1.747495 0.118111 0.6055 0.4133 0.4771
v 0.335524 1.952422 -0.317518 0.0945 0.1670 0.4382
v 0.567208 2.200407 0.151825 0.4824 0.2134 0.2754
v 0.567195 2.221123 0.152664 0.5935 0.8246 0.9005
v 0.302428 2.235357 -0.317501 0.0932 0.1595 0.4342
v 0.506158 2.340837 0.117759 0.4109 0.5752 0.6797
v 0.564141 2.301727 0.154682 0.7112 0.8340 0.8919
v 0.564904 2.593355 -0.184368 0.1751 0.2303 0.4563
v 0.473508 2.588410 -0.159076 0.5030 0.5073 0.5110
v 0.369636 2.582499 0.004240 0.5277 0.6458 0.7230
v 0.572030 0.124019 -0.317592 0.1132 0.1107 0.3188
v 0.573083 0.000239 -0.011479 0.1363 0.0836 0.2415
v 0.570250 0.000184 0.034590 0.1367 0.1974 0.2776
v 0.890491 0.472410 -0.317561 0.0636 0.0760 0.3024
v 0.755870 0.270634 0.131905 0.1413 0.1384 0.2176
v 0.609964 0.554562 -0.317612 0.0642 0.0786 0.3124
v 0.587485 0.824269 0.125115 0.2357 0.0075 0.0544
v 0.570799 0.833029 -0.317572 0.0653 0.0717 0.3045
v 0.708744 0.986826 0.128760 0.3481 0.0054 0.0379
v 0.880844 1.123445 -0.317503 0.0615 0.0754 0.3154
v 0.783081 1.181827 0.140577 0.5915 0.0043 0.0381
v 0.675138 1.550970 -0.317613 0.0589 0.0752 0.3134
v 0.837405 1.519613 0.133372 0.5210 0.0034 0.0292
v 0.625334 1.674766 -0.317592 0.0524 0.0795 0.3231
v 0.865568 1.669703 0.121647 0.6174 0.0119 0.0346
v 0.581961 1.952208 -0.317536 0.0531 0.0807 0.3203
v 0.867222 1.969821 0.121658 0.3028 0.2021 0.2333
v 0.569181 2.213945 0.152395 0.5518 0.8067 0.8998
v 0.799884 2.235357 -0.317544 0.0581 0.0840 0.3162
v 0.663174 2.422489 0.143779 0.3722 0.4869 0.5562
v 0.751006 2.329740 0.153975 0.5570 0.7984 0.8954
v 0.898027 2.581327 -0.163472 0.1661 0.1753 0.3400
v 0.864548 2.581107 -0.115718 0.5021 0.5063 0.5096
v 0.895099 2.590511 0.002312 0.5957 0.7285 0.8159
v 1.102237 0.002915 -0.164255 0.1865 0.0729 0.2815
v 1.102214 0.001191 -0.010455 0.1503 0.0525 0.1972
v 0.999454 0.265807 0.137158 0.0415 0.0167 0.0632
v 1.087527 0.538659 -0.279653 0.2558 0.0945 0.3247
v 1.097555 0.513619 -0.005878 0.2903 0.0911 0.3151
v 1.071936 0.523215 0.131405 0.1038 0.0400 0.1524
v 1.098604 0.816593 -0.184127 0.0762 0.0808 0.3137
v 1.098045 0.817778 -0.157661 0.2681 0.0894 0.3076
v 1.071270 0.814975 0.127284 0.1373 0.0425 0.1642
v 1.098721 0.886195 -0.244105 0.1617 0.0861 0.3172
v 1.095703 0.886566 -0.114366 0.3379 0.1000 0.3312
v 0.962047 1.088104 0.138670 0.1973 0.0548 0.2102
v 1.098273 1.125169 -0.308421 0.2555 0.1043 0.3292
v 1.102305 1.387200 -0.079586 0.3628 0.1143 0.3409
v 0.993264 1.167671 0.131882 0.2272 0.0678 0.2371
v 1.116795 1.520801 -0.161425 0.1879 0.0947 0.3190
v 1.092999 1.667332 -0.006359 0.3589 0.1126 0.3485
v 0.978479 1.520807 0.138747 0.2630 0.0797 0.2701
v 1.100483 1.939493 -0.205686 0.1858 0.0908 0.3274
v 1.095270 1.838861 -0.046345 0.3768 0.1163 0.3563
v 0.902313 1.939330 0.131063 0.2446 0.0716 0.2379
v 1.114000 2.093147 -0.172136 0.1539 0.0793 0.3053
v 1.116171 2.094781 -0.006841 0.3640 0.1157 0.3583
v 1.108951 2.095080 0.044225 0.0993 0.0311 0.0916
v 1.111674 2.229949 -0.219532 0.0835 0.0750 0.2853
v 1.116414 2.245907 -0.082733 0.1853 0.1017 0.3354
v 1.111973 2.336203 -0.001783 0.3534 0.4333 0.5460
v 1.012816 2.591234 -0.164013 0.1424 0.1549 0.3371
v 1.013255 2.591111 -0.004914 0.1702 0.1847 0.3664
v 1.015263 2.590591 0.111912 0.3429 0.4004 0.5459
f 192 191 195
f 191 194 195
f 191 190 194
f 190 193 194
f 195 194 198
f 198 194 197
f 197 166 167
f 196 166 197
f 194 193 197
f 193 196 197
f 167 168 198
f 167 198 197
f 143 117 118
f 143 118 144
f 166 142 143
f 166 143 167
f 167 143 144
f 167 144 168
f 122 96 98
f 122 98 124
f 65 38 39
f 65 39 66
f 142 116 117
f 143 142 117
f 90 64 65
f 91 90 65
f 90 117 116
f 117 90 91
f 91 92 118
f 117 91 118
f 91 65 66
f 91 66 92
f 9 6 10
f 5 6 9
f 96 71 98
f 71 73 98
f 48 9 50
f 50 9 13
f 45 9 48
f 45 5 9
f 73 45 48
f 71 45 73
f 93 68 96
f 68 71 96
f 68 41 71
f 71 41 45
f 41 68 42
f 42 68 69
f 1 5 45
f 41 1 45
f 2 42 3
f 3 42 43
f 2 1 41
f 2 41 42
f 26 21 22
f 25 21 26
f 185 184 187
f 185 187 188
f 186 185 189
f 185 188 189
f 189 188 192
f 188 191 192
f 188 187 190
f 188 190 191
f 119 96 122
f 43 42 70
f 70 42 69
f 69 68 93
f 69 93 94
f 146 169 170
f 145 169 146
f 120 119 145
f 120 145 146
f 69 94 70
f 70 94 95
f 120 146 121
f 121 146 147
f 121 94 120
f 95 94 121
f 119 93 96
f 94 93 119
f 94 119 120
f 70 97 72
f 30 25 26
f 29 25 30
f 64 38 65
f 37 38 64
f 38 34 39
f 34 35 39
f 38 33 34
f 37 33 38
f 150 122 124
f 148 122 150
f 177 176 179
f 177 179 180
f 182 185 186
f 183 182 186
f 180 179 183
f 183 179 182
f 172 176 173
f 172 175 176
f 176 175 178
f 176 178 179
f 169 172 173
f 174 170 173
f 171 170 174
f 173 176 174
f 174 176 177
f 175 150 152
f 175 152 178
f 182 181 184
f 182 184 185
f 179 178 181
f 179 181 182
f 172 148 175
f 148 150 175
f 169 148 172
f 169 145 148
f 170 169 173
f 145 119 122
f 145 122 148
f 150 124 126
f 152 150 126
f 181 152 154
f 178 152 181
f 125 123 151
f 151 123 149
f 157 155 183
f 157 183 186
f 153 151 177
f 153 177 180
f 153 180 183
f 155 153 183
f 97 123 99
f 99 123 125
f 147 146 170
f 146 147 171
f 171 147 170
f 149 147 171
f 149 171 174
f 151 149 174
f 151 174 177
f 97 70 95
f 123 121 147
f 123 147 149
f 95 121 123
f 95 123 97
f 30 26 27
f 30 27 31
f 34 30 31
f 34 31 35
f 33 29 30
f 33 30 34
f 127 125 151
f 127 151 153
f 130 127 155
f 155 127 153
f 13 9 14
f 9 10 14
f 13 14 17
f 17 14 18
f 22 18 19
f 22 19 23
f 21 17 22
f 17 18 22
f 26 22 23
f 26 23 27
f 18 14 15
f 18 15 19
f 23 19 24
f 19 20 24
f 164 195 168
f 198 168 195
f 133 130 157
f 130 155 157
f 133 159 135
f 159 133 157
f 140 137 141
f 165 161 164
f 137 138 141
f 137 161 162
f 138 137 162
f 141 138 162
f 141 162 165
f 162 161 165
f 165 164 195
f 164 161 192
f 164 192 195
f 159 189 192
f 161 159 192
f 159 157 189
f 157 186 189
f 124 98 100
f 124 100 126
f 181 154 184
f 154 156 184
f 113 139 111
f 136 111 139
f 134 111 136
f 134 109 111
f 132 106 134
f 106 109 134
f 80 83 109
f 106 80 109
f 109 83 85
f 109 85 111
f 190 160 163
f 190 163 193
f 193 163 166
f 193 166 196
f 56 21 25
f 54 21 56
f 58 25 29
f 56 25 58
f 52 80 78
f 52 54 80
f 80 54 83
f 83 54 56
f 85 56 58
f 56 85 83
f 111 87 113
f 85 87 111
f 58 61 87
f 85 58 87
f 61 64 90
f 87 61 90
f 78 80 106
f 106 103 78
f 103 106 129
f 129 106 132
f 58 29 33
f 61 37 64
f 61 58 33
f 33 37 61
f 158 160 190
f 187 158 190
f 139 142 163
f 163 142 166
f 100 75 78
f 100 78 103
f 116 113 87
f 87 90 116
f 113 116 142
f 139 113 142
f 187 156 158
f 184 156 187
f 73 75 100
f 98 73 100
f 129 100 103
f 126 100 129
f 13 52 50
f 13 17 52
f 48 50 75
f 73 48 75
f 17 21 54
f 17 54 52
f 158 134 136
f 158 136 160
f 126 154 152
f 129 154 126
f 154 129 156
f 129 132 156
f 160 136 139
f 160 139 163
f 75 52 78
f 50 52 75
f 132 134 158
f 156 132 158
f 39 35 36
f 39 36 40
f 24 23 27
f 28 24 27
f 32 59 60
f 32 31 59
f 27 23 28
f 23 24 28
f 28 31 32
f 31 28 27
f 31 32 36
f 35 31 36
f 32 31 35
f 36 32 35
f 31 27 32
f 27 28 32
f 127 99 125
f 99 127 101
f 43 70 46
f 46 70 72
f 49 46 74
f 46 72 74
f 72 97 74
f 74 97 99
f 76 74 99
f 76 99 101
f 15 11 49
f 15 49 51
f 7 46 49
f 11 7 49
f 15 51 53
f 19 15 53
f 31 27 57
f 31 57 59
f 27 55 57
f 27 23 55
f 23 19 53
f 23 53 55
f 51 49 74
f 51 74 76
f 14 10 15
f 10 11 15
f 20 16 15
f 20 15 19
f 8 11 12
f 8 7 11
f 8 4 3
f 8 3 7
f 7 4 8
f 7 3 4
f 46 8 47
f 46 7 8
f 11 12 16
f 15 16 11
f 19 15 16
f 19 16 20
f 43 46 47
f 4 44 47
f 8 4 47
f 44 43 47
f 4 43 44
f 3 43 4
f 10 6 7
f 10 7 11
f 6 2 7
f 2 3 7
f 1 2 6
f 5 1 6
f 144 140 164
f 168 144 164
f 115 141 114
f 141 165 164
f 140 141 164
f 115 114 140
f 115 140 141
f 137 159 161
f 135 159 137
f 51 76 53
f 53 76 79
f 57 55 81
f 84 57 81
f 53 79 55
f 135 107 133
f 107 135 110
f 40 36 67
f 66 40 67
f 39 40 66
f 36 63 67
f 67 62 66
f 63 62 67
f 36 35 63
f 63 35 62
f 31 59 62
f 35 31 62
f 114 141 140
f 62 88 66
f 66 88 92
f 92 114 118
f 92 88 114
f 118 114 144
f 114 140 144
f 62 59 88
f 86 112 88
f 114 88 112
f 114 137 140
f 110 135 112
f 112 135 137
f 114 112 137
f 59 86 88
f 86 84 110
f 86 110 112
f 59 84 86
f 59 57 84
f 63 62 89
f 60 59 63
f 59 62 63
f 89 62 88
f 128 101 127
f 76 102 101
f 76 77 101
f 55 79 81
f 81 108 107
f 81 82 108
f 84 81 107
f 84 107 110
f 79 107 81
f 107 79 104
f 79 76 104
f 104 130 133
f 107 104 133
f 104 76 101
f 104 127 130
f 104 101 127
