mtllib P-31_tex.mtl
v 1.035626 0.028688 -0.307119
v 1.918348 0.000249 0.091023
v 1.996173 0.000145 -0.170540
v 3.152027 0.000817 0.171550
v 3.722619 0.013401 0.391021
v 4.063933 0.012328 0.528296
v 3.152027 0.000817 0.171550
v 4.063933 0.012328 0.528296
v 3.898596 0.013767 0.309242
v 0.169031 0.052156 0.623645
v -0.807473 0.000054 0.772386
v -0.304702 0.000101 0.794499
v 0.330047 0.000682 0.333233
v -0.183470 0.000091 0.535831
v 0.257730 0.000366 0.753191
v -0.106624 0.000721 0.320010
v 0.312403 0.000742 0.281866
v -0.106624 0.000721 0.320010
v -0.484847 0.000729 0.314666
v -0.183470 0.000091 0.535831
v -1.098105 0.000148 0.536223
v -0.399521 0.000718 0.090606
v -0.484847 0.000729 0.314666
v -0.106624 0.000721 0.320010
v -0.468850 0.000231 0.045543
v 0.257064 0.017925 -0.307011
v 0.938390 0.000132 -0.089515
v 1.456244 0.227331 -0.098800
v 1.035626 0.028688 -0.307119
v 0.257064 0.017925 -0.307011
v 1.456244 0.227331 -0.098800
v 0.938390 0.000132 -0.089515
v 1.403329 0.000088 0.308981
v 0.312403 0.000742 0.281866
v -1.098105 0.000148 0.536223
v -0.106624 0.000721 0.320010
v -0.183470 0.000091 0.535831
v -0.484847 0.000729 0.314666
v -0.468850 0.000231 0.045543
v 0.330047 0.000682 0.333233
v -0.399521 0.000718 0.090606
v 1.680212 0.117910 0.440686
v 0.257730 0.000366 0.753191
v 1.582703 0.108775 0.759867
v 0.277727 0.000101 0.885042
v 1.669548 0.117684 0.799923
v 1.916179 0.130303 0.631318
v 1.794907 0.111364 0.475741
v 2.476114 0.100841 0.385389
v 2.265476 0.099441 0.308720
v 2.612764 0.074329 0.729228
v 1.685545 0.117254 0.799923
v 3.098704 0.013614 0.960145
v 0.033480 0.138053 -0.200960
v -0.918876 0.013446 -0.142636
v 2.240444 0.003717 1.071967
v 0.169031 0.052156 0.623645
v 2.610098 0.013775 1.035668
v 1.456244 0.227331 -0.098800
v 1.035626 0.028688 -0.307119
v 0.257064 0.017925 -0.307011
v 0.257064 0.017925 -0.307011
v -0.399521 0.000718 0.090606
v 0.938390 0.000132 -0.089515
v 2.369040 0.000062 -0.548250
v 1.035626 0.028688 -0.307119
v 1.996173 0.000145 -0.170540
v 1.422290 0.230260 -0.528588
v 2.538769 0.000078 -0.548617
v 2.392208 0.000044 -0.612325
v 2.404785 0.000091 -0.630813
v 2.369040 0.000062 -0.548250
v 3.484628 0.040868 -0.512942
v 2.540102 0.088477 -0.272398
v 3.668291 0.000739 -0.583352
v 3.983922 0.000656 -0.574485
v 3.392660 0.000169 -0.128136
v 3.847938 0.000578 -0.501885
v 3.484628 0.040868 -0.512942
v 2.538769 0.000078 -0.548617
v 3.392660 0.000169 -0.128136
v 2.540102 0.088477 -0.272398
v 1.685545 0.117254 0.799923
v 1.669548 0.117684 0.799923
v 1.442768 0.228462 0.993526
v 0.277727 0.000101 0.885042
v 1.582703 0.108775 0.759867
v 0.257730 0.000366 0.753191
v 0.674364 0.049113 1.043596
v 2.265476 0.099441 0.308720
v 2.699753 0.099467 0.011328
v 2.406118 0.100450 0.307574
v 1.918348 0.000249 0.091023
v 2.540102 0.088477 -0.272398
v 1.996173 0.000145 -0.170540
v 1.456244 0.227331 -0.098800
v 1.035626 0.028688 -0.307119
v 1.422290 0.230260 -0.528588
v 2.369040 0.000062 -0.548250
v 2.392208 0.000044 -0.612325
v 1.420659 0.230439 -0.592323
v 1.422394 0.230268 -0.859048
v 1.795534 0.111416 -0.875737
v 0.033480 0.138053 -0.200960
v -0.918876 0.013446 -0.142636
v -0.399521 0.000718 0.090606
v 2.612764 0.074329 0.729228
v 1.685545 0.117254 0.799923
v 3.098704 0.013614 0.960145
v 1.916179 0.130303 0.631318
v 2.610098 0.013775 1.035668
v 2.240444 0.003717 1.071967
v 1.582703 0.108775 0.759867
v 1.442768 0.228462 0.993526
v 2.699753 0.099467 0.011328
v 2.406118 0.100450 0.307574
v 3.534314 0.000109 -0.111211
v 3.152027 0.000817 0.171550
v 3.392660 0.000169 -0.128136
v 2.540102 0.088477 -0.272398
v -0.304702 0.000101 0.794499
v 0.277727 0.000101 0.885042
v -0.143557 0.000506 1.163762
v 0.674364 0.049113 1.043596
v 3.668291 0.000739 -0.583352
v 2.404785 0.000091 -0.630813
v 2.538769 0.000078 -0.548617
v 2.392208 0.000044 -0.612325
v 2.369040 0.000062 -0.548250
v 2.540102 0.088477 -0.272398
v 1.996173 0.000145 -0.170540
v 2.699753 0.099467 0.011328
v 1.918348 0.000249 0.091023
v 3.484628 0.040868 -0.512942
v 3.847938 0.000578 -0.501885
v 3.983922 0.000656 -0.574485
v 1.456244 0.227331 -0.098800
v 1.918348 0.000249 0.091023
v 2.265476 0.099441 0.308720
v 0.277727 0.000101 0.885042
v 0.169031 0.052156 0.623645
v -0.304702 0.000101 0.794499
v 0.257730 0.000366 0.753191
v 0.674364 0.049113 1.043596
v -0.143557 0.000506 1.163762
v 0.033480 0.138053 -0.200960
v -0.399521 0.000718 0.090606
v 0.257064 0.017925 -0.307011
v 2.392208 0.000044 -0.612325
v 1.420659 0.230439 -0.592323
v 2.369040 0.000062 -0.548250
v 1.422290 0.230260 -0.528588
v 1.795534 0.111416 -0.875737
v 1.422394 0.230268 -0.859048
v 1.456244 0.227331 -0.098800
v 1.403329 0.000088 0.308981
v 1.381582 0.234565 0.140676
v 1.794907 0.111364 0.475741
v 2.476114 0.100841 0.385389
v 2.406118 0.100450 0.307574
v 2.265476 0.099441 0.308720
v 3.722619 0.013401 0.391021
v 3.152027 0.000817 0.171550
v 2.612764 0.074329 0.729228
v 1.916179 0.130303 0.631318
v 1.381582 0.234568 -0.158073
v 1.035626 0.028688 -0.307119
v 1.376249 0.234659 -0.019549
v 1.456244 0.227331 -0.098800
v 4.063933 0.012328 0.528296
v 3.722619 0.013401 0.391021
v 3.720338 0.044191 0.547594
v 3.938597 0.000571 0.568770
v -0.474182 0.000376 0.749853
v -0.807473 0.000054 0.772386
v 0.169031 0.052156 0.623645
v -0.304702 0.000101 0.794499
v 1.376249 0.234659 -0.019549
v 1.403329 0.000088 0.308981
v 1.456244 0.227331 -0.098800
v 3.720338 0.044191 0.547594
v 3.722619 0.013401 0.391021
v 3.938597 0.000571 0.568770
v 4.063933 0.012328 0.528296
v 1.035626 0.028688 -0.307119
v 1.381582 0.234568 -0.158073
v 1.456244 0.227331 -0.098800
v 3.534314 0.000109 -0.111211
v 2.540102 0.088477 -0.272398
v 3.392660 0.000169 -0.128136
v 1.376249 0.234659 -0.019549
v 1.456244 0.227331 -0.098800
v 1.381582 0.234565 0.140676
v 1.035626 0.028688 -0.307119
v -0.399521 0.000718 0.090606
v -0.918876 0.013446 -0.142636
v -0.468850 0.000231 0.045543
v 2.406118 0.100450 0.307574
v 2.729371 0.232348 0.096002
v 2.732358 0.237932 0.097412
v 2.699753 0.099467 0.011328
v 2.476114 0.100841 0.385389
v 3.152027 0.000817 0.171550
v 3.722619 0.013401 0.391021
v 2.406118 0.100450 0.307574
v 2.699753 0.099467 0.011328
v 3.534314 0.000109 -0.111211
v 2.540102 0.088477 -0.272398
v 1.403329 0.000088 0.308981
v 1.381582 0.234565 0.140676
v 1.680212 0.117910 0.440686
v 1.376249 0.234659 -0.019549
v -1.669266 0.035844 -0.712775
v -1.300134 0.233577 -0.367845
v -1.191527 0.000080 -0.402553
v -1.315095 0.232018 -0.590757
v -1.300134 0.233577 -0.367845
v -1.669266 0.035844 -0.712775
v -1.191527 0.000080 -0.402553
v -1.496453 0.113444 -0.202302
v -1.284747 0.234677 -0.135335
v -2.612242 0.000490 -0.494061
v -3.293328 0.057504 -0.790932
v -2.539918 0.000182 -0.425008
v -1.501224 0.108431 -0.812420
v -1.912662 0.096087 -0.943331
v -1.669266 0.035844 -0.712775
v -2.564002 0.000744 -0.594618
v -3.293328 0.057504 -0.790932
v -3.306490 0.057559 -0.818105
v -1.315095 0.232018 -0.590757
v -1.306077 0.232913 -0.805641
v -1.652699 0.000187 -1.025946
v -2.575245 0.000241 -0.345001
v -2.539918 0.000182 -0.425008
v -1.496453 0.113444 -0.202302
v -2.612242 0.000490 -0.494061
v -2.607247 0.000296 -0.326640
v -2.053312 0.000137 -0.045835
v -3.296492 0.000713 0.012580
v -3.936067 0.001994 0.046847
v -2.604637 0.020215 0.144835
v -2.411932 0.000096 0.314666
v -1.496469 0.113454 -0.116192
v -1.252753 0.000137 0.312475
v -3.451252 0.090114 -0.333869
v -1.191527 0.000080 -0.402553
v -3.293328 0.057504 -0.790932
v -2.564002 0.000744 -0.594618
v -2.539918 0.000182 -0.425008
v -3.306490 0.057559 -0.818105
v -1.191527 0.000080 -0.402553
v -1.669266 0.035844 -0.712775
v -1.912662 0.096087 -0.943331
v -1.501224 0.108431 -0.812420
v -0.777768 0.013140 -0.660295
v -0.971605 0.127963 -0.798332
v -2.171894 0.001995 -1.228484
v -1.652699 0.000187 -1.025946
v -0.890126 0.038085 -1.093539
v -3.293328 0.057504 -0.790932
v -3.860418 0.000578 -0.448478
v -2.612242 0.000490 -0.494061
v -3.458954 0.038272 -0.756167
v -3.663111 0.057170 -0.933317
v -3.306490 0.057559 -0.818105
v -3.316344 0.029838 -1.055388
v -3.451252 0.090114 -0.333869
v -2.607247 0.000296 -0.326640
v -3.296492 0.000713 0.012580
v -3.936067 0.001994 0.046847
v -3.471964 0.014050 -1.031345
v -2.607576 0.000656 0.439945
v -2.604637 0.020215 0.144835
v -1.976008 0.092199 0.528867
v -3.696696 0.223306 0.141885
v -3.696696 0.223306 0.141885
v -3.936067 0.001994 0.046847
v -2.604637 0.020215 0.144835
v -2.575245 0.000241 -0.345001
v -2.053312 0.000137 -0.045835
v -1.496469 0.113454 -0.116192
v -1.252753 0.000137 0.312475
v -1.496453 0.113444 -0.202302
v -2.411932 0.000096 0.314666
v -0.890126 0.038085 -1.093539
v -1.501224 0.108431 -0.812420
v -0.971605 0.127963 -0.798332
v -1.652699 0.000187 -1.025946
v -0.971605 0.127963 -0.798332
v -1.501224 0.108431 -0.812420
v -1.669266 0.035844 -0.712775
v -0.777768 0.013140 -0.660295
v -1.669266 0.035844 -0.712775
v -1.191527 0.000080 -0.402553
v -1.315095 0.232018 -0.590757
v -1.300134 0.233577 -0.367845
v -1.191527 0.000080 -0.402553
v -1.284747 0.234677 -0.135335
v -1.315095 0.232018 -0.590757
v -1.652699 0.000187 -1.025946
v -2.171894 0.001995 -1.228484
v -1.912662 0.096087 -0.943331
v -1.501224 0.108431 -0.812420
v -1.976008 0.092199 0.528867
v -2.604637 0.020215 0.144835
v -2.411932 0.000096 0.314666
v -2.607576 0.000656 0.439945
v -1.191527 0.000080 -0.402553
v -1.300134 0.233577 -0.367845
v -1.496453 0.113444 -0.202302
v -3.471964 0.014050 -1.031345
v -3.316344 0.029838 -1.055388
v -3.306490 0.057559 -0.818105
v -3.663111 0.057170 -0.933317
v -1.496453 0.113444 -0.202302
v -1.300134 0.233577 -0.367845
v -1.284747 0.234677 -0.135335
v -1.496469 0.113454 -0.116192
v 1.680212 0.117910 0.440686
v 1.381582 0.234588 0.764667
v 1.376249 0.234661 0.526627
v 1.381582 0.234565 0.140676
v 1.582703 0.108775 0.759867
v 1.680212 0.117910 0.440686
v 1.376249 0.234661 0.526627
v 1.582703 0.108775 0.759867
v 1.381582 0.234588 0.764667
v 1.381582 0.234578 -0.360855
v 1.381582 0.234568 -0.158073
v 1.422290 0.230260 -0.528588
v 1.420659 0.230439 -0.592323
v 1.381582 0.234568 -0.575528
v 1.422290 0.230260 -0.528588
v 1.381582 0.234568 -0.158073
v 1.035626 0.028688 -0.307119
v 1.413576 0.231123 1.014804
v 1.381582 0.234542 0.877323
v 1.669548 0.117684 0.799923
v 1.381582 0.234588 0.764667
v 1.381582 0.234542 0.877323
v 1.669548 0.117684 0.799923
v 1.442768 0.228462 0.993526
v 1.582703 0.108775 0.759867
v 1.413576 0.231123 1.014804
v 1.413576 0.231123 1.014804
v 1.669548 0.117684 0.799923
v 1.442768 0.228462 0.993526
v 0.967767 0.096266 -0.923467
v 1.457978 0.186277 -1.027510
v 1.422394 0.230268 -0.859048
v 0.315053 0.013648 -1.236238
v 0.315053 0.013648 -1.236238
v 0.967767 0.096266 -0.923467
v 1.422394 0.230268 -0.859048
v 1.457978 0.186277 -1.027510
v 1.381582 0.234488 -1.086655
v 1.422394 0.230268 -0.859048
v 1.376249 0.234604 -0.826502
v 1.381582 0.234568 -0.575528
v 1.420659 0.230439 -0.592323
v 1.457978 0.186277 -1.027510
v 1.457978 0.186277 -1.027510
v 1.376249 0.234604 -0.826502
v 1.422394 0.230268 -0.859048
v 1.381582 0.234488 -1.086655
v 3.077366 0.000835 -0.915794
v 3.668291 0.000739 -0.583352
v 2.404785 0.000091 -0.630813
v 3.157023 0.000822 -0.908178
v 1.795534 0.111416 -0.875737
v 2.392208 0.000044 -0.612325
v -0.807473 0.000054 0.772386
v -1.516024 0.068395 0.667916
v -0.474182 0.000376 0.749853
v -1.527307 0.125082 0.447706
v -1.521935 0.119899 0.824766
v -1.521887 0.100750 1.149362
v -0.527506 0.013093 1.146655
v -0.143557 0.000506 1.163762
v -0.304702 0.000101 0.794499
v -0.468850 0.000231 0.045543
v -1.496469 0.113454 -0.116192
v -1.496453 0.113444 -0.202302
v -0.484847 0.000729 0.314666
v -1.252753 0.000137 0.312475
v -1.527307 0.125082 0.447706
v -2.411932 0.000096 0.314666
v -1.976008 0.092199 0.528867
v -1.098105 0.000148 0.536223
v 0.181735 0.013508 -0.660439
v 0.967767 0.096266 -0.923467
v 0.631014 0.050014 -0.680257
v 0.251057 0.000208 -0.890758
v 1.422394 0.230268 -0.859048
v 1.420659 0.230439 -0.592323
v 0.968610 0.099379 -0.515965
v 1.422290 0.230260 -0.528588
v -0.234208 0.096064 -0.403415
v -0.482847 0.095978 -0.360438
v 0.033480 0.138053 -0.200960
v -0.777768 0.013140 -0.660295
v -1.669266 0.035844 -0.712775
v -0.918876 0.013446 -0.142636
v -1.191527 0.000080 -0.402553
v -0.777768 0.013140 -0.660295
v -0.482847 0.095978 -0.360438
v -0.234208 0.096064 -0.403415
v 0.181735 0.013508 -0.660439
v 1.422290 0.230260 -0.528588
v 0.968610 0.099379 -0.515965
v 0.257064 0.017925 -0.307011
v 0.631014 0.050014 -0.680257
v 1.420659 0.230439 -0.592323
v -0.234208 0.096064 -0.403415
v 0.033480 0.138053 -0.200960
v -0.918876 0.013446 -0.142636
v -0.482847 0.095978 -0.360438
v 1.035626 0.028688 -0.307119
v -0.474182 0.000376 0.749853
v -1.098105 0.000148 0.536223
v -0.183470 0.000091 0.535831
v 0.169031 0.052156 0.623645
v 0.251057 0.000208 -0.890758
v 0.631014 0.050014 -0.680257
v 0.967767 0.096266 -0.923467
v 0.181735 0.013508 -0.660439
v -1.527307 0.125082 0.447706
v -1.098105 0.000148 0.536223
v -0.474182 0.000376 0.749853
v -1.290080 0.234614 0.789910
v -1.521887 0.100750 1.149362
v -1.290080 0.234627 1.020228
v -1.521935 0.119899 0.824766
v -1.527307 0.125082 0.447706
v -1.284747 0.234666 0.665571
v -1.516024 0.068395 0.667916
v -1.284747 0.234692 0.472594
v -1.521935 0.119899 0.824766
v -1.290080 0.234614 0.789910
v -1.252753 0.000137 0.312475
v -1.290080 0.234627 1.020228
v -1.521887 0.100750 1.149362
v -3.191595 0.013168 0.625636
v -3.163680 0.073644 0.777810
v -1.931671 0.094352 0.550246
v -3.455139 0.057351 0.678088
v -2.603818 0.095488 0.930522
v -1.521935 0.119899 0.824766
v -3.573094 0.058829 0.799923
v -1.516024 0.068395 0.667916
v -1.527307 0.125082 0.447706
v -1.976008 0.092199 0.528867
v -3.812723 0.000822 0.542794
v -2.607576 0.000656 0.439945
v -3.812723 0.000822 0.542794
v -2.607576 0.000656 0.439945
v -3.455139 0.057351 0.678088
v -3.455139 0.057351 0.678088
v -2.607576 0.000656 0.439945
v -3.191595 0.013168 0.625636
v 0.169031 0.052156 0.623645
v 0.257730 0.000366 0.753191
v -0.304702 0.000101 0.794499
v 0.277727 0.000101 0.885042
v 1.795534 0.111416 -0.875737
v 1.457978 0.186277 -1.027510
v 2.319683 0.003717 -1.173466
v 1.422394 0.230268 -0.859048
v 2.319683 0.003717 -1.173466
v 1.457978 0.186277 -1.027510
v 1.422394 0.230268 -0.859048
v 1.795534 0.111416 -0.875737
v 2.319683 0.003717 -1.173466
v 1.795534 0.111416 -0.875737
v 3.077366 0.000835 -0.915794
v 3.056703 0.000706 -1.023913
v 0.213730 0.012595 -1.211202
v -0.971605 0.127963 -0.798332
v 0.251057 0.000208 -0.890758
v -0.890126 0.038085 -1.093539
v 0.251057 0.000208 -0.890758
v 0.213730 0.012595 -1.211202
v 0.967767 0.096266 -0.923467
v -0.890126 0.038085 -1.093539
v 0.315053 0.013648 -1.236238
v -0.971605 0.127963 -0.798332
v -0.777768 0.013140 -0.660295
v -0.971605 0.127963 -0.798332
v 0.181735 0.013508 -0.660439
v 0.251057 0.000208 -0.890758
v 1.456244 0.227331 -0.098800
v 1.035626 0.028688 -0.307119
v 1.918348 0.000249 0.091023
v 2.612764 0.074329 0.729228
v 2.476114 0.100841 0.385389
v 3.720338 0.044191 0.547594
v 3.722619 0.013401 0.391021
v -1.931671 0.094352 0.550246
v -3.191595 0.013168 0.625636
v -1.976008 0.092199 0.528867
v -2.607576 0.000656 0.439945
v -2.124641 0.000578 1.152914
v -2.603818 0.095488 0.930522
v -1.521935 0.119899 0.824766
v -1.521887 0.100750 1.149362
v -3.163680 0.073644 0.777810
v -2.756563 0.000537 1.001036
v 1.996173 0.000145 -0.170540
v 2.538769 0.000078 -0.548617
v 2.540102 0.088477 -0.272398
v 2.369040 0.000062 -0.548250
v 3.534314 0.000109 -0.111211
v 3.829275 0.000000 -0.119686
v 3.392660 0.000169 -0.128136
v 3.844605 0.000179 -0.246948
v 3.829275 0.000000 -0.119686
v 3.844605 0.000179 -0.246948
v 3.534314 0.000109 -0.111211
v 3.116355 0.001994 0.993636
v 3.439993 0.000537 0.798254
v 2.610098 0.013775 1.035668
v 2.612764 0.074329 0.729228
v 3.098704 0.013614 0.960145
v 3.439993 0.000537 0.798254
v 3.720338 0.044191 0.547594
v 3.439993 0.000537 0.798254
v 3.098704 0.013614 0.960145
v 2.610098 0.013775 1.035668
v 3.116355 0.001994 0.993636
v -1.290080 0.234570 0.189024
v -1.252753 0.000137 0.312475
v -1.284747 0.234692 0.472594
v -1.252753 0.000137 0.312475
v -1.284747 0.234671 0.083629
v -1.290080 0.234570 0.189024
v -1.496469 0.113454 -0.116192
v -1.284747 0.234677 -0.135335
v -1.496469 0.113454 -0.116192
v -1.284747 0.234671 0.083629
v -2.171894 0.001995 -1.228484
v -3.316344 0.029838 -1.055388
v -1.912662 0.096087 -0.943331
v -3.306490 0.057559 -0.818105
v -1.282081 0.230888 -1.184168
v -1.652699 0.000187 -1.025946
v -1.501224 0.108431 -0.812420
v -1.652699 0.000187 -1.025946
v -1.282081 0.230888 -1.184168
v -1.306077 0.232913 -0.805641
v -3.696696 0.223306 0.141885
v -3.812723 0.000822 0.542794
v -2.604637 0.020215 0.144835
v -2.607576 0.000656 0.439945
vt 0.176916 0.232797
vt 0.328431 0.232797
vt 0.322710 0.189902
vt 0.935383 0.255139
vt 0.933601 0.159165
vt 0.935383 0.101430
vt 0.026292 0.639410
vt 0.026292 0.793119
vt 0.003119 0.756429
vt 0.784759 0.647453
vt 0.784759 0.802949
vt 0.768717 0.725444
vt 0.993316 0.992007
vt 0.919340 0.946563
vt 0.993316 0.924486
vt 0.925474 0.982330
vt 0.989221 0.999553
vt 0.350713 0.842243
vt 0.291560 0.841376
vt 0.338680 0.876229
vt 0.195633 0.876229
vt 0.666712 0.481105
vt 0.653743 0.516979
vt 0.713458 0.516979
vt 0.655668 0.474084
vt 0.614528 0.928061
vt 0.505655 0.901251
vt 0.421123 0.928061
vt 0.901515 0.178417
vt 0.930036 0.059428
vt 0.930036 0.253351
vt 0.302851 0.036858
vt 0.383042 0.090426
vt 0.213056 0.108781
vt 0.000446 0.178658
vt 0.148756 0.123425
vt 0.141420 0.158356
vt 0.090261 0.131035
vt 0.086631 0.089075
vt 0.216716 0.116796
vt 0.098428 0.094323
vt 0.429674 0.111891
vt 0.212748 0.183903
vt 0.419666 0.163510
vt 0.217955 0.204200
vt 0.433941 0.168465
vt 0.469785 0.137858
vt 0.448154 0.115305
vt 0.553768 0.089768
vt 0.517936 0.080426
vt 0.581141 0.141892
vt 0.436488 0.168380
vt 0.661765 0.170680
vt 0.157941 0.034019
vt 0.012521 0.071544
vt 0.529143 0.204200
vt 0.196861 0.164727
vt 0.586537 0.191842
vt 0.389749 0.017228
vt 0.313308 0.000447
vt 0.193584 0.010284
vt 0.434983 0.847632
vt 0.324866 0.895889
vt 0.536096 0.895889
vt 0.898841 0.256032
vt 0.849671 0.035299
vt 0.835562 0.195801
vt 0.898841 0.095176
vt 0.039915 0.799601
vt 0.016250 0.808881
vt 0.018147 0.811886
vt 0.012923 0.798581
vt 0.190574 0.798476
vt 0.041736 0.753987
vt 0.219361 0.811502
vt 0.269608 0.811886
vt 0.178066 0.737712
vt 0.248386 0.799595
vt 0.718806 0.985255
vt 0.569073 0.985255
vt 0.706806 0.923593
vt 0.570731 0.940825
vt 0.240196 0.853239
vt 0.237609 0.853122
vt 0.202588 0.815758
vt 0.009835 0.839347
vt 0.223400 0.859249
vt 0.006684 0.859249
vt 0.074887 0.814567
vt 0.602052 0.263946
vt 0.682537 0.245308
vt 0.617117 0.247795
vt 0.590813 0.329213
vt 0.699036 0.293744
vt 0.629487 0.347636
vt 0.561052 0.410113
vt 0.573063 0.489276
vt 0.643607 0.458988
vt 0.708145 0.320186
vt 0.718806 0.321028
vt 0.652655 0.463265
vt 0.691063 0.479937
vt 0.718806 0.424976
vt 0.223262 0.987042
vt 0.373886 0.987042
vt 0.295895 0.943253
vt 0.760909 0.484218
vt 0.790516 0.629192
vt 0.788330 0.402592
vt 0.758913 0.596348
vt 0.810383 0.477926
vt 0.823975 0.535164
vt 0.786503 0.645982
vt 0.823975 0.665326
vt 0.622245 0.039451
vt 0.568182 0.001340
vt 0.662656 0.167560
vt 0.608430 0.115376
vt 0.661671 0.145180
vt 0.662656 0.007803
vt 0.963012 0.247096
vt 0.963012 0.339605
vt 0.909537 0.280944
vt 0.947805 0.405273
vt 0.328186 0.634991
vt 0.526838 0.609920
vt 0.506849 0.624763
vt 0.529080 0.612664
vt 0.533628 0.622461
vt 0.510443 0.669940
vt 0.597713 0.676930
vt 0.489209 0.717158
vt 0.613636 0.717158
vt 0.358119 0.644255
vt 0.300984 0.650352
vt 0.278520 0.640778
vt 0.147504 0.033512
vt 0.065183 0.007596
vt 0.004011 0.033512
vt 0.900675 0.857228
vt 0.856952 0.868416
vt 0.874425 0.945934
vt 0.879794 0.856152
vt 0.935383 0.799374
vt 0.935383 0.929359
vt 0.971034 0.132885
vt 0.991533 0.050492
vt 0.991533 0.171135
vt 0.013815 0.969944
vt 0.170677 0.969864
vt 0.017552 0.979893
vt 0.170623 0.979893
vt 0.108158 0.926273
vt 0.169564 0.927932
vt 0.061943 0.676050
vt 0.135918 0.676050
vt 0.095444 0.654602
vt 0.736171 0.008490
vt 0.733861 0.117095
vt 0.747685 0.108050
vt 0.750891 0.086079
vt 0.702924 0.312332
vt 0.750891 0.228680
vt 0.676916 0.130376
vt 0.708992 0.023491
vt 0.200162 0.617069
vt 0.266043 0.635836
vt 0.187775 0.635836
vt 0.186720 0.618093
vt 0.884581 0.257819
vt 0.826649 0.257819
vt 0.835502 0.233691
vt 0.869495 0.243094
vt 0.949120 0.141775
vt 0.954100 0.088919
vt 0.954100 0.246202
vt 0.938057 0.167314
vt 0.669681 0.203307
vt 0.607397 0.216711
vt 0.681373 0.216711
vt 0.971034 0.760921
vt 0.995098 0.752011
vt 0.981784 0.794943
vt 0.995098 0.810992
vt 0.286542 0.995979
vt 0.219394 0.987936
vt 0.206328 0.995979
vt 0.006684 0.546470
vt 0.165330 0.546470
vt 0.028965 0.543789
vt 0.036843 0.473931
vt 0.039376 0.456211
vt 0.017380 0.490170
vt 0.113636 0.490170
vt 0.282086 0.840483
vt 0.371212 0.840483
vt 0.294868 0.837802
vt 0.775847 0.842270
vt 0.751021 0.782418
vt 0.750000 0.782245
vt 0.775847 0.776139
vt 0.796346 0.345729
vt 0.846859 0.447033
vt 0.826981 0.541108
vt 0.806725 0.332887
vt 0.860360 0.371095
vt 0.900624 0.499364
vt 0.900624 0.339282
vt 0.965686 0.577517
vt 0.999554 0.607915
vt 0.999554 0.538427
vt 0.997005 0.633155
vt 0.491533 0.060588
vt 0.576203 0.049598
vt 0.576203 0.090706
vt 0.249982 0.771671
vt 0.225936 0.797587
vt 0.311497 0.797587
vt 0.508467 0.400804
vt 0.470143 0.354151
vt 0.508467 0.342717
vt 0.749109 0.584226
vt 0.754456 0.466935
vt 0.754456 0.599196
vt 0.033394 0.258457
vt 0.100483 0.238162
vt 0.061206 0.274229
vt 0.206424 0.295353
vt 0.324464 0.266082
vt 0.326649 0.261709
vt 0.001509 0.295353
vt 0.000446 0.260478
vt 0.059485 0.222967
vt 0.255374 0.496272
vt 0.260165 0.509392
vt 0.428739 0.484733
vt 0.247968 0.519660
vt 0.250479 0.493015
vt 0.341359 0.453929
vt 0.144471 0.431846
vt 0.043226 0.419815
vt 0.255827 0.417887
vt 0.288090 0.392761
vt 0.429621 0.471002
vt 0.472214 0.405017
vt 0.116743 0.485607
vt 0.474599 0.519660
vt 0.265479 0.551305
vt 0.380551 0.580653
vt 0.384722 0.607239
vt 0.263369 0.547050
vt 0.596141 0.607239
vt 0.520509 0.559346
vt 0.481379 0.521609
vt 0.546719 0.539736
vt 0.659982 0.569067
vt 0.629919 0.540608
vt 0.439188 0.475871
vt 0.522327 0.502483
vt 0.641793 0.491999
vt 0.634763 0.634458
vt 0.679390 0.729032
vt 0.693521 0.533065
vt 0.637581 0.661102
vt 0.606087 0.689786
vt 0.630290 0.636041
vt 0.592814 0.633339
vt 0.708643 0.667318
vt 0.719814 0.534265
vt 0.766043 0.645895
vt 0.766043 0.746649
vt 0.592246 0.658227
vt 0.825758 0.140692
vt 0.780303 0.152296
vt 0.817167 0.041555
vt 0.825758 0.323056
vt 0.081349 0.287310
vt 0.042335 0.323950
vt 0.251783 0.323950
vt 0.781194 0.868186
vt 0.828215 0.785232
vt 0.814618 0.695874
vt 0.884581 0.658177
vt 0.801129 0.696030
vt 0.884581 0.841188
vt 0.985294 0.516086
vt 0.945858 0.416999
vt 0.937166 0.499965
vt 0.985294 0.395442
vt 0.947861 0.819864
vt 0.953298 0.902942
vt 0.974599 0.928061
vt 0.974599 0.787757
vt 0.999554 0.307864
vt 0.999554 0.398123
vt 0.962121 0.363291
vt 0.601781 0.604248
vt 0.631462 0.632261
vt 0.623857 0.575067
vt 0.580660 0.632261
vt 0.988859 0.718383
vt 0.988859 0.630474
vt 0.957665 0.684850
vt 0.960340 0.752904
vt 0.580660 0.045130
vt 0.462121 0.045130
vt 0.502295 0.036073
vt 0.485774 0.002234
vt 0.939840 0.054960
vt 0.912206 0.024576
vt 0.879234 0.054960
vt 0.785241 0.307465
vt 0.782977 0.331993
vt 0.821301 0.331993
vt 0.800634 0.276586
vt 0.595643 0.272920
vt 0.557487 0.249777
vt 0.558169 0.286416
vt 0.596702 0.286416
vt 0.449536 0.641198
vt 0.397950 0.691750
vt 0.435330 0.693029
vt 0.495989 0.693029
vt 0.398984 0.654360
vt 0.799020 0.886953
vt 0.850713 0.874022
vt 0.813371 0.836014
vt 0.850713 0.836444
vt 0.771390 0.158662
vt 0.771390 0.190795
vt 0.764260 0.132083
vt 0.764546 0.121984
vt 0.771390 0.124645
vt 0.715241 0.207775
vt 0.665330 0.176630
vt 0.715241 0.130920
vt 0.887255 0.998659
vt 0.877955 0.978105
vt 0.831996 0.998659
vt 0.210660 0.944147
vt 0.221589 0.958379
vt 0.175134 0.978999
vt 0.225550 0.978999
vt 0.178667 0.964073
vt 0.231283 0.978710
vt 0.012923 0.323950
vt 0.012923 0.379357
vt 0.011141 0.329442
vt 0.908645 0.698139
vt 0.938948 0.773034
vt 0.911729 0.773458
vt 0.938948 0.586685
vt 0.856061 0.477659
vt 0.824866 0.591746
vt 0.827481 0.668901
vt 0.856061 0.668481
vt 0.774064 0.121090
vt 0.766981 0.084582
vt 0.774064 0.079232
vt 0.772477 0.038874
vt 0.766421 0.041674
vt 0.759804 0.111899
vt 0.679276 0.520554
vt 0.646613 0.535746
vt 0.651901 0.528710
vt 0.688503 0.535746
vt 0.733066 0.282204
vt 0.782977 0.188114
vt 0.780040 0.387296
vt 0.733975 0.269633
vt 0.742515 0.484808
vt 0.782977 0.389222
vt 0.621762 0.766767
vt 0.734539 0.751542
vt 0.569307 0.762844
vt 0.737522 0.717158
vt 0.735928 0.776767
vt 0.735066 0.827971
vt 0.577179 0.825779
vt 0.516488 0.827971
vt 0.542526 0.769721
vt 0.327653 0.268985
vt 0.486963 0.306559
vt 0.485945 0.320050
vt 0.333309 0.227007
vt 0.453156 0.234682
vt 0.497771 0.208433
vt 0.634135 0.245537
vt 0.569107 0.203507
vt 0.428702 0.190795
vt 0.214679 0.372214
vt 0.087034 0.398511
vt 0.144243 0.366553
vt 0.199943 0.407060
vt 0.014706 0.379326
vt 0.019905 0.337759
vt 0.094401 0.334262
vt 0.020804 0.327780
vt 0.283434 0.336096
vt 0.322851 0.333139
vt 0.244518 0.300217
vt 0.364157 0.386337
vt 0.502482 0.407060
vt 0.395038 0.304967
vt 0.433890 0.349500
vt 0.759804 0.975424
vt 0.806095 0.926273
vt 0.845134 0.932774
vt 0.910428 0.975424
vt 0.004843 0.593518
vt 0.081778 0.587899
vt 0.204361 0.610580
vt 0.135505 0.554513
vt 0.004011 0.582803
vt 0.283376 0.585648
vt 0.241990 0.624218
vt 0.402406 0.617492
vt 0.325383 0.588486
vt 0.075033 0.624218
vt 0.875668 0.593068
vt 0.909537 0.494638
vt 0.909537 0.638951
vt 0.895605 0.694817
vt 0.558691 0.456211
vt 0.500148 0.491957
vt 0.445187 0.456242
vt 0.570856 0.491957
vt 0.955882 0.743968
vt 0.942513 0.673485
vt 0.955882 0.570599
vt 0.515597 0.763628
vt 0.572638 0.721626
vt 0.552105 0.763628
vt 0.521092 0.723009
vt 0.487855 0.941609
vt 0.452741 0.982789
vt 0.452316 0.937891
vt 0.483020 0.983467
vt 0.426701 0.941915
vt 0.433211 0.982535
vt 0.527184 0.975593
vt 0.397075 0.983467
vt 0.375668 0.941844
vt 0.129257 0.710810
vt 0.131824 0.685556
vt 0.329125 0.704449
vt 0.087234 0.705391
vt 0.217973 0.653709
vt 0.389951 0.655421
vt 0.066966 0.687811
vt 0.392820 0.680812
vt 0.394385 0.714638
vt 0.322429 0.708436
vt 0.032531 0.732350
vt 0.223762 0.732350
vt 0.935383 0.375782
vt 0.935383 0.566130
vt 0.907754 0.430041
vt 0.535205 0.999553
vt 0.673351 0.999553
vt 0.577515 0.994191
vt 0.934492 0.031099
vt 0.953910 0.013871
vt 0.973708 0.101430
vt 0.973708 0.007596
vt 0.810050 0.000447
vt 0.760331 0.033512
vt 0.900624 0.033512
vt 0.749109 0.007883
vt 0.318627 0.578642
vt 0.176694 0.578642
vt 0.165330 0.552888
vt 0.227013 0.545576
vt 0.132968 0.164879
vt 0.217914 0.210456
vt 0.015597 0.210456
vt 0.018277 0.193561
vt 0.013135 0.862824
vt 0.205437 0.913762
vt 0.011141 0.913762
vt 0.188023 0.866748
vt 0.315685 0.767345
vt 0.318321 0.716458
vt 0.202763 0.771671
vt 0.493320 0.723963
vt 0.302121 0.713584
vt 0.509358 0.771671
vt 0.693605 0.895150
vt 0.662656 0.922699
vt 0.848407 0.886059
vt 0.862299 0.922699
vt 0.703654 0.489503
vt 0.737522 0.416890
vt 0.737522 0.568811
vt 0.500446 0.278075
vt 0.554813 0.256032
vt 0.530094 0.453049
vt 0.554813 0.453530
vt 0.036096 0.651921
vt 0.234848 0.651921
vt 0.042852 0.648381
vt 0.141813 0.626899
vt 0.409995 0.785076
vt 0.333035 0.822224
vt 0.505184 0.843164
vt 0.506684 0.791964
vt 0.242870 0.843164
vt 0.308470 0.806616
vt 0.921123 0.324844
vt 0.826649 0.279310
vt 0.832259 0.324844
vt 0.852891 0.275693
vt 0.784505 0.987730
vt 0.739554 0.977212
vt 0.805258 0.995979
vt 0.732175 0.995979
vt 0.068649 0.981680
vt 0.058378 0.999553
vt 0.111854 0.999553
vt 0.961230 0.226759
vt 0.977273 0.169348
vt 0.977273 0.305183
vt 0.174242 0.942359
vt 0.243960 0.893208
vt 0.301074 0.909384
vt 0.350713 0.942359
vt 0.699198 0.201519
vt 0.639925 0.191469
vt 0.561943 0.201519
vt 0.641186 0.185433
vt 0.454100 0.451743
vt 0.495989 0.451743
vt 0.474683 0.411528
vt 0.417558 0.930742
vt 0.376510 0.899390
vt 0.392848 0.896783
vt 0.338235 0.930742
vt 0.654635 0.737712
vt 0.651595 0.699285
vt 0.619875 0.737712
vt 0.040058 0.486595
vt 0.221651 0.499614
vt 0.003119 0.537534
vt 0.223262 0.537534
vt 0.029399 0.080876
vt 0.003119 0.149687
vt 0.047683 0.149687
vt 0.557487 0.911081
vt 0.503119 0.862053
vt 0.557487 0.836908
vt 0.594170 0.833333
vt 0.579768 0.906613
vt 0.770499 0.838323
vt 0.770499 0.883281
usemtl baked
f 161/161 158/158 160/160
f 158/158 159/159 160/160
f 265/265 264/264 261/261
f 266/266 265/265 261/261
f 72/72 70/70 69/69
f 69/69 70/70 71/71
f 42/42 33/33 50/50
f 42/42 50/50 48/48
f 237/237 235/235 234/234
f 323/323 320/320 322/322
f 209/209 210/210 211/211
f 329/329 330/330 331/331
f 169/169 166/166 168/168
f 185/185 186/186 187/187
f 334/334 335/335 336/336
f 212/212 210/210 209/209
f 178/178 179/179 180/180
f 191/191 192/192 193/193
f 155/155 156/156 157/157
f 166/166 167/167 168/168
f 194/194 192/192 191/191
f 344/344 340/340 342/342
f 340/340 341/341 342/342
f 321/321 320/320 324/324
f 320/320 321/321 322/322
f 325/325 326/326 327/327
f 326/326 328/328 327/327
f 342/342 341/341 343/343
f 341/341 345/345 343/343
f 337/337 338/338 339/339
f 332/332 333/333 329/329
f 331/331 332/332 329/329
f 359/359 358/358 360/360
f 358/358 361/361 360/360
f 368/368 367/367 370/370
f 367/367 368/368 369/369
f 415/415 416/416 412/412
f 411/411 415/415 412/412
f 418/418 417/417 415/415
f 415/415 417/417 416/416
f 413/413 411/411 410/410
f 414/414 413/413 410/410
f 410/410 411/411 412/412
f 410/410 412/412 419/419
f 452/452 453/453 446/446
f 452/452 446/446 451/451
f 380/380 373/373 381/381
f 462/462 463/463 464/464
f 464/464 463/463 465/465
f 175/175 174/174 177/177
f 174/174 176/176 177/177
f 420/420 421/421 422/422
f 420/420 422/422 423/423
f 57/57 37/37 40/40
f 57/57 40/40 43/43
f 37/37 36/36 34/34
f 37/37 34/34 40/40
f 38/38 36/36 35/35
f 35/35 36/36 37/37
f 470/470 471/471 472/472
f 470/470 472/472 473/473
f 474/474 475/475 476/476
f 477/477 474/474 476/476
f 357/357 362/362 358/358
f 357/357 358/358 359/359
f 363/363 366/366 364/364
f 363/363 364/364 365/365
f 372/372 371/371 369/369
f 371/371 367/367 369/369
f 43/43 42/42 44/44
f 43/43 40/40 42/42
f 234/234 235/235 236/236
f 235/235 247/247 236/236
f 482/482 483/483 484/484
f 483/483 486/486 484/484
f 382/382 383/383 384/384
f 386/386 385/385 387/387
f 387/387 385/385 390/390
f 386/386 383/383 385/385
f 385/385 383/383 382/382
f 384/384 404/404 382/382
f 36/36 39/39 41/41
f 38/38 39/39 36/36
f 36/36 41/41 34/34
f 41/41 32/32 34/34
f 39/39 54/54 41/41
f 39/39 55/55 54/54
f 405/405 400/400 404/404
f 384/384 405/405 404/404
f 400/400 402/402 391/391
f 400/400 391/391 399/399
f 405/405 403/403 400/400
f 403/403 402/402 400/400
f 99/99 98/98 100/100
f 98/98 99/99 95/95
f 97/97 98/98 95/95
f 98/98 101/101 100/100
f 102/102 100/100 101/101
f 102/102 103/103 100/100
f 249/249 253/253 252/252
f 250/250 249/249 252/252
f 393/393 392/392 395/395
f 393/393 395/395 396/396
f 391/391 394/394 392/392
f 391/391 392/392 393/393
f 488/488 489/489 490/490
f 489/489 491/491 490/490
f 466/466 467/467 468/468
f 469/469 467/467 466/466
f 42/42 40/40 34/34
f 34/34 33/33 42/42
f 244/244 239/239 236/236
f 234/234 236/236 239/239
f 349/349 352/352 350/350
f 349/349 350/350 351/351
f 32/32 60/60 59/59
f 137/137 138/138 139/139
f 33/33 59/59 50/50
f 492/492 493/493 494/494
f 97/97 95/95 96/96
f 96/96 95/95 93/93
f 393/393 396/396 397/397
f 397/397 396/396 398/398
f 32/32 33/33 34/34
f 32/32 59/59 33/33
f 32/32 61/61 60/60
f 41/41 54/54 32/32
f 32/32 54/54 61/61
f 404/404 400/400 401/401
f 400/400 399/399 401/401
f 391/391 393/393 399/399
f 399/399 393/393 397/397
f 346/346 347/347 348/348
f 388/388 386/386 387/387
f 388/388 387/387 389/389
f 239/239 244/244 243/243
f 374/374 376/376 375/375
f 428/428 429/429 430/430
f 447/447 445/445 444/444
f 447/447 450/450 445/445
f 495/495 496/496 497/497
f 496/496 498/498 497/497
f 182/182 184/184 183/183
f 181/181 182/182 183/183
f 47/47 48/48 49/49
f 47/47 49/49 51/51
f 144/144 142/142 145/145
f 140/140 142/142 144/144
f 379/379 373/373 380/380
f 451/451 446/446 449/449
f 449/449 446/446 448/448
f 444/444 445/445 446/446
f 446/446 445/445 448/448
f 373/373 374/374 375/375
f 377/377 374/374 373/373
f 500/500 502/502 501/501
f 499/499 500/500 501/501
f 507/507 504/504 503/503
f 508/508 507/507 503/503
f 378/378 377/377 373/373
f 378/378 373/373 379/379
f 503/503 504/504 505/505
f 503/503 505/505 506/506
f 406/406 407/407 408/408
f 409/409 406/406 408/408
f 427/427 425/425 424/424
f 424/424 425/425 426/426
f 353/353 354/354 355/355
f 356/356 353/353 355/355
f 478/478 481/481 479/479
f 478/478 479/479 480/480
f 146/146 147/147 148/148
f 62/62 63/63 64/64
f 19/19 21/21 20/20
f 18/18 19/19 20/20
f 17/17 16/16 13/13
f 16/16 14/14 13/13
f 22/22 23/23 24/24
f 22/22 25/25 23/23
f 195/195 196/196 197/197
f 104/104 105/105 106/106
f 26/26 27/27 28/28
f 29/29 30/30 31/31
f 69/69 71/71 73/73
f 73/73 71/71 75/75
f 509/509 510/510 511/511
f 509/509 512/512 510/510
f 75/75 76/76 73/73
f 74/74 73/73 77/77
f 69/69 73/73 74/74
f 73/73 76/76 78/78
f 205/205 203/203 202/202
f 202/202 203/203 204/204
f 90/90 93/93 91/91
f 90/90 91/91 92/92
f 513/513 514/514 515/515
f 514/514 516/516 515/515
f 206/206 208/208 207/207
f 517/517 518/518 519/519
f 188/188 189/189 190/190
f 91/91 93/93 94/94
f 93/93 95/95 94/94
f 83/83 87/87 84/84
f 110/110 113/113 108/108
f 107/107 110/110 108/108
f 107/107 108/108 109/109
f 46/46 45/45 44/44
f 45/45 43/43 44/44
f 47/47 44/44 48/48
f 44/44 47/47 46/46
f 46/46 47/47 52/52
f 44/44 42/42 48/48
f 85/85 86/86 89/89
f 86/86 85/85 84/84
f 121/121 122/122 123/123
f 124/124 123/123 122/122
f 526/526 523/523 525/525
f 523/523 524/524 525/525
f 528/528 527/527 530/530
f 529/529 528/528 530/530
f 527/527 528/528 529/529
f 520/520 521/521 522/522
f 83/83 84/84 85/85
f 112/112 108/108 114/114
f 108/108 112/112 111/111
f 108/108 111/111 109/109
f 52/52 47/47 53/53
f 53/53 47/47 51/51
f 56/56 52/52 53/53
f 56/56 53/53 58/58
f 13/13 14/14 15/15
f 43/43 37/37 57/57
f 87/87 88/88 84/84
f 84/84 88/88 86/86
f 174/174 175/175 176/176
f 10/10 11/11 12/12
f 140/140 141/141 142/142
f 143/143 141/141 140/140
f 136/136 125/125 135/135
f 125/125 134/134 135/135
f 130/130 129/129 131/131
f 127/127 129/129 130/130
f 150/150 149/149 153/153
f 154/154 150/150 153/153
f 128/128 129/129 126/126
f 126/126 129/129 127/127
f 232/232 225/225 231/231
f 225/225 227/227 231/231
f 213/213 214/214 215/215
f 216/216 217/217 218/218
f 316/316 317/317 318/318
f 297/297 298/298 299/299
f 219/219 220/220 221/221
f 309/309 310/310 311/311
f 300/300 298/298 297/297
f 294/294 295/295 296/296
f 431/431 432/432 433/433
f 434/434 432/432 431/431
f 531/531 532/532 533/533
f 441/441 438/438 435/435
f 537/537 535/535 534/534
f 534/534 535/535 536/536
f 538/538 539/539 540/540
f 316/316 318/318 319/319
f 439/439 436/436 440/440
f 437/437 436/436 439/439
f 438/438 436/436 435/435
f 435/435 436/436 437/437
f 439/439 440/440 442/442
f 439/439 442/442 443/443
f 272/272 265/265 267/267
f 266/266 267/267 265/265
f 542/542 544/544 543/543
f 541/541 542/542 543/543
f 254/254 258/258 255/255
f 255/255 258/258 259/259
f 487/487 485/485 482/482
f 485/485 483/483 482/482
f 253/253 255/255 256/256
f 255/255 257/257 256/256
f 286/286 289/289 287/287
f 286/286 287/287 288/288
f 249/249 254/254 255/255
f 249/249 255/255 253/253
f 251/251 254/254 249/249
f 248/248 251/251 249/249
f 255/255 259/259 257/257
f 259/259 260/260 257/257
f 312/312 313/313 314/314
f 315/315 312/312 314/314
f 226/226 228/228 227/227
f 225/225 226/226 227/227
f 301/301 302/302 303/303
f 301/301 303/303 304/304
f 226/226 230/230 229/229
f 226/226 229/229 228/228
f 545/545 546/546 547/547
f 548/548 549/549 550/550
f 233/233 225/225 232/232
f 290/290 291/291 292/292
f 290/290 292/292 293/293
f 284/284 280/280 282/282
f 280/280 281/281 282/282
f 125/125 126/126 127/127
f 125/125 127/127 134/134
f 4/4 5/5 6/6
f 7/7 8/8 9/9
f 162/162 160/160 159/159
f 163/163 160/160 162/162
f 205/205 206/206 203/203
f 206/206 207/207 203/203
f 158/158 164/164 159/159
f 158/158 165/165 164/164
f 131/131 133/133 132/132
f 130/130 131/131 132/132
f 170/170 171/171 172/172
f 170/170 172/172 173/173
f 79/79 80/80 81/81
f 80/80 82/82 81/81
f 119/119 115/115 117/117
f 115/115 116/116 117/117
f 117/117 116/116 118/118
f 119/119 120/120 115/115
f 1/1 2/2 3/3
f 65/65 68/68 66/66
f 65/65 66/66 67/67
f 151/151 150/150 152/152
f 149/149 150/150 151/151
f 198/198 201/201 199/199
f 198/198 199/199 200/200
f 264/264 262/262 261/261
f 261/261 262/262 263/263
f 238/238 237/237 234/234
f 222/222 223/223 224/224
f 248/248 249/249 250/250
f 262/262 268/268 263/263
f 263/263 268/268 269/269
f 454/454 447/447 444/444
f 455/455 454/454 444/444
f 551/551 552/552 553/553
f 553/553 552/552 554/554
f 273/273 276/276 274/274
f 242/242 239/239 243/243
f 242/242 240/240 239/239
f 243/243 244/244 245/245
f 456/456 457/457 458/458
f 459/459 460/460 461/461
f 273/273 274/274 275/275
f 305/305 306/306 307/307
f 240/240 238/238 239/239
f 238/238 234/234 239/239
f 277/277 278/278 279/279
f 241/241 240/240 242/242
f 241/241 246/246 238/238
f 241/241 238/238 240/240
f 306/306 308/308 307/307
f 307/307 308/308 305/305
f 270/270 268/268 271/271
f 269/269 268/268 270/270
f 281/281 285/285 283/283
f 281/281 283/283 282/282
