v -0.690346 0.272492 -0.587773 0.6819 0.7154 0.7180
v -0.632197 0.000100 -0.375920 0.6545 0.6886 0.6968
v -0.596253 0.000160 0.141996 0.7642 0.7639 0.7584
v -0.599471 0.000066 0.312628 0.4409 0.4619 0.4753
v -0.703901 0.144144 0.540385 0.3353 0.3081 0.3388
v -0.712205 0.548348 -0.492457 0.7760 0.7891 0.7768
v -0.712170 0.548548 -0.392038 0.7739 0.7739 0.7694
v -0.690256 0.541363 -0.169403 0.7642 0.7626 0.7560
v -0.691004 0.465549 0.258344 0.5442 0.5445 0.5556
v -0.618587 0.298839 0.474385 0.5290 0.4174 0.4451
v -0.712176 0.669336 -0.512200 0.5899 0.6414 0.6668
v -0.712073 0.600646 -0.443524 0.4873 0.5571 0.6026
v -0.690219 0.581696 -0.167330 0.4842 0.5530 0.5991
v -0.691066 0.552541 0.219282 0.5014 0.4264 0.4711
v -0.595163 0.550101 0.702950 0.4778 0.4595 0.4899
v -0.603306 0.732820 0.855199 0.7076 0.2914 0.2914
v -0.717432 0.926056 -0.651318 0.4369 0.5334 0.5861
v -0.679978 0.826500 -0.429494 0.4414 0.5244 0.5797
v -0.712402 0.850155 -0.148322 0.4291 0.5151 0.5735
v -0.712443 1.090491 0.463367 0.4460 0.3417 0.3886
v -0.711698 0.832588 0.557680 0.2797 0.2601 0.2929
v -0.710878 1.188587 -0.641849 0.5000 0.5000 0.5000
v -0.683867 1.363943 -0.143801 0.5000 0.5000 0.5000
v -0.710878 1.140283 0.464331 0.2675 0.3500 0.4124
v -0.649639 1.369732 0.573353 0.2719 0.3556 0.4183
v -0.692983 1.558302 -0.502844 0.7726 0.7589 0.7604
v -0.692983 1.558302 -0.335998 0.7204 0.7047 0.7125
v -0.692177 1.558344 -0.170004 0.7391 0.7248 0.7333
v -0.694111 1.599529 0.183278 0.6660 0.6702 0.6813
v -0.694272 1.573628 0.467428 0.4261 0.4654 0.4993
v -0.590649 1.722895 -0.696310 0.7143 0.7289 0.7342
v -0.585006 1.742283 -0.333773 0.7104 0.7324 0.7312
v -0.692789 1.654575 -0.149776 0.6939 0.7098 0.7187
v -0.682942 1.825832 0.235284 0.6112 0.6426 0.6707
v -0.694181 1.651376 0.471138 0.4944 0.5479 0.5704
v -0.691182 1.947859 -0.506417 0.6727 0.7152 0.7213
v -0.714608 2.020049 -0.410360 0.6077 0.6613 0.6680
v -0.704295 1.951630 -0.168247 0.5985 0.6411 0.6575
v -0.667852 2.075291 0.292489 0.4324 0.4818 0.5017
v -0.715803 1.937820 0.497186 0.5788 0.6545 0.6636
v -0.658356 2.199268 -0.203938 0.5857 0.6603 0.6653
v -0.839517 2.400000 -0.090943 0.4991 0.5783 0.6090
v -0.317212 0.241753 -0.744716 0.6359 0.6846 0.6896
v -0.450110 0.000155 -0.172650 0.5511 0.6170 0.6386
v -0.581622 0.000202 0.138286 0.4992 0.5790 0.6071
v -0.572953 0.000139 0.310323 0.4733 0.5350 0.5562
v -0.301157 0.000139 0.496302 0.4633 0.3798 0.4092
v -0.336650 0.529186 -0.735863 0.7661 0.7838 0.7721
v -0.575985 0.532381 0.354254 0.3862 0.4138 0.4287
v -0.348744 0.544711 0.669421 0.5822 0.5288 0.5398
v -0.300952 0.781576 -0.710687 0.6990 0.7280 0.7318
v -0.576087 0.549148 0.359821 0.5764 0.2935 0.2979
v -0.303824 0.586451 0.696426 0.5131 0.2988 0.3006
v -0.313757 0.684885 0.826426 0.6332 0.3269 0.3318
v -0.308749 0.846051 -0.706187 0.4119 0.5171 0.5731
v -0.313461 0.909257 0.464236 0.6271 0.1235 0.1416
v -0.303473 0.904274 0.492089 0.4371 0.2369 0.2408
v -0.310389 1.557927 -0.740372 0.7738 0.7617 0.7669
v -0.302289 1.722913 -0.588675 0.7265 0.7250 0.7312
v -0.464569 1.776350 -0.470803 0.5848 0.6185 0.6470
v -0.317816 1.742338 -0.139511 0.6081 0.6455 0.6760
v -0.304388 1.722892 0.458383 0.6367 0.6655 0.6905
v -0.303824 1.722918 0.500823 0.5680 0.6212 0.6293
v -0.570445 2.152375 -0.277446 0.6775 0.7420 0.7374
v -0.550112 1.944272 0.461538 0.5579 0.6104 0.6142
v -0.531812 1.923275 0.482248 0.6931 0.7661 0.7603
v -0.312479 2.211406 -0.188813 0.6448 0.7246 0.7163
v -0.560285 2.221839 -0.170775 0.6037 0.6727 0.6647
v -0.251301 0.243351 -0.744774 0.4391 0.5452 0.5733
v -0.296027 0.000074 -0.248658 0.4576 0.5532 0.5827
v -0.053723 0.000147 -0.027938 0.4272 0.5326 0.5685
v -0.133842 0.000157 0.172900 0.5134 0.5858 0.6046
v -0.234477 0.000000 0.477863 0.5939 0.6527 0.6554
v -0.162873 0.294250 -0.735689 0.7703 0.7779 0.7686
v -0.030323 0.483484 0.632289 0.7862 0.8043 0.7838
v -0.056800 0.781754 -0.710687 0.7379 0.7673 0.7622
v -0.021512 0.816621 0.435884 0.5782 0.2836 0.2848
v -0.058801 0.550471 0.675028 0.6060 0.3357 0.3386
v -0.033053 0.682424 0.796787 0.6092 0.2164 0.2320
v -0.025358 0.844474 -0.704309 0.4233 0.5177 0.5735
v -0.150404 0.825002 0.439094 0.4884 0.0949 0.1096
v -0.268973 0.891291 0.596294 0.6619 0.2243 0.2344
v -0.020670 1.371521 0.451661 0.8670 0.8194 0.8238
v -0.124019 1.343967 0.631377 0.8862 0.8308 0.8409
v -0.161071 1.557284 -0.742250 0.7670 0.7493 0.7580
v -0.019155 1.392305 0.464630 0.8684 0.8160 0.8219
v -0.039566 1.455362 0.648785 0.8799 0.8267 0.8346
v -0.263303 1.722944 -0.651202 0.7220 0.7204 0.7324
v -0.295180 1.761291 -0.450233 0.6435 0.6609 0.6862
v -0.238989 1.742351 -0.167549 0.6018 0.6426 0.6750
v -0.018229 1.722805 0.293031 0.5694 0.6177 0.6536
v -0.022270 1.783873 0.586590 0.5206 0.5800 0.6223
v -0.235543 1.950685 -0.630761 0.5000 0.5000 0.5000
v -0.217243 2.046438 -0.490664 0.3527 0.4232 0.4567
v -0.201959 2.164366 0.146463 0.3464 0.4183 0.4549
v -0.201972 2.158778 0.154810 0.4044 0.4941 0.5503
v -0.207159 1.955799 0.467294 0.4052 0.4941 0.5503
v -0.174074 2.197100 -0.242921 0.4757 0.5316 0.5288
v -0.081422 2.234124 -0.160230 0.4116 0.4743 0.4928
v 0.017674 0.241753 -0.744801 0.3778 0.4959 0.5321
v 0.017469 0.000163 -0.173345 0.3576 0.4721 0.5141
v 0.050298 0.000144 -0.142328 0.4726 0.5672 0.5960
v -0.013305 0.000136 0.168723 0.2863 0.3741 0.4086
v -0.013305 0.000139 0.487836 0.5349 0.5925 0.6051
v -0.011870 0.294450 -0.735768 0.7812 0.8077 0.7934
v 0.111437 0.514127 0.652864 0.7031 0.6318 0.6275
v 0.252440 0.781620 -0.710687 0.7603 0.7778 0.7709
v 0.090306 0.786280 0.424906 0.6078 0.2408 0.2498
v 0.140981 0.549634 0.675842 0.5698 0.2998 0.3116
v 0.226332 0.680705 0.803238 0.5610 0.3466 0.3691
v -0.011665 0.847248 -0.708831 0.4127 0.5185 0.5778
v 0.047938 0.826400 0.439494 0.5028 0.1303 0.1459
v 0.153703 0.925531 0.718986 0.4954 0.2077 0.2241
v 0.161832 0.878898 0.786540 0.4417 0.3115 0.3432
v 0.081006 1.352957 0.438747 0.8167 0.7869 0.7893
v 0.123566 1.358653 0.492964 0.8736 0.8225 0.8331
v 0.243566 1.495031 -0.740372 0.7719 0.7560 0.7647
v 0.003727 1.390773 0.463544 0.8238 0.7898 0.7916
v -0.013971 1.435244 0.525438 0.8741 0.8223 0.8325
v 0.038911 1.648907 -0.738329 0.6071 0.6343 0.6665
v 0.009674 1.742427 -0.178216 0.6382 0.6615 0.6898
v -0.009100 1.742427 -0.164708 0.6769 0.6920 0.7132
v 0.248348 1.742404 0.270462 0.5512 0.5946 0.6312
v 0.263673 1.797089 0.592197 0.5356 0.5746 0.6088
v 0.261210 2.020753 -0.526498 0.4163 0.4857 0.5418
v 0.249670 2.050096 -0.482625 0.3148 0.3790 0.4275
v 0.252966 2.177570 0.138240 0.3466 0.4101 0.4547
v 0.261006 2.002810 0.398676 0.4133 0.4779 0.5272
v 0.247402 1.926534 0.478153 0.4211 0.5002 0.5560
v 0.233617 2.198659 -0.173518 0.3950 0.4665 0.5152
v 0.149706 2.238092 -0.142986 0.3322 0.3982 0.4459
v 0.357229 0.259317 -0.735707 0.4082 0.5094 0.5435
v 0.310335 0.000171 -0.178942 0.3834 0.5025 0.5376
v 0.273622 0.000181 0.115211 0.4634 0.5626 0.5913
v 0.282137 0.000155 0.168260 0.3247 0.4407 0.4828
v 0.333840 0.000097 0.473922 0.3699 0.3428 0.3648
v 0.319888 0.286465 -0.735701 0.7392 0.7615 0.7575
v 0.271168 0.435668 0.603723 0.5048 0.3102 0.3201
v 0.352406 0.781725 -0.710687 0.7095 0.7309 0.7284
v 0.342867 0.786280 0.425110 0.6040 0.2557 0.2715
v 0.279982 0.563622 0.685649 0.6059 0.3318 0.3481
v 0.544753 0.681548 0.799921 0.5244 0.4592 0.4850
v 0.264903 0.846699 -0.707108 0.4490 0.4981 0.5333
v 0.543110 0.828817 0.440445 0.5266 0.1306 0.1460
v 0.342867 0.823926 0.535824 0.4674 0.2166 0.2354
v 0.368092 0.873309 0.785611 0.4351 0.3438 0.3731
v 0.416729 1.495007 -0.713470 0.7737 0.7624 0.7666
v 0.538905 1.652373 -0.738414 0.5823 0.6171 0.6522
v 0.543315 1.742299 -0.197581 0.5863 0.6203 0.6538
v 0.276905 1.742396 -0.104351 0.6960 0.7034 0.7208
v 0.519864 1.742422 0.152200 0.5404 0.5742 0.6058
v 0.482073 1.858351 0.614647 0.5393 0.5811 0.6159
v 0.275572 2.030569 -0.511807 0.4129 0.4809 0.5385
v 0.276802 2.045221 -0.489981 0.2902 0.3500 0.3918
v 0.293608 2.132428 0.134866 0.3205 0.3833 0.4265
v 0.293600 1.931724 0.444237 0.3847 0.4445 0.4872
v 0.293726 1.926434 0.484388 0.4341 0.5118 0.5636
v 0.475649 2.211490 -0.173183 0.4395 0.5127 0.5597
v 0.546395 2.265722 -0.011298 0.3294 0.3940 0.4374
v 0.550087 0.000165 -0.551131 0.5670 0.6235 0.6377
v 0.564654 0.000084 -0.234107 0.4576 0.5285 0.5618
v 0.568552 0.000108 -0.168940 0.6149 0.6542 0.6662
v 0.572578 0.000136 0.150868 0.4325 0.4998 0.5326
v 0.623947 0.000034 0.468818 0.3581 0.2741 0.3058
v 0.586177 0.318023 -0.735732 0.6358 0.6704 0.6780
v 0.696608 0.546753 -0.321886 0.6082 0.6383 0.6526
v 0.718249 0.514016 0.143679 0.6119 0.6428 0.6566
v 0.631558 0.457329 0.453514 0.5479 0.5816 0.6038
v 0.566243 0.341182 0.543751 0.4057 0.3699 0.3867
v 0.697118 0.679514 -0.499271 0.6980 0.7084 0.7110
v 0.697150 0.682983 -0.445380 0.5799 0.6290 0.6547
v 0.718692 0.615815 0.140896 0.4910 0.5672 0.6118
v 0.631676 0.574136 0.443323 0.4920 0.4416 0.4769
v 0.631423 0.571505 0.689137 0.5539 0.4096 0.4271
v 0.633394 0.676709 0.786171 0.7716 0.2305 0.2428
v 0.661126 1.090032 -0.725064 0.4788 0.5193 0.5514
v 0.734588 0.832588 -0.449090 0.4228 0.5148 0.5700
v 0.686785 1.055498 -0.074319 0.4331 0.5215 0.5788
v 0.723660 1.095001 0.462724 0.4926 0.4057 0.4536
v 0.736376 1.092228 0.471138 0.6044 0.1446 0.1607
v 0.735972 1.146205 -0.650379 0.5000 0.5000 0.5000
v 0.687470 1.137588 -0.075246 0.5000 0.5000 0.5000
v 0.724488 1.205577 0.466184 0.3608 0.4353 0.4889
v 0.749222 1.372327 0.506390 0.3595 0.4353 0.4895
v 0.730348 1.608063 -0.503356 0.7731 0.7671 0.7670
v 0.730418 1.641843 -0.382587 0.7642 0.7608 0.7576
v 0.730397 1.633811 -0.163373 0.7703 0.7577 0.7609
v 0.708753 1.635782 0.237400 0.7248 0.7192 0.7261
v 0.708648 1.568737 0.467428 0.7248 0.7178 0.7279
v 0.733507 1.669571 -0.503938 0.5575 0.5901 0.6166
v 0.733507 1.669513 -0.400852 0.6786 0.6871 0.6976
v 0.733507 1.669534 -0.171260 0.7640 0.7523 0.7545
v 0.578609 1.742419 0.158404 0.7367 0.7297 0.7361
v 0.708888 1.884916 0.519096 0.6940 0.6945 0.7043
v 0.760431 1.923241 -0.592876 0.3922 0.4366 0.4614
v 0.760483 2.025239 -0.444801 0.3968 0.4537 0.4912
v 0.759622 2.173947 -0.074319 0.2275 0.2745 0.3203
v 0.685909 1.923393 0.340746 0.4932 0.5532 0.5683
v 0.712502 1.922441 0.468355 0.5072 0.5660 0.5765
v 0.760332 2.209428 -0.190798 0.4222 0.4941 0.5556
v 0.759644 2.202290 -0.079423 0.3569 0.4205 0.4767
f 191 185 190
f 187 186 191
f 187 191 192
f 186 185 191
f 185 147 148
f 190 185 148
f 148 147 190
f 147 185 190
f 120 117 148
f 117 147 148
f 89 60 90
f 90 60 61
f 150 122 151
f 122 123 151
f 89 90 122
f 121 89 122
f 149 121 150
f 150 121 122
f 193 150 151
f 150 193 192
f 191 150 192
f 149 150 191
f 11 6 12
f 6 7 12
f 27 26 32
f 32 26 31
f 60 59 88
f 88 89 60
f 28 32 33
f 27 32 28
f 88 85 120
f 85 117 120
f 31 26 58
f 31 58 59
f 59 58 85
f 59 85 88
f 31 60 32
f 60 31 59
f 193 152 194
f 193 151 152
f 198 193 194
f 198 194 199
f 157 152 156
f 74 105 69
f 100 69 105
f 187 188 193
f 192 187 193
f 188 189 194
f 193 188 194
f 148 190 149
f 191 149 190
f 188 192 193
f 187 192 188
f 194 189 193
f 189 188 193
f 121 148 149
f 121 120 148
f 6 11 7
f 7 11 12
f 8 7 12
f 118 115 119
f 115 116 119
f 63 62 91
f 63 91 92
f 92 123 124
f 91 123 92
f 121 89 120
f 88 120 89
f 86 83 87
f 83 84 87
f 86 83 118
f 118 83 115
f 118 86 119
f 86 87 119
f 123 150 151
f 123 122 150
f 124 123 152
f 152 123 151
f 90 122 123
f 90 123 91
f 84 116 119
f 87 84 119
f 61 89 90
f 60 89 61
f 34 33 61
f 34 61 62
f 61 90 62
f 90 91 62
f 12 11 17
f 12 17 18
f 76 111 107
f 111 76 80
f 100 105 137
f 132 100 137
f 137 139 165
f 69 43 48
f 74 69 48
f 51 6 11
f 48 6 51
f 43 1 6
f 43 6 48
f 48 51 76
f 74 48 76
f 170 137 165
f 170 139 137
f 139 176 143
f 139 170 176
f 105 107 137
f 105 137 139
f 137 107 139
f 111 107 139
f 111 139 143
f 165 139 170
f 11 17 55
f 51 11 55
f 76 51 55
f 51 76 80
f 76 55 80
f 55 51 80
f 74 76 105
f 107 105 76
f 4 3 45
f 4 45 46
f 138 106 109
f 138 109 141
f 138 141 174
f 138 174 169
f 168 169 173
f 174 173 169
f 53 78 75
f 50 53 75
f 75 78 109
f 75 109 106
f 151 156 152
f 152 124 151
f 123 128 156
f 151 123 156
f 124 123 151
f 59 60 89
f 88 59 89
f 153 125 154
f 154 125 126
f 126 153 154
f 126 125 153
f 120 148 153
f 125 120 153
f 121 88 89
f 121 120 88
f 133 160 161
f 132 160 133
f 103 102 135
f 102 134 135
f 69 100 101
f 70 69 101
f 71 70 102
f 70 101 102
f 73 46 72
f 71 102 72
f 72 102 103
f 72 46 71
f 101 100 133
f 100 132 133
f 102 101 134
f 101 133 134
f 162 134 161
f 133 161 134
f 4 46 47
f 5 4 47
f 135 162 163
f 134 162 135
f 103 135 104
f 104 135 136
f 47 46 73
f 72 104 73
f 72 103 104
f 45 44 71
f 44 70 71
f 46 45 71
f 135 163 164
f 136 135 164
f 1 43 2
f 2 43 44
f 3 2 45
f 2 44 45
f 43 69 44
f 44 69 70
f 26 31 59
f 58 26 59
f 170 166 171
f 170 165 166
f 29 34 35
f 30 29 35
f 33 32 60
f 60 61 33
f 35 34 62
f 35 62 63
f 28 33 34
f 29 28 34
f 28 29 33
f 33 29 34
f 2 6 7
f 2 1 6
f 13 12 18
f 13 18 19
f 8 12 13
f 3 2 7
f 3 7 8
f 9 8 13
f 9 13 14
f 3 8 9
f 4 3 9
f 167 172 168
f 168 172 173
f 201 196 200
f 155 128 156
f 196 201 197
f 190 191 196
f 195 190 196
f 127 155 156
f 127 156 128
f 165 161 166
f 160 161 165
f 166 161 167
f 161 162 167
f 171 166 172
f 166 167 172
f 184 180 179
f 179 183 184
f 167 162 163
f 167 163 168
f 172 167 173
f 173 167 168
f 172 173 178
f 178 173 179
f 135 136 163
f 163 136 164
f 4 9 49
f 46 4 49
f 138 136 164
f 169 138 164
f 136 138 169
f 164 136 169
f 104 75 106
f 136 104 106
f 106 136 138
f 174 173 179
f 174 179 180
f 9 4 5
f 9 5 10
f 163 164 169
f 168 163 169
f 50 46 49
f 46 50 47
f 73 47 50
f 73 50 75
f 5 47 10
f 10 47 50
f 104 73 75
f 175 142 174
f 142 141 174
f 110 79 109
f 78 109 79
f 109 78 106
f 75 106 78
f 15 10 50
f 15 50 53
f 109 141 110
f 110 141 142
f 53 50 78
f 78 50 75
f 171 176 177
f 171 170 176
f 172 171 177
f 178 172 177
f 167 171 172
f 167 166 171
f 173 172 179
f 179 172 178
f 161 160 166
f 160 165 166
f 160 132 165
f 165 132 137
f 174 168 173
f 169 168 174
f 161 166 162
f 162 166 167
f 130 126 131
f 127 159 155
f 127 126 154
f 131 155 159
f 131 127 155
f 126 127 131
f 127 131 159
f 155 154 159
f 127 154 155
f 137 160 165
f 132 160 137
f 132 100 101
f 132 101 133
f 11 6 48
f 76 74 107
f 74 105 107
f 46 47 72
f 72 47 73
f 43 1 44
f 1 2 44
f 44 3 45
f 44 2 3
f 103 104 136
f 135 103 136
f 103 72 73
f 48 43 74
f 43 69 74
f 11 48 51
f 72 45 46
f 71 45 72
f 101 102 133
f 133 102 134
f 69 43 70
f 43 44 70
f 158 130 131
f 159 158 131
f 158 154 126
f 130 158 126
f 155 127 128
f 154 158 159
f 32 31 36
f 32 36 37
f 67 98 99
f 68 67 99
f 67 41 68
f 68 41 42
f 98 67 68
f 98 68 99
f 98 94 99
f 94 95 99
f 41 37 42
f 37 38 42
f 37 31 32
f 38 32 33
f 32 38 37
f 41 37 67
f 67 37 64
f 37 41 64
f 64 41 67
f 36 31 37
f 42 67 68
f 42 41 67
f 53 50 49
f 53 49 52
f 49 9 52
f 9 14 52
f 15 53 54
f 16 15 54
f 14 10 15
f 9 10 14
f 14 9 15
f 15 16 53
f 53 16 54
f 53 54 57
f 57 53 82
f 78 53 82
f 79 53 78
f 54 53 79
f 17 11 18
f 11 12 18
f 20 21 24
f 24 21 25
f 15 14 21
f 14 20 21
f 9 10 15
f 4 9 10
f 5 4 10
f 19 12 13
f 18 12 19
f 2 3 8
f 7 2 8
f 14 13 19
f 14 19 20
f 20 14 15
f 20 15 21
f 62 33 34
f 33 62 61
f 156 128 129
f 156 129 157
f 124 91 92
f 123 91 124
f 92 91 96
f 92 96 97
f 129 128 124
f 129 124 157
f 157 124 152
f 128 123 124
f 35 34 39
f 35 39 40
f 63 65 66
f 39 40 65
f 35 39 63
f 63 39 65
f 33 37 38
f 33 32 37
f 65 40 66
f 40 35 63
f 63 66 40
f 53 52 78
f 81 82 113
f 112 81 113
f 112 77 81
f 108 77 112
f 108 112 144
f 140 108 144
f 144 112 113
f 144 113 145
f 140 173 174
f 141 140 174
f 109 141 142
f 142 141 146
f 141 109 113
f 141 113 145
f 146 141 145
f 110 114 109
f 114 110 142
f 114 142 146
f 113 146 145
f 110 109 142
f 113 114 146
f 114 113 109
f 174 173 180
f 173 179 180
f 173 140 179
f 140 144 179
f 179 145 180
f 179 144 145
f 180 145 141
f 180 141 174
f 109 108 141
f 108 140 141
f 78 54 79
f 109 78 110
f 78 79 110
f 109 82 78
f 113 82 109
f 57 21 53
f 78 53 54
f 57 53 78
f 57 78 82
f 141 142 175
f 174 141 175
f 21 15 53
f 56 20 21
f 21 57 56
f 14 20 56
f 52 14 56
f 52 56 77
f 77 56 81
f 52 77 78
f 81 56 57
f 81 57 82
f 109 145 113
f 109 141 145
f 77 108 78
f 109 78 108
