v -0.294874 0.095474 -0.352944 0.2948 0.3521 0.3890
v -0.447745 0.151763 -0.063861 0.1464 0.2242 0.2757
v -0.254443 0.075124 -0.012507 0.2709 0.1356 0.1610
v -0.368977 0.162384 0.270162 0.2735 0.1178 0.1445
v -0.279991 0.164793 0.359442 0.6384 0.0518 0.0262
v -0.299843 0.224256 -0.260820 0.2793 0.3038 0.3162
v -0.315403 0.223410 -0.211122 0.3610 0.0887 0.0815
v -0.256118 0.206878 0.081182 0.4895 0.0424 0.0281
v -0.259276 0.196720 0.156725 0.5160 0.0440 0.0354
v -0.279398 0.173169 0.358845 0.6501 0.0598 0.0348
v -0.267401 0.528914 -0.281408 0.3221 0.3357 0.3386
v -0.336062 0.523483 -0.252847 0.2250 0.0512 0.0474
v -0.266089 0.517394 0.001117 0.2583 0.0585 0.0635
v -0.274579 0.492305 0.199928 0.5130 0.0804 0.0629
v -0.258258 0.409666 0.373061 0.6832 0.0732 0.0341
v -0.266998 0.697915 -0.366996 0.1778 0.1713 0.1583
v -0.377628 0.697327 -0.253431 0.0274 0.0346 0.0396
v -0.255041 0.581288 0.005309 0.1486 0.1349 0.1477
v -0.302619 0.556765 0.168295 0.2774 0.0869 0.0843
v -0.255115 0.587561 0.362441 0.5390 0.0441 0.0151
v -0.254700 0.778692 -0.351835 0.4014 0.4315 0.4464
v -0.379504 0.721240 -0.250362 0.2604 0.2879 0.3042
v -0.415686 0.785427 -0.041316 0.1406 0.1383 0.1500
v -0.375608 0.788855 0.160743 0.5178 0.1591 0.1411
v -0.257172 0.745012 0.361586 0.6776 0.0741 0.0315
v -0.108160 0.090645 -0.441661 0.0832 0.2470 0.3106
v -0.055031 0.029426 -0.110814 0.0321 0.1543 0.2009
v -0.215461 0.167086 0.027766 0.0158 0.0575 0.0752
v -0.049622 0.159940 0.236113 0.0727 0.2246 0.2706
v -0.249951 0.161857 0.380560 0.1566 0.2576 0.3165
v -0.049684 0.232085 -0.441750 0.2187 0.2623 0.2878
v -0.216729 0.194820 -0.062764 0.0059 0.0096 0.0110
v -0.247488 0.205320 0.096453 0.0057 0.0149 0.0176
v -0.050189 0.177778 0.240386 0.0821 0.0274 0.0291
v -0.050892 0.290779 0.428438 0.3725 0.0846 0.0912
v -0.253598 0.529352 -0.285041 0.0944 0.1239 0.1446
v -0.171454 0.523823 -0.244232 0.0097 0.0497 0.0649
v -0.248492 0.515179 0.096611 0.0070 0.0316 0.0409
v -0.129927 0.526878 0.224677 0.0696 0.0316 0.0293
v -0.054282 0.451686 0.447406 0.3089 0.0904 0.0776
v -0.058466 0.533226 -0.384433 0.1233 0.1315 0.1301
v -0.073776 0.714795 -0.217533 0.0085 0.0452 0.0602
v -0.134836 0.586706 0.133573 0.0158 0.0960 0.1286
v -0.056070 0.534021 0.266696 0.0212 0.0102 0.0124
v -0.054939 0.540843 0.359801 0.2371 0.0310 0.0291
v -0.231182 0.778718 -0.367828 0.3667 0.4796 0.5215
v -0.054711 0.736986 -0.083575 0.1493 0.2087 0.2305
v -0.050176 0.725731 0.143703 0.0386 0.0526 0.0587
v -0.247672 0.798174 0.292577 0.0650 0.0672 0.0709
v -0.085370 0.800000 0.363392 0.4550 0.1434 0.1392
v 0.150550 0.000116 -0.391503 0.0689 0.1766 0.2371
v 0.034942 0.157987 -0.242377 0.0092 0.0522 0.0679
v -0.007218 0.138094 0.131509 0.0029 0.0248 0.0260
v 0.104714 0.062244 0.244730 0.0309 0.1526 0.1774
v 0.154679 0.095942 0.425250 0.0986 0.3485 0.4174
v 0.024973 0.237387 -0.440150 0.0879 0.1454 0.1906
v -0.008947 0.179036 -0.250680 0.0047 0.0111 0.0129
v 0.021962 0.285083 -0.006363 0.0054 0.0206 0.0226
v 0.089822 0.192568 0.221922 0.0242 0.0331 0.0343
v 0.067178 0.291438 0.425734 0.1221 0.1990 0.2439
v 0.128899 0.520311 -0.423016 0.0861 0.1162 0.1382
v 0.009679 0.509156 -0.063926 0.0059 0.0218 0.0289
v 0.081015 0.419742 0.030866 0.0150 0.1044 0.1365
v 0.117218 0.526924 0.228361 0.0200 0.0303 0.0343
v 0.154489 0.502414 0.402335 0.1014 0.1303 0.1468
v -0.048428 0.537164 -0.373832 0.0669 0.0847 0.0940
v 0.150278 0.560796 -0.052679 0.0101 0.0625 0.0833
v 0.142179 0.558041 0.019381 0.0100 0.0531 0.0736
v 0.057433 0.557097 0.307903 0.0045 0.0109 0.0151
v -0.023240 0.532910 0.360690 0.1419 0.1681 0.1726
v -0.049245 0.720743 -0.452594 0.2800 0.3846 0.4366
v 0.077752 0.733663 -0.052521 0.1534 0.2096 0.2365
v -0.020888 0.727514 0.146758 0.0012 0.0014 0.0027
v 0.146519 0.796942 0.356426 0.0070 0.0099 0.0091
v 0.129638 0.796406 0.364860 0.2125 0.3165 0.3595
v 0.228518 0.000000 -0.350789 0.1032 0.1968 0.2708
v 0.359522 0.001148 -0.221986 0.0288 0.1061 0.1250
v 0.184356 0.168482 -0.029931 0.0625 0.2415 0.2820
v 0.207513 0.066757 0.163821 0.0864 0.2469 0.3062
v 0.184091 0.095113 0.413203 0.1175 0.2303 0.2938
v 0.358741 0.224660 -0.261780 0.1111 0.1933 0.2591
v 0.357245 0.237391 -0.253072 0.0088 0.0161 0.0204
v 0.189565 0.185033 -0.029670 0.0248 0.0464 0.0521
v 0.160421 0.198207 0.201576 0.1171 0.1701 0.1944
v 0.192822 0.350664 0.404391 0.1535 0.2602 0.3159
v 0.185285 0.526430 -0.378555 0.0639 0.1003 0.1326
v 0.357898 0.529211 -0.210102 0.0180 0.0187 0.0213
v 0.344320 0.528490 -0.036446 0.0158 0.0247 0.0284
v 0.357168 0.411655 0.273519 0.0721 0.0905 0.0938
v 0.232648 0.421679 0.387808 0.1924 0.1646 0.1354
v 0.263848 0.535646 -0.308616 0.0996 0.1282 0.1456
v 0.350858 0.554902 -0.255842 0.0210 0.0482 0.0593
v 0.358611 0.533770 0.013121 0.0101 0.0666 0.0884
v 0.205513 0.579004 0.154729 0.1798 0.1813 0.1670
v 0.165489 0.539587 0.376341 0.2071 0.2601 0.2732
v 0.161547 0.784625 -0.389182 0.1727 0.2629 0.3259
v 0.326295 0.787339 -0.250664 0.1598 0.2104 0.2355
v 0.356768 0.797842 0.140302 0.0609 0.0752 0.0813
v 0.359302 0.788910 0.186253 0.1830 0.2371 0.2549
v 0.212133 0.781644 0.364686 0.3106 0.4117 0.4423
v 0.375549 0.094603 -0.259570 0.1002 0.1793 0.2502
v 0.402480 0.094339 -0.213819 0.1259 0.3468 0.4119
v 0.433116 0.012831 -0.046227 0.0878 0.2657 0.3255
v 0.360297 0.137809 0.277581 0.0719 0.1832 0.2321
v 0.376611 0.175577 -0.257178 0.0682 0.1204 0.1663
v 0.437185 0.168751 -0.127481 0.0895 0.1541 0.2000
v 0.452255 0.169576 -0.050373 0.1349 0.1748 0.2023
v 0.362456 0.345388 0.263794 0.1408 0.2071 0.2436
v 0.376332 0.425033 -0.259111 0.0859 0.1543 0.2129
v 0.450484 0.409779 -0.056980 0.1287 0.1458 0.1609
v 0.431286 0.413989 0.124036 0.1224 0.1024 0.0868
v 0.421028 0.412884 0.156178 0.1535 0.1753 0.1793
v 0.361624 0.604715 -0.265334 0.1399 0.2214 0.2893
v 0.372232 0.569116 -0.232458 0.2038 0.1871 0.1808
v 0.364422 0.533276 0.013038 0.1646 0.1966 0.2210
v 0.421788 0.696353 0.156182 0.1872 0.2116 0.2167
v 0.368049 0.733754 -0.256709 0.1472 0.2339 0.3064
v 0.403046 0.791162 -0.051313 0.1573 0.2447 0.3154
v 0.403516 0.791584 -0.040938 0.2755 0.3781 0.4317
v 0.367985 0.789454 0.168159 0.2872 0.4017 0.4494
f 103 102 107
f 102 105 106
f 102 106 107
f 56 26 31
f 26 56 51
f 51 56 81
f 76 51 81
f 101 76 81
f 101 81 105
f 102 101 105
f 102 77 76
f 102 76 101
f 106 82 81
f 105 81 106
f 8 9 33
f 33 7 8
f 32 7 33
f 31 6 32
f 32 6 7
f 41 36 66
f 36 61 66
f 93 111 115
f 93 88 111
f 87 110 111
f 87 111 88
f 33 9 34
f 54 29 59
f 29 34 59
f 81 56 82
f 84 112 89
f 40 35 65
f 65 60 90
f 90 60 85
f 35 60 65
f 85 84 89
f 84 108 112
f 90 85 89
f 114 91 113
f 114 92 91
f 22 21 17
f 16 17 21
f 66 41 71
f 41 46 71
f 86 61 91
f 61 66 91
f 41 21 46
f 16 21 41
f 56 82 57
f 27 52 57
f 56 31 32
f 57 56 32
f 32 27 57
f 58 59 84
f 54 53 78
f 54 78 79
f 58 54 59
f 58 53 54
f 52 27 32
f 52 32 57
f 82 57 83
f 58 83 57
f 57 32 58
f 32 33 58
f 53 52 77
f 53 77 78
f 29 33 34
f 28 33 29
f 33 28 53
f 33 53 58
f 27 26 52
f 26 51 52
f 27 53 28
f 53 27 52
f 83 58 84
f 88 82 83
f 9 4 5
f 3 4 8
f 8 4 9
f 2 3 7
f 7 3 8
f 26 1 31
f 31 1 6
f 84 79 108
f 79 104 108
f 103 107 108
f 104 103 108
f 60 55 80
f 60 80 85
f 10 5 35
f 5 30 35
f 35 30 60
f 30 55 60
f 9 5 10
f 84 85 79
f 80 79 85
f 1 2 7
f 7 6 1
f 118 117 96
f 118 96 97
f 113 96 117
f 113 117 118
f 114 113 118
f 113 91 96
f 96 66 71
f 66 96 91
f 115 118 119
f 115 114 118
f 74 75 99
f 49 50 75
f 119 99 120
f 98 99 119
f 97 98 119
f 97 119 118
f 68 67 92
f 93 68 92
f 67 68 93
f 67 68 62
f 62 68 63
f 92 87 93
f 93 87 88
f 93 88 94
f 88 89 94
f 94 89 64
f 94 64 69
f 44 69 39
f 64 39 69
f 14 13 39
f 13 38 39
f 62 87 92
f 66 62 67
f 92 67 62
f 66 67 91
f 91 67 92
f 112 88 89
f 111 88 112
f 89 65 90
f 12 11 36
f 37 12 36
f 36 41 61
f 41 66 61
f 61 62 87
f 61 86 87
f 64 39 65
f 39 40 65
f 89 64 65
f 9 35 10
f 9 34 35
f 15 10 35
f 40 15 35
f 14 9 10
f 14 10 15
f 14 15 40
f 109 86 110
f 110 86 87
f 14 40 39
f 59 60 84
f 85 84 60
f 34 35 60
f 107 84 108
f 59 34 60
f 35 34 59
f 35 59 60
f 33 8 34
f 8 9 34
f 104 79 103
f 78 103 79
f 5 4 30
f 2 27 28
f 3 2 28
f 30 29 55
f 55 29 54
f 55 54 79
f 4 3 29
f 29 3 28
f 3 27 28
f 4 29 30
f 3 2 27
f 2 1 26
f 2 26 27
f 27 26 51
f 51 27 52
f 77 51 52
f 77 51 76
f 55 79 80
f 78 102 103
f 102 77 103
f 78 77 102
f 74 49 75
f 73 74 99
f 99 98 73
f 71 46 47
f 47 71 72
f 72 71 97
f 97 72 73
f 97 73 98
f 48 23 49
f 49 23 24
f 72 42 47
f 72 67 42
f 72 47 67
f 67 47 42
f 46 21 22
f 46 22 47
f 71 96 97
f 47 22 23
f 48 47 23
f 69 49 74
f 49 44 74
f 44 49 69
f 74 44 69
f 48 49 74
f 73 48 74
f 72 47 48
f 72 48 73
f 68 93 69
f 93 94 69
f 67 66 92
f 66 91 92
f 18 44 43
f 38 43 39
f 43 44 39
f 13 18 38
f 38 18 43
f 18 19 44
f 43 17 42
f 43 18 17
f 41 67 42
f 67 41 66
f 17 18 12
f 12 18 13
f 37 17 12
f 37 42 17
f 41 42 37
f 36 41 37
f 66 61 62
f 38 44 43
f 62 57 82
f 62 82 87
f 38 42 37
f 42 38 43
f 37 42 62
f 62 42 67
f 61 86 62
f 62 86 87
f 37 36 61
f 36 37 62
f 61 36 62
f 13 8 14
f 8 9 14
f 12 7 8
f 12 8 13
f 107 83 84
f 82 83 107
f 106 82 107
f 31 7 32
f 31 6 7
f 81 56 61
f 81 61 86
f 61 56 31
f 31 36 61
f 6 11 31
f 31 11 36
f 11 7 12
f 6 7 11
f 107 106 111
f 111 106 110
f 112 107 111
f 108 107 112
f 105 81 109
f 81 86 109
f 106 105 109
f 106 109 110
f 11 12 16
f 17 16 12
f 36 11 41
f 11 16 41
f 22 18 23
f 17 18 22
f 99 75 100
f 86 91 92
f 86 92 87
f 95 94 100
f 100 94 99
f 120 99 94
f 94 116 120
f 112 111 115
f 115 116 112
f 116 94 112
f 94 89 112
f 88 111 89
f 112 89 111
f 110 87 92
f 110 92 114
f 18 24 23
f 18 19 24
f 116 119 120
f 116 115 119
f 18 13 14
f 18 14 19
f 111 114 115
f 110 114 111
f 94 90 89
f 70 65 90
f 95 70 90
f 94 95 90
f 50 45 70
f 50 70 75
f 75 95 100
f 70 95 75
f 20 45 50
f 25 20 50
f 24 19 20
f 24 20 25
f 24 49 50
f 24 25 50
f 14 39 19
f 44 19 39
f 44 39 40
f 45 44 40
f 40 45 65
f 45 70 65
f 45 44 70
f 70 44 69
f 70 69 64
f 70 64 65
f 19 45 20
f 40 39 45
f 39 44 45
f 70 40 65
f 45 40 70
f 19 44 45
f 17 12 13
f 17 13 18
f 44 64 69
f 44 39 64
f 13 38 12
f 37 12 38
f 34 33 38
f 34 38 39
f 33 32 38
f 32 37 38
f 8 7 32
f 8 32 33
f 37 57 38
f 37 62 57
f 37 32 62
f 62 32 57
f 38 57 33
f 38 33 58
f 33 57 58
f 63 38 58
f 37 38 62
f 62 38 63
f 87 82 88
f 59 64 84
f 84 64 89
f 88 89 64
f 88 64 63
f 88 83 89
f 83 84 89
f 34 39 59
f 59 39 64
f 58 57 62
f 58 62 63
f 63 68 69
f 63 69 44
f 63 44 38
f 33 32 57
f 92 67 93
f 43 68 69
f 44 43 69
f 43 68 93
f 42 37 67
f 67 37 62
f 63 38 43
f 63 43 68
f 38 37 43
f 43 37 42
f 62 63 67
f 67 63 68
f 44 92 67
f 44 67 68
f 44 68 43
f 92 42 67
