mtllib P-34_tex.mtl
v 1.101017 2.236308 0.213944
v 0.947497 2.023691 0.136550
v 1.080742 2.491729 0.144947
v 0.958576 2.505816 0.174445
v 1.101017 2.236308 0.213944
v 0.947497 2.023691 0.136550
v 1.100758 2.017198 0.212942
v 0.937239 1.988672 0.168822
v 0.958576 2.505816 0.174445
v 1.080742 2.491729 0.144947
v 1.100758 2.017198 0.212942
v 0.937239 1.988672 0.168822
v 1.101017 2.236308 0.213944
v 0.937239 1.988672 0.168822
v 0.942999 2.024759 0.117074
v 0.947497 2.023691 0.136550
v 1.101017 2.236308 0.213944
v 0.962257 1.979724 0.021942
v 0.947497 2.023691 0.136550
v 0.962257 1.979724 0.021942
v 0.937239 1.988672 0.168822
v 0.942999 2.024759 0.117074
v 0.727513 1.291262 0.417169
v 1.102737 1.442674 0.229230
v 1.057965 1.273381 0.376616
v 0.727513 1.291262 0.417169
v 1.005976 1.283205 0.286625
v 1.102737 1.442674 0.229230
v 1.030196 1.248149 0.277085
v 1.005976 1.283205 0.286625
v 0.727513 1.291262 0.417169
v 0.684979 1.244267 0.440161
v -0.125283 2.183042 0.390525
v -0.558515 1.936821 0.436435
v -0.164486 1.918425 0.398240
v 0.711114 1.523974 0.377446
v 0.727513 1.291262 0.417169
v 1.040127 1.754953 0.421712
v 0.265922 1.526811 0.320288
v 1.057965 1.273381 0.376616
v -0.558515 1.936821 0.436435
v 0.124816 1.526908 0.320288
v -0.164486 1.918425 0.398240
v -0.202840 1.526885 0.320288
v -1.255726 1.757821 0.438190
v -1.364738 1.437930 0.419319
v -0.931615 1.384921 0.473842
v -0.579013 1.526848 0.320288
v -0.202840 1.526885 0.320288
v 0.834073 0.991511 -0.540086
v 0.847781 1.245049 -0.543560
v 1.030777 1.126083 -0.450701
v 1.030809 0.804532 -0.448043
v 0.771246 1.486669 -0.577232
v 0.922832 1.508798 -0.325415
v -1.281480 1.063998 0.210295
v -1.351970 1.512981 0.154790
v -1.364738 1.437930 0.419319
v -1.255726 1.757821 0.438190
v -1.351970 1.512981 0.154790
v -1.364738 1.437930 0.419319
v 1.028181 2.012021 0.426376
v 1.028830 2.026352 0.425853
v 1.036945 2.016832 0.427464
v 1.039074 2.037371 0.426687
v 0.711114 1.523974 0.377446
v 1.040127 1.754953 0.421712
v 0.985801 2.485191 0.332952
v 1.081105 2.308102 0.419641
v 0.834073 0.991511 -0.540086
v 1.018467 0.631905 -0.265522
v 0.841100 0.734873 -0.541719
v 1.050499 1.487426 0.040182
v 1.050576 1.475834 -0.070420
v 1.039115 1.532732 0.110924
v 1.039115 1.532684 -0.085894
v 1.047312 1.532690 -0.271912
v 1.049482 1.504355 -0.276398
v 1.044580 1.532389 -0.462001
v 1.102737 1.442674 0.229230
v 1.080115 1.531079 0.236912
v 1.040127 1.754953 0.421712
v 1.057965 1.273381 0.376616
v 1.079071 1.489780 -0.499432
v 0.841100 0.734873 -0.541719
v 1.018467 0.631905 -0.265522
v 1.030809 0.804532 -0.448043
v 0.834073 0.991511 -0.540086
v 1.018467 0.631905 -0.265522
v 0.834073 0.991511 -0.540086
v 1.030809 0.804532 -0.448043
v 0.958576 2.505816 0.174445
v 1.080742 2.491729 0.144947
v 0.985801 2.485191 0.332952
v 1.081105 2.308102 0.419641
v 1.028830 2.026352 0.425853
v 1.039074 2.037371 0.426687
v 1.081105 2.308102 0.419641
v 1.028181 2.012021 0.426376
v 1.036945 2.016832 0.427464
v 0.985801 2.485191 0.332952
v 0.958576 2.505816 0.174445
v 0.985801 2.485191 0.332952
v 1.081105 2.308102 0.419641
v 1.080742 2.491729 0.144947
v -1.245945 1.226521 0.348253
v -1.281480 1.063998 0.210295
v -1.364738 1.437930 0.419319
v 1.005976 1.283205 0.286625
v 0.684979 1.244267 0.440161
v 0.727513 1.291262 0.417169
v 1.030196 1.248149 0.277085
v -0.877629 1.526928 -0.414811
v -0.570330 1.618115 -0.583922
v -1.118846 1.526968 -0.270581
v -0.554566 1.654455 -0.572996
v -0.570330 1.618115 -0.583922
v -0.185415 1.526441 -0.279888
v 0.055457 1.478985 -0.463411
v -0.554566 1.654455 -0.572996
v -0.054217 1.521404 -0.461336
v -0.164486 1.918425 0.398240
v -0.202840 1.526885 0.320288
v -0.558515 1.936821 0.436435
v 0.124816 1.526908 0.320288
v -0.171168 2.043508 0.443644
v -0.125283 2.183042 0.390525
v -0.372051 1.526988 0.301677
v -0.202840 1.526885 0.320288
v 0.084501 1.526942 0.212615
v 0.124816 1.526908 0.320288
v -0.182683 1.509139 0.352189
v -0.172434 1.526962 0.124882
v 0.231417 1.526885 0.119564
v -0.162825 1.526836 -0.082488
v -0.218558 1.526894 -0.080493
v 0.225435 1.379701 0.472347
v 0.265922 1.526811 0.320288
v 0.547799 1.393935 0.460368
v 0.727513 1.291262 0.417169
v -0.585163 1.527054 -0.059225
v -0.862256 1.526748 0.172736
v -0.978253 1.526960 -0.031310
v -0.992219 1.526914 0.318959
v -1.351484 1.514749 -0.034956
v -1.351970 1.512981 0.154790
v -0.789478 1.526960 -0.069860
v -1.088267 1.526891 -0.070025
v -1.255726 1.757821 0.438190
v -0.185415 1.526441 -0.279888
v -0.120499 1.526856 -0.357650
v -0.554566 1.654455 -0.572996
v -0.054217 1.521404 -0.461336
v 0.543015 1.526957 -0.099768
v 0.563771 1.526911 0.118900
v -0.931615 1.384921 0.473842
v -0.877629 1.526928 -0.414811
v 0.264216 1.526739 -0.357650
v -1.118846 1.526968 -0.270581
v -1.351707 1.512981 -0.279055
v -1.360657 1.480538 -0.472777
v -1.340954 1.524665 -0.493238
v -0.579013 1.526848 0.320288
v 0.378674 1.526856 0.223248
v -1.351448 1.514560 -0.110070
v 0.644832 1.526942 0.124217
v 0.670327 1.527008 0.215533
v 0.711114 1.523974 0.377446
v 1.080115 1.531079 0.236912
v 1.040127 1.754953 0.421712
v 1.039115 1.532732 0.110924
v 0.620571 1.532357 -0.522980
v 0.879549 1.526031 -0.426188
v 0.974944 1.584712 -0.463365
v 1.047312 1.532690 -0.271912
v 1.039115 1.532684 -0.085894
v 1.044580 1.532389 -0.462001
v 0.771246 1.486669 -0.577232
v 1.079071 1.489780 -0.499432
v 1.030913 1.532667 -0.077171
v 1.039115 1.532684 -0.085894
v 1.030913 1.532667 -0.077171
v 1.039115 1.532732 0.110924
v -0.185415 1.526441 -0.279888
v -0.570330 1.618115 -0.583922
v -0.877629 1.526928 -0.414811
v -0.570330 1.618115 -0.583922
v -1.340954 1.524665 -0.493238
v -1.118846 1.526968 -0.270581
v 0.055457 1.478985 -0.463411
v -0.167650 1.478831 -0.463447
v -0.554566 1.654455 -0.572996
v -0.141170 1.509242 -0.271248
v -0.267415 1.509810 -0.279888
v -0.566885 1.496293 -0.474316
v -0.583116 1.509225 -0.304478
v 0.383798 1.480200 -0.463820
v -1.351707 1.512981 -0.279055
v -1.360657 1.480538 -0.472777
v 0.252941 1.509199 -0.264705
v 0.922832 1.508798 -0.325415
v 0.667722 1.509323 -0.069361
v 0.771246 1.486669 -0.577232
v 0.252255 1.509265 -0.126687
v -0.596865 1.509351 -0.183764
v 1.049482 1.504355 -0.276398
v 1.050576 1.475834 -0.070420
v 0.640733 1.509257 -0.045018
v 0.620571 1.532357 -0.522980
v 1.079071 1.489780 -0.499432
v -0.570330 1.618115 -0.583922
v 1.050499 1.487426 0.040182
v 1.102737 1.442674 0.229230
v 1.005976 1.283205 0.286625
v 0.280447 1.509277 0.132193
v 0.727513 1.291262 0.417169
v 0.547799 1.393935 0.460368
v -0.037519 1.509254 0.130531
v 0.225435 1.379701 0.472347
v -0.182683 1.509139 0.352189
v -0.484717 1.509242 0.138839
v -0.582771 1.509300 0.175893
v -0.931615 1.384921 0.473842
v -1.351970 1.512981 0.154790
v -1.364738 1.437930 0.419319
v 0.011661 1.509254 -0.064822
v -0.300899 1.509285 -0.066039
v -0.595417 1.509317 0.069052
v 0.534817 1.509283 -0.064542
v -1.340954 1.524665 -0.493238
v 0.383798 1.480200 -0.463820
v -0.054217 1.521404 -0.461336
v 0.620571 1.532357 -0.522980
v 0.055457 1.478985 -0.463411
v -0.109329 1.509191 -0.256127
v -0.141170 1.509242 -0.271248
v 0.252941 1.509199 -0.264705
v 0.252255 1.509265 -0.126687
v 0.011661 1.509254 -0.064822
v -0.300899 1.509285 -0.066039
v 0.534817 1.509283 -0.064542
v -0.295434 1.509177 -0.257955
v -0.595417 1.509317 0.069052
v -0.596865 1.509351 -0.183764
v -1.351448 1.514560 -0.110070
v -1.351484 1.514749 -0.034956
v -1.351707 1.512981 -0.279055
v -0.582771 1.509300 0.175893
v -1.351970 1.512981 0.154790
v -0.267415 1.509810 -0.279888
v 0.974944 1.584712 -0.463365
v 0.982742 1.790970 -0.461420
v 0.916115 1.949155 -0.397745
v 0.918847 2.031862 -0.397478
v 0.879549 1.526031 -0.426188
v 0.916115 1.949155 -0.397745
v 0.918847 2.031862 -0.397478
v 0.935128 2.043038 -0.087971
v 0.927049 1.983775 -0.069526
v 0.918847 2.031862 -0.397478
v 0.982742 1.790970 -0.461420
v 0.900428 2.088365 -0.478137
v 0.935128 2.043038 -0.087971
v 0.962257 1.979724 0.021942
v 0.942999 2.024759 0.117074
v 0.927049 1.983775 -0.069526
v 1.014523 2.540408 -0.269427
v 0.814996 2.304134 -0.438053
v 1.035003 2.526567 -0.138901
v 1.035003 2.526567 -0.138901
v 1.036482 2.515377 -0.156264
v 0.928115 2.525112 0.012269
v 1.035003 2.526567 -0.138901
v 0.928115 2.525112 0.012269
v 0.926822 2.526768 0.002108
v 0.958576 2.505816 0.174445
v 0.926822 2.526768 0.002108
v 1.023478 2.527596 0.125546
v 1.014523 2.540408 -0.269427
v 0.986164 2.557343 -0.463329
v 0.814996 2.304134 -0.438053
v 0.870090 2.440351 -0.459341
v 0.497575 2.526384 -0.591103
v 0.986164 2.557343 -0.463329
v 0.814996 2.304134 -0.438053
v 1.014523 2.540408 -0.269427
v 1.036482 2.515377 -0.156264
v 1.035003 2.526567 -0.138901
v 1.036482 2.515377 -0.156264
v 1.035003 2.526567 -0.138901
v 1.044176 2.508475 -0.107412
v 1.037749 2.526587 -0.114087
v 1.042732 2.527080 -0.062388
v 1.050272 2.506750 -0.065871
v 0.007285 2.568860 -0.621837
v -0.164405 2.522052 -0.591606
v 0.497575 2.526384 -0.591103
v 0.259568 2.548628 -0.610811
v 0.926822 2.526768 0.002108
v 0.958576 2.505816 0.174445
v 1.080742 2.491729 0.144947
v 1.050272 2.506750 -0.065871
v 0.497575 2.526384 -0.591103
v 0.259568 2.548628 -0.610811
v 0.986164 2.557343 -0.463329
v 0.928115 2.525112 0.012269
v 1.044176 2.508475 -0.107412
v 1.050272 2.506750 -0.065871
v 0.958576 2.505816 0.174445
v 1.080742 2.491729 0.144947
v 1.036482 2.515377 -0.156264
v 0.900428 2.088365 -0.478137
v 0.814996 2.304134 -0.438053
v 0.870090 2.440351 -0.459341
v 0.814996 2.304134 -0.438053
v 0.900428 2.088365 -0.478137
v 0.918847 2.031862 -0.397478
v 0.497575 2.526384 -0.591103
v -0.164405 2.522052 -0.591606
v 0.259568 2.548628 -0.610811
v 0.007285 2.568860 -0.621837
v 1.023478 2.527596 0.125546
v 0.928115 2.525112 0.012269
v 0.958576 2.505816 0.174445
v 0.926822 2.526768 0.002108
v 0.814996 2.304134 -0.438053
v 0.986164 2.557343 -0.463329
v 0.870090 2.440351 -0.459341
v 1.042732 2.527080 -0.062388
v 1.037749 2.526587 -0.114087
v 1.035003 2.526567 -0.138901
v 0.926822 2.526768 0.002108
v 1.035003 2.526567 -0.138901
v 0.814996 2.304134 -0.438053
v 1.036482 2.515377 -0.156264
v 0.926822 2.526768 0.002108
v 0.928115 2.525112 0.012269
v 0.958576 2.505816 0.174445
v -1.012898 2.551928 -0.280022
v -1.029837 2.513755 -0.183669
v -1.014827 2.528868 -0.240907
v -0.965190 2.551587 -0.456173
v -0.589947 2.558959 -0.638880
v -1.012898 2.551928 -0.280022
v -1.012898 2.551928 -0.280022
v -0.589947 2.558959 -0.638880
v -1.051878 2.600000 -0.464742
v -1.071074 2.508039 -0.462318
v -1.051878 2.600000 -0.464742
v -0.589947 2.558959 -0.638880
v -1.012898 2.551928 -0.280022
v -1.071074 2.508039 -0.462318
v -1.051878 2.600000 -0.464742
v -1.020469 2.504180 -0.277768
v -1.012898 2.551928 -0.280022
v -1.020469 2.504180 -0.277768
v -1.029837 2.513755 -0.183669
v -1.051878 2.600000 -0.464742
v -1.071074 2.508039 -0.462318
v -1.014827 2.528868 -0.240907
v -1.056858 2.511609 -0.066445
v -1.029837 2.513755 -0.183669
v -1.064229 2.526527 -0.060697
v -1.056858 2.511609 -0.066445
v -1.152974 2.457801 0.316056
v -1.064229 2.526527 -0.060697
v -1.195758 2.531005 0.150874
v 1.050272 2.506750 -0.065871
v 0.926822 2.526768 0.002108
v 1.042732 2.527080 -0.062388
v 1.036482 2.515377 -0.156264
v 0.928115 2.525112 0.012269
v 1.050272 2.506750 -0.065871
v -0.171168 2.043508 0.443644
v -0.516830 2.477621 0.439923
v -0.125283 2.183042 0.390525
v -0.094269 2.390941 0.421361
v -1.276011 0.747628 -0.060481
v -1.100313 0.682658 -0.218032
v -1.276011 0.770304 -0.040689
v -1.115019 0.808586 -0.113001
v -1.112823 1.057036 0.101649
v -1.276011 0.770304 -0.040689
v -1.281480 1.063998 0.210295
v -1.276011 0.770304 -0.040689
v -1.123630 0.966485 0.128045
v -1.281480 1.063998 0.210295
v -1.112823 1.057036 0.101649
v -1.276011 0.770304 -0.040689
v -1.112823 1.057036 0.101649
v -1.123630 0.966485 0.128045
v 1.036945 2.016832 0.427464
v 1.100758 2.017198 0.212942
v 0.937239 1.988672 0.168822
v 1.028181 2.012021 0.426376
v 0.670327 1.527008 0.215533
v 1.080115 1.531079 0.236912
v 0.937239 1.988672 0.168822
v 1.100758 2.017198 0.212942
v 0.830152 0.757303 0.425634
v 0.684979 1.244267 0.440161
v 0.647991 0.849286 0.619958
v 0.436413 1.024650 0.520678
v 0.120549 1.144631 0.470497
v 0.603146 1.255910 0.440437
v 0.181235 1.024630 0.518778
v 0.603146 1.255910 0.440437
v 0.120549 1.144631 0.470497
v 0.547799 1.393935 0.460368
v 0.225435 1.379701 0.472347
v 0.727513 1.291262 0.417169
v 0.684979 1.244267 0.440161
v 0.345530 1.002355 0.511871
v 0.090651 0.984139 0.508370
v 0.571714 0.849275 0.623033
v 0.028032 0.769069 0.639275
v 0.830152 0.757303 0.425634
v 0.647991 0.849286 0.619958
v 0.684979 1.244267 0.440161
v 0.795347 1.256234 0.542509
v 0.727513 1.291262 0.417169
v 0.547799 1.393935 0.460368
v 0.702889 1.270106 0.515694
v 0.571714 0.849275 0.623033
v 0.830152 0.757303 0.425634
v 0.647991 0.849286 0.619958
v 0.120549 1.144631 0.470497
v 0.090651 0.984139 0.508370
v 0.028032 0.769069 0.639275
v 0.225435 1.379701 0.472347
v 0.120549 1.144631 0.470497
v 0.181534 1.269648 0.516358
v 0.181235 1.024630 0.518778
v 0.319908 1.269777 0.519349
v 0.436413 1.024650 0.520678
v 0.702889 1.270106 0.515694
v 0.795347 1.256234 0.542509
v 0.647991 0.849286 0.619958
v 0.547799 1.393935 0.460368
v 0.571714 0.849275 0.623033
v 0.028032 0.769069 0.639275
v 0.603146 1.255910 0.440437
v 0.684979 1.244267 0.440161
v 0.603146 1.255910 0.440437
v 0.795347 1.256234 0.542509
v 0.684979 1.244267 0.440161
v 0.702889 1.270106 0.515694
v 0.795347 1.256234 0.542509
v 0.684979 1.244267 0.440161
v 0.727513 1.291262 0.417169
v 0.702889 1.270106 0.515694
v 0.243718 2.047023 -0.555129
v 0.270452 1.985881 -0.533117
v 0.900428 2.088365 -0.478137
v 0.220860 1.986646 -0.532589
v 0.085414 2.048688 -0.556385
v 0.982742 1.790970 -0.461420
v 0.220860 1.986646 -0.532589
v -0.208650 2.051619 -0.549070
v 0.085414 2.048688 -0.556385
v 0.270452 1.985881 -0.533117
v 0.243718 2.047023 -0.555129
v -0.184140 1.984847 -0.545743
v -0.197375 0.382913 -0.448432
v -0.352148 0.398441 -0.527735
v -0.119814 0.382913 -0.448447
v 0.224582 0.400166 -0.527645
v -0.352148 0.398441 -0.527735
v -0.197375 0.382913 -0.448432
v 0.224582 0.400166 -0.527645
v -0.119814 0.382913 -0.448447
v -1.117480 0.894462 -0.542346
v -1.117480 1.139912 -0.542372
v -1.305119 1.011566 -0.435722
v -1.120212 0.503555 -0.278519
v -1.120008 0.517273 -0.265966
v -1.250729 0.599060 -0.542520
v -1.089375 0.347883 -0.471969
v -1.117480 0.894462 -0.542346
v -1.117480 1.139912 -0.542372
v -1.117480 0.894462 -0.542346
v -1.305523 0.828040 -0.436079
v -1.305119 1.011566 -0.435722
v -1.120008 0.517273 -0.265966
v -1.120008 0.517273 -0.265966
v -1.089375 0.347883 -0.471969
v -1.250729 0.599060 -0.542520
v -1.307892 0.236695 -0.472053
v -1.308042 0.234538 -0.444055
v -1.089375 0.347883 -0.471969
v -1.120212 0.503555 -0.278519
v -1.089375 0.347883 -0.471969
v -1.120008 0.517273 -0.265966
v -1.120212 0.503555 -0.278519
v -0.663746 0.433257 -0.458529
v -1.089375 0.347883 -0.471969
v -0.581750 0.408793 -0.526212
v -1.120212 0.503555 -0.278519
v -0.352148 0.398441 -0.527735
v -0.197375 0.382913 -0.448432
v 0.830238 0.379464 0.394728
v 1.039115 0.128432 0.454586
v 1.036664 0.330779 0.455282
v 0.830247 0.241224 0.416246
v 1.057321 0.730561 0.439923
v 0.830088 0.538620 0.425468
v 1.039115 0.128432 0.454586
v 0.830247 0.241224 0.416246
v 1.036664 0.330779 0.455282
v 0.830238 0.379464 0.394728
v 0.830088 0.538620 0.425468
v 1.057321 0.730561 0.439923
v -0.185756 2.521995 -0.590277
v -0.589947 2.558959 -0.638880
v -0.189260 2.562778 -0.626841
v -0.585849 2.525991 -0.609550
v -0.189260 2.562778 -0.626841
v -0.185756 2.521995 -0.590277
v -0.164405 2.522052 -0.591606
v -0.585849 2.525991 -0.609550
v -0.589947 2.558959 -0.638880
v 0.007285 2.568860 -0.621837
v -0.164405 2.522052 -0.591606
v -0.185756 2.521995 -0.590277
v 0.007285 2.568860 -0.621837
v -0.189260 2.562778 -0.626841
v 0.830152 0.757303 0.425634
v 1.057902 1.013399 0.394894
v 0.684979 1.244267 0.440161
v 1.057965 1.273381 0.376616
v 1.057434 0.764634 0.439923
v 0.830088 0.538620 0.425468
v 1.057321 0.730561 0.439923
v 0.727513 1.291262 0.417169
v 0.036243 0.537228 0.788052
v 0.126182 0.705297 0.664574
v 0.576158 0.592519 0.650948
v 0.705649 0.542771 0.624695
v 0.485870 0.592565 0.714588
v 0.576158 0.592519 0.650948
v 0.126182 0.705297 0.664574
v 0.485870 0.592565 0.714588
v 0.036243 0.537228 0.788052
v 0.028196 0.428633 0.705782
v 0.035068 0.253329 0.751310
v 0.374062 0.382243 0.750478
v 0.035068 0.253329 0.751310
v 0.028196 0.428633 0.705782
v 0.356810 0.382105 0.707941
v 0.356810 0.382105 0.707941
v 0.374062 0.382243 0.750478
v 0.650297 0.382142 0.708107
v 0.028196 0.428633 0.705782
v 0.704455 0.420006 0.820101
v 0.356810 0.382105 0.707941
v 0.704455 0.420006 0.820101
v 0.374062 0.382243 0.750478
v 0.035068 0.253329 0.751310
v 0.650297 0.382142 0.708107
v 0.654913 0.592571 0.713345
v 0.705649 0.542771 0.624695
v 0.647991 0.849286 0.619958
v 0.028196 0.428633 0.705782
v 0.126182 0.705297 0.664574
v 0.036243 0.537228 0.788052
v 0.035068 0.253329 0.751310
v 0.705649 0.542771 0.624695
v 0.650297 0.382142 0.708107
v 0.704455 0.420006 0.820101
v 0.654913 0.592571 0.713345
v 0.705649 0.542771 0.624695
v 0.704455 0.420006 0.820101
v 0.654913 0.592571 0.713345
v 0.485870 0.592565 0.714588
v 0.705649 0.542771 0.624695
v 0.705649 0.542771 0.624695
v 0.576158 0.592519 0.650948
v 0.654913 0.592571 0.713345
v 0.485870 0.592565 0.714588
v 0.654913 0.592571 0.713345
v 0.794204 0.757804 0.710168
v 0.647991 0.849286 0.619958
v 0.036243 0.537228 0.788052
v 0.028032 0.769069 0.639275
v 0.126182 0.705297 0.664574
v 0.062633 0.763626 0.715952
v 0.036243 0.537228 0.788052
v 0.028032 0.769069 0.639275
v -0.565196 1.992754 -0.576863
v -0.554566 1.654455 -0.572996
v -0.184140 1.984847 -0.545743
v -0.208650 2.051619 -0.549070
v -0.567343 2.042646 -0.577205
v -0.957845 2.021467 -0.404206
v -0.570330 1.618115 -0.583922
v -0.991747 2.021943 -0.591670
v -1.020719 1.983179 -0.275899
v -0.977985 2.021943 -0.316442
v -0.567343 2.042646 -0.577205
v -1.020719 1.983179 -0.275899
v -0.982964 1.989024 -0.464842
v -0.565196 1.992754 -0.576863
v -0.991747 2.021943 -0.591670
v -0.567343 2.042646 -0.577205
v -1.020719 1.983179 -0.275899
v -0.565196 1.992754 -0.576863
v -0.964313 2.018588 -0.373934
v -0.957845 2.021467 -0.404206
v -0.565196 1.992754 -0.576863
v -0.982964 1.989024 -0.464842
v -0.567343 2.042646 -0.577205
v -1.020719 1.983179 -0.275899
v -1.071015 1.974811 -0.137654
v -0.991742 2.022060 -0.260222
v -0.977985 2.021943 -0.316442
v -1.071219 1.974536 -0.068780
v -1.128414 2.034134 0.121226
v -1.125681 1.964969 0.128871
v -1.133879 2.032713 0.159110
v -1.252844 2.015133 0.426404
v -1.250062 2.105902 0.422010
v -1.020719 1.983179 -0.275899
v -0.964313 2.018588 -0.373934
v -0.977985 2.021943 -0.316442
v -0.957845 2.021467 -0.404206
v -0.567343 2.042646 -0.577205
v -1.117480 0.894462 -0.542346
v -1.305523 0.828040 -0.436079
v -1.305119 1.011566 -0.435722
v -1.117480 1.139912 -0.542372
v -1.305119 1.011566 -0.435722
v -1.351707 1.512981 -0.279055
v -1.360657 1.480538 -0.472777
v -1.117480 1.139912 -0.542372
v -1.351707 1.512981 -0.279055
v 0.820448 0.370837 -0.452233
v 0.640048 0.358214 -0.514928
v 1.018467 0.631905 -0.265522
v 0.841100 0.734873 -0.541719
v 0.466484 0.381034 -0.448834
v 0.499282 0.358228 -0.514917
v 0.640048 0.358214 -0.514928
v -0.119814 0.382913 -0.448447
v 0.820448 0.370837 -0.452233
v 0.224582 0.400166 -0.527645
v 0.640048 0.358214 -0.514928
v 0.822958 0.222894 -0.472634
v 0.820448 0.370837 -0.452233
v 1.008632 0.000000 -0.458677
v 1.021713 0.884188 -0.041821
v 0.838590 1.007641 0.156642
v 1.030196 1.248149 0.277085
v 1.021713 0.884188 -0.041821
v 1.030196 1.248149 0.277085
v 1.030073 1.041113 0.105607
v 1.021713 0.884188 -0.041821
v 0.853246 0.602856 -0.189486
v 0.837287 0.752458 -0.062130
v 1.021713 0.884188 -0.041821
v 0.853246 0.602856 -0.189486
v 1.018585 0.853063 -0.070187
vt 0.909550 0.680507
vt 0.951791 0.622839
vt 0.920928 0.747735
vt 0.951791 0.750227
vt 0.724977 0.380935
vt 0.681818 0.434202
vt 0.724977 0.435692
vt 0.683042 0.446315
vt 0.687944 0.313467
vt 0.719784 0.314823
vt 0.068411 0.639201
vt 0.099633 0.609190
vt 0.099633 0.684713
vt 0.861289 0.746588
vt 0.861340 0.762741
vt 0.858153 0.758746
vt 0.788338 0.781165
vt 0.882002 0.781165
vt 0.969806 0.604043
vt 0.999541 0.613740
vt 0.961892 0.613740
vt 0.974714 0.602821
vt 0.959137 0.411738
vt 0.959137 0.522748
vt 0.916896 0.483633
vt 0.825069 0.215196
vt 0.796602 0.143918
vt 0.825069 0.104186
vt 0.127181 0.984986
vt 0.120712 0.976005
vt 0.043074 0.973157
vt 0.030762 0.984986
vt 0.053719 0.279800
vt 0.053719 0.404459
vt 0.000459 0.320864
vt 0.754655 0.485420
vt 0.696075 0.473838
vt 0.787420 0.581893
vt 0.787420 0.377161
vt 0.668962 0.551280
vt 0.826905 0.073248
vt 0.634068 0.010302
vt 0.757913 0.001365
vt 0.687106 0.073248
vt 0.146657 0.740218
vt 0.137282 0.656506
vt 0.248068 0.661658
vt 0.333414 0.721891
vt 0.428375 0.740218
vt 0.727168 0.784784
vt 0.791236 0.796256
vt 0.752873 0.843902
vt 0.670799 0.832811
vt 0.856290 0.783894
vt 0.856290 0.852138
vt 0.815886 0.915489
vt 0.922406 0.872157
vt 0.922406 0.941310
vt 0.624885 0.301638
vt 0.556933 0.232089
vt 0.624885 0.217015
vt 0.368549 0.745695
vt 0.372117 0.746477
vt 0.370325 0.743876
vt 0.375521 0.744722
vt 0.227273 0.792994
vt 0.306279 0.727480
vt 0.482553 0.792994
vt 0.444950 0.752380
vt 0.216253 0.953139
vt 0.339302 0.953139
vt 0.264264 0.910373
vt 0.048056 0.642358
vt 0.042352 0.614524
vt 0.061734 0.659161
vt 0.056854 0.609148
vt 0.052015 0.561958
vt 0.044589 0.561503
vt 0.047317 0.513634
vt 0.039749 0.691959
vt 0.063227 0.691617
vt 0.126263 0.732939
vt 0.001377 0.732939
vt 0.034477 0.505459
vt 0.521638 0.885805
vt 0.604683 0.907020
vt 0.552336 0.934941
vt 0.480716 0.934941
vt 0.969238 0.126024
vt 0.969238 0.247953
vt 0.940771 0.182168
vt 0.963232 0.018060
vt 0.994031 0.015014
vt 0.959137 0.056837
vt 0.994031 0.099636
vt 0.977701 0.645460
vt 0.974894 0.647884
vt 0.954545 0.713441
vt 0.978421 0.641947
vt 0.976178 0.642876
vt 0.978421 0.762966
vt 0.840276 0.959753
vt 0.880582 0.952229
vt 0.919651 0.991356
vt 0.836088 0.991356
vt 0.787050 0.874886
vt 0.736915 0.896724
vt 0.847107 0.896724
vt 0.068452 0.875005
vt 0.158402 0.883985
vt 0.146090 0.872157
vt 0.061983 0.883985
vt 0.721989 0.913103
vt 0.631313 0.924022
vt 0.792011 0.924022
vt 0.666514 0.972247
vt 0.663453 0.982257
vt 0.789256 0.982257
vt 0.024334 0.462693
vt 0.024334 0.622839
vt 0.017906 0.491301
vt 0.739026 0.707761
vt 0.797066 0.623394
vt 0.824151 0.762056
vt 0.723342 0.582803
vt 0.727704 0.738047
vt 0.698347 0.762056
vt 0.430674 0.492215
vt 0.388176 0.496968
vt 0.315908 0.470375
vt 0.305858 0.497203
vt 0.383138 0.506068
vt 0.380395 0.448354
vt 0.278931 0.447320
vt 0.377831 0.396748
vt 0.391835 0.397205
vt 0.280531 0.549857
vt 0.270407 0.497188
vt 0.199546 0.545179
vt 0.146455 0.543430
vt 0.483953 0.402236
vt 0.553736 0.459771
vt 0.582730 0.408902
vt 0.586492 0.496072
vt 0.676546 0.407725
vt 0.676823 0.454953
vt 0.535276 0.399442
vt 0.610341 0.399187
vt 0.661839 0.550045
vt 0.383364 0.347600
vt 0.366998 0.328293
vt 0.479096 0.271546
vt 0.349824 0.302788
vt 0.200489 0.392955
vt 0.195433 0.447394
vt 0.571781 0.547214
vt 0.557173 0.313523
vt 0.270355 0.329394
vt 0.617879 0.349248
vt 0.676481 0.346989
vt 0.679063 0.298118
vt 0.669059 0.289610
vt 0.482988 0.500479
vt 0.242037 0.473163
vt 0.676516 0.389152
vt 0.175078 0.448803
vt 0.168815 0.471521
vt 0.158730 0.511823
vt 0.065984 0.477195
vt 0.064849 0.550045
vt 0.076174 0.445942
vt 0.180637 0.289362
vt 0.116054 0.314155
vt 0.090298 0.299795
vt 0.070623 0.348434
vt 0.068374 0.394580
vt 0.068533 0.301309
vt 0.144952 0.267971
vt 0.060147 0.282727
vt 0.076967 0.398906
vt 0.990358 0.687443
vt 0.987603 0.689621
vt 0.990358 0.736579
vt 0.453168 0.309827
vt 0.562743 0.248863
vt 0.630395 0.309827
vt 0.258494 0.599181
vt 0.061983 0.599181
vt 0.110622 0.537307
vt 0.275522 0.225436
vt 0.331446 0.221464
vt 0.432117 0.266151
vt 0.321307 0.173499
vt 0.353106 0.173344
vt 0.431772 0.216333
vt 0.432680 0.173642
vt 0.193227 0.231357
vt 0.624822 0.153103
vt 0.630748 0.201819
vt 0.222405 0.178931
vt 0.055564 0.205863
vt 0.114963 0.137619
vt 0.098005 0.266151
vt 0.220126 0.144560
vt 0.433881 0.143344
vt 0.022931 0.195883
vt 0.018611 0.144165
vt 0.121301 0.131088
vt 0.139796 0.263968
vt 0.019383 0.252099
vt 0.436209 0.257019
vt 0.017019 0.116456
vt 0.000459 0.069020
vt 0.030211 0.030300
vt 0.214596 0.092930
vt 0.102499 0.003077
vt 0.155566 0.000455
vt 0.294140 0.100471
vt 0.236645 0.003679
vt 0.337901 0.050633
vt 0.405747 0.113696
vt 0.431430 0.107885
vt 0.530925 0.042245
vt 0.621411 0.143692
vt 0.635904 0.076520
vt 0.275177 0.147086
vt 0.352941 0.158065
vt 0.430903 0.134730
vt 0.147074 0.134230
vt 0.626631 0.214181
vt 0.926997 0.301106
vt 0.942608 0.409918
vt 0.942608 0.240673
vt 0.930488 0.383036
vt 0.242061 0.649630
vt 0.250054 0.653412
vt 0.151091 0.651702
vt 0.151290 0.617242
vt 0.211717 0.601842
vt 0.290202 0.602207
vt 0.080349 0.601672
vt 0.288793 0.650122
vt 0.364184 0.568534
vt 0.364499 0.631657
vt 0.553998 0.613403
vt 0.554022 0.594648
vt 0.554028 0.655596
vt 0.361029 0.541856
vt 0.554178 0.547271
vt 0.281753 0.655596
vt 0.751176 0.927662
vt 0.803314 0.928236
vt 0.842744 0.952887
vt 0.863636 0.953139
vt 0.735078 0.953139
vt 0.685491 0.972247
vt 0.687766 0.951319
vt 0.766068 0.956638
vt 0.769054 0.972247
vt 0.850781 0.233844
vt 0.870983 0.172429
vt 0.870983 0.249773
vt 0.745179 0.385350
vt 0.730487 0.355435
vt 0.745179 0.332575
vt 0.730965 0.379668
vt 0.245909 0.972247
vt 0.160239 0.995905
vt 0.269513 0.995905
vt 0.726233 0.994086
vt 0.722222 0.997725
vt 0.772727 0.997725
vt 0.805785 0.598271
vt 0.805785 0.644677
vt 0.803949 0.642781
vt 0.536731 0.782985
vt 0.497245 0.762811
vt 0.536731 0.762056
vt 0.388771 0.950409
vt 0.385216 0.999545
vt 0.462351 0.999545
vt 0.032072 0.447919
vt 0.061065 0.544586
vt 0.061065 0.418440
vt 0.000459 0.467796
vt 0.026036 0.383691
vt 0.003808 0.364125
vt 0.003730 0.358963
vt 0.961607 0.751137
vt 0.958453 0.755320
vt 0.962810 0.763747
vt 0.958133 0.761645
vt 0.957300 0.774795
vt 0.962810 0.774405
vt 0.406998 0.008644
vt 0.450413 0.023203
vt 0.283287 0.023203
vt 0.343339 0.015065
vt 0.982094 0.293890
vt 0.982094 0.249773
vt 0.949687 0.251034
vt 0.947199 0.304368
vt 0.205103 0.896724
vt 0.145546 0.906733
vt 0.331956 0.906733
vt 0.841006 0.000455
vt 0.815627 0.034122
vt 0.826234 0.034098
vt 0.882920 0.002510
vt 0.880181 0.034122
vt 0.803030 0.033821
vt 0.680900 0.821201
vt 0.662534 0.765288
vt 0.680900 0.732939
vt 0.522957 0.136943
vt 0.466251 0.118744
vt 0.448577 0.136943
vt 0.923324 0.265241
vt 0.923324 0.429936
vt 0.915616 0.324419
vt 0.909550 0.387153
vt 0.923324 0.028662
vt 0.886052 0.027292
vt 0.922914 0.007734
vt 0.883838 0.028662
vt 0.699265 0.774795
vt 0.776400 0.774795
vt 0.735728 0.766606
vt 0.675794 0.560965
vt 0.666177 0.570138
vt 0.661616 0.574613
vt 0.706612 0.574613
vt 0.531221 0.988626
vt 0.640496 0.988626
vt 0.535512 0.984986
vt 0.808540 0.232484
vt 0.807622 0.229869
vt 0.808540 0.187898
vt 0.955464 0.810282
vt 0.955464 0.836670
vt 0.952709 0.821485
vt 0.001377 0.902920
vt 0.028007 0.802093
vt 0.028007 0.940400
vt 0.259412 0.282530
vt 0.398990 0.282530
vt 0.282155 0.238853
vt 0.038108 0.684713
vt 0.015152 0.677774
vt 0.038108 0.556415
vt 0.368805 0.945347
vt 0.381543 0.993176
vt 0.357668 0.993176
vt 0.381088 0.944950
vt 0.982363 0.163739
vt 0.994669 0.163375
vt 0.993011 0.140582
vt 0.971074 0.211556
vt 0.994950 0.211556
vt 0.995868 0.547316
vt 0.991276 0.501843
vt 0.991765 0.532294
vt 0.995868 0.500000
vt 0.241047 0.840309
vt 0.140955 0.840309
vt 0.239717 0.836122
vt 0.180529 0.815742
vt 0.007805 0.792084
vt 0.043618 0.792084
vt 0.010588 0.786624
vt 0.284206 0.893995
vt 0.334711 0.893995
vt 0.301344 0.878526
vt 0.471534 0.879436
vt 0.612948 0.879436
vt 0.491681 0.847343
vt 0.528673 0.809372
vt 0.071967 0.764786
vt 0.010560 0.764786
vt 0.076676 0.758789
vt 0.038555 0.733849
vt 0.947199 0.362175
vt 0.994031 0.285259
vt 0.994031 0.381711
vt 0.988522 0.504550
vt 0.949035 0.568601
vt 0.988522 0.601001
vt 0.938935 0.590105
vt 0.978421 0.408098
vt 0.978421 0.498180
vt 0.960973 0.481455
vt 0.715190 0.270190
vt 0.771809 0.271611
vt 0.771809 0.228844
vt 0.714876 0.267843
vt 0.394399 0.765696
vt 0.389060 0.868517
vt 0.273831 0.826952
vt 0.265840 0.868517
vt 0.799357 0.439035
vt 0.926997 0.439035
vt 0.835937 0.378981
vt 0.105143 0.888535
vt 0.035354 0.938581
vt 0.160239 0.938581
vt 0.042698 0.903502
vt 0.686401 0.610967
vt 0.664265 0.731281
vt 0.721304 0.623856
vt 0.721304 0.703069
vt 0.695104 0.580000
vt 0.683741 0.591391
vt 0.620140 0.676963
vt 0.623861 0.740953
vt 0.559688 0.633604
vt 0.565743 0.767516
vt 0.563310 0.550955
vt 0.969238 0.808462
vt 0.969238 0.916743
vt 0.931589 0.911267
vt 0.492002 0.955869
vt 0.444904 0.981347
vt 0.497245 0.981347
vt 0.996786 0.414468
vt 0.996786 0.499090
vt 0.984848 0.429522
vt 0.133609 0.999545
vt 0.092080 0.991356
vt 0.027089 0.999545
vt 0.638167 0.121417
vt 0.631313 0.184112
vt 0.641502 0.151204
vt 0.658371 0.208327
vt 0.671528 0.139422
vt 0.718965 0.186493
vt 0.762156 0.107083
vt 0.787420 0.103708
vt 0.787420 0.213943
vt 0.713325 0.087807
vt 0.769492 0.221588
vt 0.647689 0.288899
vt 0.734182 0.113745
vt 0.611924 0.048681
vt 0.593664 0.059600
vt 0.648760 0.059600
vt 0.911387 0.745678
vt 0.898531 0.728888
vt 0.911387 0.707461
vt 0.057392 0.898544
vt 0.039945 0.897796
vt 0.057392 0.877616
vt 0.244648 0.800303
vt 0.233730 0.813691
vt 0.085377 0.749318
vt 0.245824 0.816652
vt 0.283287 0.809917
vt 0.046373 0.816652
vt 0.025948 0.963972
vt 0.135445 0.946961
vt 0.060546 0.946770
vt 0.013315 0.964058
vt 0.020218 0.947059
vt 0.129129 0.964058
vt 0.114330 0.655043
vt 0.135445 0.616470
vt 0.114325 0.674377
vt 0.135445 0.760237
vt 0.394399 0.691083
vt 0.433326 0.670160
vt 0.539486 0.691083
vt 0.452837 0.670155
vt 0.150138 0.966788
vt 0.212580 0.966788
vt 0.179926 0.913103
vt 0.617496 0.902988
vt 0.618667 0.907643
vt 0.681791 0.853418
vt 0.610193 0.842129
vt 0.740588 0.907643
vt 0.551423 0.694836
vt 0.491487 0.694722
vt 0.468650 0.747498
vt 0.513424 0.747498
vt 0.374196 0.708158
vt 0.942073 0.921292
vt 0.915060 0.983167
vt 0.992195 0.983167
vt 0.601928 0.972817
vt 0.597982 0.978617
vt 0.552145 0.936761
vt 0.505510 0.978617
vt 0.557851 0.616470
vt 0.557851 0.683803
vt 0.556933 0.679222
vt 0.554149 0.799799
vt 0.658280 0.762966
vt 0.529577 0.786636
vt 0.679063 0.822111
vt 0.472043 0.797904
vt 0.437557 0.822111
vt 0.838843 0.120786
vt 0.895776 0.182439
vt 0.893944 0.131769
vt 0.840876 0.155522
vt 0.895776 0.031392
vt 0.839488 0.081066
vt 0.883838 0.729299
vt 0.828822 0.702377
vt 0.881954 0.678609
vt 0.826905 0.667691
vt 0.827307 0.627869
vt 0.883838 0.578253
vt 0.001377 0.669245
vt 0.015152 0.568244
vt 0.015152 0.668195
vt 0.004059 0.569406
vt 0.015419 0.227954
vt 0.001377 0.228920
vt 0.001643 0.234241
vt 0.004759 0.128938
vt 0.016070 0.127843
vt 0.016070 0.277070
vt 0.244461 0.574806
vt 0.239091 0.574613
vt 0.287879 0.588262
vt 0.238292 0.588262
vt 0.811352 0.575400
vt 0.869146 0.510851
vt 0.773646 0.453795
vt 0.869146 0.445604
vt 0.868482 0.573575
vt 0.811666 0.630118
vt 0.868504 0.582101
vt 0.784792 0.441765
vt 0.028926 0.866697
vt 0.058245 0.817561
vt 0.168957 0.854156
vt 0.204316 0.856806
vt 0.144185 0.866697
vt 0.928987 0.115105
vt 0.884757 0.225218
vt 0.933425 0.140801
vt 0.933425 0.257962
vt 0.351240 0.954049
vt 0.351240 0.999545
vt 0.264004 0.971421
vt 0.257576 0.232484
vt 0.257576 0.277980
vt 0.174931 0.263420
vt 0.821919 0.862058
vt 0.815853 0.871674
vt 0.748643 0.850318
vt 0.904040 0.877616
vt 0.730487 0.877616
vt 0.550677 0.017453
vt 0.456841 0.039581
vt 0.545231 0.028208
vt 0.638659 0.039581
vt 0.475276 0.013194
vt 0.158133 0.741128
vt 0.143710 0.765696
vt 0.222681 0.765696
vt 0.429007 0.539006
vt 0.353076 0.539126
vt 0.405424 0.512739
vt 0.474288 0.539126
vt 0.885675 0.744768
vt 0.845854 0.717470
vt 0.826905 0.744768
vt 0.889348 0.496360
vt 0.918733 0.496360
vt 0.893088 0.444495
vt 0.661079 0.946770
vt 0.622130 0.964968
vt 0.683655 0.964968
vt 0.799357 0.100546
vt 0.763827 0.100546
vt 0.779318 0.079618
vt 0.737833 0.091333
vt 0.999541 0.824841
vt 0.960973 0.786684
vt 0.999541 0.756597
vt 0.418274 0.770246
vt 0.418274 0.839399
vt 0.393480 0.821777
vt 0.407289 0.025023
vt 0.349403 0.043221
vt 0.419192 0.043221
vt 0.794144 0.278662
vt 0.709036 0.276624
vt 0.786735 0.373521
vt 0.803855 0.368323
vt 0.806703 0.278824
vt 0.806703 0.172429
vt 0.700184 0.271348
vt 0.436718 0.842129
vt 0.488062 0.904914
vt 0.472576 0.902250
vt 0.348485 0.904914
vt 0.905877 0.244313
vt 0.871495 0.278095
vt 0.905877 0.380213
vt 0.841598 0.291907
vt 0.895018 0.383530
vt 0.344812 0.573703
vt 0.206152 0.573703
vt 0.318989 0.558004
vt 0.313362 0.552775
vt 0.971993 0.923884
vt 0.984848 0.816652
vt 0.984848 0.924932
vt 0.834325 0.177358
vt 0.827169 0.213343
vt 0.846885 0.180418
vt 0.848026 0.166060
vt 0.829093 0.230376
vt 0.839080 0.280989
vt 0.821396 0.280882
vt 0.837661 0.290417
vt 0.824972 0.362276
vt 0.848026 0.363512
vt 0.580808 0.943903
vt 0.608620 0.932723
vt 0.598582 0.944040
vt 0.614706 0.927662
vt 0.721304 0.944040
vt 0.903595 0.591902
vt 0.886593 0.645587
vt 0.933425 0.645587
vt 0.872819 0.520275
vt 0.933425 0.501820
vt 0.933425 0.633758
vt 0.433273 0.904914
vt 0.333792 0.944040
vt 0.463269 0.944040
vt 0.890808 0.769989
vt 0.934932 0.751137
vt 0.856290 0.857598
vt 0.942608 0.857598
vt 0.454299 0.669245
vt 0.462560 0.651815
vt 0.497886 0.651870
vt 0.307163 0.669245
vt 0.543159 0.667827
vt 0.392955 0.646497
vt 0.261249 0.898544
vt 0.203562 0.889789
vt 0.229302 0.862147
vt 0.130854 0.898544
vt 0.949036 0.127843
vt 0.898531 0.072733
vt 0.949036 0.006824
vt 0.825069 0.621929
vt 0.825069 0.742948
vt 0.822314 0.675764
vt 0.556933 0.690173
vt 0.556933 0.780255
vt 0.528466 0.739714
vt 0.992195 0.866697
vt 0.992195 0.956779
vt 0.986685 0.876080
usemtl baked
f 19/19 20/20 21/21
f 22/22 20/20 19/19
f 96/96 99/99 97/97
f 97/97 99/99 100/100
f 256/256 257/257 258/258
f 256/256 258/258 259/259
f 255/255 251/251 253/253
f 251/251 252/252 253/253
f 263/263 266/266 264/264
f 263/263 264/264 265/265
f 315/315 316/316 317/317
f 312/312 313/313 314/314
f 339/339 340/340 341/341
f 355/355 356/356 357/357
f 361/361 360/360 363/363
f 360/360 361/361 362/362
f 364/364 365/365 366/366
f 366/366 365/365 367/367
f 356/356 358/358 359/359
f 358/358 356/356 355/355
f 242/242 250/250 236/236
f 242/242 236/236 235/235
f 240/240 242/242 235/235
f 240/240 235/235 239/239
f 221/221 226/226 218/218
f 215/215 218/218 229/229
f 226/226 229/229 218/218
f 221/221 227/227 226/226
f 229/229 202/202 208/208
f 229/229 204/204 202/202
f 235/235 236/236 237/237
f 235/235 237/237 238/238
f 239/239 235/235 238/238
f 239/239 238/238 241/241
f 134/134 133/133 130/130
f 133/133 128/128 130/130
f 166/166 155/155 164/164
f 166/166 164/164 167/167
f 155/155 134/134 130/130
f 155/155 130/130 164/164
f 164/164 130/130 131/131
f 128/128 129/129 130/130
f 130/130 129/129 131/131
f 142/142 163/163 128/128
f 368/368 369/369 370/370
f 276/276 277/277 278/278
f 302/302 299/299 301/301
f 299/299 300/300 301/301
f 282/282 284/284 286/286
f 285/285 282/282 286/286
f 371/371 372/372 373/373
f 285/285 286/286 287/287
f 287/287 286/286 288/288
f 267/267 268/268 269/269
f 333/333 334/334 335/335
f 102/102 103/103 104/104
f 105/105 102/102 104/104
f 65/65 68/68 69/69
f 65/65 63/63 68/68
f 96/96 97/97 98/98
f 101/101 96/96 98/98
f 329/329 330/330 331/331
f 294/294 291/291 293/293
f 332/332 329/329 331/331
f 289/289 290/290 291/291
f 291/291 290/290 292/292
f 291/291 292/292 293/293
f 306/306 311/311 307/307
f 306/306 307/307 308/308
f 260/260 261/261 262/262
f 253/253 252/252 254/254
f 336/336 337/337 338/338
f 322/322 323/323 324/324
f 325/325 323/323 322/322
f 270/270 271/271 272/272
f 273/273 274/274 275/275
f 215/215 229/229 208/208
f 215/215 208/208 214/214
f 122/122 124/124 126/126
f 127/127 122/122 126/126
f 122/122 123/123 124/124
f 125/125 123/123 122/122
f 142/142 144/144 163/163
f 377/377 376/376 375/375
f 374/374 375/375 376/376
f 167/167 164/164 138/138
f 167/167 138/138 168/168
f 164/164 131/131 138/138
f 126/126 124/124 127/127
f 33/33 34/34 35/35
f 128/128 163/163 129/129
f 41/41 42/42 43/43
f 41/41 44/44 42/42
f 378/378 379/379 380/380
f 380/380 379/379 381/381
f 382/382 383/383 384/384
f 385/385 386/386 387/387
f 14/14 18/18 15/15
f 14/14 15/15 16/16
f 309/309 306/306 308/308
f 310/310 309/309 308/308
f 94/94 93/93 95/95
f 6/6 5/5 9/9
f 394/394 395/395 392/392
f 392/392 393/393 394/394
f 6/6 8/8 7/7
f 5/5 6/6 7/7
f 92/92 93/93 94/94
f 398/398 397/397 399/399
f 396/396 397/397 398/398
f 1/1 2/2 3/3
f 2/2 4/4 3/3
f 11/11 12/12 13/13
f 14/14 16/16 17/17
f 9/9 5/5 10/10
f 171/171 166/166 167/167
f 171/171 167/167 169/169
f 180/180 166/166 171/171
f 181/181 182/182 183/183
f 173/173 176/176 175/175
f 67/67 66/66 64/64
f 66/66 62/62 64/64
f 62/62 63/63 64/64
f 64/64 63/63 65/65
f 143/143 144/144 142/142
f 141/141 143/143 142/142
f 141/141 142/142 128/128
f 133/133 141/141 128/128
f 135/135 136/136 133/133
f 135/135 133/133 134/134
f 154/154 135/135 155/155
f 135/135 134/134 155/155
f 150/150 136/136 135/135
f 151/151 150/150 135/135
f 173/173 158/158 180/180
f 180/180 158/158 154/154
f 157/157 147/147 136/136
f 150/150 157/157 136/136
f 151/151 135/135 154/154
f 158/158 151/151 154/154
f 144/144 149/149 163/163
f 136/136 147/147 141/141
f 136/136 141/141 133/133
f 147/147 148/148 143/143
f 147/147 143/143 141/141
f 176/176 173/173 180/180
f 180/180 154/154 155/155
f 180/180 155/155 166/166
f 157/157 159/159 148/148
f 157/157 148/148 147/147
f 411/411 407/407 409/409
f 412/412 407/407 411/411
f 152/152 150/150 151/151
f 153/153 152/152 151/151
f 455/455 453/453 452/452
f 456/456 455/455 452/452
f 461/461 458/458 460/460
f 461/461 460/460 462/462
f 153/153 151/151 158/158
f 172/172 153/153 158/158
f 172/172 173/173 174/174
f 172/172 158/158 173/173
f 464/464 465/465 466/466
f 465/465 467/467 466/466
f 488/488 489/489 490/490
f 490/490 489/489 491/491
f 495/495 496/496 497/497
f 498/498 496/496 495/495
f 495/495 497/497 499/499
f 500/500 495/495 499/499
f 174/174 173/173 175/175
f 177/177 174/174 175/175
f 504/504 502/502 501/501
f 501/501 502/502 503/503
f 169/169 167/167 168/168
f 169/169 168/168 170/170
f 458/458 463/463 459/459
f 458/458 459/459 460/460
f 524/524 526/526 525/525
f 523/523 524/524 525/525
f 326/326 327/327 328/328
f 279/279 280/280 281/281
f 522/522 517/517 519/519
f 517/517 518/518 519/519
f 319/319 321/321 320/320
f 318/318 319/319 320/320
f 303/303 304/304 305/305
f 454/454 453/453 457/457
f 452/452 453/453 454/454
f 348/348 349/349 350/350
f 516/516 514/514 513/513
f 513/513 514/514 515/515
f 520/520 518/518 517/517
f 521/521 520/520 517/517
f 298/298 295/295 297/297
f 295/295 296/296 297/297
f 282/282 283/283 284/284
f 354/354 352/352 351/351
f 351/351 352/352 353/353
f 345/345 346/346 347/347
f 342/342 343/343 344/344
f 80/80 81/81 82/82
f 83/83 80/80 82/82
f 530/530 529/529 528/528
f 529/529 530/530 534/534
f 528/528 527/527 531/531
f 527/527 528/528 529/529
f 532/532 531/531 527/527
f 533/533 531/531 532/532
f 501/501 503/503 505/505
f 501/501 505/505 506/506
f 26/26 27/27 28/28
f 23/23 24/24 25/25
f 208/208 212/212 213/213
f 214/214 208/208 213/213
f 208/208 202/202 207/207
f 202/202 201/201 206/206
f 202/202 206/206 207/207
f 208/208 207/207 212/212
f 80/80 73/73 75/75
f 80/80 75/75 81/81
f 74/74 76/76 75/75
f 74/74 78/78 77/77
f 74/74 77/77 76/76
f 78/78 84/84 79/79
f 78/78 79/79 77/77
f 73/73 74/74 75/75
f 36/36 37/37 38/38
f 37/37 40/40 38/38
f 509/509 511/511 512/512
f 509/509 510/510 511/511
f 508/508 510/510 509/509
f 507/507 508/508 509/509
f 449/449 450/450 451/451
f 446/446 447/447 448/448
f 567/567 568/568 569/569
f 570/570 571/571 572/572
f 550/550 551/551 552/552
f 555/555 556/556 557/557
f 555/555 559/559 556/556
f 547/547 548/548 549/549
f 558/558 555/555 557/557
f 544/544 545/545 546/546
f 550/550 553/553 551/551
f 552/552 551/551 554/554
f 577/577 579/579 578/578
f 576/576 577/577 578/578
f 573/573 574/574 575/575
f 538/538 539/539 537/537
f 580/580 581/581 582/582
f 560/560 561/561 562/562
f 535/535 536/536 537/537
f 539/539 535/535 537/537
f 190/190 197/197 193/193
f 193/193 197/197 200/200
f 200/200 197/197 201/201
f 197/197 203/203 201/201
f 492/492 493/493 494/494
f 485/485 486/486 487/487
f 200/200 201/201 202/202
f 204/204 200/200 202/202
f 583/583 584/584 585/585
f 586/586 587/587 588/588
f 566/566 563/563 565/565
f 563/563 564/564 565/565
f 416/416 414/414 415/415
f 415/415 414/414 413/413
f 414/414 408/408 407/407
f 413/413 414/414 407/407
f 412/412 413/413 407/407
f 442/442 435/435 437/437
f 443/443 444/444 445/445
f 417/417 413/413 412/412
f 424/424 425/425 426/426
f 415/415 413/413 417/417
f 400/400 401/401 402/402
f 418/418 419/419 420/420
f 432/432 433/433 434/434
f 433/433 435/435 434/434
f 406/406 404/404 403/403
f 403/403 404/404 405/405
f 431/431 433/433 442/442
f 436/436 435/435 437/437
f 434/434 435/435 436/436
f 436/436 439/439 434/434
f 421/421 422/422 423/423
f 435/435 442/442 433/433
f 433/433 441/441 435/435
f 440/440 435/435 441/441
f 440/440 438/438 435/435
f 435/435 438/438 437/437
f 408/408 410/410 409/409
f 407/407 408/408 409/409
f 430/430 432/432 434/434
f 439/439 430/430 434/434
f 542/542 541/541 543/543
f 540/540 541/541 542/542
f 616/616 618/618 617/617
f 613/613 616/616 614/614
f 614/614 616/616 617/617
f 612/612 613/613 614/614
f 615/615 612/612 614/614
f 600/600 601/601 602/602
f 601/601 603/603 604/604
f 609/609 610/610 611/611
f 617/617 618/618 619/619
f 619/619 618/618 620/620
f 619/619 620/620 621/621
f 605/605 606/606 607/607
f 589/589 593/593 594/594
f 607/607 606/606 608/608
f 599/599 596/596 598/598
f 626/626 624/624 625/625
f 622/622 623/623 624/624
f 623/623 625/625 624/624
f 592/592 593/593 589/589
f 589/589 591/591 592/592
f 595/595 590/590 589/589
f 589/589 590/590 591/591
f 603/603 601/601 600/600
f 596/596 597/597 598/598
f 184/184 185/185 186/186
f 116/116 117/117 118/118
f 159/159 160/160 148/148
f 148/148 160/160 165/165
f 143/143 145/145 144/144
f 144/144 145/145 146/146
f 148/148 165/165 143/143
f 143/143 165/165 145/145
f 113/113 114/114 115/115
f 187/187 188/188 189/189
f 215/215 214/214 216/216
f 217/217 215/215 216/216
f 139/139 140/140 138/138
f 39/39 37/37 36/36
f 427/427 428/428 429/429
f 431/431 441/441 433/433
f 218/218 215/215 217/217
f 219/219 218/218 217/217
f 199/199 230/230 211/211
f 195/195 199/199 211/211
f 190/190 191/191 192/192
f 119/119 120/120 121/121
f 191/191 195/195 211/211
f 191/191 211/211 192/192
f 179/179 178/178 174/174
f 179/179 174/174 177/177
f 231/231 232/232 233/233
f 231/231 234/234 232/232
f 203/203 197/197 209/209
f 178/178 172/172 174/174
f 205/205 196/196 194/194
f 244/244 250/250 242/242
f 198/198 196/196 205/205
f 245/245 247/247 244/244
f 243/243 245/245 244/244
f 246/246 245/245 243/243
f 244/244 242/242 243/243
f 243/243 242/242 240/240
f 477/477 478/478 475/475
f 475/475 476/476 477/477
f 627/627 628/628 629/629
f 480/480 481/481 482/482
f 480/480 482/482 483/483
f 479/479 477/477 476/476
f 481/481 484/484 482/482
f 630/630 631/631 632/632
f 633/633 634/634 635/635
f 162/162 161/161 159/159
f 161/161 160/160 159/159
f 194/194 191/191 193/193
f 194/194 195/195 191/191
f 196/196 195/195 194/194
f 191/191 190/190 193/193
f 198/198 199/199 195/195
f 198/198 195/195 196/196
f 220/220 221/221 218/218
f 219/219 220/220 218/218
f 222/222 228/228 227/227
f 221/221 222/222 227/227
f 472/472 473/473 474/474
f 249/249 246/246 248/248
f 248/248 246/246 243/243
f 45/45 46/46 47/47
f 144/144 146/146 149/149
f 59/59 60/60 61/61
f 45/45 47/47 48/48
f 56/56 57/57 58/58
f 106/106 107/107 108/108
f 388/388 387/387 386/386
f 389/389 390/390 391/391
f 225/225 224/224 223/223
f 224/224 222/222 223/223
f 137/137 139/139 138/138
f 431/431 433/433 432/432
f 430/430 431/431 432/432
f 131/131 137/137 138/138
f 129/129 132/132 131/131
f 132/132 137/137 131/131
f 220/220 223/223 222/222
f 222/222 221/221 220/220
f 48/48 47/47 49/49
f 129/129 156/156 132/132
f 32/32 29/29 31/31
f 29/29 30/30 31/31
f 109/109 112/112 110/110
f 109/109 110/110 111/111
f 646/646 647/647 648/648
f 643/643 645/645 641/641
f 643/643 641/641 640/640
f 644/644 640/640 642/642
f 640/640 641/641 642/642
f 53/53 50/50 52/52
f 50/50 51/51 52/52
f 55/55 52/52 54/54
f 51/51 54/54 52/52
f 70/70 71/71 72/72
f 636/636 637/637 638/638
f 638/638 637/637 639/639
f 89/89 90/90 91/91
f 85/85 86/86 87/87
f 88/88 85/85 87/87
f 647/647 649/649 648/648
f 468/468 469/469 470/470
f 469/469 471/471 470/470
f 650/650 651/651 652/652
f 653/653 654/654 655/655
f 201/201 210/210 206/206
f 201/201 203/203 210/210
f 656/656 657/657 658/658
f 659/659 660/660 661/661
