v -1.989757 0.240043 -0.681429 0.1837 0.2258 0.2578
v -2.001017 0.285217 -0.585278 0.2025 0.1988 0.1919
v -2.027032 0.256178 -0.280524 0.0903 0.0770 0.0526
v -2.034030 0.285417 0.118051 0.2012 0.1835 0.1638
v -2.014224 0.267045 0.350042 0.1849 0.1526 0.1359
v -1.995816 0.284093 0.421650 0.1436 0.1636 0.1668
v -1.998787 0.235642 0.715953 0.1801 0.2172 0.2424
v -2.008558 0.581923 -0.792172 0.1953 0.2140 0.2176
v -2.026291 0.286274 -0.570780 0.1003 0.0902 0.0720
v -2.066429 0.286562 -0.337756 0.2176 0.2461 0.2572
v -2.075346 0.287265 0.130276 0.3272 0.3583 0.3737
v -2.058997 0.286330 0.346787 0.2729 0.3025 0.3270
v -2.045615 0.286699 0.422883 0.1386 0.1396 0.1410
v -2.089182 0.331627 0.744531 0.1400 0.1527 0.1595
v -2.129975 0.589716 -0.684491 0.2316 0.1904 0.1553
v -1.996107 0.783113 -0.596386 0.1230 0.1141 0.1113
v -2.242990 0.614663 -0.285932 0.2211 0.2371 0.2465
v -2.098952 0.797987 -0.122845 0.3364 0.3741 0.3977
v -2.157215 0.773261 0.402104 0.2587 0.3022 0.3314
v -2.054556 0.812106 0.566012 0.1665 0.1667 0.1707
v -2.066491 0.618625 0.678190 0.1918 0.1622 0.1565
v -1.965484 0.238596 -0.727161 0.0698 0.1035 0.1031
v -1.979463 0.284181 -0.625385 0.1010 0.1201 0.1301
v -1.986150 0.255742 -0.286216 0.4476 0.3486 0.2764
v -1.778717 0.189003 0.122716 0.6181 0.4618 0.3333
v -1.879115 0.230093 0.343909 0.5588 0.4262 0.3110
v -1.899079 0.276858 0.406408 0.0957 0.1100 0.0957
v -1.891008 0.279899 0.679552 0.1412 0.1373 0.1133
v -1.665046 0.288469 -0.825788 0.1936 0.2114 0.2192
v -1.752012 0.293853 0.817546 0.2139 0.2356 0.2591
v -1.966811 0.770357 -0.686432 0.3446 0.2415 0.2075
v -1.986177 0.787879 -0.613662 0.1770 0.1548 0.1417
v -1.970170 0.842361 -0.377341 0.2049 0.2106 0.2040
v -1.985541 0.844802 -0.021658 0.2102 0.2235 0.2270
v -1.978606 0.845729 0.160866 0.1748 0.2012 0.2113
v -1.983916 0.787788 0.625260 0.2129 0.1741 0.1652
v -1.981270 0.755328 0.679143 0.3543 0.2661 0.2390
v -1.816136 0.886580 -0.739222 0.5982 0.2554 0.1481
v -1.675209 0.899561 -0.660553 0.2192 0.2300 0.2391
v -1.775009 0.889786 -0.155083 0.2169 0.2231 0.2282
v -1.668890 0.912693 -0.089905 0.2166 0.2301 0.2338
v -1.662816 0.909079 0.282826 0.1986 0.2196 0.2344
v -1.775576 0.882962 0.425803 0.1489 0.1627 0.1700
v -1.697698 0.890376 0.805756 0.4737 0.2831 0.2095
v -1.660411 0.285944 -0.823586 0.1051 0.1133 0.0943
v -1.349225 0.208984 -0.501349 0.1891 0.1929 0.1884
v -1.516385 0.262166 -0.259203 0.4352 0.3572 0.2909
v -1.339734 0.249722 0.036800 0.6439 0.4719 0.3224
v -1.336588 0.204959 0.236366 0.3738 0.2888 0.2198
v -1.442052 0.274764 0.635128 0.1890 0.1630 0.1291
v -1.355831 0.157354 0.834542 0.1107 0.1232 0.0988
v -1.547081 0.581431 -0.824056 0.2748 0.2573 0.2385
v -1.607617 0.289140 -0.671658 0.0217 0.0431 0.0275
v -1.649089 0.287120 0.674617 0.0118 0.0462 0.0305
v -1.627151 0.447309 0.699295 0.2092 0.1933 0.1630
v -1.389549 0.675365 -0.831458 0.5291 0.2625 0.1710
v -1.506699 0.617550 0.707734 0.4374 0.2760 0.2151
v -1.657611 0.912447 -0.798759 0.2326 0.1870 0.1776
v -1.345424 0.940506 -0.433501 0.2709 0.2984 0.3194
v -1.559218 0.932414 -0.140872 0.3471 0.3830 0.4242
v -1.611655 0.924231 0.088415 0.4224 0.4876 0.5420
v -1.605581 0.919222 0.301954 0.3738 0.4045 0.4122
v -1.656125 0.901738 0.408076 0.2721 0.2353 0.2118
v -1.337992 0.898978 0.786344 0.3264 0.2336 0.2013
v -1.175984 0.165984 -0.811126 0.2446 0.2244 0.1930
v -1.259203 0.268594 -0.414528 0.1202 0.1276 0.1102
v -1.018506 0.233528 -0.197702 0.4014 0.3848 0.3620
v -1.276169 0.237131 -0.133187 0.1738 0.1871 0.1789
v -1.009783 0.251545 0.180812 0.2739 0.2095 0.1575
v -1.277053 0.237342 0.446377 0.0726 0.0810 0.0632
v -1.217576 0.285775 0.813608 0.1997 0.2012 0.1757
v -1.131805 0.581729 -0.695592 0.2889 0.2592 0.2168
v -1.284659 0.327167 0.814452 0.1765 0.1671 0.1346
v -1.329711 0.686861 -0.881436 0.1714 0.1662 0.1545
v -1.329960 0.600614 0.802951 0.1925 0.2004 0.1904
v -1.285734 0.931895 -0.782774 0.2023 0.2198 0.2294
v -1.006889 0.980753 -0.414257 0.2843 0.3059 0.3249
v -1.018405 1.050267 -0.175869 0.3645 0.3918 0.4273
v -1.012172 1.072468 0.125485 0.4416 0.5064 0.5748
v -1.006532 1.069264 0.232332 0.3990 0.3754 0.3682
v -1.237963 0.951257 0.412088 0.2023 0.1612 0.1388
v -1.216091 0.925182 0.768492 0.1452 0.1683 0.1598
v -0.696522 0.255226 -0.727187 0.2068 0.2163 0.2025
v -1.002623 0.100555 -0.646239 0.1934 0.2166 0.2220
v -0.991828 0.232758 -0.190599 0.1727 0.1982 0.2083
v -0.698752 0.253737 0.126149 0.2047 0.2208 0.2225
v -0.968524 0.206649 0.140151 0.1489 0.1641 0.1704
v -0.865252 0.255222 0.670605 0.1796 0.1902 0.1908
v -0.758214 0.222144 0.763462 0.1485 0.1668 0.1606
v -0.865252 0.307179 -0.843589 0.1280 0.1211 0.0997
v -0.880430 0.367947 -0.680100 0.1291 0.0970 0.0737
v -0.919439 0.296544 0.674617 0.0131 0.0275 0.0196
v -0.950713 0.421733 0.694359 0.1379 0.1383 0.1163
v -0.982639 0.731477 -0.889147 0.1795 0.1758 0.1687
v -0.970801 0.587307 0.904614 0.2253 0.2145 0.2001
v -0.895355 1.091047 -0.687131 0.2080 0.2278 0.2366
v -0.973590 1.062381 -0.411823 0.1457 0.1562 0.1555
v -0.978939 1.073318 -0.375297 0.4006 0.4315 0.4457
v -0.999046 1.076644 0.002096 0.4057 0.3253 0.2973
v -0.914187 1.066795 0.392606 0.3618 0.2799 0.2535
v -0.911312 1.070610 0.408269 0.1070 0.1013 0.0916
v -0.859306 1.043748 0.722741 0.2138 0.2175 0.2120
v -0.680689 1.175425 -0.595326 0.0484 0.0484 0.0458
v -0.725229 1.176756 -0.253337 0.3192 0.3527 0.3642
v -0.681821 1.205061 -0.123334 0.3219 0.2861 0.2687
v -0.680386 1.188652 0.338864 0.2611 0.2467 0.2391
v -0.680452 1.177732 0.619026 0.0810 0.0758 0.0601
v -0.671993 0.255282 -0.727187 0.2611 0.1915 0.2069
v -0.475758 0.161383 -0.416225 0.3136 0.3345 0.3592
v -0.451233 0.138599 -0.142279 0.2823 0.2822 0.2831
v -0.674083 0.238178 -0.108804 0.2924 0.2485 0.2245
v -0.669782 0.186091 0.141358 0.4515 0.4406 0.4365
v -0.356831 0.223521 0.454113 0.3164 0.2917 0.3042
v -0.372998 0.230085 0.753807 0.2247 0.2224 0.2307
v -0.403504 0.575176 -0.874433 0.1907 0.1008 0.0999
v -0.381799 0.566441 0.880483 0.1351 0.1592 0.1615
v -0.385650 0.584265 -0.873738 0.2096 0.2002 0.1963
v -0.388792 0.807147 0.823438 0.2370 0.2056 0.1900
v -0.464548 0.985758 -0.890074 0.3468 0.2639 0.2516
v -0.671791 1.174069 -0.415944 0.4220 0.3287 0.3146
v -0.642898 1.173620 0.642533 0.1872 0.1464 0.1321
v -0.440081 1.113641 0.726430 0.2633 0.1624 0.1565
v -0.499546 0.987163 0.949760 0.5000 0.5000 0.5000
v -0.360694 1.268137 -0.686490 0.4958 0.2544 0.2184
v -0.406262 1.403389 -0.558404 0.3537 0.2985 0.3012
v -0.433406 1.404401 -0.171278 0.3124 0.3236 0.3399
v -0.392694 1.469946 -0.112217 0.1773 0.2336 0.2459
v -0.378672 1.470483 0.260742 0.1865 0.2396 0.2632
v -0.360058 1.347513 0.519366 0.2082 0.2043 0.2197
v -0.407228 1.175678 0.729627 0.4433 0.5018 0.5611
v -0.376345 1.475987 -0.139812 0.3270 0.3170 0.3457
v -0.359965 1.483566 -0.123592 0.3633 0.2493 0.2427
v -0.370007 1.472966 0.290382 0.3660 0.2550 0.2533
v -0.353856 1.473901 0.427819 0.3484 0.2746 0.3378
v -0.025503 0.223665 -0.800243 0.2410 0.2092 0.2274
v -0.255743 0.161236 -0.410362 0.3314 0.2887 0.3006
v -0.313889 0.139541 -0.153834 0.4686 0.4117 0.3752
v -0.131610 0.248082 0.061012 0.6204 0.4840 0.4012
v -0.168110 0.202595 0.135476 0.5324 0.5426 0.5490
v -0.186642 0.230616 0.408694 0.4612 0.4607 0.4842
v -0.344939 0.226882 0.785675 0.3083 0.2762 0.2874
v -0.030243 0.492238 -0.863126 0.2329 0.1991 0.2033
v -0.260828 0.568221 0.878204 0.2196 0.2319 0.2463
v -0.338993 0.604805 -0.872247 0.5801 0.3284 0.3182
v -0.196277 0.604805 0.876088 0.5317 0.2763 0.2812
v -0.351098 1.154102 -0.712183 0.5397 0.3329 0.3246
v -0.349442 0.997099 0.891977 0.4707 0.2698 0.2905
v -0.217091 1.232428 -0.696053 0.3404 0.4274 0.4738
v -0.234080 1.451352 -0.412783 0.1531 0.2019 0.2298
v -0.241581 1.380834 -0.352972 0.1032 0.1502 0.1747
v -0.268845 1.460579 0.093721 0.0657 0.1257 0.1404
v -0.295682 1.365401 0.265855 0.0384 0.0863 0.0962
v -0.221435 1.435512 0.423237 0.1751 0.1935 0.2220
v -0.351827 1.180043 0.712628 0.2177 0.3332 0.3866
v -0.250056 1.471400 -0.412213 0.4085 0.3315 0.3351
v -0.316674 1.500000 -0.142572 0.3345 0.3346 0.3652
v -0.277836 1.473237 0.123827 0.2729 0.2899 0.3188
v -0.272736 1.472394 0.174852 0.3394 0.2742 0.2932
v -0.250134 1.471294 0.420108 0.3549 0.2416 0.2599
v 0.094898 0.217870 -0.801113 0.2415 0.2133 0.2171
v 0.293118 0.254885 -0.449194 0.3054 0.3029 0.3180
v 0.236326 0.227890 -0.182585 0.4669 0.4205 0.3879
v 0.059419 0.234623 0.060233 0.6326 0.5159 0.4436
v 0.037027 0.192895 0.180564 0.5025 0.4517 0.4375
v 0.239669 0.254868 0.462681 0.4609 0.3447 0.3590
v -0.016399 0.226661 0.811499 0.3182 0.2140 0.2302
v 0.297649 0.462497 -0.864150 0.1673 0.1795 0.1945
v 0.099839 0.316082 0.848844 0.2609 0.2456 0.2570
v 0.300992 0.677771 -0.845650 0.5155 0.3217 0.3202
v -0.019789 0.632484 0.871996 0.4858 0.3026 0.3106
v 0.127802 0.908201 -0.805324 0.4700 0.5352 0.5982
v -0.018071 0.907021 0.810550 0.4349 0.4688 0.5240
v 0.196188 1.351493 -0.680930 0.3421 0.4477 0.5136
v 0.166453 1.398016 -0.612957 0.2312 0.2379 0.2304
v -0.000547 1.434195 -0.141493 0.1636 0.1900 0.1871
v 0.033152 1.437890 -0.132929 0.2752 0.1979 0.1727
v 0.223502 1.450558 0.213800 0.1925 0.1355 0.0969
v -0.020139 1.373834 0.645875 0.2048 0.1817 0.1640
v 0.044552 1.262342 0.720078 0.3147 0.4622 0.5231
v 0.341479 0.220592 -0.810649 0.1684 0.2112 0.2447
v 0.584007 0.255072 -0.418691 0.3446 0.3783 0.4102
v 0.422894 0.254408 -0.220020 0.2019 0.2029 0.2009
v 0.305453 0.242027 0.060648 0.2386 0.2295 0.2173
v 0.528253 0.249923 0.135743 0.4640 0.4399 0.4375
v 0.457830 0.254864 0.468541 0.4874 0.4492 0.4712
v 0.625816 0.222506 0.822945 0.3853 0.2328 0.2508
v 0.628993 0.459209 -0.892537 0.1711 0.2080 0.2309
v 0.626774 0.464951 0.905877 0.1251 0.1797 0.2019
v 0.475669 0.669419 -0.917570 0.3315 0.3028 0.3143
v 0.304022 0.621870 0.880113 0.4155 0.3361 0.3469
v 0.603517 0.749515 0.948794 0.5516 0.3830 0.3752
v 0.472694 0.919798 -0.779570 0.4041 0.4677 0.5269
v 0.607275 0.881497 0.789661 0.4533 0.4707 0.5217
v 0.566723 1.178252 -0.687769 0.3880 0.5182 0.5864
v 0.303223 1.404826 -0.593916 0.1693 0.2490 0.2710
v 0.624357 1.422555 -0.408530 0.1684 0.1857 0.1842
v 0.628612 1.445852 -0.011185 0.2466 0.2042 0.1938
v 0.627301 1.423574 0.400365 0.3145 0.2027 0.1554
v 0.411374 1.275175 0.676829 0.1711 0.1795 0.1720
v 0.327306 1.289969 0.690667 0.3938 0.5757 0.6456
v 0.940233 0.277697 -0.838708 0.1853 0.2112 0.2140
v 0.820561 0.279671 -0.661931 0.1578 0.1723 0.1715
v 0.955786 0.238048 -0.407570 0.1783 0.1965 0.2013
v 0.903811 0.215777 0.109648 0.0616 0.0768 0.0692
v 0.633620 0.253101 0.235320 0.3370 0.2835 0.2576
v 0.816267 0.273662 0.674617 0.3670 0.3356 0.3220
v 0.815457 0.285775 0.751122 0.2089 0.2209 0.2043
v 0.934143 0.429938 -0.834259 0.2590 0.2799 0.2805
v 0.820561 0.292793 -0.664471 0.0824 0.0861 0.0652
v 0.816407 0.289814 0.674617 0.0418 0.0641 0.0549
v 0.816519 0.365197 0.813132 0.3669 0.3835 0.3903
v 0.771778 0.664323 -0.945822 0.3135 0.2923 0.2786
v 0.662839 0.853284 0.923855 0.3192 0.3081 0.3054
v 0.658456 0.816212 0.949844 0.4721 0.3511 0.3619
v 0.782925 1.016033 -0.909273 0.3959 0.3837 0.3934
v 0.648914 0.982920 0.769409 0.3940 0.2928 0.2732
v 0.724589 0.878839 0.954178 0.3307 0.3725 0.4026
v 0.820805 1.220866 -0.699044 0.4694 0.4515 0.4863
v 0.639981 1.340450 -0.665495 0.1274 0.1872 0.2102
v 0.902678 1.411285 -0.154310 0.0968 0.1498 0.1759
v 0.905801 1.411432 0.131664 0.0904 0.1598 0.1845
v 0.891791 1.392020 0.400813 0.0664 0.1350 0.1634
v 0.633061 1.271888 0.670306 0.1027 0.1484 0.1807
v 0.639194 1.187911 0.690721 0.4139 0.3862 0.3969
v 1.238296 0.136355 -0.828180 0.2787 0.2670 0.2347
v 1.271464 0.000000 -0.671043 0.1431 0.1494 0.1386
v 0.957128 0.235926 -0.407921 0.1806 0.1791 0.1766
v 1.007874 0.240008 0.117211 0.0677 0.0840 0.0847
v 0.958153 0.233745 0.328441 0.1833 0.1655 0.1477
v 1.178369 0.281743 0.419335 0.2605 0.2244 0.2000
v 1.097071 0.155201 0.835859 0.2035 0.1954 0.1660
v 1.192213 0.578077 -0.831793 0.2660 0.2528 0.2197
v 1.277957 0.287121 -0.214032 0.0694 0.0822 0.0840
v 1.260886 0.286689 -0.094458 0.0578 0.0951 0.1119
v 1.277150 0.287121 0.221556 0.0851 0.1234 0.1416
v 1.040580 0.397503 0.835476 0.1943 0.1827 0.1483
v 1.271002 0.587851 -0.810524 0.4661 0.3783 0.3269
v 0.956729 0.629731 0.908243 0.5387 0.3114 0.1606
v 1.149100 1.135565 -0.721774 0.4822 0.3696 0.3476
v 1.282848 1.158078 -0.505502 0.3296 0.2910 0.2875
v 1.276976 1.163480 0.537628 0.4923 0.5496 0.5909
v 0.959491 0.911450 0.846980 0.5543 0.4419 0.3995
v 0.983046 1.217477 -0.699533 0.4776 0.4004 0.3911
v 0.993476 1.289196 -0.625285 0.1959 0.1897 0.1953
v 1.218336 1.229408 -0.408382 0.1044 0.1336 0.1458
v 1.250844 1.283777 0.085849 0.1672 0.1913 0.1967
v 1.246601 1.283903 0.141535 0.0979 0.1397 0.1749
v 1.281409 1.177515 0.547048 0.1430 0.1758 0.2068
v 1.155431 1.179590 0.694968 0.4356 0.2897 0.2730
v 1.610635 0.265268 -0.773157 0.1483 0.1596 0.1357
v 1.514717 0.195820 -0.658547 0.2955 0.2817 0.2722
v 1.608932 0.262921 -0.235635 0.2834 0.2485 0.2245
v 1.505710 0.208707 -0.136728 0.2539 0.2054 0.1587
v 1.605488 0.253797 0.399196 0.3338 0.2622 0.2017
v 1.489416 0.218516 0.625730 0.2132 0.2049 0.1823
v 1.587812 0.262988 0.783089 0.2190 0.2118 0.1895
v 1.590725 0.293766 -0.785240 0.2525 0.2743 0.2758
v 1.533568 0.289140 -0.659935 0.3182 0.2556 0.2113
v 1.583398 0.288448 -0.247175 0.1296 0.1479 0.1427
v 1.318963 0.289221 -0.001607 0.0730 0.0957 0.1036
v 1.512110 0.314986 0.381314 0.1125 0.1112 0.1001
v 1.573395 0.325621 0.669681 0.2643 0.2190 0.1699
v 1.563853 0.430040 0.824603 0.2291 0.2248 0.1997
v 1.347833 0.665138 -0.702508 0.5098 0.2993 0.2126
v 1.598661 0.634251 0.839105 0.5419 0.2892 0.1352
v 1.292557 1.024849 -0.748884 0.7101 0.4134 0.2647
v 1.548105 1.068797 -0.675003 0.2116 0.2283 0.2453
v 1.578096 1.172766 -0.162476 0.1996 0.2349 0.2610
v 1.574698 1.151292 0.113270 0.1870 0.1801 0.1789
v 1.537043 1.141479 0.135057 0.2036 0.2455 0.2759
v 1.480840 1.166026 0.416405 0.4056 0.3757 0.3896
v 1.297463 0.884377 0.857753 0.6409 0.4113 0.3022
v 1.290671 1.178491 -0.495653 0.1483 0.1574 0.1633
v 1.577192 1.179482 -0.148016 0.1580 0.1657 0.1737
v 1.586168 1.176918 -0.062136 0.1612 0.1318 0.1038
v 1.375702 1.184385 0.168123 0.1858 0.1708 0.1668
v 1.288934 1.178473 0.549862 0.1743 0.1566 0.1462
v 1.648356 0.272496 -0.767828 0.1781 0.2077 0.2129
v 1.646835 0.283749 -0.409238 0.3739 0.4078 0.4379
v 1.778333 0.253972 -0.316889 0.3952 0.3456 0.3112
v 1.627554 0.221403 -0.129323 0.4954 0.4057 0.3236
v 1.784035 0.256782 0.301953 0.4121 0.3738 0.3326
v 1.665554 0.269886 0.407194 0.5115 0.5080 0.4931
v 1.672439 0.268762 0.752638 0.1267 0.1140 0.0965
v 1.709350 0.289614 -0.693999 0.2742 0.2752 0.2579
v 1.935517 0.305514 -0.649445 0.3224 0.3050 0.2938
v 1.880880 0.342705 -0.233594 0.2398 0.2312 0.2094
v 1.929570 0.327824 -0.134568 0.2377 0.2261 0.2006
v 1.931808 0.328488 0.153876 0.2014 0.1729 0.1469
v 1.922135 0.303726 0.675850 0.3382 0.3250 0.3083
v 1.791533 0.288065 0.714076 0.2531 0.2602 0.2639
v 1.618284 0.604805 -0.827011 0.4549 0.3623 0.3143
v 1.637104 0.596635 0.830930 0.4768 0.3831 0.3618
v 1.636999 1.033064 -0.683557 0.6218 0.4322 0.3553
v 1.650970 1.043464 -0.671110 0.3069 0.2679 0.2699
v 1.936393 1.074705 -0.408691 0.2306 0.2689 0.3036
v 1.763284 1.105728 -0.113898 0.2131 0.2060 0.1947
v 1.896376 1.074923 0.348442 0.2255 0.2583 0.2811
v 1.905782 1.030314 0.520367 0.3979 0.3066 0.2993
v 1.937689 0.898261 0.706246 0.5772 0.3518 0.2494
v 1.948743 0.331828 -0.681880 0.4390 0.4415 0.4078
v 2.034402 0.347987 -0.412522 0.3096 0.3584 0.3827
v 2.038087 0.350386 -0.405729 0.1904 0.2285 0.2768
v 2.141712 0.450397 -0.123769 0.2049 0.2325 0.2779
v 1.957265 0.362503 0.185032 0.3229 0.2422 0.2312
v 2.157010 0.581789 0.468695 0.2988 0.2389 0.2118
v 1.970825 0.343657 0.678309 0.5176 0.4590 0.4564
v 1.940156 0.648669 -0.740188 0.5135 0.5380 0.5416
v 2.098029 0.787879 -0.409489 0.3563 0.3829 0.4109
v 2.095853 0.775762 -0.165724 0.2341 0.2257 0.2592
v 2.154399 0.653154 0.133773 0.2408 0.2568 0.3019
v 2.112039 0.723251 0.285250 0.3399 0.2624 0.2503
v 2.120658 0.759219 0.406508 0.5102 0.3985 0.3558
v 2.025116 0.617234 0.679459 0.5704 0.4707 0.4421
v 1.951765 0.891528 -0.691046 0.5567 0.5725 0.5894
v 1.938550 1.037335 -0.477195 0.4525 0.4747 0.5094
v 1.971046 1.053438 -0.390979 0.2867 0.2526 0.2537
v 2.069640 1.064530 0.123026 0.2561 0.2578 0.2683
v 1.964103 1.071372 0.310244 0.2921 0.2549 0.2445
v 2.001060 0.886144 0.662276 0.3236 0.2767 0.2574
v 1.983252 0.891191 0.677543 0.5583 0.4766 0.4437
f 6 26 27
f 6 5 12
f 6 12 13
f 6 5 26
f 11 4 5
f 5 4 26
f 26 4 25
f 3 9 10
f 12 11 5
f 4 3 10
f 4 10 11
f 10 3 11
f 4 11 3
f 24 4 3
f 2 1 23
f 2 22 1
f 1 22 23
f 3 2 9
f 12 5 13
f 5 6 13
f 10 2 3
f 10 9 2
f 25 4 24
f 45 29 52
f 3 2 24
f 3 24 23
f 2 23 24
f 22 29 45
f 67 85 86
f 68 67 86
f 87 68 86
f 69 68 87
f 152 151 157
f 157 158 152
f 152 158 159
f 153 152 159
f 158 133 128
f 288 304 305
f 304 287 303
f 288 287 304
f 289 288 305
f 307 291 306
f 291 290 306
f 290 289 306
f 289 305 306
f 313 307 306
f 307 313 314
f 262 291 263
f 284 263 291
f 262 290 291
f 284 256 263
f 306 305 313
f 305 312 313
f 291 307 293
f 307 314 293
f 263 291 293
f 263 293 265
f 263 256 291
f 256 284 291
f 130 154 122
f 158 128 134
f 159 158 134
f 134 128 129
f 159 134 129
f 159 129 153
f 154 122 147
f 6 27 28
f 7 6 28
f 319 298 299
f 319 299 320
f 274 268 269
f 274 269 275
f 268 275 269
f 268 274 275
f 321 293 314
f 300 293 321
f 314 313 321
f 321 313 320
f 320 300 321
f 86 85 111
f 111 85 110
f 109 136 137
f 110 109 137
f 111 110 138
f 110 137 138
f 281 287 288
f 281 288 282
f 282 288 289
f 280 287 281
f 280 252 259
f 287 280 259
f 253 252 280
f 253 280 281
f 281 254 253
f 254 281 282
f 282 254 261
f 254 282 289
f 261 254 289
f 282 261 289
f 290 282 283
f 290 282 289
f 261 254 262
f 283 254 282
f 255 254 283
f 262 254 255
f 290 255 283
f 262 255 290
f 230 229 255
f 229 254 255
f 183 204 184
f 184 204 205
f 205 204 229
f 204 228 229
f 87 86 111
f 87 111 112
f 49 48 69
f 48 68 69
f 47 67 68
f 48 47 68
f 24 47 48
f 25 24 48
f 26 25 48
f 49 26 48
f 129 121 101
f 107 101 129
f 157 132 158
f 131 127 132
f 132 133 158
f 163 183 184
f 164 163 184
f 138 163 139
f 139 163 164
f 112 111 138
f 112 138 139
f 113 112 140
f 112 139 140
f 118 116 145
f 145 116 143
f 116 114 141
f 143 116 141
f 149 125 155
f 148 124 125
f 148 125 149
f 129 100 101
f 128 100 129
f 106 100 128
f 128 129 153
f 153 152 128
f 151 156 157
f 131 132 157
f 150 156 151
f 155 156 150
f 150 149 155
f 157 156 131
f 155 131 156
f 126 127 131
f 126 131 156
f 125 126 150
f 149 125 150
f 126 125 149
f 126 149 150
f 132 127 128
f 132 128 133
f 129 152 153
f 128 152 129
f 175 150 151
f 155 125 126
f 155 126 131
f 146 119 148
f 119 124 148
f 173 174 195
f 150 175 149
f 174 149 175
f 175 151 176
f 286 302 287
f 287 302 303
f 280 286 287
f 302 285 301
f 302 286 285
f 257 285 258
f 258 285 286
f 264 257 237
f 225 201 232
f 201 208 232
f 226 250 251
f 226 225 250
f 250 257 258
f 251 250 258
f 257 278 285
f 257 250 278
f 250 225 257
f 225 232 257
f 142 117 144
f 142 115 117
f 142 144 169
f 142 169 167
f 167 169 187
f 257 232 237
f 232 212 237
f 232 208 212
f 194 192 195
f 215 192 218
f 218 194 219
f 215 192 194
f 215 194 218
f 219 194 195
f 189 192 215
f 212 189 215
f 171 148 173
f 194 173 195
f 192 171 173
f 192 173 194
f 169 171 192
f 189 169 192
f 169 144 146
f 169 146 171
f 173 149 174
f 173 148 149
f 208 187 189
f 212 208 189
f 187 169 189
f 160 135 142
f 160 142 167
f 180 167 187
f 180 160 167
f 201 180 187
f 201 187 208
f 237 212 215
f 117 119 146
f 144 117 146
f 146 148 171
f 29 31 52
f 52 31 56
f 16 10 17
f 16 9 10
f 9 8 2
f 1 2 8
f 12 4 5
f 11 4 12
f 31 38 32
f 31 16 32
f 31 15 16
f 56 31 38
f 56 38 58
f 22 1 29
f 29 1 8
f 15 31 29
f 29 8 15
f 15 8 9
f 15 9 16
f 119 120 125
f 124 119 120
f 124 120 125
f 126 98 104
f 120 98 126
f 125 97 120
f 120 97 98
f 125 120 126
f 98 105 104
f 104 127 126
f 105 98 99
f 104 105 127
f 98 78 99
f 78 98 79
f 79 98 99
f 105 100 106
f 97 77 78
f 97 78 98
f 76 58 59
f 76 59 77
f 103 97 125
f 105 99 100
f 97 76 77
f 96 76 97
f 119 96 120
f 120 96 97
f 74 76 96
f 74 96 94
f 117 94 96
f 117 96 119
f 74 56 58
f 74 58 76
f 78 79 99
f 99 79 80
f 99 80 100
f 58 39 59
f 58 38 39
f 39 32 38
f 127 106 128
f 128 105 127
f 127 105 106
f 135 108 142
f 108 115 142
f 90 94 117
f 115 90 117
f 24 46 47
f 74 90 94
f 72 74 90
f 85 84 109
f 85 109 110
f 66 65 83
f 66 83 84
f 66 84 85
f 45 65 46
f 46 65 66
f 67 66 85
f 52 56 74
f 72 52 74
f 83 65 72
f 83 72 90
f 83 90 91
f 83 84 90
f 84 83 91
f 90 84 91
f 108 83 115
f 90 115 83
f 46 66 67
f 47 46 67
f 23 22 45
f 23 45 46
f 24 23 46
f 46 45 53
f 45 52 53
f 65 45 52
f 72 65 52
f 57 55 75
f 55 73 75
f 51 50 54
f 50 55 54
f 50 51 55
f 51 54 55
f 55 28 51
f 30 28 55
f 75 93 95
f 73 93 75
f 27 50 51
f 28 27 51
f 26 49 27
f 27 49 50
f 73 71 89
f 73 89 93
f 51 50 70
f 51 70 71
f 55 51 71
f 73 55 71
f 89 88 93
f 92 88 93
f 93 89 116
f 89 88 114
f 88 113 114
f 116 89 114
f 70 69 87
f 70 88 87
f 71 70 88
f 71 88 89
f 88 87 113
f 87 112 113
f 50 49 69
f 50 69 70
f 200 216 224
f 200 193 216
f 129 130 153
f 153 130 154
f 153 154 178
f 178 154 179
f 172 190 193
f 172 170 190
f 122 145 147
f 122 118 145
f 147 170 172
f 145 170 147
f 216 213 214
f 217 216 214
f 200 172 193
f 179 172 200
f 154 147 172
f 154 172 179
f 193 190 216
f 190 213 216
f 13 6 7
f 7 14 13
f 10 11 18
f 17 10 18
f 18 12 19
f 11 12 18
f 80 81 101
f 100 80 101
f 60 61 79
f 78 60 79
f 80 79 100
f 79 99 100
f 62 61 42
f 61 41 42
f 61 40 41
f 60 40 61
f 34 33 18
f 18 19 35
f 18 35 34
f 17 18 33
f 41 34 42
f 34 35 42
f 16 17 33
f 41 33 34
f 33 41 40
f 59 60 78
f 77 59 78
f 81 82 101
f 101 82 102
f 95 118 102
f 102 118 122
f 102 75 95
f 82 75 102
f 63 64 81
f 81 64 82
f 36 20 21
f 36 21 37
f 7 30 14
f 30 7 28
f 12 13 20
f 19 12 20
f 37 21 30
f 14 30 21
f 13 14 21
f 20 13 21
f 37 30 57
f 57 30 55
f 37 20 36
f 101 102 122
f 121 101 122
f 121 122 129
f 129 122 130
f 95 93 118
f 118 93 116
f 44 37 57
f 44 57 64
f 75 64 57
f 82 64 75
f 63 43 44
f 63 44 64
f 43 36 37
f 43 37 44
f 43 35 36
f 80 62 63
f 80 63 81
f 62 42 63
f 42 35 43
f 42 43 63
f 35 19 20
f 35 20 36
f 80 61 62
f 79 61 80
f 39 40 33
f 39 40 60
f 39 60 59
f 32 16 33
f 32 33 39
f 252 251 258
f 280 252 258
f 286 280 258
f 280 279 286
f 252 259 258
f 136 108 135
f 109 108 136
f 136 135 160
f 136 160 161
f 136 161 162
f 137 136 162
f 208 201 202
f 202 201 209
f 209 201 208
f 202 209 208
f 201 226 202
f 225 226 201
f 83 108 109
f 84 83 109
f 260 228 253
f 228 253 234
f 253 260 234
f 235 260 261
f 253 254 261
f 259 260 234
f 228 234 235
f 229 228 235
f 235 234 260
f 260 253 261
f 252 233 227
f 252 259 233
f 228 227 233
f 228 233 234
f 259 253 260
f 233 259 234
f 253 259 252
f 254 229 261
f 229 235 261
f 163 182 183
f 138 137 162
f 138 162 163
f 162 182 163
f 227 226 251
f 227 251 252
f 181 180 201
f 202 181 201
f 162 161 181
f 162 181 182
f 160 180 161
f 181 161 180
f 182 181 203
f 203 181 202
f 183 182 204
f 204 182 203
f 203 227 226
f 203 202 227
f 202 226 227
f 204 203 228
f 228 203 227
f 164 184 165
f 165 184 185
f 139 164 165
f 140 139 165
f 141 165 166
f 141 140 165
f 166 165 186
f 165 185 186
f 114 113 141
f 141 113 140
f 143 166 168
f 206 210 211
f 207 206 211
f 206 184 205
f 185 184 206
f 185 206 186
f 186 206 207
f 205 229 206
f 230 205 206
f 206 229 230
f 256 255 263
f 255 262 263
f 207 231 236
f 211 207 236
f 207 206 231
f 231 206 230
f 231 230 255
f 231 255 256
f 170 168 190
f 168 188 190
f 143 168 145
f 145 168 170
f 191 190 214
f 188 186 207
f 211 188 207
f 231 256 263
f 236 231 263
f 242 238 272
f 238 265 272
f 166 186 188
f 168 166 188
f 213 211 236
f 213 236 238
f 190 211 213
f 213 214 190
f 143 141 166
f 190 188 211
f 213 238 242
f 216 213 242
f 265 238 236
f 265 236 263
f 298 319 318
f 318 297 298
f 296 297 317
f 318 317 297
f 297 269 298
f 297 268 269
f 296 268 297
f 215 218 239
f 239 218 243
f 311 318 319
f 312 311 319
f 312 319 313
f 313 319 320
f 310 317 311
f 318 311 317
f 309 317 310
f 309 316 310
f 316 317 310
f 316 295 317
f 317 295 296
f 237 215 239
f 237 266 264
f 237 239 266
f 316 308 315
f 308 292 294
f 308 294 315
f 308 316 309
f 294 295 316
f 315 294 316
f 292 264 294
f 294 266 267
f 294 267 295
f 264 266 294
f 278 250 285
f 250 257 285
f 301 292 308
f 301 285 292
f 305 311 312
f 305 304 311
f 302 309 310
f 302 308 309
f 302 301 308
f 303 302 310
f 304 303 310
f 311 304 310
f 296 267 268
f 267 296 295
f 257 264 292
f 285 257 292
f 222 199 223
f 222 198 199
f 198 177 178
f 198 178 199
f 197 176 198
f 221 197 198
f 221 198 222
f 270 271 298
f 270 269 275
f 269 270 298
f 298 271 299
f 267 239 240
f 239 240 244
f 266 239 267
f 244 239 243
f 199 200 224
f 199 223 200
f 199 224 223
f 200 223 224
f 248 249 242
f 248 242 241
f 241 242 271
f 242 272 271
f 223 224 249
f 248 223 249
f 249 216 242
f 224 216 249
f 174 175 196
f 195 174 196
f 200 178 179
f 199 178 200
f 176 152 177
f 176 151 152
f 152 153 178
f 177 152 178
f 176 177 198
f 247 246 221
f 247 221 222
f 247 222 223
f 247 223 248
f 218 219 243
f 244 243 219
f 245 244 219
f 245 220 246
f 244 245 274
f 273 267 268
f 273 268 274
f 273 244 274
f 240 244 273
f 244 240 267
f 267 240 273
f 273 244 267
f 267 273 274
f 268 267 274
f 219 196 220
f 196 219 195
f 245 219 220
f 246 220 221
f 196 175 176
f 196 176 197
f 220 196 221
f 196 197 221
f 275 270 276
f 269 275 276
f 270 269 276
f 299 272 300
f 272 299 271
f 246 247 276
f 276 247 248
f 276 248 277
f 275 246 276
f 277 248 241
f 271 248 277
f 277 241 271
f 271 241 248
f 299 300 320
f 300 272 265
f 300 265 293
f 271 270 276
f 271 276 277
f 274 245 275
f 275 245 246
