v -3.607550 0.368166 -2.526782 0.1152 0.0405 0.0974
v -3.696624 0.368166 -2.337202 0.2549 0.0501 0.1555
v -4.092607 0.298848 -1.694343 0.4711 0.0540 0.2441
v -4.093425 0.301901 -1.431754 0.2733 0.0343 0.1404
v -4.092032 0.292504 -1.306015 0.1191 0.4487 0.5579
v -3.577528 0.140944 -0.880131 0.1145 0.2215 0.2576
v -3.902791 0.214021 -0.313476 0.1476 0.1603 0.1483
v -3.892134 0.185825 -0.094190 0.0284 0.0374 0.0569
v -3.882556 0.162951 0.083932 0.0301 0.0368 0.0555
v -3.895425 0.194416 0.454180 0.0502 0.1147 0.1524
v -4.187584 0.302536 0.779052 0.0812 0.2416 0.3085
v -3.686350 0.321854 1.815878 0.0265 0.0275 0.0364
v -3.691609 0.349967 1.880218 0.1546 0.0878 0.1060
v -3.663868 0.330803 2.210991 0.3689 0.1971 0.2273
v -3.671287 0.381322 -2.526479 0.4275 0.1459 0.2457
v -3.640150 0.409524 -2.341771 0.5804 0.2114 0.2103
v -4.103038 0.394485 -1.710106 0.4198 0.1535 0.1354
v -4.103403 0.394485 -1.658870 0.0863 0.0460 0.0463
v -4.104466 0.394485 -1.308974 0.2426 0.1059 0.1401
v -3.699445 0.416862 -0.658227 0.3567 0.2881 0.2327
v -3.594020 0.416928 -0.333566 0.2769 0.1533 0.0598
v -3.586793 0.416806 -0.116087 0.3929 0.1787 0.1723
v -3.567149 0.416845 0.175185 0.2238 0.2341 0.2663
v -3.577894 0.416944 0.421676 0.1010 0.4278 0.5602
v -4.105598 0.718983 0.909570 0.0550 0.1933 0.2573
v -3.950367 0.749768 1.442903 0.0166 0.0337 0.0552
v -3.977829 0.719413 1.760062 0.0295 0.0638 0.0852
v -3.687586 0.416718 2.045479 0.2191 0.1026 0.1712
v -3.652009 0.416408 2.185612 0.2727 0.0557 0.1060
v -3.563074 1.026570 -2.600008 0.5738 0.0877 0.3204
v -4.547396 1.077254 -2.043138 0.5728 0.1658 0.2831
v -4.557375 1.106527 -2.026937 0.4914 0.3168 0.0358
v -4.445819 0.755997 -1.441225 0.4309 0.1790 0.1309
v -4.464226 0.806388 -1.272189 0.5312 0.0823 0.2831
v -4.480456 0.852191 -0.979441 0.6044 0.1428 0.2490
v -4.450417 0.761148 -0.618813 0.3674 0.2100 0.0268
v -4.566761 1.108813 -0.214835 0.3911 0.1196 0.0946
v -4.526900 0.989678 0.074188 0.3937 0.3186 0.4619
v -4.566866 1.099349 0.577742 0.0963 0.4346 0.6190
v -4.381718 1.113472 0.896379 0.1974 0.2620 0.3872
v -4.087051 1.106228 1.405881 0.2114 0.1606 0.2676
v -4.136281 1.105417 1.763339 0.0902 0.2152 0.2905
v -4.133356 1.090929 1.885569 0.4985 0.1633 0.3500
v -4.516138 1.081146 2.409857 0.4915 0.1514 0.3445
v -4.666980 1.487374 -2.456314 0.7352 0.0608 0.3045
v -4.675078 1.485541 -2.347168 0.5960 0.1318 0.1501
v -4.690176 1.407312 -1.882646 0.6380 0.2102 0.0961
v -4.679606 1.399323 -1.629529 0.7148 0.2990 0.1047
v -4.686867 1.402581 -1.293591 0.7192 0.0925 0.3029
v -4.679031 1.487893 -0.670765 0.5619 0.1445 0.1813
v -4.685492 1.484994 -0.389346 0.4443 0.2291 0.0180
v -4.679292 1.488241 0.014935 0.6367 0.1281 0.1106
v -4.685213 1.484795 0.379638 0.3649 0.1900 0.3188
v -4.687389 1.485568 0.747926 0.4787 0.1553 0.2677
v -4.387325 1.126668 0.896379 0.6505 0.3940 0.2666
v -4.174819 1.440598 1.411370 0.5146 0.4336 0.4245
v -4.236953 1.496169 1.808511 0.1876 0.3915 0.5111
v -4.236884 1.498868 1.920121 0.6091 0.1585 0.3759
v -4.703202 1.424112 2.174294 0.4677 0.2686 0.2215
v -3.563074 1.627848 -2.575431 0.6615 0.1745 0.3597
v -4.501562 1.686852 -2.040735 0.6167 0.2100 0.3467
v -4.487683 1.804341 -1.743825 0.5737 0.2457 0.0914
v -4.487857 1.804325 -1.662003 0.5380 0.2520 0.1312
v -4.501371 1.695487 -1.312832 0.4074 0.4053 0.3924
v -4.553230 1.632226 -0.637097 0.3388 0.3169 0.3219
v -4.483225 1.834415 -0.473427 0.6262 0.4596 0.3241
v -4.499525 1.696210 0.056572 0.5671 0.4865 0.4648
v -4.489564 1.792979 0.328072 0.5664 0.4796 0.4844
v -4.495572 1.745828 0.421239 0.7827 0.1370 0.3491
v -4.317407 1.623878 1.097714 0.7159 0.0885 0.2847
v -4.296336 1.795883 1.242318 0.3861 0.4407 0.3321
v -4.341578 1.834652 1.692599 0.1830 0.3577 0.4246
v -4.311486 1.811861 1.969990 0.3806 0.2703 0.3883
v -3.628291 1.638917 2.423470 0.4169 0.1793 0.2722
v -3.634334 1.955598 -2.560490 0.5690 0.1292 0.2678
v -4.477148 1.882973 -2.054883 0.7158 0.2419 0.4042
v -4.476207 1.884701 -1.744483 0.3276 0.4277 0.4329
v -4.471923 1.919948 -1.649671 0.3974 0.5204 0.5332
v -4.440369 2.174853 -1.307440 0.3638 0.5297 0.5704
v -4.458375 2.245109 -0.779968 0.1838 0.3338 0.3775
v -4.475876 1.920091 -0.341103 0.0876 0.1073 0.1145
v -4.537592 2.199101 -0.127801 0.2956 0.3512 0.3645
v -4.537053 2.199068 0.095765 0.4758 0.5611 0.5819
v -4.465358 2.248664 0.594242 0.5991 0.2567 0.4360
v -4.287019 2.050241 1.020934 0.4125 0.1135 0.2712
v -4.289178 2.184768 1.240610 0.1190 0.2114 0.2411
v -4.293880 2.062111 1.504208 0.2284 0.1835 0.1971
v -4.316066 2.105109 1.971693 0.4727 0.2274 0.3247
v -3.710242 2.056209 2.408123 0.4556 0.1286 0.2516
v -3.585051 2.425793 -2.542340 0.5379 0.1071 0.1889
v -4.437234 2.252110 -2.260128 0.5542 0.3866 0.4231
v -4.399079 2.589693 -1.724774 0.2954 0.4076 0.4162
v -4.430739 2.251210 -1.421191 0.2339 0.3364 0.3736
v -4.440334 2.253501 -1.077639 0.2137 0.3572 0.4068
v -4.439602 2.252148 -0.796199 0.2285 0.4972 0.5784
v -4.464313 2.618679 -0.604382 0.1247 0.1958 0.2230
v -4.404669 2.444482 0.018763 0.2639 0.3868 0.4343
v -4.445541 2.417760 0.070720 0.2953 0.3929 0.4341
v -4.440526 2.334750 0.596861 0.3582 0.5345 0.6172
v -4.275909 2.306603 1.024587 0.2133 0.2965 0.3662
v -4.288882 2.308127 1.240651 0.2369 0.0380 0.0516
v -4.341665 2.310948 1.692681 0.2803 0.1417 0.1531
v -4.304207 2.266773 1.971127 0.5700 0.1178 0.1686
v -4.463582 2.560116 2.170384 0.4421 0.1755 0.2467
v -4.465410 2.760887 -2.389751 0.4331 0.2837 0.3311
v -4.462084 2.648742 -2.044676 0.6016 0.2345 0.2845
v -4.461353 2.648951 -1.766704 0.1524 0.1770 0.1877
v -4.479150 2.651535 -1.668943 0.1554 0.2788 0.3245
v -4.480178 2.651320 -1.258174 0.1192 0.2340 0.2844
v -4.499856 2.631317 -0.814983 0.1538 0.3000 0.3608
v -4.220462 2.916367 -0.423723 0.3047 0.4743 0.5393
v -4.122872 2.957516 0.062149 0.3341 0.4807 0.5394
v -4.134871 2.953750 0.278477 0.3487 0.4665 0.5192
v -4.103125 2.966062 0.767631 0.3431 0.5019 0.5588
v -4.110630 2.998289 1.087049 0.2266 0.3709 0.4325
v -4.265721 2.637097 1.467428 0.1734 0.0950 0.0906
v -4.304207 2.626623 1.773969 0.2029 0.1659 0.2144
v -4.292487 2.626502 1.910475 0.4250 0.1340 0.1710
v -4.104170 2.969822 2.179480 0.5921 0.1556 0.1864
v -3.623589 3.037169 -2.478436 0.4129 0.4982 0.5475
v -3.726559 3.041801 -2.042705 0.2591 0.3165 0.3523
v -3.612531 3.054665 -1.822211 0.2391 0.2807 0.3053
v -3.906988 3.028109 -1.388897 0.2026 0.2608 0.2905
v -3.916218 3.022880 -1.019071 0.2768 0.3381 0.3743
v -3.916044 3.022748 -0.974404 0.2201 0.2830 0.3303
v -3.883479 3.035667 -0.531233 0.3410 0.4076 0.4492
v -3.883601 3.035695 -0.249212 0.4918 0.5991 0.6504
v -3.883583 3.035689 0.118639 0.4792 0.5899 0.6437
v -3.718531 3.042927 0.742231 0.4759 0.5750 0.6260
v -3.719315 3.042485 1.012646 0.3283 0.3904 0.4311
v -3.613419 3.080614 1.129473 0.2646 0.2849 0.2626
v -3.567306 3.059794 1.804457 0.2834 0.3433 0.3676
v -3.663868 3.048868 2.136562 0.4273 0.5189 0.5655
v -3.602082 3.057503 2.172154 0.1568 0.1311 0.1308
v -2.418054 0.368105 -2.566937 0.1052 0.0309 0.0931
v -3.539356 0.371925 -2.341756 0.0521 0.0261 0.0552
v -3.531938 0.121912 -0.879360 0.0218 0.0240 0.0361
v -2.573336 0.078196 -0.288627 0.0182 0.0220 0.0362
v -2.579135 0.076854 -0.227317 0.0216 0.0291 0.0471
v -3.263846 0.077379 0.070468 0.0186 0.0273 0.0504
v -3.560114 0.246916 0.675246 0.0199 0.0275 0.0487
v -2.667774 0.203354 0.790407 0.0253 0.0273 0.0416
v -2.755228 0.280263 2.229404 0.0578 0.0163 0.0600
v -3.072672 0.384387 -2.548159 0.4140 0.3642 0.5050
v -3.554176 0.390487 -2.341859 0.0124 0.0275 0.0594
v -3.417805 0.416669 -1.711856 0.0116 0.0280 0.0611
v -3.216044 0.416613 -1.590388 0.0093 0.0258 0.0621
v -3.468759 0.416757 -1.182181 0.0128 0.0220 0.0420
v -3.520827 0.416972 -0.662168 0.0156 0.0180 0.0242
v -3.511929 0.417088 -0.613998 0.0139 0.0211 0.0396
v -3.553618 0.416895 -0.257218 0.0166 0.0239 0.0409
v -3.494898 0.416911 0.138343 0.0118 0.0183 0.0353
v -3.503779 0.416977 0.423430 0.0128 0.0182 0.0345
v -2.724840 0.415674 0.824213 0.0169 0.0280 0.0574
v -3.478023 0.416928 1.231005 0.0090 0.0262 0.0642
v -3.492268 0.416878 1.487045 0.0107 0.0262 0.0590
v -2.959793 0.416646 2.145539 0.0093 0.0256 0.0581
v -2.887715 0.416613 2.190484 0.3493 0.0283 0.0459
v -2.654469 0.516672 2.526258 0.0967 0.0431 0.0902
v -2.968831 0.776022 -2.587866 0.6798 0.1139 0.2663
v -3.032707 1.106836 2.502556 0.4875 0.0389 0.0410
v -3.072063 0.925296 2.525517 0.5000 0.5000 0.5000
v -2.405376 1.461497 -2.632790 0.7093 0.0827 0.1937
v -2.931617 1.125729 2.479903 0.6060 0.1707 0.1024
v -3.136182 1.628648 -2.575431 0.7311 0.3896 0.3019
v -3.431388 1.863395 2.439743 0.5014 0.1484 0.0199
v -3.541446 1.931476 -2.560362 0.5240 0.5769 0.5982
v -3.346685 1.897488 2.422091 0.5084 0.5186 0.5212
v -2.415946 2.256455 -2.541897 0.0975 0.1523 0.1800
v -3.499338 2.265835 2.400550 0.2262 0.3218 0.3638
v -3.543744 2.999372 -2.529576 0.2833 0.1322 0.1756
v -3.477797 2.993640 2.408813 0.3478 0.2298 0.3041
v -3.554768 3.026878 -2.497621 0.3921 0.3974 0.4137
v -3.515359 3.065658 -2.040292 0.4823 0.5462 0.5833
v -3.318596 3.088858 -1.822211 0.5445 0.6433 0.6948
v -3.197793 3.107734 -1.348825 0.5529 0.6486 0.6990
v -3.197846 3.107729 -1.011626 0.5370 0.6275 0.6770
v -3.201451 3.105167 -0.775368 0.5526 0.6372 0.6861
v -3.200910 3.105167 -0.394161 0.5847 0.6725 0.7158
v -3.205212 3.102229 -0.270013 0.5967 0.6845 0.7244
v -3.205403 3.102384 0.083495 0.5905 0.6812 0.7224
v -3.504354 3.066673 0.755520 0.5213 0.6088 0.6519
v -3.509857 3.066447 1.037500 0.4224 0.5190 0.5720
v -2.707095 3.159257 1.182634 0.4345 0.4875 0.4750
v -2.841463 3.139524 1.563450 0.4710 0.5856 0.6338
v -2.721949 3.148049 1.819732 0.5797 0.6699 0.7125
v -3.222173 3.099927 2.168094 0.5706 0.4421 0.4745
v -1.944369 0.368221 -2.582963 0.0593 0.0305 0.0632
v -1.566915 0.374046 -2.185169 0.0568 0.0279 0.0599
v -1.990569 0.364643 -1.982162 0.0640 0.0160 0.0546
v -1.960930 0.353192 -1.382930 0.0282 0.0291 0.0356
v -1.956820 0.356886 -1.324737 0.0274 0.0281 0.0423
v -1.277404 0.313180 -0.730794 0.0251 0.0279 0.0412
v -1.363360 0.159677 -0.288627 0.0209 0.0272 0.0466
v -2.343033 0.141253 -0.249213 0.0148 0.0281 0.0579
v -1.224412 0.159958 0.209943 0.0162 0.0295 0.0597
v -1.683452 0.343729 0.469846 0.0194 0.0259 0.0453
v -1.533828 0.238457 0.824146 0.0241 0.0258 0.0374
v -1.430597 0.308012 1.467273 0.0244 0.0246 0.0367
v -1.196497 0.214021 1.691637 0.0297 0.0161 0.0312
v -1.198535 0.217781 1.924613 0.1427 0.0295 0.0974
v -1.588683 0.000188 2.497406 0.1142 0.0240 0.0886
v -1.538112 0.313986 2.535559 0.0718 0.0240 0.0848
v -1.908774 0.380837 -2.586436 0.1866 0.2062 0.3151
v -1.997030 0.415504 -2.212179 0.0211 0.0197 0.0384
v -1.989089 0.409524 -1.902624 0.0108 0.0240 0.0516
v -1.962671 0.383023 -1.417544 0.0100 0.0239 0.0548
v -1.949071 0.389786 -1.228396 0.0126 0.0217 0.0451
v -1.501212 0.416525 -0.736176 0.0153 0.0199 0.0348
v -1.293338 0.416630 -0.613560 0.0141 0.0207 0.0376
v -2.320377 0.378363 -0.069449 0.0145 0.0222 0.0407
v -2.318549 0.377198 0.100138 0.0125 0.0199 0.0384
v -1.683573 0.383205 0.472475 0.0128 0.0191 0.0365
v -1.359390 0.416701 0.997165 0.0172 0.0239 0.0442
v -1.248113 0.416729 1.435458 0.0103 0.0234 0.0532
v -1.448777 0.416939 1.762280 0.0185 0.0231 0.0555
v -1.304082 0.416646 2.052481 0.0467 0.0241 0.0615
v -1.304082 0.409524 2.233685 0.1927 0.0504 0.1252
v -2.353847 0.516672 2.538080 0.1569 0.0312 0.1479
v -1.197351 0.865376 -2.459869 0.5023 0.2312 0.3980
v -1.392947 0.839729 2.408113 0.4280 0.1544 0.1594
v -1.197351 1.497930 -2.501495 0.7132 0.0882 0.1829
v -1.332537 1.144065 2.426115 0.4159 0.0724 0.0581
v -1.711802 1.247497 2.546857 0.3556 0.1974 0.1203
v -2.375197 1.869270 -2.554698 0.5170 0.3186 0.1126
v -1.197734 1.718808 2.365355 0.4641 0.0899 0.0833
v -1.791664 1.514935 2.568769 0.1911 0.1890 0.1962
v -2.353064 1.877149 -2.552640 0.2707 0.3473 0.3864
v -2.246802 2.026157 2.409924 0.1867 0.2778 0.3193
v -1.851325 1.887053 2.516678 0.1359 0.1935 0.2353
v -2.001296 2.434738 -2.552907 0.1371 0.2230 0.2796
v -2.205304 2.332563 2.398096 0.2221 0.3190 0.3663
v -1.280364 2.631455 -2.523206 0.4174 0.1032 0.1408
v -1.203028 2.674652 2.411823 0.4992 0.1680 0.2573
v -2.194124 3.121631 -2.540313 0.5660 0.3714 0.4052
v -1.759273 3.239093 -2.098973 0.5707 0.6554 0.6982
v -2.348013 3.185472 -1.704848 0.5245 0.6170 0.6650
v -2.015349 3.251791 -1.343130 0.5698 0.6609 0.7107
v -1.989385 3.278602 -1.247663 0.5499 0.6439 0.6941
v -1.988706 3.277691 -0.978566 0.5637 0.6399 0.6769
v -2.011849 3.221232 -0.317525 0.6011 0.6782 0.7145
v -2.011570 3.220972 -0.173013 0.6200 0.6994 0.7377
v -2.011727 3.221110 0.089957 0.5966 0.6849 0.7238
v -1.541317 3.374073 0.713169 0.5256 0.6153 0.6587
v -1.547255 3.373985 1.050964 0.4103 0.5039 0.5551
v -2.000930 3.265682 1.353631 0.4985 0.5911 0.6346
v -2.007391 3.260708 1.476184 0.5942 0.5197 0.5168
v -1.682058 3.234576 2.158021 0.6352 0.6326 0.6457
v -1.877568 3.189082 2.374225 0.6746 0.2674 0.3319
v -1.200311 3.399178 -1.692588 0.5899 0.6667 0.7129
v -1.221069 3.399343 -1.522677 0.6214 0.6948 0.7318
v -1.209210 3.399641 -1.143111 0.6189 0.6868 0.7186
v -1.471329 3.377270 -0.765953 0.5420 0.5953 0.6232
v -1.279685 3.396997 0.757779 0.5666 0.6542 0.7042
v -1.493811 3.379296 1.059232 0.6277 0.6943 0.7273
v -1.504276 3.377904 1.434141 0.6269 0.6973 0.7289
v -1.357718 3.387445 1.621570 0.4797 0.5497 0.5972
v -0.064659 0.299179 -2.716454 0.0526 0.0353 0.0688
v -0.343565 0.251245 -2.143646 0.0605 0.0232 0.0568
v -0.159758 0.251438 -1.975484 0.0821 0.0119 0.0595
v -0.062291 0.138713 -1.670991 0.0602 0.0157 0.0433
v -1.080257 0.291565 -0.730974 0.0179 0.0189 0.0326
v -0.032286 0.159638 -0.466199 0.0098 0.0236 0.0543
v -0.075630 0.159644 0.029850 0.0091 0.0296 0.0723
v -0.029308 0.159886 0.412919 0.0088 0.0266 0.0647
v -0.645946 0.332449 0.758560 0.0157 0.0259 0.0520
v -0.443245 0.369573 0.823822 0.0250 0.0271 0.0408
v -0.105095 0.251537 1.793457 0.0376 0.0115 0.0336
v -0.091198 0.250990 2.119923 0.0626 0.0118 0.0493
v -1.042451 0.000000 2.493902 0.0795 0.0165 0.0807
v -0.115282 0.215903 2.597837 0.0809 0.0276 0.0804
v -0.985384 0.744562 -2.449595 0.0534 0.2782 0.3383
v -0.161238 0.377264 -2.324942 0.0313 0.0180 0.0351
v -0.794176 0.416867 -1.999129 0.0207 0.0237 0.0403
v -0.889032 0.416873 -1.678574 0.0146 0.0285 0.0598
v -0.835674 0.417055 -1.311603 0.0102 0.0218 0.0518
v -0.821969 0.416602 -0.752819 0.0128 0.0190 0.0398
v -0.230164 0.416740 -0.614656 0.0102 0.0157 0.0287
v -0.237391 0.416834 0.656185 0.0242 0.0275 0.0416
v -0.589611 0.387903 0.823827 0.0063 0.0252 0.0680
v -0.788238 0.416889 1.439399 0.0050 0.0246 0.0677
v -0.182919 0.416817 1.548880 0.0229 0.0212 0.0480
v -0.158365 0.416900 1.867861 0.0696 0.0247 0.0637
v -0.039687 0.413284 2.233849 0.0787 0.1883 0.2516
v -0.050623 0.565578 2.518556 0.0585 0.0472 0.0796
v -0.865313 1.104109 -2.477433 0.0510 0.5589 0.6417
v -0.104834 1.112197 2.340279 0.0182 0.3669 0.4379
v -0.850494 1.496053 -2.501228 0.0578 0.4007 0.4927
v -0.272411 1.401122 2.358415 0.0574 0.2914 0.3741
v -1.043200 1.603588 -2.503605 0.2700 0.4044 0.4339
v -1.144028 1.839681 2.352009 0.4185 0.6319 0.7031
v -0.106401 2.138943 -2.493639 0.1924 0.3099 0.3501
v -1.154303 1.983860 2.352478 0.5015 0.5792 0.6051
v -0.267221 2.324227 -2.493202 0.0219 0.0839 0.1223
v -0.884591 2.271472 2.334065 0.0992 0.1612 0.1916
v -0.199776 2.970524 -2.524420 0.0268 0.0452 0.0748
v -0.141874 2.955136 2.391794 0.2472 0.0691 0.1048
v -0.109361 3.031852 -2.523963 0.5432 0.2849 0.2886
v -0.318367 3.237757 -2.340706 0.6377 0.6343 0.6448
v -0.021907 3.319464 -1.766292 0.5205 0.6115 0.6585
v -0.229798 3.360822 -0.721996 0.5632 0.6239 0.6519
v -1.088181 3.234565 -0.335686 0.6046 0.6704 0.6999
v -0.272411 3.234471 0.052950 0.6295 0.7024 0.7389
v -0.973891 3.234571 0.415765 0.6230 0.6868 0.7205
v -0.757119 3.303485 0.591325 0.4240 0.4909 0.5331
v -0.473998 3.375862 1.649126 0.6633 0.3962 0.3487
v -1.095913 3.234515 1.993558 0.7899 0.4682 0.3948
v -0.551073 3.003655 2.391496 0.7774 0.4758 0.4046
v -0.949807 3.399581 -1.688210 0.3515 0.4101 0.4549
v -1.136575 3.399708 -1.342471 0.5737 0.6333 0.6654
v -1.173632 3.399973 -1.061988 0.6281 0.6825 0.7086
v -0.198104 3.399752 -0.811500 0.5927 0.6457 0.6747
v -1.173632 3.399387 0.672165 0.4329 0.4978 0.5399
v -1.173632 3.399823 0.877606 0.6343 0.6932 0.7238
v -1.046160 3.399906 1.138934 0.6321 0.6950 0.7241
v -0.349486 3.399812 1.475310 0.4978 0.5710 0.6190
v 0.021350 0.295651 -2.719953 0.1063 0.0330 0.1059
v 0.107063 0.251184 -2.053432 0.0572 0.0246 0.0578
v 1.115016 0.338186 -1.818707 0.0702 0.0172 0.0548
v 0.019608 0.166087 -1.671135 0.0614 0.0157 0.0458
v 0.279655 0.341614 -0.663248 0.0236 0.0204 0.0389
v 1.139466 0.159903 -0.338546 0.0106 0.0188 0.0414
v 1.165413 0.159859 0.032644 0.0080 0.0280 0.0733
v 0.489479 0.159986 0.321831 0.0078 0.0270 0.0682
v 0.519136 0.333978 0.758468 0.0162 0.0255 0.0525
v 0.124930 0.331008 0.823791 0.0232 0.0267 0.0447
v 0.364968 0.251515 1.730613 0.0373 0.0203 0.0381
v 0.390549 0.251410 1.837244 0.0466 0.0145 0.0411
v 0.090188 0.001761 2.397865 0.0608 0.0236 0.0825
v 0.020340 0.232583 2.597873 0.0766 0.0329 0.1050
v 1.168373 0.544836 -2.656009 0.1069 0.3817 0.4872
v 0.138739 0.416801 -2.099169 0.0327 0.0215 0.0404
v 0.641419 0.416801 -1.713718 0.0221 0.0263 0.0456
v 0.391646 0.416779 -1.619018 0.0094 0.0252 0.0589
v 0.061838 0.417022 -1.326929 0.0053 0.0190 0.0498
v 0.160420 0.416619 -0.736176 0.0105 0.0169 0.0409
v 0.222676 0.416768 -0.613560 0.0100 0.0149 0.0282
v 0.083345 0.416861 0.668661 0.0258 0.0275 0.0442
v 0.087054 0.404820 0.823894 0.0069 0.0245 0.0653
v 0.321240 0.416801 1.449910 0.0044 0.0235 0.0659
v 0.213777 0.416817 1.497206 0.0130 0.0214 0.0424
v 0.028455 0.416955 1.832820 0.0346 0.0212 0.0412
v 0.903590 0.395423 2.234209 0.0441 0.2212 0.2737
v 0.356086 0.397747 2.563969 0.0744 0.0775 0.1004
v 0.161900 1.049599 -2.473271 0.0341 0.5178 0.5906
v 0.789840 1.115979 2.340742 0.0333 0.5491 0.6529
v 0.103911 1.442360 -2.499396 0.0248 0.2524 0.3026
v 1.085360 1.401122 2.358425 0.0257 0.3271 0.4094
v 0.809013 1.503540 -2.501485 0.1548 0.2923 0.3182
v 0.231575 1.629514 2.351994 0.2717 0.5440 0.6189
v 0.122091 2.226161 -2.493449 0.0294 0.0465 0.0509
v 0.025895 2.022397 2.337676 0.2634 0.2668 0.2699
v 0.992228 2.614384 -2.497652 0.0043 0.0321 0.0444
v 0.164129 2.288389 2.333411 0.1110 0.1524 0.1788
v 0.213777 2.982979 -2.524472 0.2034 0.0958 0.1329
v 0.102239 2.957835 2.391691 0.0174 0.0777 0.1191
v 0.153001 3.031852 -2.523890 0.5938 0.4137 0.3878
v 0.985315 3.237636 -2.344209 0.7617 0.5453 0.4744
v 0.217678 3.316648 -1.766338 0.6970 0.4864 0.4206
v 0.280665 3.355180 -0.721857 0.5066 0.5804 0.6208
v 1.014205 3.234615 -0.293005 0.6216 0.6843 0.7112
v 0.075195 3.234576 0.056238 0.6273 0.6963 0.7296
v 0.104364 3.234505 0.221411 0.5927 0.6525 0.6826
v 0.082596 3.334503 0.590152 0.4757 0.5166 0.5490
v 0.017658 3.375862 1.648828 0.6173 0.4939 0.4952
v 1.144655 3.234521 1.877317 0.7709 0.5097 0.4501
v 0.287753 3.013759 2.391367 0.6514 0.3698 0.3093
v 1.132796 3.399647 -1.692588 0.4160 0.4711 0.5115
v 0.006165 3.399774 -1.475957 0.5992 0.6525 0.6812
v 0.009230 3.399973 -1.328240 0.6193 0.6756 0.7036
v 1.109078 3.399812 -0.826389 0.5956 0.6561 0.6890
v 0.719243 3.399608 0.743548 0.2074 0.2500 0.2977
v 0.039983 3.399774 0.832826 0.6293 0.6950 0.7253
v 0.028490 3.400000 1.139423 0.6333 0.6893 0.7163
v 0.518335 3.399774 1.492833 0.5275 0.6069 0.6589
v 1.866754 0.261365 -2.416031 0.1341 0.0255 0.1140
v 1.844133 0.246684 -2.107005 0.0427 0.0312 0.0563
v 1.835878 0.244100 -1.753899 0.0389 0.0265 0.0453
v 1.841782 0.251620 -1.358019 0.0309 0.0336 0.0471
v 1.844272 0.261028 -1.298077 0.0188 0.0204 0.0336
v 1.261383 0.350073 -0.663248 0.0278 0.0278 0.0464
v 1.311048 0.159627 -0.282823 0.0227 0.0267 0.0453
v 1.589345 0.160588 0.036312 0.0234 0.0272 0.0488
v 1.257308 0.159986 0.367378 0.0206 0.0245 0.0442
v 1.292885 0.308013 0.758427 0.0206 0.0268 0.0467
v 1.656790 0.373808 1.058408 0.0213 0.0254 0.0418
v 1.660813 0.335739 1.456804 0.0201 0.0226 0.0318
v 1.659995 0.307074 1.477496 0.0314 0.0237 0.0360
v 1.654509 0.241019 1.913304 0.0353 0.0208 0.0367
v 1.266206 0.037317 2.510885 0.0357 0.0261 0.0640
v 2.276650 0.322014 2.516524 0.0567 0.0367 0.0977
v 1.914016 0.411401 -2.467705 0.2359 0.3456 0.4498
v 2.286698 0.416613 -2.151682 0.0316 0.0265 0.0447
v 2.011780 0.416784 -1.705507 0.0213 0.0274 0.0477
v 2.347160 0.416735 -1.423486 0.0132 0.0251 0.0511
v 2.111093 0.416851 -1.315981 0.0140 0.0221 0.0445
v 2.131293 0.416685 -0.754897 0.0127 0.0187 0.0392
v 2.340299 0.416889 -0.417812 0.0118 0.0170 0.0322
v 2.220228 0.416839 -0.266051 0.0189 0.0228 0.0394
v 1.930264 0.416668 0.100014 0.0150 0.0194 0.0379
v 1.205431 0.413284 0.758895 0.0157 0.0193 0.0371
v 1.655989 0.402004 1.058850 0.0159 0.0262 0.0524
v 1.658480 0.398244 1.362325 0.0084 0.0236 0.0590
v 1.657974 0.413284 1.696673 0.0119 0.0215 0.0461
v 1.657574 0.384612 1.849072 0.0239 0.0227 0.0418
v 1.651984 0.375447 2.208820 0.0541 0.1293 0.1936
v 2.102612 0.403605 2.536707 0.0230 0.0232 0.0482
v 1.376560 1.121031 -2.505364 0.4814 0.1895 0.2703
v 1.489004 0.825109 2.425137 0.1114 0.4304 0.6091
v 1.213581 1.412165 -2.498980 0.6263 0.0792 0.2045
v 1.195052 1.398301 2.358553 0.1077 0.2572 0.4192
v 1.811551 1.468855 2.573168 0.0967 0.1346 0.1176
v 2.325236 1.860547 -2.575421 0.4259 0.2094 0.2191
v 1.212832 1.526363 2.357622 0.1168 0.1379 0.0882
v 1.802060 1.587306 2.565677 0.1114 0.0935 0.1079
v 2.353151 1.880025 -2.574052 0.0317 0.0400 0.0438
v 2.098032 1.944384 2.420774 0.0224 0.0178 0.0228
v 1.897385 1.894335 2.519086 0.0445 0.0454 0.0646
v 2.325062 2.291669 -2.547248 0.0579 0.1017 0.1369
v 2.307404 2.390529 2.403020 0.0289 0.0790 0.1030
v 1.185805 2.972511 -2.559698 0.2907 0.0592 0.1174
v 1.190124 2.682033 2.411241 0.2097 0.1189 0.1610
v 1.826510 3.244471 -2.380994 0.6692 0.3119 0.3552
v 1.805943 3.239529 -2.040735 0.6296 0.6219 0.6180
v 1.627221 3.369855 -1.689084 0.7349 0.5943 0.5435
v 1.593768 3.373825 -1.358018 0.6249 0.6764 0.7011
v 1.593646 3.373814 -1.046220 0.6285 0.6672 0.6887
v 1.707309 3.353203 -0.722171 0.5739 0.6360 0.6662
v 2.059059 3.216992 -0.300012 0.6238 0.6891 0.7185
v 2.056935 3.218951 -0.018428 0.6306 0.7029 0.7363
v 2.058850 3.216853 0.084863 0.6165 0.6757 0.7033
v 2.027104 3.285630 0.761504 0.5416 0.5948 0.6257
v 2.046347 3.269172 0.931415 0.4967 0.5559 0.5879
v 1.590564 3.374106 1.260727 0.4464 0.5095 0.5461
v 2.034418 3.287148 1.495241 0.5884 0.6408 0.6733
v 2.341884 3.189695 2.101531 0.6978 0.5993 0.5791
v 1.549153 3.103289 2.432088 0.5131 0.4036 0.4149
v 1.227669 3.399360 -1.692588 0.5995 0.6450 0.6757
v 1.281026 3.399095 -1.531546 0.6044 0.6584 0.6882
v 1.269167 3.399343 -1.254233 0.6181 0.6782 0.7084
v 1.269167 3.399365 -0.910907 0.4438 0.5247 0.5758
v 1.499313 3.377717 0.592441 0.5299 0.5903 0.6266
v 1.206911 3.399906 1.076585 0.6297 0.6917 0.7225
v 1.215810 3.399796 1.304303 0.6294 0.6820 0.7107
v 1.406130 3.390178 1.509466 0.5310 0.6024 0.6519
v 2.711431 0.348665 -2.411534 0.0279 0.0269 0.0420
v 3.477954 0.347373 -2.341648 0.0325 0.0328 0.0468
v 3.442185 0.271358 -0.900818 0.0257 0.0288 0.0463
v 3.202060 0.060037 -0.317525 0.0249 0.0294 0.0483
v 3.190201 0.059032 0.001276 0.0291 0.0374 0.0637
v 3.174545 0.058143 0.093537 0.0231 0.0296 0.0504
v 3.196801 0.141705 0.736742 0.0211 0.0261 0.0437
v 3.204254 0.227139 0.813008 0.0288 0.0334 0.0460
v 2.493074 0.374039 2.210765 0.0340 0.0202 0.0485
v 3.462246 0.413273 -2.454421 0.6288 0.0903 0.1292
v 3.406991 0.416586 -2.085947 0.0206 0.0287 0.0517
v 3.392537 0.416658 -1.974388 0.0134 0.0307 0.0652
v 2.716986 0.416889 -1.508442 0.0151 0.0334 0.0690
v 2.484628 0.416911 -1.314227 0.0156 0.0280 0.0546
v 3.320651 0.416707 -0.743183 0.0169 0.0205 0.0341
v 3.533348 0.416895 -0.305975 0.0121 0.0179 0.0338
v 3.474802 0.416773 -0.060194 0.0118 0.0178 0.0345
v 3.474802 0.416834 0.116889 0.0130 0.0171 0.0331
v 2.431271 0.416707 0.668661 0.0151 0.0183 0.0336
v 3.485180 0.416812 1.102859 0.0172 0.0287 0.0551
v 3.370299 0.416734 1.360355 0.0084 0.0263 0.0656
v 3.531502 0.416651 1.642592 0.0086 0.0249 0.0603
v 2.414971 0.416718 1.952420 0.0119 0.0212 0.0398
v 2.767018 0.416734 2.189332 0.0964 0.1151 0.1697
v 2.668209 0.407829 2.516647 0.0346 0.0268 0.0448
v 2.983598 1.103104 -2.633150 0.7454 0.1195 0.1957
v 2.736438 0.927222 2.509784 0.3542 0.2238 0.3421
v 2.733600 0.945161 2.516688 0.5000 0.5000 0.5000
v 3.176844 1.397601 -2.616311 0.7535 0.0894 0.3138
v 2.413491 1.477253 2.493959 0.5873 0.1789 0.1648
v 2.720556 1.531769 -2.626230 0.6319 0.2298 0.1791
v 2.880941 1.709957 2.423589 0.3670 0.2204 0.2151
v 3.046742 2.165616 -2.545365 0.3364 0.3812 0.4032
v 3.439607 1.877628 2.440330 0.0999 0.1005 0.1038
v 3.520758 2.337737 -2.538013 0.1606 0.1978 0.2193
v 3.298221 2.264620 2.409410 0.2331 0.4039 0.4788
v 3.488803 2.994010 -2.554821 0.2586 0.0916 0.1424
v 2.363094 2.651601 2.419684 0.3760 0.4303 0.4887
v 2.893758 3.142711 -2.389704 0.6216 0.5174 0.5499
v 3.522343 3.070599 -2.042103 0.5601 0.5926 0.6045
v 3.333294 3.093766 -1.825148 0.6455 0.7042 0.7281
v 2.409660 3.182805 -1.342147 0.6442 0.6989 0.7203
v 2.395694 3.184704 -1.079501 0.6545 0.7001 0.7206
v 2.380073 3.186217 -0.715154 0.6414 0.6793 0.6993
v 2.357156 3.187984 -0.516586 0.6469 0.7117 0.7391
v 2.384078 3.185383 -0.133162 0.6481 0.7141 0.7421
v 2.716412 3.152798 0.081473 0.6490 0.7118 0.7385
v 3.477762 3.086367 0.658099 0.5868 0.6393 0.6649
v 3.414548 3.085534 1.112094 0.4628 0.5252 0.5569
v 3.533871 3.060114 1.190171 0.4107 0.4637 0.4963
v 3.529273 3.069588 1.618067 0.5193 0.5700 0.6015
v 2.412847 3.182170 1.868555 0.6317 0.6945 0.7291
v 2.965122 3.043164 2.415234 0.5828 0.4868 0.5061
v 3.735684 0.177681 -2.379297 0.0549 0.2159 0.2724
v 3.737391 0.354539 -2.054307 0.0635 0.2229 0.2810
v 3.728893 0.311629 -2.009640 0.1053 0.0406 0.0395
v 4.406690 0.341846 -1.370279 0.1527 0.0601 0.0421
v 4.364164 0.313147 -0.984915 0.6481 0.4199 0.1527
v 4.364164 0.313291 -0.764204 0.1763 0.1550 0.0717
v 4.304886 0.313539 -0.345116 0.2027 0.1795 0.0827
v 4.364164 0.313131 0.045068 0.3262 0.2881 0.1240
v 4.269309 0.313379 0.136156 0.4925 0.4171 0.1278
v 4.269309 0.313351 0.423595 0.0826 0.1441 0.1589
v 4.329527 0.312639 0.769714 0.0272 0.1346 0.1815
v 3.703903 0.191462 1.803746 0.0147 0.0150 0.0234
v 4.127470 0.276056 1.828272 0.2286 0.1930 0.0857
v 4.353350 0.366994 2.214757 0.3699 0.3334 0.1636
v 3.540767 0.413284 -2.452481 0.1578 0.5253 0.5923
v 3.581516 0.416553 -2.090218 0.5206 0.5325 0.4492
v 3.569675 0.416591 -1.979862 0.4277 0.3497 0.1376
v 4.410416 0.432078 -1.352766 0.3378 0.2180 0.1232
v 4.495746 0.736606 -0.989730 0.2436 0.1198 0.0985
v 4.500030 0.743773 -0.689759 0.3339 0.2173 0.1501
v 4.499978 0.743933 -0.432264 0.3155 0.2187 0.1674
v 4.457104 0.613717 0.002948 0.1929 0.1842 0.1311
v 4.502520 0.739864 0.414988 0.1390 0.1229 0.0945
v 4.504540 0.744126 0.444452 0.1497 0.1228 0.1647
v 3.960990 0.416801 0.958563 0.1897 0.1091 0.2553
v 3.958029 0.416867 1.244690 0.2104 0.1270 0.1019
v 4.049088 0.747035 1.587414 0.1015 0.0975 0.0458
v 4.044648 0.744126 1.863740 0.3309 0.2592 0.1183
v 4.419106 0.586222 2.272317 0.2317 0.1310 0.1293
v 3.861694 1.085315 -2.597981 0.2395 0.4913 0.5295
v 4.616966 1.114174 -2.062219 0.3614 0.5470 0.5714
v 4.507205 0.777965 -1.680328 0.7484 0.5051 0.1982
v 4.551071 0.899778 -1.345810 0.4934 0.3129 0.1646
v 4.565577 0.939629 -1.005931 0.5114 0.1568 0.1924
v 4.624472 1.112573 -0.848609 0.5251 0.0694 0.3775
v 4.627206 1.117376 -0.446273 0.5967 0.0699 0.4289
v 4.623201 1.103904 -0.256873 0.3659 0.1179 0.3263
v 4.611394 1.060392 0.160460 0.5299 0.0614 0.3253
v 4.624350 1.083012 0.425617 0.4726 0.0425 0.2947
v 4.150805 0.958428 1.101326 0.4904 0.0423 0.2994
v 4.156726 0.971325 1.378114 0.3636 0.1088 0.1737
v 4.204319 1.118993 1.549811 0.6003 0.2462 0.2592
v 4.238712 1.123377 1.945840 0.5861 0.3131 0.2017
v 4.502659 0.833419 2.175101 0.7773 0.1852 0.1096
v 3.885656 1.194341 -2.602621 0.6120 0.1638 0.1107
v 4.640389 1.183221 -2.055624 0.6769 0.1475 0.0580
v 4.638456 1.172725 -1.974609 0.4764 0.1359 0.0559
v 4.628721 1.131019 -1.566469 0.5157 0.2860 0.0400
v 4.641730 1.168490 -1.187423 0.5950 0.2458 0.1126
v 4.629383 1.125525 -0.633157 0.6700 0.2003 0.1793
v 4.663654 1.230056 -0.300228 0.5746 0.2239 0.0375
v 4.710098 1.375742 -0.014488 0.6979 0.1774 0.2754
v 4.720773 1.387022 0.396827 0.6803 0.1650 0.3024
v 4.694390 1.285041 0.702385 0.7376 0.1030 0.4090
v 4.263492 1.365903 1.099577 0.5705 0.1976 0.4208
v 4.227933 1.219224 1.378176 0.5048 0.3065 0.3609
v 4.283258 1.396419 1.479688 0.6355 0.2874 0.3779
v 4.304886 1.274236 1.954746 0.6835 0.3578 0.4761
v 4.603593 1.167706 2.353769 0.5895 0.1254 0.2599
v 3.785036 1.826895 -2.557913 0.5770 0.3024 0.2184
v 4.599082 1.732092 -2.038759 0.5779 0.3619 0.3052
v 4.548720 1.739711 -1.693705 0.5381 0.1327 0.0465
v 4.551315 1.715987 -1.573476 0.6587 0.3242 0.1009
v 4.663358 1.872720 -1.017306 0.6298 0.3638 0.0861
v 4.531289 1.875658 -0.649635 0.7007 0.3249 0.0926
v 4.547275 1.759731 -0.297383 0.6404 0.2775 0.0687
v 4.533761 1.856974 0.054267 0.6015 0.4585 0.1970
v 4.534580 1.855445 0.121597 0.5442 0.4032 0.1285
v 4.536652 1.839146 0.422607 0.6717 0.4114 0.2775
v 4.322283 1.644411 1.103765 0.6027 0.4389 0.4832
v 4.344852 1.649043 1.342533 0.3549 0.3223 0.2750
v 4.345949 1.656231 1.511493 0.5302 0.4122 0.3009
v 4.384835 1.822903 1.983690 0.5827 0.4335 0.3496
v 3.699672 1.746110 2.443849 0.6583 0.3049 0.3615
v 3.788833 1.882703 -2.563341 0.3806 0.5378 0.5780
v 4.506508 2.245545 -2.198360 0.1878 0.4237 0.4628
v 4.530017 1.883117 -1.821336 0.2956 0.3941 0.3827
v 4.525368 1.928406 -1.443849 0.2010 0.2839 0.2859
v 4.656427 1.886109 -1.018562 0.4788 0.2995 0.2559
v 4.527144 1.904086 -0.728731 0.1242 0.0780 0.0707
v 4.519708 1.963123 -0.281069 0.0137 0.0219 0.0202
v 4.572717 2.057120 -0.220258 0.3906 0.4752 0.4788
v 4.521101 1.948674 0.106950 0.4235 0.4683 0.4882
v 4.493587 2.180302 0.425180 0.3568 0.3879 0.5454
v 4.298930 1.899862 1.024247 0.3325 0.4618 0.5457
v 4.262657 2.085841 1.448937 0.4132 0.2415 0.2222
v 4.361761 2.028035 1.697445 0.3726 0.1968 0.1997
v 4.423459 2.134482 1.989190 0.5432 0.3552 0.3063
v 3.743329 2.241928 2.409446 0.6584 0.5323 0.3757
v 3.773647 2.339829 -2.542093 0.4599 0.2161 0.2095
v 4.488484 2.253507 -2.265525 0.4965 0.4280 0.3828
v 4.456129 2.428438 -1.795936 0.2634 0.3231 0.2916
v 4.476085 2.304737 -1.674726 0.2368 0.4552 0.4605
v 4.473247 2.288036 -1.321290 0.2398 0.4488 0.4929
v 4.488641 2.253595 -0.797511 0.3005 0.3797 0.3883
v 4.447979 2.588970 -0.302749 0.1327 0.1775 0.1761
v 4.511105 2.251535 -0.138739 0.5037 0.5778 0.5885
v 4.477043 2.591929 0.332342 0.4282 0.5345 0.5579
v 4.476590 2.592012 0.498750 0.1916 0.5175 0.5889
v 4.296109 2.283221 1.026752 0.1338 0.4923 0.5811
v 4.340010 2.266773 1.260726 0.3264 0.0223 0.0313
v 4.366689 2.265360 1.696108 0.4468 0.1675 0.1807
v 4.374317 2.266773 1.986782 0.6107 0.5058 0.3487
v 3.594403 2.395962 2.396054 0.7551 0.6624 0.4071
v 4.322196 2.894393 -2.442958 0.4732 0.2428 0.2300
v 4.529495 2.627049 -2.274858 0.5900 0.3526 0.3207
v 4.566535 2.672814 -1.760906 0.4799 0.5254 0.4938
v 4.566517 2.672814 -1.336122 0.4643 0.6034 0.6325
v 4.547762 2.626662 -1.001620 0.4845 0.6556 0.7105
v 4.530192 2.691602 -0.716687 0.2940 0.5891 0.6678
v 4.530192 2.691513 -0.564870 0.5747 0.6175 0.6321
v 4.530192 2.691359 -0.206732 0.5709 0.6435 0.6708
v 4.530192 2.691464 0.100246 0.6202 0.6074 0.6801
v 4.549521 2.686577 0.512764 0.4304 0.6264 0.7246
v 4.349327 2.915052 1.059113 0.3422 0.4017 0.4882
v 3.654081 2.989157 1.124467 0.3377 0.1442 0.1703
v 4.340446 2.627120 1.793236 0.3384 0.1733 0.1945
v 4.332313 2.628363 1.844694 0.7347 0.6994 0.4667
v 4.097047 2.980947 2.174227 0.5448 0.6473 0.5820
v 3.823940 3.027634 -2.437731 0.5603 0.5916 0.6068
v 4.006824 3.003656 -2.293410 0.5277 0.5624 0.5806
v 4.006615 3.003656 -2.026283 0.5582 0.6084 0.6362
v 3.963079 3.022455 -1.390425 0.6292 0.6874 0.7128
v 3.954930 3.028004 -0.990167 0.6456 0.6953 0.7203
v 3.963828 3.022814 -0.714279 0.6273 0.6653 0.6958
v 3.955382 3.028219 -0.512841 0.6329 0.6906 0.7229
v 3.964716 3.023278 -0.200167 0.6405 0.7057 0.7400
v 3.955382 3.028213 0.075942 0.6330 0.6937 0.7282
v 3.729920 3.046913 0.651148 0.6301 0.6846 0.7142
v 3.959718 3.026215 0.981556 0.5622 0.5987 0.6158
v 3.635535 3.002280 1.121998 0.2111 0.2278 0.2393
v 3.627263 3.058662 1.618067 0.3717 0.4084 0.4316
v 4.007085 3.003655 1.879287 0.6106 0.6769 0.7127
v 4.014138 3.001695 2.183920 0.6197 0.6903 0.7282
v 4.726224 1.464356 -2.567091 0.4841 0.0658 0.1068
v 4.739354 1.410465 -2.363477 0.7179 0.1130 0.0546
v 4.739406 1.406512 -1.937387 0.7589 0.1489 0.0138
v 4.750116 1.411155 -1.638723 0.5409 0.1944 0.0172
v 4.724813 1.494579 -1.000900 0.6875 0.3705 0.0622
v 4.726206 1.492277 -0.886475 0.6286 0.1986 0.0160
v 4.728121 1.492293 -0.357813 0.6990 0.3173 0.0351
v 4.726554 1.495815 -0.202791 0.7253 0.4260 0.0533
v 4.727756 1.492293 0.079116 0.8036 0.6043 0.1421
v 4.730472 1.494170 0.593887 0.7026 0.4701 0.1225
v 4.732388 1.492293 0.772014 0.2778 0.2103 0.3672
v 4.724917 1.410448 2.007912 0.5212 0.2706 0.3708
v 4.725858 1.452778 2.394083 0.5482 0.3301 0.4844
v 4.724900 1.569302 -2.223976 0.6460 0.0826 0.0007
v 4.774356 1.547985 -1.901914 0.4861 0.1215 0.0338
v 4.754086 1.526541 -1.366940 0.5004 0.2084 0.0640
v 4.725492 1.584568 -1.004285 0.7278 0.4197 0.1067
v 4.723942 1.569191 -0.755072 0.7711 0.2716 0.0939
v 4.772824 1.550121 -0.322345 0.7203 0.1889 0.0238
v 4.773172 1.550463 -0.154075 0.7389 0.5692 0.1836
v 4.768209 1.553230 0.304478 0.6485 0.4785 0.2134
v 4.726293 1.581818 0.590301 0.6581 0.5143 0.2079
v 4.722602 1.522366 0.780771 0.6837 0.6727 0.3248
f 613 629 614
f 555 554 569
f 555 569 570
f 555 570 556
f 556 570 571
f 571 570 585
f 571 585 586
f 586 585 601
f 540 555 556
f 541 540 556
f 601 585 600
f 584 583 598
f 584 598 599
f 568 583 584
f 569 568 584
f 540 539 555
f 555 539 554
f 525 540 526
f 526 540 541
f 56 41 57
f 57 41 42
f 73 72 57
f 71 56 72
f 56 57 72
f 71 72 86
f 86 72 87
f 73 57 58
f 102 88 103
f 87 88 102
f 72 73 88
f 87 72 88
f 41 27 42
f 57 42 58
f 42 43 58
f 85 70 71
f 85 71 86
f 85 86 100
f 100 86 101
f 117 102 103
f 117 103 118
f 101 86 87
f 101 87 102
f 98 84 99
f 82 83 97
f 97 83 98
f 82 67 83
f 67 68 83
f 68 84 83
f 68 69 84
f 66 67 82
f 81 66 82
f 98 83 84
f 101 102 116
f 478 419 480
f 476 413 416
f 476 416 478
f 573 478 480
f 573 480 588
f 558 476 573
f 476 478 573
f 574 589 590
f 575 574 590
f 591 575 590
f 576 575 591
f 560 559 575
f 559 574 575
f 575 576 561
f 561 560 575
f 562 561 576
f 562 576 577
f 570 569 584
f 570 584 585
f 585 599 600
f 585 584 599
f 601 600 615
f 615 616 601
f 599 614 615
f 600 599 615
f 589 605 590
f 589 604 605
f 590 606 591
f 590 605 606
f 592 606 607
f 592 591 606
f 576 591 592
f 577 576 592
f 567 566 582
f 582 566 581
f 565 581 566
f 565 580 581
f 563 578 579
f 564 563 579
f 565 564 579
f 565 579 580
f 608 592 607
f 593 592 608
f 581 580 595
f 580 579 594
f 580 594 595
f 582 581 597
f 581 596 597
f 581 595 596
f 579 578 594
f 578 593 594
f 597 596 612
f 612 596 611
f 595 594 609
f 595 609 610
f 593 608 594
f 608 609 594
f 596 595 610
f 596 610 611
f 613 614 599
f 598 613 599
f 554 553 568
f 554 568 569
f 514 500 515
f 515 500 501
f 456 447 500
f 456 500 514
f 457 456 515
f 515 456 514
f 244 245 254
f 313 254 255
f 314 313 255
f 254 245 255
f 313 373 372
f 314 255 315
f 255 256 315
f 255 245 246
f 246 256 255
f 373 313 314
f 443 373 374
f 374 315 316
f 375 374 316
f 374 314 315
f 373 314 374
f 256 246 247
f 256 247 257
f 256 257 316
f 315 256 316
f 247 184 185
f 246 184 247
f 133 134 187
f 186 133 187
f 132 133 186
f 185 132 186
f 443 374 444
f 362 303 363
f 363 303 304
f 577 592 593
f 574 573 589
f 573 588 589
f 653 565 566
f 653 652 565
f 654 566 567
f 653 566 654
f 652 651 564
f 652 564 565
f 650 563 651
f 651 563 564
f 533 548 534
f 518 534 519
f 518 533 534
f 517 532 518
f 518 532 533
f 517 531 532
f 504 503 518
f 503 517 518
f 502 516 503
f 503 516 517
f 524 523 539
f 640 565 652
f 565 564 651
f 639 565 640
f 565 639 564
f 565 651 652
f 638 637 563
f 637 562 563
f 639 638 564
f 564 563 650
f 564 650 651
f 638 563 564
f 563 562 577
f 563 577 578
f 578 577 593
f 536 535 551
f 551 550 640
f 551 640 641
f 551 535 550
f 534 549 550
f 534 550 535
f 654 567 655
f 567 568 655
f 568 643 655
f 568 567 582
f 553 643 568
f 568 582 583
f 509 508 523
f 523 508 522
f 508 507 522
f 523 522 537
f 538 523 537
f 522 536 537
f 522 521 536
f 507 521 522
f 507 520 521
f 507 506 520
f 505 504 518
f 505 518 519
f 505 519 506
f 506 519 520
f 646 559 560
f 647 646 560
f 549 534 548
f 562 649 563
f 647 560 648
f 560 561 562
f 649 648 562
f 647 648 649
f 648 560 562
f 641 652 566
f 566 652 653
f 652 565 566
f 640 652 641
f 654 641 567
f 642 654 567
f 642 641 654
f 641 566 567
f 552 551 642
f 642 551 641
f 536 551 537
f 537 551 552
f 521 520 535
f 521 535 536
f 465 523 524
f 466 465 524
f 466 524 525
f 467 466 525
f 643 642 655
f 642 654 655
f 525 524 539
f 525 539 540
f 538 537 552
f 538 552 553
f 553 552 643
f 643 552 642
f 538 553 554
f 539 523 538
f 502 501 516
f 501 515 516
f 539 538 554
f 519 535 520
f 519 534 535
f 130 114 115
f 129 114 130
f 129 130 182
f 116 102 117
f 130 115 131
f 116 115 131
f 118 119 134
f 133 118 134
f 131 132 185
f 184 131 185
f 184 116 131
f 184 130 131
f 183 130 184
f 185 133 132
f 116 117 132
f 131 116 132
f 132 117 133
f 117 118 133
f 225 165 228
f 228 165 167
f 228 225 167
f 60 75 167
f 165 60 167
f 169 167 231
f 167 231 228
f 75 90 169
f 167 75 169
f 96 82 97
f 81 82 96
f 95 80 96
f 80 81 96
f 81 65 66
f 80 65 81
f 112 113 114
f 114 98 99
f 113 98 114
f 97 98 112
f 112 98 113
f 96 97 111
f 97 112 111
f 110 96 95
f 95 96 111
f 95 111 110
f 62 78 77
f 93 78 94
f 78 79 94
f 77 78 93
f 93 92 77
f 78 63 64
f 79 78 64
f 62 63 78
f 90 91 106
f 90 106 105
f 77 61 62
f 61 77 76
f 91 77 92
f 91 76 77
f 92 93 108
f 107 92 108
f 106 91 107
f 91 92 107
f 109 93 94
f 108 93 109
f 469 405 468
f 389 388 405
f 388 404 405
f 390 389 405
f 406 390 405
f 406 405 469
f 454 390 406
f 405 404 467
f 405 467 468
f 327 328 389
f 269 270 328
f 328 270 329
f 268 269 328
f 327 268 328
f 328 269 342
f 269 283 342
f 327 388 389
f 339 326 386
f 339 402 403
f 340 339 403
f 339 386 402
f 402 386 403
f 267 326 280
f 280 326 339
f 280 340 281
f 280 339 340
f 215 280 281
f 214 280 215
f 283 217 216
f 216 282 283
f 216 215 282
f 282 215 281
f 340 403 404
f 387 388 404
f 403 387 404
f 386 387 403
f 283 343 284
f 283 342 343
f 282 281 341
f 340 341 281
f 341 340 404
f 342 404 405
f 342 282 341
f 283 282 342
f 342 341 404
f 338 266 325
f 266 279 325
f 325 279 338
f 385 325 338
f 338 325 401
f 328 389 390
f 329 328 390
f 270 269 329
f 329 269 328
f 389 328 342
f 389 342 405
f 404 388 389
f 404 389 405
f 283 217 284
f 217 218 284
f 342 283 284
f 342 284 343
f 343 342 405
f 342 343 406
f 405 342 406
f 343 405 406
f 201 217 283
f 269 201 283
f 268 200 269
f 200 201 269
f 200 268 201
f 268 269 201
f 404 403 467
f 467 403 466
f 468 467 525
f 468 525 526
f 615 614 629
f 615 629 630
f 495 496 629
f 629 496 630
f 316 365 375
f 445 374 375
f 444 374 445
f 616 630 631
f 616 615 630
f 617 616 631
f 617 631 632
f 630 496 631
f 631 497 632
f 375 365 445
f 257 247 316
f 306 365 316
f 247 306 316
f 496 497 631
f 434 444 435
f 444 445 435
f 157 217 158
f 217 201 202
f 217 202 218
f 218 158 217
f 143 158 202
f 202 158 218
f 200 201 217
f 216 200 217
f 198 267 214
f 214 267 280
f 199 198 214
f 199 214 215
f 201 217 218
f 202 201 218
f 199 215 216
f 199 216 200
f 158 143 218
f 143 14 29
f 29 28 158
f 143 29 158
f 28 157 158
f 218 143 202
f 13 12 27
f 213 197 266
f 213 266 279
f 197 213 279
f 266 197 279
f 338 279 266
f 269 270 202
f 201 269 202
f 293 352 354
f 293 354 295
f 291 289 350
f 350 289 348
f 414 350 411
f 293 291 352
f 352 291 350
f 350 348 411
f 346 348 287
f 104 89 170
f 170 89 168
f 74 168 89
f 168 74 166
f 103 104 119
f 168 232 170
f 229 166 226
f 168 166 229
f 304 243 305
f 243 244 305
f 127 113 128
f 181 128 129
f 181 129 182
f 128 114 129
f 128 113 114
f 183 184 245
f 245 184 246
f 243 182 244
f 242 180 243
f 245 182 183
f 244 182 245
f 181 182 243
f 243 180 181
f 182 130 183
f 108 123 107
f 122 107 123
f 110 108 109
f 121 107 122
f 106 107 121
f 121 122 174
f 239 178 240
f 177 178 239
f 241 242 303
f 241 303 302
f 123 108 109
f 123 109 124
f 109 110 125
f 124 109 125
f 303 242 304
f 242 243 304
f 240 179 241
f 126 111 127
f 111 112 127
f 110 111 126
f 178 125 126
f 178 126 179
f 110 126 125
f 124 125 178
f 124 178 177
f 175 122 176
f 176 122 123
f 127 181 180
f 127 128 181
f 126 127 179
f 179 127 180
f 112 113 127
f 175 238 237
f 241 180 242
f 179 180 241
f 175 176 238
f 238 176 177
f 238 177 239
f 178 179 240
f 176 123 177
f 177 123 124
f 174 122 175
f 612 627 628
f 613 612 628
f 613 628 629
f 628 494 495
f 628 495 629
f 627 493 628
f 493 494 628
f 244 254 313
f 305 313 372
f 364 305 372
f 305 244 313
f 432 364 372
f 432 372 442
f 442 372 373
f 443 442 373
f 432 442 443
f 611 610 626
f 607 606 621
f 607 621 622
f 609 608 623
f 609 623 624
f 608 607 623
f 607 622 623
f 309 250 251
f 309 251 310
f 310 251 311
f 250 237 238
f 250 238 251
f 368 309 310
f 369 368 310
f 251 252 311
f 368 369 438
f 438 369 439
f 439 369 370
f 439 370 440
f 426 438 439
f 425 438 426
f 310 311 370
f 310 370 369
f 312 301 360
f 312 360 371
f 253 301 312
f 253 240 301
f 311 253 312
f 252 253 311
f 311 312 370
f 371 370 312
f 371 360 441
f 370 371 440
f 440 371 441
f 439 440 427
f 439 427 426
f 427 440 428
f 440 441 428
f 441 360 428
f 487 426 427
f 487 427 488
f 621 620 486
f 487 488 621
f 621 488 622
f 486 487 621
f 623 622 489
f 622 488 489
f 485 486 619
f 619 486 620
f 493 627 492
f 626 492 627
f 612 611 627
f 611 626 627
f 610 625 626
f 605 604 620
f 604 619 620
f 491 492 625
f 626 625 492
f 610 609 624
f 610 624 625
f 606 620 621
f 606 605 620
f 624 490 491
f 624 491 625
f 432 363 364
f 363 304 364
f 364 304 305
f 492 430 431
f 431 432 493
f 492 431 493
f 493 432 433
f 493 433 494
f 495 434 496
f 434 435 496
f 494 433 434
f 494 434 495
f 361 362 429
f 429 362 430
f 489 429 490
f 488 427 489
f 489 428 429
f 427 428 489
f 491 430 492
f 490 429 491
f 429 430 491
f 623 489 624
f 624 489 490
f 252 238 239
f 251 238 252
f 252 240 253
f 252 239 240
f 427 426 428
f 360 301 361
f 301 302 361
f 240 241 302
f 301 240 302
f 360 361 428
f 428 361 429
f 433 443 434
f 443 444 434
f 433 432 443
f 430 363 431
f 432 431 363
f 430 362 363
f 362 302 303
f 361 302 362
f 398 397 460
f 398 460 461
f 460 448 518
f 504 460 518
f 448 460 504
f 462 461 520
f 461 519 520
f 521 520 506
f 518 504 519
f 449 382 461
f 519 504 505
f 505 449 461
f 505 461 519
f 461 460 518
f 461 518 519
f 394 393 456
f 457 394 456
f 459 516 517
f 459 458 516
f 395 457 458
f 394 457 395
f 458 457 516
f 457 515 516
f 515 501 502
f 515 502 516
f 209 193 277
f 193 262 277
f 338 385 401
f 385 400 401
f 383 399 400
f 385 324 384
f 325 324 385
f 384 400 385
f 383 400 384
f 399 462 463
f 398 461 462
f 398 462 399
f 382 398 399
f 383 382 399
f 323 322 383
f 322 382 383
f 400 399 463
f 451 384 463
f 462 451 463
f 383 384 451
f 384 385 464
f 384 464 463
f 400 463 464
f 400 464 401
f 505 506 507
f 521 506 507
f 452 464 522
f 508 452 522
f 322 263 337
f 337 263 278
f 337 336 397
f 398 322 337
f 337 397 398
f 382 322 398
f 209 277 336
f 210 193 209
f 193 210 194
f 210 209 278
f 209 277 278
f 278 336 337
f 262 321 277
f 277 321 336
f 277 336 278
f 321 397 336
f 397 321 381
f 194 210 263
f 263 210 278
f 195 194 263
f 195 263 264
f 196 195 264
f 196 264 265
f 264 263 323
f 263 322 323
f 264 323 324
f 265 264 324
f 265 324 325
f 266 265 325
f 324 323 383
f 324 383 384
f 386 325 385
f 386 326 325
f 325 385 401
f 267 198 197
f 267 197 266
f 267 266 325
f 267 325 326
f 453 509 523
f 465 453 523
f 385 452 386
f 453 386 452
f 402 386 453
f 402 453 465
f 452 508 453
f 509 453 508
f 452 385 401
f 401 452 464
f 464 385 452
f 464 452 508
f 522 464 508
f 387 386 402
f 387 402 403
f 388 403 404
f 388 387 403
f 403 402 465
f 403 465 466
f 382 449 450
f 382 450 383
f 383 450 384
f 384 450 451
f 462 463 520
f 463 520 521
f 521 463 462
f 463 464 521
f 521 464 522
f 464 463 522
f 463 521 522
f 506 505 520
f 505 519 520
f 395 458 396
f 458 459 396
f 451 450 506
f 451 506 507
f 508 451 507
f 452 451 508
f 461 382 462
f 462 382 383
f 383 451 462
f 448 504 518
f 450 505 506
f 449 505 450
f 451 452 385
f 451 385 384
f 135 144 204
f 188 135 204
f 1 15 135
f 135 15 144
f 454 406 469
f 330 329 391
f 329 390 391
f 390 454 469
f 406 390 469
f 512 469 527
f 527 511 512
f 526 511 527
f 454 469 527
f 512 454 527
f 469 454 512
f 469 468 527
f 527 468 526
f 557 541 556
f 541 557 542
f 511 510 526
f 510 525 526
f 527 526 542
f 526 541 542
f 391 390 454
f 512 511 526
f 512 526 527
f 475 472 542
f 542 557 475
f 407 406 470
f 470 406 469
f 407 470 469
f 14 13 29
f 13 28 29
f 525 510 511
f 526 525 511
f 271 270 330
f 270 329 330
f 589 588 604
f 606 604 605
f 237 250 309
f 300 237 309
f 359 309 368
f 359 300 309
f 425 359 368
f 425 368 438
f 486 426 487
f 425 426 486
f 357 299 358
f 235 174 236
f 173 174 235
f 298 299 357
f 299 235 236
f 235 299 298
f 358 424 423
f 357 358 423
f 618 484 485
f 619 618 485
f 423 424 485
f 484 423 485
f 482 484 603
f 484 618 603
f 485 424 486
f 424 425 486
f 604 618 619
f 603 618 604
f 421 355 423
f 355 357 423
f 174 120 121
f 120 174 173
f 105 106 121
f 120 105 121
f 173 105 120
f 105 173 171
f 480 482 588
f 588 482 603
f 588 603 604
f 358 299 359
f 299 300 359
f 236 237 300
f 299 236 300
f 358 359 425
f 358 425 424
f 174 175 237
f 237 236 174
f 478 416 419
f 296 298 357
f 355 296 357
f 582 598 583
f 582 597 598
f 597 612 598
f 612 613 598
f 612 611 613
f 616 614 615
f 610 611 612
f 610 609 611
f 614 613 615
f 477 557 572
f 557 644 645
f 557 556 644
f 412 414 415
f 417 414 479
f 479 414 477
f 556 571 572
f 602 616 617
f 602 601 616
f 557 556 572
f 645 644 556
f 645 556 557
f 572 571 587
f 587 571 586
f 602 587 586
f 586 601 602
f 608 607 609
f 350 414 352
f 352 414 417
f 420 479 481
f 602 481 479
f 479 587 602
f 477 572 479
f 479 572 587
f 420 417 479
f 195 211 212
f 196 195 212
f 194 138 150
f 194 150 210
f 195 194 211
f 210 150 211
f 194 210 211
f 140 195 196
f 139 195 140
f 139 138 195
f 138 194 195
f 140 196 141
f 141 196 197
f 141 10 24
f 141 24 153
f 21 150 151
f 24 152 153
f 24 23 152
f 151 140 152
f 23 22 151
f 23 151 152
f 21 151 22
f 8 22 9
f 9 22 23
f 8 21 22
f 22 21 23
f 10 9 23
f 10 23 24
f 140 141 153
f 139 140 151
f 150 139 151
f 150 138 139
f 141 9 10
f 152 140 153
f 9 141 140
f 139 9 140
f 8 9 139
f 6 137 20
f 193 149 209
f 137 20 149
f 7 8 9
f 147 146 206
f 147 206 207
f 193 137 149
f 19 18 148
f 18 147 148
f 18 17 147
f 148 20 19
f 149 20 148
f 137 6 149
f 149 6 20
f 148 208 209
f 149 148 209
f 5 4 19
f 19 4 18
f 20 6 19
f 5 19 6
f 4 3 18
f 3 17 18
f 148 147 207
f 192 193 208
f 208 193 209
f 208 191 192
f 207 191 208
f 148 207 208
f 147 17 146
f 3 2 17
f 198 142 197
f 197 142 141
f 152 212 153
f 213 152 153
f 213 196 212
f 153 212 213
f 212 152 213
f 197 196 213
f 211 151 152
f 212 211 152
f 212 197 213
f 212 196 197
f 213 141 153
f 141 213 197
f 153 141 197
f 153 197 213
f 211 195 196
f 211 196 212
f 209 193 194
f 209 194 210
f 150 209 210
f 151 150 211
f 150 149 209
f 210 194 195
f 211 210 195
f 207 190 191
f 206 190 207
f 17 145 146
f 16 145 17
f 16 2 145
f 145 2 136
f 146 145 206
f 205 206 145
f 17 2 16
f 197 196 266
f 196 265 266
f 8 7 21
f 20 149 21
f 21 149 150
f 7 6 21
f 6 20 21
f 7 138 8
f 8 138 139
f 10 24 153
f 141 10 153
f 99 100 115
f 99 115 114
f 100 99 85
f 112 111 113
f 110 94 95
f 109 94 110
f 94 80 95
f 79 80 94
f 49 50 65
f 64 49 65
f 62 63 64
f 64 65 80
f 79 64 80
f 214 198 215
f 215 198 199
f 156 217 157
f 216 156 155
f 155 215 216
f 156 216 217
f 155 154 215
f 154 214 215
f 69 70 84
f 84 70 85
f 68 54 69
f 53 54 68
f 52 53 67
f 67 53 68
f 38 23 24
f 38 24 39
f 53 38 39
f 53 39 54
f 70 54 55
f 69 54 70
f 37 22 38
f 22 23 38
f 67 68 69
f 71 55 56
f 70 55 71
f 40 25 26
f 40 26 41
f 40 41 56
f 40 56 55
f 40 39 24
f 24 25 40
f 54 39 55
f 55 39 40
f 118 103 119
f 13 27 28
f 27 156 28
f 28 156 157
f 27 26 156
f 26 155 156
f 26 25 155
f 84 85 99
f 26 27 41
f 43 42 28
f 27 28 42
f 15 1 2
f 15 2 16
f 16 2 3
f 16 3 17
f 32 18 33
f 17 18 32
f 30 15 31
f 31 15 16
f 16 17 31
f 31 17 32
f 52 38 53
f 52 37 38
f 52 51 37
f 51 36 37
f 50 36 51
f 35 36 50
f 34 35 49
f 50 49 35
f 48 33 49
f 49 33 34
f 47 32 48
f 48 32 33
f 46 31 47
f 47 31 32
f 90 75 76
f 90 76 91
f 9 8 10
f 36 21 37
f 37 21 22
f 36 35 20
f 20 21 36
f 34 19 35
f 19 20 35
f 33 18 19
f 33 19 34
f 154 142 214
f 142 198 214
f 11 154 25
f 11 142 154
f 10 11 24
f 24 11 25
f 155 25 154
f 24 9 10
f 23 9 24
f 65 50 66
f 50 51 66
f 66 51 52
f 66 52 67
f 45 46 61
f 60 45 61
f 48 49 64
f 63 48 64
f 46 47 48
f 47 48 62
f 62 48 63
f 46 47 62
f 61 46 62
f 46 45 31
f 45 30 31
f 75 60 76
f 60 61 76
f 6 7 20
f 20 7 21
f 17 3 4
f 17 4 18
f 5 6 20
f 5 20 19
f 100 101 116
f 115 100 116
f 115 116 117
f 11 10 141
f 142 11 141
f 448 449 381
f 381 449 382
f 460 448 461
f 448 449 461
f 504 448 449
f 504 449 505
f 448 460 449
f 449 460 461
f 449 448 505
f 505 448 504
f 409 472 411
f 411 472 475
f 329 330 390
f 329 390 406
f 390 330 391
f 409 406 472
f 406 469 472
f 469 527 472
f 472 527 542
f 226 223 289
f 226 289 291
f 346 343 409
f 343 406 409
f 287 221 284
f 221 218 284
f 289 223 287
f 223 221 287
f 289 287 348
f 348 346 409
f 348 409 411
f 284 343 287
f 287 343 346
f 344 343 407
f 343 406 407
f 469 406 407
f 219 218 285
f 218 284 285
f 158 159 219
f 218 158 219
f 406 343 344
f 406 344 407
f 59 164 166
f 104 88 89
f 103 88 104
f 74 166 164
f 74 59 166
f 73 58 74
f 73 74 88
f 89 88 74
f 58 59 74
f 271 202 270
f 203 202 271
f 143 202 203
f 27 12 28
f 12 13 28
f 44 28 29
f 43 28 44
f 13 14 28
f 28 14 29
f 43 44 58
f 58 44 59
f 344 284 285
f 343 284 344
f 44 29 161
f 29 158 161
f 161 158 221
f 59 44 164
f 44 161 164
f 164 161 221
f 164 221 223
f 158 218 221
f 218 202 284
f 202 270 284
f 284 270 343
f 344 285 343
f 270 329 343
f 284 343 285
f 406 343 329
f 414 411 475
f 477 475 557
f 477 414 475
f 417 415 418
f 418 414 417
f 414 415 417
f 415 414 418
f 497 436 437
f 498 483 617
f 498 617 632
f 632 497 498
f 498 497 437
f 497 496 436
f 422 498 437
f 422 483 498
f 436 367 437
f 224 226 227
f 229 226 227
f 229 227 230
f 297 232 234
f 297 232 295
f 232 229 295
f 297 295 356
f 295 354 356
f 229 293 295
f 352 417 354
f 229 226 291
f 229 291 293
f 166 164 226
f 164 223 226
f 172 249 187
f 249 172 234
f 170 232 172
f 172 232 234
f 187 119 172
f 134 119 187
f 172 104 170
f 119 104 172
f 356 354 422
f 422 354 420
f 354 417 420
f 247 185 186
f 247 186 248
f 365 306 307
f 365 307 366
f 307 247 248
f 306 247 307
f 445 365 435
f 435 365 366
f 436 435 366
f 307 308 366
f 366 308 367
f 307 248 249
f 307 249 308
f 436 366 367
f 249 297 308
f 234 297 249
f 308 297 356
f 308 356 367
f 367 422 437
f 367 356 422
f 435 436 496
f 422 420 483
f 483 420 481
f 483 481 617
f 617 481 602
f 186 187 248
f 248 187 249
f 232 168 229
f 333 332 393
f 395 334 333
f 395 379 380
f 333 394 395
f 395 378 379
f 394 378 395
f 393 377 394
f 333 393 394
f 377 378 394
f 381 380 396
f 397 381 396
f 381 336 397
f 321 336 381
f 336 262 277
f 321 262 336
f 336 276 335
f 335 396 397
f 336 335 397
f 380 381 397
f 380 397 396
f 335 395 396
f 209 208 276
f 209 276 277
f 277 276 336
f 275 274 333
f 275 333 334
f 334 395 335
f 396 395 380
f 205 189 259
f 273 205 259
f 332 259 318
f 332 273 259
f 393 332 318
f 377 318 378
f 318 319 378
f 393 318 377
f 260 189 190
f 259 189 260
f 381 397 382
f 382 397 398
f 381 460 397
f 448 381 397
f 448 397 460
f 381 448 460
f 446 499 500
f 446 500 447
f 499 446 513
f 446 455 513
f 377 376 446
f 377 446 447
f 392 376 446
f 392 446 455
f 446 376 455
f 393 377 447
f 376 392 455
f 393 447 456
f 378 377 393
f 394 378 393
f 136 135 188
f 136 188 189
f 145 136 189
f 2 1 136
f 1 135 136
f 189 190 206
f 205 189 206
f 145 189 205
f 261 320 319
f 260 261 319
f 319 259 260
f 318 259 319
f 188 258 189
f 189 258 259
f 318 258 317
f 259 258 318
f 318 317 377
f 317 376 377
f 259 318 260
f 260 318 319
f 319 318 377
f 319 377 378
f 207 206 275
f 193 192 209
f 192 208 209
f 207 275 208
f 275 334 335
f 276 275 335
f 208 275 276
f 206 205 274
f 274 205 273
f 274 273 332
f 274 332 333
f 206 274 275
f 15 144 204
f 460 459 517
f 460 517 518
f 396 459 397
f 397 459 460
f 379 378 394
f 379 394 395
f 376 317 258
f 222 163 225
f 165 45 60
f 163 45 165
f 163 165 225
f 163 30 45
f 160 30 163
f 482 421 423
f 296 233 298
f 298 233 235
f 419 421 482
f 480 419 482
f 482 423 484
f 220 222 288
f 288 222 290
f 290 222 225
f 220 288 286
f 290 225 228
f 290 228 292
f 292 228 231
f 292 231 294
f 351 292 353
f 292 294 353
f 294 231 296
f 231 233 296
f 353 296 355
f 353 294 296
f 272 204 220
f 272 220 286
f 345 286 347
f 349 288 290
f 286 288 347
f 347 288 349
f 349 292 351
f 349 290 292
f 347 349 413
f 410 347 413
f 416 351 353
f 416 349 351
f 413 349 416
f 419 416 353
f 419 353 355
f 419 355 421
f 171 173 235
f 171 235 233
f 169 171 233
f 231 169 233
f 90 105 171
f 169 90 171
f 476 410 413
f 474 410 476
f 544 633 634
f 544 543 633
f 532 547 548
f 533 532 548
f 517 516 531
f 547 532 546
f 532 531 546
f 529 544 545
f 530 529 545
f 530 514 529
f 516 530 531
f 516 515 530
f 515 514 530
f 531 530 545
f 546 531 545
f 220 144 160
f 204 144 220
f 15 30 160
f 144 15 160
f 222 220 160
f 222 160 163
f 502 501 503
f 545 544 634
f 513 529 514
f 513 528 529
f 561 648 649
f 562 561 649
f 561 560 647
f 561 647 648
f 633 543 634
f 544 558 559
f 634 543 544
f 543 558 544
f 545 634 635
f 561 559 560
f 635 634 544
f 635 544 559
f 635 559 560
f 545 635 636
f 546 545 636
f 547 546 636
f 547 636 637
f 636 635 561
f 635 560 561
f 558 574 559
f 558 573 574
f 640 550 549
f 549 639 640
f 548 638 549
f 549 638 639
f 548 547 637
f 548 637 638
f 637 636 561
f 637 561 562
f 543 474 476
f 543 476 558
f 455 392 408
f 272 286 331
f 331 286 345
f 331 345 392
f 392 345 408
f 501 514 515
f 501 500 514
f 499 513 500
f 500 513 514
f 408 345 347
f 408 347 410
f 528 543 544
f 529 528 544
f 455 471 513
f 513 471 528
f 317 258 331
f 188 204 258
f 258 204 272
f 258 272 331
f 543 471 474
f 528 471 543
f 455 408 471
f 474 471 410
f 408 410 471
f 317 331 376
f 376 331 392
f 137 149 150
f 137 150 138
f 149 138 150
f 149 137 138
f 6 137 7
f 137 138 7
f 138 137 194
f 137 193 194
