v -3.048931 0.131090 -0.379080 0.0041 0.0217 0.0561
v -2.841775 0.121964 -0.310521 0.0060 0.0064 0.0103
v -2.799234 0.128632 0.274650 0.0013 0.0407 0.0977
v -2.795089 0.108006 0.304746 0.0015 0.1253 0.2860
v -2.936005 0.019103 0.455742 0.0039 0.0052 0.0052
v -3.048053 0.161143 -0.378036 0.0023 0.1652 0.3713
v -3.043690 0.269252 -0.351672 0.3027 0.0673 0.0567
v -2.836534 0.184296 -0.098155 0.4125 0.0620 0.0058
v -2.785414 0.261198 0.117304 0.0045 0.0354 0.1078
v -2.795089 0.177783 0.270738 0.0022 0.0645 0.1501
v -2.808536 0.174971 0.413183 0.0065 0.0631 0.1433
v -3.052936 0.287726 -0.410206 0.0018 0.2388 0.5218
v -3.042622 0.285832 -0.347955 0.0052 0.0634 0.1522
v -2.791956 0.289911 -0.089183 0.0026 0.0264 0.0687
v -2.785119 0.313021 0.122353 0.0010 0.0902 0.2113
v -2.936104 0.394333 0.279801 0.0552 0.1469 0.2906
v -2.818063 0.360799 0.368165 0.1510 0.2618 0.4638
v -3.046802 0.439310 -0.380009 0.0035 0.1381 0.2841
v -3.171623 0.585847 -0.212863 0.0058 0.0476 0.1118
v -3.375315 0.585699 -0.069977 0.0065 0.0062 0.0073
v -3.357701 0.585669 0.098223 0.0039 0.0045 0.0082
v -3.265488 0.586591 0.287659 0.0052 0.0833 0.1725
v -2.795314 0.464140 0.342131 0.0098 0.1168 0.2246
v -2.869689 0.633842 -0.448072 0.0052 0.1959 0.3940
v -3.398135 0.587103 -0.214845 0.2378 0.2420 0.2662
v -3.394137 0.588331 -0.059466 0.2744 0.2761 0.3047
v -3.394566 0.593840 0.080831 0.3678 0.3067 0.2734
v -3.391530 0.605210 0.126821 0.4201 0.1963 0.0994
v -2.803120 0.635526 0.407931 0.1537 0.0981 0.1595
v -2.806492 0.844109 -0.384074 0.0390 0.2845 0.4991
v -3.334945 0.801636 -0.216370 0.3519 0.4789 0.5227
v -3.329001 0.802269 -0.048723 0.9013 0.5478 0.2242
v -3.328902 0.804163 -0.023520 0.7626 0.4168 0.1407
v -3.283881 0.839369 0.288883 0.6886 0.3559 0.1005
v -3.285511 0.838269 0.289290 0.2496 0.1295 0.1989
v -2.605378 0.121827 -0.428323 0.0015 0.0481 0.1329
v -2.775923 0.109192 -0.328665 0.0021 0.0015 0.0011
v -2.676072 0.134499 0.265784 0.0011 0.0643 0.1377
v -2.645889 0.096645 0.321155 0.0030 0.0907 0.1964
v -2.674105 0.018260 0.455538 0.0039 0.0048 0.0048
v -2.608385 0.166906 -0.440344 0.0003 0.2443 0.5167
v -2.595374 0.179565 -0.373158 0.3141 0.0765 0.0689
v -2.691480 0.284311 -0.072434 0.2607 0.0397 0.0020
v -2.778852 0.261395 0.115306 0.0018 0.1187 0.2691
v -2.645889 0.165711 0.286674 0.0027 0.1026 0.2271
v -2.575434 0.285199 0.384626 0.0045 0.0820 0.1809
v -2.604022 0.290253 -0.414387 0.0017 0.2147 0.4303
v -2.591706 0.304148 -0.355388 0.0070 0.0214 0.0419
v -2.685634 0.286276 -0.071561 0.0013 0.0480 0.1307
v -2.664817 0.287305 0.103129 0.0035 0.0865 0.1989
v -2.548750 0.381473 0.288599 0.0539 0.1047 0.2144
v -2.778726 0.358591 0.368404 0.0483 0.0972 0.1802
v -2.597952 0.442574 -0.380707 0.0025 0.1387 0.2655
v -2.585664 0.574682 -0.321475 0.0060 0.0062 0.0077
v -2.550872 0.448153 0.282099 0.0059 0.0308 0.0635
v -2.666482 0.438158 0.347469 0.0047 0.0345 0.0593
v -2.053234 0.593301 -0.377223 0.0061 0.1379 0.2948
v -2.589078 0.588551 -0.338149 0.0008 0.1505 0.2777
v -2.097771 0.630451 -0.151382 0.0000 0.1744 0.3337
v -2.160989 0.629729 0.110097 0.0000 0.1990 0.3864
v -2.558853 0.593815 0.236223 0.0038 0.0827 0.1591
v -2.571402 0.605782 0.408387 0.0014 0.1711 0.3450
v -2.057253 0.842826 -0.403063 0.1202 0.4679 0.6159
v -2.112975 0.802029 -0.299169 0.7023 0.5413 0.2853
v -2.047410 0.802384 -0.050320 0.8527 0.4839 0.1434
v -2.129612 0.802606 0.101601 0.6477 0.3693 0.1449
v -2.064890 0.802577 0.127925 0.7956 0.4621 0.1438
v -2.653210 0.803169 0.289634 0.2310 0.3200 0.4171
v -1.305162 0.594119 -0.383726 0.0006 0.2184 0.4381
v -1.904281 0.593425 -0.376026 0.0011 0.1790 0.3214
v -1.361116 0.633471 -0.075261 0.0000 0.2412 0.4304
v -1.361116 0.633144 0.038091 0.0000 0.2483 0.4375
v -1.982232 0.630287 0.185951 0.0000 0.2055 0.3931
v -1.385720 0.592510 0.380469 0.1284 0.1962 0.3558
v -1.984171 0.842711 -0.394092 0.0908 0.3848 0.5828
v -1.630506 0.801659 -0.228797 0.6098 0.5261 0.3451
v -1.652068 0.801913 -0.045935 0.8654 0.5125 0.1810
v -1.303497 0.801578 0.098905 0.8176 0.4480 0.1291
v -1.365261 0.801656 0.287093 0.7054 0.3917 0.1182
v -1.361116 0.801706 0.311017 0.3538 0.2685 0.2790
v -0.912097 0.418847 -0.504524 0.1094 0.0143 0.0068
v -0.863759 0.337844 0.453406 0.3168 0.0125 0.0001
v -0.862797 0.372396 0.457742 0.0898 0.0064 0.0044
v -0.905633 0.438468 -0.502653 0.2468 0.0288 0.0053
v -1.139936 0.553363 0.447753 0.4087 0.0063 0.0024
v -0.935949 0.452013 0.455660 0.4267 0.0215 0.0020
v -0.749386 0.608366 -0.478496 0.0040 0.1570 0.3183
v -1.250874 0.595128 -0.374947 0.0013 0.1839 0.3309
v -0.569526 0.638021 -0.051104 0.0000 0.2415 0.4310
v -0.561116 0.637168 0.118692 0.0000 0.2522 0.4423
v -0.583057 0.636896 0.150833 0.0000 0.1976 0.3874
v -1.105939 0.673976 0.437609 0.0951 0.0891 0.1680
v -0.569526 0.841762 -0.385585 0.1007 0.3326 0.4548
v -0.639207 0.800523 -0.216021 0.3845 0.5868 0.5694
v -0.975680 0.801057 -0.121368 0.8282 0.4213 0.1549
v -0.746492 0.800830 -0.031799 0.8248 0.5424 0.2636
v -0.573706 0.800567 0.136908 0.6858 0.4125 0.1885
v -0.595950 0.800308 0.300681 0.3342 0.1269 0.0406
v -0.084099 0.260253 0.440024 0.5000 0.5000 0.5000
v -0.311074 0.415375 -0.498073 0.4180 0.0424 0.0036
v -0.215369 0.336428 0.439865 0.5096 0.0066 0.0006
v -0.188235 0.525628 -0.479501 0.1998 0.0238 0.0058
v -0.019398 0.530660 0.436600 0.3105 0.0099 0.0027
v -0.488195 0.654802 -0.465082 0.2012 0.0597 0.0146
v -0.285936 0.597604 -0.375796 0.0015 0.1562 0.2814
v 0.015878 0.641642 -0.146164 0.0000 0.2454 0.4346
v 0.091455 0.639728 0.110118 0.0000 0.2495 0.4384
v 0.174401 0.638479 0.282447 0.0000 0.2293 0.4184
v 0.026839 0.596303 0.439556 0.1638 0.0846 0.1369
v -0.115434 0.743554 -0.464982 0.2676 0.2941 0.2625
v -0.515652 0.800524 -0.211840 0.5927 0.4266 0.2782
v -0.220421 0.800792 -0.044173 0.5730 0.2477 0.0456
v 0.166111 0.800701 0.017998 0.6011 0.4228 0.2612
v -0.434054 0.800484 0.125689 0.6830 0.2885 0.0905
v 0.122024 0.799742 0.290402 0.3584 0.1274 0.0455
v 0.290004 0.520771 -0.542258 0.7582 0.0837 0.0000
v 0.900279 0.540231 0.432519 0.0076 0.0067 0.0105
v 0.779288 0.728767 -0.497567 0.3829 0.0815 0.0058
v 0.425138 0.639315 -0.375994 0.0018 0.1381 0.2453
v 0.192591 0.642263 -0.158522 0.0000 0.2516 0.4428
v 0.902724 0.640904 0.064107 0.0000 0.2486 0.4372
v 0.921729 0.639475 0.218107 0.0000 0.2181 0.4068
v 0.473251 0.665655 0.437315 0.1175 0.0943 0.1421
v 0.574338 0.859473 -0.465400 0.6151 0.3280 0.1945
v 0.797372 0.854623 -0.371973 0.4361 0.2220 0.0813
v 0.213774 0.801463 -0.161668 0.3554 0.1082 0.0083
v 0.283196 0.800831 0.023747 0.4450 0.1599 0.0466
v 0.578483 0.800660 0.123569 0.2469 0.0879 0.0454
v 0.321529 0.799820 0.290809 0.2766 0.0770 0.0170
v 0.927539 0.546892 -0.532915 0.3716 0.0354 0.0050
v 1.345694 0.557420 0.435430 0.0083 0.0083 0.0224
v 0.926619 0.681656 -0.504016 0.1500 0.0229 0.0102
v 0.983085 0.642476 -0.376076 0.0003 0.1809 0.3239
v 0.972125 0.642499 -0.162046 0.0000 0.2495 0.4405
v 1.183574 0.640063 0.121247 0.0000 0.2537 0.4436
v 1.158709 0.639761 0.164914 0.0000 0.2042 0.3933
v 1.647361 0.720265 0.446731 0.0047 0.0864 0.1710
v 0.926619 0.851654 -0.377223 0.5129 0.1756 0.0271
v 1.009509 0.803197 -0.212769 0.5636 0.2346 0.0299
v 0.943586 0.802765 -0.164136 0.3086 0.0953 0.0098
v 0.968064 0.802030 -0.035310 0.2853 0.0971 0.0288
v 1.386647 0.865740 0.267581 0.2357 0.0772 0.0340
v 1.643026 0.739437 0.447819 0.0269 0.0083 0.0045
v 1.472130 0.888658 -0.403934 0.7488 0.3368 0.0524
v 1.452964 0.888528 -0.356317 0.9608 0.3542 0.0288
v 2.126949 0.000000 -0.503581 0.2867 0.0518 0.0815
v 2.233411 0.134498 -0.349017 0.3116 0.0091 0.0042
v 2.167221 0.127590 0.274231 0.0000 0.0898 0.2214
v 2.181350 0.072490 0.322085 0.0044 0.0682 0.1520
v 1.986293 0.247288 -0.431430 0.1879 0.0521 0.0905
v 2.319147 0.180497 -0.347205 0.2835 0.0211 0.0370
v 2.348164 0.244458 -0.055924 0.3167 0.0217 0.0750
v 2.161664 0.194628 0.024067 0.0000 0.1948 0.4484
v 2.229526 0.244138 0.187678 0.0046 0.0715 0.1611
v 2.199329 0.196742 0.380268 0.0362 0.0650 0.1349
v 1.982056 0.293936 -0.412703 0.0004 0.1533 0.4081
v 2.199835 0.288292 -0.249419 0.0743 0.0581 0.1509
v 2.282367 0.335173 -0.206889 0.2575 0.0366 0.1139
v 2.275636 0.303447 0.076501 0.0000 0.1879 0.4340
v 2.225149 0.373204 0.232054 0.0071 0.0265 0.0551
v 2.107481 0.435010 0.336279 0.0413 0.0848 0.1696
v 1.713502 0.518260 -0.524232 0.0174 0.0764 0.1952
v 1.961084 0.453413 -0.372106 0.0043 0.0536 0.1349
v 2.316920 0.586901 -0.118580 0.0032 0.0455 0.1007
v 2.319140 0.579103 -0.036760 0.0013 0.1089 0.2307
v 2.329510 0.585023 0.147899 0.0056 0.0326 0.0641
v 1.688926 0.585420 0.444869 0.0082 0.0357 0.0736
v 1.708443 0.622368 -0.514954 0.1364 0.0129 0.0081
v 2.325288 0.629835 -0.212555 0.0036 0.0273 0.0470
v 2.330079 0.630895 -0.107780 0.0001 0.2342 0.4211
v 1.729605 0.638637 0.120607 0.0000 0.2033 0.3900
v 1.681858 0.638352 0.199852 0.0010 0.1332 0.2725
v 1.667736 0.616818 0.445379 0.0054 0.0341 0.0697
v 1.708254 0.870124 -0.426967 0.3205 0.1024 0.0254
v 1.708085 0.873626 -0.369789 0.1562 0.0702 0.0259
v 1.701628 0.853831 -0.051569 0.2081 0.1001 0.0468
v 1.668993 0.859874 0.061957 0.2401 0.1351 0.1054
v 1.980349 0.818900 0.137215 0.2590 0.1428 0.1133
v 1.668860 0.753773 0.446787 0.1849 0.1712 0.1709
v 1.976962 0.900000 -0.215557 0.1333 0.1090 0.1048
v 2.036035 0.892586 -0.169463 0.2669 0.2515 0.2491
v 1.972719 0.889057 0.263866 0.5330 0.5326 0.5372
v 1.977812 0.889771 0.294526 0.6211 0.6231 0.6337
v 2.455504 0.131945 -0.466570 0.0647 0.1543 0.3072
v 2.420171 0.036665 0.409721 0.0078 0.0065 0.0078
v 2.433197 0.267309 -0.430663 0.1388 0.0398 0.0797
v 2.410328 0.241830 -0.371496 0.0059 0.0769 0.1564
v 2.463204 0.282621 0.287325 0.0084 0.0062 0.0098
v 2.466106 0.274287 0.302330 0.0177 0.0087 0.0110
v 2.428539 0.293320 -0.427997 0.0007 0.1723 0.4303
v 2.416328 0.391200 -0.372005 0.0040 0.0993 0.2378
v 2.462340 0.304207 0.288544 0.0081 0.0195 0.0333
v 2.463675 0.288006 0.292319 0.0728 0.2701 0.5153
v 2.409892 0.443310 -0.339593 0.0032 0.1031 0.2491
v 2.513937 0.564193 -0.173863 0.0016 0.1135 0.2771
v 2.414276 0.563939 -0.014869 0.0010 0.1519 0.3522
v 2.566807 0.570682 0.153533 0.0037 0.2197 0.4396
v 2.412400 0.548786 0.312408 0.0093 0.1883 0.3794
v 2.462263 0.736256 -0.446789 0.0755 0.0165 0.0132
v 2.601865 0.722003 -0.214046 0.0169 0.0899 0.2068
v 2.546910 0.595525 -0.086874 0.3300 0.2567 0.3844
v 2.558151 0.587420 0.048310 0.4807 0.3640 0.3792
v 2.562661 0.587235 0.125485 0.1133 0.0977 0.1089
v 2.414220 0.702537 0.404998 0.0039 0.0825 0.1822
v 2.559268 0.800487 -0.449062 0.1841 0.0216 0.0120
v 2.598163 0.746266 -0.215324 0.1447 0.0785 0.0570
v 2.449855 0.801378 -0.047852 0.2300 0.1338 0.1215
v 2.458096 0.803913 0.008186 0.4066 0.2989 0.2738
v 2.453853 0.802267 0.128604 0.1968 0.1688 0.1515
v 2.410307 0.799737 0.416699 0.1427 0.1433 0.1502
v 2.536603 0.889821 -0.211840 0.3264 0.3303 0.3496
v 2.433900 0.889166 -0.169515 0.1349 0.1357 0.1407
f 126 112 127
f 127 112 113
f 94 95 111
f 111 95 112
f 113 114 127
f 127 114 128
f 112 95 96
f 112 96 113
f 113 96 97
f 114 113 97
f 129 128 114
f 129 114 115
f 126 127 140
f 140 127 141
f 124 104 110
f 118 104 124
f 104 84 102
f 87 84 104
f 100 81 84
f 100 84 102
f 84 81 102
f 81 100 102
f 115 97 98
f 114 97 115
f 98 79 80
f 79 98 97
f 96 78 79
f 96 79 97
f 117 123 137
f 131 117 137
f 123 117 131
f 123 131 137
f 123 129 137
f 137 129 143
f 167 131 137
f 167 137 173
f 137 131 173
f 131 167 173
f 103 82 85
f 101 82 103
f 85 82 101
f 103 85 101
f 92 85 109
f 85 103 109
f 85 92 103
f 109 103 92
f 86 83 82
f 86 82 85
f 82 83 85
f 85 83 86
f 135 171 136
f 90 107 108
f 108 107 121
f 108 121 122
f 108 122 109
f 136 171 172
f 91 90 108
f 123 136 137
f 122 121 135
f 122 135 136
f 109 122 123
f 136 172 137
f 123 122 136
f 137 172 173
f 34 35 68
f 67 34 68
f 66 33 34
f 66 34 67
f 95 77 96
f 96 77 78
f 67 68 80
f 67 80 79
f 77 65 78
f 78 65 66
f 78 67 79
f 78 66 67
f 65 32 33
f 65 33 66
f 126 111 112
f 125 111 126
f 112 125 126
f 112 111 125
f 140 125 126
f 140 139 125
f 124 111 125
f 110 111 124
f 115 92 98
f 92 115 109
f 125 139 126
f 126 139 140
f 125 124 138
f 125 138 139
f 127 141 128
f 142 128 141
f 129 128 143
f 143 128 142
f 127 126 141
f 126 140 141
f 141 176 177
f 141 140 176
f 27 26 20
f 20 21 27
f 91 109 92
f 109 91 108
f 28 27 22
f 27 21 22
f 130 132 168
f 132 130 162
f 162 130 168
f 132 162 168
f 174 132 168
f 138 132 174
f 145 144 139
f 138 144 139
f 140 139 175
f 140 175 176
f 139 140 176
f 175 139 176
f 174 138 139
f 174 139 175
f 116 118 130
f 130 118 132
f 118 138 132
f 118 124 138
f 118 132 124
f 124 132 138
f 141 127 142
f 142 127 128
f 115 123 129
f 115 109 123
f 129 109 115
f 109 129 123
f 156 157 162
f 162 157 163
f 169 163 164
f 163 194 164
f 164 194 195
f 165 166 172
f 171 165 172
f 191 194 163
f 157 191 163
f 156 190 162
f 156 162 163
f 191 156 163
f 190 156 191
f 186 150 190
f 150 156 190
f 184 150 186
f 146 150 184
f 169 164 170
f 171 170 164
f 164 195 165
f 165 195 196
f 171 164 165
f 178 177 209
f 177 208 209
f 208 176 177
f 207 176 208
f 177 176 207
f 177 207 208
f 28 22 29
f 29 62 68
f 35 29 68
f 68 62 74
f 137 173 179
f 143 137 179
f 173 204 210
f 179 173 210
f 68 74 80
f 109 98 115
f 98 92 109
f 74 92 80
f 80 92 98
f 167 198 173
f 173 198 204
f 196 202 203
f 198 197 204
f 197 203 204
f 197 196 203
f 195 201 202
f 196 195 202
f 205 168 174
f 199 168 205
f 124 125 139
f 138 124 139
f 149 148 154
f 185 149 189
f 189 149 155
f 155 149 154
f 148 149 155
f 148 155 154
f 189 188 192
f 189 192 193
f 166 167 173
f 172 166 173
f 155 154 189
f 189 154 188
f 154 160 192
f 188 154 192
f 159 153 154
f 159 154 160
f 158 151 152
f 157 151 158
f 151 152 157
f 150 157 156
f 150 151 157
f 146 186 150
f 146 184 186
f 150 146 147
f 150 147 151
f 147 146 151
f 146 150 151
f 166 165 197
f 165 196 197
f 157 151 187
f 157 187 191
f 186 190 187
f 187 190 191
f 151 186 187
f 151 150 186
f 198 161 193
f 167 161 198
f 192 197 193
f 198 193 197
f 193 161 155
f 189 193 155
f 154 155 161
f 160 154 161
f 160 161 155
f 167 166 160
f 167 160 161
f 192 160 166
f 192 166 197
f 178 179 182
f 182 179 183
f 178 182 209
f 178 209 179
f 179 209 210
f 208 177 178
f 208 178 209
f 210 182 183
f 209 182 210
f 183 179 210
f 204 203 210
f 203 209 210
f 210 178 179
f 209 178 210
f 180 175 176
f 180 176 181
f 142 143 179
f 178 142 179
f 178 141 142
f 176 175 206
f 176 206 207
f 181 176 212
f 176 207 212
f 206 180 211
f 175 180 206
f 211 180 181
f 211 181 212
f 207 206 211
f 207 211 212
f 175 176 207
f 175 207 206
f 202 201 207
f 202 207 208
f 201 206 207
f 201 200 206
f 202 208 209
f 203 202 209
f 177 141 178
f 35 28 29
f 34 28 35
f 110 93 111
f 93 94 111
f 76 77 95
f 94 76 95
f 64 65 76
f 76 65 77
f 31 32 64
f 64 32 65
f 33 27 28
f 33 28 34
f 26 25 20
f 22 21 28
f 21 27 28
f 19 20 25
f 19 26 20
f 19 25 26
f 25 19 58
f 19 54 58
f 1 2 7
f 6 1 2
f 6 2 7
f 36 6 41
f 12 6 7
f 12 7 13
f 41 6 12
f 41 12 47
f 1 6 36
f 12 13 19
f 18 12 19
f 18 54 53
f 18 19 54
f 12 18 47
f 47 18 53
f 19 13 48
f 41 47 42
f 42 47 48
f 47 53 54
f 47 54 48
f 2 1 37
f 1 36 37
f 37 2 42
f 42 2 7
f 37 36 42
f 42 36 41
f 19 48 54
f 80 74 98
f 74 92 98
f 114 115 128
f 128 115 129
f 113 112 126
f 113 126 127
f 97 114 98
f 98 114 115
f 120 119 133
f 134 120 133
f 134 133 170
f 135 134 170
f 135 170 171
f 121 120 135
f 135 120 134
f 162 163 169
f 168 162 169
f 106 105 120
f 105 119 120
f 107 106 121
f 121 106 120
f 195 194 201
f 201 194 200
f 25 58 59
f 26 25 59
f 133 132 169
f 132 168 169
f 133 169 170
f 169 199 200
f 168 199 169
f 194 163 200
f 163 169 200
f 119 118 132
f 119 132 133
f 90 89 107
f 89 106 107
f 72 71 90
f 71 89 90
f 71 70 88
f 59 58 71
f 71 58 70
f 88 104 105
f 88 87 104
f 105 104 118
f 105 118 119
f 70 87 88
f 69 87 70
f 71 88 89
f 57 69 58
f 58 69 70
f 89 88 105
f 89 105 106
f 174 175 205
f 205 175 206
f 200 199 205
f 200 205 206
f 28 27 60
f 27 26 60
f 26 59 60
f 60 59 72
f 72 59 71
f 23 56 62
f 29 23 62
f 73 72 90
f 73 90 91
f 62 61 73
f 55 61 56
f 56 61 62
f 62 73 74
f 61 60 73
f 60 72 73
f 22 23 29
f 61 22 28
f 55 22 61
f 28 60 61
f 13 7 42
f 13 42 48
f 7 8 42
f 42 8 43
f 73 91 92
f 74 73 92
f 16 17 22
f 22 17 23
f 16 17 23
f 51 16 22
f 55 51 22
f 46 11 52
f 52 11 17
f 52 17 51
f 51 17 16
f 52 51 55
f 52 55 56
f 10 9 44
f 44 45 10
f 11 45 46
f 10 45 11
f 46 39 45
f 39 38 45
f 11 4 46
f 4 39 46
f 8 44 9
f 8 43 44
f 39 4 11
f 39 11 46
f 14 8 43
f 5 4 40
f 4 39 40
f 17 52 23
f 56 23 52
f 49 8 14
f 43 8 49
f 14 43 49
f 11 46 10
f 45 10 46
f 10 38 3
f 10 45 38
f 10 3 4
f 11 10 4
f 39 3 38
f 4 3 39
f 15 10 16
f 16 10 51
f 51 10 45
f 9 10 15
f 50 15 51
f 15 16 51
f 9 44 45
f 9 15 50
f 44 9 50
f 9 45 10
f 45 44 51
f 51 44 50
f 63 64 76
f 63 30 31
f 63 31 64
f 93 87 110
f 110 87 104
f 104 93 110
f 87 93 104
f 87 75 93
f 69 75 87
f 25 24 57
f 25 57 58
f 75 76 94
f 93 75 94
f 75 63 76
f 110 118 124
f 110 104 118
f 24 25 31
f 30 24 31
f 24 30 57
f 75 57 63
f 69 57 75
f 57 30 63
f 32 25 26
f 31 25 32
f 26 27 33
f 32 26 33
