mtllib P-26_tex.mtl
v 0.791865 2.614631 1.138905
v 0.672084 2.535975 1.260247
v 0.957369 2.856597 0.907661
v 1.042416 3.120792 -0.971511
v 0.569108 3.552254 -0.895332
v 1.019560 3.246070 -1.049300
v 0.535624 3.567344 0.666707
v 0.060627 3.566611 0.958517
v 0.060627 3.525873 0.552915
v -0.015418 3.525946 0.511747
v -0.689894 3.488232 0.480810
v -0.554415 3.564608 0.361093
v 0.137202 1.645430 1.519058
v 0.196990 1.901896 1.508110
v 0.527621 2.125302 1.370423
v -0.908010 3.208547 -0.858105
v -1.141482 2.814604 -0.273192
v -0.992777 3.155889 -0.855009
v 0.561950 0.943529 1.348886
v 1.174007 0.829995 0.324851
v 0.974225 0.740889 0.880044
v 1.066932 0.775886 -0.725246
v 1.142663 0.975690 -0.284970
v 1.164120 1.286150 0.317836
v 1.018344 0.739500 -1.079267
v 1.007447 0.694229 -1.088794
v 1.066932 0.775886 -0.725246
v 0.004116 0.643904 2.267198
v 0.062145 0.616064 2.164797
v -0.029597 0.747624 2.267339
v -0.029597 0.747624 2.267339
v 0.062145 0.616064 2.164797
v 0.059634 0.702231 2.266544
v -0.785067 0.737558 1.150492
v -0.479358 0.591740 1.375151
v -0.238683 0.526210 1.376058
v -0.354816 0.644123 -1.388955
v -0.604311 0.561061 -1.110035
v 0.048731 0.738092 -1.430474
v 0.809515 0.333947 -0.993513
v 0.359046 0.626354 -1.337599
v 0.168969 0.736906 -1.423185
v -0.911972 0.783550 -1.186059
v -1.180400 0.643420 -0.868786
v -0.969510 0.472918 -0.733921
v -1.180400 0.643420 -0.868786
v -0.911972 0.783550 -1.186059
v -1.168755 0.738805 -0.282050
v -0.969510 0.472918 -0.733921
v -0.604311 0.561061 -1.110035
v -1.180400 0.643420 -0.868786
v -1.169749 0.626998 -0.210868
v -0.976235 0.212238 0.320411
v -0.957101 0.189975 0.545569
v -0.196134 0.939534 1.905796
v -0.029597 0.747624 2.267339
v 0.046745 1.233990 1.528640
v 0.046745 1.233990 1.528640
v -0.029597 0.747624 2.267339
v -0.180134 0.998836 2.105906
v 0.891713 0.134154 0.500369
v 1.102066 0.122311 0.561596
v 1.012402 0.090077 0.924413
v 1.021820 0.090365 0.919530
v 0.891713 0.134154 0.500369
v 1.021820 0.090365 0.919530
v 1.102066 0.122311 0.561596
v 1.012402 0.090077 0.924413
v 0.067665 3.865669 -0.810816
v 0.071433 3.563933 -1.165190
v 0.061694 4.000000 -0.621471
v 0.061694 4.000000 -0.621471
v 0.071433 3.563933 -1.165190
v 0.254118 3.887122 -0.863438
v -0.554335 3.546440 -0.916405
v -0.977941 3.143619 -0.876786
v -0.659983 3.148559 -1.212767
v -0.015418 3.525946 0.511747
v -0.214497 3.292822 1.509777
v 0.024277 3.566857 0.960339
v -0.689894 3.488232 0.480810
v 0.957780 1.805244 0.907752
v 1.125527 1.946245 0.493777
v 0.990751 2.034043 0.847123
v 1.132503 2.567472 0.465521
v 0.957375 2.515312 0.907668
v 0.957369 2.856597 0.907661
v 1.023795 2.905924 0.780014
v 0.953995 3.171889 0.911130
v 1.023025 3.229045 0.777784
v 1.182683 2.316341 0.122750
v 1.178813 3.205216 -0.204760
v 1.182952 2.599967 0.096478
v 1.148080 1.950149 -0.263334
v 1.037472 2.563304 -0.619868
v 1.121143 2.034043 -0.374496
v 1.113277 3.092565 -0.530926
v 1.018110 2.832415 -0.662470
v 1.111999 1.639850 -0.411969
v 1.177906 1.937726 0.210284
v 1.168053 1.587522 0.292302
v 1.111571 1.296147 -0.413982
v 1.164120 1.286150 0.317836
v 1.142663 0.975690 -0.284970
v 1.041993 3.256040 -0.612684
v 1.042416 3.120792 -0.971511
v 1.019560 3.246070 -1.049300
v 0.973478 1.543195 -0.752496
v 0.929085 1.807409 -0.827935
v 0.952991 2.234519 -0.785353
v 0.906138 1.162833 -0.863186
v 0.930934 0.969776 -0.825592
v 1.007447 0.694229 -1.088794
v 0.906098 2.543309 -0.860673
v 0.906035 2.648626 -0.860582
v 0.997840 3.060070 -0.702519
v 1.161843 1.938059 0.328200
v 0.790672 1.274483 -1.010476
v 0.879355 1.586105 -0.901194
v 0.897216 1.925395 -0.875998
v 1.066932 0.775886 -0.725246
v 0.688781 2.034043 -1.110844
v 0.724674 2.759278 -1.076825
v 0.706339 3.156403 -1.287756
v 0.767137 2.914590 1.167196
v 0.791865 2.614631 1.138905
v 1.164075 3.261152 0.307156
v 1.021541 3.268540 0.781886
v -0.822827 3.584469 -0.660697
v -0.381502 3.883906 -0.485881
v 0.053686 3.560502 -1.170973
v -0.583636 3.564236 -0.883688
v -0.422704 3.507175 -1.023162
v -0.554335 3.546440 -0.916405
v -0.451297 1.420796 -1.279327
v -0.906960 0.996522 -0.859689
v -0.903701 1.618101 -0.862939
v -0.894476 1.636768 -0.876160
v -0.425159 1.626767 -1.292548
v -0.870667 1.946058 -0.909665
v -0.307667 1.946058 -1.340512
v -0.899357 2.563304 -0.865669
v -0.904654 1.946058 -0.861736
v -0.416134 1.594272 -1.296819
v 0.036333 2.581200 -1.394337
v -0.907691 1.635433 -0.856860
v -0.904214 2.515312 -0.858802
v -0.903278 2.895927 -0.860723
v -0.632549 2.896676 -1.156275
v -0.659983 3.148559 -1.212767
v -0.908010 3.208547 -0.858105
v 0.052270 2.642210 -1.393577
v 0.048731 3.225046 -1.393366
v -1.140260 1.923725 -0.284470
v -1.140077 2.034043 -0.279616
v -1.141482 2.814604 -0.273192
v -1.141516 2.349169 -0.271313
v -0.554335 3.546440 -0.916405
v -0.422704 3.507175 -1.023162
v -0.941888 3.240336 -0.930336
v 0.057208 3.547768 -1.149506
v 0.706339 3.156403 -1.287756
v 0.569108 3.552254 -0.895332
v 1.042416 3.120792 -0.971511
v 0.528169 2.330253 -1.235001
v 0.527358 2.263160 -1.235549
v 0.509383 2.648711 -1.246350
v 0.530133 3.207216 -1.232869
v 0.529893 1.649598 -1.235479
v 0.530190 1.415089 -1.235001
v 0.530966 1.181831 -1.234572
v -0.412287 1.282151 -1.298951
v 0.048731 0.738092 -1.430474
v -0.901754 0.788551 -1.195290
v 0.168969 0.736906 -1.423185
v 0.543655 2.284261 -1.224996
v 0.688781 2.034043 -1.110844
v 0.724674 2.759278 -1.076825
v 0.359046 0.626354 -1.337599
v -0.354816 0.644123 -1.388955
v 0.790672 1.274483 -1.010476
v 1.007447 0.694229 -1.088794
v 0.879355 1.586105 -0.901194
v 0.906098 2.543309 -0.860673
v 0.897216 1.925395 -0.875998
v 0.857082 0.332872 0.275922
v 0.790570 0.328804 0.501530
v 1.059477 0.576197 0.715916
v 1.199682 0.645777 -0.244443
v 0.062608 0.341945 -0.095992
v 0.071433 3.563933 -1.165190
v -0.381502 3.883906 -0.485881
v 0.254118 3.887122 -0.863438
v 0.061694 4.000000 -0.621471
v -0.002055 0.520917 1.515194
v -0.095778 0.216299 2.081695
v 0.004116 0.643904 2.267198
v -0.124838 0.113215 2.106391
v -1.043072 3.244876 -0.782497
v -0.992777 3.155889 -0.855009
v -1.234189 3.237880 -0.007288
v -1.179744 3.130571 0.048619
v -0.955988 2.926061 0.906324
v -1.203456 3.237296 0.409571
v -0.659983 3.148559 -1.212767
v 0.827250 3.560371 -0.659044
v 0.056614 3.525953 -0.655617
v 0.067665 3.865669 -0.810816
v 0.982862 3.390767 -0.565719
v -0.368499 3.488892 -0.831847
v 0.569108 3.552254 -0.895332
v 0.056614 3.525953 -0.655617
v 0.982862 3.390767 -0.565719
v 0.706339 3.156403 -1.287756
v 0.062145 0.616064 2.164797
v 0.165983 0.966192 1.514716
v 0.059634 0.702231 2.266544
v 0.085052 0.542720 1.510544
v 0.113171 1.239490 1.522716
v 0.057653 1.007341 2.113469
v -0.196134 0.939534 1.905796
v -0.002055 0.520917 1.515194
v -0.029597 0.747624 2.267339
v 0.004116 0.643904 2.267198
v 0.067665 3.865669 -0.810816
v -0.368499 3.488892 -0.831847
v -0.381502 3.883906 -0.485881
v -0.899830 0.000476 -0.611397
v -0.808431 0.000081 -1.103992
v -0.731330 0.504987 -0.841198
v -0.604311 0.561061 -1.110035
v 1.020171 0.119644 -0.822082
v 1.132691 0.644906 -0.519155
v 0.669373 0.379609 -0.849459
v 1.066932 0.775886 -0.725246
v 0.930934 0.969776 -0.825592
v 0.688296 0.232556 -0.860892
v 1.053786 0.102312 -0.864769
v -0.785067 0.737558 1.150492
v -0.238683 0.526210 1.376058
v -0.382267 0.963655 1.446200
v -0.732003 1.271485 1.202298
v -0.188599 1.225033 1.510129
v -0.732157 1.580775 1.202460
v -0.192098 1.333455 1.509017
v -0.418075 1.936060 1.429377
v -0.747181 1.758335 1.186932
v 0.032194 1.573141 1.529443
v 0.044764 1.902521 1.528528
v 0.046745 1.233990 1.528640
v -0.196134 0.939534 1.905796
v -0.002055 0.520917 1.515194
v -0.496306 2.914590 1.387119
v -0.430205 2.771778 1.423404
v -0.363710 2.638794 1.453187
v -0.181538 2.219851 1.510544
v 0.176623 2.247348 1.511909
v 0.055666 2.445322 1.527691
v -0.176823 2.276428 1.511402
v -0.182765 2.729136 1.510488
v 0.071033 2.629337 1.526495
v -0.122789 2.916590 1.521183
v 0.172656 2.919257 1.513098
v -0.025630 3.294180 1.542206
v 0.054707 3.293405 1.536704
v 0.306993 3.298805 1.505464
v -0.214497 3.292822 1.509777
v -0.426169 1.950498 1.434014
v -0.291518 2.914755 1.480986
v -0.364703 2.567303 1.452793
v -0.589955 3.289870 1.324971
v -0.494154 2.562970 1.387739
v -0.576757 2.032619 1.333716
v 0.429360 2.555264 1.425585
v 0.535087 2.729719 1.365392
v 0.527621 2.125302 1.370423
v 0.522889 2.916256 1.373983
v 0.137202 1.645430 1.519058
v 0.791865 2.614631 1.138905
v 0.767137 2.914590 1.167196
v 0.719297 3.239046 1.215681
v 0.672084 2.535975 1.260247
v -0.480545 0.654895 1.692986
v -0.002055 0.520917 1.515194
v -0.196134 0.939534 1.905796
v -0.002055 0.520917 1.515194
v -0.469711 0.619610 1.744567
v -0.196134 0.939534 1.905796
v -0.903701 1.618101 -0.862939
v -0.451297 1.420796 -1.279327
v -1.140700 1.550529 -0.280784
v -0.381502 3.883906 -0.485881
v 0.071433 3.563933 -1.165190
v 0.067665 3.865669 -0.810816
v 0.061694 4.000000 -0.621471
v -0.029597 0.747624 2.267339
v -0.196134 0.939534 1.905796
v 0.165983 0.966192 1.514716
v 0.059634 0.702231 2.266544
v 0.113171 1.239490 1.522716
v 0.046745 1.233990 1.528640
v -0.922629 0.000000 -1.197978
v -0.998040 0.000349 -0.746656
v -0.969510 0.472918 -0.733921
v -0.899830 0.000476 -0.611397
v -1.180400 0.643420 -0.868786
v -0.412287 1.282151 -1.298951
v -0.899505 1.025685 -0.870763
v -0.416134 1.594272 -1.296819
v -0.901754 0.788551 -1.195290
v -0.906446 0.860875 -0.861617
v -1.168755 0.738805 -0.282050
v -0.911972 0.783550 -1.186059
v -0.906960 0.996522 -0.859689
v -1.181582 1.818074 0.087310
v -0.951461 1.927394 0.915569
v -0.953025 1.950164 0.914471
v -0.990562 1.341330 0.842726
v -1.157276 1.475289 0.323169
v -1.160438 1.288483 0.304327
v -0.993690 1.285647 0.836632
v -1.003457 0.930865 0.816200
v -1.176336 0.841378 -0.034891
v -1.169749 0.626998 -0.210868
v -1.116223 0.530850 0.340196
v -0.996584 0.644215 0.934298
v -1.143177 1.153834 -0.270089
v -1.140700 1.550529 -0.280784
v -1.140260 1.923725 -0.284470
v -1.142167 2.034043 -0.269526
v -1.171906 2.570596 0.221085
v -0.981480 2.565971 0.859844
v -0.957209 2.865236 0.904319
v -0.946015 0.802881 0.921852
v -0.944503 1.001522 0.924103
v -0.949104 1.348975 0.917384
v -0.909991 1.950786 0.991628
v -0.926077 2.885926 0.955583
v -0.947511 2.563972 0.920030
v -0.955988 2.926061 0.906324
v -0.914706 3.040198 0.972927
v -1.179744 3.130571 0.048619
v -1.144273 2.821270 -0.258698
v -1.141516 2.349169 -0.271313
v -1.140077 2.034043 -0.279616
v -1.203456 3.237296 0.409571
v -0.930974 3.294012 0.966650
v -0.913473 1.898062 0.976233
v -1.141482 2.814604 -0.273192
v -0.785067 0.737558 1.150492
v -0.747181 1.758335 1.186932
v -0.732157 1.580775 1.202460
v -0.732003 1.271485 1.202298
v -0.992777 3.155889 -0.855009
v -0.969510 0.472918 -0.733921
v -0.907691 1.635433 -0.856860
v -0.903701 1.618101 -0.862939
v -0.576757 2.032619 1.333716
v -0.494154 2.562970 1.387739
v -0.496306 2.914590 1.387119
v -0.589955 3.289870 1.324971
v -0.430205 2.771778 1.423404
v -0.479358 0.591740 1.375151
v -0.144600 3.578194 0.842536
v -0.015418 3.525946 0.511747
v -0.554415 3.564608 0.361093
v -0.689894 3.488232 0.480810
v 1.132691 0.644906 -0.519155
v 0.809515 0.333947 -0.993513
v 1.089377 0.640312 -0.996855
v 1.007447 0.694229 -1.088794
v 0.168969 0.736906 -1.423185
v 1.066932 0.775886 -0.725246
v 1.018344 0.739500 -1.079267
v 1.179886 0.827393 0.193989
v 1.164120 1.286150 0.317836
v 1.174007 0.829995 0.324851
v 1.199682 0.645777 -0.244443
v 1.059477 0.576197 0.715916
v 0.790570 0.328804 0.501530
v 0.857082 0.332872 0.275922
v -1.116223 0.530850 0.340196
v -0.976235 0.212238 0.320411
v -1.169749 0.626998 -0.210868
v -0.957101 0.189975 0.545569
v 0.046745 1.233990 1.528640
v -0.180134 0.998836 2.105906
v 0.057653 1.007341 2.113469
v 0.113171 1.239490 1.522716
v 0.059634 0.702231 2.266544
v -0.029597 0.747624 2.267339
v -1.168755 0.738805 -0.282050
v -0.969510 0.472918 -0.733921
v -1.180400 0.643420 -0.868786
v -0.796072 3.519897 -0.673622
v -0.427984 3.525731 0.218432
v -0.576369 3.564646 0.281313
v -0.822827 3.584469 -0.660697
v 1.102066 0.122311 0.561596
v 0.790570 0.328804 0.501530
v 0.891713 0.134154 0.500369
v 1.059477 0.576197 0.715916
v -0.969510 0.472918 -0.733921
v -0.899830 0.000476 -0.611397
v -0.731330 0.504987 -0.841198
v -0.247468 0.322457 -0.225854
v 0.105271 0.302323 0.161180
v -0.188582 0.344935 0.179593
v 0.062608 0.341945 -0.095992
v -0.852178 0.324091 0.563602
v -1.169749 0.626998 -0.210868
v -0.840922 0.336227 0.290712
v -1.116223 0.530850 0.340196
v -0.731330 0.504987 -0.841198
v -0.479358 0.591740 1.375151
v -0.996584 0.644215 0.934298
v -0.866934 0.255755 0.456472
v -0.604311 0.561061 -1.110035
v -0.969510 0.472918 -0.733921
v -0.354816 0.644123 -1.388955
v -0.416619 0.433554 -0.808108
v 0.055666 0.366008 -0.469263
v 0.359046 0.626354 -1.337599
v 0.669373 0.379609 -0.849459
v 0.809515 0.333947 -0.993513
v 0.237102 0.351332 0.534585
v -0.188582 0.344935 0.179593
v 0.062608 0.341945 -0.095992
v 0.857082 0.332872 0.275922
v -0.095059 0.364945 0.854757
v 0.790570 0.328804 0.501530
v 0.105271 0.302323 0.161180
v 0.394426 0.318342 -0.418619
v 1.199682 0.645777 -0.244443
v 1.132691 0.644906 -0.519155
v -0.998040 0.000349 -0.746656
v -0.922629 0.000000 -1.197978
v -0.899830 0.000476 -0.611397
v -0.808431 0.000081 -1.103992
v -0.247468 0.322457 -0.225854
v -0.188582 0.344935 0.179593
v 0.062608 0.341945 -0.095992
v 0.105271 0.302323 0.161180
v 0.997840 3.060070 -0.702519
v 0.706339 3.156403 -1.287756
v 1.042416 3.120792 -0.971511
v 1.113277 3.092565 -0.530926
v 1.102066 0.122311 0.561596
v 0.891713 0.134154 0.500369
v 1.059477 0.576197 0.715916
v 0.790570 0.328804 0.501530
v -1.169749 0.626998 -0.210868
v -0.957101 0.189975 0.545569
v -0.866934 0.255755 0.456472
v -0.416134 1.594272 -1.296819
v -0.899505 1.025685 -0.870763
v -0.451297 1.420796 -1.279327
v -0.906960 0.996522 -0.859689
v 0.563286 3.525182 -0.159540
v 0.660514 3.565905 -0.269737
v 0.578624 3.472727 0.632344
v 0.569108 3.552254 -0.895332
v 0.982862 3.390767 -0.565719
v 1.041993 3.256040 -0.612684
v 1.019560 3.246070 -1.049300
v 1.073600 0.052985 0.311313
v 0.873202 0.251637 0.318356
v 1.102066 0.122311 0.561596
v -0.144600 3.578194 0.842536
v -0.015418 3.525946 0.511747
v 0.024277 3.566857 0.960339
v -0.689894 3.488232 0.480810
v 1.053786 0.102312 -0.864769
v 0.809515 0.333947 -0.993513
v 0.669373 0.379609 -0.849459
v 0.563286 3.525182 -0.159540
v 0.982862 3.390767 -0.565719
v 0.660514 3.565905 -0.269737
v 1.041993 3.256040 -0.612684
v 0.004116 0.643904 2.267198
v 0.085052 0.542720 1.510544
v 0.062145 0.616064 2.164797
v -0.002055 0.520917 1.515194
v -0.058697 0.322541 0.762867
v -0.095059 0.364945 0.854757
v -0.247468 0.322457 -0.225854
v 0.062145 0.616064 2.164797
v -0.002055 0.520917 1.515194
v 0.004116 0.643904 2.267198
v 0.085052 0.542720 1.510544
v 0.688296 0.232556 -0.860892
v 0.803533 0.223963 -0.982860
v 1.053786 0.102312 -0.864769
v 1.020171 0.119644 -0.822082
v 0.873202 0.251637 0.318356
v 0.891713 0.134154 0.500369
v 1.102066 0.122311 0.561596
v -0.058697 0.322541 0.762867
v -0.188582 0.344935 0.179593
v -0.095059 0.364945 0.854757
v -0.247468 0.322457 -0.225854
v 0.891713 0.134154 0.500369
v 0.873202 0.251637 0.318356
v 0.790570 0.328804 0.501530
v 0.857082 0.332872 0.275922
v -0.977941 3.143619 -0.876786
v -0.554335 3.546440 -0.916405
v -0.941888 3.240336 -0.930336
v 1.132691 0.644906 -0.519155
v 0.930934 0.969776 -0.825592
v 1.066932 0.775886 -0.725246
v -0.480545 0.654895 1.692986
v -0.469711 0.619610 1.744567
v -0.002055 0.520917 1.515194
v 1.053786 0.102312 -0.864769
v 0.803533 0.223963 -0.982860
v 0.809515 0.333947 -0.993513
v -1.043072 3.244876 -0.782497
v -0.796072 3.519897 -0.673622
v -0.822827 3.584469 -0.660697
v -0.910939 3.579679 -0.670357
v -0.941888 3.240336 -0.930336
v -0.554335 3.546440 -0.916405
v -0.977941 3.143619 -0.876786
v -0.992777 3.155889 -0.855009
v 0.137202 1.645430 1.519058
v 0.192720 1.397964 1.509080
v 0.196990 1.901896 1.508110
v 0.105242 1.508827 1.523539
v 0.113171 1.239490 1.522716
v 0.191773 1.023517 1.509629
v 0.165983 0.966192 1.514716
v 0.192532 0.866178 1.509756
v 0.044764 1.902521 1.528528
v 0.176623 2.247348 1.511909
v 0.046745 1.233990 1.528640
v 0.032194 1.573141 1.529443
v 0.085052 0.542720 1.510544
v 0.337235 0.626476 1.487782
v 0.545094 0.644905 1.428905
v 0.536554 1.648808 1.365575
v 0.539979 1.333808 1.363450
v 0.541412 1.249821 1.362416
v 0.561950 0.943529 1.348886
v 0.792293 2.034043 1.139383
v 0.527621 2.125302 1.370423
v 1.174007 0.829995 0.324851
v 1.059477 0.576197 0.715916
v 0.672084 2.535975 1.260247
v 0.957375 2.515312 0.907668
v 0.957369 2.856597 0.907661
v 0.990751 2.034043 0.847123
v 0.957780 1.805244 0.907752
v 1.014565 1.311479 0.800798
v 0.962832 0.976650 0.900111
v 0.974225 0.740889 0.880044
v 1.021016 1.305999 0.787303
v 1.021546 1.080178 0.786790
v 0.429360 2.555264 1.425585
v 1.161843 1.938059 0.328200
v 1.164120 1.286150 0.317836
v 1.168053 1.587522 0.292302
v 1.177906 1.937726 0.210284
v -0.469711 0.619610 1.744567
v -0.480545 0.654895 1.692986
v -0.196134 0.939534 1.905796
v 0.809515 0.333947 -0.993513
v 0.803533 0.223963 -0.982860
v 0.669373 0.379609 -0.849459
v 0.688296 0.232556 -0.860892
v -0.899505 1.025685 -0.870763
v -1.143177 1.153834 -0.270089
v -0.906960 0.996522 -0.859689
v -0.554335 3.546440 -0.916405
v -0.422704 3.507175 -1.023162
v -0.796072 3.519897 -0.673622
v -0.583636 3.564236 -0.883688
v -0.822827 3.584469 -0.660697
v -0.422704 3.507175 -1.023162
v 0.053686 3.560502 -1.170973
v 0.057208 3.547768 -1.149506
v 0.071433 3.563933 -1.165190
v 1.177906 1.937726 0.210284
v 1.148080 1.950149 -0.263334
v 1.161843 1.938059 0.328200
v 1.125527 1.946245 0.493777
v -0.247468 0.322457 -0.225854
v -0.095059 0.364945 0.854757
v -0.188582 0.344935 0.179593
v -0.976235 0.212238 0.320411
v -0.840922 0.336227 0.290712
v -0.865827 0.265592 0.312059
v -1.169749 0.626998 -0.210868
v -0.866934 0.255755 0.456472
v -0.957101 0.189975 0.545569
v -0.852178 0.324091 0.563602
v -0.002055 0.520917 1.515194
v 0.337235 0.626476 1.487782
v 0.085052 0.542720 1.510544
v -0.238683 0.526210 1.376058
v -0.095059 0.364945 0.854757
v -0.852178 0.324091 0.563602
v -0.058697 0.322541 0.762867
v -0.479358 0.591740 1.375151
v -0.866934 0.255755 0.456472
v 0.237102 0.351332 0.534585
v 0.545094 0.644905 1.428905
v 0.790570 0.328804 0.501530
v -0.124838 0.113215 2.106391
v -0.002055 0.520917 1.515194
v 0.004116 0.643904 2.267198
v -0.196134 0.939534 1.905796
v -0.029597 0.747624 2.267339
v 1.132691 0.644906 -0.519155
v 0.669373 0.379609 -0.849459
v 0.930934 0.969776 -0.825592
v 1.053786 0.102312 -0.864769
v 0.048731 0.738092 -1.430474
v -0.604311 0.561061 -1.110035
v -0.901754 0.788551 -1.195290
v -0.911972 0.783550 -1.186059
v -1.180400 0.643420 -0.868786
v -0.368499 3.488892 -0.831847
v -0.381502 3.883906 -0.485881
v -0.822827 3.584469 -0.660697
v -0.796072 3.519897 -0.673622
v -0.422704 3.507175 -1.023162
v 0.053686 3.560502 -1.170973
v 0.669373 0.379609 -0.849459
v 0.809515 0.333947 -0.993513
v 1.132691 0.644906 -0.519155
v -0.659983 3.148559 -1.212767
v -0.977941 3.143619 -0.876786
v -0.941888 3.240336 -0.930336
v 0.953995 3.171889 0.911130
v 1.023025 3.229045 0.777784
v 0.578624 3.472727 0.632344
v 0.767137 2.914590 1.167196
v 0.719297 3.239046 1.215681
v 0.060627 3.525873 0.552915
v 0.306993 3.298805 1.505464
v 0.417401 3.525773 -0.043559
v -0.015418 3.525946 0.511747
v 0.563286 3.525182 -0.159540
v -0.286501 3.525934 0.081738
v -0.368499 3.488892 -0.831847
v -0.427984 3.525731 0.218432
v 0.056614 3.525953 -0.655617
v 0.060627 3.566611 0.958517
v 0.024277 3.566857 0.960339
v -0.214497 3.292822 1.509777
v -0.025630 3.294180 1.542206
v -0.144600 3.578194 0.842536
v 0.054707 3.293405 1.536704
v -0.796072 3.519897 -0.673622
v -1.043072 3.244876 -0.782497
v -1.234189 3.237880 -0.007288
v -1.203456 3.237296 0.409571
v -0.659983 3.148559 -1.212767
v -0.554335 3.546440 -0.916405
v -0.689894 3.488232 0.480810
v 0.660514 3.565905 -0.269737
v 0.827250 3.560371 -0.659044
v 0.982862 3.390767 -0.565719
v -0.422704 3.507175 -1.023162
v 0.057208 3.547768 -1.149506
v 0.569108 3.552254 -0.895332
v 0.071433 3.563933 -1.165190
v 0.053686 3.560502 -1.170973
v -0.589955 3.289870 1.324971
v -0.930974 3.294012 0.966650
v 0.578624 3.472727 0.632344
v 1.023025 3.229045 0.777784
v 1.021541 3.268540 0.781886
v 0.563286 3.525182 -0.159540
v 1.164075 3.261152 0.307156
v 1.041993 3.256040 -0.612684
v 1.178813 3.205216 -0.204760
v 0.060627 3.525873 0.552915
v -0.144600 3.578194 0.842536
v 0.535624 3.567344 0.666707
v 0.024277 3.566857 0.960339
v 0.060627 3.566611 0.958517
v -0.689894 3.488232 0.480810
v -0.589955 3.289870 1.324971
v -0.214497 3.292822 1.509777
v -0.429114 3.995832 -0.545005
v -0.822827 3.584469 -0.660697
v -0.130724 3.964316 -0.614140
v -0.130724 3.964316 -0.614140
v -0.822827 3.584469 -0.660697
v -0.381502 3.883906 -0.485881
v 0.061694 4.000000 -0.621471
v -0.381502 3.883906 -0.485881
v 0.053686 3.560502 -1.170973
v 0.071433 3.563933 -1.165190
v 0.827250 3.560371 -0.659044
v 0.569108 3.552254 -0.895332
v 0.982862 3.390767 -0.565719
v 0.566003 3.565376 -0.888782
v -1.179744 3.130571 0.048619
v -0.955988 2.926061 0.906324
v -1.203456 3.237296 0.409571
v -1.234189 3.237880 -0.007288
v 0.578624 3.472727 0.632344
v 0.535624 3.567344 0.666707
v 0.060627 3.525873 0.552915
v 0.578624 3.472727 0.632344
v 0.560928 3.564500 0.634215
v 0.535624 3.567344 0.666707
v 0.660514 3.565905 -0.269737
v 0.578624 3.472727 0.632344
v 0.560928 3.564500 0.634215
v 0.803533 0.223963 -0.982860
v 0.809515 0.333947 -0.993513
v 0.688296 0.232556 -0.860892
v 0.669373 0.379609 -0.849459
v -0.196134 0.939534 1.905796
v 0.165983 0.966192 1.514716
v 0.046745 1.233990 1.528640
v 0.113171 1.239490 1.522716
v -0.922629 0.000000 -1.197978
v -0.604311 0.561061 -1.110035
v -1.180400 0.643420 -0.868786
v -0.922629 0.000000 -1.197978
v -0.808431 0.000081 -1.103992
v -0.604311 0.561061 -1.110035
v 0.982862 3.390767 -0.565719
v 0.997840 3.060070 -0.702519
v 1.113277 3.092565 -0.530926
v 0.997840 3.060070 -0.702519
v 0.982862 3.390767 -0.565719
v 1.041993 3.256040 -0.612684
v 1.113277 3.092565 -0.530926
v 1.021541 3.268540 0.781886
v 1.178813 3.205216 -0.204760
v 1.164075 3.261152 0.307156
v 1.023025 3.229045 0.777784
v 1.178813 3.205216 -0.204760
v 1.021541 3.268540 0.781886
v 1.113277 3.092565 -0.530926
v 1.178813 3.205216 -0.204760
v 1.164075 3.261152 0.307156
v 1.041993 3.256040 -0.612684
v 1.113277 3.092565 -0.530926
v 1.164075 3.261152 0.307156
v -0.870667 1.946058 -0.909665
v -1.140077 2.034043 -0.279616
v -0.904654 1.946058 -0.861736
v -0.925597 1.982052 -0.875259
v -1.140077 2.034043 -0.279616
v -0.870667 1.946058 -0.909665
v -0.899357 2.563304 -0.865669
v -0.904214 2.515312 -0.858802
v -1.141516 2.349169 -0.271313
v -0.908010 3.208547 -0.858105
v -0.659983 3.148559 -1.212767
v -0.992777 3.155889 -0.855009
v -0.632549 2.896676 -1.156275
v -1.141482 2.814604 -0.273192
v -0.903278 2.895927 -0.860723
v -0.247468 0.322457 -0.225854
v -0.291558 0.322457 -0.284527
v -0.416619 0.433554 -0.808108
v -0.247468 0.322457 -0.225854
v -0.416619 0.433554 -0.808108
v -0.188582 0.344935 0.179593
v 0.131129 0.294337 0.336249
v 0.062608 0.341945 -0.095992
v 0.237102 0.351332 0.534585
v 0.105271 0.302323 0.161180
v 0.237102 0.351332 0.534585
v 0.105271 0.302323 0.161180
v 0.131129 0.294337 0.336249
v 0.062608 0.341945 -0.095992
v -0.957101 0.189975 0.545569
v -0.852178 0.324091 0.563602
v -1.116223 0.530850 0.340196
v -0.957101 0.189975 0.545569
v -0.866934 0.255755 0.456472
v -0.852178 0.324091 0.563602
v -0.689894 3.488232 0.480810
v -0.427984 3.525731 0.218432
v -0.576369 3.564646 0.281313
v -0.689894 3.488232 0.480810
v -0.576369 3.564646 0.281313
v -0.554415 3.564608 0.361093
v 0.790570 0.328804 0.501530
v 0.545094 0.644905 1.428905
v 1.059477 0.576197 0.715916
v 0.105271 0.302323 0.161180
v 0.857082 0.332872 0.275922
v 0.062608 0.341945 -0.095992
v 0.873202 0.251637 0.318356
vt 0.709838 0.946083
vt 0.686673 0.950691
vt 0.756616 0.950691
vt 0.055293 0.193088
vt 0.055293 0.272350
vt 0.040170 0.204319
vt 0.857750 0.306452
vt 0.857750 0.374654
vt 0.814272 0.348686
vt 0.991966 0.117512
vt 0.991966 0.200461
vt 0.974008 0.184035
vt 0.447543 0.897235
vt 0.418507 0.881567
vt 0.368147 0.897235
vt 0.425803 0.750691
vt 0.425803 0.841935
vt 0.415406 0.757693
vt 0.079868 0.902765
vt 0.230151 0.902765
vt 0.158921 0.879723
vt 0.011815 0.601382
vt 0.007089 0.541951
vt 0.011815 0.459447
vt 0.376654 0.095154
vt 0.382325 0.092627
vt 0.382325 0.138710
vt 0.420132 0.192148
vt 0.428639 0.179263
vt 0.428639 0.203226
vt 0.742439 0.828111
vt 0.767013 0.828111
vt 0.752095 0.819816
vt 0.392722 0.997696
vt 0.343248 0.985714
vt 0.314272 0.997696
vt 0.964556 0.633791
vt 0.982514 0.590323
vt 0.982514 0.681567
vt 0.989130 0.960829
vt 0.909582 0.956221
vt 0.880435 0.960829
vt 0.840737 0.990323
vt 0.794828 0.960829
vt 0.771739 0.990323
vt 0.469397 0.197696
vt 0.421077 0.223502
vt 0.539225 0.223502
vt 0.948488 0.938893
vt 0.980624 0.881567
vt 0.980624 0.958986
vt 0.968336 0.517512
vt 0.956049 0.432813
vt 0.968336 0.407834
vt 0.541174 0.937788
vt 0.491966 0.963594
vt 0.603497 0.963594
vt 0.831285 0.148848
vt 0.831285 0.257604
vt 0.804820 0.225871
vt 0.996692 0.992166
vt 0.981957 0.969124
vt 0.940926 0.992166
vt 0.941195 0.990875
vt 0.147921 0.670507
vt 0.146597 0.724623
vt 0.124291 0.684875
vt 0.147921 0.724885
vt 0.467459 0.997696
vt 0.408790 0.999539
vt 0.496692 0.999539
vt 0.989130 0.801382
vt 0.989130 0.887097
vt 0.963611 0.833605
vt 0.998582 0.714747
vt 0.998582 0.786636
vt 0.950378 0.755225
vt 0.114224 0.674194
vt 0.008034 0.748848
vt 0.058813 0.684991
vt 0.151701 0.748848
vt 0.555135 0.224021
vt 0.608448 0.200189
vt 0.560118 0.195214
vt 0.602336 0.124795
vt 0.544272 0.137806
vt 0.539503 0.096232
vt 0.556703 0.088029
vt 0.534165 0.057978
vt 0.551961 0.048836
vt 0.649221 0.149552
vt 0.675653 0.036802
vt 0.648271 0.114841
vt 0.702465 0.188703
vt 0.739567 0.108935
vt 0.715395 0.176889
vt 0.718649 0.045386
vt 0.741470 0.075537
vt 0.725996 0.224095
vt 0.643883 0.197366
vt 0.639226 0.240998
vt 0.731473 0.265685
vt 0.640716 0.277846
vt 0.720153 0.306502
vt 0.727976 0.023246
vt 0.773826 0.036828
vt 0.782554 0.020737
vt 0.773052 0.230387
vt 0.779809 0.197147
vt 0.767453 0.146133
vt 0.795050 0.274665
vt 0.791455 0.298519
vt 0.823724 0.333180
vt 0.773848 0.107482
vt 0.772362 0.094784
vt 0.744508 0.047326
vt 0.629676 0.199403
vt 0.816165 0.257754
vt 0.794063 0.222551
vt 0.785146 0.182055
vt 0.777416 0.326350
vt 0.822386 0.164315
vt 0.805769 0.077704
vt 0.823724 0.025931
vt 0.498582 0.093910
vt 0.507753 0.129823
vt 0.611395 0.033384
vt 0.550464 0.044203
vt 0.130268 0.336866
vt 0.133743 0.405991
vt 0.023157 0.405991
vt 0.091999 0.351788
vt 0.065365 0.359700
vt 0.086081 0.352523
vt 0.123720 0.487296
vt 0.069936 0.412627
vt 0.147505 0.412365
vt 0.149906 0.414234
vt 0.149487 0.490497
vt 0.188599 0.418494
vt 0.189911 0.504117
vt 0.265992 0.411215
vt 0.188462 0.411517
vt 0.145420 0.491624
vt 0.271309 0.542025
vt 0.149596 0.411412
vt 0.259899 0.409875
vt 0.307916 0.407810
vt 0.311323 0.456684
vt 0.343959 0.456827
vt 0.346753 0.404645
vt 0.278686 0.543709
vt 0.348927 0.542180
vt 0.183927 0.335989
vt 0.197565 0.335161
vt 0.294355 0.331336
vt 0.236682 0.333225
vt 0.405910 0.462920
vt 0.398514 0.482437
vt 0.370283 0.415155
vt 0.397081 0.543273
vt 0.347541 0.623980
vt 0.418242 0.609968
vt 0.372516 0.675115
vt 0.240959 0.606068
vt 0.232113 0.605650
vt 0.281928 0.603043
vt 0.352998 0.601404
vt 0.154735 0.607502
vt 0.125071 0.608310
vt 0.095363 0.609214
vt 0.106085 0.492646
vt 0.034920 0.548787
vt 0.046308 0.428752
vt 0.034508 0.563694
vt 0.234963 0.608180
vt 0.203585 0.630707
vt 0.293842 0.637551
vt 0.015595 0.587423
vt 0.022799 0.497914
vt 0.108808 0.651041
vt 0.033677 0.675115
vt 0.148499 0.666794
vt 0.266458 0.671157
vt 0.191053 0.669285
vt 0.865396 0.777980
vt 0.895988 0.774269
vt 0.915406 0.819816
vt 0.786862 0.819816
vt 0.830646 0.673272
vt 0.934310 0.935023
vt 0.824669 0.935023
vt 0.902139 0.885253
vt 0.861123 0.888321
vt 0.714083 0.527650
vt 0.705034 0.606913
vt 0.646975 0.593955
vt 0.714083 0.617051
vt 0.438563 0.781658
vt 0.451982 0.789611
vt 0.422423 0.685653
vt 0.437124 0.678075
vt 0.466446 0.570968
vt 0.421077 0.634745
vt 0.466446 0.847465
vt 0.746528 0.851400
vt 0.842604 0.867506
vt 0.847700 0.821659
vt 0.723535 0.872350
vt 0.898393 0.872350
vt 0.748610 0.391402
vt 0.782136 0.453917
vt 0.782136 0.328571
vt 0.680057 0.369213
vt 0.622080 0.894395
vt 0.704631 0.850525
vt 0.609168 0.883900
vt 0.704631 0.902765
vt 0.702648 0.817051
vt 0.628017 0.846254
vt 0.223796 0.652074
vt 0.166824 0.701843
vt 0.265123 0.688771
vt 0.262976 0.701843
vt 0.831285 0.719355
vt 0.831285 0.790323
vt 0.773629 0.758228
vt 0.243384 0.902765
vt 0.238704 0.964516
vt 0.176081 0.929441
vt 0.163989 0.964516
vt 0.746764 0.443616
vt 0.669321 0.449309
vt 0.724524 0.394165
vt 0.657375 0.420544
vt 0.643195 0.392166
vt 0.741564 0.400972
vt 0.750945 0.449309
vt 0.049298 0.873272
vt 0.015713 0.811669
vt 0.072048 0.812144
vt 0.110763 0.862294
vt 0.107855 0.789188
vt 0.146250 0.865416
vt 0.123009 0.792104
vt 0.191776 0.825736
vt 0.166314 0.870039
vt 0.153843 0.770657
vt 0.192455 0.770896
vt 0.119221 0.764976
vt 0.063624 0.754347
vt 0.002363 0.784281
vt 0.311310 0.852541
vt 0.294070 0.840691
vt 0.278651 0.829283
vt 0.229427 0.800315
vt 0.236035 0.757164
vt 0.260289 0.773846
vt 0.236281 0.800363
vt 0.293239 0.807141
vt 0.284081 0.773972
vt 0.318512 0.802435
vt 0.323397 0.764878
vt 0.369491 0.796103
vt 0.370905 0.785832
vt 0.375709 0.753085
vt 0.365870 0.820464
vt 0.193722 0.827033
vt 0.315326 0.824286
vt 0.269649 0.828239
vt 0.357895 0.873272
vt 0.266710 0.845561
vt 0.200964 0.849001
vt 0.278419 0.725948
vt 0.303095 0.712425
vt 0.223474 0.708118
vt 0.327622 0.716329
vt 0.157449 0.757017
vt 0.291708 0.666820
vt 0.331070 0.674917
vt 0.373420 0.687144
vt 0.278809 0.687715
vt 0.999527 0.024424
vt 0.999527 0.088940
vt 0.943762 0.038350
vt 0.995747 0.497235
vt 0.995747 0.561751
vt 0.940926 0.548120
vt 0.440872 0.852995
vt 0.363422 0.876959
vt 0.516541 0.876959
vt 0.538280 0.454839
vt 0.538280 0.561751
vt 0.505920 0.514627
vt 0.491021 0.490385
vt 0.361826 0.927202
vt 0.409333 0.899078
vt 0.462175 0.939631
vt 0.361531 0.939631
vt 0.480624 0.910289
vt 0.476391 0.903117
vt 0.605388 0.905530
vt 0.577593 0.852857
vt 0.521172 0.877236
vt 0.571799 0.835484
vt 0.504253 0.905530
vt 0.415406 0.210541
vt 0.342922 0.259877
vt 0.405735 0.173150
vt 0.382452 0.291202
vt 0.341390 0.279896
vt 0.263656 0.301847
vt 0.381085 0.292365
vt 0.340447 0.263441
vt 0.207504 0.173980
vt 0.100094 0.167218
vt 0.100155 0.164162
vt 0.114904 0.237870
vt 0.181736 0.217395
vt 0.185761 0.239621
vt 0.116211 0.244747
vt 0.122144 0.288146
vt 0.231900 0.291200
vt 0.255524 0.316050
vt 0.187099 0.332856
vt 0.110434 0.324412
vt 0.258882 0.250891
vt 0.256145 0.202288
vt 0.252338 0.156610
vt 0.248481 0.142852
vt 0.183449 0.082059
vt 0.101310 0.088625
vt 0.092584 0.052367
vt 0.107364 0.304392
vt 0.105671 0.280089
vt 0.104181 0.237624
vt 0.088954 0.164903
vt 0.084819 0.050395
vt 0.092792 0.089425
vt 0.091644 0.045000
vt 0.080848 0.031666
vt 0.199344 0.010235
vt 0.239532 0.046225
vt 0.246598 0.103646
vt 0.250032 0.142443
vt 0.158751 0.002482
vt 0.080418 0.000461
vt 0.091310 0.171342
vt 0.241434 0.046909
vt 0.072886 0.313901
vt 0.058994 0.190541
vt 0.057770 0.212151
vt 0.060121 0.249672
vt 0.314179 0.001911
vt 0.326164 0.333180
vt 0.333158 0.185194
vt 0.334245 0.187301
vt 0.028507 0.159231
vt 0.011366 0.095508
vt 0.008207 0.052348
vt 0.018462 0.005424
vt 0.000473 0.070601
vt 0.026788 0.333180
vt 0.975898 0.161751
vt 0.929584 0.161751
vt 0.936690 0.092357
vt 0.957156 0.081567
vt 0.895954 0.208132
vt 0.873488 0.280986
vt 0.916996 0.259289
vt 0.925020 0.271916
vt 0.909768 0.380184
vt 0.922067 0.225262
vt 0.931475 0.267189
vt 0.883217 0.117156
vt 0.931475 0.081754
vt 0.877472 0.101858
vt 0.881011 0.176029
vt 0.827706 0.066820
vt 0.790643 0.105205
vt 0.804874 0.130949
vt 0.703528 0.308295
vt 0.730097 0.342396
vt 0.642250 0.342396
vt 0.753781 0.326898
vt 0.858772 0.189796
vt 0.828450 0.269989
vt 0.858550 0.269186
vt 0.867202 0.188479
vt 0.867202 0.306452
vt 0.854102 0.303894
vt 0.017974 0.825346
vt 0.007089 0.893548
vt 0.044896 0.893548
vt 0.123033 0.952535
vt 0.002583 0.952535
vt 0.002363 0.932258
vt 0.123346 0.943846
vt 0.116730 0.994931
vt 0.091198 0.955300
vt 0.115506 0.967859
vt 0.056238 0.994931
vt 0.437553 0.943318
vt 0.382325 0.970968
vt 0.455104 0.970968
vt 0.937146 0.999539
vt 0.882325 0.962673
vt 0.885282 0.999539
vt 0.915342 0.963650
vt 0.747656 0.709759
vt 0.707124 0.810921
vt 0.721696 0.731183
vt 0.752667 0.758728
vt 0.610025 0.819643
vt 0.834121 0.632912
vt 0.815041 0.714155
vt 0.732167 0.713715
vt 0.573911 0.831124
vt 0.639223 0.834562
vt 0.525981 0.834562
vt 0.586296 0.787303
vt 0.575469 0.716710
vt 0.468177 0.768124
vt 0.488132 0.694183
vt 0.462665 0.690764
vt 0.650848 0.616102
vt 0.655439 0.683495
vt 0.608792 0.684533
vt 0.574074 0.583135
vt 0.708488 0.618334
vt 0.600191 0.570046
vt 0.628038 0.658332
vt 0.550535 0.682134
vt 0.487314 0.590957
vt 0.468527 0.620131
vt 0.961720 0.842396
vt 0.961720 0.898157
vt 0.946777 0.828111
vt 0.945652 0.889154
vt 0.757561 0.997696
vt 0.705735 0.997696
vt 0.735740 0.961698
vt 0.702741 0.960829
vt 0.276465 0.081375
vt 0.276465 0.162673
vt 0.255671 0.109317
vt 0.271962 0.056682
vt 0.666824 0.990323
vt 0.665612 0.963226
vt 0.606333 0.990323
vt 0.641279 0.950691
vt 0.968336 0.285253
vt 0.968336 0.394931
vt 0.953214 0.384488
vt 0.420132 0.582949
vt 0.420132 0.477743
vt 0.406900 0.565414
vt 0.418508 0.474194
vt 0.951323 0.610804
vt 0.963611 0.595853
vt 0.963611 0.707373
vt 0.712193 0.817972
vt 0.754112 0.762673
vt 0.771394 0.765287
vt 0.784972 0.817972
vt 0.016541 0.986636
vt 0.052457 0.986636
vt 0.020972 0.954378
vt 0.622488 0.942267
vt 0.632784 0.899078
vt 0.596881 0.942396
vt 0.705577 0.942396
vt 0.696125 0.385714
vt 0.654778 0.367281
vt 0.636578 0.385714
vt 0.925803 0.951613
vt 0.851216 0.939631
vt 0.910658 0.939952
vt 0.836011 0.951613
vt 0.992911 0.229954
vt 0.981569 0.324885
vt 0.985628 0.242996
vt 0.992911 0.324813
vt 0.933365 0.281213
vt 0.941871 0.270507
vt 0.941871 0.404147
vt 0.741499 0.004376
vt 0.824588 0.011521
vt 0.728261 0.011521
vt 0.824669 0.000461
vt 0.520321 0.987558
vt 0.507868 0.970046
vt 0.471172 0.981855
vt 0.475369 0.987558
vt 0.875709 0.376498
vt 0.859641 0.354527
vt 0.875709 0.332258
vt 0.495351 0.224424
vt 0.569975 0.232719
vt 0.484405 0.232719
vt 0.621456 0.232094
vt 0.141304 0.361751
vt 0.155263 0.338938
vt 0.168715 0.361751
vt 0.165203 0.333180
vt 0.537335 0.132258
vt 0.537335 0.204147
vt 0.528828 0.144060
vt 0.140359 0.935023
vt 0.140359 0.994931
vt 0.130907 0.964702
vt 0.873819 0.966359
vt 0.873643 0.958064
vt 0.807656 0.966359
vt 0.159263 0.965438
vt 0.147921 0.929844
vt 0.159263 0.921198
vt 0.961921 0.268950
vt 0.947325 0.223927
vt 0.938525 0.222454
vt 0.933365 0.232097
vt 0.982514 0.260080
vt 0.982514 0.199539
vt 0.980369 0.274174
vt 0.976718 0.274194
vt 0.929673 0.490632
vt 0.922888 0.520676
vt 0.921937 0.459609
vt 0.933794 0.507140
vt 0.933175 0.539782
vt 0.923730 0.566111
vt 0.927120 0.572859
vt 0.924383 0.585026
vt 0.940943 0.459422
vt 0.924117 0.417810
vt 0.941456 0.540359
vt 0.942817 0.499271
vt 0.940273 0.623502
vt 0.908126 0.615327
vt 0.881091 0.614776
vt 0.876444 0.490616
vt 0.875981 0.528948
vt 0.875822 0.539323
vt 0.872984 0.577201
vt 0.834752 0.443006
vt 0.878354 0.431135
vt 0.720472 0.588362
vt 0.769583 0.623502
vt 0.854982 0.381547
vt 0.798547 0.384800
vt 0.797966 0.343318
vt 0.790671 0.443303
vt 0.799302 0.470943
vt 0.783967 0.530890
vt 0.797181 0.572053
vt 0.793905 0.600877
vt 0.782044 0.531494
vt 0.781512 0.559025
vt 0.891451 0.378723
vt 0.723143 0.454102
vt 0.720954 0.533098
vt 0.718182 0.496616
vt 0.708412 0.454064
vt 0.790643 0.945161
vt 0.790643 0.953456
vt 0.733932 0.945178
vt 0.232987 0.875415
vt 0.232987 0.889576
vt 0.206522 0.872350
vt 0.211299 0.890783
vt 0.952268 0.632719
vt 0.952268 0.713825
vt 0.947543 0.633598
vt 0.459807 0.686187
vt 0.455742 0.707373
vt 0.453214 0.644093
vt 0.461720 0.680646
vt 0.461720 0.640092
vt 0.019376 0.358986
vt 0.019376 0.420670
vt 0.015595 0.420137
vt 0.018090 0.422581
vt 0.993856 0.268651
vt 0.999527 0.326728
vt 0.995419 0.254107
vt 0.999527 0.233641
vt 0.703686 0.956221
vt 0.840737 0.956221
vt 0.755170 0.955300
vt 0.063062 0.906492
vt 0.066626 0.929493
vt 0.062395 0.921245
vt 0.151701 0.921328
vt 0.044873 0.919996
vt 0.034233 0.905530
vt 0.031664 0.929493
vt 0.386106 0.093801
vt 0.390975 0.050628
vt 0.386643 0.082854
vt 0.404727 0.121911
vt 0.473728 0.107537
vt 0.506340 0.201279
vt 0.486510 0.103465
vt 0.401231 0.152119
vt 0.522212 0.203226
vt 0.514436 0.067662
vt 0.398493 0.025239
vt 0.522212 0.000461
vt 0.345463 0.943318
vt 0.253781 0.943318
vt 0.326528 0.877199
vt 0.263864 0.869536
vt 0.318731 0.865899
vt 0.921867 0.008461
vt 0.859761 0.061290
vt 0.941871 0.061290
vt 0.840737 0.006912
vt 0.007652 0.150691
vt 0.038280 0.237327
vt 0.003308 0.270462
vt 0.004342 0.271955
vt 0.038280 0.313825
vt 0.892432 0.679536
vt 0.930529 0.627189
vt 0.858946 0.628649
vt 0.854915 0.637419
vt 0.876921 0.698511
vt 0.930529 0.735023
vt 0.972117 0.473272
vt 0.998582 0.473272
vt 0.975379 0.396774
vt 0.819943 0.877880
vt 0.819943 0.935023
vt 0.807656 0.927030
vt 0.699477 0.474760
vt 0.699905 0.455124
vt 0.633813 0.451744
vt 0.699905 0.524667
vt 0.658348 0.526749
vt 0.567966 0.445951
vt 0.606955 0.563401
vt 0.607858 0.370391
vt 0.558109 0.441524
vt 0.625178 0.355077
vt 0.520695 0.391190
vt 0.503055 0.280293
vt 0.504066 0.408968
vt 0.557787 0.298522
vt 0.562871 0.495535
vt 0.558415 0.496513
vt 0.542696 0.575576
vt 0.566748 0.575253
vt 0.544380 0.483316
vt 0.576551 0.572854
vt 0.450680 0.303071
vt 0.402459 0.299365
vt 0.393667 0.396598
vt 0.404707 0.446552
vt 0.415113 0.229032
vt 0.467439 0.264362
vt 0.475123 0.444677
vt 0.636922 0.340369
vt 0.654292 0.291463
vt 0.682706 0.303919
vt 0.495080 0.257198
vt 0.554367 0.238291
vt 0.620225 0.265676
vt 0.555903 0.235404
vt 0.553593 0.234854
vt 0.491110 0.547467
vt 0.444708 0.509666
vt 0.287956 0.162392
vt 0.350951 0.181106
vt 0.350036 0.176343
vt 0.276465 0.066231
vt 0.362476 0.117114
vt 0.340505 0.005991
vt 0.362476 0.054279
vt 0.904064 0.764917
vt 0.922291 0.805069
vt 0.948488 0.723041
vt 0.946272 0.795029
vt 0.948488 0.791129
vt 0.407845 0.711982
vt 0.373819 0.813097
vt 0.407845 0.852074
vt 0.008034 0.680535
vt 0.032609 0.613364
vt 0.032609 0.710138
vt 0.570489 0.931938
vt 0.471172 0.934101
vt 0.538606 0.913825
vt 0.594991 0.934101
vt 0.842628 0.017972
vt 0.733416 0.015207
vt 0.732987 0.017972
vt 0.935255 0.589880
vt 0.949433 0.630598
vt 0.949433 0.562673
vt 0.947636 0.630876
vt 0.942817 0.827202
vt 0.942817 0.938710
vt 0.915406 0.865262
vt 0.930502 0.816129
vt 0.474953 0.995853
vt 0.469093 0.982949
vt 0.408790 0.995853
vt 0.513705 0.541475
vt 0.502454 0.536866
vt 0.499527 0.541475
vt 0.420132 0.752535
vt 0.407845 0.641462
vt 0.420132 0.641014
vt 0.568525 0.021373
vt 0.568525 0.007212
vt 0.546838 0.022581
vt 0.542060 0.004147
vt 0.793478 0.651152
vt 0.726371 0.651152
vt 0.736146 0.616129
vt 0.727752 0.616716
vt 0.813327 0.942396
vt 0.762913 0.879723
vt 0.716919 0.942396
vt 0.247164 0.989401
vt 0.238599 0.972811
vt 0.165879 0.989401
vt 0.927694 0.191021
vt 0.968336 0.171889
vt 0.968336 0.197696
vt 0.306711 0.342789
vt 0.335066 0.381106
vt 0.328193 0.362286
vt 0.335066 0.337788
vt 0.053403 0.876959
vt 0.179112 0.876959
vt 0.115024 0.867742
vt 0.367297 0.943318
vt 0.242439 0.948848
vt 0.368147 0.948848
vt 0.951323 0.414286
vt 0.942817 0.371926
vt 0.951323 0.309217
vt 0.375709 0.198618
vt 0.353025 0.187680
vt 0.375709 0.085253
vt 0.395558 0.879723
vt 0.482514 0.879723
vt 0.402728 0.877880
vt 0.284365 0.851152
vt 0.204631 0.857604
vt 0.291588 0.857604
vt 0.551512 0.850230
vt 0.548625 0.844700
vt 0.466446 0.850230
vt 0.022212 0.467857
vt 0.032609 0.415207
vt 0.032609 0.475115
vt 0.014650 0.323041
vt 0.014650 0.447465
vt 0.002363 0.370503
vt 0.553403 0.996774
vt 0.544913 0.993088
vt 0.475898 0.996774
vt 0.337236 0.955300
vt 0.260397 0.963594
vt 0.387996 0.963594
vt 0.480887 0.552535
vt 0.535444 0.561751
vt 0.453214 0.561751
vt 0.503032 0.554821
vt 0.352079 0.985714
vt 0.401810 0.979246
vt 0.379750 0.976498
vt 0.434310 0.985714
vt 0.889887 0.400766
vt 0.911626 0.399539
vt 0.911626 0.449309
vt 0.959830 0.810599
vt 0.977788 0.810599
vt 0.974513 0.794931
vt 0.453214 0.946083
vt 0.500473 0.946083
vt 0.482126 0.935945
vt 0.742439 0.676959
vt 0.772684 0.676959
vt 0.765746 0.668664
vt 0.391777 0.309217
vt 0.391777 0.432719
vt 0.345463 0.334760
vt 0.597449 0.002304
vt 0.688683 0.029032
vt 0.578923 0.029032
vt 0.694234 0.019011
usemtl baked
f 623/623 625/625 626/626
f 687/687 688/688 689/689
f 690/690 691/691 692/692
f 694/694 695/695 696/696
f 292/292 293/293 294/294
f 669/669 665/665 668/668
f 665/665 666/666 668/668
f 129/129 130/130 131/131
f 623/623 624/624 625/625
f 623/623 628/628 624/624
f 627/627 628/628 623/623
f 292/292 294/294 295/295
f 690/690 692/692 693/693
f 577/577 576/576 578/578
f 574/574 576/576 577/577
f 133/133 134/134 132/132
f 133/133 132/132 131/131
f 69/69 70/70 71/71
f 72/72 73/73 74/74
f 579/579 580/580 581/581
f 581/581 580/580 582/582
f 132/132 129/129 131/131
f 191/191 192/192 193/193
f 193/193 192/192 194/194
f 225/225 226/226 227/227
f 665/665 646/646 648/648
f 666/666 665/665 648/648
f 667/667 666/666 648/648
f 211/211 212/212 213/213
f 697/697 698/698 699/699
f 698/698 697/697 700/700
f 177/177 166/166 176/176
f 176/176 166/166 165/165
f 176/176 165/165 167/167
f 162/162 163/163 164/164
f 4/4 5/5 6/6
f 168/168 161/161 162/162
f 162/162 161/161 163/163
f 162/162 167/167 168/168
f 178/178 167/167 162/162
f 177/177 176/176 184/184
f 110/110 122/122 114/114
f 184/184 176/176 178/178
f 114/114 123/123 115/115
f 176/176 167/167 178/178
f 277/277 275/275 279/279
f 277/277 279/279 280/280
f 279/279 274/274 282/282
f 275/275 274/274 279/279
f 559/559 545/545 549/549
f 559/559 546/546 545/545
f 253/253 269/269 267/267
f 271/271 253/253 267/267
f 339/339 332/332 337/337
f 339/339 337/337 359/359
f 359/359 337/337 358/358
f 317/317 337/337 332/332
f 338/338 332/332 339/339
f 333/333 332/332 338/338
f 338/338 359/359 362/362
f 339/339 359/359 338/338
f 341/341 333/333 338/338
f 340/340 333/333 341/341
f 263/263 261/261 275/275
f 263/263 275/275 277/277
f 261/261 258/258 274/274
f 261/261 274/274 275/275
f 258/258 257/257 274/274
f 260/260 259/259 258/258
f 260/260 258/258 261/261
f 317/317 316/316 348/348
f 317/317 348/348 337/337
f 337/337 348/348 351/351
f 337/337 351/351 358/358
f 270/270 268/268 256/256
f 270/270 256/256 259/259
f 270/270 259/259 260/260
f 255/255 270/270 260/260
f 273/273 268/268 270/270
f 272/272 273/273 270/270
f 272/272 270/270 255/255
f 254/254 272/272 255/255
f 253/253 254/254 255/255
f 269/269 253/253 255/255
f 247/247 246/246 268/268
f 273/273 247/247 268/268
f 338/338 362/362 360/360
f 338/338 360/360 341/341
f 262/262 260/260 261/261
f 262/262 261/261 263/263
f 264/264 262/262 263/263
f 264/264 263/263 265/265
f 263/263 277/277 266/266
f 265/265 263/263 266/266
f 269/269 262/262 267/267
f 267/267 262/262 264/264
f 269/269 260/260 262/262
f 269/269 255/255 260/260
f 266/266 280/280 281/281
f 266/266 277/277 280/280
f 322/322 334/334 321/321
f 321/321 334/334 335/335
f 336/336 352/352 351/351
f 316/316 318/318 336/336
f 316/316 336/336 348/348
f 348/348 336/336 351/351
f 335/335 318/318 321/321
f 318/318 335/335 336/336
f 335/335 353/353 352/352
f 335/335 334/334 350/350
f 335/335 350/350 353/353
f 336/336 335/335 352/352
f 319/319 320/320 318/318
f 318/318 320/320 321/321
f 321/321 320/320 322/322
f 320/320 323/323 322/322
f 328/328 319/319 315/315
f 328/328 315/315 329/329
f 329/329 315/315 330/330
f 345/345 329/329 330/330
f 331/331 330/330 317/317
f 331/331 317/317 332/332
f 343/343 331/331 333/333
f 333/333 331/331 332/332
f 342/342 333/333 340/340
f 342/342 343/343 333/333
f 701/701 702/702 703/703
f 704/704 701/701 703/703
f 319/319 318/318 315/315
f 315/315 318/318 316/316
f 315/315 316/316 317/317
f 315/315 317/317 330/330
f 327/327 320/320 319/319
f 328/328 327/327 319/319
f 207/207 210/210 208/208
f 705/705 706/706 707/707
f 708/708 709/709 710/710
f 640/640 641/641 639/639
f 640/640 639/639 637/637
f 637/637 642/642 640/640
f 644/644 642/642 637/637
f 664/664 663/663 662/662
f 476/476 477/477 478/478
f 209/209 207/207 206/206
f 206/206 207/207 208/208
f 459/459 460/460 461/461
f 648/648 642/642 644/644
f 648/648 644/644 662/662
f 663/663 648/648 662/662
f 711/711 712/712 713/713
f 714/714 715/715 716/716
f 717/717 716/716 715/715
f 437/437 439/439 438/438
f 436/436 437/437 438/438
f 533/533 539/539 540/540
f 533/533 540/540 544/544
f 257/257 276/276 274/274
f 257/257 278/278 276/276
f 13/13 14/14 15/15
f 259/259 256/256 258/258
f 256/256 257/257 258/258
f 532/532 538/538 533/533
f 538/538 539/539 533/533
f 600/600 598/598 597/597
f 597/597 598/598 599/599
f 533/533 544/544 531/531
f 531/531 544/544 543/543
f 247/247 244/244 246/246
f 244/244 245/245 246/246
f 244/244 243/243 245/245
f 244/244 242/242 243/243
f 245/245 250/250 248/248
f 245/245 243/243 250/250
f 239/239 241/241 242/242
f 242/242 241/241 243/243
f 526/526 529/529 527/527
f 526/526 527/527 528/528
f 528/528 541/541 545/545
f 546/546 528/528 545/545
f 527/527 531/531 543/543
f 527/527 543/543 542/542
f 528/528 527/527 541/541
f 541/541 527/527 542/542
f 256/256 249/249 257/257
f 534/534 526/526 535/535
f 268/268 246/246 249/249
f 268/268 249/249 256/256
f 537/537 536/536 529/529
f 529/529 536/536 530/530
f 246/246 245/245 248/248
f 246/246 248/248 249/249
f 534/534 537/537 529/529
f 534/534 529/529 526/526
f 530/530 532/532 531/531
f 532/532 533/533 531/531
f 718/718 719/719 720/720
f 720/720 719/719 721/721
f 529/529 530/530 527/527
f 527/527 530/530 531/531
f 313/313 355/355 312/312
f 43/43 44/44 45/45
f 312/312 323/323 327/327
f 327/327 323/323 320/320
f 310/310 313/313 312/312
f 179/179 180/180 173/173
f 179/179 173/173 175/175
f 311/311 310/310 312/312
f 314/314 311/311 312/312
f 308/308 311/311 314/314
f 314/314 312/312 327/327
f 177/177 169/169 166/166
f 185/185 169/169 177/177
f 108/108 119/119 120/120
f 108/108 120/120 109/109
f 112/112 113/113 111/111
f 113/113 118/118 111/111
f 111/111 118/118 119/119
f 111/111 119/119 108/108
f 183/183 170/170 169/169
f 185/185 183/183 169/169
f 182/182 175/175 181/181
f 175/175 171/171 181/181
f 181/181 170/170 183/183
f 171/171 170/170 181/181
f 40/40 41/41 42/42
f 369/369 372/372 371/371
f 312/312 355/355 324/324
f 312/312 324/324 323/323
f 418/418 420/420 414/414
f 414/414 420/420 421/421
f 302/302 303/303 304/304
f 306/306 302/302 304/304
f 403/403 404/404 405/405
f 304/304 303/303 305/305
f 37/37 38/38 39/39
f 618/618 619/619 620/620
f 49/49 50/50 51/51
f 418/418 414/414 419/419
f 722/722 723/723 724/724
f 725/725 726/726 727/727
f 228/228 229/229 230/230
f 229/229 231/231 230/230
f 619/619 622/622 621/621
f 619/619 621/621 620/620
f 392/392 393/393 394/394
f 46/46 47/47 48/48
f 386/386 387/387 388/388
f 217/217 216/216 219/219
f 389/389 386/386 388/388
f 217/217 219/219 220/220
f 387/387 391/391 390/390
f 390/390 388/388 387/387
f 296/296 297/297 298/298
f 296/296 298/298 299/299
f 298/298 297/297 300/300
f 297/297 301/301 300/300
f 55/55 56/56 57/57
f 58/58 59/59 60/60
f 512/512 513/513 514/514
f 283/283 284/284 285/285
f 612/612 613/613 611/611
f 611/611 610/610 612/612
f 221/221 222/222 223/223
f 222/222 224/224 223/223
f 487/487 488/488 489/489
f 490/490 488/488 487/487
f 218/218 216/216 215/215
f 215/215 216/216 217/217
f 28/28 29/29 30/30
f 31/31 32/32 33/33
f 198/198 196/196 195/195
f 609/609 610/610 611/611
f 480/480 483/483 481/481
f 480/480 481/481 482/482
f 243/243 241/241 251/251
f 243/243 251/251 250/250
f 34/34 35/35 36/36
f 239/239 240/240 241/241
f 240/240 251/251 241/241
f 240/240 252/252 251/251
f 564/564 565/565 566/566
f 286/286 287/287 288/288
f 196/196 198/198 197/197
f 195/195 196/196 197/197
f 95/95 114/114 115/115
f 95/95 115/115 98/98
f 728/728 729/729 730/730
f 733/733 732/732 734/734
f 731/731 732/732 733/733
f 731/731 733/733 734/734
f 115/115 123/123 116/116
f 116/116 123/123 124/124
f 214/214 211/211 213/213
f 462/462 463/463 464/464
f 465/465 462/462 464/464
f 444/444 445/445 446/446
f 444/444 446/446 447/447
f 738/738 739/739 740/740
f 735/735 736/736 737/737
f 115/115 116/116 98/98
f 98/98 116/116 97/97
f 678/678 677/677 676/676
f 97/97 105/105 92/92
f 741/741 742/742 743/743
f 744/744 745/745 746/746
f 105/105 106/106 107/107
f 97/97 106/106 105/105
f 126/126 87/87 125/125
f 87/87 88/88 89/89
f 89/89 88/88 90/90
f 125/125 87/87 89/89
f 635/635 636/636 637/637
f 672/672 673/673 674/674
f 638/638 637/637 639/639
f 635/635 637/637 638/638
f 674/674 675/675 672/672
f 676/676 675/675 674/674
f 549/549 550/550 551/551
f 1/1 2/2 3/3
f 477/477 476/476 479/479
f 677/677 675/675 676/676
f 174/174 172/172 173/173
f 310/310 308/308 307/307
f 747/747 748/748 749/749
f 750/750 751/751 752/752
f 169/169 144/144 139/139
f 170/170 144/144 169/169
f 139/139 141/141 166/166
f 169/169 139/139 166/166
f 172/172 144/144 171/171
f 171/171 144/144 170/170
f 173/173 172/172 171/171
f 173/173 171/171 175/175
f 139/139 140/140 141/141
f 139/139 138/138 140/140
f 135/135 138/138 139/139
f 135/135 139/139 144/144
f 356/356 357/357 328/328
f 357/357 327/327 328/328
f 314/314 327/327 357/357
f 135/135 136/136 137/137
f 289/289 290/290 291/291
f 146/146 154/154 138/138
f 356/356 328/328 329/329
f 135/135 137/137 138/138
f 137/137 146/146 138/138
f 143/143 138/138 154/154
f 140/140 138/138 143/143
f 143/143 154/154 155/155
f 571/571 572/572 573/573
f 456/456 458/458 457/457
f 308/308 310/310 311/311
f 455/455 456/456 457/457
f 307/307 308/308 309/309
f 145/145 152/152 167/167
f 165/165 145/145 167/167
f 166/166 141/141 145/145
f 165/165 166/166 145/145
f 342/342 349/349 343/343
f 199/199 200/200 201/201
f 200/200 202/202 201/201
f 354/354 349/349 342/342
f 344/344 343/343 349/349
f 343/343 344/344 331/331
f 753/753 754/754 755/755
f 143/143 155/155 157/157
f 142/142 143/143 147/147
f 142/142 140/140 143/143
f 143/143 157/157 147/147
f 632/632 633/633 634/634
f 150/150 160/160 158/158
f 756/756 757/757 758/758
f 506/506 507/507 508/508
f 75/75 76/76 77/77
f 524/524 522/522 518/518
f 524/524 518/518 525/525
f 518/518 522/522 523/523
f 655/655 660/660 659/659
f 205/205 200/200 199/199
f 659/659 656/656 655/655
f 523/523 519/519 518/518
f 140/140 142/142 141/141
f 141/141 142/142 145/145
f 152/152 153/153 167/167
f 167/167 153/153 168/168
f 345/345 330/330 331/331
f 344/344 345/345 331/331
f 145/145 142/142 149/149
f 145/145 149/149 152/152
f 152/152 149/149 153/153
f 149/149 150/150 153/153
f 153/153 150/150 158/158
f 159/159 153/153 158/158
f 759/759 760/760 761/761
f 148/148 156/156 151/151
f 142/142 148/148 149/149
f 16/16 17/17 18/18
f 150/150 148/148 151/151
f 150/150 149/149 148/148
f 147/147 157/157 148/148
f 148/148 157/157 156/156
f 142/142 147/147 148/148
f 168/168 153/153 161/161
f 153/153 159/159 161/161
f 406/406 407/407 408/408
f 441/441 443/443 442/442
f 762/762 763/763 764/764
f 765/765 766/766 767/767
f 427/427 421/421 428/428
f 421/421 422/422 428/428
f 498/498 501/501 499/499
f 498/498 499/499 500/500
f 768/768 769/769 770/770
f 768/768 771/771 769/769
f 542/542 543/543 554/554
f 542/542 554/554 541/541
f 541/541 554/554 553/553
f 88/88 93/93 92/92
f 88/88 92/92 90/90
f 92/92 127/127 90/90
f 90/90 127/127 128/128
f 84/84 85/85 86/86
f 84/84 83/83 85/85
f 583/583 584/584 585/585
f 585/585 584/584 586/586
f 557/557 562/562 563/563
f 557/557 563/563 560/560
f 22/22 23/23 24/24
f 375/375 373/373 376/376
f 555/555 558/558 557/557
f 543/543 544/544 556/556
f 556/556 555/555 543/543
f 558/558 547/547 561/561
f 375/375 376/376 377/377
f 558/558 561/561 557/557
f 561/561 562/562 557/557
f 555/555 547/547 558/558
f 555/555 556/556 547/547
f 96/96 110/110 95/95
f 95/95 110/110 114/114
f 91/91 95/95 93/93
f 95/95 98/98 93/93
f 96/96 95/95 94/94
f 95/95 91/91 94/94
f 109/109 110/110 96/96
f 120/120 122/122 110/110
f 109/109 120/120 110/110
f 99/99 109/109 96/96
f 108/108 109/109 99/99
f 93/93 97/97 92/92
f 93/93 98/98 97/97
f 121/121 112/112 104/104
f 112/112 111/111 104/104
f 104/104 111/111 108/108
f 104/104 108/108 102/102
f 102/102 108/108 99/99
f 549/549 545/545 550/550
f 545/545 552/552 550/550
f 545/545 553/553 552/552
f 553/553 545/545 541/541
f 82/82 117/117 83/83
f 82/82 83/83 84/84
f 554/554 555/555 557/557
f 543/543 555/555 554/554
f 553/553 557/557 560/560
f 554/554 557/557 553/553
f 100/100 99/99 94/94
f 99/99 96/96 94/94
f 103/103 104/104 102/102
f 103/103 102/102 101/101
f 102/102 99/99 101/101
f 101/101 99/99 100/100
f 85/85 88/88 87/87
f 86/86 85/85 87/87
f 83/83 91/91 85/85
f 83/83 94/94 91/91
f 85/85 91/91 88/88
f 91/91 93/93 88/88
f 323/323 324/324 322/322
f 322/322 324/324 325/325
f 413/413 410/410 415/415
f 416/416 413/413 415/415
f 325/325 326/326 322/322
f 334/334 322/322 326/326
f 776/776 777/777 778/778
f 779/779 780/780 781/781
f 411/411 414/414 412/412
f 419/419 414/414 411/411
f 594/594 590/590 592/592
f 590/590 593/593 591/591
f 590/590 591/591 592/592
f 595/595 590/590 594/594
f 594/594 592/592 591/591
f 594/594 591/591 596/596
f 430/430 410/410 427/427
f 410/410 412/412 427/427
f 587/587 588/588 589/589
f 484/484 485/485 486/486
f 601/601 602/602 603/603
f 602/602 605/605 603/603
f 421/421 427/427 412/412
f 421/421 412/412 414/414
f 413/413 411/411 410/410
f 410/410 411/411 412/412
f 382/382 385/385 383/383
f 382/382 383/383 384/384
f 52/52 53/53 54/54
f 452/452 453/453 454/454
f 411/411 417/417 410/410
f 602/602 601/601 604/604
f 604/604 601/601 600/600
f 334/334 326/326 350/350
f 326/326 363/363 350/350
f 378/378 368/368 373/373
f 378/378 373/373 375/375
f 449/449 451/451 450/450
f 448/448 449/449 450/450
f 600/600 601/601 598/598
f 601/601 606/606 598/598
f 430/430 427/427 426/426
f 426/426 427/427 428/428
f 772/772 773/773 774/774
f 775/775 773/773 772/772
f 626/626 627/627 623/623
f 574/574 575/575 576/576
f 782/782 783/783 784/784
f 785/785 786/786 787/787
f 642/642 643/643 640/640
f 642/642 645/645 643/643
f 646/646 655/655 647/647
f 646/646 647/647 645/645
f 395/395 396/396 397/397
f 398/398 395/395 397/397
f 10/10 11/11 12/12
f 364/364 365/365 366/366
f 647/647 661/661 643/643
f 643/643 645/645 647/647
f 670/670 658/658 671/671
f 640/640 643/643 653/653
f 679/679 680/680 681/681
f 650/650 651/651 641/641
f 650/650 641/641 649/649
f 681/681 682/682 683/683
f 681/681 680/680 682/682
f 641/641 640/640 649/649
f 7/7 8/8 9/9
f 661/661 658/658 670/670
f 651/651 652/652 641/641
f 641/641 652/652 654/654
f 78/78 79/79 80/80
f 469/469 470/470 471/471
f 472/472 470/470 469/469
f 366/366 367/367 364/364
f 78/78 81/81 79/79
f 684/684 685/685 686/686
f 201/201 202/202 203/203
f 201/201 203/203 204/204
f 347/347 341/341 360/360
f 346/346 340/340 341/341
f 346/346 341/341 347/347
f 347/347 360/360 361/361
f 647/647 657/657 658/658
f 647/647 658/658 661/661
f 656/656 657/657 647/647
f 521/521 518/518 520/520
f 518/518 519/519 520/520
f 656/656 647/647 655/655
f 642/642 648/648 646/646
f 642/642 646/646 645/645
f 788/788 789/789 790/790
f 540/540 548/548 547/547
f 19/19 20/20 21/21
f 544/544 540/540 547/547
f 186/186 187/187 188/188
f 189/189 186/186 188/188
f 400/400 399/399 402/402
f 399/399 400/400 401/401
f 426/426 428/428 429/429
f 426/426 429/429 431/431
f 606/606 608/608 607/607
f 598/598 606/606 607/607
f 380/380 381/381 378/378
f 380/380 378/378 379/379
f 379/379 378/378 377/377
f 377/377 378/378 375/375
f 504/504 503/503 505/505
f 502/502 503/503 504/504
f 495/495 496/496 497/497
f 466/466 467/467 468/468
f 61/61 62/62 63/63
f 63/63 62/62 64/64
f 65/65 68/68 66/66
f 65/65 66/66 67/67
f 186/186 190/190 187/187
f 791/791 794/794 792/792
f 791/791 792/792 793/793
f 614/614 615/615 616/616
f 236/236 234/234 235/235
f 234/234 233/233 235/235
f 509/509 510/510 511/511
f 369/369 371/371 370/370
f 371/371 374/374 370/370
f 121/121 113/113 112/112
f 25/25 26/26 27/27
f 629/629 630/630 631/631
f 368/368 369/369 370/370
f 515/515 516/516 517/517
f 473/473 474/474 475/475
f 232/232 238/238 233/233
f 617/617 615/615 614/614
f 368/368 370/370 373/373
f 373/373 370/370 374/374
f 569/569 568/568 570/570
f 567/567 568/568 569/569
f 423/423 425/425 424/424
f 422/422 423/423 424/424
f 421/421 420/420 422/422
f 422/422 420/420 423/423
f 440/440 441/441 442/442
f 407/407 406/406 409/409
f 422/422 432/432 428/428
f 433/433 432/432 422/422
f 424/424 435/435 434/434
f 429/429 424/424 434/434
f 422/422 424/424 429/429
f 428/428 422/422 429/429
f 237/237 233/233 234/234
f 491/491 493/493 494/494
f 491/491 492/492 493/493
f 237/237 232/232 233/233
f 232/232 233/233 234/234
