mtllib P-13_tex.mtl
v -0.874022 0.339458 -0.022057
v -0.801470 0.319724 -0.022162
v -0.529733 0.230912 0.090325
v -0.529733 0.230912 0.090325
v -0.316039 0.213150 0.089758
v -0.408375 0.440112 0.083760
v -0.106905 0.214449 0.083880
v 0.183574 0.346454 -0.012669
v -0.595687 0.485506 -0.021940
v -0.874022 0.339458 -0.022057
v -1.888404 0.570864 0.018307
v -1.889651 0.524977 0.004249
v -1.491470 0.632540 -0.039628
v -1.433322 0.392747 0.009403
v -1.017803 0.371037 -0.022034
v -1.433322 0.392747 0.009403
v -1.130855 0.567572 0.064981
v -1.491470 0.632540 -0.039628
v -1.609154 0.639694 0.110985
v -1.491470 0.632540 -0.039628
v -1.888404 0.570864 0.018307
v -1.645037 0.574318 0.112956
v -1.888404 0.570864 0.018307
v -1.491470 0.632540 -0.039628
v -1.889651 0.524977 0.004249
v -1.888404 0.570864 0.018307
v -1.645037 0.574318 0.112956
v -1.653614 0.374921 0.111709
v -1.130855 0.567572 0.064981
v -1.491470 0.632540 -0.039628
v -1.261678 0.605894 0.093335
v -1.609154 0.639694 0.110985
v -1.433322 0.392747 0.009403
v -1.606125 0.419390 0.110799
v -1.609154 0.639694 0.110985
v -1.491470 0.632540 -0.039628
v -1.151574 0.328454 0.039237
v -0.801470 0.319724 -0.022162
v -1.017803 0.371037 -0.022034
v -1.130855 0.567572 0.064981
v -0.874022 0.339458 -0.022057
v -1.011819 0.567522 0.084768
v -1.606125 0.419390 0.110799
v -1.261900 0.536819 0.093566
v -1.261678 0.605894 0.093335
v -1.609154 0.639694 0.110985
v -1.433322 0.392747 0.009403
v -1.609154 0.639694 0.110985
v -1.888404 0.570864 0.018307
v -1.645037 0.574318 0.112956
v -1.151574 0.328454 0.039237
v -1.017803 0.371037 -0.022034
v -0.874022 0.339458 -0.022057
v -0.801470 0.319724 -0.022162
v -1.645037 0.574318 0.112956
v -1.491470 0.632540 -0.039628
v -1.609154 0.639694 0.110985
v -1.888404 0.570864 0.018307
v -1.645037 0.574318 0.112956
v -1.825547 0.788946 0.098333
v -1.653614 0.374921 0.111709
v -1.889651 0.524977 0.004249
v -0.595687 0.485506 -0.021940
v -1.011819 0.567522 0.084768
v -0.706492 0.570094 0.010497
v -0.874022 0.339458 -0.022057
v 1.516074 0.562476 0.078882
v 1.559072 0.665446 0.070043
v 1.719543 0.397656 -0.001396
v 1.910983 0.772190 0.091903
v 1.516074 0.562476 0.078882
v 1.719543 0.397656 -0.001396
v 1.910983 0.772190 0.091903
v 1.559072 0.665446 0.070043
v 1.516074 0.562476 0.078882
v 1.684717 0.452694 0.095021
v 1.602606 0.644616 0.092472
v 1.559072 0.665446 0.070043
v 1.684717 0.452694 0.095021
v 1.559072 0.665446 0.070043
v 1.602606 0.644616 0.092472
v 1.516074 0.562476 0.078882
v 1.516074 0.562476 0.078882
v 1.684717 0.452694 0.095021
v 1.707472 0.446033 0.095515
v 2.000735 0.609841 -0.149444
v 1.988649 0.349751 -0.086966
v 1.802450 0.645367 -0.064367
v 1.972411 0.718390 0.104799
v 1.989012 0.370051 0.101104
v 2.017794 0.676946 0.093698
v 1.997677 0.800000 0.105463
v 1.707472 0.446033 0.095515
v 1.900941 0.338299 0.099215
v 1.936778 0.787207 0.096726
v 1.994380 0.322436 0.109836
v 2.067114 0.551744 0.075473
v 2.088672 0.338473 0.072222
v 2.082099 0.773157 0.055328
v 1.989012 0.370051 0.101104
v 2.017794 0.676946 0.093698
v 2.082099 0.773157 0.055328
v 2.067114 0.551744 0.075473
v 1.602606 0.644616 0.092472
v 1.972411 0.718390 0.104799
v 1.707472 0.446033 0.095515
v 1.684717 0.452694 0.095021
v 1.559072 0.665446 0.070043
v 1.910983 0.772190 0.091903
v 1.936778 0.787207 0.096726
v 1.997677 0.800000 0.105463
v 1.988649 0.349751 -0.086966
v 1.953583 0.550141 -0.103977
v 2.067114 0.551744 0.075473
v 2.088672 0.338473 0.072222
v 2.000174 0.335018 -0.180681
v 1.685788 0.249168 -0.086343
v 1.953583 0.550141 -0.103977
v 1.719543 0.397656 -0.001396
v 1.581500 0.327432 -0.105817
v 1.516074 0.562476 0.078882
v 1.572926 0.351300 -0.105730
v 1.523545 0.157887 0.040117
v 1.537128 0.091774 -0.081968
v 1.559072 0.665446 0.070043
v 1.537036 0.571852 -0.080719
v 2.067114 0.551744 0.075473
v 1.719543 0.397656 -0.001396
v 1.989012 0.370051 0.101104
v 1.953583 0.550141 -0.103977
v 1.900941 0.338299 0.099215
v 1.707472 0.446033 0.095515
v 1.962421 0.338378 -0.011058
v 2.088672 0.338473 0.072222
v 2.000174 0.335018 -0.180681
v 1.719543 0.397656 -0.001396
v 1.685788 0.249168 -0.086343
v 1.994380 0.322436 0.109836
v 1.572926 0.351300 -0.105730
v 1.537036 0.571852 -0.080719
v 1.516074 0.562476 0.078882
v 1.559072 0.665446 0.070043
v 1.988649 0.349751 -0.086966
v 1.953583 0.550141 -0.103977
v 1.802450 0.645367 -0.064367
v 2.000735 0.609841 -0.149444
v 1.565388 0.097695 -0.046982
v 1.581500 0.327432 -0.105817
v 1.523545 0.157887 0.040117
v 1.719543 0.397656 -0.001396
v 1.516074 0.562476 0.078882
v 1.707472 0.446033 0.095515
v 1.989012 0.370051 0.101104
v 1.988649 0.349751 -0.086966
v 2.000174 0.335018 -0.180681
v 1.953583 0.550141 -0.103977
v 2.000174 0.335018 -0.180681
v 1.988649 0.349751 -0.086966
v 2.088672 0.338473 0.072222
v 1.565388 0.097695 -0.046982
v 1.537128 0.091774 -0.081968
v 1.581500 0.327432 -0.105817
v 1.537128 0.091774 -0.081968
v 1.565388 0.097695 -0.046982
v 1.523545 0.157887 0.040117
v 1.572926 0.351300 -0.105730
v 1.953583 0.550141 -0.103977
v 1.537036 0.571852 -0.080719
v 1.802450 0.645367 -0.064367
v 1.581500 0.327432 -0.105817
v 1.685788 0.249168 -0.086343
v 1.685795 0.102380 -0.073221
v 1.537128 0.091774 -0.081968
v 1.953583 0.550141 -0.103977
v 1.572926 0.351300 -0.105730
v 1.802450 0.645367 -0.064367
v 1.537036 0.571852 -0.080719
v 1.581500 0.327432 -0.105817
v 1.685788 0.249168 -0.086343
v 1.537128 0.091774 -0.081968
v 1.685795 0.102380 -0.073221
v 0.524562 0.384852 -0.023440
v 0.485319 0.386826 -0.023230
v 0.449045 0.594055 0.087946
v 0.784098 0.612497 0.090904
v 0.485319 0.386826 -0.023230
v 0.524562 0.384852 -0.023440
v 0.784098 0.612497 0.090904
v 0.449045 0.594055 0.087946
v 0.485319 0.386826 -0.023230
v 0.221109 0.253537 0.053668
v 0.778162 0.330386 0.060003
v 0.524562 0.384852 -0.023440
v 0.221109 0.253537 0.053668
v 0.485319 0.386826 -0.023230
v 0.524562 0.384852 -0.023440
v -0.106905 0.214449 0.083880
v 0.183574 0.346454 -0.012669
v 0.778162 0.330386 0.060003
v 1.910983 0.772190 0.091903
v 1.719543 0.397656 -0.001396
v 1.802450 0.645367 -0.064367
v 1.719543 0.397656 -0.001396
v 1.953583 0.550141 -0.103977
v 1.802450 0.645367 -0.064367
v -1.889651 0.524977 0.004249
v -1.433322 0.392747 0.009403
v -1.653614 0.374921 0.111709
v -1.645037 0.574318 0.112956
v -1.653614 0.374921 0.111709
v -1.606125 0.419390 0.110799
v -1.609154 0.639694 0.110985
v -1.433322 0.392747 0.009403
v 0.524562 0.384852 -0.023440
v 0.801907 0.382879 -0.023395
v 0.823672 0.611815 0.091645
v 0.784098 0.612497 0.090904
v 0.524562 0.384852 -0.023440
v 0.801907 0.382879 -0.023395
v 0.872479 0.382879 0.093304
v 0.678570 0.374984 0.093950
v 0.778162 0.330386 0.060003
v 0.801907 0.382879 -0.023395
v 0.812661 0.336618 0.063515
v 0.524562 0.384852 -0.023440
v 0.778162 0.330386 0.060003
v 0.812661 0.336618 0.063515
v 0.524562 0.384852 -0.023440
v 0.801907 0.382879 -0.023395
v 0.801907 0.382879 -0.023395
v 0.872479 0.382879 0.093304
v 1.371429 0.475638 0.006285
v 1.149492 0.394721 0.092742
v 0.678570 0.374984 0.093950
v 0.524562 0.384852 -0.023440
v 0.485319 0.386826 -0.023230
v 0.436678 0.379917 0.092686
v 1.385259 0.563443 0.051119
v 1.516074 0.562476 0.078882
v 1.559072 0.665446 0.070043
v 1.371429 0.475638 0.006285
v 1.541267 0.789439 -0.111009
v 1.537036 0.571852 -0.080719
v 1.559072 0.665446 0.070043
v 1.568967 0.789439 0.003974
v 1.537036 0.571852 -0.080719
v 1.559072 0.665446 0.070043
v 1.568967 0.789439 0.003974
v 1.541267 0.789439 -0.111009
v -1.911177 0.773897 -0.051902
v -1.888404 0.570864 0.018307
v -1.491470 0.632540 -0.039628
v -1.407281 0.470702 -0.103211
v -1.911177 0.773897 -0.051902
v -1.505873 0.565435 -0.105822
v -1.889827 0.341432 -0.051980
v -1.491470 0.632540 -0.039628
v -1.433322 0.392747 0.009403
v -1.889827 0.341432 -0.051980
v -1.407281 0.470702 -0.103211
v -1.505873 0.565435 -0.105822
v -1.888404 0.570864 0.018307
v -1.491470 0.632540 -0.039628
v -1.491653 0.190947 -0.046356
v -1.407281 0.470702 -0.103211
v -1.433322 0.392747 0.009403
v -1.407281 0.470702 -0.103211
v -1.450469 0.244973 -0.064429
v -1.433322 0.392747 0.009403
v -1.491653 0.190947 -0.046356
v -1.433322 0.392747 0.009403
v -1.505873 0.565435 -0.105822
v -1.491470 0.632540 -0.039628
v -1.407281 0.470702 -0.103211
v -1.505873 0.565435 -0.105822
v -1.433322 0.392747 0.009403
v -1.452671 0.000000 -0.029488
v -1.450469 0.244973 -0.064429
v -1.491653 0.190947 -0.046356
v -1.407281 0.470702 -0.103211
v -1.445193 0.112496 -0.064591
v -1.450469 0.244973 -0.064429
v -1.445193 0.112496 -0.064591
v -1.491653 0.190947 -0.046356
v -1.452671 0.000000 -0.029488
v -1.889827 0.341432 -0.051980
v -1.911177 0.773897 -0.051902
v -1.888404 0.570864 0.018307
v -1.889827 0.341432 -0.051980
v -1.889651 0.524977 0.004249
v -1.433322 0.392747 0.009403
v -1.911071 0.325645 -0.051354
v -1.911071 0.325645 -0.051354
v -1.889827 0.341432 -0.051980
v -1.910874 0.335511 0.013533
v -1.889651 0.524977 0.004249
v -1.911071 0.325645 -0.051354
v -1.910874 0.335511 0.013533
v -1.889651 0.524977 0.004249
v -1.889651 0.524977 0.004249
v -1.889827 0.341432 -0.051980
v -1.888404 0.570864 0.018307
v -1.755183 0.335511 0.119319
v -1.910874 0.335511 0.013533
v -1.889651 0.524977 0.004249
v -1.653614 0.374921 0.111709
v -1.911177 0.773897 -0.051902
v -1.888404 0.570864 0.018307
v -1.911328 0.789439 -0.048855
v -1.645037 0.574318 0.112956
v -1.911328 0.789439 -0.048855
v -1.645037 0.574318 0.112956
v -1.825547 0.788946 0.098333
v -1.911177 0.773897 -0.051902
v -1.911328 0.789439 -0.048855
v -1.911265 0.787465 -0.093214
v 1.572926 0.351300 -0.105730
v 1.581500 0.327432 -0.105817
v 1.523545 0.157887 0.040117
v 1.516074 0.562476 0.078882
v -1.507191 0.787465 -0.105697
v -1.505873 0.565435 -0.105822
v -1.491470 0.632540 -0.039628
v -1.491470 0.632540 -0.039628
v -1.505873 0.565435 -0.105822
v -1.503950 0.789439 -0.045106
v -1.507191 0.787465 -0.105697
v -1.491470 0.632540 -0.039628
v -1.507191 0.787465 -0.105697
v -1.503950 0.789439 -0.045106
v -1.433322 0.392747 0.009403
v -1.407281 0.470702 -0.103211
v -1.491470 0.632540 -0.039628
v -1.407281 0.470702 -0.103211
v -1.505873 0.565435 -0.105822
v -1.491470 0.632540 -0.039628
v 0.801907 0.382879 -0.023395
v 0.823672 0.611815 0.091645
v 1.385259 0.563443 0.051119
v 1.371429 0.475638 0.006285
v 0.183574 0.346454 -0.012669
v 0.485319 0.386826 -0.023230
v 0.449045 0.594055 0.087946
v 0.151239 0.563933 0.012996
v 2.079460 0.791908 0.055492
v 2.017794 0.676946 0.093698
v 1.997677 0.800000 0.105463
v 2.082099 0.773157 0.055328
v 2.067114 0.551744 0.075473
v 1.707472 0.446033 0.095515
v 1.989012 0.370051 0.101104
v 1.149492 0.394721 0.092742
v 1.371429 0.475638 0.006285
v 1.516074 0.562476 0.078882
vt 0.734772 0.725820
vt 0.724619 0.695523
vt 0.734772 0.566062
vt 0.153187 0.000432
vt 0.243044 0.009181
vt 0.188554 0.097299
vt 0.329551 0.025974
vt 0.438663 0.110967
vt 0.105493 0.110967
vt 0.000423 0.029147
vt 0.670388 0.317358
vt 0.687394 0.312264
vt 0.595178 0.161831
vt 0.687394 0.109240
vt 0.692470 0.351036
vt 0.692470 0.529475
vt 0.608249 0.402267
vt 0.594332 0.563471
vt 0.176772 0.859672
vt 0.120558 0.917530
vt 0.288917 0.917530
vt 0.857445 0.392780
vt 0.912437 0.297496
vt 0.912437 0.469344
vt 0.163706 0.368936
vt 0.165695 0.349359
vt 0.274535 0.343264
vt 0.274535 0.427893
vt 0.801171 0.551382
vt 0.749154 0.704575
vt 0.810068 0.609255
vt 0.810068 0.757772
vt 0.915821 0.791451
vt 0.998731 0.805961
vt 0.998731 0.899396
vt 0.920156 0.898202
vt 0.215685 0.101468
vt 0.359137 0.135387
vt 0.267165 0.139451
vt 0.206063 0.221352
vt 0.328101 0.137803
vt 0.254583 0.233592
vt 0.014198 0.140540
vt 0.151827 0.203515
vt 0.149419 0.232728
vt 0.004653 0.233592
vt 0.095458 0.120041
vt 0.488579 0.996978
vt 0.613790 0.996978
vt 0.508240 0.971934
vt 0.998731 0.553972
vt 0.974196 0.494277
vt 0.989703 0.434115
vt 0.998731 0.403713
vt 0.484349 0.958117
vt 0.577411 0.958117
vt 0.502158 0.932211
vt 0.793310 0.363068
vt 0.738386 0.267178
vt 0.694162 0.376943
vt 0.811760 0.228411
vt 0.811760 0.355630
vt 0.167936 0.845855
vt 0.305838 0.724093
vt 0.192321 0.790732
vt 0.299088 0.845855
vt 0.671871 0.610522
vt 0.627179 0.609240
vt 0.700931 0.723230
vt 0.521574 0.723230
vt 0.394184 0.605794
vt 0.423435 0.718912
vt 0.243232 0.718912
vt 0.349266 0.604922
vt 0.966582 0.475044
vt 0.966582 0.389033
vt 0.917513 0.462774
vt 0.920620 0.484024
vt 0.661168 0.999568
vt 0.755922 0.951569
vt 0.734699 0.948618
vt 0.746988 0.999568
vt 0.095178 0.490933
vt 0.011591 0.487478
vt 0.002115 0.490933
vt 0.844547 0.885579
vt 0.757614 0.956390
vt 0.903130 0.956390
vt 0.440242 0.602055
vt 0.563990 0.523146
vt 0.445976 0.576277
vt 0.405312 0.609674
vt 0.593486 0.643782
vt 0.593486 0.549301
vt 0.422256 0.629521
vt 0.580406 0.511392
vt 0.481386 0.531420
vt 0.554817 0.478843
vt 0.397208 0.571607
vt 0.527331 0.260363
vt 0.505686 0.131915
vt 0.525278 0.084423
vt 0.541032 0.177233
vt 0.343102 0.191080
vt 0.482745 0.119761
vt 0.406641 0.260363
vt 0.396830 0.260183
vt 0.321912 0.184959
vt 0.452176 0.104076
vt 0.463455 0.093371
vt 0.487166 0.082470
vt 0.921892 0.214356
vt 0.911591 0.128238
vt 0.999577 0.131256
vt 0.999577 0.222366
vt 0.310068 0.918394
vt 0.452200 0.918394
vt 0.313700 0.819085
vt 0.434339 0.848112
vt 0.512196 0.002159
vt 0.619403 0.077288
vt 0.522235 0.002198
vt 0.446607 0.077288
vt 0.413283 0.027355
vt 0.662860 0.064153
vt 0.616381 0.007580
vt 0.154399 0.864710
vt 0.024958 0.750000
vt 0.076792 0.864853
vt 0.154399 0.771345
vt 0.694744 0.131139
vt 0.692681 0.222366
vt 0.741030 0.105601
vt 0.700946 0.055699
vt 0.806684 0.073553
vt 0.735328 0.212616
vt 0.806684 0.215765
vt 0.686548 0.094002
vt 0.431895 0.678325
vt 0.509624 0.623921
vt 0.551857 0.678325
vt 0.579949 0.645012
vt 0.609560 0.947755
vt 0.687181 0.912571
vt 0.755076 0.947755
vt 0.696494 0.876079
vt 0.005499 0.897668
vt 0.104484 0.897668
vt 0.019567 0.851036
vt 0.723773 0.519360
vt 0.772843 0.624784
vt 0.767758 0.530204
vt 0.772843 0.406304
vt 0.117055 0.641192
vt 0.097716 0.676598
vt 0.194162 0.676598
vt 0.687394 0.973661
vt 0.652040 0.954663
vt 0.575719 0.973661
vt 0.193316 0.990933
vt 0.192891 0.971071
vt 0.094332 0.990933
vt 0.258460 0.524611
vt 0.244078 0.511510
vt 0.258460 0.465026
vt 0.422323 0.419341
vt 0.269286 0.515112
vt 0.351018 0.357945
vt 0.267767 0.438974
vt 0.429047 0.427701
vt 0.434857 0.482988
vt 0.487602 0.515112
vt 0.523266 0.463035
vt 0.013353 0.483161
vt 0.166195 0.387166
vt 0.011421 0.407272
vt 0.094663 0.325993
vt 0.172925 0.395523
vt 0.178630 0.450977
vt 0.266920 0.430954
vt 0.231266 0.483161
vt 0.773689 0.452019
vt 0.775310 0.435429
vt 0.873519 0.425302
vt 0.873519 0.567789
vt 0.737924 0.779288
vt 0.754178 0.777634
vt 0.867597 0.879534
vt 0.728003 0.879534
vt 0.146820 0.679188
vt 0.262690 0.732729
vt 0.029188 0.732729
vt 0.130791 0.681391
vt 0.352568 0.336935
vt 0.235605 0.285406
vt 0.219525 0.287971
vt 0.490271 0.341537
vt 0.362302 0.286349
vt 0.118866 0.341537
vt 0.870135 0.666235
vt 0.870135 0.848446
vt 0.818528 0.747566
vt 0.968274 0.667962
vt 0.968274 0.794041
vt 0.900592 0.758568
vt 0.354061 0.819948
vt 0.551184 0.819948
vt 0.465924 0.764681
vt 0.417761 0.379359
vt 0.503807 0.389033
vt 0.485802 0.368403
vt 0.390440 0.362499
vt 0.503807 0.281088
vt 0.872673 0.134283
vt 0.872673 0.016745
vt 0.766087 0.008204
vt 0.766074 0.024977
vt 0.968274 0.478843
vt 0.968274 0.596520
vt 0.919672 0.626511
vt 0.919205 0.544202
vt 0.643425 0.078152
vt 0.653156 0.120466
vt 0.657783 0.078288
vt 0.537648 0.120466
vt 0.826066 0.353627
vt 0.840525 0.353692
vt 0.719543 0.395941
vt 0.835867 0.395941
vt 0.182262 0.285406
vt 0.212623 0.235457
vt 0.424281 0.279996
vt 0.329036 0.236775
vt 0.131149 0.234456
vt 0.066203 0.285377
vt 0.049844 0.285406
vt 0.030034 0.235194
vt 0.613790 0.343181
vt 0.643401 0.293231
vt 0.614814 0.256045
vt 0.643401 0.371762
vt 0.987733 0.903713
vt 0.987733 0.996978
vt 0.919205 0.966327
vt 0.938771 0.910092
vt 0.314298 0.990069
vt 0.284298 0.920121
vt 0.229156 0.940054
vt 0.222927 0.990069
vt 0.730541 0.717185
vt 0.730541 0.808722
vt 0.563029 0.793913
vt 0.310068 0.640328
vt 0.139577 0.460708
vt 0.281730 0.590081
vt 0.101946 0.640328
vt 0.299117 0.553752
vt 0.500664 0.703368
vt 0.315990 0.757772
vt 0.524112 0.757772
vt 0.914129 0.786269
vt 0.914129 0.956390
vt 0.874366 0.789499
vt 0.648477 0.041019
vt 0.771997 0.041019
vt 0.729611 0.000432
vt 0.980964 0.243092
vt 0.980964 0.343783
vt 0.939509 0.285906
vt 0.976386 0.371762
vt 0.986041 0.123057
vt 0.951354 0.036294
vt 0.986041 0.015976
vt 0.366903 0.964162
vt 0.321912 0.999568
vt 0.413283 0.999568
vt 0.710692 0.662781
vt 0.704480 0.558449
vt 0.688240 0.583284
vt 0.716159 0.460708
vt 0.716159 0.613209
vt 0.324450 0.792314
vt 0.379767 0.792314
vt 0.346051 0.771589
vt 0.427665 0.780108
vt 0.305838 0.949482
vt 0.485195 0.949482
vt 0.400735 0.919257
vt 0.080302 0.688461
vt 0.001269 0.674643
vt 0.085025 0.491796
vt 0.085025 0.698187
vt 0.856599 0.959911
vt 0.867464 0.958117
vt 0.862725 0.987478
vt 0.942047 0.987478
vt 0.266074 0.684370
vt 0.254952 0.658463
vt 0.179780 0.684370
vt 0.544752 0.963299
vt 0.464890 0.964162
vt 0.564721 0.964162
vt 0.892368 0.039468
vt 0.888748 0.119603
vt 0.969120 0.119603
vt 0.915705 0.002159
vt 0.457700 0.923215
vt 0.525820 0.863126
vt 0.455584 0.929620
vt 0.612944 0.929620
vt 0.033418 0.952936
vt 0.190778 0.952936
vt 0.084747 0.902850
vt 0.401312 0.543610
vt 0.399746 0.550518
vt 0.418359 0.550518
vt 0.621760 0.802045
vt 0.611799 0.801813
vt 0.547800 0.875216
vt 0.717005 0.875216
vt 0.012267 0.984888
vt 0.104484 0.984888
vt 0.076634 0.955527
vt 0.002115 0.306258
vt 0.030880 0.334629
vt 0.005206 0.239637
vt 0.030880 0.240540
vt 0.064721 0.313040
vt 0.134941 0.313040
vt 0.125742 0.288860
vt 0.398900 0.601468
vt 0.361270 0.556563
vt 0.293993 0.601468
vt 0.682318 0.588515
vt 0.631785 0.561744
vt 0.601946 0.588515
vt 0.498731 0.422712
vt 0.605330 0.422712
vt 0.599666 0.183506
vt 0.558457 0.185800
vt 0.909813 0.148078
vt 0.913283 0.277634
vt 0.815144 0.277634
vt 0.818636 0.146373
vt 0.556261 0.471276
vt 0.595178 0.428756
vt 0.595178 0.482297
vt 0.556759 0.463211
vt 0.914975 0.540155
vt 0.914975 0.699050
vt 0.850677 0.594064
vt 0.454738 0.542746
vt 0.355773 0.508204
vt 0.287225 0.542746
usemtl baked
f 51/51 52/52 53/53
f 51/51 53/53 54/54
f 40/40 39/39 41/41
f 40/40 41/41 42/42
f 66/66 64/64 63/63
f 63/63 64/64 65/65
f 1/1 2/2 3/3
f 4/4 9/9 10/10
f 37/37 38/38 39/39
f 39/39 38/38 41/41
f 79/79 80/80 81/81
f 79/79 82/82 80/80
f 105/105 108/108 109/109
f 104/104 108/108 105/105
f 100/100 106/106 101/101
f 100/100 101/101 102/102
f 103/103 100/100 102/102
f 106/106 105/105 101/101
f 106/106 107/107 104/104
f 104/104 105/105 106/106
f 83/83 84/84 85/85
f 150/150 151/151 152/152
f 195/195 197/197 198/198
f 195/195 194/194 197/197
f 200/200 201/201 202/202
f 203/203 204/204 205/205
f 144/144 143/143 146/146
f 145/145 144/144 146/146
f 130/130 128/128 127/127
f 112/112 113/113 114/114
f 150/150 152/152 153/153
f 127/127 128/128 129/129
f 74/74 71/71 73/73
f 71/71 72/72 73/73
f 143/143 144/144 145/145
f 86/86 87/87 88/88
f 44/44 39/39 40/40
f 45/45 44/44 40/40
f 209/209 210/210 211/211
f 209/209 211/211 212/212
f 46/46 43/43 45/45
f 43/43 44/44 45/45
f 230/230 231/231 232/232
f 232/232 231/231 233/233
f 230/230 234/234 231/231
f 221/221 218/218 220/220
f 234/234 230/230 235/235
f 218/218 219/219 220/220
f 222/222 225/225 223/223
f 222/222 223/223 224/224
f 226/226 227/227 228/228
f 228/228 227/227 229/229
f 241/241 239/239 238/238
f 238/238 239/239 240/240
f 194/194 195/195 196/196
f 199/199 194/194 196/196
f 173/173 172/172 170/170
f 179/179 175/175 174/174
f 178/178 175/175 179/179
f 172/172 171/171 170/170
f 180/180 178/178 179/179
f 242/242 244/244 245/245
f 242/242 243/243 244/244
f 246/246 247/247 248/248
f 249/249 246/246 248/248
f 170/170 171/171 167/167
f 170/170 167/167 166/166
f 166/166 167/167 168/168
f 168/168 167/167 169/169
f 181/181 180/180 179/179
f 174/174 175/175 176/176
f 175/175 177/177 176/176
f 281/281 278/278 277/277
f 277/277 278/278 279/279
f 284/284 283/283 285/285
f 282/282 283/283 284/284
f 300/300 301/301 302/302
f 286/286 287/287 288/288
f 303/303 304/304 305/305
f 303/303 305/305 306/306
f 290/290 289/289 292/292
f 297/297 298/298 299/299
f 307/307 308/308 309/309
f 314/314 315/315 316/316
f 295/295 294/294 296/296
f 293/293 294/294 295/295
f 139/139 140/140 141/141
f 141/141 140/140 142/142
f 160/160 161/161 162/162
f 147/147 148/148 149/149
f 126/126 122/122 125/125
f 125/125 122/122 121/121
f 317/317 318/318 319/319
f 317/317 319/319 320/320
f 163/163 164/164 165/165
f 120/120 124/124 123/123
f 120/120 123/123 121/121
f 120/120 121/121 122/122
f 9/9 4/4 6/6
f 4/4 5/5 6/6
f 6/6 5/5 7/7
f 8/8 6/6 7/7
f 235/235 236/236 234/234
f 237/237 234/234 236/236
f 190/190 192/192 193/193
f 190/190 191/191 192/192
f 289/289 290/290 291/291
f 44/44 47/47 39/39
f 47/47 44/44 43/43
f 279/279 278/278 280/280
f 264/264 265/265 266/266
f 268/268 270/270 269/269
f 267/267 268/268 269/269
f 258/258 259/259 260/260
f 206/206 207/207 208/208
f 211/211 210/210 213/213
f 321/321 322/322 323/323
f 328/328 329/329 330/330
f 334/334 335/335 336/336
f 331/331 332/332 333/333
f 325/325 327/327 326/326
f 324/324 325/325 326/326
f 274/274 275/275 276/276
f 271/271 272/272 273/273
f 16/16 18/18 17/17
f 15/15 16/16 17/17
f 30/30 32/32 31/31
f 29/29 30/30 31/31
f 11/11 12/12 13/13
f 12/12 14/14 13/13
f 250/250 251/251 252/252
f 253/253 256/256 254/254
f 253/253 254/254 255/255
f 48/48 49/49 50/50
f 19/19 20/20 21/21
f 25/25 26/26 27/27
f 28/28 25/25 27/27
f 255/255 254/254 257/257
f 261/261 262/262 263/263
f 58/58 61/61 59/59
f 62/62 61/61 58/58
f 309/309 308/308 310/310
f 311/311 312/312 313/313
f 55/55 56/56 57/57
f 22/22 23/23 24/24
f 58/58 59/59 60/60
f 36/36 33/33 35/35
f 33/33 34/34 35/35
f 337/337 338/338 339/339
f 340/340 337/337 339/339
f 186/186 187/187 188/188
f 189/189 186/186 188/188
f 217/217 214/214 216/216
f 214/214 215/215 216/216
f 343/343 344/344 341/341
f 341/341 342/342 343/343
f 182/182 184/184 185/185
f 182/182 183/183 184/184
f 101/101 110/110 111/111
f 101/101 105/105 110/110
f 345/345 346/346 347/347
f 348/348 346/346 345/345
f 95/95 89/89 92/92
f 89/89 91/91 92/92
f 67/67 68/68 69/69
f 68/68 70/70 69/69
f 115/115 112/112 114/114
f 157/157 158/158 159/159
f 349/349 350/350 351/351
f 352/352 353/353 354/354
f 131/131 133/133 134/134
f 131/131 134/134 138/138
f 119/119 118/118 117/117
f 136/136 137/137 133/133
f 116/116 117/117 118/118
f 154/154 155/155 156/156
f 96/96 98/98 97/97
f 90/90 96/96 97/97
f 135/135 133/133 137/137
f 133/133 135/135 134/134
f 94/94 90/90 93/93
f 94/94 96/96 90/90
f 136/136 133/133 132/132
f 131/131 132/132 133/133
f 78/78 75/75 77/77
f 75/75 76/76 77/77
f 93/93 90/90 89/89
f 89/89 90/90 91/91
f 91/91 90/90 97/97
f 91/91 97/97 99/99
