v -2.137030 0.035408 -2.567038 0.6071 0.5311 0.4889
v -2.137030 0.034757 -2.496946 0.6726 0.6223 0.4926
v -2.138833 0.030939 -1.708937 0.6421 0.6262 0.5482
v -2.137030 0.025188 -0.631025 0.6960 0.6624 0.5913
v -2.137030 0.022624 0.044937 0.7029 0.6660 0.5957
v -2.137079 0.022424 0.150062 0.6945 0.6546 0.5766
v -2.137030 0.020724 0.808514 0.5956 0.4235 0.3231
v -2.228239 0.011541 1.909286 0.4604 0.2149 0.1158
v -2.195770 0.011137 2.237929 0.4396 0.1903 0.0342
v -2.716414 0.025600 3.292685 0.6233 0.3995 0.3184
v -2.170267 0.010345 4.135287 0.6785 0.5385 0.4937
v -2.147857 0.010353 4.368621 0.6580 0.5940 0.5489
v -2.671266 0.364181 -2.581051 0.7512 0.7112 0.6329
v -2.670694 0.439305 -1.933705 0.7223 0.6766 0.5950
v -2.669598 0.453060 -1.546861 0.7240 0.6819 0.6053
v -2.669464 0.450942 -1.113866 0.7300 0.6899 0.6146
v -2.668611 0.413909 -0.456200 0.7518 0.7139 0.6400
v -2.669537 0.428722 0.501677 0.7347 0.6979 0.6269
v -2.751283 0.444065 1.344696 0.6536 0.5624 0.4608
v -2.770843 0.406211 1.634808 0.4234 0.1878 0.0112
v -2.772085 0.448295 2.730108 0.4199 0.1843 0.0105
v -2.772170 0.410737 2.829785 0.6113 0.5206 0.4360
v -2.680827 0.450942 4.060226 0.6910 0.6567 0.6026
v -2.138528 0.425150 4.761110 0.7191 0.6828 0.6246
v -2.189973 0.675253 -3.204947 0.7951 0.7481 0.6613
v -2.670341 0.631872 -2.001257 0.8070 0.7544 0.6579
v -2.668453 0.630813 -1.524663 0.8338 0.7810 0.6789
v -2.668550 0.641396 -1.116982 0.8233 0.7743 0.6769
v -2.668270 0.679483 -0.472164 0.8239 0.7772 0.6850
v -2.670353 0.679483 0.742704 0.8276 0.7834 0.6937
v -2.670743 0.679750 0.898841 0.5331 0.3413 0.1931
v -2.771659 0.466681 1.613358 0.4286 0.1822 0.0085
v -2.771963 0.647743 2.561896 0.4247 0.1864 0.0088
v -2.769515 0.576520 2.989554 0.6635 0.5608 0.4549
v -2.679914 0.497499 4.063343 0.7839 0.7367 0.6534
v -2.137834 0.643509 4.761110 0.7906 0.7435 0.6642
v -2.670804 0.759897 -2.640234 0.8083 0.7613 0.6731
v -2.671132 0.689007 -2.028131 0.8344 0.7793 0.6746
v -2.669245 0.685835 -1.699488 0.8448 0.7885 0.6775
v -2.668027 0.686890 -1.182399 0.8533 0.7952 0.6839
v -2.669147 0.714403 -0.149559 0.8329 0.7772 0.6689
v -2.668794 0.708055 0.459231 0.8100 0.7574 0.6539
v -2.660841 0.902739 1.001795 0.5304 0.3400 0.1921
v -2.772292 0.863588 2.079842 0.4281 0.1815 0.0081
v -2.771439 0.858299 2.206871 0.4236 0.1787 0.0086
v -2.771586 0.752361 2.945820 0.7008 0.5992 0.4873
v -2.682763 0.723922 4.124084 0.8129 0.7654 0.6740
v -2.136908 0.754144 4.754889 0.8291 0.7798 0.6877
v -2.671108 0.917552 -2.683072 0.8326 0.7915 0.7033
v -2.671388 0.919665 -2.521082 0.8689 0.8309 0.7278
v -2.667625 0.914905 -1.285194 0.8778 0.8403 0.7318
v -2.667637 0.912258 -1.191737 0.8762 0.8382 0.7195
v -2.637883 1.096414 -0.389813 0.8261 0.7824 0.6816
v -2.631709 1.096943 0.192901 0.7370 0.6925 0.6033
v -2.633730 1.097277 0.896902 0.4801 0.3562 0.2473
v -2.687355 1.068317 1.920195 0.3743 0.1654 0.0142
v -2.772706 0.952467 2.761252 0.4244 0.1873 0.0095
v -2.732040 1.127578 3.033030 0.6714 0.5499 0.4199
v -2.610286 1.137469 3.969899 0.8370 0.7934 0.6917
v -2.625522 1.099227 4.738605 0.7391 0.7075 0.6228
v -2.663338 1.335487 -2.970435 0.8674 0.8214 0.7204
v -2.665445 1.176882 -2.530654 0.9097 0.8689 0.7545
v -2.673775 1.300109 -1.373827 0.8923 0.8524 0.7403
v -2.680742 1.344744 -0.855315 0.8642 0.8285 0.7207
v -2.687586 1.353572 -0.378033 0.8415 0.8029 0.6920
v -2.699997 1.224126 0.289462 0.7854 0.7473 0.6487
v -2.648017 1.167124 0.932721 0.5513 0.4213 0.3030
v -2.674323 1.143121 2.026499 0.3650 0.1626 0.0158
v -2.770514 1.158259 2.745680 0.4247 0.1883 0.0099
v -2.743111 1.357707 3.371809 0.6634 0.5241 0.3776
v -2.745035 1.327551 3.564943 0.8888 0.8472 0.7342
v -2.240552 1.356977 4.723733 0.8289 0.7862 0.6814
v -2.662022 1.448170 -2.970435 0.8878 0.8330 0.7176
v -2.664836 1.587307 -1.967389 0.8925 0.8381 0.7192
v -2.673032 1.531988 -1.300569 0.8938 0.8398 0.7209
v -2.683080 1.385216 -0.678538 0.8937 0.8395 0.7215
v -2.685479 1.586248 -0.465930 0.8951 0.8416 0.7192
v -2.695588 1.415892 0.146418 0.8889 0.8338 0.7142
v -2.605950 1.567600 1.241117 0.6352 0.4734 0.3281
v -2.771561 1.525411 1.490317 0.4293 0.1957 0.0089
v -2.771403 1.389909 2.807980 0.4284 0.1936 0.0091
v -2.716414 1.512449 3.293446 0.5842 0.4089 0.2595
v -2.744256 1.491817 3.513539 0.8864 0.8345 0.7191
v -2.753500 1.575536 4.247519 0.8915 0.8388 0.7221
v -2.655933 1.796012 -2.803389 0.8863 0.8318 0.7166
v -2.663654 1.813667 -1.954296 0.8924 0.8367 0.7160
v -2.664884 1.814613 -1.828726 0.8941 0.8392 0.7225
v -2.673836 1.751706 -1.160201 0.8947 0.8400 0.7211
v -2.685017 1.670367 -0.472164 0.8952 0.8405 0.7195
v -2.695478 1.719995 0.150603 0.8904 0.8351 0.7154
v -2.608020 1.807253 1.247338 0.8087 0.7217 0.6002
v -2.771257 1.818098 1.496551 0.4299 0.1954 0.0098
v -2.770368 1.627778 2.789291 0.4295 0.1924 0.0090
v -2.722443 1.644441 3.299202 0.5037 0.2888 0.1275
v -2.745230 1.599802 3.625648 0.8916 0.8376 0.7182
v -2.753804 1.604749 4.197392 0.8898 0.8351 0.7194
v -2.595378 2.030638 -3.070112 0.8810 0.8267 0.7134
v -2.657833 2.037248 -2.492269 0.8921 0.8373 0.7199
v -2.664068 1.901025 -1.870717 0.8929 0.8383 0.7218
v -2.676662 2.017938 -0.970576 0.8939 0.8394 0.7214
v -2.685285 1.971452 -0.438185 0.8945 0.8402 0.7192
v -2.695357 1.838334 0.138577 0.8889 0.8348 0.7163
v -2.510088 1.823520 1.135586 0.7094 0.5795 0.4390
v -2.771074 2.050636 1.497962 0.4339 0.1932 0.0090
v -2.771354 1.879864 2.804863 0.4325 0.1919 0.0088
v -2.743281 1.844152 3.450454 0.5587 0.3630 0.2054
v -2.746095 1.842397 3.617954 0.8894 0.8342 0.7170
v -2.743318 1.973215 4.735489 0.8912 0.8358 0.7183
v -2.220506 2.253227 -3.159372 0.8835 0.8292 0.7152
v -2.657857 2.090153 -2.496945 0.8926 0.8372 0.7195
v -2.665262 2.051557 -1.746559 0.8934 0.8386 0.7214
v -2.678014 2.270799 -0.901895 0.8940 0.8393 0.7200
v -2.685467 2.267644 -0.467488 0.8908 0.8377 0.7209
v -2.700825 2.065553 0.400049 0.8843 0.8316 0.7144
v -2.567220 2.116340 1.168706 0.6747 0.5710 0.4461
v -2.770697 2.181349 2.107096 0.2980 0.1318 0.0073
v -2.770977 2.181620 2.184968 0.2704 0.1188 0.0077
v -2.666480 2.195695 3.281593 0.5266 0.4353 0.3343
v -2.752525 2.067670 3.807468 0.8813 0.8284 0.7137
v -2.741442 2.059138 4.740544 0.8809 0.8288 0.7177
v -2.467839 2.503591 -3.149125 0.8788 0.8236 0.7091
v -2.660074 2.298987 -2.174597 0.8906 0.8350 0.7197
v -2.671303 2.302559 -1.308557 0.8942 0.8388 0.7201
v -2.685345 2.503591 -0.568724 0.8957 0.8394 0.7186
v -2.697488 2.507826 0.038704 0.8929 0.8386 0.7193
v -2.709082 2.507113 0.745184 0.8867 0.8333 0.7159
v -2.559706 2.282719 1.142875 0.6098 0.5719 0.4894
v -2.571203 2.334028 1.488366 0.5708 0.5335 0.4564
v -2.661072 2.336653 2.193349 0.3952 0.3657 0.3110
v -2.681168 2.335674 2.837578 0.6491 0.6088 0.5312
v -2.742124 2.301500 4.161475 0.8602 0.8156 0.7261
v -2.737606 2.280206 4.736336 0.8397 0.8044 0.7335
v -2.156358 2.718778 -3.090384 0.8792 0.8246 0.7178
v -2.662997 2.580303 -1.909751 0.8787 0.8274 0.7249
v -2.664349 2.708858 -1.683915 0.8926 0.8368 0.7201
v -2.677441 2.723154 -0.611562 0.8930 0.8389 0.7197
v -2.684822 2.644320 0.067369 0.8902 0.8356 0.7208
v -2.685954 2.593262 0.801888 0.8687 0.8205 0.7236
v -2.698353 2.510018 1.442227 0.8631 0.8139 0.7160
v -2.690205 2.513523 2.126951 0.8631 0.8119 0.7144
v -2.686783 2.509413 2.681049 0.8743 0.8242 0.7205
v -2.701726 2.517083 3.311841 0.8534 0.8120 0.7333
v -2.707243 2.534276 3.561041 0.8237 0.7925 0.7394
v -2.720957 2.530045 4.751405 0.7823 0.7593 0.7246
v -2.149392 2.776046 -3.086739 0.8554 0.8109 0.7193
v -2.658941 2.747078 -2.167725 0.8376 0.8032 0.7364
v -2.665554 2.812074 -1.232059 0.8323 0.7969 0.7316
v -2.664556 2.773178 -0.612998 0.8293 0.7945 0.7297
v -2.662485 2.743244 -0.081614 0.8193 0.7924 0.7371
v -2.654386 2.738705 0.498193 0.8094 0.7852 0.7365
v -2.641281 2.762992 0.871956 0.7945 0.7728 0.7341
v -2.645045 2.737954 2.057644 0.7988 0.7745 0.7306
v -2.643863 2.782790 2.158205 0.8101 0.7848 0.7327
v -2.658369 2.836882 2.876514 0.7992 0.7780 0.7365
v -2.687647 2.743177 3.513049 0.7970 0.7741 0.7363
v -2.719971 2.749529 4.743514 0.7327 0.7169 0.6918
v -2.509832 3.049589 -3.049435 0.8173 0.7872 0.7171
v -2.171034 3.108695 -2.004766 0.8104 0.7835 0.7259
v -2.523510 3.097175 -1.857992 0.7960 0.7750 0.7214
v -2.527541 3.120387 -1.165845 0.7737 0.7626 0.7163
v -2.157905 3.111492 0.037146 0.7645 0.7589 0.7160
v -2.147066 3.110033 0.221052 0.7747 0.7616 0.7259
v -2.443115 3.096904 0.822136 0.7730 0.7560 0.7195
v -2.158831 3.088526 1.746365 0.7730 0.7582 0.7217
v -2.152108 3.081432 2.194711 0.7770 0.7612 0.7271
v -2.155348 3.067674 3.039498 0.7695 0.7553 0.7246
v -2.274228 3.040669 3.521332 0.7490 0.7363 0.7093
v -2.674067 3.016899 4.212154 0.7164 0.7047 0.6818
v -1.801581 0.038938 -2.554570 0.7049 0.6657 0.5632
v -1.512510 0.038359 -1.911311 0.4736 0.4957 0.3565
v -1.735035 0.033090 -1.390528 0.6055 0.5994 0.3612
v -2.069010 0.027818 -1.130603 0.3690 0.5532 0.4427
v -2.096839 0.024491 -0.523948 0.3196 0.5416 0.4606
v -2.124668 0.022608 0.147731 0.4201 0.4939 0.3739
v -2.030171 0.008999 0.823693 0.4870 0.4575 0.3607
v -1.488164 0.002113 2.035445 0.5885 0.4441 0.3993
v -1.803895 0.002280 2.180684 0.6302 0.5175 0.4075
v -1.802738 0.002155 2.955220 0.7224 0.3852 0.3020
v -1.858774 0.001888 3.558709 0.7569 0.2950 0.2415
v -1.503230 0.010116 4.226879 0.7238 0.2783 0.2375
v -1.537234 0.374764 -3.205855 0.7775 0.7396 0.6617
v -1.858774 0.681600 -3.207119 0.8006 0.7606 0.6799
v -1.524105 0.732388 -3.207119 0.8110 0.7657 0.6818
v -2.136105 0.732654 4.761110 0.0235 0.0235 0.0275
v -1.701871 1.137973 -3.147690 0.8107 0.7711 0.6941
v -2.136324 0.984736 4.764227 0.0850 0.0824 0.0810
v -1.502463 1.348713 -3.190037 0.8480 0.8018 0.7076
v -2.114170 1.138686 4.742422 0.0920 0.0886 0.0865
v -1.555795 1.530701 -3.138045 0.8877 0.8319 0.7157
v -1.485266 1.803131 -3.129173 0.8849 0.8310 0.7187
v -1.561970 1.912399 -3.125982 0.8845 0.8305 0.7170
v -1.540327 2.101527 -3.119380 0.8814 0.8269 0.7096
v -1.504009 2.376887 -3.106851 0.8844 0.8299 0.7145
v -1.568157 2.726317 -3.087439 0.8819 0.8279 0.7130
v -2.136068 2.727901 4.751221 0.6458 0.6418 0.6340
v -1.511341 2.749454 -3.085255 0.8758 0.8231 0.7153
v -2.130843 2.917279 4.752300 0.6322 0.6292 0.6223
v -2.069010 3.081724 -3.059031 0.8132 0.7829 0.7010
v -2.116326 3.109842 -2.013895 0.7287 0.7296 0.6860
v -2.108555 3.109850 -1.877049 0.7320 0.7357 0.6916
v -1.500136 3.134379 -1.204204 0.7312 0.7376 0.6896
v -1.569667 3.128873 -0.509541 0.7306 0.7372 0.6887
v -2.016457 3.109554 0.537116 0.6971 0.6999 0.6594
v -1.488176 3.118107 0.824504 0.7150 0.7031 0.6627
v -1.654580 3.104740 1.497177 0.7697 0.7480 0.6934
v -2.099933 3.082153 2.228579 0.7657 0.7448 0.6918
v -1.947426 3.075805 2.846144 0.7395 0.7251 0.6886
v -1.484681 3.076331 3.533787 0.7171 0.7114 0.6894
v -1.632694 3.061567 4.200791 0.6674 0.6643 0.6506
v -1.141498 0.027834 -2.556129 0.7030 0.6813 0.5656
v -1.258990 0.039809 -1.939350 0.7274 0.6684 0.3728
v -1.445805 0.037246 -1.566200 0.6355 0.6566 0.4058
v -1.401973 0.035041 -1.081961 0.5074 0.6217 0.4407
v -1.048754 0.033757 -0.495529 0.5498 0.6282 0.4240
v -1.463526 0.024729 0.167941 0.5161 0.5823 0.3986
v -1.285260 0.011387 0.823693 0.5978 0.5843 0.3752
v -0.804503 0.003310 1.490316 0.5964 0.6045 0.4669
v -0.828654 0.001984 2.748011 0.6574 0.5934 0.4764
v -0.833294 0.001913 2.871445 0.7553 0.4233 0.2750
v -0.977251 0.001713 3.516656 0.7726 0.3449 0.2405
v -0.874837 0.010191 4.226498 0.7660 0.3743 0.2440
v -0.821505 0.275302 -3.204272 0.7846 0.7472 0.6691
v -1.166234 0.681600 -3.207070 0.8207 0.7802 0.6967
v -0.912714 0.905911 -3.206100 0.8237 0.7783 0.6922
v -0.872523 1.117525 -3.150709 0.7626 0.7268 0.6537
v -0.853974 1.354798 -3.190369 0.8192 0.7847 0.7029
v -0.811079 1.413083 -3.141665 0.8938 0.8403 0.7229
v -0.927402 1.819553 -3.128473 0.8938 0.8399 0.7206
v -0.809910 1.901554 -3.126535 0.8928 0.8382 0.7173
v -0.818034 2.105758 -3.118730 0.8934 0.8398 0.7206
v -0.813978 2.281294 -3.110901 0.8925 0.8395 0.7201
v -0.806439 2.680953 -3.087439 0.8927 0.8391 0.7181
v -0.920448 2.760704 -3.081549 0.8857 0.8343 0.7264
v -0.847787 3.104369 -3.100016 0.7967 0.7766 0.7035
v -0.823051 3.144136 -2.531205 0.7314 0.7338 0.6894
v -1.446329 3.120749 -1.326509 0.7336 0.7350 0.6907
v -1.414688 3.120883 -1.193099 0.7362 0.7409 0.6913
v -0.835669 3.143353 -0.481318 0.7329 0.7401 0.6889
v -0.826145 3.138380 0.194460 0.7019 0.7032 0.6602
v -1.368565 3.120474 0.823694 0.7178 0.7174 0.6788
v -1.321603 3.103010 2.150548 0.7425 0.7359 0.6920
v -1.463039 3.093778 2.518286 0.7710 0.7494 0.6886
v -1.319057 3.092365 2.825136 0.7540 0.7383 0.6884
v -1.179205 3.084442 3.505760 0.7455 0.7335 0.6842
v -0.864984 3.076914 4.405902 0.7179 0.7127 0.6886
v -0.722964 0.026897 -2.560019 0.7457 0.6908 0.5381
v -0.769719 0.026371 -2.175310 0.6922 0.6693 0.3936
v -0.665381 0.036996 -1.220550 0.5631 0.6355 0.4252
v -0.764312 0.036708 -0.932021 0.6664 0.6750 0.4144
v -0.727214 0.034374 -0.459709 0.5675 0.6457 0.4327
v -0.442771 0.014897 0.736470 0.6810 0.6602 0.3797
v -0.439678 0.014313 0.812796 0.7011 0.6481 0.4007
v -0.262679 0.003134 1.487200 0.7646 0.6269 0.4176
v -0.156794 0.001680 2.673452 0.7816 0.6290 0.3770
v -0.141326 0.001521 3.086777 0.7824 0.4879 0.2799
v -0.237785 0.001546 3.541480 0.7823 0.5172 0.2542
v -0.780546 0.010207 4.460506 0.7941 0.4268 0.2556
v -0.285101 0.294350 -3.206702 0.7665 0.7325 0.6529
v -0.662677 0.455177 -3.206530 0.8297 0.7870 0.6954
v -0.798316 0.902530 -3.204088 0.8252 0.7812 0.6922
v -0.434855 1.108910 -3.175865 0.7661 0.7300 0.6580
v -0.445475 1.363526 -3.142806 0.8087 0.7659 0.6738
v -0.211673 1.445656 -3.140867 0.8940 0.8413 0.7255
v -0.337946 1.604887 -3.135652 0.8924 0.8388 0.7210
v -0.201905 1.842168 -3.128068 0.8925 0.8383 0.7190
v -0.687705 2.275967 -3.110876 0.8935 0.8398 0.7188
v -0.176889 2.416830 -3.103293 0.8935 0.8405 0.7199
v -0.693198 2.509414 -3.097844 0.8927 0.8392 0.7205
v -0.764117 2.763350 -3.080481 0.8915 0.8390 0.7269
v -0.145589 3.116177 -3.063657 0.7951 0.7723 0.6923
v -0.425574 3.150534 -2.084196 0.7307 0.7340 0.6796
v -0.427304 3.152193 -1.811988 0.7337 0.7417 0.6890
v -0.427243 3.154314 -1.188620 0.7377 0.7440 0.6891
v -0.433259 3.155365 -0.465930 0.7386 0.7430 0.6864
v -0.444087 3.156840 0.173673 0.7166 0.7218 0.6685
v -0.440104 3.151968 0.820577 0.5020 0.5029 0.4747
v -0.445536 3.141689 1.764293 0.4670 0.4657 0.4387
v -0.440323 3.133424 2.241464 0.5610 0.5525 0.5183
v -0.440896 3.123004 2.854623 0.7133 0.7020 0.6548
v -0.444172 3.112571 3.551507 0.7269 0.7198 0.6834
v -0.190469 3.090927 4.569867 0.7145 0.7102 0.6830
v -0.040849 0.012854 -2.786640 0.7166 0.6655 0.5285
v -0.053223 0.022987 -1.973611 0.5561 0.5887 0.4036
v -0.125481 0.022904 -1.845894 0.6315 0.6643 0.4214
v -0.101915 0.032006 -0.699559 0.6298 0.6631 0.4174
v -0.071771 0.030948 -0.472165 0.6600 0.6764 0.4212
v -0.096483 0.013859 0.752705 0.6714 0.6526 0.3842
v -0.029644 0.013442 0.814354 0.5876 0.6530 0.4207
v -0.013312 0.003043 1.487200 0.7611 0.6893 0.3569
v 0.385810 0.001584 2.175629 0.7949 0.6732 0.3035
v 0.293054 0.001388 2.935696 0.7946 0.6146 0.2777
v 0.070444 0.001392 3.564942 0.8025 0.4096 0.2565
v -0.049739 0.009970 4.463623 0.8055 0.4602 0.2607
v 0.484740 0.294350 -3.206775 0.7892 0.7548 0.6730
v -0.058630 0.472103 -3.206849 0.8212 0.7794 0.6917
v 0.262131 0.908028 -3.206689 0.8283 0.7839 0.6928
v -0.090320 1.112078 -3.160010 0.8245 0.7857 0.7018
v 0.507929 1.260759 -3.145862 0.8790 0.8308 0.7243
v 0.338506 1.580117 -3.136928 0.8940 0.8402 0.7217
v 0.456802 1.605733 -3.136008 0.8929 0.8393 0.7204
v -0.043942 2.015558 -3.122068 0.8929 0.8391 0.7202
v 0.219309 2.276105 -3.110852 0.8930 0.8396 0.7193
v 0.463001 2.362737 -3.105882 0.8925 0.8397 0.7159
v 0.519597 2.601844 -3.089378 0.8916 0.8391 0.7190
v 0.220296 2.738947 -3.078579 0.8912 0.8389 0.7255
v 0.243582 3.118536 -3.056933 0.7599 0.7494 0.6804
v 0.490927 3.156132 -1.948699 0.7230 0.7281 0.6723
v 0.507540 3.157595 -1.689756 0.7424 0.7468 0.6899
v 0.516430 3.161167 -0.780547 0.7389 0.7456 0.6892
v 0.240489 3.159312 -0.534463 0.7319 0.7414 0.6844
v -0.072539 3.154794 0.205357 0.4828 0.4887 0.4525
v -0.127807 3.151084 0.817473 0.2660 0.2694 0.2514
v -0.120610 3.141994 1.487127 0.0022 0.0016 0.0037
v -0.062881 3.132290 2.268362 0.4002 0.3973 0.3815
v 0.531411 3.116602 3.127175 0.5952 0.5932 0.5663
v 0.167840 3.117319 3.505748 0.7146 0.7131 0.6839
v -0.112243 3.092873 4.570481 0.7064 0.7013 0.6832
v 0.540582 0.021124 -2.599740 0.6753 0.6570 0.5825
v 0.784639 0.032540 -2.549895 0.6091 0.6164 0.3879
v 0.609345 0.031119 -1.855821 0.6073 0.6503 0.4047
v 0.589858 0.015830 -0.828834 0.6075 0.6546 0.4151
v 0.535746 0.014359 -0.279031 0.6755 0.6778 0.4168
v 0.537196 0.012729 0.272675 0.5578 0.6368 0.4295
v 0.545806 0.008820 0.817471 0.6366 0.6415 0.3794
v 0.669473 0.002647 1.484083 0.6656 0.6629 0.3807
v 0.597921 0.001426 2.479226 0.7819 0.6537 0.3021
v 0.562029 0.001309 2.936482 0.7588 0.4789 0.2499
v 1.195829 0.000796 3.745609 0.7730 0.4302 0.2465
v 0.931494 0.000913 4.191059 0.7776 0.3513 0.2412
v 0.628502 0.296463 -3.206751 0.7942 0.7543 0.6692
v 1.185014 0.679483 -3.207426 0.8260 0.7824 0.6910
v 0.555854 0.905911 -3.206665 0.8261 0.7793 0.6893
v 0.626956 1.125990 -3.105784 0.8019 0.7598 0.6737
v 1.165686 1.231962 -3.146586 0.8251 0.7821 0.6761
v 1.177147 1.388842 -3.142671 0.8943 0.8407 0.7203
v 1.121330 1.808266 -3.129320 0.8944 0.8407 0.7207
v 1.167805 1.992467 -3.122878 0.8936 0.8399 0.7201
v 0.604863 2.274083 -3.110803 0.8937 0.8394 0.7179
v 0.638940 2.306794 -3.108680 0.8917 0.8400 0.7194
v 1.143277 2.541683 -3.092678 0.8908 0.8388 0.7184
v 0.540387 2.859102 -3.115331 0.8880 0.8362 0.7232
v 0.565122 3.119499 -3.070112 0.7541 0.7214 0.6372
v 1.192358 3.157474 -2.546004 0.7334 0.7389 0.6864
v 1.101539 3.160621 -1.818577 0.7357 0.7435 0.6891
v 1.180374 3.165068 -1.028201 0.7413 0.7441 0.6913
v 0.582672 3.162409 -0.201145 0.7375 0.7398 0.6877
v 0.623667 3.161875 0.237286 0.4907 0.4954 0.4598
v 0.635262 3.159866 1.015269 0.1428 0.1441 0.1361
v 0.786331 3.158703 1.502000 0.0012 0.0004 0.0018
v 0.660972 3.148341 2.226248 0.2837 0.2823 0.2699
v 0.558168 3.118928 3.019803 0.5807 0.5781 0.5500
v 0.605971 3.105899 3.884420 0.7113 0.7090 0.6759
v 0.703867 3.123000 4.777947 0.7076 0.7028 0.6809
v 1.405870 0.180684 -3.220715 0.6528 0.4881 0.4217
v 1.375154 0.017156 -2.521868 0.6223 0.4493 0.3161
v 1.208203 0.013784 -1.325688 0.6993 0.6010 0.3294
v 1.202016 0.012383 -0.866212 0.7861 0.6872 0.3287
v 1.202016 0.008086 0.094192 0.7964 0.6899 0.3263
v 1.202016 0.007890 0.185108 0.7003 0.6659 0.3617
v 1.312785 0.016026 0.812796 0.6235 0.6547 0.4047
v 1.779245 0.002438 1.995245 0.6955 0.6688 0.3738
v 1.859006 0.001759 2.708302 0.7900 0.6709 0.3084
v 1.835670 0.001451 2.867113 0.7613 0.5139 0.2615
v 1.791521 0.000454 3.845188 0.7538 0.5370 0.2587
v 1.607032 0.000000 4.173929 0.7390 0.5137 0.2423
v 1.202016 0.281650 -3.206738 0.8087 0.7664 0.6795
v 1.835817 0.675253 -3.206162 0.8245 0.7791 0.6866
v 1.311774 0.905911 -3.206873 0.8262 0.7801 0.6886
v 1.263850 1.138340 -3.096103 0.7697 0.7274 0.6452
v 1.817268 1.185243 -3.147641 0.8665 0.8158 0.7036
v 1.467898 1.594780 -3.136290 0.8941 0.8403 0.7196
v 1.840262 1.711764 -3.132105 0.8942 0.8403 0.7194
v 1.853306 2.031496 -3.167593 0.8941 0.8405 0.7213
v 1.854365 2.093062 -3.165164 0.8939 0.8397 0.7196
v 1.204330 2.302559 -3.108422 0.8925 0.8395 0.7183
v 1.216704 2.536923 -3.093268 0.8906 0.8396 0.7202
v 1.557366 2.750659 -3.074922 0.8864 0.8347 0.7222
v 1.864742 3.160658 -2.954825 0.7643 0.7297 0.6453
v 1.410474 3.165006 -1.933901 0.5720 0.5614 0.5134
v 1.402582 3.166902 -1.810074 0.7381 0.7476 0.6909
v 1.395079 3.171545 -1.201651 0.7352 0.7438 0.6882
v 1.421532 3.172437 -0.526671 0.7359 0.7401 0.6879
v 1.208203 3.154031 0.695977 0.6192 0.6218 0.5784
v 1.211297 3.151968 1.371939 0.2430 0.2431 0.2290
v 1.285516 3.164880 2.121637 0.2431 0.2455 0.2267
v 1.271181 3.154673 2.785782 0.3873 0.3923 0.3627
v 1.263228 3.142923 3.482384 0.6211 0.6231 0.5850
v 1.270122 3.139472 3.829716 0.7196 0.7247 0.6815
v 1.220565 3.132082 4.779285 0.7179 0.7222 0.6830
v 1.968764 0.203354 -3.207426 0.7068 0.3350 0.2684
v 2.483915 0.034887 -2.154584 0.7177 0.3136 0.2191
v 2.482758 0.033915 -1.771139 0.7936 0.5915 0.3024
v 2.454795 0.030769 -0.555313 0.8015 0.6861 0.3044
v 1.869821 0.023691 -0.229186 0.7996 0.6877 0.3104
v 1.962577 0.022303 0.464692 0.7968 0.6710 0.2862
v 1.882195 0.015272 1.023060 0.8015 0.6774 0.3053
v 2.527711 0.004731 2.135515 0.8077 0.6835 0.3139
v 2.005861 0.002463 2.637437 0.8166 0.6996 0.3311
v 2.530683 0.003960 2.899877 0.8080 0.6936 0.3179
v 1.905189 0.000542 4.105886 0.8018 0.6824 0.2995
v 1.968569 0.000804 4.234671 0.7767 0.5529 0.3168
v 1.944418 0.279537 -3.206886 0.8031 0.7606 0.6744
v 2.413971 0.480569 -3.206837 0.8261 0.7828 0.6889
v 2.531450 0.905911 -3.206971 0.8270 0.7817 0.6903
v 1.894556 1.136294 -3.089685 0.7824 0.7422 0.6641
v 2.415871 1.330244 -3.144524 0.7823 0.7424 0.6507
v 2.462663 1.476737 -3.140548 0.8927 0.8385 0.7180
v 2.463430 1.808049 -3.129259 0.8941 0.8376 0.7175
v 2.493342 1.837200 -3.128314 0.8940 0.8405 0.7207
v 2.499371 2.105758 -3.163593 0.8934 0.8403 0.7211
v 1.987312 2.302559 -3.108066 0.8919 0.8392 0.7147
v 1.953114 2.725722 -3.076444 0.8917 0.8391 0.7150
v 2.050692 2.748008 -3.074297 0.8849 0.8319 0.7220
v 2.432519 3.168428 -2.989123 0.7881 0.7585 0.6786
v 1.879296 3.169753 -2.328537 0.7193 0.7231 0.6672
v 1.932080 3.173329 -1.851022 0.7423 0.7508 0.6915
v 1.883620 3.176951 -1.191761 0.7380 0.7476 0.6907
v 2.472820 3.192393 0.130810 0.7275 0.7346 0.6795
v 2.438694 3.192848 0.780083 0.5652 0.5684 0.5278
v 1.959483 3.186754 1.476304 0.3576 0.3592 0.3389
v 2.254741 3.190822 2.128902 0.4734 0.4789 0.4422
v 1.968764 3.186821 2.273749 0.6676 0.6717 0.6207
v 2.390587 3.192631 2.905916 0.6430 0.6504 0.6037
v 2.509808 3.151509 3.558710 0.7249 0.7323 0.6859
v 2.490346 3.141385 4.430652 0.7257 0.7337 0.6879
v 2.451263 3.192994 0.750497 0.7409 0.7488 0.6901
v 2.383048 3.193064 1.329886 0.2416 0.2423 0.2274
v 2.401597 3.193110 1.697072 0.1210 0.1235 0.1126
v 2.528771 3.194477 2.509562 0.3260 0.3331 0.3049
v 2.475804 3.193698 2.917009 0.4473 0.4561 0.4192
v 2.582469 0.015430 -2.976657 0.7426 0.5866 0.5127
v 3.191143 0.039471 -2.465409 0.7636 0.4444 0.2569
v 2.609701 0.035074 -1.866865 0.8042 0.6338 0.2942
v 3.180706 0.037717 -1.015734 0.8064 0.6864 0.3033
v 2.605658 0.031560 -0.378708 0.7971 0.6789 0.2894
v 2.623427 0.028063 0.463906 0.7967 0.6740 0.2843
v 2.538112 0.017581 1.247730 0.7924 0.6670 0.2917
v 2.927429 0.017856 2.147000 0.7871 0.6660 0.2921
v 2.557148 0.004235 2.736918 0.8028 0.6817 0.3104
v 2.646226 0.004389 2.901435 0.8078 0.6831 0.2940
v 2.982844 0.004739 3.558709 0.8036 0.6837 0.2978
v 2.545748 0.002467 4.218706 0.7908 0.6736 0.2895
v 2.628457 0.411796 -3.205990 0.7756 0.7389 0.6592
v 2.684493 0.480569 -3.207180 0.8280 0.7848 0.6901
v 2.780330 0.905911 -3.206922 0.8263 0.7829 0.6936
v 2.562373 1.128279 -3.102508 0.7951 0.7563 0.6748
v 3.168344 1.182092 -3.147997 0.8641 0.8179 0.7142
v 3.177710 1.541909 -3.137665 0.8923 0.8382 0.7188
v 3.183799 1.790456 -3.128584 0.8932 0.8381 0.7183
v 3.171900 1.952825 -3.123123 0.8940 0.8407 0.7218
v 3.029027 2.084468 -3.118055 0.8945 0.8405 0.7228
v 3.150563 2.302559 -3.153187 0.8924 0.8392 0.7169
v 3.028053 2.727372 -3.074161 0.8911 0.8388 0.7141
v 2.553872 2.773929 -3.070848 0.8790 0.8286 0.7244
v 3.032304 3.173362 -2.991921 0.8033 0.7742 0.6902
v 3.193470 3.184458 -1.975168 0.6888 0.6913 0.6405
v 3.194627 3.184512 -1.872766 0.6389 0.6443 0.5887
v 2.552934 3.175767 -1.048448 0.6954 0.7022 0.6481
v 3.023035 3.184066 -0.525898 0.7147 0.7207 0.6659
v 2.976657 3.184828 0.147732 0.6899 0.6932 0.6481
v 2.974319 3.183999 0.808122 0.6817 0.6873 0.6399
v 2.954394 3.178285 2.142142 0.7096 0.7156 0.6597
v 2.947537 3.175025 2.804864 0.6830 0.6903 0.6344
v 2.947366 3.172883 3.029154 0.6908 0.6982 0.6475
v 2.942337 3.164763 3.613218 0.7264 0.7326 0.6852
v 2.944115 3.156723 4.250244 0.7250 0.7345 0.6848
v 2.867289 3.193098 -1.281683 0.6233 0.6267 0.5764
v 2.927247 3.193881 -0.597929 0.4760 0.4751 0.4309
v 2.925030 3.194652 0.071799 0.6732 0.6777 0.6256
v 2.925359 3.193515 0.778524 0.6908 0.6964 0.6461
v 2.911475 3.196578 0.881331 0.1249 0.1256 0.1191
v 2.907663 3.194256 1.529646 0.0971 0.1000 0.0919
v 2.877726 3.199325 2.225463 0.2781 0.2853 0.2609
v 2.874937 3.198791 2.842266 0.3224 0.3276 0.3016
v 3.329668 0.014009 -2.998082 0.7320 0.6388 0.5614
v 3.259602 0.039346 -2.523623 0.7407 0.4376 0.2693
v 3.239641 0.038596 -1.751284 0.8112 0.6535 0.3101
v 3.361785 0.037229 -1.038693 0.8160 0.6944 0.3111
v 3.472883 0.033869 0.093223 0.8065 0.6854 0.2955
v 3.271148 0.032677 0.510634 0.8015 0.6778 0.2898
v 3.200802 0.018285 0.847106 0.8018 0.6770 0.2944
v 3.279844 0.019123 2.057250 0.8084 0.6882 0.3115
v 3.263414 0.006719 2.713161 0.8082 0.6875 0.3108
v 3.246607 0.006440 2.886134 0.8139 0.6958 0.3174
v 3.344576 0.005869 3.558709 0.7924 0.6722 0.2874
v 3.556358 0.005744 4.211306 0.7919 0.6694 0.2746
v 3.463602 0.453060 -3.205867 0.7692 0.7321 0.6525
v 3.242539 0.601187 -3.206015 0.8203 0.7786 0.6871
v 3.278870 0.857241 -3.206247 0.8253 0.7828 0.6939
v 3.357230 1.120626 -3.148672 0.8150 0.7748 0.6874
v 3.727389 1.354673 -3.143285 0.8567 0.8126 0.7142
v 3.754366 1.393598 -3.142205 0.8930 0.8400 0.7207
v 3.511088 1.807053 -3.128829 0.8941 0.8412 0.7228
v 3.604271 1.856056 -3.127001 0.8923 0.8395 0.7187
v 3.242831 2.054608 -3.119258 0.8931 0.8400 0.7201
v 3.815091 2.339184 -3.103771 0.8921 0.8389 0.7188
v 3.319060 2.708858 -3.075389 0.8902 0.8369 0.7157
v 3.210277 2.777634 -3.069425 0.8732 0.8241 0.7204
v 3.219168 3.175476 -3.004535 0.7574 0.7314 0.6538
v 3.226511 3.184904 -1.950638 0.7207 0.7310 0.6792
v 3.236364 3.185045 -1.873932 0.7310 0.7404 0.6874
v 3.816833 3.192635 -1.113668 0.7336 0.7415 0.6885
v 3.284448 3.188125 -0.165265 0.7354 0.7438 0.6889
v 3.269455 3.185912 0.792550 0.7319 0.7411 0.6840
v 3.223613 3.182173 0.963878 0.7279 0.7379 0.6787
v 3.294909 3.178564 1.490318 0.7215 0.7320 0.6711
v 3.833396 3.172145 2.764468 0.7214 0.7312 0.6739
v 3.860884 3.169023 3.097675 0.7260 0.7358 0.6835
v 3.299452 3.150946 3.940646 0.7254 0.7349 0.6849
v 3.865135 3.150909 4.536833 0.7229 0.7359 0.6849
v 3.846781 3.193019 -3.032746 0.0012 0.0000 0.0000
v 3.856244 3.193239 -1.020408 0.7290 0.7446 0.6886
v 3.826880 3.193948 -0.173118 0.7294 0.7451 0.6889
v 3.861079 3.192943 0.459232 0.7333 0.7451 0.6863
v 4.092762 0.037071 -2.570142 0.7077 0.5499 0.4791
v 3.875572 0.036850 -2.230603 0.7336 0.3900 0.2617
v 3.935956 0.035216 -1.394529 0.7853 0.4733 0.2720
v 4.247644 0.033261 -0.646990 0.8037 0.5898 0.2942
v 3.876632 0.032898 0.106218 0.8173 0.6927 0.3218
v 3.909199 0.032698 0.183354 0.8179 0.6909 0.3211
v 3.925811 0.018344 0.859119 0.8117 0.6860 0.3061
v 4.507911 0.013917 1.496611 0.8155 0.6908 0.3063
v 3.922718 0.020853 2.368763 0.8181 0.6949 0.3122
v 3.891807 0.019456 3.402953 0.8164 0.6926 0.3068
v 3.891807 0.019244 3.530669 0.8120 0.6881 0.3029
v 3.902622 0.006119 4.633393 0.8019 0.6739 0.2768
v 3.957696 0.453060 -3.205966 0.7587 0.7186 0.6403
v 4.042523 0.639278 -3.205671 0.8193 0.7788 0.6902
v 4.491591 0.698531 -3.206886 0.8270 0.7842 0.6965
v 3.880980 1.125990 -3.147175 0.8152 0.7731 0.6880
v 4.510152 1.355590 -3.143579 0.8414 0.7970 0.6945
v 4.474589 1.584660 -3.136806 0.8916 0.8391 0.7227
v 3.897750 1.789572 -3.129345 0.8888 0.8351 0.7183
v 4.105136 1.840184 -3.127602 0.8861 0.8322 0.7187
v 3.984551 2.090415 -3.117454 0.8883 0.8347 0.7158
v 4.479229 2.503591 -3.091832 0.8872 0.8330 0.7147
v 4.479229 2.515232 -3.091145 0.8763 0.8208 0.7081
v 3.893354 2.751976 -3.071204 0.8674 0.8171 0.7170
v 3.892964 3.179339 -2.969649 0.7838 0.7550 0.6783
v 3.898371 3.191477 -2.238787 0.7196 0.7280 0.6776
v 3.893878 3.192239 -1.795876 0.7339 0.7366 0.6905
v 3.953640 3.181894 -0.568724 0.7356 0.7377 0.6918
v 4.177017 3.183553 0.133130 0.7391 0.7417 0.6932
v 3.877314 3.192189 0.741540 0.6520 0.6563 0.6050
v 3.906495 3.189084 1.072906 0.7137 0.7245 0.6671
v 3.978376 3.185870 1.580657 0.7315 0.7440 0.6839
v 4.173144 3.182582 2.197436 0.7308 0.7435 0.6835
v 4.435945 3.178943 2.846917 0.7277 0.7378 0.6882
v 3.890358 3.160537 3.838097 0.7257 0.7360 0.6874
v 4.491591 3.163759 4.196509 0.7228 0.7372 0.6858
v 4.148421 3.193569 -2.578718 0.3473 0.3428 0.3223
v 4.115208 3.193348 -2.506381 0.7231 0.7359 0.6867
v 4.405022 3.196441 -1.816307 0.7266 0.7394 0.6883
v 4.152866 3.195436 -1.155623 0.7277 0.7415 0.6889
v 3.941266 3.194948 -0.173118 0.7282 0.7413 0.6840
v 3.990738 3.193440 0.650808 0.7260 0.7374 0.6796
v 4.325614 3.193323 1.132090 0.7037 0.7165 0.6646
v 4.624538 0.197373 -3.151102 0.5378 0.3426 0.2962
v 5.200525 0.002322 -2.492074 0.6559 0.2889 0.2333
v 5.199611 0.001259 -1.689107 0.7657 0.3700 0.2503
v 5.198089 0.002322 -1.134113 0.7901 0.4826 0.2755
v 5.197102 0.002322 -0.535152 0.8174 0.6886 0.3196
v 5.195921 0.000367 0.175770 0.8211 0.6950 0.3283
v 5.195421 0.000788 0.839265 0.8219 0.6919 0.3181
v 5.196103 0.023483 2.099303 0.8191 0.6891 0.3016
v 5.195616 0.023483 2.621079 0.8198 0.6917 0.2984
v 4.552170 0.021907 3.451043 0.8178 0.6905 0.3005
v 4.635366 0.021544 3.965996 0.8196 0.6933 0.3077
v 4.542609 0.020473 4.200410 0.8198 0.6924 0.2953
v 4.599803 0.448825 -3.206824 0.3276 0.3101 0.2771
v 4.619131 0.677370 -3.206137 0.1424 0.1340 0.1198
v 5.172573 0.893081 -2.683845 0.4407 0.4158 0.3692
v 5.173243 0.942943 -2.696313 0.6262 0.5909 0.5246
v 4.694105 1.352547 -3.143432 0.5830 0.5473 0.4802
v 4.566566 1.589820 -3.136229 0.8863 0.8328 0.7162
v 4.934460 1.712226 -3.123663 0.8850 0.8305 0.7212
v 4.597001 1.916034 -3.125086 0.8841 0.8289 0.7195
v 4.674582 2.067933 -3.118387 0.8798 0.8236 0.7088
v 4.845431 2.507297 -3.083684 0.8750 0.8174 0.7060
v 4.845078 2.719944 -3.064185 0.8699 0.8131 0.7052
v 4.884196 2.950657 -2.973465 0.8677 0.8141 0.7115
v 5.001725 3.187725 -2.781191 0.7770 0.7407 0.6680
v 4.546093 3.184620 -2.508626 0.7158 0.7203 0.6746
v 5.086492 3.178639 -1.222893 0.6320 0.6321 0.5952
v 5.086966 3.174408 -0.906717 0.5850 0.5858 0.5502
v 5.086540 3.174408 -0.459708 0.4814 0.4815 0.4508
v 5.086199 3.174408 0.147732 0.4220 0.4220 0.3903
v 5.084664 3.176522 0.839266 0.4829 0.4875 0.4463
v 5.082960 3.174367 1.531573 0.6666 0.6773 0.6251
v 4.562218 3.186050 2.278903 0.4838 0.4888 0.4487
v 4.538749 3.177134 3.093785 0.5124 0.5144 0.4778
v 4.553425 3.171107 3.596087 0.5778 0.5793 0.5472
v 4.574056 3.164776 4.192545 0.6464 0.6469 0.6220
v 4.745111 3.198583 -2.576375 0.5227 0.5200 0.4921
v 4.578160 3.197358 -2.459567 0.5858 0.5884 0.5558
v 4.577003 3.197895 -1.712826 0.3663 0.3653 0.3468
v 4.617389 3.199512 -0.856283 0.4534 0.4604 0.4306
v 4.585114 3.199933 -0.522008 0.4031 0.4096 0.3793
v 4.626085 3.200000 0.199136 0.5395 0.5480 0.5061
v 5.192438 3.197991 1.134421 0.6507 0.6631 0.6105
v 5.193424 3.196632 1.593959 0.4460 0.4516 0.4142
v 5.193668 3.194219 2.245133 0.4144 0.4152 0.3828
v 5.193095 3.193064 2.878846 0.3280 0.3249 0.2985
v 5.193010 3.193927 3.524057 0.5527 0.5492 0.5301
v 5.189965 3.193452 4.620939 0.6013 0.5968 0.5742
v 5.227294 0.201241 -3.042074 0.2335 0.1003 0.0935
v 5.227148 0.392949 -2.778173 0.0041 0.0030 0.0041
v 5.227172 0.466418 -2.730574 0.0266 0.0236 0.0220
v 5.227124 0.702232 -2.727457 0.0340 0.0293 0.0280
v 5.222423 1.136569 -3.107490 0.1163 0.1032 0.0849
v 5.201681 1.164607 -3.054541 0.0775 0.0724 0.0670
f 211 170 171
f 211 171 212
f 169 1 170
f 1 2 170
f 171 172 212
f 212 172 213
f 2 3 170
f 170 3 171
f 172 4 173
f 4 5 173
f 171 3 172
f 3 4 172
f 173 5 6
f 173 6 174
f 213 214 250
f 249 213 250
f 285 249 286
f 286 249 250
f 172 173 214
f 213 172 214
f 173 174 215
f 173 215 214
f 248 212 213
f 248 213 249
f 211 210 247
f 210 246 247
f 3 2 171
f 2 170 171
f 2 169 170
f 1 169 2
f 169 210 211
f 170 169 211
f 247 246 283
f 246 282 283
f 213 212 249
f 212 248 249
f 212 211 248
f 211 247 248
f 171 212 213
f 248 247 284
f 171 170 212
f 172 171 213
f 170 211 212
f 5 172 173
f 5 4 172
f 390 354 402
f 354 366 402
f 282 294 330
f 318 282 330
f 318 330 354
f 354 330 366
f 246 258 282
f 282 258 294
f 492 491 532
f 491 531 532
f 448 447 491
f 448 491 492
f 371 407 372
f 372 407 408
f 335 334 371
f 334 370 371
f 407 370 406
f 371 370 407
f 496 495 535
f 408 407 448
f 449 408 448
f 450 494 451
f 495 451 494
f 494 450 495
f 450 449 494
f 494 449 493
f 495 494 535
f 494 534 535
f 496 535 536
f 448 407 447
f 407 406 447
f 533 532 575
f 533 575 576
f 532 531 575
f 575 531 574
f 492 532 533
f 534 533 577
f 577 533 576
f 493 533 494
f 534 494 533
f 408 449 409
f 450 409 449
f 493 492 533
f 449 448 492
f 449 492 493
f 537 536 579
f 580 537 579
f 535 534 578
f 579 536 578
f 536 535 578
f 534 577 578
f 493 494 534
f 533 493 534
f 493 450 494
f 449 450 493
f 535 495 536
f 410 373 374
f 410 409 373
f 451 450 410
f 450 409 410
f 495 451 496
f 495 496 536
f 298 334 335
f 299 298 335
f 263 262 299
f 262 298 299
f 264 263 299
f 264 299 300
f 190 189 228
f 189 227 228
f 228 227 264
f 264 227 263
f 233 232 268
f 233 268 269
f 196 194 232
f 196 232 233
f 232 231 267
f 232 267 268
f 193 232 194
f 232 193 231
f 268 267 303
f 268 303 304
f 145 133 194
f 145 194 196
f 266 302 303
f 231 230 266
f 231 266 267
f 266 265 301
f 266 301 302
f 266 303 267
f 303 302 338
f 339 303 338
f 230 229 265
f 230 265 266
f 453 452 496
f 453 496 497
f 453 411 452
f 453 412 411
f 191 229 230
f 192 191 230
f 193 192 231
f 192 230 231
f 339 375 340
f 340 375 376
f 303 339 304
f 304 339 340
f 412 375 411
f 376 375 412
f 237 200 236
f 335 371 372
f 336 335 372
f 538 498 537
f 498 497 537
f 157 145 198
f 198 145 196
f 302 337 338
f 300 299 335
f 300 335 336
f 300 336 301
f 229 228 264
f 229 264 265
f 265 264 300
f 265 300 301
f 302 301 337
f 301 336 337
f 452 410 451
f 411 410 452
f 338 337 374
f 337 373 374
f 452 451 495
f 452 495 496
f 336 372 373
f 373 337 336
f 373 372 409
f 372 408 409
f 374 373 409
f 374 409 410
f 375 374 410
f 375 410 411
f 190 228 191
f 191 228 229
f 339 338 375
f 375 338 374
f 538 537 581
f 537 580 581
f 376 412 377
f 377 412 413
f 454 453 498
f 453 497 498
f 413 453 454
f 413 412 453
f 496 536 497
f 497 536 537
f 15 27 28
f 16 15 28
f 17 4 16
f 4 3 16
f 16 3 15
f 28 27 39
f 28 39 40
f 2 1 14
f 1 13 14
f 2 14 15
f 3 2 15
f 52 39 51
f 40 39 52
f 39 38 51
f 38 50 51
f 27 26 38
f 27 38 39
f 38 37 49
f 38 49 50
f 498 539 538
f 498 499 539
f 538 539 582
f 581 538 582
f 376 340 341
f 376 341 377
f 305 306 342
f 305 342 341
f 233 194 196
f 232 194 233
f 196 145 157
f 196 157 198
f 268 232 269
f 232 233 269
f 305 268 269
f 305 304 268
f 305 269 270
f 305 270 306
f 269 233 270
f 233 234 270
f 341 340 304
f 341 304 305
f 377 378 414
f 377 414 413
f 377 341 378
f 341 342 378
f 196 198 233
f 234 233 198
f 109 121 193
f 109 193 192
f 302 267 303
f 374 338 339
f 375 374 339
f 302 266 267
f 339 302 303
f 338 302 339
f 267 266 230
f 230 231 267
f 133 145 196
f 194 133 196
f 193 121 133
f 193 133 194
f 231 193 194
f 230 192 193
f 231 194 232
f 230 193 231
f 454 455 499
f 498 454 499
f 454 414 455
f 454 413 414
f 451 452 496
f 551 499 539
f 500 456 457
f 500 457 501
f 551 552 595
f 551 539 552
f 539 500 540
f 499 500 539
f 539 540 552
f 500 455 456
f 455 500 499
f 553 501 541
f 500 501 541
f 500 541 540
f 540 541 553
f 552 540 553
f 594 551 595
f 553 595 552
f 596 595 553
f 512 502 554
f 554 501 502
f 553 501 554
f 380 381 417
f 416 380 417
f 416 379 380
f 415 378 379
f 414 378 415
f 455 415 456
f 414 415 455
f 415 379 416
f 203 162 163
f 203 163 204
f 203 161 162
f 202 161 203
f 201 161 202
f 201 160 161
f 202 203 238
f 239 238 203
f 272 236 237
f 272 237 273
f 237 238 273
f 273 238 274
f 236 200 201
f 237 236 201
f 238 239 275
f 274 238 275
f 275 276 312
f 311 275 312
f 203 204 240
f 239 203 240
f 201 202 238
f 158 159 200
f 199 158 200
f 159 201 200
f 201 159 160
f 276 239 240
f 275 239 276
f 237 201 238
f 315 279 316
f 279 280 316
f 278 315 314
f 278 279 315
f 243 208 244
f 243 207 208
f 208 209 245
f 244 208 245
f 244 245 281
f 280 244 281
f 207 166 208
f 165 166 206
f 206 166 207
f 279 242 243
f 242 279 278
f 243 244 279
f 279 244 280
f 205 164 165
f 205 165 206
f 242 206 207
f 242 207 243
f 240 204 241
f 313 277 314
f 277 278 314
f 241 242 278
f 241 278 277
f 240 241 277
f 276 240 277
f 241 205 242
f 205 206 242
f 312 313 348
f 348 313 349
f 276 277 313
f 312 276 313
f 205 163 164
f 204 163 205
f 204 205 241
f 342 343 379
f 378 343 379
f 342 343 378
f 379 343 380
f 343 344 380
f 306 307 342
f 342 307 343
f 344 307 308
f 343 307 344
f 344 345 381
f 380 344 381
f 344 308 309
f 344 309 345
f 381 346 382
f 381 345 346
f 273 274 310
f 309 273 310
f 345 310 346
f 345 309 310
f 272 308 307
f 307 271 272
f 270 235 271
f 270 234 235
f 270 271 306
f 306 271 307
f 309 272 273
f 308 272 309
f 272 235 236
f 271 235 272
f 234 198 199
f 234 199 235
f 199 200 235
f 235 200 236
f 311 274 275
f 310 274 311
f 346 310 311
f 346 311 347
f 199 157 158
f 198 157 199
f 283 248 284
f 248 283 247
f 318 282 283
f 319 318 283
f 283 284 320
f 319 283 320
f 210 170 211
f 210 169 170
f 354 318 319
f 354 319 355
f 477 432 433
f 476 432 477
f 431 432 476
f 475 431 476
f 515 475 476
f 515 476 516
f 431 390 391
f 431 391 432
f 354 355 391
f 390 354 391
f 476 477 517
f 516 476 517
f 478 433 434
f 477 433 478
f 433 391 392
f 432 391 433
f 248 249 285
f 284 248 285
f 86 74 87
f 74 75 87
f 75 63 64
f 75 64 76
f 88 76 77
f 88 77 89
f 87 75 76
f 87 76 88
f 76 64 77
f 64 65 77
f 109 97 110
f 97 98 110
f 86 87 99
f 97 85 98
f 85 86 98
f 98 86 99
f 492 493 532
f 532 493 533
f 531 491 492
f 531 492 532
f 406 407 448
f 447 406 448
f 576 534 577
f 576 533 534
f 262 227 263
f 298 262 263
f 298 263 299
f 187 189 227
f 187 227 226
f 262 226 227
f 263 227 228
f 264 263 228
f 264 265 301
f 189 73 190
f 190 73 85
f 85 97 191
f 190 85 191
f 191 97 109
f 191 109 192
f 187 61 73
f 189 187 73
f 73 74 85
f 73 62 74
f 73 61 62
f 74 62 63
f 74 63 75
f 85 74 86
f 226 185 187
f 225 185 226
f 225 226 261
f 261 226 262
f 297 261 262
f 297 262 298
f 297 298 333
f 333 298 334
f 300 264 301
f 372 336 337
f 372 337 373
f 372 371 336
f 335 336 371
f 335 299 336
f 336 299 300
f 258 222 223
f 258 223 259
f 222 181 182
f 222 182 223
f 530 531 574
f 573 530 574
f 490 491 530
f 530 491 531
f 576 532 533
f 576 575 532
f 37 49 185
f 183 37 185
f 182 25 37
f 182 37 183
f 223 182 183
f 223 183 224
f 49 61 187
f 185 49 187
f 445 446 490
f 489 445 490
f 404 405 446
f 445 404 446
f 260 261 296
f 296 261 297
f 183 185 225
f 224 183 225
f 224 225 261
f 224 261 260
f 332 296 297
f 332 297 333
f 404 368 369
f 404 369 405
f 368 332 369
f 332 333 369
f 259 223 224
f 259 224 260
f 259 260 295
f 295 260 296
f 528 489 529
f 528 488 489
f 403 445 444
f 403 404 445
f 404 403 368
f 403 367 368
f 367 331 332
f 367 332 368
f 331 295 296
f 331 296 332
f 444 445 489
f 488 444 489
f 529 530 573
f 572 529 573
f 530 489 490
f 529 489 530
f 571 528 529
f 571 529 572
f 370 369 406
f 369 405 406
f 334 369 370
f 334 333 369
f 446 405 447
f 446 447 491
f 490 446 491
f 405 406 447
f 369 370 405
f 405 370 406
f 431 443 487
f 431 402 443
f 431 390 402
f 294 295 331
f 294 258 259
f 294 259 295
f 570 527 528
f 570 528 571
f 527 487 528
f 487 488 528
f 330 294 331
f 487 402 443
f 402 403 444
f 443 402 444
f 402 366 403
f 443 444 488
f 487 443 488
f 366 367 403
f 366 330 331
f 366 331 367
f 278 277 313
f 278 313 314
f 276 312 277
f 277 312 313
f 305 304 340
f 305 340 341
f 274 310 275
f 275 310 311
f 347 346 383
f 383 346 382
f 348 347 383
f 273 309 274
f 274 309 310
f 312 311 348
f 311 347 348
f 381 380 416
f 381 416 417
f 416 415 457
f 457 415 456
f 158 198 199
f 200 199 236
f 236 199 235
f 236 235 271
f 236 271 272
f 273 272 308
f 273 308 309
f 308 343 344
f 308 307 343
f 379 342 378
f 271 270 307
f 308 271 307
f 306 307 270
f 272 271 308
f 342 341 377
f 342 377 378
f 157 198 158
f 454 498 455
f 455 498 499
f 414 413 455
f 413 454 455
f 345 381 382
f 346 345 382
f 309 308 345
f 345 308 344
f 456 414 455
f 415 414 456
f 499 498 538
f 499 538 539
f 539 538 581
f 539 581 582
f 540 539 583
f 583 539 582
f 500 499 540
f 540 499 539
f 62 49 50
f 61 49 62
f 65 66 78
f 77 65 78
f 63 51 52
f 63 52 64
f 62 50 51
f 62 51 63
f 252 288 289
f 289 288 324
f 289 324 325
f 253 252 289
f 283 282 319
f 319 282 318
f 398 362 397
f 362 361 397
f 362 399 363
f 362 398 399
f 399 439 440
f 399 398 439
f 398 397 439
f 440 484 441
f 441 484 485
f 440 439 484
f 439 483 484
f 255 292 256
f 255 291 292
f 218 254 255
f 219 218 255
f 255 254 291
f 254 290 291
f 290 289 326
f 326 289 325
f 291 326 327
f 254 253 289
f 254 289 290
f 291 290 326
f 253 216 252
f 249 248 284
f 249 284 285
f 250 249 285
f 286 250 285
f 214 213 249
f 214 249 250
f 247 283 284
f 215 251 216
f 175 215 216
f 6 5 174
f 5 173 174
f 251 286 287
f 251 250 286
f 174 215 175
f 214 251 215
f 251 214 250
f 284 283 319
f 284 319 320
f 288 287 324
f 324 287 323
f 252 251 287
f 288 252 287
f 216 251 252
f 287 322 323
f 287 286 322
f 323 322 358
f 359 323 358
f 322 321 358
f 358 321 357
f 321 320 357
f 357 320 356
f 285 284 320
f 285 320 321
f 286 285 321
f 286 321 322
f 176 218 177
f 176 217 218
f 217 253 218
f 218 253 254
f 217 216 253
f 178 177 219
f 177 218 219
f 280 279 315
f 280 315 316
f 279 314 315
f 279 278 314
f 281 316 317
f 280 316 281
f 243 278 279
f 242 278 243
f 167 166 207
f 166 165 207
f 165 206 207
f 167 207 208
f 165 164 206
f 164 163 204
f 164 204 205
f 164 205 206
f 200 237 201
f 238 237 274
f 237 273 274
f 160 159 200
f 160 200 201
f 238 274 239
f 239 274 275
f 162 161 202
f 162 202 203
f 203 239 204
f 204 239 240
f 355 319 320
f 355 320 356
f 365 364 401
f 364 400 401
f 364 399 400
f 363 399 364
f 326 362 363
f 327 326 363
f 328 327 363
f 328 363 364
f 329 328 364
f 329 364 365
f 482 438 483
f 439 483 438
f 396 397 437
f 437 397 438
f 438 397 439
f 396 360 397
f 360 361 397
f 523 484 524
f 523 483 484
f 398 362 363
f 398 363 399
f 400 399 441
f 399 440 441
f 401 400 442
f 400 441 442
f 174 7 175
f 6 7 174
f 442 441 485
f 442 485 486
f 292 291 327
f 292 327 328
f 567 524 568
f 485 441 486
f 485 486 526
f 525 485 526
f 524 484 485
f 524 485 525
f 525 526 569
f 568 525 569
f 568 524 525
f 358 322 359
f 359 322 323
f 287 251 288
f 286 287 323
f 251 252 288
f 322 286 323
f 359 323 360
f 360 323 324
f 214 215 250
f 250 215 251
f 322 285 286
f 321 285 322
f 174 175 216
f 174 216 215
f 177 176 8
f 217 176 177
f 217 177 218
f 8 9 177
f 358 359 394
f 394 359 395
f 395 396 437
f 436 395 437
f 396 359 360
f 359 396 395
f 360 324 325
f 360 325 361
f 325 326 362
f 325 362 361
f 290 254 255
f 290 255 291
f 217 175 176
f 216 175 217
f 252 217 253
f 216 217 252
f 288 289 325
f 324 288 325
f 325 289 290
f 325 290 326
f 436 394 395
f 486 441 442
f 440 400 441
f 440 399 400
f 364 365 400
f 400 365 401
f 327 291 328
f 291 292 328
f 363 327 364
f 327 328 364
f 364 328 365
f 478 434 479
f 434 435 479
f 479 435 436
f 479 436 480
f 435 394 436
f 434 393 435
f 435 393 394
f 433 392 393
f 393 434 433
f 519 479 480
f 518 478 479
f 517 477 478
f 517 478 518
f 518 479 519
f 519 480 520
f 393 358 394
f 391 355 392
f 320 321 356
f 356 321 357
f 392 355 356
f 393 357 358
f 356 357 393
f 356 393 392
f 320 284 321
f 321 284 285
f 539 511 551
f 551 511 499
f 539 499 511
f 317 316 353
f 316 352 353
f 348 349 384
f 384 349 385
f 421 386 422
f 421 385 386
f 384 385 420
f 420 385 421
f 419 383 384
f 419 384 420
f 383 348 384
f 470 419 426
f 427 419 420
f 471 420 427
f 419 427 470
f 470 427 471
f 347 311 312
f 347 312 348
f 315 316 351
f 351 316 352
f 458 459 469
f 468 458 469
f 457 468 458
f 457 467 468
f 459 418 469
f 349 350 386
f 385 349 386
f 350 351 386
f 386 351 387
f 313 314 350
f 349 313 350
f 350 314 315
f 350 315 351
f 351 352 388
f 387 351 388
f 352 353 389
f 388 352 389
f 555 503 513
f 512 502 503
f 512 503 555
f 459 470 460
f 459 469 470
f 503 458 459
f 502 458 503
f 459 468 469
f 458 468 459
f 457 458 501
f 501 458 502
f 554 555 598
f 512 555 554
f 553 554 597
f 596 553 597
f 556 504 514
f 503 504 556
f 555 503 556
f 459 460 504
f 503 459 504
f 549 550 593
f 592 549 593
f 463 464 507
f 507 464 508
f 464 465 509
f 508 464 509
f 508 509 549
f 548 508 549
f 506 462 463
f 506 463 507
f 505 462 506
f 461 462 505
f 545 505 506
f 545 506 546
f 546 506 547
f 506 507 547
f 547 548 590
f 507 508 547
f 547 508 548
f 418 382 383
f 418 383 419
f 418 419 426
f 469 418 426
f 465 466 510
f 509 465 510
f 509 510 550
f 549 509 550
f 463 473 464
f 463 472 473
f 463 462 472
f 471 427 472
f 461 472 462
f 464 473 474
f 421 422 429
f 428 421 429
f 472 428 429
f 472 429 473
f 427 428 472
f 471 472 461
f 470 471 461
f 460 470 461
f 420 421 427
f 427 421 428
f 469 426 470
f 460 461 505
f 504 460 505
f 544 504 556
f 459 417 418
f 458 417 459
f 418 381 382
f 417 381 418
f 456 416 457
f 456 415 416
f 457 417 458
f 457 416 417
f 467 457 458
f 467 458 468
f 382 346 347
f 382 347 383
f 422 386 423
f 423 386 387
f 430 423 474
f 422 423 429
f 429 423 430
f 429 430 474
f 473 429 474
f 423 464 474
f 423 387 388
f 423 388 424
f 423 424 464
f 464 424 465
f 465 424 466
f 424 425 466
f 425 388 389
f 388 425 424
f 89 77 78
f 208 166 167
f 208 167 209
f 167 168 209
f 136 123 124
f 135 123 136
f 136 124 125
f 137 136 125
f 134 122 123
f 123 135 134
f 148 135 136
f 147 135 148
f 157 146 158
f 159 147 160
f 160 147 148
f 146 134 135
f 146 135 147
f 146 147 159
f 158 146 159
f 109 110 121
f 145 146 157
f 133 134 145
f 145 134 146
f 121 122 133
f 122 134 133
f 121 110 122
f 111 100 112
f 123 111 124
f 111 112 124
f 112 125 124
f 125 112 113
f 99 100 111
f 110 111 123
f 110 123 122
f 110 98 111
f 149 136 137
f 149 148 136
f 160 148 149
f 160 149 161
f 139 138 127
f 139 126 138
f 138 126 127
f 137 125 138
f 138 125 126
f 114 115 126
f 126 115 127
f 100 89 101
f 113 114 126
f 125 113 126
f 113 101 102
f 113 102 114
f 112 101 113
f 112 100 101
f 151 139 140
f 151 140 152
f 163 162 151
f 151 162 150
f 161 149 150
f 161 150 162
f 151 152 164
f 163 151 164
f 152 153 164
f 164 153 165
f 150 138 151
f 138 139 151
f 165 153 154
f 165 154 166
f 166 154 155
f 166 155 167
f 152 140 141
f 152 141 153
f 141 142 153
f 142 154 153
f 150 137 138
f 149 137 150
f 94 95 106
f 94 82 95
f 106 95 107
f 131 118 119
f 118 131 130
f 130 143 142
f 140 128 129
f 141 140 129
f 139 128 140
f 139 127 128
f 141 129 130
f 141 130 142
f 118 106 107
f 118 107 119
f 89 78 90
f 91 78 79
f 90 78 91
f 91 102 90
f 102 91 103
f 89 90 101
f 101 90 102
f 114 102 103
f 114 103 115
f 131 119 120
f 131 120 132
f 142 143 155
f 154 142 155
f 130 131 143
f 155 143 156
f 143 144 156
f 131 132 144
f 143 131 144
f 119 107 108
f 119 108 120
f 155 156 168
f 167 155 168
f 95 82 83
f 107 95 96
f 96 83 84
f 96 95 83
f 70 71 82
f 82 71 83
f 107 96 108
f 87 88 100
f 99 87 100
f 98 99 111
f 100 88 89
f 610 573 611
f 573 574 611
f 574 573 610
f 574 610 611
f 530 572 573
f 530 529 572
f 490 529 530
f 489 529 490
f 406 405 446
f 406 446 447
f 531 491 490
f 531 490 530
f 14 25 26
f 14 13 25
f 14 26 27
f 15 14 27
f 26 37 38
f 26 25 37
f 368 404 445
f 367 403 444
f 259 295 331
f 260 259 296
f 368 367 404
f 367 403 404
f 332 331 368
f 368 331 367
f 259 331 296
f 404 403 444
f 404 444 445
f 488 528 529
f 488 529 489
f 367 402 403
f 366 402 367
f 367 330 366
f 331 330 367
f 445 489 446
f 446 489 490
f 405 445 446
f 405 404 445
f 369 368 405
f 333 332 368
f 333 368 369
f 368 404 405
f 294 318 330
f 25 13 182
f 13 181 182
f 182 181 223
f 181 222 223
f 183 37 25
f 25 182 183
f 488 527 528
f 487 527 488
f 443 431 475
f 443 475 487
f 570 527 558
f 487 475 515
f 487 515 527
f 527 515 558
f 297 296 333
f 296 332 333
f 282 318 294
f 222 210 246
f 222 246 258
f 282 246 318
f 1 169 13
f 13 169 181
f 181 169 210
f 181 210 222
f 366 318 354
f 330 318 366
f 155 154 167
f 154 166 167
f 96 95 108
f 95 107 108
f 108 107 120
f 107 119 120
f 144 143 155
f 144 155 156
f 156 197 209
f 168 156 209
f 144 195 197
f 156 144 197
f 137 148 149
f 136 148 137
f 135 134 147
f 123 122 135
f 122 134 135
f 124 123 135
f 124 135 136
f 124 136 137
f 125 124 137
f 148 147 159
f 134 146 147
f 147 158 159
f 147 146 158
f 16 28 17
f 17 28 29
f 18 17 30
f 17 29 30
f 5 4 17
f 43 42 54
f 43 54 55
f 85 189 190
f 61 187 189
f 73 61 189
f 189 226 227
f 187 226 189
f 227 226 263
f 263 226 262
f 85 73 189
f 29 28 40
f 29 40 41
f 30 29 42
f 42 29 41
f 30 42 31
f 31 42 43
f 40 52 53
f 41 40 53
f 42 41 54
f 54 41 53
f 194 133 121
f 121 193 194
f 97 191 192
f 109 97 192
f 121 192 193
f 121 109 192
f 153 166 154
f 153 165 166
f 148 159 160
f 151 150 163
f 163 150 162
f 140 152 153
f 153 141 140
f 152 151 163
f 152 163 164
f 143 142 154
f 143 154 155
f 137 149 138
f 138 149 150
f 66 65 77
f 66 77 78
f 90 103 91
f 90 102 103
f 67 78 79
f 67 66 78
f 78 77 90
f 77 89 90
f 89 101 102
f 90 89 102
f 87 86 98
f 87 98 99
f 112 123 124
f 111 123 112
f 63 75 76
f 64 63 76
f 101 88 100
f 101 89 88
f 126 125 137
f 138 126 137
f 140 127 139
f 128 127 140
f 50 62 63
f 50 63 51
f 53 64 65
f 52 64 53
f 66 54 65
f 53 65 54
f 262 226 225
f 262 225 261
f 334 298 297
f 334 297 333
f 49 61 50
f 50 61 62
f 74 73 86
f 86 73 85
f 67 79 91
f 56 67 68
f 56 55 67
f 68 55 56
f 67 55 68
f 116 115 127
f 115 102 114
f 103 102 115
f 68 79 80
f 92 79 91
f 80 79 92
f 67 79 68
f 92 91 103
f 92 103 104
f 94 93 105
f 94 105 106
f 104 116 117
f 105 104 117
f 106 117 118
f 106 105 117
f 104 115 116
f 104 103 115
f 93 92 105
f 105 92 104
f 70 69 82
f 69 81 82
f 82 81 94
f 94 81 93
f 45 57 58
f 58 57 69
f 58 69 70
f 81 80 92
f 81 92 93
f 69 80 81
f 68 80 69
f 107 106 119
f 106 118 119
f 131 142 143
f 131 130 142
f 129 128 141
f 128 140 141
f 55 66 67
f 54 66 55
f 117 129 130
f 117 130 118
f 46 45 58
f 117 116 128
f 116 127 128
f 117 128 129
f 34 33 46
f 57 56 69
f 56 68 69
f 56 44 55
f 55 44 43
f 32 31 44
f 44 31 43
f 20 19 31
f 20 31 32
f 33 32 44
f 33 44 45
f 8 7 20
f 7 19 20
f 33 20 32
f 21 20 33
f 22 21 34
f 34 21 33
f 46 33 45
f 10 9 22
f 9 21 22
f 9 8 20
f 9 20 21
f 45 44 57
f 44 56 57
f 179 178 220
f 220 178 219
f 221 220 257
f 220 256 257
f 219 255 220
f 220 255 256
f 256 292 257
f 293 257 292
f 293 292 329
f 292 328 329
f 11 10 179
f 10 178 179
f 10 9 177
f 10 177 178
f 218 177 178
f 219 218 178
f 219 178 179
f 180 11 12
f 179 11 180
f 220 180 221
f 179 180 220
f 219 179 220
f 256 219 220
f 255 219 256
f 46 34 35
f 180 179 221
f 179 220 221
f 220 221 256
f 257 256 221
f 293 256 257
f 293 292 256
f 291 255 256
f 291 256 292
f 48 36 184
f 35 23 36
f 23 24 36
f 46 35 47
f 47 35 36
f 47 36 48
f 328 329 365
f 186 60 188
f 60 72 188
f 71 72 60
f 12 11 24
f 11 23 24
f 23 35 24
f 24 35 36
f 47 46 59
f 46 58 59
f 60 59 71
f 48 47 59
f 48 59 60
f 59 58 71
f 58 70 71
f 70 58 59
f 70 59 71
f 71 72 83
f 72 84 83
f 71 70 83
f 70 82 83
f 71 83 84
f 84 72 71
f 583 582 594
f 583 594 595
f 582 539 551
f 582 551 594
f 584 583 595
f 315 314 351
f 350 387 351
f 350 386 387
f 314 350 351
f 464 422 463
f 423 422 464
f 502 541 542
f 501 541 502
f 457 456 501
f 456 500 501
f 418 458 459
f 417 458 418
f 352 351 387
f 425 465 466
f 352 388 353
f 353 388 389
f 352 387 388
f 389 388 424
f 389 424 425
f 423 464 465
f 424 423 465
f 424 465 425
f 388 387 424
f 424 387 423
f 597 554 598
f 598 555 599
f 599 555 556
f 588 587 599
f 588 599 600
f 587 586 598
f 587 598 599
f 589 588 600
f 589 600 601
f 590 589 601
f 590 601 602
f 591 590 603
f 590 602 603
f 592 591 603
f 592 603 604
f 586 585 598
f 596 597 598
f 585 597 598
f 585 584 596
f 585 596 597
f 584 595 596
f 592 604 605
f 593 592 605
f 548 549 592
f 591 548 592
f 592 593 604
f 604 593 605
f 600 545 557
f 600 546 601
f 601 546 589
f 545 546 600
f 589 546 590
f 546 547 590
f 602 591 603
f 590 591 602
f 590 548 591
f 556 544 557
f 557 505 545
f 544 545 557
f 599 557 600
f 599 556 557
f 504 505 545
f 544 504 545
f 386 422 387
f 386 385 422
f 385 421 422
f 421 461 462
f 421 420 461
f 463 422 462
f 421 462 422
f 387 422 423
f 420 419 460
f 420 460 461
f 549 548 591
f 549 591 592
f 464 508 465
f 465 508 509
f 509 508 548
f 509 548 549
f 503 502 542
f 503 542 543
f 503 459 502
f 459 458 502
f 419 459 460
f 419 418 459
f 506 505 546
f 546 505 545
f 545 588 589
f 546 545 589
f 462 506 507
f 462 507 463
f 507 547 548
f 508 507 548
f 544 543 587
f 543 586 587
f 504 503 544
f 503 543 544
f 460 459 503
f 504 460 503
f 540 583 541
f 584 541 583
f 585 542 541
f 545 544 588
f 544 587 588
f 543 585 586
f 543 542 585
f 585 541 584
f 13 25 181
f 181 25 182
f 169 181 222
f 169 222 210
f 19 18 31
f 31 18 30
f 5 17 18
f 6 5 18
f 6 18 7
f 7 18 19
f 65 53 66
f 66 53 54
f 64 52 65
f 52 53 65
f 37 38 50
f 49 37 50
f 39 26 27
f 38 26 39
f 175 7 8
f 175 8 176
f 29 30 41
f 41 30 42
f 41 42 53
f 54 42 55
f 55 42 43
f 53 42 54
f 16 4 5
f 16 5 17
f 15 3 4
f 15 4 16
f 2 3 14
f 14 3 15
f 27 15 16
f 27 16 28
f 8 7 176
f 176 7 175
f 7 6 175
f 6 174 175
f 40 28 41
f 41 28 29
f 51 39 40
f 52 51 40
f 210 222 258
f 246 210 258
f 573 572 609
f 573 609 610
f 572 571 608
f 572 608 609
f 571 570 608
f 572 573 610
f 609 572 610
f 570 607 608
f 608 571 609
f 609 571 572
f 607 570 571
f 607 571 608
f 570 558 607
f 558 606 607
f 558 606 559
f 558 515 516
f 558 516 559
f 560 517 518
f 560 518 561
f 516 517 560
f 559 516 560
f 323 359 324
f 324 359 360
f 320 319 356
f 319 355 356
f 437 438 481
f 482 481 438
f 522 482 483
f 522 483 523
f 523 524 567
f 566 523 567
f 563 519 520
f 562 519 563
f 520 480 481
f 520 481 521
f 518 519 561
f 561 519 562
f 565 522 566
f 522 523 566
f 521 481 482
f 521 482 522
f 521 522 564
f 564 522 565
f 563 520 564
f 564 520 521
f 436 437 481
f 480 436 481
f 358 357 394
f 357 393 394
f 356 392 357
f 392 393 357
f 396 437 438
f 396 438 397
f 484 525 485
f 484 524 525
f 482 522 523
f 483 482 523
f 525 524 567
f 525 567 568
f 484 483 524
f 483 523 524
f 520 562 563
f 520 519 562
f 562 561 563
f 433 477 434
f 434 477 478
f 479 478 519
f 519 478 518
f 476 475 516
f 516 475 515
f 477 476 516
f 517 477 516
f 478 477 518
f 477 517 518
f 475 431 487
f 475 527 515
f 527 475 487
f 517 560 561
f 518 517 561
f 515 558 559
f 515 559 516
f 393 434 394
f 394 434 435
f 392 391 432
f 392 432 433
f 43 44 56
f 43 56 55
f 44 43 32
f 43 31 32
f 103 104 116
f 103 116 115
f 21 9 10
f 21 10 22
f 8 9 21
f 8 21 20
f 128 116 129
f 116 117 129
f 129 118 130
f 117 118 129
f 178 10 11
f 179 178 11
f 22 10 11
f 22 11 23
f 34 22 35
f 22 23 35
f 23 11 12
f 23 12 24
f 70 82 94
f 10 22 23
f 11 10 23
f 23 22 34
f 23 34 35
f 93 80 81
f 92 80 93
f 93 94 106
f 105 93 106
f 56 57 68
f 68 57 69
f 57 58 70
f 69 57 70
f 21 22 33
f 33 22 34
f 117 116 105
f 104 105 116
f 57 56 45
f 44 45 56
