v -0.440222 0.067216 -0.348984 0.3496 0.0530 0.0198
v -0.461020 0.067518 -0.253272 0.1732 0.0278 0.0150
v -0.455430 0.069763 -0.069882 0.0860 0.0167 0.0046
v -0.359886 0.193933 0.374648 0.1244 0.0364 0.0076
v -0.359649 0.193193 0.393449 0.1774 0.0509 0.0283
v -0.349042 0.243111 0.627859 0.3566 0.1383 0.0798
v -0.356086 0.353533 -0.346771 0.3081 0.0473 0.0152
v -0.374771 0.513078 -0.327860 0.3112 0.1298 0.0777
v -0.502605 0.458672 -0.036482 0.2712 0.0702 0.0411
v -0.451810 0.475077 0.141737 0.2676 0.0762 0.0312
v -0.412065 0.396642 0.382823 0.5209 0.2672 0.1328
v -0.346527 0.774855 -0.349769 0.3229 0.1456 0.0963
v -0.347887 0.745786 -0.184714 0.3921 0.1961 0.1267
v -0.482658 0.682714 0.118627 0.1944 0.0570 0.0336
v -0.362435 0.677669 0.145142 0.6147 0.2889 0.1385
v -0.411381 0.564248 0.388159 0.6736 0.4078 0.2193
v -0.368890 1.013982 -0.347793 0.5313 0.2348 0.1465
v -0.349298 0.966375 -0.239273 0.5157 0.1530 0.0861
v -0.367627 1.039264 -0.349302 0.5773 0.2350 0.0862
v -0.369523 1.039814 -0.332576 0.6047 0.2620 0.1242
v -0.343731 0.023693 -0.396518 0.1858 0.0352 0.0159
v -0.099761 0.067647 -0.340997 0.1520 0.0434 0.0205
v -0.099138 0.249985 -0.086874 0.1243 0.0481 0.0165
v -0.128272 0.000000 0.139206 0.1362 0.0507 0.0204
v -0.263507 0.242942 0.389465 0.2985 0.1370 0.0618
v -0.228455 0.243067 0.624794 0.4480 0.2205 0.1132
v -0.098470 0.366806 -0.363148 0.2780 0.0885 0.0369
v -0.171722 0.508527 -0.345218 0.3284 0.1717 0.1009
v -0.144373 0.255996 -0.088070 0.0041 0.0016 0.0039
v -0.236280 0.358031 0.419994 0.3081 0.1599 0.1050
v -0.080865 0.761444 -0.348814 0.4179 0.2029 0.1137
v -0.174263 0.774636 -0.336873 0.2438 0.0943 0.0509
v -0.317524 0.731815 0.056187 0.0820 0.0188 0.0097
v -0.180153 0.674587 0.379144 0.4485 0.1825 0.0871
v -0.205310 0.731473 0.411494 0.6332 0.3836 0.2137
v -0.189098 1.034822 -0.360646 0.3962 0.1964 0.1114
v -0.086650 0.906266 -0.343569 0.5509 0.1648 0.0903
v -0.309183 0.777488 0.125319 0.6120 0.2747 0.1993
v -0.306460 0.783657 0.147551 0.4807 0.1669 0.0813
v -0.108217 0.822550 0.381910 0.3410 0.1489 0.0785
v -0.081637 1.095758 -0.363247 0.5896 0.3160 0.1428
v -0.150635 1.090528 -0.224968 0.7339 0.2766 0.1595
v -0.130509 1.069552 -0.040934 0.6806 0.4541 0.3364
v -0.288687 1.059832 0.370146 0.6506 0.4919 0.3635
v -0.286927 1.067290 0.384865 0.5345 0.2415 0.1379
v 0.145056 0.227279 -0.443538 0.1246 0.0293 0.0166
v 0.181779 0.242927 -0.104186 0.1146 0.0360 0.0184
v 0.182593 0.242935 -0.035250 0.0658 0.0246 0.0111
v 0.181331 0.242970 0.152857 0.1521 0.0540 0.0189
v 0.181219 0.243078 0.383844 0.2610 0.1125 0.0519
v 0.163050 0.151722 0.624794 0.4131 0.2106 0.1020
v -0.074794 0.358031 -0.365155 0.3929 0.0793 0.0279
v 0.024264 0.515107 -0.345651 0.0257 0.0053 0.0016
v 0.124849 0.510719 -0.064744 0.0696 0.0159 0.0042
v 0.158297 0.453680 0.139216 0.1422 0.0379 0.0186
v -0.045198 0.256238 0.403965 0.1160 0.0551 0.0537
v 0.077402 0.773319 -0.355577 0.5428 0.2085 0.0862
v 0.058980 0.598589 -0.293840 0.1124 0.0282 0.0109
v 0.185235 0.697385 0.046095 0.0372 0.0057 0.0022
v 0.166702 0.760835 0.141843 0.2266 0.0863 0.0508
v -0.079724 0.754672 0.400816 0.1216 0.0568 0.0457
v 0.012350 0.900615 -0.350824 0.2207 0.0924 0.0457
v -0.054952 0.946479 -0.345855 0.4955 0.1329 0.0492
v 0.147923 0.810669 0.101214 0.1322 0.0795 0.0364
v 0.160203 0.804295 0.242602 0.0977 0.0303 0.0145
v -0.046958 1.002957 0.390588 0.1499 0.0804 0.0449
v -0.076168 1.095869 -0.360463 0.4418 0.2875 0.1559
v -0.037107 1.087170 -0.221116 0.6967 0.4682 0.2610
v -0.079970 1.069542 -0.065561 0.2239 0.1373 0.0733
v -0.037285 1.074856 0.262728 0.3470 0.2438 0.1463
v -0.074344 1.053112 0.404595 0.4851 0.2940 0.1471
v 0.340545 0.194370 -0.398337 0.2569 0.0955 0.0532
v 0.206404 0.242878 -0.127037 0.1973 0.0732 0.0425
v 0.225048 0.239238 0.008421 0.2901 0.0983 0.0371
v 0.192400 0.242914 0.142485 0.1504 0.0572 0.0204
v 0.221924 0.237372 0.503872 0.1837 0.0812 0.0386
v 0.407188 0.091261 0.653145 0.1384 0.0443 0.0211
v 0.230975 0.256238 -0.417524 0.5964 0.1763 0.0774
v 0.435817 0.507210 0.210504 0.2420 0.0640 0.0204
v 0.193643 0.774691 -0.364078 0.6826 0.3112 0.1724
v 0.331177 0.671512 -0.108126 0.4017 0.2304 0.1432
v 0.185776 0.697632 0.050214 0.2951 0.1607 0.0878
v 0.447432 0.530547 0.209338 0.1919 0.0926 0.0434
v 0.193543 0.773868 0.382454 0.0222 0.0100 0.0053
v 0.190998 0.784728 -0.363863 0.4089 0.1429 0.0937
v 0.361634 0.908485 -0.114762 0.5511 0.2504 0.1881
v 0.185825 0.778880 0.052002 0.3617 0.1459 0.0798
v 0.186346 0.941064 0.310673 0.1374 0.0609 0.0296
v 0.197068 1.006829 0.383389 0.0736 0.0373 0.0187
v 0.248862 1.100000 -0.351011 0.4464 0.2592 0.1484
v 0.384680 1.098662 -0.105323 0.6206 0.3445 0.2144
v 0.385605 1.098662 -0.097416 0.2409 0.0712 0.0323
v 0.196911 1.094750 0.381611 0.3858 0.1175 0.0482
v 0.195531 1.062904 0.384317 0.4055 0.2088 0.0896
v 0.547938 0.243569 -0.365315 0.1469 0.0465 0.0276
v 0.505178 0.242194 -0.104708 0.2902 0.1007 0.0556
v 0.581818 0.254921 0.123888 0.2638 0.0757 0.0314
v 0.472373 0.234958 0.241603 0.1946 0.0856 0.0292
v 0.465665 0.235345 0.522814 0.1682 0.0881 0.0419
v 0.465665 0.235225 0.640735 0.1880 0.0605 0.0238
v 0.495070 0.514230 -0.418709 0.4158 0.1615 0.0819
v 0.522177 0.485271 -0.109295 0.3280 0.0809 0.0482
v 0.580112 0.280369 0.111014 0.5106 0.1980 0.1164
v 0.591603 0.256238 0.217577 0.1711 0.0759 0.0417
v 0.488028 0.568416 -0.432231 0.8269 0.5084 0.3016
v 0.508525 0.527392 -0.195947 0.8124 0.5586 0.3311
v 0.531155 0.520811 -0.051191 0.5644 0.3039 0.1689
v 0.454036 0.541433 0.208703 0.5196 0.2529 0.1367
f 64 59 87
f 59 82 87
f 80 57 62
f 80 62 85
f 57 31 32
f 57 32 58
f 62 37 36
f 63 37 62
f 67 36 41
f 62 36 67
f 67 41 68
f 41 42 68
f 58 32 37
f 58 37 63
f 62 58 63
f 57 58 62
f 38 33 34
f 36 17 41
f 17 18 20
f 19 17 20
f 17 19 41
f 38 34 39
f 41 20 42
f 41 19 20
f 74 47 48
f 73 47 74
f 75 50 76
f 74 48 75
f 48 49 75
f 72 46 47
f 47 73 72
f 83 104 108
f 79 104 83
f 60 59 65
f 59 64 65
f 68 43 69
f 35 34 40
f 39 40 34
f 34 35 60
f 39 34 60
f 61 60 35
f 39 60 65
f 20 18 42
f 18 37 42
f 42 38 43
f 42 37 38
f 38 44 43
f 38 39 44
f 70 43 44
f 69 43 70
f 71 44 45
f 70 44 71
f 40 66 45
f 45 66 71
f 40 39 65
f 66 40 65
f 93 70 71
f 71 94 93
f 71 66 94
f 94 88 93
f 88 94 89
f 66 89 94
f 65 88 66
f 66 88 89
f 88 70 93
f 88 65 70
f 65 64 70
f 64 69 70
f 39 40 45
f 39 45 44
f 61 84 66
f 66 84 89
f 84 83 88
f 89 84 88
f 65 60 61
f 65 61 66
f 37 32 38
f 33 38 32
f 46 21 27
f 46 27 52
f 97 103 98
f 104 98 103
f 102 106 107
f 102 107 103
f 101 105 102
f 102 105 106
f 104 103 108
f 103 107 108
f 97 96 102
f 97 102 103
f 21 22 47
f 46 21 47
f 96 73 72
f 96 72 95
f 57 27 31
f 52 27 57
f 52 57 53
f 53 57 58
f 100 76 77
f 99 76 100
f 76 75 98
f 76 98 99
f 96 95 102
f 102 95 101
f 78 46 52
f 72 46 78
f 78 80 101
f 101 80 105
f 78 52 80
f 95 72 101
f 72 78 101
f 52 57 80
f 33 32 58
f 33 58 59
f 59 82 81
f 59 58 82
f 106 81 82
f 106 82 107
f 80 81 106
f 105 80 106
f 81 58 59
f 82 58 81
f 68 42 43
f 88 87 93
f 87 92 93
f 82 86 87
f 81 86 82
f 82 87 83
f 83 87 88
f 82 83 88
f 91 85 90
f 86 85 91
f 87 86 91
f 92 87 91
f 108 82 83
f 107 82 108
f 90 68 91
f 90 67 68
f 91 68 69
f 91 69 92
f 69 64 87
f 69 87 92
f 87 88 92
f 92 88 93
f 87 82 88
f 81 80 86
f 80 85 86
f 85 62 90
f 62 67 90
f 48 23 47
f 22 47 23
f 24 4 25
f 4 5 25
f 3 4 23
f 23 4 24
f 26 5 6
f 25 5 26
f 24 49 50
f 24 50 25
f 49 75 50
f 74 75 98
f 97 74 98
f 58 54 59
f 49 75 79
f 55 49 79
f 104 75 98
f 79 75 104
f 52 46 47
f 52 47 53
f 60 65 83
f 88 83 65
f 82 59 60
f 82 60 83
f 58 53 54
f 53 47 54
f 47 48 54
f 60 79 83
f 60 55 79
f 54 55 60
f 59 54 60
f 48 74 49
f 75 49 74
f 48 47 73
f 74 48 73
f 55 54 48
f 48 49 55
f 84 61 60
f 84 60 83
f 50 51 76
f 51 77 76
f 77 50 76
f 51 50 77
f 54 53 59
f 59 53 58
f 48 54 49
f 49 54 55
f 49 24 25
f 49 25 50
f 50 25 51
f 25 26 51
f 55 54 59
f 55 59 60
f 24 23 48
f 24 48 49
f 97 74 75
f 97 75 98
f 22 48 23
f 22 47 48
f 74 73 96
f 74 96 97
f 97 73 74
f 46 73 47
f 46 72 73
f 96 73 97
f 72 95 73
f 96 73 95
f 2 1 21
f 2 21 22
f 22 2 3
f 23 22 3
f 1 2 22
f 21 1 22
f 32 13 14
f 33 32 14
f 31 27 32
f 28 32 27
f 27 21 22
f 27 22 28
f 32 33 59
f 58 32 59
f 29 28 22
f 22 23 29
f 32 31 58
f 18 13 32
f 18 32 37
f 27 28 31
f 28 32 31
f 22 21 28
f 21 27 28
f 31 12 17
f 36 31 17
f 12 13 18
f 17 12 18
f 32 31 36
f 32 36 37
f 12 31 32
f 8 13 28
f 32 28 13
f 28 8 32
f 7 8 27
f 27 8 28
f 27 1 7
f 21 1 27
f 2 8 1
f 1 8 7
f 13 12 32
f 13 9 14
f 13 8 9
f 8 3 9
f 8 2 3
f 6 25 26
f 5 25 6
f 34 60 61
f 35 34 61
f 14 15 34
f 33 14 34
f 50 55 56
f 49 55 50
f 30 25 56
f 25 50 56
f 10 3 4
f 9 3 10
f 10 4 11
f 4 5 11
f 11 5 30
f 5 25 30
f 5 4 24
f 25 5 24
f 10 11 15
f 15 11 16
f 60 55 61
f 35 30 61
f 61 30 56
f 61 56 60
f 61 56 55
f 34 15 35
f 15 16 35
f 4 3 24
f 3 23 24
f 16 11 35
f 11 30 35
f 60 56 55
f 9 10 15
f 14 9 15
