v -1.911071 0.325645 -0.051354 0.8277 0.3656 0.0156
v -1.910874 0.335511 0.013533 0.5607 0.2080 0.0122
v -1.755183 0.335511 0.119319 0.2902 0.0765 0.0000
v -1.889827 0.341432 -0.051980 0.6354 0.2220 0.0285
v -1.889651 0.524977 0.004249 0.2523 0.0941 0.0100
v -1.653614 0.374921 0.111709 0.2878 0.1279 0.0435
v -1.911177 0.773897 -0.051902 0.5783 0.2031 0.0274
v -1.888404 0.570864 0.018307 0.3617 0.1337 0.0221
v -1.645037 0.574318 0.112956 0.3684 0.1476 0.0297
v -1.911265 0.787465 -0.093214 0.4562 0.1294 0.0026
v -1.911328 0.789439 -0.048855 0.3949 0.1537 0.0178
v -1.825547 0.788946 0.098333 0.3466 0.1312 0.0109
v -1.445193 0.112496 -0.064591 0.3439 0.1260 0.0079
v -1.452671 0.000000 -0.029488 0.2844 0.1178 0.0115
v -1.450469 0.244973 -0.064429 0.1815 0.0959 0.0145
v -1.491653 0.190947 -0.046356 0.1824 0.0818 0.0107
v -1.407281 0.470702 -0.103211 0.4819 0.1795 0.0242
v -1.433322 0.392747 0.009403 0.3071 0.1221 0.0184
v -1.606125 0.419390 0.110799 0.5116 0.2105 0.0564
v -1.505873 0.565435 -0.105822 0.2096 0.0834 0.0095
v -1.491470 0.632540 -0.039628 0.3221 0.1134 0.0106
v -1.609154 0.639694 0.110985 0.4881 0.1727 0.0249
v -1.507191 0.787465 -0.105697 0.1582 0.0759 0.0214
v -1.503950 0.789439 -0.045106 0.2175 0.0807 0.0096
v -1.151574 0.328454 0.039237 0.8746 0.2802 0.0143
v -1.017803 0.371037 -0.022034 0.5138 0.2069 0.0372
v -1.261900 0.536819 0.093566 0.1501 0.1043 0.0289
v -1.130855 0.567572 0.064981 0.7056 0.2725 0.0528
v -1.261678 0.605894 0.093335 0.7050 0.2619 0.0466
v -0.801470 0.319724 -0.022162 0.8288 0.2703 0.0156
v -0.874022 0.339458 -0.022057 0.7234 0.2705 0.0552
v -1.011819 0.567522 0.084768 0.7688 0.3060 0.0839
v -0.529733 0.230912 0.090325 0.5520 0.1945 0.0177
v -0.595687 0.485506 -0.021940 0.6432 0.2456 0.0537
v -0.706492 0.570094 0.010497 0.4706 0.1922 0.0497
v -0.316039 0.213150 0.089758 0.5904 0.2147 0.0144
v -0.408375 0.440112 0.083760 0.6039 0.2142 0.0137
v -0.106905 0.214449 0.083880 0.7496 0.2860 0.0429
v 0.183574 0.346454 -0.012669 0.6390 0.2437 0.0241
v 0.151239 0.563933 0.012996 0.5294 0.2052 0.0065
v 0.221109 0.253537 0.053668 0.2212 0.1210 0.0229
v 0.485319 0.386826 -0.023230 0.4138 0.1610 0.0226
v 0.436678 0.379917 0.092686 0.4863 0.1229 0.0000
v 0.449045 0.594055 0.087946 0.3488 0.1253 0.0037
v 0.778162 0.330386 0.060003 0.0970 0.0620 0.0079
v 0.524562 0.384852 -0.023440 0.3909 0.1433 0.0215
v 0.678570 0.374984 0.093950 0.5957 0.2131 0.0399
v 0.784098 0.612497 0.090904 0.2145 0.0641 0.0007
v 0.812661 0.336618 0.063515 0.1174 0.0657 0.0159
v 0.801907 0.382879 -0.023395 0.3003 0.1167 0.0255
v 0.872479 0.382879 0.093304 0.3802 0.1410 0.0331
v 0.823672 0.611815 0.091645 0.3011 0.1162 0.0205
v 1.371429 0.475638 0.006285 0.2611 0.1078 0.0222
v 1.149492 0.394721 0.092742 0.5823 0.2260 0.0332
v 1.385259 0.563443 0.051119 0.1106 0.0752 0.0257
v 1.537128 0.091774 -0.081968 0.3606 0.1418 0.0116
v 1.565388 0.097695 -0.046982 0.5756 0.2066 0.0129
v 1.581500 0.327432 -0.105817 0.3061 0.1172 0.0115
v 1.523545 0.157887 0.040117 0.1519 0.0802 0.0107
v 1.572926 0.351300 -0.105730 0.1648 0.0848 0.0132
v 1.516074 0.562476 0.078882 0.1977 0.0976 0.0138
v 1.684717 0.452694 0.095021 0.4981 0.1880 0.0263
v 1.537036 0.571852 -0.080719 0.2346 0.0970 0.0104
v 1.559072 0.665446 0.070043 0.2623 0.1059 0.0082
v 1.602606 0.644616 0.092472 0.5744 0.1905 0.0224
v 1.541267 0.789439 -0.111009 0.4260 0.1378 0.0011
v 1.568967 0.789439 0.003974 0.4747 0.1550 0.0006
v 1.685795 0.102380 -0.073221 0.4578 0.1874 0.0120
v 1.685788 0.249168 -0.086343 0.5005 0.1638 0.0059
v 1.962421 0.338378 -0.011058 0.4335 0.1369 0.0011
v 1.900941 0.338299 0.099215 0.5227 0.1805 0.0069
v 1.953583 0.550141 -0.103977 0.4182 0.1489 0.0118
v 1.719543 0.397656 -0.001396 0.3814 0.1459 0.0107
v 1.707472 0.446033 0.095515 0.4863 0.1898 0.0407
v 1.802450 0.645367 -0.064367 0.4031 0.1580 0.0247
v 1.910983 0.772190 0.091903 0.3512 0.1385 0.0138
v 1.972411 0.718390 0.104799 0.7445 0.2913 0.0808
v 1.936778 0.787207 0.096726 0.3171 0.1039 0.0026
v 2.000174 0.335018 -0.180681 0.4665 0.1399 0.0025
v 2.088672 0.338473 0.072222 0.6011 0.1939 0.0034
v 1.994380 0.322436 0.109836 0.6000 0.1857 0.0189
v 1.988649 0.349751 -0.086966 0.4172 0.1484 0.0079
v 2.067114 0.551744 0.075473 0.5082 0.1903 0.0184
v 1.989012 0.370051 0.101104 0.4947 0.2134 0.0571
v 2.000735 0.609841 -0.149444 0.2995 0.1238 0.0201
v 2.082099 0.773157 0.055328 0.3842 0.1685 0.0499
v 2.017794 0.676946 0.093698 0.5091 0.1997 0.0453
v 2.000167 0.787465 -0.176933 0.5000 0.5000 0.5000
v 2.079460 0.791908 0.055492 0.2873 0.0997 0.0085
v 1.997677 0.800000 0.105463 0.2741 0.0931 0.0058
f 25 26 31
f 25 31 30
f 28 26 31
f 28 31 32
f 31 32 34
f 34 32 35
f 31 30 33
f 33 34 31
f 25 30 26
f 26 30 31
f 62 64 65
f 62 61 64
f 77 64 76
f 65 64 77
f 84 74 87
f 84 87 86
f 83 84 86
f 74 77 87
f 74 62 65
f 65 77 74
f 61 62 74
f 73 61 74
f 42 38 39
f 42 41 38
f 76 73 75
f 73 72 75
f 72 82 85
f 75 72 85
f 72 73 83
f 82 72 83
f 73 74 84
f 83 73 84
f 64 61 76
f 61 73 76
f 82 72 75
f 85 82 75
f 27 26 28
f 29 27 28
f 9 6 19
f 9 19 22
f 22 19 29
f 19 27 29
f 50 51 53
f 53 51 54
f 50 47 51
f 47 46 51
f 47 50 46
f 46 50 51
f 45 46 50
f 45 50 49
f 45 49 46
f 46 49 50
f 53 61 55
f 55 61 64
f 41 42 46
f 45 41 46
f 56 68 58
f 69 60 72
f 58 60 69
f 68 69 58
f 56 58 69
f 66 64 67
f 66 63 64
f 63 64 67
f 66 63 67
f 58 69 72
f 58 72 60
f 60 72 63
f 63 72 75
f 68 56 69
f 72 60 75
f 60 63 75
f 13 15 14
f 14 15 16
f 16 13 14
f 15 13 16
f 5 4 8
f 4 7 8
f 3 2 5
f 3 5 6
f 5 4 1
f 1 2 5
f 7 8 11
f 7 11 10
f 2 4 5
f 1 4 2
f 60 63 61
f 61 63 64
f 57 56 58
f 57 58 59
f 63 60 64
f 64 60 61
f 60 58 59
f 60 59 61
f 56 57 59
f 58 56 59
f 58 59 61
f 58 61 60
f 34 33 37
f 33 36 37
f 37 36 38
f 39 37 38
f 46 42 47
f 43 47 42
f 42 45 46
f 42 41 45
f 4 5 18
f 27 18 26
f 18 27 19
f 16 15 17
f 16 17 18
f 15 16 18
f 17 15 18
f 18 4 17
f 5 18 6
f 19 6 18
f 23 20 21
f 21 23 24
f 17 20 21
f 18 17 21
f 20 23 24
f 21 20 24
f 17 20 18
f 18 20 21
f 18 21 28
f 26 18 28
f 21 22 29
f 28 21 29
f 8 5 21
f 5 18 21
f 7 8 21
f 17 4 7
f 17 7 20
f 22 8 9
f 22 21 8
f 5 8 9
f 6 5 9
f 20 7 21
f 20 8 21
f 8 6 9
f 5 6 8
f 11 8 9
f 11 9 12
f 9 21 22
f 9 8 21
f 8 9 12
f 21 18 22
f 18 19 22
f 50 52 55
f 53 50 55
f 42 46 48
f 44 42 48
f 48 46 52
f 46 50 52
f 44 40 39
f 39 42 44
f 46 44 48
f 46 42 44
f 87 78 90
f 87 77 78
f 89 87 90
f 86 87 89
f 78 77 90
f 77 87 90
f 61 64 73
f 64 76 73
f 80 82 83
f 79 82 80
f 83 74 84
f 54 53 61
f 71 70 80
f 71 80 81
f 73 72 69
f 73 69 70
f 79 69 72
f 82 79 72
f 81 80 83
f 84 81 83
f 79 70 69
f 70 79 80
f 71 84 74
f 71 81 84
f 73 70 74
f 71 74 70
f 64 61 65
f 61 62 65
f 74 84 77
f 77 84 87
f 87 84 83
f 87 83 86
