v -1.145290 0.034642 -0.206159 0.7759 0.4045 0.1391
v -0.915011 0.117589 0.070880 0.7759 0.3932 0.1257
v -0.906041 0.044415 0.220741 0.3436 0.1413 0.0340
v -0.921699 0.000000 0.437162 0.4618 0.1952 0.0496
v -1.059015 0.777380 -0.478762 0.5000 0.5000 0.5000
v -1.144220 0.729431 0.092751 0.4980 0.2078 0.0144
v -1.106447 0.522960 0.170223 0.2904 0.1147 0.0282
v -1.129706 0.291878 0.465016 0.2117 0.0784 0.0233
v -0.911161 1.283298 -0.207800 0.7279 0.3921 0.1564
v -0.922879 1.291591 -0.116547 0.3731 0.1632 0.0446
v -0.906342 1.286810 0.164476 0.1963 0.0692 0.0164
v -1.166338 1.233545 0.506742 0.3181 0.1081 0.0177
v -0.934112 1.297313 -0.207800 0.7170 0.3969 0.1563
v -0.932206 1.296762 -0.163256 0.5219 0.2303 0.0552
v -0.905795 1.640318 0.135627 0.4076 0.1627 0.0351
v -0.969106 1.631207 0.406351 0.3433 0.1182 0.0176
v -1.167049 2.082101 -0.444129 0.5000 0.5000 0.5000
v -1.144417 2.292846 -0.061790 0.5000 0.5000 0.5000
v -1.166071 1.870538 0.399844 0.4050 0.1573 0.0377
v -1.104835 1.951315 0.519942 0.3347 0.1302 0.0328
v -0.975637 2.633058 -0.229206 0.7052 0.4427 0.2606
v -0.907345 2.625844 -0.073236 0.6308 0.4021 0.2460
v -0.919223 2.617384 0.116856 0.4441 0.2723 0.1628
v -0.903864 2.535071 0.479551 0.2397 0.0954 0.0288
v -1.059206 3.234864 -0.386522 0.6931 0.4478 0.2810
v -1.115247 3.266834 -0.030390 0.6605 0.4289 0.2662
v -1.163116 3.278165 0.399844 0.5207 0.3588 0.2417
v -1.163811 2.856387 0.417191 0.4895 0.3445 0.2346
v -1.059178 3.415837 -0.384941 0.6159 0.2548 0.0363
v -1.116062 3.486751 0.103942 0.5647 0.2339 0.0387
v -1.100174 3.636717 0.209517 0.2439 0.0737 0.0100
v -1.039498 3.803419 0.501117 0.3346 0.1215 0.0223
v -0.912972 4.001886 -0.196652 0.6227 0.2715 0.0561
v -1.144669 4.314313 -0.066855 0.6213 0.2795 0.0679
v -1.112517 3.863886 0.235041 0.5142 0.2127 0.0532
v -1.032420 3.899769 0.408277 0.3935 0.1497 0.0271
v -1.100291 4.325227 -0.210143 0.7619 0.2789 0.0263
v -1.144743 4.342542 -0.070893 0.5503 0.2017 0.0196
v -1.100407 4.367739 0.110674 0.6196 0.2177 0.0239
v -1.127935 4.500000 0.451419 0.5440 0.1853 0.0220
v -0.638419 0.139435 -0.196993 0.7501 0.3586 0.0907
v -0.638317 0.061898 0.019123 0.7583 0.3776 0.1139
v -0.634363 0.053443 0.111496 0.4876 0.2038 0.0464
v -0.668560 0.000000 0.437089 0.3707 0.1349 0.0222
v -0.627865 1.106410 -0.248236 0.7515 0.4175 0.1711
v -0.880540 1.265048 -0.184533 0.3901 0.1776 0.0592
v -0.698366 1.157321 0.161429 0.2854 0.0884 0.0113
v -0.633714 1.114965 0.406417 0.4242 0.1255 0.0077
v -0.811168 1.674120 -0.197719 0.6447 0.3456 0.1331
v -0.812564 1.662760 -0.185352 0.5250 0.2395 0.0699
v -0.738940 1.789260 0.110883 0.3639 0.1557 0.0411
v -0.760148 1.777856 0.405469 0.3609 0.1180 0.0174
v -0.763162 1.812676 -0.233781 0.7316 0.3452 0.0974
v -0.718427 1.803058 -0.084957 0.6244 0.3133 0.1121
v -0.673446 1.889929 0.403103 0.5899 0.2894 0.0951
v -0.671835 1.884074 0.408009 0.6896 0.3271 0.1018
v -0.633440 2.717859 -0.380340 0.7384 0.3904 0.1634
v -0.754896 2.631282 -0.190921 0.6462 0.3469 0.1524
v -0.640888 2.617557 0.118646 0.5477 0.3427 0.2010
v -0.719448 2.535255 0.441103 0.3737 0.2337 0.1325
v -0.652444 2.840235 -0.290360 0.7296 0.5306 0.3765
v -0.668969 3.005384 -0.147713 0.7337 0.5390 0.3833
v -0.902652 2.822936 0.404193 0.7030 0.5204 0.3686
v -0.782368 2.950739 0.414280 0.7000 0.5011 0.3380
v -0.647512 3.316264 -0.126392 0.7411 0.5374 0.3788
v -0.729887 3.808117 0.371712 0.1938 0.0456 0.0032
v -0.765960 3.783365 0.495986 0.4089 0.1437 0.0181
v -0.892120 4.002515 -0.198422 0.5777 0.2768 0.0814
v -0.890383 3.981409 -0.128629 0.7272 0.3510 0.0971
v -0.877523 3.907049 0.111148 0.4653 0.2031 0.0574
v -0.883858 3.891537 0.412971 0.5053 0.1930 0.0342
v -0.361366 0.083527 -0.226356 0.7406 0.3457 0.0814
v -0.346775 0.061180 0.023724 0.7590 0.3711 0.1048
v -0.348227 0.032076 0.375931 0.6792 0.3245 0.1014
v -0.502849 0.000000 0.437072 0.4208 0.1306 0.0097
v -0.448007 0.989210 -0.349937 0.7674 0.4343 0.1890
v -0.556529 1.124872 0.098366 0.6469 0.3435 0.1383
v -0.620089 1.112544 0.218616 0.3030 0.1019 0.0144
v -0.570373 1.126575 0.405327 0.1072 0.0208 0.0015
v -0.598109 1.695738 -0.197557 0.6017 0.2844 0.0837
v -0.615006 1.705906 -0.104329 0.7200 0.3519 0.1073
v -0.620304 1.795355 0.362059 0.6059 0.2928 0.0894
v -0.611061 1.642250 0.430774 0.7189 0.3474 0.1128
v -0.346704 2.220568 -0.204047 0.6955 0.3071 0.0693
v -0.617158 1.871429 -0.065264 0.4448 0.1807 0.0424
v -0.398115 2.065660 0.389880 0.4681 0.1949 0.0498
v -0.535770 1.973539 0.405334 0.2168 0.0763 0.0173
v -0.384597 2.714814 -0.367913 0.6850 0.3492 0.1396
v -0.348008 2.623752 -0.010643 0.6386 0.3477 0.1625
v -0.356271 2.599534 0.381093 0.5237 0.3002 0.1755
v -0.363884 2.569563 0.420472 0.5789 0.3603 0.1965
v -0.604188 2.843597 -0.282368 0.6470 0.4591 0.3179
v -0.549579 3.188417 0.095588 0.7193 0.5230 0.3677
v -0.564512 3.067966 0.201986 0.6462 0.4706 0.3278
v -0.592205 3.214398 0.405470 0.6379 0.4528 0.3040
v -0.357722 3.813037 -0.382799 0.6340 0.3318 0.1215
v -0.348346 3.784262 -0.151614 0.7290 0.4441 0.2326
v -0.478065 3.808773 0.348247 0.5707 0.3229 0.1529
v -0.573524 3.803625 0.496427 0.4227 0.1797 0.0366
v -0.611885 4.010329 -0.373780 0.6887 0.3515 0.1202
v -0.621559 3.956541 -0.048538 0.7464 0.3930 0.1451
v -0.428471 3.967840 0.118527 0.5694 0.2647 0.0795
v -0.555041 3.891426 0.412971 0.4680 0.1780 0.0398
v -0.103898 0.083310 -0.223717 0.7617 0.3870 0.1240
v -0.083126 0.065677 -0.027758 0.7737 0.3865 0.1206
v -0.104223 0.031848 0.376399 0.7209 0.3437 0.1018
v -0.306690 0.003462 0.436048 0.4456 0.1340 0.0070
v -0.135711 0.778872 -0.346695 0.7648 0.4172 0.1668
v -0.249166 0.785929 0.097458 0.6650 0.3464 0.1243
v -0.069519 0.790004 0.121168 0.6736 0.3246 0.0706
v -0.329964 0.911823 -0.354213 0.6003 0.3047 0.1192
v -0.243588 0.851823 -0.194524 0.5208 0.2597 0.0974
v -0.316474 0.961888 0.111025 0.3762 0.1506 0.0298
v -0.344964 1.662331 -0.204047 0.7629 0.3652 0.1025
v -0.099220 1.643296 0.090629 0.7615 0.3717 0.1116
v -0.145324 1.623515 0.394696 0.7541 0.3600 0.1070
v -0.324521 1.645149 0.432820 0.7299 0.3274 0.0845
v -0.067803 2.224954 -0.245654 0.4756 0.1776 0.0272
v -0.071075 2.243655 -0.140748 0.4070 0.1741 0.0421
v -0.338989 2.103212 0.372978 0.4137 0.1752 0.0431
v -0.345963 2.089977 0.407213 0.4212 0.1360 0.0068
v -0.072471 2.697966 -0.236867 0.6912 0.3092 0.0801
v -0.067905 2.695551 -0.175915 0.6734 0.3314 0.1032
v -0.146864 2.668818 0.387540 0.5865 0.2883 0.0877
v -0.078670 2.560184 0.428235 0.3162 0.1441 0.0451
v -0.070067 3.610257 -0.271638 0.6665 0.3642 0.1464
v -0.073557 3.542114 -0.003139 0.7619 0.4298 0.1857
v -0.149097 3.506665 0.399274 0.5083 0.2678 0.1133
v -0.312778 3.805723 0.496410 0.2859 0.1227 0.0312
v -0.328590 3.819426 -0.348220 0.7448 0.3977 0.1506
v -0.296059 4.061268 -0.186611 0.7764 0.4035 0.1457
v -0.298206 3.967850 0.118527 0.4571 0.2063 0.0731
v -0.338005 3.891587 0.412971 0.5344 0.2221 0.0528
v 0.201325 0.090434 -0.316574 0.7645 0.3868 0.1218
v 0.178709 0.055247 0.092270 0.7719 0.3819 0.1147
v 0.136954 0.047326 0.186045 0.5207 0.2221 0.0611
v -0.031153 0.005822 0.435146 0.3648 0.1176 0.0179
v 0.185668 0.560441 -0.345644 0.6638 0.3333 0.1136
v -0.055138 0.782857 0.079144 0.6711 0.3410 0.1211
v -0.053732 0.781605 0.112901 0.5287 0.2088 0.0409
v 0.203207 1.005012 -0.400968 0.2771 0.0758 0.0052
v -0.067087 0.791017 0.083009 0.1137 0.0196 0.0013
v -0.060728 1.662370 -0.204047 0.7505 0.3663 0.1100
v -0.017152 1.643764 0.084769 0.7560 0.3726 0.1159
v -0.046159 1.626226 0.399400 0.7179 0.3506 0.1086
v -0.019625 1.645333 0.432697 0.4443 0.1758 0.0337
v 0.042136 2.297237 -0.252827 0.5947 0.2786 0.0716
v 0.019861 2.291610 -0.152121 0.5454 0.2381 0.0534
v 0.182224 2.295746 0.393165 0.6635 0.3035 0.0750
v -0.047158 2.275542 0.406646 0.5302 0.1521 0.0028
v 0.190723 2.696603 -0.205923 0.5650 0.2589 0.0606
v 0.143912 2.694772 -0.163962 0.7405 0.3875 0.1395
v 0.010821 2.570809 0.401721 0.7090 0.3513 0.1158
v -0.058772 2.562316 0.427337 0.1813 0.0566 0.0054
v 0.202060 3.305455 0.081971 0.7014 0.3725 0.1398
v 0.201614 3.271904 0.208261 0.5150 0.2400 0.0740
v 0.087096 3.293082 0.416723 0.4693 0.1816 0.0315
v 0.140893 3.429167 -0.197848 0.7553 0.4227 0.1821
v 0.182488 3.319314 0.089506 0.7488 0.4151 0.1735
v 0.162614 3.322909 0.135429 0.2854 0.1220 0.0401
v 0.055949 3.318702 0.411585 0.5459 0.2322 0.0481
v -0.061816 3.988149 -0.432057 0.7702 0.3975 0.1338
v -0.067468 4.051422 -0.154213 0.7944 0.4019 0.1345
v 0.029956 3.966609 0.122279 0.4180 0.1860 0.0633
v 0.202196 3.889834 0.418599 0.4435 0.1767 0.0436
v 0.465771 0.087339 -0.273439 0.7461 0.3765 0.1178
v 0.221986 0.058447 0.056639 0.7694 0.4081 0.1494
v 0.252158 0.044120 0.225573 0.5855 0.2585 0.0761
v 0.307397 0.007297 0.434092 0.4987 0.1839 0.0241
v 0.434351 0.787232 -0.398110 0.7256 0.3787 0.1402
v 0.482745 0.345288 -0.105191 0.6855 0.3420 0.1171
v 0.303538 0.423549 0.123117 0.5614 0.2433 0.0747
v 0.230688 0.858347 -0.447855 0.7675 0.3267 0.0607
v 0.468000 1.662448 -0.205923 0.7512 0.3665 0.1134
v 0.212850 1.658085 -0.138408 0.7642 0.3846 0.1285
v 0.320472 1.629376 0.404740 0.7218 0.3534 0.1115
v 0.245255 1.642344 0.430688 0.4012 0.1672 0.0333
v 0.282194 2.094040 -0.454856 0.6166 0.2854 0.0768
v 0.316305 2.001947 0.086645 0.6289 0.2952 0.0821
v 0.471426 2.709388 -0.353447 0.5601 0.2519 0.0607
v 0.237011 2.693803 -0.142157 0.5873 0.2825 0.0868
v 0.472729 2.583800 0.346022 0.5890 0.2916 0.1019
v 0.298753 2.563947 0.426432 0.2784 0.0834 0.0049
v 0.415830 3.210457 -0.202429 0.6706 0.3610 0.1596
v 0.412961 3.158372 -0.009427 0.7093 0.3994 0.1801
v 0.395873 3.137050 0.115868 0.4160 0.1980 0.0747
v 0.213601 3.187225 0.412971 0.2545 0.0958 0.0211
v 0.226488 3.399568 -0.339349 0.6576 0.3415 0.1344
v 0.212361 3.320917 -0.007458 0.7360 0.4194 0.1962
v 0.263305 3.768104 0.397531 0.3289 0.1321 0.0441
v 0.451417 3.816654 0.496304 0.4717 0.1910 0.0358
v 0.247056 4.167197 -0.398564 0.7996 0.4026 0.1291
v 0.317237 4.061512 -0.187178 0.7893 0.4052 0.1417
v 0.227423 3.970795 0.109149 0.4616 0.1933 0.0574
v 0.409228 3.889712 0.418599 0.4414 0.1663 0.0354
v 0.599081 0.082230 -0.214363 0.6442 0.3073 0.0995
v 0.497520 0.064514 -0.012334 0.6575 0.3407 0.1328
v 0.577359 0.053805 0.110352 0.6387 0.3212 0.1245
v 0.636269 0.007369 0.434126 0.5948 0.3425 0.1812
v 0.537925 0.765230 -0.388421 0.5721 0.2265 0.0477
v 0.559186 0.286218 -0.037487 0.5948 0.3895 0.2432
v 0.603232 0.448350 0.166859 0.5925 0.3907 0.2452
v 0.644169 0.596747 0.482346 0.6294 0.4367 0.2908
v 0.512240 0.879497 -0.389041 0.5720 0.2389 0.0527
v 0.577451 0.790416 -0.014628 0.6953 0.5060 0.3578
v 0.598441 0.790516 0.142197 0.5919 0.4201 0.2789
v 0.638219 0.791991 0.461734 0.5730 0.4027 0.2682
v 0.665845 1.662187 -0.204047 0.7619 0.3941 0.1397
v 0.494042 1.657305 -0.127499 0.7632 0.3810 0.1281
v 0.588859 1.629498 0.404634 0.7304 0.3602 0.1195
v 0.576233 1.650192 0.436121 0.4346 0.1604 0.0181
v 0.658797 1.870538 -0.198773 0.7061 0.3512 0.1082
v 0.659378 1.873688 -0.085368 0.6206 0.2813 0.0705
v 0.754192 2.728846 -0.388657 0.6242 0.3009 0.0949
v 0.513722 2.695751 -0.174274 0.6832 0.3422 0.1154
v 0.491432 2.593245 0.345655 0.7094 0.3666 0.1304
v 0.635614 2.569986 0.408751 0.4011 0.1566 0.0153
v 0.756203 3.062061 -0.371698 0.6275 0.3179 0.1222
v 0.502222 3.116072 -0.127413 0.7018 0.4261 0.2259
v 0.623219 2.857767 0.343497 0.6526 0.3835 0.1931
v 0.586021 3.024091 0.409222 0.3107 0.1166 0.0191
v 0.492326 3.314856 -0.383598 0.5085 0.1843 0.0105
v 0.659510 3.766384 0.403007 0.3433 0.0900 0.0073
v 0.511874 3.810354 0.496248 0.4214 0.1478 0.0221
v 0.515355 4.166879 -0.391945 0.7793 0.4068 0.1440
v 0.579684 4.062191 -0.189157 0.8058 0.3939 0.1252
v 0.654535 3.968029 0.118527 0.5060 0.1940 0.0481
v 0.743399 3.891215 0.412971 0.6030 0.2217 0.0311
v 0.831122 0.097625 -0.460693 0.6461 0.2795 0.0673
v 0.791977 0.080744 -0.192326 0.6922 0.3563 0.1298
v 0.821553 0.037219 0.313574 0.6372 0.3518 0.1552
v 0.781323 0.010881 0.430499 0.5038 0.3131 0.1884
v 0.811706 0.650496 -0.447855 0.4688 0.1914 0.0478
v 1.032340 0.351911 0.036893 0.6484 0.4722 0.3337
v 1.042776 0.321204 0.112901 0.5983 0.4149 0.2756
v 0.870854 0.443230 0.429071 0.5782 0.4017 0.2684
v 0.785277 0.797111 -0.450918 0.3190 0.1176 0.0248
v 1.027896 0.793566 -0.015566 0.6994 0.5052 0.3637
v 1.045624 0.793287 0.111151 0.6158 0.4387 0.3099
v 0.997522 0.790521 0.410836 0.5659 0.3906 0.2600
v 0.792725 1.667558 -0.287351 0.7008 0.2963 0.0636
v 0.792740 1.649920 -0.009003 0.7577 0.3715 0.1150
v 1.020323 1.622714 0.392343 0.7177 0.3484 0.1009
v 0.769579 1.642244 0.430778 0.4648 0.1847 0.0302
v 0.776126 1.805808 -0.444103 0.6502 0.2471 0.0322
v 1.018548 2.780090 -0.334457 0.7082 0.3589 0.1200
v 1.017497 2.736287 -0.192913 0.7268 0.3979 0.1705
v 0.808505 2.582225 0.390371 0.7126 0.3998 0.1827
v 0.780997 2.570241 0.407813 0.3474 0.1309 0.0130
v 0.983647 2.813318 -0.333605 0.6695 0.3678 0.1561
v 0.772239 2.867446 -0.092084 0.7146 0.4573 0.2769
v 0.771335 2.865425 0.360929 0.7043 0.4987 0.3438
v 0.771117 2.862503 0.406381 0.6255 0.2508 0.0229
v 0.867659 3.766618 0.403593 0.4104 0.1073 0.0033
v 0.792635 3.794219 0.495933 0.4959 0.1818 0.0266
v 0.929134 4.099600 -0.440934 0.7904 0.4009 0.1328
v 0.846780 4.060155 -0.181851 0.7838 0.3854 0.1207
v 0.793718 3.968674 0.116654 0.5517 0.2258 0.0581
v 1.034677 3.889383 0.420472 0.5252 0.1877 0.0255
v 1.121665 0.284403 -0.480058 0.7569 0.3573 0.0950
v 1.168441 0.044087 -0.000563 0.7431 0.3474 0.0926
v 1.049028 0.042863 0.242200 0.5345 0.2523 0.0841
v 1.054230 0.011020 0.407064 0.5069 0.2841 0.1413
v 1.223474 0.770829 -0.478802 0.5000 0.5000 0.5000
v 1.165157 0.681954 0.092837 0.4824 0.1830 0.0170
v 1.211479 0.386698 0.394193 0.6069 0.3629 0.1983
v 1.232951 0.780180 0.480019 0.5765 0.3323 0.1712
v 1.190188 1.275762 -0.429886 0.5503 0.2157 0.0157
v 1.200603 1.053362 -0.038070 0.5570 0.2331 0.0322
v 1.222561 1.082121 0.391348 0.6102 0.3753 0.2229
v 1.232490 1.283242 0.497365 0.4120 0.2126 0.0973
v 1.183970 1.372051 -0.200026 0.6440 0.2577 0.0413
v 1.080903 1.648350 0.067714 0.6906 0.3278 0.0883
v 1.102382 1.656404 0.362334 0.5876 0.2603 0.0624
v 1.101653 1.645406 0.424148 0.3801 0.1576 0.0283
v 1.130364 2.269781 -0.428503 0.6526 0.2381 0.0250
v 1.194001 2.295267 0.026860 0.5000 0.5000 0.5000
v 1.156037 2.118552 0.113137 0.1515 0.0591 0.0134
v 1.122123 1.892584 0.441103 0.2073 0.0838 0.0187
v 1.051712 2.745638 -0.327751 0.5819 0.2373 0.0547
v 1.060636 2.618074 0.093639 0.6551 0.2656 0.0561
v 1.056042 2.604994 0.361572 0.4782 0.2381 0.0763
v 1.093335 2.528692 0.471815 0.0468 0.0082 0.0011
v 1.054138 2.822908 -0.368211 0.6902 0.3732 0.1858
v 1.175597 3.152840 -0.140553 0.6859 0.3392 0.1410
v 1.163869 2.837296 0.405025 0.0375 0.0023 0.0000
v 1.213871 3.299422 0.512974 0.0447 0.0036 0.0000
v 1.193696 3.609211 -0.367210 0.5000 0.5000 0.5000
v 1.177307 3.342902 -0.035935 0.5000 0.5000 0.5000
v 1.225897 3.749837 0.394216 0.2858 0.0892 0.0133
v 1.047764 3.778095 0.495618 0.1796 0.0627 0.0107
v 1.127759 4.291560 -0.461054 0.7901 0.3708 0.0939
v 1.066862 3.975804 0.093812 0.7691 0.3725 0.1103
v 1.114445 4.015900 0.226094 0.4647 0.1746 0.0370
v 1.091219 3.898534 0.407346 0.3516 0.1293 0.0268
v 1.162113 4.418121 -0.459490 0.5000 0.5000 0.5000
v 1.224778 4.321682 0.394216 0.2459 0.0756 0.0114
v 1.112966 4.383485 0.507051 0.2152 0.0648 0.0099
f 250 246 284
f 246 280 284
f 180 151 152
f 181 180 152
f 180 181 215
f 214 180 215
f 181 182 215
f 215 182 216
f 124 153 154
f 124 154 125
f 154 153 182
f 154 182 183
f 249 216 248
f 216 249 217
f 111 108 138
f 45 9 46
f 9 14 46
f 13 14 9
f 111 138 141
f 74 73 105
f 74 105 106
f 43 42 74
f 74 42 73
f 199 198 232
f 232 198 231
f 232 231 262
f 232 262 263
f 75 74 107
f 107 74 106
f 3 43 4
f 4 43 44
f 43 74 44
f 44 74 75
f 107 106 137
f 137 106 136
f 137 136 169
f 136 168 169
f 169 168 198
f 169 198 199
f 197 196 230
f 198 230 231
f 197 230 198
f 167 196 197
f 167 166 196
f 136 135 168
f 135 167 168
f 106 105 136
f 105 135 136
f 168 167 198
f 167 197 198
f 135 134 167
f 134 166 167
f 105 73 104
f 73 72 104
f 105 104 135
f 135 104 134
f 214 215 247
f 246 214 247
f 160 156 161
f 161 156 157
f 186 219 220
f 186 187 157
f 156 186 157
f 185 219 186
f 219 251 247
f 220 248 216
f 220 219 247
f 220 247 248
f 247 215 248
f 215 216 248
f 181 182 216
f 215 181 216
f 251 250 247
f 250 246 247
f 219 218 250
f 219 250 251
f 189 188 185
f 188 184 185
f 158 188 159
f 159 188 189
f 127 126 158
f 159 127 158
f 189 185 159
f 155 159 185
f 156 155 185
f 185 186 156
f 160 159 156
f 159 155 156
f 185 184 219
f 219 184 218
f 35 34 70
f 34 69 70
f 183 153 154
f 182 153 183
f 53 50 54
f 53 49 50
f 50 51 55
f 54 50 55
f 55 56 86
f 87 86 56
f 14 51 50
f 15 51 14
f 51 52 55
f 55 52 56
f 150 149 121
f 149 150 153
f 153 150 154
f 149 120 121
f 86 87 121
f 120 86 121
f 217 182 216
f 183 182 217
f 9 13 45
f 34 33 69
f 33 68 69
f 218 188 222
f 218 184 188
f 69 68 101
f 68 100 101
f 96 100 126
f 130 100 126
f 101 100 97
f 97 126 127
f 97 100 96
f 97 96 126
f 152 181 153
f 153 181 182
f 88 122 89
f 89 122 123
f 151 152 123
f 122 151 123
f 215 214 246
f 124 123 153
f 123 152 153
f 216 215 247
f 247 248 216
f 151 181 152
f 151 180 181
f 215 246 247
f 89 90 59
f 59 58 89
f 90 89 124
f 89 123 124
f 23 58 59
f 23 22 58
f 58 57 88
f 21 57 58
f 22 21 58
f 58 88 89
f 248 247 282
f 247 246 281
f 246 280 281
f 247 281 282
f 56 52 87
f 51 82 52
f 52 82 87
f 87 82 86
f 13 50 49
f 13 14 50
f 82 51 86
f 51 52 16
f 15 16 51
f 82 83 117
f 116 82 117
f 116 117 146
f 145 116 146
f 82 51 83
f 51 52 83
f 211 176 177
f 210 176 211
f 176 145 177
f 145 146 177
f 210 244 243
f 210 211 244
f 243 244 274
f 274 244 275
f 248 282 283
f 242 210 243
f 209 210 242
f 143 144 174
f 174 144 175
f 143 114 115
f 143 115 144
f 115 114 81
f 114 80 81
f 116 115 82
f 115 116 145
f 115 145 144
f 81 51 82
f 81 82 115
f 208 174 175
f 208 175 209
f 144 145 176
f 175 144 176
f 175 176 210
f 209 175 210
f 81 50 51
f 80 49 50
f 50 49 81
f 80 50 81
f 49 80 81
f 242 243 274
f 273 242 274
f 249 248 283
f 151 147 148
f 151 147 180
f 57 58 89
f 88 57 89
f 84 88 89
f 84 89 85
f 119 84 85
f 118 84 119
f 147 119 148
f 147 118 119
f 151 148 152
f 152 148 149
f 153 152 149
f 22 23 59
f 58 22 59
f 54 55 86
f 54 86 85
f 214 180 181
f 214 181 215
f 36 35 40
f 35 39 40
f 35 34 38
f 35 38 39
f 34 33 37
f 34 37 38
f 30 29 34
f 34 29 33
f 33 30 34
f 68 33 34
f 68 34 69
f 101 100 69
f 100 68 69
f 130 100 131
f 164 131 132
f 163 131 164
f 194 163 164
f 193 163 194
f 131 102 132
f 101 102 131
f 102 103 133
f 132 102 133
f 192 162 163
f 192 163 193
f 257 226 227
f 257 227 258
f 226 194 227
f 226 193 194
f 130 131 163
f 101 69 70
f 101 70 102
f 100 101 131
f 162 130 163
f 256 226 257
f 256 225 226
f 192 193 226
f 225 192 226
f 36 67 71
f 36 32 67
f 71 99 103
f 103 99 133
f 99 129 133
f 70 36 71
f 35 36 70
f 67 99 71
f 103 70 71
f 102 70 103
f 72 73 105
f 42 2 43
f 2 3 43
f 41 42 73
f 41 73 72
f 72 105 104
f 14 10 46
f 47 46 77
f 47 77 78
f 112 77 78
f 78 113 112
f 113 112 109
f 113 109 110
f 78 77 46
f 46 51 47
f 46 50 14
f 50 51 46
f 78 46 47
f 10 14 50
f 46 10 50
f 46 45 77
f 45 76 77
f 108 138 139
f 109 108 139
f 109 111 108
f 111 109 112
f 112 77 111
f 77 76 111
f 48 47 79
f 47 78 79
f 140 110 113
f 139 113 140
f 139 112 142
f 76 77 112
f 112 111 76
f 139 112 113
f 110 109 140
f 140 109 139
f 47 15 51
f 15 11 47
f 29 30 33
f 295 294 297
f 297 295 298
f 291 290 295
f 295 290 294
f 298 294 295
f 297 294 298
f 164 132 165
f 132 133 165
f 194 164 165
f 194 165 195
f 228 227 195
f 227 194 195
f 227 228 259
f 227 259 258
f 278 275 279
f 278 274 275
f 282 278 283
f 278 279 283
f 165 161 195
f 161 191 195
f 129 161 133
f 165 133 161
f 195 191 228
f 191 224 228
f 294 258 259
f 294 259 295
f 259 255 291
f 259 291 295
f 224 255 228
f 228 255 259
f 286 283 287
f 286 282 283
f 257 258 294
f 293 257 294
f 292 256 257
f 292 257 293
f 10 11 7
f 10 6 7
f 10 46 47
f 11 10 47
f 14 10 11
f 15 14 11
f 10 13 14
f 10 9 13
f 10 45 46
f 3 7 4
f 162 192 193
f 130 162 131
f 131 162 163
f 193 163 162
f 130 101 131
f 100 101 130
f 130 131 127
f 126 130 127
f 224 223 255
f 255 223 254
f 191 190 224
f 190 223 224
f 160 190 161
f 161 190 191
f 255 290 291
f 255 254 290
f 223 258 254
f 227 258 223
f 160 164 194
f 160 194 190
f 223 194 227
f 190 194 223
f 286 287 291
f 290 286 291
f 258 257 293
f 254 258 294
f 254 294 290
f 258 293 294
f 98 127 128
f 98 97 127
f 98 102 97
f 102 101 97
f 127 160 128
f 127 159 160
f 128 97 98
f 97 128 127
f 127 101 97
f 131 101 127
f 99 128 129
f 98 128 99
f 98 132 128
f 102 132 98
f 128 164 160
f 132 164 128
f 129 128 160
f 160 161 129
f 35 70 31
f 31 70 66
f 66 70 98
f 70 102 98
f 70 69 102
f 69 101 102
f 32 31 67
f 67 31 66
f 67 66 98
f 67 98 99
f 226 225 257
f 225 256 257
f 132 102 101
f 101 131 132
f 164 163 193
f 164 193 194
f 266 262 263
f 266 263 267
f 270 266 267
f 270 267 271
f 279 274 278
f 274 279 275
f 271 270 275
f 275 270 274
f 266 269 270
f 263 262 267
f 262 266 267
f 269 266 265
f 272 268 269
f 272 269 273
f 208 209 241
f 209 242 241
f 241 242 273
f 272 241 273
f 1 41 42
f 2 1 42
f 42 41 72
f 73 42 72
f 9 10 14
f 45 10 9
f 173 204 200
f 200 170 173
f 204 200 233
f 233 237 204
f 229 200 196
f 200 196 170
f 229 260 230
f 230 260 261
f 230 261 231
f 231 261 262
f 196 229 230
f 147 148 179
f 147 179 178
f 148 151 180
f 272 245 276
f 272 241 245
f 84 88 57
f 53 57 84
f 118 84 88
f 122 88 118
f 119 85 86
f 86 120 119
f 58 89 90
f 89 85 90
f 90 85 86
f 89 90 86
f 89 86 85
f 85 119 120
f 86 85 120
f 119 85 118
f 85 84 118
f 148 119 149
f 119 120 149
f 148 178 179
f 148 147 178
f 148 180 181
f 148 181 152
f 152 181 182
f 152 182 153
f 22 57 58
f 21 57 22
f 85 54 84
f 53 84 85
f 54 53 85
f 59 58 90
f 58 85 89
f 54 85 58
f 58 53 54
f 57 53 58
f 49 53 54
f 50 49 54
f 213 212 179
f 212 178 179
f 245 241 276
f 241 272 276
f 213 178 212
f 179 178 213
f 87 120 121
f 87 86 120
f 153 149 182
f 81 50 85
f 85 50 54
f 55 51 86
f 50 86 55
f 50 85 86
f 3 4 44
f 43 3 44
f 137 169 199
f 135 105 106
f 106 136 135
f 31 32 36
f 31 35 36
f 24 23 27
f 24 27 28
f 27 31 32
f 28 27 32
f 31 32 35
f 35 32 36
f 16 19 20
f 20 19 23
f 20 23 24
f 21 25 26
f 27 26 30
f 31 27 30
f 60 59 91
f 59 90 91
f 60 23 59
f 24 23 60
f 91 90 124
f 91 124 125
f 7 11 8
f 8 11 12
f 7 4 8
f 15 19 16
f 11 12 15
f 19 15 20
f 15 16 20
f 15 12 16
f 23 19 24
f 19 20 24
f 284 250 251
f 246 250 251
f 246 251 247
f 251 247 252
f 247 248 251
f 251 248 252
f 186 189 190
f 189 186 185
f 188 189 184
f 184 189 185
f 160 190 186
f 186 156 160
f 189 159 160
f 189 160 190
f 284 251 285
f 281 285 251
f 247 281 251
f 219 252 220
f 219 251 252
f 219 220 251
f 252 251 220
f 157 187 161
f 161 187 191
f 252 220 248
f 187 186 221
f 186 220 221
f 221 220 217
f 217 220 216
f 248 252 253
f 249 248 253
f 220 221 252
f 252 221 253
f 186 190 187
f 190 191 187
f 218 184 185
f 218 185 219
f 220 185 186
f 219 185 220
f 247 252 248
f 247 281 280
f 281 284 285
f 281 280 284
f 49 13 45
f 48 79 78
f 48 78 47
f 16 12 48
f 16 48 52
f 15 11 16
f 11 12 16
f 11 47 12
f 12 47 48
f 51 52 47
f 52 48 47
f 274 270 271
f 274 271 275
f 176 146 145
f 146 176 177
f 274 243 273
f 243 242 273
f 209 174 208
f 174 209 175
f 143 174 175
f 175 144 143
f 210 243 211
f 211 243 244
f 177 210 211
f 177 176 210
f 217 249 253
f 221 217 253
f 88 89 123
f 122 88 123
f 90 91 125
f 124 90 125
f 23 59 27
f 59 63 27
f 59 23 63
f 23 27 63
f 23 22 26
f 27 23 26
f 89 90 94
f 93 89 94
f 58 93 62
f 93 58 89
f 22 21 26
f 65 62 97
f 62 93 97
f 62 65 93
f 93 65 97
f 21 25 61
f 25 21 57
f 57 21 61
f 25 57 61
f 61 57 88
f 92 88 61
f 93 88 89
f 92 88 93
f 58 62 89
f 89 62 93
f 27 22 23
f 26 22 27
f 59 23 24
f 59 24 60
f 91 90 94
f 91 94 95
f 95 64 91
f 64 60 91
f 90 93 94
f 89 93 90
f 90 59 63
f 90 63 94
f 97 94 98
f 94 93 97
f 94 63 95
f 63 64 95
f 28 27 63
f 28 63 64
f 64 63 59
f 59 60 64
f 64 27 28
f 63 27 64
f 229 230 261
f 260 229 261
f 196 201 197
f 200 201 196
f 229 197 230
f 196 197 229
f 230 231 262
f 261 230 262
f 166 170 196
f 196 171 170
f 171 196 167
f 171 197 167
f 136 106 107
f 136 107 137
f 236 203 232
f 203 199 232
f 202 198 199
f 202 199 203
f 168 136 137
f 168 137 169
f 197 167 168
f 197 168 198
f 138 170 139
f 139 170 171
f 198 197 202
f 197 201 202
f 234 201 238
f 201 205 238
f 201 234 205
f 205 234 238
f 197 201 198
f 198 201 202
f 201 205 206
f 201 202 205
f 205 202 206
f 202 201 206
f 206 203 207
f 202 206 207
f 203 202 207
f 206 202 203
f 240 207 203
f 240 236 207
f 236 203 207
f 240 203 236
f 170 138 171
f 138 139 171
f 139 140 171
f 139 109 112
f 171 140 172
f 139 172 140
f 172 171 168
f 171 197 168
f 236 232 267
f 232 263 267
f 232 231 199
f 231 198 199
f 197 230 201
f 230 234 201
f 230 234 235
f 231 230 235
f 239 235 266
f 270 239 266
f 239 234 235
f 238 234 239
f 235 234 238
f 235 238 270
f 266 235 270
f 270 238 239
f 240 267 271
f 270 240 271
f 270 239 240
f 231 232 235
f 262 231 235
f 262 235 266
f 232 236 235
f 239 236 240
f 235 239 270
f 235 236 239
f 201 172 202
f 171 172 201
f 172 168 198
f 202 172 198
f 262 231 266
f 266 231 235
f 200 170 171
f 201 200 171
f 172 139 171
f 236 267 240
f 166 134 135
f 166 135 167
