mtllib P-35_tex.mtl
v 0.555369 0.889153 -0.094258
v -0.110590 0.889068 -0.000561
v 0.243224 0.892207 -0.048840
v 0.564337 0.455310 0.153077
v 0.313011 0.612064 0.002093
v 0.566154 0.596896 -0.011444
v -0.708405 0.445509 0.204172
v -0.520889 0.636079 -0.005688
v -0.384327 0.446966 0.202560
v -0.520889 0.636079 -0.005688
v -0.672620 0.434426 0.213382
v -0.708405 0.445509 0.204172
v -0.672620 0.434426 0.213382
v -0.448027 0.004127 0.111128
v -0.724405 0.320080 0.067380
v -0.535686 0.218034 0.065406
v -0.287972 0.056974 0.066858
v -0.724405 0.320080 0.067380
v 0.248248 0.017783 0.161630
v 0.034685 0.019730 0.219399
v 0.265810 0.011674 0.236069
v -0.122657 0.379160 -0.101863
v -0.029273 0.383469 -0.050724
v 0.031267 0.385236 -0.035560
v -0.319366 0.024204 0.195753
v 0.103059 0.019923 0.215801
v -0.164963 0.015567 0.289386
v -0.748406 0.637692 -0.049713
v -0.838417 0.448303 -0.071043
v -0.520889 0.636079 -0.005688
v -0.520889 0.636079 -0.005688
v -0.428796 0.548160 -0.049642
v -0.420827 0.545442 -0.050176
v 0.570922 0.560282 -0.089170
v 0.485603 0.665125 -0.088007
v 0.337577 0.803272 -0.082873
v 0.570922 0.560282 -0.089170
v 0.337577 0.803272 -0.082873
v 0.562398 0.722955 -0.092438
v -0.287972 0.056974 0.066858
v -0.060663 0.034768 0.053544
v -0.118655 0.386323 -0.033516
v 0.031267 0.385236 -0.035560
v -0.724405 0.320080 0.067380
v -0.465975 0.386791 -0.053549
v -0.828698 0.439728 -0.051170
v -0.122657 0.379160 -0.101863
v -0.825243 0.422843 -0.043693
v 0.631238 0.000000 -0.160700
v 0.245958 0.386521 -0.163562
v 0.744224 0.326629 -0.050710
v 0.559105 0.017565 -0.133759
v 0.233301 0.037429 0.084375
v 0.228351 0.382683 -0.009531
v 0.719494 0.018210 0.056683
v 0.717362 0.372800 -0.015226
v 0.031267 0.385236 -0.035560
v -0.060663 0.034768 0.053544
v 0.559105 0.017565 -0.133759
v 0.631238 0.000000 -0.160700
v 0.744224 0.326629 -0.050710
v 0.245958 0.386521 -0.163562
v -0.158595 0.443513 -0.266619
v -0.505954 0.443374 -0.246762
v -0.748406 0.637692 -0.049713
v -0.838417 0.448303 -0.071043
v -0.420827 0.545442 -0.050176
v 0.077577 0.573753 -0.067016
v -0.520889 0.636079 -0.005688
v -0.066417 0.467829 -0.185570
v 0.897722 0.389829 0.082329
v 0.717362 0.372800 -0.015226
v 0.566154 0.596896 -0.011444
v 0.744224 0.326629 -0.050710
v 0.570922 0.560282 -0.089170
v 0.622012 0.462539 -0.304365
v 0.558237 0.443469 -0.310614
v 0.485603 0.665125 -0.088007
v 0.224597 0.394066 -0.283889
v -0.896119 0.460708 -0.189784
v -0.029273 0.383469 -0.050724
v 0.212455 0.194269 -0.087713
v 0.245958 0.386521 -0.163562
v 0.559105 0.017565 -0.133759
v -0.465975 0.386791 -0.053549
v -0.459464 0.211327 -0.078857
v -0.122657 0.379160 -0.101863
v -0.117562 0.200652 -0.093488
v -0.087617 0.524297 0.033116
v 0.485603 0.665125 -0.088007
v 0.313011 0.612064 0.002093
v 0.077577 0.573753 -0.067016
v 0.448342 0.471331 0.085058
v 0.139990 0.483563 0.084578
v -0.076730 0.681172 0.037530
v -0.037707 0.671789 -0.073926
v -0.459464 0.211327 -0.078857
v -0.784361 0.037819 -0.142981
v -0.795360 0.014893 0.058169
v -0.535686 0.218034 0.065406
v -0.827520 0.656912 -0.045627
v -0.825243 0.422843 -0.043693
v -0.520889 0.636079 -0.005688
v -0.795725 0.719978 -0.038770
v -0.724405 0.320080 0.067380
v -0.447668 0.673677 -0.049096
v -0.838417 0.448303 -0.071043
v -0.167065 0.381397 -0.187483
v 0.224597 0.394066 -0.283889
v -0.029273 0.383469 -0.050724
v 0.503274 0.412057 -0.303902
v -0.122657 0.379160 -0.101863
v -0.465975 0.386791 -0.053549
v -0.453510 0.427037 -0.248408
v -0.828698 0.439728 -0.051170
v -0.898436 0.396024 -0.194051
v 0.245958 0.386521 -0.163562
v 0.228351 0.382683 -0.009531
v 0.744224 0.326629 -0.050710
v 0.561090 0.400753 -0.306127
v 0.031267 0.385236 -0.035560
v -0.158595 0.443513 -0.266619
v 0.622012 0.462539 -0.304365
v -0.825243 0.422843 -0.043693
v 0.023790 0.398373 0.177932
v -0.441220 0.411516 0.200463
v -0.118655 0.386323 -0.033516
v 0.230404 0.377211 0.144433
v 0.838409 0.389497 0.086013
v 0.717362 0.372800 -0.015226
v 0.897722 0.389829 0.082329
v 0.901483 0.389779 0.084922
v -0.672620 0.434426 0.213382
v -0.724405 0.320080 0.067380
v -0.784361 0.037819 -0.142981
v -0.459464 0.211327 -0.078857
v -0.535686 0.218034 0.065406
v -0.795360 0.014893 0.058169
v -0.060663 0.034768 0.053544
v -0.319366 0.024204 0.195753
v 0.103059 0.019923 0.215801
v 0.233301 0.037429 0.084375
v 0.034685 0.019730 0.219399
v -0.164963 0.015567 0.289386
v 0.248248 0.017783 0.161630
v -0.287972 0.056974 0.066858
v -0.520889 0.636079 -0.005688
v -0.724405 0.320080 0.067380
v -0.672620 0.434426 0.213382
v -0.117562 0.200652 -0.093488
v -0.465975 0.386791 -0.053549
v -0.122657 0.379160 -0.101863
v 0.212455 0.194269 -0.087713
v -0.459464 0.211327 -0.078857
v -0.724405 0.320080 0.067380
v -0.029273 0.383469 -0.050724
v -0.287972 0.056974 0.066858
v -0.060663 0.034768 0.053544
v 0.103059 0.019923 0.215801
v -0.319366 0.024204 0.195753
v 0.248248 0.017783 0.161630
v 0.265810 0.011674 0.236069
v 0.611924 0.012981 0.241239
v 0.699795 0.019189 0.086783
v 0.233301 0.037429 0.084375
v 0.034685 0.019730 0.219399
v 0.699795 0.019189 0.086783
v 0.265810 0.011674 0.236069
v 0.611924 0.012981 0.241239
v 0.248248 0.017783 0.161630
v 0.904874 0.448926 -0.025300
v 0.566154 0.596896 -0.011444
v 0.945422 0.449371 0.110310
v 0.897722 0.389829 0.082329
v 0.566154 0.596896 -0.011444
v 0.904874 0.448926 -0.025300
v -0.037707 0.671789 -0.073926
v 0.337577 0.803272 -0.082873
v -0.076730 0.681172 0.037530
v -0.447668 0.673677 -0.049096
v -0.428796 0.548160 -0.049642
v -0.111883 0.771671 0.008878
v 0.555369 0.889153 -0.094258
v 0.229271 0.676827 -0.002322
v 0.337577 0.803272 -0.082873
v -0.076730 0.681172 0.037530
v -0.420827 0.545442 -0.050176
v -0.447668 0.673677 -0.049096
v -0.128876 0.675070 -0.069351
v -0.428796 0.548160 -0.049642
v 0.229271 0.676827 -0.002322
v 0.562398 0.722955 -0.092438
v 0.337577 0.803272 -0.082873
v 0.628846 0.676281 -0.027224
v 0.566154 0.596896 -0.011444
v 0.313011 0.612064 0.002093
v 0.448342 0.471331 0.085058
v 0.564337 0.455310 0.153077
v 0.945422 0.449371 0.110310
v -0.428796 0.548160 -0.049642
v -0.520889 0.636079 -0.005688
v -0.384327 0.446966 0.202560
v -0.087617 0.524297 0.033116
v 0.139990 0.483563 0.084578
v 0.230404 0.377211 0.144433
v 0.838409 0.389497 0.086013
v 0.448342 0.471331 0.085058
v 0.023790 0.398373 0.177932
v -0.441220 0.411516 0.200463
v -0.708405 0.445509 0.204172
v -0.672620 0.434426 0.213382
v 0.313011 0.612064 0.002093
v -0.111883 0.771671 0.008878
v -0.420827 0.545442 -0.050176
v -0.428796 0.548160 -0.049642
v -0.128876 0.675070 -0.069351
v 0.485603 0.665125 -0.088007
v 0.077577 0.573753 -0.067016
v -0.037707 0.671789 -0.073926
v 0.337577 0.803272 -0.082873
v 0.223503 0.898734 -0.067774
v -0.115226 0.900000 -0.050715
v 0.555369 0.889153 -0.094258
v -0.448027 0.004127 0.111128
v -0.535686 0.218034 0.065406
v -0.724405 0.320080 0.067380
v -0.724405 0.320080 0.067380
v -0.459464 0.211327 -0.078857
v -0.535686 0.218034 0.065406
v -0.672620 0.434426 0.213382
v -0.448027 0.004127 0.111128
v 0.904874 0.448926 -0.025300
v 0.570922 0.560282 -0.089170
v 0.566154 0.596896 -0.011444
v 0.562398 0.722955 -0.092438
v 0.564337 0.455310 0.153077
v 0.448342 0.471331 0.085058
v 0.838409 0.389497 0.086013
v 0.901483 0.389779 0.084922
v 0.945422 0.449371 0.110310
v 0.570922 0.560282 -0.089170
v 0.485603 0.665125 -0.088007
v 0.313011 0.612064 0.002093
v 0.337577 0.803272 -0.082873
v 0.229271 0.676827 -0.002322
v -0.087617 0.524297 0.033116
v -0.076730 0.681172 0.037530
v -0.453510 0.427037 -0.248408
v -0.898436 0.396024 -0.194051
v -0.505954 0.443374 -0.246762
v -0.896119 0.460708 -0.189784
v -0.167065 0.381397 -0.187483
v 0.570922 0.560282 -0.089170
v 0.566154 0.596896 -0.011444
v 0.628846 0.676281 -0.027224
v -0.520889 0.636079 -0.005688
v -0.111883 0.771671 0.008878
v -0.447668 0.673677 -0.049096
v 0.223503 0.898734 -0.067774
v -0.115735 0.889801 -0.008557
v -0.110590 0.889068 -0.000561
v -0.115226 0.900000 -0.050715
v 0.555369 0.889153 -0.094258
v 0.562398 0.722955 -0.092438
v 0.570922 0.560282 -0.089170
v 0.628846 0.676281 -0.027224
v -0.896119 0.460708 -0.189784
v -0.898436 0.396024 -0.194051
v -0.838417 0.448303 -0.071043
v -0.828698 0.439728 -0.051170
v 0.628846 0.676281 -0.027224
v 0.566154 0.596896 -0.011444
v 0.562398 0.722955 -0.092438
v 0.897722 0.389829 0.082329
v 0.904874 0.448926 -0.025300
v 0.945422 0.449371 0.110310
v 0.901483 0.389779 0.084922
v 0.103059 0.019923 0.215801
v 0.034685 0.019730 0.219399
v 0.248248 0.017783 0.161630
v -0.838417 0.448303 -0.071043
v -0.828698 0.439728 -0.051170
v -0.825243 0.422843 -0.043693
v 0.243224 0.892207 -0.048840
v -0.076730 0.681172 0.037530
v 0.229271 0.676827 -0.002322
v 0.555369 0.889153 -0.094258
v -0.110590 0.889068 -0.000561
v -0.520889 0.636079 -0.005688
v -0.838417 0.448303 -0.071043
v -0.827520 0.656912 -0.045627
v -0.447668 0.673677 -0.049096
v -0.795725 0.719978 -0.038770
v -0.520889 0.636079 -0.005688
v -0.428796 0.548160 -0.049642
v -0.111883 0.771671 0.008878
v -0.128876 0.675070 -0.069351
v -0.420827 0.545442 -0.050176
v -0.167065 0.381397 -0.187483
v -0.505954 0.443374 -0.246762
v -0.158595 0.443513 -0.266619
v 0.570922 0.560282 -0.089170
v 0.313011 0.612064 0.002093
v 0.566154 0.596896 -0.011444
v 0.503274 0.412057 -0.303902
v 0.224597 0.394066 -0.283889
v 0.558237 0.443469 -0.310614
v 0.561090 0.400753 -0.306127
v 0.622012 0.462539 -0.304365
v -0.128876 0.675070 -0.069351
v -0.111883 0.771671 0.008878
v -0.115735 0.889801 -0.008557
v -0.110590 0.889068 -0.000561
v -0.115226 0.900000 -0.050715
v -0.076730 0.681172 0.037530
v -0.087617 0.524297 0.033116
v -0.111883 0.771671 0.008878
v -0.428796 0.548160 -0.049642
v -0.087617 0.524297 0.033116
v 0.562398 0.722955 -0.092438
v 0.555369 0.889153 -0.094258
v 0.632083 0.889592 -0.098806
v 0.337577 0.803272 -0.082873
v 0.337577 0.803272 -0.082873
v 0.562398 0.722955 -0.092438
v 0.632083 0.889592 -0.098806
v 0.555369 0.889153 -0.094258
v -0.076730 0.681172 0.037530
v -0.087617 0.524297 0.033116
v 0.313011 0.612064 0.002093
v 0.229271 0.676827 -0.002322
v 0.562398 0.722955 -0.092438
v 0.485603 0.665125 -0.088007
v 0.337577 0.803272 -0.082873
v 0.562398 0.722955 -0.092438
v 0.485603 0.665125 -0.088007
v 0.570922 0.560282 -0.089170
v -0.695537 0.454821 0.218957
v -0.672620 0.434426 0.213382
v -0.708405 0.445509 0.204172
v -0.447668 0.673677 -0.049096
v -0.784461 0.894380 -0.007761
v -0.755132 0.889366 -0.025910
v -0.795725 0.719978 -0.038770
v -0.111883 0.771671 0.008878
v -0.115735 0.889801 -0.008557
v -0.447668 0.673677 -0.049096
v -0.128876 0.675070 -0.069351
v -0.111883 0.771671 0.008878
v 0.223503 0.898734 -0.067774
v -0.110590 0.889068 -0.000561
v -0.076730 0.681172 0.037530
v -0.428796 0.548160 -0.049642
v -0.520889 0.636079 -0.005688
v -0.447668 0.673677 -0.049096
v 0.717362 0.372800 -0.015226
v 0.744224 0.326629 -0.050710
v 0.897722 0.389829 0.082329
vt 0.042043 0.951121
vt 0.291591 0.951121
vt 0.159088 0.949327
vt 0.806962 0.065022
vt 0.930832 0.065022
vt 0.859160 0.004036
vt 0.947107 0.392377
vt 0.842224 0.322662
vt 0.947107 0.273094
vt 0.957052 0.992377
vt 0.833391 0.978027
vt 0.830470 0.992377
vt 0.873870 0.399552
vt 0.873870 0.581614
vt 0.814195 0.438399
vt 0.709410 0.847085
vt 0.599910 0.851570
vt 0.788879 0.851570
vt 0.998644 0.056951
vt 0.998644 0.138565
vt 0.969711 0.057847
vt 0.634268 0.838117
vt 0.594805 0.833632
vt 0.571881 0.838117
vt 0.112568 0.153812
vt 0.269892 0.153812
vt 0.171621 0.121525
vt 0.665913 0.608439
vt 0.710217 0.543946
vt 0.710217 0.682063
vt 0.675859 0.359193
vt 0.625332 0.357399
vt 0.622514 0.359193
vt 0.008589 0.422870
vt 0.004069 0.373387
vt 0.008590 0.299103
vt 0.215642 0.818386
vt 0.215642 0.942152
vt 0.175859 0.863622
vt 0.713834 0.498509
vt 0.713834 0.414540
vt 0.581797 0.446353
vt 0.577577 0.391480
vt 0.632662 0.667380
vt 0.576469 0.575364
vt 0.573101 0.709865
vt 0.556510 0.449629
vt 0.580007 0.709010
vt 0.040409 0.812108
vt 0.195750 0.941256
vt 0.004973 0.941256
vt 0.069659 0.813660
vt 0.838119 0.298658
vt 0.705607 0.303302
vt 0.838608 0.119731
vt 0.704729 0.123415
vt 0.703888 0.375791
vt 0.838608 0.406726
vt 0.479694 0.787802
vt 0.504573 0.781614
vt 0.540235 0.911659
vt 0.347649 0.911659
vt 0.436008 0.019728
vt 0.565190 0.020716
vt 0.658422 0.120041
vt 0.700673 0.054502
vt 0.532512 0.108923
vt 0.347220 0.106405
vt 0.574805 0.140359
vt 0.399155 0.047134
vt 0.000452 0.140359
vt 0.057435 0.089510
vt 0.149584 0.129472
vt 0.044334 0.069742
vt 0.149715 0.097644
vt 0.142881 0.008578
vt 0.167634 0.006819
vt 0.192841 0.123125
vt 0.292623 0.000448
vt 0.711121 0.006624
vt 0.390227 0.442738
vt 0.285957 0.495815
vt 0.285267 0.421076
vt 0.143309 0.536771
vt 0.552893 0.472158
vt 0.537409 0.536771
vt 0.423419 0.450367
vt 0.409070 0.516568
vt 0.023544 0.789860
vt 0.231013 0.708072
vt 0.171178 0.752757
vt 0.079865 0.742182
vt 0.222560 0.812108
vt 0.108345 0.812108
vt 0.000452 0.736427
vt 0.034665 0.709016
vt 0.949819 0.926009
vt 0.949819 0.786996
vt 0.873870 0.791680
vt 0.891194 0.912621
vt 0.232403 0.867686
vt 0.279600 0.939940
vt 0.334015 0.813726
vt 0.230108 0.841734
vt 0.345841 0.953812
vt 0.345841 0.781614
vt 0.264985 0.937947
vt 0.434234 0.286083
vt 0.289417 0.316037
vt 0.386121 0.233650
vt 0.186215 0.320599
vt 0.420417 0.253762
vt 0.549595 0.249996
vt 0.536128 0.322185
vt 0.683912 0.272645
vt 0.701175 0.330493
vt 0.282407 0.270344
vt 0.291286 0.213746
vt 0.098819 0.221534
vt 0.164513 0.320133
vt 0.364497 0.226830
vt 0.431013 0.322760
vt 0.134301 0.330493
vt 0.682909 0.266498
vt 0.370380 0.147881
vt 0.543289 0.144042
vt 0.420868 0.228341
vt 0.293992 0.156996
vt 0.068977 0.160534
vt 0.110650 0.201471
vt 0.047001 0.160187
vt 0.045660 0.159120
vt 0.629862 0.140359
vt 0.650424 0.208502
vt 0.956148 0.439013
vt 0.956148 0.577130
vt 0.897903 0.563874
vt 0.881103 0.443492
vt 0.700364 0.937668
vt 0.601718 0.889700
vt 0.758365 0.874935
vt 0.809061 0.921470
vt 0.732891 0.874787
vt 0.657459 0.852466
vt 0.813291 0.892140
vt 0.615595 0.937668
vt 0.643309 0.999552
vt 0.785262 0.999552
vt 0.750402 0.937668
vt 0.082718 0.550101
vt 0.016773 0.419604
vt 0.016145 0.546917
vt 0.082731 0.671300
vt 0.082731 0.424403
vt 0.039342 0.314350
vt 0.007685 0.585140
vt 0.143526 0.699309
vt 0.227800 0.707175
vt 0.291229 0.649451
vt 0.134268 0.649857
vt 0.344210 0.671825
vt 0.351968 0.644395
vt 0.480348 0.648413
vt 0.510398 0.707175
vt 0.337243 0.700891
vt 0.265941 0.646955
vt 0.927215 0.240807
vt 0.898666 0.074085
vt 0.875678 0.199564
vt 0.927215 0.072197
vt 0.196935 0.952018
vt 0.067360 0.996861
vt 0.224684 0.996861
vt 0.696655 0.134978
vt 0.696655 0.282960
vt 0.654159 0.153253
vt 0.455218 0.957399
vt 0.312387 0.994170
vt 0.478752 0.994170
vt 0.952532 0.335101
vt 0.995027 0.314350
vt 0.995027 0.458744
vt 0.552893 0.791480
vt 0.514014 0.645811
vt 0.551766 0.704498
vt 0.552893 0.535874
vt 0.852879 0.223767
vt 0.843128 0.271300
vt 0.961573 0.271300
vt 0.849922 0.224786
vt 0.717096 0.441810
vt 0.827758 0.513695
vt 0.787113 0.434529
vt 0.822648 0.550801
vt 0.786157 0.552382
vt 0.723008 0.479846
vt 0.711121 0.558860
vt 0.724959 0.603609
vt 0.827758 0.706278
vt 0.153240 0.445536
vt 0.104507 0.448879
vt 0.169412 0.346354
vt 0.279617 0.414161
vt 0.365665 0.390134
vt 0.402802 0.342337
vt 0.635172 0.368459
vt 0.483479 0.388544
vt 0.323364 0.341330
vt 0.150231 0.331390
vt 0.053797 0.342322
vt 0.066484 0.336672
vt 0.430677 0.448879
vt 0.262058 0.554582
vt 0.148990 0.642601
vt 0.146022 0.641627
vt 0.259852 0.600805
vt 0.486997 0.617261
vt 0.334017 0.642601
vt 0.293541 0.603905
vt 0.435112 0.563301
vt 0.394735 0.525553
vt 0.269327 0.517937
vt 0.517631 0.536406
vt 0.994123 0.304484
vt 0.964286 0.222769
vt 0.994123 0.149327
vt 0.717636 0.031072
vt 0.836120 0.020179
vt 0.791299 0.060597
vt 0.687613 0.095516
vt 0.871157 0.095516
vt 0.117089 0.491928
vt 0.085443 0.620146
vt 0.117089 0.628225
vt 0.095584 0.679372
vt 0.957957 0.050149
vt 0.932750 0.006726
vt 0.930832 0.153585
vt 0.932522 0.176774
vt 0.957957 0.191480
vt 0.570072 0.753812
vt 0.599436 0.712788
vt 0.670190 0.732118
vt 0.651470 0.657848
vt 0.699389 0.705532
vt 0.821429 0.753812
vt 0.814594 0.696831
vt 0.328252 0.127299
vt 0.494123 0.143049
vt 0.347795 0.121483
vt 0.494123 0.118834
vt 0.218354 0.128472
vt 0.219259 0.560987
vt 0.196560 0.538565
vt 0.165913 0.560987
vt 0.978752 0.431839
vt 0.978752 0.590583
vt 0.960669 0.461228
vt 0.522959 0.948837
vt 0.395570 0.933633
vt 0.397293 0.930493
vt 0.396713 0.950224
vt 0.646926 0.950224
vt 0.133363 0.602242
vt 0.193942 0.602242
vt 0.152469 0.568161
vt 0.830470 0.560987
vt 0.854882 0.560987
vt 0.831410 0.511979
vt 0.834006 0.503587
vt 0.539779 0.410314
vt 0.512206 0.437220
vt 0.568264 0.437220
vt 0.526366 0.111659
vt 0.563743 0.137668
vt 0.511302 0.137668
vt 0.524711 0.112013
vt 0.851266 0.144423
vt 0.856691 0.119731
vt 0.856691 0.201345
vt 0.551989 0.953812
vt 0.543276 0.950224
vt 0.536618 0.953812
vt 0.646416 0.826457
vt 0.769073 0.748419
vt 0.654583 0.745740
vt 0.529385 0.824567
vt 0.778933 0.826457
vt 0.870253 0.867423
vt 0.870253 0.729596
vt 0.805617 0.773091
vt 0.863011 0.900897
vt 0.789783 0.793957
vt 0.794304 0.975336
vt 0.815766 0.930482
vt 0.956148 0.975336
vt 0.938234 0.933132
vt 0.818231 0.928700
vt 0.113472 0.322422
vt 0.092345 0.195067
vt 0.075497 0.322422
vt 0.506781 0.978924
vt 0.609855 0.978924
vt 0.520368 0.950224
vt 0.639206 0.380451
vt 0.535714 0.391480
vt 0.661439 0.388502
vt 0.659683 0.372646
vt 0.685805 0.391480
vt 0.951627 0.888901
vt 0.980191 0.852273
vt 0.971838 0.809097
vt 0.975405 0.809201
vt 0.955950 0.805830
vt 0.999548 0.884281
vt 0.999548 0.942152
vt 0.906420 0.724215
vt 0.906420 0.579821
vt 0.824141 0.680862
vt 0.174051 0.824684
vt 0.116879 0.847640
vt 0.107143 0.821076
vt 0.174051 0.912556
vt 0.974231 0.428251
vt 0.885644 0.428251
vt 0.882007 0.361883
vt 0.908784 0.371541
vt 0.916365 0.772693
vt 0.973327 0.788789
vt 0.973327 0.637220
vt 0.942795 0.662000
vt 0.256329 0.815695
vt 0.226492 0.796199
vt 0.256329 0.727803
vt 0.703888 0.700897
vt 0.740054 0.700897
vt 0.738125 0.650673
vt 0.545660 0.904211
vt 0.552893 0.894619
vt 0.552893 0.908969
vt 0.383060 0.697309
vt 0.508723 0.778782
vt 0.495810 0.778924
vt 0.512206 0.713433
vt 0.257233 0.734903
vt 0.258806 0.778924
vt 0.152351 0.706278
vt 0.041037 0.664126
vt 0.020344 0.706278
vt 0.071881 0.324215
vt 0.001356 0.219783
vt 0.071881 0.182511
vt 0.438969 0.341256
vt 0.489602 0.341256
vt 0.474684 0.309865
vt 0.379295 0.864126
vt 0.354882 0.863051
vt 0.379295 0.787892
usemtl baked
f 187/187 190/190 188/188
f 217/217 218/218 219/219
f 217/217 219/219 220/220
f 320/320 321/321 322/322
f 320/320 323/323 321/321
f 214/214 216/216 219/219
f 214/214 219/219 218/218
f 196/196 195/195 191/191
f 191/191 195/195 194/194
f 328/328 329/329 330/330
f 328/328 330/330 331/331
f 332/332 333/333 334/334
f 184/184 186/186 185/185
f 177/177 178/178 179/179
f 327/327 324/324 326/326
f 324/324 325/325 326/326
f 246/246 245/245 247/247
f 245/245 246/246 243/243
f 245/245 243/243 244/244
f 89/89 92/92 90/90
f 89/89 90/90 91/91
f 92/92 89/89 95/95
f 92/92 95/95 96/96
f 335/335 336/336 337/337
f 25/25 26/26 27/27
f 143/143 144/144 141/141
f 159/159 158/158 161/161
f 161/161 158/158 165/165
f 278/278 279/279 280/280
f 19/19 20/20 21/21
f 166/166 159/159 162/162
f 159/159 161/161 162/162
f 142/142 139/139 141/141
f 142/142 141/141 145/145
f 160/160 157/157 159/159
f 157/157 158/158 159/159
f 139/139 146/146 140/140
f 139/139 140/140 141/141
f 140/140 144/144 143/143
f 140/140 143/143 141/141
f 133/133 134/134 127/127
f 127/127 126/126 133/133
f 338/338 339/339 340/340
f 93/93 89/89 91/91
f 212/212 203/203 204/204
f 212/212 204/204 207/207
f 94/94 89/89 93/93
f 220/220 219/219 221/221
f 220/220 221/221 223/223
f 345/345 341/341 343/343
f 347/347 348/348 349/349
f 345/345 343/343 346/346
f 310/310 311/311 312/312
f 314/314 310/310 312/312
f 187/187 188/188 189/189
f 221/221 216/216 222/222
f 219/219 216/216 221/221
f 259/259 262/262 260/260
f 259/259 260/260 261/261
f 350/350 351/351 352/352
f 312/312 311/311 313/313
f 313/313 311/311 315/315
f 288/288 285/285 284/284
f 284/284 285/285 286/286
f 1/1 2/2 3/3
f 259/259 261/261 263/263
f 341/341 344/344 342/342
f 341/341 342/342 343/343
f 191/191 194/194 192/192
f 191/191 192/192 193/193
f 284/284 286/286 287/287
f 183/183 184/184 185/185
f 308/308 307/307 309/309
f 76/76 77/77 75/75
f 77/77 78/78 75/75
f 77/77 70/70 68/68
f 77/77 68/68 78/78
f 134/134 113/113 127/127
f 113/113 112/112 127/127
f 112/112 108/108 110/110
f 108/108 109/109 110/110
f 31/31 32/32 33/33
f 213/213 214/214 215/215
f 213/213 216/216 214/214
f 353/353 354/354 355/355
f 180/180 181/181 182/182
f 296/296 295/295 297/297
f 297/297 295/295 298/298
f 104/104 103/103 106/106
f 256/256 257/257 258/258
f 294/294 295/295 296/296
f 104/104 101/101 103/103
f 110/110 109/109 111/111
f 110/110 111/111 117/117
f 111/111 120/120 119/119
f 117/117 111/111 119/119
f 110/110 118/118 121/121
f 110/110 117/117 118/118
f 308/308 305/305 307/307
f 79/79 70/70 77/77
f 305/305 306/306 307/307
f 108/108 122/122 109/109
f 79/79 63/63 70/70
f 299/299 300/300 301/301
f 249/249 251/251 250/250
f 248/248 249/249 250/250
f 268/268 270/270 269/269
f 267/267 268/268 269/269
f 65/65 64/64 66/66
f 64/64 80/80 66/66
f 28/28 29/29 30/30
f 289/289 290/290 291/291
f 292/292 291/291 293/293
f 289/289 291/291 292/292
f 63/63 67/67 68/68
f 70/70 63/63 68/68
f 115/115 116/116 114/114
f 115/115 114/114 113/113
f 101/101 102/102 103/103
f 102/102 105/105 103/103
f 147/147 148/148 149/149
f 10/10 11/11 12/12
f 252/252 248/248 250/250
f 63/63 64/64 65/65
f 67/67 63/63 65/65
f 113/113 114/114 108/108
f 113/113 108/108 112/112
f 281/281 282/282 283/283
f 107/107 102/102 101/101
f 53/53 54/54 55/55
f 54/54 56/56 55/55
f 53/53 57/57 54/54
f 53/53 58/58 57/57
f 244/244 243/243 242/242
f 253/253 254/254 255/255
f 264/264 265/265 266/266
f 119/119 120/120 123/123
f 74/74 76/76 75/75
f 271/271 272/272 273/273
f 235/235 234/234 233/233
f 34/34 35/35 36/36
f 37/37 38/38 39/39
f 67/67 65/65 69/69
f 81/81 82/82 83/83
f 49/49 50/50 51/51
f 49/49 52/52 50/50
f 62/62 59/59 61/61
f 59/59 60/60 61/61
f 82/82 84/84 83/83
f 22/22 23/23 24/24
f 127/127 112/112 121/121
f 121/121 118/118 125/125
f 127/127 121/121 126/126
f 126/126 121/121 125/125
f 210/210 211/211 209/209
f 210/210 209/209 202/202
f 46/46 48/48 44/44
f 45/45 46/46 44/44
f 86/86 88/88 87/87
f 124/124 115/115 113/113
f 124/124 113/113 134/134
f 150/150 154/154 151/151
f 150/150 151/151 152/152
f 88/88 82/82 81/81
f 87/87 88/88 81/81
f 153/153 150/150 152/152
f 156/156 153/153 152/152
f 129/129 130/130 131/131
f 129/129 131/131 132/132
f 302/302 303/303 304/304
f 241/241 242/242 243/243
f 128/128 118/118 129/129
f 130/130 118/118 119/119
f 117/117 119/119 118/118
f 118/118 130/130 129/129
f 125/125 118/118 128/128
f 236/236 239/239 240/240
f 236/236 238/238 239/239
f 274/274 275/275 276/276
f 277/277 274/274 276/276
f 356/356 357/357 358/358
f 236/236 237/237 238/238
f 205/205 206/206 207/207
f 208/208 205/205 207/207
f 204/204 208/208 207/207
f 174/174 175/175 176/176
f 232/232 233/233 234/234
f 73/73 74/74 75/75
f 71/71 72/72 73/73
f 74/74 73/73 72/72
f 4/4 5/5 6/6
f 196/196 197/197 195/195
f 195/195 197/197 198/198
f 171/171 172/172 173/173
f 195/195 198/198 199/199
f 162/162 161/161 163/163
f 161/161 164/164 163/163
f 170/170 168/168 167/167
f 167/167 168/168 169/169
f 151/151 154/154 155/155
f 227/227 228/228 229/229
f 44/44 40/40 42/42
f 16/16 17/17 18/18
f 40/40 41/41 42/42
f 42/42 41/41 43/43
f 47/47 45/45 44/44
f 47/47 44/44 42/42
f 85/85 86/86 87/87
f 13/13 14/14 15/15
f 224/224 225/225 226/226
f 229/229 231/231 230/230
f 227/227 229/229 230/230
f 7/7 8/8 9/9
f 200/200 210/210 202/202
f 200/200 201/201 202/202
f 200/200 201/201 210/210
f 202/202 209/209 204/204
f 209/209 208/208 204/204
f 317/317 318/318 319/319
f 315/315 311/311 316/316
f 203/203 200/200 202/202
f 203/203 202/202 204/204
f 135/135 137/137 138/138
f 135/135 136/136 137/137
f 97/97 98/98 99/99
f 97/97 99/99 100/100
