v -1.244485 0.106341 -0.297722 0.6964 0.5714 0.5706
v -0.932006 0.000000 -0.151295 0.6845 0.4908 0.5271
v -0.910940 0.000003 0.008681 0.4598 0.3712 0.3793
v -1.248734 0.055265 0.160529 0.6307 0.6187 0.5843
v -0.909243 0.413514 -0.164537 0.6456 0.4397 0.4902
v -1.248729 0.403054 -0.153627 0.5403 0.3776 0.4233
v -1.248779 0.413824 0.009294 0.2968 0.2492 0.2500
v -1.248739 0.208242 0.159964 0.0859 0.0832 0.0787
v -0.911298 0.416872 -0.163789 0.7051 0.6643 0.5836
v -1.248790 0.524436 -0.090871 0.3696 0.3797 0.3709
v -1.248779 0.623340 0.039871 0.4937 0.4761 0.4361
v -1.051875 0.628334 -0.154498 0.7621 0.6931 0.5171
v -1.248747 0.627710 -0.017468 0.5888 0.5620 0.4729
v -1.248758 0.648065 0.004206 0.6555 0.5896 0.4796
v -1.208602 0.831864 -0.133776 0.6304 0.6145 0.5653
v -1.112710 0.891341 0.040106 0.5287 0.5209 0.4921
v -0.839368 0.206643 -0.293927 0.7076 0.6889 0.6401
v -0.843682 0.000037 -0.154193 0.7204 0.7142 0.6723
v -0.896041 0.000005 0.009634 0.7227 0.7260 0.6777
v -0.734554 0.008435 0.285795 0.7433 0.7355 0.6910
v -0.776991 0.414043 -0.163483 0.7147 0.6909 0.6328
v -0.668582 0.414138 0.148773 0.3719 0.3586 0.3296
v -0.892803 0.314841 0.216404 0.6647 0.6472 0.6086
v -0.831146 0.416041 -0.163452 0.7517 0.6877 0.5244
v -0.805765 0.416041 0.147307 0.7410 0.6340 0.4375
v -0.569932 0.627086 -0.155033 0.7851 0.7086 0.4691
v -0.596237 0.644662 -0.154463 0.7403 0.7040 0.5885
v -0.565820 0.649815 0.139357 0.7039 0.6346 0.4903
v -0.569007 0.893566 -0.104488 0.7162 0.6947 0.6361
v -0.568083 0.892949 0.006514 0.6788 0.6589 0.6084
v -0.298850 0.013498 -0.245365 0.7249 0.7075 0.6584
v -0.253019 0.000190 -0.154429 0.7223 0.7218 0.6769
v -0.223423 0.000160 0.059518 0.7227 0.7255 0.6766
v -0.524307 0.022839 0.242540 0.7250 0.7093 0.6654
v -0.561094 0.387747 -0.178991 0.7359 0.7104 0.6519
v -0.225275 0.415042 0.153673 0.1957 0.1893 0.1748
v -0.563046 0.342719 0.197285 0.6004 0.5836 0.5475
v -0.561094 0.492217 -0.159722 0.7602 0.7152 0.5742
v -0.233083 0.421037 0.153147 0.7583 0.7156 0.5761
v -0.268021 0.624714 -0.155088 0.7956 0.7283 0.4749
v -0.265966 0.647816 -0.154359 0.7049 0.6850 0.6196
v -0.425040 0.633580 0.142482 0.7103 0.6863 0.6180
v -0.547119 0.893590 -0.098975 0.7109 0.6914 0.6403
v -0.295075 0.880735 0.139222 0.6944 0.6778 0.6318
v -0.137724 0.195516 -0.285062 0.7200 0.7052 0.6612
v -0.193625 0.000128 -0.001354 0.7147 0.7018 0.6624
v -0.185764 0.000133 0.014147 0.7086 0.6974 0.6521
v -0.090041 0.000074 0.209717 0.6840 0.6663 0.6140
v -0.212554 0.214341 -0.285309 0.7394 0.7106 0.6518
v -0.143319 0.415502 0.156567 0.3844 0.3689 0.3426
v -0.034140 0.213238 0.281190 0.5542 0.5303 0.4866
v -0.221985 0.480854 -0.160186 0.7297 0.6970 0.6270
v -0.060192 0.426440 0.159006 0.7308 0.7076 0.6339
v -0.051602 0.421129 0.159564 0.4001 0.3831 0.3523
v 0.015184 0.656433 -0.154505 0.7106 0.6725 0.5823
v -0.013582 0.825457 -0.146363 0.7072 0.6767 0.5956
v -0.014412 0.740726 0.145168 0.7063 0.6880 0.6323
v -0.219108 0.894497 -0.136666 0.7202 0.7006 0.6469
v -0.103196 0.893215 0.056690 0.7072 0.6898 0.6391
v 0.360868 0.000621 -0.249928 0.7275 0.7126 0.6654
v 0.448933 0.001801 -0.000977 0.7173 0.7056 0.6647
v 0.457052 0.002015 0.152615 0.6800 0.6703 0.6240
v 0.348948 0.041403 0.282223 0.6898 0.6587 0.5944
v 0.130274 0.331587 -0.218997 0.7592 0.7355 0.6697
v 0.460750 0.348360 0.203161 0.6528 0.6226 0.5645
v 0.132742 0.441017 -0.165942 0.7375 0.7073 0.6393
v 0.357991 0.617346 -0.153675 0.7685 0.7375 0.6702
v 0.458696 0.592619 0.150236 0.7167 0.6855 0.6157
v 0.177134 0.449509 0.159287 0.5630 0.5425 0.4986
v 0.197276 0.624214 -0.154545 0.7094 0.6702 0.5828
v 0.455664 0.639793 -0.151395 0.7195 0.6913 0.6246
v 0.459312 0.631941 0.147481 0.7023 0.6838 0.6329
v 0.453148 0.831764 -0.138810 0.7165 0.6965 0.6443
v 0.316470 0.887126 0.003782 0.6945 0.6768 0.6373
v 0.778074 0.040405 -0.293385 0.7524 0.7329 0.6734
v 0.798471 0.000663 -0.002414 0.7198 0.7107 0.6674
v 0.696123 0.002238 0.137985 0.7243 0.7199 0.6729
v 0.461572 0.107823 0.272644 0.7421 0.7289 0.6831
v 0.797804 0.265771 -0.258342 0.7623 0.7370 0.6688
v 0.547891 0.378407 0.185116 0.7319 0.6986 0.6409
v 0.464091 0.417426 -0.168288 0.7389 0.7105 0.6435
v 0.727823 0.570638 -0.153882 0.7574 0.7268 0.6542
v 0.713437 0.572951 0.151085 0.7205 0.6887 0.6199
v 0.590898 0.440948 0.159607 0.7020 0.6569 0.5826
v 0.584267 0.623653 -0.151414 0.7123 0.6984 0.6515
v 0.637250 0.624887 0.147488 0.6535 0.6295 0.5784
v 0.802736 0.899718 -0.002109 0.7110 0.6954 0.6477
v 0.782183 0.877457 0.131038 0.6730 0.6535 0.6121
v 1.138338 0.000131 -0.259822 0.7321 0.7168 0.6685
v 1.007024 0.000330 -0.005312 0.7113 0.7014 0.6588
v 0.805665 0.000671 0.033781 0.7245 0.7120 0.6661
v 1.023053 0.136311 0.298589 0.7356 0.7191 0.6734
v 1.134648 0.212305 -0.296769 0.7641 0.7384 0.6714
v 1.126634 0.398075 0.173544 0.7400 0.7084 0.6535
v 0.812704 0.418039 -0.168991 0.7274 0.6984 0.6321
v 0.964044 0.573929 -0.154140 0.7237 0.6870 0.6046
v 0.840656 0.618569 0.147527 0.7592 0.7092 0.5561
v 1.103616 0.448510 0.159283 0.6975 0.6639 0.5933
v 1.023053 0.623840 -0.149725 0.7147 0.7001 0.6536
v 0.808492 0.647816 0.145169 0.6653 0.6327 0.5617
v 0.873433 0.900000 0.001661 0.7188 0.7044 0.6575
v 0.814861 0.875595 0.130752 0.7071 0.6806 0.6172
v 1.251210 0.020424 -0.165972 0.6919 0.5993 0.6167
v 1.251008 0.085986 -0.046819 0.6844 0.5880 0.6146
v 1.251037 0.175961 0.034830 0.7005 0.6637 0.6372
v 1.231862 0.156791 0.299459 0.6068 0.5795 0.5478
v 1.162602 0.208862 -0.300541 0.6112 0.5558 0.5624
v 1.251068 0.288602 -0.153745 0.5648 0.5257 0.5659
v 1.251029 0.211115 0.054288 0.5605 0.5711 0.5747
v 1.195691 0.393091 0.176565 0.4942 0.4702 0.4524
v 1.222373 0.541920 -0.157703 0.6735 0.6527 0.6004
v 1.175961 0.578134 -0.154337 0.5628 0.5895 0.5930
v 1.168150 0.449509 0.159239 0.6060 0.6262 0.6014
v 1.147187 0.439517 0.159921 0.4260 0.4196 0.3919
v 1.250799 0.824308 -0.114070 0.5579 0.5876 0.5916
v 1.237644 0.655227 0.140750 0.5678 0.5748 0.5139
v 1.250958 0.869367 -0.002438 0.6013 0.6093 0.5817
v 1.203910 0.832637 0.129195 0.6220 0.6112 0.5638
f 5 9 21
f 21 9 24
f 17 1 21
f 21 1 5
f 9 5 10
f 6 10 5
f 13 10 11
f 13 11 14
f 6 7 11
f 10 6 11
f 33 32 46
f 33 46 47
f 32 31 46
f 31 45 46
f 31 17 21
f 31 21 35
f 17 31 18
f 18 31 32
f 2 18 3
f 3 18 19
f 6 5 2
f 1 2 5
f 1 17 2
f 2 17 18
f 6 3 7
f 6 2 3
f 3 4 8
f 3 8 7
f 106 109 110
f 105 109 106
f 9 10 13
f 9 13 12
f 107 89 93
f 103 89 107
f 53 54 68
f 54 69 68
f 72 68 83
f 72 83 86
f 97 98 113
f 113 98 114
f 83 97 86
f 86 97 100
f 87 88 101
f 101 88 102
f 88 100 86
f 88 86 102
f 86 100 102
f 35 21 24
f 49 31 35
f 49 45 31
f 49 35 38
f 49 38 52
f 35 24 38
f 49 52 66
f 64 49 66
f 108 104 107
f 103 107 104
f 105 104 108
f 105 108 109
f 107 95 111
f 93 95 107
f 79 81 93
f 93 81 95
f 111 95 112
f 112 95 96
f 79 64 66
f 81 79 66
f 85 71 73
f 85 73 87
f 85 87 101
f 99 85 101
f 96 82 99
f 99 82 85
f 96 95 81
f 81 82 96
f 71 66 70
f 67 66 71
f 82 71 85
f 67 71 82
f 82 66 67
f 81 66 82
f 115 117 116
f 116 117 118
f 101 102 117
f 117 102 118
f 117 99 101
f 115 99 117
f 96 99 115
f 112 96 115
f 100 97 116
f 116 97 113
f 100 116 118
f 107 112 108
f 107 111 112
f 113 110 109
f 114 110 113
f 102 100 118
f 112 115 113
f 113 115 116
f 109 108 112
f 109 112 113
f 89 103 104
f 90 104 105
f 89 104 90
f 77 76 90
f 77 90 91
f 78 91 92
f 77 91 78
f 77 62 76
f 62 61 76
f 47 46 61
f 47 61 62
f 78 62 77
f 63 62 78
f 48 47 62
f 48 62 63
f 91 90 105
f 105 106 92
f 92 91 105
f 75 79 93
f 89 75 93
f 64 60 45
f 64 45 49
f 90 75 89
f 76 75 90
f 60 46 45
f 61 46 60
f 61 60 76
f 60 75 76
f 60 64 75
f 75 64 79
f 40 38 26
f 27 13 15
f 27 15 29
f 27 29 41
f 38 24 26
f 41 29 43
f 29 30 43
f 43 30 44
f 56 41 58
f 41 43 58
f 70 55 56
f 66 55 70
f 70 56 71
f 56 58 71
f 71 58 73
f 12 13 27
f 12 26 27
f 9 12 24
f 26 24 12
f 40 26 27
f 41 40 27
f 66 52 55
f 38 40 55
f 40 41 55
f 41 56 55
f 52 38 55
f 33 47 48
f 34 33 48
f 19 18 32
f 19 32 33
f 20 19 33
f 34 20 33
f 4 3 20
f 3 19 20
f 39 36 53
f 36 50 53
f 8 4 23
f 4 20 23
f 94 80 78
f 94 78 92
f 69 65 80
f 69 80 84
f 68 69 83
f 83 69 84
f 110 94 106
f 106 94 92
f 83 84 97
f 84 98 97
f 98 110 114
f 98 94 110
f 84 94 98
f 84 80 94
f 22 7 8
f 8 23 22
f 11 22 25
f 11 7 22
f 25 22 39
f 28 25 39
f 28 39 42
f 22 23 37
f 22 37 36
f 22 36 39
f 28 42 30
f 30 42 44
f 14 28 30
f 16 14 30
f 11 25 14
f 14 25 28
f 15 16 30
f 29 15 30
f 13 14 16
f 15 13 16
f 42 39 57
f 57 39 53
f 44 57 42
f 59 44 57
f 57 53 72
f 72 53 68
f 73 58 59
f 73 59 74
f 72 88 74
f 72 86 88
f 59 57 74
f 57 72 74
f 58 44 59
f 58 43 44
f 73 88 87
f 88 73 74
f 36 37 51
f 36 51 50
f 51 65 69
f 54 51 69
f 50 51 53
f 53 51 54
f 80 65 63
f 80 63 78
f 51 63 65
f 51 48 63
f 37 34 51
f 51 34 48
f 20 34 37
f 37 23 20
