mtllib P-46_tex.mtl
v 0.217649 0.720449 -0.143911
v 0.098365 0.720437 -0.143647
v 0.316984 0.720473 -0.041756
v 0.212327 0.720451 -0.035953
v 0.063967 0.720419 0.054157
v 0.164563 0.720439 0.159365
v 0.035474 0.720426 0.165277
v 0.046363 0.720503 0.214811
v 0.162365 0.720436 0.178240
v -0.332720 0.759026 0.066593
v -0.386345 0.726629 0.169705
v -0.092870 0.720480 0.213158
v -0.111069 0.770631 0.147024
v 0.063967 0.720419 0.054157
v 0.212327 0.720451 -0.035953
v 0.203902 0.900000 0.008157
v 0.044405 0.867477 -0.223124
v -0.085627 0.720445 -0.160037
v 0.059383 0.720424 -0.147554
v 0.098365 0.720437 -0.143647
v -0.091047 0.867480 -0.223124
v 0.065247 0.867087 -0.225462
v 0.212327 0.720451 -0.035953
v 0.114052 0.720435 -0.137787
v 0.203902 0.900000 0.008157
v 0.059383 0.720424 -0.147554
v -0.091047 0.867480 -0.223124
v 0.044405 0.867477 -0.223124
v -0.085627 0.720445 -0.160037
v 0.064016 0.720419 -0.107272
v 0.063967 0.720419 0.054157
v 0.064812 0.794219 -0.047507
v 0.063198 0.799317 -0.039449
v 0.203902 0.900000 0.008157
v 0.205241 0.893681 -0.052288
v 0.035474 0.720426 0.165277
v -0.092870 0.720480 0.213158
v 0.046363 0.720503 0.214811
v -0.111069 0.770631 0.147024
v -0.111069 0.770631 0.147024
v 0.046363 0.720503 0.214811
v -0.092870 0.720480 0.213158
v -0.386345 0.726629 0.169705
v 0.035474 0.720426 0.165277
v -0.332720 0.759026 0.066593
v 0.114052 0.720435 -0.137787
v 0.205241 0.893681 -0.052288
v 0.203902 0.900000 0.008157
v 0.164563 0.720439 0.159365
v 0.343881 0.757549 0.139072
v 0.162365 0.720436 0.178240
v 0.343849 0.728413 0.192460
v 0.343881 0.757549 0.139072
v 0.164563 0.720439 0.159365
v 0.343849 0.728413 0.192460
v 0.162365 0.720436 0.178240
v 0.098365 0.720437 -0.143647
v 0.059383 0.720424 -0.147554
v 0.114052 0.720435 -0.137787
v 0.064016 0.720419 -0.107272
v 0.316984 0.720473 -0.041756
v 0.205241 0.893681 -0.052288
v 0.288195 0.886881 -0.093517
v 0.114052 0.720435 -0.137787
v 0.064016 0.720419 -0.107272
v 0.064812 0.794219 -0.047507
v 0.063198 0.799317 -0.039449
v 0.063967 0.720419 0.054157
v 0.064016 0.720419 -0.107272
v 0.212327 0.720451 -0.035953
v 0.114052 0.720435 -0.137787
v 0.098365 0.720437 -0.143647
v 0.035474 0.720426 0.165277
v 0.164563 0.720439 0.159365
v 0.162365 0.720436 0.178240
v 0.217649 0.720449 -0.143911
v 0.059383 0.720424 -0.147554
v 0.046363 0.720503 0.214811
v 0.316984 0.720473 -0.041756
v 0.316984 0.720473 -0.041756
v 0.098365 0.720437 -0.143647
v 0.114052 0.720435 -0.137787
v 0.212327 0.720451 -0.035953
v 0.343815 0.741197 0.060938
v 0.325035 0.844709 0.062962
v 0.203902 0.900000 0.008157
v 0.212327 0.720451 -0.035953
v 0.114052 0.720435 -0.137787
v 0.316984 0.720473 -0.041756
v 0.343815 0.741197 0.060938
v -0.086231 0.720427 -0.028295
v -0.386350 0.740641 -0.048512
v -0.091713 0.720435 -0.141060
v -0.386383 0.730179 -0.033795
v -0.091713 0.720435 -0.141060
v -0.386383 0.730179 -0.033795
v -0.086231 0.720427 -0.028295
v -0.386350 0.740641 -0.048512
v -0.089200 0.803022 -0.023350
v 0.063967 0.720419 0.054157
v 0.063198 0.799317 -0.039449
v -0.091713 0.720435 -0.141060
v -0.088911 0.795812 -0.054568
v 0.064812 0.794219 -0.047507
v 0.063198 0.799317 -0.039449
v 0.064016 0.720419 -0.107272
v -0.089200 0.803022 -0.023350
v -0.089200 0.803022 -0.023350
v -0.091713 0.720435 -0.141060
v -0.086231 0.720427 -0.028295
v 0.063967 0.720419 0.054157
v -0.085627 0.720445 -0.160037
v 0.059383 0.720424 -0.147554
v 0.064016 0.720419 -0.107272
v -0.386350 0.740641 -0.048512
v -0.325735 0.783896 -0.232840
v -0.241825 0.793520 -0.038806
v -0.239254 0.793030 -0.043240
v -0.386383 0.730179 -0.033795
v -0.386350 0.740641 -0.048512
v -0.241825 0.793520 -0.038806
v -0.386383 0.730179 -0.033795
v -0.386350 0.740641 -0.048512
v -0.239254 0.793030 -0.043240
v -0.088911 0.795812 -0.054568
v -0.091713 0.720435 -0.141060
v -0.089200 0.803022 -0.023350
v 0.327290 0.460535 -0.236796
v 0.144921 0.533971 -0.228727
v 0.324029 0.677573 -0.238470
v 0.150145 0.482286 0.269566
v 0.126986 0.483653 0.280267
v 0.239243 0.485718 0.172306
v -0.087746 0.442478 -0.014834
v 0.056723 0.442496 0.063400
v 0.062931 0.442487 0.091571
v -0.092969 0.442516 0.165724
v -0.093166 0.442542 0.206006
v 0.061601 0.442497 0.170514
v 0.209864 0.442418 0.017891
v 0.218634 0.442415 0.014652
v 0.218561 0.442431 0.119100
v 0.155072 0.442458 0.064582
v 0.081262 0.442495 0.169882
v 0.223242 0.442549 0.271943
v 0.118401 0.442551 0.272433
v 0.206095 0.442419 -0.040457
v 0.217108 0.442416 -0.041486
v -0.063010 0.442440 -0.100593
v -0.088632 0.442481 -0.046547
v -0.318916 0.448940 0.065661
v -0.320479 0.448345 -0.039327
v -0.320520 0.449535 -0.062808
v -0.179788 0.449535 -0.225635
v 0.154383 0.450129 -0.225670
v 0.061454 0.449535 -0.225652
v -0.320613 0.447490 -0.144675
v -0.047490 0.450464 0.299489
v -0.317458 0.440913 0.173168
v 0.329331 0.431621 -0.220628
v -0.219305 0.429686 0.281575
v 0.329292 0.383532 0.212947
v -0.242531 0.448545 0.299382
v -0.308485 0.450724 0.210863
v 0.060299 0.482295 0.058677
v -0.176955 0.482313 0.065223
v 0.059383 0.482307 0.161743
v -0.165351 0.482307 0.049991
v -0.087845 0.482284 -0.044320
v 0.064447 0.482271 -0.066945
v 0.081163 0.482275 -0.041789
v 0.127553 0.482301 0.053727
v 0.070815 0.482298 0.166061
v -0.197329 0.482330 0.170649
v 0.059186 0.482292 0.262143
v 0.064754 0.482297 0.271370
v 0.150145 0.482286 0.269566
v -0.317119 0.485175 0.121732
v 0.239243 0.485718 0.172306
v 0.239571 0.485807 0.164982
v 0.243131 0.483650 0.060904
v 0.248798 0.488259 -0.138850
v -0.320584 0.491753 -0.036359
v 0.126986 0.483653 0.280267
v -0.090013 0.533971 -0.228722
v 0.144921 0.533971 -0.228727
v -0.256901 0.562383 -0.202666
v -0.320600 0.558911 -0.081987
v -0.308485 0.450724 0.210863
v -0.088017 0.518139 0.302636
v 0.327290 0.460535 -0.236796
v 0.035906 0.562606 -0.229772
v 0.061454 0.449535 -0.225652
v -0.179788 0.449535 -0.225635
v 0.035906 0.562606 -0.229772
v -0.090013 0.533971 -0.228722
v 0.144921 0.533971 -0.228727
v 0.154383 0.450129 -0.225670
v 0.327290 0.460535 -0.236796
v -0.256901 0.562383 -0.202666
v 0.329331 0.431621 -0.220628
v -0.320613 0.447490 -0.144675
v 0.277377 0.567029 -0.023235
v 0.243131 0.483650 0.060904
v 0.274230 0.565449 0.077975
v 0.239571 0.485807 0.164982
v 0.277686 0.565189 -0.043645
v 0.248798 0.488259 -0.138850
v 0.324029 0.677573 -0.238470
v 0.330214 0.677722 0.193320
v 0.239243 0.485718 0.172306
v 0.219030 0.482416 0.277797
v 0.257705 0.572243 0.270777
v 0.327290 0.460535 -0.236796
v 0.277686 0.565189 -0.043645
v 0.327290 0.460535 -0.236796
v 0.324029 0.677573 -0.238470
v 0.248798 0.488259 -0.138850
v 0.277377 0.567029 -0.023235
v 0.243131 0.483650 0.060904
v 0.329331 0.431621 -0.220628
v 0.217108 0.442416 -0.041486
v 0.218634 0.442415 0.014652
v 0.239571 0.485807 0.164982
v 0.218561 0.442431 0.119100
v -0.320479 0.448345 -0.039327
v -0.318916 0.448940 0.065661
v -0.320584 0.491753 -0.036359
v -0.320520 0.449535 -0.062808
v -0.320600 0.558911 -0.081987
v -0.320613 0.447490 -0.144675
v -0.317119 0.485175 0.121732
v -0.317939 0.593248 0.061057
v -0.317458 0.440913 0.173168
v -0.317355 0.564666 0.086984
v -0.320620 0.565896 -0.073840
v -0.308485 0.450724 0.210863
v -0.256901 0.562383 -0.202666
v -0.320584 0.491753 -0.036359
v -0.320620 0.565896 -0.073840
v -0.317939 0.593248 0.061057
v -0.317119 0.485175 0.121732
v -0.317355 0.564666 0.086984
v -0.320600 0.558911 -0.081987
v -0.207085 0.567270 0.304738
v 0.064754 0.482297 0.271370
v -0.070488 0.585540 0.305554
v 0.126986 0.483653 0.280267
v 0.140980 0.597219 0.308207
v 0.257705 0.572243 0.270777
v 0.219030 0.482416 0.277797
v -0.088017 0.518139 0.302636
v -0.219305 0.429686 0.281575
v -0.301494 0.532782 0.269825
v -0.242531 0.448545 0.299382
v -0.246898 0.569723 0.304860
v -0.308485 0.450724 0.210863
v 0.324029 0.677573 -0.238470
v 0.214299 0.566081 -0.229897
v 0.327290 0.460535 -0.236796
v 0.144921 0.533971 -0.228727
v -0.088017 0.518139 0.302636
v -0.301494 0.532782 0.269825
v -0.246898 0.569723 0.304860
v -0.308485 0.450724 0.210863
v -0.207085 0.567270 0.304738
v 0.126986 0.483653 0.280267
v 0.140980 0.597219 0.308207
v 0.219030 0.482416 0.277797
v 0.257705 0.572243 0.270777
v 0.218561 0.442431 0.119100
v 0.239571 0.485807 0.164982
v 0.329292 0.383532 0.212947
v 0.064754 0.482297 0.271370
v -0.219305 0.429686 0.281575
v -0.047490 0.450464 0.299489
v 0.126986 0.483653 0.280267
v 0.126986 0.483653 0.280267
v 0.118401 0.442551 0.272433
v 0.219030 0.482416 0.277797
v 0.223242 0.442549 0.271943
v -0.047490 0.450464 0.299489
v 0.223242 0.442549 0.271943
v 0.239243 0.485718 0.172306
v 0.219030 0.482416 0.277797
v 0.329292 0.383532 0.212947
v 0.239571 0.485807 0.164982
v 0.126986 0.483653 0.280267
v 0.239243 0.485718 0.172306
v 0.274230 0.565449 0.077975
v 0.330214 0.677722 0.193320
v 0.239571 0.485807 0.164982
v 0.257705 0.572243 0.270777
v 0.219030 0.482416 0.277797
v -0.240640 0.574406 -0.208049
v -0.090013 0.533971 -0.228722
v -0.086378 0.600699 -0.207843
v -0.256901 0.562383 -0.202666
v 0.144921 0.533971 -0.228727
v 0.035906 0.562606 -0.229772
v 0.048741 0.566197 -0.229878
v 0.214299 0.566081 -0.229897
v -0.086378 0.600699 -0.207843
v -0.090013 0.533971 -0.228722
v -0.256901 0.562383 -0.202666
v -0.240640 0.574406 -0.208049
v -0.256901 0.562383 -0.202666
v -0.320600 0.558911 -0.081987
v -0.320620 0.565896 -0.073840
v -0.240640 0.574406 -0.208049
v 0.212327 0.720451 -0.035953
v 0.343881 0.757549 0.139072
v 0.164563 0.720439 0.159365
v 0.343815 0.741197 0.060938
v -0.084889 0.080521 0.069406
v -0.084889 0.080533 -0.038214
v 0.067662 0.080494 0.004801
v -0.109900 0.080509 -0.088490
v -0.084690 0.080535 -0.143303
v -0.084690 0.080552 -0.111844
v 0.069238 0.080513 -0.097354
v -0.130170 0.080496 -0.038417
v -0.089224 0.080522 0.067989
v 0.070864 0.085479 0.067457
v 0.017748 0.085491 0.169097
v -0.156728 0.085486 0.167141
v 0.272905 0.092166 -0.037977
v 0.273508 0.099785 0.067534
v 0.309960 0.129702 0.013336
v -0.150717 0.111103 0.180882
v -0.310221 0.000000 0.174877
v -0.156728 0.085486 0.167141
v -0.373315 0.221274 0.210324
v -0.089224 0.080522 0.067989
v -0.156728 0.085486 0.167141
v -0.373315 0.221274 0.210324
v -0.150717 0.111103 0.180882
v -0.310221 0.000000 0.174877
v -0.084889 0.080533 -0.038214
v -0.084889 0.080521 0.069406
v 0.070864 0.085479 0.067457
v 0.065740 0.085478 0.167647
v 0.217945 0.093950 0.178979
v 0.273508 0.099785 0.067534
v 0.067662 0.080494 0.004801
v 0.272905 0.092166 -0.037977
v 0.069238 0.080513 -0.097354
v -0.084690 0.080552 -0.111844
v -0.084690 0.080535 -0.143303
v 0.273043 0.093903 -0.041622
v 0.141769 0.088599 -0.202118
v 0.017748 0.085491 0.169097
v -0.156728 0.085486 0.167141
v -0.089224 0.080522 0.067989
v -0.238324 0.085495 0.074753
v 0.274072 0.106884 -0.153188
v 0.281228 0.119519 0.171459
v -0.310221 0.000000 0.174877
v 0.217945 0.093950 0.178979
v 0.065740 0.085478 0.167647
v 0.273508 0.099785 0.067534
v 0.070864 0.085479 0.067457
v -0.310221 0.000000 0.174877
v -0.238324 0.085495 0.074753
v -0.089224 0.080522 0.067989
v 0.155368 0.118032 -0.236329
v 0.141769 0.088599 -0.202118
v 0.274359 0.110005 -0.149174
v 0.065740 0.085478 0.167647
v 0.017748 0.085491 0.169097
v 0.070815 0.110525 0.180790
v -0.080208 0.110246 0.180749
v -0.156728 0.085486 0.167141
v -0.150717 0.111103 0.180882
v 0.281228 0.119519 0.171459
v 0.217945 0.093950 0.178979
v 0.276228 0.134872 -0.050663
v 0.272905 0.092166 -0.037977
v 0.309960 0.129702 0.013336
v 0.273043 0.093903 -0.041622
v 0.274359 0.110005 -0.149174
v 0.274072 0.106884 -0.153188
v 0.274387 0.110934 0.064885
v 0.273508 0.099785 0.067534
v 0.281228 0.119519 0.171459
v 0.273043 0.093903 -0.041622
v 0.276228 0.134872 -0.050663
v 0.309960 0.129702 0.013336
v 0.272905 0.092166 -0.037977
v 0.274072 0.106884 -0.153188
v 0.155368 0.118032 -0.236329
v 0.274359 0.110005 -0.149174
v 0.274387 0.110934 0.064885
v 0.273508 0.099785 0.067534
v 0.309960 0.129702 0.013336
v 0.274359 0.110005 -0.149174
v 0.141769 0.088599 -0.202118
v 0.274072 0.106884 -0.153188
v 0.155368 0.118032 -0.236329
v 0.069238 0.080513 -0.097354
v 0.141769 0.088599 -0.202118
v 0.274072 0.106884 -0.153188
v 0.273043 0.093903 -0.041622
v -0.373315 0.221274 0.210324
v -0.310221 0.000000 0.174877
v -0.359111 0.136168 0.066218
v -0.236649 0.080543 -0.080890
v -0.342390 0.133372 -0.239541
v -0.323946 0.123830 -0.135612
v -0.238817 0.085497 0.036547
v -0.359167 0.133195 -0.030927
v -0.238324 0.085495 0.074753
v -0.342390 0.133372 -0.239541
v -0.121855 0.080511 -0.142899
v -0.235466 0.138209 -0.208862
v -0.370513 0.015070 -0.235426
v -0.084690 0.080535 -0.143303
v -0.048500 0.112231 -0.204682
v -0.359167 0.133195 -0.030927
v -0.236649 0.080543 -0.080890
v -0.238817 0.085497 0.036547
v -0.359111 0.136168 0.066218
v -0.238324 0.085495 0.074753
v -0.323946 0.123830 -0.135612
v -0.236649 0.080543 -0.080890
v -0.238817 0.085497 0.036547
v -0.130170 0.080496 -0.038417
v -0.089224 0.080522 0.067989
v -0.238324 0.085495 0.074753
v -0.109900 0.080509 -0.088490
v -0.121855 0.080511 -0.142899
v -0.084690 0.080535 -0.143303
v -0.370513 0.015070 -0.235426
v -0.370513 0.015070 -0.235426
v -0.342390 0.133372 -0.239541
v -0.236649 0.080543 -0.080890
v -0.370513 0.015070 -0.235426
v -0.121855 0.080511 -0.142899
v -0.109900 0.080509 -0.088490
v -0.236649 0.080543 -0.080890
v -0.342390 0.133372 -0.239541
v -0.370513 0.015070 -0.235426
v -0.323946 0.123830 -0.135612
v -0.236649 0.080543 -0.080890
v -0.084690 0.080535 -0.143303
v -0.121855 0.080511 -0.142899
v -0.048500 0.112231 -0.204682
v 0.155368 0.118032 -0.236329
v -0.235466 0.138209 -0.208862
v 0.141769 0.088599 -0.202118
v 0.274359 0.110005 -0.149174
v 0.274072 0.106884 -0.153188
v 0.276228 0.134872 -0.050663
v 0.273043 0.093903 -0.041622
v -0.370513 0.015070 -0.235426
v -0.121855 0.080511 -0.142899
v -0.235466 0.138209 -0.208862
v -0.342390 0.133372 -0.239541
v 0.017748 0.085491 0.169097
v -0.156728 0.085486 0.167141
v -0.150717 0.111103 0.180882
v -0.080208 0.110246 0.180749
v 0.065740 0.085478 0.167647
v -0.080208 0.110246 0.180749
v 0.070815 0.110525 0.180790
v 0.017748 0.085491 0.169097
v 0.141769 0.088599 -0.202118
v -0.084690 0.080535 -0.143303
v -0.048500 0.112231 -0.204682
v 0.155368 0.118032 -0.236329
v 0.217945 0.093950 0.178979
v 0.070815 0.110525 0.180790
v 0.281228 0.119519 0.171459
v 0.065740 0.085478 0.167647
v -0.086231 0.720427 -0.028295
v 0.063967 0.720419 0.054157
v -0.111069 0.770631 0.147024
v -0.386383 0.730179 -0.033795
v -0.332720 0.759026 0.066593
v 0.035474 0.720426 0.165277
v 0.064812 0.794219 -0.047507
v 0.064016 0.720419 -0.107272
v 0.063198 0.799317 -0.039449
v 0.063967 0.720419 0.054157
v -0.308485 0.450724 0.210863
v -0.301494 0.532782 0.269825
v -0.246898 0.569723 0.304860
v -0.317119 0.485175 0.121732
v -0.308485 0.450724 0.210863
v -0.371609 0.589272 0.191027
v -0.317355 0.564666 0.086984
v -0.246898 0.569723 0.304860
vt 0.960232 0.237107
vt 0.987936 0.179840
vt 0.987936 0.307726
vt 0.501787 0.853020
vt 0.437105 0.786861
vt 0.394709 0.851874
vt 0.376026 0.785524
vt 0.351653 0.797184
vt 0.384654 0.853020
vt 0.805630 0.211528
vt 0.868186 0.231350
vt 0.868186 0.071492
vt 0.826231 0.086389
vt 0.925380 0.909858
vt 0.868019 0.837034
vt 0.801162 0.909858
vt 0.546468 0.954830
vt 0.476345 0.869796
vt 0.554140 0.866470
vt 0.575067 0.865453
vt 0.474084 0.955151
vt 0.557543 0.955151
vt 0.194293 0.883215
vt 0.143432 0.939165
vt 0.275693 0.939165
vt 0.920912 0.448934
vt 0.998659 0.539520
vt 0.926185 0.537175
vt 0.998659 0.454278
vt 0.893208 0.673623
vt 0.806524 0.673623
vt 0.861116 0.634544
vt 0.856739 0.631788
vt 0.806612 0.550640
vt 0.838340 0.543073
vt 0.757373 0.084504
vt 0.717158 0.021818
vt 0.734425 0.094583
vt 0.757373 0.000444
vt 0.035226 0.412231
vt 0.068171 0.321936
vt 0.078195 0.396632
vt 0.078195 0.557282
vt 0.044665 0.331636
vt 0.015639 0.537061
vt 0.025469 0.934725
vt 0.000447 0.824268
vt 0.025469 0.803286
vt 0.126180 0.302053
vt 0.028772 0.278419
vt 0.126452 0.311279
vt 0.027256 0.311279
vt 0.804435 0.000444
vt 0.901027 0.024077
vt 0.802949 0.033304
vt 0.901251 0.033304
vt 0.945154 0.708991
vt 0.932529 0.692419
vt 0.952189 0.714476
vt 0.952189 0.683393
vt 0.855675 0.843250
vt 0.799323 0.749112
vt 0.848941 0.749760
vt 0.735735 0.843250
vt 0.707328 0.830172
vt 0.712797 0.780071
vt 0.711770 0.775042
vt 0.755680 0.583668
vt 0.762211 0.498452
vt 0.680495 0.530116
vt 0.736859 0.480325
vt 0.745434 0.477865
vt 0.766309 0.643475
vt 0.697946 0.635146
vt 0.698347 0.645198
vt 0.682052 0.472913
vt 0.766309 0.477375
vt 0.758510 0.669183
vt 0.625112 0.522830
vt 0.002234 0.820160
vt 0.002234 0.692274
vt 0.001340 0.701125
vt 0.457105 0.957815
vt 0.457105 0.869893
vt 0.400972 0.870087
vt 0.360590 0.935548
vt 0.313604 0.894760
vt 0.388293 0.883311
vt 0.270721 0.858348
vt 0.225648 0.894760
vt 0.348079 0.851243
vt 0.186413 0.832350
vt 0.348079 0.789964
vt 0.186327 0.840396
vt 0.777927 0.500444
vt 0.828654 0.339698
vt 0.839589 0.500444
vt 0.820559 0.339840
vt 0.348664 0.916075
vt 0.288204 0.997780
vt 0.353441 0.997780
vt 0.999553 0.999556
vt 0.937172 0.999409
vt 0.933006 0.916248
vt 0.927903 0.917199
vt 0.983843 0.915187
vt 0.921805 0.999556
vt 0.501648 0.045968
vt 0.508849 0.020850
vt 0.496705 0.034263
vt 0.468722 0.037444
vt 0.509161 0.011107
vt 0.484881 0.006785
vt 0.481501 0.012927
vt 0.716265 0.162078
vt 0.716264 0.003996
vt 0.534853 0.078932
vt 0.532262 0.077709
vt 0.534853 0.162966
vt 0.525022 0.160572
vt 0.996872 0.786866
vt 0.996872 0.702931
vt 0.987042 0.705426
vt 0.994331 0.788188
vt 0.008490 0.365673
vt 0.015639 0.305062
vt 0.015639 0.381439
vt 0.915550 0.567940
vt 0.818141 0.527463
vt 0.915550 0.452487
vt 0.639753 0.652309
vt 0.626899 0.657638
vt 0.710009 0.657638
vt 0.207416 0.413907
vt 0.284762 0.455678
vt 0.288064 0.470686
vt 0.204456 0.510061
vt 0.204315 0.531514
vt 0.287281 0.512727
vt 0.366867 0.431556
vt 0.371569 0.429838
vt 0.371437 0.485463
vt 0.337464 0.456381
vt 0.297817 0.512405
vt 0.373808 0.566864
vt 0.317627 0.567047
vt 0.364899 0.400479
vt 0.370801 0.399939
vt 0.220748 0.368253
vt 0.206969 0.397017
vt 0.083413 0.456546
vt 0.082674 0.400637
vt 0.082663 0.388121
vt 0.158222 0.301510
vt 0.337288 0.301733
vt 0.287495 0.301679
vt 0.082703 0.344540
vt 0.228641 0.581261
vt 0.084167 0.513874
vt 0.431189 0.304716
vt 0.136762 0.571782
vt 0.431189 0.536059
vt 0.124141 0.581077
vt 0.088859 0.533866
vt 0.212577 0.139483
vt 0.084579 0.125533
vt 0.216513 0.084998
vt 0.090238 0.135635
vt 0.129796 0.188325
vt 0.209971 0.206178
vt 0.220261 0.193629
vt 0.248216 0.144587
vt 0.222798 0.083197
vt 0.079436 0.067123
vt 0.221311 0.032335
vt 0.224739 0.028178
vt 0.269091 0.032496
vt 0.013935 0.087001
vt 0.311749 0.086899
vt 0.311643 0.090508
vt 0.309557 0.144788
vt 0.306574 0.249676
vt 0.000835 0.167992
vt 0.257474 0.025995
vt 0.121228 0.288877
vt 0.247425 0.298099
vt 0.032450 0.273569
vt 0.000447 0.209664
vt 0.021064 0.038887
vt 0.144780 0.000444
vt 0.351653 0.300622
vt 0.188136 0.300622
vt 0.578349 0.247963
vt 0.580575 0.377255
vt 0.516979 0.262777
vt 0.533742 0.329978
vt 0.531576 0.204067
vt 0.577169 0.198165
vt 0.569532 0.105276
vt 0.520740 0.420520
vt 0.585791 0.104352
vt 0.585791 0.455151
vt 0.216889 0.633320
vt 0.171469 0.680510
vt 0.162874 0.634110
vt 0.115916 0.679518
vt 0.227778 0.634291
vt 0.278071 0.678329
vt 0.332429 0.571140
vt 0.102097 0.567052
vt 0.112006 0.679590
vt 0.054960 0.685169
vt 0.058589 0.633414
vt 0.346291 0.685169
vt 0.709391 0.298876
vt 0.615942 0.375063
vt 0.723414 0.420515
vt 0.645982 0.316104
vt 0.714938 0.287390
vt 0.694351 0.223912
vt 0.600089 0.363395
vt 0.641088 0.258800
vt 0.658057 0.232959
vt 0.723414 0.171847
vt 0.686742 0.181406
vt 0.797744 0.280918
vt 0.796235 0.337297
vt 0.774184 0.282048
vt 0.797359 0.268292
vt 0.738287 0.256818
vt 0.799374 0.224336
vt 0.775947 0.367014
vt 0.718052 0.333270
vt 0.799374 0.395122
vt 0.733248 0.347498
vt 0.734411 0.261120
vt 0.793500 0.415186
vt 0.736749 0.191385
vt 0.997766 0.051977
vt 0.959047 0.030381
vt 0.941466 0.101620
vt 0.997766 0.136323
vt 0.956135 0.116062
vt 0.962953 0.026199
vt 0.493584 0.396753
vt 0.435363 0.537215
vt 0.498213 0.469568
vt 0.435640 0.570516
vt 0.497660 0.581720
vt 0.475721 0.644316
vt 0.429921 0.618954
vt 0.459913 0.456170
vt 0.413315 0.385421
vt 0.476202 0.342838
vt 0.427171 0.372603
vt 0.498213 0.376038
vt 0.430232 0.313943
vt 0.897676 0.250000
vt 0.837741 0.308448
vt 0.897676 0.365453
vt 0.800268 0.324977
vt 0.933423 0.551954
vt 0.886007 0.657460
vt 0.874441 0.619326
vt 0.933423 0.684281
vt 0.884640 0.600819
vt 0.911975 0.370782
vt 0.975424 0.370782
vt 0.916145 0.322460
vt 0.965681 0.305062
vt 0.420465 0.248224
vt 0.420465 0.283748
vt 0.343610 0.280936
vt 0.483487 0.868117
vt 0.329312 0.868117
vt 0.421038 0.853908
vt 0.516086 0.860414
vt 0.957551 0.618994
vt 0.979893 0.623549
vt 0.958415 0.570088
vt 0.979893 0.567940
vt 0.972959 0.712700
vt 0.729388 0.924956
vt 0.709482 0.869699
vt 0.747384 0.912903
vt 0.657283 0.924956
vt 0.707455 0.866341
vt 0.790438 0.889044
vt 0.925358 0.756918
vt 0.928061 0.688628
vt 0.836908 0.684281
vt 0.928061 0.754077
vt 0.854661 0.761959
vt 0.889152 0.801510
vt 0.230312 0.983551
vt 0.145219 0.990675
vt 0.151008 0.953375
vt 0.238159 0.990675
vt 0.064565 0.794971
vt 0.124194 0.802975
vt 0.117632 0.805730
vt 0.029937 0.816607
vt 0.192200 0.816607
vt 0.188944 0.779307
vt 0.280161 0.785369
vt 0.272469 0.793485
vt 0.165020 0.849467
vt 0.238187 0.853741
vt 0.241734 0.858348
vt 0.157730 0.858348
vt 0.158624 0.904529
vt 0.083953 0.812167
vt 0.050492 0.904529
vt 0.124891 0.823557
vt 0.546643 0.609511
vt 0.601702 0.625715
vt 0.602818 0.541713
vt 0.623632 0.645995
vt 0.655496 0.641436
vt 0.639401 0.636700
vt 0.655320 0.556293
vt 0.594942 0.648757
vt 0.546710 0.611927
vt 0.571162 0.530581
vt 0.511093 0.542347
vt 0.485702 0.631321
vt 0.655496 0.443487
vt 0.601481 0.427205
vt 0.635606 0.409858
vt 0.617600 0.816607
vt 0.568258 0.726021
vt 0.622853 0.801784
vt 0.483914 0.816607
vt 0.686774 0.796200
vt 0.368740 0.582502
vt 0.473190 0.674512
vt 0.382109 0.575933
vt 0.348079 0.674512
vt 0.404272 0.245699
vt 0.462163 0.245197
vt 0.460363 0.162038
vt 0.514283 0.164301
vt 0.519660 0.082866
vt 0.459461 0.053595
vt 0.426652 0.164187
vt 0.402673 0.054639
vt 0.371693 0.163824
vt 0.364663 0.245937
vt 0.347741 0.246085
vt 0.400720 0.054530
vt 0.315013 0.125411
vt 0.515302 0.189874
vt 0.515116 0.282882
vt 0.461422 0.247514
vt 0.465824 0.326806
vt 0.340758 0.054113
vt 0.515414 0.048401
vt 0.519660 0.367229
vt 0.903038 0.792506
vt 0.904933 0.873446
vt 0.963807 0.765986
vt 0.958331 0.873446
vt 0.149687 0.947158
vt 0.080667 0.906305
vt 0.012064 0.947158
vt 0.500000 0.973801
vt 0.500000 0.999556
vt 0.423146 0.992347
vt 0.324022 0.000444
vt 0.349650 0.001002
vt 0.321212 0.016115
vt 0.401841 0.016570
vt 0.442806 0.001219
vt 0.439480 0.017318
vt 0.208668 0.017318
vt 0.242434 0.002485
vt 0.009703 0.673014
vt 0.033512 0.678585
vt 0.008490 0.709219
vt 0.032420 0.676618
vt 0.019378 0.617351
vt 0.020932 0.615009
vt 0.027320 0.736457
vt 0.033512 0.737542
vt 0.025651 0.796181
vt 0.703496 0.933929
vt 0.698391 0.956039
vt 0.737712 0.956039
vt 0.705273 0.932948
vt 0.334274 0.854796
vt 0.256926 0.857460
vt 0.335567 0.857460
vt 0.953977 0.695153
vt 0.959339 0.691385
vt 0.959339 0.729574
vt 0.394611 0.400977
vt 0.399911 0.477353
vt 0.392172 0.402303
vt 0.373995 0.477353
vt 0.767203 0.975577
vt 0.789923 0.911634
vt 0.865924 0.917765
vt 0.880697 0.975577
vt 0.491063 0.763322
vt 0.507100 0.640764
vt 0.567045 0.716054
vt 0.665420 0.675565
vt 0.723414 0.763322
vt 0.675091 0.734107
vt 0.605754 0.656331
vt 0.615962 0.733163
vt 0.586684 0.649166
vt 0.744861 0.185824
vt 0.803480 0.068400
vt 0.754819 0.127493
vt 0.803843 0.213588
vt 0.803843 0.048657
vt 0.767568 0.027975
vt 0.895253 0.373446
vt 0.866856 0.443606
vt 0.929913 0.442913
vt 0.947387 0.374009
vt 0.950402 0.443606
vt 0.838695 0.391361
vt 0.383161 0.763957
vt 0.325873 0.790024
vt 0.339941 0.720973
vt 0.279267 0.723715
vt 0.307084 0.797957
vt 0.360155 0.700345
vt 0.389285 0.694550
vt 0.381645 0.676288
vt 0.491063 0.797957
vt 0.577609 0.903641
vt 0.567024 0.967584
vt 0.672475 0.967584
vt 0.637623 0.112345
vt 0.637623 0.259593
vt 0.613558 0.275755
vt 0.583110 0.214633
vt 0.883378 0.213606
vt 0.945040 0.186945
vt 0.905647 0.263836
vt 0.945040 0.305950
vt 0.760054 0.587480
vt 0.760476 0.567774
vt 0.796553 0.608084
vt 0.809205 0.717140
vt 0.809205 0.508437
vt 0.785272 0.709476
vt 0.600841 0.282115
vt 0.602770 0.280195
vt 0.581323 0.332417
vt 0.602770 0.339698
vt 0.928954 0.162966
vt 0.928954 0.017318
vt 0.880702 0.076904
vt 0.869973 0.135029
vt 0.263181 0.607016
vt 0.170241 0.607016
vt 0.173525 0.591030
vt 0.211079 0.591685
vt 0.017426 0.324678
vt 0.032618 0.402753
vt 0.032618 0.321936
vt 0.017826 0.350361
vt 0.306730 0.050178
vt 0.432082 0.050178
vt 0.404530 0.019094
vt 0.294459 0.028596
vt 0.389176 0.978242
vt 0.469484 0.963144
vt 0.353441 0.966734
vt 0.473190 0.978242
vt 0.134138 0.683393
vt 0.051385 0.723315
vt 0.144450 0.781083
vt 0.295353 0.687047
vt 0.264924 0.741834
vt 0.063464 0.781083
vt 0.450049 0.712621
vt 0.490170 0.680728
vt 0.447274 0.716922
vt 0.490170 0.766874
vt 0.752904 0.461368
vt 0.735925 0.410239
vt 0.752904 0.374334
vt 0.682358 0.807274
vt 0.628925 0.806838
vt 0.674171 0.882327
vt 0.713584 0.841819
vt 0.588472 0.882327
usemtl baked
f 71/71 76/76 79/79
f 87/87 88/88 89/89
f 69/69 72/72 71/71
f 77/77 72/72 69/69
f 109/109 112/112 113/113
f 109/109 113/113 114/114
f 71/71 72/72 76/76
f 128/128 129/129 130/130
f 261/261 259/259 258/258
f 299/299 300/300 301/301
f 299/299 301/301 302/302
f 78/78 73/73 75/75
f 75/75 73/73 74/74
f 73/73 70/70 74/74
f 73/73 68/68 70/70
f 49/49 50/50 51/51
f 51/51 50/50 52/52
f 109/109 114/114 111/111
f 110/110 109/109 111/111
f 311/311 314/314 312/312
f 311/311 312/312 313/313
f 87/87 89/89 90/90
f 68/68 69/69 70/70
f 70/70 69/69 71/71
f 140/140 147/147 148/148
f 140/140 148/148 141/141
f 136/136 135/135 140/140
f 136/136 140/140 143/143
f 182/182 171/171 172/172
f 181/181 182/182 172/172
f 191/191 186/186 182/182
f 186/186 171/171 182/182
f 171/171 170/170 165/165
f 171/171 165/165 172/172
f 180/180 172/172 173/173
f 181/181 172/172 180/180
f 131/131 132/132 133/133
f 284/284 288/288 285/285
f 177/177 175/175 176/176
f 177/177 176/176 184/184
f 172/172 165/165 173/173
f 165/165 167/167 173/173
f 179/179 173/173 177/177
f 180/180 173/173 179/179
f 173/173 175/175 177/177
f 186/186 192/192 170/170
f 186/186 170/170 171/171
f 318/318 319/319 320/320
f 316/316 320/320 317/317
f 317/317 320/320 321/321
f 323/323 322/322 316/316
f 323/323 316/316 315/315
f 316/316 318/318 320/320
f 322/322 318/318 316/316
f 437/437 438/438 439/439
f 437/437 439/439 440/440
f 300/300 304/304 303/303
f 300/300 303/303 301/301
f 295/295 296/296 297/297
f 295/295 298/298 296/296
f 452/452 454/454 453/453
f 451/451 452/452 453/453
f 339/339 340/340 341/341
f 345/345 339/339 341/341
f 340/340 354/354 353/353
f 352/352 340/340 353/353
f 340/340 352/352 342/342
f 340/340 342/342 341/341
f 350/350 347/347 345/345
f 350/350 345/345 346/346
f 379/379 378/378 383/383
f 377/377 380/380 378/378
f 377/377 378/378 379/379
f 348/348 339/339 347/347
f 347/347 339/339 345/345
f 434/434 435/435 436/436
f 407/407 408/408 409/409
f 428/428 426/426 429/429
f 427/427 426/426 428/428
f 425/425 426/426 427/427
f 430/430 425/425 427/427
f 349/349 348/348 347/347
f 351/351 349/349 347/347
f 351/351 347/347 350/350
f 356/356 351/351 350/350
f 415/415 414/414 417/417
f 415/415 417/417 418/418
f 455/455 456/456 457/457
f 458/458 455/455 457/457
f 345/345 341/341 344/344
f 346/346 345/345 344/344
f 431/431 433/433 425/425
f 431/431 425/425 430/430
f 432/432 431/431 430/430
f 138/138 136/136 139/139
f 139/139 136/136 143/143
f 139/139 143/143 144/144
f 137/137 136/136 138/138
f 246/246 248/248 247/247
f 247/247 248/248 249/249
f 245/245 252/252 246/246
f 245/245 246/246 247/247
f 256/256 254/254 245/245
f 245/245 254/254 252/252
f 254/254 255/255 252/252
f 252/252 255/255 253/253
f 252/252 253/253 246/246
f 274/274 275/275 276/276
f 164/164 159/159 163/163
f 257/257 255/255 254/254
f 163/163 159/159 161/161
f 161/161 159/159 138/138
f 161/161 138/138 139/139
f 161/161 139/139 158/158
f 250/250 249/249 248/248
f 250/250 248/248 251/251
f 278/278 279/279 280/280
f 279/279 281/281 280/280
f 294/294 289/289 293/293
f 289/289 291/291 293/293
f 270/270 269/269 268/268
f 210/210 212/212 213/213
f 267/267 268/268 269/269
f 283/283 286/286 284/284
f 283/283 284/284 285/285
f 144/144 162/162 145/145
f 144/144 145/145 146/146
f 139/139 144/144 146/146
f 139/139 146/146 158/158
f 282/282 279/279 278/278
f 274/274 276/276 277/277
f 144/144 143/143 142/142
f 144/144 142/142 162/162
f 140/140 141/141 142/142
f 140/140 142/142 143/143
f 341/341 342/342 343/343
f 344/344 341/341 343/343
f 459/459 460/460 461/461
f 459/459 461/461 462/462
f 463/463 464/464 465/465
f 466/466 464/464 463/463
f 441/441 442/442 443/443
f 442/442 444/444 443/443
f 422/422 421/421 423/423
f 419/419 421/421 422/422
f 405/405 412/412 406/406
f 404/404 405/405 406/406
f 355/355 358/358 353/353
f 354/354 355/355 353/353
f 338/338 336/336 335/335
f 335/335 336/336 337/337
f 419/419 420/420 421/421
f 424/424 420/420 419/419
f 412/412 410/410 411/411
f 412/412 411/411 406/406
f 410/410 409/409 411/411
f 407/407 409/409 410/410
f 445/445 446/446 447/447
f 446/446 449/449 447/447
f 398/398 397/397 399/399
f 390/390 391/391 392/392
f 467/467 468/468 469/469
f 467/467 469/469 470/470
f 450/450 445/445 448/448
f 445/445 447/447 448/448
f 413/413 416/416 414/414
f 400/400 401/401 402/402
f 400/400 402/402 403/403
f 413/413 414/414 415/415
f 366/366 367/367 368/368
f 396/396 397/397 398/398
f 388/388 389/389 386/386
f 386/386 387/387 388/388
f 377/377 381/381 380/380
f 381/381 382/382 380/380
f 378/378 384/384 383/383
f 344/344 343/343 357/357
f 383/383 384/384 385/385
f 471/471 472/472 473/473
f 474/474 472/472 471/471
f 317/317 327/327 324/324
f 328/328 324/324 327/327
f 315/315 316/316 317/317
f 315/315 317/317 324/324
f 360/360 362/362 361/361
f 359/359 360/360 361/361
f 369/369 371/371 375/375
f 376/376 369/369 375/375
f 327/327 329/329 328/328
f 393/393 394/394 395/395
f 363/363 364/364 365/365
f 331/331 334/334 332/332
f 333/333 331/331 330/330
f 330/330 331/331 332/332
f 323/323 315/315 325/325
f 326/326 323/323 325/325
f 369/369 370/370 371/371
f 370/370 372/372 371/371
f 373/373 374/374 372/372
f 370/370 373/373 372/372
f 61/61 64/64 62/62
f 61/61 62/62 63/63
f 40/40 42/42 43/43
f 116/116 112/112 115/115
f 115/115 112/112 109/109
f 40/40 41/41 42/42
f 40/40 44/44 41/41
f 91/91 92/92 93/93
f 94/94 92/92 91/91
f 475/475 476/476 477/477
f 477/477 476/476 480/480
f 478/478 475/475 477/477
f 479/479 478/478 477/477
f 210/210 211/211 212/212
f 289/289 292/292 290/290
f 289/289 290/290 291/291
f 218/218 216/216 215/215
f 215/215 216/216 217/217
f 222/222 221/221 218/218
f 221/221 216/216 218/218
f 220/220 218/218 219/219
f 218/218 215/215 219/219
f 223/223 222/222 218/218
f 220/220 223/223 218/218
f 205/205 204/204 206/206
f 203/203 204/204 205/205
f 207/207 208/208 204/204
f 207/207 204/204 203/203
f 206/206 210/210 205/205
f 206/206 211/211 210/210
f 209/209 214/214 208/208
f 207/207 209/209 208/208
f 286/286 287/287 284/284
f 271/271 272/272 273/273
f 259/259 261/261 260/260
f 258/258 259/259 260/260
f 224/224 223/223 220/220
f 225/225 223/223 224/224
f 17/17 21/21 18/18
f 26/26 27/27 28/28
f 17/17 18/18 19/19
f 29/29 27/27 26/26
f 62/62 64/64 65/65
f 62/62 66/66 67/67
f 65/65 66/66 62/62
f 22/22 17/17 20/20
f 19/19 20/20 17/17
f 83/83 84/84 85/85
f 86/86 83/83 85/85
f 35/35 33/33 34/34
f 80/80 81/81 82/82
f 1/1 2/2 3/3
f 55/55 54/54 56/56
f 53/53 54/54 55/55
f 482/482 484/484 483/483
f 481/481 482/482 483/483
f 33/33 31/31 34/34
f 23/23 24/24 25/25
f 46/46 47/47 48/48
f 14/14 15/15 16/16
f 103/103 107/107 105/105
f 104/104 103/103 105/105
f 99/99 100/100 101/101
f 110/110 111/111 108/108
f 106/106 102/102 104/104
f 102/102 103/103 104/104
f 201/201 198/198 199/199
f 198/198 197/197 199/199
f 147/147 160/160 148/148
f 155/155 160/160 147/147
f 135/135 149/149 147/147
f 135/135 147/147 140/140
f 156/156 155/155 149/149
f 149/149 155/155 147/147
f 134/134 135/135 136/136
f 137/137 134/134 136/136
f 159/159 151/151 138/138
f 151/151 137/137 138/138
f 198/198 193/193 197/197
f 193/193 195/195 197/197
f 134/134 150/150 149/149
f 134/134 149/149 135/135
f 150/150 154/154 149/149
f 154/154 156/156 149/149
f 153/153 157/157 154/154
f 153/153 154/154 150/150
f 137/137 151/151 134/134
f 152/152 134/134 151/151
f 153/153 134/134 152/152
f 153/153 150/150 134/134
f 305/305 306/306 303/303
f 304/304 305/305 303/303
f 194/194 196/196 195/195
f 193/193 194/194 195/195
f 194/194 200/200 196/196
f 194/194 202/202 200/200
f 307/307 309/309 310/310
f 307/307 308/308 309/309
f 226/226 227/227 228/228
f 228/228 227/227 232/232
f 230/230 231/231 229/229
f 238/238 231/231 230/230
f 230/230 229/229 228/228
f 229/229 226/226 228/228
f 45/45 40/40 43/43
f 488/488 489/489 490/490
f 491/491 488/488 490/490
f 232/232 227/227 234/234
f 232/232 234/234 237/237
f 174/174 190/190 176/176
f 175/175 174/174 176/176
f 185/185 187/187 169/169
f 187/187 188/188 169/169
f 170/170 185/185 169/169
f 185/185 170/170 192/192
f 239/239 244/244 240/240
f 239/239 240/240 241/241
f 188/188 183/183 168/168
f 169/169 188/188 168/168
f 168/168 166/166 165/165
f 165/165 166/166 167/167
f 169/169 168/168 165/165
f 170/170 169/169 165/165
f 167/167 166/166 175/175
f 166/166 174/174 175/175
f 490/490 489/489 492/492
f 485/485 486/486 487/487
f 173/173 167/167 175/175
f 266/266 262/262 264/264
f 262/262 263/263 264/264
f 166/166 183/183 178/178
f 168/168 183/183 166/166
f 178/178 189/189 174/174
f 166/166 178/178 174/174
f 265/265 263/263 262/262
f 174/174 189/189 190/190
f 242/242 239/239 243/243
f 239/239 241/241 243/243
f 236/236 230/230 233/233
f 230/230 228/228 233/233
f 228/228 232/232 233/233
f 235/235 233/233 232/232
f 6/6 7/7 8/8
f 6/6 8/8 9/9
f 108/108 109/109 110/110
f 123/123 124/124 121/121
f 121/121 122/122 123/123
f 95/95 96/96 97/97
f 98/98 96/96 95/95
f 125/125 126/126 127/127
f 4/4 5/5 6/6
f 5/5 7/7 6/6
f 10/10 11/11 12/12
f 13/13 10/10 12/12
f 36/36 39/39 37/37
f 36/36 37/37 38/38
f 30/30 31/31 32/32
f 32/32 31/31 33/33
f 57/57 58/58 59/59
f 58/58 60/60 59/59
f 117/117 118/118 119/119
f 120/120 119/119 118/118
