mtllib P-06_tex.mtl
v 0.664343 0.744245 0.318498
v 0.531758 0.599595 0.344473
v 0.467857 0.743907 0.261130
v 0.887177 0.372818 0.334800
v 0.927079 0.685086 0.165700
v 0.556298 0.608197 0.344835
v 0.551206 0.368610 0.357893
v 0.926043 0.358082 0.269704
v 0.926791 0.232161 0.351780
v 0.920531 0.431848 0.347302
v 0.925967 0.432195 0.341651
v 0.887177 0.372818 0.334800
v -0.292677 0.743083 0.134998
v -0.645484 0.897121 -0.058628
v -0.452421 0.899148 -0.003143
v -0.253199 0.021795 -0.010519
v 0.100643 0.002624 -0.188828
v 0.258600 0.092306 -0.324730
v 0.934399 0.557366 -0.201319
v 0.924445 0.557289 -0.238826
v 0.707499 0.799246 -0.315850
v 0.013319 0.376330 -0.281326
v -0.333165 0.741685 -0.206818
v -0.246004 0.578241 -0.305636
v 0.930055 0.424838 0.349168
v 0.887177 0.372818 0.334800
v 0.925967 0.432195 0.341651
v 0.805550 0.297187 -0.007581
v 0.863075 0.154419 0.163258
v 0.958097 0.236667 0.121796
v -0.321070 0.538850 0.305468
v -0.631139 0.192425 0.299540
v 0.065787 0.221859 0.294156
v -0.246780 0.539767 0.310062
v -0.642766 0.685654 0.296589
v -0.251594 0.683895 0.296757
v 0.294497 0.467074 0.346255
v 0.319355 0.362930 0.346057
v 0.447658 0.557045 0.370316
v 0.139905 0.067986 0.309800
v -0.971267 0.463796 0.182268
v -0.210309 0.103054 0.187243
v -0.963280 0.683916 0.300202
v -0.587045 0.000000 0.170589
v -0.826310 0.005578 0.169310
v -0.801866 0.212858 0.289806
v 0.232753 0.131479 0.348248
v -0.638524 0.893846 0.169862
v -0.651069 0.893284 0.171347
v -0.452421 0.899148 -0.003143
v -0.292677 0.743083 0.134998
v 0.531758 0.599595 0.344473
v -0.187920 0.647529 0.054208
v 0.491110 0.695640 0.037738
v -0.251594 0.683895 0.296757
v -0.253199 0.021795 -0.010519
v 0.532324 0.003697 -0.158756
v 0.140957 0.004680 0.040054
v 0.258600 0.092306 -0.324730
v 0.704455 0.057050 -0.328086
v 0.717463 0.012384 -0.117402
v 0.945890 0.055565 -0.184067
v 0.863075 0.154419 0.163258
v 0.923287 0.163922 0.205690
v 0.929034 0.164280 0.207087
v 0.139905 0.067986 0.309800
v -0.210309 0.103054 0.187243
v -0.213555 0.107431 0.154203
v 0.943860 0.051687 -0.194000
v -0.645484 0.000157 0.066331
v -0.587045 0.000000 0.170589
v -0.738724 0.001031 0.051232
v -0.826310 0.005578 0.169310
v 0.232753 0.131479 0.348248
v 0.963629 0.324504 -0.074573
v 0.794919 0.299766 -0.019977
v 0.744984 0.102330 0.347090
v 0.142871 0.899342 -0.018636
v 0.071860 0.900000 -0.012019
v 0.531593 0.807762 0.160228
v 0.919874 0.829876 -0.148235
v 0.068346 0.899898 -0.006696
v -0.172816 0.828011 0.306818
v -0.638524 0.893846 0.169862
v 0.675862 0.820650 0.164352
v 0.926106 0.787450 0.158367
v 0.926920 0.779865 0.180548
v 0.664343 0.744245 0.318498
v 0.467857 0.743907 0.261130
v 0.985039 0.787836 -0.113028
v -0.645484 0.897121 -0.058628
v -0.452421 0.899148 -0.003143
v -0.540384 0.887075 -0.187995
v -0.838750 0.870887 -0.191238
v -0.825423 0.889078 -0.009434
v -0.231489 0.820943 -0.291177
v 0.210460 0.857955 -0.274605
v 0.707499 0.799246 -0.315850
v -0.322607 0.743089 -0.169930
v -0.645484 0.897121 -0.058628
v -0.540384 0.887075 -0.187995
v -0.231489 0.820943 -0.291177
v 0.071860 0.900000 -0.012019
v -0.638524 0.893846 0.169862
v -0.452421 0.899148 -0.003143
v -0.172816 0.828011 0.306818
v 0.068346 0.899898 -0.006696
v 0.551206 0.368610 0.357893
v 0.875835 0.368016 0.331556
v 0.920531 0.431848 0.347302
v 0.447658 0.557045 0.370316
v 0.589505 0.621101 0.366190
v 0.316299 0.365852 0.351144
v 0.232753 0.131479 0.348248
v 0.744984 0.102330 0.347090
v 0.887177 0.372818 0.334800
v 0.930055 0.424838 0.349168
v 0.923287 0.163922 0.205690
v -0.246004 0.578241 -0.305636
v 0.210460 0.857955 -0.274605
v 0.145460 0.595716 -0.265769
v 0.924445 0.557289 -0.238826
v -0.231489 0.820943 -0.291177
v 0.707499 0.799246 -0.315850
v 0.459867 0.523350 -0.320402
v -0.187612 0.273672 -0.329684
v 0.013319 0.376330 -0.281326
v 0.237177 0.353853 -0.246422
v 0.100643 0.002624 -0.188828
v 0.924708 0.269314 -0.223938
v 0.925545 0.504126 -0.286047
v -0.439992 0.003884 -0.191329
v 0.704455 0.057050 -0.328086
v 0.258600 0.092306 -0.324730
v 0.936823 0.258480 -0.207643
v 0.943860 0.051687 -0.194000
v -0.645484 0.897121 -0.058628
v -0.825423 0.889078 -0.009434
v -0.452421 0.899148 -0.003143
v -0.834896 0.887924 -0.006454
v -0.638524 0.893846 0.169862
v -0.651069 0.893284 0.171347
v -0.963280 0.683916 0.300202
v 0.544870 0.668524 0.168323
v 0.924179 0.558744 -0.130595
v 0.931959 0.557380 -0.147047
v 0.816498 0.428392 0.168081
v -0.172816 0.828011 0.306818
v -0.251594 0.683895 0.296757
v 0.467857 0.743907 0.261130
v 0.531758 0.599595 0.344473
v 0.491110 0.695640 0.037738
v 0.294497 0.467074 0.346255
v 0.531758 0.599595 0.344473
v 0.544870 0.668524 0.168323
v 0.556298 0.608197 0.344835
v 0.080722 0.557057 0.167646
v -0.246780 0.539767 0.310062
v -0.187920 0.647529 0.054208
v 0.589505 0.621101 0.366190
v 0.531146 0.600009 0.351995
v 0.447658 0.557045 0.370316
v -0.175633 0.741874 -0.009290
v -0.246004 0.578241 -0.305636
v -0.322607 0.743089 -0.169930
v -0.333165 0.741685 -0.206818
v -0.540384 0.887075 -0.187995
v -1.003753 0.667192 -0.323163
v -0.838750 0.870887 -0.191238
v -0.968519 0.405712 -0.259044
v -0.255796 0.371323 -0.206255
v -0.257283 0.370352 -0.206000
v 0.013319 0.376330 -0.281326
v -0.187612 0.273672 -0.329684
v -0.650217 0.369905 -0.267779
v -0.804703 0.012443 -0.249329
v -0.439992 0.003884 -0.191329
v -0.898428 0.340624 -0.070155
v -1.014961 0.083370 -0.069448
v -0.253199 0.021795 -0.010519
v -0.439992 0.003884 -0.191329
v 0.100643 0.002624 -0.188828
v -0.640238 0.009082 -0.012279
v -0.645484 0.000157 0.066331
v -1.014961 0.083370 -0.069448
v -0.804703 0.012443 -0.249329
v -0.738724 0.001031 0.051232
v 0.071860 0.900000 -0.012019
v -0.231489 0.820943 -0.291177
v -0.175633 0.741874 -0.009290
v -0.187920 0.647529 0.054208
v -0.246004 0.578241 -0.305636
v 0.068346 0.899898 -0.006696
v -0.172816 0.828011 0.306818
v -0.251594 0.683895 0.296757
v 0.945890 0.055565 -0.184067
v 0.717463 0.012384 -0.117402
v 0.863075 0.154419 0.163258
v 0.927079 0.685086 0.165700
v 0.931959 0.557380 -0.147047
v 0.985039 0.787836 -0.113028
v 0.934399 0.557366 -0.201319
v 0.926106 0.787450 0.158367
v 0.926920 0.779865 0.180548
v 0.927054 0.685259 0.170175
v 0.928591 0.773021 -0.309836
v 0.887177 0.372818 0.334800
v 0.294497 0.467074 0.346255
v 0.447658 0.557045 0.370316
v 0.920531 0.431848 0.347302
v 0.805550 0.297187 -0.007581
v 0.958097 0.236667 0.121796
v 0.875835 0.368016 0.331556
v 0.934399 0.557366 -0.201319
v 0.707499 0.799246 -0.315850
v 0.928591 0.773021 -0.309836
v 0.816498 0.428392 0.168081
v 0.927079 0.685086 0.165700
v 0.887177 0.372818 0.334800
v 0.816498 0.428392 0.168081
v 0.948686 0.476768 0.020122
v 0.927079 0.685086 0.165700
v 0.875835 0.368016 0.331556
v 0.551206 0.368610 0.357893
v 0.926791 0.232161 0.351780
v 0.926043 0.358082 0.269704
v 0.928591 0.773021 -0.309836
v 0.707499 0.799246 -0.315850
v 0.985039 0.787836 -0.113028
v 0.948686 0.476768 0.020122
v 0.816498 0.428392 0.168081
v 0.925967 0.432195 0.341651
v 0.887177 0.372818 0.334800
v 0.936823 0.258480 -0.207643
v 0.935410 0.500385 -0.261764
v 0.952234 0.501030 -0.186291
v 0.963629 0.324504 -0.074573
v 0.945890 0.055565 -0.184067
v 0.943860 0.051687 -0.194000
v 0.931959 0.557380 -0.147047
v 0.934399 0.557366 -0.201319
v 0.924445 0.557289 -0.238826
v 0.925545 0.504126 -0.286047
v 0.924708 0.269314 -0.223938
v 0.924179 0.558744 -0.130595
v 0.963629 0.324504 -0.074573
v 0.862223 0.476410 -0.183099
v 0.952234 0.501030 -0.186291
v 0.794919 0.299766 -0.019977
v -0.187920 0.647529 0.054208
v -0.292677 0.743083 0.134998
v -0.251594 0.683895 0.296757
v -0.175633 0.741874 -0.009290
v -0.322607 0.743089 -0.169930
v -0.645484 0.897121 -0.058628
v 0.794919 0.299766 -0.019977
v 0.963629 0.324504 -0.074573
v 0.952234 0.501030 -0.186291
v 0.862223 0.476410 -0.183099
v 0.930323 0.078150 0.166140
v 0.945890 0.055565 -0.184067
v 0.863075 0.154419 0.163258
v 0.923287 0.163922 0.205690
v 0.929034 0.164280 0.207087
v 0.805550 0.297187 -0.007581
v 0.963629 0.324504 -0.074573
v 0.958097 0.236667 0.121796
v 0.794919 0.299766 -0.019977
v 0.863075 0.154419 0.163258
v 0.717463 0.012384 -0.117402
v 0.920531 0.431848 0.347302
v 0.887177 0.372818 0.334800
v 0.556298 0.608197 0.344835
v 0.589505 0.621101 0.366190
v 0.875835 0.368016 0.331556
v 0.926043 0.358082 0.269704
v 0.551206 0.368610 0.357893
v 0.707499 0.799246 -0.315850
v 0.919874 0.829876 -0.148235
v 0.985039 0.787836 -0.113028
v 0.929034 0.164280 0.207087
v 0.863075 0.154419 0.163258
v 0.930323 0.078150 0.166140
v 0.664343 0.744245 0.318498
v 0.531758 0.599595 0.344473
v 0.556298 0.608197 0.344835
v 0.926920 0.779865 0.180548
v 0.927054 0.685259 0.170175
v 0.319355 0.362930 0.346057
v 0.232753 0.131479 0.348248
v 0.316299 0.365852 0.351144
v 0.551206 0.368610 0.357893
v 0.316299 0.365852 0.351144
v 0.447658 0.557045 0.370316
v 0.319355 0.362930 0.346057
v 0.931959 0.557380 -0.147047
v 0.924445 0.557289 -0.238826
v 0.924179 0.558744 -0.130595
v 0.934399 0.557366 -0.201319
v 0.920531 0.431848 0.347302
v 0.930055 0.424838 0.349168
v 0.925967 0.432195 0.341651
v 0.544870 0.668524 0.168323
v 0.931959 0.557380 -0.147047
v 0.927079 0.685086 0.165700
v 0.556298 0.608197 0.344835
v 0.491110 0.695640 0.037738
v 0.531758 0.599595 0.344473
v 0.927054 0.685259 0.170175
v 0.013319 0.376330 -0.281326
v -0.255796 0.371323 -0.206255
v -0.333165 0.741685 -0.206818
v 0.816498 0.428392 0.168081
v 0.544870 0.668524 0.168323
v 0.927079 0.685086 0.165700
v 0.926106 0.787450 0.158367
v 0.675862 0.820650 0.164352
v -0.968519 0.405712 -0.259044
v -0.650217 0.369905 -0.267779
v -0.898428 0.340624 -0.070155
v 0.863075 0.154419 0.163258
v 0.805550 0.297187 -0.007581
v 0.875835 0.368016 0.331556
v 0.923287 0.163922 0.205690
v 0.816498 0.428392 0.168081
v 0.862223 0.476410 -0.183099
v 0.924179 0.558744 -0.130595
v 0.952234 0.501030 -0.186291
v -0.251594 0.683895 0.296757
v -0.246780 0.539767 0.310062
v -0.187920 0.647529 0.054208
v -0.834896 0.887924 -0.006454
v -0.825423 0.889078 -0.009434
v -0.957872 0.593494 -0.011790
v 0.924445 0.557289 -0.238826
v 0.934399 0.557366 -0.201319
v 0.924179 0.558744 -0.130595
v 0.931959 0.557380 -0.147047
v -0.898428 0.340624 -0.070155
v -0.903950 0.241935 -0.007754
v -0.966769 0.460628 0.072982
v -1.014961 0.083370 -0.069448
v -0.801866 0.212858 0.289806
v -0.971267 0.463796 0.182268
v -0.950724 0.393045 -0.185232
v -0.957872 0.593494 -0.011790
v -0.738724 0.001031 0.051232
v -0.928419 0.742590 0.162816
v -0.826310 0.005578 0.169310
v -0.834896 0.887924 -0.006454
v -0.963280 0.683916 0.300202
v -0.968519 0.405712 -0.259044
v -1.003753 0.667192 -0.323163
v -1.003753 0.667192 -0.323163
v -0.957872 0.593494 -0.011790
v -0.825423 0.889078 -0.009434
v -0.838750 0.870887 -0.191238
v 0.875835 0.368016 0.331556
v 0.926043 0.358082 0.269704
v 0.887177 0.372818 0.334800
v 0.925967 0.432195 0.341651
v 0.948686 0.476768 0.020122
v 0.958097 0.236667 0.121796
v 0.963629 0.324504 -0.074573
v 0.952234 0.501030 -0.186291
v 0.926043 0.358082 0.269704
v 0.805550 0.297187 -0.007581
v 0.875835 0.368016 0.331556
v 0.958097 0.236667 0.121796
v 0.556298 0.608197 0.344835
v 0.531758 0.599595 0.344473
v 0.531146 0.600009 0.351995
v 0.531146 0.600009 0.351995
v 0.556298 0.608197 0.344835
v 0.589505 0.621101 0.366190
v 0.952234 0.501030 -0.186291
v 0.925545 0.504126 -0.286047
v 0.862223 0.476410 -0.183099
v 0.935410 0.500385 -0.261764
v 0.862223 0.476410 -0.183099
v 0.925545 0.504126 -0.286047
v 0.935410 0.500385 -0.261764
v 0.952234 0.501030 -0.186291
v 0.316299 0.365852 0.351144
v 0.319355 0.362930 0.346057
v 0.875835 0.368016 0.331556
v 0.551206 0.368610 0.357893
v 0.816498 0.428392 0.168081
v 0.952234 0.501030 -0.186291
v 0.948686 0.476768 0.020122
v 0.862223 0.476410 -0.183099
v 0.805550 0.297187 -0.007581
v 0.794919 0.299766 -0.019977
v 0.958097 0.236667 0.121796
v 0.963629 0.324504 -0.074573
v -0.253199 0.021795 -0.010519
v -0.645484 0.000157 0.066331
v -0.213555 0.107431 0.154203
v 0.963629 0.324504 -0.074573
v 0.936823 0.258480 -0.207643
v 0.794919 0.299766 -0.019977
v 0.924708 0.269314 -0.223938
v -0.148610 0.319725 0.348369
v 0.065787 0.221859 0.294156
v 0.316299 0.365852 0.351144
v 0.319355 0.362930 0.346057
vt 0.062155 0.935644
vt 0.062155 0.993249
vt 0.013352 0.971830
vt 0.329190 0.915842
vt 0.286671 0.821332
vt 0.209484 0.915842
vt 0.648711 0.955446
vt 0.762891 0.955446
vt 0.758558 0.912241
vt 0.465353 0.404590
vt 0.464549 0.407291
vt 0.485727 0.407291
vt 0.513352 0.589109
vt 0.513352 0.713321
vt 0.487569 0.660781
vt 0.750921 0.044554
vt 0.635732 0.022952
vt 0.572284 0.044554
vt 0.122007 0.226373
vt 0.116483 0.216472
vt 0.017956 0.226373
vt 0.716851 0.993249
vt 0.866943 0.993249
vt 0.810589 0.968047
vt 0.636740 0.980624
vt 0.640424 0.960846
vt 0.640424 0.981548
vt 0.981862 0.832133
vt 0.951657 0.892439
vt 0.991252 0.892439
vt 0.319537 0.546428
vt 0.425388 0.631973
vt 0.219710 0.654395
vt 0.298512 0.550757
vt 0.404922 0.485156
vt 0.291484 0.510882
vt 0.142704 0.591004
vt 0.139414 0.621036
vt 0.094383 0.571324
vt 0.199308 0.699820
vt 0.516114 0.537144
vt 0.307068 0.690032
vt 0.498927 0.468291
vt 0.422492 0.699820
vt 0.492305 0.688403
vt 0.474830 0.620763
vt 0.168515 0.684859
vt 0.394358 0.415084
vt 0.398001 0.414817
vt 0.324693 0.393789
vt 0.291602 0.461065
vt 0.940608 0.005851
vt 0.868466 0.222306
vt 0.846685 0.024958
vt 0.940608 0.236274
vt 0.172974 0.098758
vt 0.404048 0.053115
vt 0.289473 0.111930
vt 0.321262 0.001984
vt 0.453163 0.000450
vt 0.459228 0.062387
vt 0.526319 0.038652
vt 0.506257 0.151111
vt 0.523982 0.163687
vt 0.525676 0.164107
vt 0.291007 0.191769
vt 0.185411 0.161985
vt 0.183400 0.152523
vt 0.525721 0.035577
vt 0.049634 0.145927
vt 0.070610 0.173663
vt 0.021762 0.144977
vt 0.000460 0.181968
vt 0.321141 0.209271
vt 0.564917 0.113583
vt 0.516183 0.133499
vt 0.472428 0.209271
vt 0.326792 0.314498
vt 0.305381 0.313081
vt 0.443493 0.257185
vt 0.562494 0.345470
vt 0.304281 0.311541
vt 0.230204 0.219643
vt 0.090391 0.264650
vt 0.486632 0.255207
vt 0.562401 0.254446
vt 0.562571 0.247762
vt 0.483004 0.208371
vt 0.424433 0.226636
vt 0.582413 0.333757
vt 0.090188 0.331895
vt 0.147721 0.314243
vt 0.123028 0.368925
vt 0.033610 0.371686
vt 0.035802 0.318571
vt 0.217744 0.395590
vt 0.349899 0.388320
vt 0.500535 0.395590
vt 0.190490 0.358963
vt 0.942449 0.652115
vt 0.902389 0.624208
vt 0.861418 0.536559
vt 0.942449 0.443294
vt 0.048863 0.541404
vt 0.098987 0.595917
vt 0.004144 0.676246
vt 0.098987 0.746625
vt 0.196916 0.463921
vt 0.100809 0.458976
vt 0.089086 0.439111
vt 0.230784 0.411137
vt 0.190106 0.390189
vt 0.266184 0.468779
vt 0.286832 0.537804
vt 0.135335 0.537804
vt 0.097514 0.457216
vt 0.086018 0.440817
vt 0.067680 0.521785
vt 0.595209 0.400266
vt 0.518877 0.535103
vt 0.594821 0.512870
vt 0.618933 0.735449
vt 0.523964 0.407684
vt 0.540248 0.677930
vt 0.629588 0.599994
vt 0.676706 0.404028
vt 0.661783 0.468913
vt 0.681343 0.532682
vt 0.778545 0.474344
vt 0.711943 0.732456
vt 0.640088 0.733984
vt 0.755298 0.319082
vt 0.778545 0.665374
vt 0.763043 0.537375
vt 0.715290 0.738280
vt 0.776364 0.744824
vt 0.402798 0.852329
vt 0.457113 0.840707
vt 0.358656 0.893001
vt 0.460075 0.840234
vt 0.430020 0.912241
vt 0.433561 0.910931
vt 0.547422 0.912241
vt 0.770258 0.764626
vt 0.768212 0.908408
vt 0.770258 0.913141
vt 0.694751 0.839502
vt 0.223256 0.002114
vt 0.241713 0.045455
vt 0.027845 0.000450
vt 0.003223 0.045455
vt 0.888122 0.810628
vt 0.778545 0.744106
vt 0.790321 0.818860
vt 0.847483 0.825345
vt 0.790816 0.826380
vt 0.842091 0.685244
vt 0.804830 0.589109
vt 0.888122 0.610466
vt 0.785743 0.836634
vt 0.788255 0.818708
vt 0.779531 0.792576
vt 0.583722 0.312781
vt 0.617843 0.218723
vt 0.639028 0.280838
vt 0.646454 0.272470
vt 0.708972 0.312781
vt 0.845205 0.237522
vt 0.796962 0.307857
vt 0.826151 0.161392
vt 0.615219 0.167615
vt 0.615589 0.167248
vt 0.537293 0.193842
vt 0.574593 0.138111
vt 0.732017 0.153005
vt 0.762804 0.044554
vt 0.654383 0.055203
vt 0.824730 0.137896
vt 0.845764 0.058998
vt 0.466971 0.783911
vt 0.526133 0.832286
vt 0.366943 0.843834
vt 0.581078 0.775959
vt 0.580809 0.752925
vt 0.694751 0.785678
vt 0.634587 0.843834
vt 0.608678 0.753173
vt 0.764733 0.366293
vt 0.823516 0.473328
vt 0.848211 0.390545
vt 0.873909 0.368946
vt 0.895488 0.479298
vt 0.765811 0.364778
vt 0.849735 0.282178
vt 0.895488 0.298733
vt 0.651473 0.313681
vt 0.651473 0.383888
vt 0.552026 0.359059
vt 0.907827 0.296395
vt 0.881676 0.391871
vt 0.950737 0.374224
vt 0.883725 0.407624
vt 0.938142 0.294594
vt 0.935158 0.288479
vt 0.907717 0.295093
vt 0.950737 0.430693
vt 0.431872 0.747525
vt 0.609116 0.747525
vt 0.568766 0.713321
vt 0.424954 0.728414
vt 0.629374 0.950945
vt 0.587113 0.906841
vt 0.524401 0.950945
vt 0.846685 0.274978
vt 0.950737 0.274978
vt 0.902392 0.230873
vt 0.805249 0.558076
vt 0.849447 0.489199
vt 0.849447 0.592709
vt 0.938766 0.243474
vt 0.999540 0.243474
vt 0.978675 0.172367
vt 0.193466 0.972886
vt 0.195672 0.878938
vt 0.152394 0.986224
vt 0.195672 0.995950
vt 0.936004 0.691722
vt 0.973757 0.638614
vt 0.973757 0.738524
vt 0.413904 0.708821
vt 0.377072 0.755569
vt 0.413904 0.802688
vt 0.393457 0.807831
vt 0.299022 0.967922
vt 0.224897 0.969079
vt 0.229392 0.946797
vt 0.287907 0.924842
vt 0.359976 0.972994
vt 0.360497 0.976148
vt 0.215021 0.932748
vt 0.211806 0.948299
vt 0.209484 0.959406
vt 0.222249 0.976148
vt 0.294750 0.972336
vt 0.215526 0.928167
vt 0.999540 0.590402
vt 0.972961 0.534321
vt 0.999540 0.529703
vt 0.947974 0.602610
vt 0.028118 0.071147
vt 0.055611 0.109957
vt 0.016114 0.143564
vt 0.058277 0.056225
vt 0.122265 0.049955
vt 0.178177 0.143564
vt 0.941529 0.107561
vt 0.994015 0.095283
vt 0.994015 0.033753
vt 0.967021 0.038521
vt 0.016114 0.724288
vt 0.044659 0.822232
vt 0.044659 0.714813
vt 0.028859 0.699822
vt 0.027365 0.698920
vt 0.832615 0.902315
vt 0.781308 0.905214
vt 0.805907 0.847750
vt 0.834210 0.906841
vt 0.851805 0.838434
vt 0.926796 0.906841
vt 0.102073 0.542304
vt 0.099908 0.563006
vt 0.221455 0.563006
vt 0.215835 0.552585
vt 0.278888 0.982448
vt 0.260129 0.996850
vt 0.374309 0.996850
vt 0.963628 0.550405
vt 0.950737 0.472206
vt 0.963628 0.450495
vt 0.432320 0.425293
vt 0.456262 0.425293
vt 0.441940 0.399190
vt 0.125574 0.175068
vt 0.172652 0.209271
vt 0.165005 0.208309
vt 0.037293 0.182011
vt 0.041375 0.209271
vt 0.868932 0.406409
vt 0.892726 0.338884
vt 0.866943 0.406262
vt 0.892726 0.469397
vt 0.380378 0.829433
vt 0.311694 0.832133
vt 0.380755 0.832133
vt 0.131520 0.825736
vt 0.158840 0.828533
vt 0.126611 0.828533
vt 0.147681 0.824933
vt 0.381676 0.215572
vt 0.377993 0.213871
vt 0.381676 0.212871
vt 0.025774 0.872942
vt 0.170810 0.915842
vt 0.135367 0.831471
vt 0.008436 0.821332
vt 0.025482 0.915842
vt 0.001381 0.824005
vt 0.134856 0.830228
vt 0.947974 0.885239
vt 0.887201 0.830305
vt 0.947974 0.738524
vt 0.063076 0.894239
vt 0.064478 0.999550
vt 0.142363 0.918551
vt 0.165285 0.938173
vt 0.124182 0.999550
vt 0.008748 0.300234
vt 0.068600 0.228173
vt 0.068600 0.319982
vt 0.008886 0.460112
vt 0.061234 0.502700
vt 0.061234 0.400090
vt 0.001381 0.439852
vt 0.609116 0.868137
vt 0.503279 0.868137
vt 0.512934 0.835734
vt 0.489411 0.844546
vt 0.598987 0.202970
vt 0.598987 0.245275
vt 0.524401 0.207651
vt 0.371156 0.981548
vt 0.369705 0.984248
vt 0.465470 0.984248
vt 0.793278 0.027453
vt 0.804437 0.023852
vt 0.825506 0.027453
vt 0.820598 0.024659
vt 0.277602 0.809200
vt 0.307521 0.788521
vt 0.236297 0.763535
vt 0.366022 0.813100
vt 0.326832 0.693533
vt 0.233340 0.730115
vt 0.253342 0.843792
vt 0.193344 0.787547
vt 0.366022 0.717304
vt 0.148639 0.731659
vt 0.356386 0.716925
vt 0.093462 0.782518
vt 0.167929 0.692619
vt 0.246747 0.866477
vt 0.163605 0.881638
vt 0.963628 0.999550
vt 0.963628 0.905941
vt 0.868785 0.919355
vt 0.881916 0.970826
vt 0.589779 0.887967
vt 0.613921 0.887447
vt 0.591061 0.891535
vt 0.595590 0.912241
vt 0.693464 0.912241
vt 0.655853 0.847435
vt 0.715448 0.865524
vt 0.753683 0.912009
vt 0.776296 0.945464
vt 0.866022 0.963546
vt 0.761050 0.963546
vt 0.826015 0.916742
vt 0.633057 0.301080
vt 0.630295 0.293690
vt 0.633057 0.292979
vt 0.814457 0.460396
vt 0.807113 0.455896
vt 0.795120 0.460396
vt 0.341581 0.837534
vt 0.362339 0.860036
vt 0.325506 0.860036
vt 0.358055 0.853469
vt 0.857735 0.142664
vt 0.836477 0.112961
vt 0.834189 0.120307
vt 0.830110 0.142664
vt 0.631215 0.009633
vt 0.632158 0.011251
vt 0.797882 0.011251
vt 0.701076 0.005851
vt 0.800645 0.498200
vt 0.773487 0.607111
vt 0.766575 0.547179
vt 0.800645 0.601898
vt 0.158409 0.690688
vt 0.159761 0.695320
vt 0.129391 0.636814
vt 0.106354 0.695320
vt 0.471055 0.925743
vt 0.363260 0.974347
vt 0.497698 0.974347
vt 0.959024 0.330674
vt 0.990079 0.362406
vt 0.996777 0.293879
vt 0.996777 0.364086
vt 0.517035 0.993249
vt 0.577206 0.955446
vt 0.655270 0.993249
vt 0.656077 0.991788
usemtl baked
f 1/1 2/2 3/3
f 284/284 285/285 286/286
f 156/156 154/154 160/160
f 370/370 371/371 372/372
f 154/154 161/161 160/160
f 373/373 374/374 375/375
f 172/172 171/171 173/173
f 174/174 172/172 173/173
f 172/172 170/170 171/171
f 175/175 170/170 172/172
f 86/86 85/85 87/87
f 88/88 87/87 85/85
f 80/80 89/89 88/88
f 85/85 80/80 88/88
f 380/380 382/382 383/383
f 380/380 381/381 382/382
f 376/376 379/379 377/377
f 376/376 377/377 378/378
f 60/60 69/69 62/62
f 61/61 60/60 62/62
f 57/57 60/60 61/61
f 59/59 60/60 57/57
f 41/41 35/35 43/43
f 139/139 138/138 140/140
f 137/137 138/138 139/139
f 91/91 94/94 95/95
f 93/93 94/94 91/91
f 350/350 348/348 351/351
f 140/140 143/143 142/142
f 139/139 140/140 141/141
f 141/141 140/140 142/142
f 187/187 185/185 184/184
f 185/185 183/183 184/184
f 186/186 181/181 185/185
f 185/185 181/181 183/183
f 71/71 72/72 70/70
f 72/72 71/71 73/73
f 32/32 45/45 44/44
f 45/45 32/32 46/46
f 35/35 31/31 34/34
f 36/36 35/35 34/34
f 152/152 157/157 153/153
f 159/159 158/158 157/157
f 157/157 158/158 153/153
f 159/159 157/157 152/152
f 329/329 330/330 331/331
f 152/152 153/153 154/154
f 55/55 53/53 52/52
f 308/308 307/307 306/306
f 306/306 307/307 303/303
f 154/154 153/153 162/162
f 161/161 154/154 162/162
f 155/155 152/152 154/154
f 155/155 154/154 156/156
f 52/52 53/53 54/54
f 384/384 385/385 386/386
f 384/384 386/386 387/387
f 108/108 109/109 110/110
f 109/109 116/116 110/110
f 110/110 116/116 117/117
f 25/25 26/26 27/27
f 10/10 11/11 12/12
f 300/300 301/301 302/302
f 111/111 108/108 110/110
f 111/111 113/113 108/108
f 388/388 389/389 390/390
f 388/388 391/391 389/389
f 211/211 212/212 213/213
f 358/358 363/363 359/359
f 358/358 359/359 360/360
f 359/359 361/361 360/360
f 359/359 362/362 361/361
f 363/363 362/362 359/359
f 393/393 395/395 394/394
f 392/392 393/393 394/394
f 230/230 231/231 232/232
f 231/231 233/233 232/232
f 210/210 207/207 209/209
f 207/207 208/208 209/209
f 246/246 249/249 247/247
f 246/246 247/247 248/248
f 364/364 365/365 362/362
f 363/363 364/364 362/362
f 366/366 367/367 368/368
f 367/367 366/366 369/369
f 332/332 333/333 334/334
f 350/350 346/346 348/348
f 351/351 341/341 344/344
f 348/348 341/341 351/351
f 41/41 31/31 35/35
f 346/346 341/341 348/348
f 346/346 345/345 341/341
f 354/354 355/355 356/356
f 356/356 357/357 354/354
f 48/48 49/49 43/43
f 48/48 43/43 35/35
f 67/67 58/58 66/66
f 67/67 68/68 58/58
f 16/16 17/17 18/18
f 56/56 59/59 57/57
f 56/56 57/57 58/58
f 68/68 56/56 58/58
f 184/184 183/183 180/180
f 396/396 397/397 398/398
f 71/71 70/70 67/67
f 67/67 70/70 68/68
f 287/287 284/284 286/286
f 286/286 288/288 287/287
f 199/199 204/204 205/205
f 199/199 203/203 204/204
f 235/235 243/243 242/242
f 235/235 242/242 241/241
f 335/335 336/336 337/337
f 337/337 336/336 338/338
f 235/235 241/241 240/240
f 236/236 235/235 240/240
f 328/328 327/327 326/326
f 236/236 240/240 245/245
f 299/299 297/297 296/296
f 296/296 297/297 298/298
f 220/220 221/221 222/222
f 217/217 218/218 219/219
f 4/4 5/5 6/6
f 306/306 305/305 309/309
f 144/144 145/145 146/146
f 303/303 304/304 305/305
f 306/306 303/303 305/305
f 271/271 273/273 274/274
f 271/271 272/272 273/273
f 112/112 111/111 110/110
f 161/161 162/162 160/160
f 314/314 316/316 315/315
f 314/314 317/317 316/316
f 325/325 326/326 327/327
f 313/313 314/314 315/315
f 147/147 145/145 144/144
f 166/166 171/171 170/170
f 170/170 168/168 166/166
f 310/310 311/311 312/312
f 22/22 23/23 24/24
f 353/353 352/352 346/346
f 346/346 352/352 345/345
f 188/188 191/191 193/193
f 91/91 82/82 79/79
f 79/79 96/96 93/93
f 79/79 93/93 91/91
f 82/82 91/91 92/92
f 82/82 83/83 80/80
f 80/80 83/83 89/89
f 96/96 79/79 78/78
f 97/97 96/96 78/78
f 80/80 79/79 82/82
f 78/78 79/79 80/80
f 35/35 50/50 48/48
f 35/35 51/51 50/50
f 104/104 105/105 106/106
f 106/106 105/105 107/107
f 250/250 251/251 252/252
f 51/51 35/35 36/36
f 83/83 82/82 84/84
f 82/82 92/92 84/84
f 100/100 101/101 102/102
f 188/188 190/190 191/191
f 100/100 102/102 103/103
f 148/148 149/149 150/150
f 149/149 151/151 150/150
f 193/193 191/191 194/194
f 194/194 191/191 195/195
f 13/13 14/14 15/15
f 254/254 255/255 251/251
f 166/166 168/168 167/167
f 168/168 169/169 167/167
f 189/189 192/192 190/190
f 188/188 189/189 190/190
f 127/127 119/119 125/125
f 125/125 119/119 121/121
f 253/253 254/254 251/251
f 253/253 251/251 250/250
f 165/165 164/164 166/166
f 163/163 164/164 165/165
f 165/165 166/166 167/167
f 99/99 93/93 91/91
f 125/125 121/121 122/122
f 131/131 125/125 122/122
f 223/223 224/224 225/225
f 223/223 225/225 226/226
f 133/133 128/128 130/130
f 134/134 128/128 133/133
f 133/133 130/130 135/135
f 259/259 256/256 258/258
f 256/256 257/257 258/258
f 136/136 133/133 135/135
f 399/399 400/400 401/401
f 401/401 400/400 402/402
f 237/237 234/234 236/236
f 234/234 235/235 236/236
f 244/244 243/243 235/235
f 244/244 235/235 234/234
f 126/126 127/127 128/128
f 128/128 127/127 125/125
f 128/128 125/125 130/130
f 125/125 131/131 130/130
f 339/339 341/341 345/345
f 339/339 340/340 341/341
f 345/345 352/352 339/339
f 318/318 319/319 320/320
f 340/340 349/349 343/343
f 340/340 347/347 349/349
f 339/339 342/342 340/340
f 340/340 343/343 341/341
f 341/341 343/343 344/344
f 342/342 347/347 340/340
f 292/292 289/289 291/291
f 403/403 404/404 405/405
f 404/404 406/406 405/405
f 38/38 33/33 40/40
f 33/33 42/42 40/40
f 32/32 44/44 33/33
f 44/44 42/42 33/33
f 31/31 32/32 33/33
f 31/31 33/33 34/34
f 37/37 33/33 38/38
f 34/34 33/33 37/37
f 39/39 37/37 38/38
f 293/293 294/294 295/295
f 32/32 41/41 46/46
f 31/31 41/41 32/32
f 97/97 78/78 81/81
f 98/98 97/97 81/81
f 81/81 78/78 80/80
f 81/81 80/80 85/85
f 278/278 279/279 280/280
f 81/81 85/85 86/86
f 81/81 86/86 90/90
f 199/199 200/200 201/201
f 199/199 201/201 203/203
f 227/227 228/228 229/229
f 121/121 120/120 122/122
f 122/122 120/120 124/124
f 19/19 20/20 21/21
f 214/214 215/215 216/216
f 202/202 206/206 201/201
f 200/200 202/202 201/201
f 119/119 123/123 120/120
f 119/119 120/120 121/121
f 129/129 126/126 128/128
f 134/134 129/129 128/128
f 176/176 172/172 177/177
f 176/176 175/175 172/172
f 129/129 132/132 126/126
f 174/174 177/177 172/172
f 175/175 176/176 178/178
f 178/178 176/176 179/179
f 183/183 181/181 180/180
f 180/180 181/181 182/182
f 324/324 321/321 323/323
f 321/321 322/322 323/323
f 265/265 266/266 267/267
f 28/28 29/29 30/30
f 269/269 268/268 265/265
f 268/268 266/266 265/265
f 269/269 270/270 268/268
f 196/196 197/197 198/198
f 61/61 75/75 76/76
f 62/62 75/75 61/61
f 114/114 115/115 108/108
f 113/113 114/114 108/108
f 38/38 40/40 47/47
f 289/289 290/290 291/291
f 238/238 239/239 234/234
f 238/238 234/234 237/237
f 275/275 276/276 277/277
f 7/7 8/8 9/9
f 74/74 66/66 64/64
f 77/77 74/74 64/64
f 108/108 115/115 109/109
f 109/109 115/115 118/118
f 260/260 261/261 262/262
f 58/58 57/57 63/63
f 63/63 57/57 61/61
f 260/260 262/262 263/263
f 264/264 260/260 263/263
f 64/64 63/63 65/65
f 281/281 282/282 283/283
f 66/66 58/58 64/64
f 64/64 58/58 63/63
