v -0.349328 0.136924 -0.024068 0.5000 0.5000 0.5000
v -0.316069 0.173233 -0.046427 0.5000 0.5000 0.5000
v -0.419938 0.414639 -0.048564 0.5000 0.5000 0.5000
v -0.398690 0.536634 -0.033544 0.5000 0.5000 0.5000
v -0.392881 0.555348 -0.033707 0.5000 0.5000 0.5000
v -0.353959 0.735731 -0.029068 0.0811 0.0716 0.0534
v -0.333434 0.825958 0.010065 0.0534 0.0441 0.0323
v -0.349623 0.834859 -0.029721 0.1883 0.1784 0.1434
v -0.351659 0.840398 0.010807 0.2406 0.2208 0.1607
v -0.350516 1.087044 -0.028546 0.2531 0.2320 0.1775
v -0.358886 1.088107 0.016033 0.3266 0.2897 0.2055
v -0.315774 1.136298 0.009108 0.3569 0.3053 0.2144
v -0.359629 1.113051 0.011764 0.3090 0.2673 0.1864
v -0.235712 0.064643 -0.177139 0.2729 0.1808 0.1075
v -0.235751 0.063456 -0.019611 0.2668 0.1620 0.0926
v -0.236182 0.053145 0.024109 0.1640 0.0538 0.0228
v -0.236927 0.010052 0.184606 0.1564 0.0547 0.0269
v -0.216776 0.144750 -0.237939 0.2967 0.1169 0.0555
v -0.261251 0.274984 -0.042861 0.2816 0.0997 0.0395
v -0.218355 0.268619 0.011902 0.2738 0.0770 0.0323
v -0.200397 0.275295 0.187206 0.1495 0.0307 0.0119
v -0.210852 0.283677 -0.246694 0.4516 0.1643 0.0829
v -0.260215 0.321579 -0.034284 0.4883 0.1881 0.0975
v -0.218391 0.385072 0.017518 0.5385 0.1894 0.0934
v -0.201574 0.372165 0.187111 0.5545 0.1823 0.0826
v -0.176850 0.549143 -0.252599 0.3942 0.1382 0.0649
v -0.262525 0.469876 -0.018057 0.5024 0.2234 0.1243
v -0.209815 0.552110 0.182451 0.4452 0.2367 0.1536
v -0.201574 0.551071 0.187090 0.5860 0.1957 0.0941
v -0.178028 0.663072 -0.252480 0.5175 0.1949 0.0898
v -0.255731 0.583855 -0.046698 0.4146 0.2008 0.1085
v -0.218303 0.583188 0.030468 0.4489 0.3039 0.2025
v -0.202752 0.681764 0.186666 0.5052 0.1494 0.0536
v -0.178028 0.824474 -0.252498 0.4533 0.1896 0.0982
v -0.313995 0.761652 -0.023368 0.4202 0.2399 0.1477
v -0.207461 0.768992 0.183863 0.3870 0.2651 0.1739
v -0.200397 0.814683 0.187233 0.5420 0.1874 0.0780
v -0.176850 0.868459 -0.252585 0.6271 0.2419 0.1259
v -0.313959 0.835917 -0.026145 0.4018 0.1919 0.1131
v -0.314197 0.839167 0.010608 0.4595 0.2436 0.1380
v -0.176850 0.884258 0.187158 0.6376 0.2512 0.1210
v -0.176850 1.110634 -0.252556 0.6619 0.2544 0.1360
v -0.282652 1.111805 -0.032978 0.3693 0.2044 0.1250
v -0.214974 1.036610 0.176800 0.2900 0.2075 0.1348
v -0.178028 1.102179 0.187117 0.6001 0.2258 0.1025
v -0.218435 1.249635 -0.178159 0.3393 0.0964 0.0465
v -0.218376 1.234718 -0.162912 0.3898 0.2547 0.1647
v -0.218271 1.208395 0.056877 0.3800 0.2189 0.1336
v -0.184358 1.176946 0.211685 0.5701 0.1969 0.0771
v -0.219235 1.260044 -0.180265 0.2462 0.3362 0.2174
v -0.194805 1.318319 0.007216 0.4137 0.3424 0.2231
v -0.179205 1.316024 0.124864 0.4879 0.2708 0.1652
v -0.176850 1.255272 0.187237 0.5933 0.2119 0.0886
v -0.042416 0.075279 -0.172126 0.1878 0.1385 0.0798
v -0.044550 0.075250 -0.005688 0.2103 0.1650 0.1030
v -0.043814 0.075131 0.179407 0.1688 0.0868 0.0417
v -0.039693 0.074977 0.224707 0.1907 0.0950 0.0438
v -0.176008 0.158101 -0.253066 0.3673 0.2178 0.1190
v -0.176139 0.261350 0.187419 0.2959 0.2763 0.1485
v -0.102680 0.355996 -0.307377 0.3605 0.2007 0.1125
v -0.176136 0.349765 0.187408 0.3539 0.4203 0.2502
v -0.176020 0.453534 -0.253108 0.5642 0.2958 0.1591
v -0.176141 0.441443 0.187416 0.3903 0.3803 0.2174
v -0.176020 0.690517 -0.253083 0.6609 0.3057 0.1601
v -0.175871 0.690665 0.207627 0.4478 0.4369 0.2516
v -0.176015 0.813867 -0.253085 0.7089 0.3225 0.1638
v -0.087303 0.832485 0.232875 0.5699 0.3850 0.2129
v -0.176031 0.967778 -0.253106 0.6656 0.3269 0.1656
v -0.176131 0.884704 0.187402 0.6148 0.5776 0.5062
v -0.176044 1.106482 -0.253093 0.6340 0.3552 0.1836
v -0.176133 1.101289 0.187406 0.7035 0.6745 0.5898
v -0.176059 1.145199 -0.253106 0.5872 0.2927 0.1457
v -0.175692 1.181396 0.235714 0.5979 0.5740 0.4183
v -0.105323 1.390142 -0.241433 0.5322 0.3230 0.1795
v -0.144901 1.390071 -0.143627 0.4441 0.2820 0.1856
v -0.143885 1.390263 0.134108 0.4884 0.2680 0.1734
v -0.118574 1.267437 0.243615 0.4650 0.3326 0.2487
v -0.083320 1.516577 -0.164363 0.3202 0.2202 0.1624
v -0.083321 1.529601 -0.143574 0.3810 0.2730 0.2031
v -0.038159 1.523398 0.067539 0.3529 0.3104 0.2405
v -0.062063 1.390945 0.184838 0.4020 0.4237 0.3639
v -0.115736 1.666827 -0.164505 0.1572 0.1019 0.0566
v -0.090197 1.668825 -0.145338 0.4005 0.2863 0.2226
v -0.039105 1.664413 0.071213 0.3403 0.2611 0.1833
v -0.103160 1.690555 -0.164336 0.1083 0.0775 0.0496
v -0.111014 1.735116 0.006406 0.5193 0.3794 0.3157
v -0.067915 1.670299 0.062807 0.5122 0.1787 0.0964
v 0.099266 0.081885 -0.307133 0.2683 0.1662 0.0838
v 0.082601 0.075245 0.009536 0.1662 0.1164 0.0627
v 0.098053 0.075200 0.170496 0.1944 0.1338 0.0757
v 0.097465 0.075048 0.224707 0.2250 0.1674 0.0738
v 0.097391 0.199304 -0.307387 0.3914 0.2396 0.1362
v -0.037928 0.271401 0.243469 0.3023 0.2965 0.1550
v 0.022263 0.401612 -0.307401 0.4179 0.2648 0.1551
v 0.078627 0.412367 0.243407 0.3686 0.4388 0.2549
v 0.021896 0.548402 -0.307373 0.5374 0.3028 0.1658
v -0.032152 0.453428 0.240787 0.4832 0.5200 0.3231
v -0.033219 0.691185 -0.307315 0.5614 0.2771 0.1480
v -0.037513 0.686641 0.243485 0.6519 0.5981 0.3785
v -0.037338 0.818837 -0.307346 0.6293 0.3051 0.1621
v 0.078039 0.814326 0.226934 0.6675 0.5915 0.4049
v -0.002902 0.968593 -0.307385 0.5546 0.3169 0.1752
v 0.033173 0.969549 0.168277 0.0014 0.0000 0.0023
v -0.033512 0.879362 0.225740 0.5329 0.5123 0.4572
v -0.035867 1.095355 -0.307323 0.5946 0.3139 0.1714
v 0.057141 0.981128 0.168384 0.0004 0.0000 0.0004
v -0.008494 1.050257 0.227064 0.6077 0.5806 0.4898
v 0.093748 1.195785 -0.307408 0.6782 0.3461 0.1774
v 0.030460 1.215202 0.279680 0.5931 0.5641 0.4228
v 0.098921 1.375347 -0.284635 0.7003 0.3471 0.1820
v -0.010850 1.292953 0.248725 0.3857 0.2946 0.2123
v -0.003197 1.403381 -0.191340 0.4034 0.1985 0.1250
v 0.092754 1.520814 -0.158042 0.3719 0.3298 0.2896
v 0.068701 1.465615 0.061313 0.5035 0.4732 0.3958
v 0.096728 1.390851 0.193496 0.4640 0.4076 0.3427
v 0.044815 1.608338 -0.167328 0.7967 0.7731 0.7182
v 0.000483 1.653955 -0.163879 0.7643 0.7354 0.6754
v -0.002608 1.605965 0.078959 0.7370 0.6995 0.6084
v 0.095144 1.739234 -0.164590 0.1251 0.0673 0.0376
v 0.030724 1.800000 -0.006058 0.5154 0.4102 0.3438
v 0.001807 1.669160 0.075248 0.6218 0.2996 0.1717
v 0.237270 0.081537 -0.306259 0.2117 0.1381 0.0732
v 0.222260 0.075198 -0.084962 0.2253 0.1796 0.1076
v 0.229398 0.075210 0.039148 0.2012 0.1392 0.0746
v 0.205189 0.018358 0.292415 0.1852 0.0841 0.0234
v 0.237573 0.142970 -0.305040 0.3647 0.1430 0.0796
v 0.228294 0.183653 0.243448 0.2824 0.2022 0.0958
v 0.124322 0.411254 -0.307389 0.4415 0.1975 0.1137
v 0.163394 0.357776 0.228969 0.4415 0.2475 0.1361
v 0.149403 0.552935 -0.307385 0.4284 0.2030 0.1150
v 0.237630 0.547807 0.240625 0.5717 0.5037 0.3194
v 0.100739 0.626172 -0.307370 0.4480 0.1851 0.1013
v 0.162438 0.624726 0.228955 0.6863 0.4518 0.2892
v 0.103645 0.820024 -0.307406 0.4567 0.1813 0.1054
v 0.102174 0.814303 0.232875 0.6248 0.2977 0.1770
v 0.105301 0.957430 -0.307401 0.4686 0.1972 0.1211
v 0.203827 0.904914 0.243432 0.6007 0.5005 0.4303
v 0.168103 1.023703 -0.307459 0.5610 0.2473 0.1364
v 0.105522 1.082800 0.233247 0.5707 0.3799 0.2804
v 0.192533 1.238362 -0.307585 0.6160 0.2586 0.1344
v 0.197535 1.246668 0.243504 0.4777 0.3423 0.2415
v 0.238153 1.329146 -0.284722 0.6190 0.3081 0.1876
v 0.238207 1.373707 -0.085333 0.4558 0.3361 0.2530
v 0.212842 1.387823 0.164555 0.4099 0.3670 0.3051
v 0.234824 1.258018 0.242080 0.5477 0.3270 0.2409
v 0.169243 1.527484 -0.164437 0.4415 0.2445 0.1641
v 0.212200 1.508380 -0.099715 0.2133 0.1535 0.1245
v 0.214922 1.513311 0.019004 0.4556 0.3385 0.2639
v 0.105230 1.390872 0.192053 0.5754 0.3901 0.2884
v 0.103558 1.601588 -0.164329 0.2254 0.1252 0.1002
v 0.225713 1.530763 -0.106316 0.6653 0.5898 0.5338
v 0.225695 1.533826 0.013082 0.6249 0.4672 0.3827
v 0.173479 1.673958 -0.164953 0.2534 0.1668 0.0862
v 0.225197 1.670326 -0.129504 0.4794 0.2766 0.1940
v 0.107692 1.671756 0.071663 0.6296 0.4275 0.3283
v 0.328216 0.000000 -0.280699 0.2668 0.1321 0.0752
v 0.300559 0.135552 0.004895 0.2813 0.1732 0.0981
v 0.298561 0.133624 0.173347 0.2510 0.1415 0.0726
v 0.287602 0.084298 0.196766 0.1433 0.0364 0.0162
v 0.300636 0.243252 -0.169619 0.3368 0.1373 0.0754
v 0.300554 0.271557 0.003688 0.3527 0.1794 0.0962
v 0.291038 0.266394 0.183067 0.3139 0.1640 0.0858
v 0.287944 0.261054 0.184796 0.3100 0.0842 0.0434
v 0.300594 0.387129 -0.174899 0.4788 0.2149 0.1209
v 0.300512 0.415260 0.004337 0.5125 0.2824 0.1602
v 0.291000 0.385664 0.183048 0.4061 0.2049 0.1087
v 0.284658 0.385369 0.186609 0.4918 0.1534 0.0767
v 0.300579 0.536236 -0.164421 0.5241 0.2443 0.1404
v 0.300551 0.463098 0.006887 0.5612 0.3441 0.1969
v 0.290967 0.486392 0.183028 0.6192 0.2878 0.1527
v 0.283481 0.532008 0.186999 0.5531 0.1730 0.0825
v 0.300607 0.561901 -0.184472 0.4537 0.1817 0.1053
v 0.300592 0.557803 -0.098886 0.6548 0.3395 0.1845
v 0.290984 0.562198 0.183038 0.7107 0.3356 0.1781
v 0.283481 0.582372 0.187018 0.5643 0.1870 0.0906
v 0.284635 0.825364 -0.252349 0.4948 0.1915 0.1125
v 0.300597 0.694709 -0.092667 0.6799 0.3399 0.1818
v 0.290949 0.719741 0.183017 0.6871 0.3157 0.1645
v 0.284658 0.696748 0.186615 0.6506 0.2337 0.1066
v 0.284630 0.957097 -0.252339 0.6377 0.3058 0.1630
v 0.300562 0.833702 -0.016578 0.5399 0.3127 0.1843
v 0.291095 0.956205 0.183100 0.5522 0.2920 0.1695
v 0.282303 0.936328 0.187150 0.5279 0.1535 0.0562
v 0.283481 0.984985 -0.252682 0.5814 0.2452 0.1320
v 0.300412 1.111544 -0.164257 0.4254 0.3032 0.1998
v 0.305260 1.066516 0.163813 0.3588 0.2756 0.1944
v 0.260229 1.109115 0.187092 0.5015 0.1488 0.0620
v 0.282303 1.124135 -0.252659 0.6196 0.2746 0.1411
v 0.300548 1.179440 -0.163456 0.5446 0.3553 0.2148
v 0.300492 1.222099 0.011160 0.4469 0.2354 0.1473
v 0.258731 1.186131 0.195766 0.5178 0.1718 0.0753
v 0.279948 1.262096 -0.252725 0.6682 0.3244 0.1731
v 0.292124 1.313559 0.002666 0.6361 0.4193 0.2774
v 0.288117 1.288204 0.175046 0.5877 0.3710 0.2402
v 0.246437 1.284220 0.223306 0.5409 0.1918 0.0969
v 0.238775 1.564724 -0.017383 0.5229 0.2137 0.1213
v 0.239309 1.618436 0.010648 0.4588 0.2026 0.1229
v 0.377076 1.085267 -0.035961 0.5098 0.4501 0.3345
v 0.380062 1.112518 -0.035100 0.3610 0.3242 0.2480
f 152 114 148
f 118 114 152
f 84 118 121
f 147 151 148
f 148 151 152
f 118 80 114
f 84 80 118
f 121 118 155
f 118 152 155
f 87 84 121
f 171 167 166
f 171 166 170
f 170 173 174
f 169 173 170
f 166 165 170
f 170 165 169
f 161 165 166
f 162 161 166
f 173 169 172
f 168 172 169
f 163 162 167
f 166 167 162
f 173 177 174
f 178 174 177
f 164 168 165
f 165 168 169
f 175 178 179
f 175 174 178
f 175 170 174
f 171 170 175
f 160 164 161
f 161 164 165
f 162 158 161
f 158 157 161
f 122 88 92
f 122 92 126
f 156 122 126
f 157 156 161
f 161 156 160
f 197 196 152
f 151 196 152
f 154 155 152
f 151 154 152
f 123 157 124
f 124 157 158
f 123 124 89
f 90 89 124
f 89 88 122
f 89 122 123
f 122 156 123
f 123 156 157
f 91 124 125
f 124 158 159
f 125 124 159
f 56 55 89
f 90 56 89
f 55 54 89
f 89 54 88
f 90 124 91
f 56 90 91
f 57 56 91
f 111 109 141
f 111 141 145
f 73 111 77
f 111 73 109
f 48 45 49
f 48 44 45
f 53 49 77
f 49 73 77
f 45 71 73
f 49 45 73
f 41 69 71
f 45 41 71
f 52 48 53
f 53 48 49
f 120 121 154
f 154 121 155
f 86 87 121
f 120 86 121
f 83 82 86
f 82 85 86
f 146 147 150
f 147 150 151
f 119 120 154
f 153 119 154
f 120 119 153
f 154 120 153
f 150 116 151
f 117 116 151
f 150 153 154
f 151 150 154
f 117 86 120
f 117 83 86
f 120 86 85
f 119 85 120
f 151 113 117
f 147 113 151
f 151 120 154
f 117 120 151
f 113 79 117
f 79 83 117
f 9 7 6
f 9 6 8
f 6 7 8
f 8 7 9
f 35 8 39
f 6 8 35
f 35 39 6
f 6 39 8
f 8 39 40
f 9 8 40
f 15 14 55
f 55 14 54
f 16 55 56
f 16 15 55
f 17 16 57
f 16 56 57
f 74 78 112
f 146 113 147
f 112 113 146
f 112 146 147
f 147 113 112
f 112 78 113
f 78 79 113
f 142 110 112
f 110 74 112
f 176 180 177
f 181 177 180
f 172 176 177
f 173 172 177
f 104 135 137
f 107 104 137
f 107 137 139
f 103 104 107
f 106 103 107
f 101 135 104
f 69 101 104
f 69 67 101
f 73 107 109
f 73 71 107
f 71 104 107
f 71 69 104
f 104 106 107
f 106 104 103
f 156 126 160
f 188 140 192
f 140 142 192
f 188 138 140
f 184 138 188
f 136 138 184
f 136 102 138
f 102 105 138
f 68 70 102
f 102 70 105
f 168 130 172
f 130 132 172
f 164 128 168
f 128 130 168
f 160 126 164
f 164 126 128
f 130 96 132
f 96 98 132
f 98 64 100
f 64 66 100
f 98 100 134
f 132 98 134
f 108 72 74
f 108 74 110
f 70 42 72
f 42 46 72
f 138 108 140
f 105 108 138
f 66 34 38
f 66 38 68
f 64 34 66
f 30 34 64
f 72 46 74
f 74 46 50
f 54 14 18
f 54 18 58
f 54 58 88
f 88 58 92
f 140 108 110
f 140 110 142
f 108 70 72
f 105 70 108
f 180 136 184
f 176 134 136
f 176 136 180
f 62 64 96
f 96 64 98
f 60 94 58
f 96 60 62
f 94 60 96
f 58 94 92
f 60 22 26
f 60 26 62
f 58 18 22
f 58 22 60
f 62 26 64
f 64 26 30
f 130 94 96
f 130 128 94
f 172 132 134
f 172 134 176
f 68 42 70
f 38 42 68
f 134 100 102
f 134 102 136
f 126 92 128
f 128 92 94
f 100 68 102
f 100 66 68
f 185 188 189
f 184 188 185
f 190 189 194
f 189 193 194
f 189 188 193
f 188 192 193
f 28 23 24
f 27 23 28
f 19 14 15
f 18 14 19
f 23 18 19
f 22 18 23
f 23 20 24
f 23 19 20
f 40 36 37
f 40 37 41
f 32 33 37
f 36 32 37
f 40 41 45
f 44 40 45
f 37 33 67
f 33 65 67
f 32 29 33
f 32 28 29
f 29 63 65
f 33 29 65
f 20 16 21
f 16 17 21
f 19 16 20
f 15 16 19
f 24 20 25
f 29 24 25
f 24 29 28
f 25 61 63
f 29 25 63
f 25 21 59
f 25 20 21
f 25 59 61
f 41 37 67
f 41 67 69
f 21 17 57
f 21 57 59
f 83 84 87
f 86 83 87
f 83 79 80
f 83 80 84
f 112 113 79
f 78 82 83
f 79 78 83
f 82 78 79
f 83 82 79
f 78 112 79
f 12 10 11
f 12 11 13
f 13 11 44
f 13 44 48
f 12 13 48
f 47 12 48
f 47 48 52
f 51 47 52
f 50 46 51
f 46 47 51
f 43 12 47
f 43 10 12
f 187 186 190
f 191 187 190
f 198 185 189
f 198 189 199
f 177 181 178
f 182 178 181
f 183 179 182
f 179 178 182
f 185 189 190
f 198 185 199
f 185 189 199
f 190 186 185
f 181 180 185
f 185 180 184
f 181 185 186
f 182 181 186
f 187 183 186
f 182 186 183
f 22 23 27
f 22 27 26
f 26 27 31
f 30 26 31
f 27 28 32
f 31 27 32
f 31 32 35
f 35 32 36
f 145 191 195
f 195 191 190
f 195 190 194
f 141 191 145
f 79 75 76
f 79 76 80
f 80 79 114
f 142 112 146
f 78 74 79
f 74 75 79
f 143 147 148
f 143 148 144
f 194 193 144
f 143 144 193
f 194 144 145
f 145 195 194
f 148 145 144
f 148 149 145
f 115 111 145
f 115 149 114
f 114 149 148
f 149 115 145
f 80 76 77
f 80 77 81
f 115 80 81
f 114 80 115
f 77 111 115
f 77 115 81
f 143 192 142
f 142 146 143
f 192 143 193
f 143 146 147
f 74 50 51
f 75 74 51
f 75 51 76
f 51 52 76
f 52 53 77
f 76 52 77
f 127 125 159
f 127 159 163
f 135 179 183
f 137 135 183
f 135 133 179
f 133 175 179
f 133 131 175
f 131 171 175
f 135 101 133
f 101 99 133
f 59 57 91
f 93 59 91
f 91 125 93
f 93 125 127
f 61 95 97
f 97 95 131
f 131 95 129
f 99 65 97
f 61 97 63
f 65 63 97
f 139 187 191
f 141 139 191
f 109 139 141
f 109 107 139
f 61 93 95
f 59 93 61
f 139 137 183
f 139 183 187
f 163 159 158
f 163 158 162
f 95 93 127
f 95 127 129
f 65 99 67
f 67 99 101
f 129 163 167
f 129 127 163
f 129 167 171
f 131 129 171
f 97 131 99
f 131 133 99
f 42 43 47
f 43 44 48
f 47 43 48
f 42 47 46
f 10 8 9
f 10 9 11
f 47 48 44
f 11 10 43
f 11 43 44
f 47 44 43
f 43 40 44
f 39 40 43
f 30 31 35
f 34 30 35
f 38 34 39
f 34 35 39
f 44 40 39
f 44 39 43
f 39 8 10
f 39 8 9
f 40 39 9
f 39 36 40
f 39 10 43
f 42 38 39
f 42 39 43
f 35 36 39
