v -18.252997 0.094913 -13.936345 0.0000 0.1450 0.2549
v -18.245679 0.913692 -12.047947 0.0000 0.1253 0.2468
v -18.245962 0.923833 -11.603955 0.0000 0.0299 0.0758
v -18.788256 0.914900 -7.124431 0.0000 0.0990 0.1947
v -18.787783 0.884017 -4.862632 0.0000 0.1411 0.2655
v -18.787642 0.798940 -2.650069 0.0000 0.1334 0.2253
v -18.790994 0.787727 -0.344156 0.0000 0.0837 0.1431
v -18.788256 0.662817 1.847093 0.0000 0.1739 0.2747
v -18.787736 0.925806 3.390014 0.0000 0.1989 0.3480
v -18.788208 0.885837 5.748137 0.0169 0.1655 0.3366
v -18.787500 0.826487 8.285607 0.0236 0.1576 0.3336
v -18.513120 0.037638 10.207091 0.0053 0.1335 0.2734
v -18.855906 0.000000 13.213543 0.0158 0.0843 0.1630
v -18.180435 0.925652 13.582070 0.0088 0.0789 0.1407
v -18.243932 1.806369 -14.151711 0.0000 0.1440 0.2429
v -18.247095 1.665260 -13.850347 0.0000 0.1577 0.2770
v -18.245774 0.986364 -11.564261 0.0000 0.2114 0.3473
v -18.789388 1.805160 -7.118565 0.0000 0.1543 0.2660
v -18.788350 1.427249 -5.401419 0.0000 0.1098 0.1910
v -18.787594 1.856580 -3.616697 0.0000 0.1315 0.2184
v -18.790899 1.851186 -0.561711 0.0000 0.1776 0.2770
v -18.788492 1.815760 1.929787 0.0000 0.1763 0.2763
v -18.788256 1.824642 3.468494 0.0034 0.1821 0.2971
v -18.789200 1.778803 6.461150 0.0055 0.1407 0.2509
v -18.787689 1.808783 8.688418 0.0099 0.1486 0.2929
v -18.789246 1.117177 10.817171 0.0070 0.1228 0.2278
v -18.908640 0.971832 12.370378 0.0236 0.1052 0.1952
v -18.062837 1.180168 13.578394 0.0091 0.0966 0.1577
v -18.244924 2.642418 -14.128209 0.0001 0.0981 0.1705
v -18.244499 1.870567 -12.839605 0.0003 0.1421 0.2323
v -18.244357 1.872983 -11.573100 0.0000 0.1859 0.2893
v -18.788963 2.111590 -7.121497 0.0000 0.1639 0.2580
v -18.788350 1.888807 -5.736364 0.0000 0.1332 0.2156
v -18.786272 2.719633 -3.213845 0.0000 0.1492 0.2367
v -18.787736 2.657850 -1.520243 0.0023 0.1942 0.2935
v -18.787217 2.376858 1.808143 0.0031 0.1839 0.2797
v -18.786462 2.729944 4.180640 0.0070 0.1412 0.2204
v -18.787358 2.585330 6.347974 0.0057 0.1676 0.2606
v -18.787783 2.030902 8.700190 0.0041 0.1720 0.2685
v -18.787547 2.238778 10.799535 0.0079 0.1133 0.1880
v -18.990311 1.884331 12.904827 0.0241 0.1143 0.1854
v -18.600504 1.874190 13.574511 0.0059 0.1040 0.1601
v -18.243271 3.580815 -14.128208 0.0002 0.1013 0.1668
v -18.242752 3.372479 -13.759185 0.0000 0.1465 0.2320
v -18.786745 2.846653 -9.611178 0.0000 0.1871 0.2862
v -18.787217 3.625020 -7.137689 0.0000 0.0952 0.1644
v -18.787264 3.543261 -6.259991 0.0000 0.1519 0.2397
v -18.786697 3.168992 -4.778079 0.0000 0.2618 0.3847
v -18.787594 3.716460 -0.497026 0.0016 0.2140 0.3198
v -18.786602 3.558405 1.804839 0.0064 0.1010 0.1631
v -18.786320 3.370657 4.073825 0.0052 0.1699 0.2584
v -18.787783 3.604584 6.382505 0.0040 0.1973 0.2974
v -18.786697 3.597761 8.170945 0.0038 0.1831 0.2794
v -18.786933 3.551139 10.868639 0.0036 0.1955 0.2984
v -18.941119 3.597760 12.459515 0.0236 0.0922 0.1466
v -18.540030 2.853168 13.571207 0.0012 0.1979 0.2916
v -17.793792 4.518292 -14.712885 0.0000 0.1012 0.1640
v -18.242280 3.741899 -13.266702 0.0000 0.2008 0.3013
v -18.786887 4.608525 -10.064710 0.0000 0.1609 0.2498
v -18.786981 4.353567 -7.124429 0.0000 0.2144 0.3229
v -18.786745 3.975060 -6.539339 0.0002 0.2225 0.3326
v -18.786981 3.820629 -4.766348 0.0021 0.1483 0.2286
v -18.787452 4.592173 -0.535275 0.0012 0.2181 0.3247
v -18.786462 3.982938 1.937512 0.0019 0.2047 0.3087
v -18.785895 4.288159 4.056931 0.0034 0.1701 0.2584
v -18.787169 3.900566 6.439094 0.0000 0.2583 0.3824
v -18.786272 4.634574 8.664916 0.0025 0.2228 0.3341
v -18.787358 4.636650 10.768846 0.0057 0.1755 0.2669
v -18.936114 4.653955 12.440639 0.0072 0.2106 0.3085
v -17.955294 4.590215 13.574636 0.0039 0.2587 0.3625
v -17.957749 5.526027 -14.551588 0.0000 0.0733 0.1289
v -18.242799 5.535726 -13.078514 0.0000 0.1349 0.2153
v -18.785233 5.535726 -9.376686 0.0000 0.2184 0.3273
v -18.787358 4.814444 -7.138391 0.0000 0.1678 0.2610
v -18.787406 4.694827 -6.655077 0.0010 0.1686 0.2583
v -18.786462 5.463648 -4.738384 0.0016 0.1754 0.2668
v -18.786792 5.356468 -0.330895 0.0022 0.1681 0.2574
v -18.785328 5.538141 1.916199 0.0036 0.1583 0.2428
v -18.785328 5.575541 4.170108 0.0025 0.1873 0.2839
v -18.786272 5.535725 6.459706 0.0029 0.2031 0.3047
v -18.786508 5.471526 8.656077 0.0040 0.1845 0.2796
v -18.787075 4.975834 10.978924 0.0076 0.1190 0.1886
v -18.951978 5.544811 12.428413 0.0075 0.1525 0.2368
v -18.708047 5.099689 13.574058 0.0132 0.2714 0.3757
v -18.240344 6.444142 -14.150016 0.0014 0.0724 0.1242
v -18.242044 6.443988 -13.117465 0.0002 0.1341 0.2108
v -19.957110 6.509837 -9.417868 0.0010 0.1014 0.1673
v -19.982887 6.520081 -7.471394 0.0011 0.1579 0.2420
v -19.956827 6.509922 -5.048587 0.0009 0.1622 0.2495
v -19.983406 6.519876 -4.498771 0.0007 0.1981 0.3004
v -19.956968 6.509888 -0.547005 0.0028 0.1506 0.2342
v -19.981895 6.519944 1.212727 0.0030 0.1453 0.2256
v -19.976088 6.517460 3.025083 0.0015 0.1733 0.2660
v -19.983122 6.519978 4.407367 0.0026 0.1673 0.2579
v -19.983264 6.520845 7.259089 0.0061 0.0997 0.1627
v -19.957298 6.509786 8.735466 0.0048 0.1273 0.2026
v -19.978259 6.518940 11.874591 0.0073 0.0985 0.1616
v -19.957629 6.509700 13.957413 0.0511 0.2107 0.2757
v -18.459631 7.378795 -13.905199 0.0137 0.0887 0.1431
v -18.314793 7.438723 -11.762359 0.0569 0.1337 0.1812
v -18.338634 7.429143 -9.391391 0.0418 0.1295 0.1820
v -18.409731 7.400115 -7.127361 0.0750 0.1409 0.1860
v -18.831169 7.227119 -5.076509 0.1265 0.1844 0.2297
v -19.442151 6.972450 -2.661095 0.1959 0.2439 0.2779
v -19.812603 6.815722 -0.682280 0.2748 0.2906 0.3053
v -19.719316 6.855010 -0.225442 0.1981 0.2919 0.3421
v -19.464576 6.962769 2.110995 0.1427 0.2528 0.3143
v -19.660918 6.878763 4.301129 0.1567 0.2276 0.2810
v -19.528827 6.935595 6.516460 0.1381 0.1995 0.2495
v -19.365672 7.004133 8.846578 0.1054 0.1562 0.1977
v -18.293832 7.447280 12.975338 0.1078 0.1469 0.1804
v -18.388109 7.408043 13.722180 0.0376 0.1430 0.1922
v -18.264137 7.459022 -14.927960 0.3039 0.3225 0.3369
v -17.804792 7.651874 -11.893587 0.3495 0.3586 0.3684
v -17.832078 7.642345 -9.755993 0.3855 0.3822 0.3840
v -18.257340 7.464007 -7.253797 0.3772 0.3818 0.3849
v -18.266452 7.459992 -6.895101 0.3820 0.4030 0.4078
v -18.129922 7.517231 -4.763373 0.3882 0.4017 0.4029
v -17.827829 7.643962 -2.429537 0.3383 0.3565 0.3686
v -17.832834 7.642651 -0.108920 0.3127 0.3393 0.3568
v -18.155368 7.506937 2.218307 0.3290 0.3455 0.3526
v -17.832126 7.642362 4.225086 0.3925 0.4056 0.4024
v -18.035881 7.557216 6.680194 0.3873 0.4042 0.4033
v -17.826130 7.644284 8.962976 0.3940 0.4065 0.4026
v -17.831653 7.642157 11.205320 0.4289 0.4197 0.3981
v -17.884008 7.616362 13.335562 0.3418 0.3356 0.3225
v -15.308837 0.793785 -14.748533 0.0000 0.1787 0.2860
v -17.686438 0.039442 13.251750 0.0900 0.0334 0.0520
v -17.105056 0.920956 13.325192 0.3389 0.0348 0.0465
v -15.239958 1.824541 -14.747995 0.0000 0.1311 0.2221
v -15.233254 0.987571 12.856458 0.0482 0.0242 0.0446
v -16.937038 1.526566 13.325150 0.6346 0.0041 0.0079
v -15.394569 2.628789 -14.747292 0.0000 0.1331 0.2177
v -15.366810 2.668297 12.853898 0.0462 0.0246 0.0466
v -16.127588 2.733789 13.324407 0.3221 0.0285 0.0439
v -15.350852 3.591704 -14.745929 0.0000 0.0773 0.1371
v -15.449143 2.893444 12.854063 0.0402 0.0307 0.0594
v -16.033075 2.803194 13.324407 0.6254 0.0426 0.0337
v -17.686438 4.538881 -14.739362 0.0000 0.1053 0.1792
v -17.632666 4.525557 12.853031 0.0272 0.0430 0.0822
v -17.743656 3.886034 13.416395 0.5096 0.1989 0.1678
v -17.713347 5.496965 -14.738246 0.0000 0.1462 0.2366
v -15.253413 5.511494 12.852081 0.0146 0.0511 0.0983
v -17.727604 4.812316 13.379757 0.3825 0.3545 0.3468
v -17.713347 6.489555 -14.739072 0.0000 0.0800 0.1429
v -17.780384 6.269443 12.840062 0.0064 0.0785 0.1403
v -15.213097 6.327857 13.533332 0.0883 0.2252 0.2726
v -17.484807 7.452744 -14.598633 0.0002 0.0917 0.1598
v -17.776608 7.370236 -13.845926 0.0734 0.2028 0.2804
v -17.576865 7.451518 -11.555461 0.1823 0.2456 0.2879
v -17.577432 7.451756 -8.009479 0.2480 0.2690 0.2979
v -17.577007 7.451739 -5.245778 0.2758 0.2839 0.3124
v -17.577903 7.451790 -3.804841 0.3468 0.3146 0.3155
v -17.578895 7.452045 -2.000994 0.3517 0.3272 0.3269
v -17.578895 7.452181 -0.108920 0.1710 0.2926 0.3525
v -17.577101 7.451637 3.535576 0.0315 0.1883 0.2814
v -17.577148 7.451756 6.006876 0.0007 0.1036 0.1908
v -17.576204 7.451670 6.618442 0.0023 0.0782 0.1577
v -17.576817 7.451943 9.017747 0.0085 0.0557 0.1125
v -17.576252 7.451721 11.681654 0.0058 0.0824 0.1472
v -16.422881 7.299263 13.323789 0.0247 0.0615 0.0863
v -15.205779 7.600947 -15.266623 0.2449 0.2864 0.3137
v -15.383616 7.650292 -11.734809 0.2779 0.3031 0.3208
v -15.241894 7.663427 -10.449881 0.3407 0.3726 0.3861
v -16.584196 7.540151 -7.783043 0.3917 0.3920 0.3850
v -16.650288 7.732186 -4.900093 0.4446 0.4524 0.4369
v -15.203136 7.865807 -2.919832 0.4132 0.4256 0.4216
v -15.379792 7.850035 -0.370548 0.4145 0.4355 0.4320
v -15.399809 7.848128 1.684518 0.3224 0.3671 0.3774
v -15.201106 7.866403 3.177211 0.3107 0.3764 0.3954
v -15.200161 7.866164 4.430870 0.2865 0.3359 0.3592
v -15.928930 7.798579 6.545704 0.2333 0.3144 0.3488
v -16.734604 7.724648 8.729601 0.3211 0.3764 0.3944
v -17.310086 7.670624 11.293507 0.4138 0.4207 0.4183
v -15.258370 7.623678 13.427300 0.3854 0.3761 0.3600
v -13.300932 0.891895 -14.748822 0.0000 0.1701 0.2708
v -15.103855 0.037093 12.993014 0.0299 0.0353 0.0741
v -15.139166 0.206345 13.323705 0.4383 0.0144 0.0464
v -13.155999 1.849826 -14.748408 0.0000 0.1011 0.1731
v -15.065237 0.965775 12.856583 0.0175 0.0399 0.0730
v -14.003264 1.788195 13.323746 0.3982 0.0017 0.0310
v -12.647508 2.792834 -14.747169 0.0000 0.1101 0.1862
v -12.809436 2.275719 12.854972 0.0324 0.0338 0.0633
v -15.115185 2.683287 13.323705 0.4684 0.0025 0.0137
v -12.713460 3.705486 -14.745599 0.0000 0.1261 0.2069
v -12.636366 3.681187 12.853650 0.0290 0.0417 0.0786
v -12.709446 3.262252 13.325523 0.8456 0.0588 0.0007
v -12.714498 4.138799 -14.745971 0.0000 0.0552 0.1096
v -13.689889 4.626696 12.852288 0.0136 0.0643 0.1167
v -14.063362 4.652746 13.325441 0.7954 0.1679 0.0934
v -12.954794 4.678169 -14.745764 0.0002 0.1076 0.1825
v -14.715699 5.572052 12.852537 0.0069 0.0790 0.1399
v -12.678572 5.104640 13.323375 0.6625 0.2032 0.1377
v -12.710296 6.195241 -14.746135 0.0000 0.0918 0.1605
v -14.515249 6.495016 13.215693 0.0233 0.1135 0.1786
v -13.156424 6.459794 13.283888 0.4801 0.2792 0.2661
v -14.003264 7.449460 -15.240519 0.0002 0.0765 0.1347
v -14.454915 6.567688 13.165135 0.1670 0.2326 0.2602
v -13.267318 7.315394 13.280749 0.0863 0.1123 0.1337
v -12.820011 7.884151 -13.916516 0.1368 0.2332 0.2856
v -12.659075 7.900826 -12.316967 0.3501 0.3800 0.3947
v -13.499211 7.823525 -11.528984 0.2899 0.3462 0.3744
v -12.659452 8.101368 -7.456689 0.4098 0.4341 0.4290
v -12.740699 8.093983 -4.985389 0.4329 0.4732 0.4708
v -12.653976 8.102134 -2.986003 0.4514 0.4943 0.4804
v -12.707322 8.097404 -0.533250 0.4549 0.5012 0.4881
v -12.706143 8.097437 1.869896 0.4720 0.4970 0.4853
v -12.689571 8.098714 3.455444 0.4274 0.4523 0.4598
v -12.739708 8.093660 6.030420 0.4430 0.4713 0.4705
v -12.655817 8.101623 7.416008 0.3823 0.4575 0.4737
v -14.393025 7.939773 8.822042 0.3378 0.4274 0.4562
v -14.951180 7.887451 11.046543 0.1772 0.2793 0.3307
v -12.682585 7.784967 13.328581 0.4212 0.4105 0.3921
v -10.071439 0.103319 -14.751837 0.0000 0.0898 0.1545
v -10.582244 0.042266 13.251750 0.0172 0.0352 0.0702
v -10.387316 0.907633 13.321350 0.1426 0.0103 0.0568
v -10.064735 1.776081 -14.748697 0.0000 0.1182 0.1961
v -10.159532 1.504770 12.616640 0.0175 0.0394 0.0728
v -10.320138 1.790628 13.321846 0.1683 0.0034 0.0394
v -10.078143 2.793974 -14.748078 0.0000 0.0977 0.1687
v -10.154150 1.872982 12.569594 0.0233 0.0369 0.0710
v -10.293228 2.706309 13.321889 0.3409 0.0042 0.0215
v -10.061336 3.421228 -14.747045 0.0000 0.1293 0.2103
v -10.157171 2.890415 12.616640 0.0221 0.0453 0.0847
v -10.320138 3.687397 13.321889 0.5196 0.0229 0.0133
v -10.273070 4.637604 -14.748119 0.0021 0.0657 0.1201
v -10.152734 3.855747 12.569594 0.0109 0.0581 0.1068
v -10.293228 4.600662 13.320897 0.8081 0.0914 0.0034
v -10.044530 5.465469 -14.747168 0.0060 0.0564 0.1060
v -10.057985 5.372836 12.687232 0.0038 0.0830 0.1470
v -10.075405 5.575387 13.324285 0.6616 0.0850 0.0225
v -10.232754 6.482903 -14.747540 0.0054 0.0912 0.1561
v -10.105052 6.504698 13.155263 0.1312 0.1933 0.2227
v -10.588947 6.504698 13.439403 0.5395 0.1018 0.0555
v -10.239457 7.318646 -14.747375 0.0023 0.1331 0.2116
v -10.346716 7.303534 13.249936 0.0991 0.1788 0.2218
v -10.064735 7.434927 13.528706 0.1003 0.1315 0.1531
v -10.134464 8.101046 -14.680872 0.0563 0.1574 0.2153
v -10.061148 8.138888 -13.022668 0.2462 0.3308 0.3854
v -10.890048 8.263389 -9.452399 0.2420 0.3451 0.4021
v -10.509164 8.298457 -7.140207 0.2065 0.3540 0.4215
v -10.783874 8.273802 -5.055195 0.3793 0.4531 0.4716
v -10.723399 8.279502 -2.672826 0.4274 0.4812 0.4759
v -11.341510 8.223181 -0.561709 0.3664 0.4437 0.4529
v -10.965347 8.257433 1.915456 0.3374 0.4061 0.4413
v -10.141026 8.332215 4.085392 0.3794 0.4334 0.4579
v -10.633654 8.287703 6.447934 0.3039 0.3945 0.4378
v -10.054727 8.339804 7.715183 0.3923 0.4545 0.4714
v -10.029612 8.341812 8.808412 0.1957 0.3610 0.4263
v -10.151695 8.329798 11.028905 0.2743 0.3454 0.3775
v -10.056332 7.466405 13.534199 0.5105 0.4897 0.4575
v -8.039977 0.678114 -14.749730 0.0007 0.0632 0.1182
v -9.364055 0.872513 12.445429 0.1945 0.0097 0.0219
v -9.285027 0.007691 13.475254 0.2141 0.0070 0.0200
v -7.577892 1.611356 -14.748822 0.0003 0.0724 0.1321
v -9.406024 1.850267 12.444479 0.1204 0.0481 0.0803
v -10.007187 1.099005 13.592396 0.2164 0.0629 0.1046
v -7.651019 2.788359 -14.747913 0.0009 0.0729 0.1307
v -9.567338 2.597292 12.445182 0.0053 0.1585 0.2382
v -9.997509 1.868133 13.590826 0.0595 0.1137 0.1783
v -7.698890 3.707086 -14.746466 0.0012 0.0701 0.1259
v -9.688336 3.568698 12.445554 0.0110 0.0867 0.1373
v -9.486705 3.391245 13.585417 0.0505 0.1176 0.1779
v -7.592197 4.627004 -14.746548 0.0037 0.1071 0.1750
v -7.758940 4.185590 12.976452 0.1659 0.1816 0.1867
v -9.886615 3.972796 13.588102 0.2343 0.0590 0.0524
v -8.400184 5.566762 -14.747663 0.0087 0.0951 0.1559
v -7.623260 5.152811 13.228869 0.0626 0.1023 0.1380
v -8.745708 5.567373 13.324697 0.3492 0.2012 0.1620
v -7.703091 6.486527 -14.746176 0.0088 0.1544 0.2369
v -7.799681 6.514396 13.149852 0.0662 0.1368 0.1787
v -8.512117 6.469816 13.260138 0.5578 0.2052 0.1499
v -7.893817 7.450667 -15.240519 0.0080 0.1565 0.2403
v -7.449341 7.286434 13.165012 0.0789 0.1840 0.2385
v -9.979853 7.444609 13.532217 0.2345 0.2406 0.2266
v -7.510336 8.297045 -14.733372 0.0860 0.2504 0.3258
v -9.523198 8.188215 -12.824196 0.2779 0.3716 0.3963
v -9.964888 8.147821 -11.282019 0.2448 0.3718 0.4117
v -10.001805 8.344280 -7.249419 0.1852 0.3589 0.4235
v -9.614642 8.379008 -5.293362 0.2277 0.3866 0.4390
v -9.932314 8.350915 -2.637551 0.2451 0.4036 0.4515
v -9.613367 8.380114 -0.347086 0.3192 0.4311 0.4627
v -9.551996 8.385405 1.427392 0.2053 0.3693 0.4386
v -9.612660 8.380113 3.466472 0.1448 0.3354 0.4246
v -9.782424 8.364238 6.371479 0.1241 0.3186 0.4155
v -9.614123 8.379007 6.747853 0.1685 0.3314 0.4065
v -9.754381 8.366552 8.733277 0.2019 0.3496 0.4237
v -9.709674 8.369836 11.597102 0.2112 0.3362 0.3991
v -9.625312 7.476104 13.534695 0.2573 0.2575 0.2551
v -8.810196 8.459099 -15.821561 0.3267 0.3801 0.4083
v -7.967463 8.525783 -11.949431 0.3991 0.4245 0.4353
v -9.526030 8.386767 -10.833980 0.4867 0.4947 0.4884
v -7.981201 8.525017 -7.115630 0.5048 0.5049 0.4884
v -7.460152 8.573238 -5.218062 0.4602 0.4794 0.4799
v -7.478328 8.571961 -2.655188 0.4778 0.4890 0.4849
v -7.462230 8.573340 -1.949528 0.4781 0.4902 0.4829
v -8.130383 8.512561 1.881668 0.4229 0.4548 0.4705
v -7.443488 8.575636 2.596169 0.4032 0.4436 0.4626
v -8.947197 8.438884 5.989238 0.3815 0.4281 0.4543
v -9.180600 8.417870 6.807374 0.4825 0.4955 0.4853
v -8.495263 8.479364 8.745008 0.4773 0.4861 0.4776
v -7.543524 8.564611 12.228537 0.5057 0.4985 0.4828
v -8.178488 8.505363 13.369350 0.3969 0.3967 0.3895
v -5.127211 0.822847 -14.748697 0.0003 0.1658 0.2681
v -4.884980 1.779978 -14.748367 0.0005 0.0949 0.1658
v -4.943661 2.682846 -14.747788 0.0003 0.0899 0.1564
v -4.916327 3.454850 -14.746177 0.0019 0.0752 0.1306
v -5.339795 4.600664 -14.746260 0.0027 0.1358 0.2146
v -5.133112 4.043495 13.018418 0.3043 0.3399 0.3354
v -6.720524 5.537240 -14.747126 0.0057 0.1173 0.1870
v -5.990055 5.153151 13.232917 0.1939 0.2282 0.2435
v -4.985253 5.453353 13.324326 0.4935 0.2210 0.1810
v -5.299431 6.521204 -14.745557 0.0063 0.1589 0.2435
v -7.198141 6.514396 13.150306 0.1900 0.2367 0.2516
v -6.448741 6.503489 13.440643 0.4876 0.2610 0.2081
v -4.878560 7.386469 -15.241387 0.0062 0.2002 0.2950
v -6.731052 7.295044 13.202806 0.1703 0.2589 0.2926
v -6.324438 7.444609 13.527384 0.2175 0.2295 0.2270
v -6.744507 8.306999 -14.744193 0.0075 0.2164 0.3127
v -7.436453 8.374193 -13.350096 0.0559 0.2793 0.3473
v -7.417758 8.376626 -10.582224 0.0550 0.2887 0.3793
v -7.373523 8.380863 -8.515180 0.0115 0.2759 0.3919
v -7.362759 8.381833 -5.467587 0.0103 0.2855 0.3950
v -7.379519 8.380573 -2.896288 0.0287 0.3098 0.4187
v -7.436312 8.374515 -0.335314 0.0296 0.3294 0.4365
v -7.355631 8.382411 1.508227 0.0092 0.3142 0.4304
v -7.354450 8.382887 2.150690 0.0000 0.2678 0.3961
v -7.343592 8.383244 5.248303 0.0000 0.2575 0.3882
v -7.435084 8.374413 8.596887 0.0000 0.2511 0.3832
v -7.376262 8.379671 8.754839 0.0000 0.2403 0.3722
v -7.378528 8.376080 12.596072 0.0000 0.2243 0.3430
v -5.212093 7.610355 13.510490 0.1497 0.1739 0.1742
v -4.965567 8.592500 -14.117922 0.0191 0.2020 0.2926
v -4.881723 8.601059 -13.862489 0.2618 0.3618 0.4035
v -7.277028 8.389286 -10.702753 0.2785 0.3722 0.4212
v -5.735928 8.728469 -7.294978 0.0976 0.2942 0.3902
v -6.344597 8.673833 -5.239706 0.0571 0.2880 0.3950
v -7.208810 8.596515 -2.689017 0.1533 0.3314 0.4150
v -5.269075 8.772045 -0.399255 0.1741 0.3603 0.4355
v -4.892628 8.805855 1.914011 0.2344 0.3985 0.4579
v -5.399751 8.759999 4.120708 0.1894 0.3615 0.4347
v -6.379626 8.670191 6.412288 0.2127 0.3632 0.4329
v -7.345623 8.582749 8.203288 0.3203 0.4238 0.4433
v -6.378540 8.670089 9.147116 0.3322 0.3838 0.4138
v -5.628479 8.738167 11.040636 0.2168 0.3335 0.3953
v -6.990751 8.612662 13.363485 0.2085 0.2222 0.2236
v -2.994107 0.724141 -14.749648 0.0000 0.1500 0.2486
v -2.404746 1.409468 -14.749606 0.0000 0.1816 0.2894
v -3.296577 2.689346 -14.748078 0.0000 0.1472 0.2390
v -2.431231 2.827426 -14.748449 0.0004 0.1024 0.1728
v -2.442986 3.941761 -14.746548 0.0031 0.0794 0.1350
v -2.463144 4.076011 12.979591 0.2425 0.2853 0.2939
v -2.483303 5.574487 -14.747540 0.0038 0.1299 0.2060
v -2.792476 5.152028 13.221641 0.2054 0.2782 0.3089
v -3.220948 5.528459 13.324946 0.2512 0.2674 0.2818
v -2.427879 5.804619 -14.747705 0.0036 0.1616 0.2513
v -2.754803 6.514396 13.242500 0.0748 0.1591 0.2120
v -2.728177 6.519229 13.266003 0.4833 0.1939 0.1885
v -3.545228 7.442194 -15.241634 0.0021 0.1834 0.2802
v -2.739791 7.022492 13.252786 0.1680 0.2849 0.3293
v -2.352486 7.439640 13.526393 0.1771 0.1914 0.1961
v -2.527821 8.159987 -14.745845 0.0025 0.1993 0.2937
v -2.328739 8.248261 12.852785 0.0000 0.2002 0.3083
v -3.587244 7.612057 13.503840 0.3489 0.3977 0.3841
v -2.333838 8.826784 -14.422135 0.0000 0.1842 0.2817
v -2.308581 8.831106 -13.845926 0.1758 0.2979 0.3664
v -2.631162 8.803678 -11.540756 0.2272 0.3348 0.3955
v -2.362305 8.827073 -7.259703 0.2056 0.3301 0.3984
v -2.339645 8.829251 -5.442597 0.0613 0.2648 0.3760
v -2.305229 8.832399 -4.738383 0.0770 0.2770 0.3806
v -4.748168 8.613854 -2.186951 0.2476 0.3603 0.4178
v -4.582085 8.833386 1.938257 0.1542 0.3361 0.4114
v -4.736507 8.819739 3.429711 0.0953 0.3601 0.4332
v -4.305628 8.857428 4.542601 0.1646 0.3724 0.4244
v -4.121842 8.873728 6.747853 0.2537 0.3767 0.4168
v -3.841136 8.898384 9.484498 0.1657 0.3178 0.3952
v -4.829415 8.810330 11.240596 0.1627 0.3007 0.3766
v -4.228724 8.861341 13.292893 0.4043 0.4260 0.4097
v -0.263664 0.746550 -14.749606 0.0000 0.1321 0.2232
v -1.602850 0.964568 -14.749606 0.0000 0.1896 0.2989
v 0.204275 2.341127 -14.747789 0.0000 0.1395 0.2285
v 0.226982 3.416089 -14.746301 0.0000 0.0807 0.1437
v 0.225283 4.590965 -14.746218 0.0041 0.0311 0.0686
v -0.184683 4.056154 13.002681 0.3282 0.3882 0.3937
v -1.575940 5.579336 -14.747498 0.0142 0.0409 0.0747
v 0.184966 5.153627 13.235973 0.1625 0.2403 0.2791
v -2.034059 5.571899 13.325111 0.0336 0.4327 0.5406
v 0.213528 6.504699 -14.745267 0.0021 0.1200 0.1940
v -0.239304 6.514396 13.149976 0.1201 0.1867 0.2221
v -2.031227 6.485317 13.269762 0.1055 0.3727 0.4381
v 0.245441 7.449460 -15.240559 0.0002 0.2019 0.3111
v -0.532521 7.182981 13.147292 0.1542 0.2434 0.2801
v -2.144104 7.375544 13.406153 0.2873 0.2791 0.2464
v -1.790412 8.377103 -14.746424 0.0000 0.2017 0.3084
v -1.811184 8.384520 12.854107 0.0000 0.1435 0.2376
v -1.905272 7.454307 13.532382 0.4461 0.4706 0.4452
v -0.359074 8.999847 -14.028372 0.0095 0.1658 0.2547
v -0.372859 8.999422 -11.928861 0.1314 0.2565 0.3285
v -0.372859 8.999643 -9.550168 0.1881 0.3008 0.3634
v -0.372859 8.999643 -7.565487 0.2812 0.3622 0.4013
v -0.374181 8.999796 -7.013152 0.2039 0.2531 0.3028
v -0.391176 9.000000 -3.872499 0.1166 0.1664 0.2254
v -0.373378 8.999932 -2.368033 0.0777 0.2392 0.3295
v 0.252192 8.957734 -0.113339 0.2413 0.3441 0.3922
v 0.164808 8.957870 1.955151 0.0343 0.2972 0.3811
v 0.245441 8.957938 4.489689 0.2076 0.3540 0.3953
v 0.299212 8.958277 6.994817 0.1273 0.3215 0.3908
v 0.299212 8.958312 8.759011 0.0000 0.2423 0.3678
v -2.174129 8.842284 12.475502 0.0912 0.2402 0.3285
v -2.008377 8.835954 13.957414 0.4028 0.4025 0.4003
v 0.466853 0.389228 -14.751053 0.0000 0.1630 0.2659
v 0.685715 1.000300 -14.748615 0.0000 0.1390 0.2301
v 2.797811 2.597293 -14.748120 0.0000 0.1785 0.2819
v 2.675161 3.606253 -14.746466 0.0000 0.0963 0.1656
v 2.695319 4.292397 -14.746136 0.0094 0.0804 0.1328
v 0.648703 4.056631 13.003177 0.3309 0.3864 0.3857
v 2.066870 5.587810 -14.746218 0.0100 0.1121 0.1775
v 2.749091 5.155278 13.243161 0.1398 0.1653 0.1958
v 0.848681 5.479999 13.324408 0.0647 0.4052 0.5040
v 1.495590 6.473204 -14.745516 0.0034 0.1499 0.2381
v 0.605034 6.514396 13.150762 0.1499 0.1847 0.2117
v 1.628862 6.485317 13.262781 0.0288 0.4170 0.5298
v 2.221480 7.444610 -15.240394 0.0000 0.1577 0.2481
v 0.437016 7.229007 13.146713 0.2125 0.2532 0.2622
v 0.551263 7.353832 13.364228 0.0694 0.0891 0.1004
v 0.487436 8.374822 -14.744977 0.0009 0.1687 0.2637
v 1.329224 7.605795 12.671412 0.0008 0.1288 0.2180
v 0.697470 7.531813 13.536594 0.4945 0.3910 0.3709
v 0.326122 8.957854 -14.232585 0.1101 0.2326 0.2959
v 0.343542 8.960083 -11.753932 0.1065 0.2453 0.3191
v 0.326122 8.958687 -9.524435 0.1877 0.2847 0.3336
v 0.326122 8.958483 -7.871270 0.1847 0.2841 0.3280
v 2.762923 8.798862 -4.983902 0.1839 0.2109 0.2536
v 2.181116 8.851320 -2.766919 0.2493 0.2667 0.2930
v 1.966078 8.870037 -1.473194 0.1131 0.1818 0.2277
v 2.302113 8.839392 -0.197106 0.0452 0.1851 0.2685
v 1.088363 8.948903 1.990467 0.1148 0.2428 0.3117
v 0.637797 8.990369 4.266227 0.1843 0.2504 0.2917
v 0.621841 8.992105 7.049217 0.1592 0.2765 0.3310
v 0.675612 8.987051 8.759011 0.0915 0.2535 0.3329
v 0.810017 8.974323 11.217052 0.1106 0.2065 0.2717
v 2.903465 8.770837 13.995704 0.3523 0.3131 0.3217
v 2.972202 0.181011 -14.751549 0.0000 0.1661 0.2693
v 3.011197 1.616817 -14.749565 0.0000 0.1930 0.3055
v 5.351408 2.598808 -14.748614 0.0000 0.1096 0.1869
v 5.353485 3.173842 -14.747953 0.0002 0.0930 0.1588
v 5.420711 4.634575 -14.747334 0.0029 0.1576 0.2469
v 4.747885 4.596256 12.650305 0.2762 0.3117 0.3086
v 5.245942 5.584168 -14.748119 0.0076 0.1496 0.2324
v 3.243089 5.153934 13.234239 0.5117 0.2051 0.2106
v 3.108637 5.453353 13.324285 0.2804 0.2410 0.2949
v 5.262749 6.095310 -14.748406 0.0047 0.1283 0.2043
v 3.080075 6.514396 13.150431 0.2844 0.1704 0.1799
v 4.977133 6.446556 13.438660 0.2923 0.3117 0.3458
v 5.447573 7.449460 -15.240559 0.0004 0.1859 0.2896
v 3.333825 7.072619 13.146383 0.1180 0.1813 0.2142
v 3.006145 7.444609 13.530977 0.1869 0.2174 0.2196
v 3.135546 7.541513 -15.239899 0.0003 0.1777 0.2751
v 5.015750 8.378003 12.852743 0.0004 0.1400 0.2292
v 3.273727 7.536662 13.537504 0.2981 0.1207 0.1467
v 5.353485 8.565258 -14.375171 0.0418 0.1955 0.2788
v 5.488976 8.554640 -12.143525 0.1733 0.2681 0.3172
v 5.127164 8.587685 -9.542361 0.1436 0.2671 0.3335
v 3.531915 8.731140 -7.297167 0.1081 0.2767 0.3578
v 3.252436 8.755302 -5.061845 0.2667 0.3809 0.4056
v 2.969039 8.780638 -3.272662 0.3188 0.3991 0.3916
v 2.992832 8.778120 -1.997318 0.3554 0.4066 0.3956
v 2.953885 8.780876 -0.314744 0.2583 0.3352 0.3475
v 3.205510 8.759573 3.046025 0.1693 0.3004 0.3460
v 3.713529 8.715247 4.372092 0.1859 0.3042 0.3550
v 2.928864 8.784398 8.009938 0.2427 0.3375 0.3693
v 2.922821 8.784295 9.385283 0.1946 0.3149 0.3566
v 3.270518 8.754264 10.993589 0.1134 0.2417 0.3051
v 3.420076 8.722717 13.994796 0.3942 0.2364 0.2467
v 5.797111 0.080382 -14.754398 0.0000 0.2132 0.3331
v 8.058766 1.799852 -14.749606 0.0010 0.1875 0.2962
v 8.041960 2.619090 -14.748120 0.0016 0.1680 0.2666
v 7.983137 3.066032 -14.748202 0.0007 0.1014 0.1716
v 7.800201 4.532943 -14.746920 0.0019 0.0972 0.1630
v 5.985287 4.372946 12.642208 0.4505 0.3353 0.3206
v 7.710928 4.952814 -14.746466 0.0109 0.0869 0.1391
v 7.410158 4.776006 12.652700 0.4905 0.0832 0.0799
v 6.304138 5.438822 13.322384 0.5484 0.0465 0.0448
v 6.859037 6.486527 -15.241592 0.0069 0.1161 0.1847
v 7.416436 6.482356 13.206152 0.4612 0.1013 0.1005
v 7.077474 6.469510 13.258940 0.6626 0.0399 0.0285
v 7.719331 7.430079 -15.241923 0.0001 0.1780 0.2760
v 5.514799 7.293768 13.194462 0.2164 0.2564 0.2567
v 6.354935 7.444609 13.530730 0.1025 0.1366 0.1554
v 7.887065 8.339295 -13.948197 0.0000 0.1957 0.3007
v 8.055272 8.325121 -11.723037 0.0000 0.2128 0.3257
v 7.443346 8.380455 -11.075451 0.0002 0.2498 0.3771
v 7.524735 8.373393 -8.150578 0.0654 0.3173 0.4253
v 7.460577 8.379229 -6.891796 0.2674 0.4193 0.4573
v 7.894903 8.340213 -4.772955 0.3664 0.4459 0.4468
v 7.962317 8.333917 -2.031849 0.4100 0.4669 0.4548
v 7.600459 8.365803 -0.229820 0.3704 0.4617 0.4524
v 7.394107 8.385320 2.043379 0.2866 0.4231 0.4272
v 7.813420 8.347444 4.383823 0.2686 0.4149 0.4316
v 7.487203 8.376744 6.555246 0.2119 0.4006 0.4503
v 7.769704 8.351493 9.000110 0.0720 0.3268 0.4140
v 7.963828 8.091396 12.851835 0.0117 0.2106 0.3048
v 5.837428 7.472463 13.533043 0.0585 0.0745 0.1384
v 7.334906 8.388401 -14.092931 0.0172 0.1819 0.2776
v 7.350296 8.388145 -11.756866 0.0931 0.2438 0.3304
v 5.516027 8.552820 -9.376768 0.1604 0.3013 0.3721
v 5.614789 8.543768 -9.131166 0.2937 0.4105 0.4300
v 5.564511 8.548157 -7.071516 0.4112 0.4534 0.4359
v 5.928353 8.515046 -4.748668 0.4173 0.4514 0.4281
v 5.501722 8.553738 -2.245026 0.4493 0.4597 0.4257
v 5.514799 8.552547 0.079268 0.3776 0.4276 0.4122
v 5.502572 8.553466 2.790221 0.3965 0.4244 0.4004
v 5.507671 8.553313 5.255656 0.3081 0.4051 0.4174
v 7.359077 8.388281 8.629601 0.3539 0.4247 0.4267
v 7.340241 8.389114 9.464671 0.1975 0.3517 0.3994
v 5.842479 8.400259 12.852082 0.1789 0.3267 0.3794
v 5.567768 8.543120 14.033994 0.1959 0.2041 0.2526
v 8.082276 0.080382 -14.754935 0.0000 0.2125 0.3314
v 9.555867 0.905812 12.855178 0.5911 0.0597 0.0167
v 9.111108 0.051301 13.472445 0.3810 0.0590 0.0247
v 10.296013 1.859967 -14.749028 0.0008 0.1600 0.2563
v 9.898653 1.823706 12.855261 0.5777 0.0317 0.0162
v 10.601222 1.307034 13.323209 0.4176 0.0515 0.0224
v 10.385523 2.686624 -14.748656 0.0024 0.0910 0.1573
v 9.305516 2.466478 12.854724 0.5236 0.0198 0.0094
v 10.411960 2.601682 13.323127 0.3730 0.0169 0.0172
v 10.058268 3.614726 -14.746548 0.0008 0.0483 0.0985
v 9.567622 3.282840 12.853857 0.5967 0.0217 0.0099
v 10.658958 3.401846 13.323788 0.3803 0.0159 0.0103
v 10.409882 3.982938 -14.747004 0.0058 0.0649 0.1104
v 10.017951 3.762486 12.853981 0.2432 0.0223 0.0172
v 10.488439 3.946592 13.324367 0.6692 0.0407 0.0069
v 10.451474 4.949496 -14.746590 0.0070 0.0886 0.1432
v 10.643002 4.984614 12.852742 0.4518 0.0144 0.0066
v 8.320919 4.852592 13.416395 0.5319 0.0278 0.0077
v 9.416410 6.510756 -15.242336 0.0050 0.1170 0.1856
v 10.012758 6.485317 13.247581 0.6976 0.2435 0.1778
v 9.910078 6.441605 13.333867 0.7056 0.0504 0.0287
v 10.594282 6.702128 -15.240312 0.0015 0.1434 0.2267
v 9.291542 7.302378 13.250390 0.3179 0.3348 0.3047
v 8.525855 7.444609 13.530358 0.1457 0.2048 0.2425
v 8.124434 8.318400 -13.959143 0.0543 0.1859 0.2600
v 8.509945 8.284164 -11.703912 0.1221 0.2835 0.3552
v 8.081993 8.323232 -9.823610 0.2558 0.4088 0.4421
v 8.294482 8.304072 -7.628684 0.4389 0.4580 0.4353
v 8.479920 8.287448 -6.968418 0.5581 0.5817 0.5473
v 8.083362 8.323368 -4.564900 0.5826 0.5664 0.5134
v 8.498993 8.285508 -2.508183 0.5466 0.5464 0.5032
v 8.075053 8.323776 0.052791 0.5216 0.5193 0.4716
v 8.086005 8.323214 2.419010 0.4977 0.4870 0.4398
v 8.414771 8.293352 4.338263 0.3705 0.4368 0.4270
v 8.377098 8.296959 6.831620 0.2456 0.3876 0.4156
v 8.300478 8.303884 8.908949 0.2178 0.3501 0.3901
v 9.673465 8.055068 12.847870 0.2125 0.2914 0.3288
v 8.391450 7.497901 13.533208 0.1031 0.2324 0.3157
v 8.709829 8.385730 -15.966006 0.0987 0.2288 0.3140
v 9.416175 8.403731 -11.707960 0.2053 0.2922 0.3433
v 8.330030 8.502012 -9.501676 0.3161 0.3589 0.3756
v 8.163995 8.517053 -9.196594 0.4970 0.4737 0.4359
v 9.509743 8.396057 -6.147515 0.5154 0.4873 0.4425
v 9.617381 8.385967 -2.685878 0.5284 0.4939 0.4447
v 9.547463 8.391854 -2.243581 0.5579 0.5059 0.4427
v 8.963343 8.445095 -0.214744 0.5449 0.4947 0.4357
v 9.478066 8.398865 1.943420 0.5377 0.4867 0.4258
v 8.191471 8.515488 4.407367 0.4996 0.4442 0.3875
v 8.982887 8.443223 6.493494 0.4977 0.4308 0.3740
v 8.669276 8.471639 8.759713 0.4267 0.3911 0.3650
v 8.277297 8.504512 13.219411 0.3907 0.3739 0.3640
v 9.466830 8.402114 14.024825 0.1701 0.2858 0.3583
v 12.796926 0.912484 -14.748203 0.0003 0.1796 0.2848
v 11.839379 0.919748 12.857615 0.5547 0.1066 0.0607
v 11.027380 0.914745 13.323912 0.6007 0.2960 0.0924
v 13.244706 1.182892 -14.747831 0.0008 0.0981 0.1686
v 11.236989 1.818176 12.854187 0.8238 0.0526 0.0054
v 10.749695 1.849977 13.323044 0.7092 0.2978 0.0693
v 12.909708 2.792613 -14.747087 0.0005 0.0852 0.1513
v 10.817771 2.459212 12.854724 0.8320 0.0445 0.0023
v 10.753896 2.686316 13.323499 0.6246 0.1088 0.0129
v 10.716932 3.660753 -14.746260 0.0000 0.1160 0.1947
v 10.686717 2.800778 12.853816 0.8722 0.0489 0.0072
v 11.243693 3.637287 13.325028 0.7653 0.0500 0.0035
v 13.213831 4.506178 -14.746011 0.0003 0.1634 0.2599
v 10.882448 4.035021 12.852081 0.8434 0.0464 0.0136
v 13.105250 4.460235 13.326267 0.7720 0.0543 0.0051
v 13.203727 4.857443 -15.240520 0.0019 0.1087 0.1771
v 10.730386 4.901647 12.852453 0.8216 0.0460 0.0139
v 11.489040 5.571763 13.323996 0.8081 0.0515 0.0029
v 10.727034 6.255186 -15.240560 0.0005 0.1810 0.2839
v 11.913309 6.514396 13.149605 0.7359 0.1468 0.0987
v 11.767102 6.469169 13.258072 0.8038 0.0945 0.0352
v 11.089979 6.527721 -15.240560 0.0006 0.1393 0.2230
v 11.466332 7.078813 13.148035 0.2572 0.3074 0.3081
v 13.082778 7.312808 13.268028 0.1232 0.2178 0.2847
v 10.663160 8.016309 -14.736262 0.0608 0.1795 0.2431
v 11.551403 8.011238 -11.842120 0.2573 0.3277 0.3423
v 11.549892 8.011425 -11.528984 0.3834 0.4319 0.4352
v 13.135179 7.866233 -7.183784 0.4447 0.4749 0.4566
v 13.232573 7.856603 -5.072130 0.5923 0.5734 0.5235
v 13.234272 7.856619 -3.385880 0.6277 0.6154 0.5635
v 13.235358 7.856245 -1.790750 0.6094 0.5824 0.5196
v 12.397959 7.933171 -0.182402 0.5204 0.5296 0.4940
v 10.775565 8.082191 4.033223 0.4771 0.4910 0.4606
v 10.939335 8.067593 4.316206 0.2639 0.3947 0.4237
v 10.785716 8.081562 7.981644 0.1777 0.3544 0.4106
v 10.667976 8.092009 9.025099 0.1679 0.3155 0.3812
v 10.737090 7.972697 12.851050 0.0720 0.2509 0.3405
v 10.920262 7.622708 13.439940 0.2468 0.2895 0.3264
v 14.131248 0.927015 -14.747789 0.0002 0.1015 0.1744
v 13.855688 0.038012 13.204704 0.6830 0.0677 0.0391
v 14.531159 0.429212 13.322630 0.5151 0.3313 0.2058
v 15.798114 1.831807 -15.239942 0.0002 0.1670 0.2680
v 14.470684 1.822106 12.854393 0.7458 0.0302 0.0132
v 15.801465 1.768219 13.324820 0.6215 0.4014 0.2632
v 15.798114 2.316285 -15.239529 0.0000 0.0588 0.1140
v 15.668713 2.787455 12.852866 0.8225 0.0411 0.0015
v 14.169678 2.719326 13.323416 0.5322 0.3022 0.2670
v 15.809632 3.714045 -15.241139 0.0000 0.1144 0.1921
v 15.606963 3.079813 12.852990 0.8289 0.0375 0.0087
v 14.255598 3.337357 13.323416 0.5059 0.2324 0.2308
v 14.986539 4.655624 -15.240891 0.0000 0.1086 0.1834
v 13.850637 4.467126 12.851172 0.8346 0.0414 0.0126
v 14.729437 3.815778 13.325358 0.4845 0.1740 0.2013
v 15.795139 5.012248 -15.240065 0.0000 0.1832 0.2871
v 13.254147 4.845326 12.852081 0.6899 0.0347 0.0167
v 14.937772 4.673335 13.326102 0.7132 0.0697 0.0311
v 13.806968 5.698631 -15.240477 0.0000 0.1492 0.2390
v 13.580128 6.514396 13.150348 0.6144 0.0582 0.0407
v 14.272404 6.461683 13.277320 0.5702 0.0637 0.0502
v 15.782110 6.579039 -15.239321 0.0003 0.1511 0.2382
v 13.280206 6.579803 13.148985 0.2975 0.1531 0.1914
v 13.438972 7.314696 13.271951 0.3269 0.0419 0.0817
v 15.634581 7.635726 -13.989998 0.0057 0.1073 0.1759
v 15.502348 7.648250 -13.775377 0.2965 0.3356 0.3411
v 15.289859 7.667648 -11.426093 0.3374 0.3873 0.4025
v 15.679666 7.633055 -7.134713 0.4075 0.4623 0.4775
v 15.822710 7.619970 -6.030662 0.6114 0.5845 0.5320
v 15.813835 7.620769 -3.108019 0.6451 0.6237 0.5670
v 15.528454 7.645969 -0.514662 0.6769 0.6746 0.6185
v 15.659413 7.633820 -0.252993 0.4710 0.5246 0.5188
v 15.326965 7.664975 1.998521 0.4161 0.4633 0.4595
v 13.250607 7.855751 5.818689 0.3666 0.4244 0.4240
v 13.478722 7.835009 6.524391 0.2058 0.3417 0.3960
v 13.302443 7.849915 8.831749 0.2665 0.3506 0.3825
v 13.524704 7.672325 12.854561 0.1255 0.2651 0.3414
v 13.781759 7.622164 13.439940 0.1631 0.1613 0.1825
v 17.706880 0.899161 -14.742419 0.0008 0.0874 0.1498
v 18.371351 0.921349 -12.095530 0.0042 0.0411 0.0762
v 18.372105 0.917027 -11.496810 0.0145 0.0522 0.0888
v 18.407466 0.056611 -7.447852 0.0019 0.0593 0.1034
v 18.407748 0.056662 -5.179444 0.0006 0.0532 0.1002
v 18.407087 0.056475 -2.896291 0.0013 0.0489 0.0937
v 18.406851 0.056407 -2.530242 0.0007 0.0500 0.0911
v 18.407087 0.056475 0.842258 0.0007 0.0477 0.0907
v 18.408362 0.056832 4.121408 0.0006 0.0451 0.0916
v 18.408835 0.056985 4.988820 0.0054 0.0476 0.0897
v 18.393161 0.061511 6.583166 0.0015 0.0502 0.0977
v 18.408787 0.057019 10.805441 0.0023 0.0514 0.1006
v 15.956029 0.037281 13.057698 0.2773 0.0403 0.0666
v 15.959381 0.099744 13.326719 0.5881 0.5490 0.4454
v 15.919065 1.839072 -15.240561 0.0000 0.0782 0.1370
v 18.370972 1.763149 -12.639688 0.0000 0.0394 0.0808
v 18.371491 1.374417 -11.605814 0.0000 0.0542 0.0976
v 18.371067 1.781543 -9.283544 0.0000 0.0599 0.1070
v 18.370784 1.776013 -5.035825 0.0000 0.0585 0.1075
v 18.370642 1.834222 -3.622562 0.0000 0.0497 0.0980
v 18.370972 1.746406 -2.389101 0.0000 0.0503 0.0957
v 18.370736 1.411578 -0.146386 0.0000 0.0481 0.0963
v 18.370784 1.349727 1.984558 0.0000 0.0481 0.0981
v 18.371964 1.770023 5.061559 0.0000 0.0509 0.0999
v 18.373191 1.766398 7.614850 0.0000 0.0510 0.1022
v 18.371634 1.768065 10.893257 0.0012 0.0557 0.1065
v 16.826427 1.842695 12.853320 0.3034 0.0362 0.0669
v 18.365543 1.753075 13.576287 0.5860 0.5667 0.4619
v 15.995543 2.745514 -15.241057 0.0000 0.1127 0.1881
v 18.369886 2.757476 -13.786407 0.0000 0.0395 0.0840
v 18.371916 2.259674 -11.565004 0.0000 0.0420 0.0876
v 18.370972 2.588513 -9.123114 0.0000 0.0461 0.0929
v 18.370405 1.919469 -4.924011 0.0000 0.0460 0.0930
v 18.370736 2.358465 -2.584434 0.0000 0.0493 0.0990
v 18.371586 2.789277 -1.890711 0.0000 0.0528 0.1003
v 18.371964 2.730523 1.796371 0.0000 0.0522 0.1004
v 18.371728 2.737805 3.407652 0.0000 0.0510 0.1028
v 18.372341 2.657850 5.148301 0.0000 0.0536 0.1074
v 18.373145 2.684496 8.676646 0.0000 0.0551 0.1095
v 18.371209 1.988959 10.924524 0.0008 0.0621 0.1156
v 15.851886 2.676022 12.853278 0.2561 0.0392 0.0714
v 18.392452 2.778982 13.579261 0.5033 0.5435 0.5054
v 17.747196 3.680133 -15.237670 0.0000 0.1136 0.1895
v 18.369980 2.837125 -13.575419 0.0000 0.0388 0.0850
v 18.372153 2.810478 -11.576032 0.0000 0.0406 0.0871
v 18.371303 2.900404 -9.126790 0.0000 0.0402 0.0891
v 18.370453 3.034468 -4.972132 0.0018 0.0433 0.0883
v 18.370501 2.832275 -4.013599 0.0020 0.0520 0.0962
v 18.370830 3.607460 -0.520570 0.0022 0.0527 0.0980
v 18.370595 3.571115 0.361547 0.0000 0.0538 0.1020
v 18.371114 3.633153 2.878985 0.0000 0.0511 0.1027
v 18.371916 3.478381 6.430089 0.0000 0.0516 0.1052
v 18.372530 3.535382 8.694284 0.0000 0.0559 0.1122
v 18.372058 2.805475 10.091685 0.0007 0.0687 0.1196
v 15.865292 2.795929 12.853031 0.0441 0.0651 0.1134
v 18.392452 3.646220 13.575090 0.2820 0.3948 0.4203
v 16.725587 4.605496 -15.240065 0.0000 0.1374 0.2232
v 18.368517 4.065293 -13.781242 0.0000 0.0397 0.0852
v 18.371303 3.770978 -11.602509 0.0000 0.0414 0.0881
v 18.369651 4.108903 -9.259090 0.0000 0.0416 0.0893
v 18.369934 4.631784 -5.579815 0.0022 0.0431 0.0889
v 18.370217 3.858181 -2.762543 0.0082 0.0491 0.0879
v 18.370170 4.593959 -0.465716 0.0116 0.0505 0.0900
v 18.370311 4.579394 0.077408 0.0005 0.0489 0.0962
v 18.370642 4.540548 3.698029 0.0000 0.0502 0.0978
v 18.371680 3.773393 6.436161 0.0000 0.0582 0.1041
v 18.372341 3.790953 8.682553 0.0000 0.0627 0.1110
v 18.372153 3.748568 8.796473 0.0013 0.0789 0.1319
v 17.713630 3.784300 12.850635 0.2746 0.0493 0.0846
v 18.392452 3.777017 13.574553 0.2898 0.3853 0.4703
v 15.948475 4.855010 -15.240767 0.0000 0.1403 0.2220
v 18.368848 4.689076 -13.225520 0.0000 0.0406 0.0836
v 18.369320 5.482587 -10.647652 0.0000 0.0427 0.0876
v 18.370265 5.286927 -9.167929 0.0000 0.0435 0.0899
v 18.370076 5.577124 -4.903522 0.0030 0.0454 0.0879
v 18.369934 5.341325 -2.689762 0.0135 0.0500 0.0862
v 18.370784 5.489699 -0.996862 0.0241 0.0889 0.1212
v 18.370122 5.506646 -0.297108 0.0143 0.0906 0.1292
v 18.370689 5.569943 3.466100 0.0037 0.0601 0.1024
v 18.371491 4.731477 6.053922 0.0018 0.0732 0.1207
v 18.370736 4.763874 7.382220 0.0000 0.0825 0.1367
v 18.370028 5.477583 8.994202 0.0025 0.0868 0.1424
v 17.371693 4.680294 12.851132 0.1894 0.0680 0.1061
v 15.945974 4.857441 13.325318 0.2210 0.2836 0.3740
v 16.453001 5.613469 -15.240106 0.0001 0.1027 0.1704
v 18.368801 5.860327 -13.781242 0.0000 0.0415 0.0840
v 18.369886 6.456256 -11.540757 0.0000 0.0442 0.0878
v 18.369886 5.610287 -9.167392 0.0000 0.0452 0.0848
v 18.369840 6.088043 -7.095020 0.0060 0.0463 0.0820
v 18.369651 5.645950 -2.669357 0.0209 0.0616 0.0898
v 18.369131 6.223690 -0.426476 0.0480 0.1518 0.1729
v 18.370170 6.185082 1.869152 0.0647 0.2359 0.2556
v 18.370830 5.949963 4.019261 0.0301 0.1649 0.2081
v 18.371728 5.678534 6.092295 0.0099 0.1542 0.2263
v 18.371067 5.667440 8.248848 0.0003 0.1281 0.2065
v 18.371776 5.786446 8.776647 0.0082 0.0927 0.1539
v 17.291863 5.616871 12.852742 0.3273 0.0653 0.0846
v 18.016053 5.825802 13.585335 0.3792 0.1043 0.1546
v 15.927467 6.560118 -15.240188 0.0446 0.1713 0.2489
v 17.693425 7.452692 -13.845926 0.1346 0.1788 0.2126
v 17.693425 7.452845 -11.505481 0.1389 0.1841 0.2164
v 17.693425 7.453083 -9.223815 0.0008 0.0702 0.1236
v 17.693425 7.452964 -7.045040 0.0858 0.1331 0.1600
v 17.786615 7.420005 -4.742803 0.1248 0.1726 0.1915
v 17.693425 7.452607 -0.320610 0.1065 0.1951 0.2112
v 17.711081 7.450667 1.255396 0.1216 0.3227 0.3299
v 17.693425 7.452947 3.501747 0.0445 0.2408 0.2958
v 17.693425 7.452760 5.959829 0.0051 0.1761 0.2645
v 17.693425 7.452879 8.335589 0.0014 0.1609 0.2504
v 18.410723 7.451500 10.558437 0.0139 0.0970 0.1576
v 18.412422 7.451789 12.302019 0.4343 0.0811 0.0910
v 18.016053 6.583768 13.592769 0.2311 0.1342 0.1736
v 17.566856 7.458631 -14.075253 0.1685 0.2130 0.2514
v 17.588289 7.458086 -11.705400 0.2301 0.3192 0.3607
v 16.486472 7.559821 -9.572969 0.2899 0.3544 0.3766
v 17.084897 7.504997 -7.173499 0.4239 0.4492 0.4297
v 16.671816 7.542533 -4.860399 0.5267 0.5247 0.4833
v 16.671816 7.542618 -4.495838 0.4907 0.5154 0.4926
v 16.547467 7.553882 -2.503887 0.4642 0.5015 0.4760
v 15.852876 7.615920 -0.298553 0.4039 0.4465 0.4319
v 15.861988 7.616566 2.591749 0.3861 0.4199 0.4020
v 15.838431 7.618693 4.360320 0.3209 0.3862 0.4011
v 18.381122 7.464891 6.812537 0.3897 0.4224 0.4134
v 18.299733 7.498479 10.476115 0.2202 0.3335 0.3807
v 18.376590 7.467817 12.569595 0.3320 0.3561 0.3583
v 17.091034 7.709759 14.007393 0.3089 0.2217 0.1999
v 19.215168 0.503095 -14.348572 0.0032 0.1052 0.1783
v 18.905617 0.808316 -12.166287 0.0062 0.1207 0.2087
v 18.905287 0.906732 -9.875987 0.0057 0.1339 0.2275
v 18.878283 0.059538 -9.106179 0.0024 0.1472 0.2481
v 18.821868 0.042778 -7.041366 0.0008 0.1703 0.2833
v 18.864781 0.055607 -4.431156 0.0008 0.1719 0.2847
v 18.893155 0.064608 -2.440568 0.0006 0.1664 0.2799
v 18.821208 0.042965 -0.226519 0.0007 0.1499 0.2565
v 18.821915 0.042760 2.482948 0.0004 0.1473 0.2537
v 18.821963 0.042760 4.242721 0.0038 0.1242 0.2181
v 18.836078 0.046435 8.636249 0.0043 0.1194 0.2093
v 18.837777 0.045908 9.911593 0.0086 0.0891 0.1492
v 18.879510 0.059384 11.251621 0.3005 0.0424 0.0804
v 19.178298 0.061000 13.563895 0.5722 0.2689 0.2004
v 19.128257 1.790782 -15.326849 0.0000 0.1440 0.2397
v 18.905429 1.862009 -12.222544 0.0000 0.1507 0.2573
v 18.905146 1.823928 -9.585445 0.0000 0.1795 0.2985
v 18.906325 1.860868 -7.277343 0.0000 0.1750 0.2945
v 18.905712 1.792432 -6.027732 0.0000 0.1976 0.3213
v 18.904296 1.854504 -3.315292 0.0000 0.1920 0.3142
v 18.904296 1.834222 -2.371464 0.0000 0.1844 0.3061
v 18.904768 1.858452 1.814049 0.0000 0.1789 0.2999
v 18.905287 1.760954 1.992654 0.0000 0.1747 0.2915
v 18.904248 0.954868 5.007201 0.0000 0.1685 0.2831
v 18.904485 0.967136 6.725793 0.0000 0.1793 0.2966
v 18.905287 0.954272 10.032866 0.0000 0.1480 0.2494
v 19.156535 1.028765 12.465503 0.0708 0.1288 0.2187
v 18.849486 1.708256 13.573230 0.5827 0.1293 0.1223
v 19.093227 2.384125 -15.304296 0.0000 0.1589 0.2636
v 18.905617 2.691762 -12.164097 0.0000 0.1673 0.2798
v 18.905475 2.604252 -9.528113 0.0000 0.1959 0.3175
v 18.905617 1.889641 -7.130337 0.0000 0.2252 0.3503
v 18.905571 2.409852 -4.868497 0.0000 0.2280 0.3540
v 18.904296 2.786248 -3.319711 0.0000 0.2269 0.3522
v 18.903871 1.974343 -2.409671 0.0000 0.2303 0.3577
v 18.903824 2.740221 0.038084 0.0000 0.2061 0.3325
v 18.905475 2.202434 2.031605 0.0000 0.2196 0.3450
v 18.905193 2.630370 4.457634 0.0000 0.2089 0.3348
v 18.905098 2.761711 7.917330 0.0000 0.2109 0.3368
v 18.906090 2.605170 8.753102 0.0000 0.1775 0.2905
v 19.102622 2.704488 13.092974 0.0970 0.1432 0.2379
v 18.957029 2.726523 13.578188 0.5367 0.1569 0.1596
v 19.072550 3.655903 -15.280792 0.0000 0.1689 0.2794
v 18.906137 3.589679 -11.738032 0.0000 0.1914 0.3105
v 18.905948 2.880871 -10.363184 0.0000 0.2259 0.3508
v 18.904768 3.626381 -7.135086 0.0000 0.2283 0.3527
v 18.905004 3.230757 -5.032437 0.0000 0.2310 0.3556
v 18.903824 3.677104 -2.633133 0.0000 0.2318 0.3566
v 18.903776 3.664223 -2.305664 0.0000 0.2320 0.3587
v 18.905381 3.158084 -0.304461 0.0000 0.2308 0.3571
v 18.905335 2.866798 2.063947 0.0000 0.2280 0.3534
v 18.905240 2.806836 4.570563 0.0000 0.2280 0.3541
v 18.903918 3.709807 6.761069 0.0000 0.2272 0.3532
v 18.904579 3.714656 8.747237 0.0000 0.2206 0.3468
v 18.904531 3.683007 11.208252 0.0831 0.1819 0.2879
v 18.930119 3.532354 13.575297 0.3247 0.2552 0.3025
v 19.063674 4.140399 -15.280792 0.0000 0.1805 0.2930
v 18.902691 4.610346 -13.607760 0.0000 0.1900 0.3091
v 18.905193 4.618819 -11.519444 0.0000 0.2160 0.3400
v 18.904343 4.632159 -8.997421 0.0000 0.2277 0.3530
v 18.903966 4.089522 -6.962719 0.0000 0.2292 0.3545
v 18.904626 4.353567 -4.778079 0.0000 0.2320 0.3575
v 18.902785 4.620044 -2.414090 0.0000 0.2320 0.3575
v 18.903635 3.781867 0.267453 0.0000 0.2301 0.3556
v 18.903399 4.217613 2.019503 0.0000 0.2281 0.3536
v 18.904201 3.869071 5.854003 0.0000 0.2285 0.3540
v 18.905712 4.019265 6.500846 0.0000 0.2307 0.3565
v 18.904485 3.893300 8.829559 0.0000 0.2289 0.3560
v 19.098137 4.540088 13.048860 0.0000 0.2263 0.3543
v 19.090537 4.464387 13.298799 0.1833 0.4095 0.4961
v 19.069480 4.750858 -15.280792 0.0000 0.1793 0.2867
v 18.903257 5.535726 -13.751833 0.0000 0.1871 0.3047
v 18.905523 5.582892 -9.946370 0.0000 0.1947 0.3131
v 18.904721 5.535726 -9.300974 0.0000 0.2198 0.3433
v 18.903966 4.672128 -5.585185 0.0000 0.2140 0.3344
v 18.904531 4.664556 -4.619301 0.0000 0.2233 0.3487
v 18.902549 4.719890 -2.288233 0.0000 0.2221 0.3474
v 18.903399 4.760539 1.137758 0.0000 0.2250 0.3500
v 18.904060 5.225654 2.031606 0.0000 0.2288 0.3543
v 18.903966 5.465162 4.972630 0.0000 0.2280 0.3529
v 18.904673 5.579335 6.924267 0.0000 0.2284 0.3535
v 18.904201 4.774475 8.761942 0.0000 0.2251 0.3511
v 19.113055 5.048200 13.234114 0.0000 0.2245 0.3503
v 19.098279 4.679393 13.301732 0.0198 0.4116 0.5625
v 19.124575 5.602953 -14.895619 0.0038 0.1624 0.2557
v 18.903824 6.223095 -13.808256 0.0031 0.1180 0.2022
v 18.906279 6.038376 -11.509860 0.0037 0.1203 0.2054
v 18.903729 6.364203 -9.320841 0.0013 0.1896 0.3005
v 18.903776 5.605063 -5.112817 0.0043 0.1528 0.2460
v 18.904437 5.791892 -4.830288 0.0012 0.1558 0.2584
v 18.903447 5.594020 -2.557089 0.0019 0.1464 0.2469
v 18.903162 5.624136 -0.132423 0.0010 0.1155 0.2058
v 18.904012 5.593866 2.137472 0.0025 0.1121 0.2007
v 18.903447 5.610813 4.966021 0.0021 0.1129 0.2028
v 18.905948 6.390848 6.490561 0.0010 0.1749 0.2840
v 18.904531 6.453822 8.811922 0.0017 0.1596 0.2612
v 20.016594 6.518327 12.898922 0.0020 0.1921 0.3030
v 20.016594 6.518344 13.516355 0.0023 0.3496 0.4908
v 19.208654 6.529525 -14.869142 0.1920 0.2267 0.2601
v 19.125046 6.855964 -13.575418 0.1599 0.2022 0.2388
v 18.906467 6.521663 -10.974749 0.2963 0.3279 0.3386
v 18.903871 6.533778 -8.518113 0.3384 0.3492 0.3381
v 18.904248 6.542251 -4.866306 0.3933 0.3924 0.3680
v 18.903966 6.521663 -2.991869 0.3515 0.3772 0.3794
v 18.903966 6.624606 -1.415863 0.2473 0.2871 0.3130
v 18.904060 6.531191 1.839412 0.1765 0.2285 0.2732
v 18.904768 6.524078 3.466472 0.2392 0.2666 0.2914
v 18.904201 6.543459 5.548179 0.2690 0.2893 0.3070
v 18.904391 6.523772 7.017783 0.3222 0.3351 0.3318
v 18.601306 7.373519 8.831047 0.1504 0.2117 0.2539
v 18.904391 6.542557 11.763975 0.2118 0.2257 0.2395
v 19.175183 7.135882 13.395826 0.3963 0.3352 0.3096
v 18.487580 7.454513 -15.892358 0.2745 0.2301 0.2314
v 18.434139 7.474232 13.957414 0.5098 0.4588 0.4078
f 840 855 841
f 855 840 854
f 496 547 548
f 465 464 507
f 507 508 465
f 465 508 466
f 466 508 509
f 507 506 493
f 506 492 493
f 493 492 544
f 493 544 545
f 508 507 493
f 508 493 494
f 494 493 546
f 493 545 546
f 509 494 495
f 509 508 494
f 495 494 547
f 494 546 547
f 510 509 496
f 496 509 495
f 496 495 547
f 468 467 510
f 468 510 511
f 468 511 469
f 469 511 512
f 469 512 513
f 470 469 513
f 551 550 602
f 551 602 603
f 511 510 497
f 497 510 496
f 497 496 549
f 549 496 548
f 511 497 498
f 512 511 498
f 549 498 497
f 498 549 550
f 513 512 499
f 512 498 499
f 499 498 550
f 551 499 550
f 439 438 470
f 439 470 471
f 440 439 471
f 440 471 472
f 605 553 604
f 553 552 604
f 552 603 604
f 551 603 552
f 435 466 467
f 434 466 435
f 468 435 467
f 436 435 468
f 434 433 465
f 434 465 466
f 471 470 513
f 471 513 514
f 514 500 515
f 515 500 501
f 514 513 499
f 514 499 500
f 551 552 499
f 499 552 500
f 500 552 501
f 501 552 553
f 472 471 514
f 515 472 514
f 438 437 470
f 470 437 469
f 437 436 469
f 436 468 469
f 467 509 510
f 466 509 467
f 464 506 507
f 506 505 491
f 492 506 491
f 492 491 543
f 492 543 544
f 464 463 506
f 319 362 333
f 399 430 431
f 399 398 430
f 394 426 397
f 397 426 429
f 397 429 430
f 398 397 430
f 333 362 365
f 365 394 397
f 362 394 365
f 430 429 461
f 430 461 462
f 365 397 398
f 366 365 398
f 433 432 465
f 432 464 465
f 400 432 433
f 401 400 433
f 400 399 431
f 400 431 432
f 431 464 432
f 431 430 463
f 431 463 464
f 369 402 370
f 369 401 402
f 367 399 368
f 368 399 400
f 368 400 401
f 369 368 401
f 367 398 399
f 366 398 367
f 334 333 365
f 334 365 366
f 406 438 439
f 406 405 438
f 405 437 438
f 405 404 436
f 405 436 437
f 402 433 434
f 402 401 433
f 403 435 436
f 404 403 436
f 402 434 435
f 403 402 435
f 430 462 463
f 462 461 504
f 462 504 505
f 505 504 490
f 505 490 491
f 490 542 543
f 491 490 543
f 462 505 463
f 463 505 506
f 536 539 588
f 588 539 591
f 674 614 617
f 674 617 688
f 660 614 674
f 611 614 660
f 623 585 588
f 623 588 626
f 702 620 623
f 702 623 716
f 814 688 702
f 814 702 828
f 800 674 688
f 800 688 814
f 702 617 620
f 688 617 702
f 786 660 674
f 786 674 800
f 842 716 856
f 716 730 856
f 702 716 828
f 828 716 842
f 623 626 730
f 716 623 730
f 626 588 591
f 629 626 591
f 730 626 744
f 626 629 744
f 364 361 393
f 364 393 396
f 195 234 233
f 236 233 237
f 237 233 234
f 271 272 315
f 271 314 274
f 314 271 315
f 236 233 271
f 236 271 274
f 233 234 272
f 271 233 272
f 198 195 233
f 198 233 236
f 195 196 234
f 315 317 318
f 315 314 317
f 274 314 317
f 357 315 358
f 314 315 357
f 317 314 318
f 314 315 318
f 314 360 317
f 314 357 360
f 236 275 237
f 236 274 275
f 251 275 289
f 289 275 318
f 275 274 318
f 289 318 332
f 274 317 318
f 332 318 361
f 237 198 236
f 199 198 237
f 332 361 364
f 318 360 361
f 318 317 360
f 161 147 199
f 147 196 199
f 392 389 421
f 421 389 390
f 424 421 425
f 425 421 422
f 392 421 424
f 421 390 422
f 393 389 392
f 390 389 393
f 361 360 358
f 360 357 358
f 198 196 195
f 196 198 199
f 361 390 393
f 358 390 361
f 392 424 393
f 396 393 425
f 393 424 425
f 396 425 428
f 422 421 424
f 425 422 424
f 421 453 424
f 424 453 456
f 425 424 457
f 457 424 456
f 425 457 428
f 456 453 454
f 456 454 457
f 428 457 460
f 460 457 489
f 460 489 503
f 503 489 541
f 421 422 453
f 453 422 454
f 503 541 555
f 541 592 593
f 593 592 630
f 593 630 631
f 540 592 541
f 537 590 589
f 537 589 592
f 541 538 540
f 538 537 540
f 537 538 590
f 537 592 540
f 592 589 630
f 589 627 630
f 630 628 631
f 589 590 628
f 627 589 628
f 627 628 630
f 454 453 485
f 456 453 485
f 485 488 456
f 457 456 488
f 457 488 489
f 489 488 541
f 488 540 541
f 537 485 486
f 488 485 537
f 537 486 538
f 540 488 537
f 541 537 538
f 540 537 541
f 485 453 486
f 453 454 486
f 175 161 213
f 161 199 213
f 213 237 251
f 199 237 213
f 251 237 275
f 284 246 285
f 246 247 285
f 208 247 246
f 207 208 245
f 373 341 374
f 298 284 285
f 299 298 285
f 342 298 299
f 341 298 342
f 341 342 374
f 342 375 374
f 208 209 247
f 247 209 248
f 209 210 248
f 377 345 378
f 345 346 378
f 345 303 346
f 302 303 345
f 345 301 302
f 344 301 345
f 376 344 377
f 344 345 377
f 286 287 301
f 344 343 301
f 343 300 301
f 286 249 287
f 300 286 301
f 375 344 376
f 375 343 344
f 286 248 249
f 342 343 375
f 285 247 248
f 285 286 299
f 299 286 300
f 342 299 300
f 342 300 343
f 285 248 286
f 241 203 242
f 294 281 295
f 280 242 243
f 280 243 281
f 280 281 294
f 241 242 279
f 279 242 280
f 279 280 293
f 293 280 294
f 283 246 284
f 283 245 246
f 246 245 208
f 245 244 207
f 244 206 207
f 297 284 298
f 283 284 297
f 282 283 297
f 296 282 297
f 339 296 297
f 339 297 340
f 204 205 242
f 242 205 243
f 243 244 282
f 281 243 282
f 296 281 282
f 281 296 295
f 338 295 339
f 295 296 339
f 283 244 245
f 282 244 283
f 340 297 298
f 340 298 341
f 332 289 346
f 289 346 303
f 289 251 303
f 287 250 288
f 301 287 302
f 249 250 287
f 288 302 287
f 288 250 289
f 250 251 289
f 288 289 302
f 302 289 303
f 373 372 340
f 340 341 373
f 294 295 338
f 337 294 338
f 336 294 337
f 293 294 336
f 852 866 853
f 853 866 867
f 862 861 875
f 875 876 862
f 861 874 875
f 863 862 877
f 877 862 876
f 860 859 873
f 860 873 874
f 859 858 873
f 873 858 872
f 826 825 840
f 825 839 840
f 840 839 853
f 840 853 854
f 865 864 879
f 879 864 878
f 863 877 864
f 864 877 878
f 861 860 874
f 846 860 847
f 847 860 861
f 814 828 815
f 815 828 829
f 828 842 829
f 829 842 843
f 820 834 821
f 821 834 835
f 807 806 821
f 806 820 821
f 791 805 792
f 792 805 806
f 823 822 837
f 837 822 836
f 822 821 836
f 821 835 836
f 809 808 822
f 822 823 809
f 808 807 821
f 808 821 822
f 794 793 808
f 793 807 808
f 810 809 823
f 810 823 824
f 824 838 825
f 839 825 838
f 811 810 825
f 810 824 825
f 837 851 852
f 837 852 838
f 838 852 839
f 839 852 853
f 852 851 866
f 866 851 865
f 836 850 837
f 837 850 851
f 820 819 834
f 819 833 834
f 847 861 862
f 848 847 862
f 834 833 847
f 848 834 847
f 833 832 847
f 832 846 847
f 832 845 846
f 851 850 865
f 850 864 865
f 849 864 850
f 849 863 864
f 836 835 850
f 835 849 850
f 849 848 862
f 849 862 863
f 835 834 849
f 834 848 849
f 824 837 838
f 823 837 824
f 774 773 787
f 774 787 788
f 856 870 857
f 857 870 871
f 843 842 856
f 843 856 857
f 805 790 804
f 790 805 791
f 790 789 803
f 790 803 804
f 803 817 818
f 804 803 818
f 803 816 817
f 802 816 803
f 806 805 820
f 820 805 819
f 832 831 845
f 819 818 833
f 818 832 833
f 818 817 831
f 832 818 831
f 831 817 832
f 819 805 818
f 804 818 805
f 803 788 802
f 788 803 789
f 788 787 802
f 802 787 801
f 786 800 787
f 787 800 801
f 801 800 814
f 801 814 815
f 845 858 844
f 845 844 859
f 844 858 859
f 846 845 859
f 859 860 846
f 815 829 830
f 816 815 830
f 802 801 815
f 802 815 816
f 858 857 872
f 872 857 871
f 844 857 858
f 844 843 857
f 830 829 843
f 830 843 844
f 831 830 845
f 817 816 831
f 816 830 831
f 830 844 845
f 203 202 241
f 200 238 239
f 201 200 239
f 241 202 240
f 201 239 202
f 202 239 240
f 369 337 368
f 336 367 368
f 336 335 367
f 279 336 322
f 279 278 321
f 279 321 322
f 277 334 320
f 277 276 320
f 276 319 333
f 319 333 334
f 320 276 319
f 320 319 334
f 278 277 334
f 278 335 321
f 278 334 321
f 321 334 335
f 322 335 336
f 321 335 322
f 335 366 367
f 335 334 366
f 239 277 240
f 278 240 277
f 241 240 279
f 240 278 279
f 277 238 276
f 239 238 277
f 164 163 201
f 164 201 202
f 408 439 440
f 473 440 472
f 441 440 473
f 553 605 606
f 554 553 606
f 473 472 516
f 516 472 515
f 516 515 501
f 516 501 502
f 502 501 554
f 501 553 554
f 630 592 606
f 630 606 644
f 540 554 592
f 592 554 606
f 453 456 488
f 485 453 488
f 627 589 592
f 627 592 630
f 456 424 427
f 456 427 459
f 288 331 345
f 287 330 331
f 288 287 331
f 250 249 288
f 249 287 288
f 287 248 286
f 249 248 287
f 424 392 395
f 424 395 427
f 243 204 242
f 205 204 243
f 206 205 244
f 205 243 244
f 284 245 283
f 246 245 284
f 243 281 244
f 244 281 282
f 204 203 242
f 285 342 328
f 285 284 327
f 284 341 327
f 285 327 342
f 342 327 341
f 283 326 284
f 327 284 326
f 326 340 341
f 326 283 340
f 327 326 341
f 326 325 339
f 282 325 283
f 283 325 326
f 282 339 325
f 326 339 340
f 247 284 285
f 246 284 247
f 371 370 403
f 370 402 403
f 337 336 368
f 339 338 370
f 337 369 338
f 369 370 338
f 324 338 339
f 280 279 336
f 280 336 323
f 336 337 323
f 281 324 338
f 281 280 337
f 280 323 337
f 281 337 324
f 324 337 338
f 374 405 406
f 407 374 406
f 375 374 407
f 409 440 441
f 409 408 440
f 408 407 439
f 407 406 439
f 374 373 405
f 343 342 374
f 343 374 375
f 376 375 408
f 375 407 408
f 372 371 403
f 372 403 404
f 372 404 405
f 373 372 405
f 340 339 371
f 340 371 372
f 286 247 285
f 248 247 286
f 473 427 441
f 427 473 459
f 516 502 473
f 502 459 473
f 329 285 342
f 329 342 343
f 286 285 329
f 286 329 343
f 331 330 345
f 330 344 345
f 287 344 330
f 441 395 409
f 427 395 441
f 330 329 343
f 330 343 344
f 286 329 287
f 287 329 330
f 363 409 395
f 409 363 377
f 363 331 345
f 363 345 377
f 377 376 408
f 377 408 409
f 339 370 371
f 241 279 280
f 242 241 280
f 325 324 339
f 281 324 325
f 282 281 325
f 395 360 363
f 392 360 395
f 456 459 502
f 488 456 502
f 488 502 554
f 540 488 554
f 455 458 490
f 487 455 490
f 536 484 487
f 536 487 539
f 423 391 426
f 391 394 426
f 458 423 426
f 455 423 458
f 391 359 394
f 316 273 276
f 316 276 319
f 359 319 362
f 359 316 319
f 278 279 293
f 292 278 293
f 487 490 539
f 542 539 490
f 278 241 279
f 240 241 278
f 277 239 278
f 239 240 278
f 429 426 461
f 426 458 461
f 504 461 458
f 504 458 490
f 772 646 786
f 786 646 660
f 787 773 786
f 772 786 773
f 620 579 617
f 579 576 617
f 617 576 614
f 617 614 688
f 614 674 688
f 582 579 620
f 570 611 573
f 570 608 611
f 573 611 614
f 576 573 614
f 611 608 660
f 608 646 660
f 527 524 576
f 527 576 579
f 576 524 521
f 521 573 576
f 530 527 582
f 527 579 582
f 533 530 585
f 585 530 582
f 478 524 527
f 477 524 478
f 479 478 527
f 479 527 530
f 481 479 530
f 481 530 533
f 484 481 533
f 484 533 536
f 455 452 484
f 455 484 487
f 477 476 524
f 476 521 524
f 582 620 585
f 585 620 623
f 585 626 588
f 585 623 626
f 458 455 487
f 458 487 490
f 490 487 542
f 487 539 542
f 536 585 588
f 536 533 585
f 548 547 599
f 548 599 600
f 597 596 635
f 596 634 635
f 597 544 596
f 544 597 545
f 596 544 595
f 543 595 544
f 546 545 597
f 546 597 598
f 547 546 598
f 547 598 599
f 597 635 598
f 598 635 636
f 599 636 637
f 599 598 636
f 542 594 595
f 543 542 595
f 760 759 745
f 760 745 746
f 760 746 747
f 761 760 747
f 759 758 745
f 758 744 745
f 635 634 760
f 635 760 761
f 731 717 718
f 731 718 732
f 702 703 717
f 716 702 717
f 730 716 717
f 730 717 731
f 731 732 746
f 745 731 746
f 732 733 747
f 746 732 747
f 718 719 732
f 732 719 733
f 744 730 745
f 730 731 745
f 703 704 718
f 703 718 717
f 600 638 637
f 599 637 600
f 549 548 601
f 548 600 601
f 549 602 550
f 602 549 601
f 639 638 765
f 638 764 765
f 637 636 762
f 637 762 763
f 761 747 748
f 635 761 762
f 635 762 636
f 762 761 748
f 637 763 764
f 638 637 764
f 660 646 647
f 646 647 661
f 660 646 661
f 603 602 640
f 603 640 641
f 640 639 766
f 639 765 766
f 639 601 638
f 601 600 638
f 601 640 602
f 601 639 640
f 643 642 605
f 605 604 643
f 643 604 642
f 603 641 604
f 604 641 642
f 595 633 596
f 633 634 596
f 632 591 629
f 594 591 632
f 634 759 760
f 633 759 634
f 633 594 632
f 594 633 595
f 632 629 758
f 758 629 744
f 633 632 759
f 632 758 759
f 539 594 542
f 539 591 594
f 629 626 730
f 629 730 744
f 688 674 675
f 688 675 689
f 689 690 704
f 703 689 704
f 661 648 662
f 675 661 662
f 675 662 676
f 690 675 676
f 689 675 690
f 703 688 689
f 702 688 703
f 660 661 674
f 674 661 675
f 677 662 663
f 676 662 677
f 690 676 677
f 690 677 691
f 606 605 644
f 605 643 644
f 747 733 748
f 733 734 748
f 719 734 733
f 704 705 719
f 718 704 719
f 704 690 705
f 690 691 705
f 56 42 135
f 56 135 138
f 56 138 141
f 41 27 28
f 41 28 42
f 13 14 27
f 27 14 28
f 129 128 178
f 132 129 178
f 132 178 181
f 135 181 184
f 135 132 181
f 28 132 135
f 28 135 42
f 14 132 28
f 132 14 129
f 209 170 171
f 208 170 209
f 207 169 170
f 207 170 208
f 210 209 171
f 115 100 101
f 99 100 113
f 113 100 114
f 204 166 167
f 204 167 205
f 165 166 204
f 203 165 204
f 164 165 203
f 202 164 203
f 167 119 168
f 118 119 167
f 166 117 167
f 117 118 167
f 116 117 166
f 116 102 117
f 102 103 117
f 117 103 104
f 117 104 118
f 165 116 166
f 164 116 165
f 164 115 116
f 114 115 163
f 163 115 164
f 202 163 164
f 201 163 202
f 114 100 115
f 116 115 102
f 101 102 115
f 163 162 114
f 113 114 162
f 205 167 206
f 248 211 249
f 248 210 211
f 172 173 210
f 210 173 211
f 212 174 213
f 250 212 213
f 250 213 251
f 249 211 250
f 211 212 250
f 173 124 125
f 173 125 174
f 125 126 174
f 174 126 175
f 124 110 111
f 124 111 125
f 111 112 126
f 125 111 126
f 172 123 124
f 172 124 173
f 174 175 213
f 211 173 174
f 211 174 212
f 118 104 105
f 118 105 119
f 120 119 106
f 119 105 106
f 170 169 121
f 120 121 169
f 119 120 169
f 168 119 169
f 207 168 169
f 206 168 207
f 167 168 206
f 120 106 107
f 120 107 121
f 121 107 108
f 121 108 122
f 108 109 123
f 122 108 123
f 170 121 122
f 171 172 210
f 171 122 123
f 124 109 110
f 123 109 124
f 171 123 172
f 170 122 171
f 240 201 202
f 239 201 240
f 162 163 201
f 200 162 201
f 813 812 826
f 827 813 826
f 827 826 841
f 826 840 841
f 531 534 586
f 583 531 586
f 583 528 531
f 583 580 528
f 520 572 523
f 523 572 575
f 578 575 613
f 526 523 575
f 526 575 578
f 574 519 522
f 571 519 574
f 619 581 616
f 578 616 581
f 578 613 616
f 526 578 581
f 529 526 581
f 584 581 622
f 581 619 622
f 532 529 581
f 532 581 584
f 687 673 799
f 813 687 799
f 827 687 813
f 701 687 827
f 715 701 827
f 622 701 715
f 625 622 729
f 622 715 729
f 622 619 701
f 619 616 701
f 701 616 687
f 613 673 687
f 616 613 687
f 574 522 525
f 574 525 577
f 525 580 577
f 525 528 580
f 70 141 144
f 56 141 70
f 97 98 112
f 111 97 112
f 126 112 161
f 126 161 175
f 147 112 98
f 112 147 161
f 69 70 84
f 83 69 84
f 84 70 144
f 97 83 84
f 97 84 98
f 84 144 98
f 98 144 147
f 104 91 105
f 104 90 91
f 90 104 105
f 91 90 105
f 103 89 90
f 103 90 104
f 91 105 106
f 91 92 106
f 94 80 81
f 94 81 95
f 36 37 51
f 50 36 51
f 51 52 66
f 64 49 50
f 64 50 51
f 64 51 65
f 65 51 66
f 63 64 78
f 77 63 78
f 93 79 94
f 79 80 94
f 91 77 92
f 65 66 80
f 79 65 80
f 78 93 92
f 78 79 93
f 92 77 78
f 64 65 79
f 78 64 79
f 37 38 52
f 51 37 52
f 52 53 66
f 66 53 67
f 80 66 67
f 80 67 81
f 54 40 41
f 54 41 55
f 54 39 40
f 53 39 54
f 40 26 41
f 26 27 41
f 40 25 26
f 39 25 40
f 53 54 67
f 67 54 68
f 55 56 69
f 69 56 70
f 41 42 56
f 55 41 56
f 26 12 27
f 12 13 27
f 68 54 69
f 54 55 69
f 82 68 69
f 82 69 83
f 81 67 68
f 107 94 108
f 94 93 108
f 93 94 107
f 93 107 108
f 106 92 107
f 93 92 107
f 97 110 111
f 110 96 111
f 111 96 97
f 96 110 97
f 95 96 110
f 96 109 110
f 95 110 109
f 95 109 96
f 109 94 95
f 109 108 94
f 95 108 109
f 95 94 108
f 106 93 107
f 106 92 93
f 91 92 105
f 105 92 106
f 38 39 53
f 52 38 53
f 22 23 37
f 38 24 39
f 39 24 25
f 23 38 37
f 38 23 24
f 10 11 25
f 24 10 25
f 25 12 26
f 25 11 12
f 81 68 82
f 82 83 96
f 96 83 97
f 81 82 96
f 95 81 96
f 868 867 881
f 868 881 882
f 867 866 881
f 866 880 881
f 880 866 865
f 865 879 880
f 854 853 868
f 853 867 868
f 868 882 869
f 869 882 883
f 854 869 855
f 854 868 869
f 729 855 869
f 743 729 869
f 757 743 869
f 883 757 869
f 768 880 879
f 868 867 882
f 867 881 882
f 880 866 867
f 867 880 881
f 880 879 866
f 879 865 866
f 876 863 877
f 876 862 863
f 863 864 878
f 879 878 865
f 864 865 878
f 858 871 857
f 872 871 858
f 715 827 841
f 715 841 729
f 855 729 841
f 628 743 631
f 631 743 757
f 880 768 769
f 881 880 769
f 517 503 555
f 569 517 555
f 568 516 517
f 568 517 569
f 332 364 378
f 410 378 396
f 364 396 378
f 346 332 378
f 410 428 442
f 410 396 428
f 555 541 607
f 607 541 593
f 607 593 631
f 607 631 645
f 645 631 757
f 645 757 771
f 883 885 771
f 883 770 771
f 882 756 770
f 882 770 883
f 755 881 769
f 881 769 770
f 882 881 770
f 771 757 883
f 442 428 474
f 474 428 460
f 517 460 503
f 460 517 474
f 394 362 359
f 179 220 182
f 226 223 261
f 226 261 264
f 223 220 261
f 220 258 261
f 258 307 261
f 258 306 307
f 85 99 86
f 100 86 99
f 100 99 149
f 362 316 359
f 319 316 362
f 313 356 359
f 313 359 316
f 415 414 446
f 415 446 447
f 383 382 414
f 383 414 415
f 351 350 382
f 351 382 383
f 351 383 353
f 385 353 383
f 385 415 417
f 383 415 385
f 417 415 449
f 415 447 449
f 484 452 481
f 449 481 452
f 420 417 452
f 417 449 452
f 414 413 445
f 414 445 446
f 381 414 382
f 414 381 413
f 306 350 307
f 350 306 349
f 350 381 382
f 350 349 381
f 71 139 142
f 148 145 194
f 148 194 197
f 71 142 145
f 85 71 145
f 148 197 162
f 162 197 200
f 85 145 148
f 99 85 148
f 142 191 145
f 145 191 194
f 133 182 136
f 136 182 185
f 220 223 182
f 185 182 223
f 136 185 188
f 188 226 229
f 229 191 188
f 229 226 267
f 226 264 267
f 139 136 188
f 185 226 188
f 226 185 223
f 142 188 191
f 139 188 142
f 270 267 313
f 71 57 139
f 182 130 179
f 99 148 149
f 163 162 200
f 163 200 201
f 356 310 353
f 313 267 310
f 313 310 356
f 261 307 308
f 308 307 351
f 307 350 351
f 310 267 308
f 264 308 267
f 264 261 308
f 308 351 310
f 310 351 353
f 194 232 235
f 197 194 235
f 232 273 235
f 232 270 273
f 238 273 276
f 235 273 238
f 200 197 238
f 197 235 238
f 194 191 232
f 191 229 232
f 270 232 229
f 229 267 270
f 270 316 273
f 270 313 316
f 356 388 359
f 359 388 391
f 447 446 479
f 446 478 479
f 449 447 481
f 481 447 479
f 356 353 388
f 353 385 388
f 388 385 420
f 420 385 417
f 420 452 423
f 455 423 452
f 423 391 388
f 388 420 423
f 446 445 478
f 445 477 478
f 99 113 148
f 148 113 162
f 87 100 86
f 101 100 87
f 86 101 87
f 86 100 101
f 101 87 88
f 102 101 88
f 87 101 102
f 88 87 102
f 102 88 103
f 89 88 103
f 99 85 100
f 85 86 100
f 31 32 45
f 32 31 18
f 32 33 47
f 46 32 47
f 45 32 46
f 45 60 59
f 60 45 46
f 46 47 61
f 60 46 61
f 74 60 61
f 74 61 75
f 76 75 61
f 61 62 76
f 76 62 63
f 76 63 77
f 88 73 74
f 73 88 87
f 88 75 89
f 74 75 88
f 73 59 74
f 59 60 73
f 74 73 60
f 90 76 77
f 90 77 91
f 75 76 90
f 89 75 90
f 63 49 64
f 49 35 36
f 49 36 50
f 35 21 22
f 35 22 36
f 19 5 20
f 17 3 4
f 16 17 31
f 16 31 30
f 18 17 4
f 3 2 16
f 3 16 17
f 16 15 30
f 30 15 29
f 4 5 18
f 18 5 19
f 43 29 44
f 29 30 44
f 15 16 29
f 29 16 30
f 2 3 17
f 2 17 16
f 16 1 2
f 15 1 16
f 72 71 85
f 86 72 85
f 148 162 200
f 197 148 200
f 58 57 71
f 58 71 72
f 58 44 57
f 43 57 44
f 29 133 136
f 43 29 136
f 43 136 139
f 57 43 139
f 30 29 43
f 133 130 182
f 34 35 48
f 48 35 49
f 20 21 35
f 34 20 35
f 19 20 34
f 19 34 33
f 33 34 48
f 47 33 48
f 33 18 19
f 32 18 33
f 47 48 62
f 61 47 62
f 48 49 63
f 48 63 62
f 86 71 72
f 86 85 71
f 59 58 45
f 58 44 45
f 58 59 73
f 72 58 73
f 86 72 73
f 87 86 73
f 21 6 7
f 20 6 21
f 5 6 20
f 37 36 22
f 31 17 18
f 23 9 24
f 22 8 9
f 22 9 23
f 9 10 24
f 7 8 21
f 22 21 8
f 44 30 43
f 44 30 31
f 44 31 45
f 167 166 205
f 166 204 205
f 76 75 89
f 76 89 90
f 63 62 77
f 62 76 77
f 62 75 76
f 62 61 75
f 169 206 207
f 168 206 169
f 152 151 165
f 152 165 166
f 103 102 151
f 103 151 152
f 153 104 103
f 103 152 153
f 153 152 166
f 153 166 167
f 105 153 154
f 168 205 206
f 168 167 205
f 105 104 153
f 154 153 167
f 154 167 168
f 211 249 212
f 212 249 250
f 12 26 13
f 13 26 27
f 26 25 39
f 26 39 40
f 24 37 38
f 24 23 37
f 25 24 38
f 25 38 39
f 22 7 21
f 8 7 22
f 165 203 166
f 166 203 204
f 165 164 202
f 165 202 203
f 4 3 18
f 73 87 74
f 88 74 87
f 73 72 87
f 87 72 86
f 149 163 164
f 101 149 150
f 101 100 149
f 150 149 164
f 102 101 150
f 102 150 151
f 150 164 165
f 151 150 165
f 81 80 95
f 80 94 95
f 159 158 172
f 110 158 159
f 109 158 110
f 108 157 158
f 157 171 172
f 158 157 172
f 109 108 158
f 38 37 51
f 38 51 52
f 173 172 211
f 211 172 210
f 40 53 54
f 55 54 68
f 55 68 69
f 49 63 50
f 50 63 64
f 92 78 91
f 77 91 78
f 108 156 157
f 156 155 170
f 155 169 170
f 107 156 108
f 156 170 171
f 157 156 171
f 79 78 92
f 79 92 93
f 155 168 169
f 155 154 168
f 107 155 156
f 106 155 107
f 105 154 155
f 106 105 155
f 41 40 55
f 40 54 55
f 40 39 53
f 13 128 14
f 14 128 129
f 128 180 177
f 68 67 82
f 82 67 81
f 82 81 95
f 82 95 96
f 36 50 37
f 37 50 51
f 83 82 97
f 82 96 97
f 46 59 60
f 45 44 59
f 44 58 59
f 3 17 18
f 149 148 163
f 163 148 162
f 34 33 47
f 33 46 47
f 33 32 46
f 47 46 60
f 47 60 61
f 34 47 48
f 5 19 6
f 20 6 19
f 19 33 20
f 20 33 34
f 51 50 65
f 50 64 65
f 65 64 78
f 79 65 78
f 46 45 59
f 32 31 46
f 31 45 46
f 4 19 5
f 4 18 19
f 35 50 36
f 50 35 49
f 7 20 21
f 7 6 20
f 879 767 768
f 879 766 767
f 878 766 879
f 857 856 871
f 856 870 871
f 554 568 569
f 554 569 555
f 554 555 607
f 554 607 606
f 636 597 598
f 597 636 635
f 596 544 545
f 597 596 545
f 598 599 637
f 636 598 637
f 768 643 769
f 642 643 768
f 602 603 641
f 640 602 641
f 603 604 642
f 641 603 642
f 641 642 768
f 767 641 768
f 766 641 767
f 766 640 641
f 598 545 597
f 563 512 564
f 549 563 564
f 600 547 548
f 599 547 600
f 600 548 549
f 600 549 601
f 549 564 550
f 549 550 601
f 601 550 602
f 548 561 562
f 547 561 548
f 549 562 563
f 548 562 549
f 546 560 547
f 870 744 758
f 870 884 758
f 591 539 542
f 591 542 594
f 591 594 629
f 629 594 632
f 744 629 632
f 758 744 632
f 515 516 567
f 567 516 568
f 644 645 770
f 770 645 771
f 770 643 644
f 769 643 770
f 553 567 554
f 605 554 606
f 567 568 554
f 605 553 554
f 606 607 644
f 644 607 645
f 565 564 512
f 551 565 566
f 551 566 552
f 603 550 551
f 602 550 603
f 550 564 551
f 564 565 551
f 565 512 513
f 565 513 514
f 514 566 565
f 566 514 515
f 566 515 567
f 634 596 597
f 634 597 635
f 595 596 634
f 595 634 633
f 877 765 878
f 878 765 766
f 638 639 764
f 764 639 765
f 876 765 877
f 763 874 762
f 874 763 875
f 875 763 749
f 874 761 762
f 873 761 874
f 874 762 748
f 760 872 746
f 760 761 873
f 873 872 760
f 764 765 876
f 875 764 876
f 875 763 764
f 633 634 760
f 633 760 759
f 856 730 744
f 856 744 870
f 553 552 567
f 605 552 553
f 604 552 605
f 566 567 552
f 642 604 605
f 870 758 759
f 870 759 871
f 759 745 871
f 746 872 745
f 871 745 872
f 611 573 576
f 611 576 614
f 617 579 582
f 620 617 582
f 579 527 530
f 582 585 623
f 620 582 623
f 579 530 582
f 576 524 579
f 579 524 527
f 179 217 220
f 179 176 214
f 179 214 217
f 255 305 306
f 258 255 306
f 255 252 305
f 252 304 305
f 217 252 255
f 217 214 252
f 217 255 220
f 220 255 258
f 447 415 417
f 447 417 449
f 417 420 449
f 452 449 420
f 447 449 479
f 479 449 481
f 484 449 452
f 481 449 484
f 414 415 447
f 446 414 447
f 478 446 447
f 479 478 447
f 588 533 536
f 585 533 588
f 391 356 359
f 388 356 391
f 455 452 420
f 455 420 423
f 305 306 348
f 304 305 348
f 348 306 349
f 347 304 348
f 379 347 348
f 381 348 349
f 380 348 381
f 133 29 43
f 133 43 136
f 130 15 133
f 133 15 29
f 136 43 57
f 136 57 139
f 217 182 220
f 217 179 182
f 127 130 179
f 176 127 179
f 127 1 130
f 130 1 15
f 214 176 217
f 176 179 217
f 133 136 185
f 182 133 185
f 413 381 382
f 382 414 413
f 380 379 348
f 412 380 413
f 380 381 413
f 444 411 412
f 443 411 444
f 379 380 411
f 411 380 412
f 350 307 308
f 351 350 308
f 349 306 307
f 349 307 350
f 139 142 191
f 188 139 191
f 142 145 194
f 191 142 194
f 223 226 264
f 261 223 264
f 220 223 258
f 258 223 261
f 220 182 185
f 220 185 223
f 304 252 255
f 305 304 255
f 308 353 351
f 308 310 353
f 443 444 476
f 443 476 475
f 475 476 521
f 518 475 521
f 570 518 521
f 570 521 573
f 444 412 413
f 444 413 445
f 476 444 477
f 477 444 445
f 521 477 524
f 476 477 521
f 646 608 611
f 660 646 611
f 412 443 444
f 412 411 443
f 379 411 412
f 379 412 380
f 235 238 276
f 273 235 276
f 197 200 235
f 235 200 238
f 270 273 313
f 270 232 235
f 270 235 273
f 267 270 310
f 267 232 270
f 229 232 267
f 313 273 316
f 356 316 359
f 356 313 316
f 313 310 270
f 310 313 353
f 353 313 356
f 306 305 349
f 349 305 348
f 380 347 379
f 348 347 380
f 85 99 145
f 145 99 148
f 147 144 196
f 144 193 196
f 482 534 535
f 522 519 520
f 522 520 523
f 525 522 523
f 525 523 526
f 193 231 234
f 234 231 272
f 231 269 272
f 193 234 196
f 272 269 315
f 315 269 312
f 312 355 358
f 358 355 387
f 358 387 390
f 315 312 358
f 190 228 193
f 193 228 231
f 141 138 190
f 138 187 190
f 144 190 193
f 141 190 144
f 312 354 355
f 311 354 312
f 269 268 311
f 269 311 312
f 538 587 590
f 538 535 587
f 355 354 386
f 387 355 386
f 268 265 311
f 311 265 309
f 311 309 354
f 354 309 352
f 354 352 384
f 354 384 386
f 532 584 587
f 535 532 587
f 483 482 535
f 419 418 451
f 418 450 451
f 451 450 482
f 451 482 483
f 387 386 419
f 419 386 418
f 483 535 538
f 486 483 538
f 422 387 419
f 390 387 422
f 422 419 451
f 422 451 454
f 454 451 486
f 486 451 483
f 531 528 532
f 528 529 532
f 450 448 480
f 450 480 482
f 482 480 531
f 482 531 534
f 534 531 535
f 535 531 532
f 418 416 450
f 450 416 448
f 529 525 526
f 528 525 529
f 222 219 260
f 219 257 260
f 743 628 729
f 628 625 729
f 584 622 625
f 587 584 625
f 386 416 418
f 386 384 416
f 628 590 587
f 587 625 628
f 187 225 228
f 190 187 228
f 138 135 187
f 187 135 184
f 187 184 225
f 184 222 225
f 128 177 178
f 216 254 257
f 219 216 257
f 178 177 216
f 216 177 215
f 181 219 222
f 184 181 222
f 181 216 219
f 181 178 216
f 797 811 798
f 812 798 811
f 812 811 826
f 811 825 826
f 793 792 807
f 792 806 807
f 795 794 809
f 794 808 809
f 796 795 809
f 796 809 810
f 782 781 795
f 795 780 794
f 781 780 795
f 782 795 796
f 778 791 792
f 794 779 793
f 793 778 792
f 780 779 794
f 779 778 793
f 618 580 621
f 580 583 621
f 618 621 714
f 700 618 714
f 714 621 624
f 630 644 770
f 756 630 770
f 583 586 621
f 621 586 624
f 714 624 728
f 742 627 630
f 572 519 571
f 572 571 610
f 571 609 610
f 572 613 575
f 572 610 613
f 520 519 572
f 609 658 610
f 610 658 659
f 610 659 613
f 673 613 659
f 797 796 811
f 796 810 811
f 767 766 752
f 764 750 751
f 765 764 751
f 766 765 751
f 766 751 752
f 767 752 753
f 763 749 750
f 764 763 750
f 735 750 749
f 750 737 751
f 750 736 737
f 751 737 752
f 737 738 752
f 763 762 748
f 763 748 749
f 615 618 700
f 686 615 700
f 658 609 612
f 672 658 612
f 698 684 685
f 683 684 698
f 683 698 697
f 672 612 686
f 612 615 686
f 782 783 657
f 657 656 782
f 670 656 657
f 670 657 671
f 684 670 671
f 684 671 685
f 655 782 656
f 671 672 686
f 685 671 686
f 671 657 658
f 671 658 672
f 659 658 785
f 785 658 784
f 658 657 783
f 658 783 784
f 685 686 700
f 699 685 700
f 647 646 772
f 647 772 773
f 648 773 774
f 648 647 773
f 641 640 767
f 767 640 766
f 769 768 754
f 769 754 755
f 753 739 740
f 753 740 754
f 799 798 812
f 799 812 813
f 673 659 785
f 673 785 799
f 615 577 618
f 577 580 618
f 727 728 742
f 741 727 742
f 574 577 615
f 612 574 615
f 609 571 574
f 609 574 612
f 742 630 756
f 662 648 649
f 662 649 663
f 664 649 650
f 661 647 648
f 663 649 664
f 670 669 656
f 655 656 669
f 799 784 798
f 785 784 799
f 654 655 669
f 668 654 669
f 655 781 782
f 780 781 654
f 654 781 655
f 667 668 682
f 798 784 797
f 784 783 797
f 728 713 714
f 727 713 728
f 726 712 713
f 726 713 727
f 712 697 698
f 711 697 712
f 698 685 699
f 712 698 699
f 712 699 713
f 713 699 714
f 713 699 700
f 713 700 714
f 653 652 778
f 778 779 653
f 797 782 796
f 783 782 797
f 770 769 755
f 770 755 756
f 644 643 769
f 644 769 770
f 769 642 768
f 643 642 769
f 708 694 695
f 708 695 709
f 694 681 695
f 695 681 682
f 695 682 696
f 694 680 681
f 741 742 755
f 755 742 756
f 740 741 754
f 755 754 741
f 740 726 727
f 740 727 741
f 678 664 665
f 665 679 678
f 663 664 677
f 677 664 678
f 707 693 694
f 708 707 694
f 692 693 707
f 706 692 707
f 665 666 679
f 680 679 666
f 721 707 708
f 722 721 708
f 720 706 707
f 720 707 721
f 719 720 734
f 709 695 696
f 709 696 710
f 709 710 724
f 723 709 724
f 722 708 709
f 722 709 723
f 691 692 706
f 705 691 706
f 734 735 748
f 748 735 749
f 720 735 734
f 720 721 735
f 775 774 789
f 774 788 789
f 750 735 736
f 735 721 722
f 735 722 736
f 653 779 654
f 654 779 780
f 667 653 654
f 667 654 668
f 648 774 649
f 649 774 775
f 776 649 775
f 649 776 650
f 650 776 651
f 650 651 665
f 664 650 665
f 665 651 666
f 666 651 652
f 679 693 678
f 678 693 692
f 677 692 691
f 692 677 678
f 767 753 754
f 768 767 754
f 651 778 652
f 651 777 778
f 651 776 777
f 666 653 667
f 666 652 653
f 683 669 684
f 684 669 670
f 682 683 697
f 696 682 697
f 738 739 752
f 752 739 753
f 679 680 693
f 693 680 694
f 740 725 726
f 725 711 712
f 725 712 726
f 710 711 725
f 724 710 725
f 719 705 720
f 705 706 720
f 737 723 738
f 738 723 724
f 681 667 668
f 681 668 682
f 777 791 778
f 666 667 681
f 680 666 681
f 777 776 791
f 791 776 790
f 710 697 711
f 710 696 697
f 682 669 683
f 668 669 682
f 722 723 737
f 736 722 737
f 738 725 739
f 776 789 790
f 776 775 789
f 725 740 739
f 738 724 725
f 482 450 485
f 450 453 485
f 537 482 485
f 482 537 534
f 586 589 624
f 627 624 589
f 624 742 728
f 742 624 627
f 589 534 537
f 586 534 589
f 159 172 173
f 225 260 263
f 266 265 269
f 265 268 269
f 263 262 266
f 266 262 265
f 228 225 263
f 228 263 266
f 352 384 416
f 231 228 266
f 269 231 266
f 160 111 159
f 159 173 174
f 160 159 174
f 140 83 143
f 236 212 250
f 233 195 236
f 274 288 331
f 317 274 331
f 236 198 212
f 236 250 274
f 274 250 288
f 195 198 236
f 212 160 174
f 198 160 212
f 195 160 198
f 195 146 160
f 97 111 160
f 146 97 160
f 143 83 97
f 143 97 146
f 192 146 195
f 192 143 146
f 453 418 421
f 418 453 450
f 230 195 233
f 311 268 271
f 271 268 230
f 271 230 233
f 230 192 195
f 386 357 389
f 386 354 357
f 386 389 421
f 418 386 421
f 354 311 314
f 354 314 357
f 314 311 271
f 450 418 482
f 253 215 256
f 215 218 256
f 224 189 227
f 186 189 224
f 186 140 189
f 186 137 140
f 224 183 186
f 69 83 140
f 221 183 224
f 189 192 230
f 227 189 230
f 189 140 192
f 192 140 143
f 55 69 140
f 137 55 140
f 128 27 131
f 13 27 128
f 27 41 131
f 131 41 134
f 218 183 221
f 218 180 183
f 134 137 183
f 183 137 186
f 131 134 183
f 131 183 180
f 128 131 180
f 180 218 215
f 215 177 180
f 137 41 55
f 134 41 137
f 257 259 260
f 257 256 259
f 225 222 260
f 256 218 259
f 259 218 221
f 221 224 262
f 260 259 263
f 263 259 262
f 259 221 262
f 309 265 268
f 309 268 311
f 224 227 262
f 265 227 268
f 268 227 230
f 262 227 265
f 352 311 354
f 309 311 352
f 271 274 317
f 314 271 317
f 233 236 274
f 271 233 274
f 357 317 360
f 360 331 363
f 360 317 331
f 357 314 317
f 389 357 360
f 392 389 360
f 389 392 424
f 389 424 421
f 110 159 111
f 453 421 456
f 421 424 456
f 253 256 257
f 253 257 254
f 216 253 254
f 216 215 253
f 384 386 418
f 416 384 418
f 448 416 418
f 448 418 450
f 409 410 378
f 377 378 410
f 409 377 410
f 276 238 290
f 333 276 290
f 319 333 365
f 290 276 277
f 290 277 291
f 334 290 291
f 333 290 334
f 362 319 365
f 545 544 559
f 544 558 559
f 563 510 511
f 562 510 563
f 563 511 512
f 508 509 561
f 560 508 561
f 510 561 509
f 561 510 562
f 559 507 508
f 559 508 560
f 545 559 560
f 545 560 546
f 560 561 547
f 439 440 472
f 439 472 471
f 438 439 471
f 470 438 471
f 469 470 512
f 512 470 513
f 542 490 504
f 556 542 504
f 462 429 430
f 461 429 462
f 430 398 431
f 431 398 399
f 465 433 466
f 466 433 434
f 400 401 432
f 432 401 433
f 431 432 463
f 463 432 464
f 401 402 434
f 401 434 433
f 467 468 511
f 510 467 511
f 465 466 509
f 465 509 508
f 438 406 407
f 438 407 439
f 437 406 438
f 437 405 406
f 435 404 436
f 435 403 404
f 468 436 437
f 469 468 437
f 406 374 375
f 406 375 407
f 398 366 399
f 366 367 399
f 403 371 404
f 371 372 404
f 335 293 336
f 292 293 335
f 291 292 334
f 334 292 335
f 371 338 339
f 370 338 371
f 472 440 441
f 473 441 442
f 474 473 442
f 473 474 517
f 516 473 517
f 516 517 474
f 472 441 473
f 441 409 410
f 441 410 442
f 462 430 431
f 462 431 463
f 367 335 368
f 400 368 369
f 400 369 401
f 367 368 400
f 399 367 400
f 291 278 292
f 277 278 291
f 366 334 367
f 334 335 367
f 542 556 543
f 543 556 557
f 557 558 543
f 543 558 544
f 557 505 506
f 558 507 559
f 506 507 558
f 557 506 558
f 505 556 504
f 556 505 557
f 458 426 429
f 458 429 461
