v -0.370513 0.015070 -0.235426 0.0102 0.0870 0.1785
v -0.236649 0.080543 -0.080890 0.0074 0.1113 0.2209
v -0.238817 0.085497 0.036547 0.0006 0.1583 0.3134
v -0.238324 0.085495 0.074753 0.0035 0.0938 0.1910
v -0.310221 0.000000 0.174877 0.0048 0.0678 0.1337
v -0.342390 0.133372 -0.239541 0.0097 0.0666 0.1408
v -0.323946 0.123830 -0.135612 0.0048 0.1036 0.2015
v -0.359167 0.133195 -0.030927 0.0000 0.1108 0.2138
v -0.359111 0.136168 0.066218 0.0025 0.0490 0.1011
v -0.373315 0.221274 0.210324 0.0061 0.0618 0.1263
v -0.357960 0.224415 -0.239094 0.5000 0.5000 0.5000
v -0.372188 0.333286 0.211943 0.5000 0.5000 0.5000
v -0.320613 0.447490 -0.144675 0.4171 0.5634 0.6228
v -0.320520 0.449535 -0.062808 0.1139 0.2357 0.3110
v -0.320479 0.448345 -0.039327 0.0840 0.2087 0.2974
v -0.318916 0.448940 0.065661 0.0492 0.1633 0.2502
v -0.317458 0.440913 0.173168 0.0039 0.0892 0.1605
v -0.242531 0.448545 0.299382 0.3653 0.3926 0.4120
v -0.256901 0.562383 -0.202666 0.2705 0.3456 0.3628
v -0.320600 0.558911 -0.081987 0.2143 0.2770 0.3013
v -0.320584 0.491753 -0.036359 0.2039 0.2567 0.3140
v -0.317119 0.485175 0.121732 0.1308 0.1733 0.2450
v -0.308485 0.450724 0.210863 0.0542 0.1147 0.1717
v -0.301494 0.532782 0.269825 0.2664 0.2944 0.3177
v -0.240640 0.574406 -0.208049 0.2049 0.1857 0.1497
v -0.320620 0.565896 -0.073840 0.2042 0.1790 0.1457
v -0.317939 0.593248 0.061057 0.3086 0.3899 0.4664
v -0.317355 0.564666 0.086984 0.0436 0.0883 0.1546
v -0.371609 0.589272 0.191027 0.1163 0.2391 0.3461
v -0.246898 0.569723 0.304860 0.1631 0.2692 0.3400
v -0.325735 0.783896 -0.232840 0.0118 0.0680 0.1242
v -0.386350 0.740641 -0.048512 0.0547 0.1323 0.1967
v -0.386383 0.730179 -0.033795 0.1601 0.2612 0.3399
v -0.332720 0.759026 0.066593 0.3296 0.3917 0.4293
v -0.386345 0.726629 0.169705 0.2541 0.3023 0.3386
v -0.252614 0.867640 -0.222044 0.5000 0.5000 0.5000
v -0.239254 0.793030 -0.043240 0.4843 0.6080 0.7002
v -0.241825 0.793520 -0.038806 0.4453 0.5869 0.6943
v -0.121855 0.080511 -0.142899 0.0111 0.0757 0.1631
v -0.109900 0.080509 -0.088490 0.0037 0.1415 0.2602
v -0.130170 0.080496 -0.038417 0.0018 0.2403 0.4775
v -0.089224 0.080522 0.067989 0.0016 0.1518 0.2869
v -0.156728 0.085486 0.167141 0.0042 0.1018 0.2058
v -0.235466 0.138209 -0.208862 0.0167 0.0947 0.2136
v -0.150717 0.111103 0.180882 0.0067 0.0612 0.1225
v -0.179788 0.449535 -0.225635 0.2891 0.3579 0.3569
v -0.088632 0.442481 -0.046547 0.0018 0.1198 0.2018
v -0.087746 0.442478 -0.014834 0.0000 0.1231 0.2076
v -0.092969 0.442516 0.165724 0.0000 0.1232 0.2099
v -0.093166 0.442542 0.206006 0.0000 0.1030 0.1815
v -0.219305 0.429686 0.281575 0.2385 0.3193 0.3627
v -0.090013 0.533971 -0.228722 0.1938 0.2063 0.1870
v -0.087845 0.482284 -0.044320 0.0007 0.0007 0.0021
v -0.165351 0.482307 0.049991 0.0055 0.0056 0.0135
v -0.176955 0.482313 0.065223 0.0194 0.1621 0.3139
v -0.197329 0.482330 0.170649 0.0029 0.1021 0.2029
v -0.088017 0.518139 0.302636 0.2903 0.3005 0.3184
v -0.086378 0.600699 -0.207843 0.4546 0.4724 0.4269
v -0.207085 0.567270 0.304738 0.7390 0.4128 0.3994
v -0.085627 0.720445 -0.160037 0.0941 0.0580 0.0949
v -0.091713 0.720435 -0.141060 0.1841 0.2700 0.3476
v -0.086231 0.720427 -0.028295 0.1314 0.2298 0.3061
v -0.111069 0.770631 0.147024 0.0612 0.1080 0.1542
v -0.092870 0.720480 0.213158 0.3291 0.3730 0.3937
v -0.091047 0.867480 -0.223124 0.2385 0.0252 0.0374
v -0.088911 0.795812 -0.054568 0.4203 0.4937 0.5895
v -0.089200 0.803022 -0.023350 0.5305 0.7023 0.8110
v -0.084690 0.080535 -0.143303 0.1307 0.2579 0.3683
v -0.084690 0.080552 -0.111844 0.1146 0.2945 0.3986
v -0.084889 0.080533 -0.038214 0.2839 0.4820 0.5539
v -0.084889 0.080521 0.069406 0.1074 0.2425 0.3397
v 0.017748 0.085491 0.169097 0.0012 0.1033 0.2122
v -0.048500 0.112231 -0.204682 0.0927 0.2104 0.3014
v -0.080208 0.110246 0.180749 0.0015 0.0874 0.1891
v 0.061454 0.449535 -0.225652 0.3660 0.4063 0.3724
v -0.063010 0.442440 -0.100593 0.0000 0.1256 0.2116
v 0.056723 0.442496 0.063400 0.0000 0.1169 0.2014
v 0.062931 0.442487 0.091571 0.0000 0.1244 0.2162
v 0.061601 0.442497 0.170514 0.0000 0.1006 0.1785
v -0.047490 0.450464 0.299489 0.2397 0.1941 0.2276
v 0.035906 0.562606 -0.229772 0.4349 0.3643 0.2462
v 0.064447 0.482271 -0.066945 0.0018 0.0018 0.0026
v 0.060299 0.482295 0.058677 0.0619 0.0326 0.0704
v 0.059383 0.482307 0.161743 0.0368 0.1942 0.3772
v 0.059186 0.482292 0.262143 0.0534 0.2552 0.4846
v 0.064754 0.482297 0.271370 0.5083 0.3592 0.3536
v 0.048741 0.566197 -0.229878 0.5560 0.6963 0.7176
v -0.070488 0.585540 0.305554 0.8381 0.3712 0.3065
v 0.059383 0.720424 -0.147554 0.2248 0.0833 0.1069
v 0.064016 0.720419 -0.107272 0.3216 0.2468 0.1489
v 0.063967 0.720419 0.054157 0.2973 0.3088 0.3033
v 0.035474 0.720426 0.165277 0.1097 0.1333 0.1696
v 0.046363 0.720503 0.214811 0.0901 0.0591 0.0739
v 0.044405 0.867477 -0.223124 0.1877 0.1265 0.1562
v 0.064812 0.794219 -0.047507 0.4469 0.3894 0.3420
v 0.063198 0.799317 -0.039449 0.5977 0.5035 0.3477
v 0.141769 0.088599 -0.202118 0.0478 0.1339 0.2274
v 0.069238 0.080513 -0.097354 0.0889 0.2479 0.3669
v 0.067662 0.080494 0.004801 0.2495 0.4308 0.5283
v 0.070864 0.085479 0.067457 0.1620 0.2926 0.3776
v 0.065740 0.085478 0.167647 0.0128 0.1120 0.2124
v 0.155368 0.118032 -0.236329 0.2136 0.3789 0.4626
v 0.070815 0.110525 0.180790 0.0000 0.0920 0.1977
v 0.154383 0.450129 -0.225670 0.1170 0.2482 0.3232
v 0.206095 0.442419 -0.040457 0.0010 0.1190 0.2019
v 0.209864 0.442418 0.017891 0.0000 0.1184 0.2024
v 0.155072 0.442458 0.064582 0.0000 0.1153 0.1983
v 0.081262 0.442495 0.169882 0.0030 0.0887 0.1594
v 0.118401 0.442551 0.272433 0.2949 0.1313 0.1490
v 0.144921 0.533971 -0.228727 0.2533 0.3371 0.3657
v 0.081163 0.482275 -0.041789 0.0855 0.0011 0.0013
v 0.127553 0.482301 0.053727 0.3548 0.0007 0.0025
v 0.070815 0.482298 0.166061 0.3105 0.0194 0.0483
v 0.150145 0.482286 0.269566 0.1293 0.0371 0.0893
v 0.126986 0.483653 0.280267 0.6729 0.2554 0.1963
v 0.214299 0.566081 -0.229897 0.1160 0.1639 0.1946
v 0.140980 0.597219 0.308207 0.5659 0.2263 0.1797
v 0.098365 0.720437 -0.143647 0.2865 0.3621 0.4338
v 0.114052 0.720435 -0.137787 0.5637 0.3626 0.2414
v 0.212327 0.720451 -0.035953 0.3193 0.2620 0.2205
v 0.164563 0.720439 0.159365 0.2354 0.2794 0.3292
v 0.162365 0.720436 0.178240 0.0738 0.1164 0.1694
v 0.065247 0.867087 -0.225462 0.5582 0.6510 0.7529
v 0.205241 0.893681 -0.052288 0.8180 0.4704 0.1987
v 0.203902 0.900000 0.008157 0.6039 0.3748 0.2020
v 0.274072 0.106884 -0.153188 0.0076 0.1098 0.2061
v 0.273043 0.093903 -0.041622 0.0143 0.1450 0.2708
v 0.272905 0.092166 -0.037977 0.2136 0.3357 0.4164
v 0.273508 0.099785 0.067534 0.2250 0.3262 0.3909
v 0.217945 0.093950 0.178979 0.0809 0.1710 0.2641
v 0.274359 0.110005 -0.149174 0.0136 0.0702 0.1532
v 0.276228 0.134872 -0.050663 0.0120 0.0908 0.1986
v 0.309960 0.129702 0.013336 0.0121 0.1170 0.2460
v 0.274387 0.110934 0.064885 0.0765 0.1579 0.2679
v 0.281228 0.119519 0.171459 0.1659 0.2291 0.2820
v 0.329704 0.234913 -0.234459 0.5000 0.5000 0.5000
v 0.274215 0.226551 0.217241 0.5000 0.5000 0.5000
v 0.329331 0.431621 -0.220628 0.1903 0.3258 0.4113
v 0.217108 0.442416 -0.041486 0.4196 0.5583 0.6350
v 0.218634 0.442415 0.014652 0.5887 0.6833 0.6800
v 0.218561 0.442431 0.119100 0.0802 0.2098 0.2966
v 0.329292 0.383532 0.212947 0.0215 0.1069 0.1754
v 0.223242 0.442549 0.271943 0.0706 0.0635 0.0947
v 0.327290 0.460535 -0.236796 0.4211 0.4115 0.3488
v 0.248798 0.488259 -0.138850 0.2249 0.1969 0.1963
v 0.243131 0.483650 0.060904 0.2958 0.2339 0.2457
v 0.239571 0.485807 0.164982 0.2343 0.1562 0.2098
v 0.239243 0.485718 0.172306 0.1244 0.2228 0.2877
v 0.219030 0.482416 0.277797 0.1624 0.0933 0.1119
v 0.324029 0.677573 -0.238470 0.3696 0.3515 0.2912
v 0.277686 0.565189 -0.043645 0.4545 0.3618 0.2283
v 0.277377 0.567029 -0.023235 0.3130 0.4400 0.4873
v 0.274230 0.565449 0.077975 0.1436 0.2499 0.3171
v 0.330214 0.677722 0.193320 0.1336 0.2542 0.3355
v 0.257705 0.572243 0.270777 0.3402 0.2516 0.2886
v 0.217649 0.720449 -0.143911 0.0838 0.1383 0.1880
v 0.316984 0.720473 -0.041756 0.4940 0.3563 0.2734
v 0.343815 0.741197 0.060938 0.3573 0.2360 0.1125
v 0.343881 0.757549 0.139072 0.0377 0.1300 0.1956
v 0.343849 0.728413 0.192460 0.1522 0.2282 0.2923
v 0.219226 0.867460 -0.223394 0.5000 0.5000 0.5000
v 0.288195 0.886881 -0.093517 0.8680 0.5765 0.3699
v 0.325035 0.844709 0.062962 0.8204 0.4268 0.0833
v 0.288783 0.864987 0.099296 0.5000 0.5000 0.5000
v 0.327437 0.803743 0.198745 0.5000 0.5000 0.5000
f 119 156 157
f 120 119 157
f 90 118 119
f 89 118 90
f 61 60 89
f 61 89 90
f 119 118 156
f 144 110 150
f 110 116 150
f 110 81 87
f 110 87 116
f 93 92 122
f 122 92 121
f 92 120 121
f 92 91 120
f 121 159 122
f 122 159 160
f 61 90 91
f 62 61 91
f 120 158 159
f 120 159 121
f 120 157 158
f 91 90 120
f 120 90 119
f 106 105 139
f 106 139 140
f 78 77 106
f 78 106 107
f 145 111 112
f 146 145 112
f 144 110 145
f 110 111 145
f 111 82 83
f 111 83 112
f 147 112 113
f 146 112 147
f 114 115 148
f 148 115 149
f 114 85 86
f 114 86 115
f 112 83 113
f 83 84 113
f 148 113 114
f 147 113 148
f 113 85 114
f 110 81 82
f 110 82 111
f 40 68 69
f 70 69 99
f 99 69 98
f 42 41 70
f 42 70 71
f 70 40 69
f 41 40 70
f 1 39 40
f 1 40 2
f 81 52 58
f 81 58 87
f 25 52 58
f 25 19 52
f 126 127 132
f 131 126 132
f 70 71 100
f 99 70 100
f 71 42 43
f 72 71 43
f 71 72 101
f 71 101 100
f 127 98 99
f 127 99 128
f 133 128 134
f 132 127 128
f 132 128 133
f 69 70 98
f 98 70 99
f 1 6 2
f 2 6 7
f 42 3 4
f 41 3 42
f 2 3 41
f 40 2 41
f 68 69 98
f 97 68 98
f 97 98 127
f 126 97 127
f 44 39 68
f 44 68 73
f 1 39 44
f 6 1 44
f 99 100 129
f 128 99 129
f 39 1 2
f 39 2 40
f 68 39 40
f 50 78 79
f 79 78 107
f 79 107 108
f 49 78 50
f 86 115 88
f 88 115 117
f 59 57 86
f 59 86 88
f 30 24 59
f 59 24 57
f 24 18 57
f 57 18 51
f 57 51 86
f 86 51 80
f 23 17 18
f 23 18 24
f 18 17 51
f 51 17 50
f 51 50 79
f 51 79 80
f 155 117 115
f 155 115 149
f 115 109 149
f 109 143 149
f 149 148 155
f 148 154 155
f 155 149 117
f 154 149 155
f 115 117 149
f 143 142 148
f 143 148 149
f 108 142 143
f 108 143 109
f 79 108 109
f 79 109 80
f 80 109 115
f 86 80 115
f 108 107 141
f 108 141 142
f 106 140 141
f 106 141 107
f 100 101 130
f 129 100 130
f 72 43 45
f 72 45 74
f 101 74 103
f 72 74 101
f 6 1 7
f 1 2 7
f 9 3 4
f 8 3 9
f 5 4 9
f 10 5 9
f 4 5 43
f 42 4 43
f 5 10 43
f 43 10 45
f 8 2 3
f 7 2 8
f 4 3 8
f 4 8 9
f 3 7 8
f 2 7 3
f 68 39 73
f 39 44 73
f 126 97 102
f 126 102 131
f 97 68 73
f 97 73 102
f 97 68 102
f 68 73 102
f 6 1 39
f 98 97 126
f 98 126 127
f 6 39 44
f 102 97 131
f 131 97 126
f 133 128 127
f 127 132 133
f 132 131 127
f 131 126 127
f 128 129 134
f 129 130 135
f 134 129 135
f 130 103 135
f 101 103 130
f 99 128 100
f 129 100 128
f 71 70 99
f 71 99 100
f 101 100 129
f 130 101 129
f 101 103 135
f 130 101 135
f 128 133 129
f 134 129 133
f 5 4 42
f 5 42 43
f 10 5 45
f 45 5 43
f 42 71 72
f 43 42 72
f 101 72 103
f 72 74 103
f 43 45 74
f 72 43 74
f 157 119 124
f 157 124 162
f 63 64 35
f 31 60 32
f 32 60 61
f 63 93 64
f 63 92 93
f 62 32 61
f 33 32 62
f 62 91 63
f 63 91 92
f 33 62 63
f 34 33 63
f 154 148 149
f 148 147 153
f 148 153 154
f 145 144 151
f 151 144 150
f 139 138 145
f 138 144 145
f 146 145 152
f 145 151 152
f 140 139 145
f 146 140 145
f 153 146 147
f 152 146 153
f 151 145 146
f 151 146 152
f 147 154 153
f 147 148 154
f 150 144 145
f 151 150 145
f 142 147 148
f 141 147 142
f 116 110 144
f 150 116 144
f 147 140 146
f 141 140 147
f 94 65 60
f 89 65 94
f 94 60 89
f 60 65 89
f 124 119 90
f 124 95 96
f 90 95 124
f 123 94 118
f 89 118 94
f 120 158 163
f 125 120 163
f 124 96 125
f 157 118 119
f 156 118 157
f 160 121 122
f 159 121 160
f 90 91 96
f 95 90 96
f 96 91 125
f 120 119 125
f 119 124 125
f 91 120 125
f 66 67 96
f 95 66 96
f 67 91 96
f 62 91 67
f 90 61 95
f 61 66 95
f 138 104 144
f 104 110 144
f 105 138 139
f 104 138 105
f 77 76 105
f 77 105 106
f 75 104 76
f 76 104 105
f 48 77 78
f 49 48 78
f 17 16 50
f 16 49 50
f 104 75 110
f 75 81 110
f 48 47 76
f 48 76 77
f 47 46 76
f 46 75 76
f 14 13 46
f 14 46 47
f 49 16 48
f 15 48 16
f 14 48 15
f 14 47 48
f 19 25 58
f 52 19 58
f 46 52 81
f 75 46 81
f 46 19 52
f 46 13 19
f 19 26 25
f 19 20 26
f 15 16 21
f 21 16 22
f 20 13 14
f 19 13 20
f 20 14 21
f 14 15 21
f 34 63 35
f 22 23 29
f 28 22 29
f 22 16 17
f 22 17 23
f 56 57 86
f 85 56 86
f 52 19 53
f 19 20 53
f 82 52 53
f 52 82 81
f 21 20 26
f 21 26 27
f 20 21 54
f 53 20 54
f 54 55 83
f 83 55 84
f 53 54 83
f 82 53 83
f 84 55 85
f 55 56 85
f 29 23 30
f 23 24 30
f 113 84 85
f 59 57 30
f 57 24 30
f 55 21 22
f 54 21 55
f 22 23 56
f 55 22 56
f 23 24 57
f 56 23 57
f 22 21 28
f 21 27 28
f 26 20 27
f 20 21 27
f 21 22 27
f 28 27 22
f 121 92 93
f 121 93 122
f 67 61 62
f 32 37 38
f 38 33 32
f 61 33 62
f 32 33 61
f 66 61 67
f 120 91 121
f 91 92 121
f 34 35 64
f 63 34 64
f 92 63 64
f 92 64 93
f 90 91 95
f 95 91 96
f 118 89 119
f 89 90 119
f 38 37 33
f 32 33 37
