mtllib P-03_tex.mtl
v 0.004664 0.548388 -0.945309
v -0.338008 0.993312 -0.764539
v -0.080226 0.952801 -0.800942
v 0.028554 0.548291 -0.945355
v 0.301521 1.067489 -0.840435
v -0.468828 0.560189 -0.647213
v -0.080226 0.952801 -0.800942
v -0.468828 0.560189 -0.647213
v 0.004664 0.548388 -0.945309
v 0.301521 1.067489 -0.840435
v 0.028554 0.548291 -0.945355
v -0.338008 0.993312 -0.764539
v -0.444085 0.850665 0.258262
v -0.439181 1.120547 -0.032448
v -0.260575 1.145055 0.490976
v -0.442736 0.815718 0.016586
v -0.443540 0.817713 -0.335595
v -0.468446 0.556954 -0.629562
v -0.443659 0.821779 -0.388160
v -0.438665 0.686335 -0.045158
v -0.433104 0.486035 -0.050434
v -0.434905 0.539228 0.203187
v -0.436417 0.607593 0.102491
v -0.467226 0.525429 -0.546321
v -0.467341 0.523147 -0.648155
v -0.468828 0.560189 -0.647213
v -0.338008 0.993312 -0.764539
v -0.264762 1.144567 -0.556208
v -0.278376 1.142812 -0.335673
v -0.306031 1.138868 -0.653353
v -0.438665 0.686335 -0.045158
v -0.433104 0.486035 -0.050434
v -0.436417 0.607593 0.102491
v -0.442736 0.815718 0.016586
v -0.443540 0.817713 -0.335595
v -0.434905 0.539228 0.203187
v -0.278376 1.142812 -0.335673
v -0.439181 1.120547 -0.032448
v -0.260575 1.145055 0.490976
v -0.444085 0.850665 0.258262
v -0.443540 0.817713 -0.335595
v -0.278376 1.142812 -0.335673
v -0.439181 1.120547 -0.032448
v -0.442736 0.815718 0.016586
v -0.436417 0.607593 0.102491
v -0.468446 0.556954 -0.629562
v -0.468828 0.560189 -0.647213
v -0.467226 0.525429 -0.546321
v -0.467341 0.523147 -0.648155
v -0.443659 0.821779 -0.388160
v -0.338008 0.993312 -0.764539
v -0.306031 1.138868 -0.653353
v -0.443540 0.817713 -0.335595
v -0.278376 1.142812 -0.335673
v -0.264762 1.144567 -0.556208
v -0.438665 0.686335 -0.045158
v -0.443540 0.817713 -0.335595
v -0.436417 0.607593 0.102491
v 0.103037 1.177042 -0.301779
v 0.472139 1.228507 0.245592
v 0.464435 1.252931 -0.045629
v -0.260575 1.145055 0.490976
v -0.439181 1.120547 -0.032448
v -0.101308 1.169611 0.088685
v -0.278376 1.142812 -0.335673
v -0.078451 1.166658 -0.305897
v -0.111091 1.147013 0.261911
v 0.029169 1.184030 0.332520
v 0.302830 1.218818 -0.004206
v 0.438449 1.300000 0.530066
v 0.472139 1.228507 0.245592
v -0.078451 1.166658 -0.305897
v -0.278376 1.142812 -0.335673
v -0.439181 1.120547 -0.032448
v -0.101308 1.169611 0.088685
v 0.472139 1.228507 0.245592
v 0.302830 1.218818 -0.004206
v 0.029169 1.184030 0.332520
v 0.438449 1.300000 0.530066
v -0.111091 1.147013 0.261911
v -0.439181 1.120547 -0.032448
v -0.260575 1.145055 0.490976
v -0.101308 1.169611 0.088685
v 0.174580 1.203883 -0.649409
v -0.058568 1.172503 -0.653373
v -0.107930 1.165877 -0.395219
v -0.264762 1.144567 -0.556208
v -0.278376 1.142812 -0.335673
v -0.306031 1.138868 -0.653353
v -0.078451 1.166658 -0.305897
v -0.107930 1.165877 -0.395219
v -0.078451 1.166658 -0.305897
v 0.103037 1.177042 -0.301779
v 0.034396 1.184939 -0.612689
v 0.413982 1.298514 -0.366711
v 0.464435 1.252931 -0.045629
v -0.078451 1.166658 -0.305897
v 0.034396 1.184939 -0.612689
v 0.103037 1.177042 -0.301779
v -0.107930 1.165877 -0.395219
v 0.464435 1.252931 -0.045629
v 0.302830 1.218818 -0.004206
v 0.472139 1.228507 0.245592
v 0.413982 1.298514 -0.366711
v -0.278376 1.142812 -0.335673
v -0.264762 1.144567 -0.556208
v -0.078451 1.166658 -0.305897
v -0.107930 1.165877 -0.395219
v -0.058568 1.172503 -0.653373
v 0.034396 1.184939 -0.612689
v -0.306031 1.138868 -0.653353
v 0.174580 1.203883 -0.649409
v 0.472139 1.228507 0.245592
v 0.103037 1.177042 -0.301779
v 0.302830 1.218818 -0.004206
v -0.101308 1.169611 0.088685
v 0.302830 1.218818 -0.004206
v 0.029169 1.184030 0.332520
v -0.078451 1.166658 -0.305897
v 0.103037 1.177042 -0.301779
v -0.111091 1.147013 0.261911
v 0.021207 1.183147 0.612119
v 0.074631 1.190248 0.565370
v -0.111091 1.147013 0.261911
v 0.021207 1.183147 0.612119
v 0.074631 1.190248 0.565370
v 0.029169 1.184030 0.332520
v 0.023099 0.748779 0.773947
v -0.427341 0.689187 0.773901
v 0.006145 0.535521 0.772640
v -0.261265 0.526141 0.772606
v -0.434905 0.539228 0.203187
v -0.428563 0.255663 0.348151
v -0.436536 0.532845 0.426978
v -0.426785 0.259462 -0.006873
v 0.006145 0.535521 0.772640
v 0.023099 0.748779 0.773947
v 0.030777 0.753576 0.773973
v -0.261265 0.526141 0.772606
v -0.427341 0.689187 0.773901
v -0.172115 0.249209 0.769763
v 0.302743 0.327147 0.770482
v 0.277067 0.266184 0.769745
v 0.463930 0.442122 0.771775
v -0.442702 0.817570 0.769575
v -0.077263 0.823276 0.774490
v 0.319150 0.552567 0.772809
v 0.563437 1.055358 0.763389
v 0.194889 1.041813 0.850214
v -0.429683 0.237049 0.559250
v 0.476744 0.140280 0.568507
v -0.178947 0.815444 0.868399
v 0.319150 0.552567 0.772809
v 0.523946 1.066729 0.258144
v 0.563437 1.055358 0.763389
v 0.543274 0.811969 0.263480
v -0.429683 0.237049 0.559250
v -0.428563 0.255663 0.348151
v -0.436536 0.532845 0.426978
v -0.426785 0.259462 -0.006873
v -0.434905 0.539228 0.203187
v -0.261265 0.526141 0.772606
v 0.307157 0.061333 0.003326
v -0.104670 0.065221 0.311409
v 0.169027 0.126311 0.529263
v 0.537479 0.234827 0.247107
v 0.537681 0.240704 0.260342
v 0.277067 0.266184 0.769745
v -0.172115 0.249209 0.769763
v -0.429683 0.237049 0.559250
v -0.428563 0.255663 0.348151
v -0.140097 0.126293 0.249357
v -0.426785 0.259462 -0.006873
v -0.426713 0.255432 -0.073716
v -0.191996 0.078086 -0.051905
v 0.476744 0.140280 0.568507
v 0.538801 0.267281 0.263951
v 0.537681 0.240704 0.260342
v 0.463930 0.442122 0.771775
v 0.476744 0.140280 0.568507
v 0.319150 0.552567 0.772809
v 0.543274 0.811969 0.263480
v 0.563437 1.055358 0.763389
v 0.523946 1.066729 0.258144
v 0.516154 0.523146 0.070011
v 0.543484 0.806425 0.243640
v 0.169027 0.126311 0.529263
v 0.476744 0.140280 0.568507
v 0.277067 0.266184 0.769745
v 0.537681 0.240704 0.260342
v 0.307157 0.061333 0.003326
v 0.537479 0.234827 0.247107
v 0.516154 0.523146 0.070011
v 0.543484 0.806425 0.243640
v 0.538801 0.267281 0.263951
v 0.543274 0.811969 0.263480
v 0.302743 0.327147 0.770482
v 0.030777 0.753576 0.773973
v 0.095778 0.566510 0.961047
v -0.261265 0.526141 0.772606
v -0.429683 0.237049 0.559250
v -0.172115 0.249209 0.769763
v 0.006145 0.535521 0.772640
v -0.428563 0.255663 0.348151
v -0.436536 0.532845 0.426978
v -0.426785 0.259462 -0.006873
v -0.191996 0.078086 -0.051905
v -0.140097 0.126293 0.249357
v -0.426713 0.255432 -0.073716
v 0.030777 0.753576 0.773973
v 0.194889 1.041813 0.850214
v 0.095778 0.566510 0.961047
v 0.095778 0.566510 0.961047
v -0.039189 0.566157 0.960344
v 0.025387 0.512048 0.913739
v -0.039743 0.538097 0.936324
v 0.302743 0.327147 0.770482
v -0.178947 0.815444 0.868399
v 0.105482 0.821064 0.859746
v 0.194889 1.041813 0.850214
v 0.023099 0.748779 0.773947
v -0.039743 0.538097 0.936324
v -0.039189 0.566157 0.960344
v 0.006145 0.535521 0.772640
v -0.178947 0.815444 0.868399
v -0.077263 0.823276 0.774490
v 0.302743 0.327147 0.770482
v -0.442702 0.817570 0.769575
v -0.427341 0.689187 0.773901
v -0.077263 0.823276 0.774490
v 0.023099 0.748779 0.773947
v 0.174580 1.203883 -0.649409
v 0.364391 1.295471 -0.645919
v 0.034396 1.184939 -0.612689
v 0.413982 1.298514 -0.366711
v 0.478353 0.539123 -0.480263
v 0.538001 0.276651 -0.208814
v 0.534541 0.800452 -0.200730
v 0.479546 0.807300 -0.358188
v 0.551010 1.072054 -0.058652
v 0.481075 1.061499 -0.362288
v 0.315489 1.068093 -0.840684
v 0.331929 0.551551 -0.803932
v 0.324077 0.425004 -0.801068
v 0.543484 0.806425 0.243640
v 0.549387 1.065807 0.143772
v 0.354299 0.079195 -0.447312
v 0.314965 0.263741 -0.753087
v 0.430153 0.060164 -0.164878
v 0.537479 0.234827 0.247107
v 0.516154 0.523146 0.070011
v 0.523946 1.066729 0.258144
v 0.543274 0.811969 0.263480
v 0.537479 0.234827 0.247107
v 0.430153 0.060164 -0.164878
v 0.516154 0.523146 0.070011
v 0.538001 0.276651 -0.208814
v 0.354299 0.079195 -0.447312
v 0.314965 0.263741 -0.753087
v 0.478353 0.539123 -0.480263
v 0.324077 0.425004 -0.801068
v 0.534541 0.800452 -0.200730
v 0.549387 1.065807 0.143772
v 0.543484 0.806425 0.243640
v 0.551010 1.072054 -0.058652
v 0.543274 0.811969 0.263480
v 0.523946 1.066729 0.258144
v 0.430153 0.060164 -0.164878
v 0.265961 0.082048 -0.643448
v 0.307098 0.061293 -0.124082
v 0.354299 0.079195 -0.447312
v 0.307098 0.061293 -0.124082
v 0.265961 0.082048 -0.643448
v 0.354299 0.079195 -0.447312
v 0.430153 0.060164 -0.164878
v 0.516154 0.523146 0.070011
v 0.538001 0.276651 -0.208814
v 0.534541 0.800452 -0.200730
v 0.543484 0.806425 0.243640
v 0.538801 0.267281 0.263951
v 0.537479 0.234827 0.247107
v 0.516154 0.523146 0.070011
v 0.537681 0.240704 0.260342
v -0.434905 0.539228 0.203187
v -0.426785 0.259462 -0.006873
v -0.433104 0.486035 -0.050434
v -0.426713 0.255432 -0.073716
v -0.427341 0.689187 0.773901
v -0.441011 0.744178 0.274816
v -0.444085 0.850665 0.258262
v -0.436536 0.532845 0.426978
v -0.436417 0.607593 0.102491
v -0.442736 0.815718 0.016586
v -0.434905 0.539228 0.203187
v -0.442702 0.817570 0.769575
v -0.260575 1.145055 0.490976
v -0.272447 1.143588 0.735538
v -0.261265 0.526141 0.772606
v -0.272447 1.143588 0.735538
v -0.260575 1.145055 0.490976
v -0.111091 1.147013 0.261911
v 0.021207 1.183147 0.612119
v 0.307157 0.061333 0.003326
v -0.191996 0.078086 -0.051905
v 0.307098 0.061293 -0.124082
v -0.259784 0.083924 -0.541065
v 0.265961 0.082048 -0.643448
v -0.140097 0.126293 0.249357
v 0.537479 0.234827 0.247107
v 0.430153 0.060164 -0.164878
v 0.265961 0.082048 -0.643448
v -0.191996 0.078086 -0.051905
v 0.307098 0.061293 -0.124082
v -0.259784 0.083924 -0.541065
v 0.516154 0.523146 0.070011
v 0.538001 0.276651 -0.208814
v 0.543484 0.806425 0.243640
v 0.029169 1.184030 0.332520
v 0.438449 1.300000 0.530066
v 0.379741 1.217506 0.625622
v 0.074631 1.190248 0.565370
v -0.098523 0.539784 -0.938667
v -0.475168 0.000000 -0.801107
v -0.467341 0.523147 -0.648155
v -0.080670 0.051735 -0.684558
v 0.254742 0.180792 -0.796714
v 0.045553 0.539578 -0.938859
v -0.259784 0.083924 -0.541065
v -0.475168 0.000000 -0.801107
v -0.080670 0.051735 -0.684558
v 0.314965 0.263741 -0.753087
v 0.265961 0.082048 -0.643448
v 0.354299 0.079195 -0.447312
v 0.254742 0.180792 -0.796714
v 0.045553 0.539578 -0.938859
v 0.324077 0.425004 -0.801068
v -0.475168 0.000000 -0.801107
v -0.080670 0.051735 -0.684558
v -0.467341 0.523147 -0.648155
v -0.098523 0.539784 -0.938667
v -0.080670 0.051735 -0.684558
v -0.475168 0.000000 -0.801107
v -0.295665 0.002024 -0.645017
v -0.259784 0.083924 -0.541065
v -0.295665 0.002024 -0.645017
v -0.259784 0.083924 -0.541065
v -0.191996 0.078086 -0.051905
v -0.467226 0.525429 -0.546321
v -0.295665 0.002024 -0.645017
v -0.426713 0.255432 -0.073716
v -0.433104 0.486035 -0.050434
v -0.191996 0.078086 -0.051905
v -0.475168 0.000000 -0.801107
v -0.467341 0.523147 -0.648155
v -0.259784 0.083924 -0.541065
v -0.080670 0.051735 -0.684558
v 0.265961 0.082048 -0.643448
v 0.254742 0.180792 -0.796714
v 0.331929 0.551551 -0.803932
v 0.324077 0.425004 -0.801068
v 0.028554 0.548291 -0.945355
v 0.301521 1.067489 -0.840435
v 0.315489 1.068093 -0.840684
v 0.045553 0.539578 -0.938859
v 0.004664 0.548388 -0.945309
v -0.098523 0.539784 -0.938667
v -0.098523 0.539784 -0.938667
v -0.467341 0.523147 -0.648155
v 0.004664 0.548388 -0.945309
v 0.004664 0.548388 -0.945309
v -0.467341 0.523147 -0.648155
v -0.468828 0.560189 -0.647213
vt 0.500103 0.667446
vt 0.571341 0.796018
vt 0.588079 0.734323
vt 0.502560 0.662351
vt 0.653952 0.659734
vt 0.458180 0.796018
vt 0.720612 0.661882
vt 0.656710 0.787168
vt 0.791262 0.745627
vt 0.796415 0.597788
vt 0.796415 0.743207
vt 0.657575 0.678665
vt 0.002817 0.353793
vt 0.078585 0.418142
vt 0.078585 0.282743
vt 0.001379 0.411140
vt 0.501276 0.110750
vt 0.570169 0.041880
vt 0.500882 0.097860
vt 0.529841 0.183216
vt 0.578585 0.184210
vt 0.562811 0.245575
vt 0.547306 0.220191
vt 0.576867 0.062580
vt 0.578585 0.037723
vt 0.569602 0.037530
vt 0.455918 0.003982
vt 0.411521 0.053194
vt 0.410386 0.107096
vt 0.416828 0.029505
vt 0.641755 0.539569
vt 0.642855 0.490708
vt 0.603306 0.520110
vt 0.625902 0.571009
vt 0.717371 0.572058
vt 0.577070 0.503240
vt 0.715376 0.659734
vt 0.638877 0.646043
vt 0.500460 0.659734
vt 0.563195 0.579107
vt 0.827665 0.437699
vt 0.847126 0.520796
vt 0.923254 0.491298
vt 0.915528 0.415871
vt 0.923254 0.361504
vt 0.831680 0.009905
vt 0.827287 0.010708
vt 0.852194 0.002293
vt 0.826518 0.002212
vt 0.895365 0.072250
vt 0.800092 0.121770
vt 0.829202 0.157513
vt 0.908548 0.071077
vt 0.908548 0.159079
vt 0.852668 0.161504
vt 0.989430 0.937821
vt 0.991268 0.860619
vt 0.991268 0.978319
vt 0.063879 0.938496
vt 0.230239 0.938496
vt 0.169161 0.898673
vt 0.829727 0.416372
vt 0.777114 0.292595
vt 0.864430 0.317157
vt 0.813527 0.217257
vt 0.864430 0.221698
vt 0.863711 0.359119
vt 0.976562 0.496903
vt 0.976562 0.603097
vt 0.860754 0.524462
vt 0.903631 0.582617
vt 0.929997 0.596903
vt 0.980150 0.606437
vt 0.993107 0.688938
vt 0.902114 0.688938
vt 0.910452 0.774954
vt 0.982996 0.795133
vt 0.982996 0.689823
vt 0.868107 0.716964
vt 0.929403 0.289074
vt 0.983915 0.382743
vt 0.983915 0.248230
vt 0.912224 0.327937
vt 0.976481 0.119027
vt 0.977482 0.061935
vt 0.912613 0.049843
vt 0.953070 0.011436
vt 0.897653 0.008100
vt 0.977482 0.001327
vt 0.890165 0.056957
vt 0.300867 0.008407
vt 0.285386 0.025725
vt 0.307630 0.063401
vt 0.366268 0.010431
vt 0.366268 0.123099
vt 0.301338 0.172124
vt 0.801930 0.564658
vt 0.727101 0.597788
vt 0.770848 0.532893
vt 0.791191 0.585039
vt 0.750382 0.425508
vt 0.787243 0.446710
vt 0.801930 0.374779
vt 0.699908 0.488050
vt 0.905927 0.806330
vt 0.961343 0.809666
vt 0.898438 0.855187
vt 0.920886 0.848073
vt 0.985754 0.860165
vt 0.975528 0.882926
vt 0.985754 0.799558
vt 0.984753 0.917257
vt 0.147518 0.816372
vt 0.313879 0.816372
vt 0.223290 0.812832
vt 0.244841 0.799926
vt 0.274481 0.703097
vt 0.185666 0.764635
vt 0.344253 0.800442
vt 0.346048 0.756670
vt 0.201183 0.800442
vt 0.115349 0.762401
vt 0.127921 0.750095
vt 0.823989 0.788938
vt 0.729320 0.788938
vt 0.735361 0.772672
vt 0.794132 0.762389
vt 0.017923 0.990708
vt 0.131893 0.990708
vt 0.029155 0.940265
vt 0.095959 0.946480
vt 0.926930 0.439120
vt 0.997702 0.474972
vt 0.927927 0.493363
vt 0.997702 0.388938
vt 0.192593 0.330376
vt 0.197495 0.383530
vt 0.198855 0.384649
vt 0.124362 0.333234
vt 0.084655 0.373146
vt 0.155338 0.255788
vt 0.272075 0.284525
vt 0.266749 0.269467
vt 0.311078 0.313722
vt 0.081730 0.403592
vt 0.171999 0.400958
vt 0.273303 0.338353
vt 0.331342 0.461504
vt 0.236104 0.459088
vt 0.072151 0.252181
vt 0.331342 0.228761
vt 0.139845 0.412174
vt 0.003217 0.722566
vt 0.135834 0.861504
vt 0.005640 0.861504
vt 0.136489 0.803517
vt 0.682727 0.787168
vt 0.736134 0.790892
vt 0.717746 0.859054
vt 0.825827 0.790418
vt 0.774289 0.859735
vt 0.625460 0.859735
vt 0.328819 0.192335
vt 0.404629 0.291910
vt 0.459970 0.226724
vt 0.398095 0.129814
vt 0.402819 0.128761
vt 0.528033 0.198649
vt 0.528033 0.307025
vt 0.477890 0.371583
vt 0.424859 0.380169
vt 0.386789 0.306135
vt 0.333795 0.393884
vt 0.316553 0.396018
vt 0.308364 0.322905
vt 0.485951 0.135092
vt 0.362583 0.435815
vt 0.356231 0.433653
vt 0.378227 0.566006
vt 0.314798 0.502653
vt 0.423011 0.574779
vt 0.498904 0.445643
vt 0.562960 0.565127
vt 0.562960 0.442612
vt 0.430269 0.393363
vt 0.497934 0.440753
vt 0.882812 0.572457
vt 0.805440 0.580841
vt 0.832040 0.518142
vt 0.798254 0.657525
vt 0.882812 0.709292
vt 0.799507 0.660823
vt 0.721967 0.330516
vt 0.766607 0.399107
vt 0.771599 0.268584
vt 0.771599 0.400442
vt 0.556526 0.288938
vt 0.556526 0.411062
vt 0.507812 0.364853
vt 0.286260 0.907799
vt 0.224685 0.832301
vt 0.307799 0.840504
vt 0.353401 0.909292
vt 0.172335 0.841382
vt 0.188992 0.909292
vt 0.587391 0.983613
vt 0.660872 0.999557
vt 0.669577 0.925221
vt 0.586857 0.999557
vt 0.936497 0.945575
vt 0.863511 0.988938
vt 0.988511 0.988938
vt 0.781033 0.123176
vt 0.746784 0.118917
vt 0.760624 0.138561
vt 0.745289 0.127896
vt 0.823070 0.205752
vt 0.720129 0.049740
vt 0.791206 0.057351
vt 0.823070 0.008407
vt 0.921415 0.291545
vt 0.871091 0.246659
vt 0.866268 0.254269
vt 0.913386 0.240562
vt 0.875285 0.326106
vt 0.909453 0.319404
vt 0.921415 0.153540
vt 0.499540 0.926605
vt 0.532629 0.926991
vt 0.510376 0.838924
vt 0.532629 0.817257
vt 0.202543 0.963080
vt 0.249267 0.939381
vt 0.179688 0.990708
vt 0.296415 0.990708
vt 0.190477 0.119626
vt 0.120286 0.054761
vt 0.117161 0.183018
vt 0.159199 0.184814
vt 0.080137 0.249115
vt 0.159539 0.247124
vt 0.287224 0.249115
vt 0.278485 0.122576
vt 0.278448 0.091481
vt 0.005432 0.182664
vt 0.029534 0.246699
vt 0.189248 0.005549
vt 0.267256 0.051675
vt 0.114946 0.000442
vt 0.006231 0.042552
vt 0.050903 0.113732
vt 0.002101 0.246176
vt 0.000460 0.183935
vt 0.763327 0.974779
vt 0.763327 0.860619
vt 0.676930 0.962469
vt 0.704999 0.875437
vt 0.769761 0.947345
vt 0.817296 0.873375
vt 0.890165 0.947345
vt 0.857965 0.862389
vt 0.999540 0.111947
vt 0.933812 0.196218
vt 0.999540 0.219517
vt 0.931526 0.147253
vt 0.998214 0.224336
vt 0.934100 0.223866
vt 0.584529 0.001327
vt 0.708180 0.032301
vt 0.576746 0.032301
vt 0.657153 0.014449
vt 0.439798 0.976549
vt 0.571232 0.976549
vt 0.520207 0.958679
vt 0.447577 0.945575
vt 0.606557 0.849447
vt 0.669577 0.916372
vt 0.537779 0.916372
vt 0.534467 0.808407
vt 0.904871 0.946786
vt 0.913143 0.951304
vt 0.913143 0.869469
vt 0.909377 0.951770
vt 0.261489 0.611947
vt 0.261489 0.696988
vt 0.218290 0.659288
vt 0.248587 0.707522
vt 0.629487 0.225071
vt 0.654978 0.106125
vt 0.681948 0.104549
vt 0.598661 0.137967
vt 0.624927 0.061540
vt 0.678896 0.045575
vt 0.605500 0.084232
vt 0.661852 0.226922
vt 0.762408 0.169172
vt 0.754414 0.227876
vt 0.571232 0.227876
vt 0.574908 0.803982
vt 0.599991 0.749888
vt 0.655790 0.711062
vt 0.655790 0.802077
vt 0.680203 0.322979
vt 0.559136 0.358892
vt 0.686363 0.353307
vt 0.566040 0.478319
vt 0.701352 0.478319
vt 0.557445 0.283595
vt 0.725643 0.250000
vt 0.718849 0.357330
vt 0.354320 0.796018
vt 0.489430 0.921681
vt 0.362621 0.921681
vt 0.488773 0.802419
vt 0.093703 0.430531
vt 0.001379 0.444690
vt 0.176011 0.444690
vt 0.572151 0.275664
vt 0.692555 0.275664
vt 0.685474 0.243888
vt 0.607520 0.227876
vt 0.099339 0.735841
vt 0.199806 0.605445
vt 0.217371 0.735841
vt 0.095670 0.603097
vt 0.010570 0.642738
vt 0.063141 0.735816
vt 0.078251 0.864159
vt 0.005974 0.911062
vt 0.109835 0.911062
vt 0.055470 0.536342
vt 0.053130 0.589044
vt 0.002298 0.606637
vt 0.078231 0.552019
vt 0.120523 0.453843
vt 0.049733 0.495909
vt 0.268273 0.606637
vt 0.167138 0.582940
vt 0.271599 0.474652
vt 0.156470 0.450000
vt 0.285827 0.509292
vt 0.377298 0.570354
vt 0.316001 0.557517
vt 0.282629 0.570354
vt 0.619026 0.941150
vt 0.589364 0.923451
vt 0.466452 0.941150
vt 0.347637 0.715503
vt 0.334701 0.580973
vt 0.472053 0.660395
vt 0.472762 0.716372
vt 0.486673 0.590575
vt 0.276195 0.592391
vt 0.322091 0.716372
vt 0.278033 0.952208
vt 0.334175 0.965929
vt 0.416022 0.924336
vt 0.431526 0.965929
vt 0.892964 0.834900
vt 0.898438 0.865044
vt 0.811198 0.853252
vt 0.854241 0.715561
vt 0.857604 0.714602
vt 0.816080 0.854501
vt 0.805495 0.854991
vt 0.781710 0.865044
vt 0.434301 0.976549
vt 0.316636 0.988938
vt 0.457261 0.988938
vt 0.016085 0.584513
vt 0.005974 0.449730
vt 0.016085 0.449115
usemtl baked
f 47/47 49/49 48/48
f 46/46 47/47 48/48
f 105/105 106/106 107/107
f 106/106 108/108 107/107
f 97/97 98/98 99/99
f 97/97 100/100 98/98
f 108/108 109/109 110/110
f 110/110 109/109 112/112
f 65/65 66/66 64/64
f 63/63 65/65 64/64
f 117/117 119/119 120/120
f 116/116 119/119 117/117
f 101/101 103/103 102/102
f 99/99 101/101 102/102
f 144/144 142/142 138/138
f 144/144 138/138 147/147
f 136/136 137/137 138/138
f 142/142 136/136 138/138
f 141/141 136/136 142/142
f 141/141 142/142 143/143
f 148/148 138/138 149/149
f 147/147 138/138 148/148
f 149/149 137/137 146/146
f 138/138 137/137 149/149
f 137/137 140/140 145/145
f 137/137 145/145 146/146
f 137/137 139/139 140/140
f 136/136 139/139 137/137
f 98/98 104/104 101/101
f 98/98 101/101 99/99
f 233/233 235/235 234/234
f 232/232 233/233 234/234
f 262/262 265/265 263/263
f 262/262 263/263 264/264
f 266/266 263/263 267/267
f 266/266 264/264 263/263
f 276/276 278/278 279/279
f 283/283 281/281 280/280
f 280/280 281/281 282/282
f 86/86 88/88 90/90
f 86/86 87/87 88/88
f 94/94 91/91 93/93
f 91/91 92/92 93/93
f 95/95 94/94 93/93
f 95/95 93/93 96/96
f 72/72 73/73 74/74
f 72/72 74/74 75/75
f 84/84 85/85 86/86
f 112/112 108/108 110/110
f 17/17 18/18 19/19
f 20/20 18/18 17/17
f 284/284 285/285 286/286
f 287/287 286/286 285/285
f 24/24 18/18 21/21
f 21/21 18/18 20/20
f 172/172 173/173 171/171
f 164/164 172/172 171/171
f 298/298 291/291 288/288
f 291/291 289/289 288/288
f 21/21 20/20 22/22
f 22/22 20/20 23/23
f 291/291 292/292 289/289
f 292/292 291/291 294/294
f 158/158 160/160 159/159
f 160/160 161/161 159/159
f 150/150 139/139 136/136
f 141/141 150/150 136/136
f 289/289 292/292 290/290
f 292/292 293/293 290/290
f 288/288 290/290 295/295
f 288/288 289/289 290/290
f 164/164 170/170 169/169
f 171/171 170/170 164/164
f 56/56 57/57 58/58
f 44/44 45/45 41/41
f 157/157 158/158 159/159
f 162/162 157/157 159/159
f 305/305 310/310 309/309
f 303/303 305/305 309/309
f 276/276 277/277 278/278
f 315/315 316/316 317/317
f 254/254 255/255 256/256
f 255/255 257/257 256/256
f 122/122 121/121 118/118
f 122/122 118/118 123/123
f 299/299 300/300 301/301
f 299/299 301/301 302/302
f 318/318 320/320 321/321
f 318/318 319/319 320/320
f 69/69 71/71 70/70
f 68/68 69/69 70/70
f 116/116 117/117 118/118
f 121/121 116/116 118/118
f 62/62 63/63 64/64
f 62/62 64/64 67/67
f 295/295 290/290 296/296
f 113/113 114/114 115/115
f 59/59 60/60 61/61
f 80/80 81/81 82/82
f 81/81 80/80 83/83
f 76/76 77/77 78/78
f 76/76 78/78 79/79
f 127/127 124/124 126/126
f 124/124 125/125 126/126
f 295/295 296/296 297/297
f 197/197 198/198 199/199
f 215/215 217/217 213/213
f 213/213 214/214 215/215
f 214/214 216/216 215/215
f 216/216 217/217 215/215
f 222/222 224/224 227/227
f 225/225 221/221 223/223
f 226/226 221/221 225/225
f 221/221 224/224 222/222
f 221/221 222/222 223/223
f 213/213 220/220 219/219
f 210/210 211/211 212/212
f 213/213 218/218 214/214
f 218/218 213/213 219/219
f 149/149 146/146 152/152
f 218/218 219/219 220/220
f 135/135 133/133 132/132
f 132/132 133/133 134/134
f 237/237 249/249 250/250
f 237/237 250/250 251/251
f 239/239 238/238 240/240
f 241/241 239/239 240/240
f 172/172 164/164 163/163
f 163/163 164/164 165/165
f 182/182 181/181 183/183
f 184/184 182/182 183/183
f 182/182 177/177 181/181
f 237/237 245/245 238/238
f 240/240 238/238 245/245
f 240/240 245/245 246/246
f 177/177 178/178 179/179
f 178/178 180/180 179/179
f 177/177 179/179 181/181
f 186/186 185/185 182/182
f 182/182 185/185 177/177
f 165/165 168/168 167/167
f 167/167 168/168 176/176
f 143/143 142/142 144/144
f 151/151 143/143 144/144
f 245/245 253/253 252/252
f 245/245 252/252 246/246
f 166/166 163/163 165/165
f 166/166 165/165 167/167
f 168/168 164/164 169/169
f 165/165 164/164 168/168
f 343/343 342/342 344/344
f 328/328 329/329 330/330
f 352/352 350/350 349/349
f 345/345 346/346 347/347
f 308/308 304/304 303/303
f 303/303 304/304 305/305
f 306/306 307/307 305/305
f 304/304 306/306 305/305
f 32/32 36/36 33/33
f 31/31 32/32 33/33
f 355/355 356/356 357/357
f 356/356 358/358 357/357
f 206/206 207/207 208/208
f 206/206 209/209 207/207
f 348/348 349/349 350/350
f 348/348 350/350 351/351
f 354/354 353/353 348/348
f 348/348 353/353 349/349
f 38/38 34/34 39/39
f 34/34 40/40 39/39
f 50/50 47/47 46/46
f 51/51 47/47 50/50
f 34/34 31/31 33/33
f 35/35 31/31 34/34
f 228/228 229/229 230/230
f 230/230 229/229 231/231
f 106/106 111/111 109/109
f 108/108 106/106 109/109
f 85/85 89/89 86/86
f 89/89 87/87 86/86
f 51/51 50/50 52/52
f 52/52 50/50 55/55
f 55/55 50/50 54/54
f 50/50 53/53 54/54
f 37/37 35/35 34/34
f 37/37 34/34 38/38
f 17/17 19/19 28/28
f 17/17 28/28 29/29
f 19/19 27/27 28/28
f 27/27 30/30 28/28
f 41/41 42/42 43/43
f 44/44 41/41 43/43
f 13/13 16/16 14/14
f 13/13 14/14 15/15
f 6/6 2/2 1/1
f 1/1 2/2 3/3
f 370/370 371/371 372/372
f 367/367 368/368 369/369
f 322/322 323/323 324/324
f 325/325 323/323 322/322
f 326/326 325/325 322/322
f 326/326 322/322 327/327
f 359/359 360/360 361/361
f 360/360 364/364 361/361
f 4/4 1/1 3/3
f 4/4 3/3 5/5
f 359/359 362/362 363/363
f 359/359 361/361 362/362
f 364/364 366/366 365/365
f 364/364 365/365 361/361
f 193/193 194/194 195/195
f 195/195 194/194 196/196
f 156/156 154/154 153/153
f 153/153 154/154 155/155
f 12/12 8/8 7/7
f 7/7 8/8 9/9
f 24/24 25/25 18/18
f 25/25 26/26 18/18
f 18/18 27/27 19/19
f 18/18 26/26 27/27
f 9/9 11/11 10/10
f 7/7 9/9 10/10
f 174/174 173/173 172/172
f 175/175 174/174 172/172
f 337/337 338/338 339/339
f 339/339 338/338 340/340
f 331/331 334/334 332/332
f 331/331 332/332 333/333
f 311/311 314/314 312/312
f 311/311 312/312 313/313
f 340/340 338/338 335/335
f 338/338 334/334 335/335
f 268/268 269/269 270/270
f 271/271 269/269 268/268
f 335/335 334/334 331/331
f 335/335 331/331 336/336
f 244/244 236/236 239/239
f 243/243 244/244 239/239
f 243/243 239/239 242/242
f 242/242 239/239 241/241
f 236/236 237/237 238/238
f 239/239 236/236 238/238
f 247/247 249/249 236/236
f 236/236 249/249 237/237
f 244/244 248/248 247/247
f 244/244 247/247 236/236
f 341/341 342/342 343/343
f 343/343 344/344 341/341
f 272/272 273/273 274/274
f 272/272 274/274 275/275
f 258/258 259/259 260/260
f 259/259 261/261 260/260
f 187/187 188/188 189/189
f 188/188 187/187 190/190
f 187/187 191/191 190/190
f 190/190 191/191 192/192
f 200/200 204/204 201/201
f 205/205 204/204 200/200
f 129/129 131/131 130/130
f 128/128 129/129 130/130
f 200/200 201/201 202/202
f 200/200 202/202 203/203
