mtllib P-04_tex.mtl
v -0.306460 0.783657 0.147551
v -0.180153 0.674587 0.379144
v 0.166702 0.760835 0.141843
v 0.163050 0.151722 0.624794
v 0.181219 0.243078 0.383844
v 0.407188 0.091261 0.653145
v -0.174263 0.774636 -0.336873
v -0.080865 0.761444 -0.348814
v -0.189098 1.034822 -0.360646
v -0.098470 0.366806 -0.363148
v -0.343731 0.023693 -0.396518
v -0.099761 0.067647 -0.340997
v -0.099138 0.249985 -0.086874
v -0.359886 0.193933 0.374648
v -0.128272 0.000000 0.139206
v 0.077402 0.773319 -0.355577
v -0.174263 0.774636 -0.336873
v 0.058980 0.598589 -0.293840
v 0.591603 0.256238 0.217577
v 0.472373 0.234958 0.241603
v 0.580112 0.280369 0.111014
v -0.054952 0.946479 -0.345855
v -0.086650 0.906266 -0.343569
v 0.012350 0.900615 -0.350824
v -0.205310 0.731473 0.411494
v -0.180153 0.674587 0.379144
v -0.108217 0.822550 0.381910
v -0.099761 0.067647 -0.340997
v -0.461020 0.067518 -0.253272
v -0.455430 0.069763 -0.069882
v -0.440222 0.067216 -0.348984
v -0.343731 0.023693 -0.396518
v -0.099138 0.249985 -0.086874
v -0.359886 0.193933 0.374648
v -0.317524 0.731815 0.056187
v -0.174263 0.774636 -0.336873
v 0.058980 0.598589 -0.293840
v 0.185235 0.697385 0.046095
v -0.502605 0.458672 -0.036482
v -0.455430 0.069763 -0.069882
v -0.451810 0.475077 0.141737
v -0.359886 0.193933 0.374648
v -0.412065 0.396642 0.382823
v -0.359649 0.193193 0.393449
v -0.362435 0.677669 0.145142
v -0.411381 0.564248 0.388159
v -0.374771 0.513078 -0.327860
v -0.461020 0.067518 -0.253272
v -0.440222 0.067216 -0.348984
v -0.347887 0.745786 -0.184714
v -0.482658 0.682714 0.118627
v -0.205310 0.731473 0.411494
v -0.128272 0.000000 0.139206
v 0.182593 0.242935 -0.035250
v 0.181779 0.242927 -0.104186
v 0.206404 0.242878 -0.127037
v 0.225048 0.239238 0.008421
v 0.505178 0.242194 -0.104708
v 0.547938 0.243569 -0.365315
v 0.581818 0.254921 0.123888
v 0.145056 0.227279 -0.443538
v 0.181331 0.242970 0.152857
v 0.192400 0.242914 0.142485
v 0.340545 0.194370 -0.398337
v -0.074794 0.358031 -0.365155
v -0.079970 1.069542 -0.065561
v 0.185825 0.778880 0.052002
v 0.385605 1.098662 -0.097416
v -0.309183 0.777488 0.125319
v -0.288687 1.059832 0.370146
v -0.130509 1.069552 -0.040934
v -0.150635 1.090528 -0.224968
v -0.086650 0.906266 -0.343569
v -0.174263 0.774636 -0.336873
v -0.317524 0.731815 0.056187
v -0.306460 0.783657 0.147551
v -0.286927 1.067290 0.384865
v -0.180153 0.674587 0.379144
v -0.482658 0.682714 0.118627
v 0.385605 1.098662 -0.097416
v 0.186346 0.941064 0.310673
v 0.196911 1.094750 0.381611
v 0.185825 0.778880 0.052002
v 0.447432 0.530547 0.209338
v 0.185825 0.778880 0.052002
v 0.186346 0.941064 0.310673
v 0.185776 0.697632 0.050214
v 0.181219 0.243078 0.383844
v -0.263507 0.242942 0.389465
v 0.163050 0.151722 0.624794
v -0.228455 0.243067 0.624794
v -0.359649 0.193193 0.393449
v -0.349042 0.243111 0.627859
v 0.221924 0.237372 0.503872
v 0.407188 0.091261 0.653145
v -0.144373 0.255996 -0.088070
v -0.171722 0.508527 -0.345218
v -0.099761 0.067647 -0.340997
v -0.099761 0.067647 -0.340997
v -0.343731 0.023693 -0.396518
v -0.171722 0.508527 -0.345218
v -0.098470 0.366806 -0.363148
v -0.079970 1.069542 -0.065561
v -0.130509 1.069552 -0.040934
v -0.037285 1.074856 0.262728
v -0.288687 1.059832 0.370146
v -0.074344 1.053112 0.404595
v 0.196911 1.094750 0.381611
v -0.037107 1.087170 -0.221116
v 0.384680 1.098662 -0.105323
v 0.248862 1.100000 -0.351011
v 0.385605 1.098662 -0.097416
v -0.076168 1.095869 -0.360463
v -0.081637 1.095758 -0.363247
v -0.150635 1.090528 -0.224968
v -0.369523 1.039814 -0.332576
v -0.367627 1.039264 -0.349302
v -0.286927 1.067290 0.384865
v -0.349298 0.966375 -0.239273
v 0.147923 0.810669 0.101214
v 0.185825 0.778880 0.052002
v 0.160203 0.804295 0.242602
v 0.185235 0.697385 0.046095
v 0.186346 0.941064 0.310673
v 0.447432 0.530547 0.209338
v 0.158297 0.453680 0.139216
v 0.124849 0.510719 -0.064744
v 0.182593 0.242935 -0.035250
v 0.181779 0.242927 -0.104186
v 0.181331 0.242970 0.152857
v 0.166702 0.760835 0.141843
v 0.024264 0.515107 -0.345651
v 0.058980 0.598589 -0.293840
v 0.185235 0.697385 0.046095
v -0.074794 0.358031 -0.365155
v 0.435817 0.507210 0.210504
v 0.447432 0.530547 0.209338
v -0.306460 0.783657 0.147551
v 0.166702 0.760835 0.141843
v 0.160203 0.804295 0.242602
v -0.108217 0.822550 0.381910
v 0.185235 0.697385 0.046095
v -0.074344 1.053112 0.404595
v -0.046958 1.002957 0.390588
v 0.195531 1.062904 0.384317
v 0.197068 1.006829 0.383389
v 0.193543 0.773868 0.382454
v -0.079724 0.754672 0.400816
v 0.196911 1.094750 0.381611
v -0.286927 1.067290 0.384865
v -0.108217 0.822550 0.381910
v -0.306460 0.783657 0.147551
v 0.185776 0.697632 0.050214
v 0.058980 0.598589 -0.293840
v 0.331177 0.671512 -0.108126
v 0.160203 0.804295 0.242602
v -0.079724 0.754672 0.400816
v -0.046958 1.002957 0.390588
v 0.166702 0.760835 0.141843
v 0.197068 1.006829 0.383389
v 0.193543 0.773868 0.382454
v 0.186346 0.941064 0.310673
v 0.447432 0.530547 0.209338
v -0.189098 1.034822 -0.360646
v -0.368890 1.013982 -0.347793
v -0.081637 1.095758 -0.363247
v -0.080865 0.761444 -0.348814
v -0.367627 1.039264 -0.349302
v -0.346527 0.774855 -0.349769
v -0.076168 1.095869 -0.360463
v -0.174263 0.774636 -0.336873
v -0.171722 0.508527 -0.345218
v -0.347887 0.745786 -0.184714
v -0.374771 0.513078 -0.327860
v 0.547938 0.243569 -0.365315
v 0.340545 0.194370 -0.398337
v 0.495070 0.514230 -0.418709
v 0.230975 0.256238 -0.417524
v 0.145056 0.227279 -0.443538
v 0.058980 0.598589 -0.293840
v -0.086650 0.906266 -0.343569
v -0.054952 0.946479 -0.345855
v -0.189098 1.034822 -0.360646
v 0.012350 0.900615 -0.350824
v 0.077402 0.773319 -0.355577
v -0.080865 0.761444 -0.348814
v -0.098470 0.366806 -0.363148
v -0.074794 0.358031 -0.365155
v 0.193643 0.774691 -0.364078
v 0.190998 0.784728 -0.363863
v 0.248862 1.100000 -0.351011
v -0.356086 0.353533 -0.346771
v -0.440222 0.067216 -0.348984
v -0.076168 1.095869 -0.360463
v 0.488028 0.568416 -0.432231
v -0.343731 0.023693 -0.396518
v -0.343731 0.023693 -0.396518
v -0.098470 0.366806 -0.363148
v -0.171722 0.508527 -0.345218
v 0.185235 0.697385 0.046095
v 0.024264 0.515107 -0.345651
v 0.058980 0.598589 -0.293840
v 0.124849 0.510719 -0.064744
v 0.077402 0.773319 -0.355577
v -0.074794 0.358031 -0.365155
v -0.046958 1.002957 0.390588
v -0.108217 0.822550 0.381910
v 0.160203 0.804295 0.242602
v -0.349298 0.966375 -0.239273
v -0.174263 0.774636 -0.336873
v -0.086650 0.906266 -0.343569
v -0.150635 1.090528 -0.224968
v -0.347887 0.745786 -0.184714
v 0.581818 0.254921 0.123888
v 0.225048 0.239238 0.008421
v 0.192400 0.242914 0.142485
v 0.182593 0.242935 -0.035250
v 0.181331 0.242970 0.152857
v 0.472373 0.234958 0.241603
v 0.505178 0.242194 -0.104708
v 0.206404 0.242878 -0.127037
v 0.181331 0.242970 0.152857
v 0.158297 0.453680 0.139216
v 0.181219 0.243078 0.383844
v -0.128272 0.000000 0.139206
v 0.182593 0.242935 -0.035250
v -0.099138 0.249985 -0.086874
v -0.455430 0.069763 -0.069882
v -0.099761 0.067647 -0.340997
v -0.144373 0.255996 -0.088070
v 0.181779 0.242927 -0.104186
v -0.359886 0.193933 0.374648
v -0.306460 0.783657 0.147551
v -0.108217 0.822550 0.381910
v -0.180153 0.674587 0.379144
v -0.461020 0.067518 -0.253272
v -0.343731 0.023693 -0.396518
v -0.099761 0.067647 -0.340997
v -0.440222 0.067216 -0.348984
v -0.180153 0.674587 0.379144
v 0.166702 0.760835 0.141843
v -0.079724 0.754672 0.400816
v -0.205310 0.731473 0.411494
v 0.193543 0.773868 0.382454
v 0.447432 0.530547 0.209338
v -0.368890 1.013982 -0.347793
v -0.346527 0.774855 -0.349769
v -0.349298 0.966375 -0.239273
v -0.369523 1.039814 -0.332576
v -0.347887 0.745786 -0.184714
v -0.367627 1.039264 -0.349302
v -0.482658 0.682714 0.118627
v -0.362435 0.677669 0.145142
v -0.180153 0.674587 0.379144
v -0.502605 0.458672 -0.036482
v -0.079724 0.754672 0.400816
v 0.166702 0.760835 0.141843
v -0.205310 0.731473 0.411494
v -0.346527 0.774855 -0.349769
v -0.080865 0.761444 -0.348814
v -0.174263 0.774636 -0.336873
v -0.347887 0.745786 -0.184714
v -0.359649 0.193193 0.393449
v -0.263507 0.242942 0.389465
v -0.349042 0.243111 0.627859
v -0.228455 0.243067 0.624794
v -0.180153 0.674587 0.379144
v -0.205310 0.731473 0.411494
v 0.166702 0.760835 0.141843
v -0.180153 0.674587 0.379144
v -0.362435 0.677669 0.145142
v -0.205310 0.731473 0.411494
v 0.591603 0.256238 0.217577
v 0.192400 0.242914 0.142485
v 0.472373 0.234958 0.241603
v 0.454036 0.541433 0.208703
v 0.185776 0.697632 0.050214
v 0.447432 0.530547 0.209338
v 0.591603 0.256238 0.217577
v 0.435817 0.507210 0.210504
v 0.192400 0.242914 0.142485
v 0.181331 0.242970 0.152857
v 0.186346 0.941064 0.310673
v 0.195531 1.062904 0.384317
v 0.197068 1.006829 0.383389
v 0.196911 1.094750 0.381611
v 0.185825 0.778880 0.052002
v 0.385605 1.098662 -0.097416
v 0.384680 1.098662 -0.105323
v 0.361634 0.908485 -0.114762
v 0.185776 0.697632 0.050214
v 0.331177 0.671512 -0.108126
v 0.508525 0.527392 -0.195947
v 0.522177 0.485271 -0.109295
v 0.531155 0.520811 -0.051191
v 0.580112 0.280369 0.111014
v 0.488028 0.568416 -0.432231
v 0.495070 0.514230 -0.418709
v 0.547938 0.243569 -0.365315
v 0.505178 0.242194 -0.104708
v 0.581818 0.254921 0.123888
v 0.454036 0.541433 0.208703
v 0.591603 0.256238 0.217577
v 0.193643 0.774691 -0.364078
v 0.190998 0.784728 -0.363863
v 0.248862 1.100000 -0.351011
v 0.185235 0.697385 0.046095
v 0.185776 0.697632 0.050214
v 0.185825 0.778880 0.052002
v 0.186346 0.941064 0.310673
v 0.058980 0.598589 -0.293840
v 0.447432 0.530547 0.209338
v -0.174263 0.774636 -0.336873
v -0.317524 0.731815 0.056187
v 0.185235 0.697385 0.046095
v 0.058980 0.598589 -0.293840
v 0.331177 0.671512 -0.108126
v 0.185776 0.697632 0.050214
v -0.079724 0.754672 0.400816
v -0.045198 0.256238 0.403965
v 0.166702 0.760835 0.141843
v 0.158297 0.453680 0.139216
v -0.236280 0.358031 0.419994
v -0.205310 0.731473 0.411494
v -0.412065 0.396642 0.382823
v -0.411381 0.564248 0.388159
v -0.359649 0.193193 0.393449
v -0.263507 0.242942 0.389465
v -0.128272 0.000000 0.139206
v 0.181219 0.243078 0.383844
v 0.166702 0.760835 0.141843
v 0.158297 0.453680 0.139216
v -0.079724 0.754672 0.400816
v 0.182593 0.242935 -0.035250
v 0.124849 0.510719 -0.064744
v 0.181331 0.242970 0.152857
v 0.158297 0.453680 0.139216
v 0.185235 0.697385 0.046095
v 0.166702 0.760835 0.141843
v 0.166702 0.760835 0.141843
v 0.160203 0.804295 0.242602
v 0.447432 0.530547 0.209338
v 0.185776 0.697632 0.050214
v 0.185235 0.697385 0.046095
v -0.174263 0.774636 -0.336873
v -0.347887 0.745786 -0.184714
v -0.482658 0.682714 0.118627
v 0.147923 0.810669 0.101214
v 0.185235 0.697385 0.046095
v 0.185825 0.778880 0.052002
v 0.581818 0.254921 0.123888
v 0.580112 0.280369 0.111014
v 0.472373 0.234958 0.241603
v 0.225048 0.239238 0.008421
v 0.181779 0.242927 -0.104186
v 0.182593 0.242935 -0.035250
v 0.206404 0.242878 -0.127037
v 0.192400 0.242914 0.142485
v 0.181219 0.243078 0.383844
v 0.221924 0.237372 0.503872
v 0.181779 0.242927 -0.104186
v 0.206404 0.242878 -0.127037
v 0.340545 0.194370 -0.398337
v 0.145056 0.227279 -0.443538
v -0.046958 1.002957 0.390588
v 0.186346 0.941064 0.310673
v 0.197068 1.006829 0.383389
v 0.160203 0.804295 0.242602
v -0.343731 0.023693 -0.396518
v -0.099761 0.067647 -0.340997
v 0.181779 0.242927 -0.104186
v 0.145056 0.227279 -0.443538
v -0.343731 0.023693 -0.396518
v 0.181779 0.242927 -0.104186
v 0.505178 0.242194 -0.104708
v 0.206404 0.242878 -0.127037
v 0.340545 0.194370 -0.398337
v 0.547938 0.243569 -0.365315
v 0.465665 0.235225 0.640735
v 0.221924 0.237372 0.503872
v 0.407188 0.091261 0.653145
v 0.465665 0.235345 0.522814
v 0.221924 0.237372 0.503872
v 0.465665 0.235225 0.640735
v 0.221924 0.237372 0.503872
v 0.192400 0.242914 0.142485
v 0.472373 0.234958 0.241603
v 0.465665 0.235345 0.522814
v 0.182593 0.242935 -0.035250
v -0.099138 0.249985 -0.086874
v 0.181779 0.242927 -0.104186
v -0.099761 0.067647 -0.340997
v -0.128272 0.000000 0.139206
v -0.359886 0.193933 0.374648
v -0.263507 0.242942 0.389465
v -0.359649 0.193193 0.393449
v 0.181331 0.242970 0.152857
v 0.192400 0.242914 0.142485
v 0.181219 0.243078 0.383844
v 0.581818 0.254921 0.123888
v 0.225048 0.239238 0.008421
v 0.472373 0.234958 0.241603
v 0.192400 0.242914 0.142485
v 0.181331 0.242970 0.152857
v -0.128272 0.000000 0.139206
v -0.263507 0.242942 0.389465
v 0.181219 0.243078 0.383844
v -0.080865 0.761444 -0.348814
v -0.098470 0.366806 -0.363148
v -0.174263 0.774636 -0.336873
v -0.171722 0.508527 -0.345218
vt 0.887645 0.923599
vt 0.812444 0.885306
vt 0.887645 0.782550
vt 0.635315 0.935353
vt 0.577887 0.985986
vt 0.690689 0.985986
vt 0.967323 0.327040
vt 0.992390 0.313291
vt 0.992390 0.400995
vt 0.976276 0.190325
vt 0.976276 0.316908
vt 0.923456 0.262617
vt 0.358550 0.072785
vt 0.516115 0.072785
vt 0.428394 0.000452
vt 0.397046 0.691492
vt 0.443599 0.632459
vt 0.443599 0.721067
vt 0.943149 0.745479
vt 0.914503 0.768987
vt 0.966428 0.768987
vt 0.818507 0.041139
vt 0.809758 0.053797
vt 0.839302 0.053797
vt 0.503581 0.779479
vt 0.520591 0.767179
vt 0.520591 0.816908
vt 0.481879 0.763562
vt 0.498470 0.651647
vt 0.552342 0.646022
vt 0.471014 0.661745
vt 0.456133 0.690199
vt 0.570388 0.763562
vt 0.694270 0.663558
vt 0.859893 0.815099
vt 0.741719 0.772784
vt 0.752617 0.691030
vt 0.859893 0.659584
vt 0.369189 0.483260
vt 0.485098 0.484222
vt 0.360863 0.538058
vt 0.440037 0.616944
vt 0.378509 0.612433
vt 0.439647 0.622514
vt 0.295422 0.540754
vt 0.329150 0.614169
vt 0.365926 0.387432
vt 0.494582 0.430563
vt 0.498174 0.401693
vt 0.289292 0.413663
vt 0.294592 0.513881
vt 0.251119 0.622514
vt 0.535810 0.556916
vt 0.365595 0.739367
vt 0.364363 0.718543
vt 0.356512 0.712182
vt 0.353778 0.753460
vt 0.267664 0.725417
vt 0.249329 0.647696
vt 0.249847 0.796112
vt 0.367831 0.615280
vt 0.369996 0.796112
vt 0.366464 0.793222
vt 0.309829 0.633081
vt 0.437332 0.634524
vt 0.378245 0.900090
vt 0.500000 0.900090
vt 0.458625 0.786166
vt 0.156096 0.592103
vt 0.221933 0.682282
vt 0.091418 0.684901
vt 0.037066 0.677440
vt 0.001343 0.619934
vt 0.016267 0.575407
vt 0.144180 0.570675
vt 0.160896 0.596136
vt 0.226669 0.684901
vt 0.235004 0.621955
vt 0.174094 0.524864
vt 0.375560 0.882007
vt 0.241163 0.835112
vt 0.223366 0.882007
vt 0.312155 0.778933
vt 0.916294 0.031193
vt 0.844962 0.123842
vt 0.916294 0.179476
vt 0.839302 0.100278
vt 0.074355 0.708409
vt 0.208272 0.717730
vt 0.075128 0.786996
vt 0.196450 0.789816
vt 0.241271 0.719967
vt 0.232862 0.793400
vt 0.062325 0.742744
vt 0.000448 0.793400
vt 0.794539 0.004069
vt 0.794539 0.111664
vt 0.701432 0.017456
vt 0.844673 0.242537
vt 0.910922 0.203888
vt 0.910922 0.360307
vt 0.876585 0.327103
vt 0.155258 0.459416
vt 0.151688 0.474716
vt 0.066662 0.478647
vt 0.068470 0.551589
vt 0.040773 0.507738
vt 0.001343 0.453396
vt 0.204018 0.434522
vt 0.137974 0.301459
vt 0.228064 0.330362
vt 0.135302 0.301672
vt 0.252746 0.438134
vt 0.254059 0.439744
vt 0.212216 0.471812
vt 0.263503 0.541581
vt 0.269024 0.539844
vt 0.064754 0.552893
vt 0.223447 0.552893
vt 0.087726 0.381222
vt 0.097079 0.364852
vt 0.051447 0.387160
vt 0.094530 0.347579
vt 0.026623 0.419362
vt 0.012021 0.286166
vt 0.682372 0.133587
vt 0.657121 0.074472
vt 0.602066 0.135935
vt 0.589010 0.121190
vt 0.638420 0.178098
vt 0.754252 0.078846
vt 0.602279 0.003812
vt 0.632227 0.002260
vt 0.723364 0.064599
vt 0.548344 0.014507
vt 0.746765 0.190325
vt 0.754252 0.188594
vt 0.804387 0.891049
vt 0.668008 0.860675
vt 0.677749 0.829333
vt 0.764499 0.807866
vt 0.651298 0.891049
vt 0.836005 0.568701
vt 0.820172 0.575935
vt 0.832614 0.649327
vt 0.816057 0.648574
vt 0.747495 0.642476
vt 0.747692 0.560662
vt 0.841987 0.650542
vt 0.841987 0.505227
vt 0.767604 0.555484
vt 0.739033 0.467902
vt 0.922560 0.154108
vt 0.986124 0.061031
vt 0.986124 0.161392
vt 0.030962 0.957232
vt 0.113250 0.983273
vt 0.113250 0.908228
vt 0.007610 0.980117
vt 0.268854 0.313291
vt 0.243062 0.377653
vt 0.281558 0.339738
vt 0.281558 0.487794
vt 0.425763 0.960416
vt 0.418594 0.906420
vt 0.444494 0.992300
vt 0.345121 0.994123
vt 0.426108 0.906671
vt 0.347814 0.914300
vt 0.444225 0.994123
vt 0.129406 0.084364
vt 0.108662 0.161274
vt 0.064951 0.070997
vt 0.049888 0.147476
vt 0.300118 0.293400
vt 0.236596 0.291587
vt 0.303259 0.209896
vt 0.208903 0.265890
vt 0.181715 0.270462
vt 0.179692 0.153564
vt 0.163989 0.054125
vt 0.176116 0.045060
vt 0.144636 0.009700
vt 0.191829 0.062764
vt 0.201602 0.103578
vt 0.155038 0.095056
vt 0.120205 0.209011
vt 0.126998 0.212984
vt 0.234762 0.111612
vt 0.234611 0.108697
vt 0.273132 0.022353
vt 0.044831 0.194974
vt 0.000448 0.271492
vt 0.180687 0.000452
vt 0.306625 0.193419
vt 0.026552 0.293400
vt 0.966428 0.497740
vt 0.931513 0.376830
vt 0.966428 0.344033
vt 0.528648 0.866637
vt 0.640649 0.788936
vt 0.627968 0.817247
vt 0.554184 0.804582
vt 0.653089 0.866637
vt 0.652935 0.734629
vt 0.170546 0.906420
vt 0.226947 0.906420
vt 0.208432 0.817812
vt 0.973590 0.825785
vt 0.890331 0.838535
vt 0.907389 0.883996
vt 0.973590 0.894665
vt 0.926183 0.781646
vt 0.859462 0.492315
vt 0.885670 0.382987
vt 0.845377 0.376252
vt 0.897626 0.369349
vt 0.842071 0.373176
vt 0.822292 0.462089
vt 0.925246 0.464207
vt 0.925246 0.374414
vt 0.541510 0.373621
vt 0.512998 0.429928
vt 0.482990 0.338463
vt 0.604261 0.274975
vt 0.589023 0.402497
vt 0.660977 0.357832
vt 0.718690 0.254094
vt 0.719338 0.429928
vt 0.670922 0.348677
vt 0.599617 0.420015
vt 0.614379 0.161392
vt 0.533103 0.202080
vt 0.495524 0.286166
vt 0.544763 0.286166
vt 0.575201 0.995027
vt 0.530662 0.957957
vt 0.463295 0.995027
vt 0.562516 0.968970
vt 0.520481 0.051075
vt 0.519696 0.178594
vt 0.549674 0.076611
vt 0.538332 0.040235
vt 0.585944 0.149769
vt 0.585944 0.266275
vt 0.272237 0.064249
vt 0.343707 0.064647
vt 0.286735 0.031147
vt 0.264548 0.059642
vt 0.352283 0.014919
vt 0.264751 0.064647
vt 0.860788 0.680477
vt 0.888287 0.656479
vt 0.902865 0.569168
vt 0.902865 0.750000
vt 0.548294 0.935353
vt 0.444494 0.956148
vt 0.580573 0.956148
vt 0.089078 0.319851
vt 0.131155 0.387432
vt 0.120096 0.361220
vt 0.131155 0.292495
vt 0.200090 0.964286
vt 0.197890 0.932487
vt 0.128224 0.964286
vt 0.126679 0.928119
vt 0.850733 0.002260
vt 0.840197 0.020344
vt 0.976276 0.020344
vt 0.495524 0.215503
vt 0.515219 0.128843
vt 0.515219 0.222875
vt 0.843778 0.156872
vt 0.843778 0.278029
vt 0.828559 0.190668
vt 0.467535 0.757831
vt 0.524172 0.844937
vt 0.464369 0.759903
vt 0.381930 0.719259
vt 0.457562 0.763585
vt 0.380931 0.840795
vt 0.382761 0.844937
vt 0.268439 0.119366
vt 0.252134 0.077341
vt 0.249329 0.094868
vt 0.256070 0.069168
vt 0.336972 0.182381
vt 0.409889 0.085718
vt 0.411150 0.088239
vt 0.408698 0.146588
vt 0.339007 0.204054
vt 0.402312 0.223434
vt 0.423140 0.298842
vt 0.398953 0.315778
vt 0.381480 0.308008
vt 0.334579 0.374672
vt 0.493733 0.298091
vt 0.488267 0.311966
vt 0.468995 0.389241
vt 0.395751 0.385891
vt 0.329594 0.380736
vt 0.307519 0.295150
vt 0.305683 0.382215
vt 0.493241 0.192608
vt 0.493733 0.190836
vt 0.492216 0.096606
vt 0.663917 0.725524
vt 0.665140 0.725399
vt 0.664684 0.701155
vt 0.739033 0.649638
vt 0.560877 0.769950
vt 0.739033 0.797920
vt 0.832140 0.303785
vt 0.709490 0.276221
vt 0.729324 0.430549
vt 0.832140 0.384292
vt 0.781653 0.470615
vt 0.728079 0.430851
vt 0.743509 0.532914
vt 0.595253 0.535735
vt 0.743509 0.639693
vt 0.652941 0.636574
vt 0.630960 0.480242
vt 0.738287 0.496355
vt 0.647443 0.429928
vt 0.694939 0.433581
vt 0.590187 0.437952
vt 0.597163 0.468888
vt 0.488362 0.487264
vt 0.568550 0.598380
vt 0.719024 0.875678
vt 0.661146 0.946203
vt 0.798120 0.946203
vt 0.516542 0.872369
vt 0.596959 0.863020
vt 0.515219 0.929024
vt 0.578357 0.925522
vt 0.651759 0.900477
vt 0.670098 0.929024
vt 0.222625 0.962096
vt 0.228943 0.929928
vt 0.326320 0.996835
vt 0.223123 0.995806
vt 0.222471 0.996835
vt 0.899284 0.983273
vt 0.832816 0.965190
vt 0.734557 0.983273
vt 0.043420 0.700271
vt 0.082811 0.700271
vt 0.061053 0.688517
vt 0.928827 0.165017
vt 0.935989 0.160488
vt 0.935989 0.212929
vt 0.489257 0.937161
vt 0.454645 0.928913
vt 0.474787 0.926311
vt 0.448970 0.937161
vt 0.987914 0.522152
vt 0.978066 0.450459
vt 0.987914 0.413653
vt 0.029096 0.033173
vt 0.037170 0.038803
vt 0.124888 0.061935
vt 0.124888 0.000452
vt 0.573411 0.636076
vt 0.506138 0.600369
vt 0.526334 0.580018
vt 0.476723 0.636076
vt 0.336168 0.927215
vt 0.265126 0.902803
vt 0.147269 0.927215
vt 0.742614 0.228482
vt 0.826768 0.094485
vt 0.826768 0.285262
vt 0.986124 0.990804
vt 0.897493 0.999548
vt 0.922547 0.910940
vt 0.986124 0.911639
vt 0.954790 0.790483
vt 0.999552 0.720163
vt 0.999552 0.803345
vt 0.678156 0.344032
vt 0.708594 0.278029
vt 0.708594 0.361212
vt 0.909664 0.740677
vt 0.898389 0.633363
vt 0.981647 0.660869
vt 0.981647 0.744575
vt 0.933289 0.604430
vt 0.879588 0.536626
vt 0.944942 0.591516
vt 0.944942 0.467902
vt 0.106983 0.997740
vt 0.215149 0.965190
vt 0.217182 0.997740
vt 0.220680 0.965562
vt 0.676903 0.201175
vt 0.673679 0.204792
vt 0.745300 0.204792
vt 0.990600 0.643309
vt 0.990600 0.531193
vt 0.946732 0.622864
vt 0.949515 0.534202
vt 0.037908 0.897849
vt 0.154432 0.902803
vt 0.154432 0.789783
vt 0.025515 0.834872
vt 0.030886 0.051201
vt 0.030886 0.169530
vt 0.002238 0.048373
vt 0.006501 0.127960
usemtl baked
f 348/348 349/349 350/350
f 307/307 308/308 309/309
f 189/189 185/185 184/184
f 189/189 184/184 190/190
f 185/185 186/186 171/171
f 16/16 17/17 18/18
f 184/184 181/181 183/183
f 22/22 23/23 24/24
f 170/170 164/164 166/166
f 184/184 183/183 194/194
f 113/113 114/114 109/109
f 114/114 115/115 109/109
f 180/180 171/171 181/181
f 180/180 181/181 182/182
f 184/184 180/180 182/182
f 185/185 180/180 184/184
f 69/69 75/75 78/78
f 164/164 165/165 166/166
f 246/246 248/248 249/249
f 251/251 246/246 249/249
f 165/165 168/168 166/166
f 69/69 78/78 76/76
f 114/114 116/116 115/115
f 114/114 117/117 116/116
f 354/354 355/355 356/356
f 357/357 355/355 354/354
f 358/358 359/359 360/360
f 215/215 217/217 216/216
f 217/217 218/218 216/216
f 363/363 364/364 361/361
f 361/361 362/362 363/363
f 278/278 279/279 276/276
f 280/280 279/279 278/278
f 139/139 142/142 140/140
f 123/123 120/120 122/122
f 109/109 104/104 103/103
f 25/25 26/26 27/27
f 233/233 234/234 235/235
f 267/267 268/268 269/269
f 1/1 2/2 3/3
f 256/256 257/257 258/258
f 138/138 139/139 140/140
f 116/116 119/119 115/115
f 209/209 211/211 212/212
f 72/72 69/69 71/71
f 72/72 73/73 69/69
f 69/69 70/70 71/71
f 69/69 76/76 70/70
f 105/105 104/104 106/106
f 103/103 104/104 105/105
f 107/107 106/106 118/118
f 105/105 106/106 107/107
f 151/151 144/144 150/150
f 150/150 144/144 143/143
f 141/141 138/138 140/140
f 206/206 207/207 208/208
f 108/108 105/105 107/107
f 143/143 145/145 149/149
f 143/143 144/144 145/145
f 284/284 283/283 286/286
f 283/283 284/284 285/285
f 144/144 146/146 145/145
f 368/368 366/366 365/365
f 365/365 366/366 367/367
f 124/124 105/105 108/108
f 124/124 122/122 105/105
f 122/122 120/120 105/105
f 120/120 103/103 105/105
f 152/152 151/151 150/150
f 76/76 77/77 70/70
f 148/148 147/147 144/144
f 144/144 147/147 146/146
f 161/161 163/163 162/162
f 160/160 161/161 162/162
f 156/156 159/159 157/157
f 156/156 157/157 158/158
f 73/73 74/74 69/69
f 75/75 69/69 74/74
f 179/179 196/196 187/187
f 179/179 187/187 188/188
f 351/351 352/352 353/353
f 19/19 20/20 21/21
f 294/294 293/293 295/295
f 294/294 295/295 296/296
f 298/298 297/297 294/294
f 294/294 297/297 293/293
f 303/303 296/296 302/302
f 296/296 295/295 302/302
f 301/301 300/300 294/294
f 301/301 294/294 296/296
f 369/369 370/370 371/371
f 372/372 373/373 374/374
f 375/375 376/376 377/377
f 375/375 377/377 378/378
f 185/185 187/187 186/186
f 188/188 187/187 185/185
f 205/205 204/204 201/201
f 201/201 204/204 202/202
f 379/379 380/380 381/381
f 382/382 383/383 384/384
f 385/385 386/386 387/387
f 385/385 387/387 388/388
f 300/300 299/299 294/294
f 294/294 299/299 298/298
f 178/178 179/179 188/188
f 176/176 179/179 178/178
f 178/178 189/189 177/177
f 177/177 189/189 195/195
f 178/178 188/188 189/189
f 175/175 176/176 177/177
f 176/176 178/178 177/177
f 188/188 185/185 189/189
f 35/35 36/36 37/37
f 35/35 37/37 38/38
f 315/315 318/318 317/317
f 307/307 311/311 308/308
f 293/293 292/292 291/291
f 293/293 291/291 295/295
f 304/304 292/292 293/293
f 297/297 304/304 293/293
f 317/317 316/316 315/315
f 153/153 154/154 155/155
f 109/109 115/115 104/104
f 283/283 287/287 286/286
f 287/287 288/288 286/286
f 291/291 290/290 287/287
f 292/292 290/290 291/291
f 87/87 85/85 84/84
f 84/84 85/85 86/86
f 308/308 312/312 310/310
f 289/289 305/305 306/306
f 290/290 305/305 289/289
f 287/287 290/290 289/289
f 288/288 287/287 289/289
f 276/276 277/277 278/278
f 295/295 291/291 302/302
f 111/111 109/109 110/110
f 111/111 113/113 109/109
f 110/110 109/109 103/103
f 110/110 103/103 112/112
f 103/103 120/120 121/121
f 66/66 67/67 68/68
f 83/83 81/81 80/80
f 80/80 81/81 82/82
f 309/309 308/308 310/310
f 292/292 304/304 290/290
f 304/304 305/305 290/290
f 190/190 184/184 191/191
f 184/184 194/194 191/191
f 389/389 390/390 391/391
f 392/392 391/391 390/390
f 393/393 394/394 395/395
f 394/394 396/396 395/395
f 30/30 34/34 33/33
f 13/13 14/14 15/15
f 91/91 92/92 93/93
f 89/89 92/92 91/91
f 225/225 222/222 224/224
f 329/329 330/330 328/328
f 397/397 398/398 399/399
f 401/401 403/403 402/402
f 400/400 401/401 402/402
f 133/133 127/127 134/134
f 282/282 281/281 280/280
f 126/126 130/130 136/136
f 273/273 274/274 275/275
f 280/280 281/281 279/279
f 65/65 61/61 55/55
f 135/135 129/129 132/132
f 340/340 341/341 342/342
f 124/124 125/125 122/122
f 343/343 344/344 340/340
f 343/343 340/340 342/342
f 133/133 132/132 127/127
f 132/132 129/129 127/127
f 129/129 128/128 127/127
f 131/131 136/136 137/137
f 131/131 126/126 136/136
f 127/127 126/126 131/131
f 134/134 127/127 131/131
f 54/54 57/57 62/62
f 63/63 62/62 57/57
f 54/54 55/55 56/56
f 57/57 54/54 56/56
f 126/126 127/127 128/128
f 128/128 130/130 126/126
f 244/244 242/242 241/241
f 244/244 241/241 245/245
f 88/88 90/90 94/94
f 90/90 95/95 94/94
f 95/95 88/88 94/94
f 4/4 5/5 6/6
f 203/203 201/201 200/200
f 200/200 201/201 202/202
f 334/334 335/335 336/336
f 336/336 335/335 337/337
f 404/404 405/405 406/406
f 404/404 406/406 407/407
f 88/88 89/89 90/90
f 89/89 91/91 90/90
f 337/337 335/335 338/338
f 337/337 338/338 339/339
f 225/225 227/227 226/226
f 225/225 226/226 222/222
f 214/214 215/215 216/216
f 214/214 216/216 219/219
f 229/229 226/226 227/227
f 229/229 231/231 226/226
f 57/57 56/56 58/58
f 57/57 58/58 60/60
f 214/214 221/221 215/215
f 61/61 56/56 55/55
f 61/61 64/64 56/56
f 220/220 221/221 214/214
f 64/64 59/59 56/56
f 58/58 56/56 59/59
f 236/236 239/239 237/237
f 236/236 237/237 238/238
f 28/28 29/29 30/30
f 33/33 28/28 30/30
f 31/31 29/29 28/28
f 32/32 31/31 28/28
f 345/345 346/346 347/347
f 75/75 74/74 79/79
f 408/408 409/409 410/410
f 411/411 410/410 409/409
f 10/10 11/11 12/12
f 102/102 99/99 101/101
f 313/313 314/314 315/315
f 316/316 313/313 315/315
f 96/96 97/97 98/98
f 229/229 227/227 230/230
f 171/171 186/186 180/180
f 209/209 213/213 210/210
f 209/209 210/210 211/211
f 187/187 172/172 186/186
f 172/172 171/171 186/186
f 99/99 100/100 101/101
f 197/197 198/198 199/199
f 167/167 169/169 165/165
f 164/164 167/167 165/165
f 247/247 250/250 248/248
f 246/246 247/247 248/248
f 7/7 8/8 9/9
f 171/171 183/183 181/181
f 259/259 260/260 261/261
f 174/174 173/173 172/172
f 171/171 172/172 173/173
f 172/172 174/174 171/171
f 192/192 174/174 187/187
f 187/187 174/174 172/172
f 187/187 193/193 192/192
f 196/196 193/193 187/187
f 48/48 47/47 49/49
f 193/193 174/174 192/192
f 262/262 259/259 261/261
f 50/50 39/39 51/51
f 50/50 47/47 39/39
f 47/47 40/40 39/39
f 47/47 48/48 40/40
f 265/265 264/264 266/266
f 263/263 264/264 265/265
f 240/240 241/241 242/242
f 243/243 240/240 242/242
f 252/252 253/253 254/254
f 75/75 79/79 78/78
f 330/330 322/322 320/320
f 222/222 223/223 224/224
f 323/323 328/328 320/320
f 328/328 330/330 320/320
f 41/41 40/40 42/42
f 39/39 40/40 41/41
f 41/41 42/42 43/43
f 42/42 44/44 43/43
f 325/325 327/327 323/323
f 327/327 328/328 323/323
f 44/44 42/42 53/53
f 328/328 327/327 329/329
f 41/41 43/43 45/45
f 45/45 43/43 46/46
f 331/331 332/332 333/333
f 324/324 323/323 319/319
f 319/319 323/323 320/320
f 319/319 320/320 321/321
f 319/319 320/320 322/322
f 270/270 271/271 272/272
f 45/45 46/46 52/52
f 232/232 228/228 225/225
f 228/228 227/227 225/225
f 326/326 325/325 324/324
f 325/325 323/323 324/324
f 321/321 320/320 322/322
f 39/39 41/41 45/45
f 252/252 255/255 253/253
