v -0.833787 0.076384 -0.452536 0.5000 0.5000 0.5000
v -0.821736 0.015077 0.353117 0.0000 0.3203 0.5464
v -0.880682 0.012820 0.369018 0.0000 0.3215 0.5440
v -0.865816 0.223604 -0.354273 0.1785 0.0929 0.1329
v -1.019873 0.241463 -0.239014 0.0305 0.2064 0.2851
v -1.045538 0.243558 -0.077317 0.0031 0.2331 0.3163
v -1.032371 0.280938 -0.041203 0.0037 0.2207 0.2973
v -1.039289 0.280367 0.102437 0.0204 0.2115 0.2856
v -1.024562 0.281287 0.219035 0.0489 0.0745 0.1051
v -1.066535 0.273183 0.357165 0.0392 0.0078 0.0183
v -0.984715 0.343194 -0.352890 0.4855 0.4874 0.4954
v -0.956225 0.386072 -0.216711 0.1670 0.1497 0.1625
v -0.995947 0.390545 -0.069993 0.2499 0.1869 0.2158
v -0.995808 0.341734 0.063678 0.0566 0.1321 0.1691
v -0.996089 0.374234 0.097937 0.3463 0.0703 0.0830
v -1.010502 0.385860 0.219057 0.2263 0.2479 0.2898
v -0.966013 0.405580 -0.359086 0.7894 0.7830 0.7815
v -0.840099 0.420373 -0.241844 0.6429 0.2799 0.2835
v -0.825398 0.415440 -0.106717 0.5762 0.2471 0.2589
v -0.996008 0.413855 0.071614 0.4574 0.3634 0.4049
v -0.995872 0.406015 0.082398 0.5352 0.3367 0.3863
v -1.054718 0.474415 0.332039 0.4941 0.5304 0.6047
v -1.008994 0.589772 -0.350981 0.5000 0.5000 0.5000
v -1.014005 0.512421 -0.263683 0.5405 0.0013 0.0005
v -1.014019 0.543022 -0.069993 0.6137 0.1753 0.1742
v -0.886473 0.509965 -0.034523 0.5837 0.0000 0.0035
v -1.013863 0.528590 0.086619 0.3885 0.0858 0.1599
v -1.051231 0.514518 0.325301 0.3461 0.1274 0.2357
v -0.864450 0.705509 -0.014317 0.5000 0.5000 0.5000
v -0.867965 0.783902 -0.013799 0.5000 0.5000 0.5000
v -0.886356 0.900000 -0.133093 0.5000 0.5000 0.5000
v -0.825750 0.892618 -0.019935 0.5000 0.5000 0.5000
v -0.844136 0.896587 0.072845 0.5000 0.5000 0.5000
v -0.717092 0.000000 -0.449033 0.5000 0.5000 0.5000
v -0.667301 0.091344 -0.077317 0.0029 0.1224 0.2300
v -0.667315 0.091371 -0.058599 0.0007 0.1914 0.3210
v -0.771099 0.024087 0.347099 0.1037 0.1183 0.2007
v -0.785956 0.070201 0.376800 0.1153 0.0984 0.1671
v -0.569853 0.092015 -0.392929 0.0000 0.1732 0.2764
v -0.610729 0.194849 -0.222178 0.0000 0.1803 0.2863
v -0.610590 0.194546 -0.104682 0.0005 0.2220 0.3492
v -0.671168 0.164682 -0.060507 0.0006 0.2195 0.3455
v -0.555717 0.193224 0.128035 0.0025 0.2081 0.3290
v -0.558041 0.092054 0.349637 0.0102 0.2042 0.3120
v -0.672218 0.091899 0.367848 0.0429 0.2871 0.4014
v -0.621186 0.296649 -0.354834 0.0341 0.1699 0.2536
v -0.554343 0.223574 -0.218679 0.0467 0.1261 0.1832
v -0.552036 0.223599 -0.094381 0.0001 0.3289 0.4597
v -0.706110 0.214494 0.054523 0.0009 0.2966 0.4205
v -0.750065 0.223623 0.211211 0.0029 0.2489 0.3633
v -0.778342 0.223613 0.252995 0.0123 0.1301 0.2009
v -0.683932 0.211774 0.354861 0.0444 0.0073 0.0199
v -0.821103 0.319320 -0.434588 0.2962 0.3001 0.3103
v -0.803623 0.301533 -0.350389 0.0039 0.0157 0.0332
v -0.750754 0.351395 0.334130 0.2864 0.4146 0.4781
v -0.820712 0.409434 -0.406203 0.7916 0.7876 0.7831
v -0.821003 0.419432 -0.239941 0.3789 0.4559 0.5137
v -0.788618 0.415871 -0.122972 0.3404 0.3973 0.4513
v -0.810502 0.415795 -0.068873 0.5395 0.6755 0.7471
v -0.784660 0.423659 0.148428 0.4455 0.6174 0.7104
v -0.805124 0.422429 0.224233 0.4223 0.5710 0.6487
v -0.812012 0.510124 -0.071602 0.7799 0.7800 0.7786
v -0.814424 0.510077 -0.063143 0.6886 0.7177 0.7406
v -0.725181 0.879653 -0.041716 0.5000 0.5000 0.5000
v -0.441129 0.115663 -0.377377 0.0035 0.1494 0.2395
v -0.300544 0.191017 -0.337428 0.0000 0.1730 0.2739
v -0.434100 0.194849 0.293099 0.0016 0.1978 0.2949
v -0.283166 0.122917 0.391431 0.0000 0.2866 0.4250
v -0.541565 0.294858 -0.353657 0.0101 0.0714 0.1173
v -0.291908 0.223602 -0.210229 0.0016 0.1993 0.2944
v -0.316553 0.223609 -0.095578 0.0005 0.3168 0.4363
v -0.291755 0.223604 0.029600 0.0022 0.2718 0.3834
v -0.388629 0.223610 0.075937 0.0000 0.3584 0.4939
v -0.507517 0.292069 0.344246 0.0056 0.1701 0.2545
v -0.354171 0.298364 0.398773 0.0234 0.1520 0.2347
v -0.361508 0.400650 -0.424439 0.4402 0.4420 0.4463
v -0.319901 0.379903 0.351182 0.2465 0.3088 0.3541
v -0.281687 0.380340 0.354310 0.6844 0.7214 0.7537
v -0.281720 0.426217 -0.354109 0.7861 0.7841 0.7816
v -0.286103 0.427450 -0.349306 0.2879 0.3682 0.4334
v -0.298593 0.427739 -0.070108 0.3537 0.4279 0.4849
v -0.288832 0.425467 -0.003099 0.4708 0.6914 0.7993
v -0.355148 0.426274 0.151701 0.5199 0.6863 0.7713
v -0.338403 0.423665 0.220923 0.5746 0.6268 0.6815
v -0.350776 0.468974 0.391448 0.7593 0.7754 0.7952
v -0.402598 0.533423 -0.428885 0.5000 0.5000 0.5000
v -0.304447 0.587662 0.387380 0.5000 0.5000 0.5000
v -0.057641 0.091875 -0.435198 0.0059 0.1441 0.2278
v -0.043975 0.187934 -0.340650 0.0000 0.1841 0.2906
v -0.279982 0.091831 0.352855 0.0022 0.1569 0.2510
v -0.266177 0.122917 0.392319 0.0114 0.2171 0.3074
v -0.265847 0.299917 -0.390731 0.0060 0.1037 0.1724
v -0.032649 0.223575 -0.210784 0.0000 0.1910 0.2976
v -0.037726 0.223575 -0.188964 0.0000 0.4231 0.5648
v -0.030306 0.223584 0.053303 0.0000 0.4251 0.5664
v -0.039044 0.223595 0.107537 0.0000 0.4188 0.5624
v -0.167962 0.291833 0.345733 0.0149 0.2270 0.3244
v -0.202915 0.278467 0.354183 0.0212 0.2128 0.3152
v -0.010585 0.383762 -0.405582 0.2397 0.2413 0.2488
v -0.098973 0.359412 0.353142 0.0294 0.1346 0.1910
v -0.060456 0.404928 0.359524 0.1306 0.3993 0.4926
v -0.013758 0.419633 -0.353751 0.7913 0.7462 0.7434
v -0.055298 0.434797 -0.216099 0.7783 0.7424 0.7438
v -0.239891 0.429649 -0.070216 0.7241 0.7588 0.7807
v -0.144269 0.424267 0.067818 0.7057 0.5679 0.5906
v -0.214308 0.429564 0.202365 0.7645 0.2867 0.2866
v -0.218435 0.429462 0.214942 0.6940 0.5482 0.5792
v -0.019346 0.409430 0.353903 0.6706 0.6981 0.7309
v -0.131058 0.583287 -0.453796 0.5000 0.5000 0.5000
v -0.099964 0.587651 0.387831 0.5000 0.5000 0.5000
v 0.012703 0.091839 -0.446813 0.0000 0.1577 0.2611
v 0.207373 0.189047 -0.339304 0.0000 0.1847 0.2938
v 0.032593 0.195538 0.300985 0.0045 0.1871 0.2940
v -0.007656 0.091810 0.406097 0.0222 0.1007 0.1725
v 0.117700 0.216023 -0.422380 0.1132 0.0704 0.1326
v 0.224507 0.223602 -0.215738 0.0000 0.2829 0.4077
v 0.171202 0.223606 -0.071633 0.0000 0.4249 0.5681
v 0.135078 0.223608 -0.050663 0.0000 0.4259 0.5698
v 0.250329 0.223609 0.076776 0.0000 0.4218 0.5648
v 0.249171 0.292358 0.316270 0.0248 0.2242 0.3317
v 0.125084 0.223207 0.354610 0.2716 0.2247 0.2626
v 0.124340 0.384113 -0.407730 0.1619 0.1318 0.1559
v 0.071971 0.348563 0.351944 0.0768 0.0296 0.0597
v 0.105302 0.404643 0.358421 0.3436 0.1468 0.1740
v 0.086592 0.423639 -0.352410 0.6433 0.1720 0.2212
v 0.098890 0.433389 -0.278554 0.5261 0.5711 0.6259
v 0.190520 0.426129 -0.072755 0.6166 0.6951 0.7470
v 0.253405 0.421706 0.070699 0.7321 0.4919 0.5086
v 0.256333 0.421758 0.072631 0.7327 0.0885 0.0907
v 0.079821 0.428496 0.219018 0.6442 0.1536 0.1704
v 0.083724 0.407408 0.354109 0.6126 0.1274 0.1692
v 0.036863 0.582599 -0.454516 0.7268 0.0013 0.0649
v 0.063418 0.588077 0.390865 0.6327 0.0167 0.0614
v 0.442242 0.091109 0.402817 0.4916 0.0000 0.0041
v 0.272590 0.091858 -0.454221 0.0000 0.1724 0.2834
v 0.272734 0.187949 -0.340678 0.0000 0.2179 0.3372
v 0.264364 0.091868 0.391856 0.5474 0.0000 0.0015
v 0.310224 0.216119 -0.424007 0.0851 0.0439 0.0798
v 0.288599 0.223614 -0.329959 0.0000 0.3168 0.4505
v 0.260239 0.223606 -0.102952 0.0000 0.4268 0.5666
v 0.528523 0.223599 0.051878 0.0000 0.4281 0.5694
v 0.527352 0.223596 0.076268 0.0000 0.4265 0.5690
v 0.369583 0.292700 0.314948 0.0016 0.3330 0.4491
v 0.350507 0.277977 0.364790 0.1923 0.2090 0.2556
v 0.277617 0.384017 -0.406103 0.2002 0.0941 0.1212
v 0.466419 0.339359 0.351570 0.0831 0.0304 0.0616
v 0.264456 0.393971 0.365176 0.3098 0.1452 0.1666
v 0.402651 0.405354 -0.447355 0.5598 0.2489 0.3109
v 0.328188 0.421216 -0.220347 0.4901 0.4644 0.5150
v 0.525925 0.421615 -0.071947 0.6267 0.3981 0.4340
v 0.479710 0.421626 -0.033471 0.7834 0.4730 0.4780
v 0.528232 0.422948 0.076381 0.6869 0.1351 0.1367
v 0.293374 0.407003 0.352662 0.6898 0.3143 0.3148
v 0.405008 0.422997 0.398774 0.6327 0.0470 0.0774
v 0.263168 0.583300 -0.453812 0.4958 0.0387 0.1411
v 0.278008 0.587089 0.383310 0.6484 0.0118 0.0523
v 0.657980 0.091338 -0.439062 0.5000 0.5000 0.5000
v 0.792122 0.078352 0.209151 0.1035 0.0460 0.0759
v 0.799933 0.050419 0.231919 0.0952 0.2084 0.3026
v 0.530866 0.070530 0.416881 0.5292 0.0000 0.0011
v 0.788999 0.104581 -0.353408 0.0051 0.1804 0.2907
v 0.794465 0.110084 -0.213328 0.0129 0.1799 0.2791
v 0.792122 0.110040 -0.102596 0.0141 0.1972 0.2946
v 0.795247 0.110066 0.054473 0.0004 0.2206 0.3362
v 0.798370 0.110120 0.104955 0.1018 0.1088 0.1732
v 0.775721 0.105688 0.214440 0.0516 0.1053 0.1696
v 0.530292 0.092514 0.420534 0.3674 0.0585 0.1262
v 0.732210 0.299724 -0.424621 0.0442 0.0952 0.1527
v 0.538897 0.223607 -0.331734 0.0028 0.2958 0.4121
v 0.583000 0.223603 -0.205145 0.0031 0.2753 0.3840
v 0.665058 0.223608 -0.057633 0.0000 0.2829 0.4046
v 0.670971 0.223619 0.078522 0.0023 0.2340 0.3376
v 0.539458 0.292700 0.318204 0.0024 0.1980 0.2858
v 0.544927 0.249428 0.372259 0.1180 0.0877 0.1512
v 0.768886 0.398755 -0.351476 0.1537 0.1157 0.1444
v 0.800594 0.400053 -0.281078 0.0413 0.0257 0.0525
v 0.533648 0.337068 0.351672 0.1914 0.0194 0.0401
v 0.785873 0.361077 0.365497 0.1612 0.0268 0.0559
v 0.544583 0.411823 -0.364292 0.4168 0.4117 0.4760
v 0.608581 0.420579 -0.215334 0.5242 0.3494 0.3570
v 0.782053 0.422611 -0.082771 0.7575 0.4681 0.4641
v 0.675749 0.422068 -0.024825 0.7395 0.3988 0.4179
v 0.699539 0.422548 0.075016 0.7120 0.3906 0.3925
v 0.754257 0.405677 0.353111 0.7308 0.3700 0.3720
v 0.765986 0.405693 0.353739 0.6653 0.0797 0.0839
v 0.530553 0.532746 -0.435377 0.0510 0.1098 0.2850
v 0.906349 0.015360 0.178523 0.2609 0.0605 0.0929
v 0.841326 0.078357 0.218102 0.2273 0.0858 0.1265
v 0.806082 0.104662 -0.354425 0.0113 0.1083 0.1873
v 0.833323 0.110135 -0.216837 0.0106 0.1846 0.2854
v 0.855387 0.110078 -0.133674 0.0062 0.3463 0.4780
v 0.830564 0.110112 0.033898 0.0003 0.3208 0.4493
v 0.845843 0.110120 0.090287 0.1360 0.1093 0.1768
v 0.880343 0.104179 0.214397 0.0892 0.1230 0.2046
v 0.811881 0.195000 0.445484 0.3273 0.0725 0.1516
v 0.869186 0.299302 -0.440863 0.1532 0.1131 0.1592
v 1.010249 0.280934 -0.269818 0.0061 0.0853 0.1412
v 1.022561 0.296021 -0.072235 0.0031 0.1909 0.2760
v 0.868584 0.196436 0.063247 0.0062 0.1435 0.2002
v 1.004564 0.241554 0.129370 0.3274 0.3154 0.3334
v 0.977228 0.203380 0.341602 0.1961 0.1990 0.2394
v 0.991500 0.297862 0.400088 0.0854 0.1824 0.2723
v 0.954102 0.386716 -0.400386 0.3077 0.2137 0.2304
v 0.801541 0.400356 -0.280816 0.0482 0.0445 0.0646
v 0.866105 0.400632 -0.121110 0.0924 0.0644 0.0893
v 0.866280 0.401290 0.018715 0.1071 0.0440 0.0618
v 0.856320 0.405163 0.181481 0.2882 0.1668 0.1595
v 0.802154 0.332110 0.351970 0.4341 0.3539 0.3320
v 0.803603 0.360497 0.365152 0.3125 0.3113 0.3482
v 0.949424 0.408203 -0.351769 0.4238 0.3884 0.3995
v 0.850731 0.406175 -0.211915 0.4529 0.1916 0.2011
v 0.800677 0.426380 -0.153333 0.6350 0.0945 0.1116
v 0.897563 0.412296 0.056036 0.6479 0.1438 0.1640
v 0.861636 0.411270 0.141043 0.5982 0.1789 0.1748
v 0.907973 0.411678 0.232421 0.4392 0.2872 0.3099
v 0.803059 0.407923 0.353405 0.7412 0.7520 0.7584
v 1.033465 0.588659 -0.351172 0.5000 0.5000 0.5000
v 1.011443 0.513101 -0.217702 0.6907 0.0008 0.0008
v 1.011376 0.513875 -0.193605 0.6969 0.0010 0.0018
v 1.011423 0.513629 0.063527 0.6970 0.0000 0.0013
v 1.011495 0.516425 0.187991 0.5496 0.1603 0.1702
v 0.983524 0.520618 0.322722 0.5537 0.4616 0.4509
f 150 151 181
f 181 151 182
f 212 181 182
f 182 151 152
f 150 128 151
f 150 127 128
f 129 130 152
f 180 150 181
f 180 149 150
f 149 127 150
f 149 126 127
f 151 128 129
f 152 151 129
f 105 83 106
f 82 83 105
f 126 103 127
f 127 103 104
f 106 83 84
f 106 84 107
f 128 105 106
f 128 106 129
f 127 105 128
f 127 104 105
f 104 103 81
f 103 80 81
f 81 82 105
f 104 81 105
f 103 79 80
f 102 79 103
f 102 103 125
f 125 103 126
f 37 3 2
f 38 3 37
f 57 18 19
f 188 158 187
f 159 158 188
f 166 159 188
f 166 188 194
f 188 187 194
f 187 193 194
f 158 165 193
f 158 193 187
f 165 158 166
f 166 158 159
f 159 158 187
f 188 159 187
f 164 163 191
f 164 191 192
f 165 164 192
f 163 162 190
f 163 190 191
f 193 165 192
f 165 166 194
f 193 165 194
f 162 189 190
f 161 189 162
f 129 106 107
f 130 107 108
f 131 108 124
f 130 108 131
f 100 101 77
f 78 77 101
f 130 129 107
f 14 21 15
f 14 20 21
f 192 199 200
f 193 192 200
f 58 19 20
f 58 20 59
f 8 15 9
f 9 15 16
f 212 182 213
f 213 182 183
f 214 213 183
f 182 152 183
f 184 185 178
f 153 147 154
f 185 147 178
f 185 154 147
f 184 153 185
f 153 154 185
f 184 178 177
f 185 215 184
f 209 216 178
f 185 178 216
f 215 185 216
f 152 130 153
f 124 130 131
f 130 124 154
f 147 154 124
f 130 154 153
f 152 153 183
f 183 153 184
f 214 183 184
f 214 184 215
f 51 9 50
f 9 8 50
f 108 101 124
f 156 154 133
f 51 9 52
f 52 9 10
f 74 51 75
f 51 52 75
f 97 74 98
f 124 131 147
f 147 131 154
f 174 144 147
f 174 147 178
f 154 131 133
f 144 121 124
f 144 124 147
f 131 124 154
f 121 144 147
f 121 147 124
f 74 75 98
f 120 97 121
f 97 98 121
f 175 176 204
f 205 204 212
f 212 204 211
f 203 175 176
f 203 176 204
f 177 173 208
f 173 201 208
f 205 212 213
f 206 205 213
f 207 206 213
f 207 213 214
f 163 162 191
f 171 164 172
f 164 165 172
f 164 193 165
f 164 192 193
f 161 162 190
f 189 161 190
f 94 116 117
f 94 93 116
f 96 95 118
f 119 96 118
f 95 94 118
f 118 94 117
f 117 139 140
f 116 139 117
f 93 89 112
f 116 93 112
f 116 112 136
f 116 136 139
f 41 40 48
f 40 47 48
f 49 71 72
f 48 70 71
f 48 47 70
f 49 48 71
f 70 66 89
f 70 89 93
f 40 66 70
f 47 40 70
f 49 42 48
f 42 41 48
f 41 42 49
f 48 41 49
f 141 140 170
f 171 141 170
f 141 171 142
f 172 142 171
f 140 139 169
f 140 169 170
f 170 163 164
f 170 164 171
f 169 162 170
f 162 163 170
f 166 165 193
f 166 193 194
f 71 94 95
f 72 71 95
f 72 96 73
f 72 95 96
f 71 70 94
f 70 93 94
f 139 136 162
f 169 139 162
f 118 141 119
f 119 141 142
f 173 172 166
f 172 165 166
f 194 193 200
f 194 200 201
f 49 72 50
f 50 72 73
f 173 194 201
f 173 166 194
f 118 117 141
f 117 140 141
f 51 50 74
f 50 73 74
f 97 73 96
f 74 73 97
f 205 204 211
f 205 211 212
f 211 218 212
f 212 218 219
f 218 211 219
f 219 211 212
f 212 205 206
f 212 206 213
f 219 212 220
f 212 213 220
f 221 214 215
f 215 214 222
f 221 215 222
f 214 221 222
f 214 208 215
f 214 207 208
f 220 213 214
f 220 214 221
f 206 207 214
f 213 206 214
f 208 200 207
f 201 200 208
f 207 200 201
f 207 201 208
f 214 213 221
f 213 220 221
f 97 120 113
f 90 97 113
f 121 113 120
f 121 114 113
f 98 91 97
f 120 90 113
f 90 120 97
f 91 90 97
f 74 67 68
f 74 68 75
f 67 74 97
f 90 67 97
f 67 44 74
f 74 44 51
f 51 44 67
f 45 44 68
f 68 44 67
f 68 67 91
f 67 90 91
f 44 38 45
f 37 38 44
f 202 173 201
f 174 173 202
f 134 160 137
f 160 167 137
f 167 134 137
f 160 134 167
f 75 68 98
f 68 91 98
f 174 144 173
f 144 143 173
f 121 120 144
f 144 120 143
f 42 43 49
f 49 43 50
f 44 43 50
f 44 50 51
f 120 119 143
f 119 142 143
f 96 119 97
f 97 119 120
f 51 43 44
f 50 43 51
f 51 67 74
f 143 142 172
f 143 172 173
f 36 35 41
f 36 41 42
f 42 41 35
f 42 35 36
f 13 14 20
f 19 13 20
f 54 53 47
f 46 47 53
f 12 11 53
f 54 12 47
f 54 12 53
f 53 17 56
f 11 17 53
f 69 53 76
f 46 53 69
f 69 76 99
f 92 69 99
f 15 14 8
f 7 8 14
f 18 12 19
f 12 13 19
f 11 12 17
f 17 12 18
f 13 7 14
f 13 6 7
f 12 6 13
f 12 5 6
f 5 12 47
f 46 69 70
f 21 20 60
f 60 20 59
f 19 59 20
f 19 58 59
f 21 22 60
f 60 22 61
f 107 84 85
f 85 78 108
f 78 101 108
f 85 108 107
f 101 100 124
f 100 123 124
f 21 15 16
f 21 16 22
f 15 21 20
f 14 15 20
f 55 51 74
f 77 55 74
f 22 16 55
f 55 61 22
f 9 8 51
f 8 50 51
f 9 8 16
f 16 51 55
f 16 9 51
f 123 120 143
f 123 143 146
f 123 97 120
f 100 97 123
f 77 97 100
f 143 173 177
f 146 143 177
f 77 74 97
f 85 84 78
f 65 88 66
f 66 88 89
f 40 39 66
f 39 65 66
f 112 111 136
f 111 135 136
f 136 135 161
f 136 161 162
f 89 88 112
f 88 111 112
f 202 174 178
f 202 178 209
f 216 215 209
f 195 167 174
f 174 202 195
f 174 178 209
f 202 174 209
f 147 146 178
f 146 177 178
f 124 123 147
f 123 146 147
f 177 208 178
f 178 208 209
f 208 215 209
f 210 203 211
f 176 180 211
f 204 176 211
f 180 175 210
f 175 203 210
f 180 210 211
f 179 175 180
f 175 180 176
f 196 168 175
f 196 175 203
f 211 180 181
f 211 212 181
f 203 175 179
f 203 179 210
f 145 148 179
f 175 145 179
f 210 179 180
f 179 148 180
f 148 149 180
f 122 99 125
f 125 99 102
f 122 125 148
f 145 122 148
f 149 125 126
f 148 125 149
f 65 88 92
f 69 65 92
f 88 69 92
f 47 46 70
f 65 69 88
f 40 41 47
f 47 41 48
f 7 6 49
f 49 6 48
f 4 46 5
f 46 47 5
f 6 5 48
f 5 47 48
f 46 40 47
f 46 39 40
f 7 49 8
f 8 49 50
f 39 46 65
f 65 46 69
f 4 5 47
f 46 4 47
f 28 21 27
f 20 26 21
f 21 26 27
f 16 15 22
f 22 15 21
f 22 21 28
f 26 19 20
f 19 26 25
f 18 24 19
f 25 19 24
f 18 12 13
f 18 13 19
f 191 198 199
f 191 199 192
f 148 179 155
f 179 186 155
f 115 122 138
f 138 122 145
f 92 99 122
f 115 92 122
f 161 135 168
f 135 138 168
f 135 111 115
f 138 135 115
f 111 88 92
f 111 92 115
f 199 198 205
f 199 205 206
f 200 199 207
f 199 206 207
f 168 175 203
f 168 203 196
f 138 145 168
f 168 145 175
f 197 196 204
f 196 203 204
f 191 190 198
f 198 190 197
f 189 161 196
f 161 168 196
f 190 189 197
f 189 196 197
f 138 175 145
f 138 168 175
f 148 175 179
f 145 175 148
f 198 197 205
f 197 204 205
f 60 83 84
f 60 61 84
f 58 57 80
f 81 58 80
f 57 58 81
f 80 57 81
f 57 19 58
f 61 55 84
f 84 55 77
f 57 17 18
f 58 62 19
f 62 58 59
f 62 59 63
f 62 19 25
f 58 18 19
f 57 18 58
f 78 84 77
f 81 58 59
f 82 81 59
f 58 62 63
f 58 63 59
f 57 79 56
f 79 57 80
f 17 57 56
f 83 82 60
f 82 59 60
f 102 76 79
f 125 155 132
f 125 148 155
f 148 132 155
f 148 125 132
f 145 125 148
f 145 122 125
f 138 115 145
f 99 76 102
f 76 53 56
f 79 76 56
