mtllib P-12_tex.mtl
v 0.650673 2.694489 -0.435768
v 0.630125 2.698592 -0.584708
v 0.811378 2.687216 -0.500258
v 0.167373 2.310032 -0.265421
v 0.811378 2.687216 -0.500258
v 0.650673 2.694489 -0.435768
v 0.161417 2.595857 -0.888986
v 0.811378 2.687216 -0.500258
v 0.167373 2.310032 -0.265421
v 0.839844 2.698414 0.061318
v 0.650673 2.694489 -0.435768
v 0.988648 2.535212 0.074748
v 0.994897 1.600120 -1.023875
v 0.907455 0.927737 -1.593336
v 0.981484 1.507640 -1.037041
v 0.980091 1.616552 2.047357
v 0.992051 0.945658 1.952469
v 0.925946 1.614956 2.948495
v 0.888977 2.202829 2.456567
v 0.889294 2.088372 2.307640
v 0.532146 2.672403 3.023669
v 0.811378 2.687216 -0.500258
v 0.381110 2.000068 -1.021355
v 0.650673 2.694489 -0.435768
v 0.783307 2.471566 0.861796
v 0.989940 2.231764 1.247997
v 0.764792 2.713566 1.261234
v -0.179256 1.241119 2.407802
v -0.191366 0.755839 2.405223
v -0.029817 0.756160 2.253969
v -0.701779 0.195763 2.093182
v -0.207829 0.535561 2.772409
v -0.531542 0.866490 2.729221
v -0.207829 0.535561 2.772409
v -0.191366 0.755839 2.405223
v -0.531542 0.866490 2.729221
v -0.191366 0.755839 2.405223
v -0.701779 0.195763 2.093182
v -0.531542 0.866490 2.729221
v -0.741195 0.911589 1.467361
v -0.825401 0.238777 2.092438
v -0.989467 0.541886 1.991346
v -0.825401 0.238777 2.092438
v -0.985443 0.528914 1.900188
v -0.741195 0.911589 1.467361
v -0.213361 0.755791 0.604499
v -0.834378 0.539391 0.356328
v -0.727745 0.453969 0.311479
v 0.899908 0.469711 -1.322622
v 0.878314 0.469860 -1.808047
v 0.880473 0.469854 -1.557168
v 0.904764 0.469860 -1.694565
v 0.012421 0.538992 -2.019254
v 0.878314 0.469860 -1.808047
v 0.854830 0.554674 -1.945250
v 0.854830 0.554674 -1.945250
v 0.545774 0.971549 -2.497803
v 0.997648 1.010222 -2.718220
v -0.449673 1.630901 -2.794177
v -0.418564 1.599888 -2.851577
v -0.218617 1.690813 -2.780610
v -0.896655 0.868754 -2.689355
v -0.710325 0.810123 -2.475808
v -0.490021 0.544162 -2.165111
v -0.717818 0.313472 -0.432232
v -0.859536 0.453838 -0.433454
v -0.802994 0.485560 0.379059
v 0.003827 0.464589 0.751959
v -0.192867 0.466995 1.312326
v -0.197035 0.467209 1.323882
v -0.466142 2.349026 0.734359
v -0.234465 2.436705 0.575666
v 0.070722 2.296292 0.379589
v -0.931209 1.748508 3.028135
v -0.269371 2.689914 3.025337
v -0.768075 2.680599 2.782530
v -0.317954 2.150678 -1.021503
v -0.001477 1.575956 -1.021497
v -0.159246 2.096913 -1.021497
v 0.381110 2.000068 -1.021355
v 0.161417 2.595857 -0.888986
v 0.811378 2.687216 -0.500258
v 0.888420 1.601061 -0.628613
v 0.889335 0.549403 -0.448914
v 0.261633 0.719662 -0.571141
v -0.189476 0.710001 -0.613153
v -0.217613 1.572764 -0.851874
v -0.861516 1.910477 -0.707885
v -0.871485 1.602270 -0.438993
v -0.859494 0.569969 -0.498216
v -0.858866 0.449538 -0.557142
v -0.721885 0.314020 -0.482459
v -0.188196 2.423048 -0.868414
v -0.732547 2.647472 -0.856172
v -0.726071 0.159348 -2.342632
v 0.352519 0.359453 -2.764898
v 0.136653 0.359453 -2.153154
v 0.325525 0.359721 -2.797570
v -0.667890 0.126673 -2.925052
v 0.694573 0.391473 -2.802237
v 0.891273 0.520504 -3.412720
v -0.015650 0.473196 -3.918808
v -0.694776 0.523524 -3.826358
v -0.903054 0.207127 -2.311027
v -0.903371 0.149229 -3.092231
v 0.731399 0.070984 -2.466094
v 0.878314 0.469860 -1.808047
v 0.012421 0.538992 -2.019254
v -0.489734 0.536639 -2.190493
v 0.889335 0.549403 -0.448914
v 0.888420 1.601061 -0.628613
v 0.567201 1.495276 -1.100420
v 0.865158 2.155110 -1.040188
v 0.854638 0.554853 -1.457982
v -0.667770 1.995833 -1.149754
v 0.314055 1.215157 -1.058803
v -0.166805 2.152626 -1.179182
v 0.567201 1.495276 -1.100420
v -0.493400 1.567588 -1.104854
v -0.010250 0.708786 -1.037610
v 0.865158 2.155110 -1.040188
v 0.310437 2.690450 -1.049560
v 0.780155 2.510370 -1.025200
v -0.188393 2.590216 -1.040893
v 0.854638 0.554853 -1.457982
v -0.491271 0.547122 -1.516818
v -0.933439 1.168861 -1.488321
v -0.912233 0.887075 -1.601041
v -0.786668 2.140351 -1.603548
v -0.739024 2.670051 -1.047809
v -0.188393 2.736669 1.755630
v -0.458039 2.742857 1.956044
v 0.162691 2.742303 1.940241
v -0.728230 2.770309 2.970095
v 0.364396 2.745341 2.038018
v 0.049133 2.733655 1.662281
v -0.879199 2.756765 2.264284
v -0.841865 2.770803 2.966864
v 0.815696 2.699891 1.415474
v 0.979211 2.729915 1.830313
v 0.904226 2.759874 2.439718
v 0.399212 2.726776 3.029506
v 0.089081 2.711987 3.027774
v 0.956858 2.767664 2.978530
v -0.199451 2.668967 1.540590
v -0.805631 2.740386 1.863528
v -0.783767 2.594135 1.321995
v -0.466142 2.349026 0.734359
v -0.868656 2.563628 1.134754
v 0.888420 1.601061 -0.628613
v 0.261633 0.719662 -0.571141
v -0.001477 1.575956 -1.021497
v 0.889335 0.549403 -0.448914
v 0.888660 1.608184 1.953129
v -0.029817 0.756160 2.253969
v 0.723924 0.540063 1.999070
v -0.179256 1.241119 2.407802
v -0.218898 0.755607 1.338470
v -0.989467 0.541886 1.991346
v -0.191366 0.755839 2.405223
v -0.741195 0.911589 1.467361
v 0.567201 1.495276 -1.100420
v 0.871197 1.609257 -2.114355
v 0.867615 1.639269 -1.976079
v 0.865158 2.155110 -1.040188
v 0.948635 1.385053 -2.162778
v 0.676184 2.407700 -2.173979
v 1.210525 1.577809 -2.410878
v -0.034948 0.756083 2.527327
v -0.517692 0.547479 3.100311
v 0.340643 0.541350 3.094332
v 0.816772 0.553965 3.078885
v -0.531542 0.866490 2.729221
v -0.961438 0.553292 3.078885
v -0.936603 0.553923 2.975905
v -1.010081 0.508675 3.003038
v -1.009627 0.520504 3.106302
v 0.843563 0.554167 2.965111
v 0.723924 0.540063 1.999070
v -0.029817 0.756160 2.253969
v 0.218641 0.755642 1.349406
v 0.916103 0.553840 3.057879
v 0.963268 0.553125 3.081218
v 0.805852 1.077519 1.424238
v 0.869128 0.172046 2.084695
v -0.189476 0.710001 -0.613153
v -0.859494 0.569969 -0.498216
v -0.217613 1.572764 -0.851874
v 0.261633 0.719662 -0.571141
v -0.001477 1.575956 -1.021497
v -0.871485 1.602270 -0.438993
v -0.936603 0.553923 2.975905
v -0.989467 0.541886 1.991346
v -0.191366 0.755839 2.405223
v -0.197035 0.467209 1.323882
v -0.192867 0.466995 1.312326
v -0.218898 0.755607 1.338470
v -0.200713 0.755744 0.853484
v -0.711031 0.864394 -2.797150
v -0.694776 0.523524 -3.826358
v -0.667890 0.126673 -2.925052
v -0.615563 0.680198 -3.628814
v 0.869128 0.172046 2.084695
v 0.396784 0.344449 1.403096
v 0.805852 1.077519 1.424238
v -0.784001 0.513649 0.867490
v -0.192867 0.466995 1.312326
v -0.985443 0.528914 1.900188
v -0.197035 0.467209 1.323882
v -0.200713 0.755744 0.853484
v 0.891273 0.662717 -3.413528
v -0.171123 0.746322 -3.753277
v 0.690847 1.294950 -3.586925
v -0.015650 0.473196 -3.918808
v 0.891273 0.520504 -3.412720
v -0.694776 0.523524 -3.826358
v 0.882632 0.919607 -3.257323
v 0.944682 0.858152 -3.241223
v 0.973327 0.626159 -3.418498
v 0.919948 0.929958 -1.636304
v 0.854830 0.554674 -1.945250
v 0.997648 1.010222 -2.718220
v 1.210525 1.577809 -2.410878
v 0.944682 0.858152 -3.241223
v 0.907455 0.927737 -1.593336
v 0.981484 1.507640 -1.037041
v 0.854638 0.554853 -1.457982
v 0.925761 0.004646 -2.783448
v 0.899908 0.000000 -2.703691
v 0.897750 1.171506 -3.169804
v -0.615563 0.680198 -3.628814
v -0.711031 0.864394 -2.797150
v -0.418564 1.599888 -2.851577
v -0.596122 1.078591 -3.643699
v -0.491271 0.547122 -1.516818
v -0.859494 0.569969 -0.498216
v -0.189476 0.710001 -0.613153
v 0.261633 0.719662 -0.571141
v -0.010250 0.708786 -1.037610
v -0.912233 0.887075 -1.601041
v 0.723924 0.540063 1.999070
v -0.029817 0.756160 2.253969
v 0.805852 1.077519 1.424238
v -0.795518 1.930602 1.013024
v -0.868656 2.563628 1.134754
v -0.752934 2.683458 0.155281
v -0.786668 2.140351 -1.603548
v -0.739024 2.670051 -1.047809
v -0.732547 2.647472 -0.856172
v -0.861516 1.910477 -0.707885
v -0.871485 1.602270 -0.438993
v -0.933439 1.168861 -1.488321
v -0.029817 0.756160 2.253969
v 0.218641 0.755642 1.349406
v 0.805852 1.077519 1.424238
v -0.752934 2.683458 0.155281
v -0.868656 2.563628 1.134754
v -0.234465 2.436705 0.575666
v 0.919948 0.929958 -1.636304
v 0.948635 1.385053 -2.162778
v 0.981484 1.507640 -1.037041
v -0.793384 2.800000 -1.009792
v -0.747169 2.757700 0.141747
v -0.273419 2.715847 -0.408486
v -0.370322 2.711118 0.465053
v -0.767095 2.755282 0.602747
v -0.395690 2.707937 -0.809191
v -0.754142 2.738873 -1.051628
v -0.267828 2.709933 -1.029602
v -0.188196 2.423048 -0.868414
v -0.188393 2.590216 -1.040893
v -0.234465 2.436705 0.575666
v -0.062612 0.755982 0.707181
v -0.698161 0.540183 -0.117742
v 0.154396 0.756244 0.127236
v -0.213361 0.755791 0.604499
v 0.854830 0.554674 -1.945250
v 0.731399 0.070984 -2.466094
v 0.545774 0.971549 -2.497803
v 0.878314 0.469860 -1.808047
v 0.658064 2.313254 0.383370
v 0.070722 2.296292 0.379589
v -0.171123 2.339306 0.771245
v 0.783307 2.471566 0.861796
v -0.234465 2.436705 0.575666
v -0.466142 2.349026 0.734359
v 0.396784 0.344449 1.403096
v 0.869128 0.172046 2.084695
v 0.723924 0.540063 1.999070
v 0.805852 1.077519 1.424238
v 0.992051 0.945658 1.952469
v -0.218898 0.755607 1.338470
v -0.191366 0.755839 2.405223
v -0.179256 1.241119 2.407802
v -0.834378 0.539391 0.356328
v -0.859124 0.587176 -0.429951
v -0.213361 0.755791 0.604499
v -0.989467 0.541886 1.991346
v -0.936603 0.553923 2.975905
v -0.531542 0.866490 2.729221
v -0.191366 0.755839 2.405223
v 0.658064 2.313254 0.383370
v 0.167373 2.310032 -0.265421
v 0.650673 2.694489 -0.435768
v 0.070722 2.296292 0.379589
v -0.199451 2.668967 1.540590
v -0.123819 2.669157 1.571181
v -0.204588 2.665292 2.326242
v -0.015650 2.665863 2.340958
v -0.823075 2.634565 2.098695
v -0.269371 2.689914 3.025337
v 0.050210 2.694780 3.026300
v -0.768075 2.680599 2.782530
v -0.783767 2.594135 1.321995
v 0.532146 2.672403 3.023669
v -0.466142 2.349026 0.734359
v -0.171123 2.339306 0.771245
v -0.868656 2.563628 1.134754
v 0.800392 2.529149 1.763328
v 0.783307 2.471566 0.861796
v 0.888977 2.202829 2.456567
v -0.841865 2.770803 2.966864
v -0.728230 2.770309 2.970095
v -0.879199 2.756765 2.264284
v 0.545774 0.971549 -2.497803
v 0.899908 0.000000 -2.703691
v 0.997648 1.010222 -2.718220
v 0.731399 0.070984 -2.466094
v -0.159246 2.096913 -1.021497
v 0.811378 2.687216 -0.500258
v 0.381110 2.000068 -1.021355
v 0.161417 2.595857 -0.888986
v -0.179256 1.241119 2.407802
v -0.029817 0.756160 2.253969
v -0.149869 1.189153 2.593220
v -0.034948 0.756083 2.527327
v -0.045880 1.083225 1.370689
v -0.045880 1.083225 1.370689
v 0.888755 1.612484 1.772842
v 0.218641 0.755642 1.349406
v 0.805852 1.077519 1.424238
v 0.154396 0.756244 0.127236
v 0.852677 0.538908 0.356509
v 0.851738 0.647808 -0.279789
v -0.062612 0.755982 0.707181
v 0.261633 0.719662 -0.571141
v -0.213361 0.755791 0.604499
v -0.698161 0.540183 -0.117742
v 0.889108 0.916253 1.125983
v -0.072868 0.755934 0.888631
v 0.805852 1.077519 1.424238
v 0.889335 0.549403 -0.448914
v -0.727745 0.453969 0.311479
v -0.802994 0.485560 0.379059
v 0.218641 0.755642 1.349406
v 0.981484 1.507640 -1.037041
v 0.948635 1.385053 -2.162778
v 0.567201 1.495276 -1.100420
v -0.218898 0.755607 1.338470
v -0.701779 0.195763 2.093182
v -0.985443 0.528914 1.900188
v -0.825401 0.238777 2.092438
v 0.925761 0.004646 -2.783448
v 0.694573 0.391473 -2.802237
v 0.944682 0.858152 -3.241223
v 0.882632 0.919607 -3.257323
v 0.899908 0.000000 -2.703691
v 0.731399 0.070984 -2.466094
v 0.545774 0.971549 -2.497803
v -0.784001 0.513649 0.867490
v -0.985443 0.528914 1.900188
v -0.743485 0.923978 0.971413
v -0.741195 0.911589 1.467361
v -0.727745 0.453969 0.311479
v -0.717818 0.313472 -0.432232
v -0.213361 0.755791 0.604499
v -0.667890 0.126673 -2.925052
v -0.711031 0.864394 -2.797150
v -0.726071 0.159348 -2.342632
v -0.710325 0.810123 -2.475808
v -0.888020 0.921173 -3.301661
v -0.903371 0.149229 -3.092231
v -0.711031 0.864394 -2.797150
v -0.888020 0.921173 -3.301661
v -0.418564 1.599888 -2.851577
v -0.782278 1.113005 -3.321381
v -0.317954 2.150678 -1.021503
v -0.732547 2.647472 -0.856172
v -0.188196 2.423048 -0.868414
v -0.159246 2.096913 -1.021497
v 0.161417 2.595857 -0.888986
v -0.861516 1.910477 -0.707885
v -0.743485 0.923978 0.971413
v -0.834378 0.539391 0.356328
v -0.200713 0.755744 0.853484
v -0.218898 0.755607 1.338470
v -0.741195 0.911589 1.467361
v -0.191366 0.755839 2.405223
v -0.989467 0.541886 1.991346
v 0.650673 2.694489 -0.435768
v 0.658064 2.313254 0.383370
v 0.986974 2.513056 0.152327
v 0.989940 2.231764 1.247997
v 0.988648 2.535212 0.074748
v 0.852677 0.538908 0.356509
v 0.851738 0.647808 -0.279789
v 0.991865 1.073755 0.727605
v 0.898425 0.658791 1.038625
v 0.089081 2.711987 3.027774
v 0.532146 2.672403 3.023669
v 0.399212 2.726776 3.029506
v 0.050210 2.694780 3.026300
v -0.269371 2.689914 3.025337
v 0.956858 2.767664 2.978530
v 0.930138 2.630264 3.028646
v -0.728230 2.770309 2.970095
v 0.960206 1.692897 3.032601
v -0.802994 0.485560 0.379059
v -0.727745 0.453969 0.311479
v -0.784001 0.513649 0.867490
v -0.192867 0.466995 1.312326
v -0.207829 0.535561 2.772409
v -0.701779 0.195763 2.093182
v -0.191366 0.755839 2.405223
v -0.218898 0.755607 1.338470
v -0.861516 1.910477 -0.707885
v -0.742803 2.686281 -0.396109
v -0.732547 2.647472 -0.856172
v -0.933439 1.168861 -1.488321
v -0.871485 1.602270 -0.438993
v -0.786668 2.140351 -1.603548
v -0.739024 2.670051 -1.047809
v -0.748700 2.442048 -2.117315
v -0.773583 2.154967 -2.160664
v -0.896655 1.473155 -2.162778
v -0.851301 1.501166 -2.729860
v -0.924738 0.927195 -2.189387
v -0.896655 0.868754 -2.689355
v -0.735244 2.164038 -2.392658
v -0.763495 1.622247 -2.624431
v -0.782278 1.113005 -3.321381
v -0.912233 0.887075 -1.601041
v -0.859494 0.569969 -0.498216
v -0.754142 2.738873 -1.051628
v -0.814392 0.532333 -1.469797
v -0.858866 0.449538 -0.557142
v -0.859124 0.587176 -0.429951
v -0.871210 1.602270 -0.373940
v -0.859536 0.453838 -0.433454
v -0.888020 0.921173 -3.301661
v -0.903371 0.149229 -3.092231
v -0.903054 0.207127 -2.311027
v -0.793384 2.800000 -1.009792
v -0.747169 2.757700 0.141747
v -0.767095 2.755282 0.602747
v -0.752934 2.683458 0.155281
v -0.579353 2.385835 -2.413586
v 0.780155 2.510370 -1.025200
v 0.381110 2.000068 -1.021355
v 0.811378 2.687216 -0.500258
v 0.865158 2.155110 -1.040188
v 0.381110 2.000068 -1.021355
v 0.780155 2.510370 -1.025200
v 0.888420 1.601061 -0.628613
v -0.490685 0.537711 -1.603109
v -0.814392 0.532333 -1.469797
v -0.721885 0.314020 -0.482459
v -0.858866 0.449538 -0.557142
v 0.880473 0.469854 -1.557168
v -0.010250 0.708786 -1.037610
v 0.854638 0.554853 -1.457982
v 0.001806 0.391782 -1.152146
v 0.907455 0.927737 -1.593336
v -0.752934 2.683458 0.155281
v -0.234465 2.436705 0.575666
v -0.505432 2.153615 0.777579
v -0.795518 1.930602 1.013024
v 0.914847 0.566532 -0.627152
v 0.854638 0.554853 -1.457982
v 0.889335 0.549403 -0.448914
v -0.010250 0.708786 -1.037610
v 0.261633 0.719662 -0.571141
v 0.010710 0.497013 -0.449476
v 0.001639 0.481206 0.115525
v -0.743485 0.923978 0.971413
v -0.192867 0.466995 1.312326
v -0.200713 0.755744 0.853484
v -0.989467 0.541886 1.991346
v -0.825401 0.238777 2.092438
v -0.191366 0.755839 2.405223
v -0.701779 0.195763 2.093182
v -0.743485 0.923978 0.971413
v -0.784001 0.513649 0.867490
v -0.192867 0.466995 1.312326
v 0.800392 2.529149 1.763328
v 0.049133 2.733655 1.662281
v 0.815696 2.699891 1.415474
v 0.979211 2.729915 1.830313
v -0.931209 1.748508 3.028135
v -0.712866 2.153900 2.870974
v -0.269371 2.689914 3.025337
v -0.768075 2.680599 2.782530
v -0.924738 0.927195 -2.189387
v -0.896655 0.868754 -2.689355
v -0.490021 0.544162 -2.165111
v -0.491271 0.547122 -1.516818
v -0.912233 0.887075 -1.601041
v -0.010250 0.708786 -1.037610
v 0.854830 0.554674 -1.945250
v 0.854638 0.554853 -1.457982
v 0.012421 0.538992 -2.019254
v -0.489734 0.536639 -2.190493
v -0.189476 0.710001 -0.613153
v 0.261633 0.719662 -0.571141
v -0.858866 0.449538 -0.557142
v -0.814392 0.532333 -1.469797
v -0.490685 0.537711 -1.603109
v -0.721885 0.314020 -0.482459
v -0.717818 0.313472 -0.432232
v -0.859536 0.453838 -0.433454
v -0.200713 0.755744 0.853484
v -0.743485 0.923978 0.971413
v -0.741195 0.911589 1.467361
v -0.218898 0.755607 1.338470
v -0.985443 0.528914 1.900188
v -0.197035 0.467209 1.323882
v 0.723924 0.540063 1.999070
v 0.805852 1.077519 1.424238
v 0.992051 0.945658 1.952469
v 0.916103 0.553840 3.057879
v 0.889108 0.916253 1.125983
v 0.805852 1.077519 1.424238
v 0.396784 0.344449 1.403096
v 0.694573 0.391473 -2.802237
v 0.891273 0.520504 -3.412720
v 0.882632 0.919607 -3.257323
v 0.891273 0.662717 -3.413528
v 0.420047 0.318832 1.315932
v 0.889108 0.916253 1.125983
v 0.805852 1.077519 1.424238
v 0.396784 0.344449 1.403096
v 0.939838 0.433349 1.186977
v 0.997206 1.631300 -1.021678
v 0.906923 2.569775 -1.060160
v 1.005865 2.694661 -0.801273
v 0.989473 2.736217 -1.025000
v 0.903281 2.793657 -0.939296
v -0.868656 2.563628 1.134754
v -0.466142 2.349026 0.734359
v -0.234465 2.436705 0.575666
v -0.505432 2.153615 0.777579
v -0.795518 1.930602 1.013024
v -0.452113 2.138290 0.652107
v 0.912323 2.136700 -1.039348
v 0.865158 2.155110 -1.040188
v 0.906923 2.569775 -1.060160
v 0.997206 1.631300 -1.021678
v 0.567201 1.495276 -1.100420
v 0.981484 1.507640 -1.037041
v 0.780155 2.510370 -1.025200
v 0.373031 2.759302 -1.053781
v 0.352519 2.738873 -1.052656
v 0.310437 2.690450 -1.049560
v 0.989473 2.736217 -1.025000
v 0.994897 1.600120 -1.023875
v -0.207829 0.535561 2.772409
v -1.010081 0.508675 3.003038
v -0.936603 0.553923 2.975905
v -0.531542 0.866490 2.729221
v -0.717818 0.313472 -0.432232
v -0.721885 0.314020 -0.482459
v -0.189476 0.710001 -0.613153
v -0.698161 0.540183 -0.117742
v 0.005813 0.477567 0.269500
v 0.003827 0.464589 0.751959
v -0.072868 0.755934 0.888631
v -0.062612 0.755982 0.707181
v 0.001639 0.481206 0.115525
v 0.134069 0.315110 1.475672
v 0.218641 0.755642 1.349406
v 0.267900 0.536639 1.959256
v 0.154396 0.756244 0.127236
v 0.261633 0.719662 -0.571141
v -0.888020 0.921173 -3.301661
v -0.896655 0.868754 -2.689355
v -0.711031 0.864394 -2.797150
v -0.710325 0.810123 -2.475808
v -0.615563 0.680198 -3.628814
v -0.200713 0.755744 0.853484
v -0.784001 0.513649 0.867490
v -0.743485 0.923978 0.971413
v 0.420047 0.318832 1.315932
v 0.003827 0.464589 0.751959
v 0.134069 0.315110 1.475672
v -0.197035 0.467209 1.323882
v 0.396784 0.344449 1.403096
v -0.149869 1.189153 2.593220
v -0.034948 0.756083 2.527327
v -0.531542 0.866490 2.729221
v -0.710325 0.810123 -2.475808
v -0.726071 0.159348 -2.342632
v -0.489734 0.536639 -2.190493
v 0.136653 0.359453 -2.153154
v -0.903054 0.207127 -2.311027
v -0.896655 0.868754 -2.689355
v -0.010250 0.708786 -1.037610
v 0.001806 0.391782 -1.152146
v 0.010710 0.497013 -0.449476
v -0.531542 0.866490 2.729221
v -0.936603 0.553923 2.975905
v -0.191366 0.755839 2.405223
v 0.888755 1.612484 1.772842
v -0.179256 1.241119 2.407802
v 0.888660 1.608184 1.953129
v -0.213361 0.755791 0.604499
v -0.717818 0.313472 -0.432232
v -0.698161 0.540183 -0.117742
v -0.867962 0.774464 -3.408390
v -0.615563 0.680198 -3.628814
v -0.711031 0.864394 -2.797150
v -0.888020 0.921173 -3.301661
v -0.721885 0.314020 -0.482459
v -0.859494 0.569969 -0.498216
v -0.189476 0.710001 -0.613153
v -0.858866 0.449538 -0.557142
v 0.989940 2.231764 1.247997
v 0.658064 2.313254 0.383370
v 0.783307 2.471566 0.861796
v 0.987996 2.184008 1.889530
v 0.800392 2.529149 1.763328
v 0.979211 2.729915 1.830313
v -0.867962 0.774464 -3.408390
v -0.615563 0.680198 -3.628814
v -0.694776 0.523524 -3.826358
v -0.888020 0.921173 -3.301661
v -0.939844 0.516204 -3.418938
v 0.897750 0.169056 2.014678
v 0.897211 0.352758 1.776306
v 0.992051 0.945658 1.952469
v 0.956050 0.551612 1.741094
v 0.919948 0.929958 -1.636304
v 1.210525 1.577809 -2.410878
v 0.948635 1.385053 -2.162778
v 0.889108 0.916253 1.125983
v 0.852677 0.538908 0.356509
v 0.898425 0.658791 1.038625
v 0.888420 1.601061 -0.628613
v 0.888522 1.614027 0.114730
v 0.381110 2.000068 -1.021355
v 0.874517 1.604110 0.645398
v 0.887619 1.539898 1.317535
v 0.851738 0.647808 -0.279789
v 0.882632 1.660198 0.569881
v 0.889276 1.924122 -0.264154
v 0.888576 1.623777 1.313379
v 0.889640 2.042070 2.499522
v 0.889294 2.088372 2.307640
v 0.893318 1.551012 2.955042
v 0.888660 1.608184 1.953129
v 0.889688 1.772940 1.818569
v 0.888755 1.612484 1.772842
v 0.783307 2.471566 0.861796
v 0.800392 2.529149 1.763328
v 0.888977 2.202829 2.456567
v 0.723924 0.540063 1.999070
v 0.805852 1.077519 1.424238
v 0.843563 0.554167 2.965111
v 0.889335 0.549403 -0.448914
v 0.650673 2.694489 -0.435768
v 0.956050 0.551612 1.741094
v 0.658064 2.313254 0.383370
v 0.960206 1.692897 3.032601
v 0.889640 2.042070 2.499522
v 0.532146 2.672403 3.023669
v 0.889294 2.088372 2.307640
v 0.960206 1.692897 3.032601
v -0.456927 2.669479 -0.158938
v -0.742803 2.686281 -0.396109
v -0.752934 2.683458 0.155281
v -0.732547 2.647472 -0.856172
v -0.188196 2.423048 -0.868414
v 0.134069 0.315110 1.475672
v 0.396784 0.344449 1.403096
v 0.267900 0.536639 1.959256
v 0.340643 0.541350 3.094332
v -0.019292 0.462438 3.101080
v 0.610019 0.399822 3.076552
v 0.816772 0.553965 3.078885
v 0.963268 0.553125 3.081218
v 0.899908 0.399858 3.078885
v -0.533886 0.399638 3.078885
v -0.517692 0.547479 3.100311
v -0.961438 0.553292 3.078885
v -1.009627 0.520504 3.106302
v -0.034948 0.756083 2.527327
v -0.179256 1.241119 2.407802
v -0.149869 1.189153 2.593220
v -0.029817 0.756160 2.253969
v -0.859124 0.587176 -0.429951
v -0.859494 0.569969 -0.498216
v -0.871485 1.602270 -0.438993
v -0.871210 1.602270 -0.373940
v -0.188196 2.423048 -0.868414
v -0.739024 2.670051 -1.047809
v -0.188393 2.590216 -1.040893
v -0.732547 2.647472 -0.856172
v -0.742803 2.686281 -0.396109
v -0.456927 2.669479 -0.158938
v -0.234465 2.436705 0.575666
v -0.273419 2.715847 -0.408486
v -0.752934 2.683458 0.155281
v -0.767095 2.755282 0.602747
v -0.456927 2.669479 -0.158938
v -0.188196 2.423048 -0.868414
v -0.273419 2.715847 -0.408486
v -0.814392 0.532333 -1.469797
v -0.912233 0.887075 -1.601041
v -0.491271 0.547122 -1.516818
v 0.925946 1.614956 2.948495
v 0.843563 0.554167 2.965111
v 0.916103 0.553840 3.057879
v -0.859124 0.587176 -0.429951
v -0.698161 0.540183 -0.117742
v -0.213361 0.755791 0.604499
v -0.698161 0.540183 -0.117742
v -0.859124 0.587176 -0.429951
v -0.834378 0.539391 0.356328
v -0.859494 0.569969 -0.498216
v -0.189476 0.710001 -0.613153
v 0.310437 2.690450 -1.049560
v -0.188196 2.423048 -0.868414
v -0.188393 2.590216 -1.040893
v 0.161417 2.595857 -0.888986
v 0.811378 2.687216 -0.500258
v 0.780155 2.510370 -1.025200
v 0.851738 0.647808 -0.279789
v 0.914847 0.566532 -0.627152
v 0.915863 0.552631 -0.305093
v 0.991865 1.073755 0.727605
v -0.867962 0.774464 -3.408390
v -0.939844 0.516204 -3.418938
v -0.615563 0.680198 -3.628814
v -0.694776 0.523524 -3.826358
v 0.811378 2.687216 -0.500258
v 0.161417 2.595857 -0.888986
v 0.650673 2.694489 -0.435768
v 0.373031 2.759302 -1.053781
v 0.269610 2.699385 -0.920812
v 0.630125 2.698592 -0.584708
v 0.903281 2.793657 -0.939296
v 0.839844 2.698414 0.061318
v 0.968106 2.736741 -0.334850
v 0.167373 2.310032 -0.265421
v 0.070722 2.296292 0.379589
v 0.658064 2.313254 0.383370
v 0.352519 2.738873 -1.052656
v 0.310437 2.690450 -1.049560
v 0.989473 2.736217 -1.025000
v 0.800392 2.529149 1.763328
v -0.123819 2.669157 1.571181
v 0.049133 2.733655 1.662281
v -0.199451 2.668967 1.540590
v -0.210939 1.080896 1.890079
v -0.218898 0.755607 1.338470
v -0.243285 1.237242 2.431612
v -0.218898 0.755607 1.338470
v -0.210939 1.080896 1.890079
v -0.179256 1.241119 2.407802
v -0.243285 1.237242 2.431612
v -0.218898 0.755607 1.338470
v -0.179256 1.241119 2.407802
v 0.889108 0.916253 1.125983
v 0.420047 0.318832 1.315932
v 0.396784 0.344449 1.403096
v 0.898425 0.658791 1.038625
v -0.466142 2.349026 0.734359
v -0.452113 2.138290 0.652107
v -0.505432 2.153615 0.777579
v -0.234465 2.436705 0.575666
v 0.764996 1.614778 -2.651170
v 1.210525 1.577809 -2.410878
v 1.152385 1.709765 -2.419345
v 0.532481 1.679609 -2.778671
v 0.843563 0.554167 2.965111
v 0.723924 0.540063 1.999070
v 0.916103 0.553840 3.057879
v 0.889108 0.916253 1.125983
v 0.939838 0.433349 1.186977
v 0.898425 0.658791 1.038625
v -0.188393 2.590216 -1.040893
v -0.754142 2.738873 -1.051628
v -0.267828 2.709933 -1.029602
v -0.739024 2.670051 -1.047809
v 0.352274 1.690592 -2.781437
v 0.338035 1.654916 -2.869817
v -0.218617 1.690813 -2.780610
v 0.484023 1.671086 -2.817813
v 0.532481 1.679609 -2.778671
v 0.668105 1.504990 -3.097770
v 0.764996 1.614778 -2.651170
v 1.210525 1.577809 -2.410878
v 0.897750 1.171506 -3.169804
v -0.070004 2.162221 -2.493517
v -0.579353 2.385835 -2.413586
v 0.340702 2.502341 -1.895909
v 0.415138 2.163567 -2.506295
v 0.676184 2.407700 -2.173979
v -0.449673 1.630901 -2.794177
v 0.882632 0.919607 -3.257323
v 0.265065 1.614861 -2.872247
v -0.418564 1.599888 -2.851577
v -0.596122 1.078591 -3.643699
v 0.332982 1.408830 -3.505791
v 0.690847 1.294950 -3.586925
v -0.171123 0.746322 -3.753277
v 0.780155 2.510370 -1.025200
v 0.310437 2.690450 -1.049560
v -0.635686 2.402637 -2.165984
v -0.748700 2.442048 -2.117315
v 0.944682 0.858152 -3.241223
v 0.867615 1.639269 -1.976079
v 0.871197 1.609257 -2.114355
v -0.735244 2.164038 -2.392658
v -0.763495 1.622247 -2.624431
v -0.708794 1.574313 -2.734559
v -0.851301 1.501166 -2.729860
v -0.773583 2.154967 -2.160664
v -0.782278 1.113005 -3.321381
v -0.615563 0.680198 -3.628814
v -0.694776 0.523524 -3.826358
v 0.904764 0.469860 -1.694565
v 0.878314 0.469860 -1.808047
v 0.919948 0.929958 -1.636304
v -0.802994 0.485560 0.379059
v -0.834378 0.539391 0.356328
v -0.213361 0.755791 0.604499
v 0.897750 0.169056 2.014678
v 0.897211 0.352758 1.776306
v 0.956050 0.551612 1.741094
v 0.396784 0.344449 1.403096
v 0.005813 0.477567 0.269500
v 0.792791 0.442843 0.306354
v 0.420047 0.318832 1.315932
v 0.885957 0.445428 -0.396109
v 0.001639 0.481206 0.115525
v 0.885992 0.445422 -0.552475
v 0.010710 0.497013 -0.449476
v 0.001806 0.391782 -1.152146
v 0.880473 0.469854 -1.557168
v 0.003827 0.464589 0.751959
v 0.134069 0.315110 1.475672
v 0.939838 0.433349 1.186977
v 0.898425 0.658791 1.038625
v -0.179256 1.241119 2.407802
v -0.210939 1.080896 1.890079
v -0.243285 1.237242 2.431612
v 0.893318 1.551012 2.955042
v 0.843563 0.554167 2.965111
v 0.925946 1.614956 2.948495
v -0.490685 0.537711 -1.603109
v -0.814392 0.532333 -1.469797
v -0.491271 0.547122 -1.516818
v -0.191366 0.755839 2.405223
v -0.531542 0.866490 2.729221
v -0.029817 0.756160 2.253969
v 1.210525 1.577809 -2.410878
v 0.764996 1.614778 -2.651170
v 0.532481 1.679609 -2.778671
v 0.851738 0.647808 -0.279789
v 0.889335 0.549403 -0.448914
v 0.914847 0.566532 -0.627152
v 0.885992 0.445422 -0.552475
v 0.906660 0.442230 -0.582517
v 0.885957 0.445428 -0.396109
v 0.852677 0.538908 0.356509
v 0.792791 0.442843 0.306354
v 0.889108 0.916253 1.125983
v 0.420047 0.318832 1.315932
v 0.891273 0.662717 -3.413528
v 0.891273 0.520504 -3.412720
v 0.964686 0.524811 -3.417684
v 0.973327 0.626159 -3.418498
v 0.882632 0.919607 -3.257323
v 0.944682 0.858152 -3.241223
v 0.668105 1.504990 -3.097770
v 0.897750 1.171506 -3.169804
v -0.717818 0.313472 -0.432232
v -0.859124 0.587176 -0.429951
v -0.859536 0.453838 -0.433454
v 0.899908 0.399965 3.046213
v 0.916103 0.553840 3.057879
v 0.963268 0.553125 3.081218
v 0.843563 0.554167 2.965111
v 0.899908 0.399858 3.078885
v 0.699357 0.399757 3.034540
v 0.899908 0.469711 -1.322622
v 0.880473 0.469854 -1.557168
v 0.904764 0.469860 -1.694565
v 0.878314 0.469860 -1.808047
v -0.490021 0.544162 -2.165111
v -0.490685 0.537711 -1.603109
v -0.491271 0.547122 -1.516818
v -0.489734 0.536639 -2.190493
v -0.710325 0.810123 -2.475808
v -0.834378 0.539391 0.356328
v -0.802994 0.485560 0.379059
v -0.727745 0.453969 0.311479
v -0.192867 0.466995 1.312326
v -0.784001 0.513649 0.867490
v -0.490685 0.537711 -1.603109
v -0.489734 0.536639 -2.190493
v -0.491271 0.547122 -1.516818
v -0.490021 0.544162 -2.165111
v -0.701779 0.195763 2.093182
v -0.197035 0.467209 1.323882
v -0.191366 0.755839 2.405223
v -0.218898 0.755607 1.338470
v 0.914847 0.566532 -0.627152
v 0.907455 0.927737 -1.593336
v 0.854638 0.554853 -1.457982
v -0.698161 0.540183 -0.117742
v -0.717818 0.313472 -0.432232
v -0.727745 0.453969 0.311479
v -0.859124 0.587176 -0.429951
v -0.029817 0.756160 2.253969
v 0.267296 0.531260 2.582957
v -0.034948 0.756083 2.527327
v -0.207829 0.535561 2.772409
v -0.533886 0.399638 3.078885
v -0.019292 0.462438 3.101080
v 0.699357 0.399757 3.034540
v -1.009627 0.520504 3.106302
v 0.267900 0.536639 1.959256
v 0.218641 0.755642 1.349406
v -0.045880 1.083225 1.370689
v -0.531542 0.866490 2.729221
v 0.869128 0.172046 2.084695
v 0.610019 0.399822 3.076552
v -1.010081 0.508675 3.003038
v 0.899908 0.399858 3.078885
v 0.899908 0.399965 3.046213
v 0.396784 0.344449 1.403096
v 0.897750 0.169056 2.014678
v 0.699357 0.399757 3.034540
v 0.869128 0.172046 2.084695
v 0.843563 0.554167 2.965111
v 0.893318 1.551012 2.955042
v 0.925946 1.614956 2.948495
v 0.960206 1.692897 3.032601
v 0.990986 1.756174 1.947583
v 0.980091 1.616552 2.047357
v 0.988726 2.162775 2.155876
v 0.930138 2.630264 3.028646
v 0.956858 2.767664 2.978530
v 0.904226 2.759874 2.439718
v 0.979211 2.729915 1.830313
v 0.987996 2.184008 1.889530
v 0.916103 0.553840 3.057879
v 0.992051 0.945658 1.952469
v 0.980085 1.616564 1.874651
v 0.956050 0.551612 1.741094
v 0.897750 0.169056 2.014678
v 0.869128 0.172046 2.084695
v 0.973231 1.597969 1.314549
v 0.993468 1.815180 0.749774
v 0.992739 2.035191 0.160891
v 0.986974 2.513056 0.152327
v 0.993630 2.049598 -0.415951
v 0.988648 2.535212 0.074748
v 0.997206 1.631300 -1.021678
v 1.005865 2.694661 -0.801273
v 0.903281 2.793657 -0.939296
v 0.968106 2.736741 -0.334850
v 0.839844 2.698414 0.061318
v 0.989940 2.231764 1.247997
v 0.979803 1.613021 0.042852
v 0.898425 0.658791 1.038625
v 0.991865 1.073755 0.727605
v 0.994897 1.600120 -1.023875
v 0.914847 0.566532 -0.627152
v 0.915863 0.552631 -0.305093
v 0.907455 0.927737 -1.593336
v 0.899908 0.469711 -1.322622
v 0.906660 0.442230 -0.582517
v 0.880473 0.469854 -1.557168
v 0.973171 1.597970 0.236343
v 0.992948 1.777544 1.329719
v 0.992948 1.777544 1.329719
v 0.989940 2.231764 1.247997
v 0.987996 2.184008 1.889530
v 0.973171 1.597970 0.236343
v 0.991865 1.073755 0.727605
v 0.979803 1.613021 0.042852
v 0.915863 0.552631 -0.305093
v 0.805852 1.077519 1.424238
v 0.992051 0.945658 1.952469
v 0.956050 0.551612 1.741094
v -0.200713 0.755744 0.853484
v -0.062612 0.755982 0.707181
v -0.072868 0.755934 0.888631
v -0.218898 0.755607 1.338470
v 0.218641 0.755642 1.349406
v -0.213361 0.755791 0.604499
v -0.072868 0.755934 0.888631
v -0.200713 0.755744 0.853484
v 0.218641 0.755642 1.349406
v -0.218898 0.755607 1.338470
v -0.218898 0.755607 1.338470
v -0.179256 1.241119 2.407802
v -0.029817 0.756160 2.253969
v -0.029817 0.756160 2.253969
v -0.218898 0.755607 1.338470
v 0.218641 0.755642 1.349406
v -0.191366 0.755839 2.405223
v 0.167373 2.310032 -0.265421
v 0.161417 2.595857 -0.888986
v -0.188196 2.423048 -0.868414
v 0.167373 2.310032 -0.265421
v -0.456927 2.669479 -0.158938
v -0.234465 2.436705 0.575666
v 0.070722 2.296292 0.379589
v -0.188196 2.423048 -0.868414
v 0.167373 2.310032 -0.265421
v -0.456927 2.669479 -0.158938
v 0.070722 2.296292 0.379589
v -0.234465 2.436705 0.575666
v 0.161417 2.595857 -0.888986
v -0.188393 2.590216 -1.040893
v -0.188196 2.423048 -0.868414
v 0.310437 2.690450 -1.049560
v 0.878314 0.469860 -1.808047
v 0.854830 0.554674 -1.945250
v 0.854638 0.554853 -1.457982
v 0.880473 0.469854 -1.557168
v 0.003827 0.464589 0.751959
v -0.072868 0.755934 0.888631
v 0.218641 0.755642 1.349406
v 0.003827 0.464589 0.751959
v 0.134069 0.315110 1.475672
v 0.218641 0.755642 1.349406
v 0.885957 0.445428 -0.396109
v 0.889335 0.549403 -0.448914
v 0.851738 0.647808 -0.279789
v 0.885992 0.445422 -0.552475
v 0.885992 0.445422 -0.552475
v 0.906660 0.442230 -0.582517
v 0.889335 0.549403 -0.448914
v -0.871210 1.602270 -0.373940
v -0.861516 1.910477 -0.707885
v -0.929552 1.830231 -0.150588
v -0.871485 1.602270 -0.438993
v -0.742803 2.686281 -0.396109
v -0.861516 1.910477 -0.707885
v -0.871485 1.602270 -0.438993
v -0.929552 1.830231 -0.150588
v -0.871210 1.602270 -0.373940
v -0.802994 0.485560 0.379059
v -0.717818 0.313472 -0.432232
v -0.727745 0.453969 0.311479
v 0.912323 2.136700 -1.039348
v 0.865158 2.155110 -1.040188
v 0.780155 2.510370 -1.025200
v 0.484023 1.671086 -2.817813
v 0.338035 1.654916 -2.869817
v 0.532481 1.679609 -2.778671
v 0.050210 2.694780 3.026300
v -0.204588 2.665292 2.326242
v -0.015650 2.665863 2.340958
v -0.269371 2.689914 3.025337
v -0.123819 2.669157 1.571181
v 0.800392 2.529149 1.763328
v -0.015650 2.665863 2.340958
v 0.888977 2.202829 2.456567
v -0.204588 2.665292 2.326242
v -0.199451 2.668967 1.540590
v -0.015650 2.665863 2.340958
v -0.123819 2.669157 1.571181
v -0.253482 1.811285 -0.178645
v -0.456927 2.669479 -0.158938
v -0.317954 2.150678 -1.021503
v -0.188196 2.423048 -0.868414
v -0.456927 2.669479 -0.158938
v -0.188196 2.423048 -0.868414
v -0.253482 1.811285 -0.178645
v -0.317954 2.150678 -1.021503
v 0.179776 2.149696 -0.294209
v -0.456927 2.669479 -0.158938
v -0.253482 1.811285 -0.178645
v 0.167373 2.310032 -0.265421
v 0.167373 2.310032 -0.265421
v 0.179776 2.149696 -0.294209
v 0.161417 2.595857 -0.888986
v 0.070722 2.296292 0.379589
v -0.159246 2.096913 -1.021497
v -0.253482 1.811285 -0.178645
v -0.135272 2.149148 0.211835
v 0.167373 2.310032 -0.265421
v 0.179776 2.149696 -0.294209
v -0.135272 2.149148 0.211835
v 0.070722 2.296292 0.379589
v -0.253482 1.811285 -0.178645
v -0.317954 2.150678 -1.021503
v -0.159246 2.096913 -1.021497
v 0.179776 2.149696 -0.294209
v -0.187460 1.577266 -0.209986
v -0.253482 1.811285 -0.178645
v -0.203852 1.592591 -0.166565
v -0.823075 2.634565 2.098695
v -0.768075 2.680599 2.782530
v -0.204588 2.665292 2.326242
v -0.269371 2.689914 3.025337
v -0.783767 2.594135 1.321995
v -0.823075 2.634565 2.098695
v -0.204588 2.665292 2.326242
v -0.199451 2.668967 1.540590
v -0.752934 2.683458 0.155281
v -0.456927 2.669479 -0.158938
v -0.234465 2.436705 0.575666
v 0.261633 0.719662 -0.571141
v -0.189476 0.710001 -0.613153
v -0.698161 0.540183 -0.117742
v 0.154396 0.756244 0.127236
v -0.596122 1.078591 -3.643699
v -0.782278 1.113005 -3.321381
v -0.418564 1.599888 -2.851577
v 0.896667 0.393622 0.716229
v 0.792791 0.442843 0.306354
v 0.939838 0.433349 1.186977
v 0.939838 0.433349 1.186977
v 0.420047 0.318832 1.315932
v 0.792791 0.442843 0.306354
v 0.901864 0.435017 -0.349231
v 0.885957 0.445428 -0.396109
v 0.851738 0.647808 -0.279789
v 0.901864 0.435017 -0.349231
v 0.851738 0.647808 -0.279789
v 0.915863 0.552631 -0.305093
v 0.906660 0.442230 -0.582517
v 0.889335 0.549403 -0.448914
v 0.914847 0.566532 -0.627152
v 0.805852 1.077519 1.424238
v 0.396784 0.344449 1.403096
v 0.897211 0.352758 1.776306
v 0.956050 0.551612 1.741094
v -0.034948 0.756083 2.527327
v 0.267296 0.531260 2.582957
v 0.699357 0.399757 3.034540
v 0.699357 0.399757 3.034540
v -0.034948 0.756083 2.527327
v 0.843563 0.554167 2.965111
v 0.267296 0.531260 2.582957
v -0.207829 0.535561 2.772409
v -0.531542 0.866490 2.729221
v -0.034948 0.756083 2.527327
v 0.267296 0.531260 2.582957
v 0.267900 0.536639 1.959256
v 0.699357 0.399757 3.034540
v -0.531542 0.866490 2.729221
v -0.191366 0.755839 2.405223
v -0.034948 0.756083 2.527327
v -0.029817 0.756160 2.253969
v -0.203852 1.592591 -0.166565
v -0.698161 0.540183 -0.117742
v 0.154396 0.756244 0.127236
v -0.203852 1.592591 -0.166565
v 0.154396 0.756244 0.127236
v -0.187460 1.577266 -0.209986
v -0.698161 0.540183 -0.117742
v -0.189476 0.710001 -0.613153
v -0.859124 0.587176 -0.429951
v -0.859494 0.569969 -0.498216
v -0.135272 2.149148 0.211835
v -0.452113 2.138290 0.652107
v 0.070722 2.296292 0.379589
v -0.234465 2.436705 0.575666
v -0.795518 1.930602 1.013024
v -0.897863 1.804424 0.353032
v -0.752934 2.683458 0.155281
v 0.865158 2.155110 -1.040188
v 0.780155 2.510370 -1.025200
v 0.676184 2.407700 -2.173979
v 0.981484 1.507640 -1.037041
v 0.567201 1.495276 -1.100420
v 0.865158 2.155110 -1.040188
v 0.912323 2.136700 -1.039348
v 0.871197 1.609257 -2.114355
v 0.867615 1.639269 -1.976079
v 0.948635 1.385053 -2.162778
v 0.898575 1.632831 -2.043627
v 0.867615 1.639269 -1.976079
v 0.948635 1.385053 -2.162778
v 0.871197 1.609257 -2.114355
v 0.871197 1.609257 -2.114355
v 0.867615 1.639269 -1.976079
v 0.898575 1.632831 -2.043627
v 1.210525 1.577809 -2.410878
v 1.152385 1.709765 -2.419345
v 0.532481 1.679609 -2.778671
v 0.545774 0.971549 -2.497803
v 0.944682 0.858152 -3.241223
v 0.997648 1.010222 -2.718220
v 0.882632 0.919607 -3.257323
v 0.944682 0.858152 -3.241223
v 0.545774 0.971549 -2.497803
v -0.199451 2.668967 1.540590
v -0.171123 2.339306 0.771245
v -0.123819 2.669157 1.571181
v -0.466142 2.349026 0.734359
v -0.931209 1.748508 3.028135
v -0.866270 1.765715 2.213050
v -0.768075 2.680599 2.782530
v -0.959632 1.569666 2.825162
v -0.883110 1.543460 1.963515
v -0.823075 2.634565 2.098695
v -0.862000 1.949590 1.838483
v 0.783307 2.471566 0.861796
v 0.989940 2.231764 1.247997
v 0.921503 2.707687 1.216295
v 0.764792 2.713566 1.261234
v 0.783307 2.471566 0.861796
v 0.921503 2.707687 1.216295
v -0.912233 0.887075 -1.601041
v -0.814380 0.533411 -1.796342
v -0.814392 0.532333 -1.469797
v -0.924738 0.927195 -2.189387
v -0.698161 0.540183 -0.117742
v -0.213361 0.755791 0.604499
v -0.834378 0.539391 0.356328
v -0.871210 1.602270 -0.373940
v -0.859124 0.587176 -0.429951
v -0.834378 0.539391 0.356328
v -0.951673 1.452112 0.148113
v -0.834378 0.539391 0.356328
v -0.859124 0.587176 -0.429951
v -0.951673 1.452112 0.148113
v -0.871210 1.602270 -0.373940
v -0.213361 0.755791 0.604499
v -0.834378 0.539391 0.356328
v -0.200713 0.755744 0.853484
v -0.701779 0.195763 2.093182
v -0.197035 0.467209 1.323882
v -0.218898 0.755607 1.338470
v -0.213361 0.755791 0.604499
v -0.192867 0.466995 1.312326
v -0.200713 0.755744 0.853484
v -0.727745 0.453969 0.311479
v -0.883110 1.543460 1.963515
v -0.989467 0.541886 1.991346
v -0.959632 1.569666 2.825162
v -0.915379 1.391509 1.775059
v -0.936603 0.553923 2.975905
v -0.741195 0.911589 1.467361
v -0.189476 0.710001 -0.613153
v -0.912233 0.887075 -1.601041
v -0.859494 0.569969 -0.498216
v -0.491271 0.547122 -1.516818
v -0.912233 0.887075 -1.601041
v -0.189476 0.710001 -0.613153
v -0.721885 0.314020 -0.482459
v -0.189476 0.710001 -0.613153
v -0.698161 0.540183 -0.117742
v -0.717818 0.313472 -0.432232
v -0.721885 0.314020 -0.482459
v -0.491271 0.547122 -1.516818
v -0.189476 0.710001 -0.613153
v -0.490685 0.537711 -1.603109
v -0.712866 2.153900 2.870974
v -0.959632 1.569666 2.825162
v -0.711150 1.587618 2.873676
v -0.931209 1.748508 3.028135
v -0.959632 1.569666 2.825162
v -0.712866 2.153900 2.870974
v -0.936603 0.553923 2.975905
v -0.959632 1.569666 2.825162
v -0.711150 1.587618 2.873676
v -0.936603 0.553923 2.975905
v -0.531542 0.866490 2.729221
v -0.711150 1.587618 2.873676
v -0.531542 0.866490 2.729221
v -0.711150 1.587618 2.873676
v -0.034948 0.756083 2.527327
v -0.149869 1.189153 2.593220
v -0.149869 1.189153 2.593220
v -0.711150 1.587618 2.873676
v -0.179256 1.241119 2.407802
v -0.179256 1.241119 2.407802
v -0.711150 1.587618 2.873676
v -0.243285 1.237242 2.431612
v -0.243285 1.237242 2.431612
v -0.179256 1.241119 2.407802
v -0.149869 1.189153 2.593220
v 0.854830 0.554674 -1.945250
v 0.878314 0.469860 -1.808047
v 0.919948 0.929958 -1.636304
v 0.854638 0.554853 -1.457982
v 0.907455 0.927737 -1.593336
v 0.899908 0.469711 -1.322622
v 0.880473 0.469854 -1.557168
v 0.567201 1.495276 -1.100420
v 0.907455 0.927737 -1.593336
v 0.981484 1.507640 -1.037041
v 0.567201 1.495276 -1.100420
v 0.854638 0.554853 -1.457982
v 0.907455 0.927737 -1.593336
v 0.889335 0.549403 -0.448914
v 0.854638 0.554853 -1.457982
v 0.907455 0.927737 -1.593336
v 0.889335 0.549403 -0.448914
v 0.907455 0.927737 -1.593336
v 0.914847 0.566532 -0.627152
v 0.880473 0.469854 -1.557168
v 0.885992 0.445422 -0.552475
v 0.906660 0.442230 -0.582517
v 0.899908 0.469711 -1.322622
v 0.885992 0.445422 -0.552475
v 0.906660 0.442230 -0.582517
v 0.899908 0.469711 -1.322622
v 0.880473 0.469854 -1.557168
v 0.854830 0.554674 -1.945250
v 0.854638 0.554853 -1.457982
v 0.878314 0.469860 -1.808047
v -0.179256 1.241119 2.407802
v 0.723924 0.540063 1.999070
v 0.888660 1.608184 1.953129
v -0.029817 0.756160 2.253969
v 0.888755 1.612484 1.772842
v -0.179256 1.241119 2.407802
v -0.045880 1.083225 1.370689
v -0.034948 0.756083 2.527327
v -0.029817 0.756160 2.253969
v 0.723924 0.540063 1.999070
vt 0.799732 0.111459
vt 0.788136 0.108655
vt 0.799732 0.098030
vt 0.301963 0.998657
vt 0.359946 0.998657
vt 0.348969 0.991495
vt 0.974576 0.546553
vt 0.923729 0.522679
vt 0.974576 0.495524
vt 0.653434 0.098021
vt 0.666815 0.060430
vt 0.666815 0.107878
vt 0.141392 0.921665
vt 0.206512 0.921665
vt 0.147276 0.917189
vt 0.275476 0.855416
vt 0.242194 0.893017
vt 0.330508 0.893017
vt 0.114189 0.972695
vt 0.101249 0.978066
vt 0.174398 0.978066
vt 0.039697 0.989705
vt 0.111062 0.989705
vt 0.042043 0.976276
vt 0.872881 0.151746
vt 0.910348 0.151746
vt 0.886766 0.119517
vt 0.687929 0.244852
vt 0.687333 0.280662
vt 0.704282 0.280662
vt 0.955843 0.081916
vt 0.922837 0.023104
vt 0.955843 0.012086
vt 0.960303 0.023908
vt 0.987957 0.008505
vt 0.987957 0.044315
vt 0.271958 0.939570
vt 0.219893 0.970904
vt 0.289474 0.970904
vt 0.686441 0.630707
vt 0.686441 0.698747
vt 0.668599 0.678482
vt 0.442016 0.983438
vt 0.417950 0.968218
vt 0.374219 0.983438
vt 0.987957 0.475828
vt 0.987957 0.527753
vt 0.977252 0.523906
vt 0.740811 0.625336
vt 0.742640 0.589526
vt 0.742640 0.608027
vt 0.739964 0.597911
vt 0.981713 0.923456
vt 0.981713 0.989705
vt 0.970116 0.985131
vt 0.005798 0.000705
vt 0.061998 0.000448
vt 0.061998 0.038048
vt 0.058430 0.851155
vt 0.063782 0.850940
vt 0.063782 0.867950
vt 0.565120 0.323635
vt 0.544498 0.317368
vt 0.510705 0.323635
vt 0.970116 0.305730
vt 0.985281 0.305730
vt 0.983546 0.244852
vt 0.667707 0.384512
vt 0.624008 0.383617
vt 0.623104 0.384512
vt 0.400981 0.827663
vt 0.380637 0.818711
vt 0.352810 0.827663
vt 0.197591 0.933303
vt 0.282337 0.933303
vt 0.260698 0.898389
vt 0.532106 0.447080
vt 0.549226 0.404816
vt 0.542621 0.442763
vt 0.581381 0.431470
vt 0.568649 0.479116
vt 0.625781 0.490152
vt 0.618298 0.388285
vt 0.602223 0.311035
vt 0.557877 0.332075
vt 0.524378 0.337996
vt 0.529952 0.403848
vt 0.485176 0.434260
vt 0.473238 0.405727
vt 0.473332 0.328410
vt 0.474022 0.318308
vt 0.484276 0.306625
vt 0.539355 0.470357
vt 0.499490 0.490152
vt 0.359501 0.744072
vt 0.424168 0.685218
vt 0.424955 0.733463
vt 0.420598 0.682643
vt 0.346765 0.703037
vt 0.445326 0.670932
vt 0.444409 0.624030
vt 0.368767 0.611907
vt 0.323372 0.634237
vt 0.348109 0.751567
vt 0.326002 0.698580
vt 0.464049 0.697578
vt 0.482159 0.751567
vt 0.417188 0.750377
vt 0.378994 0.745034
vt 0.732828 0.145479
vt 0.719675 0.065093
vt 0.679304 0.072246
vt 0.688742 0.022829
vt 0.657003 0.145479
vt 0.214490 0.611863
vt 0.272750 0.543256
vt 0.203587 0.576832
vt 0.251789 0.523637
vt 0.245394 0.602646
vt 0.310575 0.568458
vt 0.202841 0.501244
vt 0.163041 0.542770
vt 0.176333 0.507609
vt 0.169722 0.580270
vt 0.326048 0.496419
vt 0.326048 0.618981
vt 0.275014 0.646339
vt 0.297865 0.649508
vt 0.200422 0.643291
vt 0.149420 0.616640
vt 0.524655 0.592954
vt 0.539533 0.612828
vt 0.538148 0.566818
vt 0.614557 0.632600
vt 0.545283 0.551799
vt 0.517576 0.575370
vt 0.562378 0.643937
vt 0.614342 0.641026
vt 0.498880 0.518566
vt 0.529597 0.506267
vt 0.574779 0.511561
vt 0.618644 0.548823
vt 0.618644 0.571847
vt 0.614617 0.507378
vt 0.507916 0.594262
vt 0.533258 0.637913
vt 0.492316 0.637926
vt 0.444692 0.616001
vt 0.478748 0.645031
vt 0.524086 0.654236
vt 0.477399 0.720368
vt 0.451829 0.650403
vt 0.524086 0.733662
vt 0.252899 0.820501
vt 0.165756 0.781643
vt 0.217141 0.748881
vt 0.162801 0.820501
vt 0.828278 0.692574
vt 0.781125 0.632498
vt 0.749777 0.693375
vt 0.828278 0.650992
vt 0.717106 0.352283
vt 0.707921 0.433722
vt 0.712564 0.424017
vt 0.767618 0.363994
vt 0.690009 0.434769
vt 0.767618 0.448377
vt 0.699954 0.460609
vt 0.113734 0.633771
vt 0.154415 0.678429
vt 0.089497 0.681964
vt 0.055656 0.683167
vt 0.155949 0.639665
vt 0.190573 0.678677
vt 0.191338 0.669398
vt 0.198483 0.673540
vt 0.195774 0.683527
vt 0.053582 0.674969
vt 0.050166 0.603717
vt 0.108889 0.614228
vt 0.084319 0.553603
vt 0.048487 0.681776
vt 0.045126 0.683527
vt 0.040148 0.549239
vt 0.026316 0.617364
vt 0.037822 0.843270
vt 0.090544 0.848254
vt 0.029809 0.775149
vt 0.004906 0.848254
vt 0.010906 0.774305
vt 0.085056 0.773053
vt 0.856824 0.243062
vt 0.856824 0.316473
vt 0.797056 0.282326
vt 0.502018 0.970943
vt 0.502879 0.970904
vt 0.500892 0.992390
vt 0.536574 0.992390
vt 0.121766 0.851835
vt 0.051293 0.889711
vt 0.121766 0.907341
vt 0.062436 0.873666
vt 0.895183 0.844673
vt 0.895183 0.907341
vt 0.833631 0.900244
vt 0.794380 0.846070
vt 0.743533 0.821352
vt 0.794380 0.765891
vt 0.743676 0.820426
vt 0.751904 0.857207
vt 0.165508 0.386845
vt 0.206860 0.458625
vt 0.216325 0.382647
vt 0.180876 0.463382
vt 0.155665 0.390695
vt 0.216325 0.500000
vt 0.178945 0.369059
vt 0.172373 0.368398
vt 0.158953 0.385506
vt 0.445912 0.582473
vt 0.413885 0.599074
vt 0.375822 0.543872
vt 0.414131 0.511638
vt 0.335861 0.539547
vt 0.448738 0.584171
vt 0.503568 0.561502
vt 0.446595 0.613697
vt 0.342916 0.610856
vt 0.348400 0.613697
vt 0.347199 0.518407
vt 0.453613 0.892122
vt 0.517425 0.892122
vt 0.523194 0.833035
vt 0.458171 0.863534
vt 0.065233 0.279705
vt 0.103033 0.208918
vt 0.051800 0.209321
vt 0.019179 0.201880
vt 0.032762 0.239525
vt 0.103033 0.294091
vt 0.593666 0.435831
vt 0.632917 0.388988
vt 0.632917 0.479409
vt 0.004014 0.921665
vt 0.052186 0.921665
vt 0.046252 0.848254
vt 0.731045 0.346069
vt 0.783615 0.367502
vt 0.796164 0.360810
vt 0.786086 0.305286
vt 0.796164 0.276866
vt 0.712310 0.275291
vt 0.890723 0.586840
vt 0.852364 0.528706
vt 0.890723 0.496419
vt 0.595450 0.935989
vt 0.668599 0.935989
vt 0.623708 0.891226
vt 0.872216 0.425694
vt 0.837199 0.464190
vt 0.921053 0.464190
vt 0.004429 0.771262
vt 0.091071 0.769585
vt 0.050660 0.732605
vt 0.113832 0.741175
vt 0.126227 0.769296
vt 0.019329 0.739375
vt 0.000446 0.767068
vt 0.001811 0.731184
vt 0.015494 0.712175
vt 0.001272 0.721637
vt 0.126227 0.721267
vt 0.909456 0.495603
vt 0.955843 0.431065
vt 0.955843 0.499105
vt 0.913605 0.483034
vt 0.796239 0.938849
vt 0.809023 0.886750
vt 0.852364 0.939570
vt 0.784567 0.939570
vt 0.509965 0.000448
vt 0.553034 0.003595
vt 0.568395 0.034488
vt 0.497324 0.037153
vt 0.576814 0.019765
vt 0.590098 0.037153
vt 0.917484 0.003133
vt 0.855040 0.004000
vt 0.871953 0.028889
vt 0.917484 0.065801
vt 0.859543 0.063108
vt 0.578501 0.935989
vt 0.506940 0.902865
vt 0.491971 0.935989
vt 0.174644 0.876007
vt 0.125335 0.907341
vt 0.216325 0.907341
vt 0.825602 0.647717
vt 0.825602 0.572516
vt 0.787318 0.588110
vt 0.764050 0.613170
vt 0.022556 0.327766
vt 0.056307 0.278045
vt 0.011834 0.261862
vt 0.065865 0.325285
vt 0.092400 0.414612
vt 0.087104 0.417275
vt 0.098294 0.472353
vt 0.084140 0.475052
vt 0.141853 0.450915
vt 0.109577 0.522900
vt 0.086587 0.526147
vt 0.143543 0.500920
vt 0.133954 0.394487
vt 0.051651 0.531334
vt 0.106855 0.349356
vt 0.085325 0.353304
vt 0.139166 0.380128
vt 0.018128 0.431944
vt 0.014918 0.365331
vt 0.009367 0.488244
vt 0.152096 0.514323
vt 0.143608 0.516352
vt 0.152096 0.462663
vt 0.913916 0.324530
vt 0.939543 0.248433
vt 0.952275 0.324530
vt 0.919683 0.255109
vt 0.279661 0.326642
vt 0.191347 0.365712
vt 0.265286 0.365712
vt 0.234126 0.326320
vt 0.794245 0.854521
vt 0.782695 0.892122
vt 0.807761 0.858874
vt 0.802778 0.892122
vt 0.717663 0.868048
vt 0.904996 0.744405
vt 0.904996 0.831244
vt 0.873772 0.748322
vt 0.869313 0.798518
vt 0.632366 0.260856
vt 0.684256 0.275854
vt 0.685695 0.228765
vt 0.614952 0.304934
vt 0.641317 0.207252
vt 0.603544 0.297054
vt 0.566122 0.239153
vt 0.688225 0.339212
vt 0.613918 0.318748
vt 0.682393 0.363921
vt 0.688225 0.214663
vt 0.562761 0.270745
vt 0.557092 0.276260
vt 0.635616 0.353948
vt 0.348350 0.848254
vt 0.348350 0.932408
vt 0.318020 0.853924
vt 0.860393 0.671889
vt 0.938231 0.671889
vt 0.924619 0.638765
vt 0.940678 0.662414
vt 0.791722 0.183426
vt 0.800338 0.215532
vt 0.763158 0.250081
vt 0.766201 0.256491
vt 0.798647 0.182184
vt 0.820834 0.187932
vt 0.828278 0.256491
vt 0.959411 0.333483
vt 0.959411 0.412265
vt 0.928643 0.340858
vt 0.928189 0.377517
vt 0.643974 0.002238
vt 0.594558 0.028201
vt 0.685549 0.028201
vt 0.890723 0.611388
vt 0.836853 0.624183
vt 0.890723 0.654879
vt 0.842196 0.647757
vt 0.829170 0.585049
vt 0.888004 0.590072
vt 0.976360 0.163384
vt 0.936218 0.165014
vt 0.976360 0.222471
vt 0.936540 0.181280
vt 0.818680 0.519712
vt 0.855932 0.484476
vt 0.841335 0.526582
vt 0.815342 0.531903
vt 0.855932 0.552820
vt 0.800624 0.474933
vt 0.641740 0.488771
vt 0.635994 0.440913
vt 0.684657 0.479907
vt 0.683008 0.517795
vt 0.641720 0.527533
vt 0.684657 0.601164
vt 0.623104 0.568603
vt 0.195807 0.650237
vt 0.262197 0.647717
vt 0.241756 0.674408
vt 0.325156 0.674575
vt 0.235801 0.674575
vt 0.333185 0.172669
vt 0.316615 0.127574
vt 0.297502 0.207328
vt 0.333185 0.224261
vt 0.676366 0.456381
vt 0.661186 0.427109
vt 0.663101 0.437584
vt 0.678983 0.458125
vt 0.692007 0.477908
vt 0.638269 0.404403
vt 0.647976 0.400544
vt 0.705174 0.509848
vt 0.705174 0.361235
vt 0.505373 0.497569
vt 0.503568 0.505372
vt 0.537890 0.481200
vt 0.587422 0.505372
vt 0.446476 0.276186
vt 0.440303 0.343330
vt 0.417345 0.286616
vt 0.361731 0.343330
vt 0.139638 0.251839
vt 0.109691 0.197171
vt 0.143629 0.195634
vt 0.203463 0.299202
vt 0.122829 0.276937
vt 0.202918 0.226146
vt 0.157442 0.192311
vt 0.237635 0.199114
vt 0.243458 0.219848
vt 0.249858 0.270607
vt 0.291046 0.262953
vt 0.256864 0.310413
vt 0.293998 0.309857
vt 0.260502 0.216734
vt 0.282507 0.254337
vt 0.338388 0.285427
vt 0.214212 0.318913
vt 0.136398 0.352155
vt 0.157126 0.187092
vt 0.207872 0.347083
vt 0.141683 0.360526
vt 0.131259 0.351486
vt 0.118077 0.277522
vt 0.132615 0.361235
vt 0.338537 0.301696
vt 0.328566 0.360022
vt 0.270874 0.361235
vt 0.153341 0.182184
vt 0.069766 0.196962
vt 0.036128 0.201599
vt 0.069476 0.202622
vt 0.262991 0.196788
vt 0.943354 0.648448
vt 0.970116 0.608326
vt 0.970116 0.679946
vt 0.877360 0.923378
vt 0.895902 0.957475
vt 0.896967 0.908236
vt 0.838091 0.957475
vt 0.407226 0.950313
vt 0.421762 0.927932
vt 0.495540 0.950313
vt 0.490491 0.936970
vt 0.406708 0.900179
vt 0.479483 0.928827
vt 0.410264 0.909534
vt 0.478140 0.903438
vt 0.387600 0.928827
vt 0.612400 0.905551
vt 0.578348 0.865264
vt 0.552456 0.885058
vt 0.527654 0.905551
vt 0.687333 0.640891
vt 0.688632 0.702328
vt 0.690237 0.627869
vt 0.755147 0.675016
vt 0.737780 0.639158
vt 0.762266 0.629432
vt 0.762266 0.587735
vt 0.334077 0.075649
vt 0.334077 0.134736
vt 0.304639 0.107207
vt 0.969224 0.705909
vt 0.943333 0.714704
vt 0.969224 0.775739
vt 0.938002 0.722098
vt 0.802409 0.846164
vt 0.833631 0.841092
vt 0.833631 0.895703
vt 0.334077 0.731831
vt 0.315661 0.676365
vt 0.305531 0.735516
vt 0.334077 0.752462
vt 0.879126 0.154432
vt 0.868766 0.190432
vt 0.879126 0.244852
vt 0.840767 0.221249
vt 0.543326 0.716965
vt 0.531222 0.753357
vt 0.577638 0.730765
vt 0.596415 0.685177
vt 0.561689 0.676335
vt 0.642471 0.663815
vt 0.677610 0.753357
vt 0.691793 0.719131
vt 0.616924 0.734806
vt 0.576984 0.732618
vt 0.642347 0.628917
vt 0.674903 0.638673
vt 0.910624 0.925003
vt 0.904103 0.855357
vt 0.925513 0.841092
vt 0.924818 0.930289
vt 0.925513 0.933992
vt 0.911419 0.934199
vt 0.622635 0.240376
vt 0.579989 0.240376
vt 0.573005 0.204451
vt 0.614149 0.205597
vt 0.557984 0.160698
vt 0.624888 0.187151
vt 0.684828 0.803491
vt 0.739072 0.824841
vt 0.699164 0.836616
vt 0.612400 0.836616
vt 0.714095 0.602059
vt 0.688225 0.599142
vt 0.714095 0.542077
vt 0.855040 0.731871
vt 0.826494 0.771324
vt 0.855040 0.785586
vt 0.833605 0.779103
vt 0.124442 0.957873
vt 0.184291 0.940991
vt 0.192239 0.963742
vt 0.125287 0.963742
vt 0.152043 0.924351
vt 0.519625 0.955685
vt 0.586694 0.936885
vt 0.599632 0.955685
vt 0.600543 0.938424
vt 0.608831 0.944001
vt 0.788136 0.956580
vt 0.763605 0.918440
vt 0.765849 0.896598
vt 0.750410 0.925728
vt 0.739964 0.956580
vt 0.747013 0.917040
vt 0.689942 0.615444
vt 0.691331 0.611922
vt 0.722000 0.615107
vt 0.652542 0.621755
vt 0.642730 0.588797
vt 0.643385 0.620196
vt 0.717541 0.605295
vt 0.737288 0.575624
vt 0.735842 0.574025
vt 0.732390 0.570725
vt 0.734335 0.621755
vt 0.650235 0.621538
vt 0.529438 0.671889
vt 0.590990 0.671889
vt 0.585135 0.668701
vt 0.550692 0.644136
vt 0.576470 0.750382
vt 0.574126 0.747986
vt 0.533006 0.777529
vt 0.587422 0.777529
vt 0.113152 0.716296
vt 0.150518 0.712429
vt 0.157976 0.687651
vt 0.144004 0.689534
vt 0.101215 0.717547
vt 0.208304 0.717547
vt 0.194602 0.684423
vt 0.243979 0.695795
vt 0.100010 0.696434
vt 0.046833 0.706913
vt 0.929973 0.886054
vt 0.936686 0.931564
vt 0.948432 0.922164
vt 0.953167 0.945837
vt 0.953167 0.858102
vt 0.244871 0.865264
vt 0.214541 0.829857
vt 0.244871 0.822292
vt 0.938809 0.938782
vt 0.968332 0.983438
vt 0.920161 0.954545
vt 0.923069 0.983438
vt 0.932250 0.938675
vt 0.491079 0.301253
vt 0.478653 0.269919
vt 0.452721 0.301253
vt 0.152096 0.553859
vt 0.106073 0.579045
vt 0.139889 0.586338
vt 0.152096 0.634288
vt 0.102141 0.566880
vt 0.150441 0.533124
vt 0.885370 0.465085
vt 0.885370 0.490152
vt 0.838983 0.465090
vt 0.245763 0.787684
vt 0.261820 0.748881
vt 0.261820 0.819606
vt 0.285013 0.015667
vt 0.380464 0.015667
vt 0.291607 0.004029
vt 0.876450 0.046106
vt 0.876450 0.137422
vt 0.863961 0.111299
vt 0.140748 0.159324
vt 0.160125 0.176813
vt 0.096789 0.176813
vt 0.128910 0.152641
vt 0.760482 0.572477
vt 0.781891 0.578302
vt 0.781891 0.526858
vt 0.772542 0.582363
vt 0.467808 0.774319
vt 0.530330 0.802596
vt 0.492124 0.802382
vt 0.421550 0.764100
vt 0.426076 0.794686
vt 0.407226 0.802596
vt 0.458423 0.979733
vt 0.484011 0.981231
vt 0.491079 0.999552
vt 0.450045 0.969114
vt 0.456068 0.999552
vt 0.986173 0.047001
vt 0.968823 0.062092
vt 0.986173 0.106088
vt 0.967440 0.077681
vt 0.353702 0.611012
vt 0.431311 0.611012
vt 0.403676 0.598478
vt 0.455847 0.146402
vt 0.483966 0.203414
vt 0.474606 0.153211
vt 0.408305 0.278785
vt 0.403899 0.223467
vt 0.364662 0.311996
vt 0.404251 0.182547
vt 0.409717 0.131796
vt 0.477069 0.250578
vt 0.399728 0.188071
vt 0.377563 0.247339
vt 0.403609 0.132075
vt 0.373815 0.043270
vt 0.370270 0.057465
vt 0.410451 0.009968
vt 0.405272 0.084239
vt 0.392993 0.094121
vt 0.404757 0.097672
vt 0.339875 0.164139
vt 0.336825 0.097412
vt 0.362038 0.046308
vt 0.484835 0.081856
vt 0.444246 0.123709
vt 0.483919 0.009806
vt 0.484835 0.262494
vt 0.319804 0.259588
vt 0.484724 0.102486
vt 0.348554 0.200815
vt 0.399407 0.003133
vt 0.827253 0.811576
vt 0.866637 0.864369
vt 0.813113 0.814832
vt 0.866637 0.785586
vt 0.823382 0.334052
vt 0.840493 0.355864
vt 0.799732 0.354715
vt 0.874858 0.355864
vt 0.878234 0.311996
vt 0.239518 0.934199
vt 0.239518 0.954790
vt 0.198483 0.935997
vt 0.794410 0.519912
vt 0.788518 0.493121
vt 0.783675 0.539956
vt 0.795272 0.555348
vt 0.795216 0.566249
vt 0.783681 0.561527
vt 0.783705 0.454832
vt 0.794924 0.456037
vt 0.795272 0.423023
vt 0.792937 0.419427
vt 0.979929 0.458205
vt 0.999554 0.424799
vt 0.984941 0.424935
vt 0.999554 0.464190
vt 0.961195 0.327885
vt 0.966548 0.326320
vt 0.966548 0.403036
vt 0.961373 0.403312
vt 0.793488 0.141171
vt 0.747169 0.149401
vt 0.787827 0.158013
vt 0.749870 0.135388
vt 0.751938 0.101328
vt 0.774506 0.085302
vt 0.793488 0.029091
vt 0.787572 0.104502
vt 0.750911 0.060594
vt 0.747101 0.027305
vt 0.702498 0.887645
vt 0.761374 0.887645
vt 0.722385 0.875112
vt 0.918376 0.151310
vt 0.935326 0.127574
vt 0.935326 0.168756
vt 0.006644 0.320054
vt 0.004014 0.398836
vt 0.012935 0.398836
vt 0.118198 0.949418
vt 0.093043 0.941361
vt 0.027208 0.949418
vt 0.906266 0.120540
vt 0.883288 0.108136
vt 0.917484 0.155327
vt 0.880910 0.103498
vt 0.917484 0.067592
vt 0.661561 0.855494
vt 0.697095 0.884960
vt 0.699822 0.869667
vt 0.669567 0.872567
vt 0.609723 0.884960
vt 0.627605 0.848254
vt 0.882711 0.402004
vt 0.886262 0.431065
vt 0.875558 0.406373
vt 0.886262 0.310206
vt 0.834363 0.445389
vt 0.836307 0.465980
vt 0.808739 0.448640
vt 0.799732 0.465980
vt 0.768285 0.491870
vt 0.717505 0.467360
vt 0.756947 0.497834
vt 0.735304 0.452065
vt 0.727714 0.462745
vt 0.754823 0.486877
vt 0.774835 0.459481
vt 0.772405 0.534085
vt 0.780999 0.504310
vt 0.714095 0.518003
vt 0.716098 0.566249
vt 0.759509 0.564660
vt 0.732957 0.452217
vt 0.727989 0.452849
vt 0.780999 0.451656
vt 0.169938 0.436437
vt 0.168709 0.507494
vt 0.161017 0.494225
vt 0.169938 0.513429
vt 0.323372 0.577591
vt 0.329616 0.530439
vt 0.329616 0.619069
vt 0.511597 0.967323
vt 0.464715 0.961952
vt 0.425067 0.967323
vt 0.008475 0.407789
vt 0.008475 0.496419
vt 0.003122 0.409386
vt 0.168153 0.028201
vt 0.109348 0.021912
vt 0.107493 0.028201
vt 0.157042 0.010295
vt 0.513311 0.939570
vt 0.524041 0.952999
vt 0.527654 0.944143
vt 0.495540 0.952999
vt 0.981713 0.763040
vt 0.981713 0.725604
vt 0.971900 0.730371
vt 0.978319 0.782901
vt 0.489635 0.002238
vt 0.417930 0.006714
vt 0.497324 0.006714
vt 0.791704 0.320054
vt 0.828278 0.320054
vt 0.809950 0.311101
vt 0.225756 0.455103
vt 0.217939 0.498403
vt 0.217217 0.461728
vt 0.222996 0.496865
vt 0.388226 0.419512
vt 0.395951 0.421690
vt 0.385414 0.463347
vt 0.392900 0.408904
vt 0.389743 0.403926
vt 0.421837 0.399966
vt 0.390500 0.381604
vt 0.389507 0.345121
vt 0.442215 0.378783
vt 0.344319 0.450970
vt 0.327784 0.489848
vt 0.292303 0.418300
vt 0.346147 0.413373
vt 0.315029 0.393968
vt 0.388176 0.480134
vt 0.458081 0.371526
vt 0.398537 0.428091
vt 0.393255 0.477532
vt 0.457992 0.498936
vt 0.446435 0.429670
vt 0.459490 0.407418
vt 0.488278 0.473879
vt 0.229568 0.379102
vt 0.226817 0.416980
vt 0.309292 0.493073
vt 0.304860 0.501648
vt 0.459002 0.365777
vt 0.353304 0.348476
vt 0.360993 0.355177
vt 0.342193 0.502960
vt 0.384522 0.504985
vt 0.391623 0.499389
vt 0.396307 0.509436
vt 0.336505 0.512534
vt 0.443503 0.495219
vt 0.485525 0.507496
vt 0.504460 0.512534
vt 0.933541 0.408214
vt 0.941570 0.405103
vt 0.941570 0.441808
vt 0.860393 0.374291
vt 0.865745 0.372874
vt 0.865745 0.424799
vt 0.530665 0.038944
vt 0.539188 0.059413
vt 0.553481 0.065351
vt 0.509956 0.094899
vt 0.485209 0.180333
vt 0.542983 0.175086
vt 0.512713 0.101235
vt 0.552070 0.226509
vt 0.485384 0.191687
vt 0.552575 0.238021
vt 0.487805 0.233276
vt 0.489834 0.285601
vt 0.556200 0.311996
vt 0.483051 0.144831
vt 0.490387 0.090022
vt 0.553000 0.101125
vt 0.556200 0.120990
vt 0.632025 0.523172
vt 0.637377 0.482990
vt 0.637377 0.525067
vt 0.686441 0.589088
vt 0.689117 0.515219
vt 0.689117 0.594002
vt 0.362623 0.835721
vt 0.362623 0.861683
vt 0.356378 0.838186
vt 0.238531 0.680842
vt 0.202944 0.683527
vt 0.254683 0.683527
vt 0.864853 0.091764
vt 0.827093 0.089078
vt 0.806869 0.091764
vt 0.180547 0.733784
vt 0.168937 0.742826
vt 0.155665 0.743630
vt 0.162788 0.751801
vt 0.160153 0.752462
vt 0.174193 0.750159
vt 0.228109 0.735038
vt 0.226067 0.744042
vt 0.280828 0.699642
vt 0.305531 0.752462
vt 0.975666 0.785929
vt 0.976360 0.775965
vt 0.971156 0.774843
vt 0.970039 0.781785
vt 0.969393 0.808176
vt 0.964598 0.803185
vt 0.976360 0.857207
vt 0.963872 0.827869
vt 0.801517 0.525067
vt 0.801517 0.548344
vt 0.796164 0.539403
vt 0.987898 0.977067
vt 0.999554 0.975684
vt 0.999524 0.971799
vt 0.999554 0.984376
vt 0.987335 0.974719
vt 0.984389 0.991495
vt 0.047725 0.992345
vt 0.064972 0.994181
vt 0.075052 0.991495
vt 0.083408 0.994181
vt 0.957866 0.291654
vt 0.972582 0.250115
vt 0.975468 0.243957
vt 0.956735 0.293366
vt 0.975468 0.323635
vt 0.725717 0.004924
vt 0.728566 0.008960
vt 0.736396 0.007153
vt 0.736396 0.090868
vt 0.712310 0.041443
vt 0.330508 0.568197
vt 0.330668 0.611907
vt 0.331401 0.561773
vt 0.331401 0.610016
vt 0.795272 0.080125
vt 0.810592 0.010635
vt 0.855932 0.080125
vt 0.831256 0.004924
vt 0.663247 0.967323
vt 0.739072 0.967323
vt 0.720183 0.944047
vt 0.834525 0.987481
vt 0.855142 0.965533
vt 0.801517 0.988809
vt 0.860393 0.988809
vt 0.635851 0.104039
vt 0.602508 0.121563
vt 0.631195 0.124320
vt 0.626355 0.152240
vt 0.632885 0.187233
vt 0.599260 0.166827
vt 0.555633 0.133424
vt 0.665380 0.205461
vt 0.614013 0.075510
vt 0.638626 0.032677
vt 0.669492 0.040807
vt 0.661540 0.152682
vt 0.568718 0.066551
vt 0.559620 0.139780
vt 0.669492 0.198715
vt 0.541035 0.128052
vt 0.542366 0.125955
vt 0.614493 0.036348
vt 0.568584 0.061631
vt 0.827386 0.974485
vt 0.754237 0.974485
vt 0.823273 0.958371
vt 0.008748 0.103370
vt 0.009369 0.108667
vt 0.003348 0.115122
vt 0.083183 0.118307
vt 0.075704 0.108051
vt 0.068437 0.148678
vt 0.004830 0.184506
vt 0.008895 0.194718
vt 0.048671 0.193804
vt 0.093673 0.189865
vt 0.088042 0.149752
vt 0.000446 0.030239
vt 0.082178 0.058329
vt 0.088394 0.107923
vt 0.097680 0.029032
vt 0.077505 0.000448
vt 0.071942 0.000455
vt 0.129544 0.106256
vt 0.171139 0.122152
vt 0.214889 0.137084
vt 0.216597 0.172412
vt 0.257289 0.136837
vt 0.222347 0.173874
vt 0.300832 0.104517
vt 0.287061 0.183674
vt 0.296670 0.194718
vt 0.252099 0.189550
vt 0.221377 0.190218
vt 0.135487 0.154098
vt 0.222598 0.105580
vt 0.149546 0.036458
vt 0.172828 0.067614
vt 0.300921 0.102200
vt 0.269361 0.026464
vt 0.245676 0.026198
vt 0.341213 0.050757
vt 0.320203 0.017553
vt 0.265782 0.017360
vt 0.337484 0.016920
vt 0.208627 0.105424
vt 0.128510 0.119603
vt 0.206966 0.953894
vt 0.215433 0.987019
vt 0.168153 0.987019
vt 0.102371 0.842220
vt 0.152988 0.857207
vt 0.095004 0.829895
vt 0.152988 0.771262
vt 0.176182 0.770367
vt 0.133363 0.770367
vt 0.141950 0.738138
vt 0.715159 0.800601
vt 0.726147 0.790232
vt 0.712610 0.790905
vt 0.678982 0.801701
vt 0.678412 0.768577
vt 0.733720 0.801701
vt 0.013284 0.225723
vt 0.003579 0.223366
vt 0.036128 0.259176
vt 0.003122 0.259176
vt 0.028100 0.938675
vt 0.114630 0.938675
vt 0.089937 0.908236
vt 0.941907 0.560990
vt 0.954059 0.628917
vt 0.921945 0.627276
vt 0.954059 0.550134
vt 0.986173 0.554611
vt 0.986173 0.605640
vt 0.957627 0.599118
vt 0.342105 0.956580
vt 0.288582 0.956580
vt 0.303147 0.899284
vt 0.329586 0.910161
vt 0.503568 0.808417
vt 0.452131 0.800806
vt 0.465559 0.853626
vt 0.410177 0.824844
vt 0.406334 0.853626
vt 0.927408 0.433439
vt 0.901669 0.446285
vt 0.898751 0.428380
vt 0.939786 0.446285
vt 0.091846 0.539449
vt 0.102141 0.546553
vt 0.065566 0.546553
vt 0.073014 0.539391
vt 0.684657 0.998657
vt 0.668749 0.979857
vt 0.632917 0.998657
vt 0.114860 0.286929
vt 0.091436 0.337959
vt 0.126227 0.337959
vt 0.990633 0.710307
vt 0.999554 0.707634
vt 0.995459 0.693375
vt 0.999554 0.718442
vt 0.244323 0.501791
vt 0.242194 0.503581
vt 0.255575 0.503581
vt 0.904560 0.344226
vt 0.887154 0.373104
vt 0.925513 0.355241
vt 0.899907 0.345563
vt 0.925513 0.423008
vt 0.907672 0.507162
vt 0.887154 0.484235
vt 0.907672 0.465085
vt 0.887790 0.479494
vt 0.128903 0.991495
vt 0.190455 0.991495
vt 0.134807 0.986124
vt 0.927297 0.994181
vt 0.924845 0.990600
vt 0.897859 0.994181
vt 0.300995 0.957475
vt 0.289474 0.959266
vt 0.305531 0.959266
vt 0.967440 0.398836
vt 0.986832 0.346911
vt 0.972591 0.347954
vt 0.991525 0.398836
vt 0.615968 0.803491
vt 0.545886 0.806079
vt 0.600190 0.858997
vt 0.524978 0.858997
vt 0.991525 0.793745
vt 0.991525 0.851835
vt 0.977252 0.792748
vt 0.985800 0.849610
vt 0.419715 0.893017
vt 0.354594 0.893017
vt 0.395636 0.830349
vt 0.371490 0.836712
vt 0.890723 0.744405
vt 0.835551 0.720849
vt 0.890723 0.677261
vt 0.826494 0.701437
vt 0.002740 0.673458
vt 0.040589 0.722023
vt 0.040589 0.656670
vt 0.001338 0.685287
vt 0.602466 0.792250
vt 0.601879 0.780072
vt 0.652166 0.802596
vt 0.555308 0.802596
vt 0.657003 0.757505
vt 0.593381 0.739033
vt 0.557780 0.780070
vt 0.937299 0.702328
vt 0.932649 0.690981
vt 0.975554 0.681737
vt 0.985281 0.702328
vt 0.681088 0.988809
vt 0.747993 0.988809
vt 0.745696 0.976276
vt 0.389384 0.990600
vt 0.338888 0.990600
vt 0.350401 0.976276
vt 0.337645 0.987122
vt 0.913024 0.762310
vt 0.921801 0.812311
vt 0.960303 0.774907
vt 0.960303 0.826768
vt 0.504460 0.556401
vt 0.446861 0.556401
vt 0.432203 0.509848
vt 0.490269 0.512143
vt 0.921053 0.989705
vt 0.918472 0.957475
vt 0.868421 0.989705
vt 0.680943 0.884960
vt 0.713530 0.891010
vt 0.741748 0.937780
vt 0.673952 0.937780
vt 0.745317 0.858102
vt 0.726899 0.837511
vt 0.673952 0.858102
vt 0.072672 0.686213
vt 0.041481 0.690689
vt 0.107493 0.690689
vt 0.894291 0.697790
vt 0.928189 0.674575
vt 0.928189 0.755148
vt 0.509819 0.814235
vt 0.508921 0.818711
vt 0.526762 0.818711
vt 0.100357 0.785586
vt 0.100357 0.802596
vt 0.096789 0.794441
vt 0.118198 0.800806
vt 0.114154 0.788272
vt 0.108385 0.800806
vt 0.339429 0.964637
vt 0.401873 0.964637
vt 0.382508 0.922560
vt 0.367534 0.927067
vt 0.965656 0.142793
vt 0.953167 0.117178
vt 0.965656 0.071173
vt 0.958519 0.488915
vt 0.974576 0.419427
vt 0.974576 0.493733
vt 0.802409 0.009310
vt 0.764753 0.003133
vt 0.739072 0.026410
vt 0.779867 0.026410
vt 0.000446 0.614892
vt 0.018287 0.572516
vt 0.018287 0.658460
vt 0.722123 0.269919
vt 0.757754 0.269867
vt 0.759892 0.254700
vt 0.773863 0.269919
vt 0.225245 0.087287
vt 0.159233 0.031781
vt 0.225245 0.016562
vt 0.157449 0.433751
vt 0.157449 0.504476
vt 0.153880 0.434210
vt 0.798840 0.416741
vt 0.798840 0.362131
vt 0.773888 0.408471
vt 0.770294 0.405313
vt 0.253791 0.997762
vt 0.213649 0.997762
vt 0.252838 0.975183
vt 0.224254 0.971799
vt 0.907672 0.321844
vt 0.867529 0.291730
vt 0.907672 0.237690
vt 0.444692 0.313081
vt 0.471454 0.310206
vt 0.471454 0.396150
vt 0.321588 0.756938
vt 0.321588 0.788272
vt 0.273417 0.764137
vt 0.274890 0.760684
vt 0.889831 0.421745
vt 0.896967 0.414055
vt 0.896967 0.438227
vt 0.861860 0.307997
vt 0.865745 0.311996
vt 0.865745 0.286034
vt 0.857716 0.303714
vt 0.522301 0.782901
vt 0.533006 0.782901
vt 0.527853 0.780215
vt 0.991525 0.346911
vt 0.981713 0.341531
vt 0.991525 0.288720
vt 0.028992 0.510743
vt 0.028992 0.574306
vt 0.005798 0.540543
vt 0.172556 0.720233
vt 0.170830 0.727395
vt 0.234166 0.727395
vt 0.524162 0.981647
vt 0.582444 0.961056
vt 0.520517 0.976788
vt 0.590990 0.981647
vt 0.698037 0.716323
vt 0.758079 0.722710
vt 0.710990 0.787377
vt 0.713965 0.704118
vt 0.777718 0.707684
vt 0.761457 0.787377
vt 0.784567 0.738321
vt 0.668599 0.910922
vt 0.636485 0.892942
vt 0.668599 0.877798
vt 0.107493 0.273679
vt 0.119982 0.241271
vt 0.119982 0.274396
vt 0.275237 0.235004
vt 0.287727 0.206356
vt 0.263604 0.208032
vt 0.318912 0.235004
vt 0.602587 0.972695
vt 0.668599 0.972695
vt 0.625287 0.944047
vt 0.855932 0.104297
vt 0.855932 0.179875
vt 0.797056 0.180394
vt 0.816156 0.112980
vt 0.797948 0.439123
vt 0.855932 0.438554
vt 0.816722 0.371668
vt 0.855932 0.363026
vt 0.949532 0.825873
vt 0.899643 0.840197
vt 0.961195 0.840197
vt 0.092328 0.970904
vt 0.024446 0.951209
vt 0.014719 0.970904
vt 0.892507 0.575406
vt 0.924621 0.528648
vt 0.896432 0.557341
vt 0.924621 0.612802
vt 0.764942 0.229877
vt 0.689848 0.229436
vt 0.764942 0.165126
vt 0.753843 0.244102
vt 0.689117 0.156222
vt 0.719432 0.269024
vt 0.825602 0.694270
vt 0.825602 0.785586
vt 0.778323 0.714921
vt 0.887154 0.190108
vt 0.917484 0.163384
vt 0.917484 0.254700
vt 0.657003 0.168667
vt 0.686441 0.209937
vt 0.686441 0.155327
vt 0.659074 0.165509
vt 0.165477 0.871531
vt 0.245982 0.869425
vt 0.188275 0.826768
vt 0.252007 0.871531
vt 0.990633 0.862578
vt 0.990633 0.910027
vt 0.973684 0.901339
vt 0.976360 0.148017
vt 0.991525 0.133841
vt 0.991525 0.181289
vt 0.972792 0.937780
vt 0.954059 0.863852
vt 0.972792 0.858997
vt 0.534790 0.769472
vt 0.504243 0.739928
vt 0.456289 0.769472
vt 0.954951 0.205978
vt 0.954951 0.261862
vt 0.919335 0.186661
vt 0.919268 0.220072
vt 0.503096 0.571620
vt 0.450045 0.585944
vt 0.508029 0.585944
vt 0.444692 0.900179
vt 0.502676 0.900179
vt 0.448789 0.896598
vt 0.791704 0.990600
vt 0.791704 0.995971
vt 0.777431 0.992834
vt 0.664139 0.760022
vt 0.676628 0.757833
vt 0.676628 0.794539
vt 0.264931 0.686193
vt 0.295718 0.692480
vt 0.253791 0.692480
vt 0.263184 0.676365
vt 0.814005 0.569830
vt 0.874665 0.569830
vt 0.823156 0.540286
vt 0.711418 0.267234
vt 0.711418 0.345121
vt 0.690009 0.324698
vt 0.947814 0.160698
vt 0.924621 0.089466
vt 0.947814 0.071173
vt 0.103033 0.008505
vt 0.192239 0.008505
vt 0.115981 0.004924
vt 0.704282 0.839302
vt 0.628457 0.839302
vt 0.630707 0.837511
vt 0.686585 0.837720
vt 0.227029 0.730081
vt 0.224785 0.728290
vt 0.169938 0.730081
vt 0.990633 0.025827
vt 0.997770 0.055058
vt 0.997770 0.018353
vt 0.990692 0.044726
vt 0.322480 0.816920
vt 0.376802 0.745300
vt 0.412578 0.816920
vt 0.325487 0.778073
vt 0.342105 0.845568
vt 0.281583 0.771262
vt 0.257360 0.845568
vt 0.340321 0.982543
vt 0.328731 0.965533
vt 0.269848 0.982543
usemtl baked
f 1/1 2/2 3/3
f 998/998 999/999 1000/1000
f 998/998 1003/1003 999/999
f 1001/1001 998/998 1000/1000
f 1001/1001 1000/1000 1002/1002
f 413/413 412/412 409/409
f 416/416 413/413 409/409
f 409/409 410/410 411/411
f 409/409 412/412 410/410
f 584/584 585/585 586/586
f 586/586 585/585 587/587
f 451/451 438/438 450/450
f 451/451 452/452 438/438
f 1015/1015 1016/1016 1017/1017
f 4/4 5/5 6/6
f 7/7 8/8 9/9
f 1022/1022 1023/1023 1024/1024
f 1024/1024 1025/1025 1026/1026
f 1024/1024 1023/1023 1025/1025
f 707/707 703/703 708/708
f 747/747 756/756 748/748
f 747/747 748/748 749/749
f 757/757 745/745 748/748
f 757/757 748/748 756/756
f 271/271 267/267 270/270
f 271/271 269/269 267/267
f 793/793 791/791 790/790
f 790/790 791/791 792/792
f 268/268 262/262 267/267
f 269/269 268/268 267/267
f 267/267 264/264 270/270
f 713/713 714/714 715/715
f 1027/1027 1028/1028 1029/1029
f 1030/1030 1028/1028 1027/1027
f 733/733 731/731 730/730
f 730/730 731/731 732/732
f 703/703 704/704 705/705
f 390/390 389/389 391/391
f 387/387 389/389 390/390
f 1031/1031 1032/1032 1033/1033
f 49/49 50/50 51/51
f 1034/1034 1031/1031 1033/1033
f 52/52 50/50 49/49
f 840/840 850/850 843/843
f 851/851 850/850 840/840
f 1004/1004 1005/1005 1006/1006
f 1006/1006 1005/1005 1007/1007
f 1035/1035 1036/1036 1037/1037
f 1038/1038 1039/1039 1040/1040
f 1044/1044 1042/1042 1041/1041
f 1045/1045 1046/1046 1047/1047
f 1041/1041 1042/1042 1043/1043
f 1053/1053 1054/1054 1055/1055
f 1054/1054 1056/1056 1055/1055
f 520/520 515/515 519/519
f 515/515 518/518 519/519
f 1057/1057 1058/1058 1059/1059
f 353/353 354/354 347/347
f 46/46 47/47 48/48
f 65/65 66/66 67/67
f 834/834 835/835 836/836
f 905/905 906/906 907/907
f 446/446 449/449 447/447
f 887/887 888/888 889/889
f 921/921 924/924 922/922
f 68/68 69/69 70/70
f 593/593 595/595 594/594
f 447/447 443/443 446/446
f 411/411 410/410 414/414
f 410/410 415/415 414/414
f 949/949 952/952 953/953
f 949/949 950/950 952/952
f 950/950 987/987 957/957
f 950/950 957/957 952/952
f 967/967 968/968 969/969
f 964/964 965/965 960/960
f 960/960 965/965 987/987
f 951/951 987/987 950/950
f 951/951 960/960 987/987
f 964/964 986/986 966/966
f 964/964 966/966 965/965
f 560/560 562/562 561/561
f 563/563 562/562 560/560
f 329/329 330/330 331/331
f 329/329 332/332 330/330
f 556/556 561/561 564/564
f 560/560 561/561 556/556
f 747/747 749/749 750/750
f 758/758 747/747 750/750
f 969/969 971/971 972/972
f 969/969 972/972 973/973
f 544/544 546/546 545/545
f 545/545 546/546 547/547
f 976/976 968/968 966/966
f 986/986 976/976 966/966
f 543/543 544/544 545/545
f 554/554 556/556 557/557
f 1060/1060 1061/1061 1062/1062
f 554/554 555/555 556/556
f 555/555 560/560 556/556
f 976/976 970/970 968/968
f 976/976 979/979 970/970
f 565/565 559/559 557/557
f 559/559 554/554 557/557
f 970/970 971/971 969/969
f 968/968 970/970 969/969
f 734/734 733/733 730/730
f 734/734 730/730 735/735
f 948/948 951/951 950/950
f 948/948 950/950 949/949
f 19/19 20/20 21/21
f 673/673 674/674 675/675
f 647/647 648/648 649/649
f 649/649 648/648 654/654
f 654/654 648/648 653/653
f 648/648 650/650 653/653
f 649/649 654/654 669/669
f 22/22 23/23 24/24
f 660/660 661/661 659/659
f 660/660 659/659 657/657
f 651/651 661/661 655/655
f 632/632 635/635 633/633
f 1063/1063 1064/1064 1065/1065
f 132/132 137/137 134/134
f 137/137 138/138 134/134
f 133/133 132/132 134/134
f 133/133 134/134 143/143
f 141/141 142/142 144/144
f 135/135 142/142 141/141
f 135/135 133/133 143/143
f 135/135 143/143 142/142
f 952/952 955/955 954/954
f 953/953 952/952 954/954
f 987/987 965/965 975/975
f 988/988 989/989 990/990
f 965/965 966/966 967/967
f 965/965 967/967 975/975
f 966/966 968/968 967/967
f 1069/1069 1067/1067 1066/1066
f 1066/1066 1067/1067 1068/1068
f 312/312 309/309 315/315
f 315/315 309/309 321/321
f 1070/1070 1071/1071 1072/1072
f 1072/1072 1071/1071 1073/1073
f 131/131 132/132 133/133
f 136/136 131/131 133/133
f 131/131 146/146 137/137
f 131/131 137/137 132/132
f 145/145 131/131 136/136
f 760/760 762/762 761/761
f 1074/1074 1075/1075 1076/1076
f 1075/1075 1077/1077 1076/1076
f 77/77 87/87 78/78
f 77/77 78/78 79/79
f 81/81 79/79 80/80
f 81/81 80/80 82/82
f 1086/1086 1087/1087 1088/1088
f 1086/1086 1089/1089 1087/1087
f 1090/1090 1091/1091 1092/1092
f 1091/1091 1094/1094 1092/1092
f 1082/1082 1083/1083 1084/1084
f 1080/1080 1079/1079 1081/1081
f 1078/1078 1079/1079 1080/1080
f 1085/1085 1084/1084 1083/1083
f 1101/1101 1102/1102 1103/1103
f 1095/1095 1094/1094 1091/1091
f 801/801 799/799 800/800
f 802/802 799/799 801/801
f 224/224 230/230 223/223
f 222/222 224/224 223/223
f 219/219 211/211 218/218
f 632/632 633/633 634/634
f 636/636 632/632 634/634
f 214/214 216/216 212/212
f 830/830 829/829 815/815
f 211/211 214/214 212/212
f 215/215 214/214 211/211
f 879/879 880/880 881/881
f 879/879 881/881 882/882
f 211/211 212/212 213/213
f 815/815 813/813 814/814
f 815/815 829/829 812/812
f 815/815 812/812 813/813
f 809/809 799/799 802/802
f 820/820 809/809 802/802
f 217/217 211/211 213/213
f 809/809 814/814 799/799
f 218/218 211/211 217/217
f 883/883 884/884 885/885
f 885/885 884/884 886/886
f 879/879 882/882 883/883
f 883/883 882/882 884/884
f 653/653 650/650 651/651
f 655/655 653/653 651/651
f 176/176 177/177 174/174
f 175/175 176/176 174/174
f 262/262 263/263 264/264
f 267/267 262/262 264/264
f 1018/1018 1019/1019 1020/1020
f 1021/1021 1018/1018 1020/1020
f 265/265 263/263 266/266
f 264/264 263/263 265/265
f 256/256 257/257 258/258
f 548/548 549/549 550/550
f 145/145 147/147 146/146
f 145/145 146/146 131/131
f 148/148 149/149 147/147
f 148/148 147/147 145/145
f 318/318 316/316 306/306
f 708/708 710/710 709/709
f 264/264 265/265 272/272
f 1108/1108 1109/1109 1110/1110
f 1110/1110 1109/1109 1111/1111
f 1112/1112 1113/1113 1114/1114
f 1112/1112 1114/1114 1115/1115
f 310/310 311/311 313/313
f 311/311 310/310 308/308
f 707/707 706/706 703/703
f 677/677 678/678 679/679
f 1116/1116 1117/1117 1118/1118
f 680/680 678/678 677/677
f 681/681 680/680 677/677
f 79/79 78/78 80/80
f 80/80 78/78 83/83
f 1105/1105 1107/1107 1106/1106
f 1104/1104 1105/1105 1106/1106
f 668/668 652/652 648/648
f 647/647 668/668 648/648
f 652/652 645/645 648/648
f 648/648 645/645 650/650
f 88/88 89/89 87/87
f 352/352 346/346 344/344
f 346/346 342/342 344/344
f 1119/1119 1120/1120 1121/1121
f 1119/1119 1121/1121 1122/1122
f 651/651 666/666 661/661
f 78/78 84/84 83/83
f 1123/1123 1124/1124 1125/1125
f 231/231 233/233 234/234
f 385/385 384/384 386/386
f 588/588 584/584 586/586
f 383/383 384/384 385/385
f 231/231 232/232 233/233
f 799/799 798/798 800/800
f 810/810 795/795 799/799
f 799/799 797/797 798/798
f 799/799 795/795 797/797
f 797/797 795/795 794/794
f 797/797 794/794 798/798
f 811/811 825/825 796/796
f 808/808 796/796 795/795
f 794/794 795/795 796/796
f 59/59 60/60 61/61
f 810/810 811/811 808/808
f 795/795 810/810 808/808
f 813/813 810/810 799/799
f 814/814 813/813 799/799
f 825/825 826/826 824/824
f 811/811 828/828 826/826
f 811/811 826/826 825/825
f 825/825 824/824 796/796
f 813/813 812/812 810/810
f 810/810 812/812 811/811
f 1126/1126 1127/1127 1128/1128
f 1129/1129 1130/1130 1131/1131
f 1132/1132 1133/1133 1134/1134
f 1138/1138 1139/1139 1140/1140
f 773/773 772/772 775/775
f 852/852 843/843 853/853
f 840/840 852/852 838/838
f 843/843 852/852 840/840
f 1141/1141 1142/1142 1143/1143
f 1144/1144 1141/1141 1143/1143
f 981/981 980/980 976/976
f 980/980 979/979 976/976
f 991/991 992/992 993/993
f 994/994 993/993 992/992
f 977/977 978/978 964/964
f 978/978 986/986 964/964
f 666/666 644/644 670/670
f 644/644 646/646 670/670
f 539/539 538/538 542/542
f 541/541 538/538 540/540
f 538/538 539/539 540/540
f 787/787 788/788 789/789
f 961/961 964/964 960/960
f 961/961 977/977 964/964
f 959/959 960/960 951/951
f 959/959 961/961 960/960
f 410/410 417/417 415/415
f 947/947 948/948 949/949
f 693/693 694/694 691/691
f 566/566 567/567 568/568
f 692/692 693/693 691/691
f 566/566 568/568 569/569
f 932/932 939/939 928/928
f 932/932 928/928 929/929
f 169/169 171/171 172/172
f 685/685 686/686 687/687
f 1145/1145 1146/1146 1147/1147
f 930/930 931/931 938/938
f 930/930 926/926 931/931
f 1148/1148 1149/1149 1150/1150
f 685/685 687/687 688/688
f 1151/1151 1153/1153 1154/1154
f 929/929 928/928 926/926
f 929/929 926/926 930/930
f 1151/1151 1152/1152 1153/1153
f 685/685 691/691 686/686
f 689/689 687/687 690/690
f 689/689 688/688 687/687
f 938/938 931/931 940/940
f 931/931 941/941 940/940
f 182/182 178/178 172/172
f 890/890 895/895 893/893
f 890/890 891/891 892/892
f 894/894 890/890 892/892
f 182/182 172/172 183/183
f 890/890 893/893 891/891
f 203/203 204/204 205/205
f 958/958 951/951 948/948
f 16/16 17/17 18/18
f 682/682 683/683 684/684
f 933/933 942/942 937/937
f 289/289 288/288 291/291
f 959/959 963/963 962/962
f 1155/1155 1156/1156 1157/1157
f 926/926 937/937 931/931
f 925/925 926/926 927/927
f 925/925 933/933 926/926
f 925/925 934/934 933/933
f 287/287 288/288 289/289
f 290/290 287/287 289/289
f 178/178 185/185 179/179
f 933/933 937/937 926/926
f 944/944 945/945 946/946
f 184/184 179/179 185/185
f 1014/1014 1012/1012 1011/1011
f 1011/1011 1012/1012 1013/1013
f 1158/1158 1159/1159 1160/1160
f 784/784 785/785 786/786
f 527/527 529/529 530/530
f 962/962 961/961 959/959
f 638/638 640/640 639/639
f 637/637 638/638 639/639
f 995/995 996/996 997/997
f 527/527 528/528 529/529
f 837/837 838/838 839/839
f 943/943 937/937 942/942
f 837/837 840/840 838/838
f 958/958 959/959 951/951
f 531/531 532/532 533/533
f 772/772 773/773 774/774
f 422/422 423/423 424/424
f 34/34 35/35 36/36
f 1159/1159 1161/1161 1160/1160
f 926/926 928/928 927/927
f 928/928 936/936 927/927
f 1162/1162 1163/1163 1164/1164
f 1165/1165 1166/1166 1167/1167
f 343/343 342/342 345/345
f 344/344 345/345 343/343
f 342/342 345/345 344/344
f 347/347 342/342 348/348
f 342/342 343/343 344/344
f 342/342 347/347 345/345
f 349/349 345/345 350/350
f 343/343 345/345 349/349
f 89/89 86/86 87/87
f 89/89 90/90 86/86
f 1169/1169 1171/1171 1170/1170
f 1168/1168 1169/1169 1170/1170
f 85/85 84/84 78/78
f 87/87 86/86 78/78
f 78/78 86/86 85/85
f 662/662 660/660 663/663
f 454/454 428/428 427/427
f 453/453 428/428 454/454
f 444/444 428/428 453/453
f 432/432 428/428 444/444
f 426/426 427/427 428/428
f 1048/1048 1051/1051 1049/1049
f 1048/1048 1049/1049 1050/1050
f 1050/1050 1049/1049 1052/1052
f 1172/1172 1173/1173 1174/1174
f 1097/1097 1098/1098 1099/1099
f 1100/1100 1097/1097 1099/1099
f 305/305 303/303 302/302
f 302/302 303/303 304/304
f 1175/1175 1174/1174 1173/1173
f 81/81 77/77 79/79
f 1096/1096 1091/1091 1093/1093
f 1093/1093 1091/1091 1090/1090
f 93/93 77/77 81/81
f 711/711 709/709 712/712
f 265/265 266/266 272/272
f 455/455 427/427 456/456
f 454/454 427/427 455/455
f 71/71 72/72 73/73
f 88/88 77/77 93/93
f 88/88 93/93 94/94
f 88/88 87/87 77/77
f 709/709 711/711 707/707
f 707/707 708/708 709/709
f 1176/1176 1177/1177 1178/1178
f 244/244 245/245 246/246
f 551/551 550/550 549/549
f 477/477 474/474 476/476
f 474/474 475/475 476/476
f 551/551 548/548 552/552
f 551/551 549/549 548/548
f 663/663 660/660 657/657
f 663/663 657/657 664/664
f 317/317 305/305 320/320
f 320/320 305/305 302/302
f 662/662 655/655 660/660
f 776/776 777/777 778/778
f 777/777 776/776 779/779
f 551/551 553/553 550/550
f 316/316 305/305 317/317
f 655/655 661/661 660/660
f 662/662 653/653 655/655
f 671/671 653/653 662/662
f 669/669 654/654 653/653
f 669/669 653/653 671/671
f 798/798 806/806 821/821
f 821/821 806/806 807/807
f 1179/1179 1180/1180 1181/1181
f 165/165 164/164 167/167
f 1182/1182 1183/1183 1184/1184
f 1182/1182 1184/1184 1185/1185
f 259/259 260/260 261/261
f 225/225 220/220 226/226
f 641/641 642/642 643/643
f 222/222 223/223 220/220
f 801/801 800/800 822/822
f 168/168 163/163 166/166
f 822/822 800/800 798/798
f 822/822 798/798 821/821
f 1186/1186 1187/1187 1188/1188
f 1191/1191 1192/1192 1189/1189
f 1193/1193 1194/1194 1195/1195
f 1189/1189 1190/1190 1191/1191
f 1196/1196 1197/1197 1198/1198
f 866/866 867/867 868/868
f 780/780 781/781 782/782
f 780/780 782/782 783/783
f 356/356 357/357 358/358
f 162/162 163/163 164/164
f 163/163 162/162 166/166
f 162/162 164/164 165/165
f 434/434 436/436 435/435
f 824/824 826/826 827/827
f 433/433 439/439 434/434
f 439/439 440/440 434/434
f 433/433 431/431 432/432
f 434/434 431/431 433/433
f 804/804 819/819 818/818
f 457/457 439/439 433/433
f 818/818 793/793 790/790
f 818/818 819/819 793/793
f 117/117 121/121 122/122
f 122/122 121/121 123/123
f 130/130 129/129 124/124
f 129/129 115/115 124/124
f 124/124 115/115 122/122
f 115/115 117/117 122/122
f 816/816 805/805 817/817
f 818/818 790/790 805/805
f 805/805 790/790 817/817
f 806/806 805/805 807/807
f 807/807 805/805 816/816
f 806/806 803/803 805/805
f 804/804 818/818 805/805
f 803/803 804/804 805/805
f 798/798 794/794 803/803
f 798/798 803/803 806/806
f 796/796 804/804 803/803
f 794/794 796/796 803/803
f 823/823 796/796 824/824
f 823/823 804/804 796/796
f 435/435 429/429 434/434
f 434/434 429/429 431/431
f 377/377 381/381 378/378
f 377/377 382/382 381/381
f 1202/1202 1203/1203 1204/1204
f 1199/1199 1200/1200 1201/1201
f 96/96 98/98 100/100
f 96/96 100/100 106/106
f 325/325 326/326 327/327
f 325/325 328/328 326/326
f 365/365 364/364 366/366
f 363/363 364/364 365/365
f 605/605 604/604 600/600
f 604/604 601/601 600/600
f 105/105 99/99 104/104
f 104/104 99/99 95/95
f 368/368 364/364 367/367
f 364/364 363/363 367/367
f 229/229 228/228 222/222
f 228/228 224/224 222/222
f 307/307 321/321 309/309
f 321/321 307/307 319/319
f 307/307 317/317 319/319
f 317/317 320/320 319/319
f 1205/1205 1206/1206 1207/1207
f 322/322 313/313 323/323
f 323/323 313/313 311/311
f 314/314 318/318 306/306
f 324/324 314/314 310/310
f 146/146 147/147 137/137
f 1209/1209 1210/1210 1211/1211
f 1210/1210 1214/1214 1211/1211
f 1210/1210 1215/1215 1214/1214
f 1212/1212 1213/1213 1210/1210
f 1212/1212 1210/1210 1209/1209
f 311/311 308/308 309/309
f 311/311 309/309 312/312
f 1205/1205 1208/1208 1206/1206
f 306/306 307/307 308/308
f 308/308 307/307 309/309
f 310/310 314/314 306/306
f 308/308 310/310 306/306
f 310/310 313/313 322/322
f 324/324 310/310 322/322
f 402/402 401/401 403/403
f 626/626 627/627 628/628
f 281/281 282/282 283/283
f 281/281 283/283 284/284
f 748/748 745/745 749/749
f 746/746 745/745 753/753
f 749/749 745/745 746/746
f 749/749 746/746 751/751
f 1219/1219 1220/1220 1221/1221
f 404/404 400/400 402/402
f 400/400 401/401 402/402
f 10/10 11/11 12/12
f 973/973 974/974 969/969
f 316/316 307/307 306/306
f 307/307 316/316 317/317
f 136/136 135/135 139/139
f 135/135 136/136 133/133
f 495/495 497/497 498/498
f 629/629 630/630 631/631
f 628/628 630/630 629/629
f 626/626 628/628 629/629
f 140/140 139/139 135/135
f 140/140 135/135 141/141
f 495/495 496/496 497/497
f 759/759 760/760 761/761
f 952/952 957/957 956/956
f 952/952 956/956 955/955
f 750/750 749/749 751/751
f 750/750 751/751 752/752
f 282/282 285/285 283/283
f 285/285 286/286 283/283
f 1216/1216 1217/1217 1218/1218
f 746/746 753/753 754/754
f 746/746 754/754 755/755
f 25/25 26/26 27/27
f 744/744 745/745 746/746
f 740/740 741/741 742/742
f 741/741 743/743 742/742
f 99/99 103/103 98/98
f 98/98 103/103 102/102
f 99/99 98/98 95/95
f 432/432 426/426 428/428
f 435/435 437/437 429/429
f 437/437 442/442 429/429
f 438/438 437/437 436/436
f 436/436 437/437 435/435
f 1222/1222 1223/1223 1224/1224
f 1225/1225 1223/1223 1222/1222
f 98/98 101/101 100/100
f 98/98 102/102 101/101
f 96/96 95/95 98/98
f 450/450 438/438 441/441
f 441/441 438/438 436/436
f 703/703 706/706 704/704
f 431/431 426/426 432/432
f 429/429 426/426 431/431
f 429/429 430/430 426/426
f 1226/1226 1227/1227 1228/1228
f 351/351 350/350 355/355
f 349/349 350/350 351/351
f 430/430 443/443 448/448
f 1229/1229 1230/1230 1231/1231
f 1235/1235 1234/1234 1236/1236
f 1229/1229 1231/1231 1232/1232
f 1233/1233 1234/1234 1235/1235
f 448/448 443/443 447/447
f 525/525 526/526 524/524
f 523/523 525/525 524/524
f 210/210 207/207 206/206
f 589/589 590/590 591/591
f 521/521 522/522 523/523
f 521/521 523/523 524/524
f 393/393 395/395 396/396
f 397/397 393/393 396/396
f 37/37 38/38 39/39
f 31/31 32/32 33/33
f 192/192 193/193 194/194
f 609/609 610/610 611/611
f 1237/1237 1238/1238 1239/1239
f 725/725 726/726 727/727
f 1240/1240 1241/1241 1242/1242
f 423/423 425/425 424/424
f 196/196 198/198 197/197
f 195/195 196/196 197/197
f 1243/1243 1246/1246 1244/1244
f 1243/1243 1244/1244 1245/1245
f 485/485 486/486 487/487
f 492/492 493/493 494/494
f 906/906 908/908 907/907
f 420/420 419/419 421/421
f 418/418 419/419 420/420
f 908/908 906/906 909/909
f 1247/1247 1248/1248 1249/1249
f 1249/1249 1248/1248 1251/1251
f 699/699 700/700 701/701
f 699/699 701/701 702/702
f 206/206 207/207 208/208
f 207/207 209/209 208/208
f 1250/1250 1248/1248 1247/1247
f 1252/1252 1248/1248 1250/1250
f 372/372 371/371 373/373
f 370/370 371/371 372/372
f 43/43 44/44 45/45
f 40/40 41/41 42/42
f 398/398 399/399 397/397
f 397/397 396/396 398/398
f 488/488 489/489 490/490
f 489/489 491/491 490/490
f 359/359 360/360 361/361
f 362/362 361/361 360/360
f 621/621 618/618 620/620
f 618/618 619/619 620/620
f 202/202 200/200 199/199
f 615/615 616/616 617/617
f 374/374 375/375 376/376
f 276/276 274/274 273/273
f 273/273 274/274 275/275
f 379/379 378/378 380/380
f 377/377 378/378 379/379
f 503/503 504/504 505/505
f 62/62 63/63 64/64
f 115/115 129/129 119/119
f 129/129 127/127 119/119
f 1253/1253 1254/1254 1255/1255
f 1256/1256 1257/1257 1258/1258
f 199/199 200/200 201/201
f 904/904 903/903 900/900
f 600/600 601/601 602/602
f 507/507 503/503 506/506
f 503/503 505/505 506/506
f 602/602 601/601 603/603
f 387/387 392/392 388/388
f 250/250 247/247 249/249
f 247/247 248/248 249/249
f 387/387 388/388 389/389
f 251/251 247/247 250/250
f 252/252 247/247 251/251
f 393/393 394/394 395/395
f 729/729 728/728 725/725
f 728/728 726/726 725/725
f 442/442 430/430 429/429
f 442/442 443/443 430/430
f 1259/1259 1260/1260 1261/1261
f 1259/1259 1261/1261 1262/1262
f 915/915 917/917 916/916
f 914/914 915/915 916/916
f 1266/1266 1264/1264 1263/1263
f 1263/1263 1264/1264 1265/1265
f 238/238 235/235 237/237
f 239/239 235/235 238/238
f 910/910 911/911 912/912
f 912/912 911/911 913/913
f 900/900 903/903 901/901
f 95/95 96/96 97/97
f 921/921 922/922 923/923
f 348/348 353/353 347/347
f 295/295 296/296 297/297
f 722/722 723/723 724/724
f 570/570 571/571 572/572
f 570/570 572/572 573/573
f 860/860 861/861 862/862
f 443/443 445/445 446/446
f 442/442 445/445 443/443
f 716/716 717/717 718/718
f 900/900 901/901 902/902
f 127/127 126/126 119/119
f 128/128 126/126 127/127
f 622/622 623/623 624/624
f 622/622 625/625 623/623
f 86/86 91/91 92/92
f 90/90 91/91 86/86
f 465/465 466/466 467/467
f 515/515 516/516 517/517
f 515/515 517/517 518/518
f 467/467 466/466 468/468
f 1270/1270 1271/1271 1272/1272
f 1267/1267 1268/1268 1269/1269
f 74/74 75/75 76/76
f 500/500 502/502 501/501
f 500/500 499/499 502/502
f 499/499 500/500 501/501
f 1273/1273 1274/1274 1275/1275
f 673/673 676/676 674/674
f 656/656 658/658 672/672
f 857/857 858/858 859/859
f 719/719 720/720 721/721
f 1276/1276 1277/1277 1278/1278
f 175/175 174/174 173/173
f 173/173 174/174 170/170
f 178/178 169/169 172/172
f 169/169 173/173 170/170
f 169/169 170/170 171/171
f 692/692 691/691 685/685
f 659/659 658/658 657/657
f 656/656 657/657 658/658
f 1279/1279 1280/1280 1281/1281
f 1286/1286 1287/1287 1288/1288
f 1280/1280 1282/1282 1281/1281
f 1283/1283 1284/1284 1285/1285
f 1289/1289 1290/1290 1291/1291
f 121/121 117/117 118/118
f 116/116 118/118 117/117
f 119/119 116/116 115/115
f 115/115 116/116 117/117
f 847/847 848/848 846/846
f 846/846 848/848 849/849
f 574/574 575/575 576/576
f 576/576 577/577 574/574
f 841/841 844/844 842/842
f 841/841 845/845 844/844
f 582/582 578/578 577/577
f 578/578 574/574 577/577
f 845/845 846/846 844/844
f 847/847 846/846 845/845
f 482/482 483/483 484/484
f 583/583 578/578 582/582
f 1292/1292 1293/1293 1294/1294
f 1298/1298 1295/1295 1297/1297
f 227/227 221/221 225/225
f 221/221 220/220 225/225
f 220/220 221/221 222/222
f 56/56 57/57 58/58
f 850/850 841/841 843/843
f 841/841 842/842 843/843
f 869/869 870/870 871/871
f 736/736 737/737 738/738
f 1135/1135 1136/1136 1137/1137
f 872/872 870/870 869/869
f 874/874 872/872 869/869
f 876/876 874/874 875/875
f 874/874 869/869 875/875
f 1295/1295 1296/1296 1297/1297
f 1302/1302 1303/1303 1304/1304
f 1299/1299 1300/1300 1301/1301
f 13/13 14/14 15/15
f 980/980 982/982 979/979
f 1305/1305 1306/1306 1307/1307
f 1308/1308 1309/1309 1310/1310
f 461/461 462/462 463/463
f 458/458 459/459 460/460
f 366/366 364/364 369/369
f 364/364 368/368 369/369
f 534/534 535/535 536/536
f 536/536 535/535 537/537
f 481/481 482/482 480/480
f 479/479 481/481 480/480
f 150/150 151/151 152/152
f 151/151 150/150 153/153
f 513/513 506/506 508/508
f 513/513 508/508 514/514
f 186/186 188/188 189/189
f 189/189 188/188 190/190
f 464/464 462/462 461/461
f 112/112 111/111 113/113
f 114/114 110/110 112/112
f 110/110 111/111 112/112
f 119/119 126/126 120/120
f 119/119 120/120 116/116
f 235/235 240/240 236/236
f 235/235 236/236 237/237
f 186/186 187/187 188/188
f 187/187 191/191 188/188
f 116/116 120/120 118/118
f 120/120 125/125 118/118
f 872/872 871/871 870/870
f 1314/1314 1311/1311 1313/1313
f 1311/1311 1312/1312 1313/1313
f 983/983 985/985 982/982
f 984/984 983/983 980/980
f 473/473 469/469 471/471
f 980/980 983/983 982/982
f 873/873 871/871 872/872
f 1315/1315 1316/1316 1317/1317
f 478/478 479/479 480/480
f 918/918 919/919 920/920
f 1318/1318 1319/1319 1320/1320
f 1318/1318 1321/1321 1319/1319
f 508/508 509/509 510/510
f 53/53 54/54 55/55
f 108/108 97/97 107/107
f 511/511 509/509 508/508
f 280/280 278/278 277/277
f 277/277 278/278 279/279
f 96/96 106/106 97/97
f 97/97 106/106 107/107
f 505/505 512/512 511/511
f 109/109 97/97 108/108
f 554/554 558/558 555/555
f 558/558 554/554 559/559
f 580/580 579/579 581/581
f 736/736 738/738 739/739
f 405/405 406/406 407/407
f 408/408 405/405 407/407
f 508/508 506/506 511/511
f 506/506 505/505 511/511
f 897/897 899/899 898/898
f 896/896 897/897 898/898
f 831/831 832/832 833/833
f 576/576 579/579 580/580
f 575/575 579/579 576/576
f 644/644 645/645 646/646
f 876/876 877/877 878/878
f 877/877 876/876 875/875
f 606/606 607/607 608/608
f 481/481 483/483 482/482
f 592/592 593/593 594/594
f 592/592 594/594 596/596
f 469/469 472/472 470/470
f 469/469 470/470 471/471
f 651/651 644/644 666/666
f 650/650 644/644 651/651
f 650/650 645/645 644/644
f 695/695 696/696 697/697
f 665/665 667/667 658/658
f 659/659 665/665 658/658
f 341/341 340/340 339/339
f 1008/1008 1009/1009 1010/1010
f 766/766 767/767 768/768
f 854/854 855/855 856/856
f 181/181 180/180 179/179
f 184/184 181/181 179/179
f 158/158 159/159 160/160
f 161/161 159/159 158/158
f 763/763 764/764 765/765
f 292/292 293/293 294/294
f 28/28 29/29 30/30
f 769/769 770/770 771/771
f 661/661 666/666 665/665
f 661/661 665/665 659/659
f 298/298 299/299 300/300
f 298/298 300/300 301/301
f 253/253 254/254 255/255
f 241/241 242/242 243/243
f 1323/1323 1322/1322 1325/1325
f 1322/1322 1323/1323 1324/1324
f 1326/1326 1327/1327 1328/1328
f 612/612 613/613 614/614
f 1329/1329 1330/1330 1331/1331
f 333/333 334/334 335/335
f 335/335 334/334 336/336
f 180/180 169/169 178/178
f 179/179 180/180 178/178
f 157/157 155/155 154/154
f 154/154 155/155 156/156
f 337/337 334/334 333/333
f 180/180 173/173 169/169
f 863/863 864/864 865/865
f 925/925 935/935 934/934
f 597/597 598/598 599/599
f 169/169 178/178 179/179
f 695/695 698/698 696/696
f 338/338 339/339 340/340
