mtllib P-11_tex.mtl
v -0.272736 1.472394 0.174852
v -0.370007 1.472966 0.290382
v -0.378672 1.470483 0.260742
v -0.378672 1.470483 0.260742
v -0.681821 1.205061 -0.123334
v -0.392694 1.469946 -0.112217
v -1.012172 1.072468 0.125485
v -0.999046 1.076644 0.002096
v -0.914187 1.066795 0.392606
v -1.006532 1.069264 0.232332
v 0.607275 0.881497 0.789661
v 0.304022 0.621870 0.880113
v 0.648914 0.982920 0.769409
v 0.327306 1.289969 0.690667
v 0.633061 1.271888 0.670306
v 0.639194 1.187911 0.690721
v 1.970825 0.343657 0.678309
v 1.791533 0.288065 0.714076
v 2.157010 0.581789 0.468695
v 1.791533 0.288065 0.714076
v 1.922135 0.303726 0.675850
v 2.157010 0.581789 0.468695
v -0.376345 1.475987 -0.139812
v -0.359965 1.483566 -0.123592
v -0.277836 1.473237 0.123827
v -0.403504 0.575176 -0.874433
v -0.865252 0.307179 -0.843589
v -0.385650 0.584265 -0.873738
v -0.696522 0.255226 -0.727187
v -1.002623 0.100555 -0.646239
v -0.865252 0.307179 -0.843589
v -0.865252 0.307179 -0.843589
v -1.002623 0.100555 -0.646239
v -0.880430 0.367947 -0.680100
v -1.002623 0.100555 -0.646239
v -0.696522 0.255226 -0.727187
v -0.880430 0.367947 -0.680100
v -0.696522 0.255226 -0.727187
v -0.865252 0.307179 -0.843589
v -0.880430 0.367947 -0.680100
v 0.304022 0.621870 0.880113
v 0.626774 0.464951 0.905877
v 0.816519 0.365197 0.813132
v 1.178369 0.281743 0.419335
v 0.958153 0.233745 0.328441
v 1.489416 0.218516 0.625730
v 1.608932 0.262921 -0.235635
v 1.583398 0.288448 -0.247175
v 1.277957 0.287121 -0.214032
v 2.034402 0.347987 -0.412522
v 1.935517 0.305514 -0.649445
v 1.709350 0.289614 -0.693999
v -0.351098 1.154102 -0.712183
v -0.464548 0.985758 -0.890074
v -0.217091 1.232428 -0.696053
v 1.178369 0.281743 0.419335
v 0.633620 0.253101 0.235320
v 0.816267 0.273662 0.674617
v 0.955786 0.238048 -0.407570
v 0.957128 0.235926 -0.407921
v 1.271464 0.000000 -0.671043
v -0.968524 0.206649 0.140151
v -0.698752 0.253737 0.126149
v -0.674083 0.238178 -0.108804
v -1.965484 0.238596 -0.727161
v -1.989757 0.240043 -0.681429
v -1.665046 0.288469 -0.825788
v -1.665046 0.288469 -0.825788
v -2.008558 0.581923 -0.792172
v -2.129975 0.589716 -0.684491
v -1.259203 0.268594 -0.414528
v -0.696522 0.255226 -0.727187
v -1.002623 0.100555 -0.646239
v 1.290671 1.178491 -0.495653
v 0.993476 1.289196 -0.625285
v 1.548105 1.068797 -0.675003
v -2.027032 0.256178 -0.280524
v -1.986150 0.255742 -0.286216
v -1.979463 0.284181 -0.625385
v 0.624357 1.422555 -0.408530
v 0.033152 1.437890 -0.132929
v 0.628612 1.445852 -0.011185
v 0.627301 1.423574 0.400365
v 0.905801 1.411432 0.131664
v 0.902678 1.411285 -0.154310
v 0.891791 1.392020 0.400813
v 0.223502 1.450558 0.213800
v -0.020139 1.373834 0.645875
v -0.295682 1.365401 0.265855
v -0.000547 1.434195 -0.141493
v -0.268845 1.460579 0.093721
v -0.241581 1.380834 -0.352972
v 0.166453 1.398016 -0.612957
v 0.303223 1.404826 -0.593916
v -0.234080 1.451352 -0.412783
v 0.639981 1.340450 -0.665495
v 1.250844 1.283777 0.085849
v 1.246601 1.283903 0.141535
v 1.218336 1.229408 -0.408382
v 0.993476 1.289196 -0.625285
v 1.586168 1.176918 -0.062136
v 1.577192 1.179482 -0.148016
v 1.375702 1.184385 0.168123
v 1.574698 1.151292 0.113270
v 1.281409 1.177515 0.547048
v 1.288934 1.178473 0.549862
v 1.480840 1.166026 0.416405
v 1.537043 1.141479 0.135057
v 1.896376 1.074923 0.348442
v 1.763284 1.105728 -0.113898
v 2.069640 1.064530 0.123026
v 1.971046 1.053438 -0.390979
v 1.964103 1.071372 0.310244
v 0.633061 1.271888 0.670306
v 1.155431 1.179590 0.694968
v 1.905782 1.030314 0.520367
v 1.936393 1.074705 -0.408691
v 0.411374 1.275175 0.676829
v 0.327306 1.289969 0.690667
v 1.297463 0.884377 0.857753
v 1.937689 0.898261 0.706246
v 0.959491 0.911450 0.846980
v 2.001060 0.886144 0.662276
v 1.290671 1.178491 -0.495653
v 1.548105 1.068797 -0.675003
v 0.639194 1.187911 0.690721
v 0.196188 1.351493 -0.680930
v 1.983252 0.891191 0.677543
v -0.316674 1.500000 -0.142572
v -0.277836 1.473237 0.123827
v -0.376345 1.475987 -0.139812
v -0.250056 1.471400 -0.412213
v -0.221435 1.435512 0.423237
v -0.030243 0.492238 -0.863126
v 0.300992 0.677771 -0.845650
v 0.297649 0.462497 -0.864150
v -0.338993 0.604805 -0.872247
v -0.385650 0.584265 -0.873738
v -0.403504 0.575176 -0.874433
v 0.628993 0.459209 -0.892537
v -0.351098 1.154102 -0.712183
v 0.127802 0.908201 -0.805324
v 0.472694 0.919798 -0.779570
v -0.217091 1.232428 -0.696053
v 0.196188 1.351493 -0.680930
v 0.566723 1.178252 -0.687769
v 0.475669 0.669419 -0.917570
v 0.934143 0.429938 -0.834259
v 0.940233 0.277697 -0.838708
v 0.094898 0.217870 -0.801113
v -0.025503 0.223665 -0.800243
v 0.341479 0.220592 -0.810649
v -0.671993 0.255282 -0.727187
v -0.696522 0.255226 -0.727187
v 0.782925 1.016033 -0.909273
v 0.771778 0.664323 -0.945822
v 1.271002 0.587851 -0.810524
v 1.192213 0.578077 -0.831793
v 1.238296 0.136355 -0.828180
v 1.590725 0.293766 -0.785240
v 1.610635 0.265268 -0.773157
v 1.149100 1.135565 -0.721774
v 1.292557 1.024849 -0.748884
v 1.548105 1.068797 -0.675003
v 1.636999 1.033064 -0.683557
v 1.347833 0.665138 -0.702508
v 1.618284 0.604805 -0.827011
v 1.940156 0.648669 -0.740188
v 1.951765 0.891528 -0.691046
v 1.948743 0.331828 -0.681880
v 1.709350 0.289614 -0.693999
v 1.650970 1.043464 -0.671110
v 1.938550 1.037335 -0.477195
v 0.303223 1.404826 -0.593916
v 0.639981 1.340450 -0.665495
v 0.820805 1.220866 -0.699044
v 0.983046 1.217477 -0.699533
v 0.993476 1.289196 -0.625285
v -0.234080 1.451352 -0.412783
v 0.166453 1.398016 -0.612957
v -0.406262 1.403389 -0.558404
v -0.250056 1.471400 -0.412213
v -0.360694 1.268137 -0.686490
v -0.671791 1.174069 -0.415944
v -0.464548 0.985758 -0.890074
v -0.865252 0.307179 -0.843589
v 0.820561 0.279671 -0.661931
v 0.820561 0.292793 -0.664471
v -2.157215 0.773261 0.402104
v -2.058997 0.286330 0.346787
v -2.054556 0.812106 0.566012
v -2.045615 0.286699 0.422883
v -2.098952 0.797987 -0.122845
v -2.075346 0.287265 0.130276
v -2.066429 0.286562 -0.337756
v -2.066491 0.618625 0.678190
v -2.089182 0.331627 0.744531
v -1.998787 0.235642 0.715953
v -0.018071 0.907021 0.810550
v -0.019789 0.632484 0.871996
v 0.304022 0.621870 0.880113
v 0.607275 0.881497 0.789661
v 0.327306 1.289969 0.690667
v 0.044552 1.262342 0.720078
v 0.648914 0.982920 0.769409
v -0.351827 1.180043 0.712628
v 0.639194 1.187911 0.690721
v 1.155431 1.179590 0.694968
v 0.633061 1.271888 0.670306
v 0.411374 1.275175 0.676829
v -0.349442 0.997099 0.891977
v -0.020139 1.373834 0.645875
v 0.959491 0.911450 0.846980
v -0.196277 0.604805 0.876088
v 0.099839 0.316082 0.848844
v -0.260828 0.568221 0.878204
v -0.381799 0.566441 0.880483
v -0.388792 0.807147 0.823438
v -0.440081 1.113641 0.726430
v -0.859306 1.043748 0.722741
v -0.970801 0.587307 0.904614
v 0.626774 0.464951 0.905877
v -1.329960 0.600614 0.802951
v -1.216091 0.925182 0.768492
v -1.337992 0.898978 0.786344
v -0.950713 0.421733 0.694359
v -1.284659 0.327167 0.814452
v -0.758214 0.222144 0.763462
v -1.217576 0.285775 0.813608
v -1.627151 0.447309 0.699295
v -0.344939 0.226882 0.785675
v -0.016399 0.226661 0.811499
v -1.506699 0.617550 0.707734
v -1.697698 0.890376 0.805756
v -0.372998 0.230085 0.753807
v 0.625816 0.222506 0.822945
v -1.981270 0.755328 0.679143
v -1.752012 0.293853 0.817546
v -2.066491 0.618625 0.678190
v -2.089182 0.331627 0.744531
v 0.815457 0.285775 0.751122
v -1.998787 0.235642 0.715953
v 0.662839 0.853284 0.923855
v 0.956729 0.629731 0.908243
v 1.297463 0.884377 0.857753
v 1.598661 0.634251 0.839105
v 1.937689 0.898261 0.706246
v 1.637104 0.596635 0.830930
v 1.563853 0.430040 0.824603
v 1.040580 0.397503 0.835476
v 1.097071 0.155201 0.835859
v 0.816519 0.365197 0.813132
v 1.587812 0.262988 0.783089
v 1.791533 0.288065 0.714076
v 1.970825 0.343657 0.678309
v 2.025116 0.617234 0.679459
v 1.983252 0.891191 0.677543
v -0.221435 1.435512 0.423237
v -0.407228 1.175678 0.729627
v -0.360058 1.347513 0.519366
v -0.250134 1.471294 0.420108
v -0.353856 1.473901 0.427819
v 2.154399 0.653154 0.133773
v 2.141712 0.450397 -0.123769
v 2.095853 0.775762 -0.165724
v 2.038087 0.350386 -0.405729
v 2.034402 0.347987 -0.412522
v 2.098029 0.787879 -0.409489
v 1.940156 0.648669 -0.740188
v 1.948743 0.331828 -0.681880
v 1.971046 1.053438 -0.390979
v 1.938550 1.037335 -0.477195
v 2.069640 1.064530 0.123026
v 1.951765 0.891528 -0.691046
v 1.964103 1.071372 0.310244
v 2.112039 0.723251 0.285250
v 2.120658 0.759219 0.406508
v 2.001060 0.886144 0.662276
v -1.349225 0.208984 -0.501349
v -1.175984 0.165984 -0.811126
v -1.259203 0.268594 -0.414528
v -0.696522 0.255226 -0.727187
v -1.660411 0.285944 -0.823586
v -1.611655 0.924231 0.088415
v -1.668890 0.912693 -0.089905
v -1.662816 0.909079 0.282826
v -1.985541 0.844802 -0.021658
v -1.978606 0.845729 0.160866
v -1.775576 0.882962 0.425803
v -1.605581 0.919222 0.301954
v -1.970170 0.842361 -0.377341
v -1.656125 0.901738 0.408076
v -1.006532 1.069264 0.232332
v -1.012172 1.072468 0.125485
v -1.559218 0.932414 -0.140872
v -1.697698 0.890376 0.805756
v -1.983916 0.787788 0.625260
v -2.098952 0.797987 -0.122845
v -2.157215 0.773261 0.402104
v -2.054556 0.812106 0.566012
v -1.337992 0.898978 0.786344
v -1.237963 0.951257 0.412088
v -1.216091 0.925182 0.768492
v -0.911312 1.070610 0.408269
v -0.859306 1.043748 0.722741
v -0.440081 1.113641 0.726430
v -0.999046 1.076644 0.002096
v -0.914187 1.066795 0.392606
v -1.981270 0.755328 0.679143
v -0.360058 1.347513 0.519366
v -0.378672 1.470483 0.260742
v -2.242990 0.614663 -0.285932
v -1.996107 0.783113 -0.596386
v -1.986177 0.787879 -0.613662
v -1.675209 0.899561 -0.660553
v -2.066491 0.618625 0.678190
v -1.966811 0.770357 -0.686432
v -2.129975 0.589716 -0.684491
v 1.578096 1.172766 -0.162476
v 1.577192 1.179482 -0.148016
v 1.586168 1.176918 -0.062136
v 1.548105 1.068797 -0.675003
v -1.345424 0.940506 -0.433501
v -1.559218 0.932414 -0.140872
v -1.018405 1.050267 -0.175869
v -1.012172 1.072468 0.125485
v -1.675209 0.899561 -0.660553
v -1.775009 0.889786 -0.155083
v -1.611655 0.924231 0.088415
v -1.657611 0.912447 -0.798759
v -1.816136 0.886580 -0.739222
v -1.285734 0.931895 -0.782774
v -1.006889 0.980753 -0.414257
v -0.277836 1.473237 0.123827
v -0.359965 1.483566 -0.123592
v -0.272736 1.472394 0.174852
v -0.370007 1.472966 0.290382
v -0.378672 1.470483 0.260742
v -0.392694 1.469946 -0.112217
v -0.376345 1.475987 -0.139812
v -0.681821 1.205061 -0.123334
v -0.680386 1.188652 0.338864
v -0.725229 1.176756 -0.253337
v -0.914187 1.066795 0.392606
v -0.999046 1.076644 0.002096
v -0.978939 1.073318 -0.375297
v -0.433406 1.404401 -0.171278
v -0.671791 1.174069 -0.415944
v -0.406262 1.403389 -0.558404
v -0.250056 1.471400 -0.412213
v -0.316674 1.500000 -0.142572
v -0.973590 1.062381 -0.411823
v -0.895355 1.091047 -0.687131
v -0.464548 0.985758 -0.890074
v -0.360694 1.268137 -0.686490
v -0.217091 1.232428 -0.696053
v -1.996107 0.783113 -0.596386
v -2.066429 0.286562 -0.337756
v -2.242990 0.614663 -0.285932
v -2.026291 0.286274 -0.570780
v 1.290671 1.178491 -0.495653
v 1.548105 1.068797 -0.675003
v 1.578096 1.172766 -0.162476
v 1.577192 1.179482 -0.148016
v 1.533568 0.289140 -0.659935
v 1.709350 0.289614 -0.693999
v 1.935517 0.305514 -0.649445
v 1.590725 0.293766 -0.785240
v 1.778333 0.253972 -0.316889
v 1.608932 0.262921 -0.235635
v 1.648356 0.272496 -0.767828
v 1.583398 0.288448 -0.247175
v 1.505710 0.208707 -0.136728
v 1.922135 0.303726 0.675850
v 1.784035 0.256782 0.301953
v 1.931808 0.328488 0.153876
v 1.929570 0.327824 -0.134568
v 1.627554 0.221403 -0.129323
v 1.880880 0.342705 -0.233594
v 1.605488 0.253797 0.399196
v 2.034402 0.347987 -0.412522
v 2.038087 0.350386 -0.405729
v 2.141712 0.450397 -0.123769
v 1.957265 0.362503 0.185032
v 1.646835 0.283749 -0.409238
v 2.157010 0.581789 0.468695
v 2.154399 0.653154 0.133773
v 2.112039 0.723251 0.285250
v 2.120658 0.759219 0.406508
v 0.059419 0.234623 0.060233
v 0.422894 0.254408 -0.220020
v 0.305453 0.242027 0.060648
v 0.903811 0.215777 0.109648
v 0.955786 0.238048 -0.407570
v 0.584007 0.255072 -0.418691
v 0.820561 0.279671 -0.661931
v 0.528253 0.249923 0.135743
v 0.633620 0.253101 0.235320
v 0.816267 0.273662 0.674617
v 0.457830 0.254864 0.468541
v 0.239669 0.254868 0.462681
v 0.625816 0.222506 0.822945
v -0.344939 0.226882 0.785675
v -0.016399 0.226661 0.811499
v -0.186642 0.230616 0.408694
v -0.356831 0.223521 0.454113
v -0.669782 0.186091 0.141358
v -0.168110 0.202595 0.135476
v 0.958153 0.233745 0.328441
v -0.372998 0.230085 0.753807
v -0.865252 0.255222 0.670605
v -0.968524 0.206649 0.140151
v 0.037027 0.192895 0.180564
v 0.236326 0.227890 -0.182585
v -0.131610 0.248082 0.061012
v 0.293118 0.254885 -0.449194
v 0.341479 0.220592 -0.810649
v 0.940233 0.277697 -0.838708
v 0.094898 0.217870 -0.801113
v -0.255743 0.161236 -0.410362
v -0.313889 0.139541 -0.153834
v -0.475758 0.161383 -0.416225
v -0.451233 0.138599 -0.142279
v 1.007874 0.240008 0.117211
v 1.277150 0.287121 0.221556
v 1.512110 0.314986 0.381314
v 1.318963 0.289221 -0.001607
v 1.260886 0.286689 -0.094458
v 1.277957 0.287121 -0.214032
v 0.957128 0.235926 -0.407921
v 1.178369 0.281743 0.419335
v -0.025503 0.223665 -0.800243
v -0.674083 0.238178 -0.108804
v -0.991828 0.232758 -0.190599
v -0.671993 0.255282 -0.727187
v -0.696522 0.255226 -0.727187
v -1.002623 0.100555 -0.646239
v 0.815457 0.285775 0.751122
v -0.758214 0.222144 0.763462
v -1.217576 0.285775 0.813608
v -1.277053 0.237342 0.446377
v 1.097071 0.155201 0.835859
v 1.489416 0.218516 0.625730
v 1.587812 0.262988 0.783089
v -1.355831 0.157354 0.834542
v -1.442052 0.274764 0.635128
v -1.516385 0.262166 -0.259203
v -1.349225 0.208984 -0.501349
v -1.018506 0.233528 -0.197702
v -1.986150 0.255742 -0.286216
v -1.979463 0.284181 -0.625385
v -1.660411 0.285944 -0.823586
v -2.001017 0.285217 -0.585278
v -2.027032 0.256178 -0.280524
v -2.066429 0.286562 -0.337756
v -2.026291 0.286274 -0.570780
v -2.075346 0.287265 0.130276
v -1.965484 0.238596 -0.727161
v -1.665046 0.288469 -0.825788
v -1.989757 0.240043 -0.681429
v -1.627151 0.447309 0.699295
v -1.891008 0.279899 0.679552
v -1.355831 0.157354 0.834542
v -1.217576 0.285775 0.813608
v -0.696522 0.255226 -0.727187
v -1.131805 0.581729 -0.695592
v -0.865252 0.307179 -0.843589
v -1.329711 0.686861 -0.881436
v -1.018506 0.233528 -0.197702
v -0.991828 0.232758 -0.190599
v -0.698752 0.253737 0.126149
v -0.674083 0.238178 -0.108804
v -1.276169 0.237131 -0.133187
v -1.516385 0.262166 -0.259203
v -1.339734 0.249722 0.036800
v -1.009783 0.251545 0.180812
v -1.986150 0.255742 -0.286216
v -1.259203 0.268594 -0.414528
v -1.778717 0.189003 0.122716
v -1.336588 0.204959 0.236366
v -1.879115 0.230093 0.343909
v -2.034030 0.285417 0.118051
v -2.027032 0.256178 -0.280524
v -2.075346 0.287265 0.130276
v -2.058997 0.286330 0.346787
v -2.014224 0.267045 0.350042
v -0.968524 0.206649 0.140151
v -1.995816 0.284093 0.421650
v -2.045615 0.286699 0.422883
v -1.998787 0.235642 0.715953
v -1.002623 0.100555 -0.646239
v -1.442052 0.274764 0.635128
v -1.899079 0.276858 0.406408
v -1.891008 0.279899 0.679552
v -1.355831 0.157354 0.834542
v -2.242990 0.614663 -0.285932
v -2.066429 0.286562 -0.337756
v -2.098952 0.797987 -0.122845
v 0.993476 1.289196 -0.625285
v 1.282848 1.158078 -0.505502
v 1.548105 1.068797 -0.675003
v -0.680689 1.175425 -0.595326
v -0.973590 1.062381 -0.411823
v -0.406262 1.403389 -0.558404
v 1.548105 1.068797 -0.675003
v 1.149100 1.135565 -0.721774
v 1.282848 1.158078 -0.505502
v 1.290671 1.178491 -0.495653
v 0.993476 1.289196 -0.625285
v 1.970825 0.343657 0.678309
v 2.120658 0.759219 0.406508
v 2.025116 0.617234 0.679459
v 1.983252 0.891191 0.677543
v 2.157010 0.581789 0.468695
v -2.129975 0.589716 -0.684491
v -2.026291 0.286274 -0.570780
v -1.996107 0.783113 -0.596386
v -0.440081 1.113641 0.726430
v -0.196277 0.604805 0.876088
v -0.349442 0.997099 0.891977
v -0.433406 1.404401 -0.171278
v -0.406262 1.403389 -0.558404
v -0.234080 1.451352 -0.412783
v -0.360058 1.347513 0.519366
v -0.440081 1.113641 0.726430
v -0.407228 1.175678 0.729627
v -0.642898 1.173620 0.642533
v -0.406262 1.403389 -0.558404
v -0.433406 1.404401 -0.171278
v -0.241581 1.380834 -0.352972
v 2.034402 0.347987 -0.412522
v 1.709350 0.289614 -0.693999
v 1.948743 0.331828 -0.681880
v -0.406262 1.403389 -0.558404
v -0.973590 1.062381 -0.411823
v -0.671791 1.174069 -0.415944
v -1.660411 0.285944 -0.823586
v -1.547081 0.581431 -0.824056
v -1.607617 0.289140 -0.671658
v -0.642898 1.173620 0.642533
v -0.911312 1.070610 0.408269
v -0.440081 1.113641 0.726430
v -1.752012 0.293853 0.817546
v -1.891008 0.279899 0.679552
v -1.627151 0.447309 0.699295
v -1.998787 0.235642 0.715953
v -1.995816 0.284093 0.421650
v -1.506699 0.617550 0.707734
v -0.378672 1.470483 0.260742
v -0.360058 1.347513 0.519366
v -0.221435 1.435512 0.423237
v 1.784035 0.256782 0.301953
v 1.512110 0.314986 0.381314
v 1.931808 0.328488 0.153876
v 1.605488 0.253797 0.399196
v 1.573395 0.325621 0.669681
v 1.791533 0.288065 0.714076
v 1.563853 0.430040 0.824603
v 1.489416 0.218516 0.625730
v 1.922135 0.303726 0.675850
v 1.605488 0.253797 0.399196
v 1.665554 0.269886 0.407194
v 0.958153 0.233745 0.328441
v 1.784035 0.256782 0.301953
v 1.605488 0.253797 0.399196
v 0.958153 0.233745 0.328441
v 1.512110 0.314986 0.381314
v 1.512110 0.314986 0.381314
v 1.605488 0.253797 0.399196
v 1.931808 0.328488 0.153876
v 1.784035 0.256782 0.301953
v 1.608932 0.262921 -0.235635
v 1.514717 0.195820 -0.658547
v 1.533568 0.289140 -0.659935
v 1.610635 0.265268 -0.773157
v 1.271464 0.000000 -0.671043
v 1.238296 0.136355 -0.828180
v 0.957128 0.235926 -0.407921
v 1.277957 0.287121 -0.214032
v 0.820561 0.279671 -0.661931
v 0.940233 0.277697 -0.838708
v 0.955786 0.238048 -0.407570
v -1.989757 0.240043 -0.681429
v -2.001017 0.285217 -0.585278
v -2.008558 0.581923 -0.792172
v -2.129975 0.589716 -0.684491
v -2.026291 0.286274 -0.570780
v -1.665046 0.288469 -0.825788
v 1.563853 0.430040 0.824603
v 1.587812 0.262988 0.783089
v 1.791533 0.288065 0.714076
v 1.672439 0.268762 0.752638
v -0.378672 1.470483 0.260742
v -0.295682 1.365401 0.265855
v -0.360058 1.347513 0.519366
v -0.353856 1.473901 0.427819
v -0.221435 1.435512 0.423237
v -0.295682 1.365401 0.265855
v -0.250134 1.471294 0.420108
v -0.272736 1.472394 0.174852
v -0.277836 1.473237 0.123827
v -0.360058 1.347513 0.519366
v -1.349225 0.208984 -0.501349
v -1.660411 0.285944 -0.823586
v -1.607617 0.289140 -0.671658
v 0.820561 0.292793 -0.664471
v 0.940233 0.277697 -0.838708
v 0.934143 0.429938 -0.834259
v 0.820561 0.279671 -0.661931
v 1.587812 0.262988 0.783089
v 1.489416 0.218516 0.625730
v 1.563853 0.430040 0.824603
v -0.680386 1.188652 0.338864
v -0.914187 1.066795 0.392606
v -0.378672 1.470483 0.260742
v -0.221435 1.435512 0.423237
v -0.295682 1.365401 0.265855
v -0.378672 1.470483 0.260742
v -1.349225 0.208984 -0.501349
v -1.259203 0.268594 -0.414528
v -1.018506 0.233528 -0.197702
v 1.672439 0.268762 0.752638
v 1.587812 0.262988 0.783089
v 1.563853 0.430040 0.824603
v 1.791533 0.288065 0.714076
v -0.433406 1.404401 -0.171278
v -0.234080 1.451352 -0.412783
v -0.241581 1.380834 -0.352972
v -0.234080 1.451352 -0.412783
v -0.406262 1.403389 -0.558404
v -0.241581 1.380834 -0.352972
v 1.971046 1.053438 -0.390979
v 1.650970 1.043464 -0.671110
v 1.936393 1.074705 -0.408691
v 1.548105 1.068797 -0.675003
v 1.938550 1.037335 -0.477195
v 1.578096 1.172766 -0.162476
v 1.763284 1.105728 -0.113898
v 1.574698 1.151292 0.113270
v -1.277053 0.237342 0.446377
v -1.009783 0.251545 0.180812
v -0.968524 0.206649 0.140151
v -1.442052 0.274764 0.635128
v -1.012172 1.072468 0.125485
v -0.978939 1.073318 -0.375297
v -0.999046 1.076644 0.002096
v -1.018405 1.050267 -0.175869
v 0.662839 0.853284 0.923855
v 0.658456 0.816212 0.949844
v 0.304022 0.621870 0.880113
v 0.603517 0.749515 0.948794
v -1.970170 0.842361 -0.377341
v -1.668890 0.912693 -0.089905
v -1.775009 0.889786 -0.155083
v -1.611655 0.924231 0.088415
v -1.284659 0.327167 0.814452
v -1.627151 0.447309 0.699295
v -1.217576 0.285775 0.813608
v 1.288934 1.178473 0.549862
v 1.276976 1.163480 0.537628
v 1.480840 1.166026 0.416405
v 1.281409 1.177515 0.547048
v 0.959491 0.911450 0.846980
v 1.155431 1.179590 0.694968
v 1.610635 0.265268 -0.773157
v 1.590725 0.293766 -0.785240
v 1.533568 0.289140 -0.659935
v 1.578096 1.172766 -0.162476
v 1.586168 1.176918 -0.062136
v 1.574698 1.151292 0.113270
v 1.480840 1.166026 0.416405
v 1.276976 1.163480 0.537628
v 1.281409 1.177515 0.547048
v 1.288934 1.178473 0.549862
v 1.983252 0.891191 0.677543
v 2.120658 0.759219 0.406508
v 2.001060 0.886144 0.662276
v 1.648356 0.272496 -0.767828
v 1.610635 0.265268 -0.773157
v 1.709350 0.289614 -0.693999
v 1.590725 0.293766 -0.785240
v 1.610635 0.265268 -0.773157
v 1.648356 0.272496 -0.767828
v -0.865252 0.307179 -0.843589
v -0.982639 0.731477 -0.889147
v -0.385650 0.584265 -0.873738
v -0.250134 1.471294 0.420108
v -0.272736 1.472394 0.174852
v -0.353856 1.473901 0.427819
v -0.378672 1.470483 0.260742
v -0.696522 0.255226 -0.727187
v -1.175984 0.165984 -0.811126
v -1.131805 0.581729 -0.695592
v -1.547081 0.581431 -0.824056
v -1.329711 0.686861 -0.881436
v -1.389549 0.675365 -0.831458
v -1.966811 0.770357 -0.686432
v -1.665046 0.288469 -0.825788
v -1.816136 0.886580 -0.739222
v -2.129975 0.589716 -0.684491
v -1.657611 0.912447 -0.798759
v -1.285734 0.931895 -0.782774
v -0.895355 1.091047 -0.687131
v -0.982639 0.731477 -0.889147
v -0.385650 0.584265 -0.873738
v -0.464548 0.985758 -0.890074
v -1.175984 0.165984 -0.811126
v -1.660411 0.285944 -0.823586
v -1.547081 0.581431 -0.824056
v -1.665046 0.288469 -0.825788
v -1.995816 0.284093 0.421650
v -2.058997 0.286330 0.346787
v -2.045615 0.286699 0.422883
v -2.014224 0.267045 0.350042
v -2.058997 0.286330 0.346787
v -2.075346 0.287265 0.130276
v -2.014224 0.267045 0.350042
v -2.034030 0.285417 0.118051
v -2.027032 0.256178 -0.280524
v -2.026291 0.286274 -0.570780
v -2.066429 0.286562 -0.337756
v -2.001017 0.285217 -0.585278
v -2.034030 0.285417 0.118051
v -2.027032 0.256178 -0.280524
v -2.066429 0.286562 -0.337756
v -2.075346 0.287265 0.130276
v -2.001017 0.285217 -0.585278
v -1.965484 0.238596 -0.727161
v -1.989757 0.240043 -0.681429
v -0.407228 1.175678 0.729627
v -0.351827 1.180043 0.712628
v -0.440081 1.113641 0.726430
v 1.577192 1.179482 -0.148016
v 1.574698 1.151292 0.113270
v 1.586168 1.176918 -0.062136
v 1.577192 1.179482 -0.148016
v 1.578096 1.172766 -0.162476
v 1.574698 1.151292 0.113270
v 1.778333 0.253972 -0.316889
v 1.608932 0.262921 -0.235635
v 1.583398 0.288448 -0.247175
v 1.880880 0.342705 -0.233594
v 1.778333 0.253972 -0.316889
v 1.583398 0.288448 -0.247175
v 1.922135 0.303726 0.675850
v 1.784035 0.256782 0.301953
v 1.665554 0.269886 0.407194
v 1.512110 0.314986 0.381314
v 1.605488 0.253797 0.399196
v 1.573395 0.325621 0.669681
v 1.573395 0.325621 0.669681
v 1.605488 0.253797 0.399196
v 1.489416 0.218516 0.625730
v -0.360058 1.347513 0.519366
v -0.642898 1.173620 0.642533
v -0.911312 1.070610 0.408269
v -0.680452 1.177732 0.619026
v -0.911312 1.070610 0.408269
v -0.360058 1.347513 0.519366
v 0.566723 1.178252 -0.687769
v 0.472694 0.919798 -0.779570
v 0.303223 1.404826 -0.593916
v 0.782925 1.016033 -0.909273
v 0.472694 0.919798 -0.779570
v 0.820805 1.220866 -0.699044
v -1.675209 0.899561 -0.660553
v -1.986177 0.787879 -0.613662
v -1.816136 0.886580 -0.739222
v -1.966811 0.770357 -0.686432
v -0.464548 0.985758 -0.890074
v -0.671791 1.174069 -0.415944
v -0.406262 1.403389 -0.558404
v -1.329711 0.686861 -0.881436
v -0.865252 0.307179 -0.843589
v -0.982639 0.731477 -0.889147
v -1.355831 0.157354 0.834542
v -1.649089 0.287120 0.674617
v -1.627151 0.447309 0.699295
v -1.442052 0.274764 0.635128
v -1.355831 0.157354 0.834542
v -1.627151 0.447309 0.699295
v -1.355831 0.157354 0.834542
v -1.442052 0.274764 0.635128
v -1.649089 0.287120 0.674617
v -1.442052 0.274764 0.635128
v -1.627151 0.447309 0.699295
v -1.649089 0.287120 0.674617
v -0.758214 0.222144 0.763462
v -0.865252 0.255222 0.670605
v -0.950713 0.421733 0.694359
v -0.919439 0.296544 0.674617
v -0.865252 0.255222 0.670605
v -0.950713 0.421733 0.694359
v -1.277053 0.237342 0.446377
v -0.865252 0.255222 0.670605
v -0.968524 0.206649 0.140151
v 0.648914 0.982920 0.769409
v 0.662839 0.853284 0.923855
v 0.658456 0.816212 0.949844
v 0.724589 0.878839 0.954178
v 0.648914 0.982920 0.769409
v 0.658456 0.816212 0.949844
v -1.981270 0.755328 0.679143
v -2.054556 0.812106 0.566012
v -1.983916 0.787788 0.625260
v -1.675209 0.899561 -0.660553
v -1.775009 0.889786 -0.155083
v -1.970170 0.842361 -0.377341
v 1.318963 0.289221 -0.001607
v 1.007874 0.240008 0.117211
v 1.505710 0.208707 -0.136728
v 1.007874 0.240008 0.117211
v 1.505710 0.208707 -0.136728
v 1.260886 0.286689 -0.094458
v 1.505710 0.208707 -0.136728
v 1.318963 0.289221 -0.001607
v 1.260886 0.286689 -0.094458
v 0.815457 0.285775 0.751122
v 0.816267 0.273662 0.674617
v 0.816519 0.365197 0.813132
v 0.816407 0.289814 0.674617
v 2.098029 0.787879 -0.409489
v 1.971046 1.053438 -0.390979
v 2.095853 0.775762 -0.165724
v 1.537043 1.141479 0.135057
v 1.574698 1.151292 0.113270
v 1.586168 1.176918 -0.062136
v 1.149100 1.135565 -0.721774
v 1.282848 1.158078 -0.505502
v 0.993476 1.289196 -0.625285
v 1.586168 1.176918 -0.062136
v 1.537043 1.141479 0.135057
v 1.375702 1.184385 0.168123
vt 0.421816 0.770893
vt 0.447097 0.770893
vt 0.444235 0.766090
vt 0.503277 0.962056
vt 0.595974 0.962056
vt 0.547444 0.916907
vt 0.652206 0.318379
vt 0.658708 0.298271
vt 0.658708 0.366475
vt 0.649345 0.336406
vt 0.007022 0.761752
vt 0.014513 0.692123
vt 0.014513 0.779539
vt 0.539794 0.019693
vt 0.489929 0.005283
vt 0.484551 0.019693
vt 0.075768 0.065802
vt 0.047285 0.081172
vt 0.135300 0.081172
vt 0.995786 0.436599
vt 0.983614 0.416702
vt 0.995786 0.346302
vt 0.764513 0.801633
vt 0.761045 0.798751
vt 0.717697 0.801633
vt 0.108146 0.397638
vt 0.109082 0.305956
vt 0.109082 0.401057
vt 0.925562 0.156100
vt 0.898358 0.102305
vt 0.889981 0.156100
vt 0.641516 0.025456
vt 0.596910 0.055235
vt 0.646536 0.055235
vt 0.958333 0.931316
vt 0.958333 0.991835
vt 0.927434 0.971038
vt 0.737264 0.869837
vt 0.724251 0.904419
vt 0.754214 0.904419
vt 0.373127 0.017771
vt 0.314061 0.006244
vt 0.276685 0.017771
vt 0.683159 0.964938
vt 0.643727 0.975504
vt 0.745786 0.975504
vt 0.961142 0.082133
vt 0.956737 0.077329
vt 0.905899 0.082133
vt 0.626873 0.518252
vt 0.588081 0.498079
vt 0.554775 0.518252
vt 0.636498 0.957253
vt 0.593165 0.969741
vt 0.659644 0.969741
vt 0.528558 0.326129
vt 0.450843 0.267958
vt 0.528558 0.250240
vt 0.527622 0.536503
vt 0.527262 0.535543
vt 0.448034 0.536503
vt 0.156835 0.842939
vt 0.128745 0.805561
vt 0.156835 0.776657
vt 0.727221 0.004323
vt 0.720506 0.010086
vt 0.780431 0.010086
vt 0.747659 0.999520
vt 0.673779 0.982229
vt 0.652154 0.999520
vt 0.108146 0.760327
vt 0.108146 0.870797
vt 0.078184 0.818705
vt 0.966760 0.231538
vt 0.992977 0.179155
vt 0.992977 0.281940
vt 0.743914 0.793948
vt 0.742060 0.786263
vt 0.685861 0.793948
vt 0.867886 0.533260
vt 0.822345 0.433221
vt 0.803162 0.533525
vt 0.737067 0.534048
vt 0.780024 0.579552
vt 0.825673 0.579149
vt 0.738253 0.576385
vt 0.766289 0.466553
vt 0.693810 0.427238
vt 0.754980 0.379012
vt 0.824174 0.426925
vt 0.787696 0.381013
vt 0.857356 0.388092
vt 0.902397 0.455916
vt 0.899801 0.479303
vt 0.869080 0.387834
vt 0.912678 0.538531
vt 0.785605 0.642146
vt 0.775514 0.641057
vt 0.869519 0.639590
vt 0.906414 0.600059
vt 0.810574 0.703611
vt 0.825370 0.702200
vt 0.769464 0.668751
vt 0.780032 0.704229
vt 0.706565 0.650755
vt 0.705611 0.651987
vt 0.726565 0.686183
vt 0.775104 0.698180
vt 0.735923 0.763033
vt 0.819439 0.741504
vt 0.774918 0.796830
vt 0.867878 0.782648
vt 0.742159 0.775876
vt 0.685782 0.540413
vt 0.681994 0.629847
vt 0.705090 0.764907
vt 0.871487 0.775365
vt 0.683514 0.502084
vt 0.682142 0.487421
vt 0.632785 0.662031
vt 0.666242 0.774799
vt 0.631554 0.601369
vt 0.672994 0.787401
vt 0.886100 0.655498
vt 0.916198 0.703949
vt 0.675703 0.542930
vt 0.916198 0.460572
vt 0.670500 0.783799
vt 0.825174 0.367580
vt 0.783571 0.377468
vt 0.823467 0.356868
vt 0.868461 0.379308
vt 0.725093 0.386757
vt 0.255593 0.717527
vt 0.312734 0.682302
vt 0.313142 0.721148
vt 0.200894 0.698640
vt 0.192533 0.702382
vt 0.188952 0.703962
vt 0.369818 0.720118
vt 0.197061 0.596131
vt 0.281215 0.641328
vt 0.339794 0.636407
vt 0.220533 0.581623
vt 0.291804 0.559780
vt 0.356175 0.589443
vt 0.344943 0.684390
vt 0.420975 0.724716
vt 0.423329 0.750682
vt 0.279066 0.767599
vt 0.258003 0.767707
vt 0.321896 0.765109
vt 0.141745 0.769604
vt 0.137011 0.769933
vt 0.393343 0.630388
vt 0.392160 0.684941
vt 0.473754 0.693372
vt 0.460698 0.696456
vt 0.474709 0.769933
vt 0.530382 0.737554
vt 0.534205 0.742478
vt 0.453739 0.602617
vt 0.477026 0.620945
vt 0.518561 0.609842
vt 0.532624 0.616161
vt 0.490921 0.677128
vt 0.535342 0.687677
vt 0.585735 0.675136
vt 0.584644 0.634642
vt 0.593165 0.727717
vt 0.555542 0.739793
vt 0.534853 0.613514
vt 0.586020 0.592196
vt 0.312295 0.544338
vt 0.370195 0.561160
vt 0.399965 0.584090
vt 0.426973 0.586310
vt 0.430644 0.568779
vt 0.212020 0.518546
vt 0.285329 0.545716
vt 0.183419 0.547063
vt 0.208149 0.516330
vt 0.195038 0.578973
vt 0.122349 0.571232
vt 0.167384 0.633682
vt 0.103464 0.750643
vt 0.387830 0.752036
vt 0.388070 0.749763
vt 0.012626 0.336653
vt 0.096176 0.337658
vt 0.007022 0.303497
vt 0.095715 0.324489
vt 0.019186 0.426586
vt 0.099750 0.374511
vt 0.108146 0.453891
vt 0.038621 0.283006
vt 0.086191 0.269452
vt 0.108146 0.274717
vt 0.363462 0.114787
vt 0.359875 0.161835
vt 0.305789 0.160601
vt 0.259345 0.108366
vt 0.312349 0.041671
vt 0.357715 0.052872
vt 0.254082 0.089378
vt 0.419850 0.070709
vt 0.258917 0.052049
vt 0.171299 0.045889
vt 0.261550 0.037400
vt 0.298076 0.042507
vt 0.419689 0.111059
vt 0.370319 0.031993
vt 0.199577 0.102687
vt 0.388257 0.168853
vt 0.337199 0.214349
vt 0.398480 0.175731
vt 0.418138 0.177292
vt 0.424578 0.135191
vt 0.433932 0.080611
vt 0.500112 0.091946
vt 0.514914 0.168395
vt 0.251434 0.185006
vt 0.570994 0.172711
vt 0.555395 0.116354
vt 0.574236 0.121084
vt 0.509581 0.206460
vt 0.565401 0.221061
vt 0.478357 0.238713
vt 0.554413 0.228135
vt 0.625777 0.198322
vt 0.408948 0.235461
vt 0.355564 0.231286
vt 0.605835 0.169387
vt 0.634854 0.116281
vt 0.415770 0.237057
vt 0.250908 0.228069
vt 0.687523 0.142344
vt 0.650201 0.229438
vt 0.704246 0.165411
vt 0.710206 0.218071
vt 0.217255 0.221811
vt 0.697396 0.238562
vt 0.246952 0.121110
vt 0.195836 0.153560
vt 0.139585 0.102883
vt 0.082909 0.144582
vt 0.022115 0.089770
vt 0.075556 0.150669
vt 0.085858 0.182452
vt 0.178548 0.196023
vt 0.164369 0.238713
vt 0.217898 0.204675
vt 0.078644 0.213095
vt 0.038098 0.206294
vt 0.005817 0.192524
vt 0.000468 0.140635
vt 0.011903 0.090266
vt 0.411272 0.004515
vt 0.428156 0.074954
vt 0.429059 0.029794
vt 0.417472 0.000480
vt 0.433587 0.004622
vt 0.740227 0.094532
vt 0.790126 0.121424
vt 0.787723 0.063039
vt 0.842407 0.127181
vt 0.843686 0.127281
vt 0.828312 0.053975
vt 0.890918 0.063354
vt 0.890918 0.119595
vt 0.818953 0.005068
vt 0.834498 0.004323
vt 0.730514 0.021105
vt 0.874833 0.023526
vt 0.700546 0.022074
vt 0.713243 0.085590
vt 0.691573 0.083204
vt 0.646536 0.065146
vt 0.939610 0.573843
vt 0.992977 0.604186
vt 0.923689 0.589260
vt 0.976830 0.687320
vt 0.992977 0.519212
vt 0.876433 0.217890
vt 0.887939 0.189020
vt 0.882091 0.250970
vt 0.939450 0.204608
vt 0.936119 0.234902
vt 0.898981 0.276745
vt 0.872303 0.253212
vt 0.941606 0.145348
vt 0.879269 0.271893
vt 0.773865 0.230598
vt 0.776576 0.213036
vt 0.871906 0.179130
vt 0.880138 0.338617
vt 0.933894 0.313420
vt 0.960439 0.189277
vt 0.964898 0.277087
vt 0.945635 0.303188
vt 0.822406 0.330189
vt 0.811205 0.266429
vt 0.802426 0.325093
vt 0.755555 0.258394
vt 0.742749 0.310025
vt 0.674084 0.303408
vt 0.776765 0.192410
vt 0.755990 0.255288
vt 0.932944 0.323714
vt 0.631173 0.307208
vt 0.610955 0.248174
vt 0.998595 0.162735
vt 0.952398 0.108984
vt 0.950701 0.105867
vt 0.897891 0.093035
vt 0.953503 0.338617
vt 0.950913 0.091739
vt 0.993940 0.092858
vt 0.016370 0.589246
vt 0.015449 0.591914
vt 0.019195 0.606628
vt 0.019195 0.498079
vt 0.536438 0.830946
vt 0.576122 0.876561
vt 0.484611 0.880541
vt 0.488400 0.931908
vt 0.586854 0.787032
vt 0.611891 0.870286
vt 0.588748 0.914184
vt 0.581041 0.763977
vt 0.608773 0.770825
vt 0.520437 0.773706
vt 0.482400 0.839815
vt 0.344774 0.955173
vt 0.352038 0.910477
vt 0.345264 0.964068
vt 0.364547 0.981268
vt 0.365312 0.975945
vt 0.358195 0.911436
vt 0.354578 0.907349
vt 0.423466 0.900355
vt 0.436405 0.979299
vt 0.428720 0.877240
vt 0.482008 0.981268
vt 0.483863 0.911705
vt 0.469893 0.847740
vt 0.368261 0.897828
vt 0.415321 0.845195
vt 0.352648 0.832421
vt 0.328688 0.862501
vt 0.343628 0.908065
vt 0.469041 0.841187
vt 0.451540 0.795342
vt 0.378080 0.758405
vt 0.351023 0.814468
vt 0.328184 0.804366
vt 0.999532 0.685399
vt 0.935372 0.760327
vt 0.998706 0.760327
vt 0.922753 0.723616
vt 0.995786 0.518252
vt 0.991615 0.461575
vt 0.922640 0.516276
vt 0.920880 0.518252
vt 0.536630 0.266837
vt 0.565865 0.261605
vt 0.603248 0.270143
vt 0.546494 0.245675
vt 0.575718 0.326977
vt 0.546853 0.339475
vt 0.556859 0.247866
vt 0.540544 0.336517
vt 0.533932 0.360390
vt 0.596369 0.498189
vt 0.578844 0.432872
vt 0.607631 0.408987
vt 0.605251 0.359469
vt 0.553143 0.360669
vt 0.598321 0.341657
vt 0.549410 0.449177
vt 0.621935 0.309780
vt 0.622349 0.310784
vt 0.645393 0.358449
vt 0.615523 0.414100
vt 0.554134 0.309993
vt 0.659480 0.468207
vt 0.674169 0.405211
vt 0.680673 0.432905
vt 0.686798 0.452918
vt 0.288139 0.391665
vt 0.349405 0.343646
vt 0.329555 0.391959
vt 0.429375 0.400519
vt 0.438350 0.312489
vt 0.376635 0.309701
vt 0.416495 0.268620
vt 0.366709 0.405506
vt 0.384437 0.422588
vt 0.416017 0.497512
vt 0.355619 0.462793
vt 0.319161 0.462153
vt 0.383734 0.523533
vt 0.222392 0.518752
vt 0.277074 0.522394
vt 0.247859 0.453867
vt 0.219543 0.462097
vt 0.166743 0.409127
vt 0.250117 0.406773
vt 0.438675 0.437579
vt 0.217656 0.513455
vt 0.135126 0.500620
vt 0.116953 0.409665
vt 0.284382 0.413512
vt 0.317572 0.349538
vt 0.256018 0.391724
vt 0.328303 0.303868
vt 0.336978 0.242178
vt 0.436642 0.238713
vt 0.296216 0.243142
vt 0.235606 0.308236
vt 0.225205 0.351518
vt 0.198405 0.306540
vt 0.203540 0.352997
vt 0.447104 0.401751
vt 0.492383 0.419766
vt 0.530743 0.447631
vt 0.500453 0.381579
vt 0.490063 0.365938
vt 0.492144 0.345633
vt 0.438694 0.312619
vt 0.475810 0.453286
vt 0.276359 0.242414
vt 0.165096 0.365671
vt 0.113342 0.348857
vt 0.168480 0.249202
vt 0.164841 0.248795
vt 0.109712 0.268063
vt 0.415563 0.510673
vt 0.153736 0.517296
vt 0.073596 0.525961
vt 0.063861 0.459636
vt 0.465121 0.527858
vt 0.528680 0.487966
vt 0.547714 0.513905
vt 0.040549 0.527858
vt 0.027622 0.485684
vt 0.121956 0.639254
vt 0.090654 0.678911
vt 0.154963 0.718060
vt 0.094720 0.563942
vt 0.040680 0.581183
vt 0.023719 0.642879
vt 0.045905 0.575566
vt 0.093756 0.556951
vt 0.081987 0.552241
vt 0.046949 0.570697
vt 0.154963 0.524015
vt 0.023081 0.587613
vt 0.022940 0.642317
vt 0.028709 0.580810
vt 0.598783 0.745271
vt 0.637172 0.782421
vt 0.637172 0.684679
vt 0.609492 0.668108
vt 0.566948 0.031360
vt 0.476312 0.021614
vt 0.538243 0.052354
vt 0.437734 0.052353
vt 0.776635 0.878247
vt 0.772691 0.875015
vt 0.748946 0.806445
vt 0.730001 0.841268
vt 0.819987 0.885460
vt 0.847579 0.921701
vt 0.841682 0.864089
vt 0.803109 0.817718
vt 0.915379 0.958816
vt 0.802326 0.940296
vt 0.912838 0.881861
vt 0.855700 0.832990
vt 0.943045 0.855409
vt 0.952616 0.901540
vt 0.921815 0.961095
vt 0.959672 0.902654
vt 0.971799 0.867516
vt 0.964532 0.863692
vt 0.791742 0.821699
vt 0.967201 0.850926
vt 0.974890 0.854501
vt 0.989232 0.804361
vt 0.727996 0.961095
vt 0.898829 0.778504
vt 0.951799 0.845243
vt 0.972125 0.804107
vt 0.904758 0.737272
vt 0.423883 0.522094
vt 0.368446 0.552834
vt 0.461142 0.552834
vt 0.986423 0.980307
vt 0.962079 0.927738
vt 0.986423 0.877522
vt 0.138109 0.647910
vt 0.159644 0.589337
vt 0.159644 0.705572
vt 0.537921 0.080032
vt 0.602059 0.057157
vt 0.589192 0.099181
vt 0.588540 0.103266
vt 0.645599 0.103266
vt 0.671816 0.501921
vt 0.621255 0.574025
vt 0.669493 0.549623
vt 0.671816 0.597022
vt 0.623922 0.541348
vt 0.242917 0.853506
vt 0.192416 0.880403
vt 0.275749 0.880403
vt 0.569757 0.022574
vt 0.667135 0.022574
vt 0.600098 0.000480
vt 0.843165 0.754483
vt 0.896536 0.716138
vt 0.896536 0.755524
vt 0.704588 0.113833
vt 0.662816 0.079212
vt 0.674487 0.078290
vt 0.645599 0.113833
vt 0.169007 0.026417
vt 0.169007 0.092699
vt 0.139045 0.059441
vt 0.018258 0.695005
vt 0.090356 0.695005
vt 0.058311 0.669068
vt 0.919944 0.589337
vt 0.919944 0.705572
vt 0.904963 0.652489
vt 0.622191 0.791066
vt 0.622191 0.845821
vt 0.595037 0.794814
vt 0.566435 0.980307
vt 0.506086 0.995677
vt 0.601592 0.995677
vt 0.098227 0.026417
vt 0.068206 0.041936
vt 0.118669 0.061338
vt 0.052383 0.029307
vt 0.036049 0.078290
vt 0.148408 0.078290
vt 0.626873 0.800672
vt 0.674625 0.800672
vt 0.655431 0.774736
vt 0.334711 0.526897
vt 0.288858 0.542267
vt 0.368446 0.542267
vt 0.300827 0.527198
vt 0.974880 0.437275
vt 0.950416 0.466470
vt 0.998595 0.457945
vt 0.973937 0.412992
vt 0.928305 0.473103
vt 0.932414 0.400720
vt 0.926081 0.409298
vt 0.998595 0.311720
vt 0.899345 0.409554
vt 0.727060 0.137848
vt 0.727060 0.249280
vt 0.715824 0.153727
vt 0.800094 0.720941
vt 0.812063 0.705871
vt 0.879682 0.720941
vt 0.845947 0.705572
vt 0.611196 0.956292
vt 0.683913 0.936835
vt 0.683929 0.954686
vt 0.709690 0.956292
vt 0.693655 0.889059
vt 0.722378 0.882786
vt 0.636569 0.840857
vt 0.604401 0.898381
vt 0.673951 0.804515
vt 0.711246 0.818158
vt 0.636354 0.840454
vt 0.719836 0.378963
vt 0.737232 0.375091
vt 0.715015 0.316939
vt 0.742041 0.315562
vt 0.742041 0.374393
vt 0.660581 0.371183
vt 0.751405 0.182037
vt 0.729869 0.202062
vt 0.751405 0.231988
vt 0.738161 0.215002
vt 0.442982 0.285783
vt 0.442416 0.308838
vt 0.488296 0.308838
vt 0.471620 0.287525
vt 0.909863 0.357442
vt 0.888251 0.380884
vt 0.904214 0.352065
vt 0.866888 0.370049
vt 0.859082 0.373720
vt 0.932116 0.380884
vt 0.999532 0.908261
vt 0.999532 0.986071
vt 0.987360 0.961538
vt 0.639652 0.087491
vt 0.604401 0.089817
vt 0.605818 0.062920
vt 0.639981 0.089817
vt 0.588483 0.653572
vt 0.606273 0.625841
vt 0.606273 0.677714
vt 0.116946 0.015850
vt 0.072566 0.023535
vt 0.186798 0.023535
vt 0.782303 0.196446
vt 0.814139 0.196446
vt 0.813776 0.173391
vt 0.082865 0.019693
vt 0.061525 0.010086
vt 0.007959 0.019693
vt 0.046645 0.260668
vt 0.034033 0.252161
vt 0.014513 0.274256
vt 0.063202 0.274255
vt 0.083802 0.729587
vt 0.137172 0.729587
vt 0.126925 0.717099
vt 0.213475 0.230067
vt 0.177434 0.244476
vt 0.221442 0.244476
vt 0.007022 0.788634
vt 0.059530 0.837556
vt 0.014336 0.789884
vt 0.077247 0.838136
vt 0.011932 0.803768
vt 0.077053 0.748867
vt 0.044276 0.739974
vt 0.077247 0.701729
vt 0.013577 0.658039
vt 0.006086 0.593141
vt 0.013577 0.582613
vt 0.009534 0.701729
vt 0.983614 0.006681
vt 0.899345 0.008165
vt 0.962813 0.008165
vt 0.933104 0.001441
vt 0.551966 0.597022
vt 0.548451 0.590056
vt 0.479869 0.597022
vt 0.534663 0.585495
vt 0.945225 0.989914
vt 0.875430 0.978386
vt 0.895237 0.986364
vt 0.845974 0.989914
vt 0.722378 0.868554
vt 0.727060 0.803554
vt 0.727060 0.881364
vt 0.716122 0.115564
vt 0.718004 0.118936
vt 0.681180 0.134006
vt 0.717615 0.115981
vt 0.801966 0.134006
vt 0.748091 0.104227
vt 0.136236 0.027378
vt 0.136236 0.034102
vt 0.112828 0.031581
vt 0.540730 0.601825
vt 0.523871 0.598943
vt 0.493914 0.601825
vt 0.522940 0.989914
vt 0.481891 0.989914
vt 0.481742 0.986186
vt 0.482616 0.985110
vt 0.110955 0.092699
vt 0.166199 0.092699
vt 0.114605 0.090778
vt 0.933976 0.646013
vt 0.928371 0.649856
vt 0.949906 0.649856
vt 0.582865 0.260807
vt 0.577452 0.256964
vt 0.571629 0.260807
vt 0.608146 0.519212
vt 0.608146 0.595101
vt 0.518258 0.543481
vt 0.976124 0.333814
vt 0.976124 0.291547
vt 0.958086 0.333499
vt 0.956461 0.304554
vt 0.306932 0.939760
vt 0.231674 0.971662
vt 0.226666 0.898729
vt 0.157305 0.916701
vt 0.181329 0.882841
vt 0.169557 0.888418
vt 0.079465 0.930954
vt 0.168495 0.968687
vt 0.090509 0.899648
vt 0.074438 0.971662
vt 0.115569 0.867489
vt 0.170642 0.838674
vt 0.218226 0.783712
vt 0.232079 0.853926
vt 0.331929 0.832325
vt 0.298317 0.771854
vt 0.780431 0.976465
vt 0.849031 0.927815
vt 0.873127 0.976465
vt 0.849924 0.927474
vt 0.558521 0.914986
vt 0.573502 0.923631
vt 0.560006 0.923631
vt 0.571762 0.915236
vt 0.959270 0.993282
vt 0.960324 0.955795
vt 0.967697 0.994717
vt 0.967697 0.954371
vt 0.727060 0.961095
vt 0.722867 0.910146
vt 0.717697 0.951249
vt 0.727060 0.907301
vt 0.541030 0.972480
vt 0.609740 0.970701
vt 0.619382 0.979347
vt 0.538858 0.979347
vt 0.898408 0.396254
vt 0.924625 0.396254
vt 0.916373 0.392411
vt 0.246479 0.883285
vt 0.238296 0.889049
vt 0.257022 0.889049
vt 0.006086 0.318444
vt 0.006086 0.363593
vt 0.003277 0.333144
vt 0.071174 0.991835
vt 0.068820 0.993756
vt 0.115637 0.993756
vt 0.891854 0.046590
vt 0.886236 0.014274
vt 0.891854 0.010086
vt 0.941479 0.704611
vt 0.923689 0.683974
vt 0.941479 0.652738
vt 0.249532 0.973583
vt 0.316948 0.973583
vt 0.307069 0.947646
vt 0.630618 0.663305
vt 0.611891 0.657320
vt 0.630618 0.612392
vt 0.572566 0.456772
vt 0.572566 0.504803
vt 0.550094 0.466993
vt 0.320693 0.955331
vt 0.289794 0.903198
vt 0.320693 0.847743
vt 0.228378 0.007205
vt 0.180243 0.035062
vt 0.285112 0.035062
vt 0.070790 0.215658
vt 0.032303 0.245437
vt 0.123127 0.245437
vt 0.336708 0.961095
vt 0.291667 0.999520
vt 0.369382 0.999520
vt 0.384363 0.999520
vt 0.442416 0.999520
vt 0.405911 0.981268
vt 0.438893 0.988226
vt 0.062266 0.850624
vt 0.062266 0.944765
vt 0.003277 0.920116
vt 0.793539 0.172430
vt 0.893727 0.172430
vt 0.833460 0.128242
vt 0.533240 0.079251
vt 0.477843 0.055235
vt 0.463015 0.079251
vt 0.215799 0.974544
vt 0.182116 0.999520
vt 0.252341 0.999520
vt 0.788858 0.168588
vt 0.755067 0.143612
vt 0.728933 0.168588
vt 0.541667 0.488473
vt 0.514513 0.453270
vt 0.541667 0.451969
vt 0.174625 0.544188
vt 0.154965 0.528818
vt 0.126873 0.544188
vt 0.382572 0.000480
vt 0.372191 0.006244
vt 0.404026 0.006244
vt 0.955044 0.009126
vt 0.904963 0.071566
vt 0.995786 0.071566
vt 0.996723 0.661383
vt 0.993914 0.626688
vt 0.996723 0.619116
vt 0.648809 0.976465
vt 0.613764 0.990874
vt 0.654963 0.990874
vt 0.480805 0.253122
vt 0.505150 0.253122
vt 0.490060 0.247358
vt 0.451779 0.583573
vt 0.537921 0.583573
vt 0.507947 0.542267
vt 0.094635 0.977426
vt 0.039794 0.990874
vt 0.133427 0.990874
vt 0.765449 0.354947
vt 0.859082 0.354947
vt 0.818720 0.337656
vt 0.553839 0.754563
vt 0.595037 0.754563
vt 0.593722 0.735351
vt 0.738074 0.980307
vt 0.750468 0.985276
vt 0.722378 0.987992
vt 0.749157 0.987992
vt 0.621722 0.203170
vt 0.583802 0.235831
vt 0.647472 0.235831
vt 0.197097 0.592219
vt 0.191811 0.586455
vt 0.162453 0.592219
vt 0.005150 0.986071
vt 0.048221 0.986071
vt 0.007471 0.944765
vt 0.070693 0.847743
vt 0.040817 0.829491
vt 0.018258 0.847743
usemtl baked
f 488/488 481/481 493/493
f 711/711 714/714 712/712
f 711/711 712/712 713/713
f 488/488 486/486 481/481
f 716/716 718/718 717/717
f 486/486 482/482 481/481
f 481/481 482/482 479/479
f 719/719 720/720 721/721
f 715/715 716/716 717/717
f 723/723 724/724 725/725
f 723/723 725/725 726/726
f 455/455 454/454 457/457
f 482/482 484/484 483/483
f 477/477 482/482 483/483
f 453/453 460/460 451/451
f 727/727 728/728 729/729
f 460/460 458/458 451/451
f 719/719 722/722 720/720
f 485/485 486/486 489/489
f 486/486 488/488 489/489
f 455/455 453/453 454/454
f 455/455 456/456 453/453
f 479/479 482/482 477/477
f 708/708 710/710 709/709
f 454/454 453/453 450/450
f 77/77 78/78 79/79
f 453/453 451/451 450/450
f 458/458 459/459 452/452
f 469/469 470/470 471/471
f 473/473 469/469 471/471
f 487/487 473/473 471/471
f 476/476 473/473 487/487
f 89/89 91/91 130/130
f 601/601 600/600 598/598
f 598/598 600/600 599/599
f 597/597 598/598 599/599
f 1/1 2/2 3/3
f 377/377 383/383 384/384
f 383/383 379/379 382/382
f 377/377 379/379 383/383
f 376/376 377/377 384/384
f 17/17 18/18 19/19
f 20/20 21/21 22/22
f 374/374 376/376 386/386
f 376/376 384/384 386/386
f 511/511 510/510 514/514
f 510/510 511/511 512/512
f 556/556 557/557 558/558
f 622/622 624/624 625/625
f 556/556 560/560 557/557
f 622/622 623/623 624/624
f 386/386 384/384 389/389
f 384/384 388/388 389/389
f 254/254 255/255 248/248
f 255/255 256/256 248/248
f 249/249 254/254 248/248
f 249/249 248/248 246/246
f 589/589 590/590 591/591
f 590/590 592/592 591/591
f 730/730 731/731 732/732
f 688/688 690/690 689/689
f 687/687 688/688 689/689
f 596/596 593/593 595/595
f 261/261 262/262 260/260
f 261/261 260/260 258/258
f 206/206 219/219 211/211
f 488/488 493/493 494/494
f 546/546 547/547 544/544
f 113/113 109/109 116/116
f 113/113 116/116 123/123
f 736/736 737/737 738/738
f 733/733 734/734 735/735
f 668/668 669/669 670/670
f 319/319 320/320 321/321
f 257/257 248/248 256/256
f 247/247 248/248 257/257
f 512/512 511/511 513/513
f 675/675 676/676 677/677
f 123/123 121/121 128/128
f 471/471 470/470 472/472
f 433/433 434/434 423/423
f 422/422 420/420 421/421
f 423/423 422/422 421/421
f 433/433 423/423 415/415
f 423/423 421/421 415/415
f 378/378 379/379 377/377
f 378/378 377/377 375/375
f 375/375 377/377 376/376
f 369/369 379/379 378/378
f 739/739 740/740 741/741
f 742/742 743/743 744/744
f 373/373 370/370 369/369
f 373/373 369/369 378/378
f 378/378 380/380 373/373
f 380/380 378/378 375/375
f 552/552 555/555 553/553
f 569/569 571/571 570/570
f 568/568 569/569 570/570
f 552/552 553/553 554/554
f 745/745 746/746 747/747
f 374/374 375/375 376/376
f 748/748 749/749 750/750
f 562/562 561/561 564/564
f 559/559 561/561 562/562
f 751/751 752/752 753/753
f 560/560 559/559 562/562
f 556/556 559/559 560/560
f 44/44 45/45 46/46
f 563/563 561/561 559/559
f 392/392 393/393 397/397
f 397/397 393/393 398/398
f 398/398 393/393 409/409
f 393/393 424/424 409/409
f 62/62 63/63 64/64
f 412/412 433/433 407/407
f 480/480 475/475 476/476
f 475/475 473/473 476/476
f 474/474 469/469 473/473
f 475/475 474/474 473/473
f 477/477 474/474 475/475
f 479/479 477/477 475/475
f 481/481 479/479 475/475
f 480/480 481/481 475/475
f 754/754 755/755 756/756
f 757/757 758/758 759/759
f 334/334 335/335 336/336
f 340/340 339/339 335/335
f 335/335 337/337 336/336
f 390/390 392/392 397/397
f 413/413 390/390 397/397
f 415/415 390/390 408/408
f 408/408 390/390 413/413
f 407/407 433/433 415/415
f 407/407 415/415 408/408
f 406/406 407/407 405/405
f 407/407 408/408 405/405
f 218/218 217/217 214/214
f 214/214 217/217 216/216
f 217/217 235/235 231/231
f 216/216 217/217 231/231
f 179/179 181/181 182/182
f 144/144 183/183 181/181
f 144/144 181/181 179/179
f 310/310 308/308 304/304
f 311/311 308/308 310/310
f 613/613 614/614 615/615
f 549/549 550/550 551/551
f 616/616 617/617 618/618
f 91/91 129/129 130/130
f 23/23 24/24 25/25
f 92/92 129/129 91/91
f 132/132 129/129 92/92
f 92/92 95/95 132/132
f 130/130 129/129 131/131
f 350/350 340/340 351/351
f 347/347 339/339 340/340
f 347/347 340/340 351/351
f 528/528 529/529 530/530
f 629/629 630/630 631/631
f 521/521 522/522 523/523
f 626/626 627/627 628/628
f 335/335 339/339 338/338
f 335/335 338/338 337/337
f 602/602 598/598 597/597
f 593/593 594/594 595/595
f 90/90 92/92 91/91
f 350/350 349/349 347/347
f 350/350 347/347 340/340
f 53/53 54/54 55/55
f 354/354 355/355 356/356
f 127/127 93/93 94/94
f 92/92 90/90 95/95
f 93/93 95/95 90/90
f 90/90 91/91 81/81
f 367/367 381/381 379/379
f 379/379 381/381 382/382
f 369/369 367/367 379/379
f 531/531 532/532 533/533
f 50/50 51/51 52/52
f 368/368 366/366 365/365
f 365/365 366/366 367/367
f 166/166 160/160 157/157
f 159/159 149/149 158/158
f 149/149 148/148 158/158
f 576/576 575/575 573/573
f 576/576 577/577 575/575
f 665/665 666/666 667/667
f 573/573 575/575 574/574
f 368/368 371/371 366/366
f 681/681 682/682 683/683
f 161/161 159/159 160/160
f 159/159 158/158 160/160
f 134/134 138/138 137/137
f 134/134 139/139 138/138
f 134/134 137/137 135/135
f 134/134 135/135 136/136
f 136/136 135/135 140/140
f 160/160 158/158 157/157
f 158/158 156/156 157/157
f 158/158 148/148 156/156
f 760/760 761/761 762/762
f 763/763 764/764 765/765
f 176/176 146/146 175/175
f 155/155 143/143 146/146
f 155/155 146/146 176/176
f 175/175 146/146 174/174
f 147/147 143/143 155/155
f 156/156 147/147 155/155
f 142/142 144/144 145/145
f 146/146 145/145 174/174
f 143/143 142/142 145/145
f 143/143 145/145 146/146
f 135/135 142/142 143/143
f 147/147 135/135 143/143
f 135/135 137/137 141/141
f 135/135 141/141 142/142
f 145/145 179/179 180/180
f 145/145 144/144 179/179
f 148/148 140/140 147/147
f 156/156 148/148 147/147
f 140/140 135/135 147/147
f 150/150 151/151 134/134
f 150/150 134/134 136/136
f 152/152 136/136 140/140
f 152/152 150/150 136/136
f 149/149 152/152 140/140
f 149/149 140/140 148/148
f 157/157 156/156 155/155
f 138/138 185/185 141/141
f 137/137 138/138 141/141
f 141/141 144/144 142/142
f 698/698 697/697 694/694
f 694/694 697/697 696/696
f 357/357 358/358 359/359
f 357/357 360/360 358/358
f 587/587 585/585 584/584
f 583/583 584/584 585/585
f 485/485 482/482 486/486
f 484/484 482/482 485/485
f 769/769 768/768 767/767
f 317/317 313/313 314/314
f 317/317 318/318 313/313
f 696/696 697/697 699/699
f 696/696 699/699 701/701
f 65/65 66/66 67/67
f 588/588 583/583 585/585
f 700/700 697/697 698/698
f 68/68 69/69 70/70
f 586/586 585/585 587/587
f 515/515 516/516 517/517
f 770/770 771/771 772/772
f 355/355 354/354 348/348
f 183/183 184/184 181/181
f 347/347 346/346 343/343
f 348/348 346/346 347/347
f 534/534 535/535 536/536
f 348/348 352/352 346/346
f 349/349 348/348 347/347
f 346/346 341/341 343/343
f 343/343 339/339 347/347
f 341/341 346/346 345/345
f 343/343 341/341 339/339
f 346/346 325/325 345/345
f 647/647 645/645 644/644
f 644/644 645/645 646/646
f 341/341 344/344 342/342
f 352/352 333/333 325/325
f 352/352 325/325 346/346
f 332/332 330/330 323/323
f 332/332 323/323 333/333
f 502/502 503/503 504/504
f 341/341 345/345 344/344
f 352/352 332/332 333/333
f 353/353 332/332 352/352
f 354/354 353/353 348/348
f 348/348 353/353 352/352
f 695/695 702/702 703/703
f 695/695 703/703 704/704
f 705/705 704/704 703/703
f 705/705 703/703 706/706
f 695/695 696/696 701/701
f 695/695 701/701 702/702
f 325/325 326/326 345/345
f 307/307 294/294 293/293
f 307/307 293/293 308/308
f 330/330 327/327 323/323
f 330/330 331/331 327/327
f 766/766 767/767 768/768
f 339/339 342/342 338/338
f 4/4 5/5 6/6
f 339/339 341/341 342/342
f 151/151 153/153 134/134
f 153/153 139/139 134/134
f 684/684 685/685 686/686
f 26/26 27/27 28/28
f 450/450 448/448 447/447
f 773/773 774/774 775/775
f 466/466 468/468 467/467
f 434/434 437/437 422/422
f 434/434 422/422 423/423
f 281/281 280/280 282/282
f 71/71 72/72 73/73
f 478/478 491/491 470/470
f 283/283 280/280 279/279
f 279/279 280/280 281/281
f 469/469 478/478 470/470
f 694/694 696/696 695/695
f 693/693 694/694 695/695
f 691/691 692/692 693/693
f 465/465 466/466 467/467
f 38/38 39/39 40/40
f 29/29 30/30 31/31
f 35/35 36/36 37/37
f 32/32 33/33 34/34
f 153/153 154/154 139/139
f 186/186 139/139 154/154
f 619/619 620/620 621/621
f 447/447 448/448 449/449
f 451/451 458/458 452/452
f 451/451 452/452 448/448
f 450/450 451/451 448/448
f 603/603 604/604 605/605
f 537/537 538/538 539/539
f 707/707 708/708 709/709
f 693/693 692/692 694/694
f 233/233 230/230 223/223
f 230/230 227/227 223/223
f 782/782 783/783 784/784
f 785/785 786/786 787/787
f 779/779 780/780 781/781
f 776/776 777/777 778/778
f 461/461 462/462 463/463
f 543/543 544/544 545/545
f 223/223 226/226 221/221
f 227/227 226/226 223/223
f 493/493 492/492 495/495
f 494/494 493/493 495/495
f 481/481 480/480 493/493
f 493/493 480/480 492/492
f 227/227 229/229 228/228
f 227/227 228/228 226/226
f 445/445 446/446 441/441
f 445/445 441/441 440/440
f 461/461 463/463 464/464
f 656/656 657/657 658/658
f 788/788 789/789 790/790
f 791/791 792/792 793/793
f 226/226 228/228 217/217
f 439/439 411/411 410/410
f 411/411 406/406 410/410
f 217/217 228/228 235/235
f 640/640 641/641 642/642
f 794/794 795/795 796/796
f 440/440 441/441 411/411
f 440/440 411/411 439/439
f 411/411 412/412 406/406
f 412/412 407/407 406/406
f 492/492 480/480 476/476
f 643/643 641/641 640/640
f 203/203 205/205 207/207
f 203/203 202/202 205/205
f 260/260 259/259 258/258
f 258/258 259/259 206/206
f 258/258 206/206 212/212
f 212/212 206/206 204/204
f 199/199 201/201 202/202
f 199/199 200/200 201/201
f 518/518 519/519 520/520
f 219/219 218/218 214/214
f 211/211 200/200 199/199
f 214/214 200/200 211/211
f 797/797 798/798 799/799
f 800/800 801/801 802/802
f 203/203 199/199 202/202
f 204/204 199/199 203/203
f 206/206 211/211 199/199
f 206/206 199/199 204/204
f 11/11 12/12 13/13
f 201/201 243/243 205/205
f 489/489 488/488 490/490
f 198/198 197/197 192/192
f 195/195 194/194 193/193
f 496/496 497/497 498/498
f 193/193 190/190 189/189
f 194/194 190/190 193/193
f 293/293 302/302 304/304
f 308/308 293/293 304/304
f 295/295 284/284 294/294
f 325/325 324/324 326/326
f 10/10 7/7 9/9
f 7/7 8/8 9/9
f 290/290 284/284 286/286
f 284/284 285/285 286/286
f 655/655 654/654 653/653
f 324/324 328/328 329/329
f 287/287 291/291 298/298
f 298/298 299/299 288/288
f 298/298 288/288 287/287
f 312/312 298/298 291/291
f 285/285 287/287 286/286
f 287/287 288/288 286/286
f 313/313 312/312 291/291
f 285/285 291/291 287/287
f 652/652 653/653 654/654
f 323/323 324/324 325/325
f 333/333 323/323 325/325
f 302/302 303/303 304/304
f 304/304 303/303 305/305
f 221/221 218/218 220/220
f 220/220 218/218 219/219
f 220/220 223/223 221/221
f 224/224 223/223 220/220
f 292/292 301/301 302/302
f 302/302 301/301 303/303
f 297/297 300/300 316/316
f 297/297 316/316 309/309
f 242/242 238/238 240/240
f 543/543 546/546 544/544
f 190/190 192/192 191/191
f 189/189 190/190 191/191
f 237/237 239/239 238/238
f 240/240 238/238 239/239
f 192/192 197/197 196/196
f 191/191 192/192 196/196
f 237/237 238/238 233/233
f 548/548 543/543 545/545
f 803/803 804/804 805/805
f 304/304 305/305 306/306
f 540/540 541/541 542/542
f 527/527 525/525 524/524
f 524/524 525/525 526/526
f 221/221 226/226 218/218
f 218/218 226/226 217/217
f 234/234 237/237 233/233
f 234/234 233/233 225/225
f 223/223 225/225 233/233
f 224/224 225/225 223/223
f 292/292 289/289 296/296
f 292/292 296/296 301/301
f 289/289 297/297 309/309
f 289/289 309/309 296/296
f 289/289 288/288 297/297
f 293/293 290/290 292/292
f 293/293 292/292 302/302
f 290/290 286/286 292/292
f 286/286 288/288 289/289
f 286/286 289/289 292/292
f 288/288 299/299 300/300
f 288/288 300/300 297/297
f 293/293 284/284 290/290
f 294/294 284/284 293/293
f 806/806 807/807 808/808
f 327/327 328/328 324/324
f 327/327 324/324 323/323
f 314/314 313/313 291/291
f 314/314 291/291 315/315
f 572/572 573/573 574/574
f 369/369 370/370 365/365
f 367/367 369/369 365/365
f 369/369 385/385 367/367
f 370/370 372/372 365/365
f 420/420 435/435 432/432
f 422/422 435/435 420/420
f 420/420 432/432 419/419
f 420/420 419/419 416/416
f 420/420 416/416 414/414
f 421/421 420/420 414/414
f 148/148 149/149 187/187
f 609/609 607/607 606/606
f 606/606 607/607 608/608
f 187/187 188/188 148/148
f 581/581 576/576 580/580
f 577/577 576/576 581/581
f 436/436 435/435 422/422
f 437/437 436/436 422/422
f 809/809 810/810 811/811
f 812/812 813/813 814/814
f 815/815 816/816 817/817
f 425/425 427/427 426/426
f 373/373 380/380 426/426
f 372/372 427/427 428/428
f 424/424 428/428 425/425
f 409/409 424/424 425/425
f 425/425 428/428 427/427
f 427/427 373/373 426/426
f 572/572 579/579 578/578
f 47/47 48/48 49/49
f 424/424 430/430 429/429
f 424/424 429/429 428/428
f 372/372 373/373 427/427
f 429/429 372/372 428/428
f 373/373 372/372 370/370
f 565/565 566/566 567/567
f 409/409 425/425 426/426
f 390/390 391/391 392/392
f 415/415 421/421 414/414
f 415/415 414/414 390/390
f 414/414 391/391 390/390
f 578/578 576/576 573/573
f 578/578 573/573 572/572
f 395/395 417/417 418/418
f 396/396 395/395 418/418
f 414/414 416/416 395/395
f 414/414 395/395 391/391
f 419/419 417/417 416/416
f 395/395 416/416 417/417
f 391/391 395/395 394/394
f 394/394 395/395 396/396
f 392/392 391/391 393/393
f 393/393 391/391 394/394
f 59/59 60/60 61/61
f 582/582 580/580 578/578
f 580/580 576/576 578/578
f 393/393 394/394 424/424
f 424/424 394/394 430/430
f 413/413 397/397 401/401
f 401/401 397/397 400/400
f 408/408 413/413 401/401
f 405/405 408/408 401/401
f 403/403 401/401 404/404
f 403/403 405/405 401/401
f 404/404 401/401 402/402
f 401/401 400/400 402/402
f 410/410 406/406 403/403
f 403/403 406/406 405/405
f 216/216 232/232 215/215
f 819/819 821/821 820/820
f 818/818 819/819 820/820
f 399/399 397/397 398/398
f 400/400 397/397 399/399
f 400/400 399/399 402/402
f 402/402 399/399 438/438
f 398/398 409/409 399/399
f 56/56 57/57 58/58
f 399/399 409/409 431/431
f 610/610 611/611 612/612
f 559/559 556/556 558/558
f 241/241 251/251 250/250
f 252/252 241/241 250/250
f 438/438 399/399 442/442
f 442/442 399/399 431/431
f 442/442 431/431 443/443
f 442/442 443/443 444/444
f 200/200 215/215 201/201
f 215/215 222/222 201/201
f 216/216 215/215 214/214
f 214/214 215/215 200/200
f 651/651 650/650 649/649
f 222/222 236/236 241/241
f 252/252 222/222 241/241
f 251/251 253/253 249/249
f 250/250 251/251 249/249
f 213/213 244/244 245/245
f 244/244 246/246 245/245
f 232/232 236/236 222/222
f 215/215 232/232 222/222
f 243/243 252/252 250/250
f 243/243 250/250 244/244
f 201/201 252/252 243/243
f 648/648 649/649 650/650
f 216/216 231/231 232/232
f 41/41 42/42 43/43
f 243/243 244/244 213/213
f 205/205 243/243 213/213
f 246/246 244/244 250/250
f 246/246 250/250 249/249
f 109/109 113/113 111/111
f 111/111 110/110 109/109
f 117/117 110/110 112/112
f 111/111 112/112 110/110
f 110/110 104/104 109/109
f 638/638 637/637 639/639
f 634/634 637/637 638/638
f 155/155 176/176 162/162
f 162/162 176/176 177/177
f 263/263 273/273 275/275
f 276/276 263/263 275/275
f 276/276 275/275 277/277
f 277/277 275/275 278/278
f 265/265 271/271 263/263
f 273/273 263/263 271/271
f 822/822 823/823 824/824
f 268/268 272/272 265/265
f 272/272 271/271 265/265
f 636/636 633/633 632/632
f 632/632 633/633 634/634
f 157/157 155/155 162/162
f 157/157 163/163 166/166
f 157/157 162/162 163/163
f 272/272 269/269 274/274
f 168/168 167/167 165/165
f 168/168 165/165 169/169
f 269/269 272/272 268/268
f 165/165 172/172 173/173
f 169/169 165/165 173/173
f 167/167 166/166 165/165
f 165/165 163/163 164/164
f 165/165 164/164 172/172
f 166/166 163/163 165/165
f 678/678 679/679 680/680
f 161/161 160/160 171/171
f 170/170 167/167 168/168
f 170/170 171/171 167/167
f 384/384 387/387 388/388
f 384/384 383/383 387/387
f 267/267 268/268 265/265
f 267/267 269/269 268/268
f 267/267 270/270 269/269
f 266/266 267/267 265/265
f 264/264 266/266 265/265
f 263/263 264/264 265/265
f 634/634 635/635 637/637
f 635/635 634/634 633/633
f 160/160 166/166 167/167
f 171/171 160/160 167/167
f 86/86 118/118 114/114
f 86/86 83/83 118/118
f 83/83 87/87 88/88
f 83/83 88/88 118/118
f 82/82 81/81 83/83
f 84/84 82/82 83/83
f 84/84 83/83 86/86
f 108/108 107/107 109/109
f 825/825 826/826 827/827
f 104/104 108/108 109/109
f 109/109 107/107 116/116
f 505/505 506/506 507/507
f 828/828 829/829 830/830
f 163/163 162/162 164/164
f 178/178 162/162 177/177
f 118/118 119/119 126/126
f 210/210 209/209 203/203
f 210/210 207/207 209/209
f 14/14 15/15 16/16
f 662/662 664/664 663/663
f 662/662 663/663 660/660
f 660/660 663/663 661/661
f 122/122 120/120 107/107
f 209/209 207/207 208/208
f 105/105 114/114 115/115
f 208/208 205/205 213/213
f 207/207 205/205 208/208
f 93/93 90/90 80/80
f 94/94 93/93 80/80
f 203/203 212/212 204/204
f 118/118 88/88 119/119
f 81/81 89/89 87/87
f 81/81 91/91 89/89
f 89/89 133/133 88/88
f 87/87 89/89 88/88
f 81/81 87/87 83/83
f 98/98 97/97 84/84
f 98/98 84/84 86/86
f 98/98 86/86 114/114
f 98/98 114/114 105/105
f 176/176 175/175 177/177
f 178/178 177/177 175/175
f 99/99 100/100 96/96
f 99/99 85/85 97/97
f 100/100 99/99 102/102
f 361/361 362/362 363/363
f 361/361 363/363 364/364
f 124/124 100/100 102/102
f 507/507 509/509 508/508
f 499/499 500/500 501/501
f 505/505 507/507 508/508
f 74/74 75/75 76/76
f 125/125 124/124 102/102
f 319/319 322/322 320/320
f 96/96 80/80 85/85
f 80/80 96/96 94/94
f 99/99 96/96 85/85
f 97/97 85/85 84/84
f 80/80 90/90 81/81
f 80/80 81/81 82/82
f 85/85 80/80 84/84
f 80/80 82/82 84/84
f 831/831 832/832 833/833
f 104/104 101/101 103/103
f 108/108 104/104 103/103
f 116/116 120/120 121/121
f 120/120 116/116 107/107
f 97/97 98/98 103/103
f 103/103 98/98 105/105
f 103/103 105/105 106/106
f 101/101 97/97 103/103
f 659/659 662/662 660/660
f 671/671 673/673 674/674
f 659/659 660/660 661/661
f 671/671 672/672 673/673
f 116/116 121/121 123/123
f 247/247 245/245 246/246
f 247/247 246/246 248/248
f 107/107 108/108 103/103
f 107/107 103/103 106/106
f 102/102 99/99 101/101
f 101/101 99/99 97/97
