v -1.985335 0.128276 0.002101 0.3029 0.3300 0.3295
v -1.985467 0.163252 0.035005 0.3349 0.0548 0.0831
v -1.985313 0.418457 0.005920 0.2747 0.3423 0.3511
v -1.462944 0.534544 0.019529 0.7155 0.0903 0.1498
v -1.985214 0.603780 0.006925 0.3280 0.3804 0.3870
v -1.456071 0.564766 0.031184 0.1522 0.2581 0.2833
v -1.985330 0.936634 -0.021623 0.3747 0.4161 0.4195
v -1.839028 1.129274 0.064093 0.2620 0.2979 0.3035
v -1.985379 1.679766 0.001296 0.3387 0.3910 0.4003
v -1.751336 1.318185 0.057873 0.5685 0.2974 0.3060
v -1.452638 1.779134 -0.160296 0.2623 0.3395 0.3619
v -1.751447 1.763742 0.063812 0.4055 0.1522 0.1904
v -1.985230 2.222938 0.003173 0.3178 0.3722 0.3861
v -1.486983 2.169677 0.023445 0.0723 0.2010 0.2489
v -1.985385 2.475322 -0.017870 0.3863 0.4124 0.4124
v -1.985456 2.498485 0.010142 0.1155 0.1238 0.0948
v -1.985269 2.859992 -0.104585 0.2753 0.3348 0.3504
v -1.985357 2.874015 0.009606 0.4549 0.1112 0.1439
v -1.985545 3.227595 -0.149084 0.2720 0.3989 0.4110
v -1.452638 3.499844 0.026762 0.5167 0.2538 0.2864
v -0.930241 0.141395 -0.160343 0.1384 0.1474 0.1458
v -0.988956 0.030543 0.060414 0.3977 0.0272 0.0542
v -0.932732 0.554401 -0.160408 0.3771 0.4002 0.3985
v -1.171002 0.538950 0.023173 0.8269 0.0907 0.1630
v -0.916414 0.931911 -0.160363 0.4346 0.4525 0.4500
v -1.410567 0.562328 0.031190 0.2773 0.4666 0.4649
v -0.913411 1.190849 -0.160370 0.4443 0.4600 0.4544
v -0.937455 1.251199 0.031246 0.5042 0.5310 0.5180
v -1.073120 1.320013 -0.160384 0.4624 0.4748 0.4706
v -0.938309 1.694701 0.031419 0.8938 0.3682 0.3733
v -1.112618 2.073275 -0.160380 0.4982 0.5075 0.5037
v -1.335005 1.886426 0.031239 0.1652 0.0994 0.1047
v -0.924361 2.318190 -0.160346 0.4656 0.4784 0.4746
v -1.446626 2.174400 0.023276 0.1977 0.2484 0.2435
v -1.077843 2.464045 -0.160332 0.4412 0.4558 0.4530
v -1.068530 2.605781 0.026762 0.1738 0.1960 0.1772
v -1.147823 2.847189 -0.160306 0.4224 0.4415 0.4383
v -0.922642 2.870224 0.023466 0.5445 0.0638 0.0894
v -1.245274 3.239787 -0.160284 0.3844 0.4828 0.4771
v -1.399401 3.499867 0.009606 0.7679 0.2258 0.2528
v -0.405094 0.170948 -0.160332 0.1673 0.1790 0.1790
v -0.389212 0.000000 0.016038 0.2139 0.0771 0.0876
v -0.722685 0.554174 -0.160391 0.4444 0.4694 0.4665
v -0.886362 0.539079 0.023345 0.5772 0.0700 0.1094
v -0.481516 0.926883 -0.160336 0.4607 0.4814 0.4788
v -0.752097 0.648268 0.031609 0.4086 0.6184 0.5508
v -0.885398 1.241218 -0.160361 0.5043 0.5158 0.5115
v -0.392215 1.259737 0.031209 0.5906 0.6375 0.5733
v -0.657318 1.319934 -0.160324 0.5199 0.5278 0.5227
v -0.772593 1.688910 0.031414 0.3368 0.4733 0.4987
v -0.407833 2.060911 -0.160361 0.5180 0.5252 0.5216
v -0.569952 2.004270 0.032639 0.0982 0.1752 0.1748
v -0.400498 2.084438 -0.160344 0.5104 0.5195 0.5146
v -0.398228 2.396163 0.025874 0.0772 0.1465 0.1708
v -0.406224 2.822320 -0.160263 0.5074 0.5169 0.5126
v -0.418833 2.588709 0.031244 0.1794 0.3342 0.3994
v -0.387547 3.163660 -0.160317 0.4589 0.4759 0.4718
v -0.380410 2.865341 0.026518 0.4594 0.1892 0.2138
v -0.612993 3.499898 -0.069336 0.3852 0.5164 0.5096
v -0.903105 3.499882 0.017112 0.4367 0.5107 0.5269
v -0.021603 0.170111 -0.160358 0.0739 0.1236 0.1341
v -0.158663 0.000016 0.016038 0.0930 0.1832 0.1895
v 0.158172 0.389193 -0.009032 0.2776 0.2975 0.2981
v -0.373968 0.528190 0.019149 0.1448 0.2576 0.2647
v -0.346143 0.918025 -0.160332 0.4360 0.4598 0.4588
v -0.341558 0.642798 0.031502 0.6707 0.5564 0.2930
v -0.313754 0.955266 -0.160322 0.5000 0.5114 0.5060
v -0.185821 1.259737 0.031194 0.7552 0.7014 0.4844
v 0.152380 1.688758 -0.160308 0.5113 0.5207 0.5154
v -0.053049 1.548486 0.017557 0.3258 0.4569 0.5480
v -0.365167 1.886578 -0.160318 0.4698 0.4853 0.4826
v -0.187265 2.075634 0.016364 0.1947 0.2689 0.3336
v 0.140250 2.416721 -0.160318 0.5021 0.5140 0.5091
v -0.209326 2.397963 0.025386 0.1295 0.3146 0.3349
v 0.069197 2.839493 -0.160279 0.4924 0.5057 0.5010
v -0.102853 2.648230 0.024197 0.0864 0.2035 0.2178
v 0.154419 2.969040 -0.160277 0.4164 0.4380 0.4365
v 0.144439 2.887123 0.022067 0.2633 0.5612 0.5791
v -0.086215 3.246724 -0.160272 0.3576 0.5396 0.5335
v -0.374183 3.499867 0.072867 0.3265 0.6076 0.6132
v 0.360813 0.169731 -0.160327 0.1821 0.2117 0.2150
v 0.690533 0.111208 0.028942 0.1775 0.3503 0.3463
v 0.161611 0.391635 -0.008922 0.2640 0.2814 0.2806
v 0.335451 0.490627 0.028830 0.3446 0.3535 0.2732
v 0.199389 0.559887 -0.160396 0.4360 0.4570 0.4554
v 0.168478 0.692787 0.031411 0.7947 0.6027 0.2884
v 0.625872 1.314816 -0.160341 0.4667 0.4819 0.4794
v 0.677224 1.259737 0.031184 0.8705 0.7258 0.3816
v 0.697940 1.651035 -0.160301 0.4623 0.4774 0.4737
v 0.685165 1.329027 0.019724 0.4413 0.3191 0.4237
v 0.668853 1.724724 -0.160296 0.4516 0.4700 0.4677
v 0.658227 2.073878 0.014966 0.3881 0.3324 0.3936
v 0.492185 2.457034 -0.160277 0.4558 0.4735 0.4712
v 0.193377 2.397845 0.025348 0.1407 0.2649 0.2744
v 0.675885 2.706444 -0.160305 0.4462 0.4664 0.4638
v 0.350937 2.659158 0.022896 0.1300 0.1597 0.1690
v 0.400019 2.859080 -0.160263 0.3165 0.3438 0.3472
v 0.686240 2.906827 0.025207 0.1264 0.2672 0.2726
v 0.188119 3.256553 -0.160270 0.3401 0.4848 0.4810
v 0.681947 3.473440 0.133765 0.3230 0.6096 0.6134
v 1.163215 0.169121 -0.160382 0.4652 0.1794 0.1590
v 0.968736 0.019724 0.027312 0.6191 0.2999 0.1511
v 1.234158 0.534286 -0.160427 0.3224 0.3436 0.3425
v 0.710924 0.467534 0.029308 0.3598 0.2533 0.1377
v 1.125437 0.577569 -0.160423 0.4212 0.4444 0.4416
v 0.748498 0.627581 0.031559 0.3853 0.3675 0.3074
v 1.224393 1.224146 -0.160353 0.4191 0.4415 0.4405
v 1.147332 1.220719 0.031440 0.5213 0.5091 0.3679
v 1.229606 1.599007 -0.160337 0.4002 0.4231 0.4224
v 0.871709 1.369466 0.031203 0.5748 0.3058 0.3163
v 0.739262 1.702625 -0.160313 0.3570 0.3842 0.3862
v 1.069990 1.985101 0.030461 0.6816 0.2591 0.2690
v 0.808221 2.441696 -0.160330 0.3708 0.3967 0.3975
v 0.701269 2.414271 0.018681 0.2080 0.2996 0.3164
v 0.738992 2.696005 -0.160310 0.2696 0.2915 0.2972
v 1.216022 2.643230 0.021570 0.0561 0.0109 0.0168
v 0.827113 2.842009 -0.160280 0.2617 0.2830 0.2869
v 0.805593 3.143466 0.139558 0.1637 0.3442 0.3554
v 1.226327 3.459253 -0.160416 0.3195 0.4420 0.4381
v 0.956160 3.496936 0.050926 0.3364 0.5837 0.5808
v 1.246288 0.027538 -0.160336 0.4281 0.2723 0.2449
v 1.474925 0.084985 0.022817 0.7988 0.4051 0.2650
v 1.254797 0.549354 -0.160442 0.2988 0.3227 0.3236
v 1.241780 0.238009 0.029207 0.5171 0.4796 0.4415
v 1.241350 0.602563 -0.160434 0.3300 0.3580 0.3603
v 1.688444 0.613229 0.024081 0.1935 0.2814 0.3298
v 1.442702 0.944561 -0.160311 0.3328 0.3609 0.3624
v 1.239956 1.240838 0.031266 0.2480 0.3832 0.4803
v 1.456441 1.320697 -0.160327 0.3169 0.3444 0.3487
v 1.242640 1.549914 0.017090 0.3065 0.3614 0.4483
v 1.641049 1.712610 -0.160313 0.3145 0.3422 0.3464
v 1.251226 2.075020 0.015870 0.2695 0.3141 0.3890
v 1.274598 2.253363 -0.160323 0.3180 0.3449 0.3477
v 1.286431 2.324137 0.031271 0.2404 0.2957 0.3810
v 1.284496 2.469684 -0.160329 0.2466 0.2658 0.2719
v 1.256809 2.648336 0.024144 0.1495 0.1490 0.2318
v 1.315463 2.850316 -0.160294 0.2147 0.2289 0.2336
v 1.750096 3.217840 0.138369 0.1717 0.2262 0.2177
v 1.768129 3.381221 -0.160256 0.2750 0.3537 0.3529
v 1.762976 3.500000 0.113611 0.3984 0.5987 0.5558
v 1.968190 0.164852 -0.160363 0.1956 0.2980 0.3133
v 1.957890 0.135287 0.063972 0.1535 0.2962 0.3168
v 1.968190 0.548916 -0.160373 0.1006 0.2203 0.2553
v 1.954457 0.274280 0.064044 0.4410 0.4602 0.4563
v 1.968190 0.636702 -0.160375 0.2421 0.3319 0.3788
v 1.954457 0.742776 0.064010 0.3553 0.3796 0.4328
v 1.968190 0.937244 -0.160329 0.4727 0.2913 0.3182
v 2.013877 1.206089 0.046081 0.4301 0.3032 0.3836
v 1.961324 1.323135 -0.160373 0.3986 0.3156 0.3423
v 2.013045 1.342033 0.044989 0.3879 0.3536 0.4328
v 2.014389 2.066647 -0.057710 0.3749 0.3240 0.3512
v 1.957890 1.822417 0.063948 0.3605 0.3709 0.4501
v 2.014307 2.450175 -0.078383 0.5183 0.2573 0.2600
v 1.940718 2.099643 0.063902 0.5198 0.3258 0.3903
v 2.014455 2.838886 -0.034155 0.3374 0.2027 0.2211
v 1.940718 2.469226 0.063886 0.4250 0.2018 0.2786
v 2.014229 3.164196 -0.090111 0.1926 0.1897 0.2139
v 2.014026 2.999595 0.024885 0.2486 0.1928 0.2006
v 2.014185 3.230795 -0.017401 0.3326 0.4587 0.4595
v 2.014329 3.223631 0.025288 0.4047 0.4517 0.3485
f 157 160 158
f 160 157 159
f 51 31 33
f 51 33 53
f 103 105 125
f 123 103 125
f 69 71 91
f 69 91 89
f 87 89 109
f 107 87 109
f 127 107 109
f 127 109 129
f 105 107 125
f 125 107 127
f 89 111 109
f 101 103 123
f 121 101 123
f 26 24 46
f 46 24 44
f 44 64 46
f 46 64 66
f 76 74 96
f 54 74 56
f 54 76 74
f 56 74 76
f 74 94 96
f 96 114 116
f 96 94 114
f 36 34 56
f 34 54 56
f 7 5 8
f 5 6 8
f 3 2 4
f 84 83 104
f 66 64 84
f 66 84 86
f 106 86 104
f 86 84 104
f 83 103 104
f 84 82 102
f 84 102 104
f 104 122 124
f 102 122 104
f 126 104 124
f 106 104 126
f 140 138 158
f 140 158 160
f 145 147 146
f 146 147 148
f 144 143 146
f 143 145 146
f 149 131 151
f 129 131 149
f 148 147 150
f 145 125 147
f 125 127 147
f 147 127 129
f 147 129 149
f 150 147 149
f 122 142 144
f 124 122 144
f 143 125 145
f 123 125 143
f 141 121 123
f 141 123 143
f 142 141 143
f 142 143 144
f 7 8 9
f 9 8 10
f 11 9 10
f 11 10 12
f 37 17 39
f 17 19 39
f 15 17 35
f 35 17 37
f 17 15 16
f 18 17 16
f 11 13 33
f 31 11 33
f 11 12 14
f 16 13 14
f 15 13 16
f 13 11 14
f 33 13 15
f 33 15 35
f 16 34 36
f 16 14 34
f 98 78 76
f 76 96 98
f 36 56 58
f 38 36 58
f 58 56 76
f 58 76 78
f 98 116 118
f 118 116 138
f 116 136 138
f 98 96 116
f 29 31 49
f 49 31 51
f 47 29 49
f 63 65 85
f 83 63 85
f 83 85 103
f 103 85 105
f 61 63 81
f 81 63 83
f 61 41 63
f 41 43 63
f 63 43 45
f 63 45 65
f 43 21 23
f 41 21 43
f 23 3 5
f 23 5 25
f 43 25 45
f 25 5 27
f 27 5 7
f 43 23 25
f 69 49 51
f 51 71 69
f 6 3 4
f 5 3 6
f 31 29 11
f 9 11 29
f 67 69 87
f 87 69 89
f 65 67 85
f 85 67 87
f 105 85 107
f 85 87 107
f 27 7 9
f 27 9 29
f 65 45 67
f 45 47 67
f 25 27 47
f 45 25 47
f 27 29 47
f 3 1 2
f 23 1 3
f 21 1 23
f 49 67 47
f 67 49 69
f 103 81 83
f 81 103 101
f 39 40 60
f 59 39 60
f 17 18 20
f 20 18 38
f 20 38 40
f 40 58 60
f 19 17 20
f 39 19 20
f 39 20 40
f 60 78 80
f 120 118 140
f 140 118 138
f 83 63 84
f 63 64 84
f 22 21 41
f 22 41 42
f 21 42 41
f 42 21 22
f 84 64 82
f 62 82 64
f 42 62 41
f 41 61 62
f 64 42 62
f 44 42 64
f 62 61 63
f 63 61 64
f 62 63 64
f 61 62 64
f 24 22 44
f 22 42 44
f 4 2 22
f 24 4 22
f 63 83 64
f 64 83 84
f 110 88 108
f 90 88 110
f 110 108 130
f 130 108 128
f 116 114 136
f 114 134 136
f 94 72 92
f 74 72 94
f 94 92 114
f 114 92 112
f 54 52 74
f 52 72 74
f 32 54 34
f 54 32 52
f 61 41 42
f 61 42 62
f 61 81 62
f 81 82 62
f 62 61 82
f 82 61 81
f 102 101 122
f 121 101 102
f 101 121 122
f 121 102 122
f 82 81 102
f 101 81 102
f 121 141 142
f 122 121 142
f 2 1 21
f 2 21 22
f 30 50 32
f 32 50 52
f 110 130 132
f 112 110 132
f 72 70 90
f 72 90 92
f 72 50 70
f 52 50 72
f 92 90 112
f 90 110 112
f 137 139 157
f 157 139 159
f 71 51 53
f 71 53 73
f 160 159 140
f 159 139 140
f 33 35 55
f 33 55 53
f 115 137 135
f 115 117 137
f 157 155 137
f 155 135 137
f 59 80 79
f 80 59 60
f 100 79 80
f 99 79 100
f 55 35 57
f 37 57 35
f 79 57 59
f 77 57 79
f 37 39 57
f 57 39 59
f 131 111 133
f 129 109 111
f 129 111 131
f 151 131 133
f 151 133 153
f 71 73 93
f 91 71 93
f 117 119 139
f 137 117 139
f 97 99 119
f 117 97 119
f 113 95 115
f 93 95 113
f 91 93 113
f 111 91 113
f 119 120 140
f 139 119 140
f 113 135 133
f 113 115 135
f 95 75 77
f 95 77 97
f 75 73 55
f 53 55 73
f 55 57 75
f 75 57 77
f 95 97 117
f 115 95 117
f 77 79 99
f 77 99 97
f 73 75 93
f 93 75 95
f 153 133 135
f 153 135 155
f 120 99 100
f 119 99 120
f 133 111 113
f 111 89 91
f 4 24 6
f 12 34 14
f 12 32 34
f 70 68 90
f 90 68 88
f 50 48 70
f 48 68 70
f 30 28 48
f 30 48 50
f 10 8 28
f 30 10 28
f 10 30 12
f 12 30 32
f 6 24 26
f 16 36 38
f 16 38 18
f 60 58 78
f 40 38 58
f 80 78 100
f 100 78 98
f 100 98 118
f 100 118 120
f 156 155 158
f 155 157 158
f 134 132 154
f 132 152 154
f 154 151 153
f 151 154 152
f 149 151 150
f 150 151 152
f 114 112 132
f 134 114 132
f 132 150 152
f 132 130 150
f 136 156 158
f 138 136 158
f 124 144 146
f 126 124 146
f 128 148 150
f 130 128 150
f 128 146 148
f 128 126 146
f 156 153 155
f 154 153 156
f 134 154 156
f 136 134 156
f 28 8 26
f 8 6 26
f 48 66 68
f 28 26 46
f 28 46 48
f 66 86 68
f 68 86 88
f 88 86 108
f 108 86 106
f 48 46 66
f 108 106 126
f 108 126 128
