v -0.939844 0.516204 -3.418938 0.3725 0.3623 0.3516
v -0.903371 0.149229 -3.092231 0.2013 0.1945 0.1841
v -0.903054 0.207127 -2.311027 0.1578 0.1536 0.1491
v -0.814380 0.533411 -1.796342 0.0104 0.0104 0.0091
v -0.814392 0.532333 -1.469797 0.1034 0.1019 0.0977
v -0.858866 0.449538 -0.557142 0.0759 0.0745 0.0733
v -0.859536 0.453838 -0.433454 0.0925 0.0940 0.0926
v -0.802994 0.485560 0.379059 0.0794 0.0802 0.0804
v -0.784001 0.513649 0.867490 0.0400 0.0396 0.0419
v -0.985443 0.528914 1.900188 0.0217 0.0218 0.0244
v -0.825401 0.238777 2.092438 0.1250 0.1232 0.1196
v -1.010081 0.508675 3.003038 0.3479 0.3478 0.3441
v -1.009627 0.520504 3.106302 0.3386 0.3355 0.3339
v -0.867962 0.774464 -3.408390 0.3021 0.2995 0.2942
v -0.888020 0.921173 -3.301661 0.2237 0.2202 0.2133
v -0.896655 0.868754 -2.689355 0.3561 0.3467 0.3386
v -0.924738 0.927195 -2.189387 0.3384 0.3358 0.3337
v -0.912233 0.887075 -1.601041 0.1066 0.1019 0.1008
v -0.859494 0.569969 -0.498216 0.0872 0.0837 0.0827
v -0.859124 0.587176 -0.429951 0.3943 0.3935 0.4037
v -0.834378 0.539391 0.356328 0.3620 0.3504 0.3520
v -0.743485 0.923978 0.971413 0.0204 0.0197 0.0228
v -0.741195 0.911589 1.467361 0.1207 0.1092 0.1023
v -0.989467 0.541886 1.991346 0.3696 0.3559 0.3325
v -0.936603 0.553923 2.975905 0.3227 0.3331 0.3328
v -0.961438 0.553292 3.078885 0.5314 0.5385 0.5443
v -0.782278 1.113005 -3.321381 0.6960 0.6895 0.6835
v -0.851301 1.501166 -2.729860 0.5468 0.5411 0.5355
v -0.896655 1.473155 -2.162778 0.3266 0.3265 0.3216
v -0.933439 1.168861 -1.488321 0.1358 0.1375 0.1438
v -0.871485 1.602270 -0.438993 0.1328 0.1316 0.1333
v -0.871210 1.602270 -0.373940 0.5640 0.5625 0.5732
v -0.951673 1.452112 0.148113 0.6029 0.6033 0.6228
v -0.915379 1.391509 1.775059 0.6064 0.6072 0.6085
v -0.883110 1.543460 1.963515 0.7123 0.7158 0.6841
v -0.959632 1.569666 2.825162 0.6171 0.6262 0.6048
v -0.763495 1.622247 -2.624431 0.1470 0.1385 0.1369
v -0.773583 2.154967 -2.160664 0.1358 0.1375 0.1396
v -0.786668 2.140351 -1.603548 0.1994 0.2020 0.2096
v -0.861516 1.910477 -0.707885 0.1776 0.1749 0.1732
v -0.929552 1.830231 -0.150588 0.2417 0.2161 0.1802
v -0.897863 1.804424 0.353032 0.1333 0.0745 0.0209
v -0.795518 1.930602 1.013024 0.1122 0.0681 0.0288
v -0.862000 1.949590 1.838483 0.3399 0.3373 0.3281
v -0.866270 1.765715 2.213050 0.2463 0.2199 0.1894
v -0.931209 1.748508 3.028135 0.1703 0.1740 0.1837
v -0.735244 2.164038 -2.392658 0.2308 0.2202 0.2157
v -0.748700 2.442048 -2.117315 0.7769 0.7691 0.7525
v -0.739024 2.670051 -1.047809 0.4969 0.4926 0.4883
v -0.732547 2.647472 -0.856172 0.1617 0.1672 0.1735
v -0.742803 2.686281 -0.396109 0.1974 0.1926 0.1798
v -0.752934 2.683458 0.155281 0.2754 0.2490 0.2194
v -0.868656 2.563628 1.134754 0.3698 0.3586 0.3407
v -0.783767 2.594135 1.321995 0.2046 0.1685 0.1364
v -0.823075 2.634565 2.098695 0.2056 0.1569 0.1139
v -0.768075 2.680599 2.782530 0.1583 0.1533 0.1525
v -0.754142 2.738873 -1.051628 0.2407 0.2395 0.2513
v -0.793384 2.800000 -1.009792 0.6595 0.6573 0.6417
v -0.747169 2.757700 0.141747 0.7188 0.7189 0.7019
v -0.767095 2.755282 0.602747 0.7587 0.7630 0.7438
v -0.805631 2.740386 1.863528 0.4107 0.3996 0.3883
v -0.879199 2.756765 2.264284 0.6454 0.6382 0.6118
v -0.841865 2.770803 2.966864 0.3940 0.3826 0.3691
v -0.694776 0.523524 -3.826358 0.1533 0.1512 0.1464
v -0.667890 0.126673 -2.925052 0.0954 0.0972 0.1004
v -0.726071 0.159348 -2.342632 0.1300 0.1340 0.1366
v -0.489734 0.536639 -2.190493 0.0988 0.1018 0.1061
v -0.490685 0.537711 -1.603109 0.0563 0.0568 0.0584
v -0.721885 0.314020 -0.482459 0.0500 0.0506 0.0540
v -0.717818 0.313472 -0.432232 0.0440 0.0456 0.0480
v -0.727745 0.453969 0.311479 0.0452 0.0465 0.0494
v -0.192867 0.466995 1.312326 0.0427 0.0433 0.0464
v -0.197035 0.467209 1.323882 0.0467 0.0474 0.0501
v -0.701779 0.195763 2.093182 0.0592 0.0606 0.0615
v -0.207829 0.535561 2.772409 0.1482 0.1488 0.1487
v -0.533886 0.399638 3.078885 0.3825 0.3834 0.3891
v -0.615563 0.680198 -3.628814 0.1368 0.1394 0.1376
v -0.711031 0.864394 -2.797150 0.0946 0.0972 0.0977
v -0.710325 0.810123 -2.475808 0.0528 0.0538 0.0557
v -0.490021 0.544162 -2.165111 0.0386 0.0418 0.0453
v -0.491271 0.547122 -1.516818 0.0312 0.0317 0.0356
v -0.189476 0.710001 -0.613153 0.0315 0.0299 0.0314
v -0.698161 0.540183 -0.117742 0.0719 0.0499 0.0330
v -0.213361 0.755791 0.604499 0.0739 0.0530 0.0366
v -0.200713 0.755744 0.853484 0.0372 0.0332 0.0337
v -0.218898 0.755607 1.338470 0.0734 0.0498 0.0307
v -0.191366 0.755839 2.405223 0.0801 0.0662 0.0556
v -0.531542 0.866490 2.729221 0.1359 0.1322 0.1300
v -0.517692 0.547479 3.100311 0.2095 0.2103 0.2175
v -0.596122 1.078591 -3.643699 0.4110 0.4096 0.4022
v -0.418564 1.599888 -2.851577 0.3767 0.3812 0.3772
v -0.708794 1.574313 -2.734559 0.1071 0.1094 0.1123
v -0.493400 1.567588 -1.104854 0.0357 0.0360 0.0424
v -0.217613 1.572764 -0.851874 0.0442 0.0435 0.0465
v -0.203852 1.592591 -0.166565 0.0734 0.0646 0.0638
v -0.210939 1.080896 1.890079 0.1088 0.0664 0.0182
v -0.243285 1.237242 2.431612 0.0922 0.0555 0.0153
v -0.711150 1.587618 2.873676 0.1228 0.1189 0.1218
v -0.449673 1.630901 -2.794177 0.1272 0.1567 0.1828
v -0.218617 1.690813 -2.780610 0.2835 0.2778 0.2825
v -0.667770 1.995833 -1.149754 0.1036 0.1025 0.1093
v -0.317954 2.150678 -1.021503 0.0553 0.0483 0.0436
v -0.253482 1.811285 -0.178645 0.0802 0.0459 0.0152
v -0.452113 2.138290 0.652107 0.1548 0.0909 0.0262
v -0.505432 2.153615 0.777579 0.1276 0.0824 0.0431
v -0.712866 2.153900 2.870974 0.1313 0.1631 0.2072
v -0.579353 2.385835 -2.413586 0.3575 0.3519 0.3495
v -0.635686 2.402637 -2.165984 0.7325 0.7271 0.7115
v -0.188393 2.590216 -1.040893 0.5503 0.5474 0.5419
v -0.188196 2.423048 -0.868414 0.1288 0.1277 0.1302
v -0.456927 2.669479 -0.158938 0.1214 0.1180 0.1179
v -0.234465 2.436705 0.575666 0.4459 0.4392 0.4253
v -0.466142 2.349026 0.734359 0.3079 0.3020 0.2943
v -0.199451 2.668967 1.540590 0.2705 0.2226 0.1816
v -0.204588 2.665292 2.326242 0.0965 0.0694 0.0494
v -0.269371 2.689914 3.025337 0.1000 0.1087 0.1265
v -0.267828 2.709933 -1.029602 0.2626 0.2633 0.2758
v -0.395690 2.707937 -0.809191 0.4421 0.4407 0.4368
v -0.273419 2.715847 -0.408486 0.7768 0.7786 0.7646
v -0.370322 2.711118 0.465053 0.8320 0.8356 0.8195
v -0.188393 2.736669 1.755630 0.6602 0.6543 0.6330
v -0.458039 2.742857 1.956044 0.8448 0.8544 0.8225
v -0.728230 2.770309 2.970095 0.8282 0.8349 0.8065
v -0.015650 0.473196 -3.918808 0.3029 0.3028 0.2933
v 0.325525 0.359721 -2.797570 0.1418 0.1444 0.1477
v 0.352519 0.359453 -2.764898 0.1680 0.1727 0.1766
v 0.136653 0.359453 -2.153154 0.1589 0.1641 0.1668
v 0.001806 0.391782 -1.152146 0.0711 0.0741 0.0755
v 0.010710 0.497013 -0.449476 0.0643 0.0676 0.0695
v 0.001639 0.481206 0.115525 0.0531 0.0556 0.0588
v 0.005813 0.477567 0.269500 0.0704 0.0726 0.0774
v 0.003827 0.464589 0.751959 0.0492 0.0500 0.0538
v 0.134069 0.315110 1.475672 0.0519 0.0531 0.0559
v 0.267900 0.536639 1.959256 0.0792 0.0820 0.0841
v 0.267296 0.531260 2.582957 0.1495 0.1511 0.1534
v -0.019292 0.462438 3.101080 0.3725 0.3745 0.3801
v -0.171123 0.746322 -3.753277 0.3321 0.3267 0.3097
v 0.012421 0.538992 -2.019254 0.0516 0.0553 0.0588
v -0.010250 0.708786 -1.037610 0.0465 0.0485 0.0531
v 0.261633 0.719662 -0.571141 0.0780 0.0698 0.0633
v 0.154396 0.756244 0.127236 0.0656 0.0441 0.0265
v -0.062612 0.755982 0.707181 0.0324 0.0247 0.0168
v -0.072868 0.755934 0.888631 0.0384 0.0341 0.0331
v 0.218641 0.755642 1.349406 0.0750 0.0525 0.0384
v -0.029817 0.756160 2.253969 0.1277 0.0778 0.0344
v -0.034948 0.756083 2.527327 0.1177 0.0824 0.0509
v 0.340643 0.541350 3.094332 0.1521 0.1523 0.1592
v 0.332982 1.408830 -3.505791 0.2517 0.2459 0.2385
v 0.265065 1.614861 -2.872247 0.4363 0.4339 0.4268
v 0.314055 1.215157 -1.058803 0.0608 0.0599 0.0663
v -0.001477 1.575956 -1.021497 0.0425 0.0458 0.0508
v -0.187460 1.577266 -0.209986 0.1330 0.0781 0.0340
v -0.045880 1.083225 1.370689 0.2690 0.1609 0.0480
v -0.179256 1.241119 2.407802 0.2188 0.1319 0.0422
v -0.149869 1.189153 2.593220 0.1680 0.1199 0.0714
v 0.338035 1.654916 -2.869817 0.1427 0.1682 0.1941
v 0.352274 1.690592 -2.781437 0.4663 0.4682 0.4826
v -0.166805 2.152626 -1.179182 0.0836 0.0822 0.0889
v -0.159246 2.096913 -1.021497 0.1976 0.1607 0.1283
v 0.179776 2.149696 -0.294209 0.1716 0.0995 0.0344
v -0.135272 2.149148 0.211835 0.1734 0.1019 0.0299
v -0.070004 2.162221 -2.493517 0.5107 0.5075 0.5101
v 0.340702 2.502341 -1.895909 0.7209 0.7153 0.6998
v 0.310437 2.690450 -1.049560 0.3644 0.3622 0.3598
v 0.161417 2.595857 -0.888986 0.2689 0.2567 0.2444
v 0.167373 2.310032 -0.265421 0.2891 0.2831 0.2778
v 0.070722 2.296292 0.379589 0.2661 0.2533 0.2390
v -0.171123 2.339306 0.771245 0.0983 0.0993 0.1004
v -0.123819 2.669157 1.571181 0.0935 0.0921 0.0960
v -0.015650 2.665863 2.340958 0.0619 0.0576 0.0600
v 0.050210 2.694780 3.026300 0.0598 0.0558 0.0570
v 0.352519 2.738873 -1.052656 0.2173 0.2238 0.2364
v 0.269610 2.699385 -0.920812 0.4021 0.4055 0.3987
v 0.049133 2.733655 1.662281 0.6054 0.6101 0.6056
v 0.162691 2.742303 1.940241 0.8450 0.8572 0.8277
v 0.089081 2.711987 3.027774 0.8336 0.8448 0.8170
v 0.891273 0.520504 -3.412720 0.1832 0.1854 0.1861
v 0.694573 0.391473 -2.802237 0.0938 0.0955 0.0967
v 0.731399 0.070984 -2.466094 0.1131 0.1164 0.1181
v 0.878314 0.469860 -1.808047 0.1136 0.1178 0.1187
v 0.880473 0.469854 -1.557168 0.0687 0.0708 0.0719
v 0.885992 0.445422 -0.552475 0.0779 0.0808 0.0815
v 0.885957 0.445428 -0.396109 0.0754 0.0766 0.0785
v 0.792791 0.442843 0.306354 0.0601 0.0622 0.0660
v 0.420047 0.318832 1.315932 0.0526 0.0534 0.0561
v 0.396784 0.344449 1.403096 0.0562 0.0569 0.0592
v 0.869128 0.172046 2.084695 0.0653 0.0663 0.0683
v 0.699357 0.399757 3.034540 0.1300 0.1306 0.1328
v 0.610019 0.399822 3.076552 0.3235 0.3241 0.3258
v 0.891273 0.662717 -3.413528 0.4316 0.4295 0.4221
v 0.882632 0.919607 -3.257323 0.0971 0.0964 0.1000
v 0.545774 0.971549 -2.497803 0.0742 0.0754 0.0768
v 0.854830 0.554674 -1.945250 0.0410 0.0434 0.0464
v 0.854638 0.554853 -1.457982 0.0738 0.0743 0.0758
v 0.889335 0.549403 -0.448914 0.0583 0.0601 0.0619
v 0.851738 0.647808 -0.279789 0.0332 0.0278 0.0236
v 0.852677 0.538908 0.356509 0.0317 0.0297 0.0278
v 0.889108 0.916253 1.125983 0.0321 0.0298 0.0284
v 0.805852 1.077519 1.424238 0.0608 0.0428 0.0321
v 0.723924 0.540063 1.999070 0.0986 0.0659 0.0370
v 0.843563 0.554167 2.965111 0.1219 0.0860 0.0545
v 0.816772 0.553965 3.078885 0.1277 0.1288 0.1306
v 0.690847 1.294950 -3.586925 0.1642 0.1607 0.1576
v 0.668105 1.504990 -3.097770 0.3409 0.3464 0.3539
v 0.764996 1.614778 -2.651170 0.3600 0.3656 0.3732
v 0.871197 1.609257 -2.114355 0.3215 0.3241 0.3355
v 0.567201 1.495276 -1.100420 0.1186 0.1206 0.1267
v 0.888420 1.601061 -0.628613 0.0608 0.0639 0.0670
v 0.888522 1.614027 0.114730 0.0273 0.0307 0.0327
v 0.874517 1.604110 0.645398 0.0330 0.0341 0.0366
v 0.887619 1.539898 1.317535 0.0329 0.0282 0.0257
v 0.888755 1.612484 1.772842 0.2104 0.1309 0.0458
v 0.888660 1.608184 1.953129 0.1354 0.0853 0.0350
v 0.893318 1.551012 2.955042 0.0613 0.0637 0.0647
v 0.484023 1.671086 -2.817813 0.2026 0.2388 0.2769
v 0.532481 1.679609 -2.778671 0.3421 0.3431 0.3455
v 0.867615 1.639269 -1.976079 0.4487 0.4469 0.4416
v 0.865158 2.155110 -1.040188 0.2560 0.2556 0.2572
v 0.381110 2.000068 -1.021355 0.0550 0.0582 0.0631
v 0.889276 1.924122 -0.264154 0.0178 0.0217 0.0271
v 0.882632 1.660198 0.569881 0.0279 0.0287 0.0310
v 0.888576 1.623777 1.313379 0.0191 0.0200 0.0239
v 0.889688 1.772940 1.818569 0.0142 0.0170 0.0233
v 0.889294 2.088372 2.307640 0.0163 0.0197 0.0253
v 0.889640 2.042070 2.499522 0.5528 0.5565 0.5620
v 0.415138 2.163567 -2.506295 0.5891 0.5836 0.5734
v 0.676184 2.407700 -2.173979 0.7459 0.7410 0.7284
v 0.780155 2.510370 -1.025200 0.5015 0.4938 0.4837
v 0.811378 2.687216 -0.500258 0.1643 0.1654 0.1698
v 0.650673 2.694489 -0.435768 0.3190 0.3223 0.3208
v 0.658064 2.313254 0.383370 0.1760 0.1762 0.1758
v 0.783307 2.471566 0.861796 0.0406 0.0414 0.0442
v 0.800392 2.529149 1.763328 0.0630 0.0631 0.0689
v 0.888977 2.202829 2.456567 0.0405 0.0394 0.0431
v 0.532146 2.672403 3.023669 0.3729 0.3726 0.3754
v 0.373031 2.759302 -1.053781 0.3024 0.2599 0.2424
v 0.630125 2.698592 -0.584708 0.4221 0.3967 0.3811
v 0.839844 2.698414 0.061318 0.4223 0.4058 0.4070
v 0.764792 2.713566 1.261234 0.1784 0.1732 0.1742
v 0.815696 2.699891 1.415474 0.5857 0.5895 0.5850
v 0.364396 2.745341 2.038018 0.7536 0.7596 0.7424
v 0.399212 2.726776 3.029506 0.7306 0.7344 0.7237
v 0.964686 0.524811 -3.417684 0.0733 0.0727 0.0760
v 0.925761 0.004646 -2.783448 0.2358 0.2272 0.2105
v 0.899908 0.000000 -2.703691 0.1405 0.1395 0.1364
v 0.904764 0.469860 -1.694565 0.0508 0.0496 0.0539
v 0.899908 0.469711 -1.322622 0.1818 0.1771 0.1617
v 0.906660 0.442230 -0.582517 0.1502 0.1465 0.1360
v 0.901864 0.435017 -0.349231 0.1624 0.1597 0.1537
v 0.896667 0.393622 0.716229 0.1033 0.1033 0.1072
v 0.939838 0.433349 1.186977 0.0640 0.0644 0.0658
v 0.897211 0.352758 1.776306 0.0907 0.0912 0.0927
v 0.897750 0.169056 2.014678 0.1135 0.1121 0.1113
v 0.899908 0.399965 3.046213 0.4409 0.4404 0.4410
v 0.899908 0.399858 3.078885 0.3361 0.3342 0.3309
v 0.973327 0.626159 -3.418498 0.6578 0.6612 0.6603
v 0.944682 0.858152 -3.241223 0.3186 0.3085 0.3013
v 0.997648 1.010222 -2.718220 0.2886 0.2835 0.2768
v 0.919948 0.929958 -1.636304 0.5365 0.5375 0.5280
v 0.907455 0.927737 -1.593336 0.2091 0.2107 0.2140
v 0.914847 0.566532 -0.627152 0.5416 0.5462 0.5419
v 0.915863 0.552631 -0.305093 0.7493 0.7552 0.7438
v 0.991865 1.073755 0.727605 0.6074 0.6144 0.6087
v 0.898425 0.658791 1.038625 0.4508 0.4557 0.4538
v 0.956050 0.551612 1.741094 0.5137 0.5179 0.5147
v 0.992051 0.945658 1.952469 0.3214 0.3040 0.2985
v 0.916103 0.553840 3.057879 0.4043 0.3685 0.3570
v 0.963268 0.553125 3.081218 0.3652 0.3633 0.3610
v 0.897750 1.171506 -3.169804 0.6079 0.5997 0.5987
v 1.210525 1.577809 -2.410878 0.6138 0.6079 0.6023
v 0.948635 1.385053 -2.162778 0.5875 0.5950 0.5953
v 0.981484 1.507640 -1.037041 0.3984 0.4034 0.4056
v 0.994897 1.600120 -1.023875 0.6579 0.6675 0.6708
v 0.979803 1.613021 0.042852 0.8360 0.8460 0.8377
v 0.973171 1.597970 0.236343 0.8354 0.8528 0.8537
v 0.973231 1.597969 1.314549 0.8362 0.8496 0.8478
v 0.980085 1.616564 1.874651 0.8347 0.8488 0.8458
v 0.980091 1.616552 2.047357 0.5595 0.5273 0.5153
v 0.925946 1.614956 2.948495 0.5536 0.5225 0.5008
v 1.152385 1.709765 -2.419345 0.1168 0.1196 0.1185
v 0.898575 1.632831 -2.043627 0.1095 0.1128 0.1215
v 0.912323 2.136700 -1.039348 0.2683 0.2740 0.2889
v 0.997206 1.631300 -1.021678 0.7698 0.7823 0.7797
v 0.993630 2.049598 -0.415951 0.8340 0.8501 0.8497
v 0.992739 2.035191 0.160891 0.8341 0.8545 0.8562
v 0.993468 1.815180 0.749774 0.8412 0.8567 0.8475
v 0.992948 1.777544 1.329719 0.8367 0.8531 0.8478
v 0.990986 1.756174 1.947583 0.8252 0.8404 0.8328
v 0.960206 1.692897 3.032601 0.7916 0.8015 0.7981
v 0.906923 2.569775 -1.060160 0.3330 0.3163 0.3192
v 1.005865 2.694661 -0.801273 0.6774 0.6833 0.6772
v 0.988648 2.535212 0.074748 0.6818 0.6920 0.6867
v 0.986974 2.513056 0.152327 0.6464 0.6546 0.6473
v 0.989940 2.231764 1.247997 0.4539 0.4589 0.4526
v 0.987996 2.184008 1.889530 0.4215 0.4262 0.4226
v 0.988726 2.162775 2.155876 0.5090 0.5169 0.5112
v 0.930138 2.630264 3.028646 0.7283 0.7368 0.7334
v 0.989473 2.736217 -1.025000 0.2785 0.2472 0.2277
v 0.903281 2.793657 -0.939296 0.2870 0.2535 0.2403
v 0.968106 2.736741 -0.334850 0.3392 0.3308 0.3329
v 0.921503 2.707687 1.216295 0.0524 0.0521 0.0522
v 0.979211 2.729915 1.830313 0.3418 0.3391 0.3371
v 0.904226 2.759874 2.439718 0.4426 0.4420 0.4399
v 0.956858 2.767664 2.978530 0.3500 0.3455 0.3430
f 230 237 229
f 85 142 143
f 85 84 142
f 86 85 143
f 86 143 144
f 116 171 176
f 123 116 176
f 176 235 242
f 176 171 235
f 15 16 78
f 78 16 79
f 2 16 15
f 2 3 16
f 166 165 110
f 166 229 230
f 165 229 166
f 110 166 111
f 111 167 112
f 111 166 167
f 51 110 111
f 236 172 173
f 236 173 237
f 164 165 173
f 164 173 172
f 109 118 110
f 109 117 118
f 49 57 109
f 109 57 117
f 57 58 118
f 117 57 118
f 118 119 110
f 111 110 119
f 165 109 110
f 164 109 165
f 165 110 164
f 164 110 109
f 110 49 109
f 159 110 165
f 102 110 159
f 180 193 194
f 247 180 181
f 181 180 194
f 246 180 247
f 186 132 185
f 133 132 186
f 143 85 144
f 144 85 86
f 132 143 144
f 132 133 144
f 182 195 183
f 182 248 195
f 183 195 196
f 40 31 41
f 31 32 41
f 7 6 70
f 6 69 70
f 8 70 71
f 71 8 84
f 84 21 71
f 70 7 8
f 8 21 84
f 21 8 71
f 6 7 20
f 70 20 7
f 83 20 70
f 132 72 73
f 132 73 133
f 20 19 6
f 242 235 304
f 235 297 304
f 289 296 297
f 289 288 296
f 288 287 295
f 288 295 296
f 293 284 292
f 276 286 277
f 277 286 287
f 278 287 288
f 278 277 287
f 276 275 285
f 276 285 286
f 228 172 236
f 164 172 228
f 159 229 219
f 159 165 229
f 290 236 298
f 228 236 290
f 236 237 299
f 298 236 299
f 292 291 299
f 292 299 300
f 290 298 291
f 291 298 299
f 274 284 285
f 275 274 285
f 283 290 291
f 282 290 283
f 282 218 228
f 282 218 290
f 218 228 290
f 274 283 284
f 274 273 283
f 273 272 283
f 272 282 283
f 283 291 292
f 284 283 292
f 229 165 164
f 229 164 228
f 279 278 288
f 279 288 289
f 234 224 235
f 225 235 224
f 208 209 219
f 219 209 220
f 220 209 221
f 209 210 221
f 219 220 230
f 229 219 230
f 223 212 213
f 223 213 224
f 211 212 222
f 14 15 77
f 215 156 216
f 122 62 123
f 62 63 123
f 175 122 123
f 175 123 176
f 303 242 304
f 241 242 303
f 241 175 176
f 241 176 242
f 296 303 304
f 297 296 304
f 287 286 294
f 287 294 295
f 286 285 293
f 286 293 294
f 285 284 293
f 116 115 171
f 171 115 170
f 171 170 235
f 235 170 234
f 169 233 170
f 170 233 234
f 121 122 175
f 174 121 175
f 121 61 62
f 121 62 122
f 114 121 174
f 169 114 174
f 115 114 170
f 114 169 170
f 102 94 151
f 102 151 159
f 165 159 219
f 165 219 229
f 160 111 103
f 160 166 111
f 166 160 165
f 160 159 165
f 111 110 103
f 102 111 110
f 103 111 102
f 102 103 110
f 103 102 159
f 103 159 160
f 270 204 205
f 269 204 270
f 257 269 270
f 258 257 270
f 256 190 257
f 14 77 64
f 1 14 64
f 124 64 137
f 64 77 137
f 190 124 137
f 177 124 190
f 190 177 243
f 190 243 256
f 190 137 203
f 137 148 203
f 137 77 90
f 137 90 148
f 191 204 269
f 257 191 269
f 191 190 203
f 191 203 204
f 257 190 191
f 191 257 204
f 204 257 269
f 190 256 191
f 191 256 257
f 221 210 211
f 222 221 211
f 12 13 26
f 25 12 26
f 58 59 119
f 118 58 119
f 166 111 112
f 167 166 112
f 120 59 60
f 119 59 120
f 52 53 112
f 53 113 112
f 114 54 61
f 114 61 121
f 113 53 54
f 113 54 114
f 53 113 114
f 111 119 112
f 119 120 112
f 55 56 115
f 115 56 116
f 54 55 115
f 54 115 114
f 55 116 56
f 116 55 115
f 51 50 110
f 111 51 52
f 52 111 112
f 50 51 111
f 110 50 111
f 159 151 219
f 219 151 208
f 152 95 103
f 160 152 103
f 195 196 209
f 208 195 209
f 196 197 209
f 209 197 210
f 40 31 94
f 195 140 196
f 140 141 196
f 140 82 83
f 140 83 141
f 211 199 212
f 151 195 208
f 90 27 91
f 77 91 90
f 91 15 27
f 77 15 78
f 78 15 91
f 77 78 91
f 204 216 205
f 149 156 204
f 204 215 216
f 204 156 215
f 215 156 157
f 215 157 216
f 91 92 100
f 99 100 156
f 157 156 100
f 99 91 100
f 149 91 99
f 156 149 99
f 148 149 204
f 203 148 204
f 92 28 37
f 91 27 28
f 91 28 92
f 92 37 100
f 148 90 149
f 149 90 91
f 250 184 251
f 251 185 184
f 249 183 196
f 248 195 261
f 185 198 264
f 251 185 264
f 186 251 252
f 185 251 186
f 199 186 252
f 265 199 252
f 262 261 274
f 261 273 274
f 275 263 274
f 262 274 263
f 264 263 276
f 263 275 276
f 199 198 265
f 198 264 265
f 198 185 251
f 186 185 199
f 185 198 199
f 198 251 264
f 265 276 277
f 265 264 276
f 266 277 278
f 266 265 277
f 235 289 297
f 214 279 289
f 26 13 76
f 75 12 25
f 89 26 76
f 75 25 88
f 13 12 75
f 13 75 76
f 146 147 202
f 147 136 189
f 146 135 188
f 136 188 189
f 136 135 188
f 188 146 201
f 147 189 202
f 135 88 146
f 76 75 135
f 76 135 136
f 135 75 88
f 147 76 136
f 268 189 255
f 268 202 189
f 189 188 255
f 188 254 255
f 267 201 202
f 254 188 201
f 254 267 268
f 255 254 268
f 267 202 268
f 254 201 267
f 187 186 199
f 267 278 279
f 278 266 279
f 133 186 134
f 134 186 187
f 200 187 266
f 266 187 253
f 135 134 188
f 135 187 188
f 145 135 146
f 145 134 135
f 145 144 134
f 186 187 200
f 199 186 200
f 201 187 200
f 134 187 135
f 188 187 201
f 199 200 187
f 87 86 145
f 145 86 144
f 88 87 146
f 201 200 267
f 200 266 267
f 253 265 266
f 252 265 266
f 253 252 266
f 199 266 265
f 200 199 266
f 253 252 265
f 253 187 186
f 253 186 252
f 267 266 278
f 198 199 186
f 198 185 186
f 75 74 87
f 75 87 88
f 87 145 146
f 135 75 146
f 75 88 146
f 95 83 141
f 95 141 152
f 197 141 142
f 196 142 197
f 141 142 196
f 84 141 83
f 141 197 196
f 141 84 142
f 198 142 143
f 197 142 198
f 31 82 94
f 31 19 82
f 82 19 20
f 83 82 20
f 140 195 151
f 94 82 151
f 151 82 140
f 232 223 233
f 59 50 51
f 58 50 59
f 57 50 58
f 49 50 57
f 40 51 50
f 32 31 40
f 32 40 41
f 41 40 51
f 161 104 167
f 166 160 161
f 167 166 161
f 167 166 231
f 231 166 230
f 112 167 104
f 165 102 159
f 161 160 167
f 167 160 166
f 110 102 165
f 52 112 60
f 120 60 112
f 60 51 52
f 59 51 60
f 113 112 167
f 40 102 110
f 40 110 50
f 40 94 102
f 112 52 51
f 51 111 112
f 43 42 52
f 43 53 52
f 105 112 113
f 43 52 105
f 52 112 105
f 105 53 43
f 105 113 53
f 233 223 224
f 233 224 234
f 168 167 232
f 232 167 231
f 232 222 223
f 113 104 105
f 104 113 112
f 105 104 112
f 113 167 168
f 222 212 223
f 232 221 222
f 231 221 232
f 230 220 221
f 230 221 231
f 216 226 217
f 217 226 227
f 218 228 227
f 218 217 227
f 272 207 218
f 272 218 282
f 259 271 272
f 260 259 272
f 259 270 271
f 258 270 259
f 270 205 206
f 270 206 271
f 206 205 216
f 206 216 217
f 206 217 271
f 271 206 281
f 206 217 281
f 281 217 271
f 270 280 216
f 270 205 216
f 205 270 280
f 205 280 216
f 272 271 207
f 207 206 217
f 206 207 271
f 207 217 218
f 38 28 29
f 37 28 38
f 48 47 38
f 47 37 38
f 48 39 49
f 38 39 48
f 107 48 108
f 107 47 48
f 108 49 109
f 108 48 49
f 158 218 164
f 164 218 228
f 49 39 109
f 39 101 109
f 109 101 164
f 101 158 164
f 228 163 164
f 108 109 163
f 163 109 164
f 226 163 227
f 227 163 228
f 226 162 163
f 107 108 163
f 162 107 163
f 216 157 162
f 216 162 226
f 100 107 162
f 157 100 162
f 47 100 37
f 47 107 100
f 29 30 38
f 38 30 39
f 65 15 78
f 65 2 15
f 191 257 192
f 192 257 258
f 126 125 178
f 126 178 179
f 192 245 258
f 192 179 245
f 257 178 191
f 244 178 257
f 16 3 79
f 3 66 79
f 2 65 3
f 3 65 66
f 179 178 245
f 178 244 245
f 245 244 258
f 244 257 258
f 169 234 170
f 234 169 233
f 169 168 233
f 168 232 233
f 114 168 169
f 63 56 123
f 123 56 116
f 54 53 114
f 62 54 55
f 61 54 62
f 46 45 56
f 45 55 56
f 45 44 55
f 36 35 45
f 36 45 46
f 116 115 170
f 116 170 171
f 114 113 168
f 114 169 115
f 115 169 170
f 55 54 114
f 115 55 114
f 55 56 63
f 62 55 63
f 293 231 294
f 294 231 232
f 231 167 168
f 231 168 232
f 173 165 237
f 230 165 166
f 237 165 230
f 237 230 238
f 239 232 301
f 292 230 293
f 230 231 293
f 238 230 292
f 300 238 292
f 113 169 114
f 169 113 168
f 174 241 240
f 241 174 175
f 233 240 302
f 295 233 302
f 232 233 295
f 294 232 295
f 302 240 241
f 302 241 303
f 233 174 240
f 233 169 174
f 296 295 302
f 296 302 303
f 299 237 238
f 299 238 300
f 167 112 168
f 112 113 168
f 232 294 301
f 230 166 167
f 230 167 231
f 232 294 239
f 229 165 230
f 14 1 77
f 1 64 77
f 65 64 125
f 125 64 124
f 65 125 66
f 49 40 50
f 29 17 30
f 17 18 30
f 16 17 28
f 28 17 29
f 18 4 5
f 17 4 18
f 125 177 178
f 125 124 177
f 126 66 125
f 15 16 27
f 27 16 28
f 110 50 49
f 39 40 49
f 30 40 39
f 30 31 40
f 83 84 21
f 199 143 144
f 198 143 199
f 31 19 32
f 32 20 21
f 33 20 32
f 32 21 33
f 21 20 33
f 32 19 20
f 10 73 86
f 23 10 86
f 85 72 9
f 85 9 22
f 85 22 23
f 85 23 86
f 22 85 86
f 23 22 86
f 87 74 88
f 74 75 88
f 25 24 87
f 88 25 87
f 84 21 85
f 83 20 21
f 74 73 86
f 74 86 87
f 72 85 86
f 73 72 86
f 84 71 72
f 84 72 85
f 22 72 85
f 22 9 72
f 8 72 71
f 9 71 72
f 8 71 9
f 72 8 9
f 35 24 36
f 36 24 25
f 20 19 31
f 20 31 32
f 9 72 10
f 72 73 10
f 34 24 35
f 23 24 34
f 22 10 23
f 9 10 22
f 11 10 23
f 23 11 24
f 87 24 23
f 23 86 87
f 24 11 87
f 11 74 87
f 86 74 10
f 11 10 74
f 15 14 78
f 14 77 78
f 77 64 78
f 84 70 83
f 71 70 84
f 84 83 142
f 142 83 141
f 66 78 79
f 65 78 66
f 17 16 80
f 16 79 80
f 101 39 93
f 39 30 93
f 82 18 19
f 81 18 82
f 78 64 65
f 79 67 80
f 79 66 67
f 18 17 81
f 17 80 81
f 67 66 127
f 102 40 50
f 40 39 50
f 39 49 50
f 102 50 110
f 31 39 40
f 30 39 31
f 22 21 85
f 82 19 83
f 19 20 83
f 18 31 30
f 18 19 31
f 69 82 83
f 69 83 70
f 73 86 87
f 74 73 87
f 68 81 69
f 69 81 82
f 140 81 82
f 139 81 140
f 68 67 81
f 81 67 80
f 80 67 68
f 66 126 127
f 83 70 71
f 83 71 84
f 21 20 84
f 20 83 84
f 70 69 82
f 70 82 83
f 68 5 81
f 19 5 6
f 18 5 19
f 5 18 81
f 80 68 81
f 30 81 93
f 18 81 30
f 69 19 82
f 69 6 19
f 82 6 69
f 19 6 82
f 68 5 69
f 6 5 68
f 6 68 69
f 69 5 6
f 46 36 106
f 106 36 98
f 46 116 56
f 106 56 116
f 106 46 56
f 46 106 116
f 25 36 98
f 225 289 235
f 225 214 289
f 214 201 279
f 279 201 267
f 25 88 98
f 25 26 88
f 88 26 89
f 201 146 202
f 146 88 89
f 146 89 147
f 89 76 147
f 213 214 224
f 225 224 214
f 88 98 146
f 154 98 97
f 98 155 146
f 155 98 154
f 97 154 155
f 218 158 207
f 150 207 158
f 93 150 101
f 101 150 158
f 129 128 182
f 182 128 181
f 131 132 143
f 143 142 131
f 131 183 184
f 131 130 183
f 141 130 142
f 130 131 142
f 130 182 183
f 129 182 130
f 140 129 130
f 140 130 141
f 193 180 259
f 181 194 247
f 194 193 260
f 193 259 260
f 259 193 258
f 193 192 258
f 132 131 185
f 131 184 185
f 196 195 261
f 196 261 262
f 249 196 262
f 182 195 196
f 183 182 196
f 184 183 197
f 183 196 197
f 194 260 247
f 207 194 260
f 207 260 272
f 273 260 272
f 261 260 273
f 195 194 260
f 195 260 261
f 218 219 228
f 228 219 229
f 191 178 192
f 178 179 192
f 178 177 191
f 191 177 190
f 139 140 195
f 194 139 195
f 208 140 151
f 140 208 195
f 82 81 139
f 82 139 140
f 82 94 140
f 140 94 151
f 208 219 218
f 207 208 218
f 194 195 207
f 195 208 207
f 93 81 139
f 93 139 150
f 81 18 19
f 81 19 82
f 82 19 94
f 19 31 94
f 150 139 207
f 139 194 207
f 182 261 195
f 247 181 248
f 181 182 248
f 247 181 260
f 248 247 261
f 260 181 194
f 261 247 260
f 248 261 182
f 182 248 247
f 261 194 195
f 261 260 194
f 181 193 194
f 181 180 193
f 139 193 194
f 138 180 193
f 138 127 180
f 138 193 139
f 180 179 193
f 193 179 192
f 126 179 127
f 127 179 180
f 80 67 138
f 67 127 138
f 282 207 218
f 207 282 272
f 144 133 134
f 196 262 263
f 197 196 263
f 264 197 263
f 139 81 138
f 81 80 138
f 181 180 246
f 247 181 246
f 246 180 259
f 143 133 144
f 132 133 143
f 198 197 264
f 184 198 185
f 198 184 197
f 139 128 129
f 139 129 140
f 185 132 133
f 185 133 186
f 181 128 139
f 181 139 194
f 211 198 199
f 210 198 211
f 210 197 198
f 146 154 155
f 200 201 214
f 213 200 214
f 199 144 212
f 86 154 145
f 86 96 154
f 154 96 97
f 144 145 200
f 199 144 200
f 86 24 87
f 23 24 86
f 96 86 97
f 86 87 154
f 154 87 145
f 97 86 154
f 212 199 200
f 212 200 213
f 24 25 88
f 24 88 87
f 145 144 199
f 200 145 199
f 200 154 145
f 154 200 213
f 212 154 153
f 212 154 213
f 146 145 200
f 154 145 155
f 155 145 146
f 145 146 201
f 200 145 201
f 154 145 213
f 213 145 200
f 153 145 154
f 145 88 146
f 87 88 145
f 145 153 144
f 155 146 88
f 146 201 200
f 146 145 154
f 153 212 144
