v -1.307892 0.236695 -0.472053 0.0013 0.4157 0.6915
v -1.308042 0.234538 -0.444055 0.0013 0.4134 0.6927
v -1.317964 0.241009 0.444576 0.5000 0.5000 0.5000
v -1.089375 0.347883 -0.471969 0.1399 0.3111 0.4942
v -1.120212 0.503555 -0.278519 0.0036 0.4047 0.6705
v -1.317919 0.495058 0.450558 0.5000 0.5000 0.5000
v -1.250729 0.599060 -0.542520 0.5258 0.1611 0.2466
v -1.120008 0.517273 -0.265966 0.7821 0.0598 0.0669
v -1.100313 0.682658 -0.218032 0.0515 0.0215 0.0399
v -1.276011 0.747628 -0.060481 0.1425 0.0039 0.0092
v -1.317959 0.741127 0.442914 0.5000 0.5000 0.5000
v -1.117480 0.894462 -0.542346 0.9481 0.0724 0.0712
v -1.305523 0.828040 -0.436079 0.9643 0.0876 0.0748
v -1.115019 0.808586 -0.113001 0.0340 0.0248 0.0458
v -1.276011 0.770304 -0.040689 0.6589 0.0558 0.0157
v -1.123630 0.966485 0.128045 0.6783 0.0380 0.0056
v -1.318064 0.831489 0.445240 0.5000 0.5000 0.5000
v -1.117480 1.139912 -0.542372 0.3611 0.2871 0.4467
v -1.305119 1.011566 -0.435722 0.4754 0.2499 0.3731
v -1.112823 1.057036 0.101649 0.7123 0.0488 0.0092
v -1.281480 1.063998 0.210295 0.6462 0.0323 0.0043
v -1.245945 1.226521 0.348253 0.5111 0.0131 0.0000
v -1.360657 1.480538 -0.472777 0.1405 0.2401 0.3871
v -1.351707 1.512981 -0.279055 0.2012 0.1209 0.2000
v -1.351448 1.514560 -0.110070 0.3544 0.0055 0.0047
v -1.351484 1.514749 -0.034956 0.2774 0.0121 0.0123
v -1.351970 1.512981 0.154790 0.3156 0.0074 0.0041
v -1.364738 1.437930 0.419319 0.4624 0.0281 0.0057
v -1.340954 1.524665 -0.493238 0.3754 0.0834 0.0953
v -1.118846 1.526968 -0.270581 0.4125 0.0376 0.0282
v -1.088267 1.526891 -0.070025 0.4522 0.0173 0.0071
v -0.978253 1.526960 -0.031310 0.2620 0.0118 0.0117
v -0.992219 1.526914 0.318959 0.1728 0.0081 0.0094
v -1.255726 1.757821 0.438190 0.4559 0.0533 0.0103
v -0.982964 1.989024 -0.464842 0.4996 0.0558 0.0561
v -1.020719 1.983179 -0.275899 0.3951 0.0723 0.1301
v -1.071015 1.974811 -0.137654 0.6083 0.0513 0.0269
v -1.071219 1.974536 -0.068780 0.3047 0.0254 0.0202
v -1.125681 1.964969 0.128871 0.3566 0.0273 0.0144
v -1.252844 2.015133 0.426404 0.4157 0.0358 0.0032
v -0.991747 2.021943 -0.591670 0.3792 0.0633 0.0961
v -0.977985 2.021943 -0.316442 0.2737 0.0418 0.0733
v -0.991742 2.022060 -0.260222 0.4715 0.0408 0.0213
v -1.128414 2.034134 0.121226 0.3266 0.0282 0.0213
v -1.133879 2.032713 0.159110 0.4168 0.0378 0.0051
v -1.250062 2.105902 0.422010 0.4248 0.0392 0.0026
v -1.071074 2.508039 -0.462318 0.6403 0.0107 0.0095
v -1.020469 2.504180 -0.277768 0.5476 0.0257 0.0271
v -1.029837 2.513755 -0.183669 0.9486 0.0710 0.0239
v -1.056858 2.511609 -0.066445 0.8315 0.0533 0.0129
v -1.152974 2.457801 0.316056 0.5621 0.0593 0.0267
v -1.154676 2.462322 0.329592 0.5000 0.5000 0.5000
v -1.051878 2.600000 -0.464742 0.7448 0.0337 0.0091
v -1.012898 2.551928 -0.280022 0.8067 0.0411 0.0104
v -1.014827 2.528868 -0.240907 0.8980 0.0365 0.0090
v -1.064229 2.526527 -0.060697 0.5894 0.0568 0.0252
v -1.195758 2.531005 0.150874 0.5059 0.0562 0.0288
v -0.581750 0.408793 -0.526212 0.0022 0.4146 0.6382
v -0.663746 0.433257 -0.458529 0.0015 0.4029 0.6319
v -0.566885 1.496293 -0.474316 0.2513 0.0874 0.1348
v -0.583116 1.509225 -0.304478 0.1992 0.0029 0.0012
v -0.596865 1.509351 -0.183764 0.2736 0.0031 0.0011
v -0.595417 1.509317 0.069052 0.3386 0.0020 0.0011
v -0.582771 1.509300 0.175893 0.2490 0.0048 0.0028
v -0.931615 1.384921 0.473842 0.4192 0.0410 0.0058
v -0.570330 1.618115 -0.583922 0.3498 0.1150 0.1557
v -0.877629 1.526928 -0.414811 0.3250 0.0108 0.0000
v -0.789478 1.526960 -0.069860 0.3215 0.0072 0.0001
v -0.585163 1.527054 -0.059225 0.1616 0.0071 0.0029
v -0.862256 1.526748 0.172736 0.1141 0.0048 0.0024
v -0.579013 1.526848 0.320288 0.4339 0.0528 0.0070
v -0.565196 1.992754 -0.576863 0.5020 0.0104 0.0101
v -0.964313 2.018588 -0.373934 0.7346 0.0000 0.0000
v -0.950747 1.927770 0.425137 0.5000 0.5000 0.5000
v -0.567343 2.042646 -0.577205 0.4436 0.0215 0.0063
v -0.957845 2.021467 -0.404206 0.4590 0.0006 0.0013
v -0.585849 2.525991 -0.609550 0.0293 0.0034 0.0068
v -0.956770 2.402490 0.427237 0.5000 0.5000 0.5000
v -0.589947 2.558959 -0.638880 0.6313 0.0290 0.0062
v -0.965190 2.551587 -0.456173 0.7007 0.0235 0.0065
v -0.352148 0.398441 -0.527735 0.0118 0.2776 0.4370
v -0.197375 0.382913 -0.448432 0.0236 0.2043 0.3198
v -0.167650 1.478831 -0.463447 0.2964 0.0716 0.1048
v -0.267415 1.509810 -0.279888 0.1685 0.0025 0.0008
v -0.295434 1.509177 -0.257955 0.3007 0.0012 0.0010
v -0.300899 1.509285 -0.066039 0.3129 0.0017 0.0017
v -0.484717 1.509242 0.138839 0.3386 0.0010 0.0009
v -0.182683 1.509139 0.352189 0.2752 0.0176 0.0026
v -0.554566 1.654455 -0.572996 0.4378 0.0856 0.1228
v -0.185415 1.526441 -0.279888 0.3170 0.0119 0.0000
v -0.218558 1.526894 -0.080493 0.2730 0.0023 0.0003
v -0.172434 1.526962 0.124882 0.2373 0.0081 0.0014
v -0.372051 1.526988 0.301677 0.0833 0.0081 0.0027
v -0.202840 1.526885 0.320288 0.4614 0.0287 0.0015
v -0.184140 1.984847 -0.545743 0.5947 0.0062 0.0087
v -0.558515 1.936821 0.436435 0.5418 0.0229 0.0098
v -0.208650 2.051619 -0.549070 0.4811 0.0248 0.0133
v -0.171168 2.043508 0.443644 0.4365 0.0388 0.0521
v -0.185756 2.521995 -0.590277 0.2219 0.0129 0.0115
v -0.516830 2.477621 0.439923 0.5513 0.0241 0.0567
v -0.189260 2.562778 -0.626841 0.1897 0.0106 0.0093
v 0.045026 0.215385 0.760482 0.5000 0.5000 0.5000
v 0.224582 0.400166 -0.527645 0.0246 0.1379 0.2225
v -0.119814 0.382913 -0.448447 0.0255 0.1437 0.2300
v 0.028196 0.428633 0.705782 0.3328 0.0156 0.0007
v 0.035068 0.253329 0.751310 0.2871 0.0140 0.0005
v 0.126182 0.705297 0.664574 0.3743 0.0422 0.0162
v 0.036243 0.537228 0.788052 0.3756 0.0327 0.0118
v 0.090651 0.984139 0.508370 0.3705 0.0096 0.0004
v 0.028032 0.769069 0.639275 0.4300 0.0361 0.0019
v 0.062633 0.763626 0.715952 0.4340 0.0562 0.0209
v 0.120549 1.144631 0.470497 0.3589 0.0178 0.0003
v 0.181235 1.024630 0.518778 0.4312 0.0429 0.0021
v 0.055457 1.478985 -0.463411 0.1378 0.1670 0.2635
v -0.141170 1.509242 -0.271248 0.2026 0.0013 0.0002
v -0.109329 1.509191 -0.256127 0.2155 0.0051 0.0033
v 0.011661 1.509254 -0.064822 0.3275 0.0026 0.0023
v -0.037519 1.509254 0.130531 0.2484 0.0028 0.0030
v 0.225435 1.379701 0.472347 0.4091 0.0402 0.0053
v 0.181534 1.269648 0.516358 0.4363 0.0301 0.0035
v -0.054217 1.521404 -0.461336 0.1332 0.1181 0.1726
v -0.120499 1.526856 -0.357650 0.3782 0.0060 0.0001
v -0.162825 1.526836 -0.082488 0.3300 0.0041 0.0000
v 0.231417 1.526885 0.119564 0.2948 0.0071 0.0002
v 0.084501 1.526942 0.212615 0.2265 0.0052 0.0008
v 0.124816 1.526908 0.320288 0.5174 0.0279 0.0025
v 0.220860 1.986646 -0.532589 0.7810 0.0430 0.0232
v -0.164486 1.918425 0.398240 0.4947 0.0240 0.0108
v 0.085414 2.048688 -0.556385 0.7989 0.0573 0.0342
v -0.125283 2.183042 0.390525 0.5551 0.0314 0.0398
v -0.164405 2.522052 -0.591606 0.5871 0.0317 0.0200
v -0.094269 2.390941 0.421361 0.6654 0.0209 0.0353
v 0.007285 2.568860 -0.621837 0.5366 0.0285 0.0165
v 0.499282 0.358228 -0.514917 0.0424 0.0000 0.0000
v 0.466484 0.381034 -0.448834 0.0591 0.0000 0.0000
v 0.356810 0.382105 0.707941 0.1585 0.0063 0.0010
v 0.374062 0.382243 0.750478 0.3651 0.0238 0.0014
v 0.576158 0.592519 0.650948 0.4385 0.0324 0.0066
v 0.485870 0.592565 0.714588 0.3802 0.0622 0.0260
v 0.345530 1.002355 0.511871 0.4011 0.0164 0.0000
v 0.571714 0.849275 0.623033 0.3684 0.0171 0.0001
v 0.603146 1.255910 0.440437 0.3828 0.0255 0.0000
v 0.436413 1.024650 0.520678 0.3577 0.0345 0.0017
v 0.383798 1.480200 -0.463820 0.2019 0.0631 0.0993
v 0.252941 1.509199 -0.264705 0.2880 0.0034 0.0017
v 0.252255 1.509265 -0.126687 0.3242 0.0038 0.0014
v 0.534817 1.509283 -0.064542 0.3258 0.0038 0.0047
v 0.280447 1.509277 0.132193 0.2380 0.0024 0.0028
v 0.547799 1.393935 0.460368 0.3484 0.0321 0.0044
v 0.319908 1.269777 0.519349 0.3270 0.0416 0.0052
v 0.620571 1.532357 -0.522980 0.1527 0.1436 0.2136
v 0.264216 1.526739 -0.357650 0.3904 0.0065 0.0004
v 0.543015 1.526957 -0.099768 0.3739 0.0031 0.0000
v 0.563771 1.526911 0.118900 0.2668 0.0047 0.0002
v 0.378674 1.526856 0.223248 0.2727 0.0083 0.0035
v 0.265922 1.526811 0.320288 0.6514 0.0748 0.0098
v 0.270452 1.985881 -0.533117 0.1034 0.0127 0.0091
v 0.243718 2.047023 -0.555129 0.2739 0.0195 0.0135
v 0.497575 2.526384 -0.591103 0.6417 0.0241 0.0149
v 0.259568 2.548628 -0.610811 0.8842 0.0448 0.0295
v 0.822958 0.222894 -0.472634 0.0000 0.2764 0.5045
v 1.008632 0.000000 -0.458677 0.0000 0.2784 0.5059
v 0.830247 0.241224 0.416246 0.2845 0.0369 0.0331
v 0.756213 0.246103 0.748986 0.5000 0.5000 0.5000
v 0.640048 0.358214 -0.514928 0.4616 0.0719 0.0494
v 0.820448 0.370837 -0.452233 0.1930 0.1290 0.2110
v 0.830238 0.379464 0.394728 0.2923 0.0422 0.0407
v 0.650297 0.382142 0.708107 0.3456 0.0198 0.0007
v 0.704455 0.420006 0.820101 0.3555 0.0198 0.0000
v 0.841100 0.734873 -0.541719 0.7159 0.0523 0.0030
v 1.018467 0.631905 -0.265522 0.6991 0.0533 0.0055
v 0.853246 0.602856 -0.189486 0.1086 0.0405 0.0641
v 0.837287 0.752458 -0.062130 0.1268 0.0248 0.0327
v 0.830088 0.538620 0.425468 0.1056 0.0163 0.0232
v 0.705649 0.542771 0.624695 0.4862 0.0369 0.0039
v 0.654913 0.592571 0.713345 0.4458 0.0498 0.0130
v 0.834073 0.991511 -0.540086 0.8852 0.0693 0.0348
v 1.030809 0.804532 -0.448043 0.8603 0.0657 0.0302
v 1.018585 0.853063 -0.070187 0.0144 0.1216 0.2261
v 1.021713 0.884188 -0.041821 0.5482 0.0234 0.0204
v 0.838590 1.007641 0.156642 0.7490 0.0157 0.0000
v 0.830152 0.757303 0.425634 0.2137 0.0432 0.0643
v 0.647991 0.849286 0.619958 0.4067 0.0300 0.0064
v 0.794204 0.757804 0.710168 0.3150 0.0758 0.0366
v 0.847781 1.245049 -0.543560 0.5558 0.2368 0.3380
v 1.030777 1.126083 -0.450701 0.3633 0.2892 0.4462
v 1.030073 1.041113 0.105607 0.8222 0.0105 0.0000
v 1.030196 1.248149 0.277085 0.5908 0.0696 0.1048
v 0.684979 1.244267 0.440161 0.2783 0.0436 0.0573
v 0.795347 1.256234 0.542509 0.5478 0.0362 0.0003
v 0.771246 1.486669 -0.577232 0.0604 0.2382 0.3935
v 0.922832 1.508798 -0.325415 0.1734 0.0939 0.1527
v 0.667722 1.509323 -0.069361 0.3333 0.0058 0.0017
v 0.640733 1.509257 -0.045018 0.2523 0.0000 0.0000
v 1.005976 1.283205 0.286625 0.2513 0.0088 0.0116
v 0.727513 1.291262 0.417169 0.4080 0.0514 0.0215
v 0.702889 1.270106 0.515694 0.2550 0.0248 0.0038
v 0.974944 1.584712 -0.463365 0.1821 0.2285 0.3349
v 0.879549 1.526031 -0.426188 0.4367 0.0576 0.0539
v 1.030913 1.532667 -0.077171 0.4595 0.0354 0.0183
v 0.644832 1.526942 0.124217 0.4343 0.1207 0.0636
v 0.670327 1.527008 0.215533 0.4659 0.0561 0.0083
v 0.711114 1.523974 0.377446 0.5191 0.0732 0.0085
v 0.982742 1.790970 -0.461420 0.2257 0.0587 0.0572
v 0.916115 1.949155 -0.397745 0.6040 0.1950 0.1943
v 0.927049 1.983775 -0.069526 0.8846 0.0873 0.0113
v 0.962257 1.979724 0.021942 0.6432 0.0310 0.0068
v 0.937239 1.988672 0.168822 0.4929 0.0451 0.0041
v 1.028181 2.012021 0.426376 0.3237 0.0500 0.0115
v 0.900428 2.088365 -0.478137 0.2839 0.0189 0.0100
v 0.918847 2.031862 -0.397478 0.8063 0.0725 0.0228
v 0.935128 2.043038 -0.087971 0.8713 0.0819 0.0105
v 0.942999 2.024759 0.117074 0.6230 0.0270 0.0057
v 0.947497 2.023691 0.136550 0.5912 0.0287 0.0049
v 1.028830 2.026352 0.425853 0.4765 0.0698 0.0049
v 0.870090 2.440351 -0.459341 0.3324 0.0071 0.0062
v 0.814996 2.304134 -0.438053 0.4115 0.0172 0.0133
v 1.036482 2.515377 -0.156264 0.7651 0.0501 0.0266
v 0.928115 2.525112 0.012269 0.7619 0.0280 0.0185
v 0.958576 2.505816 0.174445 0.5306 0.0417 0.0520
v 0.985801 2.485191 0.332952 0.2223 0.0422 0.0394
v 0.986164 2.557343 -0.463329 0.3141 0.0101 0.0148
v 1.014523 2.540408 -0.269427 0.3089 0.0175 0.0144
v 1.035003 2.526567 -0.138901 0.6407 0.0379 0.0181
v 0.926822 2.526768 0.002108 0.3861 0.0174 0.0192
v 1.023478 2.527596 0.125546 0.4366 0.0133 0.0150
v 1.039115 0.128432 0.454586 0.3969 0.0537 0.0529
v 1.036664 0.330779 0.455282 0.2008 0.0271 0.0285
v 1.057321 0.730561 0.439923 0.1732 0.0271 0.0279
v 1.057434 0.764634 0.439923 0.0553 0.0804 0.1338
v 1.057902 1.013399 0.394894 0.0208 0.0893 0.1667
v 1.079071 1.489780 -0.499432 0.0690 0.0775 0.1277
v 1.049482 1.504355 -0.276398 0.2552 0.0138 0.0024
v 1.050576 1.475834 -0.070420 0.2230 0.0032 0.0030
v 1.050499 1.487426 0.040182 0.1287 0.0009 0.0012
v 1.102737 1.442674 0.229230 0.1318 0.0106 0.0028
v 1.057965 1.273381 0.376616 0.2584 0.0367 0.0067
v 1.044580 1.532389 -0.462001 0.3346 0.0695 0.0501
v 1.047312 1.532690 -0.271912 0.2938 0.0862 0.0555
v 1.039115 1.532684 -0.085894 0.4081 0.1168 0.0806
v 1.039115 1.532732 0.110924 0.3789 0.1067 0.0537
v 1.080115 1.531079 0.236912 0.4942 0.0724 0.0079
v 1.040127 1.754953 0.421712 0.3942 0.0608 0.0070
v 1.100758 2.017198 0.212942 0.3188 0.0365 0.0093
v 1.036945 2.016832 0.427464 0.2094 0.0218 0.0130
v 1.101017 2.236308 0.213944 0.5099 0.0197 0.0072
v 1.039074 2.037371 0.426687 0.1243 0.0028 0.0004
v 1.044176 2.508475 -0.107412 0.7391 0.0445 0.0324
v 1.050272 2.506750 -0.065871 0.6680 0.0147 0.0119
v 1.080742 2.491729 0.144947 0.4690 0.0348 0.0298
v 1.081105 2.308102 0.419641 0.2366 0.0642 0.0743
v 1.037749 2.526587 -0.114087 0.7594 0.0651 0.0507
v 1.042732 2.527080 -0.062388 0.7608 0.0595 0.0528
f 214 207 208
f 213 207 214
f 215 209 247
f 247 209 245
f 205 211 212
f 205 212 206
f 199 198 205
f 198 204 205
f 212 206 207
f 212 207 213
f 217 210 211
f 210 217 216
f 54 49 55
f 54 48 49
f 50 55 56
f 55 50 49
f 50 51 56
f 56 51 57
f 48 53 47
f 53 48 54
f 85 84 115
f 85 115 116
f 86 85 116
f 86 116 117
f 87 117 118
f 148 118 147
f 117 147 118
f 87 86 117
f 147 193 194
f 147 146 193
f 116 115 145
f 116 145 146
f 117 116 146
f 117 146 147
f 124 92 125
f 92 93 125
f 201 154 155
f 201 155 202
f 154 124 125
f 154 125 155
f 155 125 126
f 93 94 125
f 125 94 126
f 70 71 93
f 249 225 253
f 220 225 226
f 249 225 250
f 225 220 250
f 216 222 223
f 217 216 223
f 218 219 249
f 217 223 218
f 218 223 224
f 223 217 224
f 224 217 218
f 220 221 251
f 250 220 251
f 247 221 251
f 247 215 221
f 215 247 251
f 221 215 251
f 253 252 224
f 249 248 253
f 225 253 224
f 218 224 248
f 248 224 252
f 248 252 253
f 219 218 248
f 219 248 249
f 211 204 210
f 205 204 211
f 225 219 220
f 226 219 220
f 225 219 226
f 224 218 219
f 224 219 225
f 148 147 194
f 148 194 195
f 128 96 98
f 130 128 98
f 128 94 96
f 126 94 128
f 70 33 71
f 132 130 100
f 98 100 130
f 202 155 156
f 202 156 203
f 155 126 156
f 98 96 130
f 130 96 128
f 93 71 94
f 96 126 128
f 96 94 126
f 10 9 15
f 15 9 14
f 20 15 21
f 15 16 21
f 208 207 213
f 208 213 214
f 220 219 249
f 250 220 249
f 221 250 251
f 214 246 220
f 208 209 245
f 245 244 208
f 214 208 244
f 246 214 244
f 220 250 221
f 208 242 244
f 202 242 208
f 246 214 250
f 214 220 250
f 244 208 246
f 208 214 246
f 220 246 250
f 241 201 202
f 241 202 242
f 200 201 241
f 240 200 241
f 199 240 239
f 243 203 245
f 203 209 245
f 209 215 245
f 245 215 247
f 32 33 70
f 69 32 70
f 69 70 93
f 92 69 93
f 123 91 92
f 123 92 124
f 153 123 154
f 123 124 154
f 90 91 123
f 122 90 123
f 199 152 200
f 200 152 153
f 67 68 91
f 90 67 91
f 122 123 153
f 152 122 153
f 33 34 71
f 91 68 69
f 91 69 92
f 68 31 32
f 68 32 69
f 240 199 200
f 200 153 154
f 200 154 201
f 67 30 31
f 67 31 68
f 196 142 149
f 189 142 196
f 89 90 122
f 121 89 122
f 127 157 158
f 129 127 158
f 157 127 129
f 157 129 158
f 121 122 152
f 151 121 152
f 151 199 198
f 151 152 199
f 82 81 104
f 81 103 104
f 1 2 4
f 4 2 5
f 59 4 58
f 5 4 59
f 59 58 81
f 82 59 81
f 198 199 239
f 238 198 239
f 163 227 167
f 167 227 228
f 242 202 203
f 242 203 243
f 127 95 97
f 127 97 129
f 99 101 133
f 131 99 133
f 217 222 216
f 223 222 217
f 133 101 131
f 101 99 131
f 131 133 160
f 159 131 160
f 159 160 222
f 210 157 204
f 158 157 210
f 47 53 79
f 77 79 99
f 99 79 101
f 77 99 101
f 79 77 101
f 160 133 159
f 133 131 159
f 216 159 222
f 48 47 54
f 54 47 53
f 54 79 53
f 80 79 54
f 236 242 243
f 237 236 243
f 237 189 231
f 189 237 196
f 231 182 230
f 182 231 189
f 174 230 182
f 229 230 174
f 167 228 229
f 167 229 174
f 196 195 236
f 196 236 237
f 194 235 236
f 195 194 236
f 194 193 234
f 193 192 233
f 193 233 234
f 194 234 235
f 236 235 241
f 236 241 242
f 234 240 241
f 234 233 239
f 234 239 240
f 233 232 238
f 233 238 239
f 235 234 241
f 203 196 243
f 196 237 243
f 228 174 229
f 228 167 174
f 163 167 228
f 227 163 228
f 189 196 197
f 189 197 190
f 175 168 169
f 176 175 169
f 136 137 168
f 136 169 137
f 136 168 169
f 106 105 136
f 106 136 137
f 105 106 137
f 136 105 137
f 168 137 169
f 138 139 176
f 175 138 176
f 176 139 175
f 175 139 138
f 176 184 183
f 176 175 183
f 108 107 138
f 139 108 138
f 114 144 115
f 115 144 145
f 145 144 192
f 144 191 192
f 4 8 5
f 8 4 7
f 145 192 193
f 146 145 193
f 108 110 107
f 111 108 110
f 106 105 108
f 105 107 108
f 110 109 141
f 141 109 140
f 109 112 142
f 140 109 142
f 189 140 142
f 142 143 190
f 189 142 190
f 182 140 189
f 141 182 183
f 141 140 182
f 182 189 183
f 183 189 190
f 120 113 150
f 113 143 150
f 113 112 143
f 143 112 142
f 112 113 142
f 197 143 190
f 150 143 197
f 197 149 150
f 196 149 197
f 143 142 113
f 113 110 143
f 141 143 110
f 141 183 143
f 143 183 190
f 112 119 149
f 142 112 149
f 119 120 150
f 149 119 150
f 139 107 108
f 138 107 139
f 38 39 44
f 37 38 43
f 43 38 44
f 36 37 43
f 42 36 43
f 36 35 72
f 35 41 75
f 72 35 75
f 44 39 45
f 45 39 40
f 45 40 46
f 36 72 73
f 72 75 76
f 73 72 76
f 75 41 42
f 75 42 76
f 36 73 42
f 73 76 42
f 97 75 72
f 72 95 97
f 66 89 72
f 72 89 95
f 41 35 36
f 41 36 42
f 90 66 67
f 89 66 90
f 30 24 31
f 31 24 25
f 32 26 33
f 33 26 27
f 31 25 32
f 32 25 26
f 67 66 30
f 66 29 30
f 148 195 196
f 149 148 196
f 149 196 156
f 156 196 203
f 112 109 110
f 112 110 113
f 118 148 149
f 119 118 149
f 23 29 66
f 60 23 66
f 114 83 89
f 114 89 121
f 83 60 66
f 83 66 89
f 232 191 198
f 232 198 238
f 144 121 151
f 144 114 121
f 191 144 151
f 191 151 198
f 62 61 84
f 62 84 85
f 24 61 62
f 25 24 62
f 63 25 62
f 26 25 63
f 62 85 63
f 63 85 86
f 7 4 5
f 5 8 7
f 12 13 19
f 18 12 13
f 18 13 19
f 12 7 8
f 12 8 13
f 18 19 24
f 23 18 24
f 29 23 30
f 23 24 30
f 84 83 115
f 84 60 83
f 61 60 84
f 83 114 115
f 24 23 60
f 24 60 61
f 88 87 118
f 119 88 118
f 64 63 86
f 87 64 86
f 12 18 19
f 27 26 64
f 64 26 63
f 34 28 65
f 33 27 34
f 34 27 28
f 34 65 71
f 21 27 28
f 22 21 28
f 20 21 16
f 15 20 16
f 28 27 65
f 27 64 65
f 119 149 156
f 112 113 120
f 119 112 120
f 126 119 156
f 94 88 126
f 88 119 126
f 88 65 64
f 64 87 88
f 71 65 94
f 94 65 88
f 189 188 196
f 188 195 196
f 195 188 189
f 195 189 196
f 165 161 166
f 104 103 134
f 104 134 135
f 166 135 165
f 135 134 165
f 178 177 186
f 177 185 186
f 192 186 191
f 185 191 186
f 177 171 170
f 166 165 171
f 171 165 170
f 171 177 178
f 170 171 178
f 177 170 178
f 161 162 166
f 81 82 103
f 82 104 103
f 180 181 188
f 180 188 187
f 192 232 233
f 192 191 232
f 180 172 173
f 180 172 179
