v -2.886425 0.394589 -2.953521 0.1803 0.1691 0.1550
v -2.880780 0.389884 -2.440857 0.5855 0.5477 0.4613
v -2.901738 0.396226 -1.542148 0.6723 0.6304 0.5338
v -2.889682 0.384704 -0.974544 0.6461 0.6210 0.5393
v -2.886660 0.384704 -0.840280 0.6076 0.5016 0.3322
v -2.925248 0.011419 -0.088046 0.6190 0.5229 0.3639
v -2.864018 0.338229 0.153168 0.6968 0.6433 0.5370
v -2.839201 0.397989 1.138373 0.6813 0.6331 0.5358
v -2.835801 0.394209 1.308349 0.6208 0.5937 0.5233
v -2.820662 0.398994 2.143016 0.6358 0.6026 0.5227
v -2.886823 0.398725 2.702756 0.1723 0.1738 0.1620
v -2.831646 0.398732 2.924490 0.0358 0.0364 0.0385
v -2.909701 0.721115 -2.584274 0.2992 0.4135 0.4432
v -2.914182 0.701242 -2.560249 0.6194 0.5616 0.4523
v -2.994748 0.788514 -1.507053 0.6222 0.5786 0.4802
v -2.994431 0.733791 -1.073534 0.6076 0.5645 0.4790
v -2.993226 0.785635 -0.504599 0.5976 0.5093 0.3634
v -2.992175 0.789091 -0.294040 0.6201 0.5263 0.3689
v -2.856545 0.767202 0.203375 0.7124 0.6414 0.5014
v -2.845693 0.767486 0.659401 0.6782 0.6229 0.5126
v -2.833974 0.783112 1.248098 0.6500 0.6058 0.5112
v -2.823827 0.796579 1.834188 0.6227 0.5817 0.4871
v -2.866263 0.512338 2.437925 0.3728 0.3827 0.3486
v -2.577822 0.800035 2.936188 0.0979 0.1383 0.1586
v -2.846898 1.202121 -2.590820 0.4084 0.5347 0.5591
v -2.873124 1.158967 -2.205424 0.5356 0.4828 0.3883
v -2.994676 1.158770 -1.917501 0.5707 0.5385 0.4712
v -2.993768 0.813281 -1.105770 0.3806 0.4219 0.4156
v -2.993492 0.813281 -0.937930 0.2887 0.3232 0.3165
v -2.917663 0.940013 -0.387909 0.4663 0.4352 0.3449
v -2.899992 1.203845 0.487183 0.7523 0.6632 0.4908
v -2.895745 1.172743 0.673330 0.6970 0.6203 0.4837
v -2.882505 1.203378 1.354556 0.6846 0.6097 0.4807
v -2.868081 1.043417 2.151080 0.6022 0.5543 0.4568
v -2.863344 1.136018 2.379182 0.3812 0.3804 0.3339
v -2.760636 1.080576 2.827772 0.1483 0.2308 0.2738
v -2.867386 1.571800 -2.573602 0.3889 0.5283 0.5667
v -2.872654 1.592969 -2.192909 0.4857 0.4495 0.3824
v -2.994431 1.582531 -1.951255 0.2322 0.2351 0.2189
v -2.955261 1.210582 -1.066098 0.1974 0.2386 0.2404
v -2.955169 1.210685 -0.547706 0.1490 0.1783 0.1776
v -2.908506 1.588651 0.073688 0.3654 0.3440 0.2706
v -2.904014 1.604420 0.269942 0.7486 0.6658 0.5117
v -2.886640 1.444640 1.161592 0.7139 0.6373 0.4995
v -2.876339 1.585013 1.673019 0.7030 0.6244 0.4842
v -2.867070 1.599596 2.179305 0.7108 0.6089 0.4487
v -2.865732 1.559850 2.266273 0.2083 0.2716 0.3013
v -2.762229 1.237255 2.822546 0.1687 0.2287 0.2548
v -2.867499 1.664117 -2.572838 0.3882 0.4688 0.4695
v -2.939060 1.753816 -2.034924 0.3705 0.3810 0.3414
v -2.925993 1.776441 -1.508582 0.2451 0.2579 0.2285
v -2.921992 1.862708 -1.041445 0.2264 0.2306 0.1973
v -2.916214 1.852483 -0.460351 0.1166 0.1455 0.1383
v -2.908598 1.794874 0.050794 0.4711 0.4275 0.3232
v -2.904944 1.660083 0.215587 0.6331 0.5877 0.4745
v -2.886762 1.631425 1.114285 0.6473 0.6078 0.5026
v -2.876053 1.638194 1.684362 0.6002 0.5683 0.4701
v -2.867151 1.632722 2.167858 0.4793 0.4612 0.3861
v -2.865753 1.612272 2.267330 0.1301 0.1636 0.1764
v -2.580047 1.640495 2.951301 0.0862 0.1402 0.1806
v -2.540653 2.354683 -2.580483 0.4474 0.5059 0.4959
v -2.542868 2.355608 -2.054058 0.4761 0.4703 0.4167
v -2.532455 2.355560 -1.994550 0.4948 0.4844 0.4219
v -2.597892 2.355323 -1.083640 0.4374 0.4537 0.4185
v -2.548912 2.355268 -0.561677 0.4249 0.4308 0.3981
v -2.560529 2.355157 0.031199 0.5320 0.5278 0.4606
v -2.539887 2.355426 0.618399 0.6248 0.5998 0.4986
v -2.885874 2.036816 1.128026 0.4505 0.4308 0.3628
v -2.880392 2.030521 1.401790 0.4992 0.5221 0.4774
v -2.873716 2.032214 1.789553 0.5045 0.5220 0.4777
v -2.709440 2.353820 2.290685 0.3116 0.3516 0.3557
v -2.586560 2.371265 2.974258 0.1698 0.1925 0.1993
v -2.566940 2.810565 1.097707 0.1712 0.1237 0.1146
v -2.536917 2.601773 1.170745 0.1855 0.1706 0.1530
v -2.560672 3.038985 1.097487 0.3685 0.1946 0.2317
v -2.533946 3.389392 1.107143 0.3369 0.1055 0.1452
v -2.530965 3.822295 1.100545 0.3210 0.0887 0.1470
v -2.241115 0.376243 -2.945718 0.1661 0.1865 0.1757
v -2.506801 0.162776 2.997057 0.0521 0.1143 0.1385
v -2.026440 0.547536 -2.942838 0.3035 0.4365 0.4746
v -2.520562 0.769218 2.949185 0.0836 0.1405 0.1606
v -2.010423 1.064444 -2.950829 0.3251 0.4585 0.4972
v -2.499737 1.194339 2.952337 0.2337 0.3195 0.3467
v -2.012413 1.600173 -2.949300 0.2609 0.3594 0.3881
v -2.523533 1.388186 2.952139 0.1076 0.1334 0.1421
v -2.008504 1.676975 -2.938062 0.3873 0.4901 0.5131
v -2.432810 1.635885 2.955438 0.0655 0.0792 0.0891
v -2.063772 2.356027 -2.580944 0.4222 0.5097 0.5200
v -2.032361 2.358186 -2.124719 0.5601 0.5954 0.5774
v -2.139816 2.357854 -1.998362 0.4532 0.4670 0.4424
v -2.119368 2.358241 -1.062757 0.4955 0.4935 0.4547
v -2.015068 2.358668 -0.546554 0.5773 0.5864 0.5493
v -2.012097 2.358628 0.100007 0.5693 0.6131 0.5880
v -2.050767 2.358502 0.247530 0.5305 0.5246 0.4910
v -2.145390 2.357869 0.673519 0.4395 0.4743 0.4595
v -2.014884 2.357118 1.692185 0.4851 0.5340 0.5149
v -2.031238 2.356801 1.817683 0.4568 0.4847 0.4629
v -2.206743 2.356161 2.339511 0.4486 0.4749 0.4549
v -2.034964 2.364401 2.956412 0.2161 0.2238 0.2149
v -2.013526 2.633998 -1.313407 0.1837 0.0903 0.0394
v -2.014139 2.464120 0.634423 0.3127 0.0851 0.0100
v -2.415558 2.610566 1.024270 0.2237 0.1526 0.1330
v -2.503453 2.600950 1.174903 0.3685 0.3492 0.3168
v -2.410790 2.596743 2.014523 0.1403 0.1436 0.1384
v -2.411107 2.802965 2.543975 0.1688 0.1651 0.1532
v -2.010688 3.116340 0.628852 0.1373 0.0209 0.0013
v -2.414751 2.850207 1.030365 0.2385 0.1091 0.1275
v -2.411056 2.901403 1.741398 0.2926 0.3028 0.2951
v -2.411117 3.026475 2.292979 0.4150 0.4197 0.3951
v -2.477973 3.564260 1.101100 0.3662 0.1205 0.1686
v -2.041099 3.951613 -0.446620 0.4140 0.1124 0.0033
v -2.072378 3.986178 -0.306973 0.1955 0.0498 0.0036
v -2.087763 3.997700 0.146895 0.1344 0.0245 0.0051
v -2.483699 3.855413 1.098471 0.0847 0.0200 0.0146
v -2.021132 4.053285 -0.533536 0.5893 0.2007 0.0122
v -2.070929 4.081081 -0.316923 0.4950 0.1570 0.0135
v -2.085374 4.140557 0.114879 0.2776 0.1583 0.1208
v -2.015629 4.129351 0.649683 0.0199 0.0202 0.0360
v -2.009341 4.633662 -0.583942 0.5981 0.1976 0.0095
v -2.091387 4.469201 -0.088967 0.6111 0.2045 0.0150
v -2.010076 4.631353 0.551268 0.5221 0.2572 0.1491
v -2.023326 4.995678 -0.636789 0.6323 0.2260 0.0118
v -2.094214 4.889712 0.021041 0.6435 0.2269 0.0106
v -2.045244 5.034592 0.607026 0.5639 0.2066 0.0297
v -2.013781 5.039203 0.685867 0.0928 0.0758 0.1072
v -2.047643 5.398499 -0.432733 0.7141 0.2994 0.0228
v -2.088089 5.255793 -0.138400 0.6861 0.2623 0.0169
v -2.008728 5.474264 0.558850 0.6552 0.2388 0.0121
v -2.020642 5.652121 -0.550198 0.7602 0.3482 0.0388
v -2.078585 5.646357 -0.276580 0.6763 0.2650 0.0203
v -2.009331 5.659033 0.557363 0.6346 0.2288 0.0146
v -2.037618 6.252363 -0.975087 0.3227 0.0815 0.0076
v -2.189449 6.361817 -0.587785 0.5672 0.2319 0.0413
v -2.055259 6.232783 -0.404822 0.5046 0.1781 0.0366
v -2.011005 6.053052 0.557363 0.5051 0.1645 0.0206
v -2.045826 6.245056 0.928317 0.2837 0.0562 0.0288
v -1.848026 0.368643 -2.943498 0.3308 0.4822 0.5220
v -1.580502 0.000000 2.934586 0.1502 0.2463 0.2809
v -1.509205 0.633558 -2.952295 0.2636 0.3643 0.3872
v -1.921180 0.802913 3.046479 0.1471 0.2173 0.2424
v -1.787326 1.039242 -2.780381 0.1506 0.2294 0.2403
v -1.763530 1.027688 2.873612 0.1306 0.1826 0.2010
v -1.829344 1.325611 -2.780590 0.1885 0.2323 0.2351
v -1.633208 1.339188 2.932230 0.1157 0.1649 0.1828
v -1.599929 1.677473 -2.937288 0.3208 0.2797 0.3059
v -1.956134 1.618029 2.976352 0.1668 0.0834 0.1194
v -1.535401 2.356209 -2.592527 0.3987 0.3832 0.3986
v -1.557880 2.357079 -2.481524 0.5759 0.6047 0.5760
v -1.874711 2.359190 -1.501335 0.5200 0.5497 0.5240
v -1.493964 2.359111 -1.229739 0.4893 0.4883 0.4438
v -1.945629 2.358842 -0.434367 0.5484 0.5895 0.5669
v -1.562229 2.358779 0.095388 0.5862 0.6115 0.5742
v -1.585290 2.358605 0.586928 0.4881 0.5085 0.4837
v -1.500661 2.358502 0.683625 0.4646 0.5160 0.5032
v -1.549825 2.358739 1.194016 0.5133 0.5843 0.5767
v -1.506980 2.357205 1.984005 0.3866 0.4293 0.4186
v -2.003685 2.356446 2.242154 0.3098 0.3293 0.3126
v -1.544905 2.368133 2.966466 0.2326 0.2082 0.2129
v -1.891851 2.535750 -1.505891 0.2004 0.0920 0.0323
v -1.968711 2.774703 -1.301238 0.1894 0.1020 0.0356
v -1.834826 2.710791 -0.940370 0.1268 0.0353 0.0078
v -1.949407 2.632226 0.626443 0.2952 0.0864 0.0037
v -1.803211 2.693520 0.888058 0.3092 0.2240 0.1875
v -1.495526 2.515474 1.719729 0.0598 0.0725 0.0804
v -1.496271 2.577155 2.604593 0.0408 0.0432 0.0421
v -1.836398 2.819153 -1.442037 0.1176 0.0327 0.0078
v -1.816073 2.821115 -0.865551 0.3381 0.0880 0.0035
v -1.697757 3.217728 -0.305821 0.3948 0.0797 0.0013
v -1.699645 3.217039 0.618557 0.3306 0.0887 0.0032
v -2.000960 2.831553 0.947807 0.3349 0.1285 0.0561
v -1.498088 3.104249 1.830659 0.4473 0.4672 0.4539
v -1.496333 2.988453 2.604530 0.4033 0.4107 0.3880
v -1.862553 3.223817 -1.219067 0.2542 0.0415 0.0003
v -1.641579 3.455234 -0.939291 0.3303 0.0777 0.0017
v -1.674788 3.347915 -0.209784 0.2443 0.0473 0.0012
v -1.988046 3.265895 0.632297 0.1583 0.0249 0.0019
v -1.980543 3.243776 0.681133 0.1607 0.0384 0.0034
v -1.500528 3.935979 -1.534743 0.2810 0.0641 0.0000
v -1.750402 4.017430 -1.105916 0.3721 0.1068 0.0028
v -2.002981 3.938154 -0.801372 0.2097 0.0504 0.0033
v -1.608677 3.631611 0.093744 0.1793 0.0441 0.0038
v -2.002838 3.997700 0.561479 0.1483 0.0305 0.0048
v -1.686650 3.947010 1.152994 0.1076 0.0247 0.0076
v -1.490983 3.911583 1.510992 0.0626 0.0222 0.0112
v -1.593048 4.121625 -1.391724 0.6155 0.2217 0.0128
v -2.007789 4.135954 -0.581806 0.5743 0.1921 0.0117
v -1.986627 4.129501 0.624505 0.2509 0.3268 0.4024
v -1.967292 4.128750 0.726732 0.1174 0.1643 0.2146
v -1.597489 4.412454 1.262311 0.0649 0.1073 0.1498
v -1.785744 4.775656 -1.053363 0.6345 0.2309 0.0137
v -1.942751 4.604569 -0.753531 0.5944 0.1999 0.0105
v -1.990639 4.768745 0.601329 0.2408 0.3291 0.4189
v -1.687272 4.432904 1.154093 0.1994 0.2956 0.3854
v -1.673889 4.825342 1.173469 0.1300 0.2327 0.3200
v -1.778884 5.073350 -1.127281 0.7011 0.2939 0.0276
v -1.930092 5.073761 -0.867718 0.6301 0.2339 0.0188
v -1.996621 5.216554 0.589233 0.2052 0.2566 0.3181
v -1.945466 5.233026 0.720396 0.1142 0.1796 0.2440
v -1.660690 4.974698 1.190686 0.0354 0.0688 0.1078
v -1.793012 5.244564 -1.043822 0.8071 0.4054 0.0905
v -2.008167 5.343357 -0.594949 0.7534 0.3463 0.0503
v -1.983962 5.291299 0.621091 0.4490 0.1518 0.0347
v -1.943373 5.307645 0.725539 0.0350 0.0343 0.0441
v -1.579481 5.592677 1.291719 0.0152 0.0285 0.0473
v -1.795033 5.650303 -1.043874 0.8032 0.3972 0.0759
v -1.998499 5.655292 -0.620587 0.8015 0.3929 0.0633
v -1.992660 5.652698 0.599350 0.4389 0.1475 0.0397
v -1.976816 5.650460 0.639775 0.1529 0.0519 0.0174
v -1.644458 6.040091 1.216953 0.0171 0.0022 0.0016
v -1.550254 6.297288 -1.584375 0.5123 0.2015 0.1539
v -1.662690 6.299605 -1.486850 0.6420 0.2913 0.0918
v -2.004369 6.205129 -0.805529 0.5916 0.2611 0.1016
v -1.948018 6.442105 -0.424606 0.5397 0.2433 0.2058
v -1.987515 6.048442 0.616913 0.3335 0.0888 0.0429
v -1.750473 6.239331 1.099603 0.3153 0.1004 0.0614
v -1.900171 6.301906 1.170453 0.3768 0.1331 0.1024
v -1.652462 6.457818 -0.984408 0.5350 0.2374 0.2064
v -1.680596 6.531307 -0.633908 0.5351 0.2450 0.2135
v -1.791052 6.710524 -0.004136 0.4826 0.2031 0.1696
v -1.696603 6.710784 0.113361 0.3193 0.0796 0.0445
v -1.794829 6.469016 0.652626 0.4223 0.1538 0.1101
v -1.508909 6.447150 1.176632 0.5093 0.2133 0.1621
v -1.046668 0.393055 -2.942042 0.3647 0.5177 0.5549
v -1.056519 0.000411 2.925422 0.1741 0.2754 0.3028
v -1.477232 0.626647 -2.952306 0.1755 0.2655 0.2755
v -1.254881 0.761705 2.955940 0.1381 0.2160 0.2387
v -1.460868 0.892780 -2.780360 0.1434 0.2946 0.3239
v -1.379813 1.008654 2.897365 0.1025 0.2134 0.2585
v -1.427221 1.211334 -2.780349 0.0801 0.1708 0.1864
v -1.165648 1.566264 3.027544 0.1052 0.1859 0.2162
v -1.409560 1.676904 -2.940869 0.2337 0.2500 0.2613
v -1.031794 1.642796 2.977064 0.1783 0.0820 0.1195
v -1.064513 2.355529 -2.744490 0.4264 0.3959 0.4050
v -0.990144 2.358810 -2.122719 0.5328 0.5682 0.5479
v -1.008744 2.358818 -2.014773 0.4981 0.5046 0.4701
v -1.052610 2.358960 -1.084405 0.5380 0.5796 0.5635
v -1.037001 2.359055 -0.965390 0.5447 0.6111 0.6048
v -1.132001 2.358913 -0.375352 0.5712 0.6050 0.5774
v -1.023240 2.358526 0.191174 0.5532 0.5966 0.5715
v -1.005017 2.358470 0.734367 0.5301 0.6048 0.5938
v -1.019524 2.358723 1.291666 0.4285 0.4492 0.4276
v -1.019238 2.356596 2.148975 0.3695 0.3668 0.3385
v -1.003792 2.354643 2.524851 0.5879 0.5889 0.5204
v -1.028814 2.373218 2.980384 0.3021 0.1835 0.2090
v -1.187199 2.546054 -2.034306 0.3230 0.2040 0.1251
v -1.174836 2.726639 -1.972882 0.2147 0.0682 0.0121
v -0.969910 2.713329 1.701307 0.2619 0.1529 0.1138
v -1.433703 2.457524 1.842745 0.3432 0.2611 0.2194
v -1.478753 2.656076 2.443266 0.3709 0.3864 0.3587
v -1.220958 2.985536 -1.815315 0.4650 0.1494 0.0023
v -1.074752 3.196985 -1.494978 0.3163 0.0810 0.0039
v -1.057009 3.192264 1.507965 0.3160 0.0627 0.0021
v -0.983998 3.191228 1.756992 0.4626 0.4292 0.4002
v -1.478539 2.895860 2.461584 0.5227 0.5238 0.4821
v -1.081918 3.278184 -1.840744 0.2737 0.0700 0.0018
v -1.481785 3.387582 -1.137189 0.2374 0.0643 0.0043
v -1.179930 3.566925 -0.463482 0.1787 0.0581 0.0080
v -1.483643 3.528793 0.070631 0.1770 0.0546 0.0074
v -1.469474 3.585825 0.136244 0.1680 0.0456 0.0066
v -1.138147 3.587723 0.657694 0.1645 0.0543 0.0152
v -0.981630 3.248726 1.534211 0.1274 0.0278 0.0317
v -0.995830 3.243934 1.776922 0.1020 0.0181 0.0334
v -1.128724 3.947011 -1.668316 0.4246 0.1636 0.0105
v -1.406600 4.002089 -1.473958 0.2591 0.0756 0.0044
v -1.448485 3.640492 -0.619529 0.1765 0.0434 0.0032
v -1.402516 3.634324 0.587640 0.1528 0.0398 0.0045
v -0.996442 3.649721 1.146542 0.1464 0.0423 0.0063
v -1.210413 3.628092 1.561074 0.0565 0.0151 0.0119
v -0.999066 3.631303 1.723102 0.0189 0.0029 0.0081
v -0.972544 4.063589 -1.748424 0.7490 0.3333 0.0224
v -1.412796 4.426285 -1.472188 0.6968 0.3016 0.0172
v -1.465554 4.415103 1.395067 0.0737 0.1360 0.1838
v -1.050282 4.076044 1.724557 0.0614 0.1197 0.1622
v -0.972799 4.634239 -1.749869 0.7406 0.3232 0.0169
v -1.398331 4.508519 -1.485196 0.6956 0.2770 0.0106
v -1.467636 4.513406 1.393789 0.1264 0.2382 0.3306
v -0.990532 4.572779 1.711927 0.1358 0.2624 0.3604
v -1.352505 5.073595 -1.569168 0.7938 0.3932 0.0753
v -1.439614 5.073255 -1.495208 0.7216 0.3109 0.0255
v -1.453028 4.866383 1.407781 0.0481 0.0966 0.1420
v -1.017533 5.236212 1.703046 0.0609 0.1271 0.1836
v -1.311436 5.549801 -1.563534 0.8239 0.4240 0.0975
v -1.412460 5.320313 -1.478000 0.8191 0.4183 0.0937
v -1.482582 5.287693 1.384929 0.0015 0.0043 0.0089
v -0.989398 5.327296 1.714598 0.0046 0.0096 0.0189
v -1.312171 5.774243 -1.563994 0.8134 0.4053 0.0707
v -1.407039 5.790375 -1.484557 0.8105 0.4050 0.0821
v -1.449190 5.660765 1.414903 0.1152 0.0205 0.0120
v -0.985519 5.832421 1.717656 0.0016 0.0007 0.0033
v -1.198632 6.410980 -1.729855 0.6422 0.2901 0.0842
v -1.437919 6.244265 -1.492736 0.5622 0.2473 0.0826
v -1.235771 6.232783 1.580774 0.3214 0.1274 0.1058
v -1.028507 6.232783 1.702784 0.0138 0.0061 0.0074
v -0.991154 6.464888 -1.540357 0.5035 0.1741 0.1481
v -0.995238 6.483970 -1.469035 0.5136 0.2315 0.2027
v -1.444300 6.614885 -0.512128 0.5152 0.2308 0.2039
v -1.427149 6.619519 -0.161838 0.4850 0.2081 0.1810
v -1.315050 6.686025 0.547257 0.4414 0.1766 0.1443
v -1.216119 6.700148 0.807658 0.4785 0.2036 0.1695
v -1.373861 6.476955 1.179899 0.5008 0.2303 0.1998
v -0.542613 0.319029 -2.940492 0.3305 0.4431 0.4662
v -0.521655 0.000641 2.919327 0.1569 0.2506 0.2678
v -0.949248 0.794706 -2.780371 0.2499 0.3556 0.3785
v -0.966348 0.762330 2.955940 0.1751 0.2713 0.3000
v -0.856290 1.088350 -2.779669 0.2062 0.3166 0.3352
v -0.967471 0.980620 2.931894 0.1782 0.2605 0.2947
v -0.904811 1.563591 -2.780496 0.1561 0.2416 0.2555
v -0.939673 1.354340 2.911954 0.2032 0.3070 0.3487
v -0.947013 1.677347 -2.936617 0.2867 0.3614 0.3770
v -0.613123 1.628973 2.976478 0.1421 0.0823 0.1125
v -0.505291 2.354991 -2.817727 0.3997 0.4589 0.4640
v -0.500829 2.356833 -2.513330 0.5669 0.5912 0.5577
v -0.588949 2.358842 -2.031740 0.4746 0.5203 0.5118
v -0.448031 2.359324 -1.474629 0.5216 0.6063 0.6129
v -0.732940 2.359127 -0.952613 0.5490 0.5964 0.5807
v -0.964490 2.358684 -0.190084 0.5804 0.5960 0.5643
v -0.508925 2.358494 0.565144 0.5667 0.6110 0.5931
v -0.672241 2.358660 1.152438 0.5463 0.6116 0.6006
v -0.487538 2.358517 1.439576 0.5258 0.5856 0.5708
v -0.527974 2.357758 1.751263 0.3917 0.3347 0.2718
v -0.522768 2.355892 2.238718 0.5919 0.5947 0.5351
v -0.498420 2.354587 2.796301 0.3203 0.2138 0.2270
v -0.963377 2.693520 -1.592408 0.0536 0.0098 0.0005
v -0.806850 2.787893 1.653299 0.2878 0.0497 0.0004
v -0.770018 2.789577 1.782829 0.1667 0.0565 0.0161
v -0.929107 2.850856 -1.579495 0.4623 0.1428 0.0004
v -0.574300 3.160119 -1.392332 0.4105 0.0931 0.0000
v -0.915887 3.200014 1.646638 0.3096 0.0531 0.0012
v -0.966164 3.159905 1.728087 0.3095 0.0530 0.0001
v -0.826910 3.481923 -1.650690 0.3709 0.1097 0.0026
v -0.456106 3.252285 -1.332479 0.2184 0.0627 0.0049
v -0.454248 3.470053 -0.476898 0.1739 0.0533 0.0058
v -0.456963 3.480484 -0.000125 0.1583 0.0474 0.0082
v -0.502320 3.462809 0.285777 0.1636 0.0501 0.0086
v -0.755950 3.623276 1.162828 0.1715 0.0527 0.0119
v -0.906434 3.318822 1.631159 0.1728 0.0487 0.0107
v -0.962080 3.235038 1.721677 0.0979 0.0150 0.0139
v -0.457698 3.705179 -1.605845 0.3725 0.1358 0.0077
v -0.951484 3.649452 -1.214113 0.2101 0.0591 0.0036
v -0.956547 3.647933 1.161393 0.1567 0.0540 0.0160
v -0.939091 3.656213 1.681115 0.1496 0.0426 0.0094
v -0.835199 3.897467 1.891654 0.0625 0.0159 0.0052
v -0.735584 4.044934 -1.901906 0.7504 0.3245 0.0163
v -0.934119 4.099230 1.805252 0.2413 0.0995 0.0924
v -0.464998 4.663902 -1.894344 0.7517 0.3262 0.0162
v -0.917347 4.471716 1.741241 0.1901 0.1983 0.2467
v -0.509292 5.078593 -1.911823 0.7816 0.3719 0.0561
v -0.461557 5.103716 1.866582 0.0813 0.1420 0.1872
v -0.672465 5.585300 -1.856013 0.8379 0.4418 0.1207
v -0.494143 5.501048 1.864404 0.0880 0.0522 0.0573
v -0.958916 5.940760 -1.759420 0.8059 0.4047 0.0864
v -0.795080 6.036058 1.796109 0.0999 0.0206 0.0240
v -0.637787 6.370088 -2.035939 0.0837 0.0026 0.0000
v -0.532067 6.232783 -1.889966 0.6081 0.2666 0.0995
v -0.958998 6.420643 1.680110 0.4942 0.2251 0.1929
v -0.882607 6.232783 1.762229 0.3020 0.0764 0.0534
v -0.522012 6.504712 -1.567304 0.5279 0.1922 0.1794
v -0.516704 6.670162 -1.023472 0.5244 0.1929 0.1739
v -0.511650 6.697855 -0.930891 0.4033 0.1689 0.1495
v -0.758523 6.831095 0.052481 0.4763 0.2116 0.1876
v -0.962131 6.759948 0.248997 0.4710 0.1770 0.1347
v -0.497563 6.629103 1.161593 0.4857 0.2082 0.1728
v -0.605222 6.469672 1.652902 0.4718 0.2074 0.1785
v -0.613623 6.463203 1.713938 0.3712 0.0850 0.0301
v -0.478524 6.859832 -0.443656 0.1441 0.0204 0.0145
v -0.643871 6.877958 0.097494 0.2184 0.0578 0.0463
v -0.712217 6.856527 0.133396 0.4125 0.1350 0.1001
v -0.289452 0.397373 -2.939707 0.3730 0.5431 0.5912
v -0.097287 0.004349 2.977619 0.2619 0.1928 0.2339
v 0.016089 0.676902 -2.937350 0.3421 0.4882 0.5243
v -0.195942 0.679637 2.990082 0.2650 0.2438 0.2851
v -0.445428 1.196356 -2.940367 0.3199 0.4553 0.4874
v -0.164520 0.805721 2.990323 0.3172 0.3043 0.3574
v -0.435393 1.310704 -2.940136 0.2895 0.4092 0.4410
v -0.126034 1.360967 2.990208 0.2375 0.2501 0.2872
v -0.122696 2.007012 -2.883540 0.2726 0.3084 0.3378
v -0.213348 1.648451 2.989496 0.2434 0.1820 0.2217
v 0.065824 2.354137 -2.881812 0.4071 0.4330 0.4537
v 0.062384 2.357616 -2.314971 0.5677 0.6162 0.5933
v -0.064405 2.359024 -1.665478 0.5646 0.6158 0.5958
v 0.049971 2.358723 -1.033391 0.5603 0.6078 0.5893
v 0.053176 2.358581 -0.463786 0.5694 0.5879 0.5564
v -0.200761 2.358328 0.032907 0.5505 0.5795 0.5580
v 0.048950 2.358209 0.275828 0.5804 0.6070 0.5809
v -0.116367 2.358280 0.684013 0.5671 0.6093 0.5822
v -0.027879 2.358343 1.259242 0.5707 0.5966 0.5604
v 0.023531 2.357434 1.721373 0.5501 0.6138 0.6033
v -0.069428 2.354492 2.447183 0.5338 0.6077 0.6068
v -0.321241 2.354461 2.796500 0.3409 0.2716 0.3109
v -0.427961 3.217657 -1.332290 0.4131 0.0954 0.0000
v -0.428002 3.038574 1.682969 0.4000 0.0719 0.0000
v 0.036587 3.327750 -1.342187 0.2140 0.0582 0.0048
v -0.381543 3.470014 -0.504861 0.1689 0.0479 0.0037
v -0.311768 3.480942 -0.009467 0.1375 0.0348 0.0036
v -0.357124 3.480831 0.156268 0.1511 0.0462 0.0140
v 0.043897 3.503598 0.641754 0.1708 0.0520 0.0139
v -0.203313 3.224908 1.615774 0.1724 0.0498 0.0104
v -0.310461 3.923967 -2.019444 0.4183 0.1586 0.0074
v -0.381655 3.671230 -1.490788 0.1968 0.0622 0.0065
v -0.258408 3.723351 1.651058 0.1747 0.0481 0.0076
v -0.045908 3.774784 1.969804 0.1842 0.0416 0.0091
v -0.161601 4.283421 -1.905425 0.7140 0.2799 0.0071
v -0.411505 4.078637 1.869514 0.3805 0.0851 0.0320
v 0.062670 4.436652 -1.882153 0.7470 0.3177 0.0128
v -0.384708 4.527664 1.872520 0.4944 0.2869 0.2384
v 0.042028 5.048416 -1.940080 0.7608 0.3596 0.0690
v -0.305888 4.971131 1.878804 0.4173 0.3839 0.3661
v 0.072011 5.312540 -1.881211 0.8469 0.4507 0.1322
v 0.058852 5.572196 1.855114 0.3404 0.2258 0.2271
v 0.050736 5.647804 -1.886447 0.7917 0.3890 0.0796
v 0.052431 5.773088 1.856811 0.2760 0.0834 0.1065
v -0.347641 6.374762 -2.054821 0.2116 0.0427 0.0220
v -0.388546 6.232783 -1.902890 0.5667 0.2412 0.0706
v -0.387923 6.271982 1.988477 0.3386 0.1130 0.1117
v -0.283449 6.534905 -1.500235 0.5167 0.2114 0.2238
v -0.409494 6.679287 -1.018948 0.5246 0.2147 0.2205
v -0.404604 6.697602 -0.957670 0.3740 0.1253 0.1119
v 0.069755 6.830036 -0.425255 0.3314 0.1222 0.1099
v 0.070051 6.848809 0.311950 0.4141 0.1188 0.0799
v -0.437965 6.713133 0.885912 0.4479 0.1528 0.1219
v -0.432065 6.641471 1.197756 0.4523 0.1796 0.1567
v -0.264360 6.461408 1.703434 0.4132 0.1188 0.0830
v -0.305684 6.849679 -0.465942 0.2493 0.0613 0.0523
v -0.300008 7.000000 -0.217334 0.3009 0.0854 0.0693
v 0.018222 6.858884 0.319344 0.3380 0.1084 0.0837
v 0.383911 0.340926 -2.934837 0.3649 0.5402 0.5891
v 0.202649 0.302904 2.797850 0.4630 0.1505 0.2224
v 0.590082 0.798312 -2.795347 0.2723 0.4050 0.4409
v 0.269209 0.781024 2.798364 0.4438 0.1411 0.1991
v 0.430207 1.180517 -2.795609 0.2014 0.3070 0.3355
v 0.297282 0.875247 2.798489 0.3757 0.1283 0.1942
v 0.569267 1.473441 -2.794844 0.2000 0.2921 0.3171
v 0.446102 1.587496 2.991622 0.3240 0.1302 0.1875
v 0.179037 1.944468 -2.935706 0.2880 0.2882 0.3248
v 0.110068 1.649139 2.990983 0.3127 0.1683 0.2372
v 0.589337 2.355070 -2.750596 0.4119 0.3035 0.3461
v 0.512743 2.356169 -2.503412 0.5560 0.6130 0.5963
v 0.510517 2.358977 -1.553354 0.5541 0.6168 0.6020
v 0.586550 2.359032 -1.370873 0.5865 0.6109 0.5835
v 0.127913 2.358573 -0.607496 0.5679 0.5928 0.5709
v 0.491550 2.358099 -0.037503 0.5456 0.5888 0.5736
v 0.577444 2.358051 0.399063 0.5844 0.5893 0.5497
v 0.471796 2.358098 0.656071 0.5791 0.5945 0.5562
v 0.394416 2.358154 1.174945 0.5528 0.5910 0.5634
v 0.583396 2.356580 1.820741 0.5162 0.5634 0.5468
v 0.379032 2.355101 2.262607 0.5418 0.6007 0.5874
v 0.144736 2.354160 2.809277 0.4022 0.3449 0.3676
v 0.563612 2.817160 -1.536273 0.3384 0.0553 0.0000
v 0.583171 2.813871 1.695222 0.0492 0.0041 0.0000
v 0.550616 2.750789 1.775100 0.1968 0.1193 0.0927
v 0.540438 2.936182 -1.526229 0.2762 0.0574 0.0073
v 0.416456 3.005163 -1.480441 0.3486 0.0614 0.0032
v 0.526432 2.913992 1.693285 0.2051 0.0267 0.0001
v 0.536865 2.839397 1.725186 0.2285 0.0429 0.0077
v 0.589970 3.418905 -1.509242 0.1836 0.0438 0.0038
v 0.584223 3.461916 -1.495533 0.2194 0.0570 0.0052
v 0.074645 3.488115 -0.566431 0.1770 0.0539 0.0054
v 0.132751 3.462770 0.057288 0.1626 0.0477 0.0054
v 0.121869 3.463363 0.127467 0.1721 0.0550 0.0117
v 0.090529 3.510913 0.664638 0.1654 0.0517 0.0111
v 0.074144 3.412958 1.472849 0.2062 0.0455 0.0073
v 0.574249 3.322847 1.731532 0.2151 0.0307 0.0034
v 0.093336 3.937229 -1.975479 0.2836 0.0941 0.0039
v 0.581201 3.701360 -1.393295 0.1774 0.0553 0.0070
v 0.441947 3.634316 1.122182 0.1645 0.0514 0.0109
v 0.198647 3.629318 1.494591 0.2368 0.0621 0.0046
v 0.436516 3.994244 1.805692 0.1904 0.0358 0.0076
v 0.549606 4.034567 -1.730180 0.6670 0.2552 0.0058
v 0.528995 4.127935 1.701255 0.5213 0.1580 0.0095
v 0.429452 4.072224 1.808373 0.4378 0.1077 0.0091
v 0.093377 4.445146 -1.875095 0.6600 0.2444 0.0074
v 0.537600 4.470664 1.696040 0.6563 0.4050 0.2881
v 0.495051 4.503758 1.713488 0.5837 0.3396 0.2602
v 0.581130 5.073958 -1.740904 0.7005 0.2904 0.0323
v 0.544665 5.142891 1.695600 0.6786 0.4695 0.3533
v 0.288237 5.195890 1.799125 0.6351 0.4802 0.4261
v 0.566848 5.274013 -1.715978 0.8348 0.4250 0.1009
v 0.546145 5.566866 1.694867 0.6662 0.4764 0.3636
v 0.460802 5.635847 1.729585 0.5198 0.4312 0.4169
v 0.575944 5.756893 -1.712407 0.7884 0.3771 0.0611
v 0.545298 5.647898 1.695328 0.3605 0.0979 0.0173
v 0.523850 5.689273 1.704324 0.3773 0.1641 0.2052
v 0.143154 6.370072 -2.035551 0.1752 0.0356 0.0229
v 0.581742 6.232783 -1.710836 0.4808 0.1931 0.1031
v 0.586367 6.438626 1.674267 0.3637 0.0927 0.0224
v 0.089620 6.297295 2.020252 0.4134 0.1579 0.1426
v 0.581997 6.491902 -1.506927 0.5054 0.2032 0.2069
v 0.374121 6.644516 -0.972605 0.5243 0.2131 0.2089
v 0.583324 6.722994 -0.434607 0.4044 0.1395 0.1238
v 0.583386 6.730863 -0.387259 0.3771 0.1402 0.1200
v 0.564694 6.734397 0.313437 0.4322 0.1774 0.1564
v 0.574024 6.624984 0.821681 0.4448 0.1569 0.1331
v 0.583488 6.517673 1.265191 0.4746 0.1935 0.1701
v 0.128831 6.857341 -0.215376 0.2602 0.0809 0.0655
v 0.189786 6.860686 0.133961 0.1563 0.0346 0.0252
v 0.647342 0.146218 -2.932973 0.5311 0.5027 0.4177
v 1.008754 0.366270 2.991182 0.4763 0.2687 0.3229
v 1.094648 0.798312 -2.794698 0.3164 0.3371 0.3025
v 1.014705 0.802913 2.991789 0.4614 0.2991 0.3537
v 0.958191 1.174182 -2.794886 0.0370 0.0613 0.0672
v 0.937366 1.166978 2.991276 0.4174 0.3884 0.4266
v 0.952239 1.232653 -2.794760 0.1161 0.1447 0.1467
v 0.687502 1.601319 2.991842 0.3848 0.4030 0.4301
v 1.064901 1.753690 -2.876460 0.2051 0.1609 0.1835
v 0.678580 1.656627 2.991580 0.3677 0.2610 0.2952
v 0.943317 2.355070 -2.607933 0.3473 0.3539 0.3657
v 1.066391 2.358423 -2.048339 0.5345 0.5638 0.5405
v 1.080142 2.358834 -1.613438 0.4306 0.4064 0.3673
v 1.019350 2.358628 -1.003543 0.4445 0.4629 0.4443
v 1.026976 2.358328 -0.433456 0.5757 0.5993 0.5756
v 0.899441 2.358280 -0.143741 0.5518 0.5944 0.5739
v 0.741291 2.357925 0.178994 0.5632 0.5755 0.5356
v 0.707848 2.357901 0.685825 0.5733 0.6013 0.5735
v 0.593992 2.357996 1.224911 0.5714 0.5986 0.5653
v 0.613143 2.356968 1.753599 0.5715 0.5477 0.4719
v 0.660960 2.354461 2.315527 0.6540 0.6023 0.4789
v 0.813179 2.353788 2.811759 0.4242 0.3001 0.3164
v 0.943317 2.463511 -2.042611 0.5530 0.4679 0.3826
v 0.727948 2.804279 -1.657592 0.3679 0.2510 0.1869
v 0.978128 2.456932 -1.495857 0.1863 0.1338 0.0965
v 0.595176 2.800348 1.692541 0.1390 0.0265 0.0000
v 0.599678 2.755732 1.708858 0.1414 0.0767 0.0589
v 0.730990 2.831355 -1.643485 0.4613 0.1247 0.0002
v 0.865539 2.923095 -1.486830 0.5096 0.1623 0.0014
v 1.105837 3.044370 1.104409 0.0415 0.0093 0.0013
v 0.594258 2.824807 1.682414 0.2095 0.0477 0.0031
v 0.610030 2.926440 1.854360 0.1762 0.0377 0.0079
v 0.622443 3.236382 -1.566561 0.2036 0.0507 0.0018
v 0.828768 3.236224 -1.396929 0.1822 0.0507 0.0054
v 0.613838 3.610387 -0.917319 0.1748 0.0551 0.0067
v 0.620575 3.529671 0.005782 0.1758 0.0569 0.0090
v 0.629365 3.548120 0.364482 0.1788 0.0600 0.0139
v 0.769517 3.223801 1.161906 0.1756 0.0589 0.0137
v 0.754919 3.288290 1.289509 0.1764 0.0412 0.0077
v 0.642962 3.223492 1.719185 0.2089 0.0491 0.0194
v 0.878595 4.009222 -1.505136 0.1562 0.0379 0.0012
v 1.098017 3.987349 -1.300180 0.2513 0.0827 0.0051
v 0.867243 3.664137 -0.943103 0.1680 0.0514 0.0044
v 1.034050 3.634332 -0.355065 0.1738 0.0553 0.0070
v 1.112860 3.646700 0.154551 0.1683 0.0547 0.0105
v 0.604640 3.643521 1.044116 0.1726 0.0575 0.0123
v 1.104122 3.928569 1.421448 0.2088 0.0558 0.0062
v 0.599209 3.776856 1.782829 0.1435 0.0297 0.0021
v 0.669596 4.124757 -1.722933 0.6229 0.2374 0.0058
v 1.108685 4.374148 -1.287675 0.7028 0.2761 0.0064
v 1.103591 4.297243 1.261882 0.5448 0.1603 0.0080
v 0.624312 4.465524 -1.677920 0.6975 0.2707 0.0076
v 1.112186 4.801871 -1.284994 0.7068 0.2790 0.0074
v 1.068300 4.506930 1.305083 0.6893 0.4813 0.3555
v 0.854074 5.078371 -1.557407 0.7518 0.3338 0.0373
v 1.113054 4.859907 -1.283632 0.7662 0.3556 0.0537
v 0.627711 5.073681 1.683231 0.7082 0.5620 0.4674
v 0.606089 5.065552 1.708963 0.1791 0.0536 0.0235
v 0.876625 5.286326 -1.511839 0.8153 0.4075 0.0977
v 1.062634 5.635989 -1.347256 0.7947 0.3949 0.0902
v 1.094954 5.541521 1.275193 0.6398 0.4727 0.3750
v 0.889814 5.989575 -1.503806 0.8033 0.3964 0.0896
v 1.044708 5.993142 -1.368432 0.8158 0.4125 0.0821
v 1.061297 5.663643 1.316038 0.3915 0.1492 0.0693
v 0.600352 6.232783 -1.699117 0.4837 0.1866 0.0678
v 0.997473 6.232783 -1.411486 0.6237 0.2693 0.1109
v 1.077283 6.433715 1.162923 0.5102 0.2845 0.2655
v 0.886936 6.362069 1.688772 0.3958 0.1857 0.1342
v 0.821540 6.361816 1.729543 0.3364 0.0596 0.0169
v 0.682714 6.446921 -1.501041 0.2146 0.0610 0.0531
v 0.717270 6.566268 -0.971086 0.4915 0.1971 0.1829
v 1.084889 6.559862 -0.636600 0.5427 0.2408 0.2244
v 0.690687 6.695024 -0.431277 0.5354 0.2571 0.2427
v 0.950024 6.609547 0.140821 0.4995 0.2229 0.2018
v 1.076252 6.502790 0.791089 0.4963 0.2251 0.2052
v 0.936212 6.466446 1.172045 0.4510 0.1696 0.1327
v 1.136850 0.181068 -2.930836 0.6606 0.5299 0.3561
v 1.148559 0.000822 2.919327 0.4407 0.5077 0.5391
v 1.327035 0.794848 -2.794991 0.5691 0.4708 0.3302
v 1.606646 0.785635 2.899344 0.4512 0.5378 0.5674
v 1.121323 1.105051 -2.794593 0.1129 0.1536 0.1512
v 1.578378 1.154886 2.898957 0.4565 0.5701 0.5884
v 1.169385 1.260299 -2.795127 0.0609 0.0786 0.0818
v 1.506898 1.584507 2.899030 0.4428 0.5530 0.5680
v 1.625838 1.853922 -2.874156 0.1733 0.1932 0.2007
v 1.118812 1.850181 2.899083 0.4158 0.3676 0.3532
v 1.604155 2.354422 -2.771311 0.3531 0.4070 0.4107
v 1.128387 2.357877 -2.155049 0.5321 0.6049 0.6044
v 1.193691 2.358874 -1.501146 0.5281 0.5288 0.5062
v 1.166404 2.358660 -0.974543 0.4543 0.4216 0.3789
v 1.123273 2.358296 -0.483234 0.5216 0.4470 0.3510
v 1.199530 2.358043 0.042248 0.6204 0.6012 0.5258
v 1.166404 2.357790 0.435300 0.4668 0.4585 0.4134
v 1.387265 2.357853 0.696214 0.5632 0.5388 0.4662
v 1.170865 2.355971 1.634594 0.6400 0.6197 0.5371
v 1.147253 2.355394 1.765234 0.6991 0.6269 0.4873
v 1.123273 2.353820 2.769794 0.6794 0.5923 0.4396
v 1.142608 2.353543 2.902539 0.4507 0.3162 0.2931
v 1.113912 2.473016 -1.829883 0.4562 0.1425 0.0458
v 1.494597 2.806042 -1.010937 0.2085 0.0562 0.0080
v 1.570671 2.716801 -0.730837 0.4252 0.2039 0.0745
v 1.591639 2.817943 -0.429026 0.4275 0.0614 0.0000
v 1.548641 2.787703 0.509428 0.1027 0.0726 0.0558
v 1.367052 2.791033 0.959641 0.2789 0.1433 0.0819
v 1.335896 2.585229 2.127338 0.5000 0.5000 0.5000
v 1.574662 2.431001 2.580599 0.1320 0.0510 0.0183
v 1.390123 2.437628 2.770809 0.1182 0.0443 0.0152
v 1.623234 2.988770 -0.972522 0.3635 0.1209 0.0072
v 1.626460 3.036233 -0.905872 0.3467 0.0775 0.0033
v 1.451670 2.859998 -0.389783 0.3454 0.0370 0.0000
v 1.549335 2.825361 0.509229 0.2084 0.0300 0.0000
v 1.285384 2.859420 0.849601 0.3334 0.1035 0.0029
v 1.495741 3.234231 -0.971715 0.6235 0.2170 0.0052
v 1.583952 3.224157 -0.847202 0.4103 0.1423 0.0115
v 1.381997 3.223484 0.004734 0.2458 0.0000 0.0000
v 1.383580 3.225857 0.481130 0.3167 0.0758 0.0012
v 1.599347 3.327576 0.662585 0.5166 0.2001 0.0033
v 1.214772 4.013833 -1.159004 0.6389 0.2422 0.0046
v 1.395105 4.014402 -0.873248 0.3207 0.1020 0.0029
v 1.624490 3.967745 -0.209061 0.2672 0.0790 0.0060
v 1.321083 3.673919 0.418303 0.4655 0.1575 0.0045
v 1.472557 3.644486 0.767200 0.3215 0.1141 0.0083
v 1.117046 3.928569 1.410263 0.6322 0.2410 0.0106
v 1.216048 4.071220 -1.157569 0.6659 0.2556 0.0088
v 1.446015 4.358309 -0.839347 0.6570 0.2596 0.0111
v 1.606646 4.106576 -0.208873 0.5911 0.2306 0.0238
v 1.561953 4.078922 0.620515 0.5584 0.2059 0.0284
v 1.522007 4.077017 0.716678 0.6148 0.2260 0.0105
v 1.140954 4.064158 1.217685 0.6796 0.2567 0.0151
v 1.186862 4.805327 -1.194717 0.6821 0.2673 0.0088
v 1.364837 4.620986 -0.925225 0.7266 0.3095 0.0173
v 1.575336 4.442844 -0.309298 0.6386 0.2489 0.0194
v 1.496353 4.477837 0.591149 0.5925 0.2132 0.0223
v 1.282628 4.467327 1.034010 0.7117 0.2843 0.0209
v 1.123691 4.621855 1.239396 0.6306 0.2829 0.0828
v 1.342582 5.231460 -0.966594 0.7399 0.3379 0.0467
v 1.447362 5.204526 -0.760569 0.7558 0.3496 0.0498
v 1.616926 5.073697 -0.175610 0.6819 0.2830 0.0320
v 1.615486 5.073721 0.171905 0.6890 0.2692 0.0144
v 1.262752 5.073602 1.126089 0.6484 0.2607 0.0357
v 1.179032 5.078545 1.209600 0.6794 0.5358 0.4346
v 1.295797 5.620221 -1.047990 0.8001 0.4029 0.0899
v 1.494985 5.585442 -0.634757 0.8255 0.4354 0.1089
v 1.590067 5.259826 -0.132681 0.8018 0.3912 0.0689
v 1.580614 5.258102 0.213535 0.6245 0.2305 0.0159
v 1.475875 5.476716 0.647829 0.5641 0.2695 0.1233
v 1.168507 5.301880 1.187984 0.5449 0.3713 0.2855
v 1.336324 5.854888 -0.978229 0.8019 0.3918 0.0612
v 1.478070 5.768913 -0.680032 0.5987 0.2683 0.0416
v 1.585565 5.640884 -0.191330 0.6484 0.2814 0.0360
v 1.583809 5.646578 0.173800 0.6202 0.2489 0.0203
v 1.417880 5.662488 0.799331 0.3924 0.1353 0.0415
v 1.173825 5.652121 1.181103 0.3894 0.2309 0.1744
v 1.118026 6.368775 -1.524176 0.3033 0.0719 0.0732
v 1.527816 6.373077 -0.966227 0.5851 0.2486 0.1182
v 1.422096 6.441473 -0.808148 0.4985 0.2224 0.0521
v 1.503152 6.425293 -0.368638 0.5464 0.2276 0.0552
v 1.500385 6.435178 0.110648 0.4457 0.1641 0.0639
v 1.388398 6.373156 1.168012 0.3525 0.1472 0.0901
v 1.283148 6.366545 1.315818 0.3947 0.2432 0.2031
v 1.157288 6.447024 -1.026122 0.5373 0.2300 0.2092
v 1.225899 6.514850 -0.663285 0.5270 0.2318 0.2115
v 1.362407 6.467237 -0.403869 0.5320 0.2419 0.2275
v 1.128295 6.552262 0.161537 0.4794 0.2088 0.1867
v 1.240997 6.452647 0.828562 0.4381 0.1847 0.1520
v 1.778424 0.356473 -2.927150 0.7158 0.5807 0.3899
v 1.690672 0.000182 2.925422 0.4006 0.4642 0.4924
v 1.636383 0.790246 -2.798457 0.6059 0.4905 0.3375
v 1.757293 0.516932 2.971199 0.4181 0.5157 0.5441
v 1.636383 0.881115 -2.798772 0.2984 0.2813 0.2309
v 1.954297 1.151178 2.899512 0.4369 0.5703 0.5979
v 1.636383 1.217676 -2.798897 0.2170 0.2040 0.1640
v 1.732292 1.561424 2.899261 0.4532 0.5705 0.5932
v 1.782181 1.948446 -2.872585 0.1813 0.1850 0.1611
v 1.771166 1.621627 2.899512 0.3873 0.3245 0.3050
v 2.002256 2.353062 -2.878764 0.3847 0.3878 0.3520
v 2.108945 2.354754 -2.049303 0.5631 0.5782 0.5381
v 2.126534 2.354556 -2.003138 0.4089 0.4390 0.4331
v 1.725626 2.358296 -1.476922 0.3564 0.3190 0.2757
v 2.146370 2.340907 -0.849579 0.5507 0.4872 0.3792
v 1.816625 2.356628 -0.377425 0.5830 0.5630 0.4952
v 2.110170 2.354682 0.242031 0.4782 0.4404 0.3658
v 1.779169 2.357656 0.636706 0.5058 0.4466 0.3521
v 2.118265 2.354366 1.258477 0.6145 0.5466 0.4281
v 2.082566 2.353599 2.144210 0.6898 0.6114 0.4712
v 2.150055 2.353788 2.748429 0.7011 0.6256 0.4830
v 1.683240 2.353512 2.901010 0.3852 0.2910 0.2542
v 2.040926 2.619787 -2.041134 0.2430 0.2407 0.2463
v 1.980849 2.618300 -1.508781 0.2204 0.2301 0.2449
v 1.953551 2.782753 -1.452772 0.1954 0.1178 0.0908
v 2.153219 2.804698 -0.878349 0.2147 0.1317 0.0903
v 2.146053 2.570845 -0.282215 0.1016 0.0806 0.0594
v 1.768604 2.797399 0.571795 0.1233 0.1018 0.0807
v 1.709272 2.736816 0.854209 0.2547 0.1696 0.1247
v 2.147768 2.571501 1.278690 0.1105 0.0859 0.0676
v 2.152801 2.441835 2.185976 0.1766 0.1429 0.1142
v 2.126442 2.431049 2.527187 0.2013 0.1987 0.1752
v 2.028033 2.818647 -2.045355 0.3300 0.3157 0.3179
v 1.969436 2.820221 -1.505461 0.3235 0.3265 0.3393
v 1.917270 2.819857 -1.379513 0.2602 0.2073 0.1873
v 2.150984 3.058122 -0.847904 0.3106 0.1535 0.0995
v 1.770431 2.825464 0.588206 0.3641 0.0974 0.0032
v 1.648480 3.156030 0.674807 0.5201 0.1772 0.0039
v 1.635444 3.283632 0.577974 0.4333 0.1256 0.0051
v 1.635689 3.231044 0.636015 0.6597 0.2777 0.0134
v 1.639946 3.814980 -0.521293 0.5476 0.1371 0.0000
v 1.657770 3.948964 -0.009341 0.3368 0.0741 0.0009
v 1.698635 3.928577 0.124106 0.3477 0.0667 0.0013
v 1.658464 4.103120 0.013040 0.2915 0.0794 0.0013
v 1.634668 5.070107 -0.019385 0.1749 0.0422 0.0006
v 1.637731 5.048139 0.130400 0.2222 0.0523 0.0000
v 1.635577 6.370183 -0.730417 0.0458 0.0013 0.0000
v 1.720818 6.373093 -0.372754 0.2279 0.0925 0.0858
v 1.746533 6.285734 0.143617 0.2911 0.1139 0.0968
v 1.645305 6.283370 0.635565 0.0510 0.0092 0.0013
v 2.665585 0.393917 -2.857588 0.6343 0.5395 0.3939
v 2.671597 0.081230 -1.510154 0.4497 0.2717 0.2064
v 2.664390 0.000056 -1.010791 0.5595 0.3063 0.2514
v 2.674354 0.011206 -0.494954 0.6348 0.2013 0.2251
v 2.655498 0.005789 -0.156718 0.6454 0.3104 0.2794
v 2.620994 0.004484 0.475579 0.6524 0.3410 0.2919
v 2.535661 0.385281 1.136414 0.6756 0.3654 0.2872
v 2.527494 0.393917 1.268772 0.8150 0.5296 0.1817
v 2.496031 0.000174 2.226800 0.8155 0.5344 0.1868
v 2.485813 0.390390 2.715742 0.7630 0.5531 0.2518
v 2.474716 0.389314 2.870501 0.4006 0.4293 0.4476
v 2.418600 0.774691 -2.864217 0.4428 0.3711 0.2692
v 2.672741 0.751070 -1.554360 0.5661 0.4236 0.2825
v 2.647607 0.691159 -1.044733 0.5973 0.3328 0.2582
v 2.621208 0.550351 -0.467525 0.5346 0.2669 0.2420
v 2.595125 0.770657 0.017228 0.4882 0.3260 0.2681
v 2.589888 0.769147 0.111674 0.6149 0.3703 0.2813
v 2.559242 0.785635 0.682483 0.5461 0.3911 0.2207
v 2.530894 0.744158 1.176851 0.4973 0.3362 0.1461
v 2.578914 0.793986 2.219867 0.5757 0.3901 0.1666
v 2.571493 0.793701 2.353251 0.6426 0.5194 0.3093
v 2.480964 0.491484 2.775082 0.4380 0.5365 0.5383
v 2.361299 1.151645 -2.934722 0.3405 0.2827 0.2006
v 2.670883 1.159790 -1.520239 0.6116 0.4819 0.3055
v 2.538284 1.172743 -0.980649 0.5433 0.4282 0.2748
v 2.531659 1.196301 -0.823324 0.2408 0.2064 0.1642
v 2.591552 0.948585 0.078610 0.2364 0.2071 0.1562
v 2.577465 1.149122 0.330025 0.6513 0.5486 0.3755
v 2.669352 1.189587 0.686631 0.2740 0.2187 0.1411
v 2.523676 1.053681 1.527780 0.0532 0.0417 0.0336
v 2.518082 1.060893 1.759704 0.3046 0.2662 0.2243
v 2.491897 1.057327 2.250982 0.4931 0.3927 0.2382
v 2.456024 0.831722 2.785304 0.5079 0.5701 0.5328
v 2.621708 1.565608 -2.858405 0.2549 0.2198 0.1609
v 2.670576 1.289748 -1.515065 0.6114 0.4839 0.3063
v 2.540285 1.240988 -1.025610 0.5367 0.4285 0.2791
v 2.529393 1.267503 -0.783851 0.2555 0.2107 0.1579
v 2.590358 1.596717 0.081313 0.2450 0.2169 0.1623
v 2.565327 1.491590 0.532196 0.5844 0.5035 0.3697
v 2.670137 1.440030 0.691637 0.2889 0.2481 0.1811
v 2.569574 1.431402 1.583601 0.0930 0.0756 0.0556
v 2.544654 1.417888 1.716221 0.1151 0.0948 0.0729
v 2.531547 1.424008 2.262084 0.5213 0.3712 0.1648
v 2.464538 1.352466 2.783775 0.5959 0.5791 0.4642
v 2.159906 1.854784 -2.869171 0.4112 0.3686 0.2869
v 2.670137 1.633584 -1.508582 0.5998 0.4785 0.3063
v 2.643401 1.794874 -0.977601 0.6146 0.5051 0.3399
v 2.615695 1.917217 -0.439478 0.4607 0.3959 0.2883
v 2.657142 1.616653 -0.149083 0.4261 0.3795 0.2879
v 2.577536 1.622639 0.317814 0.4113 0.3636 0.2700
v 2.552546 1.627756 1.109331 0.5071 0.4354 0.3035
v 2.531730 1.627653 1.560592 0.4247 0.3477 0.2286
v 2.499012 1.627558 2.180834 0.3290 0.2496 0.1441
v 2.507189 1.628452 2.250260 0.4644 0.2911 0.1199
v 2.463966 1.611402 2.800217 0.4321 0.3087 0.2140
v 2.619197 2.353583 -2.597229 0.4499 0.4146 0.3501
v 2.564449 2.353963 -2.054822 0.5605 0.5642 0.5208
v 2.639185 2.353654 -1.715707 0.4658 0.4156 0.3294
v 2.623566 2.353868 -1.056557 0.4842 0.4229 0.3199
v 2.274936 2.343279 -0.811646 0.5710 0.4853 0.3483
v 2.588245 2.354018 0.073688 0.4255 0.3850 0.3027
v 2.551066 2.354081 0.516172 0.5495 0.4881 0.3710
v 2.525779 2.354413 1.153957 0.5602 0.4614 0.3227
v 2.481158 2.353954 1.625818 0.4433 0.3533 0.2253
v 2.297711 2.353401 2.109932 0.4268 0.3166 0.1955
v 2.366639 2.353591 2.769794 0.4429 0.2904 0.1431
v 2.172554 2.353385 2.904068 0.3927 0.2874 0.2151
v 2.297803 2.615754 -1.501565 0.2330 0.2325 0.2273
v 2.360279 2.657223 -1.346471 0.2164 0.1785 0.1616
v 2.264145 2.592133 -0.782552 0.1981 0.1613 0.1427
v 2.300947 2.513789 -0.097210 0.0927 0.0670 0.0479
v 2.301437 2.504577 0.189719 0.1325 0.1117 0.0802
v 2.301284 2.504577 0.801499 0.0799 0.0609 0.0437
v 2.301130 2.516090 1.430130 0.1401 0.0980 0.0697
v 2.296741 2.548355 1.887884 0.1775 0.1526 0.1269
v 2.179241 2.429918 2.475314 0.2495 0.2431 0.2196
v 2.303172 2.820585 -1.499994 0.3159 0.3132 0.3364
v 2.347743 2.820450 -1.385451 0.2561 0.2585 0.2637
v 2.261654 2.934308 -0.780772 0.2811 0.2794 0.2819
v 2.692351 0.393917 -2.857033 0.1664 0.1320 0.0898
v 3.005252 0.347838 -2.131108 0.0737 0.0541 0.0387
v 2.831463 0.350360 -2.031216 0.4227 0.2250 0.1818
v 2.721966 0.011222 -1.489564 0.6139 0.2436 0.2307
v 2.678498 0.006809 -0.614461 0.6331 0.1900 0.2090
v 2.719792 0.792689 -2.758032 0.3594 0.3008 0.2146
v 2.991797 0.624915 -2.335572 0.2688 0.2354 0.1872
v 2.683327 0.756257 -1.778650 0.3771 0.2859 0.2224
v 2.704561 0.802724 -1.273610 0.6190 0.3038 0.2462
v 2.681306 0.802582 -0.742242 0.5258 0.2151 0.2030
v 2.721946 0.721304 -0.193635 0.2808 0.2404 0.1836
v 2.713534 1.128965 -2.567496 0.3767 0.3156 0.2204
v 2.811076 1.093964 -2.109753 0.3902 0.3379 0.2565
v 2.690473 1.150419 -1.949925 0.5156 0.4349 0.3107
v 2.675977 0.806322 -0.987279 0.6127 0.5113 0.3481
v 2.677386 0.806164 -0.904238 0.2229 0.1785 0.1442
v 2.733063 0.808734 -0.393669 0.2017 0.1733 0.1308
v 2.695332 1.559851 -2.856939 0.3314 0.2752 0.1844
v 2.700008 1.546597 -2.180697 0.4174 0.3404 0.2160
v 2.692892 1.551208 -2.003096 0.6358 0.5180 0.3340
v 2.689380 1.251087 -1.281790 0.5360 0.4511 0.3141
v 2.734196 1.601320 -0.443091 0.2195 0.1818 0.1528
v 2.723089 1.221709 -0.126199 0.3048 0.2690 0.1984
v 2.677477 1.923915 -2.857473 0.4579 0.3882 0.2585
v 2.930832 1.898839 -2.378480 0.3555 0.2918 0.1863
v 2.887395 1.948706 -1.697421 0.5071 0.4137 0.2640
v 2.695332 1.610034 -1.279328 0.3180 0.2721 0.1942
v 2.685491 1.628974 -0.722793 0.2517 0.2270 0.1802
v 2.718801 1.629836 -0.095681 0.3487 0.2933 0.2205
v 2.680458 2.353441 -2.601062 0.3528 0.3159 0.2352
v 2.674507 2.353757 -2.056351 0.4368 0.3707 0.2489
v 2.680458 2.353575 -1.834251 0.1714 0.1457 0.1073
v 2.674507 2.354137 -1.458040 0.1774 0.1508 0.1055
v 2.684930 2.361720 -0.904552 0.3246 0.2804 0.1978
v 2.681806 2.373226 -0.198725 0.6877 0.5993 0.4326
v 2.685144 2.204796 0.527274 0.6578 0.5313 0.3568
v 2.692545 2.355133 0.823461 0.3228 0.1914 0.1108
v 2.683919 2.378382 1.659007 0.2655 0.0711 0.0080
v 2.676059 2.368553 1.754300 0.1373 0.0170 0.0013
v 2.751663 2.611966 -1.808173 0.5000 0.5000 0.5000
f 45 46 58
f 57 45 58
f 46 34 35
f 58 46 59
f 47 46 35
f 46 47 59
f 69 57 58
f 69 58 70
f 56 57 68
f 57 44 45
f 56 44 57
f 252 261 328
f 324 247 248
f 329 328 324
f 324 325 329
f 324 328 325
f 325 328 329
f 253 328 329
f 329 328 391
f 328 261 336
f 268 261 262
f 261 253 262
f 253 337 262
f 253 328 337
f 328 336 337
f 522 450 449
f 522 449 521
f 453 450 454
f 449 450 453
f 521 449 453
f 526 521 453
f 632 631 638
f 638 631 637
f 631 548 551
f 625 548 631
f 566 488 489
f 566 489 567
f 651 708 652
f 708 651 707
f 657 568 658
f 657 658 651
f 657 567 568
f 652 651 658
f 658 569 659
f 658 568 569
f 567 490 568
f 567 489 490
f 638 643 644
f 637 643 638
f 323 246 326
f 246 250 326
f 448 519 451
f 523 451 519
f 519 448 523
f 523 448 451
f 523 519 524
f 207 135 131
f 202 198 203
f 197 198 202
f 131 128 207
f 207 128 202
f 207 202 208
f 202 203 208
f 131 207 208
f 199 198 194
f 194 189 272
f 194 280 199
f 194 276 280
f 194 272 276
f 112 116 111
f 115 111 116
f 508 507 584
f 584 507 583
f 509 585 510
f 509 508 584
f 513 588 589
f 513 512 588
f 511 588 512
f 511 587 588
f 444 443 514
f 443 513 514
f 443 512 513
f 443 442 512
f 442 441 511
f 512 442 511
f 384 383 441
f 317 383 384
f 318 385 319
f 319 385 386
f 511 510 587
f 510 586 587
f 511 441 510
f 441 440 510
f 384 442 443
f 386 385 444
f 385 443 444
f 385 384 443
f 384 441 442
f 387 386 444
f 318 384 385
f 318 317 384
f 437 507 438
f 508 438 507
f 438 508 439
f 439 508 509
f 382 381 440
f 440 381 439
f 380 438 381
f 381 438 439
f 237 236 314
f 237 314 315
f 313 380 314
f 315 314 381
f 314 380 381
f 315 381 382
f 238 315 316
f 383 382 441
f 441 382 440
f 317 316 383
f 239 238 316
f 237 315 238
f 315 382 383
f 383 316 315
f 439 509 440
f 510 440 509
f 94 93 153
f 154 153 240
f 240 153 239
f 239 316 317
f 93 151 152
f 152 237 238
f 151 237 152
f 239 317 240
f 240 317 318
f 93 152 153
f 153 238 239
f 152 238 153
f 586 585 675
f 585 674 675
f 673 672 768
f 768 672 767
f 587 586 675
f 676 587 675
f 770 769 822
f 769 768 822
f 822 768 821
f 768 767 821
f 821 767 820
f 771 824 772
f 771 770 823
f 771 823 824
f 770 822 823
f 769 673 768
f 673 769 674
f 677 676 772
f 772 676 771
f 678 677 773
f 677 772 773
f 676 675 771
f 675 770 771
f 675 769 770
f 675 674 769
f 590 514 589
f 513 589 514
f 588 677 678
f 589 588 678
f 591 680 681
f 592 591 681
f 777 682 776
f 682 681 776
f 682 592 681
f 593 592 682
f 679 774 775
f 680 679 775
f 776 680 775
f 681 680 776
f 774 679 773
f 774 678 773
f 679 678 774
f 447 446 516
f 592 593 517
f 517 516 592
f 589 679 590
f 589 678 679
f 445 515 516
f 446 445 516
f 516 515 591
f 516 591 592
f 515 514 590
f 515 590 591
f 444 514 515
f 445 444 515
f 591 590 679
f 680 591 679
f 242 319 320
f 157 156 242
f 157 242 243
f 321 387 388
f 321 320 387
f 242 320 243
f 243 320 321
f 445 387 444
f 388 446 389
f 322 321 389
f 321 388 389
f 389 446 447
f 388 387 445
f 388 445 446
f 437 436 507
f 436 506 507
f 96 95 154
f 154 155 96
f 97 96 156
f 96 155 156
f 98 97 157
f 97 156 157
f 88 147 89
f 89 147 148
f 90 89 149
f 89 148 149
f 62 61 89
f 89 61 88
f 63 62 89
f 63 89 90
f 320 319 386
f 320 386 387
f 156 155 242
f 242 241 319
f 240 318 319
f 241 240 319
f 155 154 240
f 240 241 155
f 155 241 242
f 95 94 153
f 95 153 154
f 92 151 93
f 90 149 91
f 150 91 149
f 583 582 672
f 582 671 672
f 380 379 437
f 380 437 438
f 149 148 234
f 235 149 234
f 235 234 312
f 235 312 313
f 235 313 236
f 236 313 314
f 313 312 379
f 313 379 380
f 150 151 91
f 236 149 235
f 149 236 150
f 150 236 237
f 150 237 151
f 91 151 92
f 148 147 234
f 147 233 234
f 506 583 507
f 506 582 583
f 311 378 312
f 312 378 379
f 234 233 311
f 234 311 312
f 510 585 586
f 674 584 673
f 509 584 585
f 585 584 674
f 584 583 673
f 588 587 677
f 587 676 677
f 671 766 767
f 672 671 767
f 767 766 820
f 766 819 820
f 436 437 379
f 378 436 379
f 583 672 673
f 598 607 606
f 598 599 607
f 533 525 534
f 525 526 534
f 360 298 361
f 360 361 367
f 367 366 361
f 360 367 366
f 363 300 292
f 300 292 355
f 356 292 293
f 355 292 356
f 363 355 356
f 221 215 216
f 298 220 221
f 221 299 298
f 362 298 299
f 361 298 362
f 221 216 222
f 222 216 300
f 299 221 222
f 299 222 300
f 300 216 292
f 299 300 363
f 362 299 363
f 361 362 420
f 361 420 419
f 425 367 361
f 361 419 425
f 363 300 355
f 214 207 208
f 214 208 215
f 135 207 214
f 485 564 486
f 485 493 486
f 493 421 486
f 421 414 422
f 421 414 486
f 421 363 356
f 422 421 356
f 356 414 422
f 364 363 356
f 203 198 199
f 215 208 209
f 215 209 216
f 209 288 216
f 203 199 204
f 208 203 209
f 203 204 209
f 709 653 654
f 710 709 654
f 420 421 493
f 420 493 492
f 653 659 660
f 653 660 654
f 660 570 654
f 654 570 562
f 654 562 655
f 562 563 655
f 659 569 660
f 660 569 570
f 570 571 563
f 570 563 562
f 569 491 570
f 492 570 491
f 570 493 571
f 492 493 570
f 563 485 564
f 571 493 563
f 563 493 485
f 418 424 490
f 489 418 490
f 490 424 494
f 424 366 425
f 366 367 425
f 708 652 709
f 652 653 709
f 494 495 491
f 490 494 491
f 490 491 568
f 569 568 491
f 653 658 659
f 653 652 658
f 491 419 492
f 419 420 492
f 491 425 419
f 495 425 491
f 424 425 495
f 494 424 495
f 292 288 289
f 292 289 293
f 293 289 352
f 293 352 356
f 362 363 421
f 420 362 421
f 288 292 216
f 288 209 284
f 209 204 284
f 199 280 204
f 280 284 204
f 695 787 788
f 695 694 787
f 788 779 787
f 778 787 779
f 695 685 788
f 685 779 788
f 787 694 788
f 694 695 788
f 787 684 694
f 778 684 787
f 694 685 695
f 694 684 685
f 518 508 519
f 507 508 518
f 507 518 519
f 696 686 780
f 696 780 789
f 788 695 696
f 788 696 789
f 696 695 789
f 789 695 788
f 789 686 696
f 686 789 780
f 684 683 778
f 684 683 694
f 694 693 787
f 683 693 694
f 768 673 778
f 673 684 778
f 741 752 742
f 751 761 762
f 751 750 761
f 739 750 740
f 740 750 751
f 740 751 741
f 741 751 752
f 753 763 764
f 752 763 753
f 752 762 763
f 751 762 752
f 730 741 731
f 731 741 742
f 742 752 753
f 753 765 754
f 753 764 765
f 297 220 298
f 297 219 220
f 360 297 298
f 555 558 637
f 637 558 643
f 555 557 558
f 547 474 550
f 547 471 474
f 547 550 551
f 548 547 551
f 631 551 637
f 551 555 637
f 555 554 557
f 551 550 555
f 555 550 554
f 550 474 554
f 474 477 554
f 129 130 134
f 133 129 134
f 212 129 133
f 130 126 127
f 126 130 129
f 212 206 129
f 214 135 220
f 212 213 218
f 214 135 215
f 220 214 215
f 135 136 215
f 213 134 219
f 212 133 134
f 212 134 213
f 218 213 219
f 220 215 221
f 134 135 214
f 134 214 220
f 219 134 220
f 123 124 128
f 127 123 128
f 128 197 202
f 124 197 128
f 131 127 128
f 130 127 131
f 134 130 131
f 134 131 135
f 200 205 287
f 287 283 200
f 278 282 349
f 347 278 349
f 351 282 286
f 283 195 200
f 278 195 279
f 283 279 195
f 282 279 283
f 282 278 279
f 406 347 349
f 349 351 408
f 408 351 410
f 349 282 351
f 406 349 408
f 205 211 287
f 287 291 290
f 287 290 286
f 351 286 290
f 354 351 290
f 286 283 287
f 286 282 283
f 287 211 291
f 463 398 402
f 463 402 468
f 560 484 487
f 565 487 566
f 560 487 565
f 415 487 484
f 413 415 484
f 487 415 416
f 417 424 423
f 417 424 418
f 418 489 417
f 489 417 424
f 489 424 423
f 489 423 417
f 359 365 366
f 424 359 366
f 366 365 424
f 359 360 366
f 424 417 359
f 489 488 417
f 488 416 417
f 487 416 488
f 487 488 566
f 565 560 566
f 560 566 561
f 211 132 133
f 211 133 212
f 133 132 212
f 212 132 211
f 296 297 360
f 359 296 360
f 359 295 296
f 358 295 359
f 290 210 211
f 210 211 291
f 290 210 291
f 295 211 217
f 295 211 291
f 295 218 296
f 217 218 295
f 290 291 295
f 290 294 295
f 211 290 291
f 211 212 217
f 217 212 218
f 412 413 484
f 483 412 484
f 566 567 657
f 650 566 656
f 657 656 566
f 561 566 650
f 650 657 651
f 656 657 650
f 649 560 650
f 561 560 650
f 353 412 354
f 354 412 413
f 413 483 484
f 413 412 483
f 480 410 413
f 480 413 484
f 651 643 650
f 644 643 651
f 650 643 561
f 474 406 408
f 474 408 477
f 477 408 410
f 477 410 480
f 643 558 561
f 557 560 558
f 558 560 561
f 477 480 554
f 557 554 480
f 413 410 351
f 560 557 480
f 480 484 560
f 274 278 347
f 345 274 347
f 338 343 398
f 398 343 402
f 345 347 404
f 343 345 404
f 402 343 404
f 338 263 343
f 343 263 270
f 343 270 274
f 343 274 345
f 404 347 406
f 264 271 263
f 200 201 206
f 206 201 129
f 129 201 126
f 125 124 198
f 197 124 198
f 122 123 126
f 201 122 126
f 123 127 126
f 195 191 196
f 195 190 191
f 191 119 122
f 196 191 122
f 123 119 120
f 119 123 122
f 191 115 119
f 186 115 191
f 119 115 120
f 115 116 120
f 190 186 191
f 190 185 186
f 275 190 195
f 274 275 279
f 278 274 279
f 275 195 279
f 275 271 185
f 275 185 190
f 270 271 274
f 271 275 274
f 263 271 270
f 415 357 416
f 357 358 416
f 290 294 357
f 294 295 358
f 357 294 358
f 416 358 417
f 417 358 359
f 354 357 413
f 415 413 357
f 354 290 357
f 468 471 544
f 544 471 547
f 413 351 354
f 205 200 206
f 205 206 211
f 211 206 212
f 201 195 196
f 201 196 122
f 297 218 219
f 296 218 297
f 468 404 471
f 468 402 404
f 471 406 474
f 471 404 406
f 195 201 200
f 766 582 671
f 102 73 107
f 107 73 75
f 76 75 107
f 76 107 110
f 73 102 75
f 75 102 107
f 73 75 76
f 107 75 110
f 76 77 110
f 114 110 77
f 75 76 110
f 118 114 188
f 76 110 114
f 77 76 114
f 198 193 194
f 193 188 189
f 193 189 194
f 188 183 189
f 183 184 189
f 189 184 272
f 184 268 272
f 114 183 188
f 120 116 117
f 120 117 121
f 123 121 124
f 120 121 123
f 121 187 192
f 121 117 187
f 124 121 192
f 197 193 198
f 124 192 197
f 192 193 197
f 113 182 117
f 117 182 187
f 187 117 118
f 188 187 118
f 192 187 188
f 193 192 188
f 102 163 170
f 107 102 170
f 117 113 114
f 117 114 118
f 100 91 160
f 91 150 160
f 233 234 312
f 311 233 312
f 179 180 186
f 185 179 186
f 186 180 111
f 186 111 115
f 116 112 113
f 116 113 117
f 159 100 160
f 149 159 160
f 150 149 160
f 235 148 149
f 234 148 235
f 246 235 323
f 235 313 323
f 235 234 245
f 235 245 246
f 234 235 313
f 312 234 313
f 263 178 179
f 263 179 264
f 159 91 100
f 90 91 100
f 159 149 90
f 159 90 100
f 271 264 179
f 185 271 179
f 161 160 167
f 160 166 167
f 746 810 816
f 757 746 816
f 758 757 817
f 817 757 816
f 810 746 757
f 810 757 816
f 746 735 810
f 735 804 810
f 724 798 804
f 735 724 804
f 745 735 746
f 745 734 735
f 757 746 758
f 816 757 758
f 816 758 817
f 746 747 758
f 798 724 799
f 724 725 799
f 825 773 826
f 825 772 773
f 773 826 774
f 772 824 825
f 739 729 740
f 728 729 739
f 748 749 760
f 760 749 761
f 749 750 761
f 738 739 749
f 749 739 750
f 739 727 728
f 738 727 739
f 759 748 760
f 738 737 727
f 737 726 727
f 748 737 738
f 748 738 749
f 761 762 773
f 770 758 771
f 758 759 771
f 758 817 759
f 748 747 737
f 758 747 759
f 747 748 759
f 746 736 747
f 746 735 736
f 747 736 737
f 736 735 804
f 804 805 736
f 798 799 804
f 804 799 805
f 725 799 726
f 737 736 726
f 736 799 725
f 736 725 726
f 736 805 799
f 740 730 741
f 729 730 740
f 718 728 717
f 728 718 729
f 763 752 764
f 764 752 753
f 751 752 763
f 762 751 763
f 774 773 762
f 730 731 742
f 741 730 742
f 771 759 772
f 772 761 773
f 772 759 760
f 772 760 761
f 68 67 95
f 67 94 95
f 67 66 94
f 66 93 94
f 447 516 517
f 157 243 158
f 244 158 243
f 244 243 321
f 244 321 322
f 69 68 95
f 69 95 96
f 72 71 99
f 71 98 99
f 71 70 98
f 70 97 98
f 69 96 97
f 70 69 97
f 158 98 157
f 98 158 99
f 64 63 90
f 64 90 91
f 92 64 91
f 66 65 92
f 64 92 65
f 66 92 93
f 141 139 227
f 139 225 227
f 141 227 143
f 143 227 229
f 70 58 59
f 70 59 71
f 48 36 83
f 36 24 83
f 24 81 83
f 23 11 12
f 23 12 24
f 47 48 60
f 59 47 60
f 23 24 36
f 35 23 36
f 35 36 47
f 47 36 48
f 71 59 60
f 71 60 72
f 48 85 87
f 60 48 87
f 72 60 99
f 99 60 87
f 308 228 306
f 142 228 144
f 144 228 230
f 230 228 308
f 228 226 306
f 306 226 304
f 228 140 226
f 142 140 228
f 613 536 537
f 536 463 544
f 544 463 468
f 596 597 605
f 604 596 696
f 696 596 686
f 595 603 685
f 674 585 595
f 674 595 685
f 603 595 604
f 595 596 604
f 685 603 695
f 596 605 604
f 685 695 696
f 685 696 686
f 779 684 778
f 684 685 779
f 508 519 584
f 584 519 594
f 509 508 519
f 520 509 519
f 508 509 520
f 519 508 520
f 508 507 519
f 685 686 779
f 779 686 780
f 379 380 438
f 437 379 438
f 379 312 380
f 312 313 380
f 436 437 506
f 506 437 507
f 672 673 683
f 673 683 684
f 766 671 672
f 610 605 611
f 613 545 619
f 613 537 545
f 537 544 545
f 537 536 544
f 548 544 547
f 619 625 626
f 620 619 626
f 620 613 619
f 614 613 620
f 619 545 625
f 625 545 548
f 545 544 548
f 696 609 604
f 603 604 609
f 603 609 608
f 695 603 696
f 603 604 696
f 306 230 308
f 228 230 306
f 142 85 144
f 144 85 87
f 144 87 146
f 226 142 228
f 226 140 142
f 682 517 593
f 764 754 765
f 763 764 776
f 775 763 776
f 777 764 765
f 776 764 777
f 775 762 763
f 774 762 775
f 48 47 59
f 48 59 60
f 764 753 754
f 821 815 768
f 756 809 745
f 756 745 746
f 756 746 757
f 815 809 756
f 770 769 758
f 769 757 758
f 768 756 769
f 756 757 769
f 768 815 756
f 735 723 724
f 734 723 735
f 809 803 734
f 809 734 745
f 808 802 809
f 802 803 809
f 734 797 723
f 803 797 734
f 824 770 771
f 824 823 770
f 229 307 231
f 231 307 309
f 231 145 143
f 231 143 229
f 582 504 580
f 504 582 506
f 430 428 500
f 500 428 498
f 434 432 504
f 432 502 504
f 504 578 580
f 502 578 504
f 432 430 502
f 430 500 502
f 502 500 576
f 498 576 500
f 576 498 574
f 820 815 821
f 814 815 820
f 822 769 823
f 823 769 770
f 822 821 769
f 821 768 769
f 755 819 766
f 755 813 819
f 755 744 813
f 813 744 807
f 819 813 814
f 819 814 820
f 807 808 814
f 814 813 807
f 814 808 809
f 814 809 815
f 808 807 801
f 801 802 808
f 84 143 145
f 86 84 145
f 84 82 141
f 84 141 143
f 671 669 755
f 671 755 766
f 671 580 669
f 580 667 669
f 580 578 667
f 582 580 671
f 578 502 576
f 576 667 578
f 576 665 667
f 576 574 663
f 576 663 665
f 227 225 305
f 225 303 305
f 229 227 307
f 227 305 307
f 12 81 24
f 81 12 79
f 48 83 85
f 666 664 732
f 666 732 743
f 732 742 743
f 731 742 732
f 721 731 732
f 743 742 754
f 754 742 753
f 232 230 310
f 310 230 308
f 306 304 308
f 85 83 142
f 83 81 140
f 142 83 140
f 79 138 81
f 81 138 140
f 322 244 232
f 232 310 322
f 158 146 244
f 146 232 244
f 99 87 146
f 99 146 158
f 146 144 232
f 232 144 230
f 232 244 310
f 308 310 377
f 308 377 375
f 310 322 389
f 377 310 389
f 433 435 505
f 503 433 505
f 433 375 435
f 375 377 435
f 146 158 232
f 232 158 244
f 310 244 322
f 87 99 158
f 87 158 146
f 302 369 304
f 304 371 306
f 308 306 375
f 375 306 373
f 304 369 371
f 306 371 373
f 389 377 435
f 389 435 447
f 322 310 377
f 389 322 377
f 435 433 503
f 435 503 505
f 435 505 517
f 447 435 517
f 377 375 433
f 435 377 433
f 369 429 371
f 373 429 431
f 373 371 429
f 429 369 427
f 230 144 146
f 230 146 232
f 308 230 232
f 308 232 310
f 662 721 664
f 664 721 732
f 720 731 721
f 670 682 777
f 668 670 765
f 754 668 765
f 765 670 777
f 682 581 593
f 670 581 682
f 501 503 579
f 577 501 579
f 499 501 575
f 575 501 577
f 497 499 573
f 573 499 575
f 575 577 666
f 664 575 666
f 662 732 721
f 743 664 666
f 732 664 743
f 666 577 579
f 579 581 668
f 666 579 668
f 666 668 754
f 743 666 754
f 662 664 732
f 573 575 664
f 662 573 664
f 729 718 719
f 729 719 730
f 730 719 720
f 730 720 731
f 375 373 433
f 373 431 433
f 429 499 431
f 431 499 501
f 431 501 503
f 429 497 499
f 431 503 433
f 226 224 304
f 224 302 304
f 373 306 308
f 373 308 375
f 304 306 373
f 224 140 226
f 226 140 304
f 371 304 373
f 505 435 447
f 505 447 517
f 581 505 517
f 581 517 593
f 503 505 581
f 503 581 579
f 377 389 447
f 377 447 435
f 731 720 732
f 720 721 732
f 48 60 85
f 85 60 87
f 81 36 83
f 81 24 36
f 668 754 670
f 670 754 765
f 668 743 754
f 666 743 668
f 497 575 499
f 497 573 575
f 503 501 577
f 503 577 579
f 224 138 140
f 505 593 517
f 593 505 581
f 581 668 670
f 670 765 682
f 682 765 777
f 429 427 497
f 140 138 226
f 138 224 226
f 427 429 499
f 497 427 499
f 501 429 431
f 499 429 501
f 819 767 820
f 819 766 767
f 598 606 688
f 827 774 775
f 828 827 775
f 827 773 774
f 826 773 827
f 773 678 679
f 678 677 689
f 677 688 689
f 599 678 689
f 677 588 598
f 677 598 688
f 598 588 599
f 588 589 599
f 674 685 686
f 675 674 686
f 595 585 586
f 595 586 596
f 685 769 779
f 685 674 769
f 770 769 779
f 770 779 780
f 674 685 684
f 674 684 673
f 768 778 769
f 769 778 779
f 780 675 686
f 686 770 780
f 686 675 770
f 770 675 780
f 586 675 596
f 596 675 686
f 675 586 676
f 676 586 587
f 782 781 780
f 781 686 780
f 687 686 781
f 688 783 689
f 688 782 783
f 771 677 772
f 771 676 677
f 676 587 588
f 676 588 677
f 785 691 786
f 786 691 692
f 692 691 785
f 692 785 786
f 380 439 438
f 691 680 775
f 691 775 785
f 691 690 784
f 691 784 785
f 690 679 774
f 690 774 784
f 689 783 690
f 690 783 784
f 599 589 678
f 766 672 767
f 389 447 517
f 782 687 688
f 686 687 688
f 781 687 782
f 687 781 688
f 688 781 782
f 688 689 690
f 325 248 324
f 248 247 252
f 261 252 253
f 253 248 252
f 253 252 328
f 164 249 165
f 98 99 157
f 157 99 158
f 322 243 244
f 243 322 321
f 242 325 248
f 242 320 325
f 242 248 320
f 320 248 325
f 242 247 248
f 157 164 165
f 156 164 157
f 74 73 103
f 102 73 103
f 73 74 102
f 102 74 103
f 150 91 92
f 150 92 151
f 90 63 91
f 63 64 91
f 91 64 65
f 91 65 92
f 316 237 238
f 237 316 315
f 382 315 316
f 383 382 316
f 439 380 381
f 441 383 442
f 383 384 442
f 384 316 317
f 316 384 383
f 381 382 439
f 440 439 382
f 236 151 237
f 150 151 236
f 88 61 62
f 88 62 89
f 439 440 510
f 439 510 509
f 587 511 512
f 442 513 512
f 513 442 443
f 513 443 444
f 514 513 444
f 239 154 240
f 445 386 387
f 386 445 444
f 386 319 387
f 319 320 387
f 319 318 241
f 240 241 318
f 443 385 386
f 444 443 386
f 445 450 522
f 515 445 522
f 445 515 450
f 450 515 522
f 70 71 97
f 247 241 242
f 96 70 97
f 96 69 70
f 156 97 104
f 156 104 164
f 96 97 155
f 155 97 156
f 95 163 102
f 74 69 103
f 103 69 96
f 96 95 103
f 95 102 103
f 163 95 154
f 319 241 320
f 242 241 320
f 681 592 593
f 152 93 94
f 152 94 153
f 95 68 102
f 239 153 154
f 68 73 102
f 92 93 152
f 92 152 151
f 442 384 385
f 442 385 443
f 151 152 238
f 152 239 238
f 152 153 239
f 171 109 172
f 171 108 109
f 164 171 248
f 248 171 253
f 165 249 254
f 165 254 172
f 253 171 254
f 254 171 172
f 109 165 172
f 109 105 165
f 235 150 236
f 588 587 512
f 602 593 592
f 592 601 602
f 681 593 682
f 516 517 593
f 592 516 593
f 249 164 248
f 97 71 98
f 99 98 72
f 98 71 72
f 164 108 171
f 164 104 108
f 101 95 102
f 94 95 101
f 162 153 101
f 153 94 101
f 154 153 163
f 154 163 162
f 153 162 163
f 162 101 102
f 162 102 163
f 90 62 63
f 89 62 90
f 235 149 150
f 98 105 104
f 104 97 98
f 104 105 108
f 109 108 105
f 73 68 69
f 73 69 74
f 254 249 248
f 248 253 254
f 105 98 157
f 105 157 165
f 621 627 628
f 616 621 622
f 622 621 628
f 616 615 621
f 627 633 628
f 628 633 634
f 623 622 628
f 623 628 629
f 615 616 702
f 617 616 623
f 616 622 623
f 549 546 630
f 624 630 546
f 630 624 629
f 624 623 629
f 466 467 542
f 542 467 543
f 546 618 624
f 618 617 623
f 618 623 624
f 546 542 618
f 467 466 470
f 466 469 470
f 469 466 546
f 466 542 546
f 654 647 653
f 647 646 653
f 409 479 482
f 411 409 482
f 640 646 641
f 646 647 641
f 641 635 640
f 635 634 640
f 641 647 648
f 559 556 648
f 556 642 648
f 642 641 648
f 636 641 642
f 641 636 635
f 552 636 556
f 556 636 642
f 478 556 559
f 479 481 482
f 481 479 478
f 478 559 481
f 486 482 481
f 486 481 485
f 485 481 559
f 485 559 563
f 559 648 563
f 648 655 563
f 648 654 655
f 647 654 648
f 411 486 414
f 411 482 486
f 699 697 611
f 697 606 611
f 606 697 688
f 607 599 698
f 698 599 689
f 689 697 698
f 688 697 689
f 653 646 652
f 646 645 652
f 633 639 634
f 634 639 640
f 640 639 646
f 646 639 645
f 633 634 705
f 462 535 461
f 461 535 534
f 526 461 534
f 526 453 461
f 461 453 462
f 453 454 462
f 527 526 534
f 534 535 527
f 462 454 535
f 527 535 454
f 479 409 476
f 407 476 409
f 407 405 476
f 405 346 344
f 344 403 405
f 346 405 348
f 348 405 407
f 472 469 549
f 549 469 546
f 476 473 472
f 476 472 475
f 403 401 467
f 403 467 470
f 344 342 401
f 344 401 403
f 473 470 472
f 470 469 472
f 403 470 405
f 405 470 473
f 405 473 476
f 268 342 341
f 269 342 268
f 268 262 269
f 269 262 342
f 337 336 262
f 342 262 337
f 342 337 341
f 336 341 337
f 522 521 527
f 521 526 527
f 454 450 527
f 450 522 527
f 644 651 652
f 645 644 652
f 639 638 644
f 645 639 644
f 633 632 638
f 639 633 638
f 273 272 268
f 281 277 346
f 281 346 348
f 276 277 281
f 280 276 281
f 268 269 273
f 344 273 269
f 344 269 342
f 277 273 344
f 272 273 277
f 276 272 277
f 276 277 346
f 277 344 346
f 356 411 414
f 352 411 356
f 348 407 350
f 350 407 409
f 284 285 350
f 284 281 285
f 284 280 281
f 288 284 352
f 352 284 350
f 288 352 289
f 280 281 348
f 285 281 350
f 350 281 348
f 352 350 409
f 352 409 411
f 479 476 478
f 475 478 476
f 478 475 556
f 552 556 475
f 552 475 476
f 476 553 552
f 634 705 706
f 549 636 552
f 549 630 636
f 630 629 635
f 636 630 635
f 475 472 552
f 472 549 552
f 700 607 698
f 698 607 612
f 612 616 617
f 612 611 616
f 612 607 700
f 700 699 611
f 611 612 700
f 700 698 697
f 697 699 700
f 621 615 702
f 621 702 704
f 702 615 704
f 615 621 704
f 701 614 615
f 701 615 702
f 621 614 620
f 614 621 615
f 702 616 703
f 534 461 466
f 626 625 631
f 626 631 632
f 629 634 635
f 620 626 621
f 621 626 627
f 629 628 634
f 627 626 633
f 626 632 633
f 733 663 722
f 665 663 733
f 667 733 744
f 665 733 667
f 669 667 744
f 669 744 755
f 711 790 795
f 722 711 795
f 744 733 807
f 733 801 807
f 733 722 801
f 801 722 795
f 500 432 502
f 430 432 500
f 68 57 69
f 46 33 34
f 45 33 46
f 29 17 18
f 29 18 30
f 31 32 44
f 43 31 44
f 32 33 44
f 44 33 45
f 54 42 43
f 54 43 55
f 28 16 29
f 29 16 17
f 40 41 52
f 52 41 53
f 53 41 42
f 53 42 54
f 29 30 41
f 41 30 42
f 40 39 27
f 40 27 28
f 29 40 28
f 40 29 41
f 15 16 28
f 27 15 28
f 56 43 44
f 55 43 56
f 55 56 68
f 67 55 68
f 51 39 52
f 39 40 52
f 808 803 809
f 808 802 803
f 796 797 803
f 797 796 802
f 802 796 803
f 803 797 802
f 791 792 796
f 796 792 797
f 810 815 816
f 810 809 815
f 817 758 818
f 810 816 817
f 811 810 817
f 818 758 759
f 812 811 818
f 811 817 818
f 713 714 724
f 797 723 724
f 792 712 713
f 713 792 793
f 714 713 793
f 714 793 794
f 723 712 713
f 723 713 724
f 797 712 723
f 792 712 797
f 724 714 725
f 726 725 715
f 725 714 715
f 817 822 823
f 822 817 816
f 758 823 771
f 758 817 823
f 815 821 816
f 816 821 822
f 814 813 820
f 813 819 820
f 807 813 808
f 808 813 814
f 773 772 826
f 772 825 826
f 807 801 744
f 733 744 801
f 807 744 755
f 807 755 813
f 795 722 733
f 795 733 801
f 790 722 795
f 711 722 790
f 796 795 801
f 796 801 802
f 791 796 797
f 792 791 797
f 790 795 796
f 791 790 796
f 730 729 741
f 729 740 741
f 748 812 818
f 737 806 812
f 737 726 800
f 737 800 806
f 727 715 726
f 716 715 727
f 714 794 715
f 727 717 728
f 727 716 717
f 748 737 812
f 715 794 725
f 794 799 725
f 759 748 818
f 726 716 727
f 726 715 716
f 774 826 827
f 802 795 796
f 795 802 801
f 750 749 760
f 750 760 761
f 739 738 750
f 738 749 750
f 719 730 731
f 720 719 731
f 728 727 738
f 728 738 739
f 804 809 810
f 800 805 806
f 726 799 800
f 799 805 800
f 797 804 798
f 797 803 804
f 793 799 794
f 793 798 799
f 792 798 793
f 797 798 792
f 809 804 803
f 736 747 811
f 747 746 810
f 811 747 810
f 746 747 811
f 747 736 805
f 811 747 805
f 805 736 811
f 810 746 811
f 805 736 806
f 806 737 748
f 806 748 812
f 737 736 806
f 804 735 805
f 735 736 805
f 805 736 737
f 805 737 806
f 764 775 776
f 765 764 776
f 765 776 777
f 763 774 775
f 763 762 774
f 764 763 775
f 746 804 810
f 746 735 804
f 748 747 811
f 748 811 812
f 772 760 771
f 760 759 771
f 761 774 762
f 761 773 774
f 22 35 34
f 22 23 35
f 23 10 11
f 22 10 23
f 8 7 20
f 20 7 19
f 22 21 34
f 21 33 34
f 23 34 35
f 23 22 34
f 21 20 33
f 20 32 33
f 11 24 12
f 8 20 21
f 20 19 31
f 32 20 31
f 9 21 10
f 10 21 22
f 11 23 24
f 36 35 48
f 35 47 48
f 9 8 21
f 58 57 70
f 70 57 69
f 56 69 57
f 47 58 59
f 434 504 506
f 311 231 309
f 311 309 376
f 311 376 378
f 376 434 378
f 378 434 436
f 436 434 506
f 32 21 33
f 30 31 42
f 42 31 43
f 19 6 7
f 18 6 19
f 30 18 31
f 31 18 19
f 21 32 20
f 16 4 17
f 17 4 5
f 17 5 6
f 17 6 18
f 322 158 244
f 58 70 71
f 59 58 71
f 60 59 72
f 59 71 72
f 14 25 26
f 3 15 16
f 14 26 27
f 15 14 27
f 26 25 38
f 25 37 38
f 27 38 39
f 27 26 38
f 37 49 38
f 38 49 50
f 38 50 39
f 50 51 39
f 50 49 62
f 14 13 25
f 88 145 147
f 147 231 233
f 145 231 147
f 233 231 311
f 53 52 64
f 53 64 65
f 52 51 64
f 51 63 64
f 51 50 63
f 50 62 63
f 49 61 62
f 53 65 54
f 54 65 66
f 46 57 58
f 45 57 46
f 56 68 69
f 55 67 56
f 56 67 68
f 55 54 66
f 55 66 67
f 45 44 56
f 45 56 57
f 47 46 58
f 43 42 55
f 42 54 55
f 5 17 18
f 6 5 18
f 582 436 506
f 60 72 87
f 87 72 99
f 30 29 42
f 42 29 41
f 40 39 51
f 40 51 52
f 40 52 53
f 41 40 53
f 28 40 41
f 29 28 41
f 17 28 29
f 17 16 28
f 4 3 16
f 338 398 399
f 339 338 399
f 392 452 456
f 451 452 392
f 451 392 455
f 455 392 456
f 452 455 456
f 452 451 455
f 390 327 392
f 330 326 331
f 326 331 327
f 327 331 392
f 392 339 399
f 459 458 531
f 459 531 532
f 524 523 528
f 392 457 393
f 392 456 457
f 333 393 394
f 332 393 333
f 393 457 458
f 394 393 458
f 541 540 617
f 540 616 617
f 542 617 618
f 542 541 617
f 538 537 614
f 537 613 614
f 539 538 614
f 529 524 528
f 530 538 539
f 531 530 539
f 457 530 458
f 458 530 531
f 539 614 615
f 457 456 464
f 464 537 530
f 457 464 530
f 456 455 528
f 528 529 456
f 537 538 530
f 399 398 464
f 398 463 464
f 392 464 456
f 392 399 464
f 536 528 455
f 455 463 536
f 529 528 537
f 528 536 537
f 455 456 464
f 463 455 464
f 464 456 529
f 529 537 464
f 611 606 607
f 341 400 401
f 342 341 401
f 541 532 540
f 533 532 541
f 465 533 541
f 460 533 465
f 533 460 541
f 460 532 533
f 533 459 532
f 467 466 543
f 466 542 543
f 400 466 467
f 401 400 467
f 400 397 466
f 466 397 461
f 466 465 542
f 465 541 542
f 461 397 460
f 461 460 466
f 260 259 335
f 259 334 335
f 260 335 267
f 340 267 335
f 268 267 340
f 341 268 340
f 340 335 341
f 396 335 395
f 334 395 335
f 336 335 397
f 341 336 397
f 341 397 400
f 335 336 341
f 397 335 396
f 261 268 341
f 336 261 341
f 396 459 460
f 396 395 459
f 397 396 460
f 167 168 175
f 174 167 175
f 175 176 182
f 181 175 182
f 181 180 258
f 181 258 175
f 259 175 258
f 176 175 259
f 266 182 259
f 176 259 182
f 170 163 169
f 177 176 182
f 183 266 267
f 177 182 183
f 182 266 183
f 267 266 259
f 259 260 267
f 183 176 177
f 176 183 182
f 113 182 183
f 113 112 182
f 112 181 182
f 180 257 258
f 180 265 257
f 169 106 107
f 169 107 170
f 162 102 170
f 162 170 169
f 162 169 163
f 258 333 259
f 259 333 334
f 170 169 177
f 177 169 176
f 258 332 333
f 258 257 332
f 111 180 112
f 112 180 181
f 173 174 180
f 179 173 180
f 173 179 264
f 183 267 184
f 184 267 268
f 113 183 114
f 330 255 338
f 255 263 338
f 326 250 330
f 250 255 330
f 250 255 256
f 255 330 256
f 256 250 251
f 256 330 331
f 263 255 264
f 255 256 264
f 611 607 612
f 532 531 540
f 540 539 615
f 531 539 615
f 531 539 540
f 540 615 616
f 330 338 339
f 331 339 392
f 264 256 257
f 256 331 257
f 331 332 257
f 264 331 256
f 331 264 339
f 331 392 332
f 392 393 332
f 264 256 339
f 256 331 339
f 331 330 339
f 459 533 460
f 460 465 466
f 256 173 264
f 179 264 180
f 180 264 265
f 265 264 257
f 334 333 395
f 333 394 395
f 395 394 458
f 395 458 459
f 667 669 755
f 667 755 744
f 711 661 663
f 711 663 722
f 722 663 665
f 722 665 733
f 376 378 436
f 434 376 436
f 376 374 309
f 374 307 309
f 301 370 303
f 305 372 374
f 305 303 372
f 303 370 372
f 307 305 374
f 301 368 370
f 372 370 428
f 372 428 430
f 374 372 430
f 374 430 432
f 376 374 432
f 370 368 426
f 426 428 370
f 376 432 434
f 372 374 432
f 372 432 430
f 370 303 305
f 370 305 372
f 372 307 374
f 305 307 372
f 496 426 498
f 498 426 428
f 574 661 663
f 496 572 498
f 498 572 574
f 574 572 661
f 82 84 143
f 141 82 143
f 139 80 82
f 139 82 141
f 225 223 139
f 137 139 223
f 223 225 301
f 78 1 13
f 78 13 80
f 13 25 82
f 80 13 82
f 37 82 25
f 137 78 80
f 137 80 139
f 82 37 84
f 223 137 301
f 80 84 82
f 80 78 139
f 139 78 137
f 225 301 303
f 2 14 3
f 3 14 15
f 2 1 13
f 2 13 14
f 13 80 25
f 25 80 82
f 61 49 86
f 61 86 88
f 49 37 86
f 37 84 86
f 576 578 665
f 665 578 667
f 498 430 500
f 498 428 430
f 663 574 665
f 665 574 576
f 661 572 663
f 496 498 574
f 572 496 574
f 663 572 574
f 88 86 145
f 1 2 14
f 13 1 14
f 2 3 15
f 14 2 15
f 580 502 504
f 502 580 578
f 434 374 376
f 374 434 432
f 504 434 436
f 504 436 506
f 580 582 669
f 580 506 582
f 669 582 671
f 580 504 506
f 368 370 428
f 368 428 426
f 145 147 233
f 231 145 233
f 84 37 49
f 49 86 84
f 49 61 88
f 86 49 88
f 147 88 233
f 143 84 86
f 143 86 145
f 54 55 67
f 66 54 67
f 63 51 52
f 63 52 64
f 49 50 61
f 61 50 62
f 225 139 141
f 225 141 227
f 15 4 16
f 15 3 4
f 305 227 229
f 307 305 229
f 303 225 227
f 303 227 305
f 26 27 39
f 26 39 38
f 51 38 39
f 38 51 50
f 26 14 15
f 26 15 27
