v -4.553269 0.187421 -3.409623 0.0082 0.0506 0.0531
v -4.646331 0.022748 -2.381880 0.0197 0.3004 0.3367
v -4.651436 0.031063 -0.845825 0.0254 0.3099 0.3772
v -4.607306 0.082486 0.429406 0.0090 0.1897 0.2361
v -4.594053 0.098801 0.769777 0.0295 0.2150 0.2484
v -4.526030 0.016807 1.752459 0.0210 0.1286 0.1511
v -4.667927 0.558344 -3.489015 0.0310 0.0892 0.0957
v -4.667096 0.557519 -3.264913 0.0943 0.3311 0.3859
v -4.668992 0.338457 -0.872205 0.1757 0.3667 0.4123
v -4.729032 0.559082 0.046131 0.2590 0.2531 0.3300
v -4.728437 0.527359 1.693479 0.1963 0.2181 0.2868
v -4.727358 0.541860 1.749873 0.1713 0.1290 0.1871
v -4.668397 0.618328 -3.497919 0.3324 0.4982 0.5727
v -4.666779 0.763021 -3.248603 0.4823 0.6641 0.7319
v -4.720275 0.819137 -0.862154 0.4301 0.5882 0.6531
v -4.728879 0.844846 -0.185027 0.3748 0.3123 0.3996
v -4.729087 0.834338 1.576529 0.5843 0.3601 0.4756
v -4.727814 0.615491 1.743556 0.6073 0.1900 0.3283
v -4.667290 1.021755 -3.557287 0.3205 0.4554 0.5443
v -4.728298 0.991102 -2.257582 0.5282 0.6094 0.6761
v -4.719597 1.124588 -0.848080 0.3347 0.1758 0.2110
v -4.728700 0.970336 0.307324 0.4174 0.1937 0.2603
v -4.729004 1.122364 1.272180 0.5100 0.3512 0.4774
v -4.727745 0.870141 1.747949 0.3919 0.3012 0.4742
v -4.667594 1.391974 -3.526495 0.5046 0.3227 0.4350
v -4.728049 1.142962 -2.365550 0.7074 0.3066 0.3515
v -4.721838 1.303888 -0.897768 0.6033 0.0684 0.0961
v -4.729032 1.380852 0.296944 0.1431 0.1536 0.2144
v -4.728409 1.407550 0.438679 0.4617 0.3688 0.4967
v -4.728423 1.210121 1.712783 0.3215 0.3651 0.5315
v -4.728174 1.586026 -3.391077 0.6198 0.2693 0.3268
v -4.728423 1.419000 -2.615254 0.7509 0.2314 0.2556
v -4.720648 1.680289 -0.874012 0.5432 0.1409 0.1624
v -4.728146 1.435647 0.430515 0.5285 0.1759 0.1973
v -4.728188 1.424728 0.572250 0.5993 0.3050 0.4053
v -4.727551 1.615029 1.726138 0.3168 0.3939 0.5396
v -4.727967 1.968359 -3.539480 0.7706 0.1128 0.1687
v -4.727980 1.712405 -2.127529 0.8089 0.1666 0.1995
v -4.720717 1.778507 -0.862154 0.4566 0.2902 0.3705
v -4.728049 1.706573 -0.562353 0.3846 0.1113 0.1506
v -4.728409 1.728841 0.480961 0.4492 0.2743 0.3635
v -4.152219 1.795767 2.860295 0.4322 0.2601 0.3651
v -4.727828 2.000643 -3.549861 0.7787 0.0888 0.1955
v -4.728409 2.248368 -2.687978 0.7234 0.1510 0.2184
v -4.728229 2.205727 -1.980603 0.2247 0.1248 0.1815
v -4.728658 2.129199 0.431992 0.1837 0.1617 0.2267
v -4.728478 2.184572 1.702383 0.6873 0.1466 0.2023
v -4.726044 2.242911 2.111999 0.1768 0.3024 0.4553
v -4.573813 2.543881 -4.198625 0.6974 0.0940 0.2239
v -4.702595 2.543911 -2.999636 0.7073 0.1599 0.2329
v -4.728409 2.514169 -2.090982 0.1852 0.1389 0.1999
v -4.729060 2.273037 0.405282 0.2642 0.1972 0.2827
v -4.728575 2.290453 1.678647 0.4118 0.2283 0.3465
v -4.727109 2.328276 2.097166 0.5041 0.1046 0.2710
v -4.129780 2.553845 -4.270105 0.6258 0.1549 0.2765
v -4.635652 2.568524 -3.324281 0.7741 0.1285 0.1880
v -4.642569 2.566650 -1.253943 0.3514 0.0805 0.1203
v -4.651298 2.562786 -0.784977 0.4363 0.1609 0.2715
v -4.685302 2.552295 1.132486 0.4761 0.1372 0.2729
v -4.702097 2.544256 1.832999 0.5705 0.0615 0.2311
v -4.089910 2.878042 -4.312891 0.7664 0.1189 0.2050
v -4.727095 2.832887 -3.204065 0.7875 0.1378 0.1892
v -4.727690 2.829002 -2.109838 0.4253 0.0795 0.1115
v -4.724826 3.017792 -0.826520 0.4039 0.0846 0.1627
v -4.727773 2.830698 0.896993 0.6313 0.0774 0.2060
v -4.089122 3.105548 2.886150 0.6079 0.0319 0.2012
v -4.182322 3.112879 -4.310481 0.7315 0.1473 0.2085
v -4.727551 3.130351 -3.279025 0.7788 0.1324 0.1706
v -4.727745 3.274837 -1.904553 0.4071 0.0633 0.0837
v -4.724010 3.127217 -0.790906 0.3305 0.0529 0.0888
v -4.727856 3.161647 0.573923 0.5563 0.0716 0.1630
v -4.081458 3.149632 2.885703 0.6590 0.0990 0.1781
v -4.244188 3.373526 3.162623 0.5000 0.5000 0.5000
v -4.093867 3.453520 -4.305718 0.7667 0.0996 0.1508
v -4.728879 3.654878 -2.292824 0.8050 0.1008 0.1275
v -4.728879 3.654908 -0.949710 0.7560 0.1246 0.1421
v -4.939559 3.637436 -0.514861 0.3681 0.3488 0.4153
v -4.729364 3.655050 1.666770 0.5625 0.3460 0.4128
v -4.252295 3.405067 2.882593 0.5159 0.2827 0.3845
v -4.156383 3.481397 3.139004 0.2678 0.4192 0.5023
v -4.668770 3.703887 -4.157023 0.8075 0.3994 0.4258
v -4.117593 3.847173 -2.125486 0.8248 0.4560 0.4711
v -4.049792 3.852583 -1.140900 0.7338 0.6866 0.7111
v -4.125021 3.932789 0.320565 0.6242 0.7506 0.7905
v -4.091363 3.937309 0.599720 0.5692 0.6861 0.7324
v -4.660926 3.815804 2.727269 0.6148 0.7335 0.7800
v -4.737581 3.718683 2.999660 0.4618 0.6377 0.7126
v -3.848049 0.009939 -4.281537 0.0071 0.0059 0.0069
v -4.028653 0.010025 2.699701 0.0160 0.1694 0.1937
v -3.739272 0.559000 -4.331750 0.0627 0.0900 0.1028
v -3.779404 0.325647 2.888617 0.3233 0.1485 0.2417
v -3.126795 0.808167 -4.326170 0.2322 0.3432 0.3893
v -4.003309 0.820043 2.899018 0.6338 0.1239 0.2813
v -3.455991 0.653561 3.074307 0.5000 0.5000 0.5000
v -3.126283 0.897085 -4.326073 0.3213 0.4192 0.5345
v -3.332646 1.125909 2.892661 0.3207 0.2412 0.4199
v -3.126463 1.134479 -4.326326 0.4074 0.3947 0.4911
v -4.022317 1.340145 2.892603 0.1433 0.3110 0.4988
v -3.126269 1.503048 -4.326267 0.5265 0.2812 0.3741
v -4.022317 1.655901 2.889027 0.1749 0.3231 0.4939
v -3.582656 1.976406 -4.524300 0.4456 0.3241 0.4378
v -3.526420 1.796531 2.858798 0.1716 0.3275 0.4949
v -3.671720 2.252470 -4.525058 0.5146 0.1973 0.3511
v -4.022317 1.981211 2.887841 0.2575 0.2658 0.4453
v -3.713388 2.543760 -4.299945 0.3129 0.2641 0.4372
v -3.278790 2.542857 2.853297 0.3020 0.2195 0.4079
v -3.728702 2.551937 -4.279475 0.2092 0.3266 0.5190
v -3.530156 2.547032 2.841963 0.5470 0.0552 0.2371
v -3.880006 2.858454 -4.312444 0.2591 0.2756 0.4588
v -3.177400 2.827944 2.869451 0.6150 0.0122 0.1852
v -3.802632 3.115353 -4.309762 0.3735 0.1954 0.3643
v -3.499499 3.117585 2.884129 0.4406 0.1056 0.2962
v -3.460252 3.298880 3.125551 0.0071 0.0073 0.0138
v -4.013865 3.408034 -4.305174 0.2541 0.4120 0.5551
v -3.810033 3.396830 2.880785 0.2553 0.2050 0.4131
v -3.393392 3.396131 3.127146 0.1766 0.3526 0.4324
v -3.165600 3.876090 -3.397529 0.6793 0.5942 0.6512
v -3.147698 3.903911 -2.541887 0.8119 0.8194 0.8193
v -3.139370 3.911820 -2.099146 0.8042 0.8235 0.8353
v -4.018402 3.860267 -0.827258 0.8005 0.8135 0.8210
v -3.891364 3.958645 0.499916 0.8029 0.8233 0.8388
v -3.931220 3.836980 2.391389 0.7900 0.8174 0.8376
v -3.168325 3.738179 3.171877 0.3283 0.5233 0.6097
v -3.140601 3.999758 0.380828 0.8038 0.8164 0.8239
v -3.181135 4.000000 0.456138 0.8126 0.8167 0.8157
v -3.149040 3.960445 1.743966 0.8171 0.8171 0.8131
v -3.067557 0.009792 -4.364642 0.0065 0.0042 0.0073
v -3.041632 0.010651 2.777694 0.0964 0.3360 0.4182
v -2.338736 0.010525 2.992095 0.2515 0.3881 0.4517
v -2.577512 0.553729 -4.332896 0.0904 0.1262 0.1399
v -3.119311 0.323009 2.879325 0.2691 0.1728 0.2763
v -2.399523 0.451716 3.002476 0.1273 0.2528 0.3355
v -2.476122 0.816745 -4.329280 0.2365 0.3405 0.3801
v -2.480950 0.784115 2.851896 0.4713 0.1093 0.2511
v -2.397946 0.782466 3.020284 0.0215 0.1232 0.2178
v -2.476122 1.124588 -4.329241 0.3026 0.4612 0.5258
v -2.433873 1.112724 2.835256 0.2691 0.1781 0.3605
v -2.400450 1.125084 3.002477 0.0137 0.1922 0.3412
v -2.478225 1.395354 -4.330602 0.2449 0.3953 0.4648
v -2.422917 1.357945 2.835567 0.1112 0.2468 0.4103
v -2.401667 1.283865 2.990599 0.0087 0.2180 0.3780
v -2.474006 1.663646 -4.331341 0.2840 0.5023 0.6079
v -2.233265 1.551729 2.955433 0.1816 0.2852 0.4325
v -2.226818 1.689493 3.352063 0.0319 0.1785 0.2943
v -2.459217 1.695451 -4.331652 0.3035 0.5389 0.6370
v -2.239532 1.965721 2.956658 0.1827 0.3300 0.4857
v -2.228022 1.737376 3.293822 0.0166 0.1046 0.1827
v -2.514138 2.234669 -4.331185 0.2281 0.4932 0.6260
v -2.241648 2.002305 2.957280 0.2068 0.2977 0.4367
v -2.401889 2.159769 2.998026 0.0073 0.1699 0.3054
v -3.123558 2.532367 -4.502644 0.2737 0.5037 0.6364
v -2.226860 2.480054 2.955919 0.2389 0.2874 0.4449
v -2.401598 2.336393 2.997268 0.0054 0.2224 0.3950
v -3.121538 2.549895 -4.514696 0.4481 0.2132 0.3713
v -2.218642 2.629198 2.954500 0.3940 0.1351 0.2793
v -2.401902 2.575142 2.987626 0.0063 0.1756 0.3069
v -2.260656 2.988210 -4.314233 0.3157 0.2737 0.4518
v -2.928940 2.841375 2.885159 0.3253 0.0457 0.1505
v -2.398043 2.894689 3.032143 0.0045 0.1583 0.2751
v -2.245882 3.128538 -4.313202 0.2382 0.2662 0.4357
v -3.114109 3.372973 2.883759 0.1506 0.0475 0.1205
v -2.400727 3.256048 3.007669 0.0117 0.1077 0.1857
v -2.733962 3.441169 -4.489035 0.2719 0.4825 0.6240
v -3.118259 3.397486 2.882554 0.0206 0.0276 0.0580
v -2.399426 3.592938 3.011382 0.0599 0.2166 0.3039
v -2.991511 3.880477 -3.391075 0.5891 0.7567 0.8212
v -2.423899 3.915606 -2.150739 0.8125 0.8328 0.8437
v -2.381594 3.937071 -0.901810 0.8057 0.8155 0.8210
v -2.338528 3.955100 0.359930 0.8054 0.8247 0.8360
v -2.234053 3.959120 0.745188 0.8016 0.8313 0.8566
v -3.124817 3.957717 1.868380 0.7927 0.8176 0.8361
v -2.226860 3.784983 3.092154 0.4589 0.5376 0.5838
v -2.459466 3.960428 0.355615 0.8164 0.8164 0.8136
v -2.267975 3.967495 0.977474 0.8132 0.8229 0.8278
v -2.222903 3.999512 1.758546 0.8036 0.8190 0.8299
v -2.188844 0.101521 -4.392519 0.0043 0.0030 0.0060
v -1.850877 0.252478 2.955724 0.2622 0.3737 0.4325
v -1.569574 0.208710 3.266624 0.3452 0.5225 0.6009
v -1.318583 0.524311 -4.259920 0.1375 0.1911 0.2116
v -1.896585 0.522640 2.953216 0.1844 0.3196 0.4136
v -1.807258 0.550784 3.441311 0.2572 0.4210 0.5036
v -1.349211 0.843197 -4.330719 0.3789 0.5458 0.6017
v -2.128901 0.774578 2.953605 0.3654 0.4430 0.4973
v -1.816610 0.653513 3.450311 0.0871 0.1965 0.3159
v -1.346043 1.089817 -4.331788 0.2783 0.4007 0.4472
v -2.217411 0.979320 2.955024 0.3106 0.3865 0.4354
v -1.730354 0.846530 3.404628 0.0686 0.1569 0.2360
v -1.348146 1.359590 -4.332604 0.3456 0.5155 0.5820
v -1.983947 1.411505 2.952128 0.2368 0.3051 0.3593
v -2.083179 1.133783 3.216334 0.0653 0.1639 0.2460
v -2.007188 1.694130 -4.334393 0.3735 0.5347 0.5976
v -1.859330 1.668011 2.953742 0.2272 0.2613 0.3265
v -1.828106 1.416539 3.313397 0.0706 0.2131 0.3514
v -2.019860 1.746538 -4.334393 0.6062 0.2681 0.3601
v -1.768592 1.953853 2.901546 0.2568 0.3267 0.4045
v -1.843489 1.697800 3.474942 0.1006 0.1706 0.2839
v -2.178814 2.205006 -4.332565 0.4858 0.4550 0.5471
v -1.773032 2.257413 2.922813 0.2409 0.3602 0.4561
v -1.687261 1.978677 3.429706 0.0161 0.1487 0.2608
v -2.171814 2.540535 -4.305543 0.3784 0.5086 0.6194
v -1.774789 2.543337 2.931231 0.1972 0.2922 0.3751
v -1.383990 2.387932 3.015522 0.0135 0.1741 0.2960
v -1.941712 2.797456 -4.315944 0.3213 0.4162 0.5644
v -1.593217 2.740929 2.634424 0.2560 0.3465 0.4485
v -1.797048 2.700192 3.256750 0.0706 0.2524 0.3735
v -1.504457 3.100852 -4.314796 0.4696 0.2165 0.3810
v -1.498177 3.056828 2.648207 0.2392 0.1565 0.2439
v -1.884674 2.828341 3.287077 0.2968 0.4167 0.4988
v -1.346306 3.133645 -4.313241 0.3236 0.2301 0.3856
v -1.740605 3.111018 2.943887 0.0640 0.0642 0.0970
v -1.740661 3.198365 3.245437 0.1034 0.3284 0.4934
v -1.990338 3.406721 -4.477371 0.3600 0.4993 0.6296
v -1.496005 3.429788 2.942370 0.0227 0.0253 0.0462
v -1.322650 3.647879 3.228058 0.0909 0.2385 0.3330
v -1.327436 3.868151 -3.415550 0.5266 0.7277 0.8076
v -1.998749 3.908306 -2.130735 0.8153 0.8212 0.8203
v -1.975591 3.923912 -0.928384 0.8162 0.8273 0.8338
v -1.795582 3.927159 -0.478042 0.8154 0.8299 0.8383
v -1.627802 3.939649 0.470990 0.8163 0.8248 0.8275
v -1.598930 3.950947 1.721027 0.7240 0.7373 0.7449
v -2.176172 3.789503 3.116784 0.7209 0.7698 0.7866
v -1.993534 3.960691 1.059218 0.8153 0.8241 0.8271
v -2.187225 3.999823 1.782087 0.7735 0.7963 0.8114
v -1.276333 0.088996 -4.401791 0.0052 0.0042 0.0052
v -0.967944 0.269285 2.920868 0.5807 0.6850 0.7342
v -0.862320 0.218860 2.986361 0.6054 0.7252 0.7843
v -1.149599 0.502642 -4.258889 0.2256 0.3068 0.3353
v -1.031304 0.386292 2.889220 0.5166 0.6055 0.6493
v -1.046673 0.324330 3.008405 0.4693 0.5617 0.6087
v -1.267881 0.796312 -4.328250 0.4600 0.6447 0.7074
v -1.018286 0.563615 2.895227 0.5255 0.6314 0.6805
v -1.230210 0.685962 3.268510 0.6037 0.7212 0.7809
v -1.293225 1.084377 -4.330330 0.4553 0.6316 0.6996
v -1.077773 0.866186 2.882028 0.4445 0.5491 0.6021
v -1.306132 1.018910 3.286531 0.5000 0.5000 0.5000
v -1.293225 1.164143 -4.330058 0.4544 0.6202 0.6859
v -1.168842 1.390903 2.854054 0.4597 0.5612 0.6147
v -1.267881 1.690176 -4.329610 0.4522 0.6274 0.6944
v -1.162368 1.682266 2.800070 0.4700 0.5784 0.6401
v -1.303794 1.778507 -4.333304 0.4723 0.5770 0.6505
v -1.161552 1.954928 2.798457 0.4037 0.5224 0.6026
v -0.457286 2.240688 -4.333634 0.5313 0.4147 0.5014
v -1.167722 2.251809 2.842177 0.4476 0.5623 0.6385
v -0.408050 2.274388 -4.333498 0.4444 0.4054 0.5173
v -0.405007 2.391641 2.914143 0.2764 0.3879 0.4614
v -1.242537 2.525705 3.088227 0.0216 0.0458 0.0488
v -1.162271 2.544701 -4.299750 0.3897 0.3932 0.5104
v -0.475934 2.819270 2.911791 0.2757 0.3961 0.4670
v -1.200287 2.544222 3.092853 0.3477 0.4685 0.5244
v -0.925985 3.015970 -4.314641 0.3248 0.3071 0.4413
v -0.580063 3.105574 2.562944 0.1933 0.2532 0.2892
v -0.408327 2.834489 3.310968 0.3603 0.5048 0.5736
v -0.691760 3.128538 -4.313416 0.2181 0.3762 0.5393
v -0.414511 3.121859 2.610941 0.0607 0.0874 0.1144
v -0.985139 3.306293 3.215636 0.5467 0.6900 0.7919
v -0.409240 3.456486 -4.311083 0.3405 0.4661 0.5902
v -0.924103 3.409929 2.939766 0.0324 0.0535 0.0766
v -0.466071 3.509278 3.281226 0.1080 0.1615 0.2319
v -0.834860 3.835011 -3.904578 0.4964 0.6887 0.7663
v -1.205309 3.868125 -2.173036 0.8126 0.8153 0.8139
v -1.239770 3.912403 -0.847164 0.8101 0.8290 0.8413
v -1.288480 3.927548 0.049282 0.8187 0.8266 0.8343
v -1.273151 3.933246 1.050762 0.8206 0.8218 0.8249
v -0.436867 3.835905 2.668075 0.7216 0.7316 0.7370
v -1.233157 3.722551 3.225764 0.4616 0.5403 0.5823
v -0.336487 0.091319 -4.400819 0.0060 0.0052 0.0071
v -0.354582 0.269782 2.923143 0.5964 0.7257 0.7803
v 0.473278 0.255176 2.988752 0.6067 0.7257 0.7844
v 0.058643 0.480560 -4.256440 0.2459 0.3385 0.3702
v -0.364874 0.395358 2.923220 0.5884 0.7274 0.7797
v 0.405048 0.531313 2.988091 0.6063 0.7252 0.7871
v 0.100878 0.838828 -4.328814 0.4623 0.6392 0.7012
v 0.274095 0.571524 2.922268 0.5926 0.7126 0.7727
v 0.383938 0.570536 2.987586 0.6041 0.7223 0.7839
v 0.075534 1.124588 -4.329553 0.4576 0.6376 0.7031
v -0.366465 1.115029 2.918419 0.5944 0.7101 0.7733
v 0.075534 1.272247 -4.329300 0.4632 0.6418 0.7085
v 0.471009 1.210527 2.919275 0.5832 0.6983 0.7611
v 0.075534 1.450231 -4.328736 0.4618 0.6348 0.6983
v -0.001563 1.440344 2.916242 0.5877 0.7047 0.7678
v 0.075534 1.747526 -4.329844 0.4609 0.6530 0.7134
v -0.359603 1.783122 2.916398 0.5797 0.6985 0.7638
v 0.491124 2.021422 -4.332973 0.5557 0.4242 0.5013
v 0.000028 2.255107 2.914065 0.5778 0.7003 0.7659
v -0.334771 2.263677 -4.333537 0.4917 0.4440 0.5326
v 0.477401 2.542184 2.913405 0.5548 0.6789 0.7439
v -0.148371 2.544330 -4.299031 0.2973 0.2975 0.3805
v -0.021623 2.779327 2.913094 0.4254 0.5330 0.5846
v -0.001771 2.806595 3.269756 0.5712 0.6915 0.7451
v -0.402904 3.100890 -4.314097 0.2595 0.3899 0.4822
v 0.392376 3.105531 2.564324 0.3517 0.4419 0.4839
v 0.404260 3.049683 3.122208 0.3765 0.5550 0.6252
v -0.340581 3.163473 -4.313086 0.2279 0.5115 0.6578
v -0.057536 3.110898 2.576183 0.0434 0.0527 0.0653
v 0.005741 3.389137 3.224325 0.4183 0.6936 0.8125
v -0.030075 3.430449 -4.517126 0.2905 0.5887 0.7204
v 0.203333 3.403587 2.941010 0.0448 0.0677 0.0902
v -0.055876 3.467918 3.226988 0.2830 0.4576 0.5744
v -0.361706 3.838672 -3.496439 0.4864 0.7156 0.8044
v -0.384117 3.839571 -3.314036 0.8173 0.8203 0.8174
v -0.400262 3.932159 -1.288078 0.8157 0.8219 0.8239
v 0.273569 3.872960 0.354817 0.8180 0.8280 0.8369
v 0.108279 3.865064 1.702015 0.8161 0.8264 0.8362
v 0.353835 3.793380 2.977751 0.7519 0.7728 0.7884
v 0.388157 3.785535 3.004636 0.3844 0.5273 0.6017
v 1.364041 0.275550 -4.161632 0.0069 0.0050 0.0076
v 0.740387 0.133658 2.924834 0.6014 0.7248 0.7867
v 1.208781 0.270602 2.986925 0.6076 0.7275 0.7908
v 1.114779 0.512857 -4.261203 0.3259 0.4504 0.4953
v 0.624734 0.288730 2.924212 0.5929 0.7242 0.7848
v 1.211949 0.523076 2.988577 0.6070 0.7258 0.7920
v 1.130633 0.843115 -4.332177 0.4626 0.6352 0.6975
v 0.637406 0.570868 2.923123 0.5970 0.7250 0.7868
v 0.851806 0.831579 2.986342 0.6043 0.7231 0.7893
v 1.173933 1.070536 -4.332546 0.4572 0.6388 0.7031
v 1.338683 0.883326 2.839668 0.5973 0.7177 0.7832
v 0.907779 1.119316 2.986342 0.6000 0.7220 0.7886
v 0.525460 1.360911 -4.334062 0.4396 0.6123 0.6748
v 1.342917 1.137773 2.839416 0.5897 0.7149 0.7784
v 1.199277 1.301086 2.986284 0.5991 0.7230 0.7893
v 0.578929 1.694381 -4.334354 0.4251 0.5919 0.6500
v 1.101318 1.661008 2.920169 0.5890 0.7131 0.7770
v 1.008644 1.966710 -4.334198 0.4248 0.5987 0.6607
v 0.916232 1.819875 2.918167 0.5887 0.7138 0.7785
v 0.581433 2.009887 -4.332954 0.4038 0.5911 0.6834
v 1.402057 2.032975 2.868090 0.5882 0.7153 0.7807
v 1.195058 2.481540 -4.332371 0.4442 0.4910 0.5905
v 1.342917 2.287405 2.838464 0.5807 0.7058 0.7703
v 1.345020 2.544364 -4.299109 0.2533 0.4503 0.5481
v 1.351355 2.590965 2.839359 0.4793 0.5955 0.6488
v 1.385152 2.843767 -4.315127 0.1682 0.3118 0.4002
v 1.283762 3.067889 2.524687 0.3176 0.3998 0.4401
v 1.296932 3.047581 3.125143 0.3652 0.5759 0.6492
v 0.583550 3.128538 -4.314369 0.1952 0.4537 0.5922
v 0.694707 3.114222 2.586369 0.0456 0.0543 0.0667
v 1.388126 3.153431 3.214158 0.0801 0.4328 0.6333
v 1.402057 3.441324 -4.517456 0.2744 0.5507 0.6706
v 1.062901 3.405357 2.940038 0.1343 0.2271 0.2836
v 0.570974 3.563857 3.235134 0.1582 0.4355 0.5916
v 0.574627 3.836035 -3.849310 0.6208 0.7612 0.8161
v 1.390049 3.864939 -2.205073 0.8213 0.8267 0.8277
v 1.324960 3.886020 -0.839894 0.8188 0.8286 0.8319
v 1.408532 3.878318 0.415489 0.8197 0.8284 0.8335
v 1.365618 3.878301 0.482265 0.8103 0.8321 0.8490
v 0.905483 3.790884 2.978820 0.8263 0.8333 0.8378
v 1.321792 3.700718 3.304612 0.4783 0.6826 0.7762
v 2.307181 0.031646 -4.355680 0.0075 0.0050 0.0065
v 2.242755 0.266937 2.930122 0.5999 0.7258 0.7857
v 1.746360 0.251818 2.995517 0.6112 0.7300 0.7930
v 1.410510 0.485421 -4.258403 0.1565 0.2101 0.2313
v 1.742141 0.554389 2.928858 0.6000 0.7284 0.7903
v 2.272318 0.551091 2.996295 0.6088 0.7272 0.7931
v 1.427401 0.781810 -4.255001 0.4883 0.6603 0.7183
v 1.428467 0.785764 2.844839 0.5959 0.7277 0.7887
v 2.272318 0.568230 2.996042 0.6035 0.7243 0.7904
v 1.503447 1.069219 -4.333149 0.4488 0.6231 0.6809
v 2.069539 1.127226 2.926040 0.5878 0.7253 0.7833
v 1.820290 1.108933 2.991863 0.6021 0.7237 0.7889
v 2.269676 1.373763 -4.333868 0.4269 0.5941 0.6539
v 2.060034 1.409402 2.924465 0.5913 0.7236 0.7887
v 2.179381 1.406725 2.990347 0.5980 0.7196 0.7835
v 2.116007 1.439684 -4.333907 0.4279 0.5924 0.6515
v 2.215419 1.681709 2.922716 0.5879 0.7240 0.7897
v 1.427401 1.622282 2.987683 0.5957 0.7167 0.7830
v 2.133175 1.946686 -4.333615 0.4044 0.5548 0.6121
v 2.289224 1.960199 2.920130 0.5928 0.7208 0.7870
v 1.427401 1.759394 2.987022 0.5968 0.7183 0.7852
v 2.293969 1.978574 -4.333343 0.3639 0.5845 0.6903
v 2.310349 2.047900 2.920597 0.5903 0.7197 0.7852
v 2.304012 2.149304 2.987451 0.5935 0.7173 0.7822
v 2.280771 2.261368 -4.259102 0.4329 0.4580 0.5541
v 1.609057 2.262356 2.921802 0.5806 0.7136 0.7753
v 2.279720 2.407049 2.987684 0.5898 0.7133 0.7776
v 1.489724 2.561405 -4.245086 0.2837 0.4363 0.5643
v 2.272318 2.554380 2.921142 0.5211 0.6429 0.6967
v 2.289224 2.583384 2.986576 0.5874 0.7111 0.7720
v 1.828742 2.860574 -4.315263 0.1114 0.2423 0.3193
v 2.196286 2.966731 2.818441 0.2951 0.3679 0.4015
v 1.433738 3.029659 3.137526 0.0980 0.1238 0.1471
v 1.849867 3.392215 -4.309548 0.1225 0.2757 0.3642
v 1.487607 3.114205 2.586428 0.0412 0.0499 0.0618
v 1.498121 3.148237 3.215208 0.6776 0.7526 0.7847
v 1.437971 3.433083 -4.517631 0.2145 0.4241 0.5151
v 2.130796 3.655849 2.984652 0.1329 0.2119 0.2560
v 2.296334 3.614183 3.261183 0.1858 0.4977 0.6668
v 1.424206 3.862698 -3.841029 0.6183 0.7649 0.8228
v 2.272318 3.861524 -2.240881 0.8176 0.8336 0.8424
v 2.280771 3.887984 -0.882934 0.8200 0.8290 0.8328
v 2.280771 3.888252 -0.808712 0.8160 0.8334 0.8460
v 1.532762 3.877614 0.454991 0.8128 0.8304 0.8443
v 1.423182 3.841707 2.920462 0.8078 0.8287 0.8414
v 2.272318 3.679624 3.318394 0.6914 0.7914 0.8419
v 2.479332 0.275550 -4.160116 0.0072 0.0057 0.0073
v 3.056573 0.274518 2.929363 0.6039 0.7264 0.7784
v 2.317473 0.136292 2.994623 0.6072 0.7266 0.7865
v 2.351436 0.430604 -4.261222 0.2761 0.3667 0.3999
v 3.170317 0.549523 2.929539 0.6037 0.7396 0.7949
v 2.377679 0.503342 2.995634 0.6078 0.7279 0.7915
v 2.517348 0.737644 -4.260444 0.4877 0.6619 0.7182
v 3.210450 0.567241 2.928916 0.5917 0.7268 0.7834
v 2.859534 0.845420 2.991571 0.6045 0.7245 0.7898
v 2.446587 1.115526 -4.334374 0.4808 0.6611 0.7207
v 3.175062 1.128378 2.923221 0.5794 0.7230 0.7790
v 2.581013 1.115370 2.989822 0.5980 0.7199 0.7828
v 2.360843 1.409009 -4.333810 0.4773 0.6502 0.7109
v 3.156276 1.401450 2.981132 0.5804 0.7223 0.7855
v 3.203505 1.406725 3.037877 0.5628 0.6802 0.7399
v 2.725938 1.466153 -4.333751 0.4486 0.6163 0.6762
v 3.156870 1.445615 2.984651 0.5843 0.7256 0.7922
v 3.220590 1.641663 3.037974 0.5084 0.6147 0.6709
v 2.881724 1.806824 -4.289545 0.4189 0.5816 0.6421
v 3.222264 1.708338 2.958796 0.5908 0.7189 0.7825
v 3.210657 1.697981 3.025980 0.5935 0.7176 0.7841
v 2.681310 2.046428 -4.257255 0.3329 0.5283 0.6283
v 3.051759 2.047546 2.920850 0.5644 0.6954 0.7582
v 3.195924 2.047460 2.988053 0.5921 0.7159 0.7807
v 2.437415 2.268064 -4.259180 0.2080 0.5026 0.6659
v 2.339912 2.291359 2.922483 0.5106 0.6468 0.7115
v 3.196975 2.304877 2.987820 0.5891 0.7134 0.7758
v 2.770830 2.667100 -4.319074 0.2696 0.4543 0.6040
v 2.614519 2.544489 2.920150 0.3885 0.4869 0.5349
v 2.978494 2.553310 2.986984 0.5853 0.7224 0.7890
v 3.147740 2.914009 -4.314000 0.1426 0.3673 0.4972
v 2.776101 2.968406 2.770950 0.2010 0.2525 0.2815
v 2.850570 3.109633 3.145924 0.0522 0.0698 0.0891
v 3.107732 3.122934 -4.311822 0.0237 0.0392 0.0588
v 3.193282 3.148233 2.813407 0.0372 0.0458 0.0578
v 2.886995 3.111398 3.146702 0.7326 0.7883 0.8065
v 3.134667 3.603157 -4.306651 0.1359 0.2589 0.3159
v 2.713792 3.630843 2.945345 0.0582 0.0808 0.0993
v 2.516186 3.649421 3.287019 0.7132 0.8091 0.8365
v 2.343620 3.829710 -4.035174 0.6172 0.7576 0.8121
v 2.386782 3.865509 -2.114503 0.8167 0.8295 0.8374
v 2.914456 3.888662 -0.929667 0.8208 0.8285 0.8310
v 2.747326 3.887250 -0.548258 0.8225 0.8262 0.8307
v 2.778619 3.867015 0.500072 0.8183 0.8272 0.8328
v 3.091892 3.813598 2.765021 0.7988 0.8260 0.8439
v 2.737891 3.680457 3.301948 0.6982 0.8088 0.8521
v 3.446764 0.275550 -4.159513 0.0072 0.0072 0.0086
v 3.353812 0.117343 2.930218 0.5808 0.7034 0.7554
v 4.101172 0.000000 2.990754 0.5584 0.6736 0.7297
v 3.370718 0.425843 -4.261300 0.2877 0.3862 0.4260
v 3.483189 0.560485 2.929189 0.5971 0.7237 0.7789
v 4.061039 0.319055 2.988344 0.6015 0.7200 0.7832
v 3.372295 0.573834 -4.260444 0.4746 0.6539 0.7130
v 3.852324 0.820043 2.897444 0.5817 0.7115 0.7704
v 3.488999 0.839570 2.989549 0.5937 0.7113 0.7763
v 3.382338 0.852691 -4.259764 0.4730 0.6443 0.7040
v 3.877668 1.111407 2.899854 0.5650 0.6980 0.7579
v 3.227078 0.911012 2.990327 0.5566 0.6835 0.7469
v 3.693896 1.161505 -4.260094 0.4682 0.6446 0.7055
v 3.969208 1.400133 2.818440 0.5174 0.6474 0.7046
v 3.570067 1.405940 3.038246 0.4465 0.5647 0.6266
v 3.396062 1.425182 -4.261046 0.4506 0.6198 0.6793
v 3.971864 1.678312 2.794685 0.3970 0.5064 0.5568
v 3.425376 1.579019 3.036225 0.4444 0.5640 0.6256
v 3.256656 1.806854 -4.289642 0.3579 0.5646 0.6558
v 3.976360 1.968359 2.711580 0.5013 0.6331 0.6966
v 3.554490 1.695451 3.034942 0.5049 0.6275 0.6926
v 3.258496 2.123927 -4.259452 0.3554 0.5382 0.6169
v 3.972570 2.184244 2.741265 0.5273 0.6572 0.7217
v 3.345374 2.047460 2.987548 0.5389 0.6638 0.7283
v 3.543464 2.263509 -4.332740 0.2429 0.5001 0.6339
v 3.973179 2.309078 2.735336 0.4357 0.5793 0.6496
v 3.384579 2.272842 2.988053 0.5213 0.6597 0.7317
v 4.081901 2.544420 -4.299206 0.1338 0.4100 0.5694
v 3.973012 2.580090 2.735336 0.3471 0.4581 0.5157
v 4.060748 2.675013 2.988773 0.5189 0.6571 0.7306
v 4.063543 2.833220 -4.313805 0.0903 0.2911 0.4216
v 3.224962 2.966990 2.806564 0.1647 0.2229 0.2587
v 4.060375 2.887932 2.989278 0.4885 0.6340 0.7036
v 3.314745 3.130183 -4.311842 0.0797 0.3170 0.4739
v 3.983278 3.142837 2.731565 0.0409 0.0506 0.0657
v 3.241521 3.177094 3.121197 0.6286 0.7141 0.7374
v 3.663530 3.414134 -4.306301 0.2348 0.3759 0.5037
v 3.423523 3.655905 2.972794 0.1543 0.2079 0.2369
v 3.514620 3.532733 3.233948 0.5507 0.7089 0.7584
v 3.464983 3.816780 -4.216295 0.6051 0.5575 0.6132
v 4.110025 3.877226 -2.358122 0.8170 0.8249 0.8285
v 4.039790 3.886145 -0.846192 0.8161 0.8379 0.8537
v 3.296456 3.886253 -0.427440 0.8175 0.8284 0.8343
v 3.742481 3.867378 0.479485 0.8168 0.8263 0.8328
v 4.099456 3.816810 2.696749 0.7839 0.7918 0.7975
v 3.819579 3.745527 3.198315 0.5996 0.7436 0.7952
v 4.490228 0.270274 -4.158969 0.3865 0.0037 0.0670
v 4.758125 0.272912 -2.113261 0.7628 0.0009 0.1044
v 4.757198 0.279504 -1.013532 0.6771 0.0058 0.0859
v 4.786886 0.195438 0.377638 0.6491 0.0062 0.0884
v 4.785655 0.200162 0.667407 0.6119 0.0051 0.0846
v 4.865574 0.195784 2.983872 0.6069 0.3806 0.4408
v 4.805147 0.274228 3.051737 0.5653 0.6761 0.7332
v 4.130610 0.400055 -4.260736 0.5968 0.5815 0.6614
v 4.780951 0.310805 -3.276791 0.6523 0.5811 0.6640
v 4.819050 0.520766 -0.838399 0.6850 0.1744 0.2586
v 4.829605 0.528019 -0.540095 0.5939 0.3496 0.4228
v 4.831556 0.349379 1.214113 0.6575 0.4967 0.5730
v 4.829550 0.522748 1.720208 0.6225 0.5662 0.6276
v 4.765803 0.554225 3.078544 0.6426 0.7367 0.7864
v 4.157615 0.805291 -4.259492 0.5821 0.6447 0.7219
v 4.832123 0.794990 -2.180036 0.6217 0.6564 0.7391
v 4.818801 0.715889 -0.838399 0.4502 0.5115 0.5722
v 4.830975 0.805542 0.420114 0.4400 0.5080 0.5626
v 4.830947 0.753730 0.437746 0.6170 0.7279 0.8053
v 4.528258 0.845748 2.746960 0.6097 0.6968 0.7643
v 4.701751 0.684248 3.097926 0.5640 0.6834 0.7559
v 4.832414 1.030014 -3.533551 0.5121 0.5369 0.6066
v 4.832234 1.003299 -2.132545 0.5705 0.4353 0.5107
v 4.818898 0.902443 -0.838399 0.5247 0.4449 0.4996
v 4.830256 1.045487 0.420114 0.4325 0.4389 0.4888
v 4.830228 0.878547 0.823431 0.5480 0.5584 0.6061
v 4.519805 1.088331 2.750090 0.5134 0.5307 0.5838
v 4.651326 0.861899 3.108268 0.5573 0.6763 0.7384
v 4.832967 1.373763 -3.397006 0.4616 0.5615 0.6265
v 4.832442 1.354072 -2.189309 0.5277 0.3290 0.3875
v 4.831930 1.397115 -1.527112 0.6165 0.4988 0.5653
v 4.830186 1.152296 -0.229000 0.6419 0.6538 0.7301
v 4.830186 1.141192 0.532165 0.4593 0.4501 0.4911
v 4.528258 1.369809 2.746960 0.4993 0.5131 0.5498
v 4.775141 1.131275 3.314330 0.5020 0.5793 0.6402
v 4.832262 1.675674 -3.400719 0.4610 0.5288 0.6004
v 4.832400 1.452169 -2.187268 0.6630 0.2798 0.2957
v 4.832303 1.426171 -1.926988 0.3946 0.3766 0.4296
v 4.830076 1.418093 0.066718 0.5465 0.5245 0.5805
v 4.828541 1.415295 1.660840 0.5250 0.4663 0.5017
v 4.386721 1.654580 2.745230 0.4808 0.4732 0.5129
v 4.988642 1.657986 3.003313 0.4534 0.5473 0.6155
v 4.832524 1.707976 -3.391077 0.4016 0.5145 0.5822
v 4.832331 1.707976 -2.229763 0.3948 0.3860 0.4098
v 4.832110 1.705338 -1.826815 0.6087 0.5535 0.4758
v 4.816837 1.705999 -0.814662 0.3794 0.3340 0.3291
v 4.830657 1.699816 0.564086 0.4329 0.3987 0.3914
v 4.378324 1.770930 2.727249 0.3780 0.4262 0.4655
v 4.991948 1.706327 2.990600 0.6177 0.7149 0.7672
v 4.228307 2.161500 -4.259296 0.4043 0.4489 0.5066
v 4.832843 2.240563 -3.117073 0.4252 0.4120 0.3832
v 4.831667 2.152438 -1.040242 0.4723 0.4588 0.3812
v 4.815924 2.039551 -0.814662 0.4810 0.4235 0.3512
v 4.892994 2.221735 1.164406 0.3428 0.3113 0.2987
v 4.390110 2.255764 2.751218 0.3718 0.4155 0.4444
v 4.722585 1.993407 3.055801 0.6000 0.7049 0.7594
v 4.890904 2.522079 -3.646340 0.4647 0.4867 0.5389
v 4.890877 2.522079 -2.510998 0.6204 0.3366 0.3082
v 4.876780 2.528503 -0.862056 0.3535 0.3732 0.3610
v 4.891403 2.510215 0.420484 0.4255 0.4228 0.3855
v 4.890918 2.519441 1.451571 0.3562 0.3393 0.3466
v 4.400334 2.412653 2.762591 0.6752 0.6621 0.6649
v 4.661618 2.270555 3.154205 0.5907 0.6955 0.7540
v 4.876835 2.806850 -3.428167 0.4518 0.4707 0.5484
v 4.879754 2.640734 -2.128831 0.8028 0.6048 0.5830
v 4.880391 2.630187 -1.069926 0.6225 0.3516 0.3371
v 4.877734 2.640734 -0.790906 0.4482 0.2317 0.2132
v 4.878177 2.650621 0.481156 0.7210 0.3330 0.2809
v 4.399338 2.551414 2.763407 0.5817 0.3792 0.3741
v 4.935810 2.651605 3.085972 0.5999 0.7060 0.7680
v 4.877361 2.861895 -3.398483 0.3502 0.3118 0.3859
v 4.877057 2.856827 -2.185226 0.6552 0.4610 0.4639
v 4.877209 2.828605 -2.018277 0.5113 0.2882 0.2776
v 4.876655 3.073825 -0.814662 0.3787 0.1576 0.1433
v 4.876392 2.854055 0.854964 0.5181 0.1317 0.0943
v 4.400168 2.904411 2.762960 0.4168 0.2463 0.2423
v 4.941053 3.044735 2.987198 0.5774 0.7304 0.8073
v 4.845874 3.116342 -4.105236 0.4226 0.3824 0.4658
v 4.876835 3.115405 -2.665019 0.8342 0.2700 0.2001
v 4.876337 3.328108 -1.510703 0.4739 0.3601 0.3671
v 4.963409 3.390903 -0.405318 0.2872 0.3521 0.3962
v 4.875106 3.390074 0.450364 0.3564 0.0968 0.0764
v 4.148041 3.143584 2.756623 0.5202 0.1930 0.1623
v 4.916788 3.116139 2.990211 0.7911 0.8464 0.8626
v 4.173386 3.608428 -4.304085 0.7290 0.1906 0.1890
v 4.840867 3.656915 -2.203790 0.6501 0.3072 0.3034
v 4.840867 3.657019 -1.924771 0.5839 0.2899 0.2946
v 4.958484 3.667756 0.426064 0.5089 0.3735 0.3965
v 4.954859 3.576567 0.582243 0.6726 0.3326 0.3077
v 4.971696 3.672375 2.000746 0.4598 0.3706 0.3757
v 4.961251 3.675195 3.045654 0.6603 0.7685 0.8008
v 4.205065 3.815199 -4.226520 0.5322 0.4422 0.4875
v 4.181838 3.874631 -2.180035 0.7035 0.2966 0.3052
v 4.144707 3.881021 -1.250987 0.6450 0.4008 0.4036
v 4.830491 3.792737 0.391267 0.7071 0.6236 0.6395
v 4.817224 3.765939 1.594610 0.7712 0.7953 0.8116
v 4.616976 3.814703 2.711581 0.7459 0.7638 0.7774
v 4.957211 3.691600 2.999349 0.6239 0.6535 0.6690
v 5.044753 0.549113 2.646281 0.5752 0.6667 0.7176
v 5.042526 0.729730 2.598790 0.5915 0.5240 0.5844
v 5.040354 2.175389 2.524939 0.8028 0.8572 0.8926
v 5.057910 2.268288 2.454353 0.8351 0.8727 0.8949
v 5.042000 2.293660 2.999095 0.8320 0.8747 0.8975
v 5.060441 2.552299 2.533862 0.8478 0.8758 0.8965
v 5.041973 3.562700 -0.425827 0.6892 0.8054 0.8709
v 5.038957 3.652741 0.504912 0.6369 0.7898 0.8689
v 5.056471 3.680535 -0.401352 0.6941 0.8118 0.8758
v 5.039372 3.701962 0.923392 0.7618 0.8203 0.8563
f 39 33 40
f 33 34 40
f 21 15 16
f 21 16 22
f 21 22 28
f 20 21 26
f 26 21 27
f 27 21 28
f 33 27 28
f 33 28 34
f 40 41 47
f 46 40 47
f 52 46 47
f 52 47 53
f 38 32 33
f 17 24 23
f 17 18 24
f 29 23 30
f 24 30 23
f 29 30 35
f 35 30 36
f 18 11 12
f 11 18 17
f 54 47 48
f 53 47 54
f 22 16 17
f 17 23 22
f 16 10 17
f 17 10 11
f 32 27 33
f 38 33 39
f 26 27 32
f 34 35 41
f 40 34 41
f 22 23 29
f 28 22 29
f 34 29 35
f 34 28 29
f 105 154 151
f 105 107 154
f 44 38 39
f 44 39 45
f 45 39 40
f 45 40 46
f 49 43 50
f 290 250 253
f 290 253 293
f 250 206 209
f 55 50 56
f 55 49 50
f 50 51 57
f 50 57 56
f 57 52 58
f 57 51 52
f 52 53 58
f 58 53 59
f 59 53 54
f 37 38 43
f 43 38 44
f 45 46 51
f 51 46 52
f 50 44 45
f 50 45 51
f 50 43 44
f 291 251 294
f 251 254 294
f 332 291 294
f 332 294 335
f 251 291 248
f 288 248 291
f 13 19 20
f 14 13 20
f 26 20 19
f 19 25 26
f 26 25 32
f 8 14 9
f 8 7 14
f 7 13 14
f 6 5 11
f 6 11 12
f 5 4 10
f 5 10 11
f 4 9 10
f 4 3 9
f 91 12 18
f 33 39 34
f 29 28 35
f 35 28 34
f 9 14 15
f 15 20 21
f 15 14 20
f 10 9 16
f 9 15 16
f 23 22 28
f 23 28 29
f 23 16 22
f 17 16 23
f 24 23 29
f 24 29 30
f 517 516 510
f 509 510 516
f 509 502 503
f 509 503 510
f 517 511 518
f 517 510 511
f 496 503 502
f 502 495 496
f 503 504 511
f 524 517 518
f 524 518 525
f 510 503 511
f 503 497 504
f 496 497 503
f 501 495 502
f 501 494 495
f 523 516 517
f 523 517 524
f 508 502 509
f 508 501 502
f 507 500 501
f 508 507 501
f 283 242 285
f 285 242 244
f 151 154 203
f 200 151 203
f 359 362 408
f 405 359 408
f 152 106 108
f 152 108 155
f 104 106 152
f 48 54 104
f 104 54 106
f 104 42 48
f 102 42 104
f 155 207 204
f 137 96 140
f 140 96 98
f 131 91 93
f 131 93 134
f 134 93 96
f 134 96 137
f 96 24 30
f 96 30 98
f 91 18 93
f 93 18 24
f 93 24 96
f 98 30 36
f 100 98 36
f 201 155 204
f 152 155 201
f 192 143 195
f 198 152 201
f 198 149 152
f 146 149 195
f 195 149 198
f 192 146 195
f 192 143 146
f 36 42 102
f 100 36 102
f 146 100 102
f 140 98 143
f 143 98 100
f 143 100 146
f 108 110 158
f 155 108 158
f 146 102 104
f 146 104 149
f 36 30 29
f 29 35 36
f 149 104 152
f 41 36 35
f 36 41 42
f 540 539 586
f 539 546 586
f 585 539 546
f 586 585 546
f 540 533 539
f 532 539 533
f 586 539 585
f 526 525 533
f 525 532 533
f 519 518 525
f 526 519 525
f 505 498 504
f 505 511 512
f 505 504 511
f 504 498 497
f 512 511 518
f 519 512 518
f 498 490 497
f 491 490 498
f 371 368 414
f 520 521 528
f 520 528 527
f 528 521 529
f 521 522 529
f 521 520 514
f 513 514 520
f 514 506 507
f 513 506 514
f 529 522 523
f 530 529 523
f 530 523 531
f 523 524 531
f 514 515 522
f 521 514 522
f 515 509 516
f 515 508 509
f 522 515 516
f 522 516 523
f 515 507 508
f 514 507 515
f 47 41 42
f 47 42 48
f 189 143 192
f 18 12 93
f 93 12 91
f 96 93 137
f 93 134 137
f 98 96 137
f 98 137 140
f 6 89 91
f 91 12 6
f 91 89 131
f 89 128 131
f 54 106 108
f 60 54 108
f 54 48 106
f 48 104 106
f 189 140 143
f 186 137 140
f 6 12 89
f 89 12 91
f 49 55 107
f 105 49 107
f 148 103 105
f 151 148 105
f 101 37 43
f 148 101 103
f 101 148 145
f 101 43 103
f 103 49 105
f 43 49 103
f 90 7 13
f 90 13 92
f 95 92 13
f 13 19 95
f 136 97 139
f 95 97 136
f 182 133 136
f 185 182 136
f 188 136 139
f 136 188 185
f 92 95 133
f 133 95 136
f 233 185 188
f 233 188 236
f 230 182 233
f 182 185 233
f 188 139 142
f 188 142 191
f 325 281 283
f 323 281 325
f 240 242 283
f 281 240 283
f 356 359 405
f 321 277 279
f 318 277 321
f 321 279 281
f 321 281 323
f 99 31 37
f 99 37 101
f 99 101 142
f 142 101 145
f 97 95 25
f 99 25 31
f 97 25 99
f 97 99 139
f 139 99 142
f 95 19 25
f 240 191 194
f 238 191 240
f 191 142 145
f 191 145 194
f 230 233 275
f 272 230 275
f 242 200 244
f 197 200 242
f 240 194 197
f 240 197 242
f 194 148 197
f 145 148 194
f 275 277 318
f 315 275 318
f 200 197 151
f 148 151 197
f 37 31 32
f 37 32 38
f 31 25 26
f 31 26 32
f 11 5 12
f 5 6 12
f 362 318 321
f 359 318 362
f 315 318 359
f 236 188 238
f 188 191 238
f 277 238 279
f 277 236 238
f 279 238 240
f 279 240 281
f 233 277 275
f 277 233 236
f 315 312 272
f 272 275 315
f 356 405 402
f 59 54 60
f 60 66 110
f 112 66 72
f 110 66 112
f 108 60 110
f 72 79 115
f 112 72 115
f 110 112 158
f 158 112 161
f 112 115 161
f 161 115 164
f 217 218 262
f 261 217 262
f 169 174 170
f 170 174 219
f 219 174 222
f 222 174 175
f 222 175 223
f 219 222 220
f 222 223 220
f 124 125 174
f 124 174 173
f 169 170 219
f 218 169 219
f 218 168 169
f 218 219 262
f 169 173 174
f 262 219 263
f 217 168 218
f 378 381 427
f 378 427 424
f 464 467 553
f 424 427 473
f 470 424 473
f 461 464 546
f 553 546 464
f 546 539 461
f 553 467 470
f 553 470 560
f 539 546 553
f 560 473 567
f 470 473 560
f 458 461 539
f 532 458 539
f 518 452 455
f 525 518 455
f 525 455 532
f 532 455 458
f 372 328 330
f 372 330 375
f 330 332 378
f 330 378 375
f 372 326 328
f 326 372 369
f 458 412 415
f 458 415 461
f 366 369 415
f 366 415 412
f 330 288 332
f 284 286 328
f 326 284 328
f 330 286 288
f 328 286 330
f 413 410 412
f 409 412 410
f 406 409 407
f 407 409 410
f 407 410 456
f 452 453 456
f 455 452 456
f 407 456 453
f 413 412 458
f 410 413 459
f 456 410 459
f 413 458 459
f 456 459 458
f 455 456 458
f 412 363 366
f 409 363 412
f 357 360 406
f 357 406 403
f 360 363 406
f 406 363 409
f 286 248 288
f 372 375 421
f 418 372 421
f 467 418 421
f 464 418 467
f 378 421 375
f 421 378 424
f 415 418 464
f 461 415 464
f 421 424 467
f 467 424 470
f 369 372 418
f 369 418 415
f 288 291 332
f 406 407 453
f 452 406 453
f 452 403 406
f 449 403 452
f 443 400 446
f 400 443 397
f 332 335 381
f 378 332 381
f 260 217 261
f 109 107 61
f 107 55 61
f 206 157 209
f 157 160 209
f 157 107 109
f 157 154 107
f 154 157 203
f 203 157 206
f 212 166 215
f 118 119 168
f 167 118 168
f 166 118 167
f 117 118 166
f 216 168 217
f 216 167 168
f 215 216 259
f 260 259 216
f 166 167 216
f 215 166 216
f 260 216 217
f 300 259 260
f 299 259 300
f 114 67 74
f 111 67 114
f 111 61 67
f 111 109 61
f 62 63 69
f 68 62 69
f 57 58 64
f 63 57 64
f 56 57 63
f 64 65 70
f 70 65 71
f 64 58 65
f 58 59 65
f 61 55 56
f 67 61 68
f 61 62 68
f 120 124 169
f 169 124 173
f 168 119 120
f 168 120 169
f 81 82 118
f 117 81 118
f 82 83 118
f 118 83 119
f 120 85 121
f 125 120 121
f 124 120 125
f 65 59 60
f 65 60 66
f 61 56 62
f 56 63 62
f 586 546 588
f 546 553 588
f 540 587 547
f 540 586 587
f 247 250 290
f 247 290 287
f 203 206 250
f 247 203 250
f 463 417 466
f 541 463 466
f 541 466 548
f 549 548 556
f 550 549 557
f 417 368 371
f 544 543 550
f 544 550 551
f 542 541 549
f 543 542 549
f 549 550 543
f 545 544 552
f 551 552 544
f 546 552 553
f 545 552 546
f 327 287 329
f 331 329 290
f 287 290 329
f 327 285 287
f 325 283 285
f 325 285 327
f 417 420 466
f 417 371 374
f 417 374 420
f 368 325 327
f 368 327 371
f 371 327 374
f 327 329 374
f 331 290 293
f 331 293 334
f 374 329 377
f 377 329 331
f 548 466 469
f 548 469 555
f 556 548 555
f 466 420 423
f 466 423 469
f 420 374 423
f 423 374 377
f 285 244 247
f 285 247 287
f 244 200 203
f 244 203 247
f 541 548 549
f 414 417 463
f 414 463 460
f 365 368 411
f 411 368 414
f 414 368 417
f 323 325 368
f 323 368 365
f 254 207 210
f 251 207 254
f 348 307 310
f 348 310 351
f 310 313 354
f 351 310 354
f 354 313 357
f 313 316 357
f 397 351 354
f 400 397 354
f 270 273 313
f 310 270 313
f 310 307 270
f 307 267 270
f 440 394 397
f 397 443 440
f 270 228 273
f 273 228 231
f 270 225 228
f 267 225 270
f 192 189 186
f 241 239 195
f 366 324 326
f 366 326 369
f 322 324 363
f 363 324 366
f 400 354 357
f 400 357 403
f 245 201 204
f 245 204 248
f 273 276 316
f 313 273 316
f 231 234 273
f 276 273 234
f 276 234 278
f 234 237 278
f 198 195 201
f 195 198 241
f 241 198 243
f 245 198 201
f 243 198 245
f 322 280 282
f 282 324 322
f 237 239 278
f 278 239 280
f 282 241 243
f 282 243 284
f 239 241 282
f 280 239 282
f 284 243 245
f 286 284 245
f 324 282 284
f 324 284 326
f 245 248 286
f 319 278 280
f 319 280 322
f 316 276 319
f 276 278 319
f 357 319 360
f 357 316 319
f 360 319 363
f 363 319 322
f 397 348 351
f 394 348 397
f 446 400 403
f 449 446 403
f 248 204 207
f 248 207 251
f 204 201 207
f 177 128 180
f 180 128 131
f 131 134 180
f 189 186 140
f 180 134 183
f 134 137 186
f 183 134 186
f 573 581 580
f 573 574 581
f 483 581 484
f 582 484 581
f 301 302 342
f 342 302 343
f 300 260 301
f 260 261 301
f 301 261 262
f 341 300 342
f 300 301 342
f 388 341 342
f 388 387 341
f 480 434 435
f 434 388 389
f 434 389 435
f 387 388 434
f 433 387 434
f 479 433 434
f 480 479 434
f 302 263 303
f 263 302 262
f 301 262 302
f 580 481 482
f 579 481 580
f 480 435 481
f 344 303 345
f 345 303 304
f 343 302 303
f 343 303 344
f 390 343 344
f 389 343 390
f 344 345 390
f 390 345 391
f 436 390 391
f 437 436 391
f 435 389 390
f 435 390 436
f 388 342 343
f 389 388 343
f 482 435 436
f 481 435 482
f 483 436 437
f 482 436 483
f 219 220 264
f 263 219 264
f 346 392 345
f 391 345 392
f 303 263 304
f 305 346 304
f 304 346 345
f 304 263 264
f 341 299 300
f 340 299 341
f 340 341 387
f 386 340 387
f 433 386 387
f 432 386 433
f 479 480 577
f 577 480 578
f 480 481 578
f 578 481 579
f 432 433 479
f 478 432 479
f 438 484 437
f 391 392 438
f 391 438 437
f 438 477 484
f 437 484 483
f 483 582 581
f 483 484 582
f 574 580 581
f 573 580 574
f 582 574 575
f 581 574 582
f 590 573 592
f 573 572 579
f 573 579 592
f 590 592 580
f 590 580 573
f 438 431 477
f 392 385 431
f 392 431 438
f 484 477 575
f 484 575 582
f 577 478 479
f 576 478 577
f 575 574 581
f 575 581 582
f 482 483 581
f 581 580 482
f 177 180 228
f 183 231 228
f 180 183 228
f 231 186 234
f 231 183 186
f 189 192 239
f 237 189 239
f 234 186 237
f 192 195 239
f 237 186 189
f 225 226 228
f 129 128 177
f 178 129 177
f 225 177 228
f 181 180 228
f 177 180 181
f 181 228 229
f 417 371 414
f 160 114 163
f 293 253 256
f 256 296 293
f 157 109 160
f 160 109 111
f 209 212 253
f 253 212 256
f 250 209 253
f 160 163 209
f 209 163 212
f 111 114 160
f 383 380 426
f 383 426 429
f 426 472 429
f 429 472 475
f 380 377 426
f 334 293 296
f 334 296 337
f 475 429 432
f 475 432 478
f 569 475 478
f 569 478 576
f 377 423 426
f 423 469 426
f 472 426 469
f 334 337 383
f 380 334 383
f 555 469 472
f 475 562 472
f 555 472 562
f 562 475 569
f 331 334 380
f 377 331 380
f 133 90 92
f 1 7 88
f 9 2 3
f 8 2 9
f 7 1 2
f 7 2 8
f 325 323 365
f 325 365 368
f 365 414 368
f 365 411 414
f 496 489 490
f 496 490 497
f 495 489 496
f 488 489 495
f 496 495 497
f 402 399 448
f 408 405 454
f 405 451 454
f 448 399 445
f 405 402 448
f 405 448 451
f 353 399 402
f 399 396 442
f 399 442 445
f 442 439 485
f 442 485 492
f 451 448 513
f 513 448 506
f 499 442 492
f 499 445 442
f 445 499 448
f 448 499 506
f 277 275 315
f 277 315 318
f 275 312 315
f 275 272 312
f 321 359 362
f 315 312 356
f 312 353 356
f 318 356 359
f 318 315 356
f 321 318 359
f 356 353 402
f 408 362 405
f 362 359 405
f 238 236 279
f 277 279 236
f 321 362 365
f 323 321 365
f 90 88 127
f 90 127 130
f 1 88 90
f 7 1 90
f 130 127 176
f 130 176 179
f 2 8 3
f 3 8 9
f 499 492 493
f 500 499 493
f 499 500 507
f 506 499 507
f 487 488 494
f 494 488 495
f 460 414 457
f 414 411 457
f 411 408 457
f 362 408 411
f 365 362 411
f 454 451 513
f 454 513 520
f 408 454 411
f 411 454 457
f 454 527 457
f 527 454 520
f 191 139 188
f 142 139 191
f 500 493 501
f 501 493 494
f 485 486 492
f 492 486 493
f 269 306 309
f 266 306 269
f 227 266 269
f 227 224 266
f 272 269 312
f 312 269 309
f 182 179 230
f 179 227 230
f 176 224 179
f 179 224 227
f 133 130 179
f 133 179 182
f 90 130 133
f 92 133 136
f 95 92 136
f 139 136 185
f 139 185 188
f 312 309 353
f 309 350 353
f 353 350 396
f 353 396 399
f 396 350 393
f 347 393 350
f 233 230 272
f 272 275 233
f 230 227 272
f 227 269 272
f 396 393 442
f 442 393 439
f 309 306 350
f 306 347 350
f 493 486 494
f 486 487 494
f 188 236 191
f 191 236 238
f 385 339 346
f 385 346 392
f 392 391 437
f 438 392 437
f 438 385 392
f 431 385 438
f 305 298 346
f 298 339 346
f 482 580 483
f 483 580 581
f 391 390 437
f 390 436 437
f 434 433 480
f 480 433 479
f 256 215 259
f 259 256 296
f 296 259 299
f 296 299 337
f 337 299 340
f 337 340 383
f 383 340 386
f 383 386 432
f 429 383 432
f 74 81 117
f 342 341 387
f 342 387 388
f 389 343 342
f 302 261 301
f 262 261 302
f 342 388 389
f 303 302 344
f 302 343 344
f 163 114 117
f 163 117 166
f 212 163 166
f 74 117 114
f 256 212 215
f 436 481 482
f 436 435 481
f 304 344 345
f 304 303 344
f 480 579 481
f 480 578 579
f 387 432 433
f 387 386 432
f 553 552 559
f 553 559 560
f 531 524 532
f 524 525 532
f 576 569 570
f 576 570 577
f 577 570 578
f 570 571 578
f 558 557 564
f 565 558 564
f 558 559 552
f 552 551 558
f 551 550 558
f 558 550 557
f 557 549 556
f 555 466 548
f 469 466 555
f 475 576 478
f 475 569 576
f 463 460 534
f 463 534 541
f 550 543 551
f 543 544 551
f 534 535 541
f 541 535 542
f 557 558 565
f 564 557 565
f 556 549 550
f 556 550 557
f 562 555 556
f 571 564 565
f 572 571 565
f 536 530 537
f 529 530 536
f 537 538 544
f 544 538 545
f 538 539 545
f 545 539 546
f 537 530 538
f 538 530 531
f 531 532 539
f 538 531 539
f 555 562 563
f 556 555 563
f 557 556 563
f 557 563 564
f 563 562 569
f 563 569 570
f 564 563 571
f 563 570 571
f 566 567 574
f 573 566 574
f 566 559 560
f 566 560 567
f 457 527 460
f 460 527 534
f 543 537 544
f 534 528 535
f 527 528 534
f 528 529 536
f 536 535 528
f 543 535 536
f 542 535 543
f 551 552 559
f 558 551 559
f 552 545 553
f 553 545 546
f 536 537 543
f 592 579 580
f 571 572 579
f 578 571 579
f 579 573 580
f 571 570 577
f 571 577 578
f 569 577 570
f 569 576 577
f 562 556 563
f 570 563 564
f 570 564 571
f 565 566 573
f 572 565 573
f 559 566 565
f 558 559 565
f 560 559 567
f 559 566 567
f 567 566 573
f 567 573 574
f 572 589 579
f 589 591 579
f 566 572 573
f 565 572 566
f 192 189 237
f 192 237 239
f 189 234 237
f 189 186 234
f 181 178 177
f 229 180 181
f 228 180 229
f 186 183 234
f 234 183 231
f 13 92 19
f 19 92 95
f 32 25 31
f 31 25 97
f 31 97 99
f 42 41 48
f 106 54 60
f 106 60 108
f 53 52 59
f 59 52 58
f 54 53 60
f 60 53 59
f 374 371 420
f 371 417 420
f 285 283 327
f 283 325 327
f 244 287 247
f 244 285 287
f 331 329 374
f 331 374 377
f 337 334 380
f 337 380 383
f 154 107 151
f 105 151 107
f 43 37 103
f 103 37 101
f 151 200 154
f 154 200 203
f 247 287 250
f 250 287 290
f 287 329 331
f 287 331 290
f 206 154 203
f 154 206 157
f 111 109 157
f 160 111 157
f 163 160 212
f 160 209 212
f 157 206 160
f 160 206 209
f 209 253 256
f 212 209 256
f 197 194 242
f 242 194 240
f 97 95 139
f 139 95 136
f 142 97 139
f 97 142 99
f 41 40 46
f 41 46 47
f 99 142 145
f 99 145 101
f 46 39 45
f 39 46 40
f 59 64 65
f 58 57 63
f 58 63 64
f 59 58 64
f 59 66 60
f 59 65 66
f 52 51 58
f 51 57 58
f 33 32 39
f 32 38 39
f 34 39 40
f 49 55 56
f 50 49 56
f 44 50 51
f 46 52 53
f 47 46 53
f 48 47 53
f 54 48 53
f 65 64 71
f 64 70 71
f 72 66 71
f 65 71 66
f 45 44 51
f 41 47 48
f 521 520 527
f 521 527 528
f 448 451 506
f 506 451 513
f 520 454 457
f 520 457 527
f 130 133 182
f 179 130 182
f 227 179 182
f 227 182 230
f 534 457 460
f 527 457 534
f 497 504 584
f 583 497 584
f 584 504 511
f 537 536 544
f 536 543 544
f 530 529 537
f 537 529 536
f 539 538 546
f 538 545 546
f 531 530 537
f 531 537 538
f 393 306 347
f 347 396 393
f 356 315 359
f 350 312 353
f 353 312 315
f 353 315 356
f 347 350 396
f 500 499 506
f 500 492 499
f 493 492 500
f 529 535 536
f 522 529 530
f 523 522 530
f 535 534 542
f 534 541 542
f 529 528 535
f 490 489 497
f 489 496 497
f 487 486 493
f 487 493 494
f 488 487 495
f 495 487 494
f 504 503 510
f 511 504 510
f 497 496 504
f 496 503 504
f 88 90 130
f 127 88 130
f 90 88 7
f 266 224 269
f 224 227 269
f 347 306 309
f 347 309 350
f 350 309 312
f 399 353 356
f 399 356 402
f 399 402 445
f 402 448 445
f 502 510 503
f 502 509 510
f 503 495 502
f 496 495 503
f 509 501 508
f 502 501 509
f 269 227 230
f 272 269 230
f 511 510 518
f 510 517 518
f 515 521 522
f 515 514 521
f 508 507 514
f 508 514 515
f 309 272 312
f 309 269 272
f 506 445 448
f 499 445 506
f 500 506 507
f 402 405 451
f 448 402 451
f 524 530 531
f 524 523 530
f 451 405 408
f 451 408 454
f 141 140 138
f 137 138 140
f 141 138 187
f 141 187 190
f 138 134 135
f 137 134 138
f 146 143 144
f 146 144 147
f 140 141 144
f 143 140 144
f 144 141 193
f 193 141 190
f 140 137 143
f 132 129 181
f 181 129 178
f 131 132 135
f 134 131 135
f 138 135 184
f 184 187 138
f 132 181 184
f 135 132 184
f 155 158 207
f 210 213 257
f 254 210 257
f 297 254 257
f 294 254 297
f 294 297 335
f 207 158 161
f 210 207 161
f 161 164 213
f 213 210 161
f 149 146 147
f 149 147 150
f 150 196 199
f 150 147 196
f 147 144 196
f 196 144 193
f 155 156 158
f 158 156 159
f 155 153 156
f 155 152 153
f 152 149 153
f 149 150 153
f 153 150 199
f 195 241 243
f 198 195 243
f 196 195 199
f 195 198 199
f 198 201 199
f 199 201 202
f 193 192 196
f 192 195 196
f 131 128 129
f 131 129 132
f 106 152 155
f 108 106 155
f 189 192 190
f 192 193 190
f 184 180 183
f 181 180 184
f 187 184 186
f 186 189 187
f 187 189 190
f 184 183 186
f 122 123 172
f 122 172 171
f 171 221 220
f 223 175 171
f 171 172 221
f 171 220 223
f 264 221 265
f 264 220 221
f 221 214 265
f 214 258 265
f 265 305 264
f 264 305 304
f 265 258 298
f 265 298 305
f 119 84 120
f 119 83 84
f 87 116 123
f 80 116 87
f 86 87 122
f 87 123 122
f 84 85 120
f 174 126 175
f 121 122 125
f 125 122 126
f 125 126 174
f 123 116 165
f 123 165 172
f 116 113 162
f 116 162 165
f 126 122 171
f 175 126 171
f 85 86 122
f 121 85 122
f 339 298 305
f 339 305 346
f 258 265 305
f 298 258 305
f 265 221 220
f 264 265 220
f 265 304 305
f 265 264 304
f 221 165 214
f 172 165 221
f 162 113 165
f 113 116 165
f 220 172 171
f 221 172 220
f 70 63 64
f 69 63 70
f 76 69 77
f 69 70 77
f 71 70 77
f 71 77 78
f 83 77 84
f 76 77 83
f 83 82 76
f 82 75 76
f 76 68 69
f 75 68 76
f 82 74 75
f 81 74 82
f 67 68 75
f 74 67 75
f 215 212 259
f 212 256 259
f 82 81 117
f 82 117 118
f 83 82 119
f 82 118 119
f 74 81 75
f 75 81 82
f 67 111 74
f 74 111 114
f 78 77 85
f 77 84 85
f 84 78 85
f 84 77 78
f 78 79 86
f 85 78 86
f 212 163 256
f 171 170 175
f 170 174 175
f 122 121 170
f 122 170 171
f 223 175 174
f 174 222 223
f 167 215 216
f 166 215 167
f 169 168 217
f 169 217 218
f 119 118 167
f 119 167 168
f 121 174 170
f 121 125 174
f 121 124 125
f 120 124 121
f 120 119 169
f 169 119 168
f 78 71 72
f 78 72 79
f 80 86 87
f 79 86 80
f 165 116 172
f 116 123 172
f 80 87 123
f 116 80 123
f 62 61 67
f 62 67 68
f 222 219 223
f 223 219 220
f 217 261 218
f 218 261 262
f 68 67 74
f 68 74 75
f 63 69 64
f 64 69 70
f 165 172 214
f 214 172 221
f 86 79 87
f 79 80 87
f 72 71 79
f 78 79 71
f 511 449 452
f 511 452 518
f 504 497 446
f 504 449 511
f 504 446 449
f 497 443 446
f 497 440 443
f 490 440 497
f 231 228 229
f 231 229 232
f 225 226 229
f 228 225 229
f 274 271 314
f 271 311 314
f 271 268 308
f 226 225 268
f 225 267 268
f 232 229 271
f 232 271 274
f 232 274 231
f 231 274 273
f 229 226 228
f 229 228 271
f 228 226 268
f 271 228 268
f 274 314 273
f 273 314 313
f 268 267 307
f 268 307 308
f 271 308 311
f 310 308 307
f 311 308 310
f 314 311 313
f 311 310 313
f 307 348 351
f 310 307 351
f 351 348 352
f 348 349 352
f 354 351 352
f 354 352 355
f 357 354 355
f 357 355 358
f 349 348 395
f 202 245 246
f 280 322 324
f 282 280 324
f 324 366 369
f 326 324 369
f 202 201 245
f 286 284 326
f 286 326 328
f 237 231 234
f 239 237 280
f 280 237 278
f 373 419 372
f 375 421 422
f 376 375 421
f 422 376 421
f 372 419 418
f 375 376 422
f 375 372 418
f 375 418 421
f 418 419 421
f 376 373 372
f 375 376 372
f 375 373 376
f 369 370 373
f 419 373 416
f 419 415 416
f 370 416 373
f 348 394 395
f 444 441 440
f 444 440 443
f 444 443 446
f 447 444 446
f 395 394 441
f 394 440 441
f 366 363 364
f 322 363 366
f 324 322 366
f 366 364 367
f 360 361 364
f 363 360 364
f 358 404 361
f 404 407 361
f 364 361 407
f 364 407 410
f 367 364 413
f 413 364 410
f 367 413 366
f 366 413 412
f 404 450 407
f 407 450 453
f 453 450 452
f 450 449 452
f 401 446 447
f 400 446 401
f 450 447 449
f 449 447 446
f 453 452 455
f 456 453 455
f 360 358 361
f 316 314 313
f 313 317 316
f 313 314 317
f 317 314 316
f 410 407 453
f 410 453 456
f 458 459 455
f 459 456 455
f 413 412 459
f 276 316 317
f 316 317 319
f 319 317 320
f 320 316 319
f 320 317 316
f 421 419 422
f 370 369 416
f 416 369 415
f 462 415 461
f 416 415 462
f 419 416 465
f 465 416 462
f 352 349 398
f 398 349 395
f 355 398 401
f 352 398 355
f 398 395 444
f 444 395 441
f 354 355 400
f 355 401 400
f 369 366 367
f 412 366 367
f 415 412 461
f 461 412 458
f 316 357 360
f 319 316 360
f 357 358 360
f 401 398 444
f 447 401 444
f 404 447 450
f 404 401 447
f 358 355 401
f 401 404 358
f 355 354 401
f 354 400 401
f 586 553 546
f 547 546 554
f 546 553 554
f 547 586 546
f 586 588 553
f 554 553 560
f 561 554 560
f 587 586 547
f 547 540 554
f 560 567 568
f 561 560 568
f 476 473 474
f 476 474 477
f 567 473 476
f 567 476 574
f 512 519 526
f 512 505 519
f 519 526 533
f 257 258 298
f 297 257 298
f 335 297 338
f 381 335 384
f 335 338 384
f 338 339 384
f 384 339 385
f 381 384 430
f 427 381 430
f 338 297 298
f 338 298 339
f 213 214 257
f 257 214 258
f 441 440 490
f 441 490 491
f 159 156 208
f 208 156 205
f 156 153 205
f 153 202 205
f 153 199 202
f 161 159 162
f 161 158 159
f 159 208 211
f 159 211 162
f 161 162 165
f 165 162 211
f 165 211 214
f 164 161 165
f 246 248 249
f 246 245 248
f 477 474 575
f 474 568 575
f 476 477 575
f 574 476 575
f 258 211 255
f 255 252 295
f 252 292 295
f 258 255 298
f 298 255 295
f 255 208 252
f 211 208 255
f 249 252 292
f 289 249 292
f 295 292 333
f 295 333 336
f 326 369 328
f 328 369 372
f 372 369 373
f 379 332 378
f 332 379 333
f 379 378 424
f 379 424 425
f 424 470 425
f 425 470 471
f 372 373 375
f 375 424 378
f 375 421 424
f 291 288 330
f 332 291 330
f 291 332 292
f 292 332 333
f 575 568 574
f 568 567 574
f 444 498 505
f 447 444 505
f 444 441 491
f 444 491 498
f 214 211 258
f 213 164 165
f 213 165 214
f 384 385 431
f 430 384 431
f 295 336 298
f 428 425 471
f 428 471 474
f 474 471 561
f 568 474 561
f 205 202 249
f 205 207 208
f 248 204 205
f 204 207 205
f 202 246 249
f 248 205 249
f 251 248 288
f 251 288 291
f 208 251 252
f 208 207 251
f 251 291 252
f 252 291 292
f 336 382 385
f 339 336 385
f 339 298 336
f 468 465 467
f 422 419 465
f 422 465 468
f 465 464 467
f 422 468 467
f 461 458 462
f 421 422 467
f 473 427 430
f 473 430 476
f 455 449 452
f 446 447 450
f 449 446 450
f 453 450 512
f 453 512 519
f 453 519 526
f 456 453 526
f 459 456 526
f 459 526 533
f 462 459 533
f 462 533 540
f 458 459 462
f 476 430 431
f 476 431 477
f 465 462 461
f 465 461 464
f 447 505 450
f 450 505 512
f 540 533 547
f 468 554 561
f 470 467 471
f 471 467 468
f 471 468 561
f 465 547 554
f 468 465 554
f 465 462 540
f 465 540 547
f 431 428 474
f 477 431 474
f 382 379 428
f 379 428 425
f 431 382 428
f 385 382 431
f 336 333 382
f 333 379 382
