v -1.221469 0.000672 -0.401366 0.6492 0.3590 0.0153
v -1.223928 0.000715 -0.367594 0.6280 0.3224 0.0186
v -1.217370 0.043026 0.280379 0.6107 0.2980 0.0172
v -1.387562 0.037764 0.406291 0.6027 0.2966 0.0174
v -1.157469 0.000000 -0.384226 0.4280 0.1988 0.0042
v -1.029306 0.153474 -0.312234 0.2894 0.1265 0.0036
v -1.061399 0.209651 -0.122818 0.2809 0.1139 0.0005
v -1.122340 0.232952 0.305256 0.3610 0.1616 0.0036
v -1.122044 0.231781 0.387210 0.5292 0.2550 0.0118
v -1.013656 0.239665 -0.379940 0.4195 0.1907 0.0011
v -0.981148 0.305329 -0.183536 0.2615 0.1179 0.0013
v -0.981114 0.304806 -0.058125 0.3734 0.1690 0.0038
v -1.109509 0.279916 0.142218 0.3404 0.1540 0.0025
v -1.029793 0.279556 0.426924 0.4209 0.2024 0.0053
v -0.850203 0.231782 -0.386795 0.2963 0.1355 0.0020
v -0.748610 0.166184 -0.334993 0.2465 0.1142 0.0019
v -0.844524 0.121301 -0.001132 0.5000 0.5000 0.5000
v -0.821775 0.230832 0.263267 0.3957 0.1831 0.0018
v -0.778174 0.234111 0.369587 0.4323 0.2108 0.0028
v -0.845727 0.325386 -0.385725 0.3949 0.1874 0.0005
v -0.757579 0.289805 -0.147041 0.2712 0.1197 0.0016
v -0.892088 0.319367 0.051147 0.2415 0.1041 0.0041
v -0.911498 0.316265 0.088587 0.3376 0.1568 0.0039
v -0.781464 0.336865 0.336738 0.4003 0.1948 0.0043
v -0.520048 0.225937 -0.383748 0.2609 0.1290 0.0022
v -0.568115 0.039575 -0.225246 0.1816 0.0821 0.0019
v -0.595630 0.201686 -0.137462 0.2328 0.0940 0.0011
v -0.612118 0.224770 0.246549 0.2582 0.1126 0.0014
v -0.744562 0.181965 0.390126 0.1805 0.0804 0.0163
v -0.646513 0.178300 0.540250 0.0349 0.0376 0.0409
v -0.556500 0.481168 -0.383886 0.2126 0.0988 0.0020
v -0.714995 0.295785 -0.147030 0.1385 0.0673 0.0047
v -0.704394 0.241134 0.029721 0.2187 0.0987 0.0043
v -0.704144 0.238797 0.141991 0.1319 0.0508 0.0020
v -0.730517 0.345726 0.410671 0.0997 0.0480 0.0185
v -0.656082 0.237281 0.542185 0.0400 0.0412 0.0460
v -0.515829 0.626240 -0.497797 0.0124 0.0092 0.0053
v -0.528735 0.805686 -0.188203 0.1110 0.0691 0.0068
v -0.678537 0.735898 -0.111690 0.3522 0.2518 0.0125
v -0.607368 0.833355 0.252460 0.1131 0.0805 0.0077
v -0.515172 0.695512 0.384758 0.0683 0.0575 0.0390
v -0.516167 0.696038 0.589360 0.1433 0.1049 0.0352
v -0.623049 1.093474 -0.464056 0.3499 0.2488 0.0131
v -0.530375 1.143537 -0.188364 0.3921 0.2870 0.0460
v -0.576832 1.158915 -0.137251 0.5655 0.4177 0.0262
v -0.603950 1.150640 0.214796 0.4420 0.3128 0.0344
v -0.611355 1.164464 0.317255 0.8340 0.6551 0.0677
v -0.639463 1.167968 -0.412155 0.3739 0.2641 0.0131
v -0.533108 1.443217 -0.188265 0.3915 0.2937 0.0564
v -0.578580 1.305961 -0.137313 0.5638 0.4215 0.0242
v -0.603743 1.179658 0.215696 0.6042 0.4124 0.0559
v -0.627550 1.192827 0.343178 0.8340 0.6523 0.0614
v -0.526987 1.703272 -0.188409 0.3796 0.2897 0.0687
v -0.585575 1.485880 -0.137402 0.6404 0.5048 0.0603
v -0.599433 1.565699 0.218214 0.8164 0.5505 0.1117
v -0.523053 1.831069 -0.188429 0.4983 0.3927 0.0961
v -0.577037 1.832780 -0.137371 0.5059 0.3939 0.0652
v -0.596343 1.829461 0.270600 0.6501 0.4952 0.1291
v -0.516492 2.122422 -0.188325 0.3313 0.2551 0.0438
v -0.575956 2.133233 -0.137324 0.6374 0.5068 0.1204
v -0.592391 2.140977 0.229088 0.3460 0.2712 0.0754
v -0.496153 0.232614 -0.383266 0.2956 0.2059 0.0189
v -0.290009 0.199058 -0.354859 0.2796 0.2235 0.1011
v -0.365431 0.175583 -0.086565 0.4097 0.3211 0.1420
v -0.305885 0.175330 0.145473 0.3145 0.2431 0.0957
v -0.331217 0.175351 0.337609 0.1860 0.1365 0.0359
v -0.480002 0.053570 0.603874 0.1911 0.1410 0.0246
v -0.340181 0.442162 -0.389414 0.1341 0.0979 0.0211
v -0.339599 0.265114 -0.356800 0.1101 0.0653 0.0076
v -0.417680 0.421615 0.034007 0.1588 0.0903 0.0088
v -0.419341 0.269037 0.269689 0.0403 0.0242 0.0047
v -0.287385 0.505276 0.356902 0.1380 0.0982 0.0122
v -0.407023 0.280506 0.557309 0.1746 0.1267 0.0262
v -0.385433 0.664645 -0.582841 0.2014 0.1565 0.0683
v -0.317785 0.692090 -0.369654 0.1382 0.0901 0.0112
v -0.419362 0.568291 -0.136873 0.2020 0.1292 0.0186
v -0.407327 0.738153 0.152276 0.1233 0.0888 0.0059
v -0.511249 0.811459 0.340815 0.2238 0.1670 0.0396
v -0.283294 0.678661 0.579826 0.1133 0.0880 0.0397
v -0.334629 1.114253 -0.461489 0.3702 0.2972 0.1190
v -0.405139 0.912011 -0.151112 0.3421 0.2498 0.0516
v -0.328377 0.860102 -0.008631 0.3127 0.2236 0.0320
v -0.405237 0.966723 0.150547 0.4526 0.3365 0.0534
v -0.367811 0.924842 0.315886 0.6449 0.5086 0.1635
v -0.293964 1.168513 -0.406079 0.7883 0.6201 0.1570
v -0.399326 1.456756 -0.152821 0.5933 0.4537 0.0946
v -0.421177 1.187839 -0.136995 0.6174 0.4742 0.0751
v -0.402863 1.233032 0.148593 0.6685 0.4911 0.0759
v -0.306159 1.249018 0.431669 0.6477 0.4998 0.0871
v -0.397503 1.618120 -0.151329 0.5797 0.4456 0.1408
v -0.417680 1.567691 -0.137253 0.4346 0.3277 0.0142
v -0.398448 1.587709 0.150562 0.8169 0.5502 0.1126
v -0.395722 1.808441 -0.152860 0.3150 0.2399 0.0527
v -0.394211 2.029561 -0.145989 0.6827 0.5062 0.0080
v -0.448988 1.798964 0.171988 0.4937 0.3643 0.0857
v -0.395842 2.103999 -0.157028 0.2222 0.1625 0.0033
v -0.383139 2.193796 0.036149 0.6392 0.4706 0.0039
v -0.397130 2.193846 0.130850 0.5493 0.4288 0.1131
v -0.450909 2.200000 0.309553 0.5000 0.5000 0.5000
v -0.281702 0.215418 -0.381982 0.6031 0.4556 0.0769
v -0.072657 0.182694 -0.362799 0.5046 0.3961 0.1427
v -0.253719 0.175131 -0.053411 0.8301 0.6765 0.2798
v -0.200813 0.174957 0.082428 0.8123 0.6544 0.2290
v -0.185072 0.174861 0.309970 0.2404 0.1927 0.0762
v -0.063004 0.169859 0.537939 0.1863 0.1466 0.0299
v -0.279621 0.234257 -0.387491 0.1921 0.1388 0.0181
v -0.144780 0.538125 -0.366227 0.2065 0.1318 0.0031
v -0.257549 0.513757 0.356930 0.2950 0.2234 0.0366
v -0.144724 0.539395 0.585505 0.3163 0.2400 0.0245
v -0.266803 0.635905 -0.488568 0.1932 0.1535 0.0585
v -0.184388 0.596917 -0.373833 0.0578 0.0383 0.0033
v -0.053185 0.813064 0.065502 0.0358 0.0225 0.0028
v -0.053031 0.715291 0.285972 0.1083 0.0640 0.0011
v -0.052155 0.715347 0.333965 0.2700 0.2098 0.0540
v -0.207118 0.623497 0.545430 0.4463 0.3422 0.0489
v -0.238724 1.064002 -0.432138 0.3357 0.2686 0.0918
v -0.195253 0.982546 -0.208158 0.2635 0.2087 0.0724
v -0.062732 0.863891 0.060788 0.4395 0.3436 0.1109
v -0.063403 0.863343 0.081518 0.2047 0.1511 0.0269
v -0.195578 0.981646 0.334448 0.4531 0.3624 0.1381
v -0.205761 1.169562 -0.377284 0.3679 0.2884 0.0637
v -0.196589 1.168534 -0.372169 0.4796 0.3663 0.0625
v -0.049630 1.460406 0.019757 0.5157 0.3987 0.0656
v -0.105458 1.420347 0.081889 0.4172 0.3186 0.0455
v -0.231247 1.168758 0.448997 0.5197 0.3995 0.0854
v -0.079955 1.565379 -0.431189 0.5000 0.5000 0.5000
v -0.051644 1.554871 -0.088263 0.0105 0.0092 0.0118
v -0.084677 1.591127 0.081476 0.0105 0.0092 0.0118
v -0.179087 1.526611 0.445379 0.5000 0.5000 0.5000
v -0.168103 1.842752 -0.472627 0.3472 0.2699 0.0648
v -0.217714 2.087165 -0.371173 0.2588 0.1908 0.0039
v -0.219893 1.811966 0.483090 0.7264 0.5661 0.1428
v -0.142224 2.113756 -0.383367 0.4768 0.3608 0.0439
v -0.145791 2.113795 -0.156676 0.3698 0.2755 0.0081
v -0.079263 2.166657 0.044814 0.5000 0.5000 0.5000
v -0.128781 2.113724 0.105420 0.4680 0.3464 0.0013
v -0.094181 2.104237 0.450956 0.5563 0.4275 0.0394
v -0.040793 0.228559 -0.596001 0.7476 0.5967 0.2109
v -0.024175 0.172139 -0.362799 0.8372 0.6866 0.3098
v -0.035843 0.172431 -0.130758 0.8408 0.6885 0.3025
v -0.043849 0.170730 0.294757 0.8286 0.6762 0.2774
v -0.043849 0.170040 0.411419 0.8115 0.6395 0.1924
v -0.039912 0.169894 0.587646 0.7943 0.6110 0.0980
v -0.047783 0.317396 -0.596126 0.3791 0.2969 0.0920
v 0.177061 0.498492 0.536353 0.5586 0.4236 0.0648
v 0.156621 0.528064 0.538964 0.7070 0.5376 0.0549
v 0.132246 0.546182 -0.539180 0.4483 0.3578 0.1390
v 0.149283 0.841007 -0.315661 0.1138 0.0926 0.0393
v 0.157935 0.849189 -0.008418 0.0213 0.0141 0.0033
v 0.157986 0.853863 0.087142 0.1166 0.0756 0.0044
v 0.149392 0.837207 0.315111 0.3746 0.2799 0.0287
v 0.135853 0.554310 0.541672 0.3713 0.2666 0.0150
v 0.150023 0.944120 -0.493013 0.8538 0.6805 0.2649
v 0.157959 0.858246 -0.149826 0.7821 0.6292 0.2540
v 0.158223 0.863212 0.015901 0.2150 0.1708 0.0644
v 0.174501 1.046958 0.102553 0.3921 0.2944 0.0477
v 0.150672 0.880013 0.314256 0.6622 0.5087 0.0725
v -0.048584 1.460089 0.041934 0.0314 0.0316 0.0363
v 0.024007 1.476368 0.119135 0.0392 0.0387 0.0366
v -0.043042 1.739642 -0.451955 0.5000 0.5000 0.5000
v -0.040626 1.480576 0.009777 0.0260 0.0269 0.0331
v 0.002739 1.497619 0.091347 0.0153 0.0144 0.0176
v -0.046470 1.711454 0.454765 0.5000 0.5000 0.5000
v -0.028045 2.098371 -0.403080 0.8327 0.6575 0.2000
v -0.000655 2.098701 0.461664 0.6125 0.4669 0.0858
v -0.043617 2.118847 -0.381520 0.6695 0.5197 0.1423
v 0.141037 2.167198 -0.158826 0.5730 0.4236 0.0085
v -0.031169 2.166383 0.044999 0.5000 0.5000 0.5000
v 0.137511 2.171944 0.091856 0.5480 0.4252 0.0101
v 0.121861 2.126385 0.468498 0.6186 0.4856 0.0392
v 0.191817 0.232952 -0.513948 0.8461 0.6826 0.2644
v 0.193254 0.174452 -0.370651 0.8533 0.7045 0.3367
v 0.394200 0.176938 -0.083866 0.8557 0.7067 0.3437
v 0.183891 0.174277 0.083743 0.8532 0.7053 0.3421
v 0.203759 0.174565 0.349838 0.8312 0.6584 0.2205
v 0.194516 0.405785 -0.527450 0.8517 0.6728 0.2262
v 0.367585 0.491250 0.535789 0.8192 0.6253 0.1393
v 0.398626 0.527374 0.538807 0.8336 0.6325 0.1730
v 0.415788 0.610410 -0.544640 0.5360 0.4222 0.1550
v 0.397301 0.840494 0.507007 0.5619 0.4165 0.0193
v 0.408069 0.556445 0.541403 0.5243 0.3875 0.0253
v 0.279365 1.037051 -0.503337 0.3669 0.2874 0.1033
v 0.273124 1.056905 -0.260852 0.1731 0.1409 0.0674
v 0.409120 1.122089 0.012928 0.0264 0.0258 0.0309
v 0.412037 1.123633 0.097007 0.2695 0.2093 0.0360
v 0.375891 0.866427 0.507174 0.6024 0.4604 0.0560
v 0.411750 1.175254 -0.219116 0.0235 0.0261 0.0314
v 0.400814 1.176154 0.241760 0.0314 0.0340 0.0379
v 0.301288 2.168443 -0.411056 0.5000 0.5000 0.5000
v 0.415242 2.163641 -0.188609 0.5000 0.5000 0.5000
v 0.402999 2.174768 -0.016558 0.5000 0.5000 0.5000
v 0.392566 2.171136 0.084570 0.5950 0.4654 0.0166
v 0.414265 2.161464 0.323518 0.6442 0.5071 0.0201
v 0.637738 0.122931 -0.451073 0.6346 0.5126 0.2012
v 0.537665 0.196720 -0.367085 0.6668 0.5483 0.2554
v 0.426391 0.177347 -0.094920 0.8525 0.7033 0.3351
v 0.433167 0.177447 0.219124 0.7431 0.6070 0.2681
v 0.422237 0.177368 0.393102 0.5931 0.4749 0.1800
v 0.643942 0.504373 -0.465970 0.4765 0.3827 0.1474
v 0.645707 0.509421 -0.369120 0.4376 0.3510 0.1254
v 0.644049 0.457320 0.296411 0.4733 0.3746 0.1299
v 0.439419 0.484747 0.535625 0.3797 0.3009 0.0984
v 0.438168 0.527538 0.538891 0.7865 0.6315 0.1845
v 0.486427 0.619598 -0.545321 0.7488 0.6024 0.2610
v 0.445083 0.809578 0.506992 0.3441 0.2604 0.0143
v 0.582155 0.736542 0.539298 0.6562 0.5112 0.1268
v 0.629155 1.026550 -0.530262 0.3587 0.2883 0.1235
v 0.445333 1.128226 -0.146866 0.0780 0.0608 0.0248
v 0.416224 1.122324 -0.039912 0.0218 0.0223 0.0264
v 0.510094 1.124579 0.106685 0.0439 0.0402 0.0266
v 0.424549 0.887412 0.508799 0.5010 0.4017 0.1351
v 0.491721 0.902858 0.537550 0.6167 0.5085 0.2343
v 0.648329 1.464878 -0.481321 0.8444 0.6873 0.3050
v 0.539842 1.387712 -0.266820 0.0208 0.0218 0.0275
v 0.583765 1.471170 0.024257 0.0205 0.0208 0.0253
v 0.575783 1.431339 0.086033 0.0249 0.0250 0.0277
v 0.618554 1.460310 0.414317 0.7989 0.6429 0.2425
v 0.648249 1.766127 -0.474200 0.3263 0.2283 0.0784
v 0.581058 1.553882 -0.149516 0.0285 0.0292 0.0354
v 0.590475 1.510422 0.050182 0.0292 0.0301 0.0358
v 0.596290 1.543452 0.084223 0.0294 0.0302 0.0362
v 0.633419 1.634313 0.414294 0.5405 0.3941 0.1372
v 0.646580 1.989730 -0.376504 0.1435 0.0895 0.0151
v 0.601201 1.789797 0.414098 0.3398 0.2374 0.0295
v 0.437540 2.161211 -0.388055 0.4938 0.3704 0.0661
v 0.537007 2.143556 -0.226532 0.7628 0.6061 0.1676
v 0.469021 2.166070 -0.040575 0.7641 0.6109 0.1624
v 0.551220 2.118836 0.236478 0.6766 0.5323 0.1041
v 0.551220 2.118893 0.375104 0.7335 0.5797 0.0922
v 0.839243 0.213693 -0.399652 0.2798 0.1987 0.0359
v 0.840853 0.212045 -0.372654 0.5695 0.4663 0.2097
v 0.656153 0.180513 0.023722 0.8510 0.7004 0.3261
v 0.663805 0.180666 0.278258 0.6660 0.5293 0.1947
v 0.669722 0.064174 0.431439 0.2716 0.1931 0.0363
v 0.815742 0.365021 -0.430524 0.2823 0.2147 0.0538
v 0.654634 0.531967 -0.316199 0.1621 0.1260 0.0340
v 0.813498 0.263339 0.297971 0.2672 0.1987 0.0291
v 0.764092 0.480695 0.372221 0.3348 0.2470 0.0498
v 0.649595 0.542689 0.540845 0.6462 0.5077 0.1030
v 0.660649 0.546474 -0.480213 0.3464 0.2880 0.1436
v 0.662137 0.550469 -0.313374 0.1447 0.1224 0.0512
v 0.852907 0.654880 0.296505 0.2110 0.1574 0.0323
v 0.663188 0.553101 0.316825 0.5499 0.4139 0.0726
v 0.802626 0.852988 0.539452 0.7923 0.6293 0.1760
v 0.652457 1.039051 -0.525963 0.6528 0.5343 0.2365
v 0.692159 1.161771 -0.364941 0.1031 0.0796 0.0234
v 0.686468 1.147727 -0.013987 0.0916 0.0704 0.0190
v 0.688558 1.153824 0.099997 0.2856 0.2280 0.0717
v 0.649159 0.986811 0.527382 0.5486 0.4457 0.1793
v 0.654370 0.974065 0.538826 0.7996 0.6540 0.3062
v 0.849219 1.195011 -0.414594 0.5637 0.4520 0.1657
v 0.794210 1.177452 -0.150659 0.1901 0.1477 0.0385
v 0.877556 1.177495 0.025462 0.0625 0.0511 0.0251
v 0.867117 1.177605 0.165882 0.2364 0.1860 0.0562
v 0.799128 1.177502 0.315888 0.6479 0.5196 0.1963
v 0.669629 1.674401 -0.461609 0.7404 0.5900 0.2333
v 0.649026 1.505491 -0.174208 0.0224 0.0228 0.0298
v 0.656513 1.563540 -0.143777 0.0183 0.0212 0.0278
v 0.652946 1.522531 0.219500 0.0216 0.0243 0.0305
v 0.649486 1.483102 0.414356 0.5029 0.3671 0.1115
v 0.679772 1.885681 -0.393311 0.1366 0.0621 0.0078
v 0.651094 1.794144 0.415316 0.3040 0.2077 0.0230
v 0.678848 2.164936 -0.378440 0.5567 0.4264 0.0860
v 0.662789 2.195326 -0.147685 0.6331 0.4869 0.0894
v 0.664606 2.152225 -0.063052 0.7201 0.5733 0.1025
v 0.663321 2.177792 0.100855 0.7860 0.6290 0.1884
v 0.678912 2.184220 0.328396 0.8261 0.6654 0.2471
v 0.911472 0.234183 -0.391081 0.0507 0.0438 0.0285
v 1.105420 0.167451 -0.222267 0.3975 0.3273 0.1547
v 1.075020 0.151880 -0.024392 0.8498 0.6983 0.3245
v 0.899253 0.183163 0.222551 0.6468 0.5237 0.2202
v 0.946255 0.227982 0.431818 0.2490 0.1827 0.0138
v 1.084203 0.360539 -0.384604 0.0943 0.0738 0.0354
v 1.049661 0.457729 -0.270524 0.1726 0.1444 0.0742
v 1.044413 0.387425 0.258314 0.4609 0.3604 0.1202
v 1.095131 0.513821 0.327775 0.3398 0.2502 0.0689
v 1.079449 0.829975 -0.515923 0.1290 0.1116 0.0704
v 1.076333 0.737937 -0.149933 0.2776 0.2278 0.1041
v 1.076769 0.737734 -0.043126 0.7652 0.5912 0.1139
v 1.100052 0.738132 0.096381 0.3618 0.2641 0.0400
v 1.113139 0.726176 0.512853 0.5413 0.4229 0.1392
v 0.884524 0.831146 0.538069 0.8313 0.6579 0.1837
v 1.077804 0.902075 -0.517146 0.8591 0.7086 0.3364
v 1.098093 1.009699 -0.177012 0.5235 0.3970 0.0200
v 1.097755 1.009909 0.047717 0.4759 0.3559 0.0223
v 1.113110 1.004911 0.182701 0.4114 0.3158 0.0145
v 1.086811 1.146126 0.476645 0.8556 0.7023 0.3321
v 0.882570 0.919496 0.537902 0.8589 0.7008 0.3306
v 0.929970 1.177644 -0.377582 0.8229 0.6772 0.3208
v 1.111310 1.234188 -0.152291 0.3404 0.2680 0.0796
v 1.027874 1.226333 0.047503 0.5303 0.4211 0.1528
v 1.025175 1.224690 0.128359 0.1592 0.1249 0.0421
v 1.113464 1.217017 0.363864 0.4574 0.3753 0.1717
v 1.159226 0.180278 -0.179162 0.8239 0.6630 0.2320
v 1.165686 0.183199 0.073215 0.8260 0.6704 0.2544
v 1.166316 0.183886 0.098906 0.8473 0.6948 0.3328
v 1.114150 0.258885 -0.448715 0.5000 0.5000 0.5000
v 1.210729 0.364438 -0.150471 0.8460 0.6921 0.3101
v 1.212438 0.375540 0.065716 0.8343 0.6810 0.2687
v 1.204435 0.235317 0.113407 0.8517 0.6992 0.3235
v 1.184237 0.494757 0.311684 0.8539 0.6983 0.3202
v 1.155471 0.805946 -0.376517 0.8498 0.6970 0.3188
v 1.179246 0.852988 -0.213033 0.7111 0.5730 0.2332
v 1.181522 0.855122 0.037435 0.6688 0.5374 0.2223
v 1.175254 0.853507 0.260745 0.7417 0.5993 0.2527
v 1.169170 0.765765 0.309855 0.8521 0.6982 0.3255
v 1.153251 1.026475 -0.381265 0.8516 0.7064 0.3501
v 1.142882 0.994868 -0.149399 0.7366 0.6041 0.2731
v 1.169537 1.154109 -0.055780 0.4322 0.3276 0.0651
v 1.169252 1.153387 0.087142 0.5661 0.4436 0.1660
v 1.167027 0.937691 0.315064 0.8503 0.7025 0.3429
v 1.128725 1.171885 -0.380323 0.8476 0.7000 0.3577
v 1.141335 1.217212 -0.152216 0.8485 0.7015 0.3523
v 1.143225 1.221730 0.051925 0.8525 0.7024 0.3181
v 1.127471 1.217013 0.298732 0.8527 0.6995 0.3175
v 1.120511 1.207807 0.348630 0.8502 0.6997 0.3374
f 291 292 315
f 314 291 315
f 315 292 293
f 315 293 316
f 310 314 315
f 292 255 293
f 292 254 255
f 285 284 308
f 309 285 308
f 308 284 309
f 285 309 284
f 285 286 309
f 290 252 253
f 290 253 291
f 309 286 310
f 286 285 310
f 310 285 309
f 290 291 314
f 313 290 314
f 292 291 254
f 253 254 291
f 309 314 310
f 311 315 316
f 311 310 315
f 305 310 306
f 306 310 311
f 295 299 300
f 296 295 300
f 300 304 305
f 299 304 300
f 299 298 304
f 298 303 304
f 303 307 308
f 303 302 307
f 312 307 289
f 308 307 312
f 308 312 313
f 303 308 309
f 304 303 309
f 305 304 310
f 304 309 310
f 280 279 305
f 279 304 305
f 279 278 303
f 279 303 304
f 309 308 314
f 308 313 314
f 313 312 289
f 313 289 290
f 302 283 307
f 277 283 302
f 303 278 304
f 304 278 279
f 62 100 106
f 31 62 68
f 31 25 62
f 31 68 37
f 37 68 74
f 110 68 74
f 106 110 74
f 106 68 110
f 74 68 106
f 62 68 106
f 12 13 23
f 22 12 23
f 22 32 33
f 22 21 32
f 311 293 287
f 311 316 293
f 287 281 311
f 306 311 281
f 301 300 305
f 301 305 306
f 155 149 150
f 150 156 155
f 180 205 211
f 186 180 211
f 249 287 255
f 255 287 293
f 211 212 250
f 249 211 250
f 288 282 281
f 244 282 281
f 250 287 249
f 287 250 288
f 287 288 281
f 244 282 250
f 250 282 288
f 211 205 212
f 205 206 212
f 206 244 212
f 244 250 212
f 203 239 244
f 206 203 244
f 178 177 203
f 181 178 203
f 177 202 203
f 181 203 206
f 146 178 181
f 295 294 299
f 294 298 299
f 302 278 277
f 278 302 303
f 274 278 298
f 298 278 303
f 268 273 269
f 269 273 274
f 268 269 274
f 273 268 274
f 231 230 268
f 231 268 269
f 240 278 277
f 240 241 278
f 274 278 241
f 278 274 277
f 274 273 277
f 241 236 274
f 240 236 241
f 235 273 236
f 236 235 274
f 273 236 274
f 235 273 274
f 235 230 236
f 236 230 231
f 231 230 235
f 231 235 236
f 230 194 199
f 230 199 235
f 240 235 236
f 199 236 235
f 199 194 231
f 194 230 231
f 199 231 236
f 269 274 294
f 294 274 298
f 270 269 295
f 295 269 294
f 230 235 273
f 268 230 273
f 236 200 235
f 199 235 200
f 235 240 241
f 236 235 241
f 273 240 277
f 273 235 240
f 162 158 159
f 159 161 162
f 161 158 162
f 159 158 161
f 123 124 159
f 158 123 159
f 128 127 162
f 194 171 176
f 194 176 199
f 194 199 200
f 195 194 200
f 139 138 172
f 171 138 144
f 101 138 139
f 138 171 172
f 100 138 101
f 171 144 176
f 138 100 144
f 100 106 144
f 63 62 69
f 62 68 69
f 106 100 101
f 106 101 107
f 64 63 101
f 64 101 102
f 235 199 240
f 199 204 240
f 176 179 204
f 199 176 204
f 179 144 147
f 144 179 176
f 74 110 111
f 74 111 75
f 111 110 106
f 106 107 111
f 146 145 178
f 178 145 177
f 231 200 236
f 231 195 200
f 156 150 151
f 156 151 157
f 155 148 149
f 154 148 155
f 157 151 186
f 186 151 180
f 151 180 181
f 181 151 152
f 181 180 205
f 205 180 206
f 206 180 181
f 181 205 206
f 151 113 114
f 150 113 151
f 118 112 113
f 118 113 119
f 119 113 156
f 113 150 156
f 155 118 119
f 113 112 150
f 112 118 155
f 112 149 150
f 112 155 149
f 155 119 156
f 149 155 156
f 150 149 156
f 152 146 181
f 207 179 182
f 204 179 207
f 179 153 182
f 179 147 153
f 283 245 289
f 245 251 289
f 256 213 218
f 251 213 256
f 256 218 261
f 218 223 261
f 204 207 240
f 240 207 245
f 251 252 290
f 251 290 289
f 240 245 283
f 277 240 283
f 307 283 289
f 77 72 78
f 77 71 72
f 76 71 77
f 70 71 76
f 75 81 76
f 42 78 79
f 42 41 78
f 78 72 114
f 72 108 114
f 66 65 104
f 65 103 104
f 108 66 104
f 72 66 108
f 115 114 109
f 114 108 109
f 115 108 114
f 109 108 115
f 105 143 146
f 109 105 146
f 109 145 108
f 109 146 145
f 109 108 146
f 108 145 146
f 115 78 79
f 78 115 114
f 64 102 65
f 65 102 103
f 103 102 140
f 103 140 141
f 108 104 109
f 104 105 109
f 105 104 142
f 105 142 143
f 143 142 146
f 142 145 146
f 151 145 152
f 152 145 146
f 151 114 145
f 108 145 114
f 103 141 104
f 104 141 142
f 102 101 139
f 102 139 140
f 186 156 157
f 185 156 186
f 147 148 154
f 246 247 252
f 252 247 253
f 252 245 246
f 251 245 252
f 214 219 257
f 257 219 220
f 252 214 257
f 257 220 258
f 253 252 257
f 253 257 258
f 259 216 254
f 253 258 259
f 253 259 254
f 209 208 215
f 208 214 215
f 209 215 210
f 210 215 216
f 215 253 216
f 216 253 254
f 215 214 253
f 214 252 253
f 214 215 220
f 219 214 220
f 215 214 209
f 214 208 209
f 220 215 216
f 220 216 221
f 153 147 154
f 153 154 182
f 182 154 183
f 184 183 155
f 154 155 183
f 183 184 209
f 208 183 209
f 183 187 214
f 208 183 214
f 155 156 185
f 184 155 185
f 207 213 251
f 245 207 251
f 245 207 208
f 245 208 246
f 208 182 183
f 207 182 208
f 248 210 249
f 249 210 211
f 253 247 254
f 254 247 248
f 210 185 211
f 185 186 211
f 188 185 216
f 216 185 210
f 209 184 210
f 184 185 210
f 246 208 247
f 247 208 209
f 247 210 248
f 209 210 247
f 258 221 259
f 220 221 258
f 216 259 221
f 276 301 306
f 276 275 301
f 275 300 301
f 275 271 300
f 300 271 296
f 172 171 194
f 172 194 195
f 276 238 281
f 238 243 281
f 244 243 282
f 243 281 282
f 276 306 281
f 243 280 281
f 202 198 234
f 202 234 238
f 232 231 270
f 270 231 269
f 145 142 175
f 145 175 177
f 175 174 197
f 198 175 197
f 198 197 201
f 198 201 202
f 201 197 237
f 237 197 233
f 233 196 232
f 197 196 233
f 175 202 177
f 175 198 202
f 202 238 239
f 203 202 239
f 244 238 243
f 239 238 244
f 201 242 243
f 238 201 243
f 281 280 275
f 275 276 281
f 242 280 243
f 201 237 242
f 201 238 202
f 172 195 196
f 173 172 196
f 174 196 197
f 174 173 196
f 140 174 141
f 140 173 174
f 173 140 139
f 173 139 172
f 141 174 142
f 142 174 175
f 272 271 276
f 271 275 276
f 234 233 272
f 272 233 271
f 234 237 233
f 237 234 238
f 195 231 196
f 196 231 232
f 237 238 276
f 276 275 237
f 242 237 280
f 237 275 280
f 271 270 296
f 296 270 295
f 233 232 271
f 232 270 271
f 238 234 276
f 234 272 276
f 57 56 59
f 57 53 56
f 82 81 87
f 81 86 87
f 76 81 82
f 87 86 90
f 87 90 91
f 91 90 93
f 91 93 94
f 53 90 93
f 53 49 86
f 53 86 90
f 56 53 93
f 56 93 96
f 59 56 96
f 49 44 81
f 49 81 86
f 50 49 54
f 54 49 53
f 54 53 57
f 45 44 50
f 50 44 49
f 39 38 44
f 39 44 45
f 34 71 40
f 77 40 71
f 34 28 65
f 34 65 71
f 28 34 71
f 65 28 71
f 61 58 98
f 98 58 95
f 58 55 95
f 95 55 92
f 55 51 88
f 55 88 92
f 94 96 97
f 94 93 96
f 40 46 83
f 77 40 83
f 83 51 88
f 46 51 83
f 95 58 61
f 95 61 98
f 71 66 72
f 71 65 66
f 77 78 84
f 83 77 84
f 46 40 77
f 46 77 83
f 51 46 88
f 88 46 83
f 70 75 76
f 75 69 70
f 75 76 82
f 64 65 71
f 86 82 87
f 81 82 86
f 69 70 76
f 75 69 76
f 75 82 81
f 69 63 64
f 69 64 70
f 70 64 71
f 57 59 60
f 86 87 91
f 86 91 90
f 63 69 101
f 101 69 107
f 75 44 81
f 44 75 38
f 32 38 69
f 69 38 75
f 53 56 90
f 81 44 86
f 44 49 86
f 86 49 90
f 90 49 53
f 90 56 93
f 107 75 111
f 107 69 75
f 26 32 27
f 27 32 33
f 38 33 39
f 33 32 38
f 33 26 27
f 26 33 32
f 56 57 60
f 59 56 60
f 56 53 54
f 56 54 57
f 32 26 63
f 32 63 69
f 38 32 75
f 32 69 75
f 31 20 32
f 20 21 32
f 20 15 21
f 21 15 16
f 44 43 49
f 43 48 49
f 50 45 49
f 44 49 45
f 46 50 51
f 46 45 50
f 28 27 34
f 34 27 33
f 23 33 34
f 51 47 52
f 46 47 51
f 34 28 29
f 34 29 35
f 19 24 35
f 29 19 35
f 24 23 35
f 35 23 34
f 8 9 14
f 13 8 14
f 13 14 23
f 23 14 24
f 13 23 24
f 14 13 24
f 22 33 23
f 82 77 83
f 76 77 82
f 147 110 111
f 111 148 147
f 144 110 147
f 144 106 110
f 114 113 119
f 114 119 120
f 74 75 80
f 80 75 81
f 124 118 119
f 123 118 124
f 118 154 117
f 121 116 122
f 116 117 122
f 116 121 117
f 117 121 122
f 111 112 149
f 148 111 149
f 112 111 117
f 112 117 118
f 118 112 149
f 118 149 155
f 117 110 116
f 111 110 117
f 119 124 159
f 118 123 158
f 156 118 119
f 156 155 118
f 119 123 159
f 119 118 123
f 118 154 155
f 254 248 249
f 254 249 255
f 260 222 224
f 260 224 262
f 229 266 267
f 224 222 262
f 255 217 260
f 260 217 222
f 211 249 217
f 217 249 255
f 211 217 255
f 249 211 255
f 222 255 260
f 222 217 255
f 265 227 266
f 266 227 228
f 226 227 264
f 264 227 265
f 225 223 263
f 226 225 264
f 264 225 263
f 229 228 266
f 72 66 35
f 29 35 66
f 33 27 28
f 34 33 28
f 18 8 19
f 19 8 9
f 12 7 13
f 8 3 9
f 3 4 9
f 21 20 11
f 6 5 11
f 5 10 11
f 21 6 11
f 16 6 21
f 6 1 5
f 1 6 2
f 9 8 18
f 9 18 19
f 29 19 28
f 18 28 19
f 3 8 4
f 4 8 9
f 26 25 32
f 32 25 31
f 32 16 26
f 16 32 21
f 7 6 11
f 7 11 12
f 6 11 10
f 10 5 6
f 11 6 12
f 12 6 7
f 10 11 21
f 10 20 21
f 11 16 21
f 11 6 16
f 15 5 6
f 15 6 16
f 5 1 2
f 5 2 6
f 20 16 21
f 15 16 20
f 15 25 16
f 26 25 31
f 25 15 31
f 31 15 20
f 26 31 32
f 16 25 26
f 13 8 23
f 8 18 23
f 13 8 12
f 7 8 13
f 8 7 12
f 18 8 13
f 18 13 23
f 78 114 84
f 84 114 120
f 229 170 193
f 137 132 170
f 132 165 170
f 89 84 125
f 125 84 120
f 193 170 192
f 229 192 193
f 228 192 229
f 170 169 192
f 35 29 36
f 29 30 36
f 29 28 35
f 28 34 35
f 108 78 72
f 108 78 114
f 105 108 109
f 105 104 108
f 79 41 42
f 78 41 79
f 72 41 78
f 35 41 72
f 30 67 36
f 67 73 36
f 67 104 105
f 66 104 67
f 30 66 67
f 30 29 66
f 67 105 109
f 41 35 42
f 35 36 42
f 114 79 115
f 114 78 79
f 79 109 115
f 79 73 109
f 42 36 79
f 36 73 79
f 73 72 67
f 72 66 67
f 73 67 109
f 67 66 73
f 66 72 73
f 110 74 80
f 116 110 80
f 121 85 86
f 121 86 122
f 118 117 122
f 118 122 123
f 122 86 123
f 123 86 87
f 165 137 170
f 165 132 137
f 169 136 137
f 170 137 169
f 225 226 263
f 263 226 264
f 169 170 193
f 192 169 193
f 192 169 228
f 123 88 124
f 119 124 125
f 120 119 125
f 123 87 88
f 124 88 89
f 89 88 84
f 83 84 88
f 124 89 125
f 80 81 85
f 85 81 86
f 87 83 88
f 87 82 83
f 80 85 116
f 116 85 121
f 164 130 166
f 130 133 166
f 131 130 134
f 134 130 133
f 133 166 167
f 134 133 167
