v -3.471964 0.014050 -1.031345 0.3977 0.3269 0.2935
v -3.663111 0.057170 -0.933317 0.3981 0.3405 0.3085
v -3.458954 0.038272 -0.756167 0.3618 0.3131 0.2954
v -3.860418 0.000578 -0.448478 0.4027 0.2973 0.2586
v -3.451252 0.090114 -0.333869 0.3307 0.2207 0.1342
v -3.936067 0.001994 0.046847 0.2520 0.1852 0.0400
v -3.696696 0.223306 0.141885 0.3078 0.1245 0.0016
v -3.812723 0.000822 0.542794 0.2551 0.0849 0.0201
v -3.455139 0.057351 0.678088 0.2213 0.1111 0.0651
v -3.573094 0.058829 0.799923 0.2980 0.0732 0.0000
v -3.591397 0.230532 0.056298 0.5000 0.5000 0.5000
v -3.706156 0.231204 0.143491 0.5000 0.5000 0.5000
v -3.316344 0.029838 -1.055388 0.2225 0.2238 0.2230
v -3.306490 0.057559 -0.818105 0.4227 0.2781 0.1497
v -3.293328 0.057504 -0.790932 0.3198 0.2654 0.2399
v -2.612242 0.000490 -0.494061 0.4130 0.3003 0.2520
v -2.607247 0.000296 -0.326640 0.2659 0.1852 0.1125
v -3.296492 0.000713 0.012580 0.2254 0.1649 0.0998
v -2.604637 0.020215 0.144835 0.2585 0.1223 0.0347
v -2.607576 0.000656 0.439945 0.2571 0.1314 0.0740
v -3.191595 0.013168 0.625636 0.2395 0.1851 0.1354
v -3.163680 0.073644 0.777810 0.3490 0.3174 0.2904
v -2.756563 0.000537 1.001036 0.0837 0.0562 0.0157
v -2.171894 0.001995 -1.228484 0.4347 0.4272 0.4099
v -1.912662 0.096087 -0.943331 0.4638 0.4058 0.3437
v -2.564002 0.000744 -0.594618 0.4804 0.3773 0.2912
v -2.539918 0.000182 -0.425008 0.5724 0.5157 0.4637
v -2.575245 0.000241 -0.345001 0.7357 0.7122 0.6697
v -2.053312 0.000137 -0.045835 0.2964 0.2501 0.2174
v -2.411932 0.000096 0.314666 0.2786 0.2484 0.2321
v -1.976008 0.092199 0.528867 0.3416 0.2966 0.2480
v -1.931671 0.094352 0.550246 0.5915 0.5814 0.5524
v -2.603818 0.095488 0.930522 0.4147 0.4077 0.3979
v -2.124641 0.000578 1.152914 0.1113 0.1047 0.1214
v -2.264938 0.231056 -0.206474 0.5000 0.5000 0.5000
v -2.116642 0.231056 1.075536 0.5000 0.5000 0.5000
v -1.652699 0.000187 -1.025946 0.4418 0.2350 0.1487
v -1.501224 0.108431 -0.812420 0.4821 0.3086 0.2298
v -1.669266 0.035844 -0.712775 0.4056 0.2261 0.1458
v -1.191527 0.000080 -0.402553 0.4161 0.2313 0.1502
v -1.496453 0.113444 -0.202302 0.5477 0.4311 0.3672
v -1.496469 0.113454 -0.116192 0.2901 0.1834 0.1338
v -1.252753 0.000137 0.312475 0.2734 0.1462 0.0883
v -1.527307 0.125082 0.447706 0.4130 0.2894 0.2333
v -1.516024 0.068395 0.667916 0.3363 0.2031 0.1492
v -1.521935 0.119899 0.824766 0.2992 0.2218 0.2007
v -1.521887 0.100750 1.149362 0.1658 0.0618 0.0335
v -1.282081 0.230888 -1.184168 0.3998 0.1190 0.0043
v -1.306077 0.232913 -0.805641 0.3993 0.1187 0.0078
v -1.315095 0.232018 -0.590757 0.4481 0.1456 0.0109
v -1.300134 0.233577 -0.367845 0.4255 0.1363 0.0110
v -1.284747 0.234677 -0.135335 0.4316 0.1344 0.0054
v -1.284747 0.234671 0.083629 0.3829 0.1167 0.0052
v -1.290080 0.234570 0.189024 0.4039 0.1252 0.0084
v -1.284747 0.234692 0.472594 0.3822 0.1168 0.0083
v -1.284747 0.234666 0.665571 0.2839 0.0777 0.0045
v -1.290080 0.234614 0.789910 0.2026 0.0419 0.0017
v -1.290080 0.234627 1.020228 0.1933 0.0378 0.0023
v -0.890126 0.038085 -1.093539 0.4388 0.2867 0.2227
v -0.971605 0.127963 -0.798332 0.4495 0.3309 0.2780
v -0.777768 0.013140 -0.660295 0.2546 0.1686 0.1431
v -0.482847 0.095978 -0.360438 0.2532 0.1699 0.1439
v -0.918876 0.013446 -0.142636 0.3149 0.2504 0.2197
v -0.468850 0.000231 0.045543 0.1858 0.0935 0.0638
v -0.484847 0.000729 0.314666 0.2331 0.1184 0.0662
v -1.098105 0.000148 0.536223 0.4737 0.4034 0.3560
v -0.474182 0.000376 0.749853 0.4643 0.3787 0.3319
v -0.807473 0.000054 0.772386 0.2453 0.1659 0.1299
v -0.527506 0.013093 1.146655 0.1840 0.1060 0.0766
v -0.869744 0.231904 0.668268 0.5000 0.5000 0.5000
v 0.213730 0.012595 -1.211202 0.5567 0.5039 0.4596
v 0.251057 0.000208 -0.890758 0.4651 0.4012 0.3654
v 0.181735 0.013508 -0.660439 0.3337 0.3145 0.3102
v -0.234208 0.096064 -0.403415 0.4719 0.4552 0.4357
v 0.033480 0.138053 -0.200960 0.2564 0.2460 0.2377
v -0.399521 0.000718 0.090606 0.1519 0.1276 0.1120
v -0.106624 0.000721 0.320010 0.4507 0.4117 0.3780
v -0.183470 0.000091 0.535831 0.5923 0.5603 0.5170
v 0.169031 0.052156 0.623645 0.7095 0.6854 0.6367
v -0.304702 0.000101 0.794499 0.3591 0.3444 0.3319
v -0.143557 0.000506 1.163762 0.1528 0.1479 0.1582
v 0.045044 0.231056 -0.251879 0.5000 0.5000 0.5000
v -0.254164 0.250000 0.096148 0.5000 0.5000 0.5000
v -0.264845 0.234765 0.101979 0.5000 0.5000 0.5000
v -0.265102 0.231917 0.687697 0.5000 0.5000 0.5000
v 0.315053 0.013648 -1.236238 0.7096 0.6438 0.5858
v 0.967767 0.096266 -0.923467 0.5732 0.5292 0.4917
v 0.631014 0.050014 -0.680257 0.4142 0.3998 0.3857
v 0.968610 0.099379 -0.515965 0.3739 0.3542 0.3314
v 0.257064 0.017925 -0.307011 0.3071 0.2926 0.2692
v 0.938390 0.000132 -0.089515 0.1545 0.1283 0.1217
v 0.312403 0.000742 0.281866 0.3500 0.2749 0.2399
v 0.330047 0.000682 0.333233 0.6324 0.6080 0.5726
v 0.257730 0.000366 0.753191 0.7098 0.6824 0.6378
v 0.277727 0.000101 0.885042 0.3656 0.3539 0.3440
v 0.674364 0.049113 1.043596 0.0952 0.0841 0.0959
v 0.653540 0.231536 -0.647980 0.5000 0.5000 0.5000
v 0.616503 0.230506 1.009363 0.5000 0.5000 0.5000
v 1.457978 0.186277 -1.027510 0.6765 0.6010 0.5450
v 1.422394 0.230268 -0.859048 0.6738 0.6356 0.5953
v 1.420659 0.230439 -0.592323 0.3899 0.3675 0.3465
v 1.422290 0.230260 -0.528588 0.2844 0.2041 0.1405
v 1.035626 0.028688 -0.307119 0.2208 0.1515 0.1035
v 1.456244 0.227331 -0.098800 0.1660 0.1075 0.0975
v 1.403329 0.000088 0.308981 0.2645 0.1544 0.1150
v 1.680212 0.117910 0.440686 0.5095 0.3899 0.3261
v 1.582703 0.108775 0.759867 0.5377 0.4226 0.3506
v 1.669548 0.117684 0.799923 0.3539 0.2969 0.2688
v 1.442768 0.228462 0.993526 0.0656 0.0431 0.0492
v 1.381582 0.234488 -1.086655 0.3846 0.1153 0.0072
v 1.376249 0.234604 -0.826502 0.3698 0.1115 0.0070
v 1.381582 0.234568 -0.575528 0.4235 0.1354 0.0081
v 1.381582 0.234578 -0.360855 0.3651 0.1164 0.0081
v 1.381582 0.234568 -0.158073 0.3515 0.1068 0.0058
v 1.376249 0.234659 -0.019549 0.3499 0.1043 0.0072
v 1.381582 0.234565 0.140676 0.3652 0.1070 0.0064
v 1.376249 0.234661 0.526627 0.3987 0.1220 0.0070
v 1.381582 0.234588 0.764667 0.3993 0.1216 0.0077
v 1.381582 0.234542 0.877323 0.2593 0.0583 0.0016
v 1.413576 0.231123 1.014804 0.2541 0.0537 0.0011
v 2.319683 0.003717 -1.173466 0.7278 0.7096 0.6813
v 1.795534 0.111416 -0.875737 0.5657 0.5441 0.5180
v 2.392208 0.000044 -0.612325 0.4506 0.4310 0.4066
v 2.369040 0.000062 -0.548250 0.2982 0.2383 0.1718
v 1.996173 0.000145 -0.170540 0.3585 0.3281 0.2977
v 1.918348 0.000249 0.091023 0.3595 0.3321 0.3164
v 2.265476 0.099441 0.308720 0.1864 0.1273 0.1086
v 1.794907 0.111364 0.475741 0.2150 0.1900 0.1800
v 1.916179 0.130303 0.631318 0.4581 0.4477 0.4361
v 1.685545 0.117254 0.799923 0.5751 0.5673 0.5510
v 2.240444 0.003717 1.071967 0.4344 0.4271 0.4186
v 2.005802 0.232778 -1.039396 0.5000 0.5000 0.5000
v 1.859691 0.236879 -0.533386 0.5000 0.5000 0.5000
v 3.056703 0.000706 -1.023913 0.7699 0.7490 0.7111
v 3.077366 0.000835 -0.915794 0.5287 0.5083 0.4885
v 2.404785 0.000091 -0.630813 0.3410 0.3110 0.2987
v 2.538769 0.000078 -0.548617 0.3274 0.2845 0.2497
v 2.540102 0.088477 -0.272398 0.4572 0.4062 0.3556
v 2.699753 0.099467 0.011328 0.3453 0.3110 0.2338
v 2.406118 0.100450 0.307574 0.2923 0.2092 0.0831
v 2.476114 0.100841 0.385389 0.3016 0.2244 0.1751
v 2.612764 0.074329 0.729228 0.3449 0.3092 0.2832
v 3.098704 0.013614 0.960145 0.6096 0.5881 0.5514
v 2.610098 0.013775 1.035668 0.3434 0.3368 0.3346
v 2.729371 0.232348 0.096002 0.0078 0.0039 0.0000
v 2.732358 0.237932 0.097412 0.0078 0.0039 0.0000
v 3.157023 0.000822 -0.908178 0.3425 0.3059 0.2941
v 3.668291 0.000739 -0.583352 0.2572 0.2233 0.2175
v 3.484628 0.040868 -0.512942 0.2616 0.1916 0.1480
v 3.392660 0.000169 -0.128136 0.1965 0.1475 0.1298
v 3.534314 0.000109 -0.111211 0.2046 0.1483 0.0174
v 3.152027 0.000817 0.171550 0.2967 0.2070 0.0582
v 3.722619 0.013401 0.391021 0.3749 0.2486 0.1193
v 3.720338 0.044191 0.547594 0.2610 0.2000 0.1489
v 3.439993 0.000537 0.798254 0.1441 0.1020 0.0449
v 3.116355 0.001994 0.993636 0.1787 0.1151 0.0355
v 3.983922 0.000656 -0.574485 0.2845 0.2757 0.2865
v 3.847938 0.000578 -0.501885 0.2846 0.2568 0.2607
v 3.844605 0.000179 -0.246948 0.1778 0.0877 0.0507
v 3.829275 0.000000 -0.119686 0.1767 0.0852 0.0476
v 3.898596 0.013767 0.309242 0.2954 0.2157 0.1490
v 4.063933 0.012328 0.528296 0.2901 0.2288 0.0921
v 3.938597 0.000571 0.568770 0.2648 0.2578 0.0015
f 127 128 140
f 128 141 140
f 2 3 15
f 14 2 15
f 124 123 137
f 137 123 136
f 106 105 127
f 106 127 128
f 16 27 28
f 116 106 117
f 105 116 106
f 113 114 102
f 104 114 115
f 103 114 104
f 102 114 103
f 115 116 105
f 115 105 104
f 115 104 116
f 104 105 116
f 114 103 115
f 103 104 115
f 107 118 108
f 118 119 108
f 118 106 107
f 106 118 117
f 106 117 107
f 117 118 107
f 108 119 109
f 119 120 109
f 120 119 108
f 101 112 113
f 102 101 113
f 111 100 112
f 100 101 112
f 148 135 147
f 135 148 136
f 74 75 90
f 89 74 90
f 62 63 74
f 74 63 75
f 88 89 102
f 101 88 102
f 102 89 90
f 102 90 103
f 44 31 32
f 44 32 45
f 81 68 80
f 79 94 80
f 80 94 95
f 68 67 80
f 67 79 80
f 67 66 78
f 67 78 79
f 79 78 93
f 79 93 94
f 78 77 92
f 78 92 93
f 65 77 66
f 66 77 78
f 121 99 100
f 121 100 122
f 121 122 135
f 134 121 135
f 110 99 100
f 110 100 111
f 99 110 111
f 99 111 100
f 123 122 136
f 122 135 136
f 94 106 107
f 94 93 106
f 28 27 41
f 27 40 41
f 72 71 87
f 71 86 87
f 64 42 41
f 43 65 44
f 44 65 66
f 43 42 65
f 65 42 64
f 41 63 64
f 77 64 76
f 65 64 77
f 77 76 92
f 76 91 92
f 64 75 76
f 64 63 75
f 40 62 63
f 41 40 63
f 62 61 73
f 62 73 74
f 40 39 62
f 39 61 62
f 124 102 123
f 102 124 125
f 103 102 125
f 102 101 123
f 100 123 101
f 100 122 123
f 26 39 40
f 27 26 40
f 88 87 100
f 88 100 101
f 73 72 87
f 73 87 88
f 61 60 73
f 60 72 73
f 122 99 121
f 100 99 122
f 106 93 92
f 92 105 106
f 42 29 41
f 28 41 29
f 87 86 99
f 87 99 100
f 91 103 104
f 104 126 127
f 105 104 127
f 104 103 126
f 103 125 104
f 104 125 126
f 88 101 89
f 89 101 102
f 91 105 92
f 91 104 105
f 91 90 103
f 76 75 91
f 91 75 90
f 63 62 75
f 62 74 75
f 73 88 74
f 74 88 89
f 120 108 109
f 30 43 44
f 30 44 31
f 29 42 30
f 45 44 67
f 44 66 67
f 9 22 21
f 9 10 22
f 142 141 154
f 141 153 154
f 153 162 163
f 154 153 163
f 129 128 141
f 129 141 142
f 96 80 81
f 95 80 96
f 69 68 81
f 45 32 46
f 46 32 33
f 21 22 32
f 32 22 33
f 68 45 67
f 46 45 68
f 21 20 31
f 32 21 31
f 22 33 34
f 23 22 34
f 47 46 68
f 47 68 69
f 34 33 46
f 34 46 47
f 61 62 74
f 73 61 74
f 73 88 72
f 72 88 87
f 86 87 100
f 99 86 100
f 71 59 60
f 71 60 72
f 75 76 90
f 90 76 91
f 65 66 78
f 77 65 78
f 92 77 93
f 77 78 93
f 76 65 77
f 76 64 65
f 76 63 64
f 75 63 76
f 90 91 104
f 103 90 104
f 137 136 149
f 149 136 148
f 125 137 138
f 125 124 137
f 148 157 149
f 138 149 150
f 137 149 138
f 149 157 158
f 140 152 141
f 141 152 153
f 127 126 139
f 127 139 140
f 151 160 150
f 160 159 150
f 139 138 151
f 160 159 151
f 151 138 150
f 139 126 138
f 126 125 138
f 130 107 108
f 129 107 130
f 142 129 130
f 142 130 143
f 108 95 107
f 95 94 107
f 129 107 128
f 107 129 108
f 108 129 130
f 107 106 128
f 109 95 96
f 95 109 108
f 80 95 81
f 96 81 95
f 154 142 155
f 142 143 155
f 143 155 156
f 144 143 156
f 155 143 144
f 156 155 144
f 130 108 109
f 131 130 109
f 130 131 144
f 130 144 143
f 130 129 143
f 143 129 142
f 131 130 143
f 131 143 144
f 93 78 94
f 94 78 79
f 107 94 108
f 108 94 95
f 67 68 79
f 79 68 80
f 95 79 80
f 94 79 95
f 157 148 158
f 148 149 158
f 138 124 125
f 137 124 138
f 101 123 122
f 100 101 122
f 123 124 136
f 136 124 137
f 49 38 50
f 38 39 50
f 39 51 40
f 50 51 39
f 41 51 52
f 51 40 52
f 40 41 52
f 40 51 41
f 50 40 51
f 39 40 50
f 57 47 58
f 46 47 57
f 54 43 55
f 43 55 44
f 42 53 43
f 43 53 54
f 52 42 53
f 41 52 42
f 46 56 57
f 45 56 46
f 55 56 44
f 44 56 45
f 46 57 58
f 46 58 47
f 1 2 13
f 14 13 2
f 13 14 25
f 24 13 25
f 25 24 38
f 38 24 37
f 60 59 72
f 59 71 72
f 39 38 61
f 38 60 61
f 59 37 38
f 59 38 60
f 26 25 38
f 26 38 39
f 14 25 26
f 15 14 26
f 38 37 60
f 37 59 60
f 1 13 14
f 2 1 14
f 25 26 39
f 38 25 39
f 37 24 25
f 37 25 38
f 25 14 15
f 25 15 26
f 48 37 38
f 37 48 49
f 37 38 49
f 60 38 39
f 60 39 61
f 41 28 42
f 28 29 42
f 148 136 137
f 148 137 149
f 152 153 162
f 152 162 161
f 153 140 141
f 152 140 153
f 140 139 152
f 139 151 152
f 128 142 141
f 128 129 142
f 125 126 139
f 138 125 139
f 162 153 154
f 162 154 163
f 149 137 150
f 137 138 150
f 150 139 151
f 139 140 151
f 151 140 152
f 150 138 139
f 103 126 125
f 124 102 103
f 124 103 125
f 124 101 102
f 123 101 124
f 140 139 145
f 140 145 146
f 3 4 15
f 15 4 16
f 17 16 28
f 16 15 27
f 15 26 27
f 4 5 16
f 16 5 17
f 8 9 21
f 20 8 21
f 7 8 19
f 19 8 20
f 20 7 19
f 19 29 30
f 19 18 29
f 30 42 43
f 8 20 9
f 9 20 21
f 20 19 31
f 31 19 30
f 18 17 29
f 17 28 29
f 7 6 19
f 6 18 19
f 6 5 17
f 6 17 18
f 19 20 30
f 30 20 31
f 18 5 6
f 17 5 18
f 29 30 43
f 29 43 42
