v -0.804703 0.012443 -0.249329 0.6320 0.6499 0.3508
v -1.014961 0.083370 -0.069448 0.6423 0.6637 0.3831
v -0.738724 0.001031 0.051232 0.6608 0.6853 0.3786
v -0.826310 0.005578 0.169310 0.6287 0.6470 0.3433
v -0.650217 0.369905 -0.267779 0.4835 0.4981 0.2610
v -0.898428 0.340624 -0.070155 0.3743 0.3891 0.1743
v -0.903950 0.241935 -0.007754 0.4671 0.4948 0.2127
v -0.801866 0.212858 0.289806 0.4088 0.4418 0.1588
v -0.968519 0.405712 -0.259044 0.6015 0.6152 0.3443
v -0.950724 0.393045 -0.185232 0.4941 0.5061 0.2937
v -0.966769 0.460628 0.072982 0.4503 0.4758 0.2297
v -0.971267 0.463796 0.182268 0.3561 0.3873 0.1474
v -1.003753 0.667192 -0.323163 0.5366 0.5715 0.2516
v -0.957872 0.593494 -0.011790 0.5578 0.5874 0.2876
v -0.928419 0.742590 0.162816 0.4722 0.4968 0.2508
v -0.963280 0.683916 0.300202 0.4023 0.4193 0.2143
v -0.838750 0.870887 -0.191238 0.5248 0.5611 0.2595
v -0.825423 0.889078 -0.009434 0.5244 0.5665 0.2353
v -0.834896 0.887924 -0.006454 0.2289 0.2503 0.1152
v -0.651069 0.893284 0.171347 0.0267 0.0361 0.0131
v -0.439992 0.003884 -0.191329 0.6524 0.6796 0.3779
v -0.640238 0.009082 -0.012279 0.6024 0.6323 0.3836
v -0.645484 0.000157 0.066331 0.2010 0.2217 0.1219
v -0.587045 0.000000 0.170589 0.5868 0.6075 0.3421
v -0.257283 0.370352 -0.206000 0.5789 0.5943 0.3321
v -0.631139 0.192425 0.299540 0.4710 0.4980 0.2178
v -0.255796 0.371323 -0.206255 0.6939 0.7079 0.3950
v -0.321070 0.538850 0.305468 0.3903 0.4204 0.1571
v -0.333165 0.741685 -0.206818 0.6065 0.6265 0.3260
v -0.322607 0.743089 -0.169930 0.1956 0.2198 0.0370
v -0.292677 0.743083 0.134998 0.1674 0.1862 0.0326
v -0.642766 0.685654 0.296589 0.2930 0.3065 0.1452
v -0.540384 0.887075 -0.187995 0.4086 0.4423 0.1679
v -0.645484 0.897121 -0.058628 0.4110 0.4416 0.1663
v -0.452421 0.899148 -0.003143 0.2257 0.2329 0.1335
v -0.638524 0.893846 0.169862 0.4504 0.4584 0.2665
v 0.100643 0.002624 -0.188828 0.6552 0.6800 0.3725
v -0.253199 0.021795 -0.010519 0.5858 0.6111 0.3679
v -0.213555 0.107431 0.154203 0.3572 0.3767 0.2275
v -0.210309 0.103054 0.187243 0.5368 0.5577 0.3129
v -0.174045 0.053302 0.347219 0.5000 0.5000 0.5000
v -0.187612 0.273672 -0.329684 0.5742 0.5956 0.3057
v 0.065787 0.221859 0.294156 0.4706 0.4954 0.2343
v -0.148610 0.319725 0.348369 0.7020 0.7124 0.4105
v 0.013319 0.376330 -0.281326 0.5824 0.5998 0.3252
v -0.156369 0.458563 -0.170605 0.5000 0.5000 0.5000
v 0.080722 0.557057 0.167646 0.8560 0.6892 0.4006
v -0.246780 0.539767 0.310062 0.5837 0.5050 0.2850
v -0.246004 0.578241 -0.305636 0.4638 0.4911 0.2155
v -0.175633 0.741874 -0.009290 0.2906 0.3237 0.0656
v -0.187920 0.647529 0.054208 0.3467 0.3297 0.1229
v -0.251594 0.683895 0.296757 0.3867 0.3917 0.1680
v -0.231489 0.820943 -0.291177 0.4478 0.4814 0.1829
v 0.071860 0.900000 -0.012019 0.4427 0.4758 0.1737
v 0.068346 0.899898 -0.006696 0.4446 0.4548 0.2695
v -0.172816 0.828011 0.306818 0.3848 0.3973 0.2244
v 0.258600 0.092306 -0.324730 0.6573 0.6825 0.4024
v 0.532324 0.003697 -0.158756 0.7198 0.7406 0.4887
v 0.140957 0.004680 0.040054 0.7179 0.7393 0.4859
v 0.139905 0.067986 0.309800 0.6841 0.7080 0.4294
v 0.232753 0.131479 0.348248 0.7159 0.7270 0.4501
v 0.237177 0.353853 -0.246422 0.4655 0.4911 0.2319
v 0.319355 0.362930 0.346057 0.4338 0.4647 0.1964
v 0.316299 0.365852 0.351144 0.7070 0.7167 0.4229
v 0.459867 0.523350 -0.320402 0.3753 0.3849 0.2145
v 0.294497 0.467074 0.346255 0.5908 0.5057 0.2846
v 0.447658 0.557045 0.370316 0.7197 0.7222 0.4309
v 0.145460 0.595716 -0.265769 0.4695 0.5080 0.1969
v 0.491110 0.695640 0.037738 0.5775 0.4949 0.2418
v 0.531758 0.599595 0.344473 0.4042 0.4026 0.1532
v 0.531146 0.600009 0.351995 0.6819 0.6612 0.3738
v 0.210460 0.857955 -0.274605 0.5385 0.5679 0.2809
v 0.142871 0.899342 -0.018636 0.6911 0.6998 0.4347
v 0.531593 0.807762 0.160228 0.6703 0.6820 0.4068
v 0.467857 0.743907 0.261130 0.6123 0.6365 0.3248
v 0.704455 0.057050 -0.328086 0.6076 0.6347 0.3426
v 0.717463 0.012384 -0.117402 0.5927 0.6217 0.3163
v 0.863075 0.154419 0.163258 0.5439 0.5715 0.3076
v 0.923287 0.163922 0.205690 0.6951 0.7131 0.4650
v 0.744984 0.102330 0.347090 0.7311 0.7397 0.4679
v 0.924708 0.269314 -0.223938 0.2591 0.2734 0.1240
v 0.794919 0.299766 -0.019977 0.5591 0.5905 0.2652
v 0.805550 0.297187 -0.007581 0.4570 0.4849 0.2191
v 0.875835 0.368016 0.331556 0.5381 0.5565 0.2985
v 0.551206 0.368610 0.357893 0.7000 0.7093 0.4215
v 0.925545 0.504126 -0.286047 0.2537 0.2586 0.1474
v 0.862223 0.476410 -0.183099 0.5369 0.5743 0.2502
v 0.816498 0.428392 0.168081 0.5405 0.5802 0.2511
v 0.887177 0.372818 0.334800 0.6504 0.6720 0.3638
v 0.920531 0.431848 0.347302 0.7229 0.7278 0.4391
v 0.924445 0.557289 -0.238826 0.4646 0.5026 0.1933
v 0.924179 0.558744 -0.130595 0.4706 0.5193 0.1807
v 0.544870 0.668524 0.168323 0.5425 0.5696 0.2523
v 0.556298 0.608197 0.344835 0.5974 0.6151 0.3157
v 0.589505 0.621101 0.366190 0.7205 0.7222 0.4393
v 0.707499 0.799246 -0.315850 0.6002 0.6208 0.3374
v 0.919874 0.829876 -0.148235 0.6941 0.7009 0.4320
v 0.675862 0.820650 0.164352 0.6546 0.6653 0.3874
v 0.664343 0.744245 0.318498 0.6167 0.6337 0.3346
v 0.943860 0.051687 -0.194000 0.7165 0.7268 0.4596
v 0.945890 0.055565 -0.184067 0.6570 0.6749 0.3772
v 0.930323 0.078150 0.166140 0.6770 0.6922 0.3906
v 0.929034 0.164280 0.207087 0.7248 0.7290 0.4562
v 0.936823 0.258480 -0.207643 0.7137 0.7210 0.4431
v 0.963629 0.324504 -0.074573 0.6346 0.6535 0.3484
v 0.958097 0.236667 0.121796 0.6516 0.6708 0.3641
v 0.926043 0.358082 0.269704 0.6747 0.6875 0.3964
v 0.926791 0.232161 0.351780 0.6334 0.6469 0.3408
v 0.935410 0.500385 -0.261764 0.6768 0.6908 0.3902
v 0.952234 0.501030 -0.186291 0.6443 0.6623 0.3591
v 0.948686 0.476768 0.020122 0.6592 0.6773 0.3770
v 0.925967 0.432195 0.341651 0.6733 0.6881 0.3901
v 0.930055 0.424838 0.349168 0.5717 0.5894 0.2805
v 0.934399 0.557366 -0.201319 0.6992 0.7080 0.4241
v 0.931959 0.557380 -0.147047 0.6637 0.6762 0.3764
v 0.927079 0.685086 0.165700 0.6191 0.6426 0.3302
v 0.927054 0.685259 0.170175 0.6241 0.6276 0.3417
v 0.928591 0.773021 -0.309836 0.7106 0.7179 0.4434
v 0.985039 0.787836 -0.113028 0.6932 0.6995 0.4236
v 0.926106 0.787450 0.158367 0.6302 0.6411 0.3637
v 0.926920 0.779865 0.180548 0.6603 0.6655 0.3843
f 99 70 75
f 99 70 94
f 94 70 95
f 94 70 71
f 70 71 95
f 71 94 95
f 25 27 45
f 42 25 45
f 25 9 27
f 5 9 25
f 120 98 121
f 99 121 98
f 74 75 99
f 98 74 99
f 87 109 110
f 87 86 109
f 110 109 86
f 110 86 87
f 76 100 101
f 77 76 101
f 58 76 77
f 57 76 58
f 12 32 16
f 35 18 19
f 34 18 35
f 34 17 18
f 33 17 34
f 19 15 16
f 19 16 20
f 35 19 36
f 36 19 20
f 3 2 23
f 2 22 23
f 1 21 2
f 2 21 22
f 24 3 23
f 3 24 4
f 26 4 24
f 4 26 8
f 32 28 48
f 52 32 48
f 69 47 66
f 51 48 47
f 47 48 66
f 51 47 69
f 52 48 51
f 69 66 70
f 52 51 70
f 70 69 94
f 94 69 93
f 70 66 67
f 71 70 67
f 93 69 70
f 93 70 94
f 70 51 69
f 64 63 84
f 64 84 85
f 85 84 90
f 84 89 90
f 90 89 113
f 113 89 112
f 90 112 89
f 90 113 112
f 67 85 90
f 67 64 85
f 88 110 111
f 88 87 110
f 83 106 84
f 84 106 107
f 84 107 89
f 107 112 89
f 107 111 112
f 106 111 107
f 82 105 106
f 83 82 106
f 111 88 112
f 88 89 112
f 90 89 67
f 89 66 67
f 105 82 87
f 105 87 110
f 105 110 111
f 106 105 111
f 107 83 84
f 83 107 106
f 19 18 14
f 19 14 15
f 16 11 12
f 15 11 16
f 12 28 32
f 14 11 15
f 14 10 11
f 13 14 18
f 18 17 13
f 36 20 16
f 36 16 32
f 40 59 60
f 40 39 59
f 38 37 57
f 38 57 58
f 38 58 59
f 39 38 59
f 23 22 38
f 38 23 39
f 24 23 40
f 40 23 39
f 121 99 94
f 94 117 121
f 116 121 117
f 116 120 121
f 109 86 91
f 109 91 114
f 91 114 92
f 92 114 115
f 109 114 115
f 110 109 115
f 110 92 87
f 110 115 92
f 114 91 115
f 115 91 92
f 88 111 116
f 88 116 89
f 89 116 94
f 94 116 117
f 93 92 115
f 93 115 116
f 94 93 116
f 90 94 95
f 90 89 94
f 95 67 90
f 71 67 95
f 93 120 116
f 93 98 120
f 88 87 92
f 88 93 116
f 88 92 93
f 29 27 9
f 9 13 29
f 45 27 29
f 45 29 49
f 13 9 14
f 14 9 10
f 54 51 55
f 34 55 54
f 54 53 33
f 54 33 34
f 55 34 35
f 55 56 74
f 74 56 75
f 53 54 73
f 72 53 73
f 74 54 55
f 73 54 74
f 32 35 36
f 32 31 35
f 36 35 56
f 56 35 55
f 51 31 52
f 31 32 52
f 56 55 36
f 55 35 36
f 34 33 53
f 54 50 51
f 34 53 54
f 56 52 75
f 52 70 75
f 55 51 56
f 56 51 52
f 31 34 35
f 30 34 31
f 29 13 33
f 13 17 33
f 53 49 50
f 54 53 50
f 45 49 65
f 65 49 68
f 50 30 31
f 50 31 51
f 30 49 29
f 50 49 30
f 30 29 33
f 30 33 34
f 65 68 91
f 86 65 91
f 84 85 108
f 84 108 107
f 76 62 81
f 57 62 76
f 76 81 104
f 87 82 110
f 82 105 110
f 100 76 104
f 105 104 82
f 82 104 81
f 105 104 110
f 104 109 110
f 81 86 109
f 81 109 104
f 42 45 62
f 62 45 65
f 62 65 81
f 65 86 81
f 6 11 10
f 6 7 11
f 10 9 6
f 9 5 6
f 7 4 8
f 7 3 4
f 6 2 7
f 7 8 11
f 11 8 12
f 2 3 7
f 85 63 64
f 44 43 64
f 43 63 64
f 63 43 60
f 43 40 60
f 26 24 43
f 24 40 43
f 28 26 43
f 28 43 48
f 66 43 63
f 48 43 66
f 67 66 63
f 64 67 63
f 26 12 8
f 28 12 26
f 72 73 97
f 96 72 97
f 97 73 74
f 97 74 98
f 96 97 119
f 97 98 120
f 97 120 119
f 116 115 119
f 116 119 120
f 118 96 119
f 68 72 91
f 91 72 96
f 114 91 96
f 114 96 118
f 114 118 119
f 115 114 119
f 49 53 72
f 49 72 68
f 37 42 62
f 57 37 62
f 1 25 21
f 1 5 25
f 37 21 42
f 42 21 25
f 5 1 6
f 6 1 2
f 22 21 38
f 38 21 37
f 79 78 84
f 78 83 84
f 83 105 106
f 83 78 106
f 78 82 83
f 82 105 83
f 78 77 82
f 101 77 78
f 77 105 82
f 101 105 77
f 61 80 85
f 64 61 85
f 63 60 61
f 63 61 64
f 101 100 104
f 101 104 105
f 84 107 85
f 85 107 108
f 61 60 79
f 80 61 79
f 85 80 84
f 84 80 79
f 102 101 78
f 59 58 78
f 78 58 77
f 102 78 79
f 103 102 79
f 79 78 103
f 103 78 102
f 60 59 79
f 79 59 78
