v -0.475168 0.000000 -0.801107 0.1088 0.3975 0.3971
v -0.295665 0.002024 -0.645017 0.0912 0.5453 0.5235
v -0.426713 0.255432 -0.073716 0.1039 0.5621 0.5424
v -0.426785 0.259462 -0.006873 0.1424 0.2693 0.2623
v -0.428563 0.255663 0.348151 0.1740 0.3693 0.3510
v -0.429683 0.237049 0.559250 0.2420 0.2014 0.1881
v -0.467341 0.523147 -0.648155 0.1179 0.2760 0.2804
v -0.467226 0.525429 -0.546321 0.0809 0.5862 0.5664
v -0.433104 0.486035 -0.050434 0.0971 0.2793 0.2787
v -0.434905 0.539228 0.203187 0.1012 0.3422 0.3366
v -0.436536 0.532845 0.426978 0.1098 0.1629 0.1697
v -0.261265 0.526141 0.772606 0.1822 0.3405 0.3315
v -0.468828 0.560189 -0.647213 0.1170 0.3349 0.3345
v -0.468446 0.556954 -0.629562 0.1088 0.0205 0.0340
v -0.438665 0.686335 -0.045158 0.1144 0.1848 0.1916
v -0.436417 0.607593 0.102491 0.1062 0.1838 0.1847
v -0.441011 0.744178 0.274816 0.1114 0.0135 0.0265
v -0.427341 0.689187 0.773901 0.1554 0.2234 0.2212
v -0.338008 0.993312 -0.764539 0.1018 0.3296 0.3265
v -0.443659 0.821779 -0.388160 0.0973 0.1623 0.1534
v -0.443540 0.817713 -0.335595 0.1138 0.0568 0.0652
v -0.442736 0.815718 0.016586 0.1032 0.0667 0.0683
v -0.444085 0.850665 0.258262 0.0922 0.0164 0.0203
v -0.442702 0.817570 0.769575 0.1444 0.0892 0.0869
v -0.306031 1.138868 -0.653353 0.0708 0.1503 0.1438
v -0.264762 1.144567 -0.556208 0.1028 0.1054 0.1021
v -0.278376 1.142812 -0.335673 0.1114 0.1442 0.1439
v -0.439181 1.120547 -0.032448 0.1066 0.2087 0.2007
v -0.260575 1.145055 0.490976 0.1025 0.1003 0.0965
v -0.272447 1.143588 0.735538 0.2317 0.0909 0.1041
v -0.080670 0.051735 -0.684558 0.1133 0.2634 0.2646
v -0.259784 0.083924 -0.541065 0.1027 0.4188 0.4040
v -0.191996 0.078086 -0.051905 0.1135 0.3799 0.3701
v -0.140097 0.126293 0.249357 0.1846 0.3372 0.3193
v -0.104670 0.065221 0.311409 0.3272 0.1079 0.0909
v -0.172115 0.249209 0.769763 0.2932 0.2193 0.2040
v -0.098523 0.539784 -0.938667 0.1370 0.4739 0.4721
v 0.006145 0.535521 0.772640 0.2629 0.3279 0.3084
v -0.039743 0.538097 0.936324 0.1309 0.6488 0.6357
v 0.004664 0.548388 -0.945309 0.1119 0.3232 0.3304
v 0.023099 0.748779 0.773947 0.2338 0.3307 0.3062
v -0.039189 0.566157 0.960344 0.1825 0.5254 0.5073
v -0.080226 0.952801 -0.800942 0.1851 0.2000 0.2121
v -0.077263 0.823276 0.774490 0.2355 0.3567 0.3409
v -0.178947 0.815444 0.868399 0.3236 0.4740 0.4642
v -0.058568 1.172503 -0.653373 0.0605 0.1863 0.1846
v -0.107930 1.165877 -0.395219 0.0779 0.3737 0.3619
v -0.078451 1.166658 -0.305897 0.1178 0.3451 0.3393
v -0.101308 1.169611 0.088685 0.1212 0.2471 0.2454
v -0.111091 1.147013 0.261911 0.1943 0.4301 0.4157
v 0.021207 1.183147 0.612119 0.2673 0.2737 0.2801
v 0.254742 0.180792 -0.796714 0.1206 0.3862 0.3814
v 0.265961 0.082048 -0.643448 0.1170 0.2703 0.2666
v 0.307098 0.061293 -0.124082 0.1147 0.4686 0.4537
v 0.307157 0.061333 0.003326 0.1923 0.3821 0.3631
v 0.169027 0.126311 0.529263 0.2068 0.2800 0.2659
v 0.277067 0.266184 0.769745 0.2812 0.1434 0.1330
v 0.045553 0.539578 -0.938859 0.1219 0.1043 0.1204
v 0.302743 0.327147 0.770482 0.2879 0.3200 0.2989
v 0.025387 0.512048 0.913739 0.1611 0.6181 0.6064
v 0.028554 0.548291 -0.945355 0.2362 0.5249 0.5213
v 0.030777 0.753576 0.773973 0.2979 0.2325 0.2115
v 0.095778 0.566510 0.961047 0.1924 0.4931 0.4959
v 0.301521 1.067489 -0.840435 0.1971 0.3511 0.3547
v 0.194889 1.041813 0.850214 0.2930 0.2582 0.2468
v 0.105482 0.821064 0.859746 0.3405 0.4015 0.4004
v 0.174580 1.203883 -0.649409 0.0504 0.2005 0.2069
v 0.034396 1.184939 -0.612689 0.0840 0.2566 0.2466
v 0.103037 1.177042 -0.301779 0.1064 0.4527 0.4275
v 0.302830 1.218818 -0.004206 0.1187 0.1792 0.1681
v 0.029169 1.184030 0.332520 0.1282 0.3597 0.3419
v 0.074631 1.190248 0.565370 0.1394 0.5080 0.4833
v 0.314965 0.263741 -0.753087 0.0988 0.2595 0.2511
v 0.354299 0.079195 -0.447312 0.1106 0.2149 0.2084
v 0.430153 0.060164 -0.164878 0.1678 0.3173 0.3134
v 0.537479 0.234827 0.247107 0.2019 0.2847 0.2837
v 0.537681 0.240704 0.260342 0.1948 0.3092 0.2953
v 0.476744 0.140280 0.568507 0.2055 0.2502 0.2383
v 0.324077 0.425004 -0.801068 0.0996 0.1237 0.1320
v 0.478353 0.539123 -0.480263 0.0990 0.1411 0.1369
v 0.538001 0.276651 -0.208814 0.1565 0.2159 0.2210
v 0.516154 0.523146 0.070011 0.1720 0.5097 0.4995
v 0.538801 0.267281 0.263951 0.2183 0.1738 0.1867
v 0.463930 0.442122 0.771775 0.3079 0.0957 0.0878
v 0.331929 0.551551 -0.803932 0.0760 0.2516 0.2577
v 0.479546 0.807300 -0.358188 0.0764 0.0174 0.0245
v 0.534541 0.800452 -0.200730 0.1399 0.3319 0.3284
v 0.543484 0.806425 0.243640 0.1706 0.3766 0.3756
v 0.543274 0.811969 0.263480 0.2389 0.1758 0.1861
v 0.319150 0.552567 0.772809 0.2485 0.2823 0.2780
v 0.315489 1.068093 -0.840684 0.0652 0.0256 0.0299
v 0.481075 1.061499 -0.362288 0.0760 0.0226 0.0266
v 0.551010 1.072054 -0.058652 0.1648 0.2156 0.2197
v 0.549387 1.065807 0.143772 0.1827 0.5243 0.5128
v 0.523946 1.066729 0.258144 0.1984 0.5287 0.5190
v 0.563437 1.055358 0.763389 0.2800 0.2651 0.2535
v 0.364391 1.295471 -0.645919 0.0720 0.0549 0.0433
v 0.413982 1.298514 -0.366711 0.1105 0.3472 0.3239
v 0.464435 1.252931 -0.045629 0.1001 0.2858 0.2618
v 0.472139 1.228507 0.245592 0.1016 0.5369 0.4984
v 0.438449 1.300000 0.530066 0.1213 0.2416 0.2164
v 0.379741 1.217506 0.625622 0.1231 0.3039 0.2888
f 13 7 8
f 14 13 8
f 27 26 48
f 26 47 48
f 48 68 69
f 48 47 68
f 47 46 68
f 68 46 67
f 27 48 49
f 28 27 49
f 70 48 69
f 49 48 70
f 99 100 70
f 69 99 70
f 84 59 62
f 84 62 90
f 38 41 62
f 59 38 62
f 36 38 59
f 36 59 57
f 96 62 65
f 90 62 96
f 65 41 44
f 62 41 65
f 41 18 24
f 41 24 44
f 41 12 18
f 38 12 41
f 68 98 99
f 68 99 69
f 97 98 68
f 67 97 68
f 87 93 94
f 87 94 88
f 89 94 95
f 89 88 94
f 82 87 88
f 77 76 83
f 83 76 82
f 47 27 48
f 47 26 27
f 68 47 69
f 47 48 69
f 98 68 69
f 98 69 99
f 48 27 28
f 48 28 49
f 67 46 47
f 67 47 68
f 21 14 20
f 15 14 21
f 10 4 9
f 3 9 4
f 8 14 9
f 9 14 15
f 34 4 5
f 35 34 5
f 12 11 18
f 11 17 18
f 9 15 10
f 10 15 16
f 11 16 17
f 16 11 10
f 5 4 11
f 4 10 11
f 6 12 38
f 36 6 38
f 17 16 23
f 16 22 23
f 18 23 24
f 18 17 23
f 35 6 36
f 5 6 35
f 15 21 16
f 22 16 21
f 6 5 11
f 12 6 11
f 54 75 76
f 55 54 76
f 82 81 87
f 82 81 88
f 76 75 82
f 75 81 82
f 51 50 71
f 51 71 72
f 30 29 50
f 30 50 51
f 71 102 72
f 71 101 102
f 70 100 101
f 71 70 101
f 49 70 71
f 50 49 71
f 29 28 49
f 29 49 50
f 24 23 29
f 100 69 70
f 69 100 99
f 50 28 29
f 28 50 49
f 100 70 71
f 100 71 101
f 71 50 72
f 50 51 72
f 24 29 30
f 59 62 63
f 60 59 63
f 63 42 60
f 42 39 60
f 39 59 60
f 39 38 59
f 45 41 42
f 44 41 45
f 41 38 39
f 41 39 42
f 63 65 66
f 62 65 63
f 63 45 42
f 45 63 66
f 65 44 45
f 45 66 65
f 4 5 10
f 10 5 11
f 81 75 76
f 81 76 82
f 86 87 93
f 92 86 93
f 34 35 55
f 55 35 56
f 89 90 96
f 95 89 96
f 89 83 90
f 81 88 87
f 93 87 88
f 93 88 94
f 83 77 84
f 77 78 84
f 83 84 90
f 88 82 89
f 89 82 83
f 56 57 77
f 77 57 78
f 57 59 84
f 78 57 84
f 88 89 95
f 88 95 94
f 76 55 56
f 76 56 77
f 57 35 36
f 56 35 57
f 2 1 32
f 32 1 31
f 33 3 2
f 2 32 33
f 34 33 55
f 55 33 54
f 32 53 54
f 33 32 54
f 9 10 16
f 15 9 16
f 32 31 53
f 31 52 53
f 4 33 34
f 4 3 33
f 8 2 3
f 8 3 9
f 7 1 8
f 8 1 2
f 28 22 29
f 22 23 29
f 20 13 14
f 19 13 20
f 22 15 16
f 21 15 22
f 24 18 44
f 44 18 41
f 26 25 46
f 47 26 46
f 46 25 47
f 25 26 47
f 19 20 25
f 25 20 26
f 26 20 27
f 20 21 27
f 27 21 22
f 27 22 28
f 21 20 26
f 21 26 27
f 20 19 26
f 19 25 26
f 21 27 28
f 22 21 28
f 23 22 28
f 23 28 29
f 13 19 40
f 40 19 43
f 40 7 13
f 37 7 40
f 37 1 7
f 31 1 37
f 52 31 37
f 52 37 58
f 85 79 61
f 79 58 61
f 61 40 43
f 61 43 64
f 85 64 91
f 85 61 64
f 58 37 40
f 58 40 61
f 82 88 83
f 83 88 89
f 89 95 90
f 90 95 96
f 19 13 43
f 43 13 40
f 8 7 14
f 7 13 14
f 14 19 20
f 14 13 19
f 40 61 64
f 43 40 64
f 3 4 34
f 33 3 34
f 1 31 7
f 7 31 37
f 73 52 53
f 73 53 74
f 53 32 33
f 53 33 54
f 37 31 58
f 31 52 58
f 75 53 54
f 74 53 75
f 58 52 73
f 58 73 79
f 79 80 86
f 85 79 86
f 85 86 91
f 91 86 92
f 80 81 87
f 86 80 87
f 74 75 80
f 80 75 81
f 79 73 74
f 79 74 80
f 31 1 2
f 2 32 31
f 54 53 74
f 54 74 75
f 74 73 80
f 73 79 80
f 56 78 57
f 78 56 77
f 56 55 77
f 77 55 76
f 12 5 6
f 11 5 12
f 18 12 38
f 41 18 38
f 12 6 36
f 12 36 38
