v -0.200947 0.014090 -0.028101 0.1542 0.1171 0.2095
v -0.193415 0.015274 0.029565 0.1485 0.0946 0.1947
v -0.190591 0.150625 -0.022588 0.1633 0.1780 0.2693
v -0.226497 0.076438 -0.008523 0.1513 0.1919 0.2781
v -0.183469 0.155362 -0.023112 0.3348 0.0857 0.1535
v -0.195708 0.170988 0.002085 0.2416 0.1917 0.2880
v -0.137492 0.061773 -0.010118 0.1455 0.0831 0.1833
v -0.136140 0.071546 0.011381 0.1532 0.1088 0.1921
v -0.153690 0.088362 -0.010372 0.1027 0.1436 0.1977
v -0.135610 0.076878 0.010961 0.1129 0.1881 0.2621
v -0.133544 0.191411 -0.014032 0.2662 0.1237 0.1962
v -0.165356 0.182905 0.010042 0.2085 0.1209 0.1824
v -0.137694 1.308282 0.019473 0.0915 0.1085 0.1386
v -0.154047 1.384067 -0.018474 0.6248 0.0043 0.1328
v -0.164288 1.330971 0.022337 0.3032 0.0302 0.1161
v -0.136352 1.381075 0.045529 0.6090 0.0000 0.1479
v -0.141233 1.462954 -0.020100 0.7618 0.0009 0.1487
v -0.156322 1.461177 0.020079 0.7518 0.0000 0.1547
v -0.133294 1.436225 0.043640 0.7648 0.0000 0.1606
v -0.141614 1.468286 -0.020118 0.7902 0.0010 0.1575
v -0.159334 1.533443 0.019921 0.7927 0.0002 0.1633
v -0.133363 1.515820 0.046779 0.8145 0.0008 0.1708
v -0.133374 1.576582 -0.049954 0.7707 0.0011 0.1539
v -0.159334 1.540551 0.019881 0.3995 0.0443 0.1442
v -0.133167 1.544661 0.047862 0.6110 0.0552 0.1923
v -0.133346 1.693383 -0.000528 0.2804 0.0676 0.1499
v -0.133727 1.725657 -0.012210 0.5203 0.0562 0.1621
v -0.134613 1.743651 -0.010023 0.2101 0.1508 0.1824
v -0.086286 0.064050 -0.262863 0.1883 0.1186 0.2194
v -0.084460 0.000442 -0.221472 0.1976 0.1192 0.2249
v -0.084136 0.061921 -0.010311 0.0890 0.1231 0.1654
v -0.084395 0.075692 0.011457 0.0831 0.1207 0.1623
v -0.100101 0.063370 0.255165 0.1242 0.0597 0.1667
v -0.085958 0.045900 0.266194 0.1202 0.1426 0.2087
v -0.097971 0.077499 -0.250699 0.1038 0.1118 0.1690
v -0.091163 0.101145 -0.221335 0.1823 0.1163 0.2144
v -0.089102 0.079248 -0.010053 0.0999 0.1418 0.1937
v -0.084395 0.078062 0.011404 0.1138 0.1861 0.2616
v -0.097542 0.077723 0.252800 0.1845 0.1292 0.2325
v -0.092514 0.076615 0.256495 0.1251 0.1605 0.2204
v -0.099082 0.198479 -0.011583 0.1602 0.1224 0.1797
v -0.087759 0.200452 0.014582 0.2290 0.1434 0.2207
v -0.093687 1.060883 -0.001383 0.5000 0.5000 0.5000
v -0.093837 1.150139 -0.010098 0.2118 0.1908 0.2144
v -0.099395 1.082444 -0.003831 0.2126 0.1926 0.2187
v -0.105107 1.203964 -0.011175 0.2060 0.1681 0.2035
v -0.087784 1.204043 -0.006279 0.2074 0.1699 0.2068
v -0.085545 1.236088 -0.010359 0.1541 0.0441 0.1020
v -0.085240 1.235865 -0.004060 0.1111 0.0467 0.1015
v -0.108137 1.381233 -0.063528 0.4912 0.0278 0.1465
v -0.107678 1.383878 -0.063012 0.2666 0.0128 0.0935
v -0.097951 1.310239 0.030954 0.1945 0.0250 0.1029
v -0.085093 1.384395 0.056804 0.6081 0.0000 0.1448
v -0.105860 1.417882 -0.073024 0.6102 0.0360 0.1663
v -0.108030 1.462501 -0.050628 0.7155 0.0138 0.1541
v -0.132729 1.459105 0.042615 0.8150 0.0000 0.1750
v -0.131763 1.459993 0.043813 0.7870 0.0021 0.1605
v -0.110888 1.495101 -0.063365 0.5768 0.0913 0.1821
v -0.118664 1.471840 -0.040606 0.6550 0.0267 0.1509
v -0.132535 1.463250 0.043015 0.8237 0.0027 0.1731
v -0.101738 1.543888 -0.070394 0.2886 0.0716 0.1286
v -0.128302 1.561685 -0.050686 0.5231 0.0205 0.1345
v -0.104165 1.611039 0.039451 0.4097 0.0638 0.1649
v -0.108873 1.545660 0.057474 0.6174 0.1287 0.2361
v -0.094562 1.617616 -0.019856 0.4665 0.0110 0.0728
v -0.084397 1.618739 -0.009134 0.3232 0.0818 0.1558
v -0.129961 1.740169 -0.011981 0.5454 0.0515 0.0977
v -0.096069 1.716377 0.033454 0.4071 0.1178 0.1512
v -0.115275 1.771267 -0.011941 0.2831 0.1367 0.1447
v -0.107796 1.773341 -0.009913 0.1869 0.1176 0.1477
v -0.083636 0.064421 -0.264556 0.1089 0.0355 0.1403
v -0.082888 0.000000 -0.222023 0.0914 0.1051 0.1625
v -0.038643 0.049988 -0.120527 0.0813 0.1207 0.1676
v -0.036481 0.050075 -0.115223 0.0921 0.1212 0.1635
v -0.039581 0.067401 -0.010293 0.0930 0.1253 0.1623
v -0.075734 0.050674 0.014939 0.0837 0.1260 0.1649
v -0.047154 0.048780 0.147128 0.0914 0.1189 0.1622
v -0.045265 0.076225 0.201370 0.1234 0.1194 0.1848
v -0.045924 0.075229 0.202252 0.1627 0.0914 0.1964
v -0.083882 0.046047 0.267519 0.1461 0.0860 0.1916
v -0.067888 0.077568 -0.270314 0.1246 0.1500 0.2398
v -0.082207 0.078062 -0.201601 0.1051 0.1482 0.2191
v -0.035628 0.083048 -0.154291 0.0939 0.1403 0.1939
v -0.035308 0.090869 -0.105777 0.0957 0.1379 0.1821
v -0.082323 0.080432 -0.010057 0.0949 0.1324 0.1742
v -0.069709 0.081616 0.011340 0.0946 0.1407 0.1907
v -0.035816 0.084190 0.144487 0.1092 0.1872 0.2538
v -0.073474 0.086374 0.194056 0.1044 0.1567 0.2162
v -0.079356 0.092869 0.254403 0.1359 0.1705 0.2578
v -0.069453 0.076467 0.271435 0.1833 0.1348 0.2346
v -0.082017 0.158603 -0.222577 0.1516 0.2614 0.3595
v -0.057482 0.154351 -0.204209 0.1494 0.1963 0.2741
v -0.035816 0.183847 -0.136031 0.1839 0.1610 0.2373
v -0.035122 0.184662 -0.116044 0.0964 0.1418 0.1866
v -0.083969 0.201211 -0.010920 0.5414 0.0518 0.1462
v -0.035439 0.209208 -0.007095 0.3568 0.1027 0.1849
v -0.036865 0.185720 0.091998 0.1241 0.2394 0.3241
v -0.036406 0.182492 0.144977 0.1151 0.2071 0.2793
v -0.035254 0.161878 0.192531 0.1027 0.1679 0.2319
v -0.047833 0.159830 0.221079 0.1107 0.1882 0.2624
v -0.083642 1.258859 -0.011991 0.1394 0.0322 0.1044
v -0.068671 1.301040 0.014406 0.1282 0.0248 0.0989
v -0.082521 1.382966 -0.051595 0.3381 0.0058 0.1051
v -0.063260 1.377658 0.042324 0.2090 0.0040 0.0929
v -0.067036 1.383581 0.045569 0.7812 0.0000 0.1575
v -0.082799 1.462360 -0.036812 0.7405 0.0000 0.1511
v -0.064108 1.387728 0.042637 0.7443 0.0000 0.1552
v -0.080574 1.447620 0.052318 0.8048 0.0031 0.1660
v -0.083639 1.513295 -0.045042 0.7595 0.0000 0.1518
v -0.066272 1.515080 0.042329 0.7612 0.0000 0.1557
v -0.082511 1.536701 0.054138 0.8173 0.0027 0.1675
v -0.066688 1.593285 -0.038521 0.6497 0.0034 0.1391
v -0.055110 1.597337 -0.009882 0.5624 0.1218 0.2201
v -0.066531 1.586161 0.043730 0.6798 0.1085 0.2259
v -0.083737 1.693536 -0.010719 0.5410 0.0463 0.0728
v -0.082702 1.617504 -0.009869 0.4654 0.0497 0.0884
v -0.062879 1.759674 -0.010262 0.5512 0.0769 0.0822
v -0.041088 1.757405 0.001882 0.3665 0.1029 0.1392
v -0.067225 1.771220 -0.010676 0.1986 0.1133 0.1503
v -0.035439 1.771563 0.016163 0.2994 0.1122 0.1559
v -0.034539 0.048741 -0.225223 0.1293 0.0566 0.1541
v -0.033174 0.046090 -0.222132 0.0940 0.0843 0.1511
v -0.011304 0.076285 -0.124738 0.0893 0.1246 0.1674
v -0.008316 0.062662 -0.116173 0.0928 0.1245 0.1657
v 0.012658 0.069769 -0.061086 0.0866 0.1247 0.1677
v 0.009356 0.073942 0.010673 0.0858 0.1231 0.1659
v -0.020767 0.052353 0.072934 0.0875 0.1214 0.1638
v -0.011078 0.051185 0.118578 0.0901 0.1215 0.1659
v -0.022339 0.049870 0.149587 0.0885 0.1218 0.1644
v -0.035035 0.050815 0.207094 0.1799 0.1138 0.1936
v -0.034384 0.083985 -0.225309 0.1169 0.0489 0.1445
v -0.032628 0.079839 -0.222131 0.1108 0.1641 0.2313
v -0.012761 0.078655 -0.128797 0.0960 0.1429 0.1959
v 0.010287 0.081025 -0.067487 0.0897 0.1295 0.1766
v 0.013750 0.080580 -0.058440 0.0882 0.1255 0.1642
v 0.009459 0.081025 0.010609 0.0858 0.1243 0.1632
v -0.011056 0.089837 0.089658 0.0880 0.1203 0.1626
v -0.024518 0.087520 0.097768 0.0943 0.1414 0.1904
v -0.033933 0.083735 0.150914 0.1048 0.1654 0.2238
v -0.034664 0.077516 0.211997 0.1197 0.1921 0.2717
v -0.032427 0.177675 -0.169336 0.1832 0.1533 0.2247
v -0.006000 0.186553 -0.121555 0.1407 0.1693 0.2367
v 0.007473 0.190607 -0.091936 0.1030 0.1280 0.1749
v -0.010776 0.197019 -0.061371 0.2330 0.1045 0.1626
v 0.012387 0.227332 0.038411 0.1997 0.1125 0.1716
v 0.010771 0.155651 0.095788 0.0941 0.2073 0.2863
v 0.007868 0.154560 0.103471 0.1092 0.1857 0.2501
v -0.018319 0.164229 0.153239 0.1009 0.1591 0.2166
v -0.033410 0.162767 0.213622 0.1329 0.2451 0.3415
v 0.007105 0.246288 -0.034176 0.1616 0.2288 0.3249
v 0.005923 0.302560 0.019524 0.1782 0.1846 0.2744
v 0.006673 0.383710 -0.019789 0.1587 0.2843 0.3893
v 0.000576 0.380768 0.012705 0.1389 0.2552 0.3641
v 0.008156 0.458197 -0.021437 0.1679 0.2924 0.4031
v 0.003883 0.456568 0.019186 0.1264 0.2672 0.3954
v 0.004342 0.505731 -0.019104 0.1793 0.3047 0.4179
v 0.013516 0.506319 0.027588 0.1260 0.2280 0.3657
v 0.013653 0.598434 -0.026244 0.1841 0.3099 0.4246
v 0.001821 0.613724 0.017674 0.1683 0.2315 0.3615
v 0.013140 0.619462 -0.025998 0.1915 0.3089 0.4179
v -0.001210 0.685174 0.012490 0.2662 0.1776 0.3117
v 0.011043 0.768768 -0.024696 0.1928 0.3024 0.4096
v 0.013800 0.755995 0.028322 0.2801 0.2106 0.3315
v 0.009699 0.837812 -0.023863 0.1901 0.3027 0.4125
v 0.013140 0.843365 0.030288 0.3973 0.3218 0.3948
v 0.013205 0.883645 -0.026510 0.1883 0.3043 0.4182
v 0.013140 0.852251 0.030295 0.3363 0.3931 0.4642
v 0.013377 0.997227 -0.026378 0.1889 0.2962 0.4085
v 0.007617 0.991452 0.025844 0.4081 0.4495 0.4944
v 0.013386 1.077454 -0.027776 0.1724 0.2604 0.3525
v 0.013380 1.077441 0.029108 0.2977 0.3315 0.3706
v 0.003391 1.117027 -0.024815 0.1405 0.1751 0.2183
v -0.005804 1.115250 -0.008726 0.1122 0.1696 0.2336
v 0.012087 1.154937 -0.031128 0.1367 0.2001 0.2721
v 0.011019 1.226314 0.001882 0.2505 0.1634 0.2424
v 0.011063 1.305984 0.001066 0.6456 0.0473 0.1372
v -0.034852 1.343893 0.003179 0.7270 0.0339 0.1280
v 0.011219 1.438981 0.001083 0.7113 0.0385 0.1373
v 0.011245 1.495088 0.000794 0.6506 0.0517 0.1327
v 0.011536 1.556247 0.002698 0.6448 0.0350 0.1179
v 0.011474 1.619629 0.002290 0.4398 0.0399 0.1162
v 0.006346 1.770971 -0.019727 0.2203 0.0830 0.1189
v 0.011394 1.699890 0.001882 0.2973 0.0719 0.1289
v 0.013497 1.800000 -0.014052 0.3180 0.0853 0.1385
v -0.006973 1.790744 -0.009783 0.2348 0.1141 0.1686
v 0.062487 0.055886 -0.017710 0.0862 0.1261 0.1676
v 0.052692 0.074804 0.039105 0.0868 0.1235 0.1649
v 0.058681 0.073916 0.043929 0.0864 0.1230 0.1622
v 0.061752 0.082356 -0.019348 0.0860 0.1260 0.1665
v 0.052680 0.084119 0.039015 0.0858 0.1234 0.1651
v 0.062633 0.082209 0.047056 0.0895 0.1255 0.1647
v 0.014362 0.190607 -0.076940 0.1586 0.1180 0.1629
v 0.024438 0.224963 -0.039972 0.1109 0.1481 0.1988
v 0.053299 0.181870 0.042994 0.1082 0.1541 0.2058
v 0.037646 0.176083 0.052080 0.0892 0.1453 0.2022
v 0.016660 0.178908 0.098137 0.0625 0.1635 0.2382
v 0.050483 0.296932 -0.010068 0.1567 0.2153 0.2961
v 0.051437 0.297821 0.007186 0.1678 0.1749 0.2491
v 0.049743 0.372308 -0.010088 0.1725 0.3026 0.4078
v 0.051323 0.381082 0.003768 0.1347 0.2654 0.3810
v 0.049038 0.428728 -0.010155 0.1856 0.3223 0.4332
v 0.050625 0.459233 0.002630 0.1202 0.2678 0.4004
v 0.048231 0.513248 -0.010072 0.1887 0.3256 0.4371
v 0.050100 0.481298 0.004330 0.1211 0.2412 0.3804
v 0.048263 0.581773 -0.010126 0.1905 0.3265 0.4398
v 0.049089 0.540087 0.006778 0.1363 0.1696 0.3189
v 0.048973 0.653891 -0.010072 0.1932 0.3278 0.4406
v 0.049086 0.617092 0.010042 0.2622 0.1937 0.3283
v 0.049722 0.740743 -0.010106 0.1952 0.3285 0.4382
v 0.049016 0.762586 0.013561 0.3355 0.1677 0.3004
v 0.050472 0.844551 -0.010174 0.1974 0.3294 0.4357
v 0.038565 0.830335 0.026108 0.3840 0.4137 0.4710
v 0.050517 0.917705 -0.010332 0.1970 0.3300 0.4367
v 0.045050 0.919186 0.021297 0.5586 0.5909 0.5967
v 0.050451 0.966573 -0.010067 0.1942 0.3283 0.4354
v 0.045075 0.973792 0.021273 0.4976 0.5302 0.5377
v 0.050462 1.048315 -0.010138 0.1568 0.2355 0.2990
v 0.045083 1.016181 0.021259 0.1362 0.1669 0.2085
v 0.018835 1.153160 -0.032792 0.1099 0.1247 0.1543
v 0.058330 1.134276 0.001066 0.1014 0.1310 0.1764
v 0.037423 1.212987 -0.010433 0.1917 0.1186 0.1583
v 0.040205 1.230757 0.006778 0.1771 0.1870 0.2521
v 0.037420 1.265483 -0.010431 0.4629 0.0842 0.1550
v 0.040229 1.299024 0.006778 0.6274 0.0511 0.1359
v 0.037044 1.378842 -0.010994 0.3898 0.0856 0.1662
v 0.040252 1.377065 0.006778 0.6384 0.0510 0.1408
v 0.037674 1.390689 -0.010053 0.5649 0.1123 0.1987
v 0.041401 1.434671 0.000845 0.5850 0.0705 0.1598
v 0.037705 1.472135 -0.010109 0.5129 0.0817 0.1720
v 0.041416 1.465285 0.001104 0.6152 0.0621 0.1545
v 0.037476 1.560431 -0.010528 0.5738 0.0595 0.1570
v 0.041447 1.566022 0.001066 0.5734 0.0550 0.1359
v 0.037117 1.619924 -0.011068 0.2327 0.0784 0.1343
v 0.041472 1.621108 0.001066 0.4169 0.0421 0.1150
v 0.049550 1.760309 -0.010587 0.2040 0.0884 0.1374
v 0.051979 1.754385 0.001757 0.2873 0.0627 0.1223
v 0.048539 1.778321 -0.013056 0.2162 0.1169 0.1646
v 0.049713 1.789159 -0.010030 0.1408 0.1179 0.1511
v 0.109520 0.063846 -0.091278 0.0926 0.1273 0.1706
v 0.083955 0.052420 -0.034017 0.0889 0.1256 0.1674
v 0.091664 0.053563 0.042823 0.0931 0.1261 0.1679
v 0.111450 0.073053 0.086327 0.0945 0.1277 0.1685
v 0.111607 0.091169 -0.090707 0.1014 0.1496 0.2028
v 0.106650 0.077471 -0.055927 0.0890 0.1245 0.1665
v 0.072996 0.091684 0.041397 0.0922 0.1263 0.1682
v 0.107679 0.079399 0.083100 0.0794 0.1212 0.1676
v 0.109922 0.151192 0.096136 0.0710 0.1176 0.1671
v 0.111239 0.198687 -0.091557 0.1137 0.1924 0.2623
v 0.081678 0.208386 -0.010767 0.1168 0.1913 0.2562
v 0.101071 0.192109 0.042485 0.1169 0.1933 0.2550
v 0.110299 0.190969 0.051661 0.1249 0.1496 0.2137
v 0.106507 0.154454 0.097788 0.1085 0.1434 0.2078
v 0.064172 0.260652 0.001066 0.1007 0.2118 0.2810
v 0.064827 1.137759 -0.014032 0.1063 0.0922 0.1635
v 0.064829 1.139536 -0.006687 0.1093 0.0879 0.1559
v 0.066220 1.155559 -0.000823 0.1111 0.0837 0.1451
v 0.110374 1.767730 -0.012411 0.3480 0.0632 0.1145
v 0.070758 1.757682 0.001066 0.1420 0.1177 0.1487
v 0.064473 1.782459 -0.010164 0.4175 0.1153 0.1383
v 0.091093 1.787358 0.000250 0.2062 0.1245 0.1431
v 0.158854 0.037084 -0.132284 0.0956 0.0729 0.1589
v 0.139950 0.063255 -0.115583 0.0893 0.1243 0.1671
v 0.112070 0.050170 -0.056556 0.0888 0.1262 0.1684
v 0.118964 0.076352 0.092024 0.0842 0.1193 0.1592
v 0.160787 0.040152 0.145076 0.0893 0.1167 0.1583
v 0.159715 0.076524 -0.138237 0.1199 0.1915 0.2697
v 0.149463 0.090156 -0.087068 0.1145 0.1820 0.2499
v 0.111907 0.078070 -0.060134 0.1182 0.1942 0.2641
v 0.114259 0.079163 0.088112 0.1146 0.1878 0.2545
v 0.125576 0.076940 0.097242 0.0865 0.1357 0.1898
v 0.158149 0.187310 -0.118722 0.1185 0.1838 0.2488
v 0.160409 0.187636 -0.112909 0.1304 0.2132 0.2925
v 0.121276 0.200483 -0.061857 0.1393 0.2363 0.3218
v 0.118183 0.186460 0.041479 0.0552 0.0876 0.1340
v 0.117453 0.189335 0.057782 0.1885 0.1511 0.2174
v 0.160125 0.162174 0.124441 0.2037 0.1648 0.2391
v 0.140048 1.693967 -0.012170 0.3346 0.1666 0.1668
v 0.140048 1.693967 0.014246 0.2704 0.1828 0.1847
v 0.122914 1.725435 -0.012359 0.3443 0.1214 0.1432
v 0.121971 1.752602 -0.009949 0.2830 0.1512 0.1621
v 0.112181 1.772748 -0.012198 0.3062 0.2119 0.2003
v 0.112181 1.785235 -0.001383 0.4374 0.1657 0.1652
v 0.208666 0.022902 -0.169929 0.1627 0.0932 0.1826
v 0.209735 0.014356 -0.149907 0.1073 0.0768 0.1632
v 0.198042 0.004554 -0.107469 0.1222 0.1154 0.1845
v 0.185425 0.031372 0.096066 0.0939 0.0993 0.1629
v 0.209353 0.012301 0.148387 0.1078 0.0957 0.1623
v 0.202028 0.067992 0.171072 0.1039 0.0289 0.1390
v 0.208837 0.083972 -0.169888 0.1194 0.0575 0.1490
v 0.209674 0.095208 -0.155141 0.1002 0.1262 0.1911
v 0.160826 0.087008 -0.093948 0.1158 0.1397 0.2067
v 0.163420 0.076878 0.094631 0.1093 0.1740 0.2364
v 0.163403 0.076535 0.146728 0.1252 0.1809 0.2603
v 0.198852 0.077174 0.168933 0.1114 0.1852 0.2605
v 0.194346 0.174550 -0.132910 0.1225 0.1958 0.2781
v 0.177714 0.182998 -0.116110 0.1346 0.2214 0.3105
v 0.164731 0.175890 0.093477 0.1448 0.2269 0.3118
v 0.196913 0.157820 0.119119 0.2173 0.2056 0.2874
v 0.204518 0.159600 0.150534 0.1214 0.2594 0.3409
v 0.161101 1.693418 0.012062 0.4183 0.2140 0.1865
v 0.168934 1.723773 -0.010700 0.4256 0.0940 0.1152
v 0.161890 1.704036 0.014021 0.3830 0.1011 0.1221
v 0.211689 0.026397 -0.169954 0.0870 0.0278 0.1283
v 0.218085 0.021954 -0.146469 0.1622 0.0854 0.1893
v 0.219050 0.006480 -0.116136 0.1919 0.1134 0.2182
v 0.220323 0.025248 0.147729 0.1368 0.1025 0.1917
v 0.210469 0.071317 0.175006 0.1278 0.1193 0.1968
v 0.209958 0.082610 -0.169930 0.0857 0.0283 0.1264
v 0.234971 0.077541 -0.134046 0.1199 0.1499 0.2460
v 0.210469 0.125834 -0.115924 0.1611 0.1504 0.2412
v 0.224131 0.084374 0.148480 0.1559 0.2006 0.2873
v 0.213018 0.088299 0.162553 0.1118 0.0905 0.1677
v 0.210838 0.168687 -0.132346 0.1286 0.2546 0.3629
v 0.212544 0.156251 -0.115854 0.1366 0.2570 0.3611
v 0.210200 0.157139 0.115301 0.1526 0.2680 0.3686
f 294 288 312
f 312 288 307
f 306 311 307
f 312 307 311
f 288 306 307
f 288 287 306
f 55 59 54
f 54 59 58
f 29 30 36
f 36 72 82
f 35 29 36
f 36 30 72
f 30 29 72
f 71 29 81
f 81 29 35
f 29 71 72
f 121 81 131
f 121 71 81
f 122 131 132
f 122 121 131
f 278 280 279
f 257 259 279
f 279 259 281
f 257 280 258
f 280 281 282
f 280 257 279
f 282 259 260
f 259 282 281
f 279 281 280
f 235 237 259
f 257 235 259
f 236 235 257
f 236 257 258
f 259 238 260
f 259 237 238
f 279 280 301
f 279 280 302
f 301 279 302
f 300 277 279
f 300 278 277
f 278 300 280
f 300 279 302
f 280 300 302
f 277 278 279
f 260 258 280
f 260 280 282
f 236 258 260
f 238 236 260
f 237 235 184
f 182 184 235
f 293 287 294
f 287 288 294
f 286 264 287
f 264 265 269
f 269 265 270
f 270 265 293
f 265 264 287
f 265 287 293
f 270 293 287
f 242 269 246
f 269 242 264
f 246 190 245
f 246 191 190
f 287 265 270
f 242 188 191
f 242 191 246
f 187 190 188
f 188 190 191
f 270 264 269
f 265 264 270
f 293 286 287
f 306 287 311
f 287 293 311
f 283 289 290
f 309 308 290
f 303 308 309
f 284 290 283
f 308 289 290
f 303 309 304
f 303 283 289
f 303 289 308
f 304 284 303
f 284 283 303
f 94 142 143
f 94 93 142
f 132 81 82
f 132 131 81
f 142 92 141
f 93 92 142
f 266 261 267
f 261 262 267
f 262 239 243
f 262 243 267
f 243 239 267
f 262 267 239
f 241 242 246
f 241 246 245
f 190 187 245
f 245 187 241
f 186 187 189
f 284 261 290
f 290 261 266
f 290 285 291
f 290 284 285
f 267 285 291
f 262 285 267
f 262 267 291
f 290 291 267
f 285 262 291
f 266 290 267
f 244 243 267
f 244 267 268
f 268 240 244
f 267 240 268
f 263 240 267
f 263 240 262
f 262 263 267
f 244 186 189
f 240 186 244
f 285 304 305
f 285 284 304
f 17 14 18
f 20 17 18
f 20 18 21
f 21 18 60
f 60 18 56
f 60 56 57
f 23 21 24
f 20 21 23
f 51 14 55
f 55 14 17
f 59 62 23
f 20 23 59
f 55 17 59
f 17 20 59
f 18 19 57
f 56 18 57
f 55 59 109
f 106 55 109
f 55 58 59
f 59 58 61
f 59 61 62
f 59 62 112
f 54 58 55
f 109 59 112
f 58 59 62
f 61 58 62
f 240 243 244
f 239 243 240
f 186 240 239
f 186 125 135
f 135 186 189
f 124 125 135
f 124 135 134
f 189 186 190
f 186 187 190
f 135 134 189
f 123 124 134
f 83 82 133
f 132 72 133
f 72 122 123
f 133 72 123
f 82 132 133
f 82 72 132
f 133 123 134
f 134 73 83
f 124 73 123
f 134 83 133
f 134 123 73
f 189 187 190
f 73 82 83
f 73 72 82
f 74 73 124
f 124 133 134
f 123 133 124
f 123 122 133
f 133 122 132
f 72 71 122
f 82 72 122
f 132 82 122
f 122 71 121
f 134 83 84
f 82 72 83
f 72 73 83
f 83 73 74
f 83 74 84
f 74 124 84
f 84 124 134
f 189 186 240
f 189 240 244
f 189 125 135
f 186 125 189
f 126 186 189
f 126 189 136
f 136 189 190
f 126 136 190
f 187 126 190
f 32 8 38
f 8 10 38
f 37 85 38
f 37 31 85
f 31 75 85
f 2 7 8
f 1 7 2
f 32 31 37
f 32 37 38
f 8 7 31
f 8 31 32
f 32 76 86
f 38 32 86
f 75 85 135
f 125 75 135
f 136 76 126
f 86 76 136
f 126 76 86
f 126 86 136
f 38 85 86
f 135 125 126
f 135 126 136
f 125 186 126
f 86 85 135
f 86 135 136
f 309 290 295
f 309 295 313
f 295 271 272
f 78 79 88
f 77 78 88
f 79 33 39
f 78 79 33
f 88 78 89
f 78 79 39
f 89 78 39
f 127 126 137
f 126 136 137
f 87 77 88
f 138 77 87
f 128 77 138
f 127 128 137
f 137 128 138
f 187 127 126
f 136 187 190
f 136 126 187
f 137 127 138
f 128 138 127
f 136 190 137
f 139 78 88
f 129 78 139
f 88 138 139
f 88 87 138
f 128 129 138
f 138 129 139
f 187 127 190
f 190 127 137
f 39 33 40
f 40 33 34
f 40 34 80
f 39 40 90
f 40 80 90
f 89 39 90
f 33 80 34
f 33 79 80
f 80 79 90
f 90 79 89
f 22 21 60
f 112 116 113
f 106 109 110
f 107 106 110
f 109 112 110
f 110 112 113
f 57 53 105
f 57 105 108
f 108 105 107
f 107 105 104
f 19 16 57
f 16 53 57
f 114 111 113
f 108 107 111
f 111 107 110
f 111 110 113
f 57 108 111
f 60 57 111
f 292 269 293
f 286 292 293
f 286 269 292
f 264 269 286
f 136 126 127
f 136 127 137
f 190 137 191
f 190 187 191
f 187 188 191
f 269 246 270
f 265 242 264
f 246 242 265
f 246 265 269
f 137 127 188
f 137 188 191
f 293 269 270
f 188 187 242
f 187 188 127
f 246 242 245
f 242 241 245
f 187 186 240
f 244 187 240
f 245 241 190
f 187 244 190
f 241 187 190
f 189 190 244
f 244 263 268
f 244 240 263
f 263 262 268
f 268 262 267
f 138 139 148
f 147 138 148
f 79 89 140
f 79 78 89
f 130 79 140
f 78 129 88
f 129 139 88
f 88 89 100
f 88 100 99
f 99 139 88
f 139 99 148
f 88 139 140
f 89 88 140
f 89 79 130
f 147 195 196
f 146 195 147
f 87 98 99
f 88 87 99
f 99 98 148
f 148 98 147
f 87 147 98
f 147 146 138
f 97 87 98
f 97 146 147
f 87 97 147
f 87 138 147
f 99 89 100
f 99 88 89
f 98 88 99
f 98 87 88
f 139 147 148
f 139 138 147
f 99 100 148
f 148 100 149
f 89 140 100
f 140 139 149
f 139 148 149
f 140 149 100
f 51 55 106
f 103 51 106
f 51 50 55
f 51 50 54
f 55 54 50
f 51 54 55
f 18 14 15
f 104 103 107
f 103 106 107
f 49 104 52
f 49 102 104
f 53 104 105
f 53 52 104
f 16 15 52
f 16 52 53
f 18 15 16
f 18 16 19
f 101 48 102
f 101 103 102
f 102 103 104
f 48 51 103
f 101 48 103
f 46 47 49
f 48 46 49
f 49 48 102
f 13 49 15
f 15 49 52
f 14 51 15
f 15 51 52
f 52 51 49
f 51 48 49
f 45 44 46
f 45 46 47
f 294 293 311
f 294 311 312
f 275 292 297
f 269 292 275
f 297 292 298
f 269 275 297
f 292 269 297
f 250 251 275
f 274 250 275
f 251 274 275
f 251 250 274
f 293 297 298
f 293 292 297
f 293 298 315
f 311 293 315
f 246 251 275
f 269 246 275
f 251 246 252
f 252 246 247
f 247 246 270
f 270 269 275
f 293 294 299
f 298 293 299
f 270 293 276
f 276 293 298
f 275 276 298
f 297 275 298
f 298 292 293
f 270 275 276
f 252 270 276
f 252 247 270
f 276 251 252
f 275 251 276
f 299 294 298
f 298 294 311
f 315 298 311
f 181 234 183
f 183 234 236
f 233 235 236
f 233 236 234
f 230 229 231
f 230 231 232
f 232 231 234
f 234 231 233
f 228 229 230
f 228 227 229
f 183 182 235
f 183 235 236
f 228 226 227
f 224 223 226
f 223 225 226
f 226 225 227
f 224 221 223
f 222 221 224
f 220 219 221
f 220 221 222
f 226 224 176
f 226 176 177
f 177 176 224
f 177 224 226
f 234 181 236
f 236 181 183
f 235 233 234
f 235 234 236
f 233 231 232
f 232 181 234
f 232 179 180
f 181 232 180
f 233 232 234
f 226 177 178
f 228 226 178
f 226 228 225
f 225 228 227
f 232 230 179
f 228 179 230
f 229 230 232
f 231 229 232
f 178 179 228
f 224 222 175
f 176 175 224
f 174 172 175
f 221 174 175
f 172 173 175
f 222 221 175
f 167 214 169
f 169 214 216
f 165 212 214
f 167 165 214
f 234 180 232
f 181 180 234
f 219 254 220
f 220 254 255
f 254 255 256
f 175 173 222
f 173 220 222
f 171 169 216
f 171 216 218
f 214 213 216
f 216 213 215
f 220 218 219
f 218 217 219
f 216 215 218
f 215 217 218
f 219 174 221
f 219 172 174
f 217 172 219
f 172 217 170
f 173 171 218
f 173 218 220
f 143 93 94
f 83 94 84
f 94 83 93
f 84 94 143
f 134 84 143
f 132 141 142
f 133 132 142
f 82 81 92
f 82 92 132
f 132 92 141
f 81 91 92
f 141 132 133
f 141 133 142
f 83 92 93
f 83 82 92
f 133 134 143
f 142 133 143
f 92 82 93
f 82 83 93
f 82 35 36
f 81 35 82
f 134 142 143
f 134 133 142
f 273 272 249
f 42 11 12
f 41 11 42
f 141 92 93
f 141 93 142
f 142 93 143
f 95 42 96
f 95 41 42
f 144 96 145
f 144 95 96
f 150 144 151
f 151 144 145
f 197 150 152
f 199 197 152
f 250 194 195
f 250 195 251
f 194 197 198
f 194 250 198
f 250 198 253
f 194 193 197
f 151 145 198
f 145 194 198
f 165 210 212
f 165 163 210
f 202 199 201
f 200 199 202
f 157 155 202
f 194 145 146
f 194 146 195
f 212 211 214
f 211 213 214
f 209 211 210
f 210 211 212
f 248 249 273
f 272 248 273
f 249 193 194
f 249 194 250
f 248 193 249
f 193 144 197
f 144 150 197
f 204 203 205
f 204 205 206
f 157 202 204
f 161 159 206
f 161 206 208
f 208 207 209
f 208 209 210
f 163 161 210
f 143 144 192
f 192 144 193
f 202 203 204
f 202 201 203
f 201 154 156
f 201 156 203
f 206 205 208
f 208 205 207
f 170 168 169
f 198 197 200
f 197 199 200
f 207 160 209
f 209 162 164
f 160 162 209
f 209 164 211
f 155 154 156
f 154 155 157
f 156 154 157
f 156 157 159
f 158 156 159
f 160 158 159
f 160 159 161
f 160 161 162
f 162 161 163
f 151 198 200
f 153 151 200
f 160 207 158
f 97 98 146
f 146 98 147
f 161 208 210
f 168 166 167
f 168 167 169
f 155 153 200
f 155 200 202
f 213 166 215
f 215 166 168
f 205 156 158
f 203 156 205
f 205 158 207
f 150 151 153
f 152 150 153
f 146 147 196
f 195 146 196
f 157 204 206
f 159 157 206
f 173 170 171
f 170 173 172
f 164 165 167
f 166 164 167
f 168 170 217
f 201 152 154
f 199 152 201
f 154 152 153
f 154 153 155
f 164 162 163
f 164 163 165
f 164 166 211
f 211 166 213
f 170 169 171
f 215 168 217
f 63 25 64
f 24 21 22
f 24 22 25
f 63 24 25
f 25 60 64
f 22 60 25
f 26 24 63
f 26 63 66
f 113 66 63
f 116 66 113
f 113 63 64
f 113 64 114
f 67 68 117
f 117 68 118
f 66 65 115
f 68 66 118
f 116 66 115
f 66 116 118
f 115 65 117
f 116 115 117
f 118 116 117
f 65 67 117
f 117 182 118
f 118 182 183
f 28 66 26
f 28 66 68
f 68 28 67
f 67 28 27
f 66 68 67
f 66 67 65
f 117 118 120
f 117 120 119
f 119 120 185
f 184 119 185
f 183 236 238
f 185 183 238
f 116 112 65
f 116 65 66
f 62 65 112
f 62 24 63
f 24 26 66
f 63 24 66
f 62 23 24
f 62 63 66
f 65 62 66
f 64 111 114
f 64 60 111
f 237 184 185
f 237 185 238
f 68 69 70
f 67 69 68
f 120 118 185
f 118 183 185
f 117 119 184
f 182 117 184
f 4 8 10
f 4 2 8
f 11 3 5
f 9 3 11
f 12 5 6
f 11 5 12
f 9 11 12
f 10 9 12
f 11 9 41
f 7 1 3
f 7 3 9
f 37 31 9
f 31 7 9
f 37 9 10
f 37 10 38
f 10 12 42
f 10 38 42
f 4 10 6
f 6 10 12
f 3 4 6
f 5 3 6
f 1 2 4
f 3 1 4
f 11 5 6
f 11 6 12
f 37 38 86
f 85 37 86
f 85 86 136
f 135 85 136
f 145 136 194
f 194 136 190
f 193 189 135
f 144 193 135
f 145 144 136
f 144 135 136
f 37 11 41
f 9 11 37
f 85 41 95
f 85 37 41
f 86 42 96
f 38 96 42
f 86 38 42
f 38 86 96
f 9 37 41
f 85 37 95
f 290 291 310
f 296 291 310
f 296 310 314
f 290 309 310
f 314 310 309
f 314 309 313
f 291 285 310
f 310 285 305
f 305 304 310
f 310 304 309
f 144 143 193
f 193 143 192
f 295 296 313
f 314 313 296
f 266 271 295
f 290 266 295
f 295 272 296
f 266 267 272
f 266 272 271
f 193 192 248
f 272 267 296
f 267 291 296
f 273 268 267
f 273 267 272
f 295 291 296
f 290 291 295
f 291 267 272
f 291 272 296
f 266 290 271
f 290 295 271
f 268 273 272
f 267 268 272
f 248 267 272
f 243 267 248
f 189 193 194
f 190 189 194
f 248 272 249
