v -0.683689 0.100032 -0.600998 0.0000 0.3698 0.4903
v -0.931071 0.147914 -0.314047 0.0000 0.3645 0.4831
v -0.916991 0.147792 -0.251000 0.0000 0.3648 0.4831
v -0.679954 0.147833 0.131209 0.0097 0.2817 0.3743
v -1.036622 0.135441 0.185156 0.0243 0.3200 0.4202
v -1.078062 0.318101 -0.701124 0.0000 0.3749 0.4968
v -0.739316 0.156002 -0.440273 0.0000 0.3776 0.4992
v -0.954887 0.289948 -0.083167 0.0000 0.3749 0.4962
v -0.701127 0.163914 0.181185 0.0082 0.3496 0.4663
v -0.677881 0.315376 0.359602 0.0289 0.3778 0.4948
v -0.693803 0.316410 0.550811 0.5000 0.5000 0.5000
v -0.729355 0.321369 0.771293 0.5000 0.5000 0.5000
v -1.081380 0.369621 -0.701132 0.0100 0.4032 0.5096
v -0.970178 0.469565 -0.121860 0.0026 0.3386 0.4501
v -1.054956 0.457863 -0.059202 0.1055 0.4112 0.5093
v -0.757526 0.395193 0.372279 0.3373 0.6173 0.6809
v -0.694530 0.321891 0.552017 0.5479 0.4221 0.3329
v -0.729355 0.348498 0.778510 0.9010 0.2836 0.1561
v -0.694479 0.385662 0.925091 0.4253 0.0911 0.0905
v -0.734195 0.440800 1.282076 0.9013 0.1645 0.1262
v -0.739260 0.458121 1.414973 0.9077 0.3023 0.1607
v -1.058449 0.667200 -0.556785 0.0703 0.4833 0.5719
v -1.050775 0.665158 -0.516983 0.3274 0.5988 0.6588
v -0.948605 0.496267 -0.187887 0.2861 0.5616 0.6233
v -1.065227 0.573880 -0.052377 0.5867 0.7939 0.8089
v -0.683689 0.665701 0.355994 0.5211 0.7618 0.7892
v -0.682163 0.496041 1.067316 0.0784 0.0366 0.0549
v -1.074642 0.746881 -0.557076 0.5276 0.7730 0.7991
v -1.108656 0.746925 -0.315174 0.6074 0.8172 0.8374
v -1.130984 0.747766 -0.132269 0.6147 0.8213 0.8395
v -1.137649 0.738164 -0.060858 0.5924 0.8063 0.8206
v -1.053125 0.799231 0.351950 0.4013 0.6899 0.7296
v -0.151504 0.095011 -0.588091 0.0000 0.3601 0.4817
v -0.156485 0.096037 -0.478822 0.0000 0.3512 0.4686
v -0.159803 0.090612 -0.094879 0.0000 0.3541 0.4715
v -0.671339 0.147753 0.140559 0.0062 0.3128 0.4236
v -0.208060 0.009728 0.343035 0.0249 0.4006 0.5219
v -0.671181 0.291882 -0.798773 0.0041 0.3243 0.4409
v -0.677464 0.157429 -0.440079 0.0041 0.3291 0.4465
v -0.489518 0.159304 -0.300075 0.0000 0.3572 0.4770
v -0.204990 0.160060 -0.029212 0.0000 0.3521 0.4674
v -0.161674 0.202427 0.360025 0.3784 0.2952 0.3700
v -0.151504 0.269385 0.538824 0.8687 0.1288 0.1238
v -0.151504 0.259774 0.756039 0.8664 0.1245 0.1249
v -0.569743 0.309460 1.100128 0.8539 0.1156 0.1240
v -0.148659 0.320824 1.332575 0.8639 0.1228 0.1294
v -0.156045 0.320824 1.520307 0.9133 0.1420 0.1276
v -0.647163 0.330971 -0.798786 0.0252 0.4505 0.5517
v -0.200606 0.439912 -0.310756 0.0000 0.3529 0.4610
v -0.151763 0.388010 -0.228382 0.0000 0.3469 0.4596
v -0.674106 0.352395 0.046967 0.0000 0.3402 0.4530
v -0.676951 0.451084 0.367026 0.6008 0.2175 0.2378
v -0.397905 0.494191 0.480750 0.7187 0.3325 0.2468
v -0.542513 0.322198 0.720616 0.9024 0.2902 0.1668
v -0.641365 0.362496 0.923008 0.8942 0.2405 0.1623
v -0.673323 0.402847 1.235915 0.9098 0.2478 0.1619
v -0.157527 0.386886 1.413960 0.9117 0.2826 0.1641
v -0.160998 0.562899 -0.798805 0.0398 0.4429 0.5390
v -0.674703 0.588317 -0.504333 0.0002 0.3501 0.4584
v -0.631950 0.516887 -0.306769 0.0000 0.3603 0.4680
v -0.375954 0.496024 0.366997 0.0884 0.4740 0.5633
v -0.296850 0.503188 0.442298 0.8475 0.4506 0.2426
v -0.535487 0.506262 0.899098 0.9119 0.4481 0.2183
v -0.304107 0.541266 0.922312 0.8064 0.2673 0.1668
v -0.565546 0.505290 1.314457 0.9071 0.2909 0.1763
v -0.174740 0.518053 1.522620 0.9175 0.2648 0.1729
v -0.327517 0.730195 -0.798768 0.3037 0.6146 0.6546
v -0.466998 0.827249 -0.552642 0.6094 0.8170 0.8365
v -0.554531 0.827874 -0.064423 0.6017 0.8165 0.8361
v -0.226755 0.842280 0.050692 0.5856 0.8018 0.8195
v -0.500392 0.825787 0.333670 0.4034 0.6775 0.7178
v -0.164992 0.842700 -0.696235 0.0078 0.0366 0.0614
v -0.179055 0.843349 -0.073697 0.5800 0.8044 0.8256
v -0.163956 0.845011 0.063558 0.5717 0.7984 0.8192
v -0.149538 0.844334 0.194571 0.5650 0.7885 0.8088
v 0.122815 0.092898 -0.580554 0.0000 0.3563 0.4786
v 0.376540 0.090083 -0.355081 0.0000 0.3437 0.4602
v 0.369897 0.089386 -0.306701 0.0000 0.3517 0.4703
v -0.136765 0.076769 0.181922 0.0113 0.3264 0.4362
v 0.238705 0.000000 0.346844 0.0216 0.3722 0.4884
v -0.146760 0.181349 -0.798773 0.0007 0.3517 0.4721
v 0.173184 0.179075 -0.552948 0.0054 0.3056 0.4145
v -0.125350 0.164948 -0.217099 0.0000 0.3451 0.4632
v -0.075949 0.163090 -0.056330 0.0000 0.3464 0.4693
v 0.373216 0.320281 0.360088 0.3971 0.2834 0.3614
v -0.141898 0.266074 0.674080 0.8669 0.1377 0.1405
v -0.134894 0.262198 0.737771 0.8924 0.1531 0.1491
v -0.117918 0.320824 0.932057 0.8015 0.0855 0.1276
v -0.143329 0.320824 1.180310 0.9207 0.1602 0.1454
v -0.148225 0.273970 1.462484 0.9190 0.1320 0.1307
v -0.141537 0.321641 -0.798632 0.0011 0.3795 0.4955
v 0.380715 0.324128 -0.463681 0.0018 0.3305 0.4395
v -0.146540 0.390014 -0.234430 0.0000 0.3422 0.4544
v -0.041102 0.494625 0.365090 0.6283 0.2177 0.2473
v -0.063576 0.331981 0.581229 0.8809 0.1535 0.1418
v -0.096677 0.322713 0.722628 0.9003 0.1674 0.1498
v -0.117079 0.323004 0.923189 0.9086 0.1650 0.1490
v -0.148191 0.379258 1.195728 0.9178 0.1662 0.1452
v -0.027337 0.497271 -0.798773 0.0203 0.3981 0.5057
v -0.001087 0.496742 -0.531565 0.0000 0.3446 0.4544
v -0.147509 0.519719 0.362335 0.0758 0.4613 0.5563
v -0.109135 0.514117 0.430510 0.8423 0.2203 0.1776
v -0.129587 0.544429 0.878563 0.9074 0.2781 0.1769
v -0.138726 0.529086 1.014646 0.9061 0.2411 0.1679
v -0.142163 0.741808 -0.798783 0.2642 0.5542 0.6121
v -0.025512 0.842645 -0.548017 0.5983 0.8116 0.8292
v -0.147791 0.842500 -0.236062 0.5944 0.8114 0.8298
v -0.148180 0.671694 0.356476 0.1788 0.5250 0.5995
v 0.347603 1.011669 -0.562085 0.3691 0.5366 0.5613
v 0.352730 1.003803 -0.310845 0.5986 0.8106 0.8287
v 0.357237 0.963996 -0.289933 0.5090 0.7675 0.7940
v -0.131576 0.846381 0.064714 0.4258 0.6673 0.6847
v 0.102368 0.855169 0.192570 0.3967 0.5991 0.6229
v 0.344465 1.042179 -0.555148 0.5276 0.5702 0.5154
v 0.350375 1.017934 -0.347516 0.4649 0.5967 0.5904
v 0.334695 1.108512 -0.083520 0.3946 0.6159 0.6285
v 0.270814 1.122541 -0.061428 0.5550 0.6815 0.6625
v 0.379859 1.126082 0.352813 0.4648 0.6328 0.6341
v 0.394801 0.088288 -0.580000 0.0000 0.3562 0.4774
v 0.542586 0.091823 -0.552835 0.0000 0.3442 0.4611
v 0.541679 0.088186 -0.298027 0.0000 0.3487 0.4666
v 0.904579 0.083559 -0.056714 0.0041 0.2706 0.3736
v 0.383177 0.111707 0.372998 0.0073 0.2725 0.3749
v 0.907897 0.315376 -0.798734 0.0000 0.3667 0.4904
v 0.381910 0.186107 -0.512743 0.0474 0.0638 0.0849
v 0.437976 0.320824 0.360188 0.0000 0.3790 0.5082
v 0.906196 0.484696 -0.798773 0.0000 0.3739 0.4981
v 0.386237 0.328317 -0.470911 0.0366 0.0614 0.0837
v 0.438804 0.491902 0.358650 0.0029 0.4035 0.5263
v 0.904579 0.507157 -0.798805 0.0165 0.4368 0.5513
v 0.892229 0.648181 0.358064 0.0582 0.4769 0.5796
v 0.399787 0.695736 -0.798791 0.1190 0.4901 0.5704
v 0.711956 0.842227 0.355851 0.0835 0.4899 0.5813
v 0.381521 0.850398 -0.798271 0.3736 0.6280 0.6249
v 0.489946 1.011569 0.354603 0.3082 0.3421 0.4002
v 0.449915 1.149207 -0.798776 0.4859 0.6647 0.6314
v 0.754726 1.189825 -0.309678 0.4644 0.6221 0.6204
v 0.805777 1.190023 -0.102588 0.4223 0.5774 0.5755
v 0.389820 1.181787 -0.051799 0.4824 0.7260 0.7352
v 0.755548 1.189561 0.350362 0.4403 0.5186 0.5445
v 0.904353 1.191171 -0.797311 0.5359 0.7566 0.7616
v 0.906235 1.192774 -0.317301 0.5296 0.7704 0.7807
v 0.907852 1.192084 -0.111165 0.5100 0.7624 0.7712
v 0.900838 1.192213 -0.051029 0.4822 0.7409 0.7519
v 0.905407 1.197022 0.346119 0.5461 0.4753 0.4828
v 1.391082 0.102902 -0.553605 0.0000 0.3580 0.4756
v 1.401252 0.112250 -0.331778 0.0102 0.3600 0.4695
v 1.424335 0.139416 -0.299233 0.0047 0.3574 0.4720
v 1.316378 0.085264 -0.053245 0.0000 0.3000 0.4074
v 1.427834 0.091996 0.208885 0.0005 0.2738 0.3806
v 1.391369 0.314661 -0.580588 0.0323 0.3945 0.5057
v 1.391938 0.311562 -0.437189 0.0000 0.3734 0.4809
v 1.392440 0.293464 -0.302848 0.0000 0.3758 0.4910
v 1.393240 0.148386 -0.028862 0.0000 0.3804 0.4952
v 1.435130 0.152381 0.276307 0.0149 0.3908 0.5109
v 1.390338 0.371222 -0.559001 0.0809 0.4458 0.5476
v 1.391234 0.339350 -0.472653 0.0000 0.3881 0.5089
v 1.390958 0.387157 -0.240978 0.0000 0.3900 0.5091
v 1.389583 0.486044 0.179202 0.0009 0.3867 0.5037
v 1.439170 0.445175 0.353839 0.0427 0.4226 0.5335
v 1.387713 0.496805 -0.641014 0.0415 0.4660 0.5770
v 1.385273 0.664067 -0.453185 0.0054 0.4010 0.5212
v 1.387059 0.569948 -0.069436 0.0126 0.4133 0.5316
v 1.387775 0.545703 0.151193 0.0832 0.4966 0.5947
v 0.945568 0.654772 0.358124 0.1452 0.5279 0.6099
v 1.384208 0.754610 -0.560351 0.0578 0.5038 0.6075
v 1.385222 0.707177 -0.313929 0.0816 0.4998 0.6031
v 1.385656 0.671388 -0.257987 0.2056 0.6028 0.6720
v 1.385634 0.673057 -0.042452 0.1956 0.5925 0.6649
v 1.385724 0.706835 0.205417 0.1665 0.5658 0.6420
v 1.383324 0.847266 -0.567482 0.2828 0.6798 0.7235
v 1.383363 0.845054 -0.500937 0.3450 0.6912 0.7317
v 1.383634 0.847897 -0.126992 0.3274 0.6838 0.7264
v 1.383758 0.843623 -0.025683 0.3350 0.6867 0.7249
v 1.383943 0.844064 0.204645 0.3575 0.4912 0.5345
v 0.916202 1.025016 -0.798883 0.4613 0.6840 0.6536
v 1.381014 1.020078 -0.534019 0.4145 0.7148 0.7300
v 1.381380 1.018342 -0.069145 0.3978 0.7140 0.7392
v 1.381476 1.016571 -0.019899 0.4327 0.7267 0.7425
v 1.433029 1.020385 0.269406 0.5825 0.3158 0.3299
v 1.318040 1.193641 -0.798799 0.5153 0.7067 0.6740
v 1.208038 1.198552 -0.308648 0.4775 0.7408 0.7461
v 1.215757 1.198521 -0.260637 0.4461 0.7331 0.7406
v 1.221734 1.200000 0.115597 0.4552 0.7352 0.7449
v 1.430792 1.190372 0.329157 0.4942 0.6005 0.6124
v 1.440984 0.046969 -0.308470 0.4157 0.6680 0.6967
v 1.446883 0.057001 -0.295330 0.4147 0.6689 0.6986
v 1.444703 0.321370 -0.713969 0.3551 0.6278 0.6564
v 1.440286 0.189248 0.301786 0.3212 0.5695 0.5890
v 1.443525 0.339621 -0.703944 0.3825 0.6820 0.7073
v 1.446388 0.338259 0.339951 0.4617 0.7280 0.7329
v 1.442213 0.498065 -0.723870 0.4209 0.7033 0.7229
v 1.443700 0.502798 0.339951 0.4658 0.7346 0.7387
f 71 61 101
f 108 71 101
f 101 61 102
f 102 61 62
f 61 52 53
f 53 62 61
f 26 16 61
f 61 16 52
f 32 26 61
f 32 61 71
f 116 115 111
f 110 111 115
f 151 156 157
f 152 151 157
f 153 152 157
f 153 157 158
f 187 147 186
f 148 147 187
f 153 147 152
f 148 147 153
f 119 146 147
f 34 33 77
f 33 76 77
f 121 120 148
f 77 76 120
f 120 76 119
f 120 147 148
f 120 119 147
f 78 77 120
f 78 120 121
f 29 28 23
f 28 23 22
f 94 85 129
f 85 126 129
f 94 129 101
f 101 129 131
f 16 10 42
f 42 37 85
f 37 80 85
f 16 52 42
f 115 109 110
f 109 115 114
f 131 129 165
f 129 160 165
f 85 80 123
f 85 123 126
f 123 150 126
f 126 150 155
f 149 148 154
f 148 153 154
f 126 160 129
f 126 155 160
f 189 191 160
f 155 189 160
f 122 121 148
f 48 13 22
f 48 22 58
f 33 1 6
f 33 6 38
f 6 13 38
f 38 13 48
f 81 38 48
f 81 48 91
f 91 48 58
f 91 58 99
f 76 33 38
f 76 38 81
f 109 67 72
f 105 67 109
f 67 28 68
f 68 28 29
f 67 22 28
f 58 22 67
f 99 58 67
f 99 67 105
f 134 109 114
f 134 114 136
f 109 105 106
f 110 109 106
f 31 25 26
f 31 26 32
f 31 30 25
f 24 25 30
f 25 15 16
f 25 16 26
f 29 23 30
f 23 24 30
f 24 15 25
f 15 24 14
f 157 163 158
f 157 162 163
f 158 163 159
f 159 163 164
f 189 155 191
f 191 155 160
f 154 159 160
f 154 160 155
f 150 149 154
f 150 154 155
f 162 161 167
f 161 166 167
f 163 162 168
f 162 167 168
f 167 166 171
f 172 167 171
f 169 168 174
f 168 173 174
f 168 167 172
f 168 172 173
f 174 173 179
f 173 178 179
f 164 163 169
f 163 168 169
f 165 164 170
f 164 169 170
f 170 169 174
f 170 174 175
f 159 164 160
f 160 164 165
f 154 153 159
f 153 158 159
f 160 191 165
f 191 193 165
f 191 160 193
f 160 165 193
f 162 156 161
f 157 156 162
f 62 63 103
f 102 62 103
f 85 94 86
f 95 86 94
f 95 94 102
f 94 101 102
f 43 42 85
f 43 85 86
f 86 95 96
f 87 86 96
f 97 96 103
f 97 103 104
f 88 87 97
f 87 96 97
f 96 95 102
f 96 102 103
f 40 41 83
f 83 41 84
f 83 39 40
f 82 39 83
f 38 39 82
f 38 82 81
f 7 2 8
f 8 2 3
f 39 7 8
f 39 8 40
f 38 6 39
f 6 7 39
f 1 2 6
f 6 2 7
f 10 16 15
f 9 10 15
f 8 9 41
f 40 8 41
f 8 4 9
f 8 3 4
f 9 4 41
f 4 36 41
f 9 15 41
f 41 15 51
f 23 22 58
f 59 23 58
f 58 13 48
f 22 13 58
f 133 131 165
f 165 170 133
f 108 101 133
f 133 101 131
f 135 175 180
f 140 135 180
f 135 133 175
f 133 170 175
f 140 180 145
f 145 180 185
f 147 146 152
f 146 151 152
f 166 132 171
f 171 132 134
f 176 171 136
f 134 136 171
f 132 161 130
f 161 132 166
f 99 105 130
f 130 105 132
f 188 156 190
f 151 156 188
f 146 124 151
f 146 119 124
f 105 109 132
f 132 109 134
f 156 161 190
f 190 161 192
f 91 99 130
f 127 91 130
f 124 91 127
f 81 91 124
f 151 124 127
f 156 151 127
f 156 127 130
f 130 161 156
f 151 188 190
f 151 190 156
f 119 76 81
f 119 81 124
f 4 5 10
f 4 10 9
f 150 123 122
f 123 80 79
f 123 79 122
f 150 122 149
f 37 36 79
f 80 37 79
f 10 37 42
f 10 5 37
f 122 148 149
f 3 36 4
f 3 35 36
f 2 1 33
f 2 33 34
f 37 5 36
f 36 5 4
f 2 34 35
f 3 2 35
f 78 121 79
f 79 121 122
f 35 34 78
f 34 77 78
f 36 35 79
f 79 35 78
f 59 99 100
f 59 58 99
f 100 99 92
f 92 99 91
f 81 82 91
f 91 82 92
f 100 49 59
f 92 49 100
f 92 125 128
f 82 125 92
f 92 83 93
f 92 82 83
f 14 51 15
f 14 50 51
f 51 50 41
f 50 40 41
f 83 40 50
f 50 93 83
f 23 59 24
f 24 59 60
f 14 24 50
f 50 24 60
f 60 59 50
f 50 59 49
f 49 93 50
f 93 49 92
f 116 111 112
f 112 117 116
f 29 30 69
f 68 29 69
f 70 71 75
f 70 75 74
f 74 75 113
f 112 74 113
f 69 30 31
f 69 31 70
f 31 32 71
f 70 31 71
f 73 69 74
f 74 69 70
f 111 74 112
f 111 73 74
f 113 135 140
f 118 113 140
f 113 108 135
f 108 133 135
f 113 71 108
f 75 71 113
f 117 113 118
f 117 112 113
f 67 68 105
f 105 68 106
f 106 68 69
f 111 69 73
f 107 106 69
f 107 69 111
f 110 106 111
f 111 106 107
f 136 141 181
f 176 136 181
f 174 179 175
f 175 179 180
f 180 179 185
f 179 184 185
f 172 177 178
f 178 173 172
f 139 140 144
f 139 117 140
f 140 117 118
f 144 140 145
f 138 116 139
f 116 117 139
f 142 143 182
f 182 143 183
f 177 176 181
f 177 181 182
f 136 137 141
f 141 137 142
f 137 138 143
f 142 137 143
f 177 182 183
f 178 177 183
f 181 141 142
f 181 142 182
f 136 114 137
f 114 115 137
f 143 138 144
f 138 139 144
f 184 143 144
f 183 143 184
f 137 116 138
f 115 116 137
f 179 178 183
f 179 183 184
f 185 144 145
f 184 144 185
f 172 176 177
f 171 176 172
f 53 54 63
f 53 63 62
f 54 17 18
f 53 17 54
f 44 43 87
f 44 43 86
f 87 43 86
f 52 16 53
f 16 17 53
f 54 53 43
f 54 43 44
f 18 54 55
f 55 19 18
f 54 44 45
f 55 54 45
f 53 52 43
f 43 52 42
f 104 103 63
f 104 63 64
f 54 55 63
f 64 63 55
f 55 19 64
f 55 45 56
f 56 45 46
f 55 56 19
f 19 56 20
f 19 27 64
f 46 45 88
f 46 88 89
f 44 87 88
f 45 44 88
f 64 56 65
f 55 56 64
f 56 55 65
f 55 64 65
f 97 104 64
f 97 64 55
f 46 89 47
f 47 89 90
f 21 20 57
f 56 57 20
f 57 56 66
f 56 65 66
f 56 20 21
f 57 56 21
f 65 56 57
f 65 57 66
f 88 97 98
f 89 88 98
f 98 97 56
f 56 97 55
f 56 46 47
f 56 47 57
f 46 89 56
f 89 98 56
