mtllib P-42_tex.mtl
v 0.125576 0.076940 0.097242
v 0.163403 0.076535 0.146728
v 0.209353 0.012301 0.148387
v 0.106507 0.154454 0.097788
v 0.109922 0.151192 0.096136
v 0.125576 0.076940 0.097242
v 0.058681 0.073916 0.043929
v 0.052692 0.074804 0.039105
v 0.111450 0.073053 0.086327
v 0.052692 0.074804 0.039105
v 0.009356 0.073942 0.010673
v 0.052680 0.084119 0.039015
v 0.009459 0.081025 0.010609
v -0.010776 0.197019 -0.061371
v 0.007473 0.190607 -0.091936
v 0.024438 0.224963 -0.039972
v -0.133544 0.191411 -0.014032
v -0.190591 0.150625 -0.022588
v -0.183469 0.155362 -0.023112
v 0.024438 0.224963 -0.039972
v 0.007473 0.190607 -0.091936
v 0.014362 0.190607 -0.076940
v 0.003883 0.456568 0.019186
v 0.008156 0.458197 -0.021437
v 0.004342 0.505731 -0.019104
v 0.053299 0.181870 0.042994
v 0.010771 0.155651 0.095788
v 0.037646 0.176083 0.052080
v -0.035254 0.161878 0.192531
v -0.047833 0.159830 0.221079
v -0.018319 0.164229 0.153239
v -0.018319 0.164229 0.153239
v -0.047833 0.159830 0.221079
v -0.033410 0.162767 0.213622
v 0.111239 0.198687 -0.091557
v 0.160409 0.187636 -0.112909
v 0.081678 0.208386 -0.010767
v 0.112070 0.050170 -0.056556
v 0.083955 0.052420 -0.034017
v 0.139950 0.063255 -0.115583
v 0.053299 0.181870 0.042994
v 0.009459 0.081025 0.010609
v 0.052680 0.084119 0.039015
v 0.052692 0.074804 0.039105
v 0.009356 0.073942 0.010673
v 0.012387 0.227332 0.038411
v -0.010776 0.197019 -0.061371
v 0.005923 0.302560 0.019524
v 0.013750 0.080580 -0.058440
v 0.006673 0.383710 -0.019789
v 0.007105 0.246288 -0.034176
v 0.000576 0.380768 0.012705
v 0.008156 0.458197 -0.021437
v 0.003883 0.456568 0.019186
v 0.013516 0.506319 0.027588
v 0.004342 0.505731 -0.019104
v 0.001821 0.613724 0.017674
v 0.013653 0.598434 -0.026244
v 0.013140 0.619462 -0.025998
v -0.001210 0.685174 0.012490
v 0.011043 0.768768 -0.024696
v 0.024438 0.224963 -0.039972
v 0.061752 0.082356 -0.019348
v 0.013750 0.080580 -0.058440
v 0.012658 0.069769 -0.061086
v 0.062487 0.055886 -0.017710
v -0.010776 0.197019 -0.061371
v 0.053299 0.181870 0.042994
v 0.052680 0.084119 0.039015
v 0.038565 0.830335 0.026108
v 0.050472 0.844551 -0.010174
v 0.045050 0.919186 0.021297
v 0.050517 0.917705 -0.010332
v 0.050451 0.966573 -0.010067
v 0.050462 1.048315 -0.010138
v 0.045083 1.016181 0.021259
v 0.045075 0.973792 0.021273
v 0.049016 0.762586 0.013561
v 0.049722 0.740743 -0.010106
v 0.049086 0.617092 0.010042
v 0.048973 0.653891 -0.010072
v 0.048263 0.581773 -0.010126
v 0.049089 0.540087 0.006778
v 0.050100 0.481298 0.004330
v 0.048231 0.513248 -0.010072
v 0.050625 0.459233 0.002630
v 0.049038 0.428728 -0.010155
v 0.049743 0.372308 -0.010088
v 0.051323 0.381082 0.003768
v 0.050483 0.296932 -0.010068
v 0.051437 0.297821 0.007186
v 0.018835 1.153160 -0.032792
v 0.058330 1.134276 0.001066
v 0.013140 0.619462 -0.025998
v 0.011043 0.768768 -0.024696
v 0.009699 0.837812 -0.023863
v 0.013653 0.598434 -0.026244
v 0.013205 0.883645 -0.026510
v 0.013377 0.997227 -0.026378
v 0.013386 1.077454 -0.027776
v 0.004342 0.505731 -0.019104
v 0.008156 0.458197 -0.021437
v 0.006673 0.383710 -0.019789
v 0.007105 0.246288 -0.034176
v 0.003391 1.117027 -0.024815
v 0.012087 1.154937 -0.031128
v 0.037423 1.212987 -0.010433
v 0.011019 1.226314 0.001882
v 0.040205 1.230757 0.006778
v -0.226497 0.076438 -0.008523
v -0.135610 0.076878 0.010961
v -0.195708 0.170988 0.002085
v -0.165356 0.182905 0.010042
v -0.136140 0.071546 0.011381
v -0.193415 0.015274 0.029565
v 0.125576 0.076940 0.097242
v 0.114259 0.079163 0.088112
v 0.117453 0.189335 0.057782
v 0.107679 0.079399 0.083100
v 0.110299 0.190969 0.051661
v 0.118964 0.076352 0.092024
v 0.160125 0.162174 0.124441
v -0.005804 1.115250 -0.008726
v 0.058330 1.134276 0.001066
v 0.040205 1.230757 0.006778
v 0.011019 1.226314 0.001882
v 0.045083 1.016181 0.021259
v -0.153690 0.088362 -0.010372
v -0.089102 0.079248 -0.010053
v -0.099082 0.198479 -0.011583
v -0.133544 0.191411 -0.014032
v 0.009699 0.837812 -0.023863
v 0.013140 0.843365 0.030288
v 0.013140 0.852251 0.030295
v 0.013800 0.755995 0.028322
v 0.011043 0.768768 -0.024696
v 0.013205 0.883645 -0.026510
v 0.013377 0.997227 -0.026378
v 0.007617 0.991452 0.025844
v 0.013386 1.077454 -0.027776
v 0.013380 1.077441 0.029108
v -0.001210 0.685174 0.012490
v -0.005804 1.115250 -0.008726
v 0.003391 1.117027 -0.024815
v 0.011019 1.226314 0.001882
v 0.012087 1.154937 -0.031128
v -0.001210 0.685174 0.012490
v 0.001821 0.613724 0.017674
v 0.049089 0.540087 0.006778
v 0.013516 0.506319 0.027588
v 0.050100 0.481298 0.004330
v 0.050625 0.459233 0.002630
v 0.003883 0.456568 0.019186
v 0.051323 0.381082 0.003768
v 0.000576 0.380768 0.012705
v 0.005923 0.302560 0.019524
v 0.051437 0.297821 0.007186
v 0.012387 0.227332 0.038411
v 0.053299 0.181870 0.042994
v 0.049086 0.617092 0.010042
v 0.049016 0.762586 0.013561
v 0.013800 0.755995 0.028322
v 0.013140 0.843365 0.030288
v 0.038565 0.830335 0.026108
v 0.045050 0.919186 0.021297
v 0.013140 0.852251 0.030295
v 0.007617 0.991452 0.025844
v 0.045075 0.973792 0.021273
v 0.013380 1.077441 0.029108
v 0.045083 1.016181 0.021259
v 0.010771 0.155651 0.095788
v -0.084395 0.078062 0.011404
v -0.069709 0.081616 0.011340
v -0.035439 0.209208 -0.007095
v -0.087759 0.200452 0.014582
v -0.069709 0.081616 0.011340
v -0.087759 0.200452 0.014582
v -0.035439 0.209208 -0.007095
v -0.084395 0.078062 0.011404
v -0.153690 0.088362 -0.010372
v -0.133544 0.191411 -0.014032
v -0.089102 0.079248 -0.010053
v -0.084136 0.061921 -0.010311
v -0.137492 0.061773 -0.010118
v -0.099082 0.198479 -0.011583
v -0.190591 0.150625 -0.022588
v 0.121276 0.200483 -0.061857
v 0.111907 0.078070 -0.060134
v 0.149463 0.090156 -0.087068
v 0.160409 0.187636 -0.112909
v 0.163420 0.076878 0.094631
v 0.114259 0.079163 0.088112
v 0.164731 0.175890 0.093477
v 0.185425 0.031372 0.096066
v 0.117453 0.189335 0.057782
v -0.082323 0.080432 -0.010057
v -0.089102 0.079248 -0.010053
v -0.069709 0.081616 0.011340
v -0.084395 0.078062 0.011404
v -0.135610 0.076878 0.010961
v -0.153690 0.088362 -0.010372
v -0.035254 0.161878 0.192531
v -0.033933 0.083735 0.150914
v -0.073474 0.086374 0.194056
v -0.018319 0.164229 0.153239
v -0.079356 0.092869 0.254403
v -0.047833 0.159830 0.221079
v 0.007868 0.154560 0.103471
v -0.024518 0.087520 0.097768
v 0.081678 0.208386 -0.010767
v 0.053299 0.181870 0.042994
v 0.101071 0.192109 0.042485
v 0.024438 0.224963 -0.039972
v 0.111239 0.198687 -0.091557
v 0.121276 0.200483 -0.061857
v 0.160409 0.187636 -0.112909
v 0.111607 0.091169 -0.090707
v 0.149463 0.090156 -0.087068
v 0.111239 0.198687 -0.091557
v 0.109520 0.063846 -0.091278
v 0.160409 0.187636 -0.112909
v 0.139950 0.063255 -0.115583
v -0.069709 0.081616 0.011340
v -0.082323 0.080432 -0.010057
v 0.013750 0.080580 -0.058440
v 0.009459 0.081025 0.010609
v -0.084395 0.078062 0.011404
v -0.089102 0.079248 -0.010053
v -0.033933 0.083735 0.150914
v -0.018319 0.164229 0.153239
v -0.033410 0.162767 0.213622
v 0.007868 0.154560 0.103471
v -0.024518 0.087520 0.097768
v -0.034664 0.077516 0.211997
v -0.047833 0.159830 0.221079
v -0.079356 0.092869 0.254403
v -0.036865 0.185720 0.091998
v -0.035816 0.084190 0.144487
v -0.036406 0.182492 0.144977
v -0.073474 0.086374 0.194056
v -0.035254 0.161878 0.192531
v 0.185425 0.031372 0.096066
v 0.163420 0.076878 0.094631
v 0.163403 0.076535 0.146728
v -0.035816 0.084190 0.144487
v -0.036865 0.185720 0.091998
v 0.007868 0.154560 0.103471
v 0.010771 0.155651 0.095788
v 0.024438 0.224963 -0.039972
v 0.014362 0.190607 -0.076940
v 0.111239 0.198687 -0.091557
v 0.196913 0.157820 0.119119
v 0.163420 0.076878 0.094631
v 0.163403 0.076535 0.146728
v 0.164731 0.175890 0.093477
v 0.114259 0.079163 0.088112
v 0.117453 0.189335 0.057782
v -0.193415 0.015274 0.029565
v -0.137492 0.061773 -0.010118
v -0.136140 0.071546 0.011381
v -0.200947 0.014090 -0.028101
v -0.084136 0.061921 -0.010311
v -0.084395 0.075692 0.011457
v 0.209353 0.012301 0.148387
v 0.163403 0.076535 0.146728
v 0.224131 0.084374 0.148480
v 0.220323 0.025248 0.147729
v 0.210200 0.157139 0.115301
v 0.196913 0.157820 0.119119
v 0.164731 0.175890 0.093477
v 0.198852 0.077174 0.168933
v -0.153690 0.088362 -0.010372
v -0.133544 0.191411 -0.014032
v -0.165356 0.182905 0.010042
v -0.200947 0.014090 -0.028101
v -0.193415 0.015274 0.029565
v -0.226497 0.076438 -0.008523
v 0.012658 0.069769 -0.061086
v 0.062487 0.055886 -0.017710
v 0.009356 0.073942 0.010673
v 0.052692 0.074804 0.039105
v 0.058681 0.073916 0.043929
v -0.020767 0.052353 0.072934
v 0.009356 0.073942 0.010673
v -0.035816 0.084190 0.144487
v -0.024518 0.087520 0.097768
v 0.007868 0.154560 0.103471
v -0.036406 0.182492 0.144977
v -0.035254 0.161878 0.192531
v -0.073474 0.086374 0.194056
v -0.011056 0.089837 0.089658
v 0.058681 0.073916 0.043929
v 0.062633 0.082209 0.047056
v -0.020767 0.052353 0.072934
v 0.052692 0.074804 0.039105
v -0.020767 0.052353 0.072934
v 0.052680 0.084119 0.039015
v -0.011056 0.089837 0.089658
v 0.009459 0.081025 0.010609
v -0.020767 0.052353 0.072934
v -0.011056 0.089837 0.089658
v 0.009356 0.073942 0.010673
v 0.013750 0.080580 -0.058440
v 0.012658 0.069769 -0.061086
v -0.020767 0.052353 0.072934
v 0.009356 0.073942 0.010673
v -0.011056 0.089837 0.089658
v 0.009459 0.081025 0.010609
v -0.036865 0.185720 0.091998
v -0.036406 0.182492 0.144977
v 0.010771 0.155651 0.095788
v 0.007868 0.154560 0.103471
v -0.005804 1.115250 -0.008726
v 0.013380 1.077441 0.029108
v 0.045083 1.016181 0.021259
v 0.083955 0.052420 -0.034017
v 0.111607 0.091169 -0.090707
v 0.106650 0.077471 -0.055927
v 0.109520 0.063846 -0.091278
v -0.135610 0.076878 0.010961
v -0.153690 0.088362 -0.010372
v -0.165356 0.182905 0.010042
v 0.009459 0.081025 0.010609
v 0.061752 0.082356 -0.019348
v 0.052680 0.084119 0.039015
v 0.210200 0.157139 0.115301
v 0.196913 0.157820 0.119119
v 0.224131 0.084374 0.148480
v 0.198852 0.077174 0.168933
v 0.204518 0.159600 0.150534
v 0.198852 0.077174 0.168933
v 0.196913 0.157820 0.119119
v 0.209353 0.012301 0.148387
v 0.160787 0.040152 0.145076
v 0.125576 0.076940 0.097242
v 0.163420 0.076878 0.094631
v 0.114259 0.079163 0.088112
v 0.163403 0.076535 0.146728
v -0.079356 0.092869 0.254403
v -0.073474 0.086374 0.194056
v -0.034664 0.077516 0.211997
v -0.033933 0.083735 0.150914
v -0.183469 0.155362 -0.023112
v -0.190591 0.150625 -0.022588
v -0.195708 0.170988 0.002085
v -0.133544 0.191411 -0.014032
v -0.165356 0.182905 0.010042
v -0.226497 0.076438 -0.008523
v -0.200947 0.014090 -0.028101
v -0.137492 0.061773 -0.010118
v 0.061752 0.082356 -0.019348
v 0.052680 0.084119 0.039015
v 0.106650 0.077471 -0.055927
v 0.111450 0.073053 0.086327
v 0.091664 0.053563 0.042823
v 0.072996 0.091684 0.041397
v 0.107679 0.079399 0.083100
v 0.052680 0.084119 0.039015
v 0.052692 0.074804 0.039105
v 0.106650 0.077471 -0.055927
v 0.112070 0.050170 -0.056556
v 0.111907 0.078070 -0.060134
v 0.083955 0.052420 -0.034017
v 0.139950 0.063255 -0.115583
v 0.149463 0.090156 -0.087068
v 0.220323 0.025248 0.147729
v 0.224131 0.084374 0.148480
v 0.210469 0.071317 0.175006
v 0.213018 0.088299 0.162553
v 0.109922 0.151192 0.096136
v 0.107679 0.079399 0.083100
v 0.125576 0.076940 0.097242
v 0.106507 0.154454 0.097788
v 0.110299 0.190969 0.051661
v 0.009356 0.073942 0.010673
v 0.061752 0.082356 -0.019348
v 0.009459 0.081025 0.010609
v 0.062487 0.055886 -0.017710
v 0.139950 0.063255 -0.115583
v 0.111607 0.091169 -0.090707
v 0.149463 0.090156 -0.087068
v 0.109520 0.063846 -0.091278
v 0.007473 0.190607 -0.091936
v -0.010776 0.197019 -0.061371
v 0.014362 0.190607 -0.076940
v 0.024438 0.224963 -0.039972
v 0.106650 0.077471 -0.055927
v 0.111607 0.091169 -0.090707
v 0.149463 0.090156 -0.087068
v 0.007868 0.154560 0.103471
v 0.037646 0.176083 0.052080
v 0.016660 0.178908 0.098137
v 0.010771 0.155651 0.095788
v 0.010771 0.155651 0.095788
v 0.007868 0.154560 0.103471
v 0.016660 0.178908 0.098137
v 0.037646 0.176083 0.052080
v 0.052692 0.074804 0.039105
v 0.062487 0.055886 -0.017710
v 0.083955 0.052420 -0.034017
v 0.106650 0.077471 -0.055927
v 0.052680 0.084119 0.039015
v 0.052680 0.084119 0.039015
v -0.011056 0.089837 0.089658
v 0.062633 0.082209 0.047056
v 0.018835 1.153160 -0.032792
v 0.064827 1.137759 -0.014032
v 0.058330 1.134276 0.001066
v -0.082323 0.080432 -0.010057
v -0.089102 0.079248 -0.010053
v -0.083969 0.201211 -0.010920
v 0.160787 0.040152 0.145076
v 0.111450 0.073053 0.086327
v 0.118964 0.076352 0.092024
v 0.125576 0.076940 0.097242
v 0.164731 0.175890 0.093477
v 0.117453 0.189335 0.057782
v 0.196913 0.157820 0.119119
v 0.160125 0.162174 0.124441
v 0.110299 0.190969 0.051661
v 0.106507 0.154454 0.097788
v 0.163403 0.076535 0.146728
v 0.125576 0.076940 0.097242
v 0.160787 0.040152 0.145076
v 0.114259 0.079163 0.088112
v 0.107679 0.079399 0.083100
v 0.111450 0.073053 0.086327
v 0.091664 0.053563 0.042823
v 0.072996 0.091684 0.041397
v 0.052692 0.074804 0.039105
v 0.052680 0.084119 0.039015
v 0.209353 0.012301 0.148387
v 0.198852 0.077174 0.168933
v 0.204518 0.159600 0.150534
v 0.202028 0.067992 0.171072
v 0.213018 0.088299 0.162553
v 0.210469 0.071317 0.175006
v 0.220323 0.025248 0.147729
v -0.084395 0.075692 0.011457
v -0.084136 0.061921 -0.010311
v -0.089102 0.079248 -0.010053
v -0.084395 0.078062 0.011404
v -0.137492 0.061773 -0.010118
v -0.190591 0.150625 -0.022588
v -0.153690 0.088362 -0.010372
v 0.118183 0.186460 0.041479
v 0.101071 0.192109 0.042485
v 0.117453 0.189335 0.057782
v 0.110299 0.190969 0.051661
v 0.118964 0.076352 0.092024
v 0.114259 0.079163 0.088112
v 0.185425 0.031372 0.096066
v 0.160787 0.040152 0.145076
v 0.163403 0.076535 0.146728
v 0.114259 0.079163 0.088112
v 0.125576 0.076940 0.097242
v 0.052680 0.084119 0.039015
v 0.052692 0.074804 0.039105
v 0.062633 0.082209 0.047056
v 0.058681 0.073916 0.043929
v 0.058681 0.073916 0.043929
v 0.052680 0.084119 0.039015
v 0.062633 0.082209 0.047056
v 0.052692 0.074804 0.039105
v 0.110299 0.190969 0.051661
v 0.101071 0.192109 0.042485
v 0.118183 0.186460 0.041479
v 0.117453 0.189335 0.057782
v 0.058330 1.134276 0.001066
v 0.064827 1.137759 -0.014032
v 0.064829 1.139536 -0.006687
v 0.106650 0.077471 -0.055927
v 0.149463 0.090156 -0.087068
v 0.111907 0.078070 -0.060134
v 0.083955 0.052420 -0.034017
v 0.062487 0.055886 -0.017710
v 0.061752 0.082356 -0.019348
v 0.112070 0.050170 -0.056556
v 0.052680 0.084119 0.039015
v 0.139950 0.063255 -0.115583
v 0.052692 0.074804 0.039105
v 0.111907 0.078070 -0.060134
v 0.121276 0.200483 -0.061857
v 0.160409 0.187636 -0.112909
v 0.149463 0.090156 -0.087068
v 0.013750 0.080580 -0.058440
v -0.082323 0.080432 -0.010057
v 0.009459 0.081025 0.010609
v -0.069709 0.081616 0.011340
v 0.053299 0.181870 0.042994
v 0.101071 0.192109 0.042485
v 0.051437 0.297821 0.007186
v 0.037646 0.176083 0.052080
v 0.110299 0.190969 0.051661
v 0.163403 0.076535 0.146728
v 0.163420 0.076878 0.094631
v 0.164731 0.175890 0.093477
v -0.108030 1.462501 -0.050628
v -0.105860 1.417882 -0.073024
v -0.108137 1.381233 -0.063528
v -0.055110 1.597337 -0.009882
v -0.108873 1.545660 0.057474
v -0.066531 1.586161 0.043730
v -0.132729 1.459105 0.042615
v -0.156322 1.461177 0.020079
v -0.131763 1.459993 0.043813
v -0.083737 1.693536 -0.010719
v -0.094562 1.617616 -0.019856
v -0.062879 1.759674 -0.010262
v 0.037117 1.619924 -0.011068
v 0.041447 1.566022 0.001066
v 0.041472 1.621108 0.001066
v 0.037476 1.560431 -0.010528
v 0.037476 1.560431 -0.010528
v 0.037705 1.472135 -0.010109
v 0.041447 1.566022 0.001066
v 0.041416 1.465285 0.001104
v 0.040252 1.377065 0.006778
v 0.041401 1.434671 0.000845
v 0.037044 1.378842 -0.010994
v 0.037674 1.390689 -0.010053
v 0.040252 1.377065 0.006778
v 0.037044 1.378842 -0.010994
v 0.037674 1.390689 -0.010053
v 0.041401 1.434671 0.000845
v -0.094562 1.617616 -0.019856
v -0.129961 1.740169 -0.011981
v -0.062879 1.759674 -0.010262
v -0.096069 1.716377 0.033454
v -0.134613 1.743651 -0.010023
v -0.129961 1.740169 -0.011981
v -0.129961 1.740169 -0.011981
v -0.134613 1.743651 -0.010023
v -0.133727 1.725657 -0.012210
v -0.159334 1.540551 0.019881
v -0.133346 1.693383 -0.000528
v -0.084397 1.618739 -0.009134
v -0.133346 1.693383 -0.000528
v -0.159334 1.540551 0.019881
v -0.104165 1.611039 0.039451
v -0.128302 1.561685 -0.050686
v -0.133374 1.576582 -0.049954
v -0.159334 1.540551 0.019881
v -0.064108 1.387728 0.042637
v -0.082799 1.462360 -0.036812
v -0.066272 1.515080 0.042329
v -0.082521 1.382966 -0.051595
v -0.083639 1.513295 -0.045042
v -0.063260 1.377658 0.042324
v -0.068671 1.301040 0.014406
v -0.083642 1.258859 -0.011991
v -0.085545 1.236088 -0.010359
v -0.066688 1.593285 -0.038521
v -0.055110 1.597337 -0.009882
v -0.082511 1.536701 0.054138
v -0.066531 1.586161 0.043730
v -0.108030 1.462501 -0.050628
v -0.107678 1.383878 -0.063012
v -0.097951 1.310239 0.030954
v -0.107678 1.383878 -0.063012
v -0.085240 1.235865 -0.004060
v -0.085545 1.236088 -0.010359
v -0.141233 1.462954 -0.020100
v -0.141614 1.468286 -0.020118
v -0.118664 1.471840 -0.040606
v -0.108030 1.462501 -0.050628
v -0.154047 1.384067 -0.018474
v -0.107678 1.383878 -0.063012
v -0.133374 1.576582 -0.049954
v -0.083639 1.513295 -0.045042
v -0.066688 1.593285 -0.038521
v -0.164288 1.330971 0.022337
v -0.159334 1.533443 0.019921
v -0.159334 1.540551 0.019881
v -0.156322 1.461177 0.020079
v -0.097951 1.310239 0.030954
v -0.096069 1.716377 0.033454
v -0.084397 1.618739 -0.009134
v -0.041088 1.757405 0.001882
v -0.082702 1.617504 -0.009869
v -0.128302 1.561685 -0.050686
v -0.159334 1.540551 0.019881
v -0.104165 1.611039 0.039451
v -0.084397 1.618739 -0.009134
v -0.084397 1.618739 -0.009134
v -0.096069 1.716377 0.033454
v -0.129961 1.740169 -0.011981
v -0.094562 1.617616 -0.019856
v -0.082702 1.617504 -0.009869
v -0.094562 1.617616 -0.019856
v -0.084397 1.618739 -0.009134
v -0.066688 1.593285 -0.038521
v -0.055110 1.597337 -0.009882
v -0.128302 1.561685 -0.050686
v -0.118664 1.471840 -0.040606
v -0.083737 1.693536 -0.010719
v -0.062879 1.759674 -0.010262
v -0.041088 1.757405 0.001882
v -0.034852 1.343893 0.003179
v 0.011063 1.305984 0.001066
v 0.040229 1.299024 0.006778
v 0.011019 1.226314 0.001882
v 0.040252 1.377065 0.006778
v 0.011219 1.438981 0.001083
v 0.011245 1.495088 0.000794
v 0.041401 1.434671 0.000845
v 0.041416 1.465285 0.001104
v 0.041447 1.566022 0.001066
v 0.011536 1.556247 0.002698
v 0.011474 1.619629 0.002290
v 0.041472 1.621108 0.001066
v 0.040252 1.377065 0.006778
v -0.034852 1.343893 0.003179
v 0.011063 1.305984 0.001066
v 0.040229 1.299024 0.006778
v -0.062879 1.759674 -0.010262
v -0.096069 1.716377 0.033454
v -0.041088 1.757405 0.001882
v -0.129961 1.740169 -0.011981
v 0.011394 1.699890 0.001882
v 0.041472 1.621108 0.001066
v 0.051979 1.754385 0.001757
v 0.011474 1.619629 0.002290
v 0.011536 1.556247 0.002698
v 0.041447 1.566022 0.001066
v -0.104165 1.611039 0.039451
v -0.159334 1.540551 0.019881
v -0.084397 1.618739 -0.009134
v 0.051979 1.754385 0.001757
v 0.011474 1.619629 0.002290
v 0.011394 1.699890 0.001882
v 0.041472 1.621108 0.001066
v -0.118664 1.471840 -0.040606
v -0.110888 1.495101 -0.063365
v -0.101738 1.543888 -0.070394
v -0.128302 1.561685 -0.050686
v 0.041472 1.621108 0.001066
v 0.037476 1.560431 -0.010528
v 0.037117 1.619924 -0.011068
v 0.041447 1.566022 0.001066
v 0.041416 1.465285 0.001104
v 0.037705 1.472135 -0.010109
v 0.051979 1.754385 0.001757
v 0.049550 1.760309 -0.010587
v -0.134613 1.743651 -0.010023
v -0.084397 1.618739 -0.009134
v -0.133346 1.693383 -0.000528
v -0.132535 1.463250 0.043015
v -0.156322 1.461177 0.020079
v -0.132729 1.459105 0.042615
v -0.159334 1.533443 0.019921
v -0.133363 1.515820 0.046779
v -0.159334 1.540551 0.019881
v -0.133167 1.544661 0.047862
v -0.131763 1.459993 0.043813
v -0.104165 1.611039 0.039451
v -0.108873 1.545660 0.057474
v -0.067036 1.383581 0.045569
v -0.080574 1.447620 0.052318
v -0.082511 1.536701 0.054138
v -0.066531 1.586161 0.043730
v -0.064108 1.387728 0.042637
v -0.066272 1.515080 0.042329
v -0.085093 1.384395 0.056804
v -0.136352 1.381075 0.045529
v -0.097951 1.310239 0.030954
v -0.164288 1.330971 0.022337
v -0.063260 1.377658 0.042324
v -0.085240 1.235865 -0.004060
v -0.068671 1.301040 0.014406
v -0.133294 1.436225 0.043640
v -0.110888 1.495101 -0.063365
v -0.118664 1.471840 -0.040606
v -0.128302 1.561685 -0.050686
v -0.101738 1.543888 -0.070394
v -0.096069 1.716377 0.033454
v -0.115275 1.771267 -0.011941
v -0.107796 1.773341 -0.009913
v -0.129961 1.740169 -0.011981
v -0.055110 1.597337 -0.009882
v -0.084397 1.618739 -0.009134
v -0.104165 1.611039 0.039451
v -0.082702 1.617504 -0.009869
v -0.108873 1.545660 0.057474
v -0.133346 1.693383 -0.000528
v 0.161101 1.693418 0.012062
v 0.122914 1.725435 -0.012359
v 0.161890 1.704036 0.014021
v 0.121971 1.752602 -0.009949
v 0.140048 1.693967 -0.012170
v 0.049550 1.760309 -0.010587
v 0.037117 1.619924 -0.011068
v 0.041472 1.621108 0.001066
v 0.051979 1.754385 0.001757
v -0.067225 1.771220 -0.010676
v -0.035439 1.771563 0.016163
v -0.006973 1.790744 -0.009783
v 0.013497 1.800000 -0.014052
v 0.121971 1.752602 -0.009949
v 0.110374 1.767730 -0.012411
v 0.122914 1.725435 -0.012359
v 0.064473 1.782459 -0.010164
v 0.140048 1.693967 0.014246
v 0.161101 1.693418 0.012062
v 0.121971 1.752602 -0.009949
v 0.161890 1.704036 0.014021
v -0.107678 1.383878 -0.063012
v -0.105860 1.417882 -0.073024
v -0.108030 1.462501 -0.050628
v -0.110888 1.495101 -0.063365
v -0.108137 1.381233 -0.063528
v -0.118664 1.471840 -0.040606
v 0.140048 1.693967 -0.012170
v 0.140048 1.693967 0.014246
v 0.122914 1.725435 -0.012359
v 0.121971 1.752602 -0.009949
v 0.048539 1.778321 -0.013056
v 0.013497 1.800000 -0.014052
v -0.006973 1.790744 -0.009783
v -0.094562 1.617616 -0.019856
v -0.128302 1.561685 -0.050686
v -0.084397 1.618739 -0.009134
v 0.048539 1.778321 -0.013056
v -0.006973 1.790744 -0.009783
v 0.049713 1.789159 -0.010030
v 0.064473 1.782459 -0.010164
v 0.091093 1.787358 0.000250
v 0.112181 1.785235 -0.001383
v 0.112181 1.772748 -0.012198
v 0.121971 1.752602 -0.009949
v 0.122914 1.725435 -0.012359
v -0.108030 1.462501 -0.050628
v -0.118664 1.471840 -0.040606
v -0.105860 1.417882 -0.073024
v 0.161101 1.693418 0.012062
v 0.140048 1.693967 0.014246
v 0.140048 1.693967 -0.012170
v -0.062879 1.759674 -0.010262
v -0.041088 1.757405 0.001882
v -0.035439 1.771563 0.016163
v -0.067225 1.771220 -0.010676
v -0.006973 1.790744 -0.009783
v 0.011394 1.699890 0.001882
v 0.049713 1.789159 -0.010030
v 0.051979 1.754385 0.001757
v 0.091093 1.787358 0.000250
v 0.070758 1.757682 0.001066
v 0.121971 1.752602 -0.009949
v 0.112181 1.785235 -0.001383
v -0.085240 1.235865 -0.004060
v -0.085545 1.236088 -0.010359
v -0.068671 1.301040 0.014406
v 0.051979 1.754385 0.001757
v 0.110374 1.767730 -0.012411
v 0.070758 1.757682 0.001066
v 0.049550 1.760309 -0.010587
v 0.121971 1.752602 -0.009949
v 0.006346 1.770971 -0.019727
v 0.013497 1.800000 -0.014052
v 0.048539 1.778321 -0.013056
v 0.064473 1.782459 -0.010164
v 0.011394 1.699890 0.001882
v -0.041088 1.757405 0.001882
v -0.062879 1.759674 -0.010262
v -0.067225 1.771220 -0.010676
v -0.105860 1.417882 -0.073024
v -0.118664 1.471840 -0.040606
v -0.110888 1.495101 -0.063365
v -0.091163 0.101145 -0.221335
v -0.084460 0.000442 -0.221472
v -0.082888 0.000000 -0.222023
v -0.091163 0.101145 -0.221335
v -0.082888 0.000000 -0.222023
v -0.082207 0.078062 -0.201601
v 0.010287 0.081025 -0.067487
v -0.035628 0.083048 -0.154291
v -0.035308 0.090869 -0.105777
v -0.008316 0.062662 -0.116173
v -0.012761 0.078655 -0.128797
v 0.010287 0.081025 -0.067487
v -0.082207 0.078062 -0.201601
v -0.082888 0.000000 -0.222023
v -0.032628 0.079839 -0.222131
v -0.032628 0.079839 -0.222131
v -0.032427 0.177675 -0.169336
v -0.006000 0.186553 -0.121555
v -0.012761 0.078655 -0.128797
v -0.032427 0.177675 -0.169336
v -0.032628 0.079839 -0.222131
v -0.012761 0.078655 -0.128797
v -0.006000 0.186553 -0.121555
v 0.007473 0.190607 -0.091936
v 0.010287 0.081025 -0.067487
v -0.082888 0.000000 -0.222023
v -0.011304 0.076285 -0.124738
v -0.038643 0.049988 -0.120527
v -0.082207 0.078062 -0.201601
v -0.035628 0.083048 -0.154291
v 0.010287 0.081025 -0.067487
v -0.082888 0.000000 -0.222023
v 0.010287 0.081025 -0.067487
v -0.012761 0.078655 -0.128797
v -0.006000 0.186553 -0.121555
v 0.007473 0.190607 -0.091936
v -0.035122 0.184662 -0.116044
v -0.035628 0.083048 -0.154291
v -0.035816 0.183847 -0.136031
v -0.035308 0.090869 -0.105777
v -0.057482 0.154351 -0.204209
v -0.082207 0.078062 -0.201601
v 0.007473 0.190607 -0.091936
v 0.010287 0.081025 -0.067487
v -0.082207 0.078062 -0.201601
v -0.035628 0.083048 -0.154291
v -0.035816 0.183847 -0.136031
v -0.012761 0.078655 -0.128797
v -0.057482 0.154351 -0.204209
v -0.082207 0.078062 -0.201601
v -0.082888 0.000000 -0.222023
v -0.035628 0.083048 -0.154291
v -0.038643 0.049988 -0.120527
v -0.082207 0.078062 -0.201601
v -0.032628 0.079839 -0.222131
v -0.012761 0.078655 -0.128797
v -0.086286 0.064050 -0.262863
v -0.084460 0.000442 -0.221472
v -0.091163 0.101145 -0.221335
v -0.082207 0.078062 -0.201601
v -0.082888 0.000000 -0.222023
v -0.033174 0.046090 -0.222132
v -0.032628 0.079839 -0.222131
v -0.082207 0.078062 -0.201601
v -0.057482 0.154351 -0.204209
v -0.032628 0.079839 -0.222131
v -0.032628 0.079839 -0.222131
v -0.057482 0.154351 -0.204209
v -0.032427 0.177675 -0.169336
v -0.035816 0.183847 -0.136031
v -0.006000 0.186553 -0.121555
v 0.007473 0.190607 -0.091936
v -0.035122 0.184662 -0.116044
v -0.032628 0.079839 -0.222131
v -0.067888 0.077568 -0.270314
v -0.082207 0.078062 -0.201601
v -0.097971 0.077499 -0.250699
v -0.035308 0.090869 -0.105777
v -0.008316 0.062662 -0.116173
v 0.010287 0.081025 -0.067487
v -0.036481 0.050075 -0.115223
v -0.035628 0.083048 -0.154291
v -0.036481 0.050075 -0.115223
v -0.035308 0.090869 -0.105777
v -0.038643 0.049988 -0.120527
v -0.082207 0.078062 -0.201601
v -0.097971 0.077499 -0.250699
v -0.091163 0.101145 -0.221335
v -0.035122 0.184662 -0.116044
v -0.035816 0.183847 -0.136031
v -0.006000 0.186553 -0.121555
v 0.007473 0.190607 -0.091936
v 0.010287 0.081025 -0.067487
v -0.035628 0.083048 -0.154291
v -0.012761 0.078655 -0.128797
v -0.097971 0.077499 -0.250699
v -0.086286 0.064050 -0.262863
v -0.091163 0.101145 -0.221335
v -0.008316 0.062662 -0.116173
v -0.038643 0.049988 -0.120527
v -0.011304 0.076285 -0.124738
v -0.036481 0.050075 -0.115223
v -0.086286 0.064050 -0.262863
v -0.083636 0.064421 -0.264556
v -0.082888 0.000000 -0.222023
v -0.084460 0.000442 -0.221472
v -0.067888 0.077568 -0.270314
v -0.097971 0.077499 -0.250699
v -0.032628 0.079839 -0.222131
v -0.034384 0.083985 -0.225309
v -0.067888 0.077568 -0.270314
v -0.011304 0.076285 -0.124738
v -0.012761 0.078655 -0.128797
v -0.008316 0.062662 -0.116173
v 0.010287 0.081025 -0.067487
v -0.082888 0.000000 -0.222023
v -0.033174 0.046090 -0.222132
v -0.011304 0.076285 -0.124738
v -0.012761 0.078655 -0.128797
v -0.032628 0.079839 -0.222131
v -0.034539 0.048741 -0.225223
v -0.034384 0.083985 -0.225309
v -0.067888 0.077568 -0.270314
v -0.083636 0.064421 -0.264556
v 0.010287 0.081025 -0.067487
v -0.011304 0.076285 -0.124738
v -0.038643 0.049988 -0.120527
v 0.122914 1.725435 -0.012359
v 0.121971 1.752602 -0.009949
v 0.168934 1.723773 -0.010700
v 0.168934 1.723773 -0.010700
v 0.122914 1.725435 -0.012359
v 0.161890 1.704036 0.014021
v 0.185425 0.031372 0.096066
v 0.118964 0.076352 0.092024
v 0.209353 0.012301 0.148387
v 0.163403 0.076535 0.146728
v 0.185425 0.031372 0.096066
v 0.209353 0.012301 0.148387
v 0.160787 0.040152 0.145076
v 0.118964 0.076352 0.092024
v 0.209353 0.012301 0.148387
v 0.111450 0.073053 0.086327
v 0.114259 0.079163 0.088112
v 0.107679 0.079399 0.083100
v 0.118964 0.076352 0.092024
v 0.107679 0.079399 0.083100
v 0.062633 0.082209 0.047056
v 0.052680 0.084119 0.039015
v 0.111450 0.073053 0.086327
v 0.058681 0.073916 0.043929
v 0.072996 0.091684 0.041397
v 0.208666 0.022902 -0.169929
v 0.208837 0.083972 -0.169888
v 0.209674 0.095208 -0.155141
v 0.209674 0.095208 -0.155141
v 0.234971 0.077541 -0.134046
v 0.210469 0.125834 -0.115924
v 0.212544 0.156251 -0.115854
v 0.210469 0.125834 -0.115924
v 0.234971 0.077541 -0.134046
v 0.218085 0.021954 -0.146469
v 0.177714 0.182998 -0.116110
v 0.160826 0.087008 -0.093948
v 0.198042 0.004554 -0.107469
v 0.219050 0.006480 -0.116136
v 0.149463 0.090156 -0.087068
v 0.160409 0.187636 -0.112909
v 0.210838 0.168687 -0.132346
v 0.209674 0.095208 -0.155141
v 0.160826 0.087008 -0.093948
v 0.194346 0.174550 -0.132910
v 0.177714 0.182998 -0.116110
v 0.198042 0.004554 -0.107469
v 0.209735 0.014356 -0.149907
v 0.208666 0.022902 -0.169929
v 0.160409 0.187636 -0.112909
v 0.149463 0.090156 -0.087068
v 0.159715 0.076524 -0.138237
v 0.209674 0.095208 -0.155141
v 0.158149 0.187310 -0.118722
v 0.194346 0.174550 -0.132910
v 0.209674 0.095208 -0.155141
v 0.159715 0.076524 -0.138237
v 0.194346 0.174550 -0.132910
v 0.158149 0.187310 -0.118722
v 0.139950 0.063255 -0.115583
v 0.198042 0.004554 -0.107469
v 0.149463 0.090156 -0.087068
v 0.198042 0.004554 -0.107469
v 0.139950 0.063255 -0.115583
v 0.160826 0.087008 -0.093948
v 0.149463 0.090156 -0.087068
v 0.234971 0.077541 -0.134046
v 0.194346 0.174550 -0.132910
v 0.210838 0.168687 -0.132346
v 0.211689 0.026397 -0.169954
v 0.234971 0.077541 -0.134046
v 0.218085 0.021954 -0.146469
v 0.209958 0.082610 -0.169930
v 0.209674 0.095208 -0.155141
v 0.194346 0.174550 -0.132910
v 0.208837 0.083972 -0.169888
v 0.209735 0.014356 -0.149907
v 0.208666 0.022902 -0.169929
v 0.149463 0.090156 -0.087068
v 0.198042 0.004554 -0.107469
v 0.160826 0.087008 -0.093948
v 0.198042 0.004554 -0.107469
v 0.218085 0.021954 -0.146469
v 0.219050 0.006480 -0.116136
v 0.209735 0.014356 -0.149907
v 0.211689 0.026397 -0.169954
v 0.208666 0.022902 -0.169929
v 0.208837 0.083972 -0.169888
v 0.209958 0.082610 -0.169930
v 0.194346 0.174550 -0.132910
v 0.177714 0.182998 -0.116110
v 0.210838 0.168687 -0.132346
v -0.006000 0.186553 -0.121555
v -0.057482 0.154351 -0.204209
v -0.032427 0.177675 -0.169336
v -0.035816 0.183847 -0.136031
v -0.057482 0.154351 -0.204209
v -0.006000 0.186553 -0.121555
v 0.158854 0.037084 -0.132284
v 0.139950 0.063255 -0.115583
v 0.149463 0.090156 -0.087068
v 0.209674 0.095208 -0.155141
v 0.158854 0.037084 -0.132284
v 0.159715 0.076524 -0.138237
v 0.209735 0.014356 -0.149907
v 0.149463 0.090156 -0.087068
v 0.160409 0.187636 -0.112909
v 0.158149 0.187310 -0.118722
v 0.159715 0.076524 -0.138237
v 0.209674 0.095208 -0.155141
v 0.149463 0.090156 -0.087068
v 0.209674 0.095208 -0.155141
v 0.160826 0.087008 -0.093948
v 0.149463 0.090156 -0.087068
v 0.194346 0.174550 -0.132910
v 0.160409 0.187636 -0.112909
v 0.177714 0.182998 -0.116110
v 0.158149 0.187310 -0.118722
v 0.062487 0.055886 -0.017710
v 0.052692 0.074804 0.039105
v 0.061752 0.082356 -0.019348
v 0.052680 0.084119 0.039015
v -0.118664 1.471840 -0.040606
v -0.128302 1.561685 -0.050686
v -0.133374 1.576582 -0.049954
v 0.062487 0.055886 -0.017710
v 0.083955 0.052420 -0.034017
v 0.109520 0.063846 -0.091278
v 0.062487 0.055886 -0.017710
v 0.012658 0.069769 -0.061086
v 0.013750 0.080580 -0.058440
v 0.013750 0.080580 -0.058440
v 0.062487 0.055886 -0.017710
v 0.061752 0.082356 -0.019348
v -0.008316 0.062662 -0.116173
v 0.012658 0.069769 -0.061086
v 0.013750 0.080580 -0.058440
v 0.010287 0.081025 -0.067487
v 0.013750 0.080580 -0.058440
v 0.010287 0.081025 -0.067487
v 0.061752 0.082356 -0.019348
v -0.011304 0.076285 -0.124738
v -0.008316 0.062662 -0.116173
v 0.010287 0.081025 -0.067487
v 0.061752 0.082356 -0.019348
v 0.083955 0.052420 -0.034017
v 0.106650 0.077471 -0.055927
v 0.062487 0.055886 -0.017710
v -0.136140 0.071546 0.011381
v -0.135610 0.076878 0.010961
v -0.084395 0.078062 0.011404
v -0.084395 0.075692 0.011457
v -0.089102 0.079248 -0.010053
v -0.084136 0.061921 -0.010311
v -0.082323 0.080432 -0.010057
v -0.039581 0.067401 -0.010293
v 0.009356 0.073942 0.010673
v -0.069709 0.081616 0.011340
v 0.009459 0.081025 0.010609
v -0.075734 0.050674 0.014939
v -0.084395 0.078062 0.011404
v -0.084395 0.075692 0.011457
v -0.069709 0.081616 0.011340
v -0.075734 0.050674 0.014939
v 0.009459 0.081025 0.010609
v 0.009356 0.073942 0.010673
v -0.039581 0.067401 -0.010293
v -0.082323 0.080432 -0.010057
v 0.013750 0.080580 -0.058440
v 0.012658 0.069769 -0.061086
v -0.039581 0.067401 -0.010293
v 0.013750 0.080580 -0.058440
v -0.079356 0.092869 0.254403
v -0.045924 0.075229 0.202252
v -0.035035 0.050815 0.207094
v -0.083882 0.046047 0.267519
v -0.045924 0.075229 0.202252
v -0.069453 0.076467 0.271435
v -0.100101 0.063370 0.255165
v -0.045924 0.075229 0.202252
v -0.083882 0.046047 0.267519
v -0.045265 0.076225 0.201370
v -0.022339 0.049870 0.149587
v -0.033933 0.083735 0.150914
v -0.073474 0.086374 0.194056
v -0.045265 0.076225 0.201370
v -0.022339 0.049870 0.149587
v -0.073474 0.086374 0.194056
v -0.069453 0.076467 0.271435
v -0.045924 0.075229 0.202252
v -0.079356 0.092869 0.254403
v -0.045265 0.076225 0.201370
v -0.045924 0.075229 0.202252
v -0.097542 0.077723 0.252800
v -0.100101 0.063370 0.255165
v -0.079356 0.092869 0.254403
v -0.045924 0.075229 0.202252
v -0.079356 0.092869 0.254403
v -0.034664 0.077516 0.211997
v -0.092514 0.076615 0.256495
v -0.083882 0.046047 0.267519
v -0.069453 0.076467 0.271435
v -0.085958 0.045900 0.266194
v -0.100101 0.063370 0.255165
v -0.097542 0.077723 0.252800
v -0.079356 0.092869 0.254403
v -0.035035 0.050815 0.207094
v -0.045924 0.075229 0.202252
v -0.034664 0.077516 0.211997
v -0.045924 0.075229 0.202252
v -0.045265 0.076225 0.201370
v -0.079356 0.092869 0.254403
v -0.100101 0.063370 0.255165
v -0.083882 0.046047 0.267519
v -0.085958 0.045900 0.266194
v -0.045265 0.076225 0.201370
v -0.045924 0.075229 0.202252
v -0.073474 0.086374 0.194056
v -0.033933 0.083735 0.150914
v -0.022339 0.049870 0.149587
v -0.047154 0.048780 0.147128
v -0.045265 0.076225 0.201370
v -0.073474 0.086374 0.194056
v -0.011078 0.051185 0.118578
v -0.047154 0.048780 0.147128
v -0.024518 0.087520 0.097768
v -0.035816 0.084190 0.144487
v -0.073474 0.086374 0.194056
v -0.011078 0.051185 0.118578
v -0.022339 0.049870 0.149587
v -0.024518 0.087520 0.097768
v -0.033933 0.083735 0.150914
v -0.020767 0.052353 0.072934
v -0.011056 0.089837 0.089658
v -0.073474 0.086374 0.194056
v -0.045265 0.076225 0.201370
v -0.079356 0.092869 0.254403
v -0.020767 0.052353 0.072934
v -0.011078 0.051185 0.118578
v -0.011056 0.089837 0.089658
v -0.011056 0.089837 0.089658
v -0.011078 0.051185 0.118578
v -0.024518 0.087520 0.097768
v 0.009459 0.081025 0.010609
v 0.052680 0.084119 0.039015
v -0.011056 0.089837 0.089658
v -0.073474 0.086374 0.194056
v -0.024518 0.087520 0.097768
v -0.033933 0.083735 0.150914
v -0.073474 0.086374 0.194056
v -0.035816 0.084190 0.144487
v -0.024518 0.087520 0.097768
v 0.114259 0.079163 0.088112
v 0.107679 0.079399 0.083100
v 0.125576 0.076940 0.097242
v -0.073474 0.086374 0.194056
v -0.079356 0.092869 0.254403
v -0.047833 0.159830 0.221079
v -0.035254 0.161878 0.192531
v -0.035254 0.161878 0.192531
v -0.036406 0.182492 0.144977
v -0.018319 0.164229 0.153239
v 0.007868 0.154560 0.103471
v 0.007868 0.154560 0.103471
v 0.010771 0.155651 0.095788
v -0.024518 0.087520 0.097768
v -0.107678 1.383878 -0.063012
v -0.108137 1.381233 -0.063528
v -0.108030 1.462501 -0.050628
v -0.083642 1.258859 -0.011991
v -0.085545 1.236088 -0.010359
v -0.068671 1.301040 0.014406
v -0.105107 1.203964 -0.011175
v -0.087784 1.204043 -0.006279
v -0.085240 1.235865 -0.004060
v -0.085545 1.236088 -0.010359
v -0.105107 1.203964 -0.011175
v -0.085240 1.235865 -0.004060
v -0.137694 1.308282 0.019473
v -0.085240 1.235865 -0.004060
v -0.164288 1.330971 0.022337
v -0.164288 1.330971 0.022337
v -0.085240 1.235865 -0.004060
v -0.097951 1.310239 0.030954
v -0.099395 1.082444 -0.003831
v -0.093837 1.150139 -0.010098
v -0.105107 1.203964 -0.011175
v -0.099395 1.082444 -0.003831
v -0.105107 1.203964 -0.011175
v -0.087784 1.204043 -0.006279
v 0.198852 0.077174 0.168933
v 0.224131 0.084374 0.148480
v 0.213018 0.088299 0.162553
v 0.041401 1.434671 0.000845
v 0.037705 1.472135 -0.010109
v 0.041416 1.465285 0.001104
v 0.037674 1.390689 -0.010053
v 0.040229 1.299024 0.006778
v 0.037420 1.265483 -0.010431
v 0.040252 1.377065 0.006778
v 0.037423 1.212987 -0.010433
v 0.040205 1.230757 0.006778
v 0.037044 1.378842 -0.010994
v 0.040229 1.299024 0.006778
v 0.040205 1.230757 0.006778
v 0.011019 1.226314 0.001882
v 0.064827 1.137759 -0.014032
v 0.064829 1.139536 -0.006687
v 0.066220 1.155559 -0.000823
v -0.082207 0.078062 -0.201601
v -0.067888 0.077568 -0.270314
v -0.057482 0.154351 -0.204209
v -0.067888 0.077568 -0.270314
v -0.082017 0.158603 -0.222577
v -0.057482 0.154351 -0.204209
v 0.121276 0.200483 -0.061857
v 0.160409 0.187636 -0.112909
v 0.081678 0.208386 -0.010767
v -0.083969 0.201211 -0.010920
v -0.087759 0.200452 0.014582
v -0.035439 0.209208 -0.007095
v -0.099082 0.198479 -0.011583
v -0.133544 0.191411 -0.014032
v -0.165356 0.182905 0.010042
v -0.010776 0.197019 -0.061371
v 0.012387 0.227332 0.038411
v -0.082323 0.080432 -0.010057
v -0.089102 0.079248 -0.010053
v -0.099082 0.198479 -0.011583
v -0.083969 0.201211 -0.010920
v 0.101071 0.192109 0.042485
v 0.051437 0.297821 0.007186
v 0.064172 0.260652 0.001066
v -0.134613 1.743651 -0.010023
v -0.084397 1.618739 -0.009134
v -0.096069 1.716377 0.033454
v -0.133544 0.191411 -0.014032
v -0.183469 0.155362 -0.023112
v -0.165356 0.182905 0.010042
v -0.195708 0.170988 0.002085
v -0.135610 0.076878 0.010961
v -0.165356 0.182905 0.010042
v -0.087759 0.200452 0.014582
v -0.135610 0.076878 0.010961
v -0.084395 0.078062 0.011404
v -0.087759 0.200452 0.014582
v 0.209674 0.095208 -0.155141
v 0.160826 0.087008 -0.093948
v 0.210469 0.125834 -0.115924
vt 0.307524 0.835958
vt 0.267627 0.803587
vt 0.211286 0.835958
vt 0.066054 0.986439
vt 0.062771 0.983815
vt 0.000437 0.986439
vt 0.010061 0.555344
vt 0.010936 0.548994
vt 0.010936 0.611111
vt 0.236658 0.673307
vt 0.236658 0.716098
vt 0.228784 0.673228
vt 0.230672 0.715959
vt 0.298719 0.957568
vt 0.279528 0.980315
vt 0.332896 0.980315
vt 0.045057 0.720472
vt 0.102800 0.720472
vt 0.095916 0.718723
vt 0.008311 0.849081
vt 0.008311 0.902450
vt 0.000437 0.890977
vt 0.891951 0.944151
vt 0.926072 0.943570
vt 0.926072 0.982940
vt 0.569116 0.781715
vt 0.628609 0.781715
vt 0.583723 0.775591
vt 0.370103 0.777340
vt 0.344269 0.778215
vt 0.405512 0.778215
vt 0.581365 0.570866
vt 0.642607 0.570866
vt 0.632076 0.562117
vt 0.086177 0.267204
vt 0.108049 0.227909
vt 0.108049 0.334646
vt 0.028269 0.675853
vt 0.000437 0.686352
vt 0.081802 0.686352
vt 0.184873 0.161417
vt 0.108985 0.216567
vt 0.105974 0.174109
vt 0.098425 0.175060
vt 0.103255 0.217369
vt 0.227317 0.188174
vt 0.206509 0.273403
vt 0.289469 0.201580
vt 0.109296 0.273403
vt 0.359356 0.225809
vt 0.249354 0.251138
vt 0.353687 0.199144
vt 0.419933 0.219908
vt 0.414645 0.186748
vt 0.455147 0.175752
vt 0.458580 0.214695
vt 0.543750 0.176637
vt 0.534894 0.215039
vt 0.551962 0.213074
vt 0.602268 0.174442
vt 0.673228 0.200051
vt 0.149059 0.037088
vt 0.023454 0.069170
vt 0.023882 0.015210
vt 0.014528 0.012657
vt 0.000437 0.069766
vt 0.125689 0.000437
vt 0.114599 0.115422
vt 0.029905 0.120297
vt 0.657143 0.118564
vt 0.669756 0.088564
vt 0.727413 0.116248
vt 0.727213 0.091099
vt 0.764870 0.092820
vt 0.825096 0.095319
vt 0.801620 0.118594
vt 0.769488 0.117521
vt 0.603172 0.104189
vt 0.586508 0.083995
vt 0.484683 0.095030
vt 0.515749 0.080072
vt 0.456147 0.076721
vt 0.420604 0.089530
vt 0.371202 0.085609
vt 0.398600 0.074344
vt 0.352525 0.083622
vt 0.326957 0.071711
vt 0.278723 0.070220
vt 0.285846 0.082469
vt 0.213674 0.067976
vt 0.214277 0.083004
vt 0.904896 0.083104
vt 0.889812 0.120297
vt 0.489174 0.046293
vt 0.610845 0.051551
vt 0.666120 0.053863
vt 0.471715 0.045534
vt 0.702284 0.057915
vt 0.789690 0.062954
vt 0.849494 0.067849
vt 0.394010 0.036061
vt 0.353648 0.036638
vt 0.290252 0.032645
vt 0.171483 0.023276
vt 0.879766 0.067622
vt 0.907424 0.078184
vt 0.945544 0.105521
vt 0.962817 0.091607
vt 0.960254 0.114306
vt 0.717571 0.540245
vt 0.738094 0.614611
vt 0.649418 0.586972
vt 0.646982 0.614611
vt 0.742274 0.613056
vt 0.776465 0.557512
vt 0.909355 0.687812
vt 0.920880 0.685160
vt 0.969242 0.765967
vt 0.927099 0.682852
vt 0.976815 0.764418
vt 0.915497 0.684840
vt 0.899825 0.765967
vt 0.347203 0.491251
vt 0.327869 0.543745
vt 0.249781 0.524818
vt 0.255119 0.500604
vt 0.425634 0.543745
vt 0.819806 0.752843
vt 0.807962 0.805337
vt 0.905949 0.805337
vt 0.902578 0.776476
vt 0.763707 0.261272
vt 0.759888 0.216166
vt 0.752547 0.216037
vt 0.832042 0.219000
vt 0.820744 0.262905
vt 0.725839 0.262804
vt 0.632014 0.261124
vt 0.637446 0.217867
vt 0.565720 0.261177
vt 0.566506 0.213911
vt 0.890201 0.233281
vt 0.534591 0.245015
vt 0.532983 0.258268
vt 0.443132 0.234500
vt 0.501655 0.262905
vt 0.535749 0.169291
vt 0.477173 0.168633
vt 0.416668 0.129291
vt 0.388720 0.162868
vt 0.368642 0.127025
vt 0.350602 0.125740
vt 0.346901 0.166389
vt 0.286799 0.123091
vt 0.284696 0.165395
vt 0.220705 0.159207
vt 0.218775 0.120297
vt 0.157246 0.155140
vt 0.119630 0.121835
vt 0.479633 0.128580
vt 0.598527 0.127283
vt 0.595418 0.158980
vt 0.666703 0.154897
vt 0.655037 0.134269
vt 0.727311 0.124757
vt 0.673955 0.154557
vt 0.787813 0.152753
vt 0.771866 0.122496
vt 0.857830 0.144820
vt 0.806449 0.120656
vt 0.083552 0.169291
vt 0.117673 0.745418
vt 0.123745 0.755468
vt 0.234033 0.755468
vt 0.213531 0.712598
vt 0.591768 0.752843
vt 0.681590 0.709974
vt 0.702100 0.752843
vt 0.585739 0.742768
vt 0.087298 0.609897
vt 0.004840 0.635539
vt 0.100468 0.661980
vt 0.115048 0.664479
vt 0.110450 0.620779
vt 0.002187 0.664479
vt 0.032857 0.584864
vt 0.115048 0.779090
vt 0.013561 0.779090
vt 0.025783 0.742378
vt 0.107825 0.725722
vt 0.217805 0.629942
vt 0.210353 0.589239
vt 0.136210 0.642607
vt 0.257655 0.642607
vt 0.116798 0.599785
vt 0.618280 0.935696
vt 0.623876 0.935503
vt 0.607612 0.918273
vt 0.619713 0.917727
vt 0.662148 0.917323
vt 0.677603 0.935696
vt 0.356170 0.548095
vt 0.325925 0.615104
vt 0.371821 0.616360
vt 0.320604 0.547244
vt 0.419510 0.605290
vt 0.382109 0.549044
vt 0.274278 0.555244
vt 0.282293 0.616360
vt 0.173823 0.469152
vt 0.209536 0.431293
vt 0.175024 0.419510
vt 0.209536 0.512071
vt 0.121943 0.519248
vt 0.124972 0.494153
vt 0.075678 0.518192
vt 0.458935 0.691944
vt 0.455483 0.723377
vt 0.371391 0.679353
vt 0.481436 0.693295
vt 0.372073 0.724847
vt 0.488626 0.724847
vt 0.072109 0.410761
vt 0.082343 0.393060
vt 0.003062 0.353893
vt 0.007053 0.410684
vt 0.084218 0.410684
vt 0.087927 0.393008
vt 0.114934 0.522819
vt 0.117739 0.590114
vt 0.066680 0.590114
vt 0.164042 0.583319
vt 0.159303 0.522189
vt 0.064648 0.520122
vt 0.053308 0.588033
vt 0.014436 0.533932
vt 0.619860 0.633858
vt 0.529516 0.666069
vt 0.612599 0.677371
vt 0.522747 0.714348
vt 0.591172 0.714348
vt 0.957568 0.658355
vt 0.999563 0.658355
vt 0.998085 0.615486
vt 0.343395 0.413437
vt 0.425634 0.458005
vt 0.418952 0.412747
vt 0.425634 0.411636
vt 0.181540 0.817585
vt 0.181540 0.860455
vt 0.101925 0.848908
vt 0.710017 0.617144
vt 0.646844 0.656318
vt 0.634733 0.615486
vt 0.727472 0.649469
vt 0.648934 0.696850
vt 0.742345 0.696850
vt 0.723972 0.356518
vt 0.659516 0.380339
vt 0.656993 0.360574
vt 0.723972 0.405512
vt 0.619192 0.378688
vt 0.616360 0.358088
vt 0.857830 0.173759
vt 0.803331 0.208661
vt 0.799377 0.158793
vt 0.847674 0.164266
vt 0.733490 0.168432
vt 0.733539 0.179735
vt 0.710849 0.208661
vt 0.818636 0.178084
vt 0.631234 0.653106
vt 0.597113 0.573981
vt 0.631234 0.573491
vt 0.819335 0.893701
vt 0.819335 0.941820
vt 0.763342 0.908070
vt 0.599738 0.941820
vt 0.566529 0.897200
vt 0.540245 0.941820
vt 0.416366 0.901227
vt 0.413386 0.906824
vt 0.485127 0.906824
vt 0.441199 0.866579
vt 0.816262 0.652189
vt 0.809915 0.691601
vt 0.748433 0.691601
vt 0.734471 0.641080
vt 0.753014 0.607315
vt 0.822835 0.600612
vt 0.982065 0.931321
vt 0.912981 0.923301
vt 0.912073 0.931321
vt 0.979355 0.896325
vt 0.394442 0.555825
vt 0.461505 0.575241
vt 0.394138 0.548919
vt 0.461505 0.540245
vt 0.472138 0.126422
vt 0.418054 0.094051
vt 0.403762 0.126393
vt 0.472387 0.121074
vt 0.529837 0.126393
vt 0.532371 0.117798
vt 0.763342 0.513998
vt 0.703842 0.515180
vt 0.763342 0.548994
vt 0.702100 0.520421
vt 0.911199 0.378390
vt 0.906550 0.334646
vt 0.864829 0.378390
vt 0.865915 0.371837
vt 0.989064 0.556868
vt 0.968067 0.515272
vt 0.989064 0.462380
vt 0.358268 0.745844
vt 0.301400 0.723097
vt 0.332468 0.724393
vt 0.305706 0.745844
vt 0.667979 0.907699
vt 0.654790 0.886702
vt 0.577865 0.907699
vt 0.943570 0.971566
vt 0.993438 0.971566
vt 0.962966 0.933071
vt 0.155293 0.926887
vt 0.154310 0.938320
vt 0.089953 0.913823
vt 0.076553 0.938320
vt 0.748277 0.912948
vt 0.682852 0.936570
vt 0.760717 0.936570
vt 0.029309 0.888451
vt 0.010936 0.846380
vt 0.029309 0.792213
vt 0.146077 0.939195
vt 0.115923 0.967192
vt 0.178915 0.967192
vt 0.697725 0.010155
vt 0.657114 0.038933
vt 0.646144 0.004812
vt 0.609361 0.038933
vt 0.479048 0.503757
vt 0.473868 0.499012
vt 0.459532 0.521376
vt 0.509624 0.544619
vt 0.476232 0.543249
vt 0.433508 0.443598
vt 0.451359 0.388889
vt 0.509624 0.421348
vt 0.717839 0.894576
vt 0.672353 0.912073
vt 0.762467 0.912073
vt 0.115923 0.302351
vt 0.149494 0.276028
vt 0.166853 0.306649
vt 0.121011 0.306649
vt 0.183290 0.299317
vt 0.182793 0.291599
vt 0.653000 0.850132
vt 0.653647 0.872703
vt 0.647404 0.850140
vt 0.682852 0.868078
vt 0.597113 0.872703
vt 0.608519 0.842957
vt 0.366142 0.731846
vt 0.366142 0.683091
vt 0.341645 0.694264
vt 0.351579 0.680227
vt 0.948819 0.061415
vt 0.978565 0.009289
vt 0.961880 0.000437
vt 0.950063 0.065334
vt 0.978565 0.104549
vt 0.015932 0.412511
vt 0.023185 0.462380
vt 0.021761 0.412575
vt 0.001312 0.462380
vt 0.531496 0.495626
vt 0.500485 0.522940
vt 0.531496 0.530621
vt 0.500000 0.502550
vt 0.891076 0.025456
vt 0.911137 0.002187
vt 0.902381 0.026684
vt 0.946194 0.026684
vt 0.307524 0.347769
vt 0.285406 0.325897
vt 0.262905 0.347769
vt 0.997643 0.224409
vt 0.999563 0.171916
vt 0.981190 0.209848
vt 0.999563 0.217834
vt 0.745307 0.021435
vt 0.738845 0.019507
vt 0.753164 0.003062
vt 0.790464 0.021435
vt 0.181947 0.873825
vt 0.226711 0.851706
vt 0.248143 0.858148
vt 0.271654 0.881452
vt 0.181540 0.881452
vt 0.224023 0.883202
vt 0.157918 0.893701
vt 0.227909 0.893701
vt 0.679353 0.999563
vt 0.638617 0.986439
vt 0.633858 0.999563
vt 0.141619 0.898950
vt 0.140420 0.905074
vt 0.240157 0.905074
vt 0.010936 0.070429
vt 0.010936 0.138670
vt 0.004900 0.132825
vt 0.001312 0.126817
vt 0.199364 0.300724
vt 0.249392 0.297900
vt 0.163433 0.309842
vt 0.188710 0.324799
vt 0.257785 0.298634
vt 0.233812 0.341457
vt 0.153269 0.386867
vt 0.203433 0.399918
vt 0.149282 0.417341
vt 0.215262 0.401791
vt 0.221738 0.403650
vt 0.216557 0.407672
vt 0.248995 0.434383
vt 0.267004 0.404871
vt 0.282316 0.420073
vt 0.283027 0.412524
vt 0.105702 0.434383
vt 0.118851 0.378420
vt 0.136628 0.310398
vt 0.112955 0.384281
vt 0.112810 0.363719
vt 0.105910 0.379961
vt 0.095801 0.424232
vt 0.332158 0.898099
vt 0.343395 0.916448
vt 0.328521 0.916448
vt 0.330277 0.898075
vt 0.832458 0.061680
vt 0.918198 0.061680
vt 0.857903 0.058180
vt 0.877078 0.473753
vt 0.891951 0.473753
vt 0.879138 0.459755
vt 0.884869 0.465349
vt 0.588778 0.796504
vt 0.583115 0.797287
vt 0.651356 0.824584
vt 0.651356 0.777340
vt 0.031059 0.786964
vt 0.094051 0.786964
vt 0.082252 0.783465
vt 0.690726 0.860455
vt 0.682852 0.859189
vt 0.690726 0.849081
vt 0.683072 0.852387
vt 0.078523 0.980509
vt 0.086177 0.972441
vt 0.086177 0.983815
vt 0.078303 0.973707
vt 0.125342 0.658799
vt 0.118223 0.650481
vt 0.115923 0.665354
vt 0.129921 0.665354
vt 0.771216 0.973316
vt 0.771216 0.987314
vt 0.767717 0.982123
vt 0.341189 0.670726
vt 0.297252 0.678478
vt 0.335653 0.670905
vt 0.367850 0.651238
vt 0.389803 0.655110
vt 0.388464 0.676804
vt 0.338459 0.647857
vt 0.436898 0.678478
vt 0.283902 0.648271
vt 0.437008 0.670847
vt 0.804462 0.772966
vt 0.702975 0.772966
vt 0.710278 0.719598
vt 0.792188 0.736362
vt 0.590989 0.835083
vt 0.502625 0.835083
vt 0.562329 0.786089
vt 0.503972 0.814749
vt 0.252271 0.712232
vt 0.264047 0.673697
vt 0.351269 0.723097
vt 0.241032 0.723097
vt 0.258492 0.664479
vt 0.859580 0.592738
vt 0.839087 0.555118
vt 0.766842 0.592738
vt 0.944444 0.904199
vt 0.905495 0.891076
vt 0.877078 0.904199
vt 0.504374 0.864829
vt 0.586614 0.864829
vt 0.543489 0.840332
vt 0.581889 0.996063
vt 0.555118 0.996938
vt 0.583115 0.996938
vt 0.704916 0.840332
vt 0.641732 0.846457
vt 0.761592 0.846457
vt 0.946182 0.986439
vt 0.990690 0.975587
vt 0.945319 0.975066
vt 0.995188 0.986439
vt 0.564506 0.387139
vt 0.491656 0.387523
vt 0.569116 0.397638
vt 0.486002 0.397638
vt 0.496500 0.298775
vt 0.544619 0.298775
vt 0.499428 0.283902
vt 0.509147 0.285729
vt 0.571741 0.415136
vt 0.568813 0.400262
vt 0.559095 0.402089
vt 0.523622 0.415136
vt 0.334646 0.398513
vt 0.242461 0.347769
vt 0.214786 0.398513
vt 0.937445 0.129921
vt 0.989939 0.129921
vt 0.987529 0.124672
vt 0.456840 0.823710
vt 0.453631 0.828084
vt 0.468504 0.828084
vt 0.829834 0.679353
vt 0.957568 0.679353
vt 0.905531 0.627734
vt 0.646982 0.050306
vt 0.774716 0.050306
vt 0.713030 0.007437
vt 0.458032 0.097550
vt 0.454506 0.110674
vt 0.522747 0.110674
vt 0.830558 0.262987
vt 0.778664 0.337943
vt 0.726925 0.277316
vt 0.844443 0.339815
vt 0.737588 0.349550
vt 0.839350 0.262030
vt 0.904297 0.277970
vt 0.941661 0.298597
vt 0.960193 0.296308
vt 0.670367 0.350152
vt 0.662730 0.325757
vt 0.706682 0.264062
vt 0.666242 0.279980
vt 0.781523 0.361767
vt 0.847267 0.361767
vt 0.428259 0.630454
vt 0.480752 0.547244
vt 0.475955 0.679353
vt 0.480752 0.677426
vt 0.044073 0.274244
vt 0.043576 0.278977
vt 0.068966 0.283004
vt 0.081859 0.276079
vt 0.041267 0.209743
vt 0.093176 0.211674
vt 0.062512 0.370270
vt 0.092656 0.323771
vt 0.093176 0.395013
vt 0.011017 0.164405
vt 0.003462 0.330239
vt 0.003062 0.336096
vt 0.008415 0.270833
vt 0.050909 0.122922
vt 0.849149 0.680227
vt 0.772708 0.723266
vt 0.891951 0.724847
vt 0.772091 0.724847
vt 0.986439 0.772091
vt 0.986439 0.837708
vt 0.913823 0.819028
vt 0.918541 0.775799
vt 0.456255 0.762860
vt 0.374525 0.730096
vt 0.350394 0.774716
vt 0.455312 0.774716
vt 0.809282 0.389763
vt 0.815117 0.401287
vt 0.808645 0.391328
vt 0.841341 0.378883
vt 0.820480 0.363517
vt 0.866866 0.431759
vt 0.941820 0.423076
vt 0.756482 0.420445
vt 0.702037 0.431759
vt 0.694226 0.413113
vt 0.624728 0.339020
vt 0.581995 0.315048
vt 0.567976 0.294288
vt 0.520997 0.339020
vt 0.627734 0.270779
vt 0.495588 0.359662
vt 0.449569 0.359325
vt 0.498925 0.384514
vt 0.473819 0.384339
vt 0.391199 0.383731
vt 0.399423 0.359215
vt 0.347437 0.358758
vt 0.346019 0.383405
vt 0.546230 0.384043
vt 0.573891 0.322397
vt 0.604667 0.360369
vt 0.610236 0.384514
vt 0.934300 0.315371
vt 0.985564 0.340770
vt 0.924322 0.333422
vt 0.985564 0.290026
vt 0.286495 0.085302
vt 0.349444 0.113437
vt 0.240157 0.115923
vt 0.352018 0.089009
vt 0.403762 0.091932
vt 0.394418 0.115923
vt 0.415856 0.811461
vt 0.349519 0.847332
vt 0.441382 0.847332
vt 0.508749 0.806212
vt 0.395888 0.781702
vt 0.461549 0.776465
vt 0.399030 0.806212
vt 0.712598 0.185039
vt 0.691887 0.166534
vt 0.650955 0.157043
vt 0.635608 0.185039
vt 0.365409 0.017373
vt 0.315475 0.007982
vt 0.364285 0.006562
vt 0.320202 0.018178
vt 0.237533 0.019685
vt 0.243024 0.009689
vt 0.475108 0.019685
vt 0.479878 0.009296
vt 0.481627 0.281277
vt 0.591864 0.281277
vt 0.520254 0.264654
vt 0.353397 0.277080
vt 0.355558 0.249207
vt 0.357043 0.276708
vt 0.295389 0.245416
vt 0.309618 0.276859
vt 0.289069 0.245407
vt 0.286018 0.277343
vt 0.356471 0.278070
vt 0.227034 0.290809
vt 0.283865 0.298903
vt 0.419981 0.332240
vt 0.366652 0.321640
vt 0.292349 0.320770
vt 0.251422 0.337270
vt 0.416877 0.336542
vt 0.310690 0.337270
vt 0.418703 0.315567
vt 0.420185 0.273828
vt 0.480592 0.299755
vt 0.461136 0.245726
vt 0.427423 0.335184
vt 0.549869 0.306176
vt 0.494885 0.325298
vt 0.375972 0.276120
vt 0.264090 0.913104
vt 0.243657 0.931321
vt 0.319773 0.931321
vt 0.304692 0.904199
vt 0.726597 0.968067
vt 0.666229 0.961866
vt 0.666937 0.968067
vt 0.684378 0.940070
vt 0.894610 0.562992
vt 0.917178 0.582471
vt 0.897475 0.621482
vt 0.916232 0.580903
vt 0.842082 0.626859
vt 0.975941 0.626859
vt 0.459755 0.957339
vt 0.505023 0.948506
vt 0.465126 0.964567
vt 0.520997 0.964567
vt 0.477558 0.937445
vt 0.597113 0.836833
vt 0.712598 0.836833
vt 0.711286 0.826334
vt 0.601736 0.826447
vt 0.736220 0.386264
vt 0.760162 0.361767
vt 0.788464 0.383136
vt 0.807087 0.386264
vt 0.024550 0.959924
vt 0.040068 0.957568
vt 0.008311 0.975941
vt 0.075678 0.975941
vt 0.660105 0.296255
vt 0.642856 0.291776
vt 0.660105 0.350394
vt 0.638233 0.299438
vt 0.617630 0.876001
vt 0.590590 0.888451
vt 0.551136 0.874705
vt 0.525372 0.888451
vt 0.619860 0.876047
vt 0.541919 0.865704
vt 0.382573 0.166667
vt 0.390639 0.187664
vt 0.354329 0.176754
vt 0.334646 0.187664
vt 0.247157 0.552493
vt 0.235783 0.520315
vt 0.247157 0.505249
vt 0.529054 0.225284
vt 0.470254 0.233158
vt 0.538495 0.233158
vt 0.064633 0.711724
vt 0.013561 0.723097
vt 0.061191 0.702191
vt 0.075220 0.701446
vt 0.092572 0.684533
vt 0.109511 0.680227
vt 0.113386 0.692762
vt 0.128242 0.702741
vt 0.137795 0.723097
vt 0.242809 0.646982
vt 0.230534 0.654856
vt 0.283027 0.654856
vt 0.933071 0.544619
vt 0.918198 0.534673
vt 0.933071 0.518373
vt 0.012837 0.469282
vt 0.031238 0.478460
vt 0.032417 0.495625
vt 0.004812 0.475481
vt 0.067708 0.495626
vt 0.056401 0.419510
vt 0.111019 0.478596
vt 0.103636 0.449213
vt 0.142908 0.464103
vt 0.119071 0.446625
vt 0.158030 0.427956
vt 0.158793 0.456885
vt 0.260280 0.584795
vt 0.265529 0.583115
vt 0.265529 0.641732
vt 0.962434 0.510601
vt 0.964940 0.559886
vt 0.966305 0.525395
vt 0.950953 0.511286
vt 0.979440 0.565617
vt 0.923904 0.484953
vt 0.906779 0.503110
vt 0.937176 0.517513
vt 0.939398 0.530064
vt 0.979440 0.458391
vt 0.917288 0.441232
vt 0.898398 0.432633
vt 0.888451 0.435049
vt 0.314523 0.954943
vt 0.266801 0.932196
vt 0.250656 0.954943
vt 0.716973 0.812336
vt 0.634327 0.810586
vt 0.633858 0.812336
vt 0.436133 0.927822
vt 0.519248 0.927822
vt 0.455463 0.910324
vt 0.869204 0.139545
vt 0.949694 0.139545
vt 0.914568 0.119423
vt 0.375855 0.227909
vt 0.365267 0.241907
vt 0.419510 0.241907
vt 0.292651 0.486877
vt 0.288831 0.420385
vt 0.248031 0.486877
vt 0.911199 0.338145
vt 0.946635 0.422881
vt 0.989939 0.433508
vt 0.989939 0.343743
vt 0.612270 0.386264
vt 0.541563 0.441558
vt 0.611670 0.476770
vt 0.656736 0.398309
vt 0.682852 0.406658
vt 0.662053 0.498250
vt 0.497375 0.498250
vt 0.614096 0.480096
vt 0.883149 0.055556
vt 0.821400 0.002187
vt 0.873387 0.019211
vt 0.948819 0.054647
vt 0.780840 0.055556
vt 0.219160 0.814961
vt 0.219160 0.760717
vt 0.130617 0.771511
vt 0.128171 0.798505
vt 0.894536 0.227761
vt 0.980132 0.195745
vt 0.894562 0.212007
vt 0.975102 0.233617
vt 0.917931 0.150725
vt 0.983815 0.142170
vt 0.889326 0.261942
vt 0.983815 0.279528
vt 0.225284 0.637358
vt 0.221369 0.693251
vt 0.135171 0.706053
vt 0.225284 0.722222
vt 0.160373 0.648278
vt 0.529628 0.716973
vt 0.488626 0.771216
vt 0.580960 0.734867
vt 0.590989 0.771216
vt 0.353018 0.866579
vt 0.337182 0.825459
vt 0.270779 0.866579
vt 0.853456 0.193615
vt 0.887577 0.141295
vt 0.887577 0.224409
vt 0.377515 0.867454
vt 0.311024 0.871073
vt 0.350254 0.911303
vt 0.377515 0.912073
vt 0.168416 0.569829
vt 0.210411 0.518373
vt 0.210411 0.584864
vt 0.249781 0.448381
vt 0.210411 0.501328
vt 0.228688 0.536924
vt 0.221166 0.563761
vt 0.243151 0.579846
vt 0.249781 0.605862
vt 0.218784 0.579974
vt 0.454506 0.928696
vt 0.406387 0.940504
vt 0.454506 0.973316
vt 0.411891 0.969830
vt 0.955818 0.555493
vt 0.925979 0.570582
vt 0.955818 0.604987
vt 0.922572 0.545494
vt 0.424759 0.647857
vt 0.392388 0.619976
vt 0.424759 0.606737
vt 0.392936 0.624389
vt 0.903325 0.496500
vt 0.903325 0.539370
vt 0.884077 0.514185
vt 0.413227 0.587489
vt 0.404637 0.573487
vt 0.431826 0.571741
vt 0.453631 0.587489
vt 0.826334 0.968067
vt 0.906824 0.968067
vt 0.879526 0.960193
vt 0.959318 0.579614
vt 0.968067 0.563867
vt 0.968067 0.610236
vt 0.512248 0.422770
vt 0.524497 0.447507
vt 0.524497 0.416010
vt 0.519552 0.447267
vt 0.621309 0.712041
vt 0.622602 0.714301
vt 0.559604 0.722222
vt 0.559493 0.720810
vt 0.638233 0.722222
vt 0.626560 0.695101
vt 0.227909 0.911199
vt 0.225087 0.906824
vt 0.178915 0.911199
vt 0.653977 0.971170
vt 0.650481 0.973316
vt 0.661069 0.959318
vt 0.704724 0.973316
vt 0.492114 0.630359
vt 0.533129 0.593853
vt 0.609361 0.630359
vt 0.608301 0.625588
vt 0.548769 0.571816
vt 0.532359 0.591930
vt 0.545347 0.565990
vt 0.498205 0.552493
vt 0.485127 0.566426
vt 0.388889 0.969816
vt 0.344402 0.945319
vt 0.324147 0.969816
vt 0.719598 0.950742
vt 0.738845 0.938320
vt 0.738845 0.983815
vt 0.863080 0.543745
vt 0.863080 0.582240
vt 0.836833 0.548283
vt 0.961942 0.719114
vt 0.989064 0.659230
vt 0.989064 0.760717
vt 0.284777 0.359657
vt 0.340770 0.342520
vt 0.340770 0.392388
vt 0.923661 0.848206
vt 0.863954 0.867454
vt 0.965442 0.867454
vt 0.786062 0.022310
vt 0.788721 0.027559
vt 0.781715 0.027559
vt 0.793963 0.025323
vt 0.993038 0.044251
vt 0.991537 0.094296
vt 0.990213 0.105424
vt 0.997813 0.039808
vt 0.997813 0.098468
vt 0.979440 0.090368
vt 0.984689 0.625109
vt 0.974191 0.576170
vt 0.984689 0.564742
vt 0.639108 0.694226
vt 0.608486 0.689140
vt 0.639108 0.653106
vt 0.755417 0.485098
vt 0.778409 0.477619
vt 0.821431 0.496500
vt 0.868116 0.480722
vt 0.724896 0.468635
vt 0.794978 0.424918
vt 0.870239 0.434810
vt 0.874453 0.453228
vt 0.789300 0.415136
vt 0.716098 0.456338
vt 0.743901 0.496500
vt 0.601988 0.557743
vt 0.616240 0.494598
vt 0.670628 0.557743
vt 0.683415 0.541575
vt 0.541439 0.498665
vt 0.539370 0.535696
vt 0.541689 0.553470
vt 0.692476 0.529691
vt 0.622245 0.485127
vt 0.036308 0.836833
vt 0.048477 0.792213
vt 0.129046 0.836833
vt 0.116258 0.805560
vt 0.797546 0.791339
vt 0.809711 0.835958
vt 0.729759 0.804679
vt 0.716973 0.835958
vt 0.301805 0.873578
vt 0.239283 0.900700
vt 0.321522 0.900700
vt 0.063430 0.891076
vt 0.125095 0.862205
vt 0.138284 0.891076
vt 0.148294 0.886041
vt 0.622485 0.213911
vt 0.709099 0.213911
vt 0.699405 0.202537
vt 0.606926 0.028800
vt 0.557829 0.004812
vt 0.606320 0.008439
vt 0.562458 0.040766
vt 0.548060 0.033974
vt 0.479878 0.041557
vt 0.561247 0.041557
vt 0.615486 0.011505
vt 0.610708 0.028794
vt 0.186789 0.843832
vt 0.269029 0.843832
vt 0.194618 0.835083
vt 0.562117 0.986439
vt 0.521872 0.978229
vt 0.550214 0.970691
vt 0.523145 0.986439
vt 0.711085 0.995188
vt 0.708224 0.997813
vt 0.758093 0.997813
vt 0.756983 0.996833
vt 0.359425 0.973316
vt 0.339895 0.980315
vt 0.372266 0.980315
vt 0.253281 0.527122
vt 0.253281 0.611111
vt 0.245407 0.571801
vt 0.644599 0.938320
vt 0.583115 0.954068
vt 0.667104 0.954068
vt 0.730096 0.987314
vt 0.703010 0.974191
vt 0.672353 0.987314
vt 0.813892 0.565617
vt 0.808333 0.499847
vt 0.831274 0.523168
vt 0.765092 0.520533
vt 0.865883 0.495626
vt 0.916448 0.561661
vt 0.913196 0.565617
vt 0.043864 0.919948
vt 0.005687 0.945319
vt 0.080052 0.945319
vt 0.557743 0.783465
vt 0.493580 0.778215
vt 0.483377 0.783465
vt 0.368766 0.997813
vt 0.334646 0.992170
vt 0.349502 0.989064
vt 0.334747 0.997813
vt 0.451006 0.534996
vt 0.402378 0.522104
vt 0.451006 0.513123
vt 0.402012 0.514436
vt 0.278653 0.961067
vt 0.203797 0.957568
vt 0.191164 0.961067
vt 0.243657 0.975066
vt 0.223297 0.965442
vt 0.171916 0.975066
vt 0.832458 0.982065
vt 0.887577 0.982065
vt 0.887346 0.972441
vt 0.839458 0.597988
vt 0.839458 0.653981
vt 0.819335 0.644863
vt 0.584864 0.773841
vt 0.633940 0.773841
vt 0.637358 0.764744
vt 0.629452 0.763342
vt 0.007437 0.770469
vt 0.010936 0.763342
vt 0.010936 0.821085
vt 0.463255 0.037183
vt 0.456649 0.024934
vt 0.412511 0.037183
vt 0.052931 0.519248
vt 0.029001 0.496500
vt 0.004812 0.519248
vt 0.051475 0.497537
vt 0.367892 0.822835
vt 0.367107 0.818460
vt 0.325022 0.820883
vt 0.325178 0.822835
vt 0.711724 0.774125
vt 0.714046 0.788714
vt 0.717396 0.773841
vt 0.751094 0.788714
vt 0.517498 0.632857
vt 0.493876 0.693961
vt 0.511870 0.631234
vt 0.517498 0.705599
vt 0.481987 0.332896
vt 0.482502 0.334822
vt 0.469627 0.333335
vt 0.481201 0.357393
vt 0.407262 0.351670
vt 0.408879 0.357393
vt 0.184100 0.100175
vt 0.152668 0.119423
vt 0.241032 0.119423
vt 0.266450 0.978565
vt 0.206912 0.988189
vt 0.267279 0.988189
vt 0.999563 0.292651
vt 0.981190 0.242478
vt 0.999563 0.228784
vt 0.521872 0.968067
vt 0.588364 0.968067
vt 0.533845 0.942695
vt 0.404637 0.921672
vt 0.403966 0.858845
vt 0.382765 0.921697
vt 0.404637 0.857830
vt 0.859580 0.216535
vt 0.839506 0.194663
vt 0.796588 0.216535
vt 0.394069 0.391514
vt 0.346894 0.411636
vt 0.409886 0.411636
vt 0.429134 0.746719
vt 0.489501 0.746719
vt 0.439588 0.728346
vt 0.034558 0.871276
vt 0.035583 0.871828
vt 0.096513 0.861367
vt 0.101050 0.871828
vt 0.084205 0.845582
vt 0.087052 0.982940
vt 0.140420 0.982940
vt 0.089266 0.970691
vt 0.476458 0.995141
vt 0.465779 0.968941
vt 0.492571 0.978560
vt 0.464239 0.970333
vt 0.464129 0.991383
vt 0.473483 0.999563
vt 0.493001 0.999563
vt 0.291776 0.415600
vt 0.313648 0.409011
vt 0.313648 0.422135
vt 0.834869 0.931321
vt 0.834208 0.933071
vt 0.887577 0.933071
vt 0.400262 0.181540
vt 0.422135 0.181540
vt 0.420683 0.179790
vt 0.762834 0.970118
vt 0.761751 0.970691
vt 0.750219 0.947613
vt 0.798236 0.945319
vt 0.814086 0.970691
vt 0.176290 0.005006
vt 0.226159 0.000437
vt 0.226159 0.025809
vt 0.835854 0.806369
vt 0.873338 0.806212
vt 0.825459 0.839458
vt 0.865890 0.836111
vt 0.919948 0.839458
vt 0.212735 0.919948
vt 0.239283 0.925073
vt 0.193339 0.950899
vt 0.237437 0.954943
vt 0.174541 0.920314
vt 0.180957 0.954943
vt 0.628609 0.988189
vt 0.625799 0.962817
vt 0.578740 0.988189
vt 0.846457 0.962817
vt 0.830451 0.927822
vt 0.811461 0.962817
vt 0.862205 0.842957
vt 0.862205 0.883202
vt 0.849956 0.848559
vt 0.498262 0.876203
vt 0.485127 0.917323
vt 0.552493 0.917323
vt 0.321522 0.936570
vt 0.409886 0.936570
vt 0.367613 0.923447
vt 0.950569 0.942695
vt 0.900486 0.933071
vt 0.862205 0.942695
vt 0.250577 0.781715
vt 0.243657 0.782590
vt 0.262905 0.782590
vt 0.835083 0.841207
vt 0.835083 0.891951
vt 0.772284 0.868010
vt 0.765092 0.843421
vt 0.012686 0.912073
vt 0.046029 0.884952
vt 0.047494 0.907643
vt 0.094051 0.912073
vt 0.137224 0.909449
vt 0.135171 0.916448
vt 0.198163 0.916448
vt 0.394594 0.386264
vt 0.392388 0.387139
vt 0.459755 0.387139
vt 0.939421 0.276903
vt 0.922572 0.285652
vt 0.981190 0.285652
vt 0.777340 0.793088
vt 0.769127 0.780840
vt 0.745844 0.793088
vt 0.974124 0.629484
vt 0.943570 0.634733
vt 0.975066 0.634733
vt 0.777983 0.880577
vt 0.702100 0.886702
vt 0.806212 0.886702
vt 0.290901 0.816710
vt 0.395013 0.816710
vt 0.336400 0.780840
vt 0.926947 0.915573
vt 0.871614 0.907699
vt 0.827209 0.915573
vt 0.232283 0.187664
vt 0.332021 0.187664
vt 0.331180 0.172791
vt 0.370516 0.454506
vt 0.398513 0.454506
vt 0.384870 0.446632
vt 0.094554 0.668216
vt 0.125547 0.678478
vt 0.119876 0.667979
vt 0.058180 0.678478
vt 0.333470 0.628851
vt 0.360840 0.643320
vt 0.269662 0.628609
vt 0.403762 0.643482
vt 0.389286 0.629063
vt 0.268154 0.643482
vt 0.993438 0.905074
vt 0.971566 0.852932
vt 0.993438 0.840332
vt 0.934821 0.995188
vt 0.930446 0.990396
vt 0.934821 0.976815
vt 0.500000 0.864829
vt 0.494949 0.807087
vt 0.434383 0.864829
vt 0.617235 0.125547
vt 0.542500 0.101925
vt 0.533246 0.125547
vt 0.370710 0.020560
vt 0.317148 0.023185
vt 0.423885 0.023185
vt 0.379628 0.468137
vt 0.379395 0.489076
vt 0.339045 0.464403
vt 0.392237 0.469689
vt 0.421255 0.472355
vt 0.444882 0.495626
vt 0.328636 0.415136
vt 0.291776 0.495626
vt 0.968048 0.887577
vt 0.968941 0.881700
vt 0.871267 0.874453
vt 0.869204 0.887577
vt 0.675853 0.877953
vt 0.775591 0.877953
vt 0.746474 0.863080
vt 0.223535 0.771216
vt 0.333771 0.771216
vt 0.256261 0.730096
vt 0.254156 0.800088
vt 0.305774 0.800088
vt 0.276334 0.774676
vt 0.303625 0.773841
vt 0.680523 0.423010
vt 0.675853 0.513123
vt 0.741470 0.513123
vt 0.712598 0.801837
vt 0.696556 0.762467
vt 0.604112 0.801837
vt 0.881452 0.767717
vt 0.827209 0.732686
vt 0.881452 0.726597
usemtl baked
f 433/433 435/435 436/436
f 436/436 435/435 437/437
f 366/366 367/367 368/368
f 369/369 368/368 367/367
f 435/435 438/438 437/437
f 435/435 432/432 438/438
f 732/732 733/733 734/734
f 766/766 767/767 768/768
f 825/825 826/826 827/827
f 772/772 773/773 774/774
f 864/864 865/865 866/866
f 769/769 770/770 771/771
f 874/874 871/871 873/873
f 872/872 871/871 875/875
f 875/875 871/871 876/876
f 871/871 872/872 873/873
f 889/889 891/891 890/890
f 889/889 892/892 891/891
f 885/885 890/890 888/888
f 885/885 889/889 890/890
f 714/714 716/716 715/715
f 700/700 702/702 701/701
f 731/731 726/726 729/729
f 754/754 757/757 755/755
f 730/730 729/729 728/728
f 699/699 700/700 701/701
f 728/728 726/726 727/727
f 726/726 728/728 729/729
f 731/731 729/729 730/730
f 756/756 760/760 761/761
f 754/754 756/756 761/761
f 753/753 756/756 754/754
f 753/753 754/754 755/755
f 726/726 725/725 727/727
f 726/726 723/723 725/725
f 896/896 897/897 898/898
f 687/687 689/689 688/688
f 899/899 900/900 901/901
f 686/686 690/690 687/687
f 735/735 736/736 737/737
f 703/703 704/704 705/705
f 686/686 687/687 688/688
f 705/705 704/704 706/706
f 713/713 714/714 715/715
f 746/746 747/747 748/748
f 746/746 748/748 749/749
f 745/745 747/747 746/746
f 744/744 745/745 746/746
f 760/760 756/756 759/759
f 758/758 759/759 756/756
f 422/422 432/432 433/433
f 432/432 435/435 433/433
f 902/902 903/903 904/904
f 450/450 453/453 451/451
f 425/425 424/424 423/423
f 423/423 424/424 422/422
f 908/908 909/909 910/910
f 424/424 432/432 422/422
f 1/1 2/2 3/3
f 911/911 912/912 913/913
f 912/912 911/911 914/914
f 915/915 917/917 920/920
f 915/915 916/916 917/917
f 333/333 334/334 335/335
f 918/918 919/919 916/916
f 918/918 916/916 915/915
f 464/464 462/462 461/461
f 461/461 462/462 463/463
f 116/116 121/121 117/117
f 412/412 414/414 415/415
f 905/905 906/906 907/907
f 267/267 264/264 266/266
f 264/264 265/265 266/266
f 921/921 922/922 923/923
f 966/966 968/968 969/969
f 965/965 968/968 966/966
f 943/943 938/938 944/944
f 968/968 971/971 969/969
f 965/965 966/966 967/967
f 981/981 982/982 983/983
f 981/981 983/983 984/984
f 967/967 972/972 965/965
f 972/972 973/973 965/965
f 857/857 859/859 860/860
f 857/857 858/858 859/859
f 842/842 843/843 844/844
f 877/877 878/878 879/879
f 988/988 989/989 990/990
f 991/991 992/992 993/993
f 999/999 998/998 1001/1001
f 994/994 995/995 996/996
f 379/379 382/382 380/380
f 379/379 380/380 381/381
f 217/217 220/220 218/218
f 222/222 218/218 220/220
f 428/428 427/427 426/426
f 428/428 426/426 429/429
f 431/431 430/430 429/429
f 429/429 430/430 428/428
f 1014/1014 1015/1015 1016/1016
f 1000/1000 998/998 997/997
f 997/997 998/998 999/999
f 938/938 942/942 939/939
f 938/938 943/943 942/942
f 974/974 975/975 976/976
f 955/955 956/956 957/957
f 959/959 961/961 960/960
f 1007/1007 1008/1008 1009/1009
f 958/958 959/959 960/960
f 1004/1004 1005/1005 1006/1006
f 387/387 388/388 389/389
f 472/472 473/473 474/474
f 474/474 475/475 472/472
f 473/473 475/475 474/474
f 478/478 475/475 473/473
f 38/38 39/39 40/40
f 480/480 478/478 473/473
f 472/472 476/476 477/477
f 475/475 476/476 472/472
f 977/977 978/978 979/979
f 977/977 980/980 978/978
f 563/563 567/567 575/575
f 564/564 563/563 575/575
f 564/564 575/575 573/573
f 651/651 649/649 648/648
f 648/648 649/649 650/650
f 648/648 650/650 655/655
f 569/569 573/573 574/574
f 564/564 573/573 569/569
f 568/568 567/567 566/566
f 566/566 567/567 563/563
f 1018/1018 1019/1019 1020/1020
f 564/564 569/569 565/565
f 566/566 563/563 565/565
f 563/563 564/564 565/565
f 649/649 671/671 655/655
f 504/504 505/505 506/506
f 566/566 565/565 570/570
f 545/545 557/557 548/548
f 709/709 710/710 712/712
f 633/633 634/634 635/635
f 633/633 635/635 636/636
f 595/595 594/594 592/592
f 708/708 710/710 709/709
f 570/570 565/565 571/571
f 672/672 673/673 674/674
f 675/675 672/672 674/674
f 316/316 317/317 318/318
f 319/319 317/317 316/316
f 1021/1021 1022/1022 1023/1023
f 1024/1024 1025/1025 1026/1026
f 1027/1027 1028/1028 1029/1029
f 1030/1030 1031/1031 1032/1032
f 1030/1030 1032/1032 1033/1033
f 477/477 476/476 479/479
f 476/476 481/481 479/479
f 1034/1034 1035/1035 1036/1036
f 1037/1037 1038/1038 1039/1039
f 814/814 813/813 816/816
f 789/789 794/794 790/790
f 884/884 885/885 886/886
f 790/790 794/794 795/795
f 822/822 823/823 824/824
f 781/781 782/782 783/783
f 881/881 880/880 883/883
f 799/799 796/796 798/798
f 867/867 868/868 869/869
f 861/861 862/862 863/863
f 893/893 894/894 895/895
f 1016/1016 1015/1015 1017/1017
f 796/796 797/797 798/798
f 796/796 800/800 797/797
f 870/870 868/868 867/867
f 778/778 779/779 780/780
f 880/880 881/881 882/882
f 886/886 885/885 887/887
f 887/887 885/885 888/888
f 884/884 892/892 885/885
f 828/828 829/829 830/830
f 831/831 828/828 830/830
f 885/885 892/892 889/889
f 775/775 776/776 777/777
f 818/818 819/819 820/820
f 819/819 821/821 820/820
f 850/850 853/853 851/851
f 850/850 851/851 852/852
f 849/849 847/847 846/846
f 846/846 847/847 848/848
f 1040/1040 1043/1043 1041/1041
f 1040/1040 1041/1041 1042/1042
f 63/63 65/65 64/64
f 66/66 65/65 63/63
f 375/375 378/378 376/376
f 375/375 376/376 377/377
f 323/323 324/324 325/325
f 11/11 13/13 12/12
f 10/10 11/11 12/12
f 1047/1047 1044/1044 1046/1046
f 1044/1044 1045/1045 1046/1046
f 228/228 224/224 227/227
f 1048/1048 1049/1049 1050/1050
f 1049/1049 1051/1051 1050/1050
f 258/258 259/259 260/260
f 261/261 259/259 258/258
f 439/439 440/440 441/441
f 439/439 441/441 442/442
f 260/260 259/259 262/262
f 260/260 262/262 263/263
f 1057/1057 1059/1059 1058/1058
f 1056/1056 1057/1057 1058/1058
f 1062/1062 1063/1063 1064/1064
f 1065/1065 1066/1066 1067/1067
f 1060/1060 1059/1059 1061/1061
f 1058/1058 1059/1059 1060/1060
f 1052/1052 1055/1055 1053/1053
f 1052/1052 1053/1053 1054/1054
f 227/227 224/224 223/223
f 303/303 304/304 302/302
f 303/303 302/302 299/299
f 278/278 279/279 280/280
f 223/223 224/224 225/225
f 223/223 225/225 226/226
f 966/966 969/969 970/970
f 962/962 963/963 964/964
f 1010/1010 1013/1013 1011/1011
f 1111/1111 1112/1112 1113/1113
f 1116/1116 1117/1117 1118/1118
f 1088/1088 1090/1090 1089/1089
f 1077/1077 1075/1075 1074/1074
f 1130/1130 1131/1131 1132/1132
f 1087/1087 1088/1088 1089/1089
f 1091/1091 1087/1087 1089/1089
f 305/305 306/306 307/307
f 306/306 308/308 307/307
f 1122/1122 1120/1120 1123/1123
f 1121/1121 1120/1120 1122/1122
f 1119/1119 1120/1120 1121/1121
f 1133/1133 1134/1134 1135/1135
f 1136/1136 1137/1137 1138/1138
f 281/281 283/283 284/284
f 42/42 44/44 43/43
f 42/42 45/45 44/44
f 1129/1129 1128/1128 1126/1126
f 1124/1124 1126/1126 1128/1128
f 1139/1139 1140/1140 1141/1141
f 1114/1114 1111/1111 1113/1113
f 1115/1115 1111/1111 1114/1114
f 1142/1142 1143/1143 1144/1144
f 1145/1145 1146/1146 1147/1147
f 1124/1124 1125/1125 1126/1126
f 1126/1126 1125/1125 1127/1127
f 295/295 296/296 297/297
f 297/297 296/296 298/298
f 1100/1100 1099/1099 1095/1095
f 1095/1095 1099/1099 1098/1098
f 1095/1095 1098/1098 1096/1096
f 1100/1100 1095/1095 1097/1097
f 1095/1095 1096/1096 1097/1097
f 1101/1101 1100/1100 1097/1097
f 1108/1108 1109/1109 1110/1110
f 1074/1074 1075/1075 1076/1076
f 1071/1071 1072/1072 1073/1073
f 1084/1084 1085/1085 1086/1086
f 652/652 651/651 648/648
f 592/592 589/589 593/593
f 545/545 548/548 546/546
f 544/544 545/545 546/546
f 548/548 553/553 546/546
f 546/546 553/553 554/554
f 655/655 664/664 658/658
f 655/655 658/658 659/659
f 659/659 658/658 662/662
f 662/662 658/658 668/668
f 671/671 665/665 655/655
f 665/665 664/664 655/655
f 556/556 555/555 554/554
f 659/659 662/662 660/660
f 660/660 662/662 663/663
f 555/555 546/546 554/554
f 655/655 659/659 660/660
f 648/648 655/655 660/660
f 336/336 337/337 338/338
f 242/242 243/243 244/244
f 194/194 192/192 191/191
f 450/450 451/451 452/452
f 299/299 302/302 300/300
f 299/299 300/300 301/301
f 403/403 404/404 405/405
f 457/457 458/458 459/459
f 458/458 460/460 459/459
f 1148/1148 1149/1149 1150/1150
f 412/412 413/413 414/414
f 426/426 427/427 424/424
f 426/426 424/424 425/425
f 291/291 294/294 292/292
f 291/291 292/292 293/293
f 454/454 455/455 456/456
f 7/7 8/8 9/9
f 281/281 282/282 283/283
f 357/357 354/354 356/356
f 354/354 355/355 356/356
f 398/398 399/399 400/400
f 401/401 398/398 400/400
f 356/356 355/355 358/358
f 398/398 401/401 402/402
f 355/355 359/359 358/358
f 351/351 352/352 353/353
f 360/360 361/361 362/362
f 360/360 363/363 361/361
f 361/361 364/364 362/362
f 362/362 364/364 365/365
f 209/209 203/203 205/205
f 208/208 209/209 205/205
f 1092/1092 1093/1093 1094/1094
f 1105/1105 1106/1106 1107/1107
f 1102/1102 1103/1103 1104/1104
f 1081/1081 1082/1082 1083/1083
f 1078/1078 1079/1079 1080/1080
f 1151/1151 1152/1152 1153/1153
f 1151/1151 1153/1153 1154/1154
f 202/202 203/203 204/204
f 203/203 202/202 205/205
f 340/340 342/342 341/341
f 339/339 340/340 341/341
f 1068/1068 1069/1069 1070/1070
f 390/390 391/391 392/392
f 393/393 391/391 390/390
f 285/285 288/288 289/289
f 290/290 285/285 289/289
f 1155/1155 1156/1156 1157/1157
f 1157/1157 1156/1156 1158/1158
f 285/285 287/287 288/288
f 1159/1159 1160/1160 1161/1161
f 237/237 238/238 239/239
f 246/246 248/248 247/247
f 245/245 246/246 247/247
f 285/285 286/286 287/287
f 202/202 206/206 207/207
f 202/202 204/204 206/206
f 239/239 240/240 241/241
f 239/239 238/238 240/240
f 229/229 232/232 230/230
f 229/229 233/233 232/232
f 29/29 30/30 31/31
f 32/32 33/33 34/34
f 236/236 234/234 235/235
f 234/234 229/229 231/231
f 229/229 230/230 231/231
f 234/234 231/231 235/235
f 558/558 557/557 545/545
f 547/547 558/558 545/545
f 1162/1162 1163/1163 1164/1164
f 707/707 711/711 708/708
f 498/498 499/499 500/500
f 707/707 708/708 709/709
f 575/575 567/567 572/572
f 549/549 547/547 544/544
f 547/547 545/545 544/544
f 669/669 668/668 666/666
f 669/669 670/670 668/668
f 664/664 668/668 658/658
f 664/664 666/666 668/668
f 665/665 667/667 666/666
f 665/665 666/666 664/664
f 649/649 667/667 665/665
f 649/649 665/665 671/671
f 1165/1165 1166/1166 1167/1167
f 551/551 547/547 550/550
f 550/550 547/547 549/549
f 552/552 558/558 547/547
f 551/551 552/552 547/547
f 1168/1168 1169/1169 1170/1170
f 1171/1171 1172/1172 1173/1173
f 750/750 751/751 752/752
f 1174/1174 1175/1175 1176/1176
f 1177/1177 1178/1178 1179/1179
f 567/567 568/568 572/572
f 572/572 568/568 576/576
f 559/559 560/560 561/561
f 560/560 562/562 561/561
f 1180/1180 1181/1181 1182/1182
f 1183/1183 1184/1184 1185/1185
f 271/271 265/265 266/266
f 1186/1186 1187/1187 1188/1188
f 257/257 253/253 255/255
f 256/256 253/253 257/257
f 255/255 253/253 252/252
f 192/192 195/195 193/193
f 191/191 192/192 193/193
f 447/447 449/449 448/448
f 446/446 447/447 448/448
f 465/465 467/467 468/468
f 465/465 466/466 467/467
f 265/265 270/270 269/269
f 495/495 496/496 497/497
f 265/265 269/269 268/268
f 266/266 265/265 268/268
f 119/119 120/120 118/118
f 117/117 119/119 118/118
f 374/374 371/371 373/373
f 373/373 371/371 370/370
f 370/370 371/371 372/372
f 116/116 117/117 118/118
f 422/422 433/433 434/434
f 418/418 422/422 434/434
f 423/423 422/422 419/419
f 419/419 422/422 418/418
f 417/417 419/419 418/418
f 416/416 417/417 418/418
f 252/252 253/253 254/254
f 116/116 118/118 122/122
f 421/421 423/423 419/419
f 4/4 5/5 6/6
f 419/419 420/420 421/421
f 417/417 420/420 419/419
f 330/330 331/331 332/332
f 327/327 329/329 328/328
f 326/326 327/327 328/328
f 623/623 621/621 620/620
f 620/620 621/621 622/622
f 639/639 644/644 643/643
f 639/639 643/643 637/637
f 641/641 642/642 638/638
f 641/641 638/638 640/640
f 640/640 638/638 637/637
f 637/637 638/638 639/639
f 1189/1189 1190/1190 1191/1191
f 1189/1189 1192/1192 1190/1190
f 762/762 758/758 756/756
f 762/762 756/756 753/753
f 525/525 522/522 524/524
f 1193/1193 1194/1194 1195/1195
f 1194/1194 1198/1198 1195/1195
f 522/522 523/523 524/524
f 1193/1193 1196/1196 1194/1194
f 1197/1197 1196/1196 1193/1193
f 93/93 92/92 107/107
f 93/93 107/107 109/109
f 612/612 615/615 614/614
f 612/612 614/614 613/613
f 599/599 600/600 601/601
f 599/599 601/601 603/603
f 632/632 630/630 629/629
f 629/629 630/630 631/631
f 691/691 692/692 693/693
f 691/691 693/693 694/694
f 510/510 513/513 511/511
f 608/608 610/610 611/611
f 608/608 605/605 609/609
f 610/610 608/608 609/609
f 510/510 511/511 512/512
f 612/612 613/613 604/604
f 606/606 612/612 604/604
f 518/518 519/519 520/520
f 520/520 519/519 521/521
f 608/608 607/607 605/605
f 606/606 605/605 607/607
f 515/515 517/517 516/516
f 514/514 515/515 516/516
f 604/604 605/605 606/606
f 1199/1199 1200/1200 1201/1201
f 600/600 602/602 601/601
f 146/146 144/144 145/145
f 107/107 106/106 108/108
f 144/144 143/143 145/145
f 109/109 107/107 108/108
f 166/166 165/165 167/167
f 167/167 165/165 168/168
f 163/163 164/164 165/165
f 166/166 163/163 165/165
f 621/621 624/624 625/625
f 623/623 624/624 621/621
f 406/406 407/407 408/408
f 469/469 470/470 471/471
f 1202/1202 1203/1203 1204/1204
f 126/126 123/123 125/125
f 123/123 124/124 125/125
f 169/169 167/167 168/168
f 169/169 168/168 170/170
f 72/72 73/73 77/77
f 77/77 73/73 74/74
f 93/93 76/76 92/92
f 76/76 75/75 92/92
f 77/77 74/74 76/76
f 74/74 75/75 76/76
f 92/92 106/106 107/107
f 92/92 105/105 106/106
f 75/75 105/105 92/92
f 105/105 75/75 100/100
f 313/313 314/314 315/315
f 123/123 127/127 124/124
f 840/840 838/838 841/841
f 806/806 805/805 808/808
f 805/805 806/806 807/807
f 808/808 805/805 811/811
f 812/812 808/808 811/811
f 784/784 785/785 786/786
f 787/787 784/784 786/786
f 1205/1205 1206/1206 1207/1207
f 832/832 833/833 834/834
f 835/835 836/836 837/837
f 1208/1208 1209/1209 1210/1210
f 788/788 789/789 790/790
f 788/788 790/790 791/791
f 806/806 809/809 807/807
f 806/806 810/810 809/809
f 790/790 793/793 792/792
f 791/791 790/790 792/792
f 817/817 813/813 815/815
f 813/813 814/814 815/815
f 854/854 855/855 856/856
f 843/843 845/845 844/844
f 801/801 803/803 804/804
f 801/801 802/802 803/803
f 1211/1211 1212/1212 1213/1213
f 1215/1215 1218/1218 1219/1219
f 1217/1217 1218/1218 1215/1215
f 837/837 836/836 838/838
f 837/837 838/838 839/839
f 839/839 838/838 840/840
f 1214/1214 1215/1215 1216/1216
f 1214/1214 1217/1217 1215/1215
f 1220/1220 1216/1216 1221/1221
f 1220/1220 1214/1214 1216/1216
f 51/51 47/47 48/48
f 48/48 47/47 46/46
f 90/90 104/104 103/103
f 88/88 90/90 103/103
f 491/491 490/490 493/493
f 491/491 493/493 494/494
f 68/68 90/90 91/91
f 490/490 491/491 492/492
f 1226/1226 1227/1227 1228/1228
f 68/68 62/62 90/90
f 156/156 158/158 157/157
f 158/158 159/159 157/157
f 163/163 161/161 164/164
f 163/163 162/162 161/161
f 86/86 88/88 87/87
f 89/89 88/88 86/86
f 150/150 153/153 152/152
f 159/159 158/158 171/171
f 26/26 27/27 28/28
f 70/70 71/71 72/72
f 71/71 73/73 72/72
f 79/79 71/71 78/78
f 78/78 71/71 70/70
f 214/214 210/210 215/215
f 216/216 214/214 215/215
f 210/210 213/213 211/211
f 210/210 211/211 212/212
f 214/214 213/213 210/210
f 62/62 67/67 90/90
f 67/67 104/104 90/90
f 84/84 85/85 82/82
f 84/84 82/82 83/83
f 150/150 152/152 151/151
f 147/147 148/148 149/149
f 147/147 149/149 160/160
f 80/80 81/81 79/79
f 80/80 79/79 78/78
f 162/162 147/147 161/161
f 383/383 384/384 385/385
f 385/385 384/384 386/386
f 86/86 85/85 84/84
f 86/86 87/87 85/85
f 87/87 102/102 101/101
f 87/87 101/101 85/85
f 83/83 82/82 80/80
f 80/80 82/82 81/81
f 140/140 138/138 139/139
f 91/91 90/90 89/89
f 90/90 88/88 89/89
f 81/81 94/94 79/79
f 79/79 95/95 96/96
f 94/94 95/95 79/79
f 79/79 96/96 71/71
f 23/23 24/24 25/25
f 53/53 54/54 55/55
f 56/56 53/53 55/55
f 56/56 55/55 57/57
f 58/58 56/56 57/57
f 59/59 58/58 57/57
f 59/59 57/57 60/60
f 59/59 60/60 61/61
f 136/136 142/142 135/135
f 156/156 157/157 154/154
f 155/155 156/156 154/154
f 94/94 81/81 97/97
f 309/309 310/310 311/311
f 311/311 310/310 312/312
f 147/147 160/160 161/161
f 138/138 137/137 134/134
f 138/138 134/134 139/139
f 153/153 155/155 154/154
f 153/153 154/154 152/152
f 73/73 98/98 74/74
f 74/74 98/98 99/99
f 82/82 101/101 97/97
f 85/85 101/101 82/82
f 82/82 97/97 81/81
f 51/51 48/48 52/52
f 50/50 51/51 52/52
f 394/394 395/395 396/396
f 397/397 394/394 396/396
f 150/150 151/151 149/149
f 148/148 150/150 149/149
f 143/143 140/140 141/141
f 140/140 143/143 144/144
f 132/132 133/133 134/134
f 137/137 132/132 134/134
f 99/99 100/100 75/75
f 87/87 103/103 102/102
f 88/88 103/103 87/87
f 53/53 50/50 52/52
f 53/53 52/52 54/54
f 132/132 136/136 135/135
f 132/132 135/135 133/133
f 96/96 98/98 71/71
f 71/71 98/98 73/73
f 140/140 139/139 141/141
f 74/74 99/99 75/75
f 656/656 654/654 657/657
f 653/653 651/651 652/652
f 653/653 652/652 654/654
f 656/656 653/653 654/654
f 654/654 648/648 657/657
f 652/652 648/648 654/654
f 538/538 539/539 540/540
f 685/685 682/682 681/681
f 680/680 681/681 682/682
f 683/683 681/681 680/680
f 680/680 682/682 684/684
f 501/501 502/502 503/503
f 619/619 617/617 616/616
f 616/616 617/617 618/618
f 591/591 590/590 596/596
f 577/577 578/578 579/579
f 589/589 591/591 596/596
f 578/578 580/580 579/579
f 507/507 508/508 509/509
f 589/589 596/596 597/597
f 598/598 589/589 597/597
f 526/526 527/527 528/528
f 764/764 758/758 763/763
f 763/763 758/758 762/762
f 645/645 646/646 647/647
f 1229/1229 1230/1230 1231/1231
f 529/529 530/530 531/531
f 532/532 533/533 534/534
f 585/585 586/586 587/587
f 585/585 587/587 588/588
f 738/738 739/739 740/740
f 738/738 740/740 741/741
f 695/695 696/696 697/697
f 698/698 695/695 697/697
f 743/743 745/745 744/744
f 742/742 743/743 744/744
f 589/589 592/592 590/590
f 589/589 590/590 591/591
f 594/594 590/590 592/592
f 581/581 582/582 583/583
f 535/535 536/536 537/537
f 626/626 627/627 628/628
f 541/541 542/542 543/543
f 581/581 583/583 584/584
f 720/720 721/721 722/722
f 657/657 660/660 661/661
f 657/657 648/648 660/660
f 717/717 718/718 719/719
f 723/723 724/724 725/725
f 676/676 677/677 678/678
f 679/679 677/677 676/676
f 740/740 739/739 742/742
f 739/739 743/743 742/742
f 764/764 765/765 759/759
f 758/758 764/764 759/759
f 110/110 114/114 111/111
f 110/110 115/115 114/114
f 17/17 18/18 19/19
f 180/180 186/186 181/181
f 1234/1234 1233/1233 1235/1235
f 1232/1232 1233/1233 1234/1234
f 272/272 273/273 274/274
f 320/320 321/321 322/322
f 131/131 128/128 130/130
f 350/350 349/349 344/344
f 443/443 444/444 445/445
f 182/182 183/183 180/180
f 183/183 184/184 180/180
f 197/197 201/201 200/200
f 197/197 200/200 199/199
f 1236/1236 1237/1237 1238/1238
f 1239/1239 1240/1240 1241/1241
f 110/110 111/111 112/112
f 112/112 111/111 113/113
f 344/344 348/348 345/345
f 343/343 344/344 345/345
f 275/275 276/276 277/277
f 344/344 349/349 348/348
f 346/346 343/343 345/345
f 346/346 345/345 347/347
f 197/197 199/199 198/198
f 196/196 197/197 198/198
f 487/487 489/489 488/488
f 486/486 487/487 488/488
f 46/46 42/42 41/41
f 41/41 42/42 43/43
f 62/62 63/63 64/64
f 67/67 62/62 64/64
f 46/46 47/47 42/42
f 47/47 49/49 42/42
f 182/182 181/181 185/185
f 180/180 181/181 182/182
f 1222/1222 1224/1224 1225/1225
f 1222/1222 1223/1223 1224/1224
f 176/176 177/177 178/178
f 172/172 174/174 175/175
f 176/176 179/179 177/177
f 172/172 173/173 174/174
f 128/128 129/129 130/130
f 409/409 410/410 411/411
f 1242/1242 1243/1243 1244/1244
f 931/931 932/932 928/928
f 931/931 928/928 927/927
f 924/924 925/925 926/926
f 927/927 928/928 929/929
f 927/927 929/929 937/937
f 932/932 933/933 928/928
f 928/928 933/933 934/934
f 934/934 930/930 928/928
f 928/928 930/930 929/929
f 14/14 15/15 16/16
f 20/20 21/21 22/22
f 985/985 986/986 987/987
f 927/927 937/937 931/931
f 952/952 954/954 953/953
f 951/951 952/952 953/953
f 1010/1010 1011/1011 1012/1012
f 999/999 1001/1001 1002/1002
f 999/999 1002/1002 1003/1003
f 249/249 250/250 251/251
f 936/936 935/935 931/931
f 935/935 932/932 931/931
f 187/187 188/188 189/189
f 187/187 189/189 190/190
f 940/940 939/939 941/941
f 938/938 939/939 940/940
f 939/939 946/946 945/945
f 939/939 945/945 941/941
f 947/947 948/948 949/949
f 948/948 950/950 949/949
f 482/482 483/483 484/484
f 485/485 482/482 484/484
f 219/219 218/218 221/221
f 217/217 218/218 219/219
f 63/63 62/62 68/68
f 69/69 63/63 68/68
f 35/35 36/36 37/37
