mtllib P-45_tex.mtl
v 0.043997 0.370690 0.491245
v -0.198197 0.186789 0.628594
v -0.095061 0.287612 0.569658
v 0.053036 0.011224 0.512111
v 0.084830 0.011527 0.363817
v -0.097827 0.074642 0.600986
v 0.499474 0.177738 0.185955
v 0.539652 0.184554 -0.143457
v 0.575743 0.051997 0.029537
v 0.374535 1.867557 0.032645
v 0.351092 1.682331 0.102032
v 0.375836 1.936201 0.028068
v -0.121672 2.195132 0.012338
v -0.345634 2.180122 0.181903
v -0.264900 2.198346 0.060992
v -0.306622 1.306094 0.165247
v -0.359265 1.271455 0.022810
v -0.290497 1.337930 0.187876
v -0.053956 2.194619 -0.153714
v 0.041035 2.192693 -0.110059
v 0.057400 2.179711 -0.050936
v -0.094648 1.878410 -0.428269
v -0.107934 2.021623 -0.424237
v -0.216899 2.088625 -0.369067
v 0.330948 1.128011 0.131853
v 0.370746 1.433686 0.019212
v 0.364037 1.306094 0.055971
v 0.335552 0.928694 0.112166
v 0.373706 1.107033 -0.041217
v 0.359197 0.988464 0.054674
v 0.537356 0.188987 -0.152675
v 0.531369 0.186670 -0.192756
v 0.539712 0.187247 -0.137444
v 0.536981 0.173113 -0.187389
v 0.539652 0.184554 -0.143457
v 0.539712 0.187247 -0.137444
v 0.350208 0.184950 -0.476577
v 0.141412 0.179153 -0.592600
v 0.215150 0.131631 -0.574924
v 0.301774 0.444530 0.246460
v 0.173477 0.444181 0.338470
v 0.133419 0.449385 0.358323
v -0.181988 0.000000 0.512920
v -0.425138 0.081940 0.355342
v -0.110140 0.082601 0.601220
v -0.110140 0.082601 0.601220
v -0.425138 0.081940 0.355342
v -0.304515 0.049198 0.531034
v 0.141412 0.179153 -0.592600
v -0.077287 0.336489 -0.562386
v 0.056430 0.226383 -0.592625
v -0.257320 0.890787 -0.314504
v -0.151805 0.573331 -0.437361
v -0.262471 0.931305 -0.308475
v 0.372177 1.891618 -0.146161
v 0.355376 2.040889 -0.194648
v 0.332776 2.087511 -0.249776
v -0.118022 2.107810 0.363740
v -0.267005 2.180122 0.275304
v -0.023954 2.200000 0.355312
v 0.059586 0.011945 0.136486
v 0.214497 0.012155 -0.061790
v 0.335437 0.012708 0.025842
v -0.002602 0.011916 0.190416
v 0.076881 0.011927 0.193332
v 0.053036 0.011224 0.512111
v 0.084830 0.011527 0.363817
v 0.227589 0.011483 0.363089
v 0.223440 0.011558 0.339074
v 0.025918 0.011972 0.130483
v -0.259290 0.012131 0.182964
v -0.267083 0.011947 0.256100
v -0.111717 0.012051 -0.085682
v 0.024982 0.012040 0.014504
v -0.077450 0.012023 -0.152336
v 0.181222 0.012065 -0.149907
v 0.365361 0.013022 0.001546
v 0.397466 0.013426 0.017581
v 0.226654 0.012180 -0.225066
v 0.060887 0.012348 -0.352647
v -0.102600 0.012460 -0.359553
v -0.256796 0.012708 -0.324847
v -0.263604 0.012421 -0.242754
v -0.423761 0.013970 0.080835
v -0.279043 0.012374 -0.026882
v -0.423039 0.014536 -0.290345
v -0.266147 0.020899 -0.573813
v -0.292953 0.020764 -0.562150
v -0.181988 0.000000 0.512920
v -0.578841 0.031230 -0.124152
v 0.416252 0.022734 0.448998
v -0.575478 0.031193 -0.149994
v -0.431037 0.026926 -0.451455
v -0.578199 0.039870 0.023857
v -0.425138 0.081940 0.355342
v -0.304515 0.049198 0.531034
v 0.476333 0.103741 0.271738
v 0.002541 0.151285 -0.618608
v 0.350208 0.184950 -0.476577
v 0.141412 0.179153 -0.592600
v 0.535943 0.175189 -0.188945
v -0.354136 0.166856 -0.478236
v 0.522489 0.035625 -0.318260
v 0.499474 0.177738 0.185955
v -0.423031 0.181047 0.311113
v -0.110140 0.082601 0.601220
v -0.097827 0.074642 0.600986
v 0.536981 0.173113 -0.187389
v 0.539652 0.184554 -0.143457
v -0.353873 1.105857 -0.142294
v -0.351819 0.972004 0.049491
v -0.359265 1.271455 0.022810
v -0.355913 1.283046 -0.145500
v -0.357008 1.373898 -0.146181
v -0.358511 0.900826 -0.013670
v -0.348905 0.802017 0.052083
v -0.348091 0.739884 0.050788
v -0.351928 0.697376 0.014114
v -0.355869 1.294881 -0.146593
v -0.312794 0.830734 -0.236892
v -0.353316 1.112639 -0.146458
v -0.341579 0.595358 -0.159141
v -0.356684 1.372297 -0.147478
v -0.358961 1.494576 -0.143589
v -0.359658 1.583206 -0.146830
v -0.360915 1.691042 -0.146854
v -0.361208 1.686855 -0.143914
v -0.364746 2.022393 -0.147478
v -0.374421 1.874791 -0.057089
v -0.383932 2.199801 -0.009206
v -0.367647 1.970975 0.024991
v -0.306622 1.306094 0.165247
v -0.307935 1.493603 0.167698
v -0.319019 1.681336 0.156403
v -0.345634 2.180122 0.181903
v -0.315941 2.087511 -0.260756
v -0.294782 1.777477 0.191331
v -0.297330 1.963439 0.191408
v -0.280573 2.178677 0.264831
v -0.290964 1.516461 0.191228
v -0.290497 1.337930 0.187876
v -0.258587 1.301754 0.230182
v -0.258686 1.312607 0.230283
v -0.268449 1.118790 0.212802
v -0.259783 1.511578 0.232746
v -0.276060 2.032523 -0.313914
v -0.269826 1.858150 -0.319095
v -0.268546 1.514472 -0.313866
v -0.267408 1.482638 -0.314662
v -0.267292 1.424394 -0.313371
v -0.264688 1.153701 -0.310875
v -0.267001 1.023556 -0.304496
v -0.264277 0.595386 -0.299091
v -0.258372 1.125212 -0.318784
v -0.267386 2.162033 -0.368414
v -0.262471 0.931305 -0.308475
v -0.257320 0.890787 -0.314504
v -0.259277 1.023466 -0.315110
v 0.273965 1.866606 -0.325955
v 0.053994 2.032883 -0.437410
v 0.276874 2.182508 -0.364076
v 0.332776 2.087511 -0.249776
v 0.355376 2.040889 -0.194648
v -0.095061 0.287612 0.569658
v 0.055297 0.099242 0.601566
v 0.092310 0.281242 0.574029
v -0.097827 0.074642 0.600986
v -0.110140 0.082601 0.601220
v 0.272917 0.269996 0.522477
v -0.198197 0.186789 0.628594
v 0.253760 0.137439 0.521841
v 0.272912 0.272890 0.519885
v 0.125436 0.355783 0.483940
v 0.043997 0.370690 0.491245
v 0.249594 0.410211 0.378426
v 0.133419 0.449385 0.358323
v -0.102233 0.441755 0.364259
v -0.267096 0.356033 0.414455
v 0.301774 0.444530 0.246460
v -0.264277 0.595386 -0.299091
v -0.151805 0.573331 -0.437361
v -0.341579 0.595358 -0.159141
v -0.262471 0.931305 -0.308475
v 0.227589 0.011483 0.363089
v 0.416252 0.022734 0.448998
v 0.272912 0.272890 0.519885
v 0.053504 2.079552 -0.437838
v -0.094648 1.878410 -0.428269
v -0.216899 2.088625 -0.369067
v 0.053994 2.032883 -0.437410
v -0.258042 2.199741 -0.294476
v 0.150910 2.087511 -0.410750
v 0.211169 0.930436 -0.360728
v 0.035109 0.939082 -0.426599
v 0.200526 1.111143 -0.373001
v 0.035036 1.131001 -0.429337
v 0.206351 1.299220 -0.371499
v 0.042429 1.306094 -0.430618
v 0.211885 1.487340 -0.370267
v 0.046178 0.753315 -0.422239
v 0.212371 1.668206 -0.372807
v 0.051083 1.520574 -0.432201
v -0.069915 0.563749 -0.466838
v 0.109506 0.597033 -0.407464
v -0.106555 0.437590 -0.478408
v 0.288474 0.560855 -0.356363
v 0.274344 0.444437 -0.367773
v -0.106294 1.825954 -0.422684
v 0.214224 1.860321 -0.374120
v 0.099791 0.445313 -0.461576
v 0.266083 1.029704 -0.317676
v 0.262842 0.792387 -0.315741
v 0.273135 1.494304 -0.319449
v 0.273315 1.306094 -0.315050
v 0.271007 1.133894 -0.313700
v 0.280758 1.710911 -0.313896
v 0.273965 1.866606 -0.325955
v 0.364710 0.445863 -0.249133
v 0.368077 0.561941 -0.245155
v 0.340651 0.904036 -0.190637
v 0.343466 1.858150 -0.219210
v 0.334952 1.676362 -0.234858
v 0.355376 2.040889 -0.194648
v 0.362751 1.489847 -0.158499
v 0.345101 0.933339 -0.180628
v -0.258042 2.199741 -0.294476
v -0.315941 2.087511 -0.260756
v -0.121672 2.195132 0.012338
v -0.267386 2.162033 -0.368414
v -0.383932 2.199801 -0.009206
v -0.345634 2.180122 0.181903
v 0.057400 2.179711 -0.050936
v -0.028630 2.192685 0.020984
v 0.198181 2.196808 0.089880
v 0.128779 2.199350 0.282422
v -0.044216 2.199967 0.352721
v -0.023954 2.200000 0.355312
v -0.264900 2.198346 0.060992
v 0.041035 2.192693 -0.110059
v -0.053956 2.194619 -0.153714
v 0.371394 2.180122 0.146680
v -0.267005 2.180122 0.275304
v 0.143348 2.180050 0.355627
v 0.374685 2.088280 -0.142698
v 0.332776 2.087511 -0.249776
v 0.053504 2.079552 -0.437838
v 0.150910 2.087511 -0.410750
v 0.061141 2.194561 -0.149584
v -0.280573 2.178677 0.264831
v 0.412646 2.181635 -0.009443
v 0.314242 2.199969 0.188147
v -0.216899 2.088625 -0.369067
v 0.397466 0.013426 0.017581
v 0.539652 0.184554 -0.143457
v 0.575743 0.051997 0.029537
v -0.097827 0.074642 0.600986
v 0.084830 0.011527 0.363817
v 0.055297 0.099242 0.601566
v 0.227589 0.011483 0.363089
v 0.253760 0.137439 0.521841
v -0.428197 0.314425 -0.339893
v -0.354136 0.166856 -0.478236
v -0.431037 0.026926 -0.451455
v -0.575478 0.031193 -0.149994
v -0.530460 0.188927 -0.191515
v -0.429593 0.372802 -0.313710
v -0.487014 0.375152 -0.174690
v -0.539735 0.190152 -0.123415
v -0.578841 0.031230 -0.124152
v -0.491875 0.373686 -0.137117
v -0.348091 0.739884 0.050788
v -0.402478 0.555430 0.025518
v -0.268170 0.549642 0.273148
v -0.428403 0.406013 0.164965
v -0.446177 0.368396 0.185555
v -0.578199 0.039870 0.023857
v -0.502230 0.156905 0.190935
v -0.428755 0.399781 0.190451
v -0.430205 0.352128 0.221909
v -0.427283 0.435512 -0.116913
v -0.341929 0.356749 0.352154
v -0.423031 0.181047 0.311113
v -0.425138 0.081940 0.355342
v -0.276121 0.356773 0.381877
v -0.267096 0.356033 0.414455
v -0.203026 0.391322 0.442419
v -0.267803 0.401724 0.359638
v -0.139869 0.520337 0.353489
v -0.107530 0.576066 0.359151
v -0.181988 0.000000 0.512920
v -0.110140 0.082601 0.601220
v -0.198197 0.186789 0.628594
v 0.150910 2.087511 -0.410750
v 0.332776 2.087511 -0.249776
v 0.276874 2.182508 -0.364076
v -0.044216 2.199967 0.352721
v -0.118022 2.107810 0.363740
v -0.023954 2.200000 0.355312
v -0.267005 2.180122 0.275304
v 0.227589 0.011483 0.363089
v 0.272912 0.272890 0.519885
v 0.253760 0.137439 0.521841
v 0.272917 0.269996 0.522477
v -0.433727 0.055129 0.355015
v -0.423031 0.181047 0.311113
v -0.425138 0.081940 0.355342
v -0.502230 0.156905 0.190935
v -0.107530 0.576066 0.359151
v -0.102233 0.441755 0.364259
v -0.105515 0.579011 0.356050
v -0.203026 0.391322 0.442419
v 0.051013 0.960483 0.335490
v 0.098770 0.959342 0.328656
v 0.135391 1.120576 0.315080
v 0.048313 0.925154 0.335385
v 0.092310 0.925517 0.329151
v -0.102160 1.122679 0.325524
v 0.214108 1.484897 0.276979
v 0.185779 0.724194 0.286399
v -0.055436 0.597033 0.328472
v -0.061983 1.306094 0.337262
v 0.209959 1.525913 0.281091
v -0.084737 1.675279 0.338393
v 0.311329 0.561578 0.233805
v 0.131960 1.681564 0.324283
v -0.092217 1.748897 0.338009
v 0.192276 1.878952 0.300070
v -0.073151 1.871537 0.342172
v -0.044216 2.199967 0.352721
v 0.128779 2.199350 0.282422
v 0.314242 2.199969 0.188147
v 0.229778 1.678308 0.267300
v 0.269991 1.494556 0.231572
v 0.173477 0.444181 0.338470
v 0.133419 0.449385 0.358323
v 0.061141 0.563749 0.375791
v 0.265886 1.131905 0.228553
v 0.277386 1.306094 0.217201
v 0.301774 0.444530 0.246460
v 0.288932 0.934922 0.192273
v 0.287644 0.816624 0.191299
v 0.307483 1.884753 0.188612
v 0.371394 2.180122 0.146680
v -0.110052 0.618739 0.314387
v 0.377207 2.157541 -0.225880
v 0.332776 2.087511 -0.249776
v 0.412646 2.181635 -0.009443
v 0.374685 2.088280 -0.142698
v -0.044216 2.199967 0.352721
v 0.128779 2.199350 0.282422
v 0.143348 2.180050 0.355627
v -0.023954 2.200000 0.355312
v -0.348091 0.739884 0.050788
v -0.268170 0.549642 0.273148
v -0.276299 0.597033 0.189032
v -0.139869 0.520337 0.353489
v -0.290497 1.337930 0.187876
v -0.359265 1.271455 0.022810
v -0.268449 1.118790 0.212802
v -0.268483 1.083969 0.211907
v -0.351819 0.972004 0.049491
v -0.348905 0.802017 0.052083
v -0.277430 0.753315 0.191475
v -0.179761 0.921802 0.287450
v -0.200182 1.117976 0.274415
v -0.258587 1.301754 0.230182
v -0.110052 0.618739 0.314387
v -0.102160 1.122679 0.325524
v -0.258686 1.312607 0.230283
v -0.061983 1.306094 0.337262
v -0.084737 1.675279 0.338393
v -0.259783 1.511578 0.232746
v -0.244308 1.680196 0.247896
v -0.092217 1.748897 0.338009
v -0.294782 1.777477 0.191331
v -0.259831 1.868643 0.237971
v -0.297330 1.963439 0.191408
v -0.267005 2.180122 0.275304
v -0.280573 2.178677 0.264831
v -0.073151 1.871537 0.342172
v -0.044216 2.199967 0.352721
v 0.051013 0.960483 0.335490
v -0.055436 0.597033 0.328472
v 0.048313 0.925154 0.335385
v -0.023954 2.200000 0.355312
v -0.107530 0.576066 0.359151
v -0.102233 0.441755 0.364259
v -0.203026 0.391322 0.442419
v -0.267096 0.356033 0.414455
v 0.375527 1.396174 -0.022752
v 0.370746 1.433686 0.019212
v 0.375463 1.497831 -0.082684
v 0.370765 1.492043 -0.118968
v -0.292953 0.020764 -0.562150
v -0.354136 0.166856 -0.478236
v -0.394468 0.186816 -0.439561
v -0.428197 0.314425 -0.339893
v -0.379381 0.373054 -0.382324
v -0.429593 0.372802 -0.313710
v -0.487014 0.375152 -0.174690
v -0.391450 0.444546 -0.173395
v -0.491875 0.373686 -0.137117
v -0.427283 0.435512 -0.116913
v -0.284735 0.559409 -0.355371
v -0.341579 0.595358 -0.159141
v -0.351928 0.697376 0.014114
v -0.348091 0.739884 0.050788
v -0.394468 0.186816 -0.439561
v -0.428197 0.314425 -0.339893
v -0.263507 0.392996 -0.479743
v -0.151805 0.573331 -0.437361
v 0.141412 0.179153 -0.592600
v 0.002541 0.151285 -0.618608
v -0.077287 0.336489 -0.562386
v -0.263610 0.198296 -0.535567
v -0.109553 0.377652 -0.547878
v -0.266147 0.020899 -0.573813
v -0.035486 0.394800 -0.553069
v -0.292953 0.020764 -0.562150
v -0.278800 0.187408 -0.531837
v -0.106555 0.437590 -0.478408
v -0.069915 0.563749 -0.466838
v 0.046178 0.753315 -0.422239
v -0.257320 0.890787 -0.314504
v 0.035109 0.939082 -0.426599
v -0.259277 1.023466 -0.315110
v 0.035036 1.131001 -0.429337
v -0.258372 1.125212 -0.318784
v -0.267292 1.424394 -0.313371
v 0.042429 1.306094 -0.430618
v 0.051083 1.520574 -0.432201
v -0.261964 1.505560 -0.322473
v -0.106294 1.825954 -0.422684
v -0.193614 1.683417 -0.379909
v -0.094648 1.878410 -0.428269
v -0.107934 2.021623 -0.424237
v -0.276060 2.032523 -0.313914
v -0.269826 1.858150 -0.319095
v -0.268546 1.514472 -0.313866
v -0.216899 2.088625 -0.369067
v -0.267386 2.162033 -0.368414
v -0.267408 1.482638 -0.314662
v 0.099791 0.445313 -0.461576
v 0.375463 1.497831 -0.082684
v 0.370746 1.433686 0.019212
v 0.370765 1.492043 -0.118968
v 0.344023 1.493400 0.113271
v 0.369668 1.680797 -0.146084
v 0.351092 1.682331 0.102032
v 0.375527 1.396174 -0.022752
v 0.364037 1.306094 0.055971
v 0.277386 1.306094 0.217201
v 0.330948 1.128011 0.131853
v 0.269991 1.494556 0.231572
v 0.265886 1.131905 0.228553
v 0.288932 0.934922 0.192273
v 0.359197 0.988464 0.054674
v 0.373706 1.107033 -0.041217
v 0.335552 0.928694 0.112166
v 0.287644 0.816624 0.191299
v 0.229778 1.678308 0.267300
v 0.374535 1.867557 0.032645
v 0.307483 1.884753 0.188612
v 0.371394 2.180122 0.146680
v 0.375836 1.936201 0.028068
v 0.399750 2.174335 0.075017
v 0.311329 0.561578 0.233805
v 0.351897 0.563942 0.178979
v 0.301774 0.444530 0.246460
v 0.367855 0.444557 0.151863
v 0.375466 0.563749 0.131800
v 0.381812 1.696803 -0.051584
v 0.412646 2.181635 -0.009443
v 0.376866 1.868371 0.013758
v 0.363513 1.238710 -0.146894
v 0.362751 1.489847 -0.158499
v 0.368194 1.216016 0.015215
v 0.345101 0.933339 -0.180628
v 0.357919 0.890787 -0.146181
v 0.361690 0.739477 -0.098842
v 0.382930 0.593819 -0.077537
v 0.368077 0.561941 -0.245155
v 0.340651 0.904036 -0.190637
v 0.334952 1.676362 -0.234858
v 0.343466 1.858150 -0.219210
v 0.355376 2.040889 -0.194648
v 0.372177 1.891618 -0.146161
v 0.374685 2.088280 -0.142698
v 0.377207 2.157541 -0.225880
v 0.273315 1.306094 -0.315050
v 0.271007 1.133894 -0.313700
v 0.266083 1.029704 -0.317676
v 0.273135 1.494304 -0.319449
v 0.053994 2.032883 -0.437410
v 0.150910 2.087511 -0.410750
v 0.276874 2.182508 -0.364076
v -0.023954 2.200000 0.355312
v -0.267005 2.180122 0.275304
v -0.044216 2.199967 0.352721
v 0.374685 2.088280 -0.142698
v 0.372177 1.891618 -0.146161
v 0.332776 2.087511 -0.249776
v 0.377207 2.157541 -0.225880
v 0.536981 0.173113 -0.187389
v 0.531369 0.186670 -0.192756
v 0.537356 0.188987 -0.152675
v 0.539652 0.184554 -0.143457
v 0.539712 0.187247 -0.137444
v 0.535423 0.203180 -0.138897
v 0.537019 0.206673 0.021758
v 0.575743 0.051997 0.029537
v 0.461792 0.413331 0.019687
v 0.481962 0.239699 0.187565
v 0.392791 0.444627 -0.183762
v 0.376049 0.417226 -0.321950
v 0.479419 0.198276 -0.319115
v 0.382930 0.593819 -0.077537
v 0.375466 0.563749 0.131800
v 0.487220 0.373549 0.081631
v 0.522489 0.035625 -0.318260
v 0.535943 0.175189 -0.188945
v 0.364710 0.445863 -0.249133
v 0.401169 0.572117 -0.147153
v 0.368077 0.561941 -0.245155
v 0.310535 0.277486 -0.479432
v 0.350208 0.184950 -0.476577
v 0.274344 0.444437 -0.367773
v 0.215150 0.131631 -0.574924
v 0.216213 0.216233 -0.551897
v 0.248701 0.390188 -0.491675
v 0.111106 0.377095 -0.548135
v 0.099791 0.445313 -0.461576
v 0.056430 0.226383 -0.592625
v -0.035486 0.394800 -0.553069
v 0.351897 0.563942 0.178979
v -0.077287 0.336489 -0.562386
v 0.141412 0.179153 -0.592600
v 0.473038 0.230888 0.216947
v 0.439783 0.394019 0.188147
v 0.476333 0.103741 0.271738
v 0.499474 0.177738 0.185955
v 0.416252 0.022734 0.448998
v 0.403034 0.230882 0.385031
v 0.272912 0.272890 0.519885
v 0.301774 0.444530 0.246460
v 0.366999 0.355016 0.351812
v 0.249594 0.410211 0.378426
v 0.367855 0.444557 0.151863
v -0.267275 1.377181 -0.312376
v -0.267292 1.424394 -0.313371
v -0.356684 1.372297 -0.147478
v -0.428197 0.314425 -0.339893
v -0.394468 0.186816 -0.439561
v -0.379381 0.373054 -0.382324
v -0.261964 1.505560 -0.322473
v -0.268546 1.514472 -0.313866
v -0.359658 1.583206 -0.146830
v 0.375775 1.277696 -0.037398
v 0.375527 1.396174 -0.022752
v 0.370746 1.433686 0.019212
v 0.368194 1.216016 0.015215
v 0.476333 0.103741 0.271738
v 0.499474 0.177738 0.185955
v 0.575743 0.051997 0.029537
v 0.476333 0.103741 0.271738
v 0.537381 0.036939 0.187868
v 0.575743 0.051997 0.029537
v 0.350208 0.184950 -0.476577
v 0.215150 0.131631 -0.574924
v 0.522489 0.035625 -0.318260
v 0.522489 0.035625 -0.318260
v 0.215150 0.131631 -0.574924
v 0.378415 0.079612 -0.487608
v 0.375550 1.842232 0.021632
v 0.381812 1.696803 -0.051584
v 0.351092 1.682331 0.102032
v 0.370765 1.492043 -0.118968
v 0.381812 1.696803 -0.051584
v 0.375463 1.497831 -0.082684
v 0.369668 1.680797 -0.146084
v -0.264688 1.153701 -0.310875
v -0.355869 1.294881 -0.146593
v -0.258372 1.125212 -0.318784
v -0.023954 2.200000 0.355312
v 0.002726 2.043917 0.354728
v -0.073151 1.871537 0.342172
vt 0.043135 0.344946
vt 0.043135 0.426876
vt 0.037570 0.388896
vt 0.245256 0.970521
vt 0.205473 0.988132
vt 0.296382 0.988132
vt 0.513451 0.419219
vt 0.612709 0.419219
vt 0.561861 0.383997
vt 0.461087 0.070061
vt 0.402134 0.073890
vt 0.480983 0.073890
vt 0.497681 0.037902
vt 0.582096 0.037902
vt 0.540647 0.025651
vt 0.461503 0.845056
vt 0.467996 0.806662
vt 0.467996 0.854135
vt 0.470779 0.591501
vt 0.441190 0.583078
vt 0.425325 0.591501
vt 0.657236 0.729326
vt 0.636827 0.697674
vt 0.657236 0.667305
vt 0.027365 0.589969
vt 0.027365 0.671133
vt 0.022727 0.638422
vt 0.508813 0.534074
vt 0.508813 0.593032
vt 0.505102 0.555233
vt 0.006030 0.893221
vt 0.006957 0.883231
vt 0.006957 0.897014
vt 0.481911 0.995789
vt 0.480983 0.984403
vt 0.481911 0.982772
vt 0.016234 0.241577
vt 0.087662 0.241577
vt 0.066178 0.227795
vt 0.378942 0.987366
vt 0.376160 0.948541
vt 0.378942 0.937596
vt 0.067254 0.679105
vt 0.093228 0.608346
vt 0.093228 0.706355
vt 0.784323 0.256891
vt 0.784323 0.354900
vt 0.762059 0.305078
vt 0.917904 0.972052
vt 0.998609 0.972052
vt 0.946471 0.968224
vt 0.177809 0.594564
vt 0.071892 0.597626
vt 0.189703 0.597626
vt 0.539425 0.389357
vt 0.530148 0.350822
vt 0.539425 0.333461
vt 0.750000 0.193133
vt 0.777829 0.152757
vt 0.777829 0.216309
vt 0.389149 0.434039
vt 0.345885 0.383381
vt 0.382034 0.363900
vt 0.400288 0.452523
vt 0.406988 0.433421
vt 0.498346 0.455208
vt 0.456078 0.441078
vt 0.465457 0.409175
vt 0.458637 0.408635
vt 0.385173 0.441541
vt 0.378801 0.516647
vt 0.403108 0.521826
vt 0.308732 0.460521
vt 0.350762 0.434072
vt 0.292075 0.446468
vt 0.316740 0.382766
vt 0.377838 0.356183
vt 0.383653 0.351861
vt 0.298507 0.363750
vt 0.246912 0.396932
vt 0.227868 0.435282
vt 0.222160 0.476221
vt 0.246138 0.487283
vt 0.332643 0.547784
vt 0.312627 0.505788
vt 0.224358 0.526201
vt 0.152597 0.456393
vt 0.154635 0.460707
vt 0.483621 0.510938
vt 0.263533 0.571441
vt 0.509986 0.378945
vt 0.258410 0.567491
vt 0.178989 0.531631
vt 0.303959 0.580015
vt 0.429178 0.566390
vt 0.485431 0.542774
vt 0.470297 0.344685
vt 0.158022 0.384358
vt 0.222274 0.312180
vt 0.174867 0.353415
vt 0.349452 0.289327
vt 0.159880 0.500585
vt 0.296393 0.287519
vt 0.446838 0.326049
vt 0.405781 0.580015
vt 0.523445 0.500774
vt 0.523655 0.497092
vt 0.351031 0.289527
vt 0.364471 0.290973
vt 0.886737 0.448306
vt 0.832253 0.412766
vt 0.834724 0.486252
vt 0.884578 0.491722
vt 0.883092 0.514148
vt 0.852357 0.396337
vt 0.834515 0.371210
vt 0.836086 0.356059
vt 0.847862 0.346269
vt 0.884689 0.494644
vt 0.921137 0.382241
vt 0.887787 0.450020
vt 0.900925 0.323507
vt 0.883606 0.513775
vt 0.881102 0.543862
vt 0.881135 0.565697
vt 0.880068 0.592243
vt 0.879149 0.591192
vt 0.877745 0.673486
vt 0.851645 0.636878
vt 0.835353 0.716309
vt 0.826045 0.659817
vt 0.789522 0.494876
vt 0.786882 0.540821
vt 0.788687 0.586977
vt 0.777412 0.710418
vt 0.913796 0.690393
vt 0.774782 0.610014
vt 0.772241 0.655505
vt 0.746289 0.707139
vt 0.777885 0.546095
vt 0.780879 0.502396
vt 0.765574 0.492981
vt 0.765428 0.495637
vt 0.773833 0.448409
vt 0.762492 0.544320
vt 0.933789 0.677022
vt 0.937055 0.634359
vt 0.938497 0.550137
vt 0.939066 0.542461
vt 0.939277 0.528318
vt 0.942526 0.462136
vt 0.942535 0.430351
vt 0.948366 0.325806
vt 0.945974 0.455365
vt 0.948516 0.709419
vt 0.945593 0.407912
vt 0.948516 0.398119
vt 0.946431 0.430485
vt 0.596329 0.582312
vt 0.605288 0.508040
vt 0.525510 0.526990
vt 0.526501 0.564679
vt 0.527888 0.582312
vt 0.535528 0.882916
vt 0.473562 0.915193
vt 0.523834 0.930291
vt 0.474834 0.875602
vt 0.477488 0.872664
vt 0.520387 0.977833
vt 0.504610 0.851944
vt 0.486783 0.969568
vt 0.521570 0.978000
vt 0.556476 0.943888
vt 0.563220 0.923278
vt 0.581869 0.980696
vt 0.601187 0.952856
vt 0.609926 0.892459
vt 0.587459 0.846478
vt 0.609926 0.999617
vt 0.059712 0.550366
vt 0.031076 0.587672
vt 0.075998 0.513400
vt 0.148887 0.587672
vt 0.745362 0.601455
vt 0.745362 0.652757
vt 0.660946 0.631167
vt 0.108173 0.261786
vt 0.164388 0.301852
vt 0.098172 0.329774
vt 0.122009 0.262553
vt 0.058905 0.341118
vt 0.108205 0.236897
vt 0.454521 0.245019
vt 0.446868 0.291076
vt 0.400226 0.245136
vt 0.390059 0.287412
vt 0.344850 0.239812
vt 0.338454 0.282212
vt 0.289403 0.234500
vt 0.502082 0.292573
vt 0.235799 0.230727
vt 0.275189 0.275828
vt 0.554425 0.328047
vt 0.550683 0.280746
vt 0.590212 0.341118
vt 0.566532 0.235975
vt 0.600449 0.242071
vt 0.179765 0.305723
vt 0.179064 0.225844
vt 0.597477 0.290659
vt 0.426371 0.226112
vt 0.496754 0.229399
vt 0.289511 0.214952
vt 0.345080 0.218347
vt 0.395871 0.222302
vt 0.225756 0.207586
vt 0.179293 0.207024
vt 0.602505 0.205515
vt 0.568123 0.202674
vt 0.465847 0.191854
vt 0.185650 0.176187
vt 0.238834 0.184934
vt 0.132535 0.165008
vt 0.296515 0.170136
vt 0.457364 0.188806
vt 0.880061 0.955389
vt 0.913265 0.939651
vt 0.834280 0.880287
vt 0.896433 0.970377
vt 0.913265 0.870118
vt 0.889671 0.826664
vt 0.779823 0.900907
vt 0.804450 0.880323
vt 0.733860 0.869974
vt 0.746551 0.821436
vt 0.793938 0.798260
vt 0.787911 0.798239
vt 0.873140 0.860775
vt 0.786800 0.915177
vt 0.816873 0.923962
vt 0.681079 0.861519
vt 0.862755 0.808106
vt 0.738560 0.803854
vt 0.686843 0.934492
vt 0.702681 0.958658
vt 0.787600 0.999617
vt 0.759211 0.993570
vt 0.782992 0.925034
vt 0.867170 0.809942
vt 0.665584 0.898260
vt 0.694850 0.847951
vt 0.883511 0.989066
vt 0.046846 0.373277
vt 0.128479 0.373277
vt 0.079336 0.337289
vt 0.105154 0.903905
vt 0.043135 0.959986
vt 0.116419 0.941159
vt 0.050163 0.994257
vt 0.110629 0.994257
vt 0.897743 0.274342
vt 0.929083 0.320444
vt 0.976449 0.313193
vt 0.996073 0.232864
vt 0.946284 0.238363
vt 0.882043 0.265378
vt 0.890407 0.229106
vt 0.948905 0.221727
vt 0.997136 0.226495
vt 0.892476 0.219913
vt 0.781540 0.161516
vt 0.838241 0.173335
vt 0.837946 0.103258
vt 0.888905 0.144312
vt 0.901634 0.141190
vt 0.999536 0.190290
vt 0.965342 0.145469
vt 0.891959 0.138666
vt 0.906124 0.131787
vt 0.866646 0.213684
vt 0.902229 0.094013
vt 0.957449 0.110524
vt 0.987245 0.099684
vt 0.896660 0.076973
vt 0.898232 0.068686
vt 0.882303 0.055011
vt 0.882114 0.081215
vt 0.833199 0.065288
vt 0.815309 0.059113
vt 0.999536 0.025849
vt 0.970706 0.000383
vt 0.929103 0.003751
vt 0.896568 0.829632
vt 0.968924 0.829632
vt 0.933884 0.802833
vt 0.279263 0.067745
vt 0.257178 0.044793
vt 0.285250 0.067764
vt 0.208256 0.067764
vt 0.324212 0.956738
vt 0.232375 0.956738
vt 0.267156 0.939127
vt 0.232713 0.955824
vt 0.612709 0.078484
vt 0.583952 0.055263
vt 0.604769 0.075972
vt 0.612709 0.027948
vt 0.629690 0.575583
vt 0.634134 0.607591
vt 0.630410 0.574632
vt 0.598794 0.622894
vt 0.669490 0.475263
vt 0.683674 0.474539
vt 0.690881 0.434242
vt 0.669840 0.483637
vt 0.682648 0.483004
vt 0.620182 0.438331
vt 0.706483 0.342936
vt 0.715904 0.531638
vt 0.643991 0.564813
vt 0.626523 0.392347
vt 0.703894 0.332912
vt 0.610896 0.302209
vt 0.761132 0.568180
vt 0.675044 0.295889
vt 0.606755 0.284165
vt 0.688507 0.246414
vt 0.608978 0.253584
vt 0.609239 0.172424
vt 0.664838 0.168503
vt 0.726743 0.163476
vt 0.708757 0.294428
vt 0.727911 0.339041
vt 0.715188 0.601733
vt 0.702525 0.601767
vt 0.678829 0.576009
vt 0.737016 0.428074
vt 0.737066 0.384985
vt 0.761132 0.596754
vt 0.753732 0.475631
vt 0.756547 0.504580
vt 0.735870 0.240927
vt 0.748438 0.166315
vt 0.626516 0.560659
vt 0.173025 0.341118
vt 0.185065 0.321431
vt 0.105288 0.341118
vt 0.150284 0.320444
vt 0.555195 0.015701
vt 0.609926 0.024119
vt 0.609926 0.004977
vt 0.560836 0.013792
vt 0.532538 0.841884
vt 0.463744 0.794811
vt 0.488872 0.805651
vt 0.457792 0.757123
vt 0.707222 0.797370
vt 0.690464 0.841884
vt 0.641805 0.792608
vt 0.631590 0.793263
vt 0.601450 0.839293
vt 0.551098 0.840702
vt 0.534390 0.803182
vt 0.581502 0.767459
vt 0.640093 0.769983
vt 0.696020 0.785934
vt 0.490450 0.755041
vt 0.640424 0.742767
vt 0.699285 0.785855
vt 0.694663 0.730863
vt 0.805111 0.731979
vt 0.758643 0.783872
vt 0.808734 0.777109
vt 0.827222 0.732887
vt 0.838512 0.794911
vt 0.865423 0.779960
vt 0.893924 0.794666
vt 0.959268 0.773680
vt 0.959074 0.777922
vt 0.863690 0.727084
vt 0.961503 0.715219
vt 0.587947 0.709418
vt 0.482781 0.741620
vt 0.577589 0.710656
vt 0.961188 0.710177
vt 0.473878 0.748390
vt 0.843692 0.263017
vt 0.805093 0.251531
vt 0.786178 0.263017
vt 0.579288 0.996554
vt 0.580241 0.982006
vt 0.544984 0.988917
vt 0.538497 0.996554
vt 0.317718 0.743180
vt 0.370972 0.748469
vt 0.386713 0.741577
vt 0.435529 0.748469
vt 0.112569 0.056284
vt 0.119600 0.037589
vt 0.139596 0.007216
vt 0.162327 0.026523
vt 0.146375 0.000383
vt 0.168015 0.011773
vt 0.162204 0.080416
vt 0.200086 0.045924
vt 0.251120 0.025878
vt 0.266825 0.024528
vt 0.058856 0.049531
vt 0.102024 0.037809
vt 0.108053 0.090820
vt 0.159456 0.115661
vt 0.029156 0.179556
vt 0.023865 0.146812
vt 0.079592 0.133469
vt 0.050182 0.085858
vt 0.092608 0.126914
vt 0.000464 0.080318
vt 0.095232 0.144680
vt 0.002134 0.073649
vt 0.048008 0.082077
vt 0.118864 0.126806
vt 0.154775 0.136920
vt 0.215631 0.166004
vt 0.263645 0.085419
vt 0.273346 0.166507
vt 0.304937 0.086709
vt 0.333026 0.169596
vt 0.336647 0.088566
vt 0.430337 0.090112
vt 0.387551 0.174120
vt 0.454484 0.179556
vt 0.455753 0.093315
vt 0.553878 0.144835
vt 0.510849 0.117619
vt 0.570405 0.148706
vt 0.615810 0.146689
vt 0.622161 0.094331
vt 0.567050 0.094156
vt 0.458723 0.090428
vt 0.639228 0.115895
vt 0.664657 0.105649
vt 0.448573 0.090695
vt 0.127105 0.175524
vt 0.393322 0.649359
vt 0.374938 0.674583
vt 0.391202 0.640476
vt 0.393883 0.697869
vt 0.446941 0.632279
vt 0.450045 0.693433
vt 0.363499 0.664528
vt 0.337676 0.684618
vt 0.339267 0.729491
vt 0.285538 0.706068
vt 0.395292 0.732129
vt 0.287691 0.734628
vt 0.228934 0.725440
vt 0.243254 0.687059
vt 0.277719 0.662640
vt 0.225435 0.702610
vt 0.194040 0.727530
vt 0.450278 0.743874
vt 0.505138 0.675381
vt 0.511616 0.716994
vt 0.599722 0.699493
vt 0.525434 0.673364
vt 0.596972 0.680842
vt 0.117437 0.737689
vt 0.116539 0.720867
vt 0.082926 0.743874
vt 0.080241 0.715443
vt 0.115248 0.707877
vt 0.453796 0.655114
vt 0.598746 0.660041
vt 0.505248 0.669611
vt 0.315593 0.635557
vt 0.389865 0.630602
vt 0.310544 0.675457
vt 0.224486 0.629348
vt 0.212072 0.638704
vt 0.166934 0.650941
vt 0.123001 0.656914
vt 0.112906 0.615573
vt 0.215716 0.626919
vt 0.444333 0.608883
vt 0.498604 0.611044
vt 0.553395 0.615491
vt 0.509722 0.629896
vt 0.567942 0.627914
vt 0.587320 0.606719
vt 0.333313 0.588122
vt 0.282187 0.589830
vt 0.251118 0.589480
vt 0.389077 0.585375
vt 0.105288 0.197933
vt 0.071081 0.195636
vt 0.021800 0.197933
vt 0.565399 0.437596
vt 0.565399 0.501149
vt 0.563544 0.442548
vt 0.632189 0.947099
vt 0.662802 0.988897
vt 0.662802 0.933234
vt 0.641918 0.922282
vt 0.259651 0.767708
vt 0.261131 0.771486
vt 0.248697 0.771157
vt 0.245811 0.769901
vt 0.244029 0.770926
vt 0.244496 0.775348
vt 0.195597 0.775490
vt 0.192047 0.735452
vt 0.197288 0.832629
vt 0.144074 0.789514
vt 0.262627 0.845392
vt 0.304141 0.838144
vt 0.301288 0.779359
vt 0.228485 0.882466
vt 0.163638 0.877708
vt 0.176870 0.822406
vt 0.304754 0.737818
vt 0.260130 0.768325
vt 0.284867 0.848781
vt 0.248980 0.876205
vt 0.279296 0.877585
vt 0.361688 0.812769
vt 0.362025 0.788223
vt 0.330826 0.855072
vt 0.414283 0.792434
vt 0.400342 0.810980
vt 0.366873 0.844193
vt 0.403940 0.857208
vt 0.383656 0.878721
vt 0.442777 0.832524
vt 0.436310 0.881359
vt 0.148466 0.882466
vt 0.456865 0.875050
vt 0.430467 0.810406
vt 0.133538 0.787965
vt 0.143685 0.828446
vt 0.115432 0.756126
vt 0.144313 0.773055
vt 0.056901 0.738702
vt 0.078609 0.790045
vt 0.025510 0.809065
vt 0.108709 0.854043
vt 0.086020 0.821847
vt 0.063961 0.848653
vt 0.145097 0.851358
vt 0.549929 0.178790
vt 0.545918 0.190276
vt 0.604360 0.190276
vt 0.664657 0.142633
vt 0.686920 0.106049
vt 0.686920 0.154288
vt 0.881725 0.310490
vt 0.877800 0.308959
vt 0.817718 0.310490
vt 0.538920 0.436064
vt 0.503513 0.439264
vt 0.492115 0.449847
vt 0.557050 0.449847
vt 0.790816 0.423813
vt 0.763915 0.406017
vt 0.790816 0.357963
vt 0.121058 0.869449
vt 0.087634 0.856432
vt 0.041280 0.869449
vt 0.040353 0.434519
vt 0.068182 0.397779
vt 0.068182 0.498851
vt 0.020872 0.766845
vt 0.020872 0.867917
vt 0.008813 0.821669
vt 0.364100 0.949847
vt 0.335716 0.916922
vt 0.310297 0.949847
vt 0.395640 0.947550
vt 0.453154 0.923813
vt 0.395802 0.938447
vt 0.452458 0.947550
vt 0.636827 0.526094
vt 0.641466 0.468224
vt 0.641466 0.532542
vt 0.808442 0.122129
vt 0.763554 0.109877
vt 0.709184 0.122129
usemtl baked
f 540/540 513/513 538/538
f 419/419 420/420 415/415
f 417/417 419/419 415/415
f 115/115 118/118 117/117
f 115/115 117/117 116/116
f 264/264 269/269 268/268
f 264/264 268/268 265/265
f 93/93 102/102 86/86
f 92/92 93/93 86/86
f 86/86 102/102 83/83
f 110/110 111/111 112/112
f 549/549 550/550 551/551
f 113/113 110/110 112/112
f 126/126 124/124 127/127
f 126/126 125/125 124/124
f 119/119 110/110 113/113
f 119/119 113/113 114/114
f 119/119 114/114 123/123
f 124/124 123/123 114/114
f 125/125 123/123 124/124
f 121/121 110/110 119/119
f 129/129 127/127 131/131
f 115/115 116/116 111/111
f 110/110 115/115 111/111
f 280/280 272/272 271/271
f 406/406 403/403 407/407
f 401/401 400/400 402/402
f 401/401 402/402 403/403
f 263/263 264/264 261/261
f 265/265 261/261 264/264
f 267/267 268/268 270/270
f 265/265 268/268 267/267
f 266/266 261/261 265/265
f 266/266 265/265 267/267
f 408/408 409/409 399/399
f 398/398 399/399 400/400
f 401/401 398/398 400/400
f 552/552 553/553 554/554
f 398/398 408/408 399/399
f 416/416 410/410 421/421
f 418/418 416/416 421/421
f 398/398 420/420 408/408
f 420/420 398/398 415/415
f 416/416 398/398 410/410
f 415/415 398/398 416/416
f 394/394 395/395 396/396
f 419/419 408/408 420/420
f 261/261 262/262 263/263
f 396/396 395/395 397/397
f 150/150 123/123 149/149
f 442/442 439/439 432/432
f 429/429 442/442 432/432
f 148/148 123/123 125/125
f 149/149 123/123 148/148
f 555/555 556/556 557/557
f 433/433 434/434 435/435
f 313/313 315/315 316/316
f 312/312 315/315 313/313
f 538/538 513/513 539/539
f 513/513 519/519 539/539
f 548/548 519/519 518/518
f 468/468 470/470 471/471
f 468/468 469/469 470/470
f 469/469 468/468 467/467
f 548/548 545/545 539/539
f 519/519 548/548 539/539
f 415/415 416/416 414/414
f 414/414 416/416 418/418
f 413/413 415/415 414/414
f 413/413 417/417 415/415
f 528/528 537/537 533/533
f 528/528 533/533 529/529
f 412/412 413/413 414/414
f 49/49 50/50 51/51
f 88/88 87/87 82/82
f 88/88 82/82 102/102
f 102/102 82/82 83/83
f 82/82 87/87 81/81
f 87/87 98/98 81/81
f 533/533 536/536 534/534
f 533/533 534/534 531/531
f 483/483 478/478 479/479
f 479/479 478/478 458/458
f 480/480 479/479 468/468
f 468/468 479/479 459/459
f 455/455 453/453 452/452
f 453/453 451/451 452/452
f 319/319 324/324 316/316
f 316/316 324/324 341/341
f 467/467 459/459 460/460
f 467/467 468/468 459/459
f 313/313 316/316 340/340
f 341/341 340/340 316/316
f 558/558 559/559 560/560
f 561/561 558/558 560/560
f 458/458 475/475 477/477
f 458/458 478/478 475/475
f 453/453 458/458 477/477
f 457/457 458/458 453/453
f 460/460 459/459 456/456
f 456/456 459/459 457/457
f 453/453 477/477 445/445
f 25/25 26/26 27/27
f 28/28 29/29 30/30
f 456/456 457/457 453/453
f 455/455 456/456 453/453
f 459/459 479/479 458/458
f 320/320 319/319 315/315
f 315/315 319/319 316/316
f 308/308 311/311 309/309
f 308/308 309/309 310/310
f 367/367 356/356 386/386
f 289/289 288/288 286/286
f 320/320 344/344 310/310
f 344/344 308/308 310/310
f 319/319 335/335 334/334
f 336/336 335/335 319/319
f 309/309 335/335 310/310
f 310/310 335/335 336/336
f 320/320 336/336 319/319
f 320/320 310/310 336/336
f 319/319 334/334 324/324
f 324/324 334/334 339/339
f 353/353 355/355 362/362
f 362/362 355/355 363/363
f 114/114 132/132 124/124
f 124/124 132/132 133/133
f 357/357 358/358 359/359
f 16/16 17/17 18/18
f 114/114 113/113 112/112
f 132/132 114/114 112/112
f 312/312 313/313 314/314
f 317/317 312/312 314/314
f 364/364 384/384 365/365
f 365/365 384/384 382/382
f 134/134 140/140 137/137
f 134/134 133/133 140/140
f 141/141 143/143 140/140
f 145/145 140/140 143/143
f 133/133 141/141 140/140
f 132/132 141/141 133/133
f 137/137 140/140 145/145
f 373/373 375/375 372/372
f 378/378 377/377 376/376
f 379/379 377/377 378/378
f 377/377 375/375 376/376
f 376/376 375/375 373/373
f 131/131 134/134 137/137
f 131/131 137/137 138/138
f 141/141 144/144 142/142
f 141/141 142/142 143/143
f 369/369 366/366 368/368
f 369/369 368/368 370/370
f 365/365 382/382 368/368
f 366/366 365/365 368/368
f 124/124 133/133 127/127
f 127/127 133/133 134/134
f 135/135 131/131 139/139
f 139/139 131/131 138/138
f 127/127 134/134 131/131
f 367/367 383/383 364/364
f 364/364 383/383 384/384
f 358/358 361/361 360/360
f 358/358 360/360 359/359
f 359/359 360/360 365/365
f 359/359 365/365 366/366
f 360/360 364/364 365/365
f 363/363 364/364 360/360
f 362/362 363/363 360/360
f 362/362 360/360 361/361
f 363/363 355/355 367/367
f 364/364 363/363 367/367
f 281/281 284/284 273/273
f 273/273 284/284 287/287
f 287/287 284/284 286/286
f 286/286 284/284 285/285
f 288/288 273/273 287/287
f 288/288 287/287 286/286
f 275/275 276/276 277/277
f 275/275 277/277 279/279
f 275/275 268/268 276/276
f 268/268 269/269 276/276
f 354/354 356/356 355/355
f 355/355 356/356 367/367
f 280/280 270/270 272/272
f 270/270 274/274 272/272
f 270/270 275/275 274/274
f 268/268 275/275 270/270
f 274/274 275/275 278/278
f 272/272 274/274 273/273
f 275/275 279/279 278/278
f 274/274 278/278 273/273
f 278/278 279/279 281/281
f 278/278 281/281 273/273
f 271/271 272/272 273/273
f 353/353 354/354 355/355
f 481/481 480/480 468/468
f 517/517 535/535 518/518
f 481/481 482/482 480/480
f 523/523 524/524 517/517
f 512/512 518/518 519/519
f 512/512 517/517 518/518
f 530/530 531/531 532/532
f 530/530 532/532 527/527
f 529/529 531/531 530/530
f 529/529 533/533 531/531
f 529/529 530/530 527/527
f 529/529 527/527 525/525
f 218/218 207/207 206/206
f 218/218 206/206 219/219
f 515/515 527/527 522/522
f 514/514 515/515 522/522
f 514/514 522/522 523/523
f 522/522 524/524 523/523
f 512/512 514/514 517/517
f 514/514 523/523 517/517
f 480/480 482/482 483/483
f 480/480 483/483 479/479
f 418/418 421/421 443/443
f 531/531 534/534 532/532
f 67/67 65/65 68/68
f 68/68 65/65 69/69
f 256/256 257/257 258/258
f 83/83 82/82 75/75
f 82/82 81/81 75/75
f 70/70 61/61 64/64
f 73/73 83/83 75/75
f 73/73 75/75 74/74
f 64/64 61/61 65/65
f 173/173 176/176 174/174
f 174/174 176/176 177/177
f 173/173 164/164 166/166
f 174/174 164/164 173/173
f 178/178 170/170 174/174
f 1/1 2/2 3/3
f 387/387 388/388 389/389
f 178/178 174/174 177/177
f 562/562 563/563 564/564
f 565/565 566/566 567/567
f 540/540 541/541 513/513
f 541/541 511/511 513/513
f 78/78 108/108 109/109
f 78/78 101/101 108/108
f 80/80 99/99 79/79
f 76/76 80/80 79/79
f 99/99 103/103 79/79
f 79/79 103/103 101/101
f 571/571 572/572 573/573
f 568/568 569/569 570/570
f 77/77 79/79 78/78
f 79/79 101/101 78/78
f 98/98 80/80 81/81
f 98/98 100/100 80/80
f 520/520 516/516 505/505
f 505/505 516/516 515/515
f 505/505 515/515 514/514
f 516/516 525/525 527/527
f 516/516 527/527 515/515
f 80/80 100/100 99/99
f 37/37 38/38 39/39
f 61/61 62/62 63/63
f 62/62 77/77 63/63
f 70/70 74/74 61/61
f 74/74 62/62 61/61
f 74/74 75/75 62/62
f 62/62 75/75 76/76
f 81/81 80/80 75/75
f 75/75 80/80 76/76
f 69/69 63/63 104/104
f 69/69 104/104 97/97
f 61/61 63/63 65/65
f 65/65 63/63 69/69
f 63/63 78/78 104/104
f 63/63 77/77 78/78
f 526/526 525/525 520/520
f 520/520 525/525 516/516
f 528/528 529/529 525/525
f 526/526 528/528 525/525
f 62/62 76/76 77/77
f 77/77 76/76 79/79
f 7/7 8/8 9/9
f 253/253 254/254 255/255
f 104/104 78/78 109/109
f 521/521 520/520 505/505
f 507/507 504/504 506/506
f 504/504 521/521 505/505
f 508/508 505/505 509/509
f 31/31 32/32 33/33
f 504/504 505/505 506/506
f 507/507 506/506 508/508
f 34/34 35/35 36/36
f 512/512 505/505 514/514
f 509/509 505/505 512/512
f 510/510 507/507 508/508
f 511/511 510/510 513/513
f 507/507 510/510 511/511
f 513/513 512/512 519/519
f 513/513 509/509 512/512
f 510/510 509/509 513/513
f 510/510 508/508 509/509
f 542/542 540/540 538/538
f 542/542 538/538 543/543
f 538/538 545/545 546/546
f 538/538 539/539 545/545
f 166/166 165/165 169/169
f 165/165 171/171 169/169
f 164/164 165/165 166/166
f 167/167 165/165 164/164
f 170/170 168/168 164/164
f 168/168 167/167 164/164
f 258/258 257/257 259/259
f 258/258 259/259 260/260
f 173/173 172/172 175/175
f 175/175 176/176 173/173
f 173/173 166/166 172/172
f 172/172 166/166 169/169
f 538/538 546/546 544/544
f 544/544 543/543 538/538
f 184/184 185/185 186/186
f 542/542 543/543 544/544
f 300/300 301/301 302/302
f 302/302 301/301 303/303
f 547/547 544/544 546/546
f 546/546 545/545 547/547
f 68/68 69/69 91/91
f 91/91 69/69 97/97
f 40/40 41/41 42/42
f 179/179 176/176 175/175
f 574/574 575/575 576/576
f 449/449 472/472 474/474
f 465/465 449/449 474/474
f 10/10 11/11 12/12
f 55/55 56/56 57/57
f 500/500 501/501 502/502
f 474/474 487/487 488/488
f 474/474 488/488 473/473
f 500/500 502/502 503/503
f 446/446 484/484 448/448
f 448/448 484/484 485/485
f 577/577 578/578 579/579
f 448/448 485/485 486/486
f 448/448 486/486 487/487
f 472/472 448/448 487/487
f 472/472 487/487 474/474
f 577/577 580/580 578/578
f 448/448 472/472 449/449
f 447/447 448/448 449/449
f 447/447 446/446 448/448
f 445/445 450/450 446/446
f 445/445 446/446 447/447
f 445/445 447/447 451/451
f 390/390 392/392 393/393
f 390/390 391/391 392/392
f 444/444 445/445 446/446
f 445/445 476/476 446/446
f 476/476 484/484 446/446
f 190/190 188/188 187/187
f 494/494 495/495 496/496
f 159/159 160/160 161/161
f 163/163 159/159 162/162
f 159/159 161/161 162/162
f 192/192 190/190 187/187
f 477/477 475/475 445/445
f 475/475 476/476 445/445
f 488/488 489/489 473/473
f 216/216 217/217 221/221
f 221/221 217/217 223/223
f 404/404 405/405 411/411
f 180/180 181/181 182/182
f 120/120 122/122 118/118
f 120/120 118/118 115/115
f 110/110 120/120 115/115
f 120/120 110/110 121/121
f 581/581 582/582 583/583
f 119/119 152/152 121/121
f 154/154 152/152 119/119
f 158/158 152/152 154/154
f 120/120 121/121 152/152
f 150/150 119/119 123/123
f 151/151 119/119 150/150
f 151/151 150/150 154/154
f 405/405 401/401 403/403
f 405/405 403/403 406/406
f 398/398 401/401 404/404
f 404/404 401/401 405/405
f 410/410 398/398 404/404
f 410/410 404/404 411/411
f 410/410 411/411 421/421
f 421/421 411/411 422/422
f 153/153 120/120 156/156
f 153/153 122/122 120/120
f 181/181 180/180 183/183
f 52/52 53/53 54/54
f 156/156 120/120 152/152
f 157/157 156/156 152/152
f 157/157 152/152 158/158
f 128/128 126/126 127/127
f 128/128 127/127 129/129
f 128/128 146/146 126/126
f 146/146 147/147 126/126
f 434/434 438/438 437/437
f 436/436 434/434 437/437
f 136/136 146/146 128/128
f 146/146 136/136 155/155
f 435/435 434/434 436/436
f 130/130 128/128 129/129
f 136/136 128/128 130/130
f 130/130 131/131 135/135
f 130/130 129/129 131/131
f 437/437 441/441 440/440
f 440/440 436/436 437/437
f 22/22 23/23 24/24
f 187/187 188/188 189/189
f 226/226 229/229 227/227
f 252/252 229/229 226/226
f 126/126 147/147 125/125
f 434/434 439/439 438/438
f 148/148 125/125 147/147
f 432/432 439/439 434/434
f 90/90 92/92 86/86
f 90/90 86/86 85/85
f 279/279 277/277 281/281
f 66/66 65/65 67/67
f 64/64 65/65 66/66
f 4/4 5/5 6/6
f 89/89 72/72 66/66
f 72/72 64/64 66/66
f 106/106 89/89 66/66
f 106/106 66/66 107/107
f 281/281 277/277 282/282
f 281/281 282/282 283/283
f 284/284 281/281 283/283
f 304/304 307/307 305/305
f 304/304 305/305 306/306
f 73/73 74/74 70/70
f 71/71 73/73 70/70
f 72/72 71/71 64/64
f 71/71 70/70 64/64
f 105/105 84/84 71/71
f 72/72 105/105 71/71
f 90/90 84/84 94/94
f 276/276 282/282 277/277
f 94/94 84/84 105/105
f 90/90 85/85 84/84
f 85/85 86/86 73/73
f 86/86 83/83 73/73
f 84/84 85/85 73/73
f 84/84 73/73 71/71
f 284/284 283/283 285/285
f 285/285 283/283 290/290
f 291/291 292/292 285/285
f 290/290 291/291 285/285
f 46/46 47/47 48/48
f 43/43 44/44 45/45
f 95/95 105/105 72/72
f 95/95 72/72 89/89
f 95/95 89/89 96/96
f 96/96 89/89 106/106
f 234/234 235/235 241/241
f 241/241 235/235 251/251
f 228/228 227/227 230/230
f 226/226 227/227 228/228
f 187/187 189/189 191/191
f 232/232 239/239 233/233
f 232/232 233/233 234/234
f 234/234 233/233 235/235
f 235/235 233/233 236/236
f 236/236 238/238 242/242
f 233/233 238/238 236/236
f 228/228 233/233 239/239
f 233/233 228/228 238/238
f 230/230 231/231 228/228
f 13/13 14/14 15/15
f 466/466 473/473 464/464
f 244/244 241/241 250/250
f 346/346 348/348 347/347
f 345/345 346/346 347/347
f 293/293 294/294 295/295
f 242/242 231/231 249/249
f 238/238 231/231 242/242
f 248/248 240/240 232/232
f 19/19 20/20 21/21
f 248/248 232/232 245/245
f 245/245 232/232 244/244
f 240/240 226/226 228/228
f 240/240 228/228 239/239
f 247/247 246/246 240/240
f 247/247 240/240 248/248
f 232/232 234/234 244/244
f 244/244 234/234 241/241
f 240/240 246/246 226/226
f 245/245 247/247 248/248
f 296/296 299/299 297/297
f 296/296 297/297 298/298
f 58/58 59/59 60/60
f 497/497 498/498 499/499
f 378/378 380/380 381/381
f 378/378 376/376 380/380
f 451/451 447/447 452/452
f 454/454 452/452 447/447
f 373/373 371/371 374/374
f 372/372 371/371 373/373
f 376/376 373/373 374/374
f 376/376 374/374 380/380
f 331/331 342/342 343/343
f 463/463 462/462 464/464
f 337/337 313/313 340/340
f 313/313 337/337 314/314
f 372/372 369/369 371/371
f 369/369 370/370 371/371
f 326/326 323/323 325/325
f 323/323 322/322 325/325
f 321/321 318/318 322/322
f 323/323 321/321 322/322
f 328/328 326/326 327/327
f 326/326 325/325 327/327
f 235/235 237/237 243/243
f 235/235 236/236 237/237
f 322/322 318/318 338/338
f 333/333 322/322 338/338
f 322/322 333/333 325/325
f 325/325 333/333 332/332
f 454/454 447/447 449/449
f 454/454 449/449 461/461
f 352/352 349/349 351/351
f 349/349 350/350 351/351
f 329/329 328/328 327/327
f 329/329 327/327 330/330
f 381/381 380/380 385/385
f 584/584 585/585 586/586
f 321/321 317/317 318/318
f 317/317 314/314 318/318
f 462/462 465/465 464/464
f 474/474 473/473 466/466
f 464/464 465/465 466/466
f 474/474 466/466 465/465
f 325/325 332/332 327/327
f 342/342 327/327 332/332
f 461/461 462/462 463/463
f 449/449 462/462 461/461
f 330/330 327/327 331/331
f 331/331 327/327 342/342
f 318/318 314/314 338/338
f 314/314 337/337 338/338
f 478/478 492/492 475/475
f 475/475 492/492 491/491
f 212/212 211/211 220/220
f 211/211 225/225 220/220
f 212/212 193/193 211/211
f 205/205 203/203 204/204
f 210/210 205/205 204/204
f 207/207 210/210 204/204
f 207/207 204/204 206/206
f 201/201 208/208 209/209
f 201/201 202/202 208/208
f 199/199 198/198 201/201
f 201/201 198/198 202/202
f 196/196 198/198 197/197
f 197/197 198/198 199/199
f 432/432 434/434 433/433
f 432/432 433/433 431/431
f 216/216 201/201 209/209
f 213/213 201/201 216/216
f 199/199 201/201 213/213
f 214/214 199/199 213/213
f 213/213 216/216 221/221
f 213/213 221/221 222/222
f 476/476 490/490 493/493
f 224/224 213/213 222/222
f 491/491 490/490 475/475
f 475/475 490/490 476/476
f 430/430 429/429 431/431
f 429/429 432/432 431/431
f 427/427 428/428 429/429
f 427/427 429/429 430/430
f 193/193 200/200 194/194
f 193/193 194/194 195/195
f 215/215 197/197 199/199
f 215/215 199/199 214/214
f 217/217 209/209 190/190
f 216/216 209/209 217/217
f 209/209 208/208 188/188
f 209/209 188/188 190/190
f 195/195 197/197 211/211
f 215/215 211/211 197/197
f 425/425 426/426 427/427
f 426/426 428/428 427/427
f 193/193 195/195 211/211
f 204/204 193/193 206/206
f 212/212 206/206 193/193
f 411/411 424/424 423/423
f 422/422 411/411 423/423
f 425/425 423/423 424/424
f 424/424 426/426 425/425
f 204/204 203/203 193/193
f 203/203 200/200 193/193
f 195/195 196/196 197/197
f 195/195 194/194 196/196
f 206/206 212/212 219/219
f 219/219 212/212 220/220
