v -7.356100 0.957082 4.394678 0.0078 0.0314 0.0967
v -7.296862 1.177811 4.739662 0.0200 0.0280 0.0610
v -7.213054 1.163516 5.302663 0.0078 0.0118 0.0327
v -6.022320 1.776631 -1.620991 0.7328 0.6420 0.5258
v -6.080749 1.667171 -0.655276 0.7378 0.6655 0.5555
v -6.264127 1.719182 0.196032 0.6269 0.6758 0.6353
v -5.910253 1.372443 0.883684 0.5253 0.5658 0.5451
v -6.298073 1.591546 1.897061 0.4516 0.4738 0.4556
v -5.902834 1.280862 2.454712 0.6642 0.6595 0.6038
v -6.023130 1.332820 3.519837 0.6341 0.6248 0.6052
v -7.297313 1.548732 4.418025 0.3045 0.2904 0.3956
v -7.289354 1.593338 4.465822 0.0155 0.0197 0.0376
v -7.174948 1.752614 5.301115 0.1733 0.1761 0.2029
v -5.911264 2.051391 -3.180339 0.7744 0.7251 0.6265
v -6.002740 2.128074 -3.083493 0.7832 0.7030 0.5815
v -6.187174 2.085531 -2.194496 0.7415 0.6618 0.5423
v -6.446741 2.201041 -1.196502 0.7278 0.6611 0.5484
v -6.546399 2.188198 -0.534674 0.7217 0.6630 0.5790
v -6.634795 2.127068 0.368815 0.6869 0.6068 0.5302
v -6.777662 2.216996 1.144482 0.6882 0.5873 0.5067
v -6.841599 2.195926 1.938282 0.7698 0.6345 0.5433
v -6.921272 2.228204 2.777699 0.7108 0.6472 0.5657
v -7.290793 1.793128 4.353457 0.6787 0.4929 0.4467
v -7.272695 1.920292 4.462428 0.3734 0.2792 0.2275
v -7.163662 2.226622 5.297758 0.1926 0.1315 0.1412
v -5.937364 2.656383 -4.049680 0.7793 0.7157 0.6085
v -6.015621 2.383066 -3.569640 0.7769 0.7201 0.6170
v -6.317767 2.958236 -3.119189 0.7271 0.6726 0.5716
v -6.369586 2.412931 -2.222401 0.6606 0.6111 0.5147
v -6.568948 2.567206 -1.397141 0.7280 0.6606 0.5547
v -6.617058 2.413753 -0.592293 0.6431 0.5109 0.4248
v -6.721797 2.381527 0.436702 0.7330 0.5793 0.4802
v -6.805067 2.408358 1.087234 0.7935 0.4983 0.4258
v -7.049301 2.848234 1.954594 0.7165 0.3427 0.2935
v -6.923294 2.378607 2.838984 0.6982 0.3448 0.3045
v -6.966728 2.395996 3.670796 0.7493 0.2529 0.2244
v -6.251245 2.937393 4.470058 0.5534 0.3376 0.2746
v -6.110649 2.950559 5.290513 0.4330 0.3404 0.2637
v -5.936241 2.983818 -4.166789 0.7540 0.6059 0.5103
v -6.028121 3.127068 -3.945168 0.7728 0.3958 0.3422
v -6.321791 2.982541 -3.106927 0.8117 0.6190 0.5151
v -6.495885 2.975661 -2.278682 0.7361 0.6840 0.5885
v -6.668787 2.972303 -1.182010 0.6803 0.6338 0.5485
v -6.819275 3.086143 -0.337391 0.6573 0.5864 0.4939
v -6.866485 2.990208 0.296593 0.7598 0.6058 0.5209
v -6.970618 2.999161 1.172710 0.8243 0.4730 0.4145
v -7.052696 2.983179 2.024810 0.7842 0.3451 0.3148
v -7.094825 3.558043 3.254209 0.7645 0.2677 0.2474
v -7.120004 3.540715 3.649431 0.7460 0.2499 0.2471
v -6.173776 3.559547 4.486544 0.7270 0.3164 0.2618
v -6.039114 3.531343 5.290513 0.6272 0.4172 0.3256
v -5.911646 3.566909 -3.896033 0.8118 0.3108 0.2678
v -6.093631 3.739221 -3.111386 0.8382 0.4839 0.4166
v -6.384019 3.573545 -2.272613 0.7776 0.7027 0.5888
v -6.235756 4.155097 -0.872945 0.7120 0.6688 0.5850
v -6.371137 4.158070 -0.033714 0.7414 0.7070 0.6278
v -6.554695 4.121569 1.054016 0.7694 0.7102 0.5993
v -6.553998 4.155316 1.327397 0.8111 0.5874 0.5106
v -6.640933 4.134954 1.985398 0.8641 0.3065 0.2699
v -6.882874 3.972032 3.543730 0.7058 0.3421 0.2906
v -7.029091 3.749196 3.790172 0.7942 0.2713 0.2874
v -6.160444 3.594964 4.463370 0.6743 0.2851 0.3658
v -5.969288 3.678930 5.285608 0.5453 0.3232 0.4339
v -5.923561 4.162931 -2.344587 0.7951 0.4017 0.4085
v -5.911287 4.332454 -1.497553 0.7695 0.5962 0.5342
v -5.904025 4.383765 -1.196551 0.6431 0.5934 0.5346
v -5.910522 4.556986 0.199203 0.6265 0.5659 0.5100
v -5.916413 4.592368 0.576676 0.7649 0.7080 0.6027
v -6.048286 4.556750 1.103052 0.8021 0.5143 0.4272
v -6.658782 4.161707 2.420700 0.7954 0.4631 0.3859
v -6.487342 4.362817 2.831949 0.8285 0.3019 0.3017
v -6.752821 4.163403 4.022110 0.8239 0.2540 0.3059
v -6.050579 4.745506 4.682811 0.6151 0.2893 0.3939
v -6.739736 4.204354 5.287528 0.4402 0.4760 0.5475
v -5.904879 4.760045 2.603070 0.7239 0.4860 0.4192
v -5.911309 4.776692 2.962373 0.7745 0.2999 0.3459
v -6.002560 4.768806 4.328104 0.6641 0.2466 0.3495
v -5.899416 4.836457 4.743292 0.3444 0.2310 0.3236
v -6.016251 4.772189 5.287478 0.3719 0.3823 0.4363
v -4.375065 0.585942 2.590548 0.3998 0.4639 0.5426
v -4.415666 0.587253 3.565021 0.3807 0.4063 0.5513
v -4.367916 0.570318 4.290276 0.4327 0.3719 0.5637
v -4.434617 0.592831 4.628226 0.0994 0.0855 0.1322
v -4.375987 0.592883 5.318690 0.0000 0.0000 0.0039
v -4.482614 1.111209 -3.169291 0.5113 0.4548 0.3958
v -4.369782 0.949765 -2.434473 0.4815 0.4766 0.4570
v -4.366702 0.853323 -1.677125 0.5021 0.5774 0.6133
v -4.482524 0.863421 -1.396906 0.4254 0.4876 0.5289
v -4.415328 0.759006 -0.568649 0.3915 0.5153 0.5480
v -4.465079 0.711681 0.262854 0.5429 0.6094 0.5931
v -5.263360 0.988180 1.087544 0.5799 0.6092 0.5836
v -5.106082 0.875477 2.026172 0.5860 0.5835 0.5440
v -4.993946 0.808953 2.863496 0.5470 0.5224 0.5283
v -4.857801 0.744667 3.651325 0.4838 0.4216 0.4510
v -5.753942 1.169444 4.630938 0.5464 0.4650 0.4237
v -5.724582 1.176176 5.319508 0.1743 0.1497 0.1313
v -4.470317 1.566490 -4.849921 0.7112 0.6962 0.6401
v -4.384844 1.256977 -4.005636 0.7199 0.6590 0.5690
v -4.381225 1.750621 -3.648129 0.7127 0.6305 0.5406
v -4.776936 1.774673 -2.507599 0.7063 0.6311 0.5458
v -4.712798 1.682209 -2.242008 0.7068 0.6464 0.5554
v -4.569886 1.471543 -1.372258 0.6074 0.5844 0.5294
v -5.160576 1.776474 -0.334890 0.5373 0.5855 0.5541
v -4.633822 1.359827 0.245860 0.4599 0.5914 0.6046
v -5.273004 1.739859 1.090256 0.5942 0.6155 0.5736
v -5.193129 1.620126 1.935123 0.5942 0.6140 0.5876
v -5.211023 1.588390 2.818981 0.5415 0.5110 0.5537
v -5.026724 1.446791 3.645517 0.4849 0.4196 0.4173
v -5.192274 1.568832 4.531257 0.2247 0.1957 0.1922
v -5.894133 1.234088 5.290512 0.2991 0.2664 0.2513
v -4.485267 2.360851 -4.845573 0.6934 0.6722 0.6078
v -4.515706 2.367836 -4.801715 0.7239 0.6420 0.5389
v -5.174109 2.335015 -3.168968 0.7371 0.6482 0.5427
v -5.265990 2.190060 -2.336735 0.7427 0.6415 0.5275
v -5.266125 2.014146 -1.451156 0.7383 0.6453 0.5263
v -5.217588 1.899214 -0.970484 0.7221 0.6503 0.5363
v -5.323541 1.951557 -0.596814 0.6675 0.6244 0.5239
v -5.306141 1.783459 0.883685 0.6859 0.6302 0.5197
v -5.337525 1.794737 1.087111 0.6952 0.6687 0.5789
v -5.640525 1.955464 2.712016 0.7248 0.6768 0.5812
v -5.650709 1.924856 3.567275 0.6710 0.5887 0.4882
v -5.508650 1.795209 4.198770 0.5946 0.5174 0.4233
v -5.434800 1.800341 5.050882 0.5481 0.4438 0.3414
v -5.752121 2.193661 5.297758 0.4975 0.4308 0.3926
v -4.620738 2.549284 -4.826313 0.6191 0.5632 0.4613
v -4.963215 2.448278 -3.980542 0.7641 0.6852 0.5729
v -5.239035 2.419453 -3.147628 0.7597 0.6601 0.5509
v -5.306006 2.379254 -2.800711 0.7176 0.5437 0.4260
v -5.441545 2.375993 -2.139391 0.6067 0.4622 0.3637
v -5.606893 2.437927 -1.341466 0.3262 0.2677 0.2170
v -5.660555 2.376316 -0.603676 0.5540 0.4886 0.3990
v -5.885388 2.613167 0.279241 0.7641 0.6831 0.5533
v -5.892335 2.457204 1.137571 0.7207 0.6628 0.5417
v -5.871091 2.377575 5.297659 0.7106 0.5673 0.4310
v -4.591085 3.554267 -4.830078 0.4347 0.3880 0.3134
v -4.614668 3.551539 -4.793193 0.7340 0.4526 0.3853
v -5.226333 3.548829 -3.453745 0.7706 0.5333 0.4371
v -5.410768 3.548707 -2.829533 0.7526 0.5079 0.3861
v -5.667839 3.549458 -1.499708 0.7492 0.5118 0.3873
v -5.687488 3.538014 -1.408325 0.4218 0.3471 0.2807
v -5.893976 3.206243 -0.562307 0.2750 0.2430 0.2008
v -4.414249 3.786441 -4.821940 0.7279 0.6776 0.5852
v -4.384799 4.044921 -4.374500 0.7270 0.3643 0.3008
v -4.739640 4.142552 -3.258283 0.7563 0.2989 0.2606
v -4.846178 4.131230 -2.970274 0.8212 0.3742 0.2921
v -5.035649 4.127199 -2.279611 0.6660 0.4254 0.3199
v -5.665636 3.762336 -0.670819 0.6411 0.4953 0.3973
v -5.790136 3.747727 0.195128 0.7745 0.7008 0.5845
v -5.887614 3.736029 0.898189 0.7884 0.7186 0.6026
v -5.831366 3.976657 1.891327 0.7830 0.7182 0.6006
v -5.882444 3.951032 2.156906 0.6251 0.5544 0.4624
v -5.872260 4.061978 3.304546 0.4018 0.3316 0.2866
v -5.853735 4.089946 3.647920 0.5968 0.2462 0.2958
v -5.863762 4.032138 4.483225 0.7682 0.1885 0.2701
v -5.691804 4.064968 5.286748 0.7257 0.1735 0.2739
v -4.812074 4.170389 -4.869812 0.6475 0.6664 0.6556
v -4.371355 4.188661 -4.012348 0.6681 0.5633 0.5469
v -4.384776 4.393461 -3.172288 0.7211 0.3572 0.4304
v -4.727029 4.219689 -2.970088 0.7874 0.3199 0.3706
v -4.958628 4.228624 -2.035869 0.8047 0.4019 0.4001
v -4.803981 4.424113 -1.400250 0.6345 0.5239 0.4433
v -4.408674 4.729988 -0.486195 0.7078 0.6214 0.5284
v -5.816552 4.699135 1.050399 0.7658 0.6922 0.5860
v -5.751648 4.746993 1.166034 0.7589 0.6355 0.5210
v -5.873788 4.738433 1.992049 0.6924 0.5913 0.4882
v -5.751783 4.159652 2.857043 0.6180 0.3470 0.3436
v -5.771859 4.166375 3.927878 0.6124 0.1941 0.3061
v -5.732337 4.162275 4.512282 0.6527 0.2257 0.3940
v -5.509460 4.230941 5.287168 0.5626 0.4574 0.5321
v -4.385563 4.892543 -3.173179 0.6374 0.2518 0.4289
v -4.901257 4.809408 -2.298215 0.7071 0.2514 0.3720
v -5.037694 4.847246 -1.507028 0.7612 0.3364 0.3648
v -5.160419 4.805045 -1.377707 0.5410 0.3351 0.3716
v -5.329454 4.809294 -0.580117 0.5882 0.4223 0.4970
v -5.335704 4.884779 0.267611 0.5511 0.3341 0.5018
v -4.910586 5.129979 1.091335 0.5752 0.4067 0.4588
v -5.375495 4.990575 1.927048 0.5476 0.4051 0.3995
v -5.581939 4.943426 2.782691 0.5752 0.2952 0.3455
v -4.714147 5.334560 3.915418 0.6276 0.2222 0.3410
v -4.729501 5.340846 4.464237 0.5423 0.1987 0.3459
v -4.660889 4.771909 5.288767 0.4988 0.3350 0.4147
v -4.381764 5.350979 1.734572 0.5315 0.3015 0.5083
v -4.480299 5.354004 2.374130 0.4707 0.2998 0.5064
v -4.385991 5.427522 3.433495 0.4522 0.2917 0.4942
v -4.410720 5.426849 3.647957 0.5045 0.3537 0.5582
v -4.660147 5.365160 4.456992 0.5809 0.3395 0.4540
v -4.675907 5.357956 5.305487 0.6687 0.4634 0.4813
v -3.015477 0.556339 -2.297200 0.4641 0.5544 0.5657
v -3.513837 0.577243 -1.453807 0.5423 0.6090 0.6013
v -3.842803 0.592639 -0.685522 0.6953 0.7169 0.6733
v -2.848555 0.315562 0.187869 0.6303 0.6721 0.6461
v -2.876162 0.276928 1.005029 0.6114 0.6317 0.6073
v -2.859638 0.242945 1.898424 0.5841 0.5964 0.5787
v -2.885603 0.243968 2.032513 0.5825 0.5638 0.5407
v -2.893831 0.227688 3.532830 0.4759 0.4815 0.5487
v -2.862965 0.222819 3.920632 0.5760 0.5126 0.5524
v -3.122329 0.270476 4.460607 0.2504 0.2380 0.2914
v -3.422024 0.348435 5.301969 0.1559 0.1511 0.1450
v -2.862066 1.105028 -5.244263 0.4551 0.5892 0.6439
v -2.846644 0.801478 -4.086194 0.5207 0.5573 0.5400
v -2.884142 0.686790 -3.449856 0.5420 0.5100 0.4567
v -3.588429 0.686703 -2.291341 0.6031 0.6044 0.5588
v -3.443764 0.596696 -1.809765 0.4938 0.4910 0.4392
v -3.989919 0.632926 -0.671154 0.5507 0.5419 0.4808
v -4.135866 0.643277 -0.250629 0.5029 0.4991 0.4560
v -4.350853 0.660964 0.455665 0.4544 0.4752 0.4509
v -4.318412 0.594807 1.618465 0.5185 0.5339 0.4922
v -4.363689 0.596433 1.998081 0.4638 0.4312 0.3726
v -3.285632 0.682147 3.218252 0.4547 0.4176 0.3633
v -3.308540 0.683432 3.741247 0.6724 0.5955 0.5116
v -2.988904 0.635679 4.492253 0.6693 0.5849 0.4888
v -3.453251 0.762310 5.338743 0.5876 0.5186 0.4278
v -2.903386 1.280268 -5.651647 0.5826 0.5837 0.5392
v -4.236132 1.773676 -4.056220 0.5757 0.5512 0.4869
v -4.213538 1.732900 -3.968949 0.7260 0.6547 0.5573
v -4.254049 1.416472 -2.315655 0.7161 0.6446 0.5516
v -4.358384 1.441205 -2.099521 0.5823 0.5311 0.4460
v -4.307644 1.330242 -1.402170 0.7126 0.6376 0.5246
v -4.319784 1.256601 -0.578161 0.5570 0.5069 0.4166
v -4.328259 1.194624 0.291688 0.5048 0.4664 0.3843
v -3.190672 2.355168 -5.657902 0.7063 0.6795 0.6050
v -4.364791 2.186991 -4.798754 0.7432 0.6800 0.5768
v -4.356271 1.782970 -3.825669 0.7620 0.6867 0.5749
v -2.957161 2.838163 -5.657927 0.7217 0.6777 0.5828
v -2.858896 3.034019 -5.657914 0.5540 0.5096 0.4421
v -3.837744 4.157458 -4.989695 0.5964 0.5269 0.4500
v -4.305711 4.142692 -4.273493 0.7494 0.6696 0.5280
v -3.253282 4.465004 -4.954791 0.5860 0.5362 0.4960
v -4.073549 4.374900 -3.981223 0.6306 0.5309 0.5040
v -4.357867 4.407956 -3.176251 0.6192 0.3763 0.3978
v -4.363802 4.443330 -2.978844 0.8648 0.2817 0.2932
v -4.351640 4.587725 -2.090057 0.8079 0.4234 0.3716
v -4.363082 4.661104 -1.413057 0.6733 0.5056 0.4039
v -4.364566 4.743443 -0.560362 0.6255 0.4886 0.3750
v -3.046928 4.953192 -4.818546 0.5135 0.5652 0.6075
v -3.147575 4.756462 -3.997337 0.5623 0.5310 0.5373
v -3.381918 4.759932 -3.574829 0.7288 0.5002 0.4644
v -3.853211 4.768658 -2.372877 0.7274 0.5328 0.4652
v -3.900399 4.767836 -2.232978 0.6769 0.4281 0.3895
v -4.139800 4.764365 -1.377051 0.6476 0.4290 0.4520
v -2.959611 5.200726 -0.580415 0.5667 0.3735 0.4765
v -3.065924 5.280915 1.074862 0.5151 0.3300 0.4721
v -2.959566 5.344081 1.876675 0.6387 0.4477 0.4786
v -3.185186 5.329096 2.757312 0.5763 0.4618 0.3617
v -3.200698 5.339954 3.567040 0.5495 0.3071 0.2817
v -3.200473 5.334682 4.307667 0.5833 0.1822 0.3486
v -3.087528 5.344247 4.757362 0.4329 0.1855 0.3530
v -3.101872 5.322784 5.331783 0.4265 0.2828 0.3801
v -2.857052 5.354870 -3.031546 0.7498 0.6440 0.5212
v -3.330347 5.356077 -2.078761 0.7307 0.6059 0.5252
v -3.580786 5.352291 -1.441123 0.6138 0.4556 0.5377
v -3.686312 5.392499 -0.582520 0.4149 0.3852 0.5092
v -2.871328 5.654406 1.055763 0.3762 0.4031 0.5183
v -2.889380 5.652649 1.079395 0.6300 0.4262 0.5000
v -3.079727 5.665361 2.005315 0.6257 0.4268 0.4791
v -3.189593 5.680163 2.801963 0.6366 0.3779 0.4487
v -2.950709 5.749126 3.655253 0.5068 0.3878 0.5684
v -3.020288 5.754800 4.750983 0.4867 0.3670 0.5406
v -2.845632 5.748356 5.345184 0.5671 0.4339 0.5003
v -1.323259 0.580128 -4.119698 0.2870 0.3725 0.4270
v -1.342817 0.459216 -3.401898 0.4647 0.5680 0.5937
v -2.481281 0.463657 -2.337776 0.5711 0.6505 0.6505
v -2.835291 0.493312 -2.041270 0.6323 0.6220 0.5589
v -1.457403 0.199423 -0.645652 0.5728 0.5765 0.5262
v -1.363994 0.176430 -0.413838 0.6824 0.6505 0.5565
v -1.372672 0.112485 0.699271 0.6321 0.6326 0.5783
v -1.349224 0.066472 1.917671 0.6261 0.6202 0.5610
v -1.483729 0.076307 1.938281 0.4566 0.4376 0.3788
v -1.483729 0.062607 2.840668 0.5764 0.5645 0.5024
v -1.615288 0.071962 3.659698 0.6092 0.5929 0.5250
v -1.794642 0.095567 4.471482 0.5554 0.5399 0.4804
v -1.440520 0.087812 5.289657 0.5033 0.5116 0.4681
v -1.540426 0.983626 -5.620856 0.6203 0.6436 0.6096
v -1.317121 0.662092 -4.511154 0.4489 0.5215 0.5331
v -1.879553 0.598995 -3.897706 0.5828 0.6570 0.6456
v -2.775266 0.612669 -3.116416 0.5103 0.5144 0.4591
v -1.488944 0.597273 -1.708932 0.4842 0.4551 0.3683
v -2.717670 0.771132 -1.371106 0.3132 0.2992 0.2431
v -2.183430 0.612406 -0.583586 0.4599 0.4316 0.3608
v -2.674394 0.650822 0.278187 0.5723 0.5585 0.4817
v -2.815328 0.615694 1.892082 0.5542 0.5598 0.4982
v -2.819577 0.607257 2.296036 0.2805 0.2656 0.2322
v -2.788575 0.594754 2.809010 0.2706 0.3067 0.2958
v -2.818497 0.597202 3.743055 0.5112 0.5643 0.5289
v -2.759035 0.601609 4.530959 0.4956 0.4968 0.4235
v -2.740084 0.595366 5.352776 0.5794 0.5623 0.4705
v -2.793364 1.216018 -5.628832 0.7531 0.7064 0.6138
v -2.263934 1.189842 -4.811921 0.4423 0.4097 0.3438
v -1.354934 2.337000 -5.658113 0.7015 0.6660 0.5849
v -1.332431 2.954399 -5.657964 0.7852 0.7213 0.6138
v -1.354215 3.528048 -5.657852 0.7131 0.6295 0.5258
v -1.346819 4.147501 -5.658100 0.7028 0.6208 0.5358
v -1.404798 4.738661 -5.658025 0.6481 0.5682 0.4746
v -2.779853 4.720843 -4.643323 0.7427 0.6648 0.5373
v -1.326114 5.213850 -4.991701 0.5592 0.5388 0.4975
v -1.386543 5.345192 -4.408647 0.6945 0.5743 0.4566
v -2.833537 4.887385 -3.788077 0.6453 0.4510 0.3025
v -1.323551 5.318702 -2.437023 0.7245 0.5324 0.4006
v -1.328002 5.339492 -2.200577 0.6077 0.2847 0.3164
v -2.812450 5.189684 -1.182010 0.7028 0.3759 0.3799
v -2.414760 5.340418 -0.109292 0.7904 0.4433 0.3857
v -2.755056 5.342211 1.002478 0.7638 0.4454 0.3482
v -2.757889 5.346180 1.105529 0.6842 0.5316 0.3910
v -1.335848 5.405028 -4.133842 0.7631 0.6192 0.4862
v -1.343267 5.435261 -3.966706 0.7857 0.6500 0.5086
v -1.507783 5.618631 -2.304977 0.7663 0.6426 0.5092
v -1.320066 5.350123 -2.078129 0.6470 0.4536 0.4484
v -1.333757 5.430766 -0.908554 0.5724 0.3230 0.4123
v -1.349449 5.482567 0.124430 0.5306 0.3656 0.4362
v -1.355002 5.524139 1.055118 0.6106 0.3116 0.3286
v -1.344368 5.544020 1.523578 0.7119 0.4108 0.4010
v -1.905968 5.820607 1.950520 0.7270 0.5265 0.4478
v -2.795792 5.749414 2.880329 0.5513 0.4032 0.4298
v -2.669718 5.793189 3.613834 0.4716 0.3754 0.4445
v -1.556163 5.937008 4.603307 0.4058 0.3388 0.4248
v -1.496880 5.940960 5.328092 0.4382 0.2772 0.4256
v -1.316065 5.947806 3.936276 0.5384 0.5097 0.4674
v -1.385734 5.963840 5.283069 0.6277 0.6030 0.5521
v -1.319100 5.955779 5.324760 0.3914 0.3749 0.3377
v 0.200194 0.505159 -4.018914 0.3395 0.4205 0.4719
v 0.216650 0.387254 -3.257577 0.4948 0.5703 0.5883
v 0.188684 0.324542 -2.745780 0.6131 0.5803 0.5238
v -1.189271 0.244003 -1.484016 0.6646 0.5418 0.4742
v -1.239337 0.183267 -0.637292 0.7502 0.5044 0.4682
v -1.124054 0.122487 0.202373 0.7580 0.4369 0.4291
v -1.159462 0.081186 1.074464 0.6915 0.6892 0.6125
v -1.289672 0.068115 1.699097 0.6490 0.5854 0.4793
v -0.060024 0.002501 2.700460 0.5984 0.5865 0.4997
v -0.385843 0.004940 3.478777 0.6796 0.6488 0.5494
v 0.048919 0.000000 3.645207 0.7071 0.6632 0.5575
v -1.117040 0.044326 4.463431 0.6629 0.6585 0.5855
v 0.200194 0.040348 5.312435 0.6443 0.6628 0.6049
v -0.562836 0.947579 -5.655326 0.5293 0.5724 0.5779
v 0.125489 0.602064 -4.500069 0.4189 0.5060 0.5784
v 0.121263 0.663788 -3.177627 0.5484 0.6087 0.6526
v -0.372556 0.637245 -2.929549 0.6277 0.5586 0.4730
v -0.894027 0.594475 -2.277420 0.7394 0.6843 0.5720
v 0.053842 1.709574 -5.658026 0.7157 0.6685 0.5802
v -0.858822 2.364759 -5.658199 0.7374 0.6832 0.5816
v -0.711436 2.924804 -5.657964 0.7890 0.7267 0.6175
v -1.049574 3.531247 -5.657567 0.7785 0.7117 0.6031
v 0.202667 4.142150 -5.177589 0.7370 0.6801 0.5828
v 0.160740 4.365178 -5.658112 0.6947 0.6393 0.5540
v -0.804845 5.019960 -4.820107 0.5877 0.4472 0.4060
v -0.059620 5.201032 -3.988543 0.5623 0.4090 0.3438
v 0.097590 5.301601 -3.219279 0.3933 0.1992 0.1653
v 0.187874 5.342420 -2.831811 0.6991 0.4778 0.3425
v -1.305948 5.344912 -2.160310 0.5048 0.2425 0.1765
v -0.896793 5.375538 -4.446846 0.7607 0.6617 0.5448
v -1.246913 5.445000 -3.958024 0.7604 0.6231 0.4929
v 0.211232 5.358569 -2.659040 0.7515 0.6093 0.4780
v 0.198396 5.391756 -2.290956 0.4082 0.1657 0.2552
v 0.096601 5.457414 -1.358806 0.2778 0.0545 0.1800
v 0.134414 5.502527 -0.486195 0.4737 0.1736 0.2197
v 0.202667 5.560273 0.980060 0.5823 0.3083 0.3000
v 0.211479 5.563657 1.080881 0.7117 0.3706 0.3320
v 0.087227 5.600726 2.069115 0.6722 0.3527 0.3031
v -0.014410 5.622749 2.769327 0.6145 0.4041 0.3840
v -1.260312 5.940549 3.607815 0.5378 0.2527 0.3238
v 0.036914 5.641642 4.449535 0.2464 0.0979 0.1632
v -1.286390 5.930731 5.339722 0.1382 0.0779 0.0993
v -0.320850 5.960448 3.287739 0.6470 0.5488 0.4406
v 0.150871 5.977373 3.645208 0.6760 0.6353 0.5651
v 0.079268 6.000000 4.462528 0.6636 0.6315 0.5653
v -1.121941 5.965667 5.324847 0.6040 0.6139 0.5779
v 1.504321 0.584911 -4.020797 0.4042 0.4849 0.5355
v 1.735899 0.477750 -3.226253 0.3883 0.4202 0.4459
v 1.711866 0.365510 -2.329961 0.5317 0.3944 0.3559
v 1.686508 0.279945 -1.493454 0.6689 0.4784 0.4277
v 1.734438 0.269541 -1.325068 0.6129 0.4842 0.4723
v 0.226519 0.090733 0.145175 0.5816 0.5358 0.5255
v 0.236501 0.085514 0.236942 0.5272 0.5497 0.5352
v 0.259679 0.039456 1.162689 0.5901 0.5684 0.5115
v 0.246235 0.013132 2.021638 0.6969 0.6134 0.4952
v 0.233084 0.000699 2.956637 0.7019 0.6141 0.4864
v 0.219932 0.000752 3.645207 0.7376 0.6383 0.5051
v 0.272561 0.011138 4.505915 0.6204 0.5574 0.4572
v 0.344905 0.075669 5.344589 0.4329 0.3814 0.3144
v 0.601459 0.913535 -5.623246 0.5117 0.5031 0.5264
v 1.582308 0.769139 -4.802892 0.2698 0.3039 0.4195
v 0.248303 0.678563 -3.276169 0.3280 0.3021 0.5094
v 0.274112 0.656199 -3.100673 0.4517 0.3223 0.4229
v 1.709371 0.666253 -2.241959 0.3928 0.3221 0.4162
v 1.722815 0.596757 -1.442944 0.1020 0.2192 0.3658
v 0.454680 1.760134 -5.658014 0.6741 0.6284 0.5812
v 0.594872 2.349415 -5.658199 0.5034 0.4833 0.5121
v 1.606520 2.946687 -5.658013 0.6314 0.6061 0.5885
v 1.734482 3.257048 -5.658001 0.7425 0.6835 0.5902
v 0.456726 4.141345 -5.177639 0.5889 0.5232 0.4956
v 1.592537 4.639177 -5.177329 0.4812 0.4560 0.4935
v 1.424918 4.772872 -5.177168 0.6085 0.4952 0.4484
v 1.532198 5.091721 -4.018554 0.3345 0.2002 0.2185
v 1.717329 5.184508 -3.204466 0.1624 0.0191 0.0885
v 0.239761 5.344091 -2.805083 0.0533 0.0067 0.0431
v 1.629451 5.292797 -2.289334 0.0127 0.0023 0.0113
v 1.745049 5.344808 -1.430236 0.0062 0.0000 0.0049
v 1.720746 5.368308 -4.072717 0.7689 0.6771 0.5554
v 1.563401 5.406505 -3.969865 0.7423 0.4992 0.4197
v 0.404232 5.385863 -2.301881 0.7151 0.3392 0.3545
v 0.621399 5.437804 -1.466204 0.3169 0.1289 0.1636
v 0.992157 5.462415 -0.650704 0.3554 0.1371 0.1762
v 0.897534 5.501994 0.109926 0.2369 0.0683 0.0961
v 0.949983 5.504599 0.251076 0.2127 0.0440 0.0859
v 0.512209 5.558787 1.152385 0.3967 0.1098 0.1444
v 0.477093 5.589876 1.989907 0.5181 0.2297 0.2269
v 0.837915 5.600717 2.765252 0.4518 0.1555 0.1691
v 1.388094 5.932322 3.757548 0.5889 0.1888 0.2197
v 1.428807 5.932680 4.486210 0.3903 0.1911 0.1964
v 1.521092 5.536440 5.289832 0.2741 0.2153 0.1986
v 0.227846 5.946031 2.877740 0.6333 0.3958 0.3351
v 0.323975 5.976281 3.632884 0.6273 0.3851 0.3269
v 0.274629 5.999825 4.455951 0.4134 0.3424 0.2871
v 1.313030 5.989736 5.287962 0.5746 0.5517 0.4909
v 2.556008 0.584613 -3.135700 0.3010 0.3325 0.3711
v 2.875824 0.530915 -2.295775 0.4246 0.4534 0.4687
v 3.246200 0.515160 -1.498248 0.5642 0.5694 0.5427
v 3.237882 0.445017 -0.790232 0.2389 0.3231 0.4036
v 3.162166 0.413543 -0.607181 0.5519 0.5521 0.5140
v 2.392009 0.223457 0.296593 0.4745 0.4576 0.4408
v 2.695054 0.224769 1.152780 0.4624 0.4263 0.4203
v 3.154904 0.280198 2.079530 0.5350 0.4377 0.4142
v 2.946572 0.234263 2.783594 0.6478 0.5133 0.4376
v 3.043578 0.253209 3.648885 0.7074 0.5663 0.4595
v 2.296892 0.156994 4.809295 0.4877 0.3627 0.2950
v 2.286011 0.172399 5.287316 0.3936 0.3316 0.2546
v 2.192265 0.929875 -5.055440 0.3635 0.3878 0.4372
v 3.258070 1.047579 -4.584095 0.2599 0.2096 0.3558
v 3.271738 0.740454 -3.163891 0.3422 0.2220 0.3596
v 3.231992 0.614890 -2.360801 0.3377 0.2686 0.4383
v 3.222640 0.593942 -2.213508 0.3456 0.2438 0.3203
v 1.790663 0.602038 -1.404883 0.3900 0.0880 0.1413
v 3.258924 0.802195 -0.323111 0.3460 0.0693 0.1614
v 3.271334 0.753454 0.900876 0.2095 0.0445 0.1538
v 3.254361 0.738600 1.477130 0.2860 0.0341 0.1780
v 3.270862 0.740654 2.752790 0.3251 0.0540 0.2240
v 3.270435 0.750997 3.572724 0.3071 0.0637 0.2230
v 2.799748 0.673605 4.427995 0.4048 0.1302 0.1957
v 3.153151 0.801906 5.276020 0.3495 0.1902 0.2280
v 3.261262 0.823824 5.331968 0.4740 0.3722 0.2415
v 3.232284 1.346740 -5.532198 0.4587 0.4375 0.4518
v 2.587842 1.190629 -4.418161 0.2811 0.0346 0.0894
v 3.109560 1.228257 -3.912643 0.5394 0.0615 0.1518
v 2.824747 2.374350 -5.657890 0.6103 0.5664 0.5403
v 2.226166 2.935217 -5.657989 0.6480 0.5632 0.4766
v 2.227403 3.021228 -5.657964 0.6580 0.6073 0.5473
v 1.807344 3.910326 -5.177601 0.5868 0.5341 0.5213
v 1.854531 4.586773 -5.177217 0.3517 0.2520 0.3093
v 3.237567 4.697937 -4.030754 0.1462 0.0133 0.1170
v 3.267872 4.705430 -3.952029 0.2626 0.0466 0.2343
v 1.765731 4.754014 -5.176895 0.3190 0.3530 0.3615
v 2.822971 4.832830 -4.020387 0.3114 0.2805 0.2486
v 3.137437 4.761052 -3.902473 0.4182 0.3067 0.2876
v 3.098162 4.914837 -3.085722 0.2521 0.1511 0.1644
v 2.417053 5.170319 -2.271052 0.0850 0.0055 0.0698
v 2.501065 5.221875 -1.447848 0.0683 0.0050 0.0542
v 3.093306 5.160728 -0.392000 0.0520 0.0019 0.0354
v 3.272053 5.150516 0.249428 0.0963 0.0065 0.0665
v 3.033596 5.248400 1.091174 0.0710 0.0048 0.0509
v 2.892123 5.340156 2.753695 0.0225 0.0007 0.0180
v 2.942346 5.329402 2.760941 0.1230 0.0045 0.1059
v 2.941109 5.341904 3.757548 0.0910 0.0036 0.0609
v 3.268636 5.244247 4.663564 0.0688 0.0044 0.0362
v 3.196584 5.228799 5.290018 0.0077 0.0083 0.0083
v 1.969477 5.352580 -3.979650 0.6107 0.4831 0.3806
v 2.043350 5.467897 -3.176164 0.6859 0.5410 0.4213
v 2.507944 5.488006 -2.332214 0.7428 0.4651 0.4001
v 2.732845 5.521490 -1.455936 0.6800 0.3134 0.3625
v 1.910284 5.350027 -1.001411 0.3851 0.1473 0.1854
v 2.314247 5.347167 0.121618 0.3744 0.1372 0.1802
v 1.763910 5.461847 0.945305 0.2831 0.0781 0.1561
v 1.794147 5.493531 1.892541 0.3364 0.0868 0.1668
v 1.772318 5.498628 1.966374 0.3729 0.1470 0.1703
v 1.815797 5.523037 2.918118 0.4762 0.1829 0.2092
v 1.750174 5.544116 3.675107 0.4558 0.1659 0.1905
v 1.878271 5.524086 4.446823 0.3663 0.1898 0.1730
v 2.642493 5.361453 5.290513 0.2344 0.1906 0.1759
v 3.562419 0.589142 -1.501406 0.4182 0.4435 0.4551
v 3.746539 0.589308 -1.064419 0.4577 0.4759 0.4739
v 3.285092 0.438539 -0.605546 0.5667 0.5738 0.5447
v 3.338822 0.385155 0.259299 0.5849 0.5777 0.5821
v 3.282530 0.316279 1.568637 0.5502 0.5298 0.5492
v 3.522717 0.359425 1.934665 0.6132 0.5223 0.4715
v 3.331673 0.308498 2.814621 0.6197 0.4682 0.4379
v 3.285879 0.300245 3.652452 0.5944 0.4965 0.4737
v 3.397138 0.333450 4.467085 0.3642 0.3214 0.2867
v 3.659897 0.398033 5.285186 0.1633 0.1435 0.1219
v 3.290982 1.169008 -4.962360 0.2820 0.4079 0.5543
v 4.052281 1.177514 -4.092461 0.2290 0.2912 0.4182
v 4.487807 1.133179 -3.166826 0.2906 0.1624 0.3103
v 4.743597 1.083844 -2.305461 0.4170 0.2591 0.3791
v 4.587353 0.909312 -1.540037 0.4926 0.2918 0.3330
v 4.301147 0.766472 -1.190854 0.5354 0.1389 0.1579
v 4.254364 0.689553 -0.594746 0.4747 0.2371 0.2765
v 4.381112 0.616612 1.069076 0.5105 0.2481 0.3055
v 4.370546 0.609906 1.146340 0.4719 0.1805 0.2728
v 4.392488 0.594256 1.941006 0.5662 0.2473 0.3027
v 4.429424 0.595104 2.986426 0.4831 0.2141 0.2657
v 4.788874 0.716961 3.794692 0.4652 0.2040 0.2453
v 4.588680 0.656164 4.465933 0.3531 0.1645 0.2080
v 4.596346 0.680809 5.285496 0.2561 0.2383 0.2139
v 4.486233 1.639160 -4.823192 0.2945 0.3739 0.4749
v 4.785187 1.572881 -4.219565 0.1712 0.1041 0.1957
v 4.790965 1.479980 -3.946208 0.4197 0.1308 0.2675
v 4.797979 1.200892 -2.823390 0.3722 0.2424 0.4034
v 4.798721 1.608210 -1.805702 0.5356 0.2724 0.3641
v 4.770777 1.526360 -1.435513 0.4162 0.1743 0.2489
v 4.429334 1.236842 -0.603664 0.3984 0.1084 0.1746
v 4.614331 1.215973 1.071888 0.5605 0.0710 0.1257
v 4.793528 1.283765 1.774292 0.6460 0.0642 0.1050
v 4.622289 1.187647 2.487782 0.6712 0.0622 0.1018
v 4.796428 1.278432 3.579970 0.6057 0.0426 0.0755
v 4.797664 1.313604 4.403323 0.5844 0.0236 0.0664
v 4.751263 1.370738 5.236138 0.5181 0.0321 0.0852
v 4.434640 1.199012 5.337876 0.1080 0.0984 0.0873
v 4.779522 1.866201 -4.875510 0.5994 0.5345 0.5163
v 4.795191 1.800910 -4.726408 0.5199 0.1640 0.2967
v 4.678537 1.838714 -3.148148 0.4396 0.1465 0.3207
v 4.796382 1.816149 -2.740342 0.4180 0.1820 0.3820
v 4.613971 2.950141 -4.824232 0.6342 0.5143 0.4408
v 4.587466 2.652475 -4.742175 0.5681 0.0412 0.0905
v 4.160056 3.554267 -5.174443 0.6253 0.4307 0.3939
v 4.801014 3.563954 -4.221138 0.5062 0.0139 0.0601
v 3.731454 3.844528 -5.176982 0.3997 0.2162 0.3127
v 4.481872 4.055238 -3.982350 0.5022 0.0951 0.1836
v 4.771676 4.104171 -3.160434 0.6080 0.0480 0.0950
v 4.760255 4.154092 -3.008521 0.5672 0.0776 0.1491
v 3.291769 4.247509 -5.176177 0.4094 0.3830 0.4271
v 4.193395 4.169235 -4.241252 0.3686 0.2094 0.3256
v 3.922948 4.612066 -3.139229 0.4449 0.2450 0.3350
v 4.283252 4.535662 -2.588131 0.4172 0.1122 0.2298
v 4.119927 4.746696 -1.509989 0.4251 0.0407 0.1797
v 4.428502 4.684351 -0.616656 0.4240 0.0382 0.1812
v 4.372367 4.744720 -0.142796 0.2228 0.0546 0.1934
v 4.733143 4.589798 0.234540 0.0314 0.0111 0.0291
v 4.730895 4.643251 1.094790 0.1437 0.0428 0.1440
v 4.662485 4.721639 1.957778 0.2173 0.0585 0.2067
v 4.786603 4.690925 3.203068 0.2237 0.0539 0.2077
v 4.743305 4.714513 3.608966 0.1653 0.0364 0.1518
v 4.584993 4.739884 4.880998 0.1230 0.0255 0.1126
v 4.737595 4.612021 5.290612 0.0279 0.0224 0.0267
v 3.277291 4.822968 -4.914141 0.4737 0.5536 0.6030
v 3.811082 4.898987 -4.031348 0.4930 0.5515 0.5897
v 3.442729 4.759015 -3.369818 0.3452 0.2454 0.3359
v 3.443112 4.910064 -2.305572 0.5449 0.4149 0.3778
v 3.442527 4.991756 -1.466217 0.5309 0.3570 0.3460
v 4.087577 4.833267 -0.634132 0.4793 0.2225 0.2803
v 3.276842 5.101460 -0.589704 0.4262 0.1944 0.2356
v 3.305842 5.143085 0.278473 0.4254 0.1568 0.2302
v 3.351231 5.201740 1.871448 0.3895 0.1363 0.2201
v 3.738086 5.115667 2.692992 0.2836 0.0876 0.1878
v 3.732286 5.119750 2.797182 0.5544 0.1684 0.2878
v 4.653560 4.758218 3.713912 0.5000 0.1629 0.2127
v 4.541605 4.754022 4.958013 0.2545 0.1496 0.1424
v 4.400806 4.796171 5.290513 0.4620 0.4465 0.4017
v 3.292016 5.357388 -2.084050 0.7362 0.3514 0.4052
v 3.498393 5.366061 -1.421194 0.7271 0.2756 0.3520
v 3.557563 5.413902 -0.578668 0.6797 0.2296 0.3460
v 3.377355 5.506103 0.238801 0.5731 0.1870 0.3152
v 3.403725 5.549598 1.089836 0.5649 0.1994 0.3080
v 3.540073 5.570143 1.970387 0.6809 0.2571 0.3456
v 3.677747 5.583065 2.769995 0.7229 0.2954 0.3390
v 3.383874 5.681160 3.659699 0.7342 0.3224 0.3224
v 4.672444 5.373378 5.282536 0.7720 0.3602 0.3057
v 4.410000 5.350044 5.360159 0.4065 0.3711 0.3218
v 4.962338 1.180469 -2.292208 0.3130 0.3654 0.5279
v 4.823045 1.001880 -1.526289 0.3160 0.3865 0.5257
v 4.825428 0.959950 -1.196502 0.2482 0.3148 0.3956
v 4.803824 0.822574 0.062846 0.2432 0.3260 0.4177
v 4.850494 0.822321 0.305783 0.3578 0.4403 0.5228
v 4.812389 0.737848 1.906970 0.3013 0.3974 0.5288
v 5.776467 1.167958 2.675775 0.5705 0.4294 0.4434
v 5.315201 0.928274 3.509309 0.5965 0.4127 0.4205
v 5.321338 0.931028 3.659698 0.6120 0.1206 0.2087
v 4.835342 0.741729 4.504218 0.4138 0.0775 0.1850
v 5.588683 1.068578 5.292333 0.3727 0.2323 0.2754
v 5.115771 1.710527 -4.001511 0.2364 0.1958 0.3663
v 5.248297 1.523405 -3.151641 0.3069 0.1974 0.3354
v 5.320866 1.377287 -2.296717 0.4495 0.3034 0.4352
v 5.199041 1.192412 -1.614192 0.4349 0.3811 0.4988
v 5.463981 1.201548 -0.626739 0.4508 0.3057 0.4345
v 5.554602 1.192333 -0.085710 0.4049 0.2906 0.4021
v 5.628970 1.192779 0.367329 0.3174 0.2821 0.3796
v 5.765272 1.221149 1.086640 0.4137 0.3281 0.4401
v 5.813786 1.188390 2.739191 0.3060 0.3470 0.4613
v 5.847126 1.205167 2.914848 0.3641 0.3215 0.4251
v 5.985002 1.245191 4.010281 0.3676 0.2697 0.3683
v 5.244610 1.702876 5.276021 0.1742 0.3516 0.5015
v 4.835927 1.376062 5.347933 0.4366 0.4687 0.5189
v 5.239215 2.361104 -4.853326 0.3453 0.3246 0.5156
v 5.669143 2.268885 -3.997857 0.4938 0.2301 0.3816
v 6.033876 2.284220 -3.151690 0.4737 0.1734 0.3173
v 6.105118 2.165904 -2.661939 0.2909 0.3554 0.5180
v 6.164671 2.115738 -2.288319 0.4793 0.4402 0.5432
v 6.278470 2.007406 -1.399965 0.4359 0.4191 0.5317
v 6.321589 1.878266 -0.603973 0.2705 0.3927 0.5010
v 5.377046 1.801889 0.262173 0.1749 0.3049 0.4211
v 5.467488 1.821866 1.078911 0.0912 0.4914 0.6111
v 5.913242 2.344466 2.753992 0.0970 0.5529 0.6821
v 5.931295 2.361278 3.391519 0.0579 0.5127 0.6643
v 5.927877 2.373780 3.849091 0.0268 0.4344 0.5831
v 5.337682 1.783887 5.280913 0.0084 0.2289 0.3254
v 5.425088 1.870266 5.303951 0.5979 0.6176 0.6149
v 5.284739 2.963351 -5.070414 0.3162 0.2712 0.4466
v 4.810591 2.797107 -4.429246 0.5866 0.1472 0.2565
v 6.028143 2.380163 -3.321042 0.3716 0.1165 0.2259
v 5.564808 2.845096 -2.365743 0.3440 0.3482 0.4886
v 5.726425 2.965274 -1.562641 0.3221 0.5060 0.6190
v 5.834874 2.944466 -0.682896 0.1294 0.5547 0.6749
v 5.917626 2.917250 0.172610 0.2277 0.3536 0.4890
v 5.991004 2.908350 1.056282 0.3137 0.3011 0.4411
v 6.055682 2.949921 1.897062 0.2729 0.5273 0.6548
v 6.097115 2.963350 2.731945 0.2436 0.5657 0.7032
v 6.091517 2.900997 2.814844 0.2485 0.3244 0.4127
v 6.019938 2.582305 3.657061 0.0905 0.2721 0.3677
v 6.054806 2.965912 4.580206 0.0139 0.1518 0.2185
v 5.784359 2.442910 5.288432 0.3129 0.3136 0.2997
v 5.247668 2.994371 -5.127005 0.2880 0.1878 0.3523
v 5.034592 3.152650 -4.033430 0.5194 0.0925 0.1954
v 5.183822 3.562197 -3.332128 0.3682 0.0542 0.1419
v 5.598552 3.013080 -2.304222 0.2935 0.1315 0.2542
v 5.734990 3.055439 -1.529918 0.3154 0.2358 0.3847
v 5.846968 2.995323 -0.612135 0.3005 0.3167 0.4893
v 5.902632 3.296573 0.188601 0.3844 0.2844 0.4790
v 5.987048 3.210527 0.981992 0.5887 0.2107 0.3652
v 6.043722 3.166716 1.637490 0.6365 0.1950 0.3294
v 6.066316 3.127068 1.956403 0.4250 0.1551 0.2331
v 6.105118 3.019313 2.856188 0.2899 0.3075 0.4254
v 6.058380 3.437743 3.757002 0.2197 0.4116 0.5630
v 6.047814 3.318622 4.488972 0.0845 0.1485 0.2013
v 6.285911 3.040094 5.360753 0.3448 0.3454 0.3336
v 4.827451 3.568641 -5.474950 0.3156 0.2223 0.4014
v 4.850967 3.662048 -3.991144 0.3901 0.1939 0.3353
v 4.824304 4.050455 -3.193084 0.4351 0.0950 0.1837
v 4.825158 4.115091 -2.963895 0.4675 0.1945 0.3248
v 5.001680 4.156322 -2.144642 0.4387 0.2634 0.4218
v 5.567461 3.663211 -1.422272 0.4166 0.2966 0.4488
v 5.577375 3.825730 -0.504997 0.4617 0.3168 0.4253
v 5.886175 3.567057 1.010529 0.4215 0.1641 0.3691
v 5.916322 3.569610 1.387481 0.4611 0.1577 0.3344
v 5.930058 3.624856 1.939892 0.3843 0.1520 0.2925
v 5.587177 4.139832 3.598091 0.3354 0.2119 0.3391
v 5.581467 4.138853 3.854034 0.2048 0.2551 0.3863
v 5.837054 3.801923 4.445361 0.1339 0.1757 0.2493
v 5.891908 3.593670 5.345927 0.1742 0.1760 0.1740
v 4.822708 4.438180 -4.039535 0.4758 0.3133 0.4763
v 4.821337 4.688880 -3.141161 0.3888 0.3124 0.4679
v 4.811625 4.255447 -2.375701 0.5418 0.4517 0.4680
v 4.804858 4.293688 -2.191188 0.6239 0.1606 0.2497
v 4.967509 4.289806 -1.442944 0.5471 0.3370 0.3740
v 5.087827 4.293907 -0.599316 0.5710 0.3931 0.4164
v 4.994171 4.433415 0.247261 0.5080 0.2488 0.3500
v 5.093245 4.424708 1.091161 0.5843 0.1990 0.3124
v 5.547903 4.163027 2.759257 0.5958 0.1829 0.2703
v 4.810793 4.679577 3.402394 0.6499 0.1787 0.2356
v 5.441994 4.264819 3.601720 0.7517 0.1924 0.2035
v 4.811535 4.605805 4.962881 0.4919 0.1306 0.1447
v 5.049250 4.408952 5.290513 0.5645 0.4225 0.4061
v 4.812254 4.766822 -2.756555 0.7340 0.6348 0.5146
v 5.107138 4.754783 -1.877825 0.7930 0.6672 0.5220
v 5.336940 4.761401 -0.759056 0.7629 0.5919 0.4831
v 4.811445 5.084080 0.233983 0.7423 0.4677 0.4235
v 4.806319 5.144728 1.064891 0.7061 0.3199 0.3711
v 4.808342 5.167591 1.422769 0.8324 0.2532 0.2845
v 4.918387 5.204975 2.686651 0.8092 0.2443 0.2935
v 4.823113 5.255517 2.940772 0.8639 0.2365 0.2522
v 4.843143 5.280608 3.637962 0.8635 0.2651 0.2671
v 5.301712 5.124847 5.225289 0.8793 0.2796 0.2521
v 4.839816 5.134761 5.359973 0.7401 0.3750 0.3304
v 6.565643 0.817267 3.686662 0.6313 0.0225 0.0955
v 6.343890 0.734796 4.721541 0.5626 0.0187 0.1318
v 6.804325 1.159905 5.354238 0.4638 0.1821 0.3040
v 6.358098 1.781238 0.202374 0.6351 0.2550 0.3657
v 6.436400 1.755937 1.075765 0.6711 0.2705 0.3843
v 6.516679 1.766542 1.856745 0.6821 0.2806 0.3945
v 6.518029 1.754931 2.010801 0.6560 0.2617 0.3611
v 6.446111 1.639841 2.795373 0.6986 0.2015 0.2751
v 7.112271 1.236641 3.926466 0.7344 0.1227 0.1678
v 6.876624 1.238180 5.252785 0.7681 0.1157 0.1390
v 6.837215 1.467512 5.348144 0.6104 0.3340 0.3819
v 6.340248 2.150473 -1.572005 0.7257 0.3051 0.3798
v 6.350499 2.127619 -1.446487 0.5404 0.2235 0.3495
v 6.534822 1.999738 0.202745 0.5506 0.2240 0.3386
v 6.520052 1.855569 1.032278 0.4969 0.2029 0.2991
v 6.536867 1.790715 1.829558 0.6668 0.2787 0.3891
v 6.549951 1.784263 2.063317 0.4289 0.3307 0.5131
v 6.610606 1.795611 2.900678 0.4191 0.2521 0.3989
v 7.126523 1.803209 3.995133 0.6562 0.1738 0.2295
v 7.100400 2.147368 4.482878 0.8831 0.1710 0.1614
v 6.944202 2.152229 5.288655 0.6513 0.3857 0.4120
v 6.421765 2.955036 -2.359364 0.6826 0.2936 0.3913
v 6.465625 2.437026 -1.532024 0.7255 0.2919 0.3742
v 6.692167 2.925398 -0.631036 0.5868 0.2360 0.3603
v 6.781889 2.967189 0.133521 0.4954 0.2326 0.3496
v 6.800773 2.476867 1.065250 0.5168 0.2554 0.4066
v 6.974192 2.815449 1.866518 0.5294 0.2739 0.4356
v 7.071670 2.937769 2.648601 0.4439 0.3069 0.4658
v 7.144688 2.942883 3.574533 0.4936 0.2179 0.3199
v 7.164337 2.845681 4.397192 0.8056 0.1837 0.1882
v 7.094398 2.440864 4.503649 0.9143 0.2061 0.1897
v 7.107280 2.674287 5.326753 0.8116 0.4665 0.4405
v 6.430757 3.142796 -2.298104 0.6521 0.2524 0.3678
v 6.552087 3.127068 -1.533534 0.6362 0.3052 0.4285
v 6.653185 3.121857 -0.798208 0.5643 0.3816 0.5176
v 6.679173 3.121621 -0.593433 0.4280 0.4854 0.6581
v 6.779933 3.121954 0.302031 0.3661 0.4054 0.6054
v 6.954026 3.146494 1.847679 0.3223 0.4140 0.5641
v 7.008183 3.134683 2.569901 0.3058 0.4596 0.5947
v 7.129424 3.188687 3.550480 0.3852 0.4837 0.6330
v 7.152444 3.198426 4.303741 0.8094 0.2430 0.2657
v 7.113552 3.412677 5.284109 0.9068 0.2156 0.2020
v 7.126681 3.265475 5.323149 0.7452 0.6759 0.6503
v 6.341080 3.568588 -2.354422 0.7051 0.2377 0.3478
v 6.375026 3.567504 -2.200948 0.4896 0.2990 0.4602
v 6.518973 3.567915 -1.412772 0.4989 0.4743 0.5751
v 6.681196 3.567704 -0.269504 0.6270 0.6091 0.5951
v 6.800997 3.568343 0.805778 0.4621 0.5682 0.6607
v 6.770468 3.702658 1.082689 0.5467 0.6008 0.5983
v 6.804977 3.801548 1.939867 0.4830 0.5095 0.5286
v 6.994402 3.566847 2.760284 0.7653 0.3410 0.3335
v 7.052898 3.567057 3.652453 0.8139 0.2587 0.2817
v 6.945348 3.838215 5.044083 0.9029 0.2264 0.2155
v 6.769794 3.600953 5.360035 0.7456 0.6145 0.5937
v 6.339979 4.162293 0.231369 0.7587 0.6819 0.5792
v 6.390201 4.209425 1.058859 0.6884 0.5984 0.5163
v 6.454969 4.169986 1.301201 0.6397 0.3739 0.3978
v 6.535698 4.177418 2.122770 0.8185 0.3890 0.3775
v 6.494356 4.285102 2.775433 0.8826 0.3115 0.2617
v 6.676475 4.168806 3.639770 0.9075 0.2357 0.2153
v 6.482328 4.397674 5.283701 0.9119 0.2384 0.2157
v 6.412547 4.170764 5.360122 0.8310 0.3732 0.3527
f 681 593 680
f 537 552 551
f 537 538 552
f 537 655 538
f 654 641 655
f 641 642 655
f 537 654 655
f 405 404 472
f 404 471 472
f 404 403 471
f 471 403 470
f 473 406 472
f 406 405 472
f 357 405 406
f 358 357 406
f 551 552 460
f 354 401 402
f 353 401 354
f 352 347 351
f 299 348 352
f 348 347 352
f 352 401 353
f 355 354 402
f 355 402 403
f 352 400 401
f 352 351 399
f 352 399 400
f 351 347 394
f 351 394 399
f 311 310 355
f 356 311 355
f 309 308 353
f 309 353 354
f 308 307 352
f 352 353 308
f 405 357 404
f 357 356 405
f 357 356 404
f 309 354 310
f 310 354 355
f 356 355 403
f 356 403 404
f 459 550 460
f 460 550 551
f 473 472 459
f 459 460 473
f 572 571 584
f 572 584 585
f 620 606 607
f 620 607 621
f 653 641 654
f 640 626 641
f 638 624 639
f 624 625 639
f 639 625 640
f 640 625 626
f 621 608 622
f 621 607 608
f 623 609 610
f 624 623 610
f 622 608 609
f 623 622 609
f 611 598 612
f 626 611 612
f 611 626 625
f 641 627 628
f 641 628 642
f 626 627 641
f 625 624 611
f 624 610 611
f 613 612 599
f 598 599 612
f 612 613 626
f 626 613 627
f 117 116 131
f 116 130 131
f 116 115 130
f 115 129 130
f 218 102 103
f 219 218 103
f 101 102 217
f 218 217 102
f 102 116 117
f 102 117 103
f 104 117 118
f 103 117 104
f 116 101 115
f 102 101 116
f 105 104 119
f 104 118 119
f 105 120 106
f 105 119 120
f 114 127 128
f 113 127 114
f 115 128 129
f 114 128 115
f 101 114 115
f 101 100 114
f 217 216 101
f 216 100 101
f 99 113 100
f 100 113 114
f 216 215 100
f 122 107 121
f 108 107 122
f 107 120 121
f 107 106 120
f 112 125 126
f 111 125 112
f 113 112 127
f 112 126 127
f 215 223 113
f 99 215 113
f 215 99 100
f 215 222 223
f 215 214 222
f 113 222 112
f 222 113 223
f 455 396 454
f 400 396 401
f 396 455 401
f 401 455 468
f 396 395 454
f 400 395 396
f 400 394 395
f 395 394 453
f 395 453 454
f 455 454 546
f 545 546 454
f 402 401 468
f 469 468 455
f 402 468 469
f 469 455 456
f 471 458 472
f 472 458 459
f 458 550 459
f 550 458 549
f 471 470 458
f 458 470 457
f 458 457 549
f 457 548 549
f 456 455 547
f 546 547 455
f 548 457 547
f 457 456 547
f 470 456 457
f 403 469 470
f 470 469 456
f 403 402 469
f 650 638 651
f 534 533 651
f 650 651 533
f 650 637 638
f 620 621 634
f 634 621 635
f 647 634 648
f 648 635 636
f 648 636 649
f 633 620 634
f 619 620 633
f 525 634 526
f 526 633 634
f 525 633 526
f 531 648 532
f 532 648 649
f 649 637 650
f 649 636 637
f 634 635 648
f 533 532 649
f 533 649 650
f 530 526 634
f 530 634 647
f 530 647 648
f 531 530 648
f 453 543 544
f 523 521 522
f 523 522 524
f 524 529 528
f 529 524 525
f 619 605 620
f 605 606 620
f 544 530 545
f 525 524 633
f 524 632 633
f 632 619 633
f 618 619 632
f 524 522 632
f 522 618 632
f 522 520 604
f 522 604 618
f 618 604 605
f 618 605 619
f 543 529 544
f 529 530 544
f 529 525 526
f 529 526 530
f 521 519 520
f 521 520 522
f 448 447 528
f 447 527 528
f 543 452 529
f 448 528 449
f 528 529 449
f 449 529 452
f 527 523 528
f 523 524 528
f 452 543 453
f 545 530 531
f 651 638 652
f 638 639 652
f 641 653 640
f 652 639 653
f 639 640 653
f 622 623 636
f 636 623 637
f 623 624 637
f 637 624 638
f 635 621 636
f 636 621 622
f 399 394 400
f 545 453 544
f 454 453 545
f 394 452 453
f 393 452 394
f 451 449 452
f 451 448 449
f 451 450 448
f 448 450 447
f 392 391 450
f 450 451 392
f 342 389 390
f 447 523 527
f 447 446 523
f 389 446 390
f 390 446 447
f 391 390 450
f 450 390 447
f 393 451 452
f 393 392 451
f 392 344 391
f 345 344 392
f 346 345 393
f 345 392 393
f 347 346 393
f 347 393 394
f 549 535 550
f 536 550 535
f 536 535 653
f 652 653 535
f 534 652 535
f 652 534 651
f 547 533 534
f 547 534 548
f 548 534 549
f 549 534 535
f 550 536 551
f 536 537 551
f 536 654 537
f 536 653 654
f 531 532 546
f 545 531 546
f 546 532 547
f 547 532 533
f 579 578 593
f 593 578 592
f 592 578 591
f 578 577 591
f 576 591 577
f 591 576 590
f 503 502 577
f 577 502 576
f 484 483 498
f 483 497 498
f 498 497 573
f 573 497 572
f 504 577 578
f 430 429 490
f 491 430 490
f 416 429 430
f 419 418 479
f 419 479 480
f 418 417 479
f 417 478 479
f 417 416 478
f 416 477 478
f 490 566 491
f 490 565 566
f 416 430 491
f 504 503 577
f 489 503 490
f 490 503 504
f 490 504 578
f 565 490 578
f 565 579 566
f 565 578 579
f 568 580 581
f 567 580 568
f 566 580 567
f 566 579 580
f 478 477 492
f 477 491 492
f 477 416 491
f 492 491 567
f 491 566 567
f 421 420 482
f 420 481 482
f 421 482 422
f 422 482 483
f 423 422 484
f 422 483 484
f 322 321 367
f 579 593 594
f 580 579 594
f 480 479 494
f 479 493 494
f 495 494 570
f 494 569 570
f 481 495 496
f 496 495 570
f 496 570 571
f 482 481 496
f 495 480 494
f 481 480 495
f 570 583 584
f 571 570 584
f 569 568 581
f 582 569 581
f 570 569 582
f 570 582 583
f 581 580 594
f 492 567 493
f 493 567 568
f 494 493 569
f 493 568 569
f 479 478 492
f 479 492 493
f 502 488 501
f 489 428 427
f 427 488 489
f 322 367 368
f 429 428 490
f 428 489 490
f 415 414 428
f 415 428 429
f 415 429 416
f 370 369 416
f 370 416 417
f 489 488 502
f 489 502 503
f 368 367 415
f 415 367 414
f 416 369 368
f 368 415 416
f 496 571 572
f 497 496 572
f 483 482 497
f 482 496 497
f 420 419 481
f 481 419 480
f 350 304 305
f 349 304 350
f 296 304 345
f 345 304 349
f 344 295 345
f 345 295 296
f 351 307 352
f 306 307 351
f 351 350 306
f 350 305 306
f 355 309 310
f 354 309 355
f 253 254 311
f 310 253 311
f 356 312 357
f 356 311 312
f 312 255 313
f 313 255 256
f 313 256 257
f 314 313 257
f 311 254 255
f 311 255 312
f 605 590 604
f 591 590 605
f 516 515 590
f 501 516 502
f 501 515 516
f 576 502 516
f 576 516 590
f 590 515 589
f 590 589 603
f 590 603 604
f 617 521 523
f 617 523 631
f 617 631 632
f 631 523 632
f 524 632 523
f 594 593 681
f 676 686 687
f 677 676 687
f 586 585 677
f 585 676 677
f 676 675 686
f 675 685 686
f 585 584 676
f 584 675 676
f 573 572 585
f 573 585 586
f 675 684 685
f 674 684 675
f 669 573 586
f 669 586 677
f 614 615 629
f 614 629 628
f 613 614 627
f 627 614 628
f 599 600 613
f 613 600 614
f 675 583 674
f 584 583 675
f 674 673 684
f 673 683 684
f 583 582 674
f 674 582 673
f 595 594 682
f 594 681 682
f 581 682 672
f 673 672 683
f 581 672 582
f 582 672 673
f 672 682 683
f 581 595 682
f 581 594 595
f 60 48 61
f 48 49 61
f 204 203 190
f 203 189 190
f 87 204 88
f 204 87 203
f 262 263 189
f 202 189 203
f 202 188 189
f 90 89 205
f 90 205 206
f 88 204 205
f 88 205 89
f 11 12 24
f 11 24 23
f 3 2 13
f 13 2 12
f 12 109 110
f 13 12 110
f 24 12 13
f 24 13 25
f 12 11 2
f 123 108 122
f 109 108 123
f 106 105 91
f 91 92 106
f 9 106 10
f 10 106 107
f 106 92 107
f 107 92 93
f 2 1 11
f 108 94 109
f 108 109 11
f 11 109 12
f 94 95 109
f 10 107 11
f 107 108 11
f 107 94 108
f 93 94 107
f 331 270 330
f 329 328 375
f 328 327 373
f 328 374 375
f 328 373 374
f 376 423 377
f 374 420 421
f 373 420 374
f 373 419 420
f 373 372 419
f 375 422 376
f 376 422 423
f 375 374 422
f 422 374 421
f 330 329 376
f 329 375 376
f 331 330 376
f 331 376 377
f 196 270 271
f 196 195 269
f 196 269 270
f 205 204 191
f 191 204 190
f 109 96 110
f 109 95 96
f 268 267 328
f 267 327 328
f 267 266 326
f 267 326 327
f 269 268 329
f 329 268 328
f 194 269 195
f 269 194 268
f 191 265 192
f 192 265 266
f 194 193 268
f 193 267 268
f 193 266 267
f 192 266 193
f 190 264 191
f 191 264 265
f 265 264 325
f 264 324 325
f 266 265 325
f 266 325 326
f 264 323 324
f 263 323 264
f 189 263 190
f 263 264 190
f 206 192 193
f 91 90 207
f 207 90 206
f 207 206 193
f 92 91 193
f 92 193 208
f 91 207 193
f 208 193 194
f 92 208 194
f 324 323 370
f 323 369 370
f 323 322 369
f 369 322 368
f 80 92 194
f 196 197 82
f 83 82 197
f 95 82 83
f 95 94 82
f 82 195 196
f 93 81 94
f 94 81 82
f 82 81 195
f 93 92 80
f 195 80 194
f 93 80 81
f 81 80 195
f 206 205 192
f 192 205 191
f 263 262 323
f 371 370 418
f 370 417 418
f 372 371 419
f 419 371 418
f 326 373 327
f 326 372 373
f 325 324 371
f 371 324 370
f 325 371 372
f 326 325 372
f 270 269 330
f 269 329 330
f 589 515 603
f 603 515 519
f 521 446 523
f 521 445 446
f 444 445 521
f 527 446 447
f 523 446 527
f 519 444 521
f 603 519 617
f 617 519 521
f 273 287 338
f 289 287 221
f 287 213 221
f 333 273 338
f 380 426 427
f 380 379 426
f 379 385 440
f 426 379 440
f 385 333 338
f 333 385 379
f 338 287 289
f 338 289 339
f 320 380 366
f 321 320 366
f 367 321 366
f 320 334 380
f 274 273 333
f 274 333 334
f 334 333 380
f 380 333 379
f 290 291 341
f 341 291 342
f 291 292 342
f 447 389 390
f 446 389 447
f 343 344 391
f 389 342 343
f 389 343 390
f 390 343 391
f 447 391 450
f 390 391 447
f 342 292 343
f 388 341 342
f 388 342 389
f 343 293 295
f 343 295 344
f 261 320 321
f 260 320 261
f 275 274 261
f 261 274 260
f 260 274 320
f 320 274 334
f 290 225 291
f 290 224 225
f 221 224 290
f 221 290 289
f 86 202 87
f 87 202 203
f 214 200 201
f 214 213 200
f 213 199 200
f 199 274 200
f 199 273 274
f 201 274 275
f 201 200 274
f 444 388 445
f 387 388 444
f 388 389 445
f 445 389 446
f 340 341 388
f 385 339 386
f 443 386 444
f 386 387 444
f 338 339 385
f 443 385 386
f 440 385 443
f 386 339 387
f 341 340 290
f 289 290 340
f 339 289 340
f 519 443 444
f 515 443 519
f 440 443 515
f 501 440 515
f 387 340 388
f 387 339 340
f 488 487 501
f 427 487 488
f 426 487 427
f 426 440 487
f 440 501 487
f 367 380 428
f 414 367 428
f 380 427 428
f 367 366 380
f 262 275 261
f 202 201 275
f 275 276 202
f 275 262 276
f 202 276 262
f 188 202 262
f 188 262 189
f 213 273 199
f 213 287 273
f 261 322 262
f 321 322 261
f 262 322 323
f 270 331 271
f 271 197 196
f 270 284 285
f 271 270 285
f 284 211 285
f 331 330 271
f 270 271 330
f 208 207 92
f 207 91 92
f 90 104 105
f 91 90 105
f 105 106 92
f 91 105 92
f 95 108 109
f 95 94 108
f 210 94 95
f 210 95 211
f 92 93 209
f 208 92 209
f 93 107 108
f 93 108 94
f 210 209 94
f 209 93 94
f 284 210 211
f 208 209 282
f 268 283 269
f 282 209 283
f 268 282 283
f 283 209 210
f 269 284 270
f 283 210 284
f 269 283 284
f 281 208 282
f 281 207 208
f 96 95 83
f 96 83 198
f 198 83 197
f 84 96 198
f 96 198 212
f 211 95 212
f 95 96 212
f 110 95 109
f 96 95 110
f 218 219 205
f 204 218 205
f 205 219 206
f 204 203 217
f 204 217 218
f 220 104 206
f 219 103 220
f 206 219 220
f 220 103 104
f 104 90 206
f 240 239 300
f 239 299 300
f 232 231 239
f 231 238 239
f 159 231 160
f 231 232 160
f 237 297 298
f 238 237 298
f 239 298 299
f 239 238 298
f 158 229 230
f 231 230 238
f 230 237 238
f 158 230 159
f 159 230 231
f 161 233 162
f 162 233 234
f 234 241 162
f 234 233 240
f 234 240 241
f 161 232 233
f 233 239 240
f 161 160 232
f 233 232 239
f 300 308 309
f 301 300 309
f 240 300 241
f 241 300 301
f 299 298 348
f 299 352 307
f 348 298 347
f 343 342 390
f 146 145 160
f 145 159 160
f 138 137 145
f 137 144 145
f 137 143 144
f 137 136 143
f 136 135 142
f 143 136 142
f 145 144 159
f 144 158 159
f 127 126 137
f 137 126 136
f 126 135 136
f 126 125 135
f 128 137 138
f 128 127 137
f 236 296 297
f 297 346 347
f 298 297 347
f 297 296 345
f 297 345 346
f 343 293 292
f 228 292 293
f 293 343 344
f 295 293 344
f 135 225 226
f 300 299 308
f 308 299 307
f 237 236 297
f 230 229 236
f 230 236 237
f 236 229 296
f 229 294 296
f 294 293 296
f 296 293 295
f 228 293 294
f 228 294 229
f 157 143 229
f 143 227 229
f 144 143 158
f 143 157 158
f 157 229 158
f 227 226 228
f 229 227 228
f 142 226 143
f 143 142 227
f 142 226 227
f 135 226 142
f 362 411 410
f 405 410 406
f 405 357 362
f 405 362 410
f 357 312 358
f 312 313 358
f 358 313 314
f 357 358 362
f 358 314 359
f 359 314 363
f 359 363 362
f 358 359 362
f 363 411 362
f 314 317 363
f 408 407 475
f 407 474 475
f 474 406 473
f 407 406 474
f 359 358 407
f 358 406 407
f 359 407 408
f 461 460 552
f 473 460 461
f 474 473 461
f 407 411 408
f 411 412 408
f 411 363 364
f 412 411 364
f 315 360 361
f 316 315 361
f 315 314 360
f 360 314 359
f 314 313 359
f 313 358 359
f 359 408 360
f 247 246 257
f 247 257 258
f 257 314 258
f 258 314 315
f 244 243 255
f 243 254 255
f 255 254 312
f 254 311 312
f 243 311 254
f 243 303 311
f 245 244 256
f 256 244 255
f 256 255 312
f 256 312 313
f 257 256 314
f 246 245 256
f 246 256 257
f 256 313 314
f 241 301 242
f 242 301 302
f 243 242 302
f 243 302 303
f 302 310 303
f 303 310 311
f 302 301 310
f 310 301 309
f 179 180 186
f 185 179 186
f 257 184 185
f 258 257 186
f 257 185 258
f 185 186 258
f 256 184 257
f 77 72 73
f 77 73 78
f 179 77 180
f 77 78 180
f 315 258 259
f 315 259 316
f 257 258 315
f 314 257 315
f 318 315 316
f 318 316 319
f 319 316 365
f 316 361 365
f 314 315 317
f 315 318 317
f 365 318 319
f 364 318 365
f 363 318 364
f 363 317 318
f 312 311 357
f 311 356 357
f 305 296 297
f 306 249 250
f 306 250 307
f 307 250 308
f 236 237 296
f 296 237 297
f 238 249 306
f 237 238 305
f 305 238 306
f 297 237 305
f 304 296 305
f 235 236 295
f 295 236 296
f 236 228 229
f 235 228 236
f 160 161 172
f 172 161 173
f 160 65 66
f 161 160 66
f 173 162 174
f 173 161 162
f 162 68 163
f 162 67 68
f 67 56 57
f 67 57 68
f 68 57 58
f 68 58 69
f 58 59 69
f 66 55 56
f 161 66 67
f 162 161 67
f 66 56 67
f 157 143 144
f 157 144 158
f 71 61 72
f 71 60 61
f 70 59 60
f 70 60 71
f 76 71 72
f 76 72 77
f 178 76 77
f 179 178 77
f 177 76 178
f 178 71 76
f 177 75 76
f 75 70 71
f 75 71 76
f 178 179 185
f 178 185 184
f 177 178 184
f 183 177 184
f 69 59 70
f 165 70 177
f 177 70 75
f 163 69 164
f 68 69 163
f 69 70 165
f 164 165 177
f 164 177 176
f 164 69 165
f 176 163 164
f 163 176 175
f 171 160 172
f 159 160 171
f 171 158 159
f 158 171 170
f 238 171 172
f 239 238 172
f 240 239 173
f 172 173 239
f 250 251 308
f 170 171 238
f 237 170 238
f 237 158 230
f 158 170 237
f 229 158 237
f 236 229 237
f 239 240 251
f 239 251 250
f 308 251 309
f 309 251 252
f 249 238 239
f 249 239 250
f 142 143 157
f 293 228 295
f 228 235 295
f 226 228 293
f 292 226 293
f 156 142 157
f 228 142 156
f 226 142 228
f 291 225 292
f 225 226 292
f 176 177 182
f 183 182 177
f 254 176 182
f 254 182 183
f 254 183 255
f 241 174 175
f 241 175 242
f 241 242 252
f 252 242 253
f 243 176 254
f 175 176 243
f 242 175 243
f 242 243 254
f 253 242 254
f 255 184 256
f 255 183 184
f 174 162 163
f 174 163 175
f 240 174 241
f 173 174 240
f 228 157 229
f 228 156 157
f 252 251 241
f 240 241 251
f 310 309 253
f 309 252 253
f 520 516 604
f 590 516 591
f 516 590 604
f 516 517 591
f 590 591 604
f 591 605 604
f 517 503 504
f 517 504 518
f 517 518 592
f 591 517 592
f 592 504 578
f 518 504 592
f 592 578 579
f 578 504 579
f 592 579 593
f 504 505 579
f 606 592 607
f 592 593 607
f 605 592 606
f 605 591 592
f 580 506 581
f 506 507 581
f 505 491 492
f 505 492 506
f 580 505 506
f 579 505 580
f 504 490 505
f 490 491 505
f 516 502 517
f 502 503 517
f 492 493 506
f 506 493 507
f 610 597 611
f 611 597 598
f 515 516 519
f 519 516 520
f 595 581 582
f 595 582 596
f 608 594 595
f 610 596 597
f 609 608 595
f 609 595 596
f 609 596 610
f 607 593 594
f 608 607 594
f 409 408 475
f 409 475 476
f 360 408 409
f 361 360 409
f 475 461 462
f 474 461 475
f 462 552 553
f 461 552 462
f 553 538 539
f 538 553 552
f 553 540 554
f 553 539 540
f 463 554 476
f 476 554 564
f 475 462 463
f 476 475 463
f 463 462 553
f 463 553 554
f 538 655 539
f 655 656 539
f 365 409 413
f 361 409 365
f 413 408 412
f 408 409 476
f 412 408 409
f 408 476 475
f 409 408 413
f 539 656 657
f 554 540 657
f 539 657 540
f 554 657 668
f 656 655 642
f 642 643 656
f 643 628 629
f 642 628 643
f 668 667 554
f 554 553 564
f 553 563 564
f 667 553 554
f 412 365 413
f 412 364 365
f 10 11 23
f 10 23 22
f 8 105 9
f 105 106 9
f 90 91 104
f 104 91 105
f 21 10 22
f 21 9 10
f 22 23 35
f 23 36 35
f 48 34 35
f 34 48 47
f 46 33 47
f 47 33 34
f 59 47 48
f 54 55 66
f 65 54 66
f 144 52 53
f 144 53 145
f 136 39 40
f 143 144 52
f 143 136 144
f 144 40 52
f 136 40 144
f 145 53 159
f 52 40 53
f 40 41 53
f 64 53 65
f 53 54 65
f 159 53 64
f 159 65 160
f 159 64 65
f 44 45 56
f 56 45 57
f 55 43 44
f 55 44 56
f 42 43 55
f 54 42 55
f 41 42 54
f 53 41 54
f 46 47 59
f 58 46 59
f 45 46 58
f 45 58 57
f 59 48 60
f 27 28 41
f 101 88 102
f 101 87 88
f 101 102 5
f 101 5 4
f 115 100 101
f 15 114 100
f 16 101 4
f 15 115 16
f 115 101 16
f 100 115 15
f 28 16 29
f 28 15 16
f 29 17 30
f 16 17 29
f 16 5 17
f 16 4 5
f 30 31 44
f 30 44 43
f 29 30 43
f 42 29 43
f 42 28 29
f 41 28 42
f 44 31 45
f 31 32 45
f 103 89 104
f 104 89 90
f 104 105 7
f 7 105 8
f 19 7 20
f 7 8 20
f 33 20 34
f 34 20 21
f 20 32 19
f 22 35 21
f 34 21 35
f 18 7 19
f 18 6 7
f 6 104 7
f 6 103 104
f 20 9 21
f 8 9 20
f 31 17 18
f 30 17 31
f 32 31 19
f 18 19 31
f 33 32 20
f 6 18 17
f 17 5 6
f 32 33 45
f 45 33 46
f 136 126 39
f 125 111 126
f 111 112 126
f 126 26 39
f 40 27 41
f 39 26 40
f 40 26 27
f 100 87 101
f 100 86 87
f 14 113 15
f 113 114 15
f 14 15 28
f 27 14 28
f 27 127 113
f 113 14 27
f 126 27 26
f 127 27 126
f 112 98 113
f 113 98 99
f 221 97 111
f 112 111 98
f 111 97 98
f 111 213 97
f 221 213 97
f 225 135 142
f 225 142 226
f 125 135 225
f 125 225 224
f 224 111 125
f 221 111 224
f 201 86 85
f 201 202 86
f 215 214 201
f 99 86 100
f 99 85 86
f 85 99 201
f 215 201 99
f 98 214 99
f 214 215 99
f 98 97 213
f 213 214 98
f 6 5 102
f 102 103 6
f 102 88 89
f 102 89 103
f 355 356 404
f 355 404 403
f 475 476 564
f 563 475 564
f 474 407 408
f 474 408 475
f 475 408 412
f 406 410 407
f 407 410 411
f 407 473 406
f 473 407 474
f 561 473 562
f 562 473 474
f 647 529 530
f 542 452 543
f 392 397 451
f 464 451 397
f 647 530 544
f 542 451 452
f 345 349 397
f 392 345 397
f 542 450 451
f 541 450 542
f 344 345 391
f 391 345 392
f 466 398 399
f 465 398 466
f 464 397 398
f 464 398 465
f 451 465 452
f 451 464 465
f 397 350 398
f 397 349 350
f 556 468 469
f 556 469 557
f 545 467 555
f 453 466 544
f 466 467 545
f 544 466 545
f 555 467 556
f 467 468 556
f 545 555 546
f 555 556 546
f 469 401 402
f 468 401 469
f 467 399 400
f 467 466 399
f 467 401 468
f 467 400 401
f 453 452 466
f 452 465 466
f 405 406 473
f 405 473 472
f 404 405 471
f 405 472 471
f 552 562 563
f 666 563 667
f 667 553 563
f 666 552 563
f 664 551 665
f 664 550 551
f 551 561 562
f 665 551 666
f 666 551 552
f 552 551 562
f 474 475 562
f 562 475 563
f 551 560 561
f 551 550 560
f 664 549 550
f 663 549 664
f 559 560 549
f 549 560 550
f 663 662 549
f 662 548 549
f 548 558 559
f 549 548 559
f 471 559 470
f 559 558 470
f 661 547 548
f 662 661 548
f 547 557 548
f 557 558 548
f 469 470 557
f 558 557 470
f 546 556 557
f 546 557 547
f 471 472 559
f 560 559 472
f 561 472 473
f 560 472 561
f 398 351 399
f 350 351 398
f 528 529 646
f 646 645 528
f 632 524 528
f 632 528 645
f 529 528 542
f 529 542 543
f 542 527 541
f 527 542 528
f 527 450 541
f 447 450 527
f 602 588 689
f 689 588 679
f 575 574 671
f 671 574 670
f 574 573 670
f 573 669 670
f 671 670 678
f 671 678 679
f 588 671 679
f 575 671 588
f 499 500 514
f 498 573 574
f 498 574 499
f 424 485 486
f 500 575 588
f 514 500 588
f 499 574 500
f 500 574 575
f 486 485 500
f 485 499 500
f 499 484 498
f 485 484 499
f 499 438 500
f 438 439 500
f 425 486 500
f 439 425 500
f 669 677 670
f 670 677 678
f 678 688 679
f 679 688 689
f 678 677 688
f 677 687 688
f 425 378 377
f 425 377 424
f 424 377 423
f 272 271 332
f 271 331 332
f 378 331 377
f 332 331 378
f 425 424 486
f 423 484 485
f 424 423 485
f 212 272 198
f 212 272 286
f 197 271 272
f 198 197 272
f 285 211 286
f 211 212 286
f 271 285 272
f 285 286 272
f 331 271 272
f 331 272 332
f 377 331 332
f 377 332 378
f 507 493 494
f 507 494 508
f 507 508 582
f 581 507 582
f 495 434 435
f 495 435 496
f 496 435 436
f 496 435 497
f 435 436 497
f 436 437 497
f 497 437 498
f 509 510 584
f 508 494 495
f 508 495 509
f 511 497 498
f 511 498 512
f 601 587 588
f 601 588 602
f 513 514 588
f 513 588 587
f 513 499 514
f 498 437 499
f 437 438 499
f 511 585 584
f 510 511 584
f 495 496 510
f 509 495 510
f 511 496 497
f 510 496 511
f 434 420 421
f 434 421 435
f 436 421 422
f 435 421 436
f 375 376 423
f 422 375 423
f 421 375 422
f 374 375 421
f 438 424 425
f 438 425 439
f 424 378 425
f 437 423 424
f 437 424 438
f 582 583 597
f 596 582 597
f 598 584 599
f 597 583 584
f 597 584 598
f 583 509 584
f 508 509 583
f 582 508 583
f 584 585 599
f 511 512 586
f 585 511 586
f 498 499 512
f 512 499 513
f 512 513 586
f 586 513 587
f 600 586 587
f 600 587 601
f 599 585 600
f 600 585 586
f 422 423 437
f 422 437 436
f 494 432 433
f 493 432 494
f 495 433 434
f 494 433 495
f 424 377 378
f 615 600 601
f 600 615 614
f 268 269 328
f 269 329 328
f 327 267 268
f 327 268 328
f 267 282 268
f 282 267 281
f 387 443 444
f 387 386 443
f 291 340 341
f 225 224 291
f 224 290 291
f 292 291 341
f 292 341 342
f 445 388 387
f 387 444 445
f 373 374 421
f 420 373 421
f 420 372 373
f 372 420 419
f 433 419 420
f 433 420 434
f 382 383 430
f 429 382 430
f 433 432 419
f 418 419 432
f 432 417 418
f 431 417 432
f 417 371 418
f 417 370 371
f 383 369 384
f 383 384 430
f 384 369 370
f 431 370 417
f 384 370 431
f 430 384 431
f 374 329 375
f 374 328 329
f 336 368 382
f 383 368 369
f 382 368 383
f 369 368 323
f 381 335 382
f 368 322 323
f 336 322 368
f 335 336 382
f 369 324 370
f 369 323 324
f 380 334 335
f 380 335 381
f 379 333 334
f 379 334 380
f 440 502 501
f 326 327 372
f 372 327 373
f 326 265 266
f 265 326 325
f 427 379 380
f 426 379 427
f 370 325 371
f 370 324 325
f 381 382 429
f 381 429 428
f 427 380 381
f 427 381 428
f 489 429 490
f 489 428 429
f 502 442 503
f 502 441 442
f 503 442 428
f 503 428 489
f 489 490 504
f 504 503 489
f 492 431 432
f 492 432 493
f 440 426 427
f 440 441 502
f 440 427 441
f 441 427 428
f 441 428 442
f 491 430 492
f 430 431 492
f 277 203 204
f 277 204 278
f 278 204 205
f 279 278 205
f 205 206 280
f 279 205 280
f 279 280 265
f 265 280 266
f 202 217 203
f 216 217 202
f 264 278 265
f 265 278 279
f 266 280 281
f 266 281 267
f 280 206 207
f 280 207 281
f 228 226 292
f 226 225 291
f 226 291 292
f 336 337 323
f 322 336 323
f 276 203 277
f 276 277 336
f 277 337 336
f 276 202 203
f 334 275 335
f 274 275 334
f 201 215 202
f 264 277 278
f 263 277 264
f 335 275 336
f 336 275 276
f 323 277 263
f 337 277 323
f 202 215 216
f 274 214 200
f 288 214 274
f 324 264 265
f 325 324 265
f 386 338 385
f 338 386 339
f 386 385 440
f 443 386 440
f 288 274 273
f 287 288 273
f 214 221 222
f 213 221 214
f 288 213 214
f 213 288 287
f 287 338 339
f 287 339 289
f 221 213 289
f 289 213 287
f 273 333 287
f 287 333 338
f 340 386 387
f 340 339 386
f 291 290 340
f 290 289 339
f 290 339 340
f 224 221 125
f 111 221 125
f 222 111 112
f 222 221 111
f 680 593 607
f 680 607 691
f 691 607 606
f 691 606 690
f 690 701 691
f 691 701 702
f 690 606 701
f 606 620 701
f 603 617 604
f 604 617 618
f 682 692 693
f 682 681 692
f 691 703 692
f 703 691 702
f 681 680 691
f 681 691 692
f 618 617 632
f 646 647 634
f 633 646 634
f 616 602 700
f 602 689 700
f 688 687 698
f 688 698 699
f 689 688 700
f 688 699 700
f 687 686 697
f 698 687 697
f 686 685 696
f 686 696 697
f 666 667 655
f 655 667 656
f 657 656 668
f 656 667 668
f 655 665 666
f 655 654 665
f 629 630 644
f 630 711 722
f 643 629 644
f 644 630 722
f 630 700 711
f 630 616 700
f 729 655 656
f 729 728 655
f 730 656 657
f 729 656 730
f 657 644 722
f 657 722 730
f 656 644 657
f 656 643 644
f 721 729 730
f 722 721 730
f 711 710 722
f 629 615 630
f 615 616 630
f 647 544 658
f 724 650 651
f 715 723 724
f 715 650 723
f 724 723 650
f 716 715 724
f 715 637 650
f 714 636 637
f 714 637 715
f 714 635 636
f 713 635 714
f 636 635 649
f 635 648 649
f 653 652 663
f 653 663 664
f 725 651 652
f 724 651 725
f 665 653 664
f 654 653 665
f 616 601 602
f 615 601 616
f 648 647 659
f 647 658 659
f 660 546 547
f 661 660 547
f 649 659 660
f 648 659 649
f 660 545 546
f 659 545 660
f 659 658 544
f 544 545 659
f 650 649 661
f 660 661 649
f 721 720 729
f 729 720 728
f 710 721 722
f 706 705 716
f 706 716 717
f 718 706 717
f 707 706 718
f 717 716 724
f 724 725 717
f 726 717 725
f 717 726 718
f 727 726 654
f 726 653 654
f 708 718 719
f 707 718 708
f 726 652 653
f 726 725 652
f 727 718 726
f 719 718 727
f 704 715 716
f 705 704 716
f 709 708 720
f 708 719 720
f 709 720 721
f 710 709 721
f 727 654 655
f 655 728 727
f 728 719 727
f 719 728 720
f 632 645 646
f 633 632 646
f 646 529 647
f 662 663 652
f 652 651 662
f 650 661 662
f 650 662 651
f 697 696 707
f 697 707 708
f 698 697 709
f 697 708 709
f 699 698 710
f 698 709 710
f 700 710 711
f 700 699 710
f 701 634 712
f 701 620 634
f 712 634 635
f 712 635 713
f 695 705 706
f 694 705 695
f 683 693 694
f 683 682 693
f 683 694 684
f 695 684 694
f 696 695 706
f 696 706 707
f 685 684 696
f 684 695 696
f 702 713 714
f 703 702 714
f 702 701 713
f 701 712 713
f 703 714 715
f 704 703 715
f 694 693 705
f 705 693 704
f 693 692 704
f 704 692 703
f 693 703 704
f 32 131 31
f 132 131 32
f 118 131 132
f 118 117 131
f 119 133 33
f 20 119 33
f 120 20 21
f 120 119 20
f 133 132 33
f 119 118 133
f 33 132 32
f 118 132 133
f 36 23 37
f 23 24 37
f 37 24 25
f 49 36 50
f 36 37 50
f 48 35 36
f 48 36 49
f 37 25 38
f 248 247 259
f 247 258 259
f 259 258 316
f 258 315 316
f 174 162 241
f 179 178 246
f 246 178 245
f 178 177 245
f 177 244 245
f 179 246 180
f 180 246 247
f 168 179 180
f 177 176 244
f 244 176 243
f 165 177 178
f 166 178 179
f 167 166 179
f 166 165 178
f 168 167 179
f 78 73 74
f 78 74 79
f 78 79 181
f 180 78 181
f 61 62 73
f 61 73 72
f 186 187 259
f 258 186 259
f 186 180 181
f 186 181 187
f 25 13 124
f 124 13 110
f 110 123 124
f 110 109 123
f 50 61 62
f 50 49 61
f 63 155 169
f 74 63 169
f 122 22 23
f 121 22 122
f 63 154 155
f 62 154 63
f 35 47 48
f 24 36 37
f 24 23 36
f 24 123 37
f 122 23 24
f 122 24 123
f 51 50 63
f 38 37 50
f 38 50 51
f 134 124 38
f 124 123 37
f 134 37 38
f 25 124 38
f 124 37 134
f 50 62 63
f 141 140 44
f 141 130 140
f 130 129 140
f 140 129 139
f 140 147 148
f 141 140 148
f 129 128 139
f 128 138 139
f 139 138 146
f 138 145 146
f 147 139 146
f 139 147 140
f 49 50 62
f 61 49 62
f 73 63 74
f 73 62 63
f 187 181 259
f 181 248 259
f 74 181 79
f 74 169 181
f 150 149 163
f 150 163 164
f 31 131 141
f 31 141 44
f 131 130 141
f 32 44 45
f 31 44 32
f 45 44 57
f 141 148 44
f 44 148 57
f 57 148 149
f 33 32 46
f 46 32 45
f 149 148 163
f 148 162 163
f 148 147 161
f 147 146 161
f 161 146 160
f 148 161 162
f 59 58 151
f 58 150 151
f 151 150 165
f 165 150 164
f 58 57 149
f 58 149 150
f 153 60 152
f 61 60 153
f 152 167 153
f 152 166 167
f 60 59 151
f 151 165 166
f 60 151 152
f 152 151 166
f 34 46 47
f 34 33 46
f 169 168 181
f 181 168 180
f 181 247 248
f 180 247 181
f 154 153 168
f 153 167 168
f 62 61 154
f 61 153 154
f 155 154 168
f 155 168 169
f 22 120 21
f 121 120 22
f 34 47 35
