mtllib P-21_tex.mtl
v 0.415830 3.210457 -0.202429
v 0.212361 3.320917 -0.007458
v 0.412961 3.158372 -0.009427
v 0.226488 3.399568 -0.339349
v 0.756203 3.062061 -0.371698
v 0.415830 3.210457 -0.202429
v 0.412961 3.158372 -0.009427
v 0.395873 3.137050 0.115868
v 0.263305 3.768104 0.397531
v 0.213601 3.187225 0.412971
v 0.263305 3.768104 0.397531
v 0.451417 3.816654 0.496304
v 0.213601 3.187225 0.412971
v 0.087096 3.293082 0.416723
v 0.213601 3.187225 0.412971
v 0.055949 3.318702 0.411585
v 0.162614 3.322909 0.135429
v 0.055949 3.318702 0.411585
v -0.312778 3.805723 0.496410
v -0.296059 4.061268 -0.186611
v -0.621559 3.956541 -0.048538
v -0.073557 3.542114 -0.003139
v -0.357722 3.813037 -0.382799
v -0.611885 4.010329 -0.373780
v -0.070067 3.610257 -0.271638
v -0.892120 4.002515 -0.198422
v -1.144669 4.314313 -0.066855
v -0.890383 3.981409 -0.128629
v -0.348346 3.784262 -0.151614
v -0.564512 3.067966 0.201986
v -0.478065 3.808773 0.348247
v -1.100174 3.636717 0.209517
v -1.112517 3.863886 0.235041
v -1.032420 3.899769 0.408277
v 1.225897 3.749837 0.394216
v 1.163869 2.837296 0.405025
v 1.047764 3.778095 0.495618
v 1.049028 0.042863 0.242200
v 0.821553 0.037219 0.313574
v 1.211479 0.386698 0.394193
v 0.497520 0.064514 -0.012334
v 0.221986 0.058447 0.056639
v 0.252158 0.044120 0.225573
v -0.356271 2.599534 0.381093
v -0.640888 2.617557 0.118646
v -0.902652 2.822936 0.404193
v -0.640888 2.617557 0.118646
v -0.719448 2.535255 0.441103
v -0.782368 2.950739 0.414280
v -0.617158 1.871429 -0.065264
v -0.346704 2.220568 -0.204047
v -0.067803 2.224954 -0.245654
v -0.071075 2.243655 -0.140748
v -0.617158 1.871429 -0.065264
v -0.067803 2.224954 -0.245654
v -0.535770 1.973539 0.405334
v -0.338989 2.103212 0.372978
v -0.345963 2.089977 0.407213
v 0.010821 2.570809 0.401721
v 0.182224 2.295746 0.393165
v 0.472729 2.583800 0.346022
v -0.922879 1.291591 -0.116547
v -0.934112 1.297313 -0.207800
v -0.932206 1.296762 -0.163256
v -0.911161 1.283298 -0.207800
v -0.880540 1.265048 -0.184533
v -0.922879 1.291591 -0.116547
v -0.812564 1.662760 -0.185352
v 0.212850 1.658085 -0.138408
v -0.017152 1.643764 0.084769
v -0.060728 1.662370 -0.204047
v 0.468000 1.662448 -0.205923
v 0.494042 1.657305 -0.127499
v 0.665845 1.662187 -0.204047
v 0.665845 1.662187 -0.204047
v 0.494042 1.657305 -0.127499
v 0.792725 1.667558 -0.287351
v -0.738940 1.789260 0.110883
v -0.760148 1.777856 0.405469
v -0.611061 1.642250 0.430774
v -0.647512 3.316264 -0.126392
v -0.668969 3.005384 -0.147713
v -0.348346 3.784262 -0.151614
v 0.190723 2.696603 -0.205923
v 0.042136 2.297237 -0.252827
v 0.471426 2.709388 -0.353447
v 1.060636 2.618074 0.093639
v 1.175597 3.152840 -0.140553
v 0.772239 2.867446 -0.092084
v 1.017497 2.736287 -0.192913
v 1.060636 2.618074 0.093639
v 1.051712 2.745638 -0.327751
v -1.116062 3.486751 0.103942
v -1.059178 3.415837 -0.384941
v -1.144669 4.314313 -0.066855
v -0.067905 2.695551 -0.175915
v 0.143912 2.694772 -0.163962
v 0.010821 2.570809 0.401721
v 0.472729 2.583800 0.346022
v 0.237011 2.693803 -0.142157
v -0.058772 2.562316 0.427337
v 0.298753 2.563947 0.426432
v 0.635614 2.569986 0.408751
v 0.190723 2.696603 -0.205923
v -0.072471 2.697966 -0.236867
v -0.348008 2.623752 -0.010643
v -0.384597 2.714814 -0.367913
v -0.146864 2.668818 0.387540
v -0.356271 2.599534 0.381093
v -0.363884 2.569563 0.420472
v -0.640888 2.617557 0.118646
v -0.719448 2.535255 0.441103
v -0.919223 2.617384 0.116856
v -0.903864 2.535071 0.479551
v -0.754896 2.631282 -0.190921
v -0.907345 2.625844 -0.073236
v -0.633440 2.717859 -0.380340
v -0.975637 2.633058 -0.229206
v 1.183970 1.372051 -0.200026
v 0.792725 1.667558 -0.287351
v 0.776126 1.805808 -0.444103
v 1.130364 2.269781 -0.428503
v 0.792725 1.667558 -0.287351
v 1.183970 1.372051 -0.200026
v 1.130364 2.269781 -0.428503
v 0.776126 1.805808 -0.444103
v -0.055138 0.782857 0.079144
v 0.434351 0.787232 -0.398110
v 0.482745 0.345288 -0.105191
v 0.303538 0.423549 0.123117
v 0.599081 0.082230 -0.214363
v 0.221986 0.058447 0.056639
v 0.537925 0.765230 -0.388421
v -0.053732 0.781605 0.112901
v -0.754896 2.631282 -0.190921
v -0.617158 1.871429 -0.065264
v -0.348008 2.623752 -0.010643
v -0.718427 1.803058 -0.084957
v -0.549579 3.188417 0.095588
v -0.668969 3.005384 -0.147713
v -0.763162 1.812676 -0.233781
v -0.348346 3.784262 -0.151614
v -0.673446 1.889929 0.403103
v -0.398115 2.065660 0.389880
v -0.812564 1.662760 -0.185352
v -0.811168 1.674120 -0.197719
v -0.356271 2.599534 0.381093
v -0.633440 2.717859 -0.380340
v -0.398115 2.065660 0.389880
v -0.617158 1.871429 -0.065264
v -0.338989 2.103212 0.372978
v -0.071075 2.243655 -0.140748
v 0.754192 2.728846 -0.388657
v 0.237011 2.693803 -0.142157
v 0.513722 2.695751 -0.174274
v 0.491432 2.593245 0.345655
v 0.808505 2.582225 0.390371
v 1.017497 2.736287 -0.192913
v 0.471426 2.709388 -0.353447
v 0.143912 2.694772 -0.163962
v 0.190723 2.696603 -0.205923
v 1.018548 2.780090 -0.334457
v 0.472729 2.583800 0.346022
v -1.163116 3.278165 0.399844
v -0.919223 2.617384 0.116856
v -1.115247 3.266834 -0.030390
v -0.907345 2.625844 -0.073236
v -1.115247 3.266834 -0.030390
v -0.907345 2.625844 -0.073236
v -1.163116 3.278165 0.399844
v -0.919223 2.617384 0.116856
v 0.491432 2.593245 0.345655
v 0.513722 2.695751 -0.174274
v 1.017497 2.736287 -0.192913
v 0.808505 2.582225 0.390371
v 0.780997 2.570241 0.407813
v 0.635614 2.569986 0.408751
v 0.472729 2.583800 0.346022
v -0.919223 2.617384 0.116856
v -1.166071 1.870538 0.399844
v -0.903864 2.535071 0.479551
v -1.104835 1.951315 0.519942
v -0.615006 1.705906 -0.104329
v -0.620304 1.795355 0.362059
v -0.099220 1.643296 0.090629
v -0.344964 1.662331 -0.204047
v -0.598109 1.695738 -0.197557
v -0.738940 1.789260 0.110883
v -0.145324 1.623515 0.394696
v -0.046159 1.626226 0.399400
v -0.812564 1.662760 -0.185352
v -0.019625 1.645333 0.432697
v -0.324521 1.645149 0.432820
v 0.245255 1.642344 0.430688
v 0.320472 1.629376 0.404740
v -0.811168 1.674120 -0.197719
v -0.428471 3.967840 0.118527
v -0.298206 3.967850 0.118527
v -0.478065 3.808773 0.348247
v -0.877523 3.907049 0.111148
v -0.729887 3.808117 0.371712
v -0.890383 3.981409 -0.128629
v -0.765960 3.783365 0.495986
v -0.573524 3.803625 0.496427
v -0.149097 3.506665 0.399274
v 0.029956 3.966609 0.122279
v 0.162614 3.322909 0.135429
v 0.227423 3.970795 0.109149
v 1.042776 0.321204 0.112901
v 1.032340 0.351911 0.036893
v 1.027896 0.793566 -0.015566
v 0.791977 0.080744 -0.192326
v 0.821553 0.037219 0.313574
v 1.211479 0.386698 0.394193
v 1.045624 0.793287 0.111151
v 1.222561 1.082121 0.391348
v 0.502222 3.116072 -0.127413
v 0.623219 2.857767 0.343497
v 0.772239 2.867446 -0.092084
v 0.412961 3.158372 -0.009427
v 0.395873 3.137050 0.115868
v 1.017497 2.736287 -0.192913
v 0.771335 2.865425 0.360929
v -0.969106 1.631207 0.406351
v -1.166338 1.233545 0.506742
v -0.633714 1.114965 0.406417
v -0.760148 1.777856 0.405469
v -0.880540 1.265048 -0.184533
v -0.738940 1.789260 0.110883
v -0.698366 1.157321 0.161429
v -0.812564 1.662760 -0.185352
v -0.760148 1.777856 0.405469
v -0.633714 1.114965 0.406417
v -0.356271 2.599534 0.381093
v -0.902652 2.822936 0.404193
v -0.564512 3.067966 0.201986
v -0.356271 2.599534 0.381093
v -0.549579 3.188417 0.095588
v -0.564512 3.067966 0.201986
v -0.363884 2.569563 0.420472
v -0.348008 2.623752 -0.010643
v -0.592205 3.214398 0.405470
v -0.348346 3.784262 -0.151614
v -1.059206 3.234864 -0.386522
v -0.975637 2.633058 -0.229206
v -0.633440 2.717859 -0.380340
v 0.185668 0.560441 -0.345644
v -0.055138 0.782857 0.079144
v 0.482745 0.345288 -0.105191
v -0.149097 3.506665 0.399274
v -0.348346 3.784262 -0.151614
v -0.478065 3.808773 0.348247
v -0.073557 3.542114 -0.003139
v 1.032340 0.351911 0.036893
v 0.559186 0.286218 -0.037487
v 1.027896 0.793566 -0.015566
v 0.577451 0.790416 -0.014628
v -1.104835 1.951315 0.519942
v -0.919223 2.617384 0.116856
v -0.903864 2.535071 0.479551
v -1.166071 1.870538 0.399844
v -0.975637 2.633058 -0.229206
v -1.059206 3.234864 -0.386522
v -0.652444 2.840235 -0.290360
v -0.633440 2.717859 -0.380340
v 1.102382 1.656404 0.362334
v 1.232490 1.283242 0.497365
v 1.101653 1.645406 0.424148
v 1.222561 1.082121 0.391348
v 0.870854 0.443230 0.429071
v 1.232951 0.780180 0.480019
v 0.997522 0.790521 0.410836
v 0.781323 0.010881 0.430499
v 1.232490 1.283242 0.497365
v 1.054230 0.011020 0.407064
v 0.644169 0.596747 0.482346
v 0.638219 0.791991 0.461734
v 1.060636 2.618074 0.093639
v 1.054138 2.822908 -0.368211
v 1.175597 3.152840 -0.140553
v 1.051712 2.745638 -0.327751
v 0.019861 2.291610 -0.152121
v 0.282194 2.094040 -0.454856
v 0.316305 2.001947 0.086645
v 0.042136 2.297237 -0.252827
v 0.659378 1.873688 -0.085368
v 0.658797 1.870538 -0.198773
v -0.919223 2.617384 0.116856
v -0.640888 2.617557 0.118646
v -1.163116 3.278165 0.399844
v -0.812564 1.662760 -0.185352
v -0.617158 1.871429 -0.065264
v -0.398115 2.065660 0.389880
v -0.673446 1.889929 0.403103
v -0.348008 2.623752 -0.010643
v -0.356271 2.599534 0.381093
v 0.791977 0.080744 -0.192326
v 1.168441 0.044087 -0.000563
v 0.821553 0.037219 0.313574
v 1.049028 0.042863 0.242200
v 0.781323 0.010881 0.430499
v 1.054230 0.011020 0.407064
v 0.577359 0.053805 0.110352
v 0.636269 0.007369 0.434126
v 1.121665 0.284403 -0.480058
v 0.831122 0.097625 -0.460693
v 0.599081 0.082230 -0.214363
v 0.497520 0.064514 -0.012334
v 0.221986 0.058447 0.056639
v 0.252158 0.044120 0.225573
v -1.144669 4.314313 -0.066855
v -1.059178 3.415837 -0.384941
v -0.912972 4.001886 -0.196652
v 0.010821 2.570809 0.401721
v 0.143912 2.694772 -0.163962
v 0.182224 2.295746 0.393165
v 0.042136 2.297237 -0.252827
v 0.019861 2.291610 -0.152121
v 0.316305 2.001947 0.086645
v 0.282194 2.094040 -0.454856
v 0.659378 1.873688 -0.085368
v 0.658797 1.870538 -0.198773
v 0.162614 3.322909 0.135429
v 0.263305 3.768104 0.397531
v 0.055949 3.318702 0.411585
v 0.227423 3.970795 0.109149
v 0.451417 3.816654 0.496304
v -0.592205 3.214398 0.405470
v -0.782368 2.950739 0.414280
v -0.363884 2.569563 0.420472
v -0.719448 2.535255 0.441103
v -0.902652 2.822936 0.404193
v 0.831122 0.097625 -0.460693
v 0.791977 0.080744 -0.192326
v 1.168441 0.044087 -0.000563
v 1.121665 0.284403 -0.480058
v 0.185668 0.560441 -0.345644
v 0.434351 0.787232 -0.398110
v -0.055138 0.782857 0.079144
v 0.792740 1.649920 -0.009003
v 0.588859 1.629498 0.404634
v 1.020323 1.622714 0.392343
v 1.102382 1.656404 0.362334
v 1.080903 1.648350 0.067714
v 0.769579 1.642244 0.430778
v 0.576233 1.650192 0.436121
v 1.017497 2.736287 -0.192913
v 0.771335 2.865425 0.360929
v 0.808505 2.582225 0.390371
v 0.029956 3.966609 0.122279
v -0.067468 4.051422 -0.154213
v 0.317237 4.061512 -0.187178
v 0.227423 3.970795 0.109149
v -0.061816 3.988149 -0.432057
v 0.247056 4.167197 -0.398564
v 0.212361 3.320917 -0.007458
v 0.395873 3.137050 0.115868
v 0.412961 3.158372 -0.009427
v 0.263305 3.768104 0.397531
v 1.183970 1.372051 -0.200026
v 0.792725 1.667558 -0.287351
v 1.080903 1.648350 0.067714
v -0.754896 2.631282 -0.190921
v -0.668969 3.005384 -0.147713
v -0.348008 2.623752 -0.010643
v -0.549579 3.188417 0.095588
v 0.598441 0.790516 0.142197
v 0.603232 0.448350 0.166859
v 0.644169 0.596747 0.482346
v 0.577451 0.790416 -0.014628
v 0.638219 0.791991 0.461734
v 0.559186 0.286218 -0.037487
v 1.017497 2.736287 -0.192913
v 0.808505 2.582225 0.390371
v 0.772239 2.867446 -0.092084
v 0.771335 2.865425 0.360929
v 0.502222 3.116072 -0.127413
v 0.623219 2.857767 0.343497
v 0.395873 3.137050 0.115868
v 0.201614 3.271904 0.208261
v 0.162614 3.322909 0.135429
v 0.412961 3.158372 -0.009427
v 0.202060 3.305455 0.081971
v 0.182488 3.319314 0.089506
v 0.415830 3.210457 -0.202429
v 0.226488 3.399568 -0.339349
v 0.212361 3.320917 -0.007458
v 0.055949 3.318702 0.411585
v 0.087096 3.293082 0.416723
v 0.213601 3.187225 0.412971
v 0.756203 3.062061 -0.371698
v -0.905795 1.640318 0.135627
v -0.906342 1.286810 0.164476
v -0.969106 1.631207 0.406351
v -0.932206 1.296762 -0.163256
v -1.166338 1.233545 0.506742
v -0.738940 1.789260 0.110883
v -0.812564 1.662760 -0.185352
v -0.640888 2.617557 0.118646
v -0.902652 2.822936 0.404193
v -1.163116 3.278165 0.399844
v 1.054138 2.822908 -0.368211
v 0.772239 2.867446 -0.092084
v 1.175597 3.152840 -0.140553
v 0.983647 2.813318 -0.333605
v 0.603232 0.448350 0.166859
v 0.559186 0.286218 -0.037487
v 0.598441 0.790516 0.142197
v 0.577451 0.790416 -0.014628
v 0.638219 0.791991 0.461734
v 0.644169 0.596747 0.482346
v -0.328590 3.819426 -0.348220
v -0.296059 4.061268 -0.186611
v -0.073557 3.542114 -0.003139
v -0.070067 3.610257 -0.271638
v 0.434351 0.787232 -0.398110
v 0.185668 0.560441 -0.345644
v 0.482745 0.345288 -0.105191
v -0.549579 3.188417 0.095588
v -0.647512 3.316264 -0.126392
v -0.348346 3.784262 -0.151614
v -0.668969 3.005384 -0.147713
v -0.067803 2.224954 -0.245654
v -0.346704 2.220568 -0.204047
v -0.384597 2.714814 -0.367913
v 0.497520 0.064514 -0.012334
v 0.791977 0.080744 -0.192326
v 0.559186 0.286218 -0.037487
v 1.032340 0.351911 0.036893
v 0.577451 0.790416 -0.014628
v 1.027896 0.793566 -0.015566
v 0.162614 3.322909 0.135429
v 0.263305 3.768104 0.397531
v 0.395873 3.137050 0.115868
v -0.906342 1.286810 0.164476
v -0.922879 1.291591 -0.116547
v -0.698366 1.157321 0.161429
v -0.880540 1.265048 -0.184533
v -0.932206 1.296762 -0.163256
v -0.556529 1.124872 0.098366
v -0.620089 1.112544 0.218616
v -1.166338 1.233545 0.506742
v -0.633714 1.114965 0.406417
v -0.570373 1.126575 0.405327
v -0.243588 0.851823 -0.194524
v -0.329964 0.911823 -0.354213
v -0.448007 0.989210 -0.349937
v -0.556529 1.124872 0.098366
v 0.019861 2.291610 -0.152121
v 0.471426 2.709388 -0.353447
v 0.237011 2.693803 -0.142157
v 0.303538 0.423549 0.123117
v 0.252158 0.044120 0.225573
v 0.577359 0.053805 0.110352
v 0.603232 0.448350 0.166859
v 1.054230 0.011020 0.407064
v 1.049028 0.042863 0.242200
v 1.232951 0.780180 0.480019
v 0.055949 3.318702 0.411585
v 0.213601 3.187225 0.412971
v 0.451417 3.816654 0.496304
v 0.409228 3.889712 0.418599
v 0.202196 3.889834 0.418599
v -0.338005 3.891587 0.412971
v -0.346704 2.220568 -0.204047
v -0.384597 2.714814 -0.367913
v -0.633440 2.717859 -0.380340
v -0.652444 2.840235 -0.290360
v 0.019861 2.291610 -0.152121
v 0.190723 2.696603 -0.205923
v 0.471426 2.709388 -0.353447
v 0.143912 2.694772 -0.163962
v 0.997522 0.790521 0.410836
v 0.870854 0.443230 0.429071
v 0.638219 0.791991 0.461734
v 0.644169 0.596747 0.482346
v -0.604188 2.843597 -0.282368
v -0.384597 2.714814 -0.367913
v -0.549579 3.188417 0.095588
v -0.348008 2.623752 -0.010643
v -0.564512 3.067966 0.201986
v -0.356271 2.599534 0.381093
v 0.303538 0.423549 0.123117
v 0.482745 0.345288 -0.105191
v 0.252158 0.044120 0.225573
v 0.497520 0.064514 -0.012334
v 1.163869 2.837296 0.405025
v 1.213871 3.299422 0.512974
v 1.047764 3.778095 0.495618
v 1.168441 0.044087 -0.000563
v 0.791977 0.080744 -0.192326
v 1.049028 0.042863 0.242200
v 0.821553 0.037219 0.313574
v -0.564512 3.067966 0.201986
v -0.902652 2.822936 0.404193
v -0.592205 3.214398 0.405470
v -0.698366 1.157321 0.161429
v -0.905795 1.640318 0.135627
v -0.738940 1.789260 0.110883
v -0.611885 4.010329 -0.373780
v -0.621559 3.956541 -0.048538
v -0.328590 3.819426 -0.348220
v 0.227423 3.970795 0.109149
v 0.029956 3.966609 0.122279
v 0.202196 3.889834 0.418599
v -0.298206 3.967850 0.118527
v -0.338005 3.891587 0.412971
v -0.428471 3.967840 0.118527
v -0.555041 3.891426 0.412971
v 0.654535 3.968029 0.118527
v 0.743399 3.891215 0.412971
v 1.034677 3.889383 0.420472
v 0.793718 3.968674 0.116654
v 0.409228 3.889712 0.418599
v -0.067468 4.051422 -0.154213
v 0.317237 4.061512 -0.187178
v -0.296059 4.061268 -0.186611
v -0.877523 3.907049 0.111148
v 0.247056 4.167197 -0.398564
v -0.883858 3.891537 0.412971
v -0.890383 3.981409 -0.128629
v -0.892120 4.002515 -0.198422
v -1.032420 3.899769 0.408277
v 1.114445 4.015900 0.226094
v 0.846780 4.060155 -0.181851
v 1.091219 3.898534 0.407346
v -1.112517 3.863886 0.235041
v 0.451417 3.816654 0.496304
v -0.573524 3.803625 0.496427
v -0.312778 3.805723 0.496410
v 0.792635 3.794219 0.495933
v 0.511874 3.810354 0.496248
v -0.765960 3.783365 0.495986
v -1.039498 3.803419 0.501117
v 1.047764 3.778095 0.495618
v 1.225897 3.749837 0.394216
v 0.055949 3.318702 0.411585
v -0.627865 1.106410 -0.248236
v -0.448007 0.989210 -0.349937
v -0.556529 1.124872 0.098366
v -0.880540 1.265048 -0.184533
v -0.329964 0.911823 -0.354213
v -0.243588 0.851823 -0.194524
v -0.328590 3.819426 -0.348220
v -0.621559 3.956541 -0.048538
v -0.296059 4.061268 -0.186611
v -0.067468 4.051422 -0.154213
v -0.061816 3.988149 -0.432057
v 0.247056 4.167197 -0.398564
v -0.621559 3.956541 -0.048538
v -0.296059 4.061268 -0.186611
v -0.298206 3.967850 0.118527
v -0.428471 3.967840 0.118527
v -0.640888 2.617557 0.118646
v -0.919223 2.617384 0.116856
v -0.903864 2.535071 0.479551
v -0.719448 2.535255 0.441103
v 1.017497 2.736287 -0.192913
v 1.060636 2.618074 0.093639
v 0.772239 2.867446 -0.092084
v 1.018548 2.780090 -0.334457
v 0.983647 2.813318 -0.333605
v 1.051712 2.745638 -0.327751
v 1.224778 4.321682 0.394216
v 1.114445 4.015900 0.226094
v 1.112966 4.383485 0.507051
v 1.091219 3.898534 0.407346
v 1.020323 1.622714 0.392343
v 0.792740 1.649920 -0.009003
v 1.080903 1.648350 0.067714
v 1.102382 1.656404 0.362334
v -0.812564 1.662760 -0.185352
v -0.738940 1.789260 0.110883
v -0.673446 1.889929 0.403103
v -0.398115 2.065660 0.389880
v 1.102382 1.656404 0.362334
v 1.122123 1.892584 0.441103
v 1.101653 1.645406 0.424148
v 1.156037 2.118552 0.113137
v 1.222561 1.082121 0.391348
v 1.232490 1.283242 0.497365
v -0.905795 1.640318 0.135627
v -0.969106 1.631207 0.406351
v -1.104835 1.951315 0.519942
v -0.243588 0.851823 -0.194524
v -0.556529 1.124872 0.098366
v -0.620089 1.112544 0.218616
v -0.316474 0.961888 0.111025
v 0.559186 0.286218 -0.037487
v 0.303538 0.423549 0.123117
v 0.603232 0.448350 0.166859
v 0.482745 0.345288 -0.105191
v -0.055138 0.782857 0.079144
v -0.053732 0.781605 0.112901
v -0.765960 3.783365 0.495986
v -1.100174 3.636717 0.209517
v -0.729887 3.808117 0.371712
v -0.877523 3.907049 0.111148
v -1.039498 3.803419 0.501117
v -0.312778 3.805723 0.496410
v -0.149097 3.506665 0.399274
v 0.162614 3.322909 0.135429
v -0.573524 3.803625 0.496427
v -0.328590 3.819426 -0.348220
v -0.061816 3.988149 -0.432057
v -0.296059 4.061268 -0.186611
v -0.067468 4.051422 -0.154213
v -0.902652 2.822936 0.404193
v -1.163116 3.278165 0.399844
v -0.782368 2.950739 0.414280
v -1.163811 2.856387 0.417191
v 0.623219 2.857767 0.343497
v 0.808505 2.582225 0.390371
v 0.491432 2.593245 0.345655
v 1.017497 2.736287 -0.192913
v 0.502222 3.116072 -0.127413
v -0.905795 1.640318 0.135627
v -1.166071 1.870538 0.399844
v -0.969106 1.631207 0.406351
v -1.104835 1.951315 0.519942
v 1.091219 3.898534 0.407346
v 1.114445 4.015900 0.226094
v 1.224778 4.321682 0.394216
v -0.782368 2.950739 0.414280
v -0.902652 2.822936 0.404193
v -0.640888 2.617557 0.118646
v -1.163116 3.278165 0.399844
v -1.163811 2.856387 0.417191
v -0.478065 3.808773 0.348247
v -0.149097 3.506665 0.399274
v -0.573524 3.803625 0.496427
v -0.073557 3.542114 -0.003139
v -0.348346 3.784262 -0.151614
v -1.059206 3.234864 -0.386522
v -0.633440 2.717859 -0.380340
v -0.652444 2.840235 -0.290360
v 0.212361 3.320917 -0.007458
v 0.162614 3.322909 0.135429
v 0.263305 3.768104 0.397531
v 0.599081 0.082230 -0.214363
v 0.497520 0.064514 -0.012334
v 0.831122 0.097625 -0.460693
v 0.791977 0.080744 -0.192326
v 0.781323 0.010881 0.430499
v 0.821553 0.037219 0.313574
v 0.636269 0.007369 0.434126
v 0.577359 0.053805 0.110352
v 1.211479 0.386698 0.394193
v 1.049028 0.042863 0.242200
v 1.054230 0.011020 0.407064
v 1.232951 0.780180 0.480019
v 0.182224 2.295746 0.393165
v -0.047158 2.275542 0.406646
v 0.010821 2.570809 0.401721
v -0.345963 2.089977 0.407213
v -0.058772 2.562316 0.427337
v -0.146864 2.668818 0.387540
v -0.078670 2.560184 0.428235
v -0.363884 2.569563 0.420472
v 1.049028 0.042863 0.242200
v 1.211479 0.386698 0.394193
v 1.232951 0.780180 0.480019
v -1.112517 3.863886 0.235041
v -1.039498 3.803419 0.501117
v -1.032420 3.899769 0.408277
v -1.100174 3.636717 0.209517
v -1.166071 1.870538 0.399844
v -0.905795 1.640318 0.135627
v -1.104835 1.951315 0.519942
v -0.053732 0.781605 0.112901
v -0.249166 0.785929 0.097458
v -0.055138 0.782857 0.079144
v -0.243588 0.851823 -0.194524
v -0.316474 0.961888 0.111025
v -0.243588 0.851823 -0.194524
v -0.249166 0.785929 0.097458
v 0.537925 0.765230 -0.388421
v 0.434351 0.787232 -0.398110
v 0.482745 0.345288 -0.105191
v 0.559186 0.286218 -0.037487
v -0.620304 1.795355 0.362059
v -0.611061 1.642250 0.430774
v -0.324521 1.645149 0.432820
v 0.635614 2.569986 0.408751
v 0.623219 2.857767 0.343497
v 0.491432 2.593245 0.345655
v -0.620304 1.795355 0.362059
v -0.738940 1.789260 0.110883
v -0.611061 1.642250 0.430774
v 0.771335 2.865425 0.360929
v 0.623219 2.857767 0.343497
v 0.808505 2.582225 0.390371
v -0.673446 1.889929 0.403103
v -0.760148 1.777856 0.405469
v -0.671835 1.884074 0.408009
v -0.398115 2.065660 0.389880
v -0.738940 1.789260 0.110883
v -0.620304 1.795355 0.362059
v -0.760148 1.777856 0.405469
v -0.398115 2.065660 0.389880
v 0.019861 2.291610 -0.152121
v 0.237011 2.693803 -0.142157
v 0.143912 2.694772 -0.163962
v -0.617158 1.871429 -0.065264
v -0.812564 1.662760 -0.185352
v -0.718427 1.803058 -0.084957
v -0.615006 1.705906 -0.104329
v -0.763162 1.812676 -0.233781
v -0.346704 2.220568 -0.204047
v -0.633440 2.717859 -0.380340
v -0.316474 0.961888 0.111025
v -0.249166 0.785929 0.097458
v -0.069519 0.790004 0.121168
v -0.053732 0.781605 0.112901
v -0.627865 1.106410 -0.248236
v -0.922879 1.291591 -0.116547
v -0.911161 1.283298 -0.207800
v -0.932206 1.296762 -0.163256
v -0.934112 1.297313 -0.207800
v 0.586021 3.024091 0.409222
v 0.623219 2.857767 0.343497
v 0.635614 2.569986 0.408751
v -0.890383 3.981409 -0.128629
v -0.621559 3.956541 -0.048538
v -0.428471 3.967840 0.118527
v -0.611885 4.010329 -0.373780
v -0.348346 3.784262 -0.151614
v -0.357722 3.813037 -0.382799
v -0.070067 3.610257 -0.271638
v -0.073557 3.542114 -0.003139
v -0.892120 4.002515 -0.198422
v -0.912972 4.001886 -0.196652
v -1.144669 4.314313 -0.066855
v 1.066862 3.975804 0.093812
v 0.846780 4.060155 -0.181851
v 1.114445 4.015900 0.226094
v -0.146864 2.668818 0.387540
v -0.356271 2.599534 0.381093
v -0.078670 2.560184 0.428235
v -0.363884 2.569563 0.420472
v 0.245255 1.642344 0.430688
v 0.588859 1.629498 0.404634
v 0.576233 1.650192 0.436121
v 1.020323 1.622714 0.392343
v 0.320472 1.629376 0.404740
v -0.019625 1.645333 0.432697
v -0.046159 1.626226 0.399400
v 0.769579 1.642244 0.430778
v 0.472729 2.583800 0.346022
v 0.010821 2.570809 0.401721
v 0.298753 2.563947 0.426432
v -0.058772 2.562316 0.427337
v 0.623219 2.857767 0.343497
v 0.586021 3.024091 0.409222
v 0.771335 2.865425 0.360929
v -0.760148 1.777856 0.405469
v -0.620304 1.795355 0.362059
v -0.535770 1.973539 0.405334
v -0.398115 2.065660 0.389880
v -0.671835 1.884074 0.408009
v -0.880540 1.265048 -0.184533
v -0.812564 1.662760 -0.185352
v -0.932206 1.296762 -0.163256
v -0.811168 1.674120 -0.197719
v -0.763162 1.812676 -0.233781
v -0.718427 1.803058 -0.084957
v -0.812564 1.662760 -0.185352
v -0.811168 1.674120 -0.197719
v -0.598109 1.695738 -0.197557
v -0.615006 1.705906 -0.104329
v -0.812564 1.662760 -0.185352
v -0.922879 1.291591 -0.116547
v -0.932206 1.296762 -0.163256
v -0.812564 1.662760 -0.185352
v -0.922879 1.291591 -0.116547
v -0.627865 1.106410 -0.248236
v -0.880540 1.265048 -0.184533
v -0.932206 1.296762 -0.163256
v -0.911161 1.283298 -0.207800
v 0.808505 2.582225 0.390371
v 0.771335 2.865425 0.360929
v 0.771117 2.862503 0.406381
v 0.586021 3.024091 0.409222
v 0.635614 2.569986 0.408751
v 0.780997 2.570241 0.407813
v -0.633714 1.114965 0.406417
v -0.570373 1.126575 0.405327
v -0.620089 1.112544 0.218616
v -0.698366 1.157321 0.161429
v -0.880540 1.265048 -0.184533
v -0.556529 1.124872 0.098366
v 0.756203 3.062061 -0.371698
v 0.412961 3.158372 -0.009427
v 0.502222 3.116072 -0.127413
v 0.588859 1.629498 0.404634
v 0.320472 1.629376 0.404740
v 0.576233 1.650192 0.436121
v 0.245255 1.642344 0.430688
v 0.451417 3.816654 0.496304
v 0.263305 3.768104 0.397531
v 0.511874 3.810354 0.496248
v 0.659510 3.766384 0.403007
v 0.792635 3.794219 0.495933
v 0.867659 3.766618 0.403593
v 1.225897 3.749837 0.394216
v 1.047764 3.778095 0.495618
v 0.793718 3.968674 0.116654
v 0.227423 3.970795 0.109149
v 0.654535 3.968029 0.118527
v 1.114445 4.015900 0.226094
v 1.066862 3.975804 0.093812
v 0.846780 4.060155 -0.181851
v -0.892120 4.002515 -0.198422
v -0.912972 4.001886 -0.196652
v -1.144669 4.314313 -0.066855
v -1.116062 3.486751 0.103942
v -1.059178 3.415837 -0.384941
v 1.018548 2.780090 -0.334457
v 1.051712 2.745638 -0.327751
v 1.054138 2.822908 -0.368211
v 0.983647 2.813318 -0.333605
v 0.772239 2.867446 -0.092084
v 1.017497 2.736287 -0.192913
v -0.535770 1.973539 0.405334
v -0.398115 2.065660 0.389880
v -0.338989 2.103212 0.372978
v 1.156037 2.118552 0.113137
v 1.122123 1.892584 0.441103
v 1.093335 2.528692 0.471815
v 1.101653 1.645406 0.424148
v 1.102382 1.656404 0.362334
v 1.056042 2.604994 0.361572
v 1.163869 2.837296 0.405025
v 1.213871 3.299422 0.512974
v 0.537925 0.765230 -0.388421
v 0.559186 0.286218 -0.037487
v 0.599081 0.082230 -0.214363
v 0.497520 0.064514 -0.012334
v 0.577359 0.053805 0.110352
v 0.603232 0.448350 0.166859
v -0.384597 2.714814 -0.367913
v -0.348008 2.623752 -0.010643
v -0.067905 2.695551 -0.175915
v -0.072471 2.697966 -0.236867
v -0.633440 2.717859 -0.380340
v -0.754896 2.631282 -0.190921
v 0.513722 2.695751 -0.174274
v 1.018548 2.780090 -0.334457
v 1.017497 2.736287 -0.192913
v 0.754192 2.728846 -0.388657
v -1.112517 3.863886 0.235041
v -0.877523 3.907049 0.111148
v -1.100174 3.636717 0.209517
v -0.738940 1.789260 0.110883
v -0.760148 1.777856 0.405469
v -0.673446 1.889929 0.403103
v -0.535770 1.973539 0.405334
v -0.398115 2.065660 0.389880
v -0.671835 1.884074 0.408009
v -0.338989 2.103212 0.372978
v -0.071075 2.243655 -0.140748
v -0.617158 1.871429 -0.065264
v 0.182224 2.295746 0.393165
v 0.019861 2.291610 -0.152121
v 0.042136 2.297237 -0.252827
v -0.345963 2.089977 0.407213
v -0.067803 2.224954 -0.245654
v -0.346704 2.220568 -0.204047
v 0.143912 2.694772 -0.163962
v 0.494042 1.657305 -0.127499
v 0.212850 1.658085 -0.138408
v 0.588859 1.629498 0.404634
v 0.665845 1.662187 -0.204047
v 0.468000 1.662448 -0.205923
v 0.792740 1.649920 -0.009003
v 0.320472 1.629376 0.404740
v -0.017152 1.643764 0.084769
v -0.046159 1.626226 0.399400
v -0.099220 1.643296 0.090629
v -0.060728 1.662370 -0.204047
v -0.344964 1.662331 -0.204047
v 0.494042 1.657305 -0.127499
v 0.792740 1.649920 -0.009003
v 0.792725 1.667558 -0.287351
v 1.080903 1.648350 0.067714
v -0.060728 1.662370 -0.204047
v -0.017152 1.643764 0.084769
v 0.468000 1.662448 -0.205923
v 1.042776 0.321204 0.112901
v 0.870854 0.443230 0.429071
v 1.045624 0.793287 0.111151
v 0.781323 0.010881 0.430499
v 0.997522 0.790521 0.410836
v 1.222561 1.082121 0.391348
v 1.027896 0.793566 -0.015566
v 1.232490 1.283242 0.497365
v 0.821553 0.037219 0.313574
v 1.032340 0.351911 0.036893
v 1.211479 0.386698 0.394193
v 1.222561 1.082121 0.391348
v 1.045624 0.793287 0.111151
v 1.211479 0.386698 0.394193
v 0.754192 2.728846 -0.388657
v 0.471426 2.709388 -0.353447
v 0.513722 2.695751 -0.174274
v 0.237011 2.693803 -0.142157
v 0.513722 2.695751 -0.174274
v 0.472729 2.583800 0.346022
v 0.491432 2.593245 0.345655
v 0.237011 2.693803 -0.142157
v -0.329964 0.911823 -0.354213
v 0.185668 0.560441 -0.345644
v 0.203207 1.005012 -0.400968
v -0.329964 0.911823 -0.354213
v -0.135711 0.778872 -0.346695
v 0.185668 0.560441 -0.345644
v -0.934112 1.297313 -0.207800
v -0.932206 1.296762 -0.163256
v -0.911161 1.283298 -0.207800
v -0.104223 0.031848 0.376399
v 0.136954 0.047326 0.186045
v 0.178709 0.055247 0.092270
v -0.083126 0.065677 -0.027758
v -0.915011 0.117589 0.070880
v -1.145290 0.034642 -0.206159
v -0.638317 0.061898 0.019123
v -0.348227 0.032076 0.375931
v -0.346775 0.061180 0.023724
v -0.083126 0.065677 -0.027758
v -0.104223 0.031848 0.376399
v 0.136954 0.047326 0.186045
v 0.178709 0.055247 0.092270
v -0.103898 0.083310 -0.223717
v -0.361366 0.083527 -0.226356
v -0.634363 0.053443 0.111496
v -0.668560 0.000000 0.437089
v -0.921699 0.000000 0.437162
v -0.906041 0.044415 0.220741
v -0.638419 0.139435 -0.196993
v -0.634363 0.053443 0.111496
v -0.906041 0.044415 0.220741
v -0.668560 0.000000 0.437089
v -0.921699 0.000000 0.437162
v -0.915011 0.117589 0.070880
v -0.638317 0.061898 0.019123
v -1.106447 0.522960 0.170223
v 0.136954 0.047326 0.186045
v -0.306690 0.003462 0.436048
v -0.031153 0.005822 0.435146
v 0.252158 0.044120 0.225573
v 0.307397 0.007297 0.434092
v 0.136954 0.047326 0.186045
v -0.104223 0.031848 0.376399
v -0.306690 0.003462 0.436048
v -0.668560 0.000000 0.437089
v -0.348227 0.032076 0.375931
v -0.502849 0.000000 0.437072
v -0.306690 0.003462 0.436048
v -0.104223 0.031848 0.376399
v -0.031153 0.005822 0.435146
v 0.136954 0.047326 0.186045
v 0.307397 0.007297 0.434092
v 0.252158 0.044120 0.225573
v -0.361366 0.083527 -0.226356
v -0.346775 0.061180 0.023724
v -0.083126 0.065677 -0.027758
v -0.103898 0.083310 -0.223717
v -0.638419 0.139435 -0.196993
v -0.638317 0.061898 0.019123
v 0.307397 0.007297 0.434092
v 0.252158 0.044120 0.225573
v 0.577359 0.053805 0.110352
v 0.636269 0.007369 0.434126
v -0.031153 0.005822 0.435146
v 0.577359 0.053805 0.110352
v 0.791977 0.080744 -0.192326
v 0.821553 0.037219 0.313574
v 0.497520 0.064514 -0.012334
v 0.465771 0.087339 -0.273439
v 0.201325 0.090434 -0.316574
v 0.178709 0.055247 0.092270
v 0.221986 0.058447 0.056639
v 0.201325 0.090434 -0.316574
v 0.465771 0.087339 -0.273439
v 0.221986 0.058447 0.056639
v 0.178709 0.055247 0.092270
v 0.599081 0.082230 -0.214363
v 0.465771 0.087339 -0.273439
v 0.434351 0.787232 -0.398110
v 0.599081 0.082230 -0.214363
v 0.136954 0.047326 0.186045
v 0.178709 0.055247 0.092270
v 0.252158 0.044120 0.225573
v 0.221986 0.058447 0.056639
v -0.083126 0.065677 -0.027758
v -0.103898 0.083310 -0.223717
v 0.178709 0.055247 0.092270
v 0.201325 0.090434 -0.316574
v 0.502222 3.116072 -0.127413
v 0.983647 2.813318 -0.333605
v 0.772239 2.867446 -0.092084
v 0.756203 3.062061 -0.371698
v 0.182488 3.319314 0.089506
v -0.073557 3.542114 -0.003139
v 0.140893 3.429167 -0.197848
v -0.070067 3.610257 -0.271638
v 0.162614 3.322909 0.135429
v 0.226488 3.399568 -0.339349
v 0.212361 3.320917 -0.007458
v -0.149097 3.506665 0.399274
v -1.112517 3.863886 0.235041
v -1.144669 4.314313 -0.066855
v -0.877523 3.907049 0.111148
v -0.890383 3.981409 -0.128629
v 0.756203 3.062061 -0.371698
v 0.415830 3.210457 -0.202429
v 0.226488 3.399568 -0.339349
v 0.492326 3.314856 -0.383598
v -0.328590 3.819426 -0.348220
v -0.611885 4.010329 -0.373780
v -0.070067 3.610257 -0.271638
v 0.010821 2.570809 0.401721
v 0.237011 2.693803 -0.142157
v 0.472729 2.583800 0.346022
v 0.143912 2.694772 -0.163962
v 0.190723 2.696603 -0.205923
v 0.471426 2.709388 -0.353447
v 0.237011 2.693803 -0.142157
v 0.143912 2.694772 -0.163962
v -0.640888 2.617557 0.118646
v -0.754896 2.631282 -0.190921
v -0.348008 2.623752 -0.010643
v -0.356271 2.599534 0.381093
v -0.754896 2.631282 -0.190921
v -0.384597 2.714814 -0.367913
v -0.348008 2.623752 -0.010643
v -0.633440 2.717859 -0.380340
v -0.975637 2.633058 -0.229206
v -0.633440 2.717859 -0.380340
v -0.754896 2.631282 -0.190921
v -0.907345 2.625844 -0.073236
v 0.808505 2.582225 0.390371
v 1.056042 2.604994 0.361572
v 1.093335 2.528692 0.471815
v 0.780997 2.570241 0.407813
v 1.017497 2.736287 -0.192913
v 1.017497 2.736287 -0.192913
v 1.060636 2.618074 0.093639
v 1.056042 2.604994 0.361572
v -0.934112 1.297313 -0.207800
v -0.932206 1.296762 -0.163256
v -0.812564 1.662760 -0.185352
v -0.811168 1.674120 -0.197719
v -0.738940 1.789260 0.110883
v -0.760148 1.777856 0.405469
v -0.969106 1.631207 0.406351
v 1.020323 1.622714 0.392343
v 0.769579 1.642244 0.430778
v 1.102382 1.656404 0.362334
v 1.102382 1.656404 0.362334
v 0.769579 1.642244 0.430778
v 1.101653 1.645406 0.424148
v 0.190723 2.696603 -0.205923
v 0.042136 2.297237 -0.252827
v 0.019861 2.291610 -0.152121
v -0.346704 2.220568 -0.204047
v -0.348008 2.623752 -0.010643
v -0.617158 1.871429 -0.065264
v -0.384597 2.714814 -0.367913
v -0.907345 2.625844 -0.073236
v -0.919223 2.617384 0.116856
v -0.640888 2.617557 0.118646
v -0.754896 2.631282 -0.190921
v -1.112517 3.863886 0.235041
v -1.144743 4.342542 -0.070893
v -1.100407 4.367739 0.110674
v -1.144669 4.314313 -0.066855
v -1.127935 4.500000 0.451419
v -1.100291 4.325227 -0.210143
v -1.032420 3.899769 0.408277
v -0.912972 4.001886 -0.196652
v -0.611885 4.010329 -0.373780
v -0.621559 3.956541 -0.048538
v -0.296059 4.061268 -0.186611
v -0.328590 3.819426 -0.348220
v -0.611885 4.010329 -0.373780
v -0.296059 4.061268 -0.186611
v 0.029956 3.966609 0.122279
v -0.296059 4.061268 -0.186611
v -0.298206 3.967850 0.118527
v -0.067468 4.051422 -0.154213
v 0.846780 4.060155 -0.181851
v 0.579684 4.062191 -0.189157
v 0.654535 3.968029 0.118527
v 0.793718 3.968674 0.116654
v 0.227423 3.970795 0.109149
v 0.317237 4.061512 -0.187178
v 0.929134 4.099600 -0.440934
v 0.247056 4.167197 -0.398564
v 0.515355 4.166879 -0.391945
v 0.515355 4.166879 -0.391945
v 0.929134 4.099600 -0.440934
v 0.846780 4.060155 -0.181851
v 0.579684 4.062191 -0.189157
v -0.329964 0.911823 -0.354213
v -0.249166 0.785929 0.097458
v -0.243588 0.851823 -0.194524
v -0.249166 0.785929 0.097458
v -0.135711 0.778872 -0.346695
v -0.055138 0.782857 0.079144
v 0.185668 0.560441 -0.345644
v -0.329964 0.911823 -0.354213
v -0.053732 0.781605 0.112901
v -0.069519 0.790004 0.121168
v -0.316474 0.961888 0.111025
v -0.055138 0.782857 0.079144
v -0.243588 0.851823 -0.194524
v -0.067087 0.791017 0.083009
v -0.905795 1.640318 0.135627
v -0.906342 1.286810 0.164476
v -0.698366 1.157321 0.161429
v 1.224778 4.321682 0.394216
v 1.091219 3.898534 0.407346
v 1.112966 4.383485 0.507051
v 1.127759 4.291560 -0.461054
v 0.846780 4.060155 -0.181851
v 1.066862 3.975804 0.093812
v 0.929134 4.099600 -0.440934
v -1.106447 0.522960 0.170223
v -0.906342 1.286810 0.164476
v -1.129706 0.291878 0.465016
v -0.922879 1.291591 -0.116547
v -1.166338 1.233545 0.506742
v -0.922879 1.291591 -0.116547
v -1.144220 0.729431 0.092751
v -1.106447 0.522960 0.170223
v -0.478065 3.808773 0.348247
v -0.428471 3.967840 0.118527
v -0.348346 3.784262 -0.151614
v -0.428471 3.967840 0.118527
v -0.621559 3.956541 -0.048538
v -0.348346 3.784262 -0.151614
v 1.222561 1.082121 0.391348
v 1.232951 0.780180 0.480019
v 1.232490 1.283242 0.497365
v 1.211479 0.386698 0.394193
v 1.200603 1.053362 -0.038070
v 1.211479 0.386698 0.394193
v 1.165157 0.681954 0.092837
v 1.222561 1.082121 0.391348
v 1.183970 1.372051 -0.200026
v 1.190188 1.275762 -0.429886
v 1.200603 1.053362 -0.038070
v 1.080903 1.648350 0.067714
v 0.230688 0.858347 -0.447855
v 0.512240 0.879497 -0.389041
v 0.537925 0.765230 -0.388421
v 0.434351 0.787232 -0.398110
v 0.512240 0.879497 -0.389041
v 0.537925 0.765230 -0.388421
v 0.811706 0.650496 -0.447855
v 0.785277 0.797111 -0.450918
v 0.831122 0.097625 -0.460693
v 0.537925 0.765230 -0.388421
v 0.599081 0.082230 -0.214363
v -0.072471 2.697966 -0.236867
v -0.384597 2.714814 -0.367913
v -0.067803 2.224954 -0.245654
v -0.617158 1.871429 -0.065264
v -0.718427 1.803058 -0.084957
v -0.346704 2.220568 -0.204047
v -1.100174 3.636717 0.209517
v -1.039498 3.803419 0.501117
v -1.032420 3.899769 0.408277
v -0.903864 2.535071 0.479551
v -0.919223 2.617384 0.116856
v -1.163116 3.278165 0.399844
v -0.903864 2.535071 0.479551
v -1.163116 3.278165 0.399844
v -1.163811 2.856387 0.417191
v -1.100174 3.636717 0.209517
v -1.163116 3.278165 0.399844
v -1.116062 3.486751 0.103942
v -1.115247 3.266834 -0.030390
v -1.039498 3.803419 0.501117
v -1.163811 2.856387 0.417191
v -0.975637 2.633058 -0.229206
v -1.059206 3.234864 -0.386522
v -1.115247 3.266834 -0.030390
v -0.907345 2.625844 -0.073236
v -1.106447 0.522960 0.170223
v -0.921699 0.000000 0.437162
v -1.129706 0.291878 0.465016
v -0.905795 1.640318 0.135627
v -1.166338 1.233545 0.506742
v -0.969106 1.631207 0.406351
v -0.906342 1.286810 0.164476
v 0.772239 2.867446 -0.092084
v 1.017497 2.736287 -0.192913
v 0.771335 2.865425 0.360929
v 0.213601 3.187225 0.412971
v 0.395873 3.137050 0.115868
v 0.586021 3.024091 0.409222
v 0.623219 2.857767 0.343497
v -0.811168 1.674120 -0.197719
v -0.934112 1.297313 -0.207800
v -0.627865 1.106410 -0.248236
v -0.640888 2.617557 0.118646
v -0.919223 2.617384 0.116856
v -0.902652 2.822936 0.404193
v -1.163116 3.278165 0.399844
v -0.604188 2.843597 -0.282368
v -0.384597 2.714814 -0.367913
v -0.652444 2.840235 -0.290360
v 0.482745 0.345288 -0.105191
v 0.497520 0.064514 -0.012334
v 0.221986 0.058447 0.056639
v 0.603232 0.448350 0.166859
v 0.636269 0.007369 0.434126
v 0.644169 0.596747 0.482346
v 0.577359 0.053805 0.110352
v 0.870854 0.443230 0.429071
v 0.644169 0.596747 0.482346
v 0.781323 0.010881 0.430499
v 0.636269 0.007369 0.434126
v 0.497520 0.064514 -0.012334
v 0.252158 0.044120 0.225573
v 0.577359 0.053805 0.110352
v 0.497520 0.064514 -0.012334
v 0.559186 0.286218 -0.037487
v 0.603232 0.448350 0.166859
v 0.577359 0.053805 0.110352
v 1.049028 0.042863 0.242200
v 1.042776 0.321204 0.112901
v 1.211479 0.386698 0.394193
v 1.049028 0.042863 0.242200
v 0.821553 0.037219 0.313574
v 1.042776 0.321204 0.112901
vt 0.964501 0.861912
vt 0.997059 0.884599
vt 0.963445 0.888180
vt 0.997059 0.839711
vt 0.778571 0.414541
vt 0.729117 0.394133
vt 0.712185 0.414541
vt 0.886134 0.223214
vt 0.886134 0.315901
vt 0.848319 0.249330
vt 0.501327 0.917092
vt 0.485294 0.940901
vt 0.573529 0.940901
vt 0.499335 0.902636
vt 0.477731 0.903486
vt 0.504622 0.903486
vt 0.888655 0.864371
vt 0.859244 0.838900
vt 0.888655 0.763180
vt 0.207983 0.869473
vt 0.207983 0.917942
vt 0.130672 0.872067
vt 0.943277 0.593346
vt 0.950840 0.551446
vt 0.950840 0.641582
vt 0.302101 0.279199
vt 0.312185 0.224065
vt 0.312185 0.280187
vt 0.731513 0.010629
vt 0.731513 0.119473
vt 0.671008 0.040387
vt 0.044958 0.703656
vt 0.028151 0.678200
vt 0.044958 0.658588
vt 0.765126 0.514699
vt 0.791176 0.396684
vt 0.791176 0.522534
vt 0.965126 0.322541
vt 0.988655 0.301446
vt 0.988655 0.371173
vt 0.745798 0.807398
vt 0.713829 0.787840
vt 0.701261 0.807398
vt 0.201261 0.939201
vt 0.167260 0.900935
vt 0.123950 0.939201
vt 0.354202 0.810891
vt 0.397059 0.798895
vt 0.397059 0.855017
vt 0.953361 0.172194
vt 0.933193 0.114452
vt 0.953361 0.082908
vt 0.250651 0.153486
vt 0.165126 0.167942
vt 0.253361 0.167942
vt 0.252521 0.173044
vt 0.283613 0.173044
vt 0.281308 0.167942
vt 0.986975 0.641582
vt 0.986975 0.684949
vt 0.934034 0.672969
vt 0.351681 0.525085
vt 0.347479 0.537265
vt 0.348870 0.531229
vt 0.351681 0.537840
vt 0.997899 0.708759
vt 0.986975 0.706250
vt 0.997899 0.655187
vt 0.861239 0.162292
vt 0.836555 0.196854
vt 0.875210 0.196854
vt 0.865058 0.127512
vt 0.854282 0.125649
vt 0.860921 0.101616
vt 0.886134 0.524528
vt 0.888655 0.499575
vt 0.888655 0.544643
vt 0.358403 0.648384
vt 0.337395 0.615621
vt 0.358403 0.599065
vt 0.408794 0.905187
vt 0.370168 0.918793
vt 0.480252 0.918793
vt 0.916387 0.058006
vt 0.944958 0.008929
vt 0.944958 0.088861
vt 0.909664 0.302296
vt 0.909664 0.380527
vt 0.864286 0.334048
vt 0.925630 0.636026
vt 0.932353 0.594813
vt 0.932353 0.653486
vt 0.360084 0.649235
vt 0.424790 0.649235
vt 0.366152 0.537840
vt 0.134027 0.293184
vt 0.161638 0.294818
vt 0.144217 0.371025
vt 0.204409 0.363563
vt 0.173776 0.297655
vt 0.135147 0.374575
vt 0.181731 0.374447
vt 0.225630 0.372035
vt 0.167757 0.289358
vt 0.133633 0.285140
vt 0.095524 0.313459
vt 0.094449 0.264845
vt 0.120304 0.366908
vt 0.091600 0.365024
vt 0.089382 0.371175
vt 0.056241 0.328416
vt 0.042874 0.371375
vt 0.020036 0.325742
vt 0.018606 0.374575
vt 0.043880 0.286724
vt 0.023136 0.300902
vt 0.058895 0.258929
vt 0.013866 0.280573
vt 0.350840 0.707058
vt 0.389136 0.653486
vt 0.416478 0.653662
vt 0.471849 0.707058
vt 0.632169 0.492591
vt 0.681092 0.536139
vt 0.681092 0.413690
vt 0.624790 0.465937
vt 0.614706 0.500945
vt 0.614706 0.411107
vt 0.549095 0.433796
vt 0.554406 0.472933
vt 0.517419 0.409026
vt 0.507143 0.469242
vt 0.608980 0.398384
vt 0.612316 0.504677
vt 0.135730 0.233387
vt 0.034809 0.224613
vt 0.126389 0.175296
vt 0.025010 0.237384
vt 0.205703 0.182168
vt 0.184468 0.220107
vt 0.031378 0.257157
vt 0.293697 0.198214
vt 0.000420 0.175500
vt 0.037297 0.153771
vt 0.011521 0.259781
vt 0.013386 0.260629
vt 0.102560 0.129677
vt 0.152147 0.260629
vt 0.725630 0.148961
vt 0.789496 0.117772
vt 0.726811 0.158372
vt 0.789496 0.205357
vt 0.184124 0.557398
vt 0.246815 0.598791
vt 0.211553 0.589890
vt 0.205485 0.659680
vt 0.163674 0.660289
vt 0.146639 0.577847
vt 0.220128 0.567251
vt 0.259244 0.597557
vt 0.253911 0.591321
vt 0.148929 0.558525
vt 0.207906 0.660289
vt 0.141597 0.734269
vt 0.235554 0.765995
vt 0.148484 0.791241
vt 0.236555 0.791241
vt 0.566971 0.786990
vt 0.655042 0.786990
vt 0.560084 0.730017
vt 0.654041 0.761744
vt 0.788634 0.288064
vt 0.791176 0.218262
vt 0.725630 0.209609
vt 0.746850 0.290924
vt 0.750248 0.293952
vt 0.769190 0.295493
vt 0.791176 0.289090
vt 0.764286 0.420493
vt 0.764286 0.531037
vt 0.722269 0.445852
vt 0.744714 0.524492
vt 0.412658 0.553959
vt 0.412523 0.490888
vt 0.481290 0.530616
vt 0.447847 0.568452
vt 0.414954 0.566389
vt 0.395987 0.523598
vt 0.478464 0.489818
vt 0.491399 0.490303
vt 0.386975 0.566298
vt 0.495311 0.485573
vt 0.455779 0.481718
vt 0.529663 0.489289
vt 0.539076 0.494063
vt 0.387457 0.568452
vt 0.378158 0.310827
vt 0.380154 0.293807
vt 0.341355 0.312970
vt 0.367621 0.369494
vt 0.334226 0.345454
vt 0.399580 0.376276
vt 0.317304 0.348047
vt 0.320610 0.322809
vt 0.315546 0.259912
vt 0.388594 0.251481
vt 0.319182 0.201105
vt 0.399580 0.227933
vt 0.301356 0.540834
vt 0.300323 0.552009
vt 0.246882 0.576956
vt 0.350840 0.576956
vt 0.339126 0.510388
vt 0.277710 0.502976
vt 0.242218 0.560412
vt 0.190336 0.531645
vt 0.162106 0.666845
vt 0.207983 0.722639
vt 0.148772 0.713601
vt 0.181310 0.661139
vt 0.196735 0.667573
vt 0.121429 0.741071
vt 0.201097 0.741071
vt 0.484499 0.697790
vt 0.531047 0.660289
vt 0.559244 0.728316
vt 0.471008 0.728316
vt 0.567223 0.724065
vt 0.636555 0.682470
vt 0.553260 0.672953
vt 0.619091 0.722880
vt 0.636555 0.645138
vt 0.548319 0.639031
vt 0.550840 0.892432
vt 0.499542 0.834609
vt 0.480252 0.892432
vt 0.458963 0.371225
vt 0.480596 0.283883
vt 0.466836 0.300025
vt 0.453911 0.375425
vt 0.508824 0.358995
vt 0.436555 0.286870
vt 0.508824 0.199405
vt 0.405462 0.836178
vt 0.486134 0.820153
vt 0.486134 0.871173
vt 0.785294 0.072534
vt 0.828151 0.016582
vt 0.828151 0.110969
vt 0.730672 0.865221
vt 0.663445 0.917541
vt 0.730672 0.924745
vt 0.676986 0.867056
vt 0.892857 0.016116
vt 0.829832 0.008078
vt 0.892256 0.075255
vt 0.833097 0.075255
vt 0.113285 0.747625
vt 0.010504 0.767432
vt 0.035562 0.724915
vt 0.119748 0.767432
vt 0.812185 0.359269
vt 0.816843 0.276786
vt 0.859273 0.339397
vt 0.862605 0.359269
vt 0.972689 0.695153
vt 0.955882 0.748187
vt 0.965208 0.696900
vt 0.972689 0.773384
vt 0.406068 0.230085
vt 0.454202 0.184919
vt 0.422937 0.183926
vt 0.394123 0.287685
vt 0.454202 0.117772
vt 0.430373 0.287840
vt 0.375975 0.209280
vt 0.375210 0.183382
vt 0.786134 0.922194
vt 0.834027 0.875425
vt 0.864286 0.922194
vt 0.822747 0.876626
vt 0.379284 0.711304
vt 0.396568 0.768282
vt 0.441292 0.710459
vt 0.374370 0.724143
vt 0.470168 0.755092
vt 0.462867 0.768282
vt 0.436001 0.789541
vt 0.414706 0.819303
vt 0.530672 0.819303
vt 0.592857 0.194303
vt 0.581126 0.155162
vt 0.525796 0.110752
vt 0.518908 0.153299
vt 0.592857 0.050206
vt 0.542218 0.042092
vt 0.394140 0.427697
vt 0.423997 0.475765
vt 0.461495 0.426328
vt 0.454484 0.457410
vt 0.476891 0.419637
vt 0.476748 0.456266
vt 0.431967 0.395892
vt 0.475883 0.400235
vt 0.355882 0.475765
vt 0.359124 0.435698
vt 0.389161 0.402202
vt 0.414851 0.386534
vt 0.421041 0.349065
vt 0.443746 0.351315
vt 0.764286 0.597364
vt 0.764286 0.723214
vt 0.737395 0.644338
vt 0.374085 0.860969
vt 0.305462 0.898384
vt 0.395378 0.898384
vt 0.254202 0.724214
vt 0.259109 0.711351
vt 0.321843 0.709609
vt 0.277140 0.767432
vt 0.350840 0.754400
vt 0.343647 0.767432
vt 0.051681 0.816114
vt 0.114962 0.789684
vt 0.051889 0.776839
vt 0.134874 0.832058
vt 0.134874 0.769133
vt 0.222269 0.838010
vt 0.246382 0.802558
vt 0.311345 0.838010
vt 0.300186 0.791997
vt 0.256792 0.781888
vt 0.880004 0.597203
vt 0.876050 0.631990
vt 0.924790 0.661139
vt 0.924790 0.588010
vt 0.568076 0.889881
vt 0.539916 0.924745
vt 0.628992 0.924745
vt 0.241500 0.838861
vt 0.210763 0.892315
vt 0.267485 0.894934
vt 0.278571 0.891578
vt 0.278571 0.851965
vt 0.234236 0.897534
vt 0.208824 0.896317
vt 0.714752 0.224065
vt 0.701261 0.304847
vt 0.739076 0.304847
vt 0.586975 0.889591
vt 0.626059 0.900085
vt 0.628299 0.847364
vt 0.587600 0.862564
vt 0.661765 0.900085
vt 0.658961 0.853822
vt 0.837395 0.627975
vt 0.869328 0.608146
vt 0.855233 0.599065
vt 0.869328 0.701105
vt 0.482773 0.691752
vt 0.426471 0.658988
vt 0.482773 0.639031
vt 0.192216 0.797194
vt 0.147221 0.819575
vt 0.206303 0.855017
vt 0.125630 0.855017
vt 0.851049 0.797140
vt 0.847913 0.752126
vt 0.806303 0.771508
vt 0.871714 0.797194
vt 0.808996 0.797194
vt 0.875210 0.730867
vt 0.223585 0.458901
vt 0.219748 0.374757
vt 0.256578 0.438766
vt 0.256893 0.379000
vt 0.304328 0.443761
vt 0.276228 0.376940
vt 0.319461 0.412146
vt 0.351073 0.402383
vt 0.358368 0.412842
vt 0.318089 0.429008
vt 0.352370 0.419570
vt 0.355561 0.418821
vt 0.319908 0.455321
vt 0.352924 0.476616
vt 0.351606 0.431595
vt 0.371849 0.376240
vt 0.366666 0.375134
vt 0.345233 0.373724
vt 0.271115 0.476616
vt 0.608288 0.582959
vt 0.653068 0.591638
vt 0.605024 0.620978
vt 0.660924 0.549760
vt 0.660924 0.647534
vt 0.583613 0.570943
vt 0.609993 0.536990
vt 0.818067 0.496173
vt 0.793697 0.443668
vt 0.818067 0.378827
vt 0.105689 0.014031
vt 0.135714 0.057398
vt 0.071008 0.057398
vt 0.114314 0.019724
vt 0.813872 0.510218
vt 0.792857 0.537840
vt 0.858351 0.513393
vt 0.858403 0.534305
vt 0.858403 0.470839
vt 0.833024 0.468112
vt 0.913716 0.371915
vt 0.946639 0.391582
vt 0.946639 0.313350
vt 0.913025 0.326967
vt 0.367647 0.983418
vt 0.412185 0.983418
vt 0.407399 0.925595
vt 0.384292 0.756378
vt 0.372012 0.791241
vt 0.298739 0.786289
vt 0.411345 0.791241
vt 0.200420 0.468112
vt 0.167647 0.450055
vt 0.200420 0.389031
vt 0.731513 0.673044
vt 0.693248 0.673044
vt 0.724292 0.643255
vt 0.660084 0.631613
vt 0.723704 0.574504
vt 0.662904 0.572704
vt 0.887815 0.272670
vt 0.914706 0.208759
vt 0.914706 0.301446
vt 0.691241 0.361485
vt 0.704036 0.396601
vt 0.660761 0.369881
vt 0.700365 0.406888
vt 0.707143 0.402186
vt 0.644723 0.383722
vt 0.647261 0.365638
vt 0.707143 0.306548
vt 0.641913 0.341160
vt 0.634874 0.344055
vt 0.883643 0.415391
vt 0.882773 0.390107
vt 0.898023 0.379677
vt 0.950000 0.415391
vt 0.918067 0.758929
vt 0.918067 0.844813
vt 0.891176 0.813060
vt 0.931568 0.443966
vt 0.925630 0.496173
vt 0.970168 0.492207
vt 0.970168 0.439201
vt 0.402941 0.166241
vt 0.424790 0.166241
vt 0.411872 0.061650
vt 0.265192 0.655187
vt 0.239076 0.649179
vt 0.285525 0.572704
vt 0.300454 0.573711
vt 0.315769 0.596313
vt 0.355882 0.655187
vt 0.534034 0.034439
vt 0.596113 0.005527
vt 0.612431 0.034439
vt 0.630672 0.026051
vt 0.847479 0.309099
vt 0.821612 0.256378
vt 0.847479 0.223214
vt 0.816387 0.262604
vt 0.993697 0.894983
vt 0.993697 0.944303
vt 0.949160 0.911498
vt 0.958288 0.935842
vt 0.604312 0.147860
vt 0.592857 0.181302
vt 0.670892 0.137330
vt 0.633406 0.208115
vt 0.681092 0.155950
vt 0.681092 0.227466
vt 0.658403 0.957773
vt 0.658403 0.997675
vt 0.606302 0.956207
vt 0.619681 0.999575
vt 0.810504 0.373724
vt 0.793697 0.312833
vt 0.810504 0.247874
vt 0.885294 0.559521
vt 0.933193 0.588010
vt 0.902877 0.528509
vt 0.933193 0.520833
vt 0.606885 0.364371
vt 0.554202 0.394983
vt 0.619748 0.394983
vt 0.918908 0.965561
vt 0.853980 0.941752
vt 0.835714 0.965561
vt 0.260111 0.028467
vt 0.253724 0.071644
vt 0.215315 0.028105
vt 0.140483 0.071746
vt 0.165485 0.078068
vt 0.136398 0.113796
vt 0.207699 0.085141
vt 0.205840 0.125590
vt 0.224485 0.088083
vt 0.233765 0.130723
vt 0.085644 0.063166
vt 0.067344 0.100400
vt 0.030446 0.094268
vt 0.067909 0.059556
vt 0.109907 0.108963
vt 0.184534 0.042773
vt 0.135998 0.029466
vt 0.214344 0.043486
vt 0.282716 0.099510
vt 0.150390 0.000425
vt 0.276086 0.139027
vt 0.290277 0.067126
vt 0.292304 0.057692
vt 0.295373 0.141930
vt 0.023809 0.063215
vt 0.068850 0.018110
vt 0.024305 0.091028
vt 0.310504 0.121316
vt 0.102042 0.121771
vt 0.233194 0.146927
vt 0.199793 0.140532
vt 0.057974 0.115762
vt 0.094204 0.120948
vt 0.257515 0.153754
vt 0.292856 0.159439
vt 0.024857 0.110891
vt 0.000420 0.099739
vt 0.121595 0.159439
vt 0.657213 0.804317
vt 0.626650 0.810216
vt 0.678938 0.845663
vt 0.693697 0.787840
vt 0.611345 0.820699
vt 0.612393 0.845663
vt 0.684454 0.504733
vt 0.723109 0.548044
vt 0.722616 0.499488
vt 0.723109 0.469062
vt 0.686313 0.461767
vt 0.703885 0.417942
vt 0.676050 0.571854
vt 0.724790 0.571854
vt 0.705950 0.533588
vt 0.690691 0.541077
vt 0.951681 0.634738
vt 0.987815 0.636480
vt 0.987815 0.587160
vt 0.963653 0.591111
vt 0.850767 0.554693
vt 0.821429 0.583759
vt 0.876891 0.583759
vt 0.862149 0.538721
vt 0.867765 0.541427
vt 0.856160 0.536990
vt 0.966237 0.782005
vt 0.960924 0.830070
vt 0.987815 0.775085
vt 0.987815 0.840561
vt 0.851728 0.997874
vt 0.912185 0.997874
vt 0.884909 0.968963
vt 0.850000 0.985903
vt 0.822269 0.241922
vt 0.807361 0.200935
vt 0.790336 0.162875
vt 0.822269 0.133929
vt 0.629673 0.332231
vt 0.612185 0.303942
vt 0.621980 0.335942
vt 0.648319 0.262330
vt 0.648319 0.411139
vt 0.628168 0.388387
vt 0.988655 0.578656
vt 0.965126 0.550376
vt 0.988655 0.508078
vt 0.318914 0.460459
vt 0.374033 0.497426
vt 0.378571 0.514881
vt 0.334266 0.501596
vt 0.190534 0.479923
vt 0.227188 0.502962
vt 0.189496 0.514881
vt 0.203398 0.471450
vt 0.293174 0.496880
vt 0.292879 0.501339
vt 0.740756 0.966445
vt 0.684454 0.930697
vt 0.725968 0.978316
vt 0.684813 0.978316
vt 0.728600 0.933567
vt 0.004622 0.703881
vt 0.026438 0.658990
vt 0.026471 0.597364
vt 0.026471 0.732568
vt 0.955882 0.984269
vt 0.999580 0.984269
vt 0.967058 0.948491
vt 0.996365 0.946003
vt 0.121238 0.942327
vt 0.056723 0.965561
vt 0.122269 0.965561
vt 0.092578 0.923044
vt 0.533461 0.252719
vt 0.518640 0.211015
vt 0.495378 0.246221
vt 0.600420 0.194303
vt 0.600420 0.279337
vt 0.863445 0.738520
vt 0.806241 0.738520
vt 0.837655 0.712160
vt 0.791176 0.724152
vt 0.502941 0.442602
vt 0.479412 0.426183
vt 0.502941 0.383929
vt 0.453361 0.078620
vt 0.429739 0.077401
vt 0.428633 0.131378
vt 0.453361 0.013180
vt 0.410504 0.047608
vt 0.763500 0.322330
vt 0.705462 0.331432
vt 0.766807 0.299745
vt 0.715480 0.384967
vt 0.766807 0.390731
vt 0.271849 0.976616
vt 0.359244 0.976616
vt 0.345450 0.961310
vt 0.983613 0.279337
vt 0.967647 0.267077
vt 0.983613 0.199405
vt 0.463118 0.981718
vt 0.434874 0.972860
vt 0.507143 0.981718
vt 0.478197 0.960459
vt 0.858884 0.871173
vt 0.850840 0.885769
vt 0.877731 0.874042
vt 0.877731 0.917942
vt 0.881092 0.527196
vt 0.881092 0.473214
vt 0.859244 0.478028
vt 0.880814 0.580357
vt 0.313025 0.855017
vt 0.342542 0.846322
vt 0.321033 0.812086
vt 0.388655 0.855017
vt 0.330160 0.809714
vt 0.335846 0.792092
vt 0.332738 0.809008
vt 0.367705 0.793900
vt 0.891176 0.935799
vt 0.838660 0.924745
vt 0.786975 0.935799
vt 0.022757 0.771684
vt 0.050840 0.797194
vt 0.046901 0.779973
vt 0.005462 0.797194
vt 0.201261 0.436423
vt 0.216387 0.380527
vt 0.216387 0.451105
vt 0.256723 0.002976
vt 0.282773 0.004631
vt 0.256970 0.007412
vt 0.282773 0.044643
vt 0.819748 0.452806
vt 0.863445 0.452806
vt 0.830957 0.429847
vt 0.586975 0.360017
vt 0.600420 0.364371
vt 0.600420 0.293513
vt 0.591084 0.281037
vt 0.545798 0.657738
vt 0.533956 0.639031
vt 0.501261 0.657738
vt 0.790592 0.838861
vt 0.757563 0.859269
vt 0.796219 0.859269
vt 0.485294 0.285390
vt 0.500420 0.252126
vt 0.500420 0.301446
vt 0.717305 0.980867
vt 0.707143 0.997874
vt 0.750840 0.997874
vt 0.118908 0.742262
vt 0.122269 0.760629
vt 0.119957 0.742595
vt 0.122269 0.699405
vt 0.643277 0.264031
vt 0.609134 0.247956
vt 0.602941 0.264031
vt 0.610073 0.200255
vt 0.964286 0.281037
vt 0.964286 0.341412
vt 0.952521 0.335622
vt 0.547653 0.607389
vt 0.582773 0.627994
vt 0.558425 0.619719
vt 0.569302 0.602348
vt 0.549038 0.638180
vt 0.489997 0.588861
vt 0.428151 0.638180
vt 0.210504 0.996173
vt 0.230845 0.981718
vt 0.249957 0.996173
vt 0.252521 0.995865
vt 0.222269 0.463010
vt 0.271008 0.463010
vt 0.265030 0.452366
vt 0.270150 0.456719
vt 0.268322 0.451105
vt 0.992857 0.468112
vt 0.983613 0.445717
vt 0.992857 0.407738
vt 0.059927 0.508927
vt 0.093082 0.498077
vt 0.114857 0.475765
vt 0.091874 0.542092
vt 0.136077 0.510870
vt 0.133857 0.542092
vt 0.179821 0.525929
vt 0.182773 0.489442
vt 0.058642 0.518433
vt 0.056203 0.518186
vt 0.009664 0.502717
vt 0.389027 0.985969
vt 0.342437 0.994473
vt 0.406303 0.994473
vt 0.388410 0.001276
vt 0.416706 0.010838
vt 0.378571 0.016582
vt 0.417227 0.016582
vt 0.783476 0.663959
vt 0.787148 0.709464
vt 0.781933 0.707756
vt 0.788655 0.766582
vt 0.787419 0.673943
vt 0.783296 0.628899
vt 0.788655 0.625425
vt 0.782935 0.733353
vt 0.392017 0.332908
vt 0.392017 0.271092
vt 0.383613 0.308625
vt 0.389507 0.261480
vt 0.862596 0.076105
vt 0.843277 0.090561
vt 0.876050 0.090561
vt 0.969328 0.220663
vt 0.955042 0.234271
vt 0.963318 0.259900
vt 0.956582 0.281037
vt 0.969328 0.239053
vt 0.659244 0.985119
vt 0.712185 0.985119
vt 0.662198 0.976616
vt 0.977588 0.294053
vt 0.997059 0.298044
vt 0.997059 0.276786
vt 0.976050 0.292397
vt 0.898270 0.113820
vt 0.902941 0.141582
vt 0.890336 0.141582
vt 0.896061 0.113520
vt 0.996219 0.784439
vt 0.989496 0.783062
vt 0.996219 0.732568
vt 0.166807 0.489371
vt 0.118067 0.489371
vt 0.157542 0.483049
vt 0.165948 0.482837
vt 0.160828 0.478316
vt 0.960222 0.102117
vt 0.957563 0.141748
vt 0.962756 0.139451
vt 0.984454 0.163690
vt 0.984454 0.102667
vt 0.964946 0.100765
vt 0.215739 0.927296
vt 0.213025 0.920417
vt 0.237373 0.914730
vt 0.249422 0.922179
vt 0.302941 0.927296
vt 0.248874 0.900935
vt 0.991176 0.199405
vt 0.991176 0.266582
vt 0.987815 0.246440
vt 0.859244 0.205357
vt 0.823801 0.205357
vt 0.857577 0.200255
vt 0.813866 0.201439
vt 0.127190 0.565480
vt 0.141597 0.590154
vt 0.120104 0.561978
vt 0.096964 0.564367
vt 0.088129 0.544960
vt 0.073214 0.550718
vt 0.033669 0.525085
vt 0.060399 0.526657
vt 0.059746 0.596326
vt 0.123654 0.633078
vt 0.075705 0.604917
vt 0.024790 0.568276
vt 0.025087 0.587596
vt 0.040008 0.633078
vt 0.613332 0.053823
vt 0.616015 0.054347
vt 0.654202 0.016582
vt 0.654202 0.127674
vt 0.589496 0.133078
vt 0.018457 0.452919
vt 0.012841 0.456074
vt 0.023950 0.459609
vt 0.023649 0.449138
vt 0.023950 0.406037
vt 0.003782 0.439737
vt 0.139916 0.775935
vt 0.138235 0.753954
vt 0.139916 0.744473
vt 0.259244 0.317755
vt 0.306252 0.341106
vt 0.298915 0.257523
vt 0.308824 0.373724
vt 0.300587 0.373490
vt 0.282942 0.248641
vt 0.291612 0.215575
vt 0.308824 0.155187
vt 0.704622 0.178997
vt 0.674754 0.253363
vt 0.704622 0.274067
vt 0.679109 0.283190
vt 0.663172 0.288690
vt 0.642437 0.239032
vt 0.088513 0.906037
vt 0.111611 0.862670
vt 0.136555 0.899037
vt 0.132889 0.906037
vt 0.057876 0.894863
vt 0.053361 0.863245
vt 0.955042 0.822704
vt 0.935426 0.753827
vt 0.955042 0.755267
vt 0.927311 0.789409
vt 0.524633 0.457908
vt 0.497059 0.480867
vt 0.544958 0.480867
vt 0.991176 0.758078
vt 0.973529 0.723203
vt 0.991176 0.716412
vt 0.169937 0.468484
vt 0.148344 0.466300
vt 0.191176 0.468963
vt 0.139252 0.464108
vt 0.097926 0.396456
vt 0.185060 0.404565
vt 0.066498 0.468963
vt 0.084464 0.396388
vt 0.079198 0.385178
vt 0.140890 0.468768
vt 0.094898 0.382725
vt 0.130430 0.377976
vt 0.030672 0.386315
vt 0.516564 0.299918
vt 0.515121 0.336909
vt 0.586134 0.287474
vt 0.506560 0.277312
vt 0.506303 0.303340
vt 0.532079 0.260629
vt 0.586134 0.322781
vt 0.544303 0.367181
vt 0.585440 0.371015
vt 0.545066 0.377978
vt 0.506517 0.372897
vt 0.506501 0.410289
vt 0.117227 0.743622
vt 0.117227 0.701133
vt 0.082773 0.714753
vt 0.112547 0.661990
vt 0.655882 0.117772
vt 0.661427 0.079507
vt 0.724790 0.117772
vt 0.467846 0.145510
vt 0.516012 0.131193
vt 0.470019 0.082485
vt 0.519748 0.190051
vt 0.510117 0.082113
vt 0.502071 0.033518
vt 0.453361 0.085390
vt 0.519748 0.008929
vt 0.503265 0.187323
vt 0.464057 0.141662
vt 0.511454 0.138296
vt 0.875210 0.360119
vt 0.832353 0.398473
vt 0.875210 0.451956
vt 0.983613 0.363520
vt 0.961765 0.394727
vt 0.983613 0.406490
vt 0.961900 0.436650
vt 0.256723 0.972364
vt 0.187815 0.958733
vt 0.187837 0.961245
vt 0.256723 0.934949
vt 0.674370 0.861820
vt 0.755882 0.861820
vt 0.724978 0.811650
vt 0.656723 0.097364
vt 0.655882 0.066240
vt 0.656723 0.014881
vt 0.718908 0.757228
vt 0.724790 0.757228
vt 0.719060 0.752976
vt 0.349160 0.710459
vt 0.318718 0.683648
vt 0.313866 0.670964
vt 0.349160 0.656888
vt 0.355992 0.050522
vt 0.392017 0.020833
vt 0.360811 0.087487
vt 0.312543 0.124604
vt 0.358966 0.126301
vt 0.364640 0.161640
vt 0.311446 0.157103
vt 0.335515 0.190041
vt 0.347702 0.196003
vt 0.390579 0.159712
vt 0.392017 0.125428
vt 0.348606 0.087618
vt 0.305462 0.081623
vt 0.306524 0.047904
vt 0.335355 0.050963
vt 0.390128 0.088508
vt 0.815754 0.591336
vt 0.779833 0.575855
vt 0.808705 0.544973
vt 0.776534 0.544643
vt 0.777273 0.599371
vt 0.816387 0.604167
vt 0.728992 0.604167
vt 0.872689 0.164716
vt 0.905462 0.223214
vt 0.905445 0.186967
vt 0.877892 0.149580
vt 0.905462 0.142432
vt 0.606302 0.995323
vt 0.566847 0.988520
vt 0.539916 0.995323
vt 0.724678 0.250425
vt 0.716126 0.207959
vt 0.724790 0.228479
vt 0.724711 0.202501
vt 0.716361 0.175645
vt 0.724728 0.166010
vt 0.691176 0.143573
vt 0.724790 0.121173
vt 0.696520 0.128343
vt 0.789475 0.975765
vt 0.788148 0.942602
vt 0.753361 0.948927
vt 0.755630 0.974933
vt 0.826471 0.973507
vt 0.826471 0.943765
vt 0.808944 0.874458
vt 0.801825 0.846381
vt 0.844136 0.831207
vt 0.851681 0.874575
vt 0.764286 0.874575
vt 0.934947 0.935431
vt 0.954202 0.980867
vt 0.895378 0.948917
vt 0.954202 0.934949
vt 0.168487 0.011869
vt 0.203782 0.008078
vt 0.203782 0.062500
vt 0.198318 0.057455
vt 0.644515 0.911990
vt 0.619979 0.937565
vt 0.671249 0.954066
vt 0.678571 0.954507
vt 0.610504 0.954507
vt 0.819748 0.168306
vt 0.838235 0.076105
vt 0.838235 0.174745
vt 0.499580 0.207908
vt 0.485833 0.206735
vt 0.499580 0.191752
vt 0.479412 0.202852
vt 0.954161 0.041675
vt 0.950000 0.015812
vt 0.989496 0.055697
vt 0.989496 0.001276
vt 0.953361 0.752976
vt 0.917004 0.681548
vt 0.953361 0.703969
vt 0.914706 0.726555
vt 0.185154 0.231317
vt 0.197584 0.275951
vt 0.223574 0.244463
vt 0.233438 0.281037
vt 0.179033 0.233686
vt 0.242437 0.233132
vt 0.198078 0.228316
vt 0.144118 0.281037
vt 0.395378 0.903486
vt 0.470168 0.903486
vt 0.407619 0.869131
vt 0.435238 0.858418
vt 0.743383 0.946854
vt 0.733193 0.891928
vt 0.761765 0.862670
vt 0.761765 0.900792
vt 0.053448 0.123724
vt 0.008824 0.127976
vt 0.097899 0.127976
vt 0.005462 0.860119
vt 0.082761 0.847486
vt 0.026175 0.802296
vt 0.082773 0.860119
vt 0.623814 0.914541
vt 0.664286 0.903640
vt 0.622740 0.903486
vt 0.615546 0.914541
vt 0.335103 0.046344
vt 0.373529 0.026353
vt 0.318474 0.007228
vt 0.284454 0.046344
vt 0.172689 0.984269
vt 0.138096 0.940901
vt 0.114706 0.984269
vt 0.168465 0.952392
vt 0.424380 0.997024
vt 0.475210 0.997024
vt 0.448544 0.979330
vt 0.423950 0.974065
vt 0.480682 0.247858
vt 0.449644 0.236021
vt 0.440756 0.251276
vt 0.483613 0.251276
vt 0.471779 0.163690
vt 0.689496 0.201105
vt 0.681933 0.160253
vt 0.689496 0.125425
vt 0.792017 0.527636
vt 0.797899 0.527636
vt 0.795066 0.476411
vt 0.793423 0.474915
vt 0.273529 0.259779
vt 0.249160 0.229396
vt 0.273529 0.206207
vt 0.894538 0.077231
vt 0.899580 0.043793
vt 0.899580 0.088861
vt 0.686134 0.009779
vt 0.730672 0.009779
vt 0.687917 0.001276
vt 0.583613 0.192602
vt 0.529031 0.178997
vt 0.525630 0.192602
vt 0.278920 0.706207
vt 0.235579 0.661990
vt 0.338235 0.703637
vt 0.209664 0.706207
vt 0.281668 0.861347
vt 0.280252 0.886480
vt 0.317227 0.886480
vt 0.301819 0.845663
vt 0.078576 0.707908
vt 0.118434 0.641781
vt 0.094363 0.639466
vt 0.117947 0.645618
vt 0.048319 0.622024
vt 0.137395 0.644404
vt 0.055830 0.704635
vt 0.137395 0.690941
vt 0.398739 0.332908
vt 0.441597 0.332908
vt 0.420442 0.288690
vt 0.733193 0.746173
vt 0.777731 0.746173
vt 0.745650 0.709609
vt 0.250840 0.758929
vt 0.208824 0.715561
vt 0.250840 0.715784
vt 0.212919 0.745664
vt 0.650245 0.705760
vt 0.685326 0.705566
vt 0.674581 0.747874
vt 0.656317 0.747191
vt 0.730672 0.747874
vt 0.719769 0.706637
vt 0.639916 0.671344
vt 0.729916 0.675932
vt 0.694691 0.675964
vt 0.002941 0.991071
vt 0.058403 0.991071
vt 0.044795 0.957058
vt 0.010116 0.960432
vt 0.076891 0.008078
vt 0.139076 0.008078
vt 0.100695 0.000425
vt 0.758976 0.773384
vt 0.771825 0.833183
vt 0.781787 0.776223
vt 0.823109 0.833759
vt 0.740756 0.833759
vt 0.994538 0.838010
vt 0.992857 0.835646
vt 0.994538 0.795493
vt 0.794538 0.097364
vt 0.794538 0.142432
vt 0.792017 0.098051
vt 0.133193 0.995323
vt 0.090558 0.976616
vt 0.064286 0.995323
vt 0.757563 0.931410
vt 0.777731 0.876276
vt 0.777731 0.941752
vt 0.922269 0.431548
vt 0.887815 0.484038
vt 0.922269 0.519133
vt 0.890530 0.448712
vt 0.479754 0.540620
vt 0.585294 0.526676
vt 0.451681 0.582058
vt 0.582504 0.490221
vt 0.578471 0.582058
vt 0.915546 0.165391
vt 0.903782 0.082061
vt 0.915546 0.054847
vt 0.666807 0.534439
vt 0.637288 0.511480
vt 0.599580 0.534439
vt 0.044118 0.002976
vt 0.044118 0.036990
vt 0.002941 0.019501
vt 0.005462 0.601754
vt 0.018908 0.562224
vt 0.018908 0.628827
vt 0.008847 0.509779
vt 0.547273 0.735119
vt 0.459244 0.792092
vt 0.498125 0.751885
vt 0.550840 0.792092
vt 0.566732 0.837266
vt 0.597899 0.845663
vt 0.574974 0.790391
vt 0.515546 0.845663
vt 0.786134 0.993329
vt 0.823209 0.984269
vt 0.828992 0.998724
vt 0.814926 0.998724
vt 0.943898 0.497024
vt 0.956723 0.505897
vt 0.956723 0.546344
vt 0.939916 0.535807
vt 0.065126 0.497024
vt 0.035802 0.405187
vt 0.020588 0.497024
vt 0.326671 0.912840
vt 0.299580 0.948554
vt 0.377731 0.948554
vt 0.511676 0.000425
vt 0.497059 0.008078
vt 0.571849 0.008078
vt 0.946639 0.073025
vt 0.990336 0.062500
vt 0.990336 0.080357
vt 0.741597 0.112670
vt 0.790336 0.112670
vt 0.774682 0.014031
vt 0.903782 0.673044
vt 0.903782 0.777636
vt 0.885294 0.725048
vt 0.212089 0.351271
vt 0.239185 0.304434
vt 0.199236 0.330720
vt 0.182773 0.301026
vt 0.249160 0.376276
vt 0.249160 0.249575
vt 0.831986 0.624066
vt 0.843277 0.707058
vt 0.795378 0.707058
vt 0.812177 0.618622
vt 0.936555 0.137330
vt 0.936555 0.218963
vt 0.910504 0.179397
vt 0.068487 0.947704
vt 0.008824 0.891582
vt 0.032626 0.947704
vt 0.065374 0.900546
vt 0.926471 0.851860
vt 0.953361 0.823554
vt 0.953361 0.905187
vt 0.594538 0.931548
vt 0.591303 0.978316
vt 0.547949 0.957445
vt 0.535714 0.978316
vt 0.490336 0.954507
vt 0.448499 0.923044
vt 0.412185 0.954507
vt 0.660084 0.786990
vt 0.681542 0.757228
vt 0.717130 0.786990
vt 0.780252 0.760532
vt 0.234034 0.289454
vt 0.238235 0.253827
vt 0.238235 0.294643
vt 0.967647 0.214711
vt 0.941597 0.185985
vt 0.967647 0.159439
vt 0.879120 0.875245
vt 0.922269 0.928146
vt 0.917829 0.849915
vt 0.878571 0.928146
vt 0.916387 0.281907
vt 0.946639 0.302296
vt 0.927870 0.224694
vt 0.946639 0.224065
vt 0.155042 0.138180
vt 0.111345 0.129267
vt 0.155042 0.118622
vt 0.737984 0.004677
vt 0.732353 0.035016
vt 0.756723 0.060799
vt 0.756723 0.006772
vt 0.402101 0.587944
vt 0.441597 0.580357
vt 0.441597 0.624575
vt 0.770168 0.337978
vt 0.793697 0.316752
vt 0.793697 0.371173
usemtl baked
f 821/821 818/818 820/820
f 818/818 819/819 820/820
f 159/159 161/161 160/160
f 154/154 159/159 160/160
f 904/904 906/906 905/905
f 903/903 904/904 905/905
f 910/910 908/908 907/907
f 907/907 908/908 909/909
f 657/657 654/654 656/656
f 657/657 656/656 658/658
f 101/101 98/98 99/99
f 101/101 99/99 102/102
f 176/176 172/172 175/175
f 172/172 176/176 177/177
f 914/914 915/915 916/916
f 776/776 779/779 777/777
f 779/779 778/778 777/777
f 917/917 918/918 919/919
f 911/911 912/912 913/913
f 927/927 928/928 929/929
f 927/927 929/929 930/930
f 935/935 926/926 927/927
f 927/927 926/926 928/928
f 304/304 303/303 301/301
f 301/301 303/303 299/299
f 301/301 299/299 300/300
f 301/301 300/300 302/302
f 957/957 956/956 958/958
f 958/958 956/956 959/959
f 938/938 935/935 937/937
f 937/937 935/935 936/936
f 935/935 927/927 936/936
f 955/955 956/956 957/957
f 958/958 959/959 960/960
f 960/960 959/959 961/961
f 960/960 961/961 962/962
f 961/961 963/963 962/962
f 970/970 971/971 972/972
f 970/970 972/972 973/973
f 308/308 307/307 297/297
f 975/975 976/976 977/977
f 978/978 976/976 975/975
f 309/309 307/307 308/308
f 985/985 984/984 987/987
f 991/991 992/992 993/993
f 992/992 994/994 993/993
f 930/930 929/929 931/931
f 929/929 932/932 931/931
f 310/310 309/309 303/303
f 309/309 308/308 303/303
f 986/986 983/983 985/985
f 983/983 984/984 985/985
f 929/929 928/928 933/933
f 928/928 934/934 933/933
f 995/995 996/996 997/997
f 997/997 996/996 998/998
f 153/153 155/155 158/158
f 162/162 153/153 158/158
f 381/381 380/380 388/388
f 388/388 380/380 389/389
f 379/379 377/377 378/378
f 379/379 390/390 389/389
f 380/380 379/379 389/389
f 382/382 377/377 379/379
f 217/217 219/219 222/222
f 612/612 613/613 614/614
f 612/612 616/616 615/615
f 612/612 615/615 613/613
f 158/158 155/155 157/157
f 155/155 156/156 157/157
f 154/154 163/163 156/156
f 155/155 154/154 156/156
f 560/560 562/562 558/558
f 562/562 561/561 558/558
f 999/999 1002/1002 1000/1000
f 999/999 1000/1000 1001/1001
f 387/387 386/386 382/382
f 386/386 385/385 382/382
f 1005/1005 1008/1008 1003/1003
f 1003/1003 1008/1008 1009/1009
f 1004/1004 1006/1006 1005/1005
f 1003/1003 1004/1004 1005/1005
f 387/387 382/382 384/384
f 383/383 384/384 382/382
f 380/380 383/383 382/382
f 382/382 379/379 380/380
f 381/381 384/384 380/380
f 384/384 383/383 380/380
f 382/382 385/385 377/377
f 377/377 385/385 391/391
f 1011/1011 1012/1012 1013/1013
f 1012/1012 1014/1014 1013/1013
f 751/751 750/750 752/752
f 749/749 750/750 751/751
f 141/141 145/145 138/138
f 141/141 146/146 145/145
f 572/572 573/573 574/574
f 138/138 145/145 143/143
f 693/693 695/695 696/696
f 857/857 858/858 859/859
f 395/395 397/397 398/398
f 392/392 397/397 395/395
f 854/854 855/855 856/856
f 693/693 694/694 695/695
f 653/653 652/652 655/655
f 652/652 653/653 654/654
f 654/654 653/653 656/656
f 863/863 860/860 866/866
f 858/858 857/857 866/866
f 860/860 858/858 866/866
f 177/177 178/178 172/172
f 102/102 99/99 103/103
f 717/717 719/719 715/715
f 733/733 732/732 723/723
f 732/732 731/731 723/723
f 1015/1015 1017/1017 1018/1018
f 1015/1015 1016/1016 1017/1017
f 723/723 731/731 724/724
f 731/731 726/726 724/724
f 23/23 24/24 25/25
f 1019/1019 1020/1020 1021/1021
f 724/724 726/726 727/727
f 727/727 729/729 730/730
f 727/727 726/726 728/728
f 727/727 728/728 729/729
f 1025/1025 1023/1023 1022/1022
f 1022/1022 1023/1023 1024/1024
f 107/107 105/105 106/106
f 106/106 105/105 96/96
f 104/104 97/97 96/96
f 105/105 104/104 96/96
f 847/847 850/850 848/848
f 108/108 96/96 98/98
f 96/96 97/97 98/98
f 172/172 173/173 174/174
f 174/174 175/175 172/172
f 1026/1026 1028/1028 1029/1029
f 1026/1026 1027/1027 1028/1028
f 847/847 848/848 849/849
f 1032/1032 1033/1033 1030/1030
f 1030/1030 1031/1031 1032/1032
f 109/109 106/106 108/108
f 106/106 96/96 108/108
f 113/113 115/115 111/111
f 113/113 116/116 115/115
f 1034/1034 1037/1037 1035/1035
f 1038/1038 1039/1039 1040/1040
f 1041/1041 1038/1038 1040/1040
f 1034/1034 1035/1035 1036/1036
f 1042/1042 1046/1046 1043/1043
f 558/558 561/561 559/559
f 561/561 563/563 559/559
f 1047/1047 1048/1048 1049/1049
f 760/760 756/756 758/758
f 697/697 698/698 699/699
f 756/756 757/757 758/758
f 758/758 757/757 759/759
f 1050/1050 1052/1052 1053/1053
f 1050/1050 1051/1051 1052/1052
f 698/698 697/697 700/700
f 1054/1054 1055/1055 1056/1056
f 392/392 394/394 397/397
f 681/681 682/682 683/683
f 189/189 184/184 193/193
f 189/189 193/193 192/192
f 190/190 189/189 192/192
f 687/687 688/688 689/689
f 78/78 79/79 80/80
f 797/797 796/796 798/798
f 795/795 796/796 797/797
f 195/195 190/190 194/194
f 190/190 192/192 194/194
f 341/341 345/345 342/342
f 341/341 346/346 345/345
f 1057/1057 1058/1058 1059/1059
f 1060/1060 1061/1061 1062/1062
f 1042/1042 1043/1043 1044/1044
f 340/340 341/341 342/342
f 870/870 872/872 875/875
f 886/886 887/887 888/888
f 72/72 70/70 69/69
f 880/880 881/881 879/879
f 880/880 879/879 877/877
f 185/185 186/186 183/183
f 186/186 187/187 183/183
f 189/189 185/185 184/184
f 185/185 189/189 190/190
f 879/879 878/878 877/877
f 183/183 188/188 184/184
f 183/183 184/184 185/185
f 873/873 874/874 871/871
f 873/873 871/871 870/870
f 877/877 878/878 876/876
f 871/871 877/877 876/876
f 871/871 876/876 872/872
f 870/870 871/871 872/872
f 183/183 191/191 188/188
f 187/187 196/196 191/191
f 771/771 768/768 770/770
f 187/187 191/191 183/183
f 768/768 769/769 770/770
f 340/340 342/342 343/343
f 344/344 340/340 343/343
f 1045/1045 1042/1042 1044/1044
f 1063/1063 1064/1064 1065/1065
f 84/84 85/85 86/86
f 845/845 846/846 842/842
f 841/841 845/845 842/842
f 1066/1066 1069/1069 1067/1067
f 1066/1066 1067/1067 1068/1068
f 861/861 868/868 862/862
f 867/867 868/868 861/861
f 865/865 861/861 864/864
f 865/865 867/867 861/861
f 470/470 469/469 472/472
f 869/869 864/864 863/863
f 314/314 315/315 316/316
f 1070/1070 1071/1071 1072/1072
f 1073/1073 1070/1070 1072/1072
f 138/138 143/143 144/144
f 138/138 144/144 136/136
f 153/153 159/159 154/154
f 153/153 154/154 155/155
f 1080/1080 1074/1074 1078/1078
f 1074/1074 1076/1076 1078/1078
f 1074/1074 1077/1077 1075/1075
f 1074/1074 1075/1075 1076/1076
f 1077/1077 1081/1081 1079/1079
f 1077/1077 1079/1079 1075/1075
f 93/93 94/94 95/95
f 311/311 312/312 313/313
f 814/814 816/816 815/815
f 813/813 814/814 815/815
f 26/26 27/27 28/28
f 501/501 500/500 521/521
f 500/500 522/522 521/521
f 1085/1085 1086/1086 1087/1087
f 1088/1088 1089/1089 1090/1090
f 1091/1091 1089/1089 1088/1088
f 503/503 515/515 504/504
f 516/516 515/515 503/503
f 517/517 508/508 506/506
f 501/501 508/508 517/517
f 508/508 509/509 507/507
f 506/506 508/508 507/507
f 549/549 548/548 547/547
f 519/519 515/515 516/516
f 1092/1092 1093/1093 1094/1094
f 1092/1092 1094/1094 1095/1095
f 1093/1093 1096/1096 1094/1094
f 1093/1093 1097/1097 1096/1096
f 544/544 546/546 547/547
f 501/501 521/521 518/518
f 501/501 518/518 508/508
f 1082/1082 1083/1083 1084/1084
f 548/548 544/544 547/547
f 1098/1098 1093/1093 1092/1092
f 1098/1098 1100/1100 1093/1093
f 1099/1099 1097/1097 1093/1093
f 1100/1100 1099/1099 1093/1093
f 523/523 533/533 520/520
f 523/523 534/534 533/533
f 520/520 529/529 509/509
f 509/509 529/529 507/507
f 529/529 530/530 507/507
f 518/518 523/523 520/520
f 527/527 523/523 518/518
f 533/533 529/529 520/520
f 509/509 518/518 520/520
f 508/508 518/518 509/509
f 964/964 965/965 966/966
f 945/945 944/944 940/940
f 944/944 941/941 940/940
f 968/968 969/969 965/965
f 968/968 965/965 964/964
f 964/964 966/966 967/967
f 778/778 775/775 777/777
f 437/437 438/438 440/440
f 437/437 440/440 441/441
f 585/585 586/586 587/587
f 587/587 588/588 585/585
f 674/674 675/675 676/676
f 711/711 712/712 713/713
f 788/788 791/791 790/790
f 228/228 229/229 230/230
f 761/761 762/762 763/763
f 231/231 229/229 228/228
f 788/788 790/790 789/789
f 772/772 773/773 774/774
f 66/66 67/67 68/68
f 541/541 538/538 540/540
f 538/538 539/539 540/540
f 1109/1109 1111/1111 1110/1110
f 1108/1108 1109/1109 1110/1110
f 1108/1108 1112/1112 1109/1109
f 1105/1105 1106/1106 1107/1107
f 543/543 540/540 542/542
f 540/540 539/539 542/542
f 443/443 437/437 444/444
f 437/437 441/441 444/444
f 1113/1113 1114/1114 1115/1115
f 593/593 588/588 594/594
f 1116/1116 1117/1117 1118/1118
f 447/447 448/448 445/445
f 445/445 446/446 447/447
f 593/593 585/585 588/588
f 713/713 712/712 714/714
f 670/670 671/671 672/672
f 497/497 498/498 499/499
f 1119/1119 1120/1120 1121/1121
f 817/817 816/816 814/814
f 621/621 622/622 623/623
f 1122/1122 1123/1123 1124/1124
f 535/535 536/536 526/526
f 526/526 536/536 524/524
f 566/566 565/565 567/567
f 564/564 565/565 566/566
f 504/504 506/506 505/505
f 506/506 507/507 505/505
f 503/503 504/504 505/505
f 503/503 505/505 514/514
f 511/511 510/510 514/514
f 510/510 503/503 514/514
f 510/510 511/511 512/512
f 510/510 512/512 513/513
f 827/827 830/830 828/828
f 827/827 831/831 830/830
f 832/832 827/827 829/829
f 827/827 828/828 829/829
f 463/463 459/459 462/462
f 459/459 461/461 462/462
f 530/530 537/537 507/507
f 463/463 464/464 459/459
f 514/514 528/528 511/511
f 528/528 532/532 511/511
f 524/524 513/513 512/512
f 524/524 512/512 526/526
f 512/512 531/531 535/535
f 512/512 535/535 526/526
f 532/532 531/531 511/511
f 511/511 531/531 512/512
f 833/833 829/829 834/834
f 833/833 832/832 829/829
f 525/525 513/513 524/524
f 734/734 735/735 736/736
f 1125/1125 1128/1128 1126/1126
f 1125/1125 1126/1126 1127/1127
f 1132/1132 1130/1130 1129/1129
f 1134/1134 1135/1135 1136/1136
f 436/436 438/438 437/437
f 435/435 436/436 437/437
f 439/439 436/436 435/435
f 392/392 395/395 393/393
f 62/62 63/63 64/64
f 62/62 65/65 63/63
f 775/775 776/776 777/777
f 941/941 946/946 943/943
f 354/354 355/355 352/352
f 604/604 605/605 606/606
f 606/606 605/605 607/607
f 352/352 351/351 354/354
f 544/544 545/545 546/546
f 500/500 501/501 502/502
f 412/412 413/413 414/414
f 415/415 412/412 414/414
f 801/801 802/802 803/803
f 803/803 802/802 804/804
f 799/799 800/800 801/801
f 800/800 802/802 801/801
f 323/323 324/324 325/325
f 325/325 324/324 327/327
f 803/803 805/805 806/806
f 803/803 804/804 805/805
f 802/802 807/807 804/804
f 809/809 807/807 802/802
f 207/207 206/206 208/208
f 323/323 326/326 324/324
f 802/802 808/808 809/809
f 800/800 808/808 802/802
f 487/487 488/488 489/489
f 35/35 36/36 37/37
f 807/807 812/812 811/811
f 804/804 807/807 810/810
f 804/804 810/810 805/805
f 807/807 811/811 810/810
f 629/629 632/632 630/630
f 629/629 633/633 632/632
f 1137/1137 1138/1138 1139/1139
f 1140/1140 1141/1141 1142/1142
f 1004/1004 1007/1007 1010/1010
f 1004/1004 1003/1003 1007/1007
f 250/250 251/251 252/252
f 251/251 250/250 253/253
f 730/730 724/724 727/727
f 20/20 21/21 22/22
f 603/603 601/601 600/600
f 629/629 630/630 631/631
f 199/199 198/198 205/205
f 197/197 198/198 199/199
f 205/205 206/206 207/207
f 198/198 206/206 205/205
f 600/600 601/601 602/602
f 17/17 18/18 19/19
f 851/851 852/852 853/853
f 596/596 598/598 597/597
f 201/201 200/200 199/199
f 200/200 197/197 199/199
f 200/200 202/202 197/197
f 723/723 724/724 725/725
f 599/599 596/596 595/595
f 595/595 596/596 597/597
f 203/203 201/201 199/199
f 203/203 199/199 204/204
f 1104/1104 1101/1101 1103/1103
f 1101/1101 1102/1102 1103/1103
f 552/552 553/553 550/550
f 550/550 551/551 552/552
f 350/350 351/351 352/352
f 350/350 352/352 353/353
f 648/648 649/649 650/650
f 648/648 650/650 651/651
f 1143/1143 1146/1146 1144/1144
f 1143/1143 1144/1144 1145/1145
f 577/577 576/576 579/579
f 576/576 577/577 578/578
f 581/581 580/580 578/578
f 578/578 580/580 576/576
f 1148/1148 1147/1147 1150/1150
f 456/456 457/457 458/458
f 660/660 661/661 662/662
f 1147/1147 1148/1148 1149/1149
f 1151/1151 1152/1152 1153/1153
f 1151/1151 1153/1153 1154/1154
f 75/75 76/76 77/77
f 882/882 883/883 884/884
f 884/884 883/883 885/885
f 360/360 361/361 362/362
f 925/925 939/939 926/926
f 924/924 925/925 926/926
f 926/926 939/939 934/934
f 928/928 926/926 934/934
f 717/717 716/716 718/718
f 715/715 716/716 717/717
f 1155/1155 1156/1156 1157/1157
f 1157/1157 1158/1158 1155/1155
f 1159/1159 1160/1160 1161/1161
f 1161/1161 1162/1162 1159/1159
f 1163/1163 1164/1164 1165/1165
f 133/133 131/131 128/128
f 306/306 305/305 297/297
f 297/297 305/305 298/298
f 297/297 298/298 299/299
f 299/299 298/298 300/300
f 307/307 306/306 297/297
f 317/317 318/318 319/319
f 317/317 319/319 320/320
f 469/469 470/470 471/471
f 119/119 121/121 122/122
f 119/119 120/120 121/121
f 465/465 466/466 467/467
f 708/708 710/710 709/709
f 423/423 424/424 425/425
f 1166/1166 1167/1167 1168/1168
f 861/861 862/862 858/858
f 858/858 860/860 861/861
f 115/115 106/106 109/109
f 137/137 136/136 147/147
f 147/147 136/136 144/144
f 295/295 296/296 293/293
f 295/295 293/293 292/292
f 150/150 152/152 151/151
f 149/149 150/150 151/151
f 53/53 54/54 55/55
f 50/50 51/51 52/52
f 864/864 861/861 863/863
f 861/861 860/860 863/863
f 282/282 283/283 284/284
f 282/282 285/285 283/283
f 449/449 450/450 451/451
f 701/701 702/702 703/703
f 97/97 100/100 99/99
f 97/97 99/99 98/98
f 116/116 117/117 115/115
f 118/118 117/117 116/116
f 1169/1169 1170/1170 1171/1171
f 708/708 709/709 704/704
f 706/706 708/708 704/704
f 111/111 115/115 109/109
f 135/135 136/136 137/137
f 138/138 136/136 135/135
f 135/135 141/141 138/138
f 148/148 141/141 135/135
f 764/764 765/765 766/766
f 767/767 764/764 766/766
f 321/321 322/322 319/319
f 322/322 320/320 319/319
f 126/126 123/123 125/125
f 123/123 124/124 125/125
f 286/286 283/283 287/287
f 284/284 283/283 286/286
f 56/56 57/57 58/58
f 824/824 825/825 826/826
f 59/59 60/60 61/61
f 707/707 705/705 704/704
f 704/704 705/705 706/706
f 574/574 573/573 575/575
f 291/291 293/293 294/294
f 291/291 292/292 293/293
f 941/941 943/943 942/942
f 940/940 941/941 942/942
f 974/974 970/970 973/973
f 922/922 923/923 920/920
f 920/920 921/921 922/922
f 1172/1172 1173/1173 1174/1174
f 32/32 33/33 34/34
f 1175/1175 1176/1176 1177/1177
f 1178/1178 1179/1179 1180/1180
f 1182/1182 1181/1181 1185/1185
f 1186/1186 1182/1182 1185/1185
f 666/666 664/664 663/663
f 663/663 664/664 665/665
f 619/619 618/618 620/620
f 258/258 261/261 259/259
f 258/258 259/259 260/260
f 1187/1187 1188/1188 1189/1189
f 1182/1182 1184/1184 1183/1183
f 1181/1181 1182/1182 1183/1183
f 112/112 111/111 110/110
f 111/111 109/109 110/110
f 112/112 113/113 111/111
f 114/114 113/113 112/112
f 110/110 109/109 108/108
f 659/659 657/657 658/658
f 1129/1129 1130/1130 1131/1131
f 1131/1131 1130/1130 1133/1133
f 1191/1191 1192/1192 1193/1193
f 617/617 618/618 619/619
f 1197/1197 1195/1195 1194/1194
f 667/667 668/668 669/669
f 582/582 583/583 584/584
f 1194/1194 1195/1195 1196/1196
f 179/179 180/180 181/181
f 180/180 182/182 181/181
f 402/402 405/405 403/403
f 818/818 821/821 822/822
f 818/818 822/822 823/823
f 1198/1198 1199/1199 1200/1200
f 373/373 374/374 375/375
f 375/375 374/374 376/376
f 357/357 356/356 359/359
f 356/356 357/357 358/358
f 4/4 2/2 1/1
f 1/1 2/2 3/3
f 432/432 433/433 434/434
f 379/379 380/380 381/381
f 387/387 384/384 381/381
f 637/637 638/638 639/639
f 402/402 403/403 404/404
f 87/87 88/88 89/89
f 558/558 559/559 560/560
f 377/377 376/376 378/378
f 377/377 375/375 376/376
f 217/217 218/218 219/219
f 223/223 219/219 218/218
f 14/14 15/15 16/16
f 459/459 460/460 461/461
f 690/690 691/691 692/692
f 1201/1201 1202/1202 1203/1203
f 1202/1202 1204/1204 1203/1203
f 720/720 721/721 722/722
f 684/684 685/685 686/686
f 780/780 781/781 782/782
f 785/785 780/780 782/782
f 753/753 754/754 755/755
f 781/781 783/783 782/782
f 8/8 9/9 10/10
f 11/11 12/12 13/13
f 5/5 6/6 7/7
f 792/792 793/793 794/794
f 218/218 220/220 221/221
f 217/217 220/220 218/218
f 347/347 348/348 349/349
f 90/90 91/91 92/92
f 278/278 279/279 280/280
f 278/278 281/281 279/279
f 1205/1205 1206/1206 1207/1207
f 786/786 787/787 788/788
f 786/786 788/788 789/789
f 224/224 225/225 226/226
f 224/224 226/226 227/227
f 392/392 393/393 394/394
f 393/393 396/396 394/394
f 435/435 437/437 442/442
f 442/442 437/437 443/443
f 229/229 232/232 230/230
f 232/232 233/233 230/230
f 266/266 269/269 267/267
f 266/266 267/267 268/268
f 745/745 746/746 747/747
f 746/746 745/745 741/741
f 571/571 568/568 570/570
f 568/568 569/569 570/570
f 73/73 72/72 74/74
f 72/72 73/73 69/69
f 71/71 72/72 69/69
f 69/69 70/70 71/71
f 742/742 744/744 743/743
f 743/743 744/744 748/748
f 741/741 742/742 743/743
f 741/741 745/745 742/742
f 784/784 785/785 782/782
f 783/783 784/784 782/782
f 841/841 842/842 843/843
f 844/844 841/841 843/843
f 738/738 740/740 739/739
f 737/737 738/738 739/739
f 288/288 289/289 290/290
f 399/399 400/400 401/401
f 1208/1208 1209/1209 1210/1210
f 1209/1209 1211/1211 1210/1210
f 165/165 167/167 166/166
f 164/164 165/165 166/166
f 480/480 482/482 481/481
f 479/479 480/480 481/481
f 135/135 139/139 140/140
f 139/139 135/135 137/137
f 1190/1190 1187/1187 1189/1189
f 81/81 82/82 83/83
f 140/140 139/139 142/142
f 422/422 420/420 419/419
f 419/419 420/420 421/421
f 262/262 263/263 264/264
f 244/244 245/245 246/246
f 265/265 262/262 264/264
f 634/634 635/635 636/636
f 468/468 467/467 466/466
f 1212/1212 1213/1213 1214/1214
f 479/479 478/478 480/480
f 477/477 478/478 479/479
f 363/363 364/364 365/365
f 365/365 364/364 366/366
f 170/170 169/169 171/171
f 168/168 169/169 170/170
f 554/554 555/555 556/556
f 554/554 556/556 557/557
f 240/240 237/237 239/239
f 240/240 239/239 242/242
f 328/328 329/329 330/330
f 329/329 331/331 330/330
f 237/237 238/238 239/239
f 241/241 238/238 237/237
f 44/44 45/45 46/46
f 234/234 235/235 236/236
f 29/29 30/30 31/31
f 239/239 238/238 243/243
f 494/494 495/495 496/496
f 332/332 329/329 328/328
f 611/611 609/609 608/608
f 628/628 625/625 624/624
f 624/624 625/625 626/626
f 47/47 48/48 49/49
f 624/624 627/627 628/628
f 608/608 609/609 610/610
f 333/333 334/334 335/335
f 336/336 333/333 335/335
f 837/837 836/836 838/838
f 835/835 836/836 837/837
f 642/642 641/641 643/643
f 640/640 641/641 642/642
f 491/491 493/493 492/492
f 490/490 491/491 492/492
f 988/988 989/989 990/990
f 131/131 129/129 128/128
f 129/129 131/131 132/132
f 1215/1215 1216/1216 1217/1217
f 952/952 953/953 954/954
f 947/947 948/948 949/949
f 1222/1222 1223/1223 1224/1224
f 1223/1223 1225/1225 1224/1224
f 1218/1218 1221/1221 1219/1219
f 1218/1218 1219/1219 1220/1220
f 950/950 947/947 949/949
f 950/950 949/949 951/951
f 41/41 42/42 43/43
f 1226/1226 1227/1227 1228/1228
f 337/337 338/338 339/339
f 127/127 128/128 129/129
f 1232/1232 1229/1229 1231/1231
f 1229/1229 1230/1230 1231/1231
f 254/254 255/255 256/256
f 255/255 257/257 256/256
f 428/428 429/429 430/430
f 430/430 429/429 431/431
f 838/838 836/836 839/839
f 839/839 836/836 840/840
f 407/407 409/409 408/408
f 372/372 368/368 370/370
f 370/370 368/368 367/367
f 406/406 407/407 408/408
f 367/367 369/369 371/371
f 406/406 408/408 410/410
f 411/411 406/406 410/410
f 367/367 368/368 369/369
f 272/272 277/277 276/276
f 473/473 474/474 475/475
f 474/474 476/476 475/475
f 272/272 276/276 270/270
f 416/416 417/417 418/418
f 247/247 248/248 249/249
f 593/593 594/594 592/592
f 672/672 671/671 673/673
f 592/592 594/594 590/590
f 127/127 130/130 134/134
f 483/483 484/484 485/485
f 484/484 486/486 485/485
f 270/270 273/273 271/271
f 273/273 275/275 271/271
f 644/644 645/645 646/646
f 645/645 647/647 646/646
f 426/426 427/427 428/428
f 427/427 429/429 428/428
f 212/212 210/210 209/209
f 213/213 212/212 209/209
f 891/891 889/889 899/899
f 900/900 901/901 902/902
f 891/891 898/898 889/889
f 895/895 898/898 891/891
f 209/209 210/210 211/211
f 209/209 211/211 216/216
f 214/214 209/209 216/216
f 894/894 895/895 891/891
f 272/272 271/271 274/274
f 894/894 893/893 896/896
f 894/894 891/891 893/893
f 897/897 892/892 889/889
f 1236/1236 1237/1237 1238/1238
f 1233/1233 1234/1234 1235/1235
f 892/892 890/890 889/889
f 891/891 890/890 893/893
f 209/209 215/215 216/216
f 889/889 890/890 891/891
f 589/589 590/590 591/591
f 592/592 590/590 589/589
f 452/452 453/453 454/454
f 455/455 452/452 454/454
f 38/38 39/39 40/40
f 214/214 213/213 209/209
f 677/677 678/678 679/679
f 680/680 677/677 679/679
f 130/130 127/127 129/129
f 270/270 271/271 272/272
f 979/979 980/980 981/981
f 979/979 981/981 982/982
