v -7.574806 4.897904 -5.522529 0.6439 0.2088 0.2113
v -7.535053 4.738776 -5.201557 0.5635 0.2030 0.2344
v -7.332450 4.738314 -4.483325 0.5117 0.2964 0.3536
v -7.883941 4.873674 -3.008783 0.4902 0.3604 0.4214
v -7.884142 4.873674 -2.284000 0.4883 0.3488 0.3999
v -7.883960 4.873674 -1.533049 0.5475 0.2830 0.3270
v -7.883960 4.873674 -0.774042 0.4954 0.4369 0.4794
v -7.880888 4.880677 -0.043024 0.4520 0.4402 0.5195
v -7.883941 4.873674 0.042661 0.4823 0.3900 0.4661
v -7.884417 4.842186 0.754360 0.5002 0.3039 0.3700
v -7.884307 4.866671 1.696928 0.4868 0.4086 0.4685
v -7.884454 4.824692 2.234857 0.4668 0.4080 0.4632
v -7.884582 4.775709 3.557069 0.4701 0.3766 0.4439
v -7.884088 4.845687 3.699889 0.5257 0.2545 0.3207
v -7.883941 4.796705 4.545457 0.5060 0.3317 0.3790
v -7.700830 4.897295 5.474345 0.5050 0.3461 0.3698
v -7.627157 5.412479 -5.973781 0.6214 0.0914 0.1008
v -8.044836 5.433475 -5.131934 0.5909 0.2022 0.2146
v -8.044763 5.426484 -3.785919 0.6195 0.2179 0.2423
v -8.044617 5.433474 -3.115889 0.6187 0.2942 0.3302
v -8.043392 5.254396 -2.475617 0.6254 0.3060 0.3380
v -8.044982 5.349503 -2.237585 0.6605 0.4878 0.5067
v -8.044342 5.258541 -0.947513 0.5895 0.3422 0.3603
v -8.044433 5.265532 -0.233433 0.6276 0.4141 0.4316
v -8.044598 5.265532 0.475867 0.6289 0.3508 0.3884
v -8.044726 5.265531 1.330070 0.6117 0.3816 0.4196
v -8.044763 5.265531 2.102757 0.5768 0.3266 0.3643
v -7.995520 5.236998 2.941775 0.5642 0.2329 0.2730
v -8.044251 5.258541 3.648709 0.6169 0.2687 0.3186
v -8.044488 5.265531 4.336588 0.6440 0.4795 0.5104
v -8.044580 5.265531 5.160156 0.6690 0.3565 0.3807
v -7.574532 5.236572 5.588598 0.6653 0.2751 0.2829
v -7.700684 5.264437 5.959789 0.6023 0.6179 0.6010
v -7.628437 5.447468 -5.974161 0.5068 0.5123 0.5124
v -8.045001 5.461461 -5.217636 0.5015 0.5059 0.5036
v -7.290356 5.499501 -4.415489 0.5481 0.5577 0.5579
v -7.692931 5.499562 -3.045670 0.5552 0.5655 0.5672
v -7.327201 5.499538 -2.279236 0.6167 0.6546 0.6634
v -7.227216 5.499440 -1.635391 0.6149 0.6433 0.6447
v -7.227216 5.499416 -1.074552 0.5677 0.5882 0.5800
v -7.282786 5.499148 -0.034091 0.5046 0.5141 0.5058
v -7.292002 5.499258 0.261952 0.6073 0.6323 0.6386
v -7.700830 5.499549 0.723411 0.5669 0.6035 0.6257
v -7.287723 5.499476 1.466041 0.4904 0.5231 0.5449
v -7.745556 5.499562 2.264020 0.4937 0.5063 0.5097
v -7.811330 5.499622 2.967960 0.5542 0.5761 0.5848
v -7.325885 5.499476 4.426739 0.5759 0.5927 0.6006
v -7.227874 5.499500 5.051859 0.5814 0.5928 0.5955
v -7.769182 5.478735 5.897973 0.5209 0.5295 0.5299
v -7.716665 5.479003 5.945679 0.6089 0.6178 0.5884
v -6.659212 0.503731 -3.084957 0.6391 0.5334 0.3538
v -6.658390 0.477483 -2.570814 0.5448 0.4114 0.1999
v -6.657329 0.267560 2.908459 0.5790 0.4955 0.3550
v -6.595725 0.494977 3.192279 0.7412 0.6311 0.4254
v -6.660254 1.063531 -3.084957 0.7243 0.6675 0.5479
v -6.660035 1.060029 -2.570814 0.6685 0.5598 0.3659
v -6.659285 0.701409 2.909650 0.8146 0.7130 0.5544
v -6.595725 1.056527 3.192378 0.8329 0.7555 0.5891
v -6.661937 1.588779 -3.075429 0.7074 0.6990 0.6328
v -6.660894 1.287446 -2.580342 0.6822 0.6612 0.5645
v -6.660382 1.074022 2.760876 0.7896 0.7705 0.6752
v -6.606257 1.593155 3.192113 0.8165 0.7902 0.6855
v -6.663820 2.095658 -3.075429 0.6359 0.6245 0.5574
v -6.662906 1.661809 -2.627948 0.5599 0.5530 0.4916
v -6.662522 1.652192 2.785871 0.7945 0.7649 0.6572
v -6.435214 2.064170 3.192974 0.8038 0.7873 0.6970
v -6.665521 2.392615 -3.005806 0.6645 0.6365 0.5490
v -6.665173 2.172639 -2.646988 0.7506 0.7235 0.6442
v -6.664259 2.176127 2.637113 0.8332 0.7873 0.6663
v -6.406287 2.512888 3.192841 0.8186 0.7846 0.6776
v -6.666983 2.721935 -3.008783 0.7539 0.7149 0.6126
v -6.667093 2.719309 -2.967131 0.7513 0.7180 0.6374
v -6.667349 2.731563 2.656152 0.8411 0.7545 0.6108
v -6.527318 2.731563 3.192759 0.8535 0.7735 0.6196
v -6.668721 3.279996 -3.084957 0.6065 0.6086 0.5758
v -6.673274 3.796054 -2.646987 0.6981 0.6825 0.6295
v -6.672067 3.741394 2.665978 0.7946 0.7057 0.5850
v -6.543099 3.314097 3.192726 0.7353 0.7148 0.6548
v -6.527721 4.120778 -3.214559 0.5474 0.5773 0.5814
v -6.406287 4.205236 -2.270635 0.5381 0.5642 0.5687
v -6.409578 4.264624 -2.177324 0.4726 0.4927 0.5038
v -6.509088 4.343465 2.110845 0.5026 0.5426 0.5697
v -6.673054 3.995483 2.637113 0.6001 0.6354 0.6401
v -6.416800 4.047967 3.192709 0.5949 0.6159 0.6001
v -6.406287 4.659181 -5.274753 0.6224 0.2125 0.2166
v -6.406287 4.658306 -4.777284 0.4470 0.5142 0.5558
v -6.406287 4.658063 -4.165563 0.4302 0.5294 0.5912
v -6.406287 4.658525 -3.203956 0.4788 0.5560 0.5990
v -6.675596 4.383852 -2.580341 0.4684 0.5259 0.5497
v -6.527483 4.583550 -2.242911 0.4592 0.4845 0.5027
v -6.415996 4.655607 -0.912395 0.4415 0.4873 0.5227
v -6.415960 4.655801 -0.114433 0.4216 0.4764 0.5195
v -6.406287 4.658026 0.687714 0.3968 0.4441 0.4824
v -6.416124 4.655704 1.237537 0.4086 0.5017 0.5626
v -6.406287 4.657868 1.517221 0.4709 0.5551 0.6095
v -6.674078 4.356729 2.627586 0.4809 0.5693 0.6135
v -6.526734 4.356801 3.635376 0.4532 0.5393 0.5714
v -6.406287 4.658257 4.293745 0.4415 0.5180 0.5598
v -6.406287 4.658317 4.455603 0.4164 0.4704 0.4960
v -6.406287 4.658682 5.262498 0.5873 0.2010 0.2033
v -7.216683 5.440477 -5.974757 0.6833 0.1183 0.1118
v -6.622037 4.898171 0.023060 0.5000 0.5000 0.5000
v -6.622037 4.898171 2.184306 0.5000 0.5000 0.5000
v -6.443113 5.216549 5.711269 0.7097 0.2871 0.2938
v -6.682234 5.300958 6.023010 0.6410 0.6653 0.6587
v -6.992996 5.461412 -5.974475 0.5750 0.5921 0.5769
v -6.406287 5.499562 -5.079581 0.5039 0.5081 0.5066
v -6.416800 5.499465 -4.460713 0.5017 0.5046 0.5040
v -6.723669 5.499647 -3.738908 0.5028 0.5049 0.5075
v -7.195637 5.499623 -2.318522 0.5031 0.5051 0.5081
v -7.211417 5.499452 -1.766301 0.5043 0.5082 0.5108
v -6.699660 5.499380 -0.774935 0.5037 0.5071 0.5086
v -6.440809 5.499185 -0.040344 0.5034 0.5063 0.5082
v -6.418117 5.499306 0.321154 0.5025 0.5049 0.5081
v -6.827274 5.499489 0.713883 0.5029 0.5059 0.5091
v -7.159121 5.499562 1.470805 0.5046 0.5076 0.5110
v -7.203536 5.499537 2.337200 0.5042 0.5081 0.5097
v -6.457596 5.499391 2.962601 0.5004 0.5027 0.5050
v -7.074605 5.499537 4.425846 0.5016 0.5044 0.5086
v -6.412193 5.499415 4.831526 0.5017 0.5049 0.5059
v -6.471401 5.499184 5.297616 0.4952 0.5009 0.5015
v -6.575336 5.497896 5.988472 0.5479 0.5551 0.5403
v -6.020571 0.514222 -3.037351 0.5805 0.4836 0.2999
v -6.019254 0.520350 -2.618421 0.6501 0.5358 0.3139
v -6.020534 0.514222 2.837050 0.6565 0.5239 0.2678
v -6.032749 0.514222 3.155904 0.5522 0.4502 0.2480
v -6.013915 1.058279 -3.024250 0.7797 0.7210 0.5679
v -6.012763 1.064844 -2.657707 0.7305 0.6682 0.5088
v -6.016512 0.843104 2.641877 0.7710 0.7001 0.5463
v -6.019583 1.072271 3.149122 0.8022 0.7172 0.5135
v -6.007863 1.521865 -3.008783 0.7736 0.7442 0.6531
v -6.005705 1.609775 -2.680319 0.6854 0.6512 0.5388
v -6.012873 1.102008 2.665680 0.7689 0.7399 0.6409
v -6.011209 1.589216 3.146889 0.7990 0.7642 0.6650
v -6.000402 2.136774 -3.042098 0.7667 0.7346 0.6316
v -6.000366 2.060669 -2.656515 0.7193 0.6914 0.5962
v -6.005833 1.672750 2.627585 0.7949 0.7530 0.6418
v -6.014866 2.040560 3.155375 0.8123 0.7639 0.6525
v -5.999671 2.186194 -3.032586 0.8100 0.7562 0.6370
v -5.999689 2.170888 -2.775515 0.8176 0.7718 0.6723
v -5.998738 2.183568 2.665680 0.8340 0.7759 0.6471
v -6.006601 2.337079 3.151206 0.8205 0.7667 0.6510
v -5.991972 2.744681 -3.075429 0.8201 0.7563 0.6341
v -5.992137 2.742712 -2.977834 0.8247 0.7701 0.6644
v -5.991278 2.723685 2.641877 0.8304 0.7247 0.5870
v -6.009435 2.721934 3.158055 0.8408 0.7614 0.6185
v -5.983268 3.356089 -3.009676 0.6834 0.6710 0.6263
v -5.982610 3.293989 -2.618420 0.7410 0.7044 0.6277
v -5.975955 3.804807 2.922735 0.7575 0.6845 0.5888
v -6.010971 3.262501 3.166127 0.6836 0.6869 0.6578
v -6.101064 4.047968 -3.142107 0.5972 0.6102 0.6079
v -5.974382 3.824052 -2.580341 0.5905 0.6132 0.6244
v -6.105380 4.237307 -2.257352 0.5298 0.5529 0.5687
v -6.105307 4.350164 2.129421 0.4968 0.5307 0.5545
v -6.104374 4.236905 2.322924 0.5748 0.6001 0.6031
v -6.143157 4.276867 3.544034 0.6121 0.6360 0.6367
v -5.753748 4.896871 -5.236675 0.6149 0.1570 0.1562
v -5.597188 4.897090 -5.129569 0.4839 0.5527 0.5765
v -6.182197 4.642757 -4.084642 0.4971 0.5721 0.5977
v -5.965367 4.355854 -3.061153 0.4968 0.5351 0.5467
v -5.965294 4.377287 -2.926671 0.5090 0.5565 0.5720
v -5.611670 4.896798 -1.552088 0.4882 0.5234 0.5362
v -5.671189 4.896943 -0.776722 0.4899 0.5506 0.5708
v -5.585357 4.896919 -0.564296 0.4772 0.5178 0.5323
v -5.598504 4.897040 0.261654 0.4277 0.4468 0.4576
v -5.585357 4.896968 1.456513 0.4296 0.4694 0.4853
v -6.105837 4.532549 1.837365 0.4828 0.5341 0.5535
v -5.606404 4.897162 2.560940 0.4978 0.5481 0.5663
v -5.659029 4.897125 3.674894 0.5077 0.5361 0.5397
v -5.659029 4.896773 4.427037 0.5297 0.5804 0.5930
v -6.049865 4.873674 5.155392 0.4375 0.4574 0.4607
v -5.728752 4.873674 5.339152 0.6116 0.2419 0.2491
v -5.643231 5.440477 -5.974641 0.6712 0.3020 0.2895
v -5.586015 4.997448 5.712046 0.6709 0.5023 0.5113
v -6.016859 5.440476 6.023126 0.6730 0.7205 0.7153
v -5.648497 5.499465 -5.284282 0.5943 0.6117 0.5951
v -5.616918 5.499672 -4.931997 0.5053 0.5090 0.5089
v -6.296427 5.499477 -4.469050 0.5048 0.5075 0.5109
v -5.653763 5.499404 -3.008783 0.5045 0.5062 0.5110
v -5.590605 5.499404 -2.475617 0.5049 0.5078 0.5110
v -6.144474 5.499380 -1.546133 0.5063 0.5100 0.5121
v -6.336545 5.499367 -0.966850 0.5065 0.5098 0.5130
v -5.651788 5.499185 -0.034687 0.5061 0.5090 0.5124
v -5.647016 5.499306 0.175357 0.5047 0.5078 0.5129
v -6.180003 5.499489 0.718647 0.5052 0.5086 0.5121
v -6.369770 5.499513 1.463064 0.5043 0.5077 0.5121
v -6.349382 5.499513 2.204504 0.5049 0.5084 0.5127
v -6.320765 5.499428 2.951303 0.5034 0.5070 0.5122
v -6.401020 5.499440 3.851028 0.5029 0.5068 0.5102
v -5.785328 5.499415 5.160156 0.5034 0.5075 0.5090
v -6.304985 5.499379 5.233931 0.4939 0.5000 0.5017
v -5.664277 5.499318 5.921826 0.5245 0.5323 0.5226
v -4.795988 4.897138 -5.236675 0.5429 0.2597 0.2770
v -4.760477 4.897187 -4.503556 0.4919 0.5903 0.6224
v -4.895974 4.897065 -3.779981 0.4936 0.5923 0.6244
v -4.801254 4.897223 -3.137310 0.4704 0.5334 0.5520
v -4.777575 4.709233 -2.573278 0.4560 0.4800 0.4843
v -4.759728 4.897199 -1.960448 0.4950 0.5915 0.6247
v -4.795165 4.897162 -0.950176 0.4951 0.5935 0.6279
v -4.786790 4.897199 -0.052237 0.4939 0.5930 0.6285
v -4.890726 4.897308 0.668956 0.4922 0.5932 0.6285
v -4.768212 4.897174 1.298228 0.4918 0.5940 0.6325
v -4.880193 4.897223 1.494608 0.4930 0.5859 0.6204
v -4.801254 4.897271 2.551429 0.4561 0.5257 0.5625
v -4.770992 4.752963 3.077035 0.4803 0.5539 0.5889
v -5.059117 4.897004 4.185448 0.4924 0.5880 0.6221
v -5.203829 4.896906 4.486553 0.4810 0.5793 0.6154
v -5.018322 4.768707 5.339416 0.5633 0.3446 0.3583
v -4.817053 5.440477 -5.974624 0.6415 0.2634 0.2558
v -4.843366 5.192064 5.711501 0.6598 0.1930 0.1873
v -4.788107 5.300520 6.022630 0.5748 0.6257 0.6159
v -5.217635 5.499696 -5.233400 0.6285 0.6364 0.6180
v -4.801254 5.499404 -4.509510 0.5051 0.5086 0.5089
v -4.764427 5.499526 -4.003721 0.5052 0.5087 0.5107
v -4.776916 5.499088 -3.185512 0.5055 0.5078 0.5126
v -4.784815 5.499246 -2.329820 0.5058 0.5082 0.5126
v -4.797469 5.499173 -1.666043 0.5065 0.5102 0.5128
v -4.766402 5.499173 -0.776126 0.5063 0.5099 0.5127
v -5.044964 5.499100 -0.078720 0.5047 0.5091 0.5123
v -5.353313 5.499331 0.275930 0.5053 0.5093 0.5131
v -5.506418 5.499416 0.771017 0.5046 0.5082 0.5116
v -5.578939 5.499476 1.476462 0.5051 0.5086 0.5110
v -5.577458 5.499525 2.281868 0.5037 0.5075 0.5112
v -5.551145 5.499452 2.998909 0.5028 0.5063 0.5116
v -5.535364 5.499464 3.729630 0.5037 0.5084 0.5113
v -5.548511 5.499525 5.131589 0.5037 0.5088 0.5114
v -5.574824 5.499452 5.229779 0.4918 0.4981 0.5012
v -4.864413 5.499172 5.921826 0.5274 0.5411 0.5214
v -4.122422 4.896810 -5.236675 0.5013 0.2350 0.2586
v -4.053997 4.896834 -4.505937 0.4864 0.5840 0.6144
v -3.940535 4.896664 -3.973963 0.4984 0.5950 0.6266
v -4.148716 4.896895 -3.708571 0.4537 0.4475 0.4404
v -3.959278 4.883960 -2.565536 0.4631 0.4695 0.4671
v -4.025051 4.897065 -2.244731 0.4946 0.5923 0.6250
v -4.111889 4.896883 -1.513993 0.4919 0.5956 0.6306
v -4.307581 4.897150 -0.065934 0.4910 0.5959 0.6325
v -3.964544 4.897077 0.668228 0.4988 0.5886 0.6194
v -3.942181 4.896895 1.432131 0.5017 0.5916 0.6206
v -4.021778 4.896797 1.854022 0.4906 0.5917 0.6277
v -3.954012 4.896882 2.541901 0.4854 0.5568 0.5975
v -4.011904 4.660275 3.070286 0.4867 0.5706 0.6078
v -4.744368 4.897064 4.422289 0.4952 0.5930 0.6284
v -4.701269 4.897308 4.988769 0.4886 0.5851 0.6208
v -4.534852 4.866671 5.339400 0.5579 0.2973 0.3092
v -3.975059 5.377502 -5.973930 0.5801 0.3270 0.3200
v -4.023753 5.237144 5.898023 0.5949 0.1048 0.1172
v -4.067163 5.237302 5.978944 0.5819 0.5991 0.5584
v -4.004004 5.499441 -5.236675 0.5118 0.5131 0.4997
v -4.527611 5.499416 -4.513083 0.5054 0.5093 0.5083
v -4.025051 5.499428 -4.087024 0.5047 0.5084 0.5097
v -4.015854 5.499064 -3.184917 0.5053 0.5085 0.5114
v -3.985591 5.499137 -2.324461 0.5059 0.5089 0.5132
v -3.996123 5.499015 -1.581234 0.5059 0.5091 0.5130
v -4.026532 5.499051 -0.794719 0.5053 0.5089 0.5114
v -4.403617 5.498954 -0.061467 0.5047 0.5094 0.5133
v -4.751262 5.499124 0.166144 0.5049 0.5090 0.5120
v -4.650289 5.499246 0.718795 0.5047 0.5082 0.5104
v -4.531725 5.499233 1.472443 0.5045 0.5080 0.5105
v -4.636483 5.499282 2.203313 0.5035 0.5074 0.5099
v -4.756528 5.499172 2.950112 0.5035 0.5072 0.5110
v -4.705219 5.499379 4.001572 0.5035 0.5070 0.5118
v -4.690755 5.499403 5.023292 0.5036 0.5076 0.5110
v -4.173383 5.499342 5.188707 0.4964 0.5019 0.5038
v -4.125037 5.499148 5.921826 0.4931 0.4997 0.4927
v -3.185708 4.896968 -5.236675 0.5138 0.3149 0.3371
v -3.464617 4.896932 -4.534505 0.4864 0.5896 0.6223
v -3.842196 4.896688 -3.969794 0.4942 0.5969 0.6329
v -3.889555 4.896859 -3.094468 0.4579 0.4994 0.5087
v -3.195253 4.897466 -2.523223 0.4642 0.4892 0.4914
v -3.115985 4.897369 -2.123333 0.4935 0.5929 0.6259
v -3.295897 4.897162 -0.793081 0.4945 0.5955 0.6289
v -3.204122 4.897296 -0.065636 0.4909 0.5958 0.6313
v -3.157256 4.897211 0.670825 0.4939 0.5898 0.6215
v -3.151843 4.897065 1.398502 0.5035 0.5871 0.6099
v -3.161370 4.897089 1.855511 0.4923 0.5939 0.6291
v -3.155445 4.649272 2.928690 0.4909 0.5860 0.6249
v -3.133082 4.649248 2.960831 0.4981 0.5955 0.6307
v -3.909285 4.896870 3.842096 0.4947 0.5940 0.6306
v -3.768523 4.896943 4.531777 0.4903 0.5746 0.6020
v -3.160711 4.896979 5.283919 0.5356 0.3143 0.3311
v -3.404933 5.441073 -5.974508 0.5525 0.2674 0.2574
v -3.254114 5.237095 5.902786 0.6134 0.0410 0.0480
v -3.543556 5.237168 5.921826 0.6409 0.6461 0.6049
v -3.514610 5.499234 -5.275944 0.5191 0.5224 0.5008
v -3.138348 5.499258 -4.782048 0.5064 0.5103 0.5101
v -3.134399 5.499282 -4.392281 0.5038 0.5078 0.5090
v -3.220743 5.499039 -3.008402 0.5041 0.5072 0.5103
v -3.669854 5.499100 -2.274489 0.5045 0.5081 0.5125
v -3.346548 5.499063 -1.619627 0.5049 0.5085 0.5134
v -3.848120 5.499051 -0.791609 0.5049 0.5080 0.5122
v -3.901386 5.498918 -0.495268 0.5051 0.5072 0.5122
v -3.144931 5.499148 0.662720 0.5051 0.5080 0.5122
v -3.898442 5.499185 1.433306 0.5050 0.5081 0.5110
v -3.143615 5.499136 2.197953 0.5051 0.5089 0.5105
v -3.143779 5.499075 2.942668 0.5038 0.5078 0.5098
v -3.690901 5.499330 3.627288 0.5047 0.5087 0.5105
v -3.932965 5.499306 4.303273 0.5046 0.5077 0.5119
v -3.927699 5.499452 5.017337 0.5048 0.5071 0.5119
v -3.722480 5.499415 5.188707 0.4957 0.5024 0.5029
v -3.775106 5.499112 5.921826 0.5576 0.5621 0.5417
v -2.342415 4.896762 -5.236675 0.5829 0.2069 0.2142
v -3.101521 4.897211 -4.779666 0.4924 0.5912 0.6257
v -2.937061 4.896992 -3.797829 0.4952 0.5955 0.6315
v -3.106769 4.897272 -3.161113 0.4277 0.4423 0.4360
v -2.337149 4.896847 -2.494656 0.4519 0.4975 0.5059
v -2.318077 4.896968 -1.538392 0.4941 0.5967 0.6301
v -2.355581 4.897199 -0.792205 0.4958 0.5986 0.6332
v -2.317419 4.897174 -0.033496 0.4920 0.5946 0.6300
v -2.320545 4.897186 0.700798 0.4902 0.5910 0.6262
v -2.331901 4.897016 0.988802 0.4917 0.5941 0.6294
v -2.339124 4.896967 1.565423 0.4916 0.5934 0.6298
v -2.575940 4.649260 2.937325 0.4938 0.5915 0.6275
v -2.422671 4.649224 2.953685 0.4991 0.5943 0.6284
v -3.073563 4.897113 3.747197 0.4966 0.5954 0.6311
v -2.541069 4.896894 4.430610 0.4877 0.5807 0.6147
v -2.396358 4.897052 5.236313 0.5852 0.2399 0.2474
v -2.296628 5.440684 -5.974508 0.6561 0.3852 0.3613
v -3.075208 5.237192 5.902786 0.6249 0.0990 0.0938
v -3.038363 5.237350 5.959905 0.6135 0.6455 0.6264
v -2.345048 5.499380 -5.279517 0.6022 0.6085 0.5786
v -2.759454 5.499356 -4.515466 0.5054 0.5093 0.5099
v -2.325976 5.499380 -3.755582 0.5042 0.5080 0.5096
v -2.348998 5.499307 -3.678813 0.5046 0.5079 0.5116
v -2.359183 5.499161 -2.270767 0.5043 0.5080 0.5120
v -3.103332 5.499027 -1.543602 0.5035 0.5076 0.5129
v -3.083089 5.499039 -1.471151 0.5052 0.5065 0.5122
v -2.333217 5.498820 -0.133472 0.5056 0.5070 0.5123
v -2.303942 5.499063 0.460996 0.5060 0.5088 0.5125
v -2.759454 5.499185 1.438070 0.5055 0.5088 0.5112
v -2.543702 5.499124 2.199144 0.5059 0.5093 0.5114
v -2.297689 5.499039 2.893589 0.5048 0.5081 0.5119
v -2.306905 5.499270 3.603485 0.5045 0.5077 0.5108
v -3.047579 5.499270 4.398486 0.5050 0.5078 0.5117
v -3.113681 5.499367 5.105701 0.5041 0.5070 0.5111
v -2.744990 5.499318 5.177409 0.4950 0.5018 0.5028
v -2.470030 5.468463 6.022448 0.5317 0.5374 0.5270
v -2.140470 4.896798 -5.236675 0.6623 0.1921 0.1779
v -2.278525 4.897187 -5.011661 0.4956 0.5916 0.6237
v -2.293739 4.896956 -4.229843 0.4969 0.5954 0.6304
v -2.275326 4.897211 -3.487213 0.4117 0.4267 0.4196
v -1.607007 4.896907 -2.275680 0.4029 0.4077 0.3942
v -1.538601 4.896956 -2.256624 0.4928 0.5968 0.6315
v -1.479557 4.896980 -0.953600 0.4946 0.5986 0.6344
v -1.701891 4.897211 -0.034538 0.4921 0.5949 0.6304
v -1.651404 4.896968 0.390182 0.4920 0.5918 0.6254
v -1.564895 4.897004 0.716265 0.4948 0.5943 0.6290
v -2.260843 4.897016 1.459491 0.4928 0.5896 0.6232
v -1.480050 4.721475 2.623268 0.5018 0.5835 0.6124
v -1.570162 4.649272 2.970342 0.5068 0.5912 0.6245
v -1.491223 4.896967 4.272324 0.4976 0.5971 0.6323
v -1.800395 4.897417 5.164903 0.4956 0.5904 0.6252
v -1.491881 4.896833 5.264880 0.5698 0.2895 0.3074
v -1.651733 5.433475 -5.974343 0.6911 0.2977 0.2668
v -1.535968 5.202556 5.711534 0.5952 0.2269 0.2390
v -2.270059 5.237168 5.978944 0.6195 0.6615 0.6602
v -1.543849 5.499356 -5.274753 0.6104 0.6176 0.5843
v -2.220067 5.499392 -4.620190 0.5065 0.5095 0.5110
v -2.236176 5.499440 -3.756475 0.5053 0.5073 0.5109
v -1.499781 5.499124 -3.224782 0.5051 0.5071 0.5113
v -1.954323 5.499209 -2.339944 0.5047 0.5070 0.5134
v -2.284523 5.498978 -1.951963 0.5027 0.5067 0.5123
v -1.896431 5.499136 -0.814221 0.5035 0.5068 0.5118
v -1.534322 5.498978 -0.038557 0.5063 0.5087 0.5128
v -1.543849 5.499161 0.673422 0.5057 0.5093 0.5111
v -1.490729 5.499246 1.268188 0.5057 0.5091 0.5110
v -1.489906 5.499270 1.749281 0.5047 0.5080 0.5113
v -1.486304 5.499087 2.881084 0.5034 0.5069 0.5114
v -1.491881 5.499233 3.661793 0.5039 0.5068 0.5120
v -1.840184 5.499342 4.386576 0.5043 0.5075 0.5118
v -2.280592 5.499355 5.164903 0.5045 0.5080 0.5101
v -2.208236 5.499196 5.379132 0.4954 0.5027 0.5051
v -1.547872 5.475465 6.022001 0.5913 0.5989 0.5813
v -1.438615 4.896798 -5.236675 0.6116 0.2710 0.2812
v -1.321844 4.896968 -4.513084 0.4892 0.5846 0.6185
v -1.308038 4.896944 -3.776408 0.4983 0.5979 0.6323
v -1.470670 4.897163 -3.437820 0.4234 0.4389 0.4265
v -0.689713 4.897126 -2.299466 0.4053 0.4178 0.4061
v -0.750549 4.897077 -1.585403 0.4920 0.5956 0.6303
v -0.754498 4.897405 -0.780890 0.4930 0.5989 0.6350
v -0.682142 4.896955 -0.227494 0.4908 0.5951 0.6311
v -0.651880 4.897162 0.004583 0.4909 0.5926 0.6251
v -1.428083 4.896968 0.989993 0.4932 0.5944 0.6269
v -1.464910 4.896967 1.618372 0.4930 0.5886 0.6218
v -0.680826 4.866671 2.623616 0.5011 0.5847 0.6124
v -1.381052 4.649224 2.981656 0.4867 0.5497 0.5726
v -0.674078 4.896967 3.701080 0.4952 0.5928 0.6267
v -0.717671 4.897162 5.122061 0.4913 0.5806 0.6121
v -0.699404 4.897782 5.767113 0.5337 0.4111 0.4406
v -1.459662 5.391495 -5.973649 0.6628 0.3914 0.3520
v -1.104447 5.100652 5.711815 0.6069 0.2856 0.3088
v -0.728844 5.237119 5.962287 0.5842 0.6206 0.6141
v -0.667258 5.499441 -5.337198 0.5521 0.5632 0.5296
v -0.738626 5.499343 -4.512339 0.5068 0.5100 0.5108
v -0.691358 5.499514 -3.803784 0.5054 0.5070 0.5109
v -0.959735 5.499185 -3.220613 0.5047 0.5060 0.5116
v -0.672926 5.499149 -2.799318 0.5047 0.5076 0.5117
v -1.440243 5.499270 -2.245326 0.5050 0.5088 0.5112
v -1.212496 5.499161 -0.805289 0.5060 0.5090 0.5123
v -0.696277 5.498820 -0.043023 0.5051 0.5084 0.5123
v -1.179765 5.499197 0.693355 0.5049 0.5085 0.5106
v -0.938689 5.499246 1.431536 0.5037 0.5065 0.5101
v -0.727527 5.499221 2.177127 0.5032 0.5067 0.5103
v -0.712734 5.499075 2.919758 0.5041 0.5080 0.5109
v -0.771595 5.499282 3.622524 0.5040 0.5080 0.5117
v -0.680661 5.499342 4.305953 0.5044 0.5081 0.5116
v -0.704506 5.499330 4.462452 0.5045 0.5082 0.5090
v -1.301785 5.499160 5.902787 0.5046 0.5082 0.5091
v -0.696606 5.475465 6.022167 0.5328 0.5433 0.5312
v 0.003273 4.873675 -5.809904 0.5422 0.4037 0.4297
v 0.069065 4.897005 -5.227147 0.4935 0.5904 0.6253
v -0.628200 4.896907 -3.837098 0.4980 0.5968 0.6307
v -0.625238 4.897041 -3.693684 0.3744 0.3634 0.3416
v -0.044086 4.897454 -2.270916 0.4184 0.4465 0.4414
v 0.055899 4.897150 -1.594931 0.4928 0.5969 0.6337
v 0.124323 4.897284 -0.992440 0.4949 0.5992 0.6359
v 0.105892 4.897491 -0.638071 0.4931 0.5947 0.6309
v -0.464435 4.898038 -0.019220 0.4907 0.5901 0.6232
v 0.005248 4.897101 1.089970 0.4920 0.5928 0.6247
v -0.029440 4.897138 1.461575 0.4916 0.5904 0.6231
v 0.016932 4.897393 2.221905 0.4717 0.5144 0.5346
v 0.132205 4.897296 3.198846 0.4767 0.5405 0.5679
v 0.083199 4.896991 4.412612 0.4947 0.5842 0.6143
v -0.015140 4.896980 4.503210 0.4845 0.5816 0.6164
v 0.148003 4.897976 5.740928 0.5121 0.5071 0.5381
v -0.085613 5.440526 -5.974608 0.6427 0.2741 0.2564
v 0.143761 4.898159 -0.601713 0.4902 0.5896 0.6237
v -0.459260 4.899290 0.000414 0.4916 0.5911 0.6279
v 0.107665 4.898195 0.866991 0.4926 0.5892 0.6220
v -0.588740 5.040741 5.711914 0.5485 0.5378 0.5597
v 0.067090 5.236925 5.921826 0.6270 0.6546 0.6349
v 0.065444 5.499465 -5.237866 0.5347 0.5450 0.5212
v 0.132205 5.499319 -4.584493 0.5048 0.5089 0.5095
v -0.565060 5.499550 -3.803784 0.5035 0.5069 0.5078
v -0.641201 5.499331 -3.444949 0.5056 0.5079 0.5101
v -0.536114 5.499124 -2.995682 0.5052 0.5073 0.5106
v -0.588740 5.499088 -1.559218 0.5051 0.5084 0.5104
v 0.087149 5.499124 -1.375657 0.5067 0.5099 0.5117
v -0.192254 5.498820 -0.044512 0.5057 0.5086 0.5116
v -0.628200 5.499148 0.623152 0.5037 0.5080 0.5116
v -0.020900 5.499172 1.448110 0.5037 0.5074 0.5121
v -0.609786 5.499270 2.027774 0.5033 0.5069 0.5118
v 0.129571 5.499063 2.884657 0.5039 0.5071 0.5105
v 0.008539 5.499245 3.639181 0.5042 0.5080 0.5106
v 0.110335 5.499294 3.692296 0.5033 0.5074 0.5108
v -0.586107 5.499367 4.462750 0.5061 0.5096 0.5097
v -0.078939 5.499160 5.907534 0.5051 0.5088 0.5076
v 0.103258 5.454469 6.022911 0.5710 0.5817 0.5497
v 0.873208 4.863183 -5.810202 0.5487 0.3385 0.3608
v 0.918940 4.896907 -4.498808 0.4954 0.5881 0.6196
v 0.983397 4.896931 -3.835312 0.4962 0.5982 0.6325
v 0.989980 4.897077 -3.380090 0.4197 0.4222 0.4109
v 0.895260 4.896822 -2.263770 0.3788 0.3746 0.3598
v 0.957578 4.896871 -1.574701 0.4923 0.5933 0.6287
v 0.822228 4.897199 -0.801716 0.4959 0.5961 0.6325
v 0.171683 4.897515 -0.626178 0.4985 0.5964 0.6300
v 0.392700 4.897199 -0.019220 0.4934 0.5957 0.6297
v 0.233506 4.897819 0.852533 0.4939 0.5956 0.6316
v 0.207194 4.897101 1.510670 0.4979 0.5918 0.6258
v 0.172341 4.897247 2.403845 0.4865 0.5610 0.6026
v 0.952476 4.897101 3.653175 0.4750 0.5418 0.5731
v 0.239760 4.896943 4.425548 0.4970 0.5928 0.6231
v 0.178248 4.896919 4.499637 0.4856 0.5840 0.6197
v 0.866314 4.898073 5.733617 0.4915 0.5659 0.6001
v 0.174316 5.374001 -5.974013 0.6045 0.4061 0.3821
v 0.187372 4.898196 -0.580821 0.4872 0.5830 0.6178
v 0.355434 4.898123 0.066465 0.4917 0.5909 0.6276
v 0.175669 4.898123 0.853658 0.4927 0.5923 0.6309
v 0.229557 4.947153 5.711798 0.5262 0.5004 0.5191
v 0.991954 5.237022 5.978944 0.6275 0.6685 0.6578
v 0.275600 5.499392 -5.422337 0.5478 0.5544 0.5377
v 0.982080 5.499319 -4.513083 0.5046 0.5092 0.5094
v 0.983397 5.499282 -4.413107 0.5057 0.5091 0.5102
v 0.198654 5.499380 -3.508634 0.5059 0.5086 0.5110
v 0.260148 5.499100 -2.963856 0.5047 0.5075 0.5117
v 0.956096 5.499100 -1.555363 0.5049 0.5079 0.5108
v 0.773881 5.499100 -0.818224 0.5061 0.5097 0.5108
v 0.634764 5.498796 -0.040046 0.5044 0.5086 0.5115
v 0.845268 5.499136 0.694843 0.5035 0.5082 0.5122
v 0.651532 5.499161 1.446704 0.5045 0.5083 0.5136
v 0.573252 5.499172 2.188293 0.5038 0.5077 0.5132
v 0.898533 5.499051 2.820096 0.5035 0.5074 0.5114
v 0.982080 5.499087 2.967960 0.5039 0.5073 0.5120
v 0.452055 5.499282 3.703164 0.5040 0.5078 0.5112
v 0.941303 5.499391 5.063157 0.5051 0.5089 0.5089
v 0.992613 5.499391 5.807574 0.5012 0.5052 0.5057
v 0.971548 5.475465 6.022216 0.6124 0.6182 0.5933
v 1.808276 4.842187 -5.810186 0.5163 0.4529 0.4829
v 1.725388 4.896968 -4.491067 0.4934 0.5900 0.6218
v 1.787229 4.896907 -3.775217 0.4952 0.5995 0.6354
v 1.791819 4.896907 -3.740695 0.4376 0.3965 0.3659
v 1.357025 4.897077 -2.264961 0.4507 0.4669 0.4642
v 1.177114 4.896955 -1.575296 0.4942 0.5914 0.6272
v 1.029440 4.897053 -1.049855 0.4921 0.5942 0.6321
v 0.997861 4.897199 -0.053726 0.4935 0.5954 0.6316
v 1.000494 4.897199 0.039105 0.4930 0.5959 0.6313
v 1.066285 4.897040 1.109009 0.4926 0.5956 0.6314
v 1.066285 4.896980 1.709119 0.4969 0.5916 0.6253
v 1.001481 4.897235 2.204503 0.4742 0.5435 0.5798
v 1.360975 4.897271 3.622524 0.4977 0.5803 0.6230
v 1.054765 4.896870 4.233054 0.4938 0.5952 0.6297
v 1.016292 4.896846 4.660305 0.4836 0.5816 0.6178
v 1.071533 4.897988 5.740928 0.5030 0.5102 0.5408
v 1.418849 5.279525 -5.973417 0.6387 0.4040 0.3839
v 0.997861 4.954144 5.711997 0.5430 0.4737 0.4975
v 1.810909 5.237228 5.950393 0.5675 0.6282 0.6384
v 1.051803 5.499380 -5.320573 0.5847 0.5931 0.5619
v 1.558313 5.499185 -4.546415 0.5074 0.5113 0.5096
v 1.519657 5.499246 -4.469645 0.5050 0.5088 0.5110
v 1.005760 5.499052 -3.202765 0.5055 0.5089 0.5116
v 1.054930 5.499234 -2.505954 0.5042 0.5092 0.5123
v 1.792477 5.499234 -1.571127 0.5042 0.5087 0.5117
v 1.771431 5.499234 -0.838008 0.5045 0.5076 0.5125
v 1.684611 5.498893 -0.039450 0.5053 0.5103 0.5147
v 1.001975 5.499209 0.598754 0.5049 0.5110 0.5136
v 1.771431 5.499282 1.399396 0.5040 0.5089 0.5133
v 1.763550 5.499270 1.738579 0.5048 0.5091 0.5128
v 1.385313 5.499075 2.223543 0.5053 0.5095 0.5120
v 1.756309 5.499306 3.637395 0.5046 0.5080 0.5128
v 1.760916 5.499342 4.312784 0.5032 0.5064 0.5118
v 1.785913 5.499428 5.016145 0.5034 0.5070 0.5104
v 1.771431 5.499318 5.436250 0.4960 0.5007 0.5021
v 1.755650 5.447467 6.022828 0.6129 0.6208 0.5952
v 2.438432 4.826443 -5.810814 0.5158 0.4161 0.4517
v 2.201141 4.896932 -4.495980 0.4864 0.5866 0.6181
v 2.036534 4.896931 -4.104872 0.4955 0.5970 0.6323
v 1.876682 4.896895 -3.741885 0.4568 0.4820 0.4855
v 1.829323 4.712734 -2.573228 0.4611 0.4871 0.4891
v 1.989815 4.897029 -1.518162 0.4924 0.5915 0.6255
v 2.627889 4.897065 -1.172444 0.4906 0.5941 0.6318
v 2.105599 4.897089 -0.770171 0.4934 0.5914 0.6250
v 1.966135 4.897126 0.709135 0.4953 0.5953 0.6297
v 1.853825 4.896943 1.034325 0.4919 0.5960 0.6315
v 1.818790 4.896846 1.942089 0.4895 0.5917 0.6265
v 2.121050 4.897186 2.209268 0.4418 0.4980 0.5293
v 1.855636 4.897150 3.517800 0.4579 0.5157 0.5473
v 1.850369 4.896967 3.751647 0.4949 0.5946 0.6319
v 1.817145 4.896931 4.795978 0.4702 0.5489 0.5797
v 1.816157 4.897745 5.807574 0.4857 0.4193 0.4400
v 1.849711 5.265532 -5.973367 0.6632 0.4708 0.4524
v 1.987200 4.898511 5.721889 0.5308 0.5275 0.5577
v 2.564731 5.237350 5.962287 0.6081 0.6556 0.6442
v 2.067108 5.499429 -5.234293 0.6400 0.6480 0.6118
v 1.815828 5.499282 -4.686836 0.5081 0.5120 0.5112
v 1.844774 5.499343 -4.460862 0.5061 0.5088 0.5122
v 1.942455 5.499076 -3.215866 0.5051 0.5084 0.5123
v 2.459498 5.498991 -2.970704 0.5043 0.5088 0.5133
v 2.604868 5.499112 -1.606229 0.5037 0.5088 0.5130
v 1.962204 5.499209 -0.850513 0.5036 0.5066 0.5132
v 2.334424 5.498929 -0.090183 0.5044 0.5083 0.5130
v 2.085869 5.499246 0.685630 0.5052 0.5109 0.5141
v 2.598614 5.499136 1.347406 0.5042 0.5090 0.5129
v 2.553229 5.499148 1.490440 0.5048 0.5095 0.5109
v 2.352180 5.499039 2.905334 0.5053 0.5087 0.5118
v 2.142426 5.499306 3.672512 0.5052 0.5082 0.5130
v 1.837880 5.499367 4.383896 0.5040 0.5068 0.5120
v 2.630924 5.499330 5.112467 0.5033 0.5062 0.5104
v 2.579213 5.499294 5.194662 0.4950 0.5014 0.5025
v 1.837551 5.447467 6.022861 0.5523 0.5595 0.5440
v 2.639720 4.817690 -5.811112 0.5419 0.3913 0.4218
v 2.643669 4.896992 -4.746352 0.4825 0.5914 0.6285
v 3.135039 4.896883 -4.483921 0.4944 0.5956 0.6303
v 2.808130 4.897005 -3.735947 0.4645 0.5032 0.5119
v 2.666033 4.719725 -2.573774 0.4623 0.5010 0.5083
v 2.902849 4.897041 -1.520246 0.4897 0.5822 0.6116
v 3.221219 4.897004 -0.777317 0.4899 0.5877 0.6216
v 3.050852 4.897223 -0.071888 0.4947 0.5909 0.6236
v 3.308038 4.897199 0.066465 0.4906 0.5904 0.6265
v 2.734457 4.897223 0.735320 0.4899 0.5921 0.6278
v 2.644986 4.897077 1.815332 0.4941 0.5848 0.6151
v 2.694321 4.670742 2.623152 0.5006 0.5750 0.6079
v 2.644986 4.897332 3.265492 0.5145 0.5911 0.6271
v 2.757479 4.897138 3.697804 0.5008 0.5945 0.6266
v 2.952512 4.896955 4.441626 0.4811 0.5702 0.6054
v 2.647619 4.897721 5.798046 0.4585 0.3925 0.4124
v 2.637745 5.265532 -5.973500 0.6957 0.4224 0.4038
v 3.430405 5.236475 5.764731 0.4914 0.1511 0.1607
v 3.389610 5.237289 5.969432 0.5320 0.5990 0.6121
v 3.408682 5.499416 -5.318787 0.6109 0.6188 0.5904
v 2.798256 5.499307 -4.497617 0.5068 0.5099 0.5103
v 2.652885 5.499307 -4.284579 0.5051 0.5077 0.5101
v 2.737072 5.499003 -3.230141 0.5057 0.5083 0.5108
v 3.457358 5.499173 -2.788318 0.5044 0.5083 0.5141
v 3.383686 5.499173 -1.573212 0.5043 0.5079 0.5139
v 3.282384 5.499197 -0.842177 0.5044 0.5072 0.5126
v 3.442894 5.499015 -0.364359 0.5053 0.5091 0.5130
v 2.755504 5.499136 0.687714 0.5052 0.5092 0.5144
v 3.389610 5.499185 1.205413 0.5053 0.5094 0.5154
v 2.755504 5.499112 1.466041 0.5041 0.5075 0.5109
v 3.340934 5.499148 2.942966 0.5040 0.5069 0.5106
v 2.656506 5.499294 3.611226 0.5034 0.5066 0.5099
v 3.372513 5.499245 4.305655 0.5041 0.5068 0.5112
v 3.423822 5.499403 5.064943 0.5038 0.5072 0.5106
v 3.413290 5.499306 5.176813 0.4962 0.5030 0.5036
v 2.876536 5.475465 6.022101 0.5222 0.5299 0.5171
v 3.498811 4.849190 -5.810219 0.5699 0.4151 0.4389
v 3.465258 4.896992 -4.872498 0.4855 0.5845 0.6197
v 4.123062 4.896664 -3.780130 0.4943 0.5935 0.6272
v 3.486962 4.896664 -3.103996 0.4373 0.4602 0.4639
v 3.476448 4.866672 -2.574006 0.4697 0.5312 0.5473
v 4.235536 4.896858 -1.647285 0.4856 0.5839 0.6181
v 3.465916 4.896955 -0.939176 0.4927 0.5964 0.6326
v 3.459333 4.897053 -0.697587 0.4929 0.5974 0.6338
v 3.900472 4.897053 0.001754 0.4889 0.5903 0.6263
v 3.508009 4.897004 0.984634 0.4895 0.5880 0.6234
v 3.466007 4.896955 1.751366 0.4952 0.5828 0.6143
v 3.462624 4.649285 2.936432 0.4992 0.5848 0.6232
v 3.504736 4.897004 3.408311 0.4961 0.5758 0.6078
v 3.514592 4.896882 3.777534 0.4940 0.5939 0.6292
v 3.520187 4.896955 5.063752 0.4866 0.5847 0.6205
v 3.549792 4.897064 5.176218 0.4742 0.2295 0.2421
v 3.458016 5.279525 -5.973731 0.7285 0.4172 0.3882
v 4.138842 5.237192 5.907534 0.5259 0.1166 0.1232
v 4.165813 5.237216 5.921826 0.5247 0.5278 0.4941
v 3.792185 5.499501 -5.269990 0.6917 0.6964 0.6489
v 3.465916 5.499587 -5.017698 0.5057 0.5080 0.5108
v 3.460083 5.499356 -4.130611 0.5054 0.5079 0.5095
v 4.276313 5.499258 -3.064709 0.5059 0.5086 0.5104
v 4.247385 5.499513 -2.508931 0.5064 0.5101 0.5119
v 4.118454 5.499270 -1.561600 0.5059 0.5091 0.5134
v 4.201982 5.499319 -0.859446 0.5052 0.5087 0.5130
v 3.941175 5.498978 -0.045405 0.5056 0.5080 0.5134
v 4.108580 5.499270 0.687416 0.5055 0.5082 0.5148
v 4.191706 5.499233 0.849556 0.5034 0.5077 0.5114
v 3.514263 5.499294 1.979572 0.5042 0.5083 0.5116
v 4.180935 5.499294 2.891505 0.5037 0.5075 0.5100
v 3.940188 5.499367 3.674894 0.5032 0.5063 0.5093
v 4.123720 5.499452 4.419907 0.5040 0.5072 0.5102
v 4.266128 5.499537 4.716232 0.5050 0.5087 0.5083
v 4.029805 5.499379 5.201063 0.4935 0.4998 0.5005
v 3.529074 5.468463 6.022365 0.5074 0.5139 0.5059
v 4.402611 4.873675 -5.809805 0.5507 0.3859 0.3992
v 4.384198 4.897150 -5.162884 0.4901 0.5872 0.6211
v 4.833474 4.896688 -3.748734 0.4953 0.5949 0.6296
v 4.313158 4.896798 -3.094468 0.4606 0.4848 0.4857
v 4.318424 4.873674 -2.573576 0.4677 0.5242 0.5372
v 4.381564 4.896883 -1.552088 0.4951 0.5968 0.6301
v 4.313158 4.896992 -1.304545 0.4977 0.5979 0.6319
v 4.300175 4.896968 -0.307522 0.4981 0.5966 0.6304
v 4.332888 4.897065 0.249149 0.4931 0.5936 0.6286
v 4.302626 4.896882 1.169700 0.4944 0.5901 0.6252
v 4.304271 4.896992 2.023308 0.4947 0.5914 0.6271
v 4.715733 4.649236 2.860854 0.4992 0.5895 0.6245
v 4.339471 4.896931 3.151240 0.4806 0.5653 0.6018
v 4.283225 4.896821 3.731119 0.4912 0.5915 0.6265
v 4.330255 4.897040 5.169667 0.4904 0.5875 0.6213
v 4.318424 4.896761 5.264880 0.5207 0.0877 0.0928
v 4.376298 5.272535 -5.973549 0.7010 0.5057 0.4606
v 4.543391 5.237156 5.886708 0.5332 0.0652 0.0680
v 4.876225 5.237168 5.921826 0.5760 0.5925 0.5706
v 4.328939 5.499538 -5.274753 0.6667 0.6691 0.6137
v 4.533517 5.499696 -5.203642 0.5052 0.5081 0.5102
v 4.290795 5.499611 -4.046266 0.5047 0.5069 0.5099
v 4.857153 5.499319 -3.010569 0.5059 0.5090 0.5107
v 5.058111 5.499501 -2.498824 0.5060 0.5090 0.5121
v 5.040027 5.499465 -2.198613 0.5062 0.5096 0.5130
v 5.095926 5.499428 -1.004035 0.5055 0.5085 0.5142
v 4.350808 5.499076 -0.346494 0.5043 0.5075 0.5116
v 5.021595 5.499355 0.682950 0.5053 0.5070 0.5120
v 5.019547 5.499306 0.873558 0.5046 0.5076 0.5115
v 4.666069 5.499330 2.185167 0.5049 0.5083 0.5115
v 4.668867 5.499257 2.939393 0.5048 0.5080 0.5114
v 4.439127 5.499501 3.642754 0.5046 0.5081 0.5103
v 4.764409 5.499464 4.236627 0.5045 0.5080 0.5095
v 4.842689 5.499440 4.442222 0.5049 0.5086 0.5071
v 5.057782 5.499391 5.245841 0.4925 0.4986 0.4998
v 4.324020 5.447467 6.023076 0.5121 0.5200 0.5133
v 5.908554 0.500229 -3.046862 0.2994 0.1522 0.0399
v 5.922579 0.283305 -2.555712 0.3779 0.2593 0.0561
v 5.910273 0.415601 2.919757 0.4884 0.3608 0.1597
v 5.908535 0.525589 3.122672 0.4378 0.3230 0.1146
v 5.899831 1.061780 -3.042098 0.4639 0.2886 0.1157
v 5.921719 1.070521 -2.545439 0.4354 0.3157 0.0910
v 5.899649 1.070521 2.779932 0.5182 0.4175 0.2620
v 5.899905 1.051275 2.954875 0.6662 0.5741 0.3743
v 5.898552 1.178990 -3.065901 0.6374 0.6351 0.5503
v 5.911132 1.096769 -2.554884 0.7294 0.6735 0.5346
v 5.896778 1.280455 2.665680 0.6662 0.6450 0.5501
v 5.892865 1.521864 2.960830 0.7579 0.7005 0.5636
v 5.890872 1.650004 -3.044480 0.6073 0.6117 0.5277
v 5.915264 1.910221 -2.539567 0.6963 0.6667 0.5615
v 5.891530 1.625081 2.641877 0.7201 0.6937 0.5883
v 5.889738 1.756721 2.950111 0.7444 0.7184 0.6102
v 5.881199 2.307829 -3.011165 0.6255 0.6206 0.5260
v 5.922012 2.445536 -2.526764 0.6727 0.6475 0.5540
v 5.883338 2.184662 2.873640 0.5720 0.5626 0.5024
v 5.882259 2.260536 2.976297 0.6569 0.6771 0.6042
v 5.874781 2.763926 -3.008783 0.5869 0.5856 0.5587
v 5.875238 2.728719 -2.982598 0.7546 0.7161 0.6173
v 5.874872 2.777919 2.915606 0.5739 0.5590 0.5013
v 5.875420 2.720183 2.986999 0.6924 0.6826 0.6116
v 5.859567 3.746634 -3.043289 0.5727 0.5793 0.5655
v 5.859750 3.725213 -2.580341 0.6969 0.6730 0.6027
v 5.919269 3.729577 2.563619 0.6000 0.5842 0.5338
v 5.867009 3.271242 3.054836 0.7016 0.6745 0.6110
v 5.856952 3.938636 -3.033777 0.4412 0.4561 0.4553
v 5.858525 3.824052 -2.580341 0.4463 0.4639 0.4672
v 5.910529 4.278447 2.564314 0.5570 0.5690 0.5647
v 5.918172 4.068963 3.192478 0.5771 0.5870 0.5798
v 5.900417 4.897953 -5.750801 0.5172 0.3516 0.3609
v 5.107775 4.896920 -4.732060 0.4392 0.5229 0.5493
v 5.223541 4.896822 -4.479753 0.4463 0.5359 0.5671
v 5.105142 4.896652 -3.728801 0.4477 0.4724 0.4748
v 5.257753 4.648714 -2.642223 0.4537 0.4888 0.4964
v 5.138696 4.896846 -1.700846 0.4706 0.5616 0.5905
v 5.855032 4.897126 -0.790418 0.4814 0.5751 0.6046
v 5.102509 4.897077 -0.059681 0.4895 0.5738 0.6056
v 5.153818 4.896955 0.292587 0.4773 0.5605 0.5926
v 5.107775 4.896931 1.142324 0.4727 0.5512 0.5782
v 5.107775 4.897283 2.165830 0.4776 0.5609 0.5882
v 5.918172 4.562286 2.561271 0.5017 0.5721 0.5986
v 5.111067 4.897223 3.583850 0.4962 0.5564 0.5756
v 5.135404 4.896773 3.986702 0.4572 0.5503 0.5809
v 5.120922 4.896639 4.432991 0.4725 0.5548 0.5842
v 5.128822 4.896919 5.245841 0.5160 0.2652 0.2787
v 5.109750 5.341200 -5.973582 0.6318 0.3618 0.3295
v 5.902465 4.898172 -3.478197 0.5000 0.5000 0.5000
v 5.902849 4.898232 2.175341 0.4648 0.5377 0.5569
v 5.897930 4.898086 2.427764 0.4627 0.5346 0.5569
v 5.900271 4.898098 3.379165 0.5000 0.5000 0.5000
v 5.176840 5.236840 5.752821 0.5688 0.1050 0.1124
v 5.157110 5.237374 5.950393 0.5869 0.6325 0.6472
v 5.191980 5.499550 -5.548482 0.6211 0.6253 0.5934
v 5.345890 5.499647 -5.224765 0.5049 0.5076 0.5084
v 5.393907 5.499623 -3.750222 0.5050 0.5075 0.5091
v 5.470871 5.499343 -3.046861 0.5051 0.5080 0.5098
v 5.918172 5.499380 -2.428010 0.5049 0.5078 0.5110
v 5.849766 5.499331 -2.207843 0.5059 0.5088 0.5125
v 5.465623 5.499343 -0.823733 0.5054 0.5090 0.5125
v 5.709662 5.499221 -0.040641 0.5043 0.5080 0.5109
v 5.902392 5.499319 0.657956 0.5045 0.5072 0.5102
v 5.910291 5.499282 0.856702 0.5055 0.5083 0.5114
v 5.912924 5.499355 2.199144 0.5047 0.5084 0.5105
v 5.899758 5.499403 2.868000 0.5044 0.5082 0.5101
v 5.102344 5.499525 3.630563 0.5029 0.5064 0.5092
v 5.123555 5.499476 4.398486 0.5041 0.5079 0.5100
v 5.237035 5.499525 4.432694 0.5048 0.5083 0.5099
v 5.306429 5.499428 5.177409 0.4976 0.5033 0.5023
v 5.691888 5.447467 6.023060 0.5190 0.5308 0.5290
v 6.545092 0.521225 -3.084957 0.5123 0.2775 0.1325
v 6.545988 0.491476 -2.589870 0.3766 0.2490 0.0952
v 5.923548 0.000000 2.613690 0.5616 0.4153 0.2076
v 5.924133 0.034892 3.155242 0.5088 0.3522 0.1421
v 6.547140 1.070521 -3.046862 0.6300 0.4704 0.3447
v 6.547670 1.053027 -2.580342 0.5527 0.3847 0.1794
v 5.924517 0.529966 2.600076 0.6470 0.5788 0.4530
v 5.923055 0.677569 3.161164 0.7172 0.6015 0.4187
v 6.548768 1.397008 -3.005210 0.6210 0.6383 0.5691
v 6.549407 1.315870 -2.630330 0.7034 0.6521 0.5199
v 5.943644 1.118627 2.574470 0.6841 0.6808 0.5962
v 5.932179 1.213978 3.176680 0.7402 0.7189 0.6185
v 6.548841 1.645190 -3.075429 0.6599 0.6625 0.5386
v 6.550395 1.623331 -2.580342 0.7202 0.6796 0.5304
v 5.933897 1.731409 2.575165 0.7161 0.7037 0.6086
v 5.923676 1.659194 3.174811 0.7269 0.7123 0.6114
v 6.554290 2.651969 -3.006401 0.6464 0.6400 0.4935
v 6.551968 2.186632 -2.846925 0.7066 0.6878 0.6082
v 5.929820 2.273217 2.571493 0.6979 0.6769 0.5948
v 5.923329 2.515513 3.184670 0.7741 0.7522 0.6528
v 6.554564 2.746432 -3.004019 0.5863 0.5758 0.5341
v 6.554509 2.717570 -2.956413 0.7540 0.7088 0.6024
v 5.926383 2.815534 2.568036 0.6678 0.6509 0.5898
v 6.454944 3.236253 3.193073 0.7661 0.7391 0.6586
v 6.556959 3.306669 -3.023058 0.5479 0.5574 0.5414
v 6.556904 3.279121 -2.978429 0.6072 0.6012 0.5595
v 5.939237 3.758669 2.561849 0.7024 0.6933 0.6480
v 6.034614 3.757138 3.193305 0.6902 0.6839 0.6388
v 6.560653 3.917202 -3.013547 0.5241 0.5319 0.4997
v 6.381272 4.204506 -2.270238 0.5516 0.5668 0.5495
v 6.381272 4.253355 -2.193849 0.6601 0.6915 0.7072
v 6.396248 4.317606 2.147154 0.4177 0.4528 0.4666
v 6.380595 4.223885 2.293431 0.5810 0.6085 0.6030
v 5.970798 4.181796 3.192230 0.5768 0.5982 0.5842
v 6.716739 4.896883 -5.236675 0.5299 0.1261 0.1331
v 6.739102 4.897090 -5.141462 0.4287 0.5129 0.5400
v 6.461911 4.852679 -4.036738 0.4471 0.5345 0.5617
v 6.532566 4.886002 -3.117063 0.4807 0.5309 0.5298
v 6.462021 4.866671 -2.268534 0.5051 0.5450 0.5359
v 6.462240 4.866671 -1.518757 0.4653 0.5457 0.5727
v 6.461545 4.845688 -1.014754 0.4667 0.5589 0.5850
v 6.461710 4.847438 -0.761851 0.4800 0.5681 0.6020
v 6.325977 4.628763 0.623450 0.4797 0.5691 0.6043
v 6.325940 4.621760 0.794820 0.4646 0.5485 0.5783
v 6.418574 4.358953 2.108067 0.4658 0.5428 0.5673
v 6.445728 4.553533 2.561883 0.5289 0.5876 0.5950
v 5.924645 4.890560 3.229829 0.4884 0.5496 0.5587
v 6.318113 4.631498 4.099730 0.4398 0.5201 0.5401
v 5.924554 4.891606 5.153010 0.4491 0.5317 0.5629
v 5.925340 4.891800 5.274408 0.5958 0.0572 0.0703
v 6.698325 5.195566 -5.661097 0.6260 0.3589 0.3362
v 6.327330 5.237180 5.837332 0.5987 0.0887 0.1099
v 5.962917 5.237302 5.917062 0.4843 0.5173 0.5299
v 5.970798 5.499672 -5.531825 0.5767 0.5780 0.5553
v 6.245428 5.499647 -5.231911 0.5063 0.5093 0.5084
v 6.721511 5.499659 -3.803784 0.5059 0.5085 0.5093
v 6.681228 5.499392 -3.094468 0.5055 0.5087 0.5095
v 6.719701 5.499440 -2.292635 0.5048 0.5080 0.5094
v 6.136575 5.499282 -1.995996 0.5054 0.5082 0.5099
v 6.144456 5.499404 -1.487825 0.5051 0.5086 0.5110
v 6.712789 5.499428 -0.736857 0.5051 0.5080 0.5107
v 6.703591 5.499282 0.211666 0.5059 0.5081 0.5098
v 6.128675 5.499379 0.723411 0.5046 0.5093 0.5093
v 6.677278 5.499452 2.199144 0.5039 0.5086 0.5093
v 6.668721 5.499440 2.935837 0.5021 0.5058 0.5077
v 6.544397 5.499489 3.636799 0.5013 0.5052 0.5070
v 5.936110 5.499440 4.157476 0.5016 0.5051 0.5097
v 6.702274 5.499513 4.935820 0.5028 0.5061 0.5099
v 6.012909 5.499403 5.174431 0.4988 0.5042 0.5033
v 6.028690 5.447467 6.023109 0.4688 0.4765 0.4747
v 7.546884 4.738448 -5.253332 0.4960 0.2563 0.2776
v 7.308751 4.738448 -4.497617 0.4811 0.5782 0.6165
v 7.317967 4.738484 -3.797234 0.4869 0.5828 0.6301
v 7.520571 4.738946 -3.009974 0.4724 0.5666 0.5974
v 7.543593 4.738946 -2.788615 0.4758 0.5729 0.6125
v 7.165356 4.738520 -2.156664 0.4951 0.5822 0.6198
v 7.141676 4.738618 -1.516375 0.4870 0.5612 0.5934
v 7.170622 4.738484 -0.771362 0.4726 0.5646 0.6026
v 7.154842 4.738593 -0.026962 0.4807 0.5803 0.6317
v 7.329158 4.738727 0.716265 0.4735 0.5744 0.6252
v 7.083181 4.761716 2.139644 0.4689 0.5684 0.6135
v 7.083071 4.768707 2.766832 0.4624 0.5523 0.5977
v 7.083126 4.761716 2.965578 0.4845 0.5666 0.6053
v 7.082742 4.775709 3.693934 0.4822 0.5644 0.5999
v 7.082705 4.782712 4.507974 0.4746 0.5535 0.5920
v 6.960119 4.890050 5.848249 0.5205 0.4137 0.4538
v 6.785803 5.296144 -5.973963 0.5095 0.2215 0.2219
v 7.386099 4.898158 5.821535 0.4602 0.3138 0.3304
v 6.885788 5.237228 5.978944 0.3984 0.4200 0.4280
v 6.748317 5.499429 -5.888857 0.5014 0.5052 0.4992
v 6.748317 5.499635 -5.108726 0.5044 0.5072 0.5083
v 7.540301 5.499599 -4.056075 0.5044 0.5070 0.5076
v 7.517938 5.499477 -3.075428 0.5045 0.5067 0.5071
v 6.969993 5.499416 -2.312865 0.5040 0.5057 0.5070
v 6.803577 5.499367 -2.025754 0.5018 0.5070 0.5045
v 6.775289 5.499428 -1.461044 0.5028 0.5067 0.5053
v 6.891713 5.499367 -0.752323 0.5028 0.5071 0.5056
v 6.949605 5.499233 -0.019220 0.5036 0.5082 0.5071
v 7.544251 5.499489 1.456513 0.5044 0.5092 0.5085
v 7.552150 5.499537 1.818309 0.5012 0.5058 0.5058
v 7.049590 5.499343 2.937623 0.5003 0.5054 0.5051
v 6.788765 5.499586 3.507974 0.5013 0.5061 0.5042
v 6.799627 5.499476 3.751052 0.5013 0.5047 0.5073
v 7.472553 5.499525 4.448458 0.5024 0.5060 0.5062
v 6.781543 5.499415 5.233633 0.5003 0.5061 0.5048
v 6.963410 5.468463 6.022861 0.4613 0.4706 0.4641
v 7.594243 4.738593 -5.259287 0.5996 0.1447 0.1662
v 7.675816 4.738971 -4.540460 0.5977 0.2941 0.3353
v 7.707376 4.739068 -3.879941 0.6387 0.1656 0.2043
v 7.583711 4.739092 -3.018294 0.6567 0.1224 0.1634
v 7.623190 4.739165 -2.770750 0.6537 0.1049 0.1259
v 7.570564 4.738873 -1.605633 0.6022 0.2113 0.2489
v 7.623190 4.738958 -0.990355 0.5590 0.2075 0.2609
v 7.675816 4.738982 -0.630048 0.4415 0.2041 0.2344
v 7.570234 4.738958 0.065274 0.5316 0.2516 0.2832
v 7.575830 4.738897 0.782910 0.6112 0.2089 0.2238
v 7.616991 4.898074 1.494608 0.4777 0.4380 0.4892
v 7.717909 4.897502 2.218200 0.5204 0.4547 0.4954
v 7.616936 4.898074 3.084594 0.5131 0.5564 0.6055
v 7.616973 4.898073 3.979556 0.4995 0.5489 0.5883
v 7.759198 4.741984 5.083387 0.5468 0.4364 0.4650
v 7.759746 4.741887 5.396981 0.5729 0.3037 0.3094
v 7.570564 5.318016 -5.975402 0.5774 0.3008 0.3084
v 7.607336 4.904773 -4.513084 0.6644 0.4661 0.4718
v 7.954999 5.415980 -3.766880 0.6824 0.4009 0.4071
v 7.954926 5.436976 -3.167068 0.6883 0.1809 0.2035
v 7.954798 5.274261 -2.323270 0.6690 0.2096 0.2205
v 7.954798 5.274297 -2.086445 0.6343 0.2548 0.2871
v 7.954743 5.275379 -1.468769 0.5820 0.2805 0.2966
v 7.954670 5.276984 -0.768997 0.4497 0.2483 0.2464
v 7.609201 5.223552 0.190840 0.5704 0.2553 0.2544
v 7.608415 5.043635 1.451683 0.6598 0.3552 0.3460
v 7.608397 4.957645 2.151554 0.5719 0.4618 0.4570
v 7.608415 4.936649 2.512159 0.6269 0.6027 0.6006
v 7.612310 4.901660 3.532075 0.6551 0.6078 0.6069
v 7.612127 4.901660 3.946241 0.6157 0.5287 0.5193
v 7.607537 4.962897 4.661496 0.5996 0.4433 0.4322
v 7.581096 4.898122 5.636551 0.6255 0.5396 0.5330
v 7.578463 5.236414 5.952758 0.4320 0.4371 0.4350
v 7.575336 5.500000 -5.889833 0.4660 0.4720 0.4705
v 7.690608 5.499708 -5.207512 0.5869 0.5953 0.5878
v 7.767902 5.499258 -3.764795 0.6011 0.6097 0.6029
v 7.602143 5.499234 -3.203956 0.6585 0.6731 0.6556
v 7.760002 5.499124 -2.899294 0.5390 0.5459 0.5365
v 7.602143 5.499124 -2.159046 0.5526 0.5612 0.5496
v 7.708035 5.499294 -1.490190 0.5673 0.5755 0.5637
v 7.699495 5.499392 -0.771362 0.5165 0.5208 0.5132
v 7.954889 5.447467 0.450873 0.4889 0.4918 0.4824
v 7.954871 5.447467 0.742450 0.6419 0.6576 0.6536
v 7.954889 5.447467 1.808798 0.5447 0.5579 0.5569
v 7.954944 5.447467 2.865618 0.5113 0.5230 0.5205
v 7.954944 5.447467 3.623120 0.5853 0.6061 0.6027
v 7.954853 5.447467 4.293745 0.5194 0.5295 0.5255
v 7.954816 5.447467 4.601401 0.5520 0.5633 0.5621
v 7.891713 5.454469 5.756659 0.5564 0.5656 0.5623
v 7.570564 5.450968 6.024598 0.5204 0.5261 0.5139
f 395 396 435
f 434 395 435
f 433 395 434
f 473 435 474
f 434 435 473
f 433 394 395
f 358 359 394
f 394 359 395
f 321 322 358
f 357 321 358
f 359 322 323
f 322 359 358
f 248 212 249
f 286 285 250
f 249 250 285
f 285 248 249
f 284 248 285
f 249 214 250
f 249 213 214
f 212 213 249
f 212 177 213
f 285 286 322
f 321 285 322
f 120 48 121
f 121 48 49
f 47 48 120
f 120 121 191
f 190 120 191
f 227 191 192
f 334 298 299
f 335 334 299
f 191 227 190
f 226 190 227
f 298 262 263
f 298 263 299
f 262 226 227
f 262 227 263
f 121 49 122
f 49 50 122
f 191 121 192
f 121 122 192
f 417 416 426
f 417 426 427
f 493 453 492
f 454 453 493
f 452 491 453
f 453 491 492
f 415 414 454
f 454 414 453
f 342 341 377
f 342 377 378
f 378 377 413
f 414 413 453
f 413 452 453
f 414 378 413
f 466 455 456
f 465 455 466
f 456 455 494
f 426 416 465
f 415 454 416
f 416 454 455
f 416 455 465
f 426 465 466
f 427 426 466
f 379 378 414
f 379 414 415
f 380 379 415
f 380 415 416
f 418 417 428
f 419 458 459
f 420 419 459
f 419 418 458
f 418 457 458
f 381 416 417
f 459 458 498
f 458 497 498
f 428 417 427
f 349 312 348
f 313 312 349
f 348 385 349
f 348 384 385
f 277 312 313
f 276 312 277
f 457 456 496
f 496 456 495
f 418 428 467
f 418 467 457
f 467 456 457
f 466 456 467
f 428 427 467
f 467 427 466
f 457 496 458
f 458 496 497
f 498 497 533
f 498 533 534
f 34 35 107
f 106 34 107
f 34 17 18
f 35 34 18
f 101 34 106
f 107 35 108
f 35 36 108
f 107 108 178
f 177 107 178
f 176 177 212
f 176 106 107
f 177 176 107
f 177 178 213
f 213 178 214
f 207 206 242
f 207 242 243
f 208 207 244
f 207 243 244
f 170 207 171
f 170 206 207
f 172 171 207
f 207 208 172
f 206 205 242
f 205 241 242
f 169 205 170
f 170 205 206
f 243 242 278
f 243 278 279
f 314 278 313
f 277 313 278
f 242 241 278
f 278 241 277
f 581 545 582
f 545 546 582
f 617 581 618
f 581 582 618
f 885 834 835
f 884 834 885
f 865 864 881
f 882 865 881
f 880 830 831
f 880 831 881
f 864 863 880
f 864 880 881
f 866 883 884
f 883 865 882
f 866 865 883
f 831 832 882
f 881 831 882
f 797 798 833
f 833 798 834
f 833 796 797
f 796 833 832
f 833 834 884
f 883 833 884
f 726 727 796
f 796 727 797
f 724 725 795
f 794 724 795
f 794 795 830
f 830 795 831
f 653 654 725
f 725 654 726
f 654 617 618
f 653 617 654
f 726 655 727
f 654 655 726
f 832 833 882
f 883 882 833
f 796 832 795
f 831 795 832
f 725 726 796
f 796 795 725
f 138 137 141
f 138 141 142
f 70 66 138
f 142 70 138
f 69 70 74
f 73 69 74
f 65 69 141
f 137 65 141
f 133 61 65
f 133 65 137
f 70 65 66
f 65 70 69
f 61 62 66
f 65 61 66
f 57 61 129
f 129 61 133
f 129 53 57
f 53 129 125
f 66 62 134
f 66 134 138
f 61 57 58
f 61 58 62
f 130 129 134
f 129 133 134
f 126 125 130
f 130 125 129
f 57 53 54
f 57 54 58
f 62 58 130
f 62 130 134
f 54 126 130
f 58 54 130
f 134 133 137
f 134 137 138
f 54 53 126
f 126 53 125
f 99 98 171
f 100 99 171
f 100 171 172
f 98 170 171
f 98 97 84
f 98 97 169
f 98 169 170
f 84 156 169
f 97 84 169
f 169 156 170
f 141 145 142
f 142 145 146
f 74 70 146
f 70 142 146
f 150 74 146
f 78 74 150
f 359 360 395
f 395 360 396
f 47 120 119
f 118 119 188
f 188 119 189
f 118 46 47
f 118 47 119
f 118 45 46
f 189 190 225
f 225 190 226
f 190 119 120
f 189 119 190
f 21 22 38
f 39 38 22
f 39 22 40
f 38 20 21
f 20 38 37
f 36 18 19
f 35 18 36
f 36 19 37
f 37 19 20
f 108 36 37
f 108 37 109
f 115 116 186
f 185 115 186
f 221 220 185
f 184 185 220
f 183 113 114
f 183 114 184
f 185 114 115
f 184 114 185
f 186 116 187
f 221 222 258
f 256 220 221
f 256 221 257
f 257 221 258
f 222 185 186
f 221 185 222
f 117 118 188
f 188 187 117
f 224 223 188
f 222 223 258
f 258 223 259
f 186 187 223
f 222 186 223
f 224 225 261
f 260 224 261
f 223 224 260
f 259 223 260
f 223 187 188
f 396 360 397
f 360 361 397
f 218 219 255
f 254 218 255
f 181 182 218
f 217 181 218
f 220 183 184
f 219 183 220
f 219 220 256
f 255 219 256
f 290 254 291
f 254 255 291
f 182 183 218
f 218 183 219
f 114 113 41
f 41 42 114
f 115 44 116
f 43 44 115
f 115 42 43
f 42 115 114
f 178 108 179
f 108 109 179
f 37 38 110
f 37 110 109
f 110 38 111
f 38 39 111
f 252 216 217
f 252 217 253
f 288 252 253
f 289 288 253
f 325 288 289
f 214 215 251
f 250 214 251
f 215 216 252
f 215 252 251
f 287 251 252
f 287 252 288
f 287 288 324
f 323 287 324
f 324 288 325
f 287 250 251
f 250 287 286
f 286 287 322
f 322 287 323
f 44 45 116
f 116 45 117
f 116 117 187
f 117 45 118
f 297 298 333
f 334 333 298
f 260 261 297
f 254 253 218
f 217 218 253
f 216 180 181
f 216 181 217
f 290 253 254
f 289 253 290
f 325 290 326
f 289 290 325
f 359 323 324
f 324 360 359
f 360 324 361
f 324 325 361
f 182 112 183
f 40 41 112
f 112 41 113
f 39 40 112
f 112 111 39
f 183 112 113
f 215 178 179
f 214 178 215
f 179 109 110
f 179 110 180
f 109 179 180
f 179 180 216
f 215 179 216
f 110 111 180
f 180 111 181
f 182 111 112
f 181 111 182
f 224 188 189
f 224 189 225
f 297 261 262
f 297 262 298
f 262 225 226
f 225 262 261
f 468 429 424
f 468 424 463
f 504 468 502
f 468 463 502
f 390 388 424
f 429 390 424
f 300 247 283
f 263 264 299
f 299 264 300
f 283 282 319
f 319 282 318
f 319 318 354
f 319 354 355
f 192 175 228
f 175 211 228
f 247 246 283
f 283 246 282
f 264 211 247
f 228 211 264
f 227 228 264
f 263 227 264
f 504 502 538
f 540 504 538
f 334 335 370
f 227 192 228
f 135 67 139
f 124 123 128
f 128 123 127
f 128 127 131
f 128 131 132
f 51 55 127
f 123 51 127
f 55 59 131
f 127 55 131
f 60 128 132
f 56 128 60
f 59 63 135
f 131 59 135
f 71 67 68
f 71 68 72
f 68 64 136
f 140 68 136
f 64 60 132
f 64 132 136
f 135 63 67
f 67 63 64
f 67 64 68
f 51 52 56
f 55 51 56
f 60 55 56
f 59 55 60
f 59 60 64
f 63 59 64
f 56 124 128
f 52 124 56
f 51 123 52
f 52 123 124
f 151 160 152
f 152 160 161
f 147 151 152
f 151 147 79
f 148 147 152
f 143 147 148
f 144 143 148
f 140 139 144
f 139 143 144
f 143 71 75
f 143 75 147
f 143 67 71
f 139 67 143
f 136 135 139
f 136 139 140
f 81 80 153
f 132 131 135
f 132 135 136
f 674 670 742
f 674 742 746
f 673 745 669
f 741 669 745
f 771 770 783
f 771 783 784
f 669 670 674
f 670 669 741
f 670 741 742
f 673 669 674
f 677 674 678
f 677 673 674
f 681 685 753
f 753 685 757
f 757 685 761
f 685 689 761
f 681 677 678
f 745 673 677
f 749 745 677
f 749 677 681
f 749 681 753
f 742 741 746
f 741 745 746
f 746 745 750
f 750 745 749
f 750 749 753
f 750 753 754
f 754 753 758
f 753 757 758
f 678 674 746
f 678 746 750
f 686 682 754
f 686 754 758
f 685 681 682
f 682 686 685
f 685 686 690
f 689 685 690
f 681 678 682
f 678 750 754
f 678 754 682
f 855 871 856
f 871 872 856
f 856 873 857
f 872 873 856
f 774 809 810
f 774 773 809
f 809 845 846
f 810 809 846
f 848 812 811
f 811 847 848
f 811 810 846
f 811 846 847
f 848 864 865
f 849 848 865
f 847 864 848
f 863 864 847
f 846 863 847
f 846 862 863
f 852 851 867
f 851 850 866
f 851 866 867
f 849 865 850
f 865 866 850
f 852 867 868
f 852 868 869
f 853 852 869
f 815 814 851
f 814 850 851
f 814 813 850
f 849 850 813
f 854 870 855
f 854 855 871
f 855 870 871
f 854 870 871
f 854 853 869
f 854 869 870
f 817 853 854
f 818 817 854
f 817 816 852
f 817 852 853
f 813 812 849
f 812 848 849
f 816 815 852
f 815 851 852
f 775 774 810
f 775 810 811
f 775 812 776
f 775 811 812
f 777 776 812
f 777 812 813
f 778 813 814
f 764 760 763
f 768 764 767
f 748 751 752
f 756 755 759
f 756 759 760
f 751 755 752
f 752 755 756
f 759 763 760
f 768 778 769
f 740 739 744
f 739 743 744
f 739 671 743
f 739 667 671
f 747 675 679
f 747 679 751
f 679 675 680
f 667 739 740
f 667 740 668
f 748 747 751
f 744 743 748
f 748 743 747
f 672 668 744
f 667 668 671
f 671 668 672
f 668 740 744
f 743 671 675
f 676 748 752
f 680 676 752
f 680 675 676
f 671 672 676
f 675 671 676
f 743 675 747
f 676 672 748
f 672 744 748
f 751 679 683
f 751 683 755
f 679 680 684
f 683 679 684
f 688 683 684
f 683 688 687
f 680 752 756
f 684 680 756
f 780 779 815
f 780 815 816
f 779 814 815
f 779 778 814
f 778 777 813
f 337 373 338
f 302 301 338
f 301 337 338
f 266 265 302
f 302 265 301
f 374 411 375
f 339 338 375
f 338 374 375
f 376 375 412
f 375 411 412
f 340 339 376
f 339 375 376
f 303 302 338
f 303 338 339
f 413 376 412
f 377 376 413
f 267 302 303
f 266 302 267
f 268 267 303
f 268 303 304
f 231 267 232
f 232 267 268
f 305 304 341
f 304 340 341
f 233 232 269
f 232 268 269
f 305 268 304
f 269 268 305
f 341 340 377
f 377 340 376
f 197 196 232
f 197 232 233
f 303 340 304
f 340 303 339
f 161 160 197
f 197 160 196
f 195 194 231
f 194 230 231
f 196 195 231
f 196 231 232
f 231 230 267
f 230 266 267
f 243 279 244
f 534 570 535
f 535 570 571
f 499 498 535
f 498 534 535
f 571 570 606
f 571 606 607
f 385 420 421
f 384 420 385
f 421 420 459
f 421 459 460
f 460 459 499
f 459 498 499
f 610 609 646
f 609 645 646
f 574 573 610
f 573 609 610
f 644 643 712
f 712 643 711
f 645 712 713
f 645 644 712
f 646 645 714
f 714 645 713
f 573 608 609
f 609 608 645
f 608 644 645
f 644 607 643
f 608 607 644
f 536 572 573
f 572 608 573
f 572 607 608
f 572 571 607
f 538 537 574
f 537 573 574
f 502 501 538
f 501 537 538
f 463 501 502
f 463 462 501
f 280 244 279
f 352 315 351
f 315 352 316
f 388 387 424
f 424 387 423
f 280 279 315
f 280 315 316
f 351 388 352
f 351 387 388
f 424 462 463
f 461 460 499
f 461 499 500
f 351 386 387
f 537 501 500
f 537 500 536
f 387 422 423
f 387 386 422
f 423 461 462
f 462 461 500
f 462 500 501
f 423 462 424
f 315 314 351
f 314 350 351
f 313 350 314
f 313 349 350
f 279 278 315
f 278 314 315
f 350 386 351
f 349 385 350
f 350 385 386
f 536 535 571
f 536 571 572
f 536 500 535
f 499 535 500
f 537 536 573
f 422 421 461
f 421 460 461
f 386 385 421
f 422 386 421
f 423 422 461
f 495 530 531
f 495 494 530
f 567 531 566
f 531 530 566
f 493 529 494
f 494 529 530
f 454 493 494
f 455 454 494
f 491 527 528
f 492 491 528
f 493 492 528
f 493 528 529
f 565 528 564
f 529 528 565
f 530 565 566
f 529 565 530
f 607 606 643
f 606 642 643
f 643 642 711
f 711 642 710
f 709 708 783
f 708 782 783
f 765 693 771
f 693 697 771
f 771 697 710
f 771 710 784
f 784 770 771
f 783 770 784
f 709 783 784
f 710 709 784
f 710 709 717
f 710 717 718
f 641 709 642
f 642 709 710
f 606 605 642
f 605 641 642
f 703 777 778
f 704 703 778
f 706 780 781
f 707 706 781
f 638 705 706
f 706 705 779
f 706 779 780
f 705 704 778
f 705 778 779
f 704 636 635
f 635 703 704
f 636 704 705
f 637 636 705
f 638 637 705
f 496 495 532
f 495 531 532
f 456 494 495
f 777 768 778
f 689 761 693
f 761 689 765
f 689 693 765
f 694 689 690
f 693 689 694
f 640 639 708
f 640 708 709
f 568 567 604
f 567 603 604
f 639 638 706
f 639 706 707
f 639 707 708
f 707 781 782
f 708 707 782
f 604 603 639
f 604 639 640
f 641 640 709
f 603 602 639
f 602 638 639
f 532 531 567
f 532 567 568
f 528 563 564
f 528 527 563
f 563 599 564
f 564 599 600
f 601 600 636
f 637 601 636
f 566 565 601
f 566 601 602
f 566 602 567
f 603 567 602
f 564 601 565
f 601 564 600
f 600 599 636
f 636 599 635
f 601 637 602
f 602 637 638
f 497 532 533
f 497 496 532
f 533 532 569
f 569 532 568
f 569 605 570
f 570 605 606
f 534 533 570
f 570 533 569
f 569 604 605
f 569 568 604
f 605 640 641
f 605 604 640
f 312 311 347
f 312 347 348
f 347 382 383
f 348 347 383
f 384 348 383
f 347 346 382
f 382 381 418
f 381 417 418
f 384 383 419
f 384 419 420
f 382 418 419
f 383 382 419
f 310 347 311
f 310 346 347
f 345 381 382
f 345 382 346
f 306 341 342
f 306 305 341
f 234 233 269
f 234 269 270
f 307 271 306
f 271 270 306
f 270 269 305
f 270 305 306
f 199 198 234
f 234 235 199
f 235 234 270
f 198 197 234
f 197 233 234
f 161 197 198
f 235 270 271
f 203 202 239
f 167 166 203
f 166 202 203
f 202 238 239
f 201 237 202
f 202 237 238
f 200 199 235
f 200 235 236
f 163 162 199
f 162 198 199
f 164 201 165
f 164 200 201
f 200 237 201
f 200 236 237
f 164 163 200
f 163 199 200
f 236 235 272
f 235 271 272
f 162 161 198
f 165 201 166
f 166 201 202
f 156 155 169
f 155 168 169
f 168 204 169
f 169 204 205
f 240 276 241
f 241 276 277
f 204 240 205
f 205 240 241
f 168 167 203
f 168 203 204
f 204 203 239
f 240 204 239
f 240 239 276
f 276 239 275
f 275 310 311
f 275 238 274
f 237 274 238
f 237 273 274
f 236 272 237
f 272 273 237
f 239 238 275
f 274 273 310
f 310 273 309
f 273 272 308
f 273 308 309
f 274 310 275
f 312 275 311
f 276 275 312
f 150 149 155
f 150 155 156
f 146 145 149
f 150 146 149
f 155 154 167
f 155 167 168
f 307 306 343
f 306 342 343
f 308 307 344
f 272 271 308
f 271 307 308
f 343 342 378
f 343 378 379
f 343 379 344
f 344 379 380
f 307 343 344
f 309 344 345
f 308 344 309
f 309 346 310
f 309 345 346
f 345 344 380
f 380 381 345
f 381 380 416
f 579 544 580
f 545 508 509
f 544 508 545
f 472 434 473
f 472 473 509
f 508 472 509
f 432 394 433
f 471 432 433
f 471 433 472
f 579 543 544
f 543 508 544
f 543 507 508
f 471 472 508
f 507 471 508
f 433 434 472
f 580 544 581
f 544 545 581
f 616 580 581
f 616 581 617
f 579 580 616
f 615 579 616
f 101 17 34
f 879 829 830
f 880 879 830
f 863 879 880
f 863 862 879
f 828 829 879
f 861 879 862
f 879 861 878
f 845 862 846
f 845 861 862
f 845 825 861
f 845 809 825
f 861 825 809
f 845 809 861
f 809 773 825
f 809 825 789
f 773 789 825
f 699 715 789
f 773 699 789
f 631 715 699
f 715 631 647
f 631 595 611
f 631 611 647
f 503 506 542
f 503 464 506
f 464 470 506
f 539 503 542
f 464 425 470
f 542 506 543
f 543 506 507
f 470 471 507
f 506 470 507
f 431 432 471
f 470 431 471
f 392 356 357
f 392 357 393
f 431 392 432
f 432 392 393
f 356 320 321
f 356 321 357
f 357 358 394
f 357 394 393
f 611 575 614
f 575 578 614
f 647 611 614
f 647 614 650
f 578 542 543
f 578 543 579
f 539 542 578
f 575 539 578
f 789 715 722
f 789 722 792
f 715 647 650
f 715 650 722
f 878 825 828
f 825 789 792
f 825 792 828
f 722 650 651
f 722 651 723
f 651 614 615
f 650 614 651
f 614 578 579
f 614 579 615
f 878 828 879
f 861 825 878
f 723 724 794
f 724 723 652
f 651 652 723
f 793 723 794
f 793 794 829
f 830 829 794
f 792 793 829
f 828 792 829
f 722 723 793
f 792 722 793
f 652 653 725
f 724 652 725
f 652 616 653
f 616 617 653
f 651 615 652
f 615 616 652
f 595 559 575
f 595 575 611
f 425 373 389
f 409 373 425
f 503 448 464
f 487 448 503
f 559 523 539
f 559 539 575
f 448 425 464
f 448 409 425
f 487 503 539
f 487 539 523
f 248 245 212
f 245 209 212
f 281 284 320
f 317 281 320
f 353 317 356
f 281 248 284
f 281 245 248
f 317 320 356
f 425 431 470
f 389 356 392
f 353 356 389
f 425 389 392
f 425 392 431
f 209 173 212
f 173 176 212
f 173 101 106
f 173 106 176
f 393 394 432
f 320 284 321
f 284 285 321
f 141 73 145
f 141 69 73
f 84 77 78
f 73 74 77
f 77 74 78
f 154 155 83
f 149 83 155
f 77 83 149
f 82 83 95
f 95 83 96
f 83 84 97
f 96 83 97
f 83 77 84
f 73 77 145
f 145 77 149
f 147 75 79
f 80 75 76
f 79 75 80
f 75 71 72
f 76 75 72
f 91 90 162
f 91 162 163
f 91 164 92
f 164 91 163
f 92 164 165
f 93 92 165
f 95 94 167
f 93 165 166
f 94 93 166
f 94 166 167
f 90 81 162
f 81 153 162
f 82 95 154
f 83 82 154
f 154 95 167
f 79 80 89
f 88 79 89
f 84 78 156
f 156 78 150
f 152 162 153
f 152 161 162
f 152 76 148
f 80 76 152
f 90 80 81
f 89 80 90
f 161 89 162
f 162 89 90
f 80 152 153
f 76 72 144
f 76 144 148
f 144 68 140
f 72 68 144
f 475 435 436
f 435 475 474
f 474 475 511
f 510 474 511
f 545 509 546
f 546 509 510
f 509 473 474
f 474 510 509
f 396 397 436
f 435 396 436
f 582 547 583
f 546 583 582
f 583 546 547
f 582 583 619
f 618 582 619
f 510 511 547
f 546 510 547
f 476 436 437
f 475 436 476
f 476 437 438
f 476 438 477
f 511 476 512
f 511 475 476
f 835 799 800
f 836 835 800
f 730 731 800
f 800 731 801
f 799 729 730
f 799 730 800
f 657 658 730
f 729 657 730
f 658 659 731
f 658 731 730
f 329 293 294
f 329 294 330
f 398 362 363
f 257 258 294
f 256 257 292
f 292 257 293
f 294 293 257
f 327 292 328
f 327 291 292
f 362 326 363
f 326 327 363
f 398 363 399
f 585 549 586
f 549 550 586
f 583 548 584
f 547 548 583
f 512 476 477
f 512 477 513
f 511 512 547
f 547 512 548
f 512 513 548
f 548 513 549
f 622 585 586
f 585 622 621
f 550 551 587
f 586 550 587
f 514 477 478
f 513 477 514
f 584 585 620
f 620 585 621
f 584 548 549
f 584 549 585
f 513 514 550
f 513 550 549
f 550 514 551
f 514 515 551
f 258 259 295
f 294 258 295
f 441 403 442
f 331 330 294
f 331 294 295
f 366 330 331
f 366 331 367
f 441 442 481
f 441 481 480
f 325 326 362
f 325 362 361
f 255 256 292
f 291 255 292
f 402 403 441
f 366 367 403
f 402 366 403
f 329 330 365
f 365 330 366
f 399 400 439
f 438 399 439
f 402 401 366
f 365 366 401
f 400 363 364
f 399 363 400
f 400 364 401
f 364 365 401
f 400 401 440
f 439 400 440
f 329 292 293
f 328 292 329
f 363 327 328
f 363 328 364
f 328 329 364
f 364 329 365
f 440 401 402
f 441 440 402
f 398 399 438
f 437 398 438
f 834 798 799
f 835 834 799
f 798 728 729
f 798 729 799
f 798 727 728
f 797 727 798
f 728 656 657
f 728 657 729
f 727 655 728
f 655 656 728
f 659 622 623
f 658 622 659
f 551 515 552
f 552 515 516
f 517 481 482
f 480 481 517
f 516 480 517
f 618 619 655
f 654 618 655
f 296 297 333
f 332 296 333
f 332 295 296
f 331 295 332
f 295 259 260
f 296 295 260
f 333 334 370
f 369 333 370
f 370 335 371
f 296 260 297
f 482 443 444
f 482 444 483
f 326 290 291
f 326 291 327
f 368 369 405
f 404 368 405
f 404 367 368
f 367 404 403
f 368 333 369
f 368 332 333
f 331 332 367
f 367 332 368
f 405 370 406
f 369 370 405
f 656 619 620
f 619 656 655
f 620 621 657
f 656 620 657
f 583 584 620
f 619 583 620
f 657 621 658
f 658 621 622
f 586 587 622
f 622 587 623
f 478 439 479
f 439 440 479
f 477 438 439
f 477 439 478
f 478 479 515
f 514 478 515
f 440 441 480
f 479 440 480
f 479 480 516
f 515 479 516
f 443 404 405
f 442 403 443
f 403 404 443
f 443 405 444
f 405 406 444
f 444 406 445
f 481 442 482
f 442 443 482
f 397 362 398
f 361 362 397
f 436 397 437
f 397 398 437
f 860 876 826
f 824 860 826
f 857 873 858
f 873 874 858
f 823 859 824
f 824 859 860
f 711 697 698
f 710 697 711
f 693 694 697
f 697 694 698
f 711 785 786
f 712 711 786
f 712 786 787
f 713 712 787
f 714 713 787
f 714 787 788
f 772 771 784
f 785 772 784
f 765 771 772
f 766 765 772
f 762 761 765
f 762 765 766
f 762 758 761
f 758 757 761
f 787 786 823
f 823 786 822
f 823 858 859
f 823 822 858
f 858 822 857
f 821 857 822
f 820 856 821
f 821 856 857
f 819 855 820
f 820 855 856
f 819 818 855
f 855 818 854
f 690 758 762
f 690 686 758
f 690 762 766
f 694 690 766
f 783 782 819
f 782 818 819
f 782 781 818
f 781 817 818
f 817 781 816
f 781 780 816
f 785 821 822
f 786 785 822
f 788 787 824
f 824 787 823
f 783 819 820
f 784 783 820
f 784 821 785
f 784 820 821
f 698 766 772
f 698 694 766
f 711 698 772
f 785 772 786
f 711 772 785
f 159 194 195
f 158 194 159
f 158 157 193
f 158 193 194
f 2 85 86
f 2 1 85
f 88 159 160
f 79 160 151
f 88 160 79
f 88 87 159
f 86 158 159
f 87 86 159
f 86 85 157
f 86 157 158
f 1 17 101
f 85 1 101
f 209 157 173
f 193 157 209
f 85 101 173
f 157 85 173
f 193 209 245
f 229 193 245
f 229 245 281
f 265 229 281
f 301 265 281
f 301 281 317
f 337 317 353
f 337 301 317
f 373 337 353
f 373 353 389
f 160 159 196
f 159 195 196
f 230 265 266
f 230 229 265
f 194 193 230
f 230 193 229
f 527 562 563
f 526 562 527
f 491 526 527
f 490 526 491
f 562 598 563
f 563 598 599
f 599 598 635
f 635 598 634
f 413 412 452
f 412 451 452
f 452 451 491
f 491 451 490
f 768 767 777
f 767 776 777
f 764 763 767
f 338 373 374
f 696 768 777
f 703 696 777
f 696 764 768
f 687 688 692
f 696 692 764
f 688 756 760
f 688 684 756
f 692 688 760
f 692 760 764
f 374 410 411
f 373 409 374
f 374 409 410
f 410 409 449
f 449 409 448
f 411 410 449
f 450 411 449
f 451 411 450
f 412 411 451
f 490 489 526
f 489 525 526
f 449 448 487
f 449 487 488
f 450 488 489
f 449 488 450
f 490 451 489
f 450 489 451
f 489 488 525
f 525 488 524
f 597 596 632
f 597 632 633
f 595 631 596
f 596 631 632
f 632 631 700
f 631 699 700
f 560 559 595
f 560 595 596
f 524 523 559
f 524 559 560
f 596 561 560
f 561 596 597
f 488 487 524
f 524 487 523
f 755 683 759
f 683 687 759
f 635 634 703
f 703 634 702
f 695 702 767
f 767 702 776
f 695 696 703
f 703 702 695
f 691 687 692
f 687 691 759
f 759 691 763
f 691 692 696
f 695 691 696
f 763 691 695
f 763 695 767
f 701 632 700
f 632 701 633
f 702 633 701
f 634 633 702
f 700 699 774
f 699 773 774
f 700 774 775
f 701 700 775
f 701 775 776
f 702 701 776
f 598 597 634
f 597 633 634
f 598 562 597
f 561 597 562
f 524 560 561
f 525 524 561
f 525 561 526
f 526 561 562
f 48 31 32
f 48 32 49
f 47 30 31
f 47 31 48
f 46 30 47
f 46 29 30
f 22 23 40
f 17 1 2
f 17 2 18
f 282 280 316
f 318 282 316
f 390 354 352
f 390 352 388
f 354 316 352
f 354 318 316
f 246 244 280
f 282 246 280
f 210 208 244
f 246 210 244
f 105 104 175
f 104 174 175
f 211 246 247
f 175 174 211
f 211 174 210
f 210 246 211
f 7 6 90
f 7 90 91
f 4 88 89
f 5 4 89
f 4 3 87
f 4 87 88
f 5 89 90
f 6 5 90
f 3 2 86
f 3 86 87
f 28 29 46
f 45 28 46
f 44 27 28
f 44 28 45
f 26 27 43
f 43 27 44
f 25 26 42
f 42 26 43
f 24 25 42
f 41 24 42
f 23 24 41
f 40 23 41
f 19 4 20
f 5 6 21
f 3 4 19
f 4 5 20
f 20 5 21
f 210 172 208
f 172 210 174
f 16 100 32
f 32 100 104
f 172 104 100
f 174 104 172
f 105 32 104
f 33 32 105
f 32 33 49
f 50 33 122
f 122 33 105
f 49 33 50
f 122 105 192
f 192 105 175
f 28 13 29
f 12 13 28
f 24 8 9
f 24 9 25
f 27 10 11
f 26 10 27
f 27 11 28
f 11 12 28
f 26 25 10
f 9 10 25
f 21 6 22
f 23 7 8
f 22 6 23
f 6 7 23
f 23 8 24
f 16 15 99
f 16 99 100
f 15 98 99
f 14 13 98
f 15 14 98
f 13 97 98
f 9 93 94
f 10 9 94
f 8 92 93
f 9 8 93
f 12 11 96
f 11 95 96
f 11 10 94
f 11 94 95
f 8 91 92
f 8 7 91
f 30 14 31
f 14 15 31
f 29 13 14
f 29 14 30
f 12 96 97
f 13 12 97
f 18 2 19
f 19 2 3
f 31 15 32
f 15 16 32
f 859 858 874
f 859 874 875
f 859 876 860
f 876 859 875
f 875 891 892
f 874 891 875
f 874 873 890
f 874 890 891
f 790 720 788
f 720 714 788
f 827 826 877
f 826 876 877
f 791 790 826
f 791 826 827
f 721 720 791
f 791 720 790
f 844 827 877
f 844 877 894
f 790 788 824
f 826 790 824
f 808 791 844
f 791 827 844
f 893 843 844
f 893 844 894
f 894 877 893
f 877 876 893
f 876 892 893
f 876 875 892
f 885 835 836
f 885 836 886
f 837 836 801
f 836 800 801
f 731 732 801
f 801 732 802
f 869 886 887
f 868 885 886
f 869 868 886
f 836 837 886
f 870 869 887
f 838 803 839
f 871 870 887
f 871 887 888
f 887 837 838
f 887 838 888
f 886 837 887
f 802 838 837
f 801 802 837
f 838 802 803
f 803 732 733
f 802 732 803
f 891 841 842
f 891 842 892
f 892 842 843
f 868 867 885
f 885 867 884
f 867 866 884
f 838 839 889
f 838 889 888
f 891 840 841
f 890 840 891
f 889 840 890
f 839 840 889
f 872 890 873
f 872 889 890
f 872 871 889
f 889 871 888
f 892 843 893
f 430 429 469
f 469 429 468
f 613 577 612
f 577 576 612
f 540 576 577
f 541 540 577
f 630 613 666
f 613 649 666
f 390 429 430
f 372 319 355
f 371 335 372
f 336 319 372
f 335 336 372
f 264 247 300
f 335 299 336
f 300 283 336
f 299 300 336
f 283 319 336
f 355 354 391
f 354 390 391
f 391 390 430
f 733 660 661
f 732 660 733
f 659 660 732
f 731 659 732
f 660 659 623
f 623 624 660
f 576 540 538
f 576 538 574
f 649 612 648
f 613 612 649
f 576 574 610
f 612 576 610
f 612 610 646
f 648 612 646
f 625 588 589
f 588 625 624
f 588 552 553
f 588 553 589
f 587 552 588
f 551 552 587
f 589 553 554
f 589 554 590
f 661 625 626
f 661 626 662
f 589 590 626
f 589 626 625
f 553 552 517
f 516 517 552
f 590 591 626
f 627 626 591
f 517 482 518
f 591 590 554
f 554 555 591
f 553 517 518
f 554 553 518
f 554 518 519
f 555 554 519
f 648 646 714
f 720 648 714
f 649 648 721
f 648 720 721
f 444 445 483
f 483 445 484
f 518 482 483
f 483 520 519
f 520 485 521
f 484 485 520
f 483 484 520
f 519 518 483
f 407 370 371
f 623 588 624
f 587 588 623
f 805 735 736
f 736 806 805
f 804 805 840
f 840 805 841
f 734 662 735
f 803 733 734
f 803 734 804
f 805 734 735
f 804 734 805
f 662 663 735
f 555 519 520
f 555 520 556
f 445 406 407
f 406 370 407
f 446 445 407
f 371 372 408
f 372 391 408
f 407 371 408
f 355 391 372
f 447 391 430
f 408 391 447
f 486 469 522
f 469 505 522
f 486 447 430
f 447 430 469
f 486 430 469
f 593 556 557
f 556 593 592
f 520 521 557
f 556 520 557
f 521 522 558
f 485 446 447
f 485 447 486
f 521 486 522
f 660 624 661
f 624 625 661
f 505 541 558
f 522 505 558
f 407 408 446
f 446 408 447
f 555 556 591
f 591 556 592
f 839 803 804
f 839 804 840
f 663 662 626
f 663 626 627
f 484 446 485
f 445 446 484
f 661 662 734
f 733 661 734
f 841 805 806
f 806 842 841
f 842 807 843
f 504 540 505
f 469 468 505
f 505 468 504
f 594 541 577
f 558 541 594
f 627 592 628
f 627 591 592
f 505 540 541
f 807 738 808
f 807 737 738
f 665 666 738
f 737 665 738
f 649 721 738
f 629 630 666
f 665 629 666
f 666 649 738
f 663 627 628
f 735 664 736
f 735 663 664
f 663 628 664
f 485 486 521
f 736 737 807
f 806 807 842
f 806 736 807
f 557 558 594
f 557 594 593
f 664 628 665
f 628 629 665
f 721 791 738
f 738 791 808
f 843 807 808
f 843 808 844
f 737 664 665
f 736 664 737
f 592 593 628
f 628 593 629
f 557 521 558
f 629 593 630
f 593 594 630
f 577 613 594
f 594 613 630
