v -2.398932 0.000134 -0.032782 0.1185 0.0689 0.0419
v -2.337209 0.000292 0.014805 0.4249 0.2594 0.1591
v -2.834681 2.378746 -0.033838 0.1285 0.2562 0.2461
v -2.834512 2.522038 0.065373 0.1411 0.1206 0.0905
v -2.859852 2.012910 0.162966 0.1307 0.2021 0.1987
v -2.834573 2.729676 -0.028979 0.3671 0.3506 0.1993
v -2.834356 3.033742 0.011453 0.1374 0.1332 0.1106
v -2.738350 2.805700 0.162404 0.2457 0.2729 0.1990
v -2.834722 3.309602 -0.026698 0.1745 0.1466 0.0748
v -2.834647 3.226439 0.000279 0.1256 0.0880 0.0509
v -2.980786 3.775480 0.177903 0.4809 0.3931 0.1831
v -2.834634 3.829575 -0.091496 0.1484 0.1009 0.0517
v -2.834850 3.816609 -0.023061 0.1042 0.0434 0.0163
v -2.984889 3.822375 0.177764 0.4409 0.1287 0.0705
v -2.730706 4.511835 -0.152787 0.3312 0.2182 0.0982
v -2.338651 4.664102 -0.021210 0.1262 0.0833 0.0579
v -2.802232 4.451712 0.170867 0.3687 0.1872 0.1231
v -1.944869 0.096762 -0.095566 0.2562 0.2250 0.1884
v -1.880844 0.090673 0.071819 0.2268 0.1985 0.1671
v -2.002036 0.957871 -0.036484 0.1966 0.1902 0.1731
v -2.001981 0.783499 0.006626 0.2840 0.2805 0.2489
v -2.001697 1.289127 -0.029150 0.0601 0.0419 0.0291
v -2.001805 1.289206 0.007029 0.0986 0.0748 0.0480
v -2.285350 2.083660 -0.052356 0.0929 0.1149 0.1032
v -1.821064 2.364436 0.142937 0.0836 0.0702 0.0526
v -1.659659 2.017285 0.171925 0.3537 0.3464 0.2324
v -1.621794 2.891118 -0.102924 0.1446 0.1983 0.1526
v -2.000404 2.565634 0.149492 0.0773 0.0732 0.0527
v -2.052534 2.546950 0.164927 0.5398 0.5173 0.3298
v -1.634000 3.569367 -0.102989 0.3249 0.2786 0.1561
v -1.627278 3.400026 0.104308 0.0433 0.0364 0.0253
v -1.928668 3.262209 0.165644 0.6448 0.3290 0.1551
v -1.650411 3.876270 -0.102954 0.3063 0.1899 0.0878
v -1.774608 3.817502 0.104288 0.1537 0.1002 0.0379
v -2.050442 4.149250 0.162404 0.7135 0.1951 0.1051
v -1.640730 4.977008 -0.139102 0.2566 0.1264 0.0623
v -1.663640 4.647879 0.100448 0.1730 0.1297 0.0854
v -1.857311 4.766302 0.161919 0.5589 0.2588 0.1909
v -0.919696 2.522178 -0.102967 0.1290 0.1254 0.1099
v -1.462135 2.364436 0.142871 0.1808 0.1658 0.1446
v -0.946288 2.019995 0.173266 0.3025 0.2329 0.1318
v -0.911910 2.722342 -0.102929 0.1055 0.1232 0.0992
v -0.930717 2.546069 0.104326 0.1706 0.0494 0.0328
v -0.972177 2.656982 0.163840 0.5449 0.3376 0.1772
v -0.930345 3.423164 -0.102933 0.3373 0.1236 0.0717
v -1.603860 3.335535 0.104319 0.2350 0.1251 0.0467
v -0.946728 3.432084 0.165107 0.4964 0.1703 0.1027
v -1.495965 3.830329 -0.102945 0.4861 0.2141 0.0652
v -0.902202 4.425554 0.104295 0.2052 0.1453 0.0492
v -0.964263 4.373409 0.161912 0.6187 0.1644 0.0502
v -0.935077 4.977154 -0.142671 0.2822 0.1392 0.0459
v -0.940182 4.603949 0.104310 0.1624 0.1197 0.0615
v -0.944230 4.606008 0.161574 0.4638 0.1733 0.1184
v -0.724108 2.507510 -0.102944 0.2795 0.2591 0.1836
v -0.368414 2.016921 0.153014 0.1614 0.1482 0.1304
v -0.253838 2.199246 0.170867 0.3715 0.2609 0.1634
v -0.216853 2.556271 -0.102976 0.0441 0.0344 0.0179
v -0.863220 2.543948 0.104295 0.0417 0.0376 0.0345
v -0.717128 2.627330 0.166643 0.6073 0.4790 0.3772
v -0.885981 3.392097 -0.102926 0.1359 0.0891 0.0405
v -0.325702 3.800963 0.104256 0.1192 0.0588 0.0219
v -0.894477 3.181731 0.166395 0.4491 0.1945 0.2893
v -0.199040 4.431819 -0.204480 0.4126 0.2543 0.1226
v -0.242132 4.425554 0.104249 0.3328 0.2393 0.0783
v -0.502983 3.832036 0.165691 0.6119 0.3134 0.0914
v -0.206014 4.977239 -0.176128 0.2495 0.2099 0.0479
v -0.268786 4.521235 0.104141 0.1118 0.0949 0.0542
v -0.408270 4.918258 0.178116 0.3773 0.2817 0.0867
v -0.171141 2.509297 -0.102989 0.2067 0.1917 0.1398
v 0.185541 2.086346 0.112253 0.1747 0.1724 0.1579
v -0.053396 2.198158 0.163551 0.5222 0.5257 0.3390
v 0.195506 3.144849 -0.102972 0.1345 0.1116 0.0551
v 0.128875 2.550316 0.104299 0.0703 0.0829 0.0819
v 0.352924 3.165635 0.162061 0.4282 0.4584 0.4405
v -0.148231 3.456249 -0.102987 0.2713 0.1893 0.0855
v 0.516320 3.751334 0.104362 0.0383 0.0538 0.0676
v 0.406584 3.782565 0.173142 0.2286 0.2477 0.4900
v 0.289252 3.831392 -0.102974 0.1303 0.1030 0.0691
v 0.497892 4.083525 0.104240 0.3002 0.2284 0.0520
v 0.472545 3.819957 0.171875 0.5757 0.3946 0.1463
v -0.165163 4.977239 -0.190939 0.0850 0.0767 0.0648
v 0.368116 4.461100 0.104222 0.1455 0.1172 0.0663
v -0.107441 4.799872 0.190452 0.3490 0.2839 0.1500
v 0.705625 2.371594 -0.162600 0.1988 0.2268 0.1937
v 0.527281 2.017000 0.153544 0.1446 0.1466 0.1306
v 0.546210 2.019837 0.168016 0.2935 0.4234 0.3347
v 0.844859 3.137637 -0.102913 0.0723 0.0962 0.0733
v 0.520308 2.561162 0.104302 0.0665 0.1073 0.0884
v 0.767308 3.158447 0.169246 0.2867 0.4913 0.3851
v 0.545466 3.321001 -0.102958 0.0349 0.0417 0.0395
v 0.588056 3.755806 0.104423 0.0082 0.0053 0.0041
v 0.655243 3.378456 0.169280 0.0038 0.0029 0.0029
v 0.825679 3.825103 -0.102974 0.0552 0.0400 0.0282
v 0.557672 3.817502 0.104385 0.0134 0.0317 0.0359
v 0.518643 3.848904 0.173075 0.0403 0.0414 0.0382
v 0.524918 4.977093 -0.157648 0.0423 0.0310 0.0214
v 0.741365 4.664023 -0.024087 0.0972 0.0751 0.0543
v 0.564645 4.789676 0.165842 0.2513 0.2123 0.1654
v 1.931105 0.000000 -0.044946 0.1900 0.1211 0.0775
v 1.903456 0.000237 0.036281 0.1807 0.1091 0.0709
v 1.927795 0.677654 -0.053501 0.0642 0.0399 0.0260
v 1.929298 1.045713 0.038045 0.0678 0.0462 0.0390
v 1.926238 1.332316 -0.054468 0.0205 0.0127 0.0078
v 1.927125 1.866373 0.051671 0.0287 0.0248 0.0211
v 1.493873 2.540941 -0.115403 0.0855 0.1034 0.0878
v 1.878840 2.206938 0.147218 0.1382 0.1408 0.1249
v 1.307906 2.016884 0.170867 0.3404 0.4069 0.3063
v 1.406363 2.855828 -0.116138 0.2134 0.2478 0.1888
v 1.922798 2.726851 0.142853 0.0757 0.1762 0.1760
v 1.763722 2.598961 0.191724 0.3094 0.3900 0.3053
v 1.236739 3.188099 -0.109801 0.2869 0.2192 0.1742
v 1.262729 3.202268 0.104294 0.1428 0.1719 0.1693
v 1.282890 3.182041 0.195520 0.0135 0.0114 0.0096
v 1.273534 4.054464 -0.102911 0.1189 0.1231 0.1215
v 1.286979 4.292616 0.104116 0.1268 0.1625 0.1643
v 1.243570 4.977269 -0.186688 0.0618 0.0406 0.0255
v 1.799590 4.482785 0.104315 0.1068 0.0819 0.0552
v 1.234552 4.789688 0.163594 0.1968 0.1431 0.0951
v 2.146529 0.536482 -0.036484 0.0870 0.0631 0.0456
v 2.146441 0.605057 -0.018392 0.2118 0.1386 0.0952
v 2.146306 0.899747 -0.036484 0.0788 0.0672 0.0555
v 2.146286 1.008849 -0.021005 0.1506 0.1428 0.1223
v 2.146644 1.868354 -0.028476 0.0791 0.0656 0.0495
v 2.146448 1.357683 0.018263 0.0969 0.0854 0.0672
v 2.146570 1.968312 -0.027624 0.1620 0.1261 0.0899
v 1.933962 2.226436 0.144109 0.1051 0.0760 0.0501
v 2.301720 2.035331 0.177883 0.2548 0.1927 0.1450
v 2.294767 2.567870 -0.102929 0.3609 0.2435 0.1533
v 1.988969 2.666394 0.161049 0.3483 0.2331 0.1639
v 1.940299 2.545522 0.192132 0.1558 0.1364 0.1136
v 2.489048 3.426743 -0.135862 0.3191 0.2621 0.2158
v 2.619075 3.303635 0.128551 0.3234 0.3072 0.2840
v 1.941071 4.449701 -0.163247 0.1234 0.1151 0.1020
v 1.939324 4.296122 0.104126 0.1668 0.1663 0.1489
v 1.963236 4.789774 -0.186972 0.0550 0.0340 0.0204
v 2.573735 5.000000 0.112947 0.0611 0.0344 0.0199
v 2.594675 4.898596 0.192555 0.1232 0.0656 0.0305
v 2.953341 2.541488 -0.131791 0.2801 0.2158 0.1530
v 3.010825 2.525842 0.127493 0.2658 0.1950 0.1332
v 2.971146 2.525951 0.177947 0.0927 0.0357 0.0152
v 2.941581 2.671868 -0.072372 0.3955 0.3179 0.2116
v 3.010852 2.794660 0.154766 0.4578 0.3599 0.2553
v 2.992661 3.171013 0.173241 0.2511 0.1251 0.0807
v 2.876019 3.787997 -0.029078 0.3652 0.2854 0.1846
v 3.009789 3.312276 0.160100 0.3595 0.2596 0.1892
v 2.963299 3.382928 0.177717 0.4507 0.3121 0.1974
v 2.875952 3.830469 -0.033574 0.1645 0.0910 0.0484
v 2.876737 3.853297 0.051301 0.0994 0.0632 0.0393
v 3.001273 3.817381 0.172493 0.2312 0.1022 0.0454
v 3.015111 4.531965 -0.124188 0.1011 0.0490 0.0276
v 3.010649 4.503353 0.160023 0.1066 0.0431 0.0185
v 3.011035 4.474740 0.169810 0.1947 0.0552 0.0096
f 122 123 124
f 122 121 123
f 123 125 126
f 124 123 126
f 119 121 120
f 120 121 122
f 77 80 95
f 9 7 10
f 9 6 7
f 6 4 7
f 6 3 4
f 12 9 10
f 12 10 13
f 54 39 57
f 39 42 57
f 42 45 60
f 57 42 60
f 75 78 90
f 90 78 93
f 69 57 72
f 45 30 33
f 45 33 48
f 27 30 45
f 42 27 45
f 9 12 33
f 30 9 33
f 72 75 87
f 87 75 90
f 57 60 72
f 75 72 60
f 27 6 9
f 9 30 27
f 57 54 72
f 90 72 87
f 63 66 81
f 78 63 81
f 108 87 90
f 86 106 107
f 71 70 85
f 71 85 86
f 56 55 70
f 56 70 71
f 45 48 63
f 60 45 63
f 66 48 51
f 63 48 66
f 42 39 54
f 42 54 57
f 143 142 145
f 143 145 146
f 144 147 145
f 148 145 147
f 30 33 48
f 30 48 45
f 6 9 30
f 27 6 30
f 39 27 24
f 27 39 42
f 6 3 24
f 6 24 27
f 42 27 30
f 42 30 45
f 24 3 27
f 27 3 6
f 140 139 143
f 143 139 142
f 127 126 129
f 129 126 130
f 130 126 127
f 127 129 130
f 130 129 109
f 109 110 130
f 127 107 130
f 127 130 110
f 130 107 110
f 110 107 127
f 33 12 30
f 12 9 30
f 48 33 36
f 48 36 51
f 60 57 75
f 57 72 75
f 45 42 57
f 45 57 60
f 15 36 33
f 12 15 33
f 90 93 111
f 111 93 114
f 108 87 111
f 87 90 111
f 78 75 93
f 75 90 93
f 60 78 63
f 60 75 78
f 90 108 111
f 133 147 135
f 135 147 150
f 116 114 133
f 116 133 135
f 116 93 96
f 114 93 116
f 96 93 114
f 96 114 116
f 78 93 81
f 81 93 96
f 73 70 88
f 70 85 88
f 40 55 58
f 40 56 41
f 40 55 56
f 55 70 71
f 55 71 56
f 41 25 40
f 26 25 41
f 5 4 26
f 4 25 26
f 21 19 20
f 18 20 19
f 21 20 22
f 21 22 23
f 22 25 23
f 19 2 18
f 2 1 18
f 4 25 23
f 21 18 19
f 20 18 21
f 1 2 19
f 18 1 19
f 24 22 23
f 25 24 23
f 22 24 25
f 25 4 5
f 25 5 26
f 40 25 26
f 40 26 41
f 25 4 28
f 4 5 8
f 7 4 8
f 4 7 28
f 55 40 41
f 55 41 56
f 86 85 106
f 54 57 69
f 87 84 69
f 69 72 87
f 105 123 125
f 105 103 123
f 99 119 121
f 101 99 121
f 103 121 123
f 121 103 101
f 123 121 124
f 121 122 124
f 105 84 87
f 105 87 108
f 70 84 85
f 69 84 70
f 85 84 106
f 84 105 106
f 106 105 126
f 105 125 126
f 126 104 106
f 102 124 104
f 124 102 122
f 106 124 126
f 106 104 124
f 107 106 126
f 107 126 127
f 102 120 122
f 102 100 120
f 122 119 120
f 121 119 122
f 124 104 126
f 119 99 100
f 119 100 120
f 99 120 100
f 99 119 120
f 121 119 101
f 99 101 119
f 101 103 123
f 121 101 123
f 58 55 73
f 73 55 70
f 73 88 91
f 76 73 91
f 61 58 76
f 58 73 76
f 97 96 82
f 81 82 96
f 81 66 67
f 81 67 82
f 78 81 96
f 93 78 96
f 88 85 106
f 88 106 109
f 66 51 52
f 66 52 67
f 48 33 51
f 33 36 51
f 36 12 15
f 33 12 36
f 64 61 79
f 94 91 112
f 94 112 115
f 94 76 91
f 61 76 79
f 79 76 94
f 91 88 112
f 112 88 109
f 79 94 82
f 16 12 13
f 15 12 16
f 78 63 66
f 78 66 81
f 60 45 48
f 60 48 63
f 51 36 52
f 36 37 52
f 67 52 64
f 52 49 64
f 67 64 82
f 64 79 82
f 15 16 37
f 36 15 37
f 43 40 58
f 146 148 149
f 146 145 148
f 149 148 152
f 148 151 152
f 150 148 151
f 148 147 151
f 147 150 151
f 150 147 148
f 125 139 126
f 139 126 140
f 140 126 127
f 134 136 151
f 134 151 148
f 117 134 136
f 134 115 117
f 134 148 136
f 136 148 151
f 150 135 136
f 150 136 151
f 112 109 132
f 132 109 129
f 106 126 109
f 109 126 129
f 129 145 132
f 129 142 145
f 129 126 139
f 129 139 142
f 127 126 139
f 140 127 139
f 115 112 134
f 112 132 134
f 97 82 94
f 125 105 108
f 125 108 128
f 141 125 128
f 138 125 141
f 128 108 111
f 128 111 131
f 131 114 133
f 131 111 114
f 139 138 141
f 144 131 147
f 131 133 147
f 141 142 139
f 141 128 144
f 128 131 144
f 145 142 144
f 142 141 144
f 96 97 117
f 96 117 116
f 114 116 135
f 135 116 117
f 136 135 117
f 133 114 135
f 148 149 151
f 152 151 149
f 147 133 150
f 150 133 135
f 144 147 148
f 145 144 148
f 132 145 134
f 134 145 148
f 97 94 117
f 94 115 117
f 85 70 86
f 71 70 86
f 88 86 89
f 110 106 109
f 106 110 107
f 89 107 110
f 89 86 107
f 109 88 89
f 109 89 110
f 139 125 138
f 5 4 7
f 5 7 8
f 10 11 13
f 10 7 11
f 11 7 8
f 13 11 14
f 46 43 58
f 46 58 61
f 11 8 10
f 8 7 10
f 37 34 52
f 52 34 49
f 91 79 94
f 49 34 37
f 49 37 52
f 7 31 10
f 7 28 31
f 64 67 79
f 79 67 82
f 115 97 117
f 115 94 97
f 49 61 64
f 46 61 49
f 91 109 88
f 109 91 112
f 25 40 43
f 28 25 43
f 13 10 31
f 13 31 34
f 88 73 76
f 88 76 91
f 16 13 34
f 16 34 37
f 91 76 79
f 34 31 49
f 31 46 49
f 70 55 58
f 70 58 73
f 85 70 73
f 85 73 88
f 31 28 46
f 28 43 46
f 58 43 61
f 61 46 64
f 46 49 64
f 61 43 46
f 47 43 44
f 46 43 47
f 52 50 53
f 52 49 50
f 40 43 41
f 41 43 44
f 44 46 47
f 44 43 46
f 8 5 29
f 5 26 29
f 43 55 40
f 58 55 43
f 44 56 59
f 44 41 56
f 109 129 110
f 110 129 130
f 88 85 86
f 73 74 88
f 88 74 89
f 76 74 73
f 74 76 77
f 74 86 89
f 74 71 86
f 109 112 113
f 110 109 113
f 47 62 50
f 50 62 65
f 50 68 53
f 50 65 68
f 67 52 68
f 52 53 68
f 62 59 74
f 62 74 77
f 47 44 62
f 44 59 62
f 86 85 89
f 85 88 89
f 59 56 71
f 59 71 74
f 24 27 42
f 39 24 42
f 4 3 25
f 3 24 25
f 40 25 24
f 24 39 40
f 40 54 55
f 40 39 54
f 55 54 69
f 55 69 70
f 3 22 24
f 37 16 17
f 37 17 38
f 28 7 10
f 28 10 31
f 14 13 16
f 14 16 17
f 37 13 16
f 34 13 37
f 29 26 44
f 26 41 44
f 47 32 29
f 47 29 44
f 37 34 35
f 37 35 38
f 46 31 34
f 46 34 49
f 17 13 14
f 16 13 17
f 13 12 15
f 13 15 16
f 17 14 38
f 38 14 35
f 35 32 47
f 35 47 50
f 8 29 11
f 11 29 32
f 37 38 53
f 52 37 53
f 38 35 53
f 35 50 53
f 14 11 32
f 14 32 35
f 75 60 63
f 78 75 63
f 72 69 54
f 108 84 87
f 84 108 105
f 53 52 67
f 53 67 68
f 82 67 83
f 83 67 68
f 68 67 82
f 68 82 83
f 16 17 38
f 37 16 38
f 97 98 117
f 117 98 118
f 52 37 38
f 52 38 53
f 83 82 97
f 98 83 97
f 98 82 83
f 97 82 98
f 118 117 137
f 117 136 137
f 137 136 152
f 136 151 152
f 92 91 94
f 112 91 92
f 113 112 92
f 92 94 95
f 95 94 98
f 94 97 98
f 68 65 80
f 68 80 83
f 83 80 79
f 83 79 82
f 80 83 98
f 80 98 95
f 91 92 95
f 94 91 95
f 112 113 91
f 92 91 113
f 65 62 80
f 80 62 77
f 80 76 79
f 77 76 80
