mtllib P-16_tex.mtl
v -0.310389 1.557927 -0.740372
v -0.692983 1.558302 -0.502844
v -0.302289 1.722913 -0.588675
v 0.543315 1.742299 -0.197581
v 0.276905 1.742396 -0.104351
v 0.733507 1.669513 -0.400852
v -0.009100 1.742427 -0.164708
v 0.248348 1.742404 0.270462
v 0.519864 1.742422 0.152200
v 0.276905 1.742396 -0.104351
v 0.009674 1.742427 -0.178216
v 0.543315 1.742299 -0.197581
v 0.578609 1.742419 0.158404
v -0.295180 1.761291 -0.450233
v -0.238989 1.742351 -0.167549
v -0.464569 1.776350 -0.470803
v -0.317816 1.742338 -0.139511
v -0.692789 1.654575 -0.149776
v -0.304388 1.722892 0.458383
v -0.317816 1.742338 -0.139511
v -0.682942 1.825832 0.235284
v -0.694111 1.599529 0.183278
v -0.682942 1.825832 0.235284
v -0.694181 1.651376 0.471138
v -0.667852 2.075291 0.292489
v -0.692177 1.558344 -0.170004
v -0.694272 1.573628 0.467428
v -0.692789 1.654575 -0.149776
v 0.293608 2.132428 0.134866
v 0.276802 2.045221 -0.489981
v 0.546395 2.265722 -0.011298
v 0.475649 2.211490 -0.173183
v -0.694181 1.651376 0.471138
v -0.667852 2.075291 0.292489
v -0.303824 1.722918 0.500823
v -0.022270 1.783873 0.586590
v -0.018229 1.722805 0.293031
v -0.201972 2.158778 0.154810
v -0.207159 1.955799 0.467294
v -0.550112 1.944272 0.461538
v -0.715803 1.937820 0.497186
v -0.531812 1.923275 0.482248
v -0.667852 2.075291 0.292489
v -0.303824 1.722918 0.500823
v -0.694181 1.651376 0.471138
v -0.714608 2.020049 -0.410360
v -0.590649 1.722895 -0.696310
v -0.585006 1.742283 -0.333773
v -0.691182 1.947859 -0.506417
v 0.263673 1.797089 0.592197
v 0.248348 1.742404 0.270462
v 0.519864 1.742422 0.152200
v -0.022270 1.783873 0.586590
v -0.018229 1.722805 0.293031
v -0.303824 1.722918 0.500823
v 0.482073 1.858351 0.614647
v -0.238989 1.742351 -0.167549
v -0.304388 1.722892 0.458383
v -0.317816 1.742338 -0.139511
v -0.295180 1.761291 -0.450233
v -0.464569 1.776350 -0.470803
v -0.009100 1.742427 -0.164708
v 0.276905 1.742396 -0.104351
v -0.694181 1.651376 0.471138
v -0.692789 1.654575 -0.149776
v -0.682942 1.825832 0.235284
v -0.585006 1.742283 -0.333773
v 0.733507 1.669513 -0.400852
v 0.276905 1.742396 -0.104351
v 0.733507 1.669534 -0.171260
v 0.578609 1.742419 0.158404
v 0.708753 1.635782 0.237400
v 0.708648 1.568737 0.467428
v 0.252966 2.177570 0.138240
v 0.149706 2.238092 -0.142986
v 0.546395 2.265722 -0.011298
v 0.249670 2.050096 -0.482625
v 0.252966 2.177570 0.138240
v 0.149706 2.238092 -0.142986
v 0.276802 2.045221 -0.489981
v 0.293608 2.132428 0.134866
v -0.590649 1.722895 -0.696310
v -0.692983 1.558302 -0.502844
v -0.310389 1.557927 -0.740372
v 0.248348 1.742404 0.270462
v -0.018229 1.722805 0.293031
v 0.263673 1.797089 0.592197
v -0.022270 1.783873 0.586590
v -0.585006 1.742283 -0.333773
v -0.691182 1.947859 -0.506417
v -0.714608 2.020049 -0.410360
v -0.590649 1.722895 -0.696310
v -0.692789 1.654575 -0.149776
v -0.704295 1.951630 -0.168247
v -0.692983 1.558302 -0.502844
v -0.590649 1.722895 -0.696310
v -0.302289 1.722913 -0.588675
v -0.692789 1.654575 -0.149776
v -0.694111 1.599529 0.183278
v -0.682942 1.825832 0.235284
v -0.692177 1.558344 -0.170004
v 0.261006 2.002810 0.398676
v 0.248348 1.742404 0.270462
v 0.263673 1.797089 0.592197
v 0.708753 1.635782 0.237400
v 0.708648 1.568737 0.467428
v 0.708888 1.884916 0.519096
v 0.578609 1.742419 0.158404
v -0.585006 1.742283 -0.333773
v -0.704295 1.951630 -0.168247
v -0.714608 2.020049 -0.410360
v -0.692789 1.654575 -0.149776
v 0.733507 1.669534 -0.171260
v 0.730397 1.633811 -0.163373
v 0.578609 1.742419 0.158404
v 0.708753 1.635782 0.237400
v 0.733507 1.669571 -0.503938
v 0.730348 1.608063 -0.503356
v 0.538905 1.652373 -0.738414
v 0.416729 1.495007 -0.713470
v 0.538905 1.652373 -0.738414
v 0.416729 1.495007 -0.713470
v 0.733507 1.669571 -0.503938
v 0.730348 1.608063 -0.503356
v 0.243566 1.495031 -0.740372
v -0.303824 1.722918 0.500823
v -0.550112 1.944272 0.461538
v -0.531812 1.923275 0.482248
v -0.667852 2.075291 0.292489
v 0.252966 2.177570 0.138240
v 0.293608 2.132428 0.134866
v 0.293600 1.931724 0.444237
v 0.261006 2.002810 0.398676
v 0.247402 1.926534 0.478153
v 0.263673 1.797089 0.592197
v 0.293726 1.926434 0.484388
v 0.482073 1.858351 0.614647
v 0.293600 1.931724 0.444237
v 0.519864 1.742422 0.152200
v 0.578609 1.742419 0.158404
v 0.708888 1.884916 0.519096
v 0.248348 1.742404 0.270462
v 0.261006 2.002810 0.398676
v 0.708648 1.568737 0.467428
v -0.302289 1.722913 -0.588675
v -0.310389 1.557927 -0.740372
v -0.161071 1.557284 -0.742250
v -0.590649 1.722895 -0.696310
v -0.464569 1.776350 -0.470803
v -0.585006 1.742283 -0.333773
v 0.252966 2.177570 0.138240
v 0.546395 2.265722 -0.011298
v 0.293608 2.132428 0.134866
v 0.293608 2.132428 0.134866
v 0.252966 2.177570 0.138240
v 0.261006 2.002810 0.398676
v 0.293600 1.931724 0.444237
v 0.247402 1.926534 0.478153
v 0.730397 1.633811 -0.163373
v 0.733507 1.669534 -0.171260
v 0.708753 1.635782 0.237400
v -0.302289 1.722913 -0.588675
v -0.161071 1.557284 -0.742250
v -0.263303 1.722944 -0.651202
v -0.464569 1.776350 -0.470803
v 0.038911 1.648907 -0.738329
v 0.243566 1.495031 -0.740372
v 0.730418 1.641843 -0.382587
v 0.730348 1.608063 -0.503356
v 0.733507 1.669513 -0.400852
v 0.733507 1.669571 -0.503938
v 0.730397 1.633811 -0.163373
v 0.733507 1.669534 -0.171260
v 0.247402 1.926534 0.478153
v 0.261006 2.002810 0.398676
v 0.263673 1.797089 0.592197
v 0.276802 2.045221 -0.489981
v 0.261210 2.020753 -0.526498
v 0.249670 2.050096 -0.482625
v 0.275572 2.030569 -0.511807
v 0.233617 2.198659 -0.173518
v 0.475649 2.211490 -0.173183
v 0.149706 2.238092 -0.142986
v 0.546395 2.265722 -0.011298
v 0.293608 2.132428 0.134866
v 0.252966 2.177570 0.138240
v 0.009674 1.742427 -0.178216
v 0.538905 1.652373 -0.738414
v 0.543315 1.742299 -0.197581
v 0.038911 1.648907 -0.738329
v 0.733507 1.669571 -0.503938
v 0.733507 1.669513 -0.400852
v 0.261210 2.020753 -0.526498
v 0.275572 2.030569 -0.511807
v 0.249670 2.050096 -0.482625
v 0.276802 2.045221 -0.489981
v 0.243566 1.495031 -0.740372
v -0.295180 1.761291 -0.450233
v -0.263303 1.722944 -0.651202
v -0.464569 1.776350 -0.470803
v 0.009674 1.742427 -0.178216
v 0.038911 1.648907 -0.738329
v -0.263303 1.722944 -0.651202
v -0.295180 1.761291 -0.450233
v -0.302289 1.722913 -0.588675
v -0.464569 1.776350 -0.470803
v -0.712176 0.669336 -0.512200
v -0.712205 0.548348 -0.492457
v -0.712073 0.600646 -0.443524
v -0.712170 0.548548 -0.392038
v -0.712443 1.090491 0.463367
v -0.691066 0.552541 0.219282
v -0.595163 0.550101 0.702950
v -0.021512 0.816621 0.435884
v -0.313461 0.909257 0.464236
v -0.150404 0.825002 0.439094
v 0.543110 0.828817 0.440445
v 0.153703 0.925531 0.718986
v 0.342867 0.823926 0.535824
v 0.723660 1.095001 0.462724
v 0.543110 0.828817 0.440445
v 0.342867 0.823926 0.535824
v 0.342867 0.786280 0.425110
v 0.543110 0.828817 0.440445
v 0.723660 1.095001 0.462724
v 0.631676 0.574136 0.443323
v 0.342867 0.786280 0.425110
v 0.723660 1.095001 0.462724
v -0.572953 0.000139 0.310323
v -0.581622 0.000202 0.138286
v -0.053723 0.000147 -0.027938
v -0.133842 0.000157 0.172900
v 0.319888 0.286465 -0.735701
v 0.550087 0.000165 -0.551131
v 0.586177 0.318023 -0.735732
v -0.450110 0.000155 -0.172650
v -0.632197 0.000100 -0.375920
v -0.596253 0.000160 0.141996
v -0.581622 0.000202 0.138286
v -0.013305 0.000139 0.487836
v 0.282137 0.000155 0.168260
v 0.333840 0.000097 0.473922
v 0.623947 0.000034 0.468818
v 0.572578 0.000136 0.150868
v -0.133842 0.000157 0.172900
v -0.013305 0.000136 0.168723
v -0.234477 0.000000 0.477863
v 0.564654 0.000084 -0.234107
v 0.696608 0.546753 -0.321886
v 0.568552 0.000108 -0.168940
v 0.550087 0.000165 -0.551131
v 0.718249 0.514016 0.143679
v 0.586177 0.318023 -0.735732
v 0.282137 0.000155 0.168260
v 0.333840 0.000097 0.473922
v 0.572578 0.000136 0.150868
v 0.623947 0.000034 0.468818
v -0.013305 0.000136 0.168723
v -0.013305 0.000139 0.487836
v -0.572953 0.000139 0.310323
v -0.301157 0.000139 0.496302
v -0.133842 0.000157 0.172900
v -0.581622 0.000202 0.138286
v -0.053723 0.000147 -0.027938
v -0.234477 0.000000 0.477863
v -0.013305 0.000136 0.168723
v 0.718249 0.514016 0.143679
v 0.572578 0.000136 0.150868
v 0.631558 0.457329 0.453514
v 0.566243 0.341182 0.543751
v 0.568552 0.000108 -0.168940
v 0.564654 0.000084 -0.234107
v 0.696608 0.546753 -0.321886
v 0.586177 0.318023 -0.735732
v 0.550087 0.000165 -0.551131
v 0.631676 0.574136 0.443323
v 0.718692 0.615815 0.140896
v 0.697150 0.682983 -0.445380
v 0.623947 0.000034 0.468818
v 0.686785 1.055498 -0.074319
v 0.723660 1.095001 0.462724
v 0.631423 0.571505 0.689137
v -0.632197 0.000100 -0.375920
v -0.596253 0.000160 0.141996
v -0.690256 0.541363 -0.169403
v -0.712170 0.548548 -0.392038
v -0.691004 0.465549 0.258344
v -0.690256 0.541363 -0.169403
v -0.690219 0.581696 -0.167330
v -0.691066 0.552541 0.219282
v -0.712402 0.850155 -0.148322
v -0.712443 1.090491 0.463367
v -0.711698 0.832588 0.557680
v -0.712073 0.600646 -0.443524
v -0.679978 0.826500 -0.429494
v -0.596253 0.000160 0.141996
v -0.599471 0.000066 0.312628
v -0.618587 0.298839 0.474385
v -0.712170 0.548548 -0.392038
v -0.595163 0.550101 0.702950
v -0.717432 0.926056 -0.651318
v -0.712176 0.669336 -0.512200
v -0.712205 0.548348 -0.492457
v -0.632197 0.000100 -0.375920
v -0.690346 0.272492 -0.587773
v -0.703901 0.144144 0.540385
v -0.576087 0.549148 0.359821
v -0.691066 0.552541 0.219282
v -0.313461 0.909257 0.464236
v -0.691004 0.465549 0.258344
v -0.712443 1.090491 0.463367
v -0.021512 0.816621 0.435884
v -0.317212 0.241753 -0.744716
v -0.690346 0.272492 -0.587773
v -0.450110 0.000155 -0.172650
v 0.140981 0.549634 0.675842
v -0.058801 0.550471 0.675028
v 0.090306 0.786280 0.424906
v 0.279982 0.563622 0.685649
v 0.342867 0.786280 0.425110
v 0.631423 0.571505 0.689137
v -0.021512 0.816621 0.435884
v -0.576087 0.549148 0.359821
v -0.303824 0.586451 0.696426
v 0.631676 0.574136 0.443323
v -0.348744 0.544711 0.669421
v -0.572953 0.000139 0.310323
v -0.575985 0.532381 0.354254
v -0.301157 0.000139 0.496302
v -0.303824 0.586451 0.696426
v -0.576087 0.549148 0.359821
v -0.691004 0.465549 0.258344
v -0.599471 0.000066 0.312628
v -0.013305 0.000139 0.487836
v -0.030323 0.483484 0.632289
v 0.111437 0.514127 0.652864
v -0.234477 0.000000 0.477863
v 0.333840 0.000097 0.473922
v 0.140981 0.549634 0.675842
v -0.058801 0.550471 0.675028
v 0.226332 0.680705 0.803238
v -0.033053 0.682424 0.796787
v 0.047938 0.826400 0.439494
v -0.021512 0.816621 0.435884
v -0.150404 0.825002 0.439094
v 0.090306 0.786280 0.424906
v 0.543110 0.828817 0.440445
v 0.342867 0.786280 0.425110
v 0.153703 0.925531 0.718986
v -0.268973 0.891291 0.596294
v -0.303473 0.904274 0.492089
v -0.313461 0.909257 0.464236
v 0.736376 1.092228 0.471138
v 0.342867 0.823926 0.535824
v 0.279982 0.563622 0.685649
v 0.140981 0.549634 0.675842
v 0.723660 1.095001 0.462724
v 0.631423 0.571505 0.689137
v 0.153703 0.925531 0.718986
v -0.632197 0.000100 -0.375920
v -0.317212 0.241753 -0.744716
v -0.450110 0.000155 -0.172650
v -0.251301 0.243351 -0.744774
v -0.581622 0.000202 0.138286
v -0.596253 0.000160 0.141996
v -0.296027 0.000074 -0.248658
v -0.690346 0.272492 -0.587773
v 0.631423 0.571505 0.689137
v 0.631558 0.457329 0.453514
v 0.631676 0.574136 0.443323
v 0.718692 0.615815 0.140896
v 0.718249 0.514016 0.143679
v 0.566243 0.341182 0.543751
v 0.623947 0.000034 0.468818
v 0.333840 0.000097 0.473922
v 0.566243 0.341182 0.543751
v 0.271168 0.435668 0.603723
v -0.300952 0.781576 -0.710687
v -0.712176 0.669336 -0.512200
v -0.308749 0.846051 -0.706187
v -0.712205 0.548348 -0.492457
v -0.336650 0.529186 -0.735863
v -0.056800 0.781754 -0.710687
v -0.025358 0.844474 -0.704309
v -0.717432 0.926056 -0.651318
v -0.712176 0.669336 -0.512200
v -0.336650 0.529186 -0.735863
v -0.300952 0.781576 -0.710687
v -0.712205 0.548348 -0.492457
v -0.313461 0.909257 0.464236
v -0.712443 1.090491 0.463367
v -0.711698 0.832588 0.557680
v -0.303473 0.904274 0.492089
v -0.303824 0.586451 0.696426
v -0.058801 0.550471 0.675028
v -0.595163 0.550101 0.702950
v 0.161832 0.878898 0.786540
v 0.226332 0.680705 0.803238
v 0.544753 0.681548 0.799921
v 0.368092 0.873309 0.785611
v -0.303473 0.904274 0.492089
v -0.058801 0.550471 0.675028
v -0.268973 0.891291 0.596294
v 0.153703 0.925531 0.718986
v 0.140981 0.549634 0.675842
v -0.691004 0.465549 0.258344
v -0.618587 0.298839 0.474385
v -0.595163 0.550101 0.702950
v -0.691066 0.552541 0.219282
v -0.703901 0.144144 0.540385
v -0.599471 0.000066 0.312628
v -0.317212 0.241753 -0.744716
v -0.450110 0.000155 -0.172650
v -0.296027 0.000074 -0.248658
v -0.251301 0.243351 -0.744774
v -0.058801 0.550471 0.675028
v -0.303824 0.586451 0.696426
v -0.313757 0.684885 0.826426
v -0.603306 0.732820 0.855199
v -0.033053 0.682424 0.796787
v -0.595163 0.550101 0.702950
v 0.279982 0.563622 0.685649
v 0.140981 0.549634 0.675842
v 0.153703 0.925531 0.718986
v 0.342867 0.823926 0.535824
v 0.550087 0.000165 -0.551131
v 0.357229 0.259317 -0.735707
v 0.586177 0.318023 -0.735732
v 0.319888 0.286465 -0.735701
v -0.690346 0.272492 -0.587773
v -0.632197 0.000100 -0.375920
v -0.450110 0.000155 -0.172650
v 0.368092 0.873309 0.785611
v 0.279982 0.563622 0.685649
v 0.342867 0.823926 0.535824
v -0.712402 0.850155 -0.148322
v -0.712073 0.600646 -0.443524
v -0.690219 0.581696 -0.167330
v -0.679978 0.826500 -0.429494
v 0.111437 0.514127 0.652864
v 0.333840 0.000097 0.473922
v 0.271168 0.435668 0.603723
v 0.566243 0.341182 0.543751
v 0.623947 0.000034 0.468818
v 0.153703 0.925531 0.718986
v 0.161832 0.878898 0.786540
v 0.368092 0.873309 0.785611
v 0.342867 0.823926 0.535824
v 0.544753 0.681548 0.799921
v 0.279982 0.563622 0.685649
v 0.631423 0.571505 0.689137
v 0.633394 0.676709 0.786171
v -0.058801 0.550471 0.675028
v 0.140981 0.549634 0.675842
v -0.033053 0.682424 0.796787
v 0.226332 0.680705 0.803238
v -0.303824 0.586451 0.696426
v -0.313757 0.684885 0.826426
v -0.599471 0.000066 0.312628
v -0.572953 0.000139 0.310323
v -0.301157 0.000139 0.496302
v -0.703901 0.144144 0.540385
v -0.595163 0.550101 0.702950
v -0.348744 0.544711 0.669421
v -0.618587 0.298839 0.474385
v -0.603306 0.732820 0.855199
v 0.111437 0.514127 0.652864
v -0.030323 0.483484 0.632289
v 0.631423 0.571505 0.689137
v 0.279982 0.563622 0.685649
v 0.633394 0.676709 0.786171
v 0.544753 0.681548 0.799921
v 0.368092 0.873309 0.785611
v -0.317212 0.241753 -0.744716
v -0.251301 0.243351 -0.744774
v -0.162873 0.294250 -0.735689
v -0.336650 0.529186 -0.735863
v -0.712176 0.669336 -0.512200
v -0.712073 0.600646 -0.443524
v -0.679978 0.826500 -0.429494
v -0.717432 0.926056 -0.651318
v -0.712443 1.090491 0.463367
v -0.595163 0.550101 0.702950
v -0.711698 0.832588 0.557680
v -0.162873 0.294250 -0.735689
v -0.251301 0.243351 -0.744774
v -0.336650 0.529186 -0.735863
v -0.317212 0.241753 -0.744716
v -0.308749 0.846051 -0.706187
v -0.300952 0.781576 -0.710687
v -0.025358 0.844474 -0.704309
v -0.056800 0.781754 -0.710687
v 0.631676 0.574136 0.443323
v 0.723660 1.095001 0.462724
v 0.736376 1.092228 0.471138
v 0.631423 0.571505 0.689137
v 0.686785 1.055498 -0.074319
v 0.718692 0.615815 0.140896
v 0.734588 0.832588 -0.449090
v 0.697150 0.682983 -0.445380
v 0.718249 0.514016 0.143679
v 0.696608 0.546753 -0.321886
v 0.661126 1.090032 -0.725064
v 0.697118 0.679514 -0.499271
v -0.692983 1.558302 -0.335998
v -0.692983 1.558302 -0.502844
v -0.585006 1.742283 -0.333773
v -0.692177 1.558344 -0.170004
v -0.590649 1.722895 -0.696310
v -0.692789 1.654575 -0.149776
v 0.685909 1.923393 0.340746
v 0.578609 1.742419 0.158404
v 0.708888 1.884916 0.519096
v 0.712502 1.922441 0.468355
v -0.162873 0.294250 -0.735689
v -0.056800 0.781754 -0.710687
v -0.011870 0.294450 -0.735768
v 0.252440 0.781620 -0.710687
v 0.017469 0.000163 -0.173345
v 0.050298 0.000144 -0.142328
v 0.310335 0.000171 -0.178942
v 0.273622 0.000181 0.115211
v -0.011870 0.294450 -0.735768
v 0.319888 0.286465 -0.735701
v 0.352406 0.781725 -0.710687
v -0.162873 0.294250 -0.735689
v -0.011870 0.294450 -0.735768
v 0.252440 0.781620 -0.710687
v -0.056800 0.781754 -0.710687
v 0.017469 0.000163 -0.173345
v 0.310335 0.000171 -0.178942
v 0.273622 0.000181 0.115211
v 0.564654 0.000084 -0.234107
v 0.568552 0.000108 -0.168940
v 0.282137 0.000155 0.168260
v 0.050298 0.000144 -0.142328
v -0.013305 0.000136 0.168723
v -0.133842 0.000157 0.172900
v -0.053723 0.000147 -0.027938
v -0.296027 0.000074 -0.248658
v -0.450110 0.000155 -0.172650
v -0.581622 0.000202 0.138286
v 0.572578 0.000136 0.150868
v 0.550087 0.000165 -0.551131
v -0.251301 0.243351 -0.744774
v 0.017674 0.241753 -0.744801
v 0.357229 0.259317 -0.735707
v 0.357229 0.259317 -0.735707
v 0.017674 0.241753 -0.744801
v 0.017469 0.000163 -0.173345
v 0.310335 0.000171 -0.178942
v 0.017674 0.241753 -0.744801
v -0.011870 0.294450 -0.735768
v 0.319888 0.286465 -0.735701
v -0.162873 0.294250 -0.735689
v -0.251301 0.243351 -0.744774
v 0.357229 0.259317 -0.735707
v 0.252440 0.781620 -0.710687
v 0.352406 0.781725 -0.710687
v 0.003727 1.390773 0.463544
v 0.081006 1.352957 0.438747
v -0.013971 1.435244 0.525438
v 0.123566 1.358653 0.492964
v -0.020670 1.371521 0.451661
v -0.019155 1.392305 0.464630
v -0.019155 1.392305 0.464630
v -0.020670 1.371521 0.451661
v -0.039566 1.455362 0.648785
v -0.013971 1.435244 0.525438
v -0.124019 1.343967 0.631377
v 0.003727 1.390773 0.463544
v -0.124019 1.343967 0.631377
v 0.123566 1.358653 0.492964
v -0.013971 1.435244 0.525438
v -0.039566 1.455362 0.648785
v -0.124019 1.343967 0.631377
v -0.013971 1.435244 0.525438
v 0.482073 1.858351 0.614647
v 0.248348 1.742404 0.270462
v 0.519864 1.742422 0.152200
v 0.263673 1.797089 0.592197
v -0.056800 0.781754 -0.710687
v -0.011665 0.847248 -0.708831
v 0.252440 0.781620 -0.710687
v -0.025358 0.844474 -0.704309
v 0.697118 0.679514 -0.499271
v 0.319888 0.286465 -0.735701
v 0.586177 0.318023 -0.735732
v 0.352406 0.781725 -0.710687
v 0.586177 0.318023 -0.735732
v 0.352406 0.781725 -0.710687
v 0.697118 0.679514 -0.499271
v 0.319888 0.286465 -0.735701
v 0.697118 0.679514 -0.499271
v 0.586177 0.318023 -0.735732
v 0.696608 0.546753 -0.321886
v 0.697150 0.682983 -0.445380
v -0.317212 0.241753 -0.744716
v -0.690346 0.272492 -0.587773
v -0.712205 0.548348 -0.492457
v -0.336650 0.529186 -0.735863
v -0.162873 0.294250 -0.735689
v -0.336650 0.529186 -0.735863
v -0.056800 0.781754 -0.710687
v -0.300952 0.781576 -0.710687
v 0.352406 0.781725 -0.710687
v 0.661126 1.090032 -0.725064
v 0.264903 0.846699 -0.707108
v -0.011665 0.847248 -0.708831
v 0.252440 0.781620 -0.710687
v 0.697118 0.679514 -0.499271
v -0.599471 0.000066 0.312628
v -0.596253 0.000160 0.141996
v -0.581622 0.000202 0.138286
v -0.572953 0.000139 0.310323
v 0.271168 0.435668 0.603723
v 0.111437 0.514127 0.652864
v 0.140981 0.549634 0.675842
v 0.279982 0.563622 0.685649
v 0.631423 0.571505 0.689137
v 0.566243 0.341182 0.543751
v -0.234477 0.000000 0.477863
v -0.572953 0.000139 0.310323
v -0.133842 0.000157 0.172900
v -0.301157 0.000139 0.496302
v 0.759644 2.202290 -0.079423
v 0.760483 2.025239 -0.444801
v 0.760332 2.209428 -0.190798
v 0.759622 2.173947 -0.074319
v 0.760431 1.923241 -0.592876
v 0.733507 1.669571 -0.503938
v 0.760483 2.025239 -0.444801
v 0.733507 1.669513 -0.400852
v 0.723660 1.095001 0.462724
v 0.724488 1.205577 0.466184
v 0.749222 1.372327 0.506390
v 0.736376 1.092228 0.471138
v 0.631423 0.571505 0.689137
v 0.631676 0.574136 0.443323
v 0.723660 1.095001 0.462724
v 0.736376 1.092228 0.471138
v 0.140981 0.549634 0.675842
v 0.279982 0.563622 0.685649
v 0.226332 0.680705 0.803238
v 0.544753 0.681548 0.799921
v -0.174074 2.197100 -0.242921
v -0.560285 2.221839 -0.170775
v -0.081422 2.234124 -0.160230
v -0.658356 2.199268 -0.203938
v -0.714608 2.020049 -0.410360
v -0.312479 2.211406 -0.188813
v -0.217243 2.046438 -0.490664
v -0.201959 2.164366 0.146463
v -0.081422 2.234124 -0.160230
v -0.839517 2.400000 -0.090943
v -0.658356 2.199268 -0.203938
v -0.312479 2.211406 -0.188813
v -0.570445 2.152375 -0.277446
v -0.658356 2.199268 -0.203938
v -0.312479 2.211406 -0.188813
v -0.560285 2.221839 -0.170775
v -0.714608 2.020049 -0.410360
v -0.839517 2.400000 -0.090943
v -0.174074 2.197100 -0.242921
v -0.217243 2.046438 -0.490664
v -0.081422 2.234124 -0.160230
v -0.312479 2.211406 -0.188813
v -0.560285 2.221839 -0.170775
v -0.658356 2.199268 -0.203938
v -0.714608 2.020049 -0.410360
v -0.839517 2.400000 -0.090943
v -0.714608 2.020049 -0.410360
v -0.704295 1.951630 -0.168247
v -0.839517 2.400000 -0.090943
v -0.691066 0.552541 0.219282
v -0.618587 0.298839 0.474385
v -0.595163 0.550101 0.702950
v -0.691004 0.465549 0.258344
v -0.303824 0.586451 0.696426
v -0.313757 0.684885 0.826426
v -0.303473 0.904274 0.492089
v -0.303473 0.904274 0.492089
v -0.303824 0.586451 0.696426
v -0.268973 0.891291 0.596294
v -0.058801 0.550471 0.675028
v -0.303824 0.586451 0.696426
v -0.268973 0.891291 0.596294
v -0.712443 1.090491 0.463367
v -0.711698 0.832588 0.557680
v -0.710878 1.140283 0.464331
v -0.649639 1.369732 0.573353
v -0.694181 1.651376 0.471138
v -0.667852 2.075291 0.292489
v -0.715803 1.937820 0.497186
vt 0.535492 0.969847
vt 0.624224 0.969847
vt 0.549929 0.927543
vt 0.904941 0.001350
vt 0.851375 0.016652
vt 0.959627 0.016652
vt 0.350056 0.643743
vt 0.423040 0.575608
vt 0.467323 0.613787
vt 0.407175 0.648705
vt 0.352816 0.647399
vt 0.451917 0.681818
vt 0.478705 0.615987
vt 0.280123 0.681818
vt 0.306730 0.631046
vt 0.247116 0.676079
vt 0.293518 0.621162
vt 0.268412 0.838434
vt 0.141526 0.759226
vt 0.263298 0.760841
vt 0.185949 0.838434
vt 0.572043 0.776134
vt 0.583283 0.731286
vt 0.628660 0.767192
vt 0.595647 0.681818
vt 0.502662 0.782628
vt 0.627567 0.782628
vt 0.507077 0.763604
vt 0.072316 0.314581
vt 0.026177 0.197570
vt 0.009317 0.314581
vt 0.010194 0.277700
vt 0.895741 0.174167
vt 0.895741 0.265977
vt 0.818545 0.189433
vt 0.003106 0.679118
vt 0.061668 0.673780
vt 0.061668 0.575608
vt 0.005904 0.623573
vt 0.541323 0.865261
vt 0.524289 0.836222
vt 0.548041 0.864144
vt 0.494676 0.876238
vt 0.606477 0.876238
vt 0.571873 0.805131
vt 0.246053 0.913141
vt 0.186779 0.975248
vt 0.258651 0.975248
vt 0.226375 0.927441
vt 0.426771 0.207482
vt 0.363540 0.199127
vt 0.336643 0.251101
vt 0.429902 0.150982
vt 0.371689 0.146596
vt 0.416035 0.093396
vt 0.429902 0.252475
vt 0.284758 0.096653
vt 0.407817 0.092118
vt 0.290342 0.080963
vt 0.229366 0.088919
vt 0.223159 0.055535
vt 0.282221 0.142141
vt 0.290081 0.199490
vt 0.426443 0.015231
vt 0.286302 0.004050
vt 0.368863 0.011121
vt 0.247782 0.028246
vt 0.613576 0.271854
vt 0.722715 0.283078
vt 0.642138 0.235497
vt 0.708951 0.204803
vt 0.695881 0.172548
vt 0.722715 0.133663
vt 0.258651 0.993249
vt 0.318988 0.993249
vt 0.269690 0.925743
vt 0.886673 0.892924
vt 0.880213 0.767327
vt 0.852263 0.821178
vt 0.892192 0.894239
vt 0.892192 0.769012
vt 0.489295 0.939244
vt 0.452085 0.978848
vt 0.540816 0.978848
vt 0.114020 0.999550
vt 0.115256 0.946294
vt 0.177906 0.999550
vt 0.173792 0.942844
vt 0.790297 0.874205
vt 0.754080 0.829334
vt 0.772368 0.812331
vt 0.718279 0.882538
vt 0.831854 0.882538
vt 0.822048 0.823274
vt 0.846051 0.984248
vt 0.807955 0.945545
vt 0.760870 0.984248
vt 0.091179 0.964446
vt 0.035853 0.927543
vt 0.008429 0.964446
vt 0.102484 0.948641
vt 0.940994 0.637320
vt 0.987134 0.603510
vt 0.987134 0.668317
vt 0.534035 0.007486
vt 0.580745 0.003150
vt 0.580745 0.069757
vt 0.507986 0.029262
vt 0.463584 0.302259
vt 0.504437 0.345034
vt 0.459184 0.364987
vt 0.504437 0.285779
vt 0.229370 0.494599
vt 0.222188 0.494857
vt 0.229370 0.568820
vt 0.192990 0.569307
vt 0.102484 0.989308
vt 0.098272 0.999550
vt 0.045567 0.968047
vt 0.019965 0.999550
vt 0.662378 0.542977
vt 0.693434 0.567838
vt 0.681902 0.485599
vt 0.693434 0.489543
vt 0.691650 0.602610
vt 0.761757 0.975248
vt 0.698845 0.957211
vt 0.705419 0.955446
vt 0.654392 0.975248
vt 0.991571 0.536004
vt 0.980035 0.531333
vt 0.982235 0.457696
vt 0.991571 0.473329
vt 0.412193 0.723803
vt 0.413679 0.758326
vt 0.403267 0.725969
vt 0.368895 0.758326
vt 0.402347 0.717966
vt 0.336703 0.668776
vt 0.325880 0.673057
vt 0.320359 0.754393
vt 0.394911 0.666517
vt 0.420142 0.718465
vt 0.267524 0.719600
vt 0.858474 0.668971
vt 0.830659 0.637849
vt 0.851216 0.615212
vt 0.801686 0.698629
vt 0.854989 0.712356
vt 0.858474 0.744824
vt 0.864685 0.409991
vt 0.932121 0.409991
vt 0.869588 0.398290
vt 0.985359 0.211801
vt 0.996894 0.216472
vt 0.996894 0.153634
vt 0.987542 0.137960
vt 0.996291 0.131863
vt 0.768855 0.018839
vt 0.775954 0.016652
vt 0.775954 0.098560
vt 0.805515 0.555596
vt 0.783052 0.603371
vt 0.809081 0.569777
vt 0.814108 0.515302
vt 0.814108 0.633744
vt 0.800578 0.682718
vt 0.614735 0.982983
vt 0.638421 0.989649
vt 0.618257 0.977258
vt 0.638421 0.977048
vt 0.571872 0.985046
vt 0.573349 0.977697
vt 0.447649 0.846992
vt 0.451198 0.824933
vt 0.451198 0.881638
vt 0.812766 0.300508
vt 0.813345 0.291179
vt 0.807174 0.300002
vt 0.814580 0.295566
vt 0.778062 0.361647
vt 0.821207 0.381804
vt 0.759053 0.363681
vt 0.821207 0.418798
vt 0.758936 0.429793
vt 0.748447 0.423911
vt 0.611801 0.528091
vt 0.463620 0.561473
vt 0.555608 0.617443
vt 0.513169 0.475902
vt 0.483652 0.618541
vt 0.500611 0.629613
vt 0.563520 0.556850
vt 0.564085 0.561333
vt 0.572554 0.562416
vt 0.567644 0.565108
vt 0.466798 0.495128
vt 0.597921 0.448139
vt 0.560229 0.433082
vt 0.611801 0.417192
vt 0.819432 0.157966
vt 0.720053 0.210555
vt 0.767476 0.253662
vt 0.805452 0.238485
vt 0.781642 0.253709
vt 0.819432 0.269577
vt 0.846827 0.781728
vt 0.832742 0.761666
vt 0.846939 0.762229
vt 0.846939 0.747525
vt 0.381988 0.789305
vt 0.488465 0.743024
vt 0.488465 0.841134
vt 0.974712 0.262376
vt 0.974712 0.323582
vt 0.967613 0.287279
vt 0.987134 0.677318
vt 0.987134 0.774527
vt 0.974712 0.719722
vt 0.785714 0.578308
vt 0.759982 0.519498
vt 0.785714 0.483798
vt 0.026176 0.103060
vt 0.007542 0.066548
vt 0.026176 0.004950
vt 0.826531 0.588209
vt 0.897516 0.588209
vt 0.872612 0.493699
vt 0.607365 0.903400
vt 0.615882 0.936544
vt 0.724490 0.936544
vt 0.697656 0.903240
vt 0.965838 0.312781
vt 0.965838 0.394689
vt 0.918811 0.338105
vt 0.607365 0.174807
vt 0.640195 0.131863
vt 0.640195 0.235374
vt 0.637285 0.234838
vt 0.757320 0.613526
vt 0.696042 0.552787
vt 0.756620 0.544307
vt 0.757320 0.486499
vt 0.694321 0.494839
vt 0.694508 0.635661
vt 0.694394 0.611630
vt 0.754052 0.657516
vt 0.576497 0.626412
vt 0.680124 0.584131
vt 0.570098 0.615171
vt 0.607805 0.680918
vt 0.628752 0.507201
vt 0.680124 0.680579
vt 0.781223 0.088137
vt 0.841801 0.096610
vt 0.779503 0.146032
vt 0.842502 0.154365
vt 0.779576 0.029348
vt 0.842502 0.027453
vt 0.391748 0.810543
vt 0.351835 0.758813
vt 0.301456 0.810382
vt 0.383231 0.843834
vt 0.274623 0.843834
vt 0.338267 0.758326
vt 0.278648 0.803948
vt 0.110592 0.115198
vt 0.108010 0.220956
vt 0.048653 0.129813
vt 0.029481 0.155093
vt 0.170527 0.221832
vt 0.183367 0.222108
vt 0.201638 0.110732
vt 0.282609 0.160923
vt 0.245353 0.223672
vt 0.048940 0.106464
vt 0.110837 0.094989
vt 0.226456 0.084030
vt 0.045018 0.223672
vt 0.145428 0.002685
vt 0.038447 0.000450
vt 0.000444 0.107353
vt 0.102484 0.806514
vt 0.000444 0.810531
vt 0.058590 0.699543
vt 0.102484 0.696220
vt 0.102591 0.317676
vt 0.183613 0.344855
vt 0.182008 0.352883
vt 0.107724 0.335812
vt 0.170227 0.405315
vt 0.044644 0.434293
vt 0.033885 0.380849
vt 0.235326 0.364645
vt 0.225728 0.408943
vt 0.138793 0.227626
vt 0.105653 0.222772
vt 0.064992 0.276446
vt 0.226848 0.353032
vt 0.012866 0.317106
vt 0.266898 0.434293
vt 0.246800 0.380064
vt 0.246317 0.355826
vt 0.239408 0.243535
vt 0.272848 0.304256
vt 0.051984 0.241337
vt 0.658359 0.335873
vt 0.640432 0.304592
vt 0.615978 0.416310
vt 0.658829 0.301080
vt 0.543478 0.369311
vt 0.658829 0.459496
vt 0.764419 0.440755
vt 0.843390 0.428893
vt 0.843390 0.538704
vt 0.606734 0.222063
vt 0.603239 0.182512
vt 0.538426 0.217736
vt 0.608513 0.249841
vt 0.542439 0.267771
vt 0.613576 0.319526
vt 0.533718 0.195101
vt 0.553055 0.073357
vt 0.613576 0.134227
vt 0.567601 0.334383
vt 0.192588 0.516871
vt 0.078030 0.444957
vt 0.182363 0.440467
vt 0.080832 0.510345
vt 0.201772 0.526287
vt 0.185802 0.440905
vt 0.167119 0.411791
vt 0.077860 0.439667
vt 0.072611 0.567552
vt 0.170840 0.577681
vt 0.174007 0.606677
vt 0.077883 0.523860
vt 0.062555 0.635914
vt 0.181455 0.613744
vt 0.187133 0.574194
vt 0.214641 0.635914
vt 0.221384 0.584459
vt 0.185533 0.747130
vt 0.171915 0.749186
vt 0.146648 0.747360
vt 0.193834 0.755626
vt 0.282609 0.746643
vt 0.243349 0.755626
vt 0.206179 0.688119
vt 0.123324 0.713484
vt 0.114092 0.733373
vt 0.111358 0.738657
vt 0.764318 0.337984
vt 0.728545 0.426354
vt 0.672809 0.449965
vt 0.676691 0.477498
vt 0.766193 0.340413
vt 0.659716 0.381417
vt 0.751283 0.477498
vt 0.673383 0.086233
vt 0.596191 0.012151
vt 0.641480 0.129818
vt 0.583407 0.014126
vt 0.672763 0.189001
vt 0.675688 0.189469
vt 0.608839 0.121330
vt 0.675688 0.016668
vt 0.903727 0.411791
vt 0.876397 0.456798
vt 0.898664 0.460531
vt 0.903727 0.524302
vt 0.884167 0.522244
vt 0.853150 0.434780
vt 0.013753 0.821332
vt 0.070541 0.829635
vt 0.015275 0.891953
vt 0.070541 0.921242
vt 0.748834 0.129375
vt 0.709231 0.042508
vt 0.761100 0.125614
vt 0.684561 0.045343
vt 0.699901 0.131419
vt 0.753602 0.177438
vt 0.766193 0.181368
vt 0.766193 0.040054
vt 0.915683 0.836738
vt 0.939219 0.747874
vt 0.888642 0.746625
vt 0.939219 0.837534
vt 0.492180 0.656802
vt 0.571872 0.624212
vt 0.570781 0.678978
vt 0.490163 0.662425
vt 0.492541 0.737755
vt 0.444099 0.743024
vt 0.549863 0.743024
vt 0.184965 0.684805
vt 0.192976 0.643929
vt 0.255102 0.636728
vt 0.225064 0.678910
vt 0.063443 0.693881
vt 0.122207 0.622304
vt 0.085141 0.694419
vt 0.171826 0.694419
vt 0.161354 0.619712
vt 0.802109 0.808680
vt 0.768115 0.764260
vt 0.816860 0.717822
vt 0.819432 0.815932
vt 0.731060 0.763125
vt 0.708518 0.815932
vt 0.885980 0.758111
vt 0.885980 0.631413
vt 0.858474 0.651489
vt 0.873529 0.761026
vt 0.668026 0.292638
vt 0.716990 0.294081
vt 0.723253 0.326031
vt 0.781278 0.328983
vt 0.667702 0.328983
vt 0.773496 0.282178
vt 0.904177 0.294024
vt 0.893966 0.272256
vt 0.965838 0.241674
vt 0.965838 0.300180
vt 0.970275 0.906841
vt 0.925344 0.966691
vt 0.970275 0.981548
vt 0.917036 0.970652
vt 0.931233 0.250675
vt 0.902839 0.187109
vt 0.931233 0.140864
vt 0.655280 0.682718
vt 0.655280 0.750225
vt 0.610914 0.707951
vt 0.946318 0.077858
vt 0.999556 0.022409
vt 0.999556 0.077609
vt 0.954686 0.022052
vt 0.392635 0.402790
vt 0.277113 0.402790
vt 0.364415 0.379887
vt 0.322696 0.333483
vt 0.255102 0.349653
vt 0.874205 0.999550
vt 0.890417 0.997711
vt 0.890417 0.955953
vt 0.839840 0.954545
vt 0.463620 0.485212
vt 0.428046 0.435026
vt 0.434333 0.504500
vt 0.462272 0.502987
vt 0.420231 0.368172
vt 0.422902 0.407728
vt 0.455585 0.370818
vt 0.459690 0.422142
vt 0.424954 0.319148
vt 0.456557 0.314824
vt 0.265934 0.276280
vt 0.265750 0.281565
vt 0.304829 0.333594
vt 0.315637 0.248875
vt 0.417350 0.261464
vt 0.414774 0.310815
vt 0.350729 0.260475
vt 0.463620 0.256761
vt 0.414250 0.402467
vt 0.405115 0.374908
vt 0.897516 0.854741
vt 0.964951 0.834834
vt 0.902384 0.881649
vt 0.919663 0.879003
vt 0.964951 0.904140
vt 0.855786 0.248875
vt 0.863270 0.259778
vt 0.865572 0.280378
vt 0.807897 0.280378
vt 0.242178 0.869937
vt 0.260426 0.864570
vt 0.222959 0.839334
vt 0.185004 0.869937
vt 0.831854 0.736724
vt 0.831854 0.856436
vt 0.820319 0.790140
vt 0.737799 0.684518
vt 0.735498 0.663916
vt 0.680124 0.684518
vt 0.728013 0.653015
vt 0.742236 0.276778
vt 0.743838 0.263276
vt 0.798137 0.276778
vt 0.791996 0.263568
vt 0.437357 0.061022
vt 0.540816 0.056267
vt 0.540638 0.053189
vt 0.435789 0.012151
vt 0.536284 0.163528
vt 0.448940 0.123055
vt 0.493967 0.239439
vt 0.463783 0.239536
vt 0.429015 0.122805
vt 0.436748 0.215404
vt 0.540816 0.299280
vt 0.462564 0.250206
vt 0.912600 0.353054
vt 0.912513 0.319384
vt 0.870009 0.353590
vt 0.912600 0.386547
vt 0.873742 0.280378
vt 0.895964 0.391089
vt 0.971162 0.360827
vt 0.992458 0.309181
vt 0.992458 0.391089
vt 0.981202 0.384980
vt 0.843149 0.407291
vt 0.815883 0.311554
vt 0.869122 0.392900
vt 0.869122 0.282178
vt 0.396185 0.391989
vt 0.389965 0.385552
vt 0.396185 0.333483
vt 0.338509 0.341937
vt 0.722715 0.902340
vt 0.684927 0.848335
vt 0.602928 0.902340
vt 0.215173 0.882294
vt 0.229359 0.908641
vt 0.338509 0.908641
vt 0.309550 0.854635
vt 0.298825 0.477563
vt 0.357371 0.478744
vt 0.349768 0.420598
vt 0.408257 0.489708
vt 0.408977 0.476830
vt 0.351423 0.410114
vt 0.305360 0.471440
vt 0.292367 0.409946
vt 0.268269 0.409091
vt 0.284464 0.448805
vt 0.236229 0.492364
vt 0.205361 0.477305
vt 0.178793 0.415820
vt 0.409494 0.413625
vt 0.405629 0.552366
vt 0.244415 0.601710
vt 0.298188 0.601710
vt 0.365967 0.600814
vt 0.002218 0.573554
vt 0.068767 0.573807
vt 0.068767 0.450495
vt 0.011483 0.451505
vt 0.767968 0.694101
vt 0.757508 0.688313
vt 0.759672 0.754520
vt 0.757272 0.658171
vt 0.767167 0.640414
vt 0.765053 0.761926
vt 0.662378 0.741972
vt 0.662539 0.761926
vt 0.989752 0.438156
vt 0.971898 0.437533
vt 0.999556 0.450495
vt 0.967613 0.450495
vt 0.991875 0.432493
vt 0.993942 0.436501
vt 0.346771 0.961835
vt 0.350950 0.959182
vt 0.334960 0.999550
vt 0.337818 0.973945
vt 0.363354 0.999550
vt 0.343074 0.959046
vt 0.452973 0.644915
vt 0.508873 0.644915
vt 0.482942 0.626013
vt 0.626886 0.866337
vt 0.655280 0.866337
vt 0.630072 0.841134
vt 0.927684 0.950045
vt 0.860272 0.896940
vt 0.833629 0.950045
vt 0.924006 0.904356
vt 0.851375 0.861836
vt 0.838066 0.852777
vt 0.851375 0.799730
vt 0.838584 0.855528
vt 0.160615 0.798830
vt 0.072316 0.883438
vt 0.079038 0.833050
vt 0.172582 0.883438
vt 0.358140 0.859501
vt 0.451198 0.909541
vt 0.440027 0.826733
vt 0.351819 0.909541
vt 0.902839 0.473275
vt 0.942768 0.393789
vt 0.942768 0.490999
vt 0.907551 0.482803
vt 0.841615 0.884338
vt 0.761443 0.885202
vt 0.745785 0.941044
vt 0.834340 0.941044
vt 0.933895 0.720522
vt 0.890520 0.682058
vt 0.933895 0.620612
vt 0.886868 0.631000
vt 0.525035 0.355216
vt 0.472493 0.426193
vt 0.511324 0.339632
vt 0.505500 0.283978
vt 0.523029 0.335105
vt 0.565661 0.426193
vt 0.475155 0.473897
vt 0.477517 0.439396
vt 0.480479 0.438794
vt 0.480479 0.473701
vt 0.127325 0.934838
vt 0.092724 0.924305
vt 0.096420 0.914738
vt 0.122086 0.904985
vt 0.188554 0.887039
vt 0.188554 0.942844
vt 0.893966 0.097225
vt 0.945430 0.042754
vt 0.945430 0.134563
vt 0.894423 0.083428
vt 0.983334 0.799730
vt 0.988909 0.880738
vt 0.973824 0.819871
vt 0.988909 0.800894
vt 0.748949 0.004950
vt 0.696815 0.016593
vt 0.765306 0.037354
vt 0.694321 0.037354
vt 0.345391 0.607516
vt 0.323613 0.605311
vt 0.289707 0.610711
vt 0.345608 0.610711
vt 0.570098 0.924842
vt 0.570098 0.875338
vt 0.465902 0.878103
vt 0.465395 0.881180
vt 0.501775 0.820432
vt 0.529414 0.820432
vt 0.522838 0.786229
vt 0.585182 0.794223
vt 0.948092 0.510712
vt 0.965838 0.434293
vt 0.965838 0.529703
vt 0.348836 0.917642
vt 0.308341 0.955446
vt 0.405945 0.955446
vt 0.890417 0.043654
vt 0.890417 0.172367
vt 0.854925 0.115580
vt 0.940994 0.606211
vt 0.911713 0.555498
vt 0.940994 0.492799
vt 0.661462 0.796271
vt 0.639406 0.805856
vt 0.702307 0.834834
vt 0.654945 0.820464
vt 0.648083 0.750225
vt 0.588731 0.834834
vt 0.433842 0.553801
vt 0.469831 0.599910
vt 0.433360 0.527903
vt 0.407145 0.566595
vt 0.370453 0.599910
vt 0.424381 0.966247
vt 0.375776 0.992349
vt 0.476043 0.992349
vt 0.219610 0.020252
vt 0.219610 0.070657
vt 0.127329 0.060040
vt 0.526619 0.938344
vt 0.474048 0.887039
vt 0.429015 0.938344
vt 0.518978 0.920949
vt 0.896628 0.619712
vt 0.929459 0.619712
vt 0.902431 0.544104
vt 0.673913 0.994149
vt 0.748447 0.994149
vt 0.687177 0.976148
vt 0.283496 0.259676
vt 0.244454 0.229480
vt 0.283496 0.178668
vt 0.936900 0.706287
vt 0.957853 0.655716
vt 0.936557 0.716201
vt 0.957853 0.763726
vt 0.970275 0.121962
vt 0.970275 0.213771
vt 0.942768 0.172212
usemtl baked
f 170/170 169/169 171/171
f 172/172 168/168 170/170
f 172/172 170/170 173/173
f 168/168 169/169 170/170
f 118/118 120/120 119/119
f 117/117 118/118 119/119
f 121/121 122/122 123/123
f 122/122 124/124 123/123
f 190/190 197/197 188/188
f 125/125 122/122 121/121
f 14/14 16/16 15/15
f 15/15 16/16 17/17
f 10/10 7/7 9/9
f 7/7 8/8 9/9
f 14/14 15/15 7/7
f 11/11 14/14 7/7
f 12/12 11/11 10/10
f 10/10 11/11 7/7
f 13/13 10/10 9/9
f 69/69 71/71 70/70
f 68/68 69/69 70/70
f 4/4 5/5 6/6
f 207/207 208/208 209/209
f 208/208 210/210 209/209
f 505/505 506/506 507/507
f 507/507 506/506 509/509
f 165/165 162/162 164/164
f 199/199 198/198 200/200
f 508/508 507/507 510/510
f 505/505 507/507 508/508
f 164/164 163/163 166/166
f 163/163 167/167 166/166
f 82/82 83/83 84/84
f 148/148 146/146 145/145
f 145/145 146/146 147/147
f 162/162 163/163 164/164
f 148/148 149/149 150/150
f 149/149 148/148 145/145
f 140/140 137/137 141/141
f 140/140 139/139 137/137
f 511/511 512/512 513/513
f 511/511 513/513 514/514
f 136/136 137/137 138/138
f 555/555 553/553 556/556
f 552/552 556/556 553/553
f 114/114 116/116 115/115
f 113/113 114/114 115/115
f 105/105 106/106 107/107
f 108/108 105/105 107/107
f 188/188 191/191 189/189
f 192/192 189/189 191/191
f 72/72 70/70 71/71
f 159/159 160/160 161/161
f 141/141 144/144 140/140
f 73/73 72/72 71/71
f 187/187 188/188 189/189
f 187/187 190/190 188/188
f 303/303 302/302 299/299
f 299/299 302/302 294/294
f 288/288 299/299 294/294
f 560/560 561/561 562/562
f 561/561 563/563 562/562
f 55/55 58/58 54/54
f 55/55 54/54 53/53
f 53/53 51/51 50/50
f 54/54 51/51 53/53
f 187/187 198/198 190/190
f 199/199 190/190 198/198
f 566/566 567/567 568/568
f 567/567 570/570 568/568
f 565/565 564/564 560/560
f 560/560 564/564 561/561
f 571/571 566/566 569/569
f 566/566 568/568 569/569
f 51/51 63/63 52/52
f 51/51 62/62 63/63
f 581/581 579/579 578/578
f 578/578 579/579 580/580
f 57/57 62/62 51/51
f 57/57 51/51 54/54
f 572/572 573/573 574/574
f 575/575 576/576 577/577
f 59/59 60/60 57/57
f 61/61 60/60 59/59
f 66/66 65/65 59/59
f 66/66 59/59 58/58
f 59/59 57/57 58/58
f 57/57 54/54 58/58
f 294/294 302/302 301/301
f 294/294 301/301 295/295
f 582/582 583/583 584/584
f 583/583 582/582 585/585
f 552/552 553/553 554/554
f 557/557 552/552 554/554
f 593/593 591/591 590/590
f 486/486 488/488 487/487
f 485/485 486/486 487/487
f 378/378 381/381 379/379
f 382/382 381/381 378/378
f 598/598 599/599 600/600
f 598/598 600/600 601/601
f 603/603 605/605 604/604
f 602/602 603/603 604/604
f 586/586 587/587 588/588
f 586/586 589/589 587/587
f 606/606 607/607 608/608
f 606/606 611/611 607/607
f 553/553 558/558 554/554
f 523/523 524/524 525/525
f 554/554 558/558 559/559
f 609/609 610/610 606/606
f 609/609 606/606 608/608
f 590/590 591/591 592/592
f 379/379 385/385 380/380
f 378/378 379/379 380/380
f 383/383 378/378 380/380
f 490/490 492/492 491/491
f 383/383 380/380 384/384
f 489/489 490/490 491/491
f 515/515 516/516 517/517
f 518/518 517/517 516/516
f 612/612 613/613 614/614
f 612/612 614/614 615/615
f 616/616 617/617 618/618
f 616/616 618/618 619/619
f 616/616 619/619 620/620
f 616/616 620/620 621/621
f 269/269 270/270 276/276
f 282/282 276/276 270/270
f 330/330 340/340 335/335
f 326/326 330/330 335/335
f 335/335 340/340 339/339
f 335/335 339/339 336/336
f 139/139 138/138 137/137
f 56/56 50/50 52/52
f 142/142 143/143 138/138
f 139/139 142/142 138/138
f 50/50 51/51 52/52
f 205/205 206/206 204/204
f 203/203 205/205 204/204
f 180/180 178/178 177/177
f 177/177 178/178 179/179
f 195/195 194/194 196/196
f 195/195 193/193 194/194
f 190/190 188/188 194/194
f 193/193 190/190 194/194
f 201/201 203/203 204/204
f 201/201 202/202 203/203
f 531/531 544/544 533/533
f 547/547 544/544 531/531
f 537/537 536/536 535/535
f 536/536 532/532 535/535
f 545/545 546/546 530/530
f 540/540 545/545 530/530
f 539/539 540/540 536/536
f 540/540 530/530 536/536
f 622/622 623/623 624/624
f 539/539 536/536 538/538
f 538/538 536/536 537/537
f 232/232 229/229 231/231
f 530/530 546/546 531/531
f 546/546 547/547 531/531
f 520/520 519/519 522/522
f 530/530 531/531 532/532
f 534/534 532/532 533/533
f 531/531 533/533 532/532
f 459/459 460/460 461/461
f 462/462 459/459 461/461
f 535/535 534/534 543/543
f 532/532 534/534 535/535
f 246/246 241/241 240/240
f 240/240 241/241 242/242
f 625/625 623/623 622/622
f 245/245 240/240 247/247
f 245/245 246/246 240/240
f 542/542 541/541 539/539
f 541/541 540/540 539/539
f 229/229 230/230 231/231
f 241/241 244/244 243/243
f 242/242 241/241 243/243
f 367/367 361/361 360/360
f 360/360 361/361 362/362
f 365/365 360/360 364/364
f 360/360 362/362 364/364
f 361/361 363/363 362/362
f 362/362 363/363 366/366
f 95/95 96/96 97/97
f 1/1 2/2 3/3
f 594/594 596/596 597/597
f 594/594 595/595 596/596
f 22/22 23/23 24/24
f 27/27 22/22 24/24
f 65/65 67/67 61/61
f 61/61 59/59 65/65
f 64/64 66/66 58/58
f 64/64 58/58 55/55
f 26/26 28/28 23/23
f 22/22 26/26 23/23
f 101/101 99/99 98/98
f 98/98 99/99 100/100
f 304/304 303/303 299/299
f 304/304 305/305 303/303
f 289/289 294/294 295/295
f 289/289 295/295 291/291
f 288/288 294/294 289/289
f 296/296 304/304 299/299
f 296/296 299/299 288/288
f 287/287 288/288 289/289
f 287/287 289/289 290/290
f 296/296 288/288 287/287
f 297/297 296/296 287/287
f 372/372 371/371 369/369
f 369/369 371/371 370/370
f 626/626 627/627 628/628
f 154/154 156/156 157/157
f 627/627 626/626 629/629
f 631/631 633/633 632/632
f 630/630 631/631 632/632
f 130/130 131/131 132/132
f 130/130 132/132 133/133
f 274/274 272/272 273/273
f 275/275 272/272 274/274
f 273/273 272/272 267/267
f 272/272 271/271 267/267
f 278/278 273/273 277/277
f 273/273 267/267 277/277
f 636/636 637/637 634/634
f 634/634 635/635 636/636
f 267/267 271/271 268/268
f 267/267 268/268 269/269
f 277/277 267/267 276/276
f 276/276 267/267 269/269
f 277/277 276/276 280/280
f 280/280 276/276 281/281
f 254/254 255/255 256/256
f 256/256 255/255 257/257
f 333/333 332/332 328/328
f 327/327 333/333 328/328
f 442/442 441/441 444/444
f 443/443 442/442 444/444
f 375/375 377/377 376/376
f 374/374 375/375 376/376
f 334/334 335/335 336/336
f 338/338 334/334 336/336
f 440/440 441/441 442/442
f 638/638 639/639 640/640
f 638/638 640/640 641/641
f 406/406 411/411 410/410
f 406/406 410/410 407/407
f 268/268 279/279 270/270
f 269/269 268/268 270/270
f 326/326 327/327 328/328
f 327/327 326/326 329/329
f 337/337 329/329 326/326
f 337/337 326/326 335/335
f 462/462 461/461 465/465
f 465/465 461/461 464/464
f 334/334 337/337 335/335
f 452/452 449/449 451/451
f 449/449 450/450 451/451
f 456/456 455/455 454/454
f 453/453 454/454 455/455
f 454/454 453/453 467/467
f 468/468 467/467 453/453
f 463/463 465/465 464/464
f 463/463 464/464 457/457
f 642/642 643/643 644/644
f 644/644 643/643 645/645
f 457/457 464/464 453/453
f 453/453 464/464 468/468
f 500/500 503/503 499/499
f 500/500 504/504 503/503
f 498/498 500/500 499/499
f 497/497 498/498 499/499
f 501/501 500/500 498/498
f 501/501 502/502 500/500
f 493/493 498/498 494/494
f 494/494 498/498 497/497
f 248/248 251/251 249/249
f 251/251 253/253 249/249
f 426/426 427/427 428/428
f 428/428 427/427 429/429
f 368/368 369/369 370/370
f 373/373 369/369 368/368
f 248/248 249/249 250/250
f 250/250 249/249 252/252
f 181/181 179/179 183/183
f 151/151 152/152 153/153
f 78/78 77/77 80/80
f 183/183 185/185 184/184
f 183/183 186/186 185/185
f 77/77 78/78 79/79
f 74/74 75/75 76/76
f 29/29 30/30 31/31
f 78/78 80/80 81/81
f 233/233 234/234 235/235
f 427/427 426/426 429/429
f 548/548 549/549 550/550
f 548/548 550/550 551/551
f 386/386 389/389 387/387
f 529/529 526/526 528/528
f 526/526 527/527 528/528
f 260/260 261/261 262/262
f 262/262 261/261 265/265
f 313/313 314/314 315/315
f 430/430 431/431 432/432
f 236/236 238/238 239/239
f 236/236 237/237 238/238
f 258/258 259/259 255/255
f 254/254 258/258 255/255
f 266/266 262/262 265/265
f 477/477 474/474 476/476
f 474/474 475/475 476/476
f 386/386 387/387 388/388
f 262/262 263/263 260/260
f 264/264 263/263 262/262
f 519/519 520/520 521/521
f 521/521 520/520 522/522
f 415/415 412/412 414/414
f 412/412 413/413 414/414
f 182/182 181/181 183/183
f 184/184 182/182 183/183
f 182/182 177/177 179/179
f 181/181 182/182 179/179
f 154/154 155/155 156/156
f 30/30 32/32 31/31
f 89/89 92/92 90/90
f 89/89 90/90 91/91
f 667/667 664/664 666/666
f 668/668 667/667 666/666
f 660/660 659/659 661/661
f 661/661 659/659 663/663
f 664/664 667/667 668/668
f 646/646 647/647 648/648
f 664/664 665/665 666/666
f 652/652 653/653 654/654
f 669/669 670/670 671/671
f 672/672 673/673 674/674
f 46/46 47/47 48/48
f 110/110 109/109 112/112
f 109/109 110/110 111/111
f 649/649 650/650 651/651
f 660/660 662/662 658/658
f 662/662 659/659 658/658
f 658/658 659/659 660/660
f 49/49 47/47 46/46
f 663/663 660/660 661/661
f 655/655 656/656 657/657
f 330/330 326/326 328/328
f 330/330 328/328 331/331
f 328/328 332/332 331/331
f 310/310 308/308 307/307
f 463/463 457/457 458/458
f 466/466 463/463 458/458
f 675/675 676/676 677/677
f 678/678 676/676 675/675
f 409/409 406/406 408/408
f 421/421 419/419 417/417
f 417/417 419/419 418/418
f 679/679 680/680 681/681
f 682/682 683/683 684/684
f 685/685 686/686 687/687
f 455/455 457/457 453/453
f 458/458 457/457 455/455
f 481/481 478/478 480/480
f 478/478 479/479 480/480
f 688/688 689/689 690/690
f 690/690 689/689 691/691
f 300/300 290/290 293/293
f 290/290 292/292 293/293
f 406/406 407/407 408/408
f 297/297 287/287 298/298
f 306/306 297/297 298/298
f 436/436 437/437 438/438
f 439/439 437/437 436/436
f 283/283 284/284 285/285
f 286/286 283/283 285/285
f 290/290 289/289 291/291
f 290/290 291/291 292/292
f 211/211 212/212 213/213
f 482/482 483/483 484/484
f 19/19 18/18 21/21
f 18/18 19/19 20/20
f 157/157 156/156 158/158
f 138/138 134/134 136/136
f 87/87 86/86 88/88
f 85/85 86/86 87/87
f 36/36 37/37 38/38
f 36/36 38/38 39/39
f 174/174 175/175 176/176
f 134/134 135/135 136/136
f 136/136 135/135 137/137
f 102/102 103/103 104/104
f 24/24 23/23 25/25
f 692/692 693/693 694/694
f 126/126 127/127 128/128
f 43/43 41/41 40/40
f 33/33 34/34 35/35
f 126/126 129/129 127/127
f 93/93 91/91 94/94
f 93/93 89/89 91/91
f 40/40 41/41 42/42
f 41/41 45/45 44/44
f 44/44 42/42 41/41
f 324/324 323/323 317/317
f 345/345 350/350 349/349
f 343/343 345/345 349/349
f 343/343 344/344 345/345
f 346/346 344/344 343/343
f 346/346 343/343 347/347
f 348/348 346/346 347/347
f 347/347 343/343 349/349
f 217/217 218/218 219/219
f 320/320 325/325 321/321
f 319/319 320/320 321/321
f 454/454 450/450 449/449
f 472/472 470/470 473/473
f 422/422 423/423 424/424
f 422/422 424/424 425/425
f 433/433 434/434 435/435
f 398/398 397/397 405/405
f 397/397 398/398 399/399
f 397/397 399/399 400/400
f 445/445 447/447 448/448
f 456/456 454/454 449/449
f 445/445 446/446 447/447
f 397/397 404/404 405/405
f 496/496 493/493 495/495
f 493/493 494/494 495/495
f 226/226 227/227 228/228
f 223/223 224/224 225/225
f 357/357 354/354 353/353
f 220/220 221/221 222/222
f 353/353 354/354 355/355
f 353/353 355/355 358/358
f 316/316 318/318 319/319
f 318/318 320/320 319/319
f 416/416 418/418 420/420
f 339/339 340/340 341/341
f 340/340 342/342 341/341
f 405/405 403/403 402/402
f 404/404 403/403 405/405
f 393/393 392/392 394/394
f 416/416 417/417 418/418
f 393/393 394/394 395/395
f 401/401 402/402 403/403
f 470/470 472/472 471/471
f 469/469 470/470 471/471
f 392/392 396/396 394/394
f 390/390 391/391 392/392
f 392/392 393/393 390/390
f 308/308 311/311 309/309
f 307/307 308/308 309/309
f 307/307 309/309 312/312
f 214/214 215/215 216/216
f 323/323 322/322 317/317
f 345/345 352/352 351/351
f 345/345 351/351 350/350
f 356/356 354/354 359/359
f 356/356 355/355 354/354
f 322/322 318/318 317/317
f 316/316 317/317 318/318
