v -0.784361 0.037819 -0.142981 0.5426 0.5911 0.6205
v -0.795360 0.014893 0.058169 0.3942 0.5260 0.6215
v -1.054578 0.015099 0.086286 0.5000 0.5000 0.5000
v -0.898436 0.396024 -0.194051 0.0552 0.2913 0.4354
v -0.828698 0.439728 -0.051170 0.0058 0.1998 0.3324
v -0.825243 0.422843 -0.043693 0.2216 0.4577 0.5570
v -0.896119 0.460708 -0.189784 0.6550 0.3486 0.3280
v -0.838417 0.448303 -0.071043 0.5441 0.2694 0.2604
v -0.827520 0.656912 -0.045627 0.2103 0.3293 0.3801
v -0.795725 0.719978 -0.038770 0.3361 0.2258 0.0910
v -0.784461 0.894380 -0.007761 0.0102 0.0403 0.0928
v -0.459464 0.211327 -0.078857 0.1830 0.2974 0.3980
v -0.535686 0.218034 0.065406 0.3591 0.4772 0.6089
v -0.448027 0.004127 0.111128 0.0169 0.1178 0.2740
v -0.453510 0.427037 -0.248408 0.0098 0.2551 0.4151
v -0.465975 0.386791 -0.053549 0.0032 0.1662 0.2930
v -0.724405 0.320080 0.067380 0.1083 0.1858 0.2984
v -0.672620 0.434426 0.213382 0.1788 0.2358 0.3949
v -0.505954 0.443374 -0.246762 0.7669 0.3448 0.2504
v -0.748406 0.637692 -0.049713 0.8037 0.3876 0.2560
v -0.520889 0.636079 -0.005688 0.3509 0.2786 0.3035
v -0.708405 0.445509 0.204172 0.0584 0.0540 0.0848
v -0.695537 0.454821 0.218957 0.0131 0.0170 0.0314
v -0.447668 0.673677 -0.049096 0.5449 0.3342 0.2900
v -0.755132 0.889366 -0.025910 0.9226 0.5927 0.3628
v -0.117562 0.200652 -0.093488 0.0021 0.1353 0.2567
v -0.287972 0.056974 0.066858 0.1355 0.2389 0.3288
v -0.319366 0.024204 0.195753 0.3843 0.4728 0.5168
v -0.164963 0.015567 0.289386 0.6896 0.6733 0.6515
v -0.167065 0.381397 -0.187483 0.0695 0.1590 0.2700
v -0.122657 0.379160 -0.101863 0.0012 0.1351 0.2583
v -0.118655 0.386323 -0.033516 0.0005 0.1848 0.3257
v -0.441220 0.411516 0.200463 0.0450 0.2914 0.4464
v -0.158595 0.443513 -0.266619 0.7994 0.2920 0.1876
v -0.420827 0.545442 -0.050176 0.6584 0.3501 0.3254
v -0.428796 0.548160 -0.049642 0.2516 0.2686 0.3118
v -0.384327 0.446966 0.202560 0.2861 0.2985 0.3095
v -0.128876 0.675070 -0.069351 0.4833 0.3908 0.4172
v -0.111883 0.771671 0.008878 0.5658 0.3764 0.3390
v -0.115226 0.900000 -0.050715 0.5650 0.4698 0.3875
v -0.115735 0.889801 -0.008557 0.8377 0.5659 0.3719
v 0.212455 0.194269 -0.087713 0.0015 0.1095 0.2259
v -0.060663 0.034768 0.053544 0.1690 0.2771 0.3586
v 0.103059 0.019923 0.215801 0.3411 0.3822 0.4017
v 0.034685 0.019730 0.219399 0.5453 0.5300 0.5088
v 0.224597 0.394066 -0.283889 0.1665 0.1471 0.2367
v -0.029273 0.383469 -0.050724 0.0014 0.1473 0.2767
v 0.031267 0.385236 -0.035560 0.0019 0.1616 0.2852
v 0.023790 0.398373 0.177932 0.0424 0.3275 0.4730
v -0.066417 0.467829 -0.185570 0.7420 0.3114 0.2335
v 0.077577 0.573753 -0.067016 0.6722 0.3546 0.3193
v -0.087617 0.524297 0.033116 0.3355 0.4241 0.4841
v 0.139990 0.483563 0.084578 0.4080 0.5509 0.6012
v -0.037707 0.671789 -0.073926 0.3667 0.4419 0.5065
v -0.076730 0.681172 0.037530 0.6499 0.4134 0.3544
v 0.223503 0.898734 -0.067774 0.7370 0.5776 0.4430
v -0.110590 0.889068 -0.000561 0.9209 0.5505 0.3495
v 0.559105 0.017565 -0.133759 0.0025 0.0883 0.1978
v 0.233301 0.037429 0.084375 0.0605 0.1240 0.1971
v 0.248248 0.017783 0.161630 0.3708 0.2758 0.3110
v 0.265810 0.011674 0.236069 0.2381 0.1048 0.1035
v 0.503274 0.412057 -0.303902 0.0065 0.2587 0.4355
v 0.245958 0.386521 -0.163562 0.0008 0.1638 0.2995
v 0.228351 0.382683 -0.009531 0.0038 0.1722 0.2982
v 0.230404 0.377211 0.144433 0.2041 0.2518 0.3354
v 0.558237 0.443469 -0.310614 0.8529 0.3867 0.2671
v 0.485603 0.665125 -0.088007 0.4171 0.3671 0.4049
v 0.313011 0.612064 0.002093 0.2453 0.3581 0.4184
v 0.448342 0.471331 0.085058 0.3551 0.2798 0.2738
v 0.337577 0.803272 -0.082873 0.5317 0.3242 0.3292
v 0.229271 0.676827 -0.002322 0.7008 0.2853 0.2389
v 0.555369 0.889153 -0.094258 0.9054 0.2658 0.1776
v 0.243224 0.892207 -0.048840 0.9696 0.3682 0.1948
v 0.631238 0.000000 -0.160700 0.0005 0.1404 0.2651
v 0.719494 0.018210 0.056683 0.0098 0.0699 0.1523
v 0.699795 0.019189 0.086783 0.1903 0.1937 0.2632
v 0.611924 0.012981 0.241239 0.3368 0.1966 0.2594
v 0.561090 0.400753 -0.306127 0.0137 0.2681 0.4445
v 0.744224 0.326629 -0.050710 0.0008 0.2048 0.3573
v 0.717362 0.372800 -0.015226 0.0084 0.1811 0.3176
v 0.838409 0.389497 0.086013 0.2721 0.2207 0.2856
v 0.622012 0.462539 -0.304365 0.1111 0.2868 0.4383
v 0.570922 0.560282 -0.089170 0.2038 0.3096 0.4145
v 0.566154 0.596896 -0.011444 0.1171 0.2064 0.2914
v 0.564337 0.455310 0.153077 0.2060 0.1107 0.1304
v 0.562398 0.722955 -0.092438 0.4852 0.2543 0.2877
v 0.628846 0.676281 -0.027224 0.4663 0.2696 0.2944
v 0.632083 0.889592 -0.098806 0.1528 0.2104 0.3369
v 0.897722 0.389829 0.082329 0.0264 0.2661 0.4498
v 0.901483 0.389779 0.084922 0.2734 0.5917 0.7023
v 0.904874 0.448926 -0.025300 0.0769 0.1711 0.2840
v 0.945422 0.449371 0.110310 0.1544 0.1051 0.1327
f 35 36 24
f 67 51 54
f 67 54 70
f 86 72 88
f 86 70 72
f 35 38 54
f 35 54 51
f 68 84 71
f 71 84 87
f 55 52 68
f 55 68 71
f 86 67 70
f 71 55 70
f 54 70 55
f 72 70 88
f 70 86 88
f 52 71 55
f 71 52 68
f 71 68 70
f 52 51 67
f 52 67 68
f 51 52 55
f 51 55 54
f 86 67 83
f 28 44 29
f 45 29 44
f 44 43 60
f 60 43 59
f 44 45 60
f 60 45 61
f 45 44 61
f 44 60 61
f 59 43 44
f 59 44 60
f 28 27 44
f 27 43 44
f 43 27 28
f 43 28 44
f 28 29 45
f 28 45 44
f 18 17 32
f 32 33 18
f 23 18 22
f 69 52 68
f 68 52 53
f 68 53 69
f 53 52 69
f 70 54 56
f 70 56 72
f 39 24 25
f 24 38 39
f 39 25 41
f 38 39 41
f 40 38 41
f 35 24 38
f 56 38 40
f 54 38 56
f 56 40 41
f 56 41 57
f 56 57 55
f 41 39 57
f 57 39 55
f 57 55 73
f 73 55 71
f 72 57 73
f 56 57 72
f 24 10 11
f 24 11 25
f 71 87 86
f 71 86 70
f 73 71 72
f 72 71 70
f 78 66 82
f 82 66 83
f 66 67 83
f 66 50 51
f 66 51 67
f 17 16 32
f 16 31 32
f 31 30 47
f 30 46 47
f 21 36 35
f 39 35 36
f 39 38 35
f 36 21 24
f 24 36 39
f 39 36 38
f 38 36 35
f 10 21 24
f 21 39 24
f 21 36 39
f 10 9 21
f 47 46 62
f 47 62 63
f 62 78 79
f 63 62 79
f 47 64 48
f 47 63 64
f 78 62 66
f 46 50 66
f 62 46 66
f 30 34 46
f 46 34 50
f 30 19 34
f 4 7 19
f 15 4 19
f 4 5 8
f 7 4 8
f 20 19 8
f 19 7 8
f 20 8 21
f 21 8 9
f 24 9 10
f 21 9 24
f 34 35 51
f 50 34 51
f 5 4 15
f 5 15 16
f 9 6 21
f 6 17 21
f 21 17 18
f 21 18 22
f 30 15 19
f 34 19 20
f 35 34 20
f 16 15 30
f 16 30 31
f 8 5 6
f 8 6 9
f 59 64 75
f 64 80 75
f 59 48 64
f 59 43 48
f 70 68 67
f 83 84 87
f 86 83 87
f 79 78 82
f 79 82 83
f 87 84 86
f 86 84 83
f 83 67 70
f 83 70 86
f 35 20 21
f 47 42 63
f 74 63 79
f 74 58 63
f 63 58 79
f 58 74 79
f 42 58 63
f 31 47 48
f 32 31 48
f 48 64 49
f 32 48 33
f 33 48 49
f 22 18 33
f 22 33 37
f 5 6 17
f 16 5 17
f 12 26 31
f 6 5 16
f 6 16 17
f 26 12 16
f 26 16 31
f 26 42 47
f 31 26 47
f 42 26 31
f 47 42 31
f 81 80 89
f 81 89 90
f 83 68 84
f 83 67 68
f 65 64 81
f 80 64 79
f 63 79 64
f 64 80 81
f 49 64 65
f 85 90 92
f 85 81 90
f 89 91 92
f 90 89 92
f 80 79 89
f 85 69 81
f 65 81 69
f 49 65 69
f 53 49 69
f 89 84 91
f 91 83 84
f 84 79 83
f 89 80 84
f 79 84 80
f 85 68 84
f 68 69 84
f 84 69 85
f 91 84 92
f 84 85 92
f 61 60 77
f 60 76 77
f 60 61 76
f 76 61 77
f 16 12 17
f 17 12 13
f 17 27 32
f 13 27 17
f 27 43 32
f 32 43 48
f 31 16 17
f 31 17 32
f 16 12 31
f 18 14 17
f 14 13 17
f 13 14 18
f 17 13 18
f 22 21 37
f 36 22 37
f 36 21 37
f 36 21 22
f 37 33 53
f 33 49 53
f 39 36 52
f 55 39 52
f 52 36 37
f 52 37 53
f 1 13 2
f 1 12 13
f 12 1 2
f 12 2 13
