mtllib P-23_tex.mtl
v 0.852907 0.654880 0.296505
v 1.100052 0.738132 0.096381
v 0.663188 0.553101 0.316825
v 0.633419 1.634313 0.414294
v 0.618554 1.460310 0.414317
v 0.799128 1.177502 0.315888
v 0.273124 1.056905 -0.260852
v 0.411750 1.175254 -0.219116
v 0.539842 1.387712 -0.266820
v -0.053031 0.715291 0.285972
v 0.157986 0.853863 0.087142
v 0.174501 1.046958 0.102553
v -0.257549 0.513757 0.356930
v -0.511249 0.811459 0.340815
v -0.052155 0.715347 0.333965
v -0.063004 0.169859 0.537939
v -0.257549 0.513757 0.356930
v -0.144724 0.539395 0.585505
v -0.185072 0.174861 0.309970
v -1.157469 0.000000 -0.384226
v -1.013656 0.239665 -0.379940
v -0.981148 0.305329 -0.183536
v -1.013656 0.239665 -0.379940
v -0.845727 0.325386 -0.385725
v -0.757579 0.289805 -0.147041
v 0.149392 0.837207 0.315111
v 0.177061 0.498492 0.536353
v 0.135853 0.554310 0.541672
v 0.582155 0.736542 0.539298
v 0.397301 0.840494 0.507007
v 0.408069 0.556445 0.541403
v 1.076769 0.737734 -0.043126
v 1.179246 0.852988 -0.213033
v 1.181522 0.855122 0.037435
v 1.076333 0.737937 -0.149933
v 1.179246 0.852988 -0.213033
v 1.076333 0.737937 -0.149933
v 1.181522 0.855122 0.037435
v 1.076769 0.737734 -0.043126
v 1.084203 0.360539 -0.384604
v 0.654634 0.531967 -0.316199
v 1.049661 0.457729 -0.270524
v 0.132246 0.546182 -0.539180
v 0.149283 0.841007 -0.315661
v 0.157959 0.858246 -0.149826
v -0.417680 0.421615 0.034007
v -0.317785 0.692090 -0.369654
v -0.419362 0.568291 -0.136873
v -0.399326 1.456756 -0.152821
v -0.328377 0.860102 -0.008631
v -0.421177 1.187839 -0.136995
v -0.704394 0.241134 0.029721
v -0.568115 0.039575 -0.225246
v -0.595630 0.201686 -0.137462
v 0.802626 0.852988 0.539452
v 0.884524 0.831146 0.538069
v 1.113139 0.726176 0.512853
v -0.238724 1.064002 -0.432138
v -0.205761 1.169562 -0.377284
v -0.195253 0.982546 -0.208158
v -0.266803 0.635905 -0.488568
v -0.184388 0.596917 -0.373833
v -0.053185 0.813064 0.065502
v -0.062732 0.863891 0.060788
v -0.196589 1.168534 -0.372169
v -0.049630 1.460406 0.019757
v -0.063403 0.863343 0.081518
v 0.024007 1.476368 0.119135
v -0.334629 1.114253 -0.461489
v -0.385433 0.664645 -0.582841
v -0.293964 1.168513 -0.406079
v -0.399326 1.456756 -0.152821
v 1.204435 0.235317 0.113407
v 1.181522 0.855122 0.037435
v 1.175254 0.853507 0.260745
v 1.169252 1.153387 0.087142
v 1.184237 0.494757 0.311684
v 1.169537 1.154109 -0.055780
v 1.179246 0.852988 -0.213033
v 1.210729 0.364438 -0.150471
v 1.212438 0.375540 0.065716
v 1.169170 0.765765 0.309855
v 1.143225 1.221730 0.051925
v 1.159226 0.180278 -0.179162
v 1.165686 0.183199 0.073215
v 1.166316 0.183886 0.098906
v 1.076769 0.737734 -0.043126
v 1.100052 0.738132 0.096381
v -0.195578 0.981646 0.334448
v -0.063403 0.863343 0.081518
v -0.231247 1.168758 0.448997
v -0.105458 1.420347 0.081889
v -0.052155 0.715347 0.333965
v -0.053031 0.715291 0.285972
v -0.306159 1.249018 0.431669
v 0.663188 0.553101 0.316825
v 1.100052 0.738132 0.096381
v 1.113139 0.726176 0.512853
v -0.257549 0.513757 0.356930
v -0.185072 0.174861 0.309970
v -0.144724 0.539395 0.585505
v -0.063004 0.169859 0.537939
v 0.660649 0.546474 -0.480213
v 0.662137 0.550469 -0.313374
v 1.076333 0.737937 -0.149933
v 1.079449 0.829975 -0.515923
v 0.654634 0.531967 -0.316199
v -0.407327 0.738153 0.152276
v -0.607368 0.833355 0.252460
v -0.419341 0.269037 0.269689
v -0.603950 1.150640 0.214796
v -0.405237 0.966723 0.150547
v -0.402863 1.233032 0.148593
v -0.603743 1.179658 0.215696
v -0.704144 0.238797 0.141991
v -0.656082 0.237281 0.542185
v -0.407023 0.280506 0.557309
v -0.283294 0.678661 0.579826
v -0.144724 0.539395 0.585505
v -0.516167 0.696038 0.589360
v -0.480002 0.053570 0.603874
v -0.063004 0.169859 0.537939
v 0.156621 0.528064 0.538964
v -0.646513 0.178300 0.540250
v -0.419362 0.568291 -0.136873
v -0.407327 0.738153 0.152276
v -0.328377 0.860102 -0.008631
v -0.317785 0.692090 -0.369654
v -0.339599 0.265114 -0.356800
v -0.419341 0.269037 0.269689
v -0.417680 0.421615 0.034007
v -0.365431 0.175583 -0.086565
v -0.405237 0.966723 0.150547
v -0.421177 1.187839 -0.136995
v -0.402863 1.233032 0.148593
v -0.290009 0.199058 -0.354859
v 1.113139 0.726176 0.512853
v 1.100052 0.738132 0.096381
v 1.044413 0.387425 0.258314
v -0.287385 0.505276 0.356902
v -0.331217 0.175351 0.337609
v -0.730517 0.345726 0.410671
v -0.744562 0.181965 0.390126
v -0.515172 0.695512 0.384758
v -0.511249 0.811459 0.340815
v 0.669722 0.064174 0.431439
v 0.946255 0.227982 0.431818
v 1.095131 0.513821 0.327775
v 0.764092 0.480695 0.372221
v 0.583765 1.471170 0.024257
v 0.877556 1.177495 0.025462
v 0.575783 1.431339 0.086033
v 0.867117 1.177605 0.165882
v 0.539842 1.387712 -0.266820
v 0.794210 1.177452 -0.150659
v 0.652946 1.522531 0.219500
v -0.184388 0.596917 -0.373833
v 0.149283 0.841007 -0.315661
v 0.132246 0.546182 -0.539180
v -0.266803 0.635905 -0.488568
v 0.174501 1.046958 0.102553
v 0.158223 0.863212 0.015901
v -0.062732 0.863891 0.060788
v -0.053185 0.813064 0.065502
v 0.157935 0.849189 -0.008418
v 0.662137 0.550469 -0.313374
v 0.654634 0.531967 -0.316199
v 1.049661 0.457729 -0.270524
v 1.076333 0.737937 -0.149933
v 0.815742 0.365021 -0.430524
v 1.084203 0.360539 -0.384604
v 0.644049 0.457320 0.296411
v 0.813498 0.263339 0.297971
v 0.852907 0.654880 0.296505
v 0.433167 0.177447 0.219124
v 0.663805 0.180666 0.278258
v 0.663188 0.553101 0.316825
v 1.100052 0.738132 0.096381
v 1.044413 0.387425 0.258314
v 0.669722 0.064174 0.431439
v -0.281702 0.215418 -0.381982
v -0.279621 0.234257 -0.387491
v -0.047783 0.317396 -0.596126
v -0.266803 0.635905 -0.488568
v -0.040793 0.228559 -0.596001
v 0.132246 0.546182 -0.539180
v 0.415788 0.610410 -0.544640
v 0.150023 0.944120 -0.493013
v 0.279365 1.037051 -0.503337
v 0.629155 1.026550 -0.530262
v 0.839243 0.213693 -0.399652
v 0.815742 0.365021 -0.430524
v 1.084203 0.360539 -0.384604
v 0.911472 0.234183 -0.391081
v 0.637738 0.122931 -0.451073
v 0.194516 0.405785 -0.527450
v 0.643942 0.504373 -0.465970
v 0.191817 0.232952 -0.513948
v 0.486427 0.619598 -0.545321
v 0.660649 0.546474 -0.480213
v 0.652457 1.039051 -0.525963
v 1.077804 0.902075 -0.517146
v 1.079449 0.829975 -0.515923
v -0.052155 0.715347 0.333965
v -0.283294 0.678661 0.579826
v -0.207118 0.623497 0.545430
v -0.144724 0.539395 0.585505
v -0.511249 0.811459 0.340815
v 0.849219 1.195011 -0.414594
v 1.111310 1.234188 -0.152291
v 0.929970 1.177644 -0.377582
v 1.141335 1.217212 -0.152216
v 1.143225 1.221730 0.051925
v 1.128725 1.171885 -0.380323
v 0.652457 1.039051 -0.525963
v 0.445333 1.128226 -0.146866
v 0.692159 1.161771 -0.364941
v 0.629155 1.026550 -0.530262
v 0.686468 1.147727 -0.013987
v 0.510094 1.124579 0.106685
v 0.688558 1.153824 0.099997
v 0.867117 1.177605 0.165882
v 0.877556 1.177495 0.025462
v 0.416224 1.122324 -0.039912
v 0.794210 1.177452 -0.150659
v 0.409120 1.122089 0.012928
v 0.412037 1.123633 0.097007
v 1.027874 1.226333 0.047503
v 1.025175 1.224690 0.128359
v 1.127471 1.217013 0.298732
v 0.273124 1.056905 -0.260852
v 0.279365 1.037051 -0.503337
v 0.799128 1.177502 0.315888
v 1.113464 1.217017 0.363864
v 0.158223 0.863212 0.015901
v 0.157959 0.858246 -0.149826
v 0.150023 0.944120 -0.493013
v 0.174501 1.046958 0.102553
v 0.618554 1.460310 0.414317
v 0.649159 0.986811 0.527382
v 0.799128 1.177502 0.315888
v -0.850203 0.231782 -0.386795
v -0.520048 0.225937 -0.383748
v -0.748610 0.166184 -0.334993
v -0.568115 0.039575 -0.225246
v -0.556500 0.481168 -0.383886
v -0.845727 0.325386 -0.385725
v 0.149392 0.837207 0.315111
v -0.053031 0.715291 0.285972
v -0.052155 0.715347 0.333965
v 0.157986 0.853863 0.087142
v 0.177061 0.498492 0.536353
v -0.257549 0.513757 0.356930
v 0.539842 1.387712 -0.266820
v 0.445333 1.128226 -0.146866
v 0.416224 1.122324 -0.039912
v 0.583765 1.471170 0.024257
v -0.049630 1.460406 0.019757
v -0.399326 1.456756 -0.152821
v -0.421177 1.187839 -0.136995
v -0.714995 0.295785 -0.147030
v -0.290009 0.199058 -0.354859
v -0.339599 0.265114 -0.356800
v -0.568115 0.039575 -0.225246
v -0.317785 0.692090 -0.369654
v -0.528735 0.805686 -0.188203
v 0.802626 0.852988 0.539452
v 0.663188 0.553101 0.316825
v 0.884524 0.831146 0.538069
v 1.113139 0.726176 0.512853
v -0.568115 0.039575 -0.225246
v -0.520048 0.225937 -0.383748
v -0.556500 0.481168 -0.383886
v -0.714995 0.295785 -0.147030
v 0.669629 1.674401 -0.461609
v 0.648329 1.464878 -0.481321
v 0.648249 1.766127 -0.474200
v 0.849219 1.195011 -0.414594
v 0.629155 1.026550 -0.530262
v 0.679772 1.885681 -0.393311
v 0.646580 1.989730 -0.376504
v -0.287385 0.505276 0.356902
v -0.331217 0.175351 0.337609
v -0.480002 0.053570 0.603874
v -0.407023 0.280506 0.557309
v 0.644049 0.457320 0.296411
v 0.764092 0.480695 0.372221
v 0.439419 0.484747 0.535625
v 0.649595 0.542689 0.540845
v 0.802626 0.852988 0.539452
v 0.177061 0.498492 0.536353
v -0.043849 0.170040 0.411419
v 0.203759 0.174565 0.349838
v 0.367585 0.491250 0.535789
v 0.422237 0.177368 0.393102
v 0.156621 0.528064 0.538964
v -0.704394 0.241134 0.029721
v -0.714995 0.295785 -0.147030
v -0.528735 0.805686 -0.188203
v -0.530375 1.143537 -0.188364
v -0.317785 0.692090 -0.369654
v -0.528735 0.805686 -0.188203
v -0.072657 0.182694 -0.362799
v -0.339599 0.265114 -0.356800
v -0.144780 0.538125 -0.366227
v -0.290009 0.199058 -0.354859
v -0.184388 0.596917 -0.373833
v -0.714995 0.295785 -0.147030
v 0.840853 0.212045 -0.372654
v 0.537665 0.196720 -0.367085
v 0.645707 0.509421 -0.369120
v 0.445333 1.128226 -0.146866
v 0.539842 1.387712 -0.266820
v 0.583765 1.471170 0.024257
v 0.416224 1.122324 -0.039912
v 0.273124 1.056905 -0.260852
v -0.530375 1.143537 -0.188364
v -0.623049 1.093474 -0.464056
v -0.533108 1.443217 -0.188265
v -0.515172 0.695512 0.384758
v -0.730517 0.345726 0.410671
v -0.516167 0.696038 0.589360
v -0.656082 0.237281 0.542185
v -0.744562 0.181965 0.390126
v -0.646513 0.178300 0.540250
v -0.556500 0.481168 -0.383886
v -0.845727 0.325386 -0.385725
v -0.714995 0.295785 -0.147030
v -0.757579 0.289805 -0.147041
v 0.643942 0.504373 -0.465970
v 0.637738 0.122931 -0.451073
v 0.840853 0.212045 -0.372654
v -1.029793 0.279556 0.426924
v -1.109509 0.279916 0.142218
v -0.781464 0.336865 0.336738
v -0.911498 0.316265 0.088587
v -0.399326 1.456756 -0.152821
v -0.533108 1.443217 -0.188265
v -0.397503 1.618120 -0.151329
v -0.530375 1.143537 -0.188364
v -0.405139 0.912011 -0.151112
v -0.526987 1.703272 -0.188409
v -0.523053 1.831069 -0.188429
v -0.395722 1.808441 -0.152860
v 0.813498 0.263339 0.297971
v 0.764092 0.480695 0.372221
v 1.095131 0.513821 0.327775
v 1.044413 0.387425 0.258314
v 0.669722 0.064174 0.431439
v -0.331217 0.175351 0.337609
v -0.287385 0.505276 0.356902
v -0.407023 0.280506 0.557309
v -0.480002 0.053570 0.603874
v -0.585575 1.485880 -0.137402
v -0.533108 1.443217 -0.188265
v -0.526987 1.703272 -0.188409
v -0.577037 1.832780 -0.137371
v -0.523053 1.831069 -0.188429
v -0.516492 2.122422 -0.188325
v -0.575956 2.133233 -0.137324
v -0.578580 1.305961 -0.137313
v -0.576832 1.158915 -0.137251
v -0.530375 1.143537 -0.188364
v -0.678537 0.735898 -0.111690
v -0.528735 0.805686 -0.188203
v -0.399326 1.456756 -0.152821
v -0.395722 1.808441 -0.152860
v -0.397503 1.618120 -0.151329
v -0.911498 0.316265 0.088587
v -1.029793 0.279556 0.426924
v -0.781464 0.336865 0.336738
v -1.109509 0.279916 0.142218
v -0.144724 0.539395 0.585505
v -0.257549 0.513757 0.356930
v 0.156621 0.528064 0.538964
v 0.946255 0.227982 0.431818
v 0.899253 0.183163 0.222551
v 1.095131 0.513821 0.327775
v -0.063403 0.863343 0.081518
v -0.053031 0.715291 0.285972
v 0.174501 1.046958 0.102553
v -0.062732 0.863891 0.060788
v -0.039912 0.169894 0.587646
v -0.043849 0.170040 0.411419
v 0.156621 0.528064 0.538964
v -0.646513 0.178300 0.540250
v -0.331217 0.175351 0.337609
v -0.480002 0.053570 0.603874
v -0.185072 0.174861 0.309970
v -0.744562 0.181965 0.390126
v -0.063004 0.169859 0.537939
v -0.279621 0.234257 -0.387491
v -0.072657 0.182694 -0.362799
v -0.144780 0.538125 -0.366227
v -0.184388 0.596917 -0.373833
v -0.281702 0.215418 -0.381982
v -0.266803 0.635905 -0.488568
v 1.049661 0.457729 -0.270524
v 1.076333 0.737937 -0.149933
v 1.210729 0.364438 -0.150471
v 1.159226 0.180278 -0.179162
v 1.105420 0.167451 -0.222267
v 1.084203 0.360539 -0.384604
v 1.079449 0.829975 -0.515923
v -0.231247 1.168758 0.448997
v -0.367811 0.924842 0.315886
v -0.195578 0.981646 0.334448
v -0.052155 0.715347 0.333965
v -0.306159 1.249018 0.431669
v -0.511249 0.811459 0.340815
v -0.317785 0.692090 -0.369654
v -0.530375 1.143537 -0.188364
v -0.405139 0.912011 -0.151112
v -0.892088 0.319367 0.051147
v -0.714995 0.295785 -0.147030
v -0.704394 0.241134 0.029721
v -0.911498 0.316265 0.088587
v -0.704144 0.238797 0.141991
v -0.612118 0.224770 0.246549
v -0.595630 0.201686 -0.137462
v -0.730517 0.345726 0.410671
v -0.757579 0.289805 -0.147041
v -0.781464 0.336865 0.336738
v -0.748610 0.166184 -0.334993
v -0.981148 0.305329 -0.183536
v -0.568115 0.039575 -0.225246
v -1.029306 0.153474 -0.312234
v 1.095131 0.513821 0.327775
v 1.044413 0.387425 0.258314
v 1.184237 0.494757 0.311684
v 1.204435 0.235317 0.113407
v 0.899253 0.183163 0.222551
v 1.166316 0.183886 0.098906
v 1.169170 0.765765 0.309855
v -0.757579 0.289805 -0.147041
v -1.029306 0.153474 -0.312234
v -0.981148 0.305329 -0.183536
v -0.748610 0.166184 -0.334993
v -0.850203 0.231782 -0.386795
v -1.157469 0.000000 -0.384226
v 0.649159 0.986811 0.527382
v 0.424549 0.887412 0.508799
v 0.799128 1.177502 0.315888
v 1.210729 0.364438 -0.150471
v 1.076333 0.737937 -0.149933
v 1.179246 0.852988 -0.213033
v -0.207118 0.623497 0.545430
v -0.257549 0.513757 0.356930
v -0.052155 0.715347 0.333965
v -0.568115 0.039575 -0.225246
v -0.704394 0.241134 0.029721
v -0.714995 0.295785 -0.147030
v -0.603950 1.150640 0.214796
v -0.603743 1.179658 0.215696
v -0.405237 0.966723 0.150547
v -0.402863 1.233032 0.148593
v -0.607368 0.833355 0.252460
v -0.407327 0.738153 0.152276
v -1.061399 0.209651 -0.122818
v -0.981148 0.305329 -0.183536
v -0.981114 0.304806 -0.058125
v -1.029306 0.153474 -0.312234
v 0.643942 0.504373 -0.465970
v 0.840853 0.212045 -0.372654
v 0.654634 0.531967 -0.316199
v 0.764092 0.480695 0.372221
v 0.644049 0.457320 0.296411
v 0.663188 0.553101 0.316825
v 0.802626 0.852988 0.539452
v -0.053031 0.715291 0.285972
v -0.053185 0.813064 0.065502
v 0.157986 0.853863 0.087142
v 0.157935 0.849189 -0.008418
v -0.603950 1.150640 0.214796
v -0.578580 1.305961 -0.137313
v -0.603743 1.179658 0.215696
v -0.576832 1.158915 -0.137251
v 1.179246 0.852988 -0.213033
v 1.153251 1.026475 -0.381265
v 1.142882 0.994868 -0.149399
v 1.128725 1.171885 -0.380323
v 1.141335 1.217212 -0.152216
v 1.143225 1.221730 0.051925
v 1.155471 0.805946 -0.376517
v 1.077804 0.902075 -0.517146
v 1.079449 0.829975 -0.515923
v 1.076333 0.737937 -0.149933
v 0.929970 1.177644 -0.377582
v 0.652457 1.039051 -0.525963
v 0.849219 1.195011 -0.414594
v -1.122340 0.232952 0.305256
v -1.217370 0.043026 0.280379
v -1.122044 0.231781 0.387210
v -1.387562 0.037764 0.406291
v 0.637738 0.122931 -0.451073
v 0.643942 0.504373 -0.465970
v 0.645707 0.509421 -0.369120
v 0.537665 0.196720 -0.367085
v -0.283294 0.678661 0.579826
v -0.515172 0.695512 0.384758
v -0.516167 0.696038 0.589360
v -1.013656 0.239665 -0.379940
v -0.981148 0.305329 -0.183536
v -0.757579 0.289805 -0.147041
v 0.174501 1.046958 0.102553
v 0.157986 0.853863 0.087142
v 0.149392 0.837207 0.315111
v 0.150672 0.880013 0.314256
v -1.387562 0.037764 0.406291
v -1.122340 0.232952 0.305256
v -1.122044 0.231781 0.387210
v -1.217370 0.043026 0.280379
v -0.704144 0.238797 0.141991
v -0.744562 0.181965 0.390126
v -0.730517 0.345726 0.410671
v -0.850203 0.231782 -0.386795
v -0.748610 0.166184 -0.334993
v -0.845727 0.325386 -0.385725
v -0.757579 0.289805 -0.147041
v -0.419341 0.269037 0.269689
v -0.331217 0.175351 0.337609
v -0.287385 0.505276 0.356902
v -0.407327 0.738153 0.152276
v -0.049630 1.460406 0.019757
v -0.105458 1.420347 0.081889
v 0.024007 1.476368 0.119135
v -0.402863 1.233032 0.148593
v -0.306159 1.249018 0.431669
v -0.421177 1.187839 -0.136995
v -0.367811 0.924842 0.315886
v -0.405237 0.966723 0.150547
v -0.511249 0.811459 0.340815
v 1.169170 0.765765 0.309855
v 1.169252 1.153387 0.087142
v 1.167027 0.937691 0.315064
v 1.127471 1.217013 0.298732
v 1.120511 1.207807 0.348630
v 1.113139 0.726176 0.512853
v 1.086811 1.146126 0.476645
v 1.113464 1.217017 0.363864
v 1.143225 1.221730 0.051925
v 1.095131 0.513821 0.327775
v 1.044413 0.387425 0.258314
v 0.815742 0.365021 -0.430524
v 0.660649 0.546474 -0.480213
v 0.662137 0.550469 -0.313374
v 0.660649 0.546474 -0.480213
v 0.815742 0.365021 -0.430524
v 0.654634 0.531967 -0.316199
v 0.408069 0.556445 0.541403
v 0.445083 0.809578 0.506992
v 0.582155 0.736542 0.539298
v 0.397301 0.840494 0.507007
v -0.612118 0.224770 0.246549
v -0.595630 0.201686 -0.137462
v -0.704144 0.238797 0.141991
v -0.704394 0.241134 0.029721
v -0.062732 0.863891 0.060788
v 0.157959 0.858246 -0.149826
v 0.158223 0.863212 0.015901
v -0.385433 0.664645 -0.582841
v -0.184388 0.596917 -0.373833
v -0.317785 0.692090 -0.369654
v -0.266803 0.635905 -0.488568
v -0.405139 0.912011 -0.151112
v -0.328377 0.860102 -0.008631
v -0.399326 1.456756 -0.152821
v -0.334629 1.114253 -0.461489
v -0.293964 1.168513 -0.406079
v -0.511249 0.811459 0.340815
v -0.515172 0.695512 0.384758
v -0.283294 0.678661 0.579826
v 0.840853 0.212045 -0.372654
v 0.815742 0.365021 -0.430524
v 0.654634 0.531967 -0.316199
v 0.839243 0.213693 -0.399652
v 0.643942 0.504373 -0.465970
v -0.778174 0.234111 0.369587
v -1.122340 0.232952 0.305256
v -1.122044 0.231781 0.387210
v -0.821775 0.230832 0.263267
v -0.911498 0.316265 0.088587
v -1.109509 0.279916 0.142218
v -0.981114 0.304806 -0.058125
v -1.061399 0.209651 -0.122818
v -1.109509 0.279916 0.142218
v -1.029306 0.153474 -0.312234
v -0.981148 0.305329 -0.183536
v -1.122340 0.232952 0.305256
v -0.612118 0.224770 0.246549
v -0.704144 0.238797 0.141991
v -0.730517 0.345726 0.410671
v -0.305885 0.175330 0.145473
v -0.419341 0.269037 0.269689
v -0.744562 0.181965 0.390126
v -0.612118 0.224770 0.246549
v -0.730517 0.345726 0.410671
v 0.867117 1.177605 0.165882
v 0.649159 0.986811 0.527382
v 0.799128 1.177502 0.315888
v 1.155471 0.805946 -0.376517
v 1.076333 0.737937 -0.149933
v 1.079449 0.829975 -0.515923
v 0.794210 1.177452 -0.150659
v 0.652457 1.039051 -0.525963
v 0.692159 1.161771 -0.364941
v -0.595630 0.201686 -0.137462
v -0.714995 0.295785 -0.147030
v -0.704394 0.241134 0.029721
v -0.850203 0.231782 -0.386795
v -1.029306 0.153474 -0.312234
v -0.748610 0.166184 -0.334993
v -0.523053 1.831069 -0.188429
v -0.526987 1.703272 -0.188409
v -0.585575 1.485880 -0.137402
v -0.577037 1.832780 -0.137371
v -0.144724 0.539395 0.585505
v -0.257549 0.513757 0.356930
v -0.207118 0.623497 0.545430
v 0.177061 0.498492 0.536353
v -0.821775 0.230832 0.263267
v -0.612118 0.224770 0.246549
v -0.778174 0.234111 0.369587
v -0.744562 0.181965 0.390126
v -1.122044 0.231781 0.387210
v -1.122340 0.232952 0.305256
v -1.109509 0.279916 0.142218
v -0.911498 0.316265 0.088587
v -0.523053 1.831069 -0.188429
v -0.577037 1.832780 -0.137371
v -0.575956 2.133233 -0.137324
v -0.516492 2.122422 -0.188325
v -0.063004 0.169859 0.537939
v -0.039912 0.169894 0.587646
v 0.156621 0.528064 0.538964
v -0.568115 0.039575 -0.225246
v -0.714995 0.295785 -0.147030
v -0.595630 0.201686 -0.137462
v -1.013656 0.239665 -0.379940
v -1.157469 0.000000 -0.384226
v -1.029306 0.153474 -0.312234
v -0.981148 0.305329 -0.183536
v 0.643942 0.504373 -0.465970
v 0.815742 0.365021 -0.430524
v 0.645707 0.509421 -0.369120
v 0.654634 0.531967 -0.316199
v 0.840853 0.212045 -0.372654
v 0.645707 0.509421 -0.369120
v 0.654634 0.531967 -0.316199
v -1.109509 0.279916 0.142218
v -1.122340 0.232952 0.305256
v -0.981114 0.304806 -0.058125
v 0.157986 0.853863 0.087142
v 0.157935 0.849189 -0.008418
v 0.174501 1.046958 0.102553
v 0.649026 1.505491 -0.174208
v 0.581058 1.553882 -0.149516
v 0.590475 1.510422 0.050182
v 0.539842 1.387712 -0.266820
v 0.581058 1.553882 -0.149516
v 0.649026 1.505491 -0.174208
v 0.794210 1.177452 -0.150659
v 0.877556 1.177495 0.025462
v 0.656513 1.563540 -0.143777
v 0.652946 1.522531 0.219500
v 0.867117 1.177605 0.165882
v 0.596290 1.543452 0.084223
v -0.623049 1.093474 -0.464056
v -0.639463 1.167968 -0.412155
v -0.533108 1.443217 -0.188265
v -0.257549 0.513757 0.356930
v 0.177061 0.498492 0.536353
v 0.156621 0.528064 0.538964
v 0.649026 1.505491 -0.174208
v 0.590475 1.510422 0.050182
v 0.656513 1.563540 -0.143777
v 0.596290 1.543452 0.084223
v 0.575783 1.431339 0.086033
v 0.583765 1.471170 0.024257
v 0.539842 1.387712 -0.266820
v 0.652946 1.522531 0.219500
v 1.169537 1.154109 -0.055780
v 1.142882 0.994868 -0.149399
v 1.143225 1.221730 0.051925
v -1.157469 0.000000 -0.384226
v -1.223928 0.000715 -0.367594
v -1.029306 0.153474 -0.312234
v -1.221469 0.000672 -0.401366
v -0.062732 0.863891 0.060788
v -0.053185 0.813064 0.065502
v 0.157935 0.849189 -0.008418
v 1.179246 0.852988 -0.213033
v 1.142882 0.994868 -0.149399
v 1.169537 1.154109 -0.055780
v -0.062732 0.863891 0.060788
v -0.053031 0.715291 0.285972
v -0.063403 0.863343 0.081518
v -0.053185 0.813064 0.065502
v -1.029306 0.153474 -0.312234
v -1.221469 0.000672 -0.401366
v -1.157469 0.000000 -0.384226
v -0.778174 0.234111 0.369587
v -0.781464 0.336865 0.336738
v -0.730517 0.345726 0.410671
v -0.744562 0.181965 0.390126
v -0.144724 0.539395 0.585505
v 0.156621 0.528064 0.538964
v 0.177061 0.498492 0.536353
v -1.221469 0.000672 -0.401366
v -1.029306 0.153474 -0.312234
v -1.223928 0.000715 -0.367594
v -0.062732 0.863891 0.060788
v 0.157935 0.849189 -0.008418
v 0.158223 0.863212 0.015901
v 0.654634 0.531967 -0.316199
v 0.815742 0.365021 -0.430524
v 0.662137 0.550469 -0.313374
v 0.157959 0.858246 -0.149826
v 0.149283 0.841007 -0.315661
v 0.158223 0.863212 0.015901
v 0.157935 0.849189 -0.008418
v -0.603743 1.179658 0.215696
v -0.611355 1.164464 0.317255
v -0.627550 1.192827 0.343178
v -0.603950 1.150640 0.214796
v 0.157935 0.849189 -0.008418
v 0.158223 0.863212 0.015901
v 0.174501 1.046958 0.102553
v 1.175254 0.853507 0.260745
v 1.169252 1.153387 0.087142
v 1.169170 0.765765 0.309855
v 0.652457 1.039051 -0.525963
v 0.629155 1.026550 -0.530262
v 0.849219 1.195011 -0.414594
v 0.445083 0.809578 0.506992
v 0.397301 0.840494 0.507007
v 0.582155 0.736542 0.539298
v 0.424549 0.887412 0.508799
v 0.618554 1.460310 0.414317
v 0.799128 1.177502 0.315888
v 0.649486 1.483102 0.414356
v 0.633419 1.634313 0.414294
v 0.150023 0.944120 -0.493013
v 0.132246 0.546182 -0.539180
v 0.157959 0.858246 -0.149826
v -1.122340 0.232952 0.305256
v -1.061399 0.209651 -0.122818
v -0.981114 0.304806 -0.058125
v 0.581058 1.553882 -0.149516
v 0.539842 1.387712 -0.266820
v 0.590475 1.510422 0.050182
v -0.704144 0.238797 0.141991
v -0.612118 0.224770 0.246549
v -0.744562 0.181965 0.390126
v -0.419341 0.269037 0.269689
v -0.305885 0.175330 0.145473
v 0.183891 0.174277 0.083743
v 0.394200 0.176938 -0.083866
v 0.426391 0.177347 -0.094920
v -0.035843 0.172431 -0.130758
v 0.433167 0.177447 0.219124
v 0.663805 0.180666 0.278258
v 0.656153 0.180513 0.023722
v 0.203759 0.174565 0.349838
v -0.043849 0.170040 0.411419
v -0.024175 0.172139 -0.362799
v -0.253719 0.175131 -0.053411
v -0.200813 0.174957 0.082428
v -0.305885 0.175330 0.145473
v -0.365431 0.175583 -0.086565
v -0.419341 0.269037 0.269689
v -0.043849 0.170730 0.294757
v 0.899253 0.183163 0.222551
v 0.422237 0.177368 0.393102
v 1.075020 0.151880 -0.024392
v -0.331217 0.175351 0.337609
v 1.166316 0.183886 0.098906
v -0.072657 0.182694 -0.362799
v 0.946255 0.227982 0.431818
v 0.840853 0.212045 -0.372654
v 0.669722 0.064174 0.431439
v 1.165686 0.183199 0.073215
v 0.193254 0.174452 -0.370651
v -0.185072 0.174861 0.309970
v -0.290009 0.199058 -0.354859
v 0.537665 0.196720 -0.367085
v 0.637738 0.122931 -0.451073
v 0.191817 0.232952 -0.513948
v 1.105420 0.167451 -0.222267
v 1.159226 0.180278 -0.179162
v -0.063004 0.169859 0.537939
v -0.039912 0.169894 0.587646
v -0.040793 0.228559 -0.596001
v 0.911472 0.234183 -0.391081
v 1.084203 0.360539 -0.384604
v 0.839243 0.213693 -0.399652
v -0.281702 0.215418 -0.381982
v 0.637738 0.122931 -0.451073
v 0.839243 0.213693 -0.399652
v 0.840853 0.212045 -0.372654
v 0.422237 0.177368 0.393102
v 0.433167 0.177447 0.219124
v 0.644049 0.457320 0.296411
v 0.412037 1.123633 0.097007
v 0.375891 0.866427 0.507174
v 0.424549 0.887412 0.508799
v 0.174501 1.046958 0.102553
v 0.510094 1.124579 0.106685
v 0.649159 0.986811 0.527382
v 0.688558 1.153824 0.099997
v 0.654370 0.974065 0.538826
v 0.491721 0.902858 0.537550
v 0.445083 0.809578 0.506992
v 0.867117 1.177605 0.165882
v 1.086811 1.146126 0.476645
v 0.150672 0.880013 0.314256
v 0.582155 0.736542 0.539298
v 0.802626 0.852988 0.539452
v 0.149392 0.837207 0.315111
v 0.882570 0.919496 0.537902
v 0.799128 1.177502 0.315888
v 1.113464 1.217017 0.363864
v 1.113139 0.726176 0.512853
v 0.397301 0.840494 0.507007
v 0.438168 0.527538 0.538891
v 0.649595 0.542689 0.540845
v 0.439419 0.484747 0.535625
v 0.367585 0.491250 0.535789
v 0.398626 0.527374 0.538807
v 0.177061 0.498492 0.536353
v 0.156621 0.528064 0.538964
v 0.408069 0.556445 0.541403
v 0.135853 0.554310 0.541672
v 0.884524 0.831146 0.538069
v 0.408069 0.556445 0.541403
v 0.149392 0.837207 0.315111
v 0.135853 0.554310 0.541672
v 0.424549 0.887412 0.508799
v 0.649159 0.986811 0.527382
v 0.618554 1.460310 0.414317
v 1.097755 1.009909 0.047717
v 1.098093 1.009699 -0.177012
v 1.142882 0.994868 -0.149399
v 1.142882 0.994868 -0.149399
v 1.098093 1.009699 -0.177012
v 1.169537 1.154109 -0.055780
v 1.097755 1.009909 0.047717
v 1.169537 1.154109 -0.055780
v 1.098093 1.009699 -0.177012
v 1.113110 1.004911 0.182701
v 1.169252 1.153387 0.087142
v 1.169537 1.154109 -0.055780
v 1.097755 1.009909 0.047717
v 1.142882 0.994868 -0.149399
v 1.169252 1.153387 0.087142
v 1.113110 1.004911 0.182701
v -0.496153 0.232614 -0.383266
v -0.281702 0.215418 -0.381982
v -0.279621 0.234257 -0.387491
v -0.279621 0.234257 -0.387491
v -0.266803 0.635905 -0.488568
v -0.385433 0.664645 -0.582841
v -0.556500 0.481168 -0.383886
v -0.340181 0.442162 -0.389414
v -0.515829 0.626240 -0.497797
v -0.385433 0.664645 -0.582841
v -0.496153 0.232614 -0.383266
v -0.520048 0.225937 -0.383748
v -0.279621 0.234257 -0.387491
v -0.340181 0.442162 -0.389414
v -0.266803 0.635905 -0.488568
v -0.496153 0.232614 -0.383266
v -0.385433 0.664645 -0.582841
v -0.385433 0.664645 -0.582841
v -0.340181 0.442162 -0.389414
v -0.279621 0.234257 -0.387491
v -0.981114 0.304806 -0.058125
v -1.109509 0.279916 0.142218
v -0.911498 0.316265 0.088587
v -0.892088 0.319367 0.051147
v 0.157986 0.853863 0.087142
v 0.174501 1.046958 0.102553
v 0.158223 0.863212 0.015901
v 0.157935 0.849189 -0.008418
v 0.911472 0.234183 -0.391081
v 1.105420 0.167451 -0.222267
v 1.049661 0.457729 -0.270524
v 1.084203 0.360539 -0.384604
v 0.911472 0.234183 -0.391081
v 1.049661 0.457729 -0.270524
v 0.815742 0.365021 -0.430524
v 1.084203 0.360539 -0.384604
v 0.654634 0.531967 -0.316199
v 0.654634 0.531967 -0.316199
v 0.839243 0.213693 -0.399652
v 0.840853 0.212045 -0.372654
v 0.815742 0.365021 -0.430524
v -0.062732 0.863891 0.060788
v -0.049630 1.460406 0.019757
v -0.048584 1.460089 0.041934
v 0.024007 1.476368 0.119135
v -0.048584 1.460089 0.041934
v -0.040626 1.480576 0.009777
v -0.040626 1.480576 0.009777
v -0.048584 1.460089 0.041934
v 0.002739 1.497619 0.091347
v 0.024007 1.476368 0.119135
v 0.024007 1.476368 0.119135
v -0.040626 1.480576 0.009777
v 0.002739 1.497619 0.091347
v -0.048584 1.460089 0.041934
v -0.049630 1.460406 0.019757
v 0.024007 1.476368 0.119135
v -0.084677 1.591127 0.081476
v -0.051644 1.554871 -0.088263
v 0.002739 1.497619 0.091347
v -0.290009 0.199058 -0.354859
v -0.496153 0.232614 -0.383266
v -0.339599 0.265114 -0.356800
v -0.340181 0.442162 -0.389414
v 0.149392 0.837207 0.315111
v 0.397301 0.840494 0.507007
v 0.408069 0.556445 0.541403
v 0.158223 0.863212 0.015901
v -0.063403 0.863343 0.081518
v 0.174501 1.046958 0.102553
v 0.158223 0.863212 0.015901
v -0.062732 0.863891 0.060788
v -0.063403 0.863343 0.081518
v -0.419362 0.568291 -0.136873
v -0.405139 0.912011 -0.151112
v -0.328377 0.860102 -0.008631
v -0.317785 0.692090 -0.369654
v -0.516167 0.696038 0.589360
v -0.511249 0.811459 0.340815
v -0.283294 0.678661 0.579826
v -0.516167 0.696038 0.589360
v -0.515172 0.695512 0.384758
v -0.511249 0.811459 0.340815
v -0.287385 0.505276 0.356902
v -0.257549 0.513757 0.356930
v -0.052155 0.715347 0.333965
v -0.511249 0.811459 0.340815
v -0.331217 0.175351 0.337609
v -0.185072 0.174861 0.309970
v -0.207118 0.623497 0.545430
v -0.052155 0.715347 0.333965
v -0.144724 0.539395 0.585505
v -0.052155 0.715347 0.333965
v -0.257549 0.513757 0.356930
v -0.144724 0.539395 0.585505
v -0.207118 0.623497 0.545430
v -0.511249 0.811459 0.340815
v -0.283294 0.678661 0.579826
v -0.052155 0.715347 0.333965
v 0.416224 1.122324 -0.039912
v 0.583765 1.471170 0.024257
v 0.510094 1.124579 0.106685
v 0.575783 1.431339 0.086033
v 0.400814 1.176154 0.241760
v 0.412037 1.123633 0.097007
v 0.575783 1.431339 0.086033
v 0.575783 1.431339 0.086033
v 0.412037 1.123633 0.097007
v 0.510094 1.124579 0.106685
v 1.095131 0.513821 0.327775
v 0.764092 0.480695 0.372221
v 1.113139 0.726176 0.512853
v 0.663188 0.553101 0.316825
v 0.439419 0.484747 0.535625
v 0.422237 0.177368 0.393102
v 0.669722 0.064174 0.431439
v 0.764092 0.480695 0.372221
v -0.328377 0.860102 -0.008631
v -0.405139 0.912011 -0.151112
v -0.421177 1.187839 -0.136995
v -0.405139 0.912011 -0.151112
v -0.399326 1.456756 -0.152821
v -0.421177 1.187839 -0.136995
v -0.399326 1.456756 -0.152821
v -0.421177 1.187839 -0.136995
v -0.417680 1.567691 -0.137253
v -0.397503 1.618120 -0.151329
v -0.421177 1.187839 -0.136995
v -0.399326 1.456756 -0.152821
v -0.397503 1.618120 -0.151329
v -0.417680 1.567691 -0.137253
v -0.394211 2.029561 -0.145989
v -0.395722 1.808441 -0.152860
v -0.395842 2.103999 -0.157028
v -0.383139 2.193796 0.036149
v -0.417680 1.567691 -0.137253
v -0.397503 1.618120 -0.151329
v -0.523053 1.831069 -0.188429
v -0.395722 1.808441 -0.152860
v -0.395842 2.103999 -0.157028
v -0.516492 2.122422 -0.188325
v -0.533108 1.443217 -0.188265
v -0.405139 0.912011 -0.151112
v -0.399326 1.456756 -0.152821
v -0.530375 1.143537 -0.188364
v -0.576832 1.158915 -0.137251
v -0.530375 1.143537 -0.188364
v -0.578580 1.305961 -0.137313
v -0.533108 1.443217 -0.188265
v -0.448988 1.798964 0.171988
v -0.592391 2.140977 0.229088
v -0.397130 2.193846 0.130850
v -0.596343 1.829461 0.270600
v -0.592391 2.140977 0.229088
v -0.596343 1.829461 0.270600
v -0.397130 2.193846 0.130850
v -0.448988 1.798964 0.171988
v -0.599433 1.565699 0.218214
v -0.402863 1.233032 0.148593
v -0.398448 1.587709 0.150562
v -0.603743 1.179658 0.215696
v -0.448988 1.798964 0.171988
v -0.596343 1.829461 0.270600
v -0.317785 0.692090 -0.369654
v -0.339599 0.265114 -0.356800
v -0.417680 0.421615 0.034007
v -0.528735 0.805686 -0.188203
v -0.704394 0.241134 0.029721
v -0.678537 0.735898 -0.111690
v -0.845727 0.325386 -0.385725
v -0.850203 0.231782 -0.386795
v -0.757579 0.289805 -0.147041
v -0.748610 0.166184 -0.334993
v -1.109509 0.279916 0.142218
v -1.122340 0.232952 0.305256
v -1.029793 0.279556 0.426924
v -1.122044 0.231781 0.387210
v -0.105458 1.420347 0.081889
v -0.062732 0.863891 0.060788
v -0.063403 0.863343 0.081518
v -0.049630 1.460406 0.019757
v -0.062732 0.863891 0.060788
v 0.157959 0.858246 -0.149826
v -0.195253 0.982546 -0.208158
v -0.205761 1.169562 -0.377284
v -0.238724 1.064002 -0.432138
v -0.196589 1.168534 -0.372169
v -0.195253 0.982546 -0.208158
v -0.063403 0.863343 0.081518
v -0.105458 1.420347 0.081889
v 0.024007 1.476368 0.119135
v 0.649486 1.483102 0.414356
v 0.601201 1.789797 0.414098
v 0.651094 1.794144 0.415316
v 0.601201 1.789797 0.414098
v 0.633419 1.634313 0.414294
v 0.651094 1.794144 0.415316
v 0.649486 1.483102 0.414356
v 0.551220 2.118893 0.375104
v 0.551220 2.118836 0.236478
v 0.663321 2.177792 0.100855
v 0.678912 2.184220 0.328396
v 0.537007 2.143556 -0.226532
v 0.437540 2.161211 -0.388055
v 0.662789 2.195326 -0.147685
v 0.678848 2.164936 -0.378440
v 0.537007 2.143556 -0.226532
v 0.469021 2.166070 -0.040575
v 0.662789 2.195326 -0.147685
v 0.678848 2.164936 -0.378440
v 0.437540 2.161211 -0.388055
v 0.664606 2.152225 -0.063052
v 0.663321 2.177792 0.100855
v 0.551220 2.118836 0.236478
v 0.437540 2.161211 -0.388055
v 0.646580 1.989730 -0.376504
v 0.678848 2.164936 -0.378440
v -0.757579 0.289805 -0.147041
v -0.845727 0.325386 -0.385725
v -0.981148 0.305329 -0.183536
v -0.714995 0.295785 -0.147030
v -0.520048 0.225937 -0.383748
v -0.556500 0.481168 -0.383886
v -0.568115 0.039575 -0.225246
v 0.392566 2.171136 0.084570
v 0.137511 2.171944 0.091856
v 0.551220 2.118836 0.236478
v 0.551220 2.118893 0.375104
v 0.392566 2.171136 0.084570
v 0.414265 2.161464 0.323518
v 0.551220 2.118836 0.236478
v 0.137511 2.171944 0.091856
v 0.121861 2.126385 0.468498
v 0.551220 2.118893 0.375104
v 0.121861 2.126385 0.468498
v 0.414265 2.161464 0.323518
v 0.137511 2.171944 0.091856
v 0.392566 2.171136 0.084570
v -0.094181 2.104237 0.450956
v -0.219893 1.811966 0.483090
v 0.121861 2.126385 0.468498
v 0.121861 2.126385 0.468498
v -0.094181 2.104237 0.450956
v 0.137511 2.171944 0.091856
v -0.219893 1.811966 0.483090
v -0.000655 2.098701 0.461664
v 0.121861 2.126385 0.468498
v -0.094181 2.104237 0.450956
v 0.137511 2.171944 0.091856
v -0.128781 2.113724 0.105420
v -0.094181 2.104237 0.450956
v -0.168103 1.842752 -0.472627
v -0.142224 2.113756 -0.383367
v -0.043617 2.118847 -0.381520
v -0.028045 2.098371 -0.403080
v -0.217714 2.087165 -0.371173
v -0.168103 1.842752 -0.472627
v -0.145791 2.113795 -0.156676
v -0.142224 2.113756 -0.383367
v -0.043617 2.118847 -0.381520
v 0.141037 2.167198 -0.158826
v -0.145791 2.113795 -0.156676
v -0.145791 2.113795 -0.156676
v -0.168103 1.842752 -0.472627
v -0.142224 2.113756 -0.383367
vt 0.583553 0.217355
vt 0.598505 0.156906
vt 0.598505 0.255682
vt 0.964380 0.218094
vt 0.948549 0.188789
vt 0.964380 0.124563
vt 0.714600 0.970717
vt 0.680606 0.960227
vt 0.633685 0.970717
vt 0.295954 0.588724
vt 0.239595 0.564248
vt 0.211522 0.588724
vt 0.239666 0.889423
vt 0.314424 0.889423
vt 0.243703 0.835227
vt 0.927441 0.913024
vt 0.878970 0.846020
vt 0.927441 0.840472
vt 0.878188 0.912536
vt 0.964380 0.487325
vt 0.938874 0.440873
vt 0.964380 0.410402
vt 0.336412 0.981206
vt 0.311302 0.954983
vt 0.269569 0.981206
vt 0.810466 0.322990
vt 0.887863 0.322990
vt 0.878981 0.312500
vt 0.375704 0.940122
vt 0.354002 0.975087
vt 0.408531 0.975087
vt 0.733069 0.887861
vt 0.762973 0.856206
vt 0.762973 0.903409
vt 0.733296 0.867735
vt 0.266051 0.991696
vt 0.254451 0.962201
vt 0.218558 0.991696
vt 0.234201 0.961976
vt 0.940633 0.508304
vt 0.940633 0.596591
vt 0.916007 0.524178
vt 0.736588 0.806381
vt 0.668300 0.788899
vt 0.641601 0.806381
vt 0.780563 0.324738
vt 0.780563 0.418269
vt 0.770009 0.365970
vt 0.872911 0.426136
vt 0.872911 0.542395
vt 0.858839 0.475214
vt 0.996042 0.706731
vt 0.996042 0.773164
vt 0.980211 0.741711
vt 0.997801 0.989948
vt 0.981787 0.987325
vt 0.933597 0.989948
vt 0.171289 0.469417
vt 0.149519 0.476602
vt 0.176452 0.514645
vt 0.253730 0.477856
vt 0.255497 0.506218
vt 0.191915 0.579108
vt 0.182091 0.575005
vt 0.148971 0.478170
vt 0.075127 0.539200
vt 0.181216 0.578822
vt 0.065523 0.560707
vt 0.164485 0.448591
vt 0.255497 0.447990
vt 0.149534 0.459027
vt 0.072028 0.465627
vt 0.577471 0.579138
vt 0.587155 0.461825
vt 0.544872 0.463843
vt 0.575251 0.406077
vt 0.537924 0.531727
vt 0.602239 0.404746
vt 0.634565 0.460005
vt 0.627162 0.552560
vt 0.586144 0.552561
vt 0.536060 0.480662
vt 0.581272 0.392045
vt 0.634565 0.588111
vt 0.586887 0.589864
vt 0.582106 0.590472
vt 0.603126 0.491088
vt 0.576384 0.489340
vt 0.642727 0.715418
vt 0.601313 0.671867
vt 0.684227 0.725087
vt 0.704046 0.637675
vt 0.586831 0.725087
vt 0.584433 0.716750
vt 0.701925 0.720821
vt 0.460190 0.707605
vt 0.419965 0.797640
vt 0.499121 0.797640
vt 0.880067 0.010837
vt 0.879947 0.077360
vt 0.928478 0.004808
vt 0.929200 0.077360
vt 0.321460 0.755942
vt 0.326007 0.787312
vt 0.415567 0.807255
vt 0.415567 0.735577
vt 0.322178 0.787227
vt 0.062885 0.564280
vt 0.018848 0.548839
vt 0.062885 0.658289
vt 0.016472 0.485709
vt 0.060216 0.519046
vt 0.057092 0.466346
vt 0.016083 0.479978
vt 0.011873 0.666521
vt 0.590835 0.008053
vt 0.614268 0.050336
vt 0.694371 0.047956
vt 0.677735 0.081616
vt 0.683017 0.004808
vt 0.568602 0.051178
vt 0.615592 0.119357
vt 0.694371 0.136801
vt 0.580714 0.013443
vt 0.481561 0.307130
vt 0.540630 0.332587
vt 0.511017 0.359896
vt 0.437736 0.336577
vt 0.430292 0.254831
vt 0.551891 0.240321
vt 0.510572 0.275071
vt 0.480316 0.231206
vt 0.545825 0.376199
vt 0.496691 0.425215
vt 0.551891 0.427010
vt 0.427880 0.242319
vt 0.656552 0.855332
vt 0.610895 0.790647
vt 0.574758 0.855332
vt 0.514099 0.747815
vt 0.577630 0.747815
vt 0.554859 0.667395
vt 0.586192 0.669102
vt 0.483449 0.700092
vt 0.461302 0.699169
vt 0.332014 0.744297
vt 0.280583 0.777535
vt 0.215919 0.777535
vt 0.251636 0.724213
vt 0.803430 0.270682
vt 0.724274 0.275693
vt 0.799966 0.284182
vt 0.726859 0.302091
vt 0.794540 0.213724
vt 0.733319 0.240095
vt 0.803430 0.317745
vt 0.555714 0.598305
vt 0.602233 0.662150
vt 0.531840 0.662150
vt 0.531662 0.584353
vt 0.698769 0.636810
vt 0.660052 0.635622
vt 0.661764 0.593094
vt 0.651972 0.594324
vt 0.654899 0.636998
vt 0.017218 0.782780
vt 0.014512 0.780550
vt 0.077681 0.734775
vt 0.110378 0.782780
vt 0.020778 0.731657
vt 0.067980 0.708479
vt 0.188677 0.667403
vt 0.174031 0.621081
vt 0.241342 0.653228
vt 0.120932 0.674388
vt 0.145349 0.636617
vt 0.206261 0.674388
vt 0.285400 0.609354
vt 0.213809 0.590472
vt 0.122573 0.608236
vt 0.003078 0.387675
vt 0.003806 0.383969
vt 0.061678 0.364668
vt 0.013274 0.306651
vt 0.064012 0.381277
vt 0.090581 0.316946
vt 0.142929 0.299663
vt 0.085997 0.241622
vt 0.108762 0.221893
vt 0.175198 0.217400
vt 0.235279 0.366694
vt 0.226896 0.338545
vt 0.278364 0.334362
vt 0.248543 0.361472
vt 0.198047 0.387675
vt 0.107721 0.344340
vt 0.190825 0.316177
vt 0.110898 0.376733
vt 0.156125 0.296413
vt 0.192719 0.307167
vt 0.179252 0.214598
vt 0.262735 0.230019
vt 0.264739 0.243366
vt 0.352243 0.002185
vt 0.317834 0.057792
vt 0.334550 0.052378
vt 0.352243 0.062500
vt 0.262533 0.017634
vt 0.381362 0.083367
vt 0.424509 0.025857
vt 0.384399 0.066181
vt 0.422979 0.019454
vt 0.462527 0.013831
vt 0.378293 0.028104
vt 0.365639 0.134390
vt 0.446320 0.152510
vt 0.397893 0.113481
vt 0.365435 0.139344
vt 0.463479 0.103702
vt 0.491526 0.132828
vt 0.484812 0.099738
vt 0.492168 0.064171
vt 0.465252 0.066297
vt 0.467238 0.154638
vt 0.434046 0.087134
vt 0.477425 0.154437
vt 0.492806 0.151019
vt 0.464959 0.035802
vt 0.480397 0.034087
vt 0.510063 0.010052
vt 0.432057 0.190123
vt 0.388196 0.200547
vt 0.522867 0.072172
vt 0.522867 0.010970
vt 0.491031 0.219671
vt 0.460858 0.227261
vt 0.394708 0.229458
vt 0.515613 0.191093
vt 0.882586 0.208479
vt 0.882586 0.300262
vt 0.838610 0.257976
vt 0.206131 0.775787
vt 0.215466 0.839598
vt 0.223541 0.794111
vt 0.257256 0.826545
vt 0.166667 0.839598
vt 0.188728 0.779253
vt 0.710172 0.110873
vt 0.749428 0.133453
vt 0.743778 0.140581
vt 0.734046 0.074738
vt 0.687335 0.184004
vt 0.777045 0.184004
vt 0.360158 0.917395
vt 0.354518 0.860367
vt 0.335909 0.850962
vt 0.301231 0.917395
vt 0.859719 0.871941
vt 0.798140 0.830857
vt 0.767370 0.871941
vt 0.724274 0.496187
vt 0.632806 0.509291
vt 0.644737 0.518254
vt 0.677690 0.461101
vt 0.667798 0.596128
vt 0.724274 0.599213
vt 0.373351 0.271018
vt 0.422603 0.328234
vt 0.384179 0.259162
vt 0.422603 0.230332
vt 0.675022 0.853584
vt 0.720293 0.868408
vt 0.743624 0.911276
vt 0.678366 0.911276
vt 0.390629 0.666919
vt 0.350399 0.669941
vt 0.407734 0.672640
vt 0.300781 0.627185
vt 0.266051 0.672640
vt 0.432358 0.661568
vt 0.452507 0.666858
vt 0.850923 0.166521
vt 0.805189 0.122552
vt 0.828821 0.065122
vt 0.850923 0.105417
vt 0.517679 0.197644
vt 0.531275 0.221170
vt 0.565454 0.161642
vt 0.567186 0.202722
vt 0.598505 0.260052
vt 0.591704 0.119528
vt 0.555047 0.050262
vt 0.527258 0.089664
vt 0.573037 0.150321
vt 0.510554 0.128240
vt 0.598505 0.118810
vt 0.835092 0.311626
vt 0.806069 0.291414
vt 0.835092 0.192745
vt 0.571240 0.579108
vt 0.495831 0.510791
vt 0.507232 0.564809
vt 0.409532 0.447115
vt 0.413842 0.497767
vt 0.473918 0.474286
vt 0.403397 0.486458
vt 0.483446 0.483158
vt 0.402375 0.579108
vt 0.259894 0.649913
vt 0.259894 0.707605
vt 0.200967 0.684099
vt 0.567805 0.780071
vt 0.513821 0.804633
vt 0.494723 0.747815
vt 0.571259 0.759599
vt 0.595866 0.804633
vt 0.878188 0.486762
vt 0.915128 0.444493
vt 0.915128 0.530157
vt 0.847405 0.642550
vt 0.847405 0.720789
vt 0.810466 0.641171
vt 0.814969 0.735370
vt 0.847118 0.752185
vt 0.812832 0.745724
vt 0.967018 0.390297
vt 0.904573 0.390297
vt 0.924042 0.342220
vt 0.916360 0.343114
vt 0.885224 0.637156
vt 0.952946 0.609703
vt 0.952946 0.654283
vt 0.215040 0.967220
vt 0.158751 0.963067
vt 0.215040 0.915647
vt 0.161988 0.923462
vt 0.346496 0.720624
vt 0.349337 0.694493
vt 0.315875 0.720717
vt 0.406193 0.695571
vt 0.449868 0.720717
vt 0.299982 0.695092
vt 0.275726 0.695558
vt 0.279760 0.720591
vt 0.798592 0.643644
vt 0.755057 0.626751
vt 0.790863 0.570367
vt 0.807828 0.591789
vt 0.807828 0.693619
vt 0.058228 0.787150
vt 0.102463 0.832605
vt 0.040973 0.832605
vt 0.000440 0.810613
vt 0.195876 0.443561
vt 0.188143 0.431166
vt 0.241454 0.433890
vt 0.266994 0.447124
vt 0.267666 0.435042
vt 0.327387 0.438160
vt 0.328496 0.451486
vt 0.159161 0.439409
vt 0.129095 0.436816
vt 0.126857 0.426045
vt 0.040897 0.451486
vt 0.057741 0.420568
vt 0.192769 0.405157
vt 0.264794 0.409788
vt 0.225812 0.407282
vt 0.462753 0.925628
vt 0.406772 0.965472
vt 0.410561 0.913899
vt 0.463061 0.965472
vt 0.896658 0.691372
vt 0.928320 0.654283
vt 0.928320 0.739948
vt 0.289798 0.922640
vt 0.289798 0.964598
vt 0.225594 0.924357
vt 0.114437 0.898530
vt 0.150836 0.930507
vt 0.066403 0.930507
vt 0.112647 0.895542
vt 0.362797 0.244318
vt 0.396218 0.244318
vt 0.371249 0.166521
vt 0.766718 0.461212
vt 0.795946 0.527378
vt 0.742744 0.491480
vt 0.797274 0.556306
vt 0.797274 0.446241
vt 0.751599 0.573864
vt 0.154635 0.881314
vt 0.143799 0.840472
vt 0.214828 0.853166
vt 0.226702 0.860913
vt 0.150802 0.881556
vt 0.236148 0.881556
vt 0.177504 0.720724
vt 0.132167 0.684878
vt 0.207278 0.691420
vt 0.236148 0.714129
vt 0.233777 0.727281
vt 0.189783 0.746941
vt 0.097186 0.746941
vt 0.736483 0.667826
vt 0.753198 0.725220
vt 0.722715 0.706986
vt 0.683817 0.750437
vt 0.754415 0.656906
vt 0.775286 0.750437
vt 0.175462 0.913899
vt 0.276605 0.913899
vt 0.231969 0.889423
vt 0.445604 0.651108
vt 0.481230 0.615319
vt 0.446177 0.612516
vt 0.438534 0.654884
vt 0.424926 0.614090
vt 0.403745 0.598139
vt 0.476151 0.588351
vt 0.372471 0.630882
vt 0.481960 0.623403
vt 0.387939 0.638185
vt 0.524626 0.621175
vt 0.486686 0.666005
vt 0.522423 0.574738
vt 0.524626 0.674388
vt 0.801657 0.146633
vt 0.795836 0.118264
vt 0.784836 0.150615
vt 0.748021 0.100771
vt 0.803430 0.070367
vt 0.749686 0.088320
vt 0.803430 0.193619
vt 0.806397 0.560752
vt 0.830035 0.498225
vt 0.797274 0.520473
vt 0.849164 0.549233
vt 0.844757 0.533996
vt 0.849164 0.462850
vt 0.905453 0.281381
vt 0.929200 0.240822
vt 0.929200 0.337850
vt 0.930079 0.484703
vt 0.907212 0.413026
vt 0.930079 0.391171
vt 0.673263 0.350087
vt 0.716359 0.350087
vt 0.692152 0.301136
vt 0.978452 0.302010
vt 0.978452 0.368444
vt 0.947669 0.351004
vt 0.060368 0.837010
vt 0.054861 0.836919
vt 0.095057 0.877185
vt 0.044415 0.877178
vt 0.121076 0.834353
vt 0.138522 0.877178
vt 0.992524 0.880544
vt 0.967018 0.872184
vt 0.970590 0.895542
vt 0.992524 0.842220
vt 0.454266 0.805507
vt 0.454266 0.874563
vt 0.425242 0.809670
vt 0.364556 0.188513
vt 0.339716 0.200612
vt 0.339050 0.182096
vt 0.364556 0.110577
vt 0.191293 0.034528
vt 0.157170 0.003059
vt 0.129775 0.034528
vt 0.118294 0.021900
vt 0.728672 0.069455
vt 0.700528 0.002185
vt 0.723115 0.069493
vt 0.728672 0.002822
vt 0.374343 0.568951
vt 0.332754 0.547649
vt 0.377003 0.539105
vt 0.325682 0.520245
vt 0.364161 0.499450
vt 0.400616 0.487325
vt 0.347738 0.587240
vt 0.313163 0.580479
vt 0.318090 0.593094
vt 0.394296 0.593094
vt 0.288456 0.520644
vt 0.232630 0.554241
vt 0.271333 0.519481
vt 0.957958 0.494318
vt 0.944151 0.532646
vt 0.973175 0.498017
vt 0.973175 0.560752
vt 0.879068 0.959353
vt 0.802175 0.959353
vt 0.800792 0.942026
vt 0.866371 0.934003
vt 0.603782 0.726836
vt 0.603782 0.784528
vt 0.573879 0.759678
vt 0.536939 0.982955
vt 0.505598 0.957605
vt 0.470097 0.982955
vt 0.315303 0.937629
vt 0.352243 0.937500
vt 0.352243 0.981206
vt 0.344153 0.980441
vt 0.737467 0.981206
vt 0.800792 0.965759
vt 0.799808 0.981206
vt 0.763279 0.950612
vt 0.163149 0.973573
vt 0.212401 0.968094
vt 0.212401 0.999563
vt 0.981525 0.380682
vt 0.967898 0.401892
vt 0.999560 0.382317
vt 0.999560 0.431381
vt 0.382146 0.068367
vt 0.376650 0.041521
vt 0.330739 0.084766
vt 0.336003 0.147152
vt 0.324785 0.322727
vt 0.317953 0.306648
vt 0.301988 0.329108
vt 0.328202 0.240041
vt 0.271328 0.238293
vt 0.382146 0.250833
vt 0.301032 0.179381
vt 0.332404 0.190055
vt 0.292834 0.145591
vt 0.659678 0.249541
vt 0.680089 0.167721
vt 0.650054 0.218630
vt 0.637464 0.166972
vt 0.628664 0.171275
vt 0.622961 0.267049
vt 0.607300 0.188959
vt 0.625088 0.170353
vt 0.682058 0.152535
vt 0.665991 0.298906
vt 0.682058 0.322990
vt 0.687335 0.996066
vt 0.733949 0.996066
vt 0.727836 0.964598
vt 0.351363 0.314248
vt 0.397977 0.314248
vt 0.359086 0.283654
vt 0.942392 0.603857
vt 0.988429 0.585463
vt 0.989006 0.615822
vt 0.989006 0.574738
vt 0.978452 0.973339
vt 0.978452 0.900787
vt 0.959578 0.954596
vt 0.958223 0.933520
vt 0.996922 0.505682
vt 0.996922 0.563374
vt 0.974055 0.541762
vt 0.623725 0.430507
vt 0.677661 0.410741
vt 0.649618 0.396015
vt 0.652813 0.424129
vt 0.647580 0.335660
vt 0.677661 0.324313
vt 0.576896 0.260927
vt 0.578217 0.353541
vt 0.575638 0.336436
vt 0.905453 0.980332
vt 0.892090 0.960227
vt 0.837731 0.980332
vt 0.963500 0.008633
vt 0.945518 0.035219
vt 0.963500 0.083479
vt 0.958118 0.008304
vt 0.935356 0.075694
vt 0.858839 0.818619
vt 0.924133 0.803400
vt 0.924802 0.818619
vt 0.866263 0.798708
vt 0.881487 0.760927
vt 0.920020 0.770852
vt 0.527575 0.809878
vt 0.538085 0.834429
vt 0.485644 0.827481
vt 0.575638 0.840472
vt 0.551405 0.809960
vt 0.456025 0.840472
vt 0.847477 0.031618
vt 0.866755 0.013609
vt 0.809587 0.005682
vt 0.866755 0.092220
vt 0.838155 0.067921
vt 0.441300 0.972465
vt 0.413808 0.998689
vt 0.458663 0.998689
vt 0.482410 0.385052
vt 0.482410 0.472465
vt 0.468338 0.413186
vt 0.971416 0.058557
vt 0.986368 0.013549
vt 0.986368 0.085227
vt 0.014512 0.525787
vt 0.014512 0.606206
vt 0.001319 0.569125
vt 0.744503 0.456731
vt 0.744503 0.485577
vt 0.710202 0.475504
vt 0.548373 0.980905
vt 0.565963 0.945367
vt 0.565963 0.998689
vt 0.382952 0.982080
vt 0.358648 0.982192
vt 0.317062 0.996066
vt 0.383025 0.996066
vt 0.856940 0.689529
vt 0.889622 0.653409
vt 0.850044 0.669411
vt 0.889622 0.742570
vt 0.792095 0.038523
vt 0.831574 0.033050
vt 0.801506 0.058069
vt 0.811658 0.065122
vt 0.736662 0.065122
vt 0.735708 0.049698
vt 0.736038 0.017618
vt 0.772696 0.003059
vt 0.998681 0.948864
vt 0.984528 0.948769
vt 0.983729 0.892045
vt 0.998681 0.893839
vt 0.348725 0.504808
vt 0.346397 0.494318
vt 0.268690 0.504808
vt 0.473615 0.999563
vt 0.531662 0.999563
vt 0.506230 0.985577
vt 0.934477 0.292677
vt 0.960862 0.245192
vt 0.954373 0.285227
vt 0.960862 0.323864
vt 0.525506 0.029283
vt 0.568602 0.029283
vt 0.528066 0.011154
vt 0.528355 0.000437
vt 0.982850 0.214598
vt 0.972296 0.148105
vt 0.982850 0.143794
vt 0.698769 0.060978
vt 0.708443 0.030157
vt 0.708443 0.105332
vt 0.634501 0.930507
vt 0.624890 0.946241
vt 0.667986 0.946241
vt 0.777045 0.330857
vt 0.769069 0.315996
vt 0.733069 0.330857
vt 0.736651 0.334353
vt 0.768328 0.357771
vt 0.753559 0.365177
vt 0.686450 0.377809
vt 0.684697 0.414697
vt 0.764213 0.371761
vt 0.767040 0.440996
vt 0.689244 0.440996
vt 0.777045 0.414752
vt 0.943272 0.256556
vt 0.936236 0.240420
vt 0.943272 0.170892
vt 0.896658 0.303759
vt 0.896658 0.392920
vt 0.890501 0.389348
vt 0.594376 0.128222
vt 0.637874 0.139124
vt 0.602149 0.118444
vt 0.645558 0.133931
vt 0.642297 0.155157
vt 0.631569 0.145716
vt 0.572120 0.155157
vt 0.671504 0.136792
vt 0.475765 0.571241
vt 0.441073 0.579983
vt 0.499121 0.579983
vt 0.961909 0.970717
vt 0.970944 0.980332
vt 0.922164 0.980332
vt 0.974055 0.974598
vt 0.980211 0.628200
vt 0.990765 0.628059
vt 0.990765 0.670892
vt 0.925682 0.753059
vt 0.895769 0.746066
vt 0.860598 0.753059
vt 0.493372 0.421766
vt 0.495602 0.370192
vt 0.495602 0.418501
vt 0.485928 0.415266
vt 0.281003 0.461976
vt 0.331135 0.461976
vt 0.321050 0.454108
vt 0.342473 0.206844
vt 0.333773 0.226036
vt 0.351363 0.230332
vt 0.351363 0.197990
vt 0.555409 0.399913
vt 0.550132 0.342414
vt 0.555409 0.337850
vt 0.138522 0.684003
vt 0.188654 0.684003
vt 0.140392 0.677885
vt 0.824538 0.998689
vt 0.868514 0.998689
vt 0.867019 0.993444
vt 0.428760 0.338627
vt 0.432278 0.289773
vt 0.432278 0.340472
vt 0.901055 0.244380
vt 0.903694 0.211976
vt 0.901088 0.276661
vt 0.903694 0.271851
vt 0.941513 0.349290
vt 0.935512 0.329900
vt 0.941513 0.323864
vt 0.935356 0.350087
vt 0.536939 0.847465
vt 0.532374 0.843969
vt 0.493843 0.847465
vt 0.129009 0.981206
vt 0.062885 0.982955
vt 0.148197 0.982955
vt 0.602023 0.217720
vt 0.603782 0.212850
vt 0.603782 0.269668
vt 0.889622 0.519932
vt 0.891381 0.509178
vt 0.891381 0.550262
vt 0.726913 0.186626
vt 0.719577 0.302146
vt 0.666227 0.262408
vt 0.715887 0.307841
vt 0.726913 0.334353
vt 0.373351 0.875437
vt 0.449868 0.875437
vt 0.382005 0.809003
vt 0.646878 0.956731
vt 0.729551 0.956731
vt 0.718521 0.932255
vt 0.647212 0.718094
vt 0.614336 0.739948
vt 0.679420 0.739948
vt 0.823659 0.821937
vt 0.850410 0.812189
vt 0.868514 0.847465
vt 0.868514 0.777452
vt 0.853710 0.747815
vt 0.187002 0.099104
vt 0.150174 0.134383
vt 0.144276 0.137035
vt 0.232446 0.135563
vt 0.137376 0.078059
vt 0.092642 0.071031
vt 0.098644 0.118793
vt 0.178481 0.049384
vt 0.224272 0.033395
vt 0.234388 0.179435
vt 0.272321 0.117134
vt 0.259874 0.092513
vt 0.278642 0.078782
vt 0.294067 0.121388
vt 0.302990 0.051591
vt 0.226352 0.055348
vt 0.049053 0.085699
vt 0.136334 0.045126
vt 0.020062 0.135571
vt 0.276995 0.042187
vt 0.000440 0.113272
vt 0.243684 0.178641
vt 0.036045 0.046353
vt 0.071113 0.197015
vt 0.096060 0.034798
vt 0.000855 0.118114
vt 0.193355 0.184777
vt 0.252259 0.050525
vt 0.284815 0.173421
vt 0.128118 0.190283
vt 0.112182 0.213719
vt 0.200116 0.213172
vt 0.016858 0.173265
vt 0.005705 0.165861
vt 0.226193 0.009441
vt 0.221177 0.000437
vt 0.244011 0.221591
vt 0.057982 0.203582
vt 0.020902 0.221591
vt 0.072463 0.202029
vt 0.281967 0.177840
vt 0.058487 0.455857
vt 0.101480 0.450612
vt 0.103342 0.455857
vt 0.798153 0.731206
vt 0.764732 0.731206
vt 0.776961 0.664773
vt 0.323097 0.325844
vt 0.327950 0.414990
vt 0.337324 0.412027
vt 0.278954 0.339804
vt 0.341357 0.324843
vt 0.381491 0.400336
vt 0.373735 0.315996
vt 0.382433 0.403494
vt 0.351094 0.413590
vt 0.335933 0.426769
vt 0.409139 0.319677
vt 0.463839 0.372676
vt 0.279190 0.389574
vt 0.356068 0.448053
vt 0.404782 0.435219
vt 0.275745 0.396672
vt 0.424516 0.414584
vt 0.407993 0.347297
vt 0.467458 0.347954
vt 0.467458 0.450255
vt 0.329810 0.419897
vt 0.318230 0.482389
vt 0.360574 0.488925
vt 0.316527 0.490822
vt 0.302671 0.486321
vt 0.310433 0.480643
vt 0.265469 0.476330
vt 0.262790 0.469616
vt 0.313612 0.475375
vt 0.259894 0.463533
vt 0.422978 0.435216
vt 0.878188 0.173175
vt 0.930079 0.239948
vt 0.930079 0.170892
vt 0.660070 0.848339
vt 0.690665 0.812500
vt 0.776165 0.848339
vt 0.007476 0.999563
vt 0.050572 0.999563
vt 0.045292 0.989948
vt 0.354002 0.819290
vt 0.363676 0.815122
vt 0.363676 0.853584
vt 0.047621 0.961976
vt 0.027949 0.931381
vt 0.004837 0.961976
vt 0.073439 0.961600
vt 0.055161 0.931534
vt 0.848449 0.913899
vt 0.828179 0.883304
vt 0.866755 0.883492
vt 0.821035 0.913899
vt 0.802551 0.883600
vt 0.546614 0.882430
vt 0.505722 0.878059
vt 0.505277 0.882430
vt 0.570361 0.376311
vt 0.545734 0.301484
vt 0.570361 0.284528
vt 0.852682 0.140855
vt 0.894019 0.154108
vt 0.866195 0.108414
vt 0.894019 0.100087
vt 0.858044 0.188740
vt 0.853212 0.189248
vt 0.104433 0.001311
vt 0.069270 0.022707
vt 0.026458 0.013681
vt 0.115655 0.040647
vt 0.015391 0.040647
vt 0.967018 0.795892
vt 0.950308 0.741771
vt 0.967018 0.704108
vt 0.189534 0.606206
vt 0.143799 0.606206
vt 0.173419 0.579983
vt 0.181465 0.580737
vt 0.898481 0.081731
vt 0.864996 0.097465
vt 0.903527 0.094674
vt 0.908091 0.097465
vt 0.909850 0.967220
vt 0.960862 0.967220
vt 0.933153 0.917395
vt 0.378628 0.548392
vt 0.399736 0.513549
vt 0.399736 0.568619
vt 0.339215 0.594843
vt 0.293316 0.619318
vt 0.382146 0.619318
vt 0.337291 0.692745
vt 0.263412 0.688466
vt 0.263873 0.692745
vt 0.290224 0.673514
vt 0.294195 0.933129
vt 0.407652 0.933129
vt 0.407307 0.928759
vt 0.613456 0.255682
vt 0.607300 0.235886
vt 0.613456 0.231206
vt 0.696130 0.098339
vt 0.689094 0.094566
vt 0.696130 0.080163
vt 0.691529 0.073864
vt 0.740985 0.934003
vt 0.740985 0.958479
vt 0.736588 0.940826
vt 0.631047 0.528366
vt 0.633685 0.524913
vt 0.633685 0.548514
vt 0.114538 0.784528
vt 0.088390 0.806381
vt 0.126209 0.806381
vt 0.174582 0.387675
vt 0.174582 0.427885
vt 0.163740 0.398917
vt 0.129727 0.405299
vt 0.918646 0.619318
vt 0.879947 0.573885
vt 0.918646 0.535402
vt 0.259894 0.779283
vt 0.259894 0.822990
vt 0.221196 0.781003
vt 0.847405 0.238199
vt 0.843008 0.195727
vt 0.847405 0.194493
vt 0.587951 0.934003
vt 0.528260 0.899234
vt 0.523747 0.926271
vt 0.587951 0.878934
vt 0.748021 0.627185
vt 0.746782 0.575612
vt 0.703166 0.627185
vt 0.054969 0.988199
vt 0.019880 0.971591
vt 0.003078 0.988199
vt 0.083283 0.656914
vt 0.088534 0.659647
vt 0.119173 0.704983
vt 0.029463 0.704983
vt 0.088082 0.593969
vt 0.115566 0.599504
vt 0.936392 0.818619
vt 0.886983 0.836976
vt 0.947669 0.836976
vt 0.635444 0.961101
vt 0.599871 0.919143
vt 0.574758 0.961101
vt 0.820246 0.621038
vt 0.867634 0.556381
vt 0.817502 0.604107
vt 0.867634 0.647290
vt 0.156992 0.963724
vt 0.081354 0.963724
vt 0.144302 0.932255
vt 0.086739 0.951205
vt 0.923923 0.781906
vt 0.953826 0.781906
vt 0.937851 0.718094
vt 0.721636 0.628059
vt 0.721636 0.694493
vt 0.704925 0.685621
vt 0.484169 0.454545
vt 0.511290 0.511728
vt 0.531662 0.429633
vt 0.531662 0.527535
vt 0.286674 0.779283
vt 0.347326 0.798677
vt 0.355761 0.848339
vt 0.271328 0.848339
vt 0.803430 0.211101
vt 0.781183 0.187500
vt 0.733949 0.211101
vt 0.894019 0.210227
vt 0.894019 0.313374
vt 0.888742 0.262408
vt 0.977573 0.458359
vt 0.982850 0.509178
vt 0.982850 0.437444
vt 0.977725 0.427885
vt 0.804310 0.822115
vt 0.753177 0.816871
vt 0.722515 0.817020
vt 0.732134 0.822115
vt 0.088036 0.396904
vt 0.047102 0.406486
vt 0.101157 0.391171
vt 0.127089 0.422640
vt 0.003958 0.422640
vt 0.012127 0.415726
vt 0.997801 0.225308
vt 0.972296 0.221591
vt 0.973766 0.277205
vt 0.997801 0.280157
vt 0.863237 0.330172
vt 0.889622 0.430507
vt 0.889622 0.327360
vt 0.864275 0.386905
vt 0.674521 0.918306
vt 0.671504 0.931381
vt 0.702573 0.918269
vt 0.728672 0.931381
vt 0.945031 0.160402
vt 0.905453 0.100924
vt 0.945031 0.084353
vt 0.910767 0.160332
vt 0.002199 0.867521
vt 0.007490 0.926946
vt 0.041777 0.850962
vt 0.041777 0.927010
vt 0.826926 0.396862
vt 0.787792 0.333252
vt 0.785840 0.400316
vt 0.828936 0.323864
vt 0.795684 0.440466
vt 0.828936 0.447115
vt 0.071680 0.303759
vt 0.004837 0.257063
vt 0.071680 0.210227
vt 0.854442 0.343969
vt 0.854442 0.462850
vt 0.829815 0.368635
vt 0.999560 0.116696
vt 0.998167 0.099910
vt 0.948549 0.116696
vt 0.978980 0.084353
vt 0.778804 0.994318
vt 0.808035 0.980362
vt 0.835092 0.994318
vt 0.823099 0.976836
vt 0.645984 0.439248
vt 0.752885 0.454983
vt 0.753298 0.451823
vt 0.637203 0.454983
vt 0.806948 0.931381
vt 0.791122 0.875437
vt 0.745383 0.931381
vt 0.179994 0.885508
vt 0.183377 0.908654
vt 0.178017 0.885052
vt 0.136763 0.908654
vt 0.601143 0.871941
vt 0.497701 0.848339
vt 0.483289 0.871941
vt 0.998681 0.297640
vt 0.998681 0.356206
vt 0.989006 0.355552
vt 0.894019 0.464598
vt 0.892540 0.434680
vt 0.884345 0.463944
vt 0.894019 0.406031
vt 0.000440 0.732080
vt 0.002396 0.706006
vt 0.028584 0.682255
vt 0.028584 0.725288
vt 0.371378 0.895515
vt 0.402862 0.877185
vt 0.359279 0.922640
vt 0.404134 0.922640
vt 0.641605 0.761410
vt 0.677957 0.749812
vt 0.656028 0.786753
vt 0.611311 0.788024
vt 0.610818 0.741696
vt 0.672539 0.786928
vt 0.704234 0.788024
vt 0.731310 0.766434
vt 0.567722 0.994318
vt 0.619613 0.994318
vt 0.603089 0.964598
vt 0.995163 0.829108
vt 0.952946 0.805040
vt 0.995163 0.786276
vt 0.610689 0.915647
vt 0.652587 0.872727
vt 0.675901 0.915647
vt 0.607300 0.857955
vt 0.112966 0.570367
vt 0.068162 0.588724
vt 0.151715 0.588724
vt 0.117870 0.830000
vt 0.175462 0.801271
vt 0.129383 0.803989
vt 0.144415 0.830857
vt 0.175462 0.752775
vt 0.102463 0.747815
vt 0.806069 0.734703
vt 0.806069 0.818619
vt 0.790040 0.758074
vt 0.735708 0.800538
vt 0.744575 0.752590
vt 0.244670 0.377185
vt 0.189534 0.402535
vt 0.277485 0.402535
vt 0.480651 0.694493
vt 0.479542 0.653409
vt 0.408531 0.694493
vt 0.916007 0.932255
vt 0.848621 0.920078
vt 0.828056 0.932255
vt 0.860871 0.906906
vt 0.498241 0.912150
vt 0.467104 0.870192
vt 0.415567 0.912150
vt 0.118294 0.600962
vt 0.118294 0.655901
vt 0.099123 0.658654
vt 0.095427 0.653901
vt 0.940633 0.866114
vt 0.966139 0.822115
vt 0.966139 0.900787
vt 0.936236 0.693534
vt 0.936646 0.675030
vt 0.979332 0.639423
vt 0.979332 0.694493
vt 0.479771 0.955857
vt 0.558927 0.955857
vt 0.512362 0.927885
usemtl baked
f 228/228 229/229 230/230
f 213/213 228/228 230/230
f 230/230 229/229 234/234
f 536/536 540/540 537/537
f 534/534 541/541 536/536
f 229/229 233/233 234/234
f 229/229 222/222 233/233
f 841/841 842/842 843/843
f 852/852 853/853 854/854
f 844/844 845/845 846/846
f 847/847 848/848 849/849
f 847/847 850/850 848/848
f 210/210 225/225 223/223
f 210/210 223/223 228/228
f 848/848 850/850 851/851
f 856/856 853/853 855/855
f 855/855 853/853 852/852
f 210/210 228/228 213/213
f 212/212 210/210 213/213
f 229/229 228/228 222/222
f 223/223 222/222 228/228
f 78/78 83/83 76/76
f 535/535 536/536 537/537
f 535/535 534/534 536/536
f 729/729 730/730 731/731
f 533/533 534/534 535/535
f 85/85 81/81 73/73
f 86/86 85/85 73/73
f 73/73 74/74 75/75
f 81/81 74/74 73/73
f 81/81 80/80 74/74
f 80/80 79/79 74/74
f 478/478 479/479 480/480
f 478/478 484/484 479/479
f 481/481 479/479 488/488
f 480/480 479/479 481/481
f 480/480 481/481 482/482
f 692/692 693/693 694/694
f 74/74 79/79 78/78
f 75/75 74/74 76/76
f 74/74 78/78 76/76
f 88/88 87/87 75/75
f 87/87 74/74 75/75
f 32/32 35/35 33/33
f 32/32 33/33 34/34
f 682/682 683/683 684/684
f 480/480 482/482 483/483
f 212/212 214/214 211/211
f 212/212 211/211 210/210
f 484/484 485/485 479/479
f 486/486 485/485 484/484
f 36/36 37/37 38/38
f 38/38 37/37 39/39
f 857/857 858/858 859/859
f 863/863 867/867 864/864
f 863/863 868/868 867/867
f 863/863 864/864 865/865
f 865/865 864/864 866/866
f 871/871 870/870 873/873
f 860/860 861/861 862/862
f 869/869 870/870 871/871
f 874/874 875/875 876/876
f 872/872 870/870 869/869
f 877/877 878/878 879/879
f 880/880 877/877 879/879
f 414/414 415/415 416/416
f 414/414 422/422 415/415
f 535/535 540/540 539/539
f 535/535 537/537 540/540
f 539/539 538/538 535/535
f 533/533 535/535 538/538
f 77/77 73/73 75/75
f 77/77 75/75 82/82
f 883/883 884/884 881/881
f 881/881 882/882 883/883
f 824/824 813/813 806/806
f 805/805 824/824 806/806
f 809/809 815/815 821/821
f 821/821 815/815 822/822
f 806/806 812/812 811/811
f 809/809 806/806 811/811
f 820/820 834/834 823/823
f 55/55 56/56 57/57
f 811/811 815/815 809/809
f 815/815 811/811 820/820
f 815/815 820/820 823/823
f 818/818 834/834 811/811
f 811/811 834/834 820/820
f 806/806 813/813 812/812
f 813/813 817/817 812/812
f 817/817 818/818 812/812
f 818/818 811/811 812/812
f 825/825 826/826 818/818
f 817/817 825/825 818/818
f 829/829 828/828 825/825
f 832/832 829/829 825/825
f 828/828 827/827 825/825
f 832/832 825/825 817/817
f 831/831 829/829 832/832
f 85/85 84/84 81/81
f 84/84 80/80 81/81
f 601/601 602/602 603/603
f 487/487 484/484 478/478
f 398/398 399/399 400/400
f 444/444 445/445 446/446
f 794/794 795/795 789/789
f 402/402 403/403 398/398
f 885/885 886/886 887/887
f 888/888 889/889 890/890
f 780/780 796/796 794/794
f 780/780 794/794 789/789
f 103/103 105/105 106/106
f 103/103 104/104 105/105
f 168/168 169/169 166/166
f 399/399 398/398 404/404
f 398/398 403/403 404/404
f 166/166 167/167 168/168
f 103/103 107/107 104/104
f 891/891 892/892 893/893
f 167/167 170/170 168/168
f 40/40 41/41 42/42
f 170/170 171/171 168/168
f 897/897 895/895 894/894
f 894/894 895/895 896/896
f 573/573 576/576 574/574
f 573/573 574/574 575/575
f 191/191 195/195 197/197
f 191/191 197/197 192/192
f 547/547 548/548 549/549
f 577/577 575/575 574/574
f 330/330 331/331 332/332
f 798/798 799/799 800/800
f 463/463 464/464 465/465
f 402/402 398/398 401/401
f 401/401 398/398 400/400
f 775/775 789/789 782/782
f 782/782 789/789 790/790
f 191/191 192/192 193/193
f 194/194 191/191 193/193
f 646/646 645/645 644/644
f 643/643 644/644 645/645
f 544/544 545/545 546/546
f 715/715 716/716 717/717
f 193/193 200/200 203/203
f 193/193 192/192 200/200
f 906/906 905/905 907/907
f 908/908 909/909 910/910
f 904/904 905/905 906/906
f 901/901 902/902 903/903
f 524/524 525/525 526/526
f 911/911 912/912 913/913
f 914/914 915/915 916/916
f 195/195 198/198 196/196
f 195/195 196/196 197/197
f 495/495 496/496 497/497
f 498/498 495/495 497/497
f 766/766 793/793 783/783
f 198/198 185/185 183/183
f 778/778 793/793 766/766
f 793/793 788/788 783/783
f 797/797 793/793 778/778
f 198/198 183/183 196/196
f 185/185 181/181 183/183
f 181/181 182/182 183/183
f 917/917 918/918 919/919
f 918/918 920/920 919/919
f 392/392 396/396 393/393
f 392/392 393/393 394/394
f 770/770 785/785 778/778
f 770/770 778/778 767/767
f 192/192 197/197 200/200
f 197/197 199/199 200/200
f 196/196 187/187 199/199
f 197/197 196/196 199/199
f 187/187 183/183 186/186
f 183/183 187/187 196/196
f 561/561 564/564 562/562
f 561/561 562/562 563/563
f 395/395 397/397 392/392
f 392/392 394/394 395/395
f 831/831 830/830 829/829
f 829/829 830/830 828/828
f 647/647 648/648 649/649
f 309/309 310/310 311/311
f 505/505 506/506 507/507
f 505/505 507/507 508/508
f 720/720 719/719 721/721
f 718/718 719/719 720/720
f 816/816 819/819 805/805
f 805/805 819/819 824/824
f 921/921 922/922 923/923
f 835/835 836/836 837/837
f 550/550 553/553 551/551
f 735/735 736/736 737/737
f 29/29 30/30 31/31
f 550/550 551/551 552/552
f 248/248 249/249 250/250
f 251/251 249/249 248/248
f 695/695 698/698 696/696
f 695/695 696/696 697/697
f 379/379 380/380 381/381
f 10/10 11/11 12/12
f 927/927 928/928 929/929
f 470/470 471/471 472/472
f 164/164 163/163 162/162
f 471/471 473/473 472/472
f 164/164 162/162 165/165
f 924/924 925/925 926/926
f 726/726 727/727 728/728
f 653/653 654/654 655/655
f 833/833 831/831 832/832
f 190/190 187/187 189/189
f 199/199 187/187 190/190
f 187/187 188/188 189/189
f 187/187 186/186 188/188
f 485/485 489/489 488/488
f 489/489 490/490 488/488
f 275/275 276/276 277/277
f 278/278 276/276 275/275
f 275/275 277/277 280/280
f 277/277 281/281 280/280
f 199/199 190/190 200/200
f 200/200 190/190 201/201
f 209/209 225/225 210/210
f 209/209 210/210 211/211
f 200/200 201/201 202/202
f 203/203 200/200 202/202
f 479/479 485/485 488/488
f 523/523 522/522 532/532
f 523/523 520/520 522/522
f 125/125 130/130 126/126
f 131/131 130/130 125/125
f 933/933 931/931 930/930
f 934/934 935/935 936/936
f 937/937 938/938 939/939
f 943/943 940/940 942/942
f 940/940 941/941 942/942
f 776/776 769/769 784/784
f 769/769 768/768 784/784
f 941/941 944/944 945/945
f 940/940 944/944 941/941
f 946/946 947/947 948/948
f 949/949 950/950 951/951
f 447/447 448/448 449/449
f 617/617 618/618 619/619
f 633/633 634/634 635/635
f 119/119 122/122 123/123
f 617/617 620/620 618/618
f 706/706 707/707 708/708
f 373/373 374/374 375/375
f 671/671 672/672 673/673
f 952/952 953/953 954/954
f 953/953 952/952 955/955
f 770/770 767/767 769/769
f 769/769 767/767 768/768
f 768/768 767/767 760/760
f 768/768 760/760 772/772
f 99/99 100/100 101/101
f 100/100 102/102 101/101
f 791/791 784/784 765/765
f 791/791 765/765 792/792
f 383/383 384/384 385/385
f 292/292 291/291 296/296
f 26/26 27/27 28/28
f 833/833 830/830 831/831
f 248/248 250/250 252/252
f 253/253 252/252 250/250
f 768/768 772/772 784/784
f 784/784 772/772 765/765
f 767/767 778/778 766/766
f 767/767 766/766 760/760
f 805/805 807/807 816/816
f 804/804 807/807 805/805
f 43/43 44/44 45/45
f 217/217 219/219 225/225
f 225/225 219/219 223/223
f 604/604 605/605 606/606
f 209/209 215/215 225/225
f 659/659 660/660 661/661
f 656/656 657/657 658/658
f 662/662 659/659 661/661
f 674/674 675/675 676/676
f 663/663 662/662 661/661
f 663/663 661/661 664/664
f 156/156 152/152 153/153
f 663/663 664/664 665/665
f 663/663 665/665 666/666
f 315/315 312/312 314/314
f 312/312 313/313 314/314
f 956/956 957/957 958/958
f 958/958 957/957 959/959
f 150/150 151/151 152/152
f 152/152 151/151 153/153
f 150/150 154/154 151/151
f 154/154 155/155 151/151
f 680/680 679/679 675/675
f 749/749 750/750 751/751
f 257/257 254/254 256/256
f 254/254 255/255 256/256
f 675/675 679/679 678/678
f 675/675 678/678 677/677
f 743/743 744/744 745/745
f 237/237 236/236 232/232
f 232/232 236/236 231/231
f 226/226 231/231 235/235
f 236/236 235/235 231/231
f 231/231 226/226 224/224
f 216/216 231/231 224/224
f 7/7 8/8 9/9
f 312/312 316/316 313/313
f 235/235 238/238 227/227
f 226/226 235/235 227/227
f 279/279 276/276 278/278
f 732/732 733/733 734/734
f 215/215 218/218 216/216
f 215/215 216/216 217/217
f 216/216 232/232 231/231
f 218/218 232/232 216/216
f 810/810 808/808 809/809
f 809/809 808/808 806/806
f 223/223 219/219 222/222
f 222/222 219/219 221/221
f 808/808 804/804 806/806
f 804/804 805/805 806/806
f 960/960 961/961 962/962
f 963/963 964/964 965/965
f 224/224 226/226 220/220
f 226/226 227/227 220/220
f 217/217 216/216 219/219
f 219/219 216/216 224/224
f 219/219 220/220 221/221
f 224/224 220/220 219/219
f 664/664 667/667 665/665
f 675/675 677/677 676/676
f 678/678 681/681 677/677
f 428/428 430/430 434/434
f 428/428 429/429 430/430
f 429/429 431/431 430/430
f 429/429 432/432 431/431
f 431/431 432/432 433/433
f 783/783 788/788 787/787
f 783/783 787/787 786/786
f 966/966 967/967 968/968
f 967/967 969/969 968/968
f 267/267 268/268 269/269
f 268/268 270/270 269/269
f 542/542 533/533 538/538
f 96/96 97/97 98/98
f 970/970 971/971 972/972
f 970/970 972/972 973/973
f 763/763 780/780 775/775
f 775/775 780/780 789/789
f 291/291 292/292 293/293
f 291/291 293/293 294/294
f 764/764 757/757 761/761
f 774/774 764/764 761/761
f 801/801 802/802 803/803
f 295/295 286/286 288/288
f 172/172 175/175 173/173
f 173/173 175/175 176/176
f 762/762 759/759 763/763
f 761/761 759/759 762/762
f 293/293 288/288 294/294
f 293/293 295/295 288/288
f 288/288 287/287 289/289
f 825/825 827/827 826/826
f 469/469 466/466 468/468
f 289/289 287/287 290/290
f 172/172 174/174 177/177
f 466/466 467/467 468/468
f 137/137 138/138 139/139
f 543/543 542/542 538/538
f 1/1 2/2 3/3
f 172/172 173/173 174/174
f 286/286 287/287 288/288
f 783/783 786/786 759/759
f 758/758 783/783 759/759
f 757/757 759/759 761/761
f 757/757 758/758 759/759
f 760/760 757/757 772/772
f 760/760 758/758 757/757
f 758/758 760/760 766/766
f 758/758 766/766 783/783
f 772/772 757/757 765/765
f 765/765 757/757 764/764
f 376/376 377/377 378/378
f 432/432 429/429 428/428
f 781/781 762/762 779/779
f 779/779 762/762 773/773
f 180/180 173/173 176/176
f 345/345 349/349 346/346
f 786/786 780/780 759/759
f 759/759 780/780 763/763
f 345/345 346/346 347/347
f 347/347 348/348 345/345
f 174/174 173/173 178/178
f 173/173 179/179 178/178
f 773/773 775/775 777/777
f 777/777 775/775 782/782
f 762/762 763/763 773/773
f 763/763 775/775 773/773
f 149/149 146/146 148/148
f 146/146 147/147 148/148
f 357/357 358/358 359/359
f 357/357 356/356 358/358
f 974/974 975/975 976/976
f 977/977 978/978 979/979
f 930/930 931/931 932/932
f 984/984 985/985 986/986
f 984/984 986/986 987/987
f 992/992 993/993 989/989
f 992/992 989/989 988/988
f 356/356 368/368 367/367
f 356/356 355/355 366/366
f 356/356 366/366 368/368
f 358/358 356/356 367/367
f 994/994 995/995 996/996
f 997/997 994/994 996/996
f 998/998 1001/1001 999/999
f 998/998 999/999 1000/1000
f 361/361 355/355 354/354
f 354/354 355/355 356/356
f 354/354 356/356 357/357
f 1002/1002 1003/1003 1004/1004
f 1004/1004 1003/1003 1005/1005
f 364/364 365/365 363/363
f 364/364 363/363 362/362
f 115/115 110/110 109/109
f 108/108 109/109 110/110
f 591/591 590/590 593/593
f 752/752 756/756 755/755
f 753/753 752/752 755/755
f 593/593 590/590 594/594
f 1010/1010 1011/1011 1012/1012
f 1012/1012 1011/1011 1013/1013
f 1019/1019 1014/1014 1018/1018
f 1018/1018 1014/1014 1016/1016
f 1014/1014 1017/1017 1015/1015
f 1014/1014 1015/1015 1016/1016
f 988/988 990/990 991/991
f 988/988 989/989 990/990
f 457/457 453/453 455/455
f 458/458 457/457 455/455
f 455/455 454/454 456/456
f 453/453 454/454 455/455
f 1006/1006 1009/1009 1007/1007
f 1006/1006 1007/1007 1008/1008
f 520/520 521/521 522/522
f 771/771 769/769 776/776
f 523/523 532/532 530/530
f 531/531 523/523 530/530
f 111/111 109/109 108/108
f 111/111 108/108 112/112
f 114/114 111/111 113/113
f 113/113 111/111 112/112
f 46/46 47/47 48/48
f 1020/1020 1021/1021 1022/1022
f 128/128 125/125 127/127
f 770/770 769/769 771/771
f 49/49 50/50 51/51
f 565/565 566/566 567/567
f 129/129 131/131 125/125
f 128/128 129/129 125/125
f 563/563 566/566 565/565
f 129/129 136/136 132/132
f 129/129 132/132 131/131
f 131/131 132/132 130/130
f 357/357 359/359 360/360
f 980/980 981/981 982/982
f 980/980 982/982 983/983
f 306/306 304/304 303/303
f 303/303 304/304 305/305
f 411/411 412/412 413/413
f 300/300 301/301 302/302
f 308/308 302/302 304/304
f 304/304 302/302 301/301
f 342/342 343/343 339/339
f 341/341 340/340 337/337
f 340/340 338/338 337/337
f 337/337 338/338 339/339
f 339/339 338/338 342/342
f 339/339 343/343 344/344
f 305/305 301/301 307/307
f 305/305 304/304 301/301
f 636/636 637/637 638/638
f 607/607 608/608 609/609
f 1023/1023 1024/1024 1025/1025
f 297/297 298/298 299/299
f 52/52 53/53 54/54
f 450/450 451/451 452/452
f 629/629 630/630 631/631
f 632/632 629/629 631/631
f 613/613 614/614 615/615
f 613/613 615/615 616/616
f 261/261 264/264 262/262
f 261/261 262/262 263/263
f 266/266 261/261 265/265
f 261/261 263/263 265/265
f 326/326 327/327 328/328
f 327/327 329/329 328/328
f 1026/1026 1027/1027 1028/1028
f 1028/1028 1027/1027 1029/1029
f 317/317 318/318 319/319
f 668/668 669/669 670/670
f 361/361 362/362 355/355
f 363/363 355/355 362/362
f 474/474 475/475 476/476
f 474/474 477/477 475/475
f 554/554 555/555 556/556
f 556/556 555/555 557/557
f 417/417 416/416 418/418
f 722/722 723/723 724/724
f 725/725 723/723 722/722
f 752/752 753/753 754/754
f 513/513 514/514 515/515
f 702/702 703/703 704/704
f 705/705 702/702 704/704
f 423/423 417/417 421/421
f 421/421 417/417 418/418
f 1031/1031 1033/1033 1032/1032
f 1030/1030 1031/1031 1032/1032
f 372/372 370/370 369/369
f 369/369 370/370 371/371
f 334/334 336/336 335/335
f 333/333 334/334 335/335
f 414/414 416/416 417/417
f 127/127 126/126 133/133
f 125/125 126/126 127/127
f 159/159 160/160 157/157
f 157/157 158/158 159/159
f 183/183 184/184 186/186
f 183/183 182/182 184/184
f 93/93 94/94 90/90
f 93/93 90/90 89/89
f 561/561 563/563 568/568
f 568/568 563/563 565/565
f 1034/1034 1035/1035 1036/1036
f 1037/1037 1035/1035 1034/1034
f 1038/1038 1039/1039 1040/1040
f 1041/1041 1042/1042 1043/1043
f 1042/1042 1044/1044 1043/1043
f 58/58 59/59 60/60
f 60/60 59/59 65/65
f 157/157 164/164 165/165
f 158/158 157/157 165/165
f 63/63 62/62 60/60
f 63/63 60/60 64/64
f 689/689 690/690 691/691
f 712/712 713/713 714/714
f 60/60 61/61 58/58
f 62/62 61/61 60/60
f 1045/1045 1046/1046 1047/1047
f 898/898 899/899 900/900
f 381/381 382/382 379/379
f 161/161 162/162 163/163
f 67/67 66/66 68/68
f 67/67 64/64 66/66
f 558/558 559/559 560/560
f 814/814 810/810 809/809
f 598/598 599/599 600/600
f 1054/1054 1052/1052 1051/1051
f 1048/1048 1049/1049 1050/1050
f 1055/1055 1057/1057 1058/1058
f 1051/1051 1052/1052 1053/1053
f 740/740 739/739 741/741
f 741/741 739/739 742/742
f 838/838 839/839 840/840
f 239/239 240/240 241/241
f 738/738 739/739 740/740
f 441/441 442/442 443/443
f 742/742 740/740 741/741
f 4/4 5/5 6/6
f 1068/1068 1064/1064 1069/1069
f 1069/1069 1064/1064 1070/1070
f 1063/1063 1064/1064 1065/1065
f 1065/1065 1064/1064 1068/1068
f 1071/1071 1072/1072 1073/1073
f 1059/1059 1060/1060 1061/1061
f 1061/1061 1060/1060 1062/1062
f 1055/1055 1056/1056 1057/1057
f 140/140 141/141 142/142
f 143/143 142/142 141/141
f 416/416 420/420 419/419
f 418/418 416/416 419/419
f 581/581 579/579 578/578
f 578/578 579/579 580/580
f 584/584 585/585 586/586
f 491/491 492/492 493/493
f 492/492 494/494 493/493
f 1074/1074 1075/1075 1076/1076
f 436/436 440/440 437/437
f 20/20 21/21 22/22
f 435/435 436/436 437/437
f 438/438 436/436 435/435
f 699/699 700/700 701/701
f 709/709 710/710 711/711
f 625/625 626/626 621/621
f 625/625 621/621 623/623
f 624/624 623/623 622/622
f 621/621 622/622 623/623
f 512/512 510/510 509/509
f 509/509 510/510 511/511
f 1080/1080 1078/1078 1077/1077
f 1077/1077 1078/1078 1079/1079
f 415/415 424/424 426/426
f 424/424 415/415 422/422
f 459/459 462/462 460/460
f 459/459 460/460 461/461
f 641/641 642/642 639/639
f 639/639 640/640 641/641
f 588/588 587/587 584/584
f 584/584 587/587 585/585
f 502/502 503/503 504/504
f 23/23 24/24 25/25
f 425/425 424/424 422/422
f 425/425 427/427 424/424
f 439/439 440/440 436/436
f 610/610 611/611 612/612
f 685/685 688/688 686/686
f 685/685 686/686 687/687
f 518/518 517/517 519/519
f 516/516 517/517 518/518
f 242/242 243/243 244/244
f 271/271 272/272 273/273
f 243/243 242/242 246/246
f 246/246 242/242 247/247
f 271/271 273/273 274/274
f 244/244 243/243 245/245
f 583/583 579/579 582/582
f 579/579 581/581 582/582
f 650/650 651/651 652/652
f 585/585 589/589 586/586
f 746/746 747/747 748/748
f 621/621 626/626 627/627
f 621/621 627/627 628/628
f 410/410 408/408 406/406
f 406/406 408/408 407/407
f 1090/1090 1091/1091 1092/1092
f 1095/1095 1096/1096 1097/1097
f 1101/1101 1102/1102 1103/1103
f 409/409 406/406 405/405
f 405/405 406/406 407/407
f 1092/1092 1091/1091 1094/1094
f 1084/1084 1085/1085 1086/1086
f 1087/1087 1085/1085 1084/1084
f 1091/1091 1093/1093 1094/1094
f 321/321 324/324 323/323
f 324/324 325/325 323/323
f 595/595 596/596 597/597
f 590/590 591/591 592/592
f 941/941 943/943 940/940
f 13/13 14/14 15/15
f 16/16 17/17 18/18
f 16/16 19/19 17/17
f 499/499 500/500 501/501
f 570/570 571/571 572/572
f 140/140 144/144 145/145
f 142/142 144/144 140/140
f 124/124 121/121 116/116
f 121/121 117/117 116/116
f 388/388 389/389 391/391
f 387/387 389/389 388/388
f 386/386 387/387 388/388
f 386/386 390/390 387/387
f 121/121 122/122 119/119
f 320/320 321/321 322/322
f 321/321 323/323 322/322
f 204/204 205/205 206/206
f 204/204 208/208 205/205
f 205/205 207/207 206/206
f 118/118 117/117 119/119
f 120/120 116/116 118/118
f 116/116 117/117 118/118
f 285/285 282/282 284/284
f 282/282 283/283 284/284
f 117/117 121/121 119/119
f 353/353 350/350 352/352
f 350/350 351/351 352/352
f 61/61 70/70 69/69
f 58/58 61/61 69/69
f 59/59 71/71 72/72
f 59/59 72/72 65/65
f 64/64 60/60 65/65
f 64/64 65/65 66/66
f 65/65 72/72 66/66
f 258/258 259/259 260/260
f 1102/1102 1104/1104 1103/1103
f 1102/1102 1101/1101 1104/1104
f 1105/1105 1106/1106 1107/1107
f 1098/1098 1099/1099 1100/1100
f 1067/1067 1063/1063 1066/1066
f 1066/1066 1063/1063 1065/1065
f 1088/1088 1089/1089 1086/1086
f 1085/1085 1088/1088 1086/1086
f 1081/1081 1082/1082 1083/1083
f 524/524 527/527 525/525
f 90/90 92/92 91/91
f 89/89 90/90 91/91
f 524/524 529/529 527/527
f 525/525 527/527 528/528
f 528/528 527/527 530/530
f 531/531 530/530 527/527
f 92/92 95/95 91/91
f 568/568 565/565 569/569
f 569/569 565/565 567/567
f 134/134 133/133 135/135
f 134/134 127/127 133/133
f 69/69 71/71 58/58
f 58/58 71/71 59/59
f 1111/1111 1108/1108 1110/1110
f 1108/1108 1109/1109 1110/1110
f 1112/1112 1113/1113 1114/1114
f 1119/1119 1120/1120 1121/1121
f 1115/1115 1116/1116 1117/1117
f 1118/1118 1115/1115 1117/1117
