v -0.334647 0.135764 -0.379271 0.0118 0.0667 0.1399
v -0.385823 0.139221 -0.275828 0.0117 0.0666 0.1398
v -0.376489 0.069536 -0.096283 0.5000 0.5000 0.5000
v -0.357889 0.045495 -0.001221 0.0082 0.0462 0.1022
v -0.339740 0.063330 0.022821 0.0118 0.0758 0.1542
v -0.288356 0.108651 0.257992 0.0050 0.0610 0.1351
v -0.266848 0.117357 0.368533 0.0050 0.0484 0.1144
v -0.267156 0.101487 0.387767 0.0402 0.1112 0.2117
v -0.376831 0.208264 -0.332173 0.0117 0.0666 0.1398
v -0.383700 0.148961 -0.285595 0.0105 0.0641 0.1346
v -0.329418 0.293670 -0.096750 0.0000 0.0863 0.1725
v -0.266352 0.282854 0.005654 0.0042 0.0962 0.1823
v -0.341219 0.193747 0.120262 0.0040 0.1195 0.2200
v -0.343456 0.254249 0.142256 0.0017 0.1173 0.2240
v -0.282667 0.154230 0.302694 0.1039 0.1450 0.2204
v -0.272588 0.181507 0.460885 0.1872 0.1232 0.1969
v -0.349086 0.343803 -0.355268 0.5000 0.5000 0.5000
v -0.330362 0.332033 -0.283082 0.5000 0.5000 0.5000
v -0.266322 0.403984 -0.105047 0.0001 0.0681 0.1436
v -0.266854 0.321830 0.007478 0.0002 0.0889 0.1764
v -0.320634 0.443456 0.043897 0.0240 0.3445 0.4742
v -0.334459 0.294865 0.154294 0.0122 0.2068 0.3217
v -0.294119 0.369993 0.283155 0.1583 0.1323 0.2366
v -0.348719 0.451874 -0.405438 0.0052 0.0863 0.1804
v -0.313798 0.573417 -0.214795 0.5000 0.5000 0.5000
v -0.323201 0.450890 -0.143219 0.0026 0.1063 0.1946
v -0.275805 0.582025 -0.006768 0.0025 0.0887 0.1746
v -0.322903 0.494695 0.082838 0.0025 0.1183 0.2197
v -0.270343 0.520194 0.238049 0.0038 0.1136 0.2163
v -0.277734 0.456543 0.315948 0.0000 0.1200 0.2230
v -0.339478 0.603787 -0.365274 0.0052 0.0863 0.1804
v -0.312595 0.602833 -0.229634 0.2311 0.2866 0.3408
v -0.313187 0.671391 -0.146197 0.0612 0.2031 0.3094
v -0.317915 0.628455 -0.032039 0.1005 0.3020 0.3991
v -0.276658 0.646039 0.085121 0.0023 0.0906 0.1785
v -0.276708 0.627264 0.150458 0.0500 0.3148 0.4402
v -0.333499 0.758373 -0.219442 0.0615 0.1352 0.2130
v -0.333727 0.760861 -0.213377 0.1314 0.2979 0.3850
v -0.268175 0.876078 -0.077131 0.0670 0.1603 0.2443
v -0.266710 0.899362 0.131927 0.0165 0.0903 0.1815
v -0.267793 0.877885 0.176854 0.1197 0.4148 0.5374
v -0.266822 1.059866 -0.263015 0.0030 0.0744 0.1516
v -0.267183 1.058935 -0.176726 0.0065 0.0641 0.1359
v -0.266307 1.068729 -0.264929 0.0051 0.0912 0.1764
v -0.267061 1.065741 -0.179967 0.0050 0.0829 0.1667
v -0.141219 0.131445 0.371781 0.0248 0.1258 0.2031
v -0.181888 0.120338 0.416876 0.0495 0.1875 0.2956
v -0.246573 0.294175 0.006044 0.0000 0.1394 0.2688
v -0.246572 0.293987 0.028627 0.0000 0.1624 0.2993
v -0.241865 0.293793 0.254813 0.0000 0.1676 0.3054
v -0.242359 0.294113 0.260609 0.1112 0.1719 0.2357
v -0.177497 0.143585 0.426923 0.2352 0.1618 0.2246
v -0.264142 0.403600 -0.103263 0.0002 0.1659 0.2904
v -0.246064 0.297201 0.000303 0.0012 0.1415 0.2511
v -0.245778 0.296471 0.026315 0.0349 0.4575 0.5900
v -0.240904 0.300597 0.255372 0.0436 0.4937 0.6267
v -0.241696 0.305991 0.259691 0.1151 0.1274 0.2331
v -0.136093 0.534591 -0.133146 0.0034 0.0943 0.1709
v -0.265387 0.579627 0.017374 0.0191 0.0755 0.1470
v -0.265504 0.593484 0.030631 0.0090 0.1269 0.2339
v -0.265700 0.511290 0.235503 0.3332 0.3991 0.4113
v -0.249156 0.555667 0.304091 0.5870 0.5401 0.4571
v -0.136093 0.664956 -0.097154 0.0203 0.1312 0.2368
v -0.137154 0.665550 -0.091376 0.0573 0.0646 0.1704
v -0.136263 0.653564 0.140562 0.0640 0.0891 0.1970
v -0.216922 0.656954 0.257978 0.1924 0.3391 0.4097
v -0.228647 0.663293 0.265013 0.8233 0.7361 0.5864
v -0.137057 0.898447 -0.119594 0.0291 0.0841 0.1738
v -0.170532 0.860725 -0.095212 0.0505 0.0513 0.1544
v -0.224773 0.866447 0.065930 0.0739 0.0629 0.1678
v -0.260747 0.863252 0.180702 0.0232 0.1175 0.2268
v -0.248311 1.059092 -0.263474 0.0039 0.0882 0.1700
v -0.136611 0.987704 -0.125994 0.0104 0.0605 0.1324
v -0.244454 1.072530 -0.263695 0.0044 0.0922 0.1812
v -0.235836 1.089868 -0.162963 0.0044 0.0865 0.1691
v -0.080832 0.130857 0.376962 0.0341 0.2626 0.3955
v -0.130362 0.121606 0.427831 0.1281 0.3896 0.5109
v -0.093979 0.142485 0.434609 0.1565 0.2763 0.3696
v -0.015920 0.445354 0.016934 0.0000 0.1566 0.2861
v -0.006630 0.427565 0.068844 0.0000 0.1643 0.2957
v -0.015539 0.597186 -0.138126 0.0000 0.1749 0.2967
v -0.031391 0.456483 0.016941 0.0210 0.1260 0.2330
v -0.015584 0.449819 0.073337 0.0143 0.1354 0.2496
v -0.005961 0.562061 0.258928 0.6788 0.5887 0.4774
v -0.062412 0.591399 0.289897 0.8280 0.7183 0.5691
v -0.008212 0.665969 -0.099081 0.1165 0.0826 0.1694
v -0.011366 0.664798 -0.067550 0.2891 0.0221 0.1050
v -0.035896 0.644364 0.135020 0.3590 0.0352 0.1099
v -0.041618 0.660688 0.242873 0.5528 0.3645 0.3277
v -0.020261 0.601144 0.260002 0.8554 0.7657 0.6110
v -0.042803 0.760472 -0.111272 0.0492 0.0679 0.1478
v -0.097007 0.920787 -0.144273 0.0392 0.0512 0.1342
v 0.074228 0.130187 0.375850 0.0000 0.1359 0.2648
v 0.121550 0.120549 0.425503 0.1571 0.3294 0.4438
v 0.114128 0.150231 0.457714 0.1558 0.2963 0.4092
v -0.003039 0.436113 0.018145 0.0000 0.1573 0.2873
v 0.121558 0.350804 0.051794 0.0001 0.1471 0.2676
v 0.020776 0.594508 -0.137976 0.0000 0.1780 0.3030
v 0.000151 0.473072 0.017803 0.0000 0.1335 0.2419
v 0.023959 0.447802 0.067909 0.0002 0.1403 0.2548
v 0.071028 0.592499 0.258973 0.5922 0.4262 0.3037
v -0.005223 0.573359 0.287834 0.7553 0.5913 0.4554
v 0.048449 0.665461 -0.096447 0.1746 0.1053 0.1944
v 0.099408 0.655221 -0.027339 0.4337 0.0355 0.0845
v 0.116146 0.655254 0.109088 0.3049 0.0247 0.1127
v 0.090574 0.653176 0.143656 0.5125 0.2547 0.2174
v 0.056428 0.601198 0.285792 0.6803 0.5362 0.4331
v -0.001739 0.766043 -0.111848 0.0894 0.0595 0.1474
v -0.003417 0.981095 -0.138205 0.0427 0.0586 0.1497
v 0.145208 0.131864 0.372414 0.0049 0.0657 0.1346
v 0.161527 0.120241 0.419567 0.0282 0.1094 0.2070
v 0.242321 0.294020 0.004002 0.0017 0.1102 0.2190
v 0.242109 0.293902 0.029051 0.0001 0.1804 0.3239
v 0.237036 0.293414 0.251747 0.0016 0.1354 0.2519
v 0.247598 0.202190 0.376991 0.0478 0.1362 0.2248
v 0.226061 0.144426 0.423779 0.1643 0.2685 0.3624
v 0.232315 0.434179 -0.127398 0.0001 0.1428 0.2597
v 0.240864 0.299998 0.002423 0.0000 0.1661 0.2949
v 0.155939 0.350390 0.073309 0.0076 0.2398 0.3678
v 0.235856 0.302194 0.253618 0.0201 0.3762 0.4918
v 0.236193 0.300916 0.259204 0.0433 0.2190 0.3286
v 0.167514 0.525981 -0.131408 0.0083 0.1097 0.2058
v 0.245275 0.538535 0.021382 0.0021 0.0503 0.1058
v 0.128510 0.558862 0.064673 0.0000 0.1250 0.2259
v 0.159051 0.598526 0.258498 0.1898 0.2441 0.2788
v 0.239065 0.593600 0.283589 0.2427 0.3943 0.4593
v 0.126745 0.665026 -0.097077 0.0327 0.1969 0.3092
v 0.125238 0.662329 -0.051579 0.1937 0.0320 0.1114
v 0.127879 0.655973 0.034793 0.1097 0.0264 0.1298
v 0.127304 0.656652 0.144893 0.2799 0.2458 0.2334
v 0.180159 0.664817 0.259972 0.8111 0.6975 0.5462
v 0.136687 0.795741 -0.111697 0.0139 0.1130 0.2141
v 0.184043 0.763622 -0.093798 0.0607 0.0333 0.1115
v 0.240291 0.899305 0.049051 0.1003 0.0333 0.1100
v 0.239527 0.874912 0.177993 0.0953 0.0487 0.1255
v 0.223459 1.059081 -0.246056 0.0040 0.0839 0.1742
v 0.173226 1.028612 -0.123547 0.0308 0.0710 0.1647
v 0.244195 1.099502 -0.241240 0.0075 0.0965 0.1926
v 0.243176 1.100000 -0.209370 0.0226 0.1579 0.2578
v 0.321680 0.136203 -0.376812 0.0000 0.1948 0.3216
v 0.332901 0.010021 -0.216367 0.0563 0.1925 0.2836
v 0.334864 0.000000 -0.154921 0.1645 0.3296 0.3914
v 0.337909 0.005021 -0.092839 0.1028 0.3102 0.4180
v 0.334704 0.066672 0.027296 0.0052 0.0719 0.1569
v 0.328053 0.093432 0.233017 0.0062 0.0568 0.1275
v 0.351128 0.119342 0.274349 0.0067 0.0624 0.1334
v 0.254679 0.138947 0.378029 0.0146 0.0601 0.1231
v 0.309081 0.291614 -0.438114 0.0021 0.1684 0.2809
v 0.376589 0.165609 -0.331704 0.0958 0.2466 0.3447
v 0.330214 0.263799 -0.143715 0.5000 0.5000 0.5000
v 0.257946 0.282359 0.004735 0.1547 0.4679 0.6308
v 0.258116 0.281666 0.028010 0.0445 0.1572 0.2550
v 0.309053 0.285246 0.142993 0.0026 0.1219 0.2257
v 0.333355 0.163713 0.268519 0.0626 0.1140 0.2090
v 0.264570 0.141672 0.377344 0.3033 0.1692 0.2550
v 0.311749 0.338717 -0.447063 0.5000 0.5000 0.5000
v 0.339565 0.299378 -0.222833 0.5000 0.5000 0.5000
v 0.338874 0.309850 -0.212869 0.0001 0.1519 0.2729
v 0.255740 0.323569 0.003469 0.0000 0.1311 0.2411
v 0.274152 0.295603 0.027702 0.0175 0.3304 0.4431
v 0.300342 0.444256 0.159543 0.0094 0.2318 0.3424
v 0.292331 0.369965 0.284605 0.0833 0.2122 0.3298
v 0.299001 0.551483 -0.426354 0.0092 0.0928 0.1895
v 0.312426 0.598689 -0.226002 0.5000 0.5000 0.5000
v 0.305814 0.468215 -0.143269 0.0101 0.1170 0.2227
v 0.317447 0.600039 -0.029416 0.0149 0.0672 0.1509
v 0.284900 0.588165 0.125425 0.0030 0.0791 0.1601
v 0.290118 0.546671 0.141016 0.0134 0.1252 0.2186
v 0.272684 0.450583 0.333963 0.0388 0.2493 0.3723
v 0.297486 0.685411 -0.362084 0.0092 0.0928 0.1895
v 0.306325 0.654290 -0.255325 0.0043 0.0956 0.1992
v 0.263416 0.676766 -0.141745 0.0196 0.1238 0.2230
v 0.282582 0.741549 -0.081430 0.0113 0.0744 0.1637
v 0.315473 0.731127 0.045935 0.0124 0.0786 0.1643
v 0.277186 0.712550 0.171947 0.0225 0.0634 0.1344
v 0.301240 0.798990 -0.224570 0.0000 0.0980 0.2052
v 0.301563 0.803914 -0.211237 0.0119 0.1781 0.2855
v 0.274657 0.755472 -0.061336 0.0157 0.0525 0.1212
v 0.301123 0.758744 0.031937 0.0944 0.0470 0.1303
v 0.266881 0.874833 0.178146 0.0825 0.0569 0.1398
v 0.262183 1.059803 -0.243591 0.0024 0.0891 0.1763
v 0.261782 1.059166 -0.180315 0.0041 0.1009 0.2092
v 0.256139 1.094296 -0.246965 0.0024 0.0994 0.1918
v 0.255217 1.096218 -0.180700 0.0058 0.0814 0.1615
v 0.385101 0.130265 -0.287800 0.1950 0.3455 0.4093
v 0.385088 0.065526 -0.130335 0.1361 0.2890 0.3496
v 0.385145 0.098595 -0.040262 0.1230 0.4032 0.5397
v 0.384971 0.142374 0.008138 0.1753 0.4910 0.6560
f 103 86 87
f 87 104 103
f 127 103 128
f 103 104 128
f 91 86 108
f 103 108 86
f 92 68 73
f 68 92 91
f 63 68 86
f 91 86 68
f 92 91 109
f 91 108 109
f 86 63 87
f 132 103 108
f 127 103 132
f 87 86 104
f 86 103 104
f 137 108 109
f 108 137 132
f 81 98 86
f 86 98 103
f 112 113 118
f 118 113 119
f 113 151 152
f 113 112 151
f 8 46 47
f 7 46 8
f 47 46 76
f 77 47 76
f 77 46 47
f 77 76 46
f 52 47 78
f 78 47 77
f 16 8 52
f 8 47 52
f 77 47 52
f 77 52 78
f 137 139 184
f 137 184 182
f 128 133 132
f 132 127 128
f 122 103 127
f 122 98 103
f 138 139 183
f 183 139 184
f 181 183 184
f 182 181 184
f 181 136 183
f 136 138 183
f 137 136 182
f 182 136 181
f 139 138 137
f 138 136 137
f 174 178 179
f 173 178 174
f 182 132 137
f 177 132 182
f 132 133 178
f 177 132 178
f 134 180 179
f 128 127 133
f 133 127 132
f 133 134 179
f 178 133 179
f 180 134 135
f 108 103 127
f 108 127 132
f 83 80 100
f 100 80 97
f 49 48 54
f 49 54 55
f 137 182 139
f 182 184 139
f 74 44 72
f 42 44 74
f 42 72 44
f 72 42 74
f 74 44 45
f 74 45 75
f 75 72 73
f 44 75 45
f 74 75 44
f 72 75 74
f 45 43 73
f 45 73 75
f 63 64 87
f 69 64 68
f 64 63 68
f 86 91 103
f 103 91 108
f 68 91 73
f 73 91 92
f 68 63 91
f 63 86 91
f 40 41 70
f 70 41 71
f 39 40 70
f 69 39 70
f 105 128 129
f 105 104 128
f 129 105 130
f 105 106 130
f 106 105 129
f 106 129 130
f 172 127 177
f 177 127 132
f 152 153 161
f 176 171 177
f 177 171 172
f 177 172 173
f 178 177 173
f 19 20 54
f 20 54 12
f 12 54 48
f 20 53 54
f 20 19 53
f 12 11 19
f 53 19 54
f 27 19 20
f 84 102 85
f 102 84 101
f 84 89 106
f 101 84 106
f 61 62 66
f 84 62 61
f 61 66 89
f 85 62 84
f 84 61 89
f 62 67 66
f 65 64 88
f 88 64 87
f 88 87 105
f 87 104 105
f 89 88 105
f 89 105 106
f 66 65 89
f 88 89 106
f 88 106 105
f 87 88 104
f 104 88 105
f 64 63 86
f 64 86 87
f 88 65 89
f 67 90 89
f 66 67 89
f 90 85 107
f 107 85 102
f 90 67 62
f 62 85 90
f 107 102 131
f 107 131 130
f 106 107 130
f 131 102 126
f 84 85 89
f 89 85 90
f 106 89 107
f 89 90 107
f 126 125 131
f 125 130 131
f 101 102 125
f 126 102 125
f 125 106 130
f 125 101 106
f 145 154 153
f 145 146 154
f 151 159 152
f 146 145 153
f 146 153 154
f 122 127 165
f 165 127 172
f 173 172 166
f 165 166 172
f 122 123 166
f 165 122 166
f 166 123 167
f 167 123 124
f 122 165 172
f 127 122 172
f 134 133 178
f 134 178 179
f 175 130 180
f 180 130 135
f 32 38 37
f 32 33 38
f 8 7 16
f 46 52 47
f 46 7 16
f 52 16 15
f 52 46 16
f 52 15 51
f 54 20 21
f 54 21 55
f 56 49 55
f 50 49 56
f 55 21 56
f 21 22 56
f 14 6 15
f 6 7 15
f 12 48 49
f 49 48 13
f 12 13 21
f 20 12 21
f 13 12 49
f 21 13 22
f 14 13 49
f 22 13 14
f 14 49 50
f 15 23 51
f 51 23 57
f 22 23 57
f 56 22 57
f 14 51 15
f 51 14 50
f 15 51 57
f 23 15 57
f 14 15 22
f 22 15 23
f 50 56 51
f 51 56 57
f 30 61 62
f 30 29 61
f 6 7 14
f 14 7 15
f 15 16 23
f 57 52 51
f 23 16 52
f 23 52 57
f 57 23 30
f 57 30 62
f 177 172 178
f 172 173 178
f 163 171 170
f 141 185 186
f 142 141 186
f 185 149 141
f 185 141 142
f 185 142 186
f 174 168 175
f 167 168 174
f 173 167 174
f 166 167 173
f 168 125 169
f 169 125 126
f 168 124 167
f 125 124 168
f 168 130 175
f 125 130 168
f 146 147 155
f 110 111 147
f 146 110 147
f 94 111 95
f 116 95 111
f 111 146 147
f 116 111 147
f 116 147 155
f 125 168 126
f 126 168 169
f 121 126 169
f 162 121 169
f 121 162 126
f 126 162 169
f 152 160 161
f 159 118 119
f 159 119 160
f 114 113 153
f 113 152 153
f 119 113 114
f 119 114 120
f 174 175 179
f 179 175 180
f 115 155 116
f 155 115 154
f 121 154 162
f 121 115 154
f 115 121 162
f 162 154 115
f 155 154 162
f 153 161 162
f 161 120 162
f 120 121 162
f 160 120 161
f 160 119 120
f 110 146 111
f 93 110 111
f 94 93 111
f 116 94 95
f 111 94 116
f 154 153 162
f 114 153 154
f 115 114 154
f 120 114 115
f 120 115 121
f 151 188 152
f 149 148 141
f 140 141 148
f 143 187 151
f 151 187 188
f 142 186 187
f 143 142 187
f 186 143 187
f 186 142 143
f 58 63 86
f 81 58 86
f 38 33 34
f 39 38 34
f 33 32 37
f 33 37 38
f 22 21 28
f 28 22 29
f 65 64 60
f 60 64 59
f 64 63 69
f 63 68 69
f 28 27 59
f 28 59 60
f 58 27 59
f 26 58 59
f 59 58 63
f 26 27 58
f 27 26 59
f 59 63 64
f 69 39 40
f 69 40 70
f 41 36 66
f 41 66 71
f 65 70 71
f 36 29 61
f 36 61 66
f 35 36 40
f 40 36 41
f 66 65 71
f 28 60 61
f 29 28 61
f 61 65 66
f 61 60 65
f 65 64 69
f 65 69 70
f 19 53 58
f 26 19 58
f 59 27 60
f 27 28 60
f 96 99 97
f 79 82 96
f 83 82 79
f 80 83 79
f 79 96 80
f 99 96 82
f 80 96 97
f 99 82 100
f 119 96 118
f 27 28 35
f 34 27 35
f 35 28 36
f 36 28 29
f 39 35 40
f 83 100 97
f 83 80 97
f 96 119 97
f 99 100 97
f 82 83 100
f 65 59 64
f 59 65 60
f 82 59 60
f 82 60 83
f 113 112 119
f 119 118 112
f 59 82 83
f 60 59 83
f 143 151 152
f 160 167 161
f 161 167 168
f 144 143 152
f 68 38 69
f 38 39 69
f 33 26 27
f 33 27 34
f 68 63 38
f 38 63 33
f 34 33 39
f 33 38 39
f 34 35 39
f 26 33 63
f 58 26 63
f 9 2 1
f 9 2 10
f 4 5 13
f 12 4 13
f 19 26 27
f 32 24 31
f 117 122 158
f 158 122 165
f 118 159 151
f 112 118 151
f 152 159 160
f 158 165 166
f 122 117 165
f 165 117 158
f 118 158 159
f 159 117 118
f 158 117 159
f 118 117 158
