v -2.080551 0.078484 -0.020034 0.0059 0.0317 0.1340
v -2.065619 0.071348 0.018955 0.0023 0.0250 0.1279
v -2.023365 0.083933 -0.037611 0.0115 0.0317 0.1331
v -2.006987 0.113642 -0.035369 0.0131 0.0340 0.1464
v -2.018913 0.172242 -0.098677 0.1569 0.1072 0.2810
v -2.006321 0.170091 -0.084493 0.1523 0.1065 0.2804
v -2.510440 0.189457 -0.120935 0.3160 0.2696 0.3882
v -2.576692 0.187193 -0.085305 0.1565 0.1083 0.2386
v -2.126623 0.231760 -0.108666 0.4684 0.3874 0.4754
v -2.164164 0.206063 -0.085273 0.5602 0.3856 0.5013
v -2.286091 0.249926 -0.104186 0.1133 0.1157 0.1744
v -2.739638 0.260567 -0.085273 0.4625 0.3488 0.4384
v -2.746949 0.264549 -0.155694 0.0817 0.0599 0.1305
v -2.762077 0.272632 -0.085016 0.1845 0.1334 0.1999
v -1.814014 0.053857 -0.011987 0.0014 0.0541 0.1593
v -1.813413 0.053721 -0.010157 0.0038 0.0107 0.0714
v -1.207255 0.040337 0.117582 0.0013 0.0327 0.1477
v -2.001064 0.076853 -0.037454 0.0038 0.0303 0.1177
v -1.820310 0.080027 0.000058 0.1863 0.1473 0.1879
v -1.618645 0.082406 0.065967 0.1428 0.0942 0.1373
v -2.005110 0.090170 -0.034503 0.0085 0.0268 0.0960
v -1.308628 0.112311 0.012117 0.1513 0.1735 0.2503
v -1.401909 0.108170 0.077441 0.2406 0.2188 0.2400
v -1.407807 0.143159 -0.088773 0.1203 0.0915 0.2092
v -1.207685 0.141211 -0.078646 0.0731 0.0579 0.1502
v -1.317816 0.139975 0.011935 0.2415 0.2715 0.3700
v -1.269339 0.141108 0.072998 0.2548 0.3250 0.3937
v -1.747274 0.172787 -0.140376 0.2576 0.1543 0.3225
v -1.924705 0.160664 -0.079836 0.1384 0.0924 0.2208
v -1.241612 0.145017 0.018360 0.1041 0.1190 0.1630
v -1.217735 0.166389 0.066761 0.2128 0.2422 0.2743
v -2.000691 0.177232 -0.112008 0.3036 0.2673 0.3618
v -1.315444 0.201574 -0.039015 0.1102 0.0768 0.1928
v -1.322374 0.176439 0.011935 0.1243 0.0713 0.0959
v -1.228597 0.192690 0.064861 0.4080 0.3947 0.4635
v -1.947396 0.229868 -0.089781 0.4097 0.3805 0.4439
v -1.332765 0.226067 -0.033399 0.4085 0.2989 0.3792
v -1.518093 0.204789 0.004607 0.0755 0.0753 0.1220
v -1.247989 0.209268 0.064905 0.2495 0.1952 0.2941
v -1.541953 0.247405 -0.085896 0.4410 0.4255 0.4861
v -1.544155 0.259544 -0.080384 0.5954 0.4599 0.5490
v -1.225892 0.255692 0.046108 0.0680 0.1019 0.1635
v -1.451921 0.235189 0.076776 0.0451 0.0903 0.1589
v -1.737956 0.263217 -0.099582 0.1181 0.0716 0.1602
v -1.454740 0.268969 -0.077467 0.2483 0.1770 0.2736
v -1.221237 0.263907 0.036364 0.2518 0.1802 0.3161
v -1.231254 0.293961 -0.098253 0.1129 0.0710 0.1592
v -1.328686 0.292993 -0.084723 0.0905 0.0560 0.1898
v -1.618442 0.292755 0.023608 0.3823 0.3561 0.4197
v -0.504834 0.011686 0.130764 0.5000 0.5000 0.5000
v -0.905947 0.029302 0.125011 0.0046 0.0316 0.1499
v -0.981022 0.083585 -0.010463 0.0134 0.0456 0.1635
v -0.977529 0.083241 -0.007035 0.0306 0.0480 0.1210
v -0.861630 0.083581 0.110470 0.0052 0.0314 0.1503
v -0.582720 0.104631 -0.010698 0.0349 0.0722 0.1866
v -0.441068 0.111503 0.002220 0.0390 0.0398 0.1072
v -0.409237 0.107067 0.077252 0.0123 0.0156 0.0356
v -0.880819 0.143001 -0.085757 0.2065 0.0993 0.2601
v -0.589357 0.115127 -0.010903 0.1063 0.0569 0.1487
v -0.435023 0.124963 0.003352 0.0827 0.0360 0.0767
v -1.176464 0.141314 0.065049 0.0160 0.0172 0.0391
v -1.183264 0.156392 -0.085773 0.2404 0.1327 0.3007
v -0.750167 0.144158 -0.010554 0.1660 0.0913 0.2131
v -0.452815 0.146157 0.001865 0.0404 0.0215 0.0470
v -1.186758 0.152254 0.064920 0.0057 0.0058 0.0117
v -0.781120 0.200691 -0.085986 0.2714 0.2086 0.3445
v -0.839361 0.188865 -0.064347 0.0987 0.0678 0.1612
v -0.471890 0.175558 0.001162 0.0325 0.0230 0.0618
v -1.093785 0.199662 0.064947 0.0060 0.0060 0.0083
v -0.820229 0.215928 -0.092551 0.5952 0.5993 0.6285
v -0.904225 0.203120 -0.067167 0.3359 0.2546 0.2975
v -0.451986 0.203050 0.004665 0.0297 0.0234 0.0471
v -1.094167 0.219382 0.065376 0.0405 0.0327 0.0525
v -0.967032 0.236306 -0.099729 0.5224 0.5279 0.5797
v -0.696563 0.232942 -0.070895 0.3574 0.2562 0.3375
v -0.394394 0.236223 0.018571 0.0765 0.0653 0.1144
v -1.195085 0.252565 0.066469 0.1161 0.1274 0.2155
v -0.957470 0.282982 -0.086377 0.3116 0.2291 0.3326
v -0.405793 0.271993 -0.056498 0.1605 0.1143 0.2255
v -0.643196 0.263798 -0.002895 0.3658 0.3184 0.4086
v -0.597059 0.277217 0.067812 0.3561 0.2535 0.3372
v -0.455204 0.292599 -0.099734 0.2154 0.0557 0.1468
v -0.592501 0.292645 -0.024945 0.1883 0.0511 0.1406
v -0.522236 0.292906 0.022684 0.4467 0.3657 0.4101
v -0.848347 0.294103 0.064814 0.8980 0.6497 0.6405
v -0.393704 0.011075 0.112094 0.5000 0.5000 0.5000
v 0.377472 0.051885 -0.055920 0.0196 0.0131 0.0288
v 0.104257 0.053221 0.043454 0.0039 0.0201 0.0935
v 0.381737 0.053658 0.079362 0.0963 0.0178 0.0712
v 0.410448 0.043092 0.140052 0.0026 0.0170 0.0627
v 0.247510 0.054200 -0.053396 0.0184 0.0446 0.1532
v -0.260249 0.083615 0.024157 0.0460 0.0577 0.1236
v 0.133585 0.073313 0.074740 0.1197 0.0646 0.1462
v -0.385758 0.084310 -0.059050 0.0159 0.0318 0.1098
v -0.392599 0.113029 0.012455 0.0700 0.1064 0.2121
v -0.379210 0.108004 0.077698 0.0835 0.1023 0.1905
v -0.212072 0.139577 -0.086004 0.0052 0.0157 0.0797
v -0.391039 0.139762 -0.076171 0.0103 0.0184 0.0835
v -0.393915 0.140516 0.012195 0.0595 0.0316 0.0734
v 0.147315 0.142210 0.087375 0.0905 0.0529 0.0861
v -0.150914 0.172514 -0.094938 0.1842 0.1294 0.2981
v -0.324803 0.144187 -0.081032 0.0568 0.0847 0.2150
v -0.391868 0.148917 0.013152 0.0576 0.0928 0.1816
v 0.404598 0.168596 0.064990 0.0303 0.0256 0.0260
v 0.118799 0.176326 -0.085793 0.2735 0.2814 0.4458
v 0.054212 0.173364 -0.083967 0.1270 0.0734 0.1837
v -0.393517 0.175383 0.013885 0.1553 0.0667 0.1315
v 0.268568 0.203041 0.081990 0.0684 0.0551 0.0380
v 0.325315 0.203236 -0.104553 0.6682 0.7171 0.7774
v -0.158892 0.232729 -0.051896 0.2155 0.0565 0.1401
v -0.393411 0.206386 0.015054 0.1178 0.0409 0.0927
v 0.266187 0.206522 0.081416 0.0321 0.0279 0.0604
v -0.282549 0.233341 -0.104546 0.7261 0.7588 0.7869
v -0.026533 0.258422 -0.071061 0.1508 0.0433 0.1007
v -0.388407 0.233821 0.017133 0.1221 0.0393 0.0910
v -0.082192 0.259407 0.067947 0.2433 0.0774 0.1637
v -0.053977 0.291446 -0.085763 0.5009 0.5363 0.6265
v 0.029824 0.265964 -0.011359 0.0967 0.0722 0.1560
v 0.305931 0.264753 0.049486 0.0261 0.0209 0.0576
v 0.243245 0.293225 -0.096190 0.2862 0.0998 0.1845
v 0.397140 0.293165 -0.024648 0.1882 0.1036 0.1941
v 0.744797 0.000000 0.126523 0.5000 0.5000 0.5000
v 0.455870 0.049622 -0.055885 0.1624 0.0249 0.0111
v 0.575116 0.039404 0.101737 0.4310 0.0101 0.0286
v 0.727102 0.044495 0.140244 0.0039 0.0208 0.0691
v 0.452799 0.054005 -0.043979 0.1778 0.0261 0.0092
v 0.420513 0.082081 0.057993 0.0424 0.0427 0.1178
v 0.499407 0.069081 0.090690 0.1012 0.0555 0.1363
v 1.016338 0.112330 0.025524 0.0611 0.0888 0.1842
v 0.430994 0.084063 0.078237 0.0667 0.0890 0.2114
v 1.204598 0.143366 0.011797 0.3164 0.2225 0.3422
v 0.493988 0.142645 0.084244 0.1501 0.1250 0.1414
v 0.440970 0.172433 -0.085736 0.0214 0.0424 0.1502
v 0.861175 0.172536 -0.045508 0.0256 0.1068 0.2483
v 1.215420 0.159902 0.022486 0.2866 0.1994 0.2131
v 0.546714 0.173028 0.085523 0.3102 0.2872 0.1193
v 1.203599 0.196067 -0.087677 0.1743 0.1346 0.3312
v 1.127841 0.194188 -0.085273 0.2392 0.0960 0.2031
v 0.413291 0.181085 0.044230 0.2302 0.0762 0.1242
v 1.136867 0.180358 0.081143 0.4033 0.1722 0.0303
v 0.824990 0.207467 -0.110445 0.4710 0.4946 0.6304
v 0.682842 0.231061 -0.022264 0.3365 0.1153 0.2086
v 1.214209 0.226987 0.064386 0.1718 0.0505 0.1149
v 1.208831 0.204297 0.071041 0.7217 0.0891 0.2734
v 0.549541 0.250444 -0.104762 0.3334 0.4449 0.5760
v 0.786132 0.254327 -0.021251 0.1763 0.1436 0.2388
v 1.211772 0.238145 0.060928 0.1827 0.0514 0.1180
v 0.778374 0.253968 0.072955 0.4117 0.0920 0.2202
v 1.039329 0.290737 -0.110200 0.2392 0.3553 0.4767
v 0.761402 0.291172 -0.012748 0.1252 0.1688 0.2544
v 0.763003 0.291200 -0.010190 0.0304 0.0321 0.0785
v 0.705021 0.293502 -0.108035 0.1487 0.1442 0.2188
v 0.616525 0.292764 -0.017685 0.1346 0.3833 0.4340
v 0.575229 0.292541 -0.009307 0.0405 0.0261 0.0523
v 1.744342 0.053831 0.108477 0.5000 0.5000 0.5000
v 2.019985 0.067059 0.103340 0.0059 0.0580 0.1626
v 2.007482 0.113208 0.040147 0.0010 0.0355 0.1579
v 2.001795 0.106928 0.064993 0.0045 0.0349 0.1394
v 1.333431 0.141608 0.013701 0.0086 0.0282 0.1212
v 1.991535 0.113977 0.071248 0.0056 0.0207 0.0948
v 1.667609 0.170488 -0.010554 0.5014 0.5829 0.6166
v 1.284166 0.167696 0.046130 0.0726 0.0706 0.1454
v 1.484394 0.165935 0.065056 0.0322 0.0863 0.1291
v 1.682078 0.201948 -0.099764 0.1199 0.0641 0.1872
v 1.636819 0.176007 -0.010721 0.2110 0.1138 0.2268
v 1.524096 0.197954 0.057196 0.4649 0.1279 0.1846
v 1.264562 0.178815 0.065427 0.2402 0.0297 0.0690
v 1.502405 0.232845 -0.158095 0.1901 0.0754 0.2186
v 1.526062 0.231884 -0.011728 0.1871 0.0861 0.1886
v 1.486075 0.204856 0.054085 0.1106 0.0455 0.1208
v 1.245016 0.206393 0.065320 0.1294 0.0426 0.0946
v 1.478845 0.237947 -0.159756 0.2856 0.3281 0.4836
v 1.478967 0.232925 -0.011309 0.2102 0.0981 0.2286
v 1.729466 0.235402 0.047547 0.1420 0.0664 0.1813
v 1.217077 0.245176 0.065460 0.0261 0.0235 0.0418
v 1.392493 0.263458 -0.139466 0.1725 0.1553 0.2546
v 1.669575 0.262723 -0.029802 0.1337 0.1943 0.2825
v 1.217353 0.263934 0.028512 0.1027 0.0735 0.1621
v 1.349338 0.294101 -0.144210 0.1140 0.0605 0.1279
v 1.281363 0.300000 -0.084687 0.0701 0.2038 0.2463
v 2.425039 0.081401 0.063923 0.0043 0.0309 0.1491
v 2.247015 0.061892 0.088416 0.0034 0.0326 0.1499
v 2.233285 0.109153 0.044146 0.0036 0.0335 0.1543
v 2.265822 0.112597 0.070512 0.0027 0.0306 0.1548
v 2.190812 0.113809 0.041736 0.0070 0.0249 0.1367
v 2.823024 0.131545 0.075879 0.0021 0.0288 0.1543
v 2.202470 0.173110 -0.014645 0.0026 0.0261 0.1438
v 2.304639 0.172740 0.017285 0.0088 0.0230 0.1259
v 2.566098 0.199524 -0.015438 0.0413 0.0430 0.1286
v 2.695142 0.193888 -0.008440 0.0255 0.0299 0.1113
v 2.494955 0.203507 -0.020127 0.0133 0.0354 0.1241
v 2.733179 0.203081 -0.008229 0.1932 0.0791 0.0750
v 2.192997 0.233252 -0.029931 0.0013 0.0327 0.1268
v 2.024421 0.243433 0.013207 0.5000 0.5000 0.5000
v 3.169331 0.143144 0.062969 0.4915 0.0484 0.0588
v 3.211366 0.142973 0.074055 0.5171 0.0504 0.0592
v 3.237923 0.145518 0.064282 0.5171 0.0504 0.0592
v 3.220286 0.143520 0.074315 0.6588 0.0614 0.0614
v 2.876278 0.190002 -0.014088 0.0039 0.0458 0.1386
v 3.119986 0.173595 0.022025 0.0039 0.0441 0.1382
f 131 159 162
f 135 131 162
f 55 56 60
f 64 59 63
f 59 60 64
f 59 55 60
f 95 56 99
f 56 60 99
f 99 60 64
f 99 64 103
f 64 60 103
f 60 99 103
f 68 64 103
f 64 68 107
f 103 64 107
f 103 107 68
f 72 111 76
f 68 72 111
f 107 111 72
f 72 68 107
f 107 68 111
f 111 115 76
f 56 55 59
f 56 59 60
f 19 53 22
f 22 53 56
f 19 22 56
f 18 19 16
f 15 18 16
f 16 15 19
f 19 15 18
f 2 1 19
f 1 18 19
f 53 56 55
f 52 53 55
f 53 19 56
f 18 19 2
f 3 1 21
f 1 18 21
f 143 174 147
f 143 170 174
f 148 144 147
f 144 143 147
f 140 171 144
f 167 170 171
f 166 170 167
f 140 167 171
f 171 170 143
f 171 143 144
f 55 91 52
f 94 91 55
f 87 123 91
f 91 123 126
f 76 42 77
f 77 76 81
f 80 81 76
f 115 76 77
f 116 115 77
f 147 115 119
f 118 114 115
f 118 115 119
f 118 119 151
f 119 147 151
f 150 118 151
f 147 150 151
f 150 147 146
f 143 142 147
f 142 146 147
f 174 147 151
f 174 178 151
f 175 148 174
f 148 174 147
f 67 71 70
f 67 106 110
f 110 67 71
f 79 114 118
f 79 75 114
f 75 71 110
f 75 110 114
f 74 71 75
f 70 71 74
f 153 151 154
f 150 151 153
f 153 121 118
f 118 150 153
f 78 74 79
f 74 75 79
f 67 70 66
f 41 45 79
f 79 75 41
f 37 71 41
f 75 41 71
f 67 37 33
f 67 71 37
f 45 41 75
f 45 75 79
f 14 11 12
f 13 11 14
f 9 10 11
f 11 10 12
f 11 12 13
f 13 12 14
f 10 9 37
f 9 36 37
f 41 36 40
f 12 10 41
f 37 36 41
f 10 37 41
f 7 9 10
f 7 10 8
f 9 7 8
f 9 8 10
f 68 72 38
f 43 42 77
f 38 72 42
f 34 38 39
f 35 34 39
f 34 30 35
f 35 30 31
f 30 26 31
f 26 27 31
f 43 38 42
f 39 38 43
f 22 19 23
f 22 23 27
f 23 19 20
f 56 22 26
f 56 26 60
f 68 38 34
f 30 34 68
f 64 30 68
f 60 30 64
f 26 30 60
f 26 22 27
f 120 117 121
f 117 118 121
f 164 168 169
f 165 164 169
f 138 164 165
f 137 164 138
f 45 44 78
f 83 45 79
f 45 78 79
f 83 78 82
f 79 78 83
f 83 82 120
f 83 120 121
f 78 117 120
f 78 120 82
f 78 79 118
f 117 78 118
f 118 79 80
f 118 80 119
f 79 83 118
f 44 13 14
f 44 14 45
f 44 40 78
f 40 74 78
f 41 40 44
f 41 44 45
f 12 45 14
f 45 12 41
f 170 169 173
f 170 173 174
f 197 196 198
f 195 196 197
f 200 189 199
f 193 191 173
f 173 169 191
f 150 151 178
f 177 150 178
f 146 173 174
f 147 146 174
f 190 189 191
f 192 190 191
f 200 189 190
f 174 173 177
f 174 177 178
f 103 139 135
f 103 107 139
f 108 104 107
f 103 107 104
f 152 120 121
f 153 152 121
f 40 11 44
f 44 11 13
f 78 44 82
f 82 44 47
f 150 149 153
f 149 152 153
f 145 172 149
f 141 145 172
f 168 141 172
f 149 145 146
f 150 146 177
f 177 146 173
f 145 172 176
f 149 146 150
f 149 145 176
f 177 176 180
f 180 176 179
f 150 177 153
f 153 177 180
f 152 153 180
f 179 152 180
f 117 74 78
f 113 74 117
f 145 117 149
f 113 117 145
f 70 74 109
f 109 74 113
f 168 173 169
f 173 168 172
f 177 173 176
f 173 172 176
f 142 169 173
f 146 142 173
f 146 145 150
f 145 149 150
f 47 48 83
f 82 47 83
f 48 45 83
f 48 44 45
f 44 48 47
f 109 66 70
f 66 109 105
f 109 141 105
f 137 105 141
f 109 113 141
f 145 141 113
f 149 117 120
f 149 120 152
f 152 176 149
f 176 152 179
f 137 141 168
f 137 168 164
f 172 149 176
f 74 70 40
f 70 36 40
f 9 11 40
f 9 40 36
f 7 9 36
f 32 7 36
f 70 32 36
f 32 70 66
f 110 138 142
f 28 62 32
f 32 62 66
f 59 62 58
f 28 63 62
f 66 63 67
f 62 63 66
f 28 32 66
f 62 28 66
f 63 29 28
f 62 59 63
f 25 29 63
f 25 63 59
f 67 33 32
f 32 66 67
f 32 28 29
f 33 32 29
f 25 3 4
f 3 21 25
f 37 32 33
f 32 37 36
f 28 25 24
f 25 29 28
f 5 28 7
f 7 6 8
f 66 32 36
f 66 36 70
f 71 70 36
f 28 29 7
f 7 29 6
f 32 28 7
f 8 6 29
f 8 33 7
f 32 7 33
f 33 8 29
f 106 138 110
f 66 105 106
f 67 66 106
f 105 62 101
f 62 105 66
f 63 62 101
f 63 101 102
f 102 101 105
f 102 105 106
f 66 70 71
f 67 66 71
f 36 37 71
f 33 63 29
f 63 33 67
f 166 161 165
f 162 161 166
f 185 159 162
f 188 187 189
f 188 189 190
f 189 191 192
f 190 189 192
f 159 183 157
f 183 159 185
f 159 157 158
f 157 184 158
f 157 183 184
f 162 185 188
f 185 183 186
f 186 183 184
f 184 185 186
f 183 185 184
f 184 182 183
f 182 181 183
f 115 143 147
f 72 42 76
f 42 43 76
f 77 76 43
f 76 73 77
f 76 72 73
f 38 72 76
f 72 69 73
f 42 39 43
f 42 38 39
f 46 42 43
f 80 79 119
f 79 118 119
f 115 76 80
f 81 84 85
f 84 81 80
f 80 76 77
f 81 80 77
f 49 80 84
f 49 46 80
f 84 80 83
f 79 83 80
f 45 46 48
f 48 49 84
f 83 48 84
f 46 49 48
f 80 46 79
f 79 46 45
f 72 68 34
f 72 34 38
f 67 63 68
f 63 64 68
f 68 67 72
f 59 63 60
f 63 64 60
f 67 72 71
f 72 76 77
f 73 72 77
f 107 108 111
f 111 108 112
f 115 111 112
f 115 112 116
f 139 107 143
f 107 111 143
f 139 136 140
f 135 136 139
f 115 116 147
f 108 139 107
f 116 147 148
f 173 169 174
f 170 174 169
f 139 140 143
f 143 140 144
f 111 143 147
f 111 147 115
f 166 162 139
f 135 139 162
f 139 170 166
f 139 143 170
f 162 135 163
f 135 136 163
f 129 127 92
f 129 92 93
f 129 93 130
f 130 93 128
f 136 135 162
f 163 136 162
f 92 129 95
f 93 92 96
f 96 92 95
f 96 95 129
f 96 129 130
f 95 96 130
f 129 95 130
f 95 96 93
f 93 92 95
f 127 92 95
f 129 127 95
f 135 166 139
f 162 166 135
f 139 135 140
f 139 166 140
f 140 166 167
f 135 136 140
f 131 129 130
f 95 99 100
f 190 162 188
f 158 184 160
f 159 158 160
f 160 185 159
f 184 183 160
f 184 160 186
f 183 185 160
f 181 182 184
f 183 181 184
f 131 130 132
f 130 160 158
f 130 160 132
f 159 160 162
f 162 160 163
f 162 132 163
f 132 160 163
f 131 132 159
f 132 160 159
f 130 159 160
f 130 131 159
f 128 129 130
f 128 127 129
f 59 98 94
f 94 55 59
f 98 101 102
f 106 102 138
f 102 134 138
f 102 101 134
f 133 101 137
f 134 101 133
f 133 137 138
f 169 138 165
f 142 138 169
f 137 101 105
f 134 133 138
f 110 143 111
f 110 111 115
f 115 111 143
f 110 142 143
f 115 114 110
f 106 107 138
f 138 107 139
f 135 138 139
f 135 134 138
f 107 103 135
f 107 135 139
f 102 103 107
f 106 102 107
f 135 134 103
f 134 102 106
f 134 103 102
f 106 138 134
f 103 102 106
f 102 59 98
f 63 59 102
f 106 137 138
f 106 105 137
f 97 98 101
f 99 102 103
f 93 92 127
f 127 128 93
f 92 93 128
f 127 92 128
f 92 95 56
f 92 56 53
f 68 69 72
f 20 19 22
f 23 22 56
f 57 23 56
f 23 20 22
f 65 60 64
f 57 56 61
f 95 96 100
f 56 60 61
f 60 99 100
f 61 60 65
f 64 68 69
f 64 69 65
f 103 99 104
f 99 100 104
f 30 31 64
f 65 64 31
f 30 64 34
f 34 64 68
f 132 136 135
f 104 100 132
f 104 132 136
f 103 107 108
f 104 103 108
f 61 60 64
f 27 61 65
f 27 65 31
f 61 64 65
f 57 60 61
f 57 56 60
f 23 57 27
f 57 61 27
f 56 53 95
f 95 53 92
f 96 57 100
f 17 51 20
f 51 54 20
f 130 156 158
f 132 131 135
f 89 124 93
f 93 88 89
f 93 124 128
f 88 92 93
f 130 127 128
f 129 127 130
f 135 132 162
f 128 156 130
f 90 89 125
f 89 125 124
