mtllib P-43_tex.mtl
v 0.290118 0.546671 0.141016
v 0.159051 0.598526 0.258498
v 0.272684 0.450583 0.333963
v 0.242109 0.293902 0.029051
v 0.242321 0.294020 0.004002
v 0.155939 0.350390 0.073309
v -0.003039 0.436113 0.018145
v 0.155939 0.350390 0.073309
v 0.121558 0.350804 0.051794
v 0.284900 0.588165 0.125425
v 0.290118 0.546671 0.141016
v 0.315473 0.731127 0.045935
v 0.263416 0.676766 -0.141745
v 0.282582 0.741549 -0.081430
v 0.274657 0.755472 -0.061336
v 0.232315 0.434179 -0.127398
v 0.167514 0.525981 -0.131408
v 0.338874 0.309850 -0.212869
v 0.056428 0.601198 0.285792
v -0.005223 0.573359 0.287834
v 0.180159 0.664817 0.259972
v 0.180159 0.664817 0.259972
v -0.005223 0.573359 0.287834
v 0.239065 0.593600 0.283589
v -0.276708 0.627264 0.150458
v -0.270343 0.520194 0.238049
v -0.265700 0.511290 0.235503
v -0.275805 0.582025 -0.006768
v -0.322903 0.494695 0.082838
v -0.265504 0.593484 0.030631
v -0.266322 0.403984 -0.105047
v -0.323201 0.450890 -0.143219
v -0.275805 0.582025 -0.006768
v -0.320634 0.443456 0.043897
v -0.334459 0.294865 0.154294
v -0.240904 0.300597 0.255372
v -0.334459 0.294865 0.154294
v -0.320634 0.443456 0.043897
v -0.322903 0.494695 0.082838
v -0.246572 0.293987 0.028627
v -0.246573 0.294175 0.006044
v -0.341219 0.193747 0.120262
v -0.343456 0.254249 0.142256
v -0.266848 0.117357 0.368533
v -0.282667 0.154230 0.302694
v -0.288356 0.108651 0.257992
v -0.266848 0.117357 0.368533
v -0.343456 0.254249 0.142256
v -0.357889 0.045495 -0.001221
v -0.339740 0.063330 0.022821
v -0.341219 0.193747 0.120262
v -0.275805 0.582025 -0.006768
v -0.266322 0.403984 -0.105047
v -0.266854 0.321830 0.007478
v -0.317915 0.628455 -0.032039
v -0.276658 0.646039 0.085121
v -0.268175 0.876078 -0.077131
v -0.333727 0.760861 -0.213377
v -0.266710 0.899362 0.131927
v -0.276708 0.627264 0.150458
v -0.267793 0.877885 0.176854
v -0.322903 0.494695 0.082838
v -0.270343 0.520194 0.238049
v -0.275805 0.582025 -0.006768
v -0.313187 0.671391 -0.146197
v -0.312595 0.602833 -0.229634
v -0.333499 0.758373 -0.219442
v -0.265700 0.511290 0.235503
v -0.277734 0.456543 0.315948
v -0.136263 0.653564 0.140562
v -0.170532 0.860725 -0.095212
v -0.224773 0.866447 0.065930
v -0.260747 0.863252 0.180702
v -0.267793 0.877885 0.176854
v -0.266710 0.899362 0.131927
v -0.216922 0.656954 0.257978
v -0.137154 0.665550 -0.091376
v -0.136093 0.664956 -0.097154
v -0.265700 0.511290 0.235503
v -0.137057 0.898447 -0.119594
v -0.241865 0.293793 0.254813
v -0.246572 0.293987 0.028627
v -0.240904 0.300597 0.255372
v -0.242359 0.294113 0.260609
v -0.245778 0.296471 0.026315
v -0.246064 0.297201 0.000303
v -0.246573 0.294175 0.006044
v -0.241696 0.305991 0.259691
v -0.320634 0.443456 0.043897
v -0.282667 0.154230 0.302694
v -0.294119 0.369993 0.283155
v 0.235856 0.302194 0.253618
v 0.236193 0.300916 0.259204
v 0.292331 0.369965 0.284605
v 0.300342 0.444256 0.159543
v 0.274152 0.295603 0.027702
v 0.247598 0.202190 0.376991
v 0.237036 0.293414 0.251747
v -0.136093 0.534591 -0.133146
v -0.275805 0.582025 -0.006768
v -0.265387 0.579627 0.017374
v -0.323201 0.450890 -0.143219
v 0.240864 0.299998 0.002423
v 0.232315 0.434179 -0.127398
v 0.338874 0.309850 -0.212869
v 0.338874 0.309850 -0.212869
v 0.232315 0.434179 -0.127398
v 0.255740 0.323569 0.003469
v 0.305814 0.468215 -0.143269
v 0.126745 0.665026 -0.097077
v 0.263416 0.676766 -0.141745
v 0.301563 0.803914 -0.211237
v 0.136687 0.795741 -0.111697
v 0.167514 0.525981 -0.131408
v -0.011366 0.664798 -0.067550
v -0.035896 0.644364 0.135020
v 0.099408 0.655221 -0.027339
v 0.048449 0.665461 -0.096447
v -0.008212 0.665969 -0.099081
v -0.136093 0.664956 -0.097154
v 0.116146 0.655254 0.109088
v 0.090574 0.653176 0.143656
v -0.137154 0.665550 -0.091376
v -0.041618 0.660688 0.242873
v -0.136263 0.653564 0.140562
v 0.056428 0.601198 0.285792
v 0.127304 0.656652 0.144893
v 0.180159 0.664817 0.259972
v 0.333355 0.163713 0.268519
v 0.309053 0.285246 0.142993
v 0.292331 0.369965 0.284605
v 0.300342 0.444256 0.159543
v 0.264570 0.141672 0.377344
v -0.294119 0.369993 0.283155
v -0.177497 0.143585 0.426923
v -0.241696 0.305991 0.259691
v -0.272588 0.181507 0.460885
v -0.005961 0.562061 0.258928
v -0.265700 0.511290 0.235503
v -0.041618 0.660688 0.242873
v -0.216922 0.656954 0.257978
v -0.228647 0.663293 0.265013
v -0.249156 0.555667 0.304091
v 0.090574 0.653176 0.143656
v -0.062412 0.591399 0.289897
v 0.274152 0.295603 0.027702
v 0.155939 0.350390 0.073309
v 0.235856 0.302194 0.253618
v 0.255740 0.323569 0.003469
v 0.337909 0.005021 -0.092839
v 0.257946 0.282359 0.004735
v 0.258116 0.281666 0.028010
v 0.334704 0.066672 0.027296
v -0.317915 0.628455 -0.032039
v -0.313187 0.671391 -0.146197
v -0.268175 0.876078 -0.077131
v -0.333727 0.760861 -0.213377
v 0.167514 0.525981 -0.131408
v 0.305814 0.468215 -0.143269
v 0.263416 0.676766 -0.141745
v 0.126745 0.665026 -0.097077
v 0.277186 0.712550 0.171947
v 0.127304 0.656652 0.144893
v 0.266881 0.874833 0.178146
v 0.290118 0.546671 0.141016
v 0.239527 0.874912 0.177993
v 0.184043 0.763622 -0.093798
v 0.240291 0.899305 0.049051
v 0.301123 0.758744 0.031937
v 0.317447 0.600039 -0.029416
v 0.284900 0.588165 0.125425
v 0.282582 0.741549 -0.081430
v 0.263416 0.676766 -0.141745
v 0.305814 0.468215 -0.143269
v 0.315473 0.731127 0.045935
v 0.274152 0.295603 0.027702
v 0.284900 0.588165 0.125425
v 0.300342 0.444256 0.159543
v 0.290118 0.546671 0.141016
v -0.177497 0.143585 0.426923
v -0.282667 0.154230 0.302694
v -0.242359 0.294113 0.260609
v -0.343456 0.254249 0.142256
v -0.241696 0.305991 0.259691
v 0.315473 0.731127 0.045935
v 0.277186 0.712550 0.171947
v 0.301123 0.758744 0.031937
v 0.266881 0.874833 0.178146
v 0.290118 0.546671 0.141016
v 0.242109 0.293902 0.029051
v 0.257946 0.282359 0.004735
v 0.258116 0.281666 0.028010
v 0.242321 0.294020 0.004002
v 0.384971 0.142374 0.008138
v 0.309053 0.285246 0.142993
v 0.385145 0.098595 -0.040262
v 0.240864 0.299998 0.002423
v 0.155939 0.350390 0.073309
v -0.003039 0.436113 0.018145
v 0.237036 0.293414 0.251747
v 0.235856 0.302194 0.253618
v 0.337909 0.005021 -0.092839
v -0.042803 0.760472 -0.111272
v -0.008212 0.665969 -0.099081
v -0.001739 0.766043 -0.111848
v -0.003417 0.981095 -0.138205
v -0.136093 0.664956 -0.097154
v -0.137057 0.898447 -0.119594
v -0.136611 0.987704 -0.125994
v 0.048449 0.665461 -0.096447
v 0.126745 0.665026 -0.097077
v 0.136687 0.795741 -0.111697
v -0.097007 0.920787 -0.144273
v 0.236193 0.300916 0.259204
v 0.239065 0.593600 0.283589
v 0.272684 0.450583 0.333963
v -0.333727 0.760861 -0.213377
v -0.268175 0.876078 -0.077131
v -0.170532 0.860725 -0.095212
v -0.266710 0.899362 0.131927
v -0.137057 0.898447 -0.119594
v 0.236193 0.300916 0.259204
v 0.247598 0.202190 0.376991
v 0.333355 0.163713 0.268519
v 0.240291 0.899305 0.049051
v 0.274657 0.755472 -0.061336
v 0.301123 0.758744 0.031937
v 0.184043 0.763622 -0.093798
v 0.236193 0.300916 0.259204
v 0.333355 0.163713 0.268519
v 0.292331 0.369965 0.284605
v -0.276708 0.627264 0.150458
v -0.265700 0.511290 0.235503
v -0.216922 0.656954 0.257978
v -0.267793 0.877885 0.176854
v -0.249156 0.555667 0.304091
v -0.177497 0.143585 0.426923
v -0.272588 0.181507 0.460885
v -0.282667 0.154230 0.302694
v -0.294119 0.369993 0.283155
v -0.334459 0.294865 0.154294
v -0.343456 0.254249 0.142256
v 0.126745 0.665026 -0.097077
v 0.048449 0.665461 -0.096447
v 0.136687 0.795741 -0.111697
v -0.001739 0.766043 -0.111848
v 0.184043 0.763622 -0.093798
v -0.031391 0.456483 0.016941
v -0.265504 0.593484 0.030631
v -0.015584 0.449819 0.073337
v 0.023959 0.447802 0.067909
v -0.265387 0.579627 0.017374
v -0.275805 0.582025 -0.006768
v -0.323201 0.450890 -0.143219
v -0.266322 0.403984 -0.105047
v -0.136093 0.534591 -0.133146
v -0.264142 0.403600 -0.103263
v -0.246064 0.297201 0.000303
v 0.284900 0.588165 0.125425
v 0.245275 0.538535 0.021382
v 0.128510 0.558862 0.064673
v 0.167514 0.525981 -0.131408
v 0.317447 0.600039 -0.029416
v 0.305814 0.468215 -0.143269
v 0.338874 0.309850 -0.212869
v -0.265387 0.579627 0.017374
v -0.031391 0.456483 0.016941
v -0.015584 0.449819 0.073337
v -0.265504 0.593484 0.030631
v 0.305814 0.468215 -0.143269
v 0.232315 0.434179 -0.127398
v 0.338874 0.309850 -0.212869
v 0.167514 0.525981 -0.131408
v -0.313187 0.671391 -0.146197
v -0.312595 0.602833 -0.229634
v -0.333499 0.758373 -0.219442
v -0.333727 0.760861 -0.213377
v 0.239065 0.593600 0.283589
v 0.159051 0.598526 0.258498
v 0.180159 0.664817 0.259972
v 0.127304 0.656652 0.144893
v -0.005223 0.573359 0.287834
v -0.240904 0.300597 0.255372
v -0.334459 0.294865 0.154294
v -0.241696 0.305991 0.259691
v -0.294119 0.369993 0.283155
v 0.239065 0.593600 0.283589
v 0.292331 0.369965 0.284605
v 0.272684 0.450583 0.333963
v 0.236193 0.300916 0.259204
v -0.241696 0.305991 0.259691
v -0.277734 0.456543 0.315948
v -0.249156 0.555667 0.304091
v -0.294119 0.369993 0.283155
v -0.341219 0.193747 0.120262
v -0.266352 0.282854 0.005654
v -0.246572 0.293987 0.028627
v -0.246573 0.294175 0.006044
v -0.246064 0.297201 0.000303
v -0.343456 0.254249 0.142256
v -0.241865 0.293793 0.254813
v -0.242359 0.294113 0.260609
v 0.247598 0.202190 0.376991
v 0.264570 0.141672 0.377344
v 0.226061 0.144426 0.423779
v 0.333355 0.163713 0.268519
v 0.237036 0.293414 0.251747
v 0.309053 0.285246 0.142993
v 0.385088 0.065526 -0.130335
v 0.334864 0.000000 -0.154921
v 0.337909 0.005021 -0.092839
v 0.385145 0.098595 -0.040262
v -0.015920 0.445354 0.016934
v -0.003039 0.436113 0.018145
v -0.006630 0.427565 0.068844
v 0.121558 0.350804 0.051794
v -0.015584 0.449819 0.073337
v -0.031391 0.456483 0.016941
v 0.274657 0.755472 -0.061336
v 0.184043 0.763622 -0.093798
v 0.301123 0.758744 0.031937
v -0.277734 0.456543 0.315948
v -0.265700 0.511290 0.235503
v -0.249156 0.555667 0.304091
v 0.000151 0.473072 0.017803
v 0.023959 0.447802 0.067909
v 0.121558 0.350804 0.051794
v 0.125238 0.662329 -0.051579
v 0.184043 0.763622 -0.093798
v 0.136687 0.795741 -0.111697
v 0.274657 0.755472 -0.061336
v 0.301563 0.803914 -0.211237
v 0.334864 0.000000 -0.154921
v 0.385088 0.065526 -0.130335
v 0.385145 0.098595 -0.040262
v 0.337909 0.005021 -0.092839
v 0.292331 0.369965 0.284605
v 0.236193 0.300916 0.259204
v 0.272684 0.450583 0.333963
v 0.240864 0.299998 0.002423
v 0.338874 0.309850 -0.212869
v 0.255740 0.323569 0.003469
v 0.136687 0.795741 -0.111697
v 0.126745 0.665026 -0.097077
v 0.125238 0.662329 -0.051579
v -0.008212 0.665969 -0.099081
v -0.042803 0.760472 -0.111272
v 0.048449 0.665461 -0.096447
v -0.001739 0.766043 -0.111848
v 0.125238 0.662329 -0.051579
v 0.126745 0.665026 -0.097077
v 0.184043 0.763622 -0.093798
v 0.000151 0.473072 0.017803
v -0.003039 0.436113 0.018145
v -0.031391 0.456483 0.016941
v 0.121558 0.350804 0.051794
v -0.015584 0.449819 0.073337
v -0.006630 0.427565 0.068844
v 0.023959 0.447802 0.067909
v 0.121558 0.350804 0.051794
v -0.266322 0.403984 -0.105047
v -0.266854 0.321830 0.007478
v -0.246064 0.297201 0.000303
v -0.266854 0.321830 0.007478
v -0.264142 0.403600 -0.103263
v -0.246064 0.297201 0.000303
v 0.255740 0.323569 0.003469
v 0.232315 0.434179 -0.127398
v 0.240864 0.299998 0.002423
v -0.011366 0.664798 -0.067550
v -0.008212 0.665969 -0.099081
v 0.099408 0.655221 -0.027339
v 0.048449 0.665461 -0.096447
v -0.265700 0.511290 0.235503
v -0.265504 0.593484 0.030631
v -0.136263 0.653564 0.140562
v -0.322903 0.494695 0.082838
v -0.323201 0.450890 -0.143219
v -0.136093 0.534591 -0.133146
v -0.265387 0.579627 0.017374
v -0.136093 0.664956 -0.097154
v -0.035896 0.644364 0.135020
v 0.116146 0.655254 0.109088
v -0.137154 0.665550 -0.091376
v -0.041618 0.660688 0.242873
v 0.090574 0.653176 0.143656
v -0.275805 0.582025 -0.006768
v -0.323201 0.450890 -0.143219
v -0.265387 0.579627 0.017374
v -0.313187 0.671391 -0.146197
v 0.258116 0.281666 0.028010
v 0.274152 0.295603 0.027702
v 0.300342 0.444256 0.159543
v -0.041618 0.660688 0.242873
v -0.062412 0.591399 0.289897
v -0.020261 0.601144 0.260002
v 0.056428 0.601198 0.285792
v -0.228647 0.663293 0.265013
v -0.249156 0.555667 0.304091
v 0.255740 0.323569 0.003469
v 0.240864 0.299998 0.002423
v 0.155939 0.350390 0.073309
v -0.322903 0.494695 0.082838
v -0.275805 0.582025 -0.006768
v -0.265387 0.579627 0.017374
v -0.265504 0.593484 0.030631
v 0.056428 0.601198 0.285792
v -0.062412 0.591399 0.289897
v -0.005223 0.573359 0.287834
v -0.249156 0.555667 0.304091
v -0.005961 0.562061 0.258928
v -0.265700 0.511290 0.235503
v 0.071028 0.592499 0.258973
v -0.015584 0.449819 0.073337
v -0.006630 0.427565 0.068844
v 0.121558 0.350804 0.051794
v 0.000151 0.473072 0.017803
v -0.031391 0.456483 0.016941
v 0.023959 0.447802 0.067909
v 0.301240 0.798990 -0.224570
v 0.306325 0.654290 -0.255325
v 0.301563 0.803914 -0.211237
v 0.263416 0.676766 -0.141745
v 0.274657 0.755472 -0.061336
v 0.257946 0.282359 0.004735
v 0.255740 0.323569 0.003469
v 0.258116 0.281666 0.028010
v 0.258116 0.281666 0.028010
v 0.255740 0.323569 0.003469
v 0.274152 0.295603 0.027702
v 0.155939 0.350390 0.073309
v 0.240864 0.299998 0.002423
v 0.242321 0.294020 0.004002
v 0.240864 0.299998 0.002423
v 0.255740 0.323569 0.003469
v 0.257946 0.282359 0.004735
v 0.242321 0.294020 0.004002
v -0.266854 0.321830 0.007478
v -0.266322 0.403984 -0.105047
v -0.264142 0.403600 -0.103263
v -0.015920 0.445354 0.016934
v -0.031391 0.456483 0.016941
v -0.003039 0.436113 0.018145
v -0.137057 0.898447 -0.119594
v -0.136093 0.664956 -0.097154
v -0.333727 0.760861 -0.213377
v -0.313187 0.671391 -0.146197
v -0.323201 0.450890 -0.143219
v -0.136093 0.534591 -0.133146
v -0.008212 0.665969 -0.099081
v -0.015539 0.597186 -0.138126
v -0.042803 0.760472 -0.111272
v -0.097007 0.920787 -0.144273
v -0.136611 0.987704 -0.125994
v -0.266352 0.282854 0.005654
v -0.357889 0.045495 -0.001221
v -0.341219 0.193747 0.120262
v -0.320634 0.443456 0.043897
v -0.334459 0.294865 0.154294
v -0.343456 0.254249 0.142256
v -0.246064 0.297201 0.000303
v -0.266854 0.321830 0.007478
v 0.159051 0.598526 0.258498
v 0.127304 0.656652 0.144893
v 0.290118 0.546671 0.141016
v 0.071028 0.592499 0.258973
v 0.090574 0.653176 0.143656
v -0.005961 0.562061 0.258928
v 0.239065 0.593600 0.283589
v 0.272684 0.450583 0.333963
v 0.272684 0.450583 0.333963
v 0.159051 0.598526 0.258498
v 0.239065 0.593600 0.283589
v 0.126745 0.665026 -0.097077
v 0.048449 0.665461 -0.096447
v 0.125238 0.662329 -0.051579
v 0.099408 0.655221 -0.027339
v 0.261782 1.059166 -0.180315
v 0.255217 1.096218 -0.180700
v 0.243176 1.100000 -0.209370
v 0.261782 1.059166 -0.180315
v 0.136687 0.795741 -0.111697
v 0.173226 1.028612 -0.123547
v 0.301563 0.803914 -0.211237
v -0.001739 0.766043 -0.111848
v -0.003417 0.981095 -0.138205
v 0.261782 1.059166 -0.180315
v 0.223459 1.059081 -0.246056
v 0.262183 1.059803 -0.243591
v 0.173226 1.028612 -0.123547
v 0.244195 1.099502 -0.241240
v 0.223459 1.059081 -0.246056
v 0.173226 1.028612 -0.123547
v 0.243176 1.100000 -0.209370
v 0.173226 1.028612 -0.123547
v 0.261782 1.059166 -0.180315
v 0.243176 1.100000 -0.209370
v 0.262183 1.059803 -0.243591
v 0.256139 1.094296 -0.246965
v 0.255217 1.096218 -0.180700
v 0.261782 1.059166 -0.180315
v 0.243176 1.100000 -0.209370
v 0.244195 1.099502 -0.241240
v 0.262183 1.059803 -0.243591
v 0.223459 1.059081 -0.246056
v 0.256139 1.094296 -0.246965
v 0.244195 1.099502 -0.241240
v -0.015539 0.597186 -0.138126
v 0.020776 0.594508 -0.137976
v -0.008212 0.665969 -0.099081
v 0.048449 0.665461 -0.096447
v -0.141219 0.131445 0.371781
v -0.177497 0.143585 0.426923
v -0.181888 0.120338 0.416876
v -0.177497 0.143585 0.426923
v -0.141219 0.131445 0.371781
v -0.272588 0.181507 0.460885
v -0.266848 0.117357 0.368533
v -0.130362 0.121606 0.427831
v -0.141219 0.131445 0.371781
v -0.181888 0.120338 0.416876
v -0.080832 0.130857 0.376962
v -0.130362 0.121606 0.427831
v -0.181888 0.120338 0.416876
v -0.177497 0.143585 0.426923
v -0.093979 0.142485 0.434609
v -0.272588 0.181507 0.460885
v -0.267156 0.101487 0.387767
v -0.177497 0.143585 0.426923
v -0.181888 0.120338 0.416876
v -0.266848 0.117357 0.368533
v -0.141219 0.131445 0.371781
v -0.080832 0.130857 0.376962
v -0.130362 0.121606 0.427831
v -0.093979 0.142485 0.434609
v 0.173226 1.028612 -0.123547
v 0.255217 1.096218 -0.180700
v 0.261782 1.059166 -0.180315
v 0.173226 1.028612 -0.123547
v 0.243176 1.100000 -0.209370
v 0.255217 1.096218 -0.180700
v 0.167514 0.525981 -0.131408
v 0.020776 0.594508 -0.137976
v 0.048449 0.665461 -0.096447
v 0.126745 0.665026 -0.097077
v 0.282582 0.741549 -0.081430
v 0.274657 0.755472 -0.061336
v 0.315473 0.731127 0.045935
v 0.301123 0.758744 0.031937
v 0.240291 0.899305 0.049051
v 0.266881 0.874833 0.178146
v 0.301123 0.758744 0.031937
v 0.266881 0.874833 0.178146
v 0.240291 0.899305 0.049051
v 0.239527 0.874912 0.177993
v -0.248311 1.059092 -0.263474
v -0.235836 1.089868 -0.162963
v -0.244454 1.072530 -0.263695
v -0.136611 0.987704 -0.125994
v -0.267061 1.065741 -0.179967
v -0.267183 1.058935 -0.176726
v -0.136611 0.987704 -0.125994
v -0.235836 1.089868 -0.162963
v -0.244454 1.072530 -0.263695
v -0.267061 1.065741 -0.179967
v -0.235836 1.089868 -0.162963
v -0.266307 1.068729 -0.264929
v -0.266307 1.068729 -0.264929
v -0.235836 1.089868 -0.162963
v -0.267061 1.065741 -0.179967
v -0.244454 1.072530 -0.263695
v -0.266822 1.059866 -0.263015
v -0.248311 1.059092 -0.263474
v -0.266307 1.068729 -0.264929
v -0.244454 1.072530 -0.263695
v -0.248311 1.059092 -0.263474
v -0.266822 1.059866 -0.263015
v -0.244454 1.072530 -0.263695
v -0.266307 1.068729 -0.264929
v -0.170532 0.860725 -0.095212
v -0.137154 0.665550 -0.091376
v -0.137057 0.898447 -0.119594
v -0.136093 0.664956 -0.097154
v -0.170532 0.860725 -0.095212
v -0.268175 0.876078 -0.077131
v -0.224773 0.866447 0.065930
v -0.266710 0.899362 0.131927
v 0.090574 0.653176 0.143656
v 0.116146 0.655254 0.109088
v 0.127879 0.655973 0.034793
v 0.127304 0.656652 0.144893
v 0.090574 0.653176 0.143656
v 0.127879 0.655973 0.034793
v 0.127304 0.656652 0.144893
v 0.116146 0.655254 0.109088
v 0.099408 0.655221 -0.027339
v 0.125238 0.662329 -0.051579
v 0.127879 0.655973 0.034793
v 0.258116 0.281666 0.028010
v 0.309053 0.285246 0.142993
v 0.300342 0.444256 0.159543
v 0.301563 0.803914 -0.211237
v 0.263416 0.676766 -0.141745
v 0.282582 0.741549 -0.081430
v 0.274657 0.755472 -0.061336
v -0.266352 0.282854 0.005654
v -0.329418 0.293670 -0.096750
v -0.266322 0.403984 -0.105047
v -0.216922 0.656954 0.257978
v -0.136263 0.653564 0.140562
v -0.041618 0.660688 0.242873
v 0.071028 0.592499 0.258973
v -0.005223 0.573359 0.287834
v 0.159051 0.598526 0.258498
v 0.328053 0.093432 0.233017
v 0.333355 0.163713 0.268519
v 0.309053 0.285246 0.142993
v 0.351128 0.119342 0.274349
v 0.351128 0.119342 0.274349
v 0.328053 0.093432 0.233017
v 0.309053 0.285246 0.142993
v 0.333355 0.163713 0.268519
v -0.267156 0.101487 0.387767
v -0.266848 0.117357 0.368533
v -0.272588 0.181507 0.460885
v -0.343456 0.254249 0.142256
v -0.288356 0.108651 0.257992
v -0.282667 0.154230 0.302694
v -0.266848 0.117357 0.368533
v -0.242359 0.294113 0.260609
v -0.294119 0.369993 0.283155
v -0.241696 0.305991 0.259691
v -0.282667 0.154230 0.302694
v 0.299001 0.551483 -0.426354
v 0.306325 0.654290 -0.255325
v 0.297486 0.685411 -0.362084
v 0.385101 0.130265 -0.287800
v 0.376589 0.165609 -0.331704
v 0.332901 0.010021 -0.216367
v 0.309081 0.291614 -0.438114
v 0.334864 0.000000 -0.154921
v 0.385088 0.065526 -0.130335
v 0.321680 0.136203 -0.376812
v 0.332901 0.010021 -0.216367
v 0.385101 0.130265 -0.287800
v 0.385088 0.065526 -0.130335
v 0.334864 0.000000 -0.154921
v 0.159051 0.598526 0.258498
v 0.128510 0.558862 0.064673
v 0.290118 0.546671 0.141016
v 0.290118 0.546671 0.141016
v 0.128510 0.558862 0.064673
v 0.284900 0.588165 0.125425
v 0.226061 0.144426 0.423779
v 0.161527 0.120241 0.419567
v 0.254679 0.138947 0.378029
v 0.264570 0.141672 0.377344
v 0.351128 0.119342 0.274349
v 0.114128 0.150231 0.457714
v 0.121550 0.120549 0.425503
v 0.074228 0.130187 0.375850
v 0.145208 0.131864 0.372414
v 0.161527 0.120241 0.419567
v 0.121550 0.120549 0.425503
v 0.226061 0.144426 0.423779
v 0.114128 0.150231 0.457714
v 0.351128 0.119342 0.274349
v 0.254679 0.138947 0.378029
v 0.264570 0.141672 0.377344
v 0.145208 0.131864 0.372414
v 0.161527 0.120241 0.419567
v 0.247598 0.202190 0.376991
v 0.236193 0.300916 0.259204
v 0.292331 0.369965 0.284605
v 0.292331 0.369965 0.284605
v 0.333355 0.163713 0.268519
v 0.247598 0.202190 0.376991
v -0.322903 0.494695 0.082838
v -0.334459 0.294865 0.154294
v -0.270343 0.520194 0.238049
v -0.265504 0.593484 0.030631
v -0.137154 0.665550 -0.091376
v -0.265387 0.579627 0.017374
v -0.136263 0.653564 0.140562
v -0.015584 0.449819 0.073337
v 0.023959 0.447802 0.067909
v 0.121558 0.350804 0.051794
v -0.376831 0.208264 -0.332173
v -0.385823 0.139221 -0.275828
v -0.334647 0.135764 -0.379271
v -0.376831 0.208264 -0.332173
v -0.385823 0.139221 -0.275828
v -0.383700 0.148961 -0.285595
v -0.312595 0.602833 -0.229634
v -0.348719 0.451874 -0.405438
v -0.339478 0.603787 -0.365274
vt 0.486299 0.813581
vt 0.451262 0.900952
vt 0.554830 0.900952
vt 0.781984 0.682418
vt 0.793299 0.675173
vt 0.793299 0.739187
vt 0.018712 0.790225
vt 0.018712 0.887111
vt 0.008268 0.868942
vt 0.003046 0.304537
vt 0.009138 0.282439
vt 0.009138 0.389706
vt 0.607050 0.453720
vt 0.560697 0.447664
vt 0.548738 0.453720
vt 0.077834 0.916523
vt 0.023064 0.935554
vt 0.171018 0.935554
vt 0.706260 0.900952
vt 0.671453 0.905277
vt 0.779373 0.905277
vt 0.437340 0.906142
vt 0.338120 0.947664
vt 0.464317 0.947664
vt 0.591384 0.979671
vt 0.519656 0.975346
vt 0.516536 0.979671
vt 0.584421 0.774654
vt 0.653177 0.774654
vt 0.591596 0.754758
vt 0.945605 0.185554
vt 0.989121 0.185554
vt 0.978051 0.086073
vt 0.916014 0.725346
vt 0.869887 0.642232
vt 0.916014 0.588668
vt 0.995213 0.471886
vt 0.967363 0.380818
vt 0.995213 0.362889
vt 0.981288 0.785538
vt 0.990862 0.778114
vt 0.990862 0.869810
vt 0.063098 0.911332
vt 0.204961 0.911332
vt 0.165369 0.907872
vt 0.847921 0.546280
vt 0.800261 0.580017
vt 0.942124 0.580017
vt 0.804613 0.573962
vt 0.795039 0.558330
vt 0.804613 0.475346
vt 0.449521 0.902682
vt 0.360785 0.847318
vt 0.315492 0.902682
vt 0.233610 0.132702
vt 0.170228 0.128165
vt 0.244819 0.004857
vt 0.322010 0.062464
vt 0.137236 0.000433
vt 0.135980 0.138305
vt 0.115088 0.012613
vt 0.169664 0.212370
vt 0.085209 0.190290
vt 0.219305 0.162433
vt 0.291035 0.111893
vt 0.337250 0.143093
vt 0.325230 0.063476
vt 0.084802 0.197463
vt 0.000435 0.212370
vt 0.097108 0.527022
vt 0.195946 0.398791
vt 0.108461 0.403597
vt 0.046988 0.410875
vt 0.046769 0.402345
vt 0.067778 0.387567
vt 0.023834 0.523400
vt 0.213240 0.498631
vt 0.216275 0.498451
vt 0.016971 0.602509
vt 0.216275 0.378460
vt 0.374581 0.639354
vt 0.485158 0.602501
vt 0.375423 0.642796
vt 0.371773 0.640416
vt 0.486714 0.603396
vt 0.499509 0.599383
vt 0.496199 0.598844
vt 0.374068 0.646105
vt 0.506092 0.686419
vt 0.322454 0.580017
vt 0.355897 0.686419
vt 0.702702 0.526456
vt 0.702488 0.529429
vt 0.657220 0.530823
vt 0.637511 0.457531
vt 0.732376 0.412197
vt 0.732376 0.601644
vt 0.707080 0.526657
vt 0.860313 0.690744
vt 0.774785 0.638378
vt 0.764578 0.647392
vt 0.860313 0.585208
vt 0.855091 0.871540
vt 0.793285 0.798010
vt 0.733246 0.871540
vt 0.831593 0.321743
vt 0.925587 0.306661
vt 0.925587 0.395761
vt 0.768929 0.225346
vt 0.665361 0.127912
vt 0.740593 0.117672
vt 0.768929 0.046280
vt 0.668562 0.059034
vt 0.697190 0.197076
vt 0.496674 0.264871
vt 0.454987 0.363753
vt 0.546997 0.301189
vt 0.531163 0.258875
vt 0.502800 0.249466
vt 0.437631 0.232266
vt 0.535976 0.371957
vt 0.518031 0.385729
vt 0.436274 0.234987
vt 0.436872 0.416336
vt 0.403394 0.351866
vt 0.479694 0.454235
vt 0.536534 0.391437
vt 0.546997 0.456315
vt 0.086597 0.148513
vt 0.086597 0.058224
vt 0.002176 0.077925
vt 0.022268 0.004758
vt 0.047583 0.197664
vt 0.854221 0.146626
vt 0.798520 0.004758
vt 0.814427 0.129271
vt 0.854221 0.011528
vt 0.663621 0.185915
vt 0.663621 0.049685
vt 0.609652 0.176980
vt 0.593541 0.088174
vt 0.587903 0.082856
vt 0.633139 0.043685
vt 0.614494 0.261678
vt 0.647332 0.153451
vt 0.848129 0.277893
vt 0.919495 0.287746
vt 0.919495 0.182958
vt 0.855235 0.296280
vt 0.500000 0.164792
vt 0.500000 0.008253
vt 0.488564 0.004758
vt 0.450392 0.115761
vt 0.634900 0.810986
vt 0.666902 0.757136
vt 0.768059 0.810986
vt 0.716420 0.727076
vt 0.103404 0.820375
vt 0.146649 0.884516
vt 0.036378 0.884516
vt 0.027415 0.810986
vt 0.090078 0.639042
vt 0.010009 0.663525
vt 0.090068 0.555931
vt 0.090068 0.725346
vt 0.076014 0.554931
vt 0.855091 0.939299
vt 0.942124 0.879325
vt 0.942124 0.958045
vt 0.581776 0.731500
vt 0.654047 0.769464
vt 0.587665 0.650087
vt 0.544011 0.667085
vt 0.497389 0.769464
vt 0.647267 0.684742
vt 0.847259 0.306661
vt 0.847259 0.148356
vt 0.805483 0.212508
vt 0.832376 0.165905
vt 0.040872 0.379325
vt 0.084856 0.308053
vt 0.022667 0.260839
vt 0.084856 0.206315
vt 0.017842 0.257380
vt 0.397883 0.701100
vt 0.391997 0.769464
vt 0.412348 0.695069
vt 0.476501 0.769464
vt 0.305048 0.756832
vt 0.410903 0.207699
vt 0.420006 0.194292
vt 0.408655 0.197513
vt 0.423280 0.203546
vt 0.389415 0.104041
vt 0.343604 0.192265
vt 0.411768 0.079768
vt 0.425059 0.205981
vt 0.405318 0.265427
vt 0.460836 0.345588
vt 0.300948 0.244921
vt 0.300696 0.249593
vt 0.460836 0.046280
vt 0.530593 0.178156
vt 0.512705 0.227120
vt 0.509201 0.175990
vt 0.502616 0.065558
vt 0.578831 0.227941
vt 0.580389 0.107732
vt 0.580940 0.061851
vt 0.483648 0.227651
vt 0.443534 0.227941
vt 0.438207 0.161282
vt 0.553498 0.092530
vt 0.160574 0.892301
vt 0.312010 0.892301
vt 0.240856 0.855104
vt 0.540905 0.402682
vt 0.628805 0.348191
vt 0.664827 0.384200
vt 0.681687 0.246972
vt 0.683638 0.402682
vt 0.372940 0.275519
vt 0.344212 0.349048
vt 0.418190 0.349048
vt 0.914273 0.785900
vt 0.872413 0.875222
vt 0.846388 0.832855
vt 0.914273 0.894896
vt 0.124284 0.940744
vt 0.045692 0.977941
vt 0.154482 0.977941
vt 0.720191 0.517124
vt 0.735725 0.444204
vt 0.785466 0.506728
vt 0.785466 0.630190
vt 0.778339 0.450489
vt 0.782303 0.222751
vt 0.730753 0.243588
vt 0.784595 0.306323
vt 0.694082 0.371750
vt 0.762631 0.412197
vt 0.784595 0.408109
vt 0.517524 0.901817
vt 0.477961 0.910337
vt 0.536772 0.966695
vt 0.463446 0.966695
vt 0.557441 0.944512
vt 0.763708 0.071723
vt 0.791558 0.207867
vt 0.791558 0.058888
vt 0.785422 0.039360
vt 0.781783 0.205739
vt 0.771720 0.214965
vt 0.771540 0.682093
vt 0.732902 0.699688
vt 0.771540 0.788495
vt 0.731838 0.700694
vt 0.654917 0.689682
vt 0.264143 0.523696
vt 0.313126 0.564083
vt 0.268174 0.612024
vt 0.388663 0.612024
vt 0.346806 0.519464
vt 0.431958 0.548182
vt 0.522628 0.545881
vt 0.800395 0.889449
vt 0.662067 0.868945
vt 0.648825 0.897491
vt 0.802872 0.897491
vt 0.615585 0.827422
vt 0.628588 0.868080
vt 0.532202 0.868080
vt 0.684508 0.865187
vt 0.958660 0.230991
vt 0.999565 0.268599
vt 0.999565 0.187899
vt 0.996539 0.186419
vt 0.876849 0.543685
vt 0.861870 0.503324
vt 0.831906 0.523204
vt 0.807224 0.463009
vt 0.876849 0.418253
vt 0.271976 0.861495
vt 0.313751 0.804066
vt 0.273739 0.864594
vt 0.313751 0.883651
vt 0.278938 0.848183
vt 0.164349 0.817916
vt 0.212156 0.804066
vt 0.127502 0.848183
vt 0.955178 0.336938
vt 0.933057 0.252078
vt 0.955178 0.201990
vt 0.927328 0.300603
vt 0.387728 0.009948
vt 0.304489 0.021149
vt 0.307215 0.037437
vt 0.297780 0.030705
vt 0.294604 0.029652
vt 0.386491 0.042859
vt 0.385538 0.122968
vt 0.387728 0.125000
vt 0.080239 0.789650
vt 0.060351 0.765872
vt 0.042211 0.791090
vt 0.112042 0.722751
vt 0.160589 0.791090
vt 0.202350 0.737921
vt 0.102458 0.345588
vt 0.058747 0.354320
vt 0.076189 0.381055
vt 0.137076 0.381055
vt 0.625908 0.970547
vt 0.617783 0.972223
vt 0.620158 0.998989
vt 0.541775 0.999567
vt 0.630691 0.999567
vt 0.635770 0.969291
vt 0.970844 0.317787
vt 0.994343 0.273789
vt 0.994343 0.362024
vt 0.827241 0.373270
vt 0.788947 0.339823
vt 0.827241 0.319637
vt 0.330287 0.152682
vt 0.307740 0.130190
vt 0.239774 0.152682
vt 0.470409 0.757085
vt 0.526651 0.787903
vt 0.516446 0.817042
vt 0.562963 0.753893
vt 0.615753 0.817042
vt 0.688938 0.195069
vt 0.680157 0.238542
vt 0.715840 0.272924
vt 0.715840 0.212434
vt 0.003916 0.415383
vt 0.024804 0.372405
vt 0.024804 0.460640
vt 0.963882 0.442474
vt 0.963882 0.563581
vt 0.949086 0.445639
vt 0.883812 0.086073
vt 0.862924 0.021685
vt 0.883812 0.010813
vt 0.859443 0.743234
vt 0.865232 0.691609
vt 0.885553 0.756488
vt 0.885553 0.698351
vt 0.184073 0.980536
vt 0.162315 0.971109
vt 0.184073 0.916523
vt 0.091819 0.049068
vt 0.108355 0.058748
vt 0.108355 0.041090
vt 0.105952 0.137976
vt 0.415763 0.397491
vt 0.423412 0.407525
vt 0.406005 0.415676
vt 0.423412 0.484862
vt 0.155352 0.813581
vt 0.084870 0.798010
vt 0.077023 0.813581
vt 0.507833 0.701156
vt 0.523499 0.631920
vt 0.523499 0.708910
vt 0.684508 0.350593
vt 0.696693 0.262543
vt 0.696693 0.358564
vt 0.146306 0.236288
vt 0.141081 0.220922
vt 0.095300 0.269210
vt 0.112961 0.228631
vt 0.336710 0.363940
vt 0.296509 0.258372
vt 0.233339 0.325651
vt 0.356397 0.282459
vt 0.356397 0.157400
vt 0.250758 0.154412
vt 0.295523 0.248615
vt 0.205538 0.207079
vt 0.182263 0.334879
vt 0.102855 0.339097
vt 0.206565 0.209914
vt 0.196783 0.388841
vt 0.119330 0.353805
vt 0.853885 0.453222
vt 0.862924 0.353374
vt 0.862924 0.463235
vt 0.772411 0.421852
vt 0.115318 0.896626
vt 0.108325 0.887976
vt 0.005657 0.896626
vt 0.201258 0.757235
vt 0.217875 0.803201
vt 0.193784 0.790519
vt 0.153612 0.802722
vt 0.298806 0.745242
vt 0.318103 0.803201
vt 0.198869 0.863754
vt 0.195642 0.849048
vt 0.134465 0.863754
vt 0.080505 0.956315
vt 0.008268 0.956315
vt 0.015776 0.944785
vt 0.015829 0.935554
vt 0.559401 0.012543
vt 0.620895 0.012827
vt 0.592211 0.024446
vt 0.718760 0.003893
vt 0.596385 0.039974
vt 0.733246 0.044550
vt 0.553960 0.044550
vt 0.936031 0.179498
vt 0.925365 0.172578
vt 0.848129 0.179498
vt 0.560923 0.948451
vt 0.575718 0.937284
vt 0.575718 0.976211
vt 0.582391 0.963235
vt 0.659269 0.963235
vt 0.578329 0.957274
vt 0.635321 0.904419
vt 0.585813 0.875000
vt 0.566694 0.870675
vt 0.547868 0.881055
vt 0.573107 0.881055
vt 0.462576 0.263408
vt 0.462576 0.288495
vt 0.453003 0.269282
vt 0.867276 0.439014
vt 0.863795 0.376465
vt 0.867276 0.375000
vt 0.929069 0.678411
vt 0.937772 0.666523
vt 0.937772 0.688149
vt 0.929739 0.681606
vt 0.922976 0.218426
vt 0.922976 0.290225
vt 0.921236 0.289370
vt 0.717972 0.983997
vt 0.708007 0.984862
vt 0.726284 0.984862
vt 0.413553 0.493518
vt 0.298326 0.456940
vt 0.386295 0.364365
vt 0.327747 0.367410
vt 0.219756 0.331747
vt 0.231802 0.436131
vt 0.278641 0.519464
vt 0.240319 0.505181
vt 0.330870 0.517864
vt 0.419733 0.519464
vt 0.458225 0.504942
vt 0.693907 0.591618
vt 0.613950 0.488322
vt 0.609661 0.586594
vt 0.707137 0.679498
vt 0.619773 0.640326
vt 0.612427 0.619413
vt 0.707137 0.592676
vt 0.703489 0.609152
vt 0.589461 0.546378
vt 0.530360 0.512832
vt 0.522628 0.613278
vt 0.603565 0.503357
vt 0.535854 0.494707
vt 0.621845 0.464965
vt 0.600695 0.587978
vt 0.621845 0.664792
vt 0.875109 0.988322
vt 0.978677 0.988322
vt 0.948716 0.957180
vt 0.419462 0.003893
vt 0.395561 0.036765
vt 0.438251 0.018345
vt 0.440818 0.036765
vt 0.567015 0.836938
vt 0.550971 0.825692
vt 0.539164 0.836938
vt 0.099819 0.528979
vt 0.188761 0.657870
vt 0.153934 0.538866
vt 0.091819 0.664792
vt 0.261532 0.664792
vt 0.245664 0.552858
vt 0.218750 0.499567
vt 0.242043 0.531574
vt 0.248477 0.512784
vt 0.171889 0.531574
vt 0.441141 0.772059
vt 0.464317 0.778517
vt 0.464317 0.849048
vt 0.434726 0.787153
vt 0.828982 0.990917
vt 0.777162 0.968426
vt 0.761097 0.990917
vt 0.038729 0.965138
vt 0.020367 0.963235
vt 0.018983 0.997467
vt 0.038729 0.997837
vt 0.012620 0.982542
vt 0.013482 0.966085
vt 0.208442 0.933824
vt 0.187554 0.933823
vt 0.205527 0.915167
vt 0.199172 0.912197
vt 0.102263 0.030709
vt 0.101690 0.011728
vt 0.061033 0.030709
vt 0.057876 0.001298
vt 0.359878 0.156142
vt 0.394691 0.156142
vt 0.389459 0.144031
vt 0.464007 0.747388
vt 0.495648 0.761678
vt 0.437337 0.698757
vt 0.495648 0.696799
vt 0.042545 0.234862
vt 0.025236 0.210640
vt 0.057006 0.211992
vt 0.005657 0.234862
vt 0.889251 0.773860
vt 0.862054 0.772059
vt 0.864691 0.785035
vt 0.908181 0.785035
vt 0.851212 0.894896
vt 0.853351 0.950410
vt 0.804882 0.925151
vt 0.807134 0.938241
vt 0.852534 0.963235
vt 0.787157 0.963235
vt 0.755875 0.962387
vt 0.780040 0.934513
vt 0.762036 0.922076
vt 0.019582 0.131920
vt 0.019582 0.194204
vt 0.002176 0.185697
vt 0.313751 0.926903
vt 0.381636 0.926903
vt 0.374250 0.912197
vt 0.647955 0.981401
vt 0.732148 0.981401
vt 0.734117 0.936852
vt 0.696842 0.921713
vt 0.066580 0.996107
vt 0.075021 0.985927
vt 0.135335 0.996107
vt 0.125337 0.981401
vt 0.968233 0.000433
vt 0.968233 0.069637
vt 0.889034 0.011400
vt 0.728024 0.017734
vt 0.797650 0.017734
vt 0.730926 0.003893
vt 0.977807 0.900533
vt 0.936031 0.865494
vt 0.971735 0.904412
vt 0.977807 0.802336
vt 0.995014 0.047145
vt 0.997824 0.049268
vt 0.997824 0.131055
vt 0.975196 0.057826
vt 0.611793 0.275519
vt 0.653217 0.256488
vt 0.665361 0.275519
vt 0.609661 0.264714
vt 0.043519 0.707180
vt 0.054395 0.763408
vt 0.035248 0.751181
vt 0.054395 0.709383
vt 0.944735 0.562716
vt 0.954315 0.562716
vt 0.944797 0.557544
vt 0.956049 0.554931
vt 0.819400 0.525519
vt 0.828982 0.525519
vt 0.817668 0.517734
vt 0.828915 0.520344
vt 0.967363 0.518902
vt 0.985153 0.618923
vt 0.988251 0.498702
vt 0.988251 0.618945
vt 0.953438 0.718426
vt 0.907311 0.743463
vt 0.953438 0.806357
vt 0.940632 0.847318
vt 0.562663 0.033304
vt 0.541569 0.026598
vt 0.503481 0.033304
vt 0.557101 0.015138
vt 0.754134 0.918253
vt 0.754134 0.977076
vt 0.735857 0.923781
vt 0.801872 0.227076
vt 0.794169 0.298527
vt 0.808964 0.310986
vt 0.808964 0.265749
vt 0.969974 0.666523
vt 0.921236 0.623764
vt 0.969974 0.557526
vt 0.345953 0.659602
vt 0.288317 0.606834
vt 0.270560 0.650372
vt 0.262402 0.659602
vt 0.486945 0.999567
vt 0.447303 0.951990
vt 0.402524 0.999567
vt 0.524369 0.457180
vt 0.524369 0.530709
vt 0.453873 0.514764
vt 0.692033 0.834343
vt 0.649695 0.842993
vt 0.736728 0.842993
vt 0.413838 0.981401
vt 0.388937 0.948529
vt 0.303307 0.981401
vt 0.411980 0.954025
vt 0.936054 0.426748
vt 0.964752 0.428633
vt 0.964752 0.315311
vt 0.930809 0.403047
vt 0.255454 0.971886
vt 0.251958 0.984862
vt 0.310270 0.984862
vt 0.491297 0.693339
vt 0.397082 0.659602
vt 0.389002 0.691947
vt 0.349434 0.693339
vt 0.958319 0.715580
vt 0.987380 0.754758
vt 0.957789 0.721681
vt 0.987380 0.643166
vt 0.750653 0.582612
vt 0.750653 0.684689
vt 0.708007 0.645971
vt 0.242949 0.727249
vt 0.213709 0.729671
vt 0.301752 0.677768
vt 0.122280 0.722248
vt 0.332898 0.685380
vt 0.330551 0.729671
vt 0.196529 0.678371
vt 0.946475 0.940658
vt 0.997824 0.997837
vt 0.997824 0.910745
vt 0.953189 0.909602
vt 0.936031 0.067907
vt 0.936031 0.170848
vt 0.857702 0.121401
vt 0.188425 0.994377
vt 0.280679 0.994377
vt 0.195724 0.972751
vt 0.554940 0.273359
vt 0.572276 0.304140
vt 0.571973 0.251117
vt 0.570138 0.246138
vt 0.607920 0.187284
vt 0.553960 0.333611
vt 0.575328 0.324563
vt 0.607920 0.339533
vt 0.598551 0.304081
vt 0.461197 0.461713
vt 0.481990 0.458910
vt 0.430374 0.480536
vt 0.491297 0.480536
vt 0.034378 0.807526
vt 0.006120 0.738493
vt 0.003916 0.743260
vt 0.034378 0.688476
vt 0.009837 0.685554
vt 0.664491 0.439879
vt 0.593590 0.403547
vt 0.562663 0.439879
vt 0.945605 0.439014
vt 0.945605 0.547145
vt 0.878590 0.515060
vt 0.409034 0.772924
vt 0.326806 0.844723
vt 0.454743 0.844723
vt 0.783609 0.760221
vt 0.858573 0.695934
vt 0.778503 0.751763
vt 0.858573 0.815311
vt 0.678416 0.248702
vt 0.667102 0.231455
vt 0.678416 0.161332
vt 0.909324 0.401817
vt 0.882071 0.439014
vt 0.942124 0.439014
vt 0.853351 0.209775
vt 0.853351 0.255623
vt 0.852480 0.248526
vt 0.189295 0.962370
vt 0.310270 0.962370
vt 0.243564 0.916523
usemtl baked
f 118/118 119/119 115/115
f 115/115 117/117 118/118
f 474/474 475/475 476/476
f 475/475 477/477 476/476
f 203/203 204/204 205/205
f 210/210 205/205 204/204
f 453/453 444/444 454/454
f 444/444 453/453 452/452
f 445/445 444/444 450/450
f 452/452 450/450 444/444
f 213/213 203/203 206/206
f 203/203 205/205 206/206
f 119/119 120/120 115/115
f 245/245 244/244 246/246
f 243/243 244/244 245/245
f 370/370 371/371 372/372
f 371/371 373/373 372/372
f 483/483 485/485 486/486
f 485/485 483/483 482/482
f 508/508 509/509 510/510
f 510/510 509/509 511/511
f 193/193 190/190 197/197
f 197/197 190/190 198/198
f 190/190 191/191 192/192
f 190/190 193/193 191/191
f 528/528 532/532 530/530
f 531/531 532/532 528/528
f 530/530 532/532 533/533
f 534/534 530/530 533/533
f 519/519 520/520 521/521
f 519/519 522/522 520/520
f 529/529 530/530 535/535
f 535/535 530/530 534/534
f 527/527 528/528 529/529
f 528/528 530/530 529/529
f 523/523 524/524 525/525
f 523/523 525/525 526/526
f 539/539 540/540 541/541
f 536/536 537/537 538/538
f 328/328 329/329 330/330
f 343/343 344/344 345/345
f 542/542 544/544 545/545
f 542/542 543/543 544/544
f 503/503 502/502 499/499
f 499/499 502/502 500/500
f 498/498 499/499 500/500
f 501/501 498/498 500/500
f 504/504 505/505 506/506
f 505/505 507/507 506/506
f 490/490 488/488 487/487
f 487/487 488/488 489/489
f 494/494 491/491 493/493
f 491/491 492/492 493/493
f 548/548 547/547 549/549
f 546/546 547/547 548/548
f 481/481 482/482 483/483
f 484/484 482/482 481/481
f 330/330 329/329 331/331
f 332/332 330/330 331/331
f 550/550 551/551 552/552
f 350/350 351/351 352/352
f 247/247 243/243 245/245
f 167/167 168/168 169/169
f 319/319 320/320 321/321
f 553/553 554/554 555/555
f 205/205 210/210 211/211
f 205/205 211/211 212/212
f 357/357 358/358 359/359
f 359/359 358/358 360/360
f 82/82 87/87 86/86
f 82/82 86/86 85/85
f 495/495 496/496 497/497
f 478/478 479/479 480/480
f 575/575 574/574 573/573
f 577/577 579/579 578/578
f 572/572 573/573 574/574
f 576/576 577/577 578/578
f 564/564 567/567 565/565
f 564/564 565/565 566/566
f 557/557 556/556 559/559
f 568/568 569/569 570/570
f 571/571 569/569 568/568
f 556/556 557/557 558/558
f 560/560 561/561 562/562
f 560/560 562/562 563/563
f 120/120 123/123 115/115
f 580/580 581/581 582/582
f 581/581 583/583 582/582
f 346/346 347/347 348/348
f 348/348 347/347 349/349
f 208/208 203/203 209/209
f 209/209 203/203 213/213
f 208/208 207/207 203/203
f 207/207 204/204 203/203
f 75/75 74/74 72/72
f 72/72 74/74 73/73
f 585/585 587/587 586/586
f 584/584 585/585 586/586
f 595/595 597/597 598/598
f 595/595 596/596 597/597
f 590/590 589/589 591/591
f 589/589 588/588 591/591
f 588/588 589/589 590/590
f 592/592 593/593 594/594
f 111/111 110/110 112/112
f 112/112 110/110 113/113
f 599/599 600/600 601/601
f 420/420 421/421 422/422
f 422/422 421/421 423/423
f 602/602 603/603 604/604
f 605/605 602/602 604/604
f 361/361 362/362 363/363
f 462/462 461/461 455/455
f 296/296 299/299 298/298
f 364/364 365/365 366/366
f 438/438 439/439 440/440
f 606/606 607/607 608/608
f 257/257 255/255 258/258
f 52/52 53/53 54/54
f 411/411 409/409 408/408
f 409/409 411/411 413/413
f 138/138 140/140 144/144
f 466/466 468/468 467/467
f 233/233 236/236 234/234
f 411/411 410/410 412/412
f 139/139 141/141 140/140
f 408/408 410/410 411/411
f 138/138 139/139 140/140
f 143/143 142/142 141/141
f 376/376 384/384 382/382
f 382/382 384/384 370/370
f 382/382 370/370 383/383
f 370/370 372/372 383/383
f 385/385 382/382 383/383
f 385/385 383/383 386/386
f 609/609 610/610 611/611
f 116/116 124/124 122/122
f 116/116 122/122 121/121
f 115/115 116/116 117/117
f 117/117 116/116 121/121
f 384/384 381/381 371/371
f 384/384 371/371 370/370
f 116/116 125/125 124/124
f 398/398 396/396 394/394
f 141/141 142/142 140/140
f 396/396 395/395 397/397
f 407/407 408/408 409/409
f 396/396 398/398 399/399
f 399/399 395/395 396/396
f 19/19 20/20 21/21
f 126/126 128/128 127/127
f 122/122 126/126 127/127
f 22/22 23/23 24/24
f 138/138 145/145 140/140
f 394/394 395/395 396/396
f 122/122 124/124 126/126
f 394/394 396/396 397/397
f 278/278 279/279 280/280
f 279/279 281/281 280/280
f 612/612 613/613 614/614
f 278/278 282/282 279/279
f 463/463 467/467 464/464
f 463/463 466/466 467/467
f 615/615 616/616 617/617
f 615/615 618/618 616/616
f 425/425 426/426 427/427
f 619/619 620/620 621/621
f 619/619 621/621 622/622
f 114/114 110/110 109/109
f 109/109 110/110 111/111
f 172/172 173/173 170/170
f 174/174 170/170 173/173
f 262/262 260/260 263/263
f 264/264 262/262 263/263
f 263/263 260/260 259/259
f 259/259 260/260 261/261
f 158/158 159/159 160/160
f 161/161 158/158 160/160
f 225/225 228/228 226/226
f 225/225 226/226 227/227
f 162/162 163/163 164/164
f 164/164 163/163 166/166
f 66/66 58/58 67/67
f 66/66 65/65 58/58
f 623/623 624/624 625/625
f 512/512 513/513 514/514
f 516/516 518/518 517/517
f 237/237 238/238 239/239
f 515/515 516/516 517/517
f 180/180 181/181 182/182
f 461/461 462/462 458/458
f 86/86 89/89 85/85
f 83/83 82/82 85/85
f 81/81 82/82 83/83
f 85/85 89/89 83/83
f 34/34 35/35 36/36
f 626/626 627/627 628/628
f 627/627 629/629 628/628
f 296/296 298/298 297/297
f 40/40 41/41 42/42
f 455/455 457/457 458/458
f 462/462 455/455 458/458
f 295/295 296/296 297/297
f 458/458 457/457 459/459
f 300/300 295/295 297/297
f 459/459 457/457 460/460
f 300/300 297/297 301/301
f 633/633 631/631 630/630
f 630/630 631/631 632/632
f 284/284 286/286 285/285
f 283/283 284/284 285/285
f 183/183 182/182 181/181
f 302/302 300/300 301/301
f 90/90 84/84 88/88
f 91/91 90/90 88/88
f 242/242 239/239 241/241
f 241/241 239/239 240/240
f 81/81 83/83 84/84
f 84/84 83/83 88/88
f 322/322 323/323 324/324
f 69/69 63/63 68/68
f 46/46 47/47 48/48
f 43/43 44/44 45/45
f 239/239 238/238 240/240
f 184/184 180/180 182/182
f 134/134 137/137 135/135
f 134/134 135/135 136/136
f 291/291 294/294 292/292
f 291/291 292/292 293/293
f 422/422 423/423 424/424
f 13/13 14/14 15/15
f 634/634 635/635 636/636
f 644/644 645/645 646/646
f 647/647 644/644 646/646
f 637/637 638/638 639/639
f 637/637 639/639 641/641
f 637/637 641/641 642/642
f 185/185 189/189 186/186
f 10/10 11/11 12/12
f 172/172 171/171 175/175
f 170/170 171/171 172/172
f 1/1 2/2 3/3
f 471/471 472/472 473/473
f 651/651 652/652 653/653
f 648/648 649/649 650/650
f 165/165 163/163 162/162
f 463/463 464/464 465/465
f 667/667 668/668 669/669
f 670/670 671/671 668/668
f 667/667 670/670 668/668
f 660/660 655/655 659/659
f 654/654 659/659 655/655
f 655/655 658/658 656/656
f 654/654 655/655 656/656
f 654/654 656/656 657/657
f 463/463 465/465 469/469
f 469/469 465/465 470/470
f 214/214 215/215 216/216
f 337/337 338/338 339/339
f 290/290 288/288 287/287
f 287/287 288/288 289/289
f 391/391 392/392 393/393
f 400/400 401/401 402/402
f 149/149 147/147 146/146
f 200/200 190/190 195/195
f 190/190 192/192 195/195
f 198/198 190/190 200/200
f 198/198 200/200 201/201
f 185/185 186/186 187/187
f 187/187 186/186 188/188
f 303/303 304/304 305/305
f 304/304 303/303 306/306
f 229/229 230/230 231/231
f 222/222 223/223 224/224
f 672/672 673/673 674/674
f 675/675 676/676 677/677
f 133/133 129/129 131/131
f 130/130 132/132 131/131
f 95/95 92/92 94/94
f 92/92 93/93 94/94
f 96/96 92/92 95/95
f 146/146 147/147 148/148
f 662/662 658/658 655/655
f 661/661 662/662 655/655
f 660/660 661/661 655/655
f 665/665 664/664 666/666
f 663/663 664/664 665/665
f 129/129 130/130 131/131
f 307/307 308/308 306/306
f 303/303 307/307 306/306
f 92/92 98/98 97/97
f 92/92 97/97 93/93
f 191/191 194/194 192/192
f 638/638 640/640 639/639
f 643/643 639/639 640/640
f 202/202 196/196 191/191
f 191/191 196/196 194/194
f 333/333 334/334 335/335
f 336/336 333/333 335/335
f 309/309 311/311 312/312
f 309/309 310/310 311/311
f 449/449 445/445 450/450
f 451/451 449/449 450/450
f 58/58 65/65 55/55
f 57/57 58/58 55/55
f 274/274 275/275 276/276
f 274/274 276/276 277/277
f 37/37 38/38 39/39
f 678/678 679/679 680/680
f 684/684 682/682 681/681
f 681/681 682/682 683/683
f 77/77 78/78 71/71
f 78/78 80/80 71/71
f 403/403 404/404 405/405
f 403/403 405/405 406/406
f 99/99 100/100 101/101
f 378/378 379/379 380/380
f 380/380 379/379 381/381
f 102/102 100/100 99/99
f 387/387 388/388 389/389
f 380/380 381/381 384/384
f 219/219 218/218 220/220
f 71/71 75/75 72/72
f 235/235 232/232 234/234
f 74/74 76/76 73/73
f 70/70 72/72 73/73
f 25/25 26/26 27/27
f 232/232 233/233 234/234
f 56/56 60/60 59/59
f 59/59 60/60 61/61
f 76/76 70/70 73/73
f 377/377 375/375 374/374
f 63/63 62/62 68/68
f 79/79 70/70 76/76
f 374/374 375/375 376/376
f 70/70 77/77 71/71
f 70/70 71/71 72/72
f 255/255 257/257 256/256
f 254/254 255/255 256/256
f 252/252 253/253 249/249
f 28/28 29/29 30/30
f 354/354 353/353 356/356
f 441/441 442/442 443/443
f 317/317 318/318 313/313
f 315/315 317/317 313/313
f 313/313 314/314 315/315
f 353/353 354/354 355/355
f 315/315 314/314 316/316
f 417/417 418/418 419/419
f 198/198 199/199 197/197
f 64/64 62/62 56/56
f 55/55 64/64 56/56
f 56/56 62/62 60/60
f 60/60 62/62 63/63
f 57/57 56/56 59/59
f 685/685 686/686 687/687
f 414/414 415/415 416/416
f 7/7 8/8 9/9
f 325/325 326/326 327/327
f 248/248 250/250 251/251
f 376/376 380/380 384/384
f 380/380 376/376 375/375
f 248/248 252/252 249/249
f 248/248 249/249 250/250
f 4/4 5/5 6/6
f 431/431 432/432 433/433
f 266/266 267/267 268/268
f 269/269 266/266 268/268
f 150/150 151/151 152/152
f 176/176 177/177 178/178
f 178/178 177/177 179/179
f 153/153 150/150 152/152
f 221/221 217/217 219/219
f 217/217 218/218 219/219
f 390/390 388/388 387/387
f 65/65 64/64 55/55
f 444/444 445/445 446/446
f 446/446 445/445 447/447
f 154/154 155/155 156/156
f 155/155 157/157 156/156
f 55/55 56/56 57/57
f 448/448 447/447 445/445
f 449/449 448/448 445/445
f 688/688 689/689 690/690
f 691/691 692/692 693/693
f 49/49 50/50 51/51
f 455/455 456/456 457/457
f 31/31 32/32 33/33
f 694/694 695/695 696/696
f 16/16 17/17 18/18
f 265/265 262/262 264/264
f 434/434 435/435 436/436
f 437/437 434/434 436/436
f 428/428 429/429 430/430
f 265/265 264/264 263/263
f 273/273 271/271 270/270
f 270/270 271/271 272/272
f 340/340 341/341 342/342
f 367/367 368/368 369/369
f 106/106 107/107 108/108
f 103/103 104/104 105/105
