v -0.922629 0.000000 -1.197978 0.3245 0.2630 0.3266
v -0.998040 0.000349 -0.746656 0.3833 0.2184 0.2571
v -0.976235 0.212238 0.320411 0.4477 0.1622 0.1498
v -0.957101 0.189975 0.545569 0.4619 0.2005 0.2053
v -1.180400 0.643420 -0.868786 0.3134 0.2220 0.2591
v -0.969510 0.472918 -0.733921 0.3931 0.2092 0.2338
v -1.169749 0.626998 -0.210868 0.5585 0.2142 0.2090
v -1.116223 0.530850 0.340196 0.6089 0.1614 0.1343
v -0.996584 0.644215 0.934298 0.5659 0.1045 0.0734
v -0.911972 0.783550 -1.186059 0.3504 0.1299 0.1105
v -1.168755 0.738805 -0.282050 0.5169 0.1593 0.1290
v -1.176336 0.841378 -0.034891 0.7165 0.3620 0.3135
v -1.003457 0.930865 0.816200 0.5516 0.3040 0.2457
v -0.946015 0.802881 0.921852 0.5974 0.4477 0.3984
v -1.143177 1.153834 -0.270089 0.8101 0.3512 0.3367
v -1.160438 1.288483 0.304327 0.7026 0.4559 0.4071
v -0.993690 1.285647 0.836632 0.7089 0.4641 0.3958
v -0.944503 1.001522 0.924103 0.7629 0.6298 0.4958
v -1.140700 1.550529 -0.280784 0.7751 0.3990 0.3825
v -1.157276 1.475289 0.323169 0.6220 0.5312 0.5044
v -0.990562 1.341330 0.842726 0.8045 0.5297 0.4223
v -0.949104 1.348975 0.917384 0.6573 0.5206 0.3800
v -1.140260 1.923725 -0.284470 0.7423 0.3102 0.2668
v -1.181582 1.818074 0.087310 0.6859 0.4709 0.3995
v -0.951461 1.927394 0.915569 0.8270 0.5164 0.4036
v -0.913473 1.898062 0.976233 0.6317 0.4856 0.3508
v -0.925597 1.982052 -0.875259 0.5438 0.1111 0.0810
v -1.140077 2.034043 -0.279616 0.7956 0.3951 0.3492
v -1.142167 2.034043 -0.269526 0.6431 0.5781 0.5322
v -0.953025 1.950164 0.914471 0.6630 0.5945 0.5406
v -0.909991 1.950786 0.991628 0.7729 0.6072 0.4746
v -1.141516 2.349169 -0.271313 0.8834 0.4108 0.3804
v -1.171906 2.570596 0.221085 0.7335 0.6576 0.5879
v -0.981480 2.565971 0.859844 0.7303 0.6594 0.5906
v -0.947511 2.563972 0.920030 0.6900 0.5574 0.4607
v -1.141482 2.814604 -0.273192 0.8527 0.4256 0.4134
v -1.144273 2.821270 -0.258698 0.7417 0.6700 0.6100
v -0.957209 2.865236 0.904319 0.7431 0.6705 0.6084
v -0.926077 2.885926 0.955583 0.6264 0.5054 0.4448
v -0.977941 3.143619 -0.876786 0.4053 0.1331 0.1338
v -0.992777 3.155889 -0.855009 0.7802 0.4369 0.4174
v -1.179744 3.130571 0.048619 0.6983 0.4562 0.4156
v -0.955988 2.926061 0.906324 0.6039 0.2207 0.1790
v -0.914706 3.040198 0.972927 0.7076 0.2968 0.1611
v -0.941888 3.240336 -0.930336 0.4924 0.1900 0.1686
v -1.043072 3.244876 -0.782497 0.7449 0.2162 0.1887
v -1.234189 3.237880 -0.007288 0.8802 0.2574 0.2291
v -1.203456 3.237296 0.409571 0.6802 0.2141 0.1652
v -0.930974 3.294012 0.966650 0.7178 0.1959 0.0427
v -0.910939 3.579679 -0.670357 0.1556 0.0405 0.0471
v -0.808431 0.000081 -1.103992 0.2015 0.1284 0.1380
v -0.899830 0.000476 -0.611397 0.3597 0.1992 0.2072
v -0.865827 0.265592 0.312059 0.5072 0.2219 0.1945
v -0.866934 0.255755 0.456472 0.4446 0.1462 0.1338
v -0.604311 0.561061 -1.110035 0.4545 0.2462 0.2699
v -0.731330 0.504987 -0.841198 0.5552 0.2323 0.2443
v -0.840922 0.336227 0.290712 0.6767 0.2143 0.2084
v -0.852178 0.324091 0.563602 0.5981 0.1714 0.1574
v -0.479358 0.591740 1.375151 0.8394 0.2015 0.1784
v -0.469711 0.619610 1.744567 0.2650 0.0907 0.0771
v -0.901754 0.788551 -1.195290 0.8567 0.2436 0.2060
v -0.906446 0.860875 -0.861617 0.5620 0.1775 0.1295
v -0.785067 0.737558 1.150492 0.5792 0.3269 0.2894
v -0.480545 0.654895 1.692986 0.3431 0.1023 0.1045
v -0.899505 1.025685 -0.870763 0.9054 0.2920 0.2658
v -0.906960 0.996522 -0.859689 0.8537 0.2731 0.2408
v -0.732003 1.271485 1.202298 0.6542 0.5228 0.4648
v -0.451297 1.420796 -1.279327 0.9362 0.3163 0.2953
v -0.903701 1.618101 -0.862939 0.9304 0.3092 0.2902
v -0.732157 1.580775 1.202460 0.6487 0.5695 0.5007
v -0.894476 1.636768 -0.876160 0.7114 0.1772 0.1239
v -0.907691 1.635433 -0.856860 0.9411 0.3228 0.3070
v -0.747181 1.758335 1.186932 0.6265 0.4501 0.3328
v -0.870667 1.946058 -0.909665 0.7650 0.2144 0.1730
v -0.904654 1.946058 -0.861736 0.8306 0.2550 0.2204
v -0.576757 2.032619 1.333716 0.7370 0.5964 0.4975
v -0.899357 2.563304 -0.865669 0.9371 0.3253 0.3028
v -0.904214 2.515312 -0.858802 0.9299 0.3197 0.3005
v -0.494154 2.562970 1.387739 0.7072 0.5777 0.4809
v -0.632549 2.896676 -1.156275 0.9367 0.3257 0.3053
v -0.903278 2.895927 -0.860723 0.9023 0.3446 0.3471
v -0.430205 2.771778 1.423404 0.6893 0.5752 0.5064
v -0.659983 3.148559 -1.212767 0.6276 0.2402 0.2363
v -0.908010 3.208547 -0.858105 0.7689 0.4322 0.4810
v -0.496306 2.914590 1.387119 0.6666 0.3266 0.2207
v -0.554335 3.546440 -0.916405 0.5396 0.1931 0.1788
v -0.796072 3.519897 -0.673622 0.4639 0.1227 0.1139
v -0.427984 3.525731 0.218432 0.6618 0.1813 0.1628
v -0.689894 3.488232 0.480810 0.5473 0.1518 0.1162
v -0.589955 3.289870 1.324971 0.6095 0.1971 0.1237
v -0.583636 3.564236 -0.883688 0.3402 0.1210 0.1503
v -0.822827 3.584469 -0.660697 0.2881 0.1172 0.1509
v -0.576369 3.564646 0.281313 0.3249 0.0757 0.0659
v -0.554415 3.564608 0.361093 0.2237 0.0487 0.0366
v -0.429114 3.995832 -0.545005 0.5072 0.1843 0.2026
v -0.291558 0.322457 -0.284527 0.3869 0.1294 0.1137
v -0.247468 0.322457 -0.225854 0.2811 0.0818 0.0738
v -0.058697 0.322541 0.762867 0.3554 0.0693 0.0501
v -0.095778 0.216299 2.081695 0.0078 0.0091 0.0124
v -0.124838 0.113215 2.106391 0.0078 0.0080 0.0082
v -0.354816 0.644123 -1.388955 0.8696 0.2657 0.2526
v -0.416619 0.433554 -0.808108 0.6952 0.1836 0.1698
v -0.188582 0.344935 0.179593 0.5182 0.1256 0.1083
v -0.095059 0.364945 0.854757 0.6921 0.1792 0.1639
v -0.238683 0.526210 1.376058 0.6755 0.1489 0.1219
v -0.002055 0.520917 1.515194 0.1488 0.0469 0.0437
v 0.004116 0.643904 2.267198 0.0478 0.0222 0.0227
v 0.048731 0.738092 -1.430474 0.9096 0.2700 0.2353
v -0.382267 0.963655 1.446200 0.6272 0.2459 0.2092
v -0.196134 0.939534 1.905796 0.4138 0.1183 0.1037
v -0.029597 0.747624 2.267339 0.2468 0.0980 0.0843
v -0.412287 1.282151 -1.298951 0.9301 0.3024 0.2796
v -0.188599 1.225033 1.510129 0.7383 0.4533 0.4194
v 0.046745 1.233990 1.528640 0.6094 0.2364 0.1945
v -0.180134 0.998836 2.105906 0.3572 0.1457 0.1183
v -0.416134 1.594272 -1.296819 0.9448 0.3291 0.3058
v -0.192098 1.333455 1.509017 0.6276 0.5752 0.5471
v 0.032194 1.573141 1.529443 0.7191 0.5980 0.5563
v -0.425159 1.626767 -1.292548 0.5750 0.1221 0.0534
v -0.418075 1.936060 1.429377 0.6243 0.5986 0.5863
v 0.044764 1.902521 1.528528 0.5315 0.3863 0.3712
v -0.307667 1.946058 -1.340512 0.8439 0.2722 0.2392
v -0.426169 1.950498 1.434014 0.6795 0.6449 0.6229
v -0.181538 2.219851 1.510544 0.5516 0.4840 0.4612
v 0.036333 2.581200 -1.394337 0.9390 0.3290 0.3066
v -0.364703 2.567303 1.452793 0.7003 0.6736 0.6495
v -0.176823 2.276428 1.511402 0.6111 0.6008 0.5951
v 0.052270 2.642210 -1.393577 0.9331 0.3260 0.3038
v -0.363710 2.638794 1.453187 0.6883 0.6553 0.6292
v -0.182765 2.729136 1.510488 0.6343 0.6218 0.6174
v 0.048731 3.225046 -1.393366 0.8201 0.3286 0.3197
v -0.291518 2.914755 1.480986 0.7016 0.5446 0.4780
v -0.122789 2.916590 1.521183 0.6573 0.6024 0.5927
v -0.422704 3.507175 -1.023162 0.4310 0.2265 0.2560
v -0.368499 3.488892 -0.831847 0.1967 0.0583 0.0788
v -0.286501 3.525934 0.081738 0.1466 0.0065 0.0228
v -0.015418 3.525946 0.511747 0.3753 0.0684 0.0498
v -0.214497 3.292822 1.509777 0.5546 0.1838 0.1325
v -0.025630 3.294180 1.542206 0.6253 0.5500 0.5510
v 0.053686 3.560502 -1.170973 0.2603 0.1174 0.1634
v -0.381502 3.883906 -0.485881 0.2641 0.1035 0.1485
v -0.144600 3.578194 0.842536 0.2676 0.0674 0.0535
v 0.024277 3.566857 0.960339 0.2582 0.0674 0.0603
v -0.130724 3.964316 -0.614140 0.4451 0.1634 0.1892
v 0.394426 0.318342 -0.418619 0.3843 0.0915 0.0902
v 0.105271 0.302323 0.161180 0.3249 0.0796 0.0694
v 0.131129 0.294337 0.336249 0.3487 0.0999 0.0913
v 0.359046 0.626354 -1.337599 0.6051 0.1890 0.1733
v 0.055666 0.366008 -0.469263 0.7277 0.2022 0.1900
v 0.062608 0.341945 -0.095992 0.4807 0.1177 0.1025
v 0.237102 0.351332 0.534585 0.6505 0.1766 0.1450
v 0.337235 0.626476 1.487782 0.7234 0.1744 0.1562
v 0.085052 0.542720 1.510544 0.1046 0.0148 0.0163
v 0.062145 0.616064 2.164797 0.0331 0.0094 0.0099
v 0.168969 0.736906 -1.423185 0.9092 0.2618 0.2259
v 0.192532 0.866178 1.509756 0.3101 0.0449 0.0529
v 0.165983 0.966192 1.514716 0.3165 0.0922 0.0840
v 0.059634 0.702231 2.266544 0.2593 0.0934 0.0804
v 0.530966 1.181831 -1.234572 0.9441 0.3254 0.3034
v 0.191773 1.023517 1.509629 0.8298 0.1518 0.1568
v 0.113171 1.239490 1.522716 0.3880 0.1169 0.1024
v 0.057653 1.007341 2.113469 0.3274 0.1179 0.0960
v 0.530190 1.415089 -1.235001 0.9486 0.3300 0.3066
v 0.192720 1.397964 1.509080 0.8256 0.1995 0.1873
v 0.105242 1.508827 1.523539 0.8677 0.2424 0.2038
v 0.529893 1.649598 -1.235479 0.6836 0.1991 0.1542
v 0.196990 1.901896 1.508110 0.6766 0.1385 0.0953
v 0.137202 1.645430 1.519058 0.5407 0.0912 0.0535
v 0.527358 2.263160 -1.235549 0.6468 0.1781 0.1248
v 0.527621 2.125302 1.370423 0.6848 0.1283 0.0919
v 0.176623 2.247348 1.511909 0.5673 0.1474 0.1113
v 0.528169 2.330253 -1.235001 0.9332 0.3389 0.3167
v 0.429360 2.555264 1.425585 0.7868 0.2591 0.2395
v 0.055666 2.445322 1.527691 0.6489 0.4446 0.4085
v 0.509383 2.648711 -1.246350 0.8639 0.4237 0.3925
v 0.535087 2.729719 1.365392 0.7870 0.3075 0.3069
v 0.071033 2.629337 1.526495 0.7298 0.4532 0.4380
v 0.530133 3.207216 -1.232869 0.7742 0.4145 0.4153
v 0.522889 2.916256 1.373983 0.6456 0.2850 0.2914
v 0.172656 2.919257 1.513098 0.7044 0.4838 0.4854
v 0.057208 3.547768 -1.149506 0.5683 0.2570 0.2671
v 0.056614 3.525953 -0.655617 0.3255 0.1201 0.1211
v 0.417401 3.525773 -0.043559 0.1388 0.0055 0.0204
v 0.060627 3.525873 0.552915 0.2688 0.2135 0.2588
v 0.306993 3.298805 1.505464 0.3034 0.2442 0.2763
v 0.054707 3.293405 1.536704 0.5684 0.5500 0.5574
v 0.071433 3.563933 -1.165190 0.2939 0.1060 0.1595
v 0.067665 3.865669 -0.810816 0.3250 0.1211 0.1298
v 0.535624 3.567344 0.666707 0.2488 0.0865 0.0781
v 0.060627 3.566611 0.958517 0.2675 0.0842 0.0794
v 0.254118 3.887122 -0.863438 0.2597 0.0617 0.1133
v 0.061694 4.000000 -0.621471 0.3043 0.1189 0.1565
v 0.803533 0.223963 -0.982860 0.4505 0.3031 0.3563
v 0.688296 0.232556 -0.860892 0.4846 0.3327 0.3979
v 0.873202 0.251637 0.318356 0.4862 0.2566 0.2762
v 0.891713 0.134154 0.500369 0.3416 0.1704 0.1820
v 1.012402 0.090077 0.924413 0.6378 0.1118 0.0991
v 0.809515 0.333947 -0.993513 0.5579 0.2071 0.2061
v 0.669373 0.379609 -0.849459 0.5204 0.2130 0.2347
v 0.857082 0.332872 0.275922 0.6038 0.1508 0.1281
v 0.790570 0.328804 0.501530 0.4418 0.2008 0.2007
v 0.545094 0.644905 1.428905 0.3062 0.1263 0.1264
v 1.007447 0.694229 -1.088794 0.8218 0.2396 0.1987
v 0.930934 0.969776 -0.825592 0.4630 0.2186 0.2263
v 0.974225 0.740889 0.880044 0.3778 0.1595 0.2222
v 0.561950 0.943529 1.348886 0.3642 0.0992 0.1243
v 0.790672 1.274483 -1.010476 0.9252 0.3076 0.2753
v 0.906138 1.162833 -0.863186 0.8687 0.2877 0.2372
v 0.962832 0.976650 0.900111 0.3762 0.1491 0.2408
v 0.541412 1.249821 1.362416 0.5122 0.1518 0.2118
v 0.879355 1.586105 -0.901194 0.9465 0.3256 0.3038
v 0.973478 1.543195 -0.752496 0.9286 0.3169 0.2896
v 1.014565 1.311479 0.800798 0.3647 0.1470 0.2600
v 0.539979 1.333808 1.363450 0.5560 0.1955 0.2613
v 0.897216 1.925395 -0.875998 0.8078 0.2527 0.2354
v 0.929085 1.807409 -0.827935 0.6153 0.4237 0.4990
v 0.957780 1.805244 0.907752 0.3442 0.1278 0.2232
v 0.536554 1.648808 1.365575 0.5391 0.1556 0.2025
v 0.688781 2.034043 -1.110844 0.7645 0.2449 0.2299
v 0.952991 2.234519 -0.785353 0.8004 0.3088 0.3155
v 0.990751 2.034043 0.847123 0.3509 0.1319 0.2515
v 0.792293 2.034043 1.139383 0.5532 0.1526 0.1744
v 0.543655 2.284261 -1.224996 0.7796 0.4715 0.4347
v 0.906098 2.543309 -0.860673 0.8328 0.4040 0.3857
v 0.957375 2.515312 0.907668 0.3893 0.1786 0.2919
v 0.672084 2.535975 1.260247 0.5516 0.2236 0.2867
v 0.724674 2.759278 -1.076825 0.7912 0.4611 0.4298
v 0.906035 2.648626 -0.860582 0.7845 0.3907 0.3759
v 0.957369 2.856597 0.907661 0.4318 0.2173 0.3226
v 0.791865 2.614631 1.138905 0.6526 0.2667 0.3118
v 0.706339 3.156403 -1.287756 0.7401 0.3010 0.2705
v 0.997840 3.060070 -0.702519 0.7565 0.2295 0.1951
v 0.953995 3.171889 0.911130 0.4794 0.2084 0.2722
v 0.767137 2.914590 1.167196 0.4099 0.1371 0.1750
v 0.569108 3.552254 -0.895332 0.5284 0.1507 0.1290
v 0.982862 3.390767 -0.565719 0.4772 0.1687 0.1635
v 0.563286 3.525182 -0.159540 0.3960 0.4691 0.5779
v 0.578624 3.472727 0.632344 0.3469 0.2384 0.2891
v 0.719297 3.239046 1.215681 0.3200 0.2862 0.3522
v 0.566003 3.565376 -0.888782 0.3464 0.1046 0.0758
v 0.827250 3.560371 -0.659044 0.4484 0.1524 0.1444
v 0.660514 3.565905 -0.269737 0.3830 0.1572 0.1693
v 0.560928 3.564500 0.634215 0.3864 0.1704 0.1755
v 1.053786 0.102312 -0.864769 0.3858 0.2635 0.3290
v 1.020171 0.119644 -0.822082 0.3685 0.2515 0.3117
v 1.073600 0.052985 0.311313 0.4667 0.2131 0.2183
v 1.102066 0.122311 0.561596 0.4676 0.2830 0.3130
v 1.021820 0.090365 0.919530 0.3424 0.0771 0.0692
v 1.089377 0.640312 -0.996855 0.2894 0.1565 0.1667
v 1.132691 0.644906 -0.519155 0.3750 0.2386 0.2910
v 1.199682 0.645777 -0.244443 0.5832 0.1521 0.1227
v 1.059477 0.576197 0.715916 0.2715 0.1292 0.1312
v 1.018344 0.739500 -1.079267 0.2993 0.1112 0.1019
v 1.066932 0.775886 -0.725246 0.5925 0.2190 0.1942
v 1.179886 0.827393 0.193989 0.7808 0.2435 0.1786
v 1.174007 0.829995 0.324851 0.2874 0.1071 0.1140
v 1.142663 0.975690 -0.284970 0.8447 0.3166 0.2810
v 1.164120 1.286150 0.317836 0.7217 0.3720 0.3664
v 1.021546 1.080178 0.786790 0.5189 0.2821 0.3175
v 1.111571 1.296147 -0.413982 0.8564 0.3582 0.3476
v 1.168053 1.587522 0.292302 0.8202 0.3601 0.3706
v 1.021016 1.305999 0.787303 0.5515 0.3597 0.4524
v 1.111999 1.639850 -0.411969 0.7461 0.3635 0.3882
v 1.177906 1.937726 0.210284 0.7716 0.3491 0.3734
v 1.161843 1.938059 0.328200 0.4354 0.2259 0.3213
v 1.121143 2.034043 -0.374496 0.6199 0.4346 0.5101
v 1.148080 1.950149 -0.263334 0.4936 0.6028 0.7370
v 1.125527 1.946245 0.493777 0.4405 0.4239 0.5550
v 1.037472 2.563304 -0.619868 0.6338 0.5524 0.6364
v 1.182683 2.316341 0.122750 0.5266 0.6376 0.7704
v 1.132503 2.567472 0.465521 0.4067 0.2928 0.4270
v 1.018110 2.832415 -0.662470 0.6023 0.5617 0.6249
v 1.182952 2.599967 0.096478 0.6714 0.5320 0.6006
v 1.023795 2.905924 0.780014 0.7868 0.3602 0.3806
v 1.042416 3.120792 -0.971511 0.4571 0.1624 0.1469
v 1.113277 3.092565 -0.530926 0.5304 0.3775 0.4136
v 1.178813 3.205216 -0.204760 0.7663 0.3274 0.3300
v 1.023025 3.229045 0.777784 0.6849 0.2399 0.2428
v 1.019560 3.246070 -1.049300 0.4400 0.1391 0.1327
v 1.041993 3.256040 -0.612684 0.4583 0.3139 0.3692
v 1.164075 3.261152 0.307156 0.4506 0.4310 0.5198
v 1.021541 3.268540 0.781886 0.4581 0.5307 0.6385
f 135 92 87
f 95 92 144
f 144 92 141
f 141 140 187
f 141 187 188
f 140 134 187
f 134 181 187
f 92 141 140
f 135 141 92
f 135 140 141
f 134 140 135
f 141 188 192
f 144 141 192
f 91 87 92
f 86 87 91
f 134 86 91
f 134 91 140
f 188 187 192
f 192 187 191
f 134 140 181
f 181 140 187
f 91 92 140
f 187 141 191
f 191 141 192
f 188 135 141
f 134 135 182
f 181 134 182
f 235 181 182
f 235 182 236
f 241 235 236
f 235 241 240
f 219 169 223
f 223 169 172
f 223 172 175
f 231 235 275
f 275 235 279
f 178 181 231
f 231 181 235
f 231 175 178
f 227 175 231
f 219 223 224
f 220 219 224
f 224 223 227
f 224 227 228
f 223 175 227
f 179 176 230
f 179 230 234
f 230 173 226
f 176 173 230
f 173 222 226
f 173 170 222
f 85 132 138
f 90 85 138
f 35 34 31
f 35 31 79
f 79 31 76
f 30 31 34
f 39 34 35
f 38 34 39
f 39 79 82
f 35 79 39
f 44 38 39
f 43 38 44
f 180 177 176
f 180 176 179
f 177 174 173
f 177 173 176
f 174 171 173
f 130 127 174
f 130 174 177
f 30 25 26
f 30 26 31
f 31 26 73
f 31 73 76
f 126 123 124
f 126 124 127
f 126 127 130
f 129 126 130
f 76 123 126
f 79 76 126
f 79 126 129
f 82 79 129
f 85 82 129
f 132 85 129
f 73 120 123
f 76 73 123
f 39 82 85
f 39 85 44
f 133 130 177
f 133 177 180
f 139 133 180
f 139 180 186
f 180 179 185
f 186 180 185
f 132 133 138
f 138 133 139
f 132 130 133
f 132 129 130
f 185 234 239
f 185 179 234
f 13 14 17
f 17 14 18
f 22 70 73
f 25 21 22
f 25 22 26
f 26 22 73
f 18 21 17
f 21 18 22
f 18 67 70
f 18 14 63
f 18 63 67
f 22 18 70
f 20 16 21
f 21 16 17
f 17 16 13
f 16 12 13
f 19 20 24
f 19 24 23
f 23 24 29
f 28 23 29
f 33 29 30
f 33 30 34
f 37 33 38
f 38 33 34
f 42 38 43
f 42 37 38
f 42 43 48
f 47 42 48
f 20 21 24
f 24 21 25
f 24 25 30
f 24 30 29
f 15 16 20
f 19 15 20
f 182 135 188
f 238 189 184
f 238 243 189
f 184 185 239
f 184 239 238
f 238 183 184
f 237 183 238
f 236 241 242
f 237 236 242
f 236 182 241
f 241 182 188
f 237 242 238
f 182 183 237
f 182 237 242
f 241 182 242
f 242 238 243
f 193 198 194
f 199 194 198
f 1 51 52
f 2 1 52
f 156 152 202
f 156 202 206
f 171 170 173
f 171 168 170
f 168 167 170
f 127 124 174
f 124 171 174
f 157 153 156
f 153 152 156
f 105 152 106
f 106 152 153
f 156 206 160
f 160 206 210
f 73 70 120
f 70 117 120
f 70 113 117
f 70 67 113
f 117 114 118
f 117 113 114
f 63 109 67
f 67 109 113
f 168 165 164
f 168 164 167
f 167 218 222
f 170 167 222
f 164 160 210
f 164 210 214
f 167 164 218
f 218 164 214
f 124 121 171
f 121 168 171
f 123 120 121
f 123 121 124
f 118 114 165
f 165 114 161
f 120 117 118
f 120 118 121
f 121 118 165
f 121 165 168
f 161 157 160
f 157 156 160
f 110 157 114
f 114 157 161
f 165 161 164
f 164 161 160
f 10 6 11
f 10 5 6
f 11 12 15
f 15 12 16
f 61 10 11
f 148 101 108
f 148 108 155
f 62 61 11
f 66 62 11
f 65 62 66
f 66 11 15
f 219 166 169
f 215 166 219
f 212 211 215
f 212 215 216
f 204 203 208
f 203 207 208
f 208 207 211
f 208 211 212
f 211 163 166
f 215 211 166
f 203 155 207
f 155 159 207
f 207 163 211
f 159 163 207
f 198 148 155
f 198 155 203
f 11 6 7
f 11 7 12
f 55 101 56
f 56 101 102
f 1 2 6
f 5 1 6
f 6 52 56
f 6 2 52
f 101 55 108
f 108 55 61
f 6 55 5
f 55 56 6
f 1 55 5
f 1 51 55
f 52 51 56
f 51 55 56
f 55 5 10
f 55 10 61
f 11 6 5
f 5 10 11
f 114 115 162
f 158 157 161
f 161 114 162
f 158 161 162
f 115 111 158
f 158 162 115
f 111 110 157
f 111 157 158
f 157 110 161
f 110 114 161
f 110 111 114
f 114 111 115
f 64 60 106
f 64 106 110
f 110 111 107
f 107 106 110
f 110 106 111
f 106 107 111
f 154 106 107
f 153 106 154
f 153 157 154
f 154 157 158
f 107 154 111
f 111 154 158
f 100 99 106
f 100 106 107
f 107 106 153
f 107 153 154
f 113 109 110
f 113 110 114
f 63 59 105
f 63 105 109
f 105 110 109
f 105 106 110
f 60 64 110
f 106 60 110
f 99 100 107
f 106 99 107
f 269 224 228
f 269 228 272
f 236 232 276
f 280 236 276
f 232 236 280
f 232 280 276
f 228 227 232
f 232 227 231
f 231 235 236
f 235 236 280
f 279 235 280
f 232 231 275
f 232 275 276
f 278 277 282
f 282 277 281
f 228 232 272
f 272 232 276
f 277 280 281
f 276 280 277
f 276 277 281
f 280 276 281
f 280 275 279
f 276 275 280
f 230 229 234
f 229 274 233
f 233 274 278
f 234 229 233
f 233 278 238
f 238 278 282
f 234 238 239
f 233 238 234
f 282 237 238
f 281 237 282
f 226 225 229
f 230 226 229
f 236 237 280
f 280 237 281
f 61 112 108
f 61 65 112
f 74 28 75
f 27 28 74
f 166 116 119
f 163 116 166
f 119 122 169
f 166 119 169
f 112 116 159
f 159 116 163
f 108 112 159
f 108 159 155
f 119 74 122
f 119 71 74
f 68 71 119
f 68 119 116
f 72 69 19
f 69 15 19
f 66 15 69
f 68 66 69
f 69 68 19
f 72 23 71
f 72 19 23
f 68 69 71
f 69 72 71
f 75 71 23
f 74 71 75
f 75 23 28
f 65 15 66
f 65 66 68
f 65 61 62
f 116 65 68
f 112 65 116
f 125 128 175
f 172 125 175
f 169 122 125
f 172 169 125
f 42 36 37
f 46 41 47
f 41 42 47
f 41 36 42
f 32 37 36
f 37 32 33
f 77 78 32
f 75 28 32
f 77 75 78
f 77 74 75
f 75 32 78
f 83 40 45
f 83 45 86
f 84 83 41
f 40 86 45
f 86 40 83
f 40 45 46
f 40 46 41
f 46 45 86
f 87 86 83
f 83 41 46
f 83 46 87
f 86 87 46
f 74 77 122
f 122 77 125
f 128 131 175
f 175 131 178
f 28 29 33
f 32 28 33
f 125 77 80
f 125 80 128
f 128 80 131
f 80 83 131
f 131 83 86
f 134 131 86
f 80 36 81
f 81 36 84
f 77 81 80
f 84 36 41
f 83 81 84
f 83 80 81
f 78 32 81
f 81 32 36
f 77 78 81
f 178 131 181
f 131 134 181
f 97 146 103
f 103 146 150
f 97 96 102
f 97 102 103
f 103 102 150
f 102 149 150
f 98 97 103
f 98 103 104
f 147 150 151
f 147 146 150
f 214 210 213
f 214 213 218
f 218 213 217
f 274 273 277
f 274 277 278
f 277 281 278
f 278 281 282
f 221 271 225
f 221 268 271
f 264 267 265
f 265 267 268
f 262 261 264
f 262 264 265
f 254 257 258
f 255 254 258
f 209 259 262
f 210 206 205
f 205 209 210
f 259 256 258
f 255 258 256
f 259 258 262
f 258 261 262
f 209 256 259
f 209 205 256
f 266 220 269
f 269 220 224
f 270 269 273
f 269 272 273
f 266 269 267
f 269 270 267
f 216 220 266
f 215 219 220
f 216 215 220
f 263 216 266
f 212 216 263
f 273 276 277
f 273 272 276
f 254 204 257
f 204 208 257
f 257 208 212
f 257 212 260
f 260 212 263
f 226 222 225
f 222 221 225
f 222 217 221
f 217 222 218
f 217 265 268
f 217 268 221
f 213 209 262
f 210 209 213
f 217 262 265
f 213 262 217
f 264 263 267
f 263 266 267
f 258 257 260
f 258 260 261
f 260 263 261
f 261 263 264
f 271 274 229
f 225 271 229
f 268 270 271
f 268 267 270
f 271 270 274
f 270 273 274
f 12 7 13
f 13 7 8
f 8 58 59
f 9 8 59
f 8 9 13
f 14 13 9
f 4 58 8
f 4 54 58
f 7 56 57
f 6 56 7
f 54 3 53
f 3 7 57
f 3 57 53
f 4 3 54
f 54 53 57
f 54 57 58
f 104 58 103
f 58 57 103
f 97 104 103
f 98 104 97
f 104 58 98
f 58 54 98
f 102 103 57
f 102 57 56
f 8 7 58
f 58 7 57
f 8 4 3
f 8 3 7
f 7 3 4
f 7 4 54
f 7 54 58
f 58 104 59
f 59 104 105
f 14 9 63
f 9 59 63
f 251 250 254
f 251 254 255
f 196 201 252
f 247 196 252
f 105 104 152
f 104 151 152
f 104 103 151
f 151 103 150
f 151 146 147
f 150 146 151
f 87 134 135
f 86 134 87
f 89 88 93
f 89 93 94
f 183 137 184
f 183 136 137
f 135 87 88
f 135 88 136
f 87 88 93
f 92 87 93
f 137 89 94
f 142 137 94
f 88 89 137
f 137 136 88
f 90 48 49
f 184 137 142
f 184 142 189
f 143 138 185
f 143 185 190
f 189 143 190
f 189 142 143
f 185 184 190
f 189 190 184
f 89 48 90
f 138 139 185
f 185 139 186
f 137 138 143
f 142 137 143
f 89 137 142
f 94 89 142
f 137 89 138
f 89 90 138
f 47 42 43
f 47 43 48
f 49 44 85
f 48 43 44
f 48 44 49
f 49 85 90
f 88 47 48
f 88 48 89
f 46 47 88
f 50 46 92
f 46 87 92
f 46 88 87
f 183 182 135
f 183 135 136
f 201 202 252
f 202 252 256
f 206 256 205
f 206 202 256
f 200 201 252
f 251 200 252
f 201 247 252
f 247 201 196
f 151 150 200
f 151 200 201
f 151 201 202
f 152 151 202
f 201 200 251
f 201 251 252
f 252 251 256
f 256 251 255
f 201 195 200
f 196 195 201
f 195 196 247
f 246 195 247
f 196 247 197
f 197 247 248
f 196 197 248
f 196 248 247
f 200 150 201
f 146 195 200
f 146 200 150
f 250 199 204
f 204 199 254
f 199 250 254
f 250 204 254
f 198 203 249
f 203 253 249
f 254 203 204
f 253 203 254
f 199 198 250
f 250 198 249
f 244 193 198
f 244 198 199
f 245 244 250
f 244 199 250
f 250 249 254
f 254 249 253
f 199 193 194
f 198 193 199
f 148 198 199
f 149 148 199
f 102 101 149
f 149 101 148
f 97 103 150
f 146 97 150
f 149 146 150
f 145 146 149
f 199 250 251
f 200 199 251
f 149 199 200
f 150 149 200
f 194 250 199
f 194 244 245
f 194 193 244
f 194 245 250
f 245 250 199
