v -0.244839 0.074085 -0.146493 0.5150 0.4977 0.5223
v -0.286021 0.080934 0.011748 0.5062 0.4405 0.4189
v -0.232709 0.118437 0.169868 0.4895 0.4669 0.4676
v -0.146932 0.000000 0.237281 0.4385 0.4567 0.4552
v -0.145889 0.150054 -0.244838 0.5526 0.5567 0.6111
v -0.286500 0.229578 0.006984 0.5209 0.4477 0.4786
v -0.233685 0.154349 0.168719 0.4350 0.3544 0.3525
v -0.146656 0.233725 0.248370 0.4788 0.4992 0.4853
v -0.170434 0.442363 -0.227843 0.5702 0.5341 0.5735
v -0.252458 0.315747 -0.144451 0.4656 0.4555 0.5283
v -0.249249 0.300068 0.169984 0.4912 0.3616 0.3981
v -0.207615 0.299673 0.219781 0.7546 0.3359 0.3154
v -0.160686 0.596243 -0.246140 0.5242 0.5694 0.6521
v -0.283003 0.588371 -0.058948 0.3125 0.3355 0.3938
v -0.250422 0.469482 0.140015 0.3527 0.3411 0.4110
v -0.199503 0.483439 0.208545 0.5295 0.1091 0.1002
v -0.190837 0.601112 -0.226829 0.4091 0.4289 0.4739
v -0.271581 0.725676 -0.086464 0.1230 0.1186 0.1471
v -0.235550 0.693985 0.166231 0.1298 0.1168 0.1185
v -0.211178 0.747241 0.194936 0.6747 0.3406 0.3410
v -0.200147 0.895669 -0.185463 0.4551 0.4255 0.4363
v -0.286868 0.835706 0.001595 0.3855 0.3598 0.3738
v -0.296099 0.898007 0.013030 0.4062 0.2515 0.1682
v -0.203853 0.899849 0.199736 0.4901 0.4107 0.3596
v -0.173302 0.899871 -0.215677 0.3987 0.3176 0.3007
v -0.230863 0.899901 0.012565 0.2107 0.1430 0.1139
v -0.233297 0.900000 0.013207 0.2558 0.1068 0.0719
v -0.207785 0.899885 0.187355 0.4808 0.2424 0.1343
v 0.010870 0.004635 -0.300494 0.5411 0.5030 0.4857
v -0.069619 0.012265 0.010153 0.4922 0.4216 0.3840
v -0.060028 0.012261 0.047033 0.4698 0.5125 0.5688
v 0.000629 0.000236 0.300593 0.5000 0.5527 0.5935
v 0.011424 0.269858 -0.285934 0.6010 0.6339 0.6538
v -0.105308 0.162642 0.269639 0.5722 0.5494 0.5212
v -0.105383 0.447268 -0.265564 0.6280 0.7148 0.7365
v -0.143683 0.328206 0.249683 0.4604 0.3505 0.3244
v -0.126068 0.598743 -0.266238 0.4878 0.4472 0.4419
v -0.142796 0.534048 0.250169 0.6645 0.2581 0.2422
v -0.142357 0.744927 -0.246452 0.4070 0.3642 0.3823
v 0.009774 0.647781 0.289943 0.6176 0.4076 0.4161
v -0.136615 0.878496 -0.260979 0.5385 0.4733 0.4355
v -0.144577 0.879759 -0.032706 0.5150 0.3136 0.2033
v -0.138332 0.877717 0.033055 0.4838 0.4420 0.4173
v -0.000848 0.754331 0.290478 0.4964 0.4285 0.3857
v -0.063601 0.899865 -0.269635 0.4697 0.4202 0.4190
v -0.022748 0.899866 0.293831 0.5305 0.2833 0.1557
v 0.169179 0.025463 -0.242357 0.5503 0.4710 0.4307
v 0.034413 0.012261 -0.137833 0.4724 0.4747 0.5067
v 0.146852 0.012210 0.167475 0.4670 0.5262 0.6009
v 0.109890 0.009814 0.255222 0.5854 0.6294 0.6448
v 0.166922 0.277968 -0.236703 0.6218 0.6220 0.6093
v 0.159599 0.151832 0.244029 0.5372 0.4779 0.4330
v 0.165864 0.299632 -0.252077 0.6279 0.7080 0.7261
v 0.166892 0.302438 0.255113 0.4520 0.3904 0.3667
v 0.168928 0.587064 -0.234623 0.5591 0.5904 0.5960
v 0.092572 0.588147 0.277229 0.4368 0.3656 0.3524
v 0.109683 0.634157 -0.265662 0.4735 0.5280 0.5766
v 0.015114 0.648373 0.289400 0.5439 0.4959 0.4500
v 0.015501 0.871695 -0.285600 0.5260 0.5456 0.5547
v 0.012394 0.876045 -0.030704 0.5807 0.5565 0.5315
v 0.014453 0.876060 0.035459 0.4896 0.5653 0.6194
v 0.168928 0.873604 0.239679 0.5356 0.5848 0.6038
v 0.145939 0.899875 -0.238358 0.1803 0.1400 0.1335
v 0.035345 0.899866 0.292898 0.5000 0.5000 0.5000
v 0.203099 0.149091 -0.205989 0.5287 0.5290 0.5917
v 0.259660 0.145422 -0.128213 0.5120 0.5147 0.5601
v 0.241134 0.011204 0.139162 0.4787 0.4876 0.5291
v 0.236136 0.145010 0.171505 0.5264 0.5599 0.5822
v 0.199581 0.292540 -0.223796 0.5822 0.6399 0.7025
v 0.289400 0.299476 -0.090769 0.5761 0.6353 0.7059
v 0.302816 0.294441 0.016455 0.5518 0.5139 0.5123
v 0.247250 0.287290 0.171265 0.5167 0.4169 0.3511
v 0.246158 0.447759 -0.152371 0.6197 0.6962 0.7272
v 0.283874 0.444200 -0.063113 0.6440 0.7241 0.7393
v 0.285736 0.447935 0.058979 0.6330 0.6527 0.6365
v 0.234076 0.447268 0.173592 0.5737 0.4777 0.4111
v 0.218639 0.597131 -0.201329 0.6139 0.6180 0.5900
v 0.291161 0.582622 -0.001674 0.6047 0.5871 0.5486
v 0.290303 0.585583 0.023083 0.5846 0.5623 0.5369
v 0.236647 0.478515 0.170583 0.5607 0.4455 0.3869
v 0.222703 0.601256 -0.201047 0.3804 0.4114 0.4599
v 0.285564 0.748574 -0.057538 0.4284 0.3976 0.3918
v 0.287227 0.742854 0.045165 0.5285 0.4456 0.3981
v 0.172385 0.619015 0.247032 0.5592 0.4970 0.4541
v 0.231981 0.898648 -0.157402 0.4776 0.5478 0.5962
v 0.285659 0.756293 -0.056915 0.4982 0.5585 0.6060
v 0.290424 0.806051 0.014511 0.4808 0.5574 0.6129
v 0.233700 0.873415 0.183815 0.5697 0.6222 0.6218
v 0.176695 0.899871 -0.216571 0.4898 0.4721 0.4895
v 0.263990 0.899873 -0.100564 0.5000 0.5000 0.5000
v 0.272067 0.899873 0.078544 0.5000 0.5000 0.5000
v 0.187101 0.899872 0.212681 0.5000 0.5000 0.5000
f 4 32 8
f 8 32 34
f 7 3 4
f 7 4 8
f 11 7 8
f 11 8 12
f 21 39 17
f 21 41 39
f 21 17 22
f 17 18 22
f 77 81 82
f 78 77 82
f 76 79 80
f 76 75 79
f 78 82 79
f 79 82 83
f 83 82 87
f 87 82 86
f 83 87 88
f 84 83 88
f 79 83 80
f 80 83 84
f 62 84 88
f 62 58 84
f 44 58 62
f 40 58 44
f 74 73 77
f 78 74 77
f 75 74 79
f 79 74 78
f 65 69 70
f 65 70 66
f 71 74 75
f 71 70 74
f 70 69 74
f 69 73 74
f 65 47 51
f 65 51 69
f 37 13 17
f 37 17 39
f 35 9 37
f 37 9 13
f 53 55 73
f 69 51 53
f 69 53 73
f 73 55 77
f 55 35 37
f 53 35 55
f 7 2 3
f 6 2 7
f 67 66 71
f 66 70 71
f 72 67 71
f 68 67 72
f 50 72 52
f 72 50 68
f 72 71 76
f 71 75 76
f 68 49 67
f 50 49 68
f 12 34 36
f 8 34 12
f 38 56 40
f 40 56 58
f 36 56 38
f 36 54 56
f 58 56 84
f 56 80 84
f 76 52 72
f 52 76 54
f 36 52 54
f 34 52 36
f 34 32 52
f 52 32 50
f 80 54 76
f 56 54 80
f 16 12 38
f 38 12 36
f 33 35 53
f 51 33 53
f 33 5 35
f 5 9 35
f 51 29 33
f 29 51 47
f 5 2 6
f 5 1 2
f 29 1 5
f 29 5 33
f 24 46 44
f 24 28 46
f 30 29 48
f 48 29 47
f 1 29 2
f 2 29 30
f 3 2 30
f 3 30 31
f 31 30 49
f 49 30 48
f 32 31 49
f 32 49 50
f 32 3 31
f 4 3 32
f 47 65 66
f 49 48 67
f 67 48 66
f 66 48 47
f 21 22 26
f 24 23 28
f 23 42 22
f 42 23 43
f 26 27 23
f 22 23 27
f 26 22 27
f 22 26 23
f 23 24 27
f 15 16 19
f 19 16 20
f 24 20 40
f 40 44 24
f 20 38 40
f 20 16 38
f 16 11 12
f 15 11 16
f 22 18 19
f 22 19 23
f 23 19 24
f 20 24 19
f 55 57 81
f 77 55 81
f 21 25 45
f 41 21 45
f 63 59 85
f 85 59 89
f 85 63 89
f 55 39 57
f 55 37 39
f 82 81 85
f 82 85 86
f 39 41 59
f 85 57 59
f 81 57 85
f 57 39 41
f 57 41 59
f 9 6 10
f 5 6 9
f 10 7 11
f 6 7 10
f 10 11 15
f 14 10 15
f 18 17 14
f 17 13 14
f 9 10 14
f 13 9 14
f 19 14 15
f 19 18 14
f 42 21 22
f 41 21 42
f 59 41 60
f 41 42 60
f 87 62 88
f 61 62 87
f 60 42 43
f 60 43 61
f 86 60 61
f 86 61 87
f 85 59 60
f 85 60 86
f 23 24 44
f 23 44 43
f 44 62 61
f 61 43 44
