v -5.134687 0.320163 -4.290257 0.7374 0.7527 0.6486
v -5.226332 0.441944 -3.607585 0.7431 0.7685 0.6734
v -5.226359 0.420164 -3.220260 0.7423 0.7915 0.7177
v -5.225910 0.277873 -2.981677 0.7412 0.7907 0.7203
v -5.225774 0.331593 -1.914455 0.7412 0.7910 0.7202
v -5.225991 0.405644 -1.882575 0.7408 0.7916 0.7187
v -5.225882 0.428924 -1.330399 0.7373 0.7895 0.7176
v -5.225637 0.337943 -0.781117 0.7373 0.7890 0.7186
v -5.225828 0.426524 -0.230029 0.7342 0.7945 0.7234
v -5.242325 0.383143 0.823239 0.7333 0.7931 0.7223
v -5.242379 0.453464 1.393052 0.7316 0.7902 0.7191
v -5.242148 0.431873 1.939009 0.7401 0.7880 0.7118
v -5.475732 0.409293 2.214743 0.6954 0.7009 0.6023
v -5.178651 0.431783 2.525102 0.6256 0.6036 0.5062
v -5.145548 1.000428 -4.290496 0.7502 0.7592 0.6538
v -5.225392 0.986448 -3.894178 0.7457 0.7805 0.6938
v -5.225815 0.713116 -3.441276 0.7444 0.7925 0.7168
v -5.225610 0.734526 -2.987476 0.7438 0.7954 0.7242
v -5.225229 0.929708 -2.450691 0.7452 0.7918 0.7211
v -5.225869 0.549765 -1.429314 0.7436 0.7882 0.7166
v -5.225583 0.549945 -1.279304 0.7431 0.7836 0.7103
v -5.225692 0.559375 -0.550319 0.7441 0.7843 0.7108
v -5.225774 0.472444 -0.194156 0.7446 0.7931 0.7183
v -5.225665 0.728716 0.315998 0.7389 0.7958 0.7232
v -5.225011 0.878047 0.860469 0.7341 0.7929 0.7205
v -5.224848 0.999518 1.473790 0.7455 0.7884 0.7072
v -5.480973 0.979917 2.224704 0.7205 0.7318 0.6307
v -5.144813 0.976017 2.524763 0.6470 0.6302 0.5292
v -5.203859 1.519342 -4.291055 0.7674 0.7848 0.6917
v -5.225120 1.307351 -3.607585 0.7522 0.7841 0.6983
v -5.145521 1.482042 -3.029318 0.7453 0.7927 0.7154
v -5.145085 1.318961 -2.795625 0.7443 0.7976 0.7267
v -5.145453 1.323321 -2.434022 0.5557 0.5929 0.5931
v -5.225365 1.568712 -1.478222 0.6532 0.6906 0.6530
v -5.224712 1.520792 -1.059376 0.7448 0.7836 0.7100
v -5.224753 1.568892 -0.317435 0.7477 0.7831 0.7083
v -5.225392 1.565802 0.044976 0.7434 0.7930 0.7184
v -5.145521 1.562902 0.671064 0.7402 0.7969 0.7243
v -5.145875 1.404811 0.861787 0.7366 0.7902 0.7150
v -5.211767 1.109868 1.658405 0.7493 0.7903 0.7053
v -5.224998 1.552732 1.986660 0.7396 0.7413 0.6302
v -5.203859 1.545472 2.524503 0.5989 0.5968 0.5114
v -5.184096 2.114667 -4.291055 0.7642 0.7722 0.6747
v -5.224807 1.580323 -3.585486 0.7562 0.7699 0.6768
v -5.145507 1.573063 -3.008846 0.7618 0.7723 0.6615
v -5.145085 1.575242 -2.894171 0.7594 0.7653 0.6299
v -5.145317 1.902675 -2.427504 0.6655 0.6808 0.6033
v -5.143139 2.008666 -1.891268 0.6459 0.6696 0.6270
v -5.225147 2.091436 -0.844888 0.7548 0.7816 0.7059
v -5.225284 2.108316 -0.794702 0.7585 0.7791 0.6967
v -5.225869 2.110306 0.018895 0.7491 0.7750 0.6854
v -5.224794 2.085626 0.343527 0.7493 0.7736 0.6545
v -5.224821 2.085626 0.876868 0.7480 0.7789 0.6736
v -5.225665 2.103046 1.433396 0.7564 0.7776 0.6783
v -5.225515 1.809384 1.962745 0.7329 0.7253 0.6149
v -5.176187 1.580322 2.524513 0.5680 0.5659 0.4956
v -5.392594 2.660621 -4.656271 0.6722 0.6786 0.6006
v -5.872135 2.675351 -3.929692 0.7361 0.7471 0.6553
v -5.875837 2.672241 -3.531497 0.7260 0.7321 0.6201
v -5.872135 2.675351 -2.581127 0.6611 0.6634 0.5490
v -5.871904 2.675171 -1.981120 0.6507 0.6462 0.5432
v -5.871945 2.675211 -1.391624 0.6216 0.6170 0.5306
v -5.871972 2.675230 -1.279673 0.4964 0.5082 0.4817
v -5.674281 2.651920 -0.630389 0.5397 0.5393 0.5007
v -5.670524 2.654900 -0.192709 0.5763 0.5786 0.5217
v -5.670633 2.654980 0.406210 0.6783 0.6733 0.5640
v -5.659308 2.667680 1.201141 0.6712 0.6652 0.5547
v -5.664344 2.661010 1.451143 0.7092 0.7094 0.6126
v -5.242570 2.278737 2.363106 0.5765 0.5777 0.5163
v -5.324170 2.666430 2.879678 0.4422 0.4508 0.4322
v -5.144065 2.961063 -4.447961 0.5846 0.5739 0.5166
v -5.739452 2.686621 -4.088754 0.7354 0.7157 0.6146
v -5.717714 2.687351 -3.505775 0.7251 0.7089 0.6101
v -5.666196 2.750471 -2.961564 0.6974 0.6784 0.5743
v -5.322033 3.192994 -1.966627 0.6153 0.5984 0.5125
v -5.316085 3.200365 -1.887645 0.4315 0.4301 0.4007
v -5.436899 3.045473 -1.254670 0.5061 0.4929 0.4476
v -5.367563 3.134084 -0.730302 0.2621 0.2677 0.2927
v -5.300622 3.220264 -0.193797 0.3958 0.3769 0.3645
v -5.295164 3.227395 0.369618 0.4674 0.4350 0.4054
v -5.532301 2.923552 0.942266 0.5736 0.5606 0.5110
v -5.700700 2.703490 1.508755 0.5158 0.5046 0.4747
v -5.677575 2.733440 1.998249 0.3699 0.3691 0.3959
v -5.622844 2.790911 2.867871 0.3558 0.3624 0.4006
v -5.219757 3.247885 -4.345054 0.7688 0.7446 0.6348
v -5.168157 3.412826 -3.601426 0.7143 0.6979 0.6093
v -5.160194 3.407126 -3.044898 0.7121 0.6970 0.6076
v -5.160139 3.407176 -2.509391 0.7476 0.7303 0.6304
v -5.163542 3.409126 -1.915034 0.6549 0.6449 0.5787
v -5.168728 3.412516 -1.556485 0.6061 0.6070 0.5609
v -5.160303 3.407016 -1.332475 0.6306 0.6260 0.5641
v -5.292905 3.230335 -0.384011 0.6441 0.6386 0.5726
v -5.266989 3.262865 -0.219978 0.3555 0.3740 0.4277
v -5.290999 3.232204 0.497150 0.3641 0.3774 0.4113
v -5.140607 3.572197 1.398612 0.3952 0.4022 0.4229
v -5.140607 3.572167 1.755134 0.4858 0.4813 0.4641
v -5.140607 3.572157 2.140642 0.3676 0.3670 0.3960
v -5.140607 3.572147 2.560935 0.3623 0.3600 0.3903
v -4.865903 0.382234 -4.290396 0.7679 0.7495 0.6306
v -4.377365 0.461603 2.505608 0.5973 0.5880 0.4955
v -4.518052 0.458263 2.514562 0.7689 0.7601 0.6225
v -4.379216 0.928918 -4.290536 0.7858 0.7701 0.6575
v -4.378726 0.892067 2.446190 0.7082 0.6904 0.5610
v -4.851394 0.492764 2.518085 0.7588 0.7480 0.6052
v -4.456611 1.566263 -4.290875 0.8061 0.7929 0.6881
v -4.460748 1.237649 2.443275 0.6521 0.6277 0.5090
v -4.852238 1.245639 2.517277 0.7540 0.7408 0.5980
v -4.385641 1.957846 -4.290815 0.7849 0.7767 0.6729
v -4.385450 1.571602 2.442108 0.6335 0.6281 0.5219
v -4.879733 2.001405 2.524653 0.7241 0.7149 0.5846
v -4.463089 2.660621 -4.656231 0.6336 0.6305 0.5661
v -4.379706 2.256957 2.370382 0.5338 0.5407 0.4731
v -4.496315 2.652280 2.889091 0.5388 0.5480 0.4984
v -4.396299 3.016944 -4.427829 0.4811 0.4733 0.4407
v -5.084039 2.987092 2.727473 0.4415 0.4461 0.4557
v -5.123811 3.302936 -4.324562 0.7403 0.7257 0.6297
v -4.753242 3.507727 -3.560842 0.6635 0.6561 0.5920
v -4.429116 3.507677 -3.537655 0.6264 0.6181 0.5604
v -4.974645 3.506537 -2.456270 0.5613 0.5500 0.5029
v -4.407378 3.507977 -2.407212 0.5772 0.5701 0.5335
v -4.953846 3.506957 -1.745252 0.7023 0.6942 0.6284
v -4.966695 3.506797 -1.153220 0.7135 0.7039 0.6308
v -4.966695 3.506947 -0.781117 0.6635 0.6587 0.6055
v -4.927168 3.507257 -0.204297 0.6119 0.6122 0.5730
v -4.377733 3.507806 0.801500 0.4588 0.4707 0.4855
v -4.429116 3.506277 1.404411 0.3682 0.3798 0.4024
v -4.438017 3.506406 1.708032 0.4103 0.4139 0.4174
v -4.526464 3.505936 2.104310 0.4107 0.4083 0.4088
v -5.025986 3.572427 2.516009 0.6209 0.6150 0.5571
v -4.399974 3.999721 -3.029138 0.4616 0.4484 0.4135
v -4.520039 3.999821 -2.827505 0.5416 0.5232 0.4802
v -4.429116 3.988590 -2.449832 0.4351 0.4234 0.4072
v -4.522993 3.999920 1.367091 0.3620 0.3583 0.3458
v -4.697912 3.999720 1.600065 0.3510 0.3510 0.3382
v -4.979381 3.999400 1.966009 0.4163 0.4124 0.3873
v -3.660320 0.205992 -4.290626 0.8056 0.7927 0.6906
v -3.666745 0.464243 2.495717 0.3830 0.3784 0.3314
v -4.207768 0.458093 2.514562 0.7098 0.7227 0.6014
v -3.662294 0.930188 -4.290746 0.8056 0.7933 0.6901
v -4.271006 0.854316 2.446968 0.2693 0.2239 0.1894
v -3.628442 1.558723 -4.278818 0.8052 0.7939 0.6902
v -4.100061 1.557312 2.394756 0.2782 0.2176 0.1611
v -3.634622 1.830075 -4.278848 0.7872 0.7806 0.6774
v -4.020939 1.571582 2.413172 0.2563 0.3100 0.2996
v -3.662294 2.640291 -4.655622 0.6780 0.6756 0.5997
v -3.863496 2.132766 2.383897 0.4893 0.5406 0.4877
v -4.083510 2.674660 3.038771 0.5489 0.5739 0.5040
v -3.634132 2.981843 -4.440305 0.5707 0.5650 0.5103
v -4.062998 2.677420 3.035876 0.5204 0.5162 0.4922
v -4.344875 3.359096 -4.304290 0.7822 0.7649 0.6582
v -4.023470 3.535077 -3.572440 0.7807 0.7656 0.6666
v -3.651922 3.535147 -3.233675 0.7241 0.7112 0.6300
v -3.641291 3.535187 -2.918265 0.6671 0.6497 0.5732
v -3.922679 3.507837 -2.433303 0.6970 0.6802 0.5966
v -4.349571 3.507727 -1.795438 0.7903 0.7790 0.6897
v -4.331781 3.507677 -1.300864 0.7862 0.7775 0.6908
v -4.288361 3.507647 -0.781656 0.7833 0.7742 0.6881
v -4.211715 3.507837 -0.230388 0.7819 0.7732 0.6853
v -4.115864 3.508007 0.842084 0.7804 0.7729 0.6845
v -4.359943 3.506016 1.295714 0.7415 0.7357 0.6564
v -4.282875 3.506176 1.482664 0.6928 0.6819 0.6045
v -4.246465 3.505796 1.976879 0.5880 0.5840 0.5315
v -4.245322 3.572117 2.572534 0.4882 0.4866 0.4713
v -4.198281 3.790289 -3.528932 0.5519 0.5291 0.4671
v -4.215676 3.994470 -2.455611 0.5780 0.5534 0.4938
v -4.219623 3.984850 -2.447846 0.5745 0.5488 0.4935
v -4.354512 3.999970 1.352598 0.4510 0.4398 0.4048
v -4.343146 3.999890 1.448977 0.4542 0.4390 0.3882
v -4.235440 4.000000 1.965281 0.4118 0.4031 0.3641
v -2.994276 0.459374 -4.290836 0.8075 0.7947 0.6903
v -2.876484 0.374073 2.360281 0.5399 0.5328 0.4566
v -2.944813 0.280472 2.741008 0.7043 0.6769 0.5667
v -3.076530 0.059340 3.100794 0.7350 0.6878 0.5825
v -2.899419 0.942888 -4.290696 0.8055 0.7933 0.6915
v -3.494303 0.979187 2.442736 0.4160 0.3899 0.3418
v -2.889537 1.438032 -4.278728 0.8051 0.7938 0.6911
v -3.531829 1.548382 2.349331 0.3230 0.2874 0.2646
v -2.974513 1.702294 -4.291195 0.7907 0.7837 0.6779
v -3.604432 1.581012 2.400216 0.4974 0.5440 0.5038
v -2.936714 2.637391 -4.655532 0.6730 0.6688 0.5895
v -3.222062 2.122836 2.434891 0.5429 0.5744 0.4971
v -2.977725 2.663700 3.045049 0.5562 0.5762 0.4952
v -3.007371 2.940203 -4.455078 0.5265 0.5193 0.4742
v -2.903366 3.026523 2.477891 0.3712 0.3751 0.4020
v -3.186972 2.677430 3.035906 0.4034 0.4105 0.4272
v -3.624373 3.310046 -4.322176 0.7842 0.7665 0.6595
v -3.589160 3.535167 -3.575335 0.7887 0.7744 0.6757
v -2.907817 3.535347 -3.178957 0.7879 0.7743 0.6839
v -2.894846 3.535267 -2.802143 0.7886 0.7761 0.6865
v -3.225765 3.507787 -2.269899 0.7779 0.7675 0.6787
v -3.617335 3.507887 -1.820980 0.7860 0.7772 0.6905
v -3.575331 3.507877 -0.975323 0.7859 0.7775 0.6914
v -3.507642 3.507717 -0.751403 0.7822 0.7738 0.6875
v -3.428097 3.507867 -0.212991 0.7830 0.7749 0.6886
v -3.555594 3.507797 0.474143 0.7793 0.7722 0.6856
v -3.615852 3.507926 1.047878 0.7784 0.7724 0.6855
v -3.613375 3.507816 1.536294 0.7839 0.7768 0.6899
v -3.136583 3.507826 1.972527 0.6078 0.5056 0.4790
v -3.599042 3.571717 2.578333 0.5212 0.4786 0.4769
v -3.031585 3.966290 2.494270 0.6398 0.1211 0.1635
v -2.916147 3.966570 2.702650 0.5893 0.4228 0.4271
v -2.682509 0.453564 -4.290786 0.8063 0.7911 0.6897
v -2.128636 0.378063 2.357695 0.6273 0.6165 0.5411
v -2.176058 0.255752 2.978333 0.7163 0.6894 0.5960
v -2.310456 0.120321 3.343549 0.7457 0.6924 0.5789
v -2.158023 1.006958 -4.278658 0.8055 0.7923 0.6903
v -2.480421 0.950147 2.475705 0.4794 0.4294 0.3476
v -2.124185 1.440932 -4.278858 0.8049 0.7937 0.6917
v -2.548383 1.496341 2.377079 0.3695 0.3408 0.3044
v -2.199783 1.697934 -4.290945 0.7965 0.7871 0.6823
v -2.733483 1.617132 2.366569 0.4504 0.4662 0.4424
v -2.126227 2.196657 -4.290995 0.5438 0.5428 0.4956
v -2.790719 2.275107 2.417184 0.5409 0.5581 0.4866
v -2.357892 2.649000 3.044749 0.5123 0.5312 0.4827
v -2.768478 3.220345 -4.354386 0.4251 0.4249 0.4088
v -2.129616 3.020723 2.477771 0.3602 0.3645 0.3958
v -2.140247 2.972782 2.703877 0.3999 0.4174 0.4440
v -2.756840 3.244635 -4.345742 0.7908 0.7765 0.6718
v -2.199538 3.535437 -3.624073 0.7902 0.7785 0.6791
v -2.168164 3.535327 -3.186932 0.7877 0.7750 0.6863
v -2.172111 3.535317 -2.589820 0.7885 0.7770 0.6890
v -2.193726 3.507767 -1.902138 0.7858 0.7759 0.6889
v -2.851983 3.507677 -1.478222 0.7847 0.7757 0.6902
v -2.851983 3.507607 -1.229667 0.7869 0.7771 0.6913
v -2.842102 3.507527 -0.751403 0.7864 0.7762 0.6896
v -2.725126 3.507716 -0.205295 0.7854 0.7771 0.6904
v -2.291428 3.507656 0.804943 0.7819 0.7742 0.6875
v -2.138817 3.507726 1.395308 0.7731 0.7658 0.6781
v -2.138205 3.507756 1.491049 0.7814 0.7744 0.6879
v -2.863839 3.507936 2.165645 0.7324 0.6028 0.5391
v -2.775393 3.239544 2.594173 0.6737 0.6844 0.6497
v -2.869515 3.966490 2.496446 0.6145 0.1013 0.1007
v -2.146413 3.966760 2.740649 0.6517 0.6442 0.6133
v -2.104912 0.459374 -4.290606 0.8081 0.7914 0.6892
v -1.833202 0.454543 2.473978 0.6954 0.7156 0.6549
v -1.645352 0.256262 2.713379 0.7153 0.6877 0.5945
v -1.628488 0.120691 3.286576 0.7031 0.6688 0.5760
v -1.368470 0.784987 -4.278878 0.8062 0.7921 0.6896
v -1.477334 0.640095 2.359841 0.3703 0.3355 0.2659
v -1.450247 1.436302 -4.278977 0.8052 0.7932 0.6906
v -1.908691 1.554462 2.477142 0.3267 0.2792 0.2000
v -1.405779 2.038166 -4.291065 0.8028 0.7912 0.6886
v -1.770413 1.852354 2.443545 0.4118 0.4484 0.4454
v -1.374650 2.205777 -4.290965 0.4173 0.4242 0.4195
v -2.108873 2.230827 2.417564 0.5149 0.5351 0.4944
v -1.706930 2.646990 3.044869 0.4693 0.4911 0.4793
v -1.992019 3.178645 -4.369338 0.5120 0.5100 0.4759
v -1.500636 3.026523 2.477322 0.3600 0.3706 0.4082
v -1.401328 2.972752 2.618907 0.3994 0.4251 0.4672
v -1.764982 3.228345 -4.351601 0.7885 0.7736 0.6696
v -1.564623 3.535437 -3.554863 0.7910 0.7792 0.6794
v -1.429245 3.535357 -3.407220 0.7893 0.7758 0.6884
v -1.409236 3.535317 -2.528225 0.7886 0.7758 0.6880
v -1.415416 3.535297 -2.449243 0.7890 0.7759 0.6892
v -1.718663 3.507737 -1.390636 0.7867 0.7746 0.6888
v -2.015975 3.507727 -1.082563 0.7874 0.7748 0.6883
v -1.396850 3.507617 -0.439177 0.7867 0.7758 0.6888
v -1.464566 3.507577 0.271063 0.7866 0.7776 0.6909
v -1.430320 3.507566 0.563266 0.7846 0.7764 0.6900
v -1.806483 3.507776 1.374697 0.7859 0.7778 0.6907
v -1.418220 3.507736 1.733305 0.7832 0.7768 0.6897
v -1.796601 3.526016 2.513155 0.7757 0.6063 0.5374
v -2.019936 3.341245 2.553719 0.6398 0.6371 0.5414
v -2.070693 3.966480 2.501517 0.6117 0.0943 0.1097
v -1.369709 3.801898 2.831139 0.6779 0.5782 0.4476
v -1.314869 0.240123 -4.290646 0.8098 0.7939 0.6893
v -1.361801 0.337403 2.356088 0.4740 0.4692 0.4091
v -1.315359 0.255392 3.013118 0.6279 0.6053 0.5122
v -1.282746 0.120631 3.337750 0.7005 0.6621 0.5634
v -0.919337 1.001698 -4.278768 0.8085 0.7942 0.6888
v -1.295296 0.524884 2.360650 0.4824 0.5210 0.5072
v -1.055709 1.568713 -4.291115 0.7974 0.7811 0.6747
v -1.205924 1.559052 2.373646 0.5193 0.5516 0.5263
v -0.632519 1.873995 -4.291195 0.7750 0.7571 0.6481
v -1.353688 1.629812 2.375432 0.4558 0.5082 0.5099
v -0.630545 2.356429 -4.290885 0.5850 0.5797 0.5242
v -1.251127 2.184356 2.379515 0.5004 0.5479 0.5297
v -0.916125 2.638840 3.044899 0.4569 0.4816 0.4765
v -1.306457 3.154304 -4.378142 0.4538 0.4554 0.4376
v -0.682677 3.007653 2.477721 0.3701 0.3992 0.4529
v -0.880558 2.972522 2.729051 0.4185 0.4438 0.4779
v -0.704468 3.535207 -4.109355 0.7919 0.7736 0.6651
v -1.326357 3.535497 -3.621718 0.7920 0.7791 0.6873
v -0.947322 3.535447 -3.081000 0.7900 0.7770 0.6883
v -0.709600 3.535317 -2.491275 0.7888 0.7759 0.6881
v -0.717508 3.535297 -2.417363 0.7857 0.7707 0.6850
v -1.187875 3.507737 -1.514454 0.7887 0.7747 0.6877
v -0.716759 3.507427 -0.815173 0.7892 0.7762 0.6874
v -0.634493 3.507407 -0.655023 0.7866 0.7761 0.6891
v -0.717998 3.507647 0.269975 0.7806 0.7719 0.6854
v -0.705653 3.507696 0.729045 0.7653 0.7561 0.6687
v -0.808908 3.507577 0.866538 0.7845 0.7775 0.6914
v -0.632954 3.507786 1.937832 0.7844 0.7774 0.6906
v -0.622392 3.507176 2.393179 0.7951 0.5107 0.4567
v -1.329692 3.417666 2.522906 0.7574 0.7015 0.4261
v -0.944668 3.966020 2.499071 0.6620 0.1386 0.1511
v -0.746160 3.801898 2.831179 0.7357 0.5323 0.2538
v -0.591018 0.361364 -4.290536 0.8082 0.7947 0.6875
v 0.043638 0.276052 2.508194 0.4252 0.4260 0.3953
v -0.547543 0.017960 2.527707 0.7228 0.7007 0.5662
v 0.053275 0.999518 -4.278638 0.8082 0.7936 0.6885
v -0.544576 1.003198 2.371759 0.4587 0.4686 0.4529
v -0.141395 1.564353 -4.290985 0.7980 0.7821 0.6764
v -0.428961 1.382120 2.368954 0.5564 0.5886 0.5252
v -0.239723 2.051506 -4.291055 0.7737 0.7534 0.6424
v -0.593495 1.677243 2.369973 0.3499 0.4043 0.4045
v -0.296863 2.143237 -4.291025 0.3184 0.3178 0.3106
v -0.248734 2.468858 2.509072 0.3941 0.4277 0.4070
v -0.605936 2.561609 3.045288 0.3928 0.4186 0.4283
v -0.588296 3.080964 -4.404303 0.4607 0.4563 0.4230
v 0.059209 3.009103 2.477891 0.3706 0.4020 0.4546
v -0.593985 2.972852 2.644089 0.4201 0.4473 0.4833
v -0.425994 3.535098 -4.133310 0.7650 0.7450 0.6371
v -0.602873 3.535297 -3.810125 0.7702 0.7570 0.6647
v -0.603867 3.535397 -3.152327 0.7810 0.7683 0.6794
v -0.500598 3.535507 -2.451419 0.7873 0.7753 0.6878
v 0.114539 3.535287 -2.422074 0.7845 0.7699 0.6844
v 0.124421 3.535317 -1.595612 0.7872 0.7740 0.6869
v 0.050063 3.507437 -0.800501 0.7883 0.7763 0.6883
v -0.218231 3.507507 -0.379120 0.7860 0.7762 0.6903
v 0.011025 3.507527 0.217443 0.7781 0.7691 0.6830
v -0.486265 3.507426 0.800052 0.7816 0.7739 0.6886
v -0.103841 3.507647 1.396076 0.7835 0.7765 0.6904
v 0.061060 3.507647 1.476645 0.7845 0.7765 0.6906
v -0.017872 3.507756 2.253691 0.7927 0.5403 0.4747
v -0.569281 3.399916 2.529903 0.7102 0.6642 0.4710
v -0.143368 3.966100 2.510210 0.7691 0.2376 0.1704
v 0.052295 3.833849 2.830840 0.8349 0.6524 0.2311
v 0.694614 0.454294 -4.278509 0.8080 0.7930 0.6899
v 0.670889 0.101451 2.508712 0.5513 0.5356 0.4850
v 0.179765 0.017960 2.527547 0.4476 0.4275 0.3457
v 0.822084 0.990078 -4.278808 0.8067 0.7926 0.6894
v 0.138210 0.710785 2.286219 0.5217 0.5247 0.4660
v 0.828018 1.568713 -4.291085 0.8090 0.7957 0.6921
v 0.142211 1.158969 2.346996 0.3686 0.3811 0.3608
v 0.172850 2.057676 -4.290905 0.8107 0.7977 0.6934
v 0.145669 2.069656 2.369613 0.2505 0.2558 0.2552
v 0.172197 2.132177 -4.290875 0.2378 0.2496 0.2822
v 0.854724 2.471868 2.511637 0.2912 0.3098 0.3091
v 0.227200 2.518319 3.045767 0.4381 0.4680 0.4709
v 0.317117 3.051424 -4.415342 0.4248 0.4180 0.3874
v 0.197555 3.003293 2.478090 0.3789 0.4115 0.4579
v 0.214351 2.973002 2.543548 0.4292 0.4540 0.4848
v 0.754885 3.535047 -4.108676 0.7587 0.7392 0.6324
v 0.179152 3.535157 -4.102518 0.7815 0.7684 0.6783
v 0.720666 3.535407 -3.046984 0.7757 0.7620 0.6733
v 0.869519 3.535207 -2.910121 0.7876 0.7755 0.6894
v 0.139748 3.535347 -2.442726 0.7886 0.7764 0.6916
v 0.788491 3.535187 -1.460016 0.7890 0.7768 0.6907
v 0.859665 3.535127 -1.297380 0.7813 0.7678 0.6805
v 0.829992 3.507477 -0.757930 0.7815 0.7702 0.6837
v 0.689918 3.507487 -0.218071 0.7860 0.7765 0.6910
v 0.716596 3.507426 0.858393 0.7840 0.7756 0.6899
v 0.825609 3.507526 1.410070 0.7863 0.7770 0.6908
v 0.759826 3.507606 1.938471 0.7887 0.7778 0.6900
v 0.871003 3.506496 2.427605 0.7884 0.6073 0.5349
v 0.169393 3.290025 2.574689 0.5551 0.5154 0.3469
v 0.198045 3.966070 2.510939 0.6799 0.1689 0.1233
v 0.656556 3.803348 2.831099 0.5038 0.3946 0.1950
v 1.610657 0.324333 -4.278788 0.8094 0.7938 0.6889
v 0.889283 0.244472 2.508223 0.4659 0.4501 0.3969
v 1.524688 0.000000 2.514561 0.5865 0.5661 0.4579
v 1.587177 0.963038 -4.278728 0.8087 0.7939 0.6890
v 0.896198 0.583884 2.282486 0.4382 0.4473 0.4073
v 1.631523 1.562903 -4.291215 0.8128 0.7988 0.6955
v 1.017747 1.353810 2.284133 0.4396 0.4454 0.4238
v 0.909414 2.102727 -4.291105 0.8077 0.7956 0.6946
v 0.914968 2.075456 2.430330 0.2166 0.2145 0.2184
v 0.930784 2.126277 -4.291065 0.2525 0.2702 0.3094
v 0.992035 2.471868 2.511607 0.3930 0.4118 0.3907
v 0.963165 2.629169 3.044979 0.4215 0.4530 0.4680
v 0.921147 3.049614 -4.415801 0.4307 0.4277 0.3935
v 0.907073 2.997483 2.478200 0.6090 0.6082 0.5663
v 1.351824 3.217684 2.595720 0.4179 0.4436 0.4790
v 1.225755 3.534997 -4.111571 0.5420 0.5275 0.4517
v 0.919174 3.535057 -4.042440 0.7915 0.7789 0.6886
v 1.581011 3.535387 -3.134760 0.7911 0.7781 0.6897
v 1.579038 3.535357 -2.966635 0.7893 0.7775 0.6925
v 1.523694 3.535187 -2.418810 0.7894 0.7781 0.6925
v 1.586374 3.535227 -1.358426 0.7891 0.7773 0.6913
v 1.533576 3.535147 -0.800680 0.7827 0.7691 0.6820
v 1.618565 3.535247 -0.578037 0.7809 0.7689 0.6817
v 1.553094 3.507617 0.223871 0.7859 0.7763 0.6900
v 1.240578 3.507557 0.857844 0.7841 0.7753 0.6890
v 1.556919 3.507667 1.355672 0.7868 0.7766 0.6888
v 1.640425 3.507796 1.960929 0.7916 0.7782 0.6889
v 1.373493 3.229804 2.490727 0.7335 0.6744 0.6048
v 1.401628 3.278625 2.549347 0.4084 0.3975 0.3494
v 0.895953 3.966160 2.479777 0.4202 0.2429 0.2440
v 1.341642 3.818309 2.789927 0.2617 0.2511 0.2198
v 2.308306 0.439044 -4.278688 0.8116 0.7944 0.6902
v 1.665129 0.099451 2.508573 0.4903 0.4520 0.3926
v 2.385387 0.006340 2.526789 0.8035 0.7839 0.6351
v 2.384393 1.000608 -4.290855 0.8098 0.7933 0.6897
v 1.657943 0.517174 2.249728 0.5919 0.5761 0.5036
v 1.737147 1.562903 -4.291245 0.8010 0.7844 0.6820
v 1.650184 1.464161 2.364413 0.3957 0.4007 0.3497
v 1.642276 1.818455 -4.291245 0.7864 0.7765 0.6783
v 1.942678 2.108856 2.369703 0.1632 0.1724 0.1817
v 2.001166 2.248658 -4.291085 0.4788 0.4887 0.4749
v 2.201212 2.468838 2.509002 0.3285 0.3529 0.3421
v 1.918954 2.599019 3.045039 0.3881 0.4195 0.4484
v 1.660311 3.221455 -4.354187 0.3219 0.3296 0.3324
v 1.866822 3.191784 2.502964 0.5948 0.5960 0.5582
v 1.880951 3.199084 2.603695 0.4650 0.4822 0.4960
v 1.721821 3.534857 -4.133310 0.6196 0.6066 0.5184
v 1.673895 3.535377 -3.769541 0.7881 0.7759 0.6788
v 2.383046 3.535287 -3.532316 0.7872 0.7758 0.6874
v 1.756911 3.535367 -2.970986 0.7884 0.7781 0.6913
v 2.390083 3.535227 -2.029220 0.7889 0.7785 0.6926
v 2.362166 3.535217 -1.466623 0.7891 0.7788 0.6921
v 2.278511 3.535177 -0.801678 0.7889 0.7769 0.6912
v 1.997151 3.535367 -0.249133 0.7872 0.7759 0.6906
v 2.380936 3.535317 -0.003932 0.7837 0.7757 0.6886
v 2.373531 3.507557 0.805852 0.7835 0.7756 0.6895
v 2.336590 3.507676 1.297980 0.7852 0.7771 0.6890
v 2.387606 3.507806 1.598248 0.7857 0.7726 0.6831
v 1.927978 3.233274 2.511657 0.6081 0.5764 0.4881
v 1.929734 3.233444 2.588474 0.4122 0.4236 0.3746
v 2.334004 3.967000 2.491376 0.2075 0.1729 0.1191
v 2.369571 3.967160 2.617459 0.3437 0.3483 0.2821
v 2.948039 0.449024 -4.278688 0.8091 0.7926 0.6886
v 2.766831 0.430333 2.509411 0.4617 0.4175 0.3660
v 3.065260 0.006340 2.526270 0.6471 0.6241 0.5049
v 3.088971 0.932728 -4.290855 0.8041 0.7873 0.6837
v 2.976759 1.008458 2.246763 0.5265 0.5117 0.4782
v 2.965448 1.564353 -4.291225 0.7930 0.7761 0.6694
v 2.726310 1.564512 2.288615 0.5937 0.5815 0.5263
v 2.418000 1.674703 -4.291125 0.7858 0.7766 0.6759
v 3.116642 1.608542 2.344400 0.2097 0.2204 0.2133
v 2.610328 2.213488 -4.291055 0.3384 0.3489 0.3646
v 2.471274 2.235907 2.430120 0.2617 0.2790 0.2604
v 2.432509 2.611979 3.044889 0.4528 0.4818 0.4751
v 2.421579 3.174445 -4.371065 0.3813 0.3799 0.3578
v 2.610695 2.972522 2.502964 0.6104 0.6074 0.5614
v 3.068472 2.937732 2.748873 0.5086 0.5207 0.5169
v 3.139931 3.535147 -4.110443 0.6768 0.6622 0.5631
v 2.536582 3.535137 -3.813020 0.7842 0.7713 0.6711
v 3.116642 3.535377 -3.485483 0.7870 0.7763 0.6873
v 2.585746 3.535167 -2.463736 0.7885 0.7780 0.6912
v 2.998060 3.535287 -1.905032 0.7881 0.7779 0.6920
v 2.768805 3.535037 -1.375324 0.7881 0.7770 0.6898
v 3.057351 3.535227 -1.097055 0.7880 0.7764 0.6903
v 3.041167 3.535317 -0.300497 0.7868 0.7759 0.6895
v 3.045496 3.535357 0.096430 0.7838 0.7749 0.6878
v 3.118126 3.535287 0.329404 0.7821 0.7749 0.6887
v 3.040555 3.535297 0.929041 0.7840 0.7778 0.6918
v 3.123434 3.507856 1.939100 0.7793 0.7719 0.6837
v 2.915549 3.507856 2.006583 0.7016 0.5902 0.4470
v 2.462958 3.514406 2.515161 0.7379 0.6922 0.5247
v 3.073413 3.966330 2.479777 0.4627 0.2770 0.1338
v 2.932835 3.966590 2.537210 0.6522 0.5511 0.2541
v 3.149745 0.042641 -4.278578 0.8070 0.7926 0.6891
v 3.283150 0.012150 2.508703 0.4869 0.4225 0.3727
v 3.845924 0.113071 2.527238 0.3832 0.3605 0.2969
v 3.753027 0.900788 -4.290826 0.7960 0.7799 0.6745
v 3.881994 0.799866 2.271068 0.6339 0.6016 0.5478
v 3.856296 1.566533 -4.291304 0.7997 0.7842 0.6754
v 3.867172 1.455661 2.269571 0.6442 0.6264 0.5652
v 3.223927 1.973546 -4.291175 0.7988 0.7895 0.6872
v 3.895333 1.741493 2.271587 0.1899 0.1986 0.1962
v 3.155680 2.140797 -4.291185 0.5415 0.5454 0.5093
v 3.806397 2.468818 2.509082 0.3267 0.3454 0.3221
v 3.164323 2.637390 3.044929 0.4375 0.4617 0.4539
v 3.893115 2.962203 -4.447522 0.3716 0.3751 0.3739
v 3.286607 2.972862 2.497165 0.6775 0.6636 0.5897
v 3.414935 3.138334 2.644998 0.5450 0.5503 0.5255
v 3.651745 3.535137 -4.113387 0.8041 0.7872 0.6677
v 3.175933 3.535367 -3.577511 0.7949 0.7792 0.6776
v 3.294515 3.535337 -3.539103 0.7898 0.7776 0.6873
v 3.166542 3.535377 -2.644538 0.7896 0.7781 0.6899
v 3.868778 3.535417 -2.004127 0.7884 0.7776 0.6911
v 3.241989 3.535267 -1.459537 0.7908 0.7790 0.6903
v 3.748590 3.535397 -0.809244 0.7897 0.7781 0.6911
v 3.812318 3.535417 -0.304300 0.7888 0.7774 0.6892
v 3.152222 3.535337 0.057203 0.7909 0.7773 0.6889
v 3.174940 3.535297 0.339904 0.7893 0.7765 0.6875
v 3.153025 3.535317 0.907711 0.7867 0.7756 0.6862
v 3.795766 3.535317 1.477414 0.7838 0.7741 0.6860
v 3.160117 3.507886 2.027604 0.6509 0.5579 0.5226
v 3.537614 3.244554 2.604014 0.7282 0.6108 0.4855
v 3.156415 3.966420 2.505868 0.7597 0.1586 0.1834
v 3.153202 3.966730 2.662385 0.6455 0.3118 0.1539
v 4.646693 0.369284 -4.278639 0.8073 0.7932 0.6899
v 3.907189 0.070231 2.508683 0.5346 0.5071 0.4546
v 4.613862 0.111341 2.527068 0.7986 0.7795 0.6323
v 4.130524 0.963218 -4.278578 0.8076 0.7934 0.6902
v 4.032195 0.985367 2.270668 0.5998 0.6122 0.5722
v 3.914349 1.206070 -4.290835 0.8063 0.7946 0.6920
v 4.256810 1.561452 2.276877 0.5742 0.6056 0.5882
v 3.923005 1.757104 -4.291225 0.7891 0.7826 0.6838
v 4.172814 1.631752 2.358554 0.5334 0.5767 0.5513
v 3.901881 2.621781 -4.655283 0.6471 0.6447 0.5815
v 4.303701 2.468678 2.509122 0.5151 0.5524 0.5131
v 4.620409 2.654780 3.045179 0.5111 0.5240 0.4897
v 4.087961 3.008583 -4.430863 0.7059 0.6860 0.5916
v 4.622968 3.113443 2.712651 0.5363 0.5425 0.5216
v 4.045289 3.535057 -4.111940 0.7946 0.7757 0.6640
v 3.912879 3.535287 -3.867737 0.7833 0.7710 0.6729
v 4.017985 3.535277 -3.047613 0.7243 0.7159 0.6352
v 4.053443 3.535327 -2.592725 0.7330 0.7208 0.6395
v 4.008974 3.535477 -1.974602 0.7234 0.7099 0.6266
v 4.196729 3.535337 -1.388370 0.7922 0.7803 0.6920
v 4.209578 3.535197 -0.797057 0.7921 0.7804 0.6911
v 4.069245 3.535357 -0.299948 0.7828 0.7705 0.6813
v 4.231438 3.535387 0.238733 0.7866 0.7726 0.6836
v 3.956598 3.535407 0.644983 0.7855 0.7703 0.6783
v 4.349666 3.743818 1.337746 0.7795 0.7651 0.6739
v 4.349911 3.726998 1.567485 0.7780 0.7676 0.6819
v 4.480335 3.749628 2.163969 0.5981 0.6004 0.5658
v 4.463906 3.231694 2.655827 0.5487 0.5582 0.5373
v 4.349748 3.806259 -3.017360 0.7186 0.7103 0.6435
v 4.349612 3.796819 -2.903413 0.6643 0.6477 0.5805
v 4.587061 3.988331 -2.450132 0.7295 0.7167 0.6452
v 4.349516 3.884299 1.353686 0.4088 0.4115 0.3847
v 4.349952 3.798999 1.517449 0.3306 0.3305 0.3148
v 4.349694 3.851269 1.963833 0.4146 0.4129 0.3829
v 4.832134 0.449934 -4.278459 0.7902 0.7776 0.6750
v 5.353271 0.441224 -3.563747 0.7716 0.7748 0.6772
v 5.353081 0.211802 -3.042363 0.7580 0.7825 0.6941
v 5.352863 0.285133 -2.505409 0.7528 0.7833 0.6986
v 5.352726 0.431054 -1.924606 0.7577 0.7825 0.6960
v 5.352591 0.430334 -1.421698 0.7643 0.7808 0.6919
v 5.352863 0.437234 -0.810103 0.7627 0.7806 0.6922
v 5.352836 0.461004 -0.390169 0.7583 0.7816 0.6918
v 5.352672 0.439044 -0.065168 0.7600 0.7823 0.6944
v 5.352944 0.012150 0.378581 0.7592 0.7820 0.6957
v 5.352958 0.012150 0.875421 0.7569 0.7825 0.6987
v 5.352999 0.012150 1.479769 0.7563 0.7835 0.6968
v 4.669573 0.017960 2.508972 0.6383 0.6445 0.5744
v 5.207643 0.462273 2.524563 0.5925 0.5658 0.4646
v 5.336910 0.739246 -4.125345 0.7965 0.7830 0.6795
v 5.337808 1.008098 -3.679420 0.7778 0.7719 0.6700
v 5.337618 0.961658 -3.544683 0.7579 0.7842 0.6955
v 5.337141 0.831087 -2.963740 0.7536 0.7860 0.6998
v 5.337346 1.011138 -2.378227 0.7569 0.7845 0.6962
v 5.353802 0.991538 -1.369525 0.7628 0.7816 0.6918
v 5.352971 0.520354 -0.808656 0.7608 0.7787 0.6919
v 5.353067 0.632705 -0.291075 0.7588 0.7795 0.6944
v 5.353067 0.654305 -0.222873 0.7473 0.7733 0.6865
v 5.353040 0.486214 0.408246 0.7489 0.7759 0.6920
v 5.352985 0.491044 0.883027 0.7570 0.7872 0.7012
v 5.353067 0.551124 1.955498 0.7554 0.7845 0.6976
v 5.270881 1.016948 2.507874 0.6169 0.6365 0.5844
v 5.119442 1.014218 2.524952 0.3029 0.2889 0.2494
v 5.091035 1.035819 -4.278239 0.7944 0.7835 0.6810
v 5.337700 1.562903 -3.572440 0.7800 0.7718 0.6709
v 5.338353 1.555642 -3.378234 0.7410 0.7862 0.7060
v 5.273998 1.559452 -2.758305 0.7365 0.7865 0.7089
v 5.273713 1.562902 -2.137647 0.6591 0.7008 0.6586
v 5.336951 1.499012 -1.589813 0.6982 0.7185 0.6587
v 5.353734 1.059418 -0.828309 0.7629 0.7790 0.6910
v 5.353788 1.027018 -0.756663 0.7596 0.7790 0.6936
v 5.337319 1.562902 -0.053569 0.7417 0.7829 0.7028
v 5.274543 1.468881 0.812010 0.7277 0.7794 0.7041
v 5.274543 1.543752 0.900145 0.7393 0.7897 0.7116
v 5.338081 1.560672 1.914485 0.7495 0.7872 0.7019
v 5.337386 1.562902 2.355140 0.6315 0.6698 0.6156
v 5.080786 1.077878 2.524952 0.5000 0.4755 0.3931
v 5.337305 1.734964 -4.108677 0.7808 0.7758 0.6781
v 5.337319 1.854395 -3.559575 0.7580 0.7562 0.6587
v 5.337332 1.823534 -3.525878 0.7359 0.7732 0.6804
v 5.278790 2.078256 -2.965916 0.7272 0.7766 0.6828
v 5.270881 2.077596 -2.389825 0.6329 0.6628 0.6073
v 5.267547 1.983985 -1.888733 0.7147 0.7294 0.6608
v 5.337114 2.068566 -0.824416 0.7640 0.7768 0.6897
v 5.337046 2.120476 -0.372412 0.7604 0.7774 0.6909
v 5.337087 2.120196 -0.171329 0.7375 0.7767 0.6906
v 5.337319 2.103046 0.318165 0.7276 0.7755 0.6841
v 5.336747 2.122646 0.924689 0.7365 0.7774 0.6772
v 5.337101 2.107406 1.418175 0.7470 0.7803 0.6951
v 4.856648 1.892504 2.470914 0.5813 0.6089 0.5508
v 5.120190 1.582502 2.524962 0.5970 0.5770 0.4646
v 4.744177 2.634481 -4.655443 0.5945 0.5959 0.5452
v 5.337060 2.229378 -3.902882 0.4618 0.4704 0.4439
v 5.336760 2.302698 -3.014106 0.4556 0.4591 0.4292
v 5.381555 2.469559 -2.499969 0.5538 0.5599 0.4934
v 5.365753 2.469539 -1.928229 0.5740 0.5770 0.5057
v 5.357845 2.469169 -1.363726 0.5782 0.5783 0.5234
v 5.401319 2.469579 -0.824596 0.6700 0.6787 0.6117
v 5.377608 2.469349 -0.257557 0.6181 0.6327 0.5816
v 5.381555 2.469649 0.208749 0.5352 0.5455 0.4960
v 5.365753 2.469519 0.743528 0.5154 0.5204 0.4666
v 5.365753 2.469719 1.071075 0.5593 0.5707 0.5072
v 5.377608 2.469599 1.576149 0.6173 0.6275 0.5633
v 5.383284 2.469809 1.966368 0.5126 0.5270 0.4785
v 4.994190 2.660620 3.045218 0.4461 0.4479 0.4125
v 4.684396 3.051194 -4.415741 0.5691 0.5608 0.5038
v 5.314356 3.121503 2.708349 0.6180 0.6111 0.5438
v 5.017901 3.535087 -4.133310 0.7550 0.7390 0.6280
v 4.669206 3.535247 -3.890744 0.6691 0.6687 0.6035
v 4.950144 3.534587 -3.542067 0.6017 0.5972 0.5404
v 5.281757 3.604938 -2.976326 0.5908 0.5792 0.5154
v 5.136483 3.535157 -1.913187 0.4785 0.4722 0.4400
v 5.136483 3.535317 -1.353585 0.6900 0.6840 0.6186
v 4.830146 3.535257 -1.172195 0.7040 0.7010 0.6249
v 4.662155 3.535307 -0.734734 0.6602 0.6605 0.6069
v 4.679387 3.535337 -0.213929 0.6625 0.6560 0.5923
v 5.144391 3.535727 0.377593 0.7256 0.7122 0.6292
v 5.130562 3.535357 0.894256 0.6260 0.6147 0.5492
v 5.396051 3.423586 1.623021 0.5779 0.5715 0.5186
v 4.675998 3.749628 2.158409 0.6888 0.6778 0.5889
v 5.399590 3.425146 2.534854 0.6341 0.6337 0.5694
v 4.654628 3.999681 -3.040826 0.4534 0.4434 0.4086
v 4.845595 3.999721 -2.878959 0.3691 0.3571 0.3461
v 5.165475 3.987970 -2.450471 0.4572 0.4407 0.4134
v 4.897591 3.999690 1.399879 0.5014 0.4917 0.4495
v 4.677972 3.999880 1.881947 0.2951 0.2957 0.2910
v 4.891425 3.999690 1.969632 0.3538 0.3587 0.3397
v 5.427017 2.660621 -4.656451 0.3960 0.4068 0.3972
v 6.121032 2.675391 -3.902882 0.3519 0.3556 0.3598
v 6.120923 2.675301 -3.015912 0.4278 0.4366 0.4201
v 6.087589 2.559710 -2.471711 0.4130 0.4213 0.4001
v 6.086092 2.631580 -1.911560 0.3014 0.3016 0.3156
v 6.086868 2.605440 -1.368078 0.4867 0.4854 0.4474
v 6.084390 2.643200 -0.863722 0.5006 0.5064 0.4708
v 5.867970 2.675440 -0.411549 0.4861 0.4962 0.4715
v 5.876355 2.664480 -0.143431 0.3772 0.3845 0.3816
v 5.882616 2.656810 0.797876 0.3984 0.4085 0.3971
v 5.882548 2.656730 0.931945 0.4548 0.4569 0.4320
v 5.867984 2.675460 1.716007 0.4564 0.4696 0.4488
v 5.867834 2.675260 2.043544 0.2674 0.2753 0.3044
v 6.124163 2.672240 2.514562 0.3049 0.3172 0.3428
v 5.409595 3.041754 -4.418656 0.5551 0.5535 0.4947
v 6.085139 2.685961 -4.036212 0.6943 0.6900 0.5949
v 6.070316 2.685801 -3.549613 0.7465 0.7387 0.6274
v 5.954701 2.686201 -2.980050 0.7257 0.7181 0.6209
v 5.958662 2.685841 -2.406494 0.7637 0.7527 0.6373
v 6.010045 2.685581 -1.890540 0.6840 0.6801 0.5905
v 5.820140 2.738811 -0.840536 0.7555 0.7467 0.6388
v 5.757106 2.818261 -0.248594 0.7602 0.7521 0.6410
v 5.788371 2.779281 0.286284 0.7541 0.7403 0.6244
v 5.851963 2.696541 0.840816 0.7952 0.7838 0.6651
v 5.863737 2.680150 1.187377 0.7938 0.7853 0.6637
v 5.764646 2.808311 1.453678 0.7777 0.7647 0.6470
v 5.811592 2.749601 1.976150 0.7282 0.7174 0.6296
v 5.788289 2.779181 2.537748 0.6711 0.6594 0.5833
v 5.405280 3.605488 -4.343457 0.6614 0.6538 0.5652
v 5.405280 3.605118 -3.939114 0.7205 0.7185 0.6255
v 5.405280 3.605268 -3.497081 0.6326 0.6299 0.5547
v 5.405280 3.605128 -2.646344 0.6832 0.6751 0.5806
v 5.405280 3.605268 -2.071251 0.6534 0.6479 0.5662
v 5.405280 3.605228 -1.638092 0.7032 0.7011 0.6144
v 5.405280 3.605048 -1.040541 0.6754 0.6788 0.6038
v 5.405280 3.605077 -0.484013 0.7234 0.7183 0.6269
v 5.416237 3.604307 -0.128938 0.7206 0.7105 0.6085
v 5.425983 3.461406 0.345703 0.6609 0.6550 0.5709
v 5.426323 3.466486 0.927045 0.6958 0.6888 0.5960
v 5.426241 3.462126 1.500062 0.7861 0.7761 0.6555
v 5.425656 3.460996 1.965640 0.7783 0.7640 0.6563
v 5.409500 3.430026 2.540643 0.7635 0.7452 0.6459
f 635 621 622
f 635 622 636
f 632 617 618
f 631 617 632
f 632 618 633
f 619 633 618
f 634 619 620
f 633 619 634
f 634 620 635
f 620 621 635
f 142 177 179
f 144 142 179
f 109 106 144
f 106 142 144
f 106 103 142
f 103 140 142
f 177 140 175
f 140 177 142
f 165 164 131
f 164 130 131
f 153 152 164
f 153 164 165
f 284 252 253
f 284 253 285
f 188 152 153
f 188 153 189
f 253 254 285
f 252 251 220
f 251 219 220
f 220 221 252
f 252 221 253
f 220 188 189
f 220 189 221
f 219 187 188
f 219 188 220
f 375 345 376
f 376 377 408
f 407 376 408
f 438 407 408
f 438 408 439
f 469 438 439
f 469 439 470
f 408 377 378
f 346 347 378
f 377 346 378
f 376 345 346
f 376 346 377
f 345 313 314
f 344 313 345
f 314 282 283
f 315 283 284
f 314 283 315
f 284 251 252
f 283 251 284
f 315 284 285
f 315 285 316
f 315 316 347
f 346 315 347
f 314 315 346
f 345 314 346
f 151 152 187
f 187 152 188
f 285 286 317
f 285 317 316
f 316 317 348
f 347 316 348
f 515 508 509
f 516 515 509
f 508 479 509
f 478 479 508
f 477 478 508
f 507 477 508
f 608 517 609
f 516 517 608
f 517 510 609
f 510 602 609
f 516 509 517
f 441 411 442
f 441 410 411
f 442 443 474
f 471 472 502
f 501 471 502
f 502 472 473
f 502 473 503
f 504 473 474
f 503 473 504
f 442 474 473
f 504 474 475
f 505 504 475
f 441 442 472
f 472 442 473
f 440 409 410
f 440 410 441
f 471 440 441
f 472 471 441
f 380 381 412
f 411 380 412
f 380 349 350
f 380 350 381
f 379 411 410
f 411 379 380
f 348 317 318
f 348 318 349
f 380 348 349
f 348 380 379
f 408 378 409
f 347 348 379
f 378 347 379
f 378 379 410
f 409 378 410
f 439 440 470
f 470 440 471
f 408 409 439
f 439 409 440
f 476 445 446
f 476 446 477
f 446 447 478
f 477 446 478
f 506 476 507
f 476 477 507
f 475 476 505
f 505 476 506
f 500 501 512
f 512 501 513
f 412 413 443
f 442 411 412
f 442 412 443
f 412 381 413
f 413 414 445
f 444 413 445
f 413 381 382
f 443 413 444
f 444 445 476
f 444 476 475
f 443 444 475
f 474 443 475
f 222 254 255
f 223 222 255
f 222 221 254
f 221 253 254
f 154 189 190
f 154 153 189
f 190 189 221
f 190 221 222
f 191 190 222
f 191 222 223
f 224 223 256
f 256 223 255
f 254 253 286
f 253 285 286
f 255 254 287
f 287 254 286
f 155 190 191
f 192 191 224
f 191 223 224
f 283 314 284
f 284 314 315
f 285 284 316
f 316 284 315
f 314 345 315
f 315 345 346
f 158 193 194
f 157 193 158
f 151 188 152
f 151 187 188
f 152 189 153
f 152 188 189
f 155 154 190
f 120 154 155
f 120 155 121
f 117 152 118
f 117 151 152
f 123 157 158
f 124 123 158
f 121 155 122
f 156 122 155
f 191 156 155
f 156 191 192
f 193 156 192
f 157 156 193
f 193 192 225
f 192 224 225
f 156 157 123
f 122 156 123
f 120 119 154
f 119 153 154
f 119 118 153
f 118 152 153
f 244 210 212
f 242 210 244
f 274 242 244
f 274 244 276
f 307 274 276
f 305 274 307
f 365 367 398
f 365 398 396
f 336 305 338
f 305 307 338
f 303 305 336
f 303 336 334
f 334 336 367
f 365 334 367
f 367 336 338
f 367 338 369
f 131 166 165
f 164 118 130
f 152 118 164
f 131 132 166
f 148 116 150
f 186 148 150
f 183 148 186
f 86 72 87
f 85 71 72
f 85 72 86
f 111 57 71
f 180 145 148
f 180 148 183
f 244 212 215
f 244 215 247
f 212 180 183
f 212 183 215
f 114 71 85
f 114 85 116
f 148 114 116
f 145 111 114
f 145 114 148
f 111 71 114
f 218 183 186
f 218 215 183
f 215 218 250
f 247 215 250
f 218 219 251
f 250 218 251
f 282 250 251
f 282 251 283
f 310 279 313
f 279 282 313
f 344 310 313
f 341 310 344
f 279 247 282
f 282 247 250
f 71 57 72
f 57 58 72
f 78 93 92
f 92 79 93
f 78 79 92
f 313 282 314
f 89 76 90
f 89 75 76
f 88 74 89
f 74 75 89
f 186 151 187
f 218 186 187
f 219 218 187
f 186 150 151
f 116 117 151
f 150 116 151
f 87 72 73
f 87 74 88
f 87 73 74
f 77 78 92
f 91 77 92
f 90 77 91
f 90 76 77
f 601 600 608
f 600 607 608
f 508 515 607
f 600 508 607
f 600 507 508
f 599 507 600
f 515 516 608
f 607 515 608
f 643 596 644
f 595 596 643
f 594 595 643
f 642 594 643
f 596 597 644
f 644 597 645
f 597 598 645
f 595 503 504
f 595 504 596
f 595 502 503
f 594 502 595
f 500 471 501
f 500 470 471
f 372 344 375
f 341 344 372
f 641 593 594
f 641 594 642
f 640 591 592
f 640 592 641
f 638 590 591
f 638 591 639
f 639 591 640
f 604 500 512
f 592 499 500
f 499 592 591
f 592 500 604
f 590 498 499
f 591 590 499
f 641 592 593
f 594 605 606
f 592 604 593
f 604 605 593
f 594 593 605
f 468 437 469
f 437 438 469
f 437 406 407
f 437 407 438
f 406 375 376
f 406 376 407
f 375 344 345
f 498 468 469
f 498 469 499
f 505 506 598
f 597 505 598
f 596 504 597
f 504 505 597
f 598 507 599
f 506 507 598
f 593 501 502
f 593 502 594
f 513 502 514
f 501 502 513
f 501 593 513
f 513 593 605
f 513 605 606
f 606 513 514
f 604 513 605
f 512 513 604
f 603 650 602
f 650 603 651
f 649 601 602
f 650 649 602
f 600 648 601
f 649 601 648
f 600 599 648
f 599 647 648
f 434 437 468
f 499 469 500
f 500 469 470
f 403 406 437
f 403 437 434
f 372 375 406
f 403 372 406
f 643 595 642
f 612 626 613
f 613 626 627
f 613 627 614
f 627 628 614
f 614 628 629
f 614 629 615
f 646 645 598
f 645 644 596
f 598 646 647
f 598 647 599
f 645 596 597
f 631 644 645
f 631 630 644
f 639 590 591
f 639 638 590
f 611 625 626
f 611 626 612
f 592 640 593
f 593 640 641
f 643 595 644
f 630 629 643
f 630 643 644
f 595 596 644
f 595 594 642
f 628 642 643
f 629 628 643
f 624 638 625
f 625 638 639
f 626 639 640
f 626 625 639
f 640 641 626
f 627 626 641
f 628 641 642
f 628 627 641
f 398 400 429
f 429 400 431
f 367 369 400
f 398 367 400
f 276 244 279
f 244 247 279
f 307 276 279
f 307 279 310
f 624 625 610
f 610 625 611
f 574 588 624
f 610 574 624
f 629 630 616
f 632 646 633
f 631 645 632
f 632 645 646
f 647 646 599
f 633 646 647
f 646 598 599
f 634 633 647
f 634 647 648
f 636 635 650
f 635 649 650
f 637 650 651
f 637 636 650
f 649 601 600
f 649 648 600
f 634 648 635
f 648 649 635
f 493 496 588
f 574 493 588
f 496 465 468
f 496 468 498
f 624 590 638
f 624 588 590
f 496 498 590
f 588 496 590
f 465 434 468
f 431 400 403
f 431 403 434
f 369 372 403
f 400 369 403
f 369 341 372
f 369 338 341
f 338 307 310
f 338 310 341
f 431 434 465
f 462 431 465
f 493 462 465
f 493 465 496
f 429 431 462
f 460 429 462
f 149 182 185
f 182 214 185
f 93 79 80
f 93 80 94
f 636 637 622
f 635 636 621
f 622 621 636
f 619 633 620
f 633 634 620
f 589 637 603
f 511 589 603
f 511 497 589
f 76 61 62
f 75 61 76
f 60 61 75
f 60 75 74
f 74 59 60
f 73 59 74
f 58 59 73
f 72 58 73
f 76 63 77
f 62 63 76
f 622 637 623
f 603 637 651
f 429 396 398
f 396 429 427
f 561 547 562
f 548 549 563
f 562 548 563
f 549 550 563
f 563 550 564
f 425 427 458
f 456 425 458
f 458 429 460
f 458 427 429
f 394 396 427
f 394 427 425
f 547 533 534
f 533 532 547
f 532 546 547
f 560 546 547
f 560 547 561
f 546 532 533
f 533 547 546
f 547 548 562
f 548 547 534
f 487 484 518
f 487 518 532
f 487 532 489
f 489 532 546
f 533 518 532
f 532 484 487
f 484 532 518
f 456 484 487
f 489 487 458
f 456 458 487
f 491 493 574
f 574 560 491
f 491 460 462
f 458 460 491
f 489 458 491
f 546 489 491
f 491 560 546
f 491 462 493
f 548 562 549
f 549 562 563
f 616 617 631
f 630 616 631
f 314 344 345
f 629 615 630
f 615 616 630
f 406 434 437
f 375 403 406
f 496 493 574
f 496 574 588
f 638 624 639
f 639 624 625
f 590 588 638
f 588 624 638
f 406 403 434
f 498 496 588
f 498 588 590
f 593 640 627
f 627 641 593
f 626 627 640
f 639 625 591
f 71 114 116
f 150 148 183
f 150 183 186
f 151 150 187
f 150 186 187
f 625 624 611
f 624 610 611
f 625 612 626
f 611 612 625
f 219 218 250
f 219 250 251
f 314 313 344
f 218 250 282
f 247 276 279
f 244 276 247
f 310 307 341
f 341 307 338
f 313 310 341
f 344 313 341
f 250 247 279
f 250 279 282
f 186 215 218
f 183 215 186
f 215 247 218
f 218 247 250
f 372 403 375
f 344 341 375
f 341 372 375
f 548 534 535
f 548 535 549
f 617 581 618
f 580 581 617
f 616 580 617
f 615 579 616
f 579 580 616
f 615 578 579
f 578 615 614
f 579 565 580
f 565 566 580
f 566 567 581
f 580 566 581
f 578 565 579
f 618 581 582
f 619 582 583
f 618 582 619
f 581 567 568
f 568 582 581
f 582 568 569
f 582 569 583
f 569 555 570
f 555 556 570
f 568 555 569
f 568 554 555
f 549 535 536
f 613 578 614
f 576 563 577
f 562 563 576
f 613 577 578
f 563 564 578
f 577 563 578
f 578 564 565
f 550 551 565
f 564 550 565
f 584 585 621
f 619 583 584
f 619 584 620
f 621 620 584
f 570 556 571
f 556 557 571
f 585 570 571
f 570 585 584
f 584 569 570
f 569 584 583
f 585 586 621
f 621 586 622
f 586 587 623
f 622 586 623
f 585 571 572
f 585 572 586
f 241 239 271
f 241 271 273
f 241 273 275
f 241 275 243
f 211 209 241
f 211 241 243
f 121 90 122
f 91 121 122
f 90 121 91
f 89 88 120
f 120 88 119
f 90 89 121
f 121 89 120
f 92 91 123
f 91 122 123
f 58 72 59
f 59 72 73
f 85 71 116
f 71 85 86
f 86 85 116
f 72 71 86
f 75 88 89
f 75 74 88
f 87 118 88
f 119 88 118
f 73 86 87
f 86 117 87
f 87 117 118
f 117 85 86
f 116 85 117
f 118 86 87
f 117 86 118
f 118 87 119
f 86 116 117
f 72 86 73
f 87 88 119
f 93 92 123
f 93 123 124
f 61 60 74
f 61 74 75
f 64 63 77
f 64 77 78
f 62 75 76
f 62 61 75
f 62 76 77
f 63 62 77
f 76 90 91
f 77 76 91
f 64 78 79
f 65 64 79
f 80 66 65
f 80 65 79
f 67 66 80
f 67 80 81
f 68 67 82
f 67 81 82
f 239 235 267
f 239 267 271
f 209 207 239
f 209 239 241
f 177 175 209
f 203 235 207
f 207 235 239
f 171 203 207
f 175 171 207
f 175 207 209
f 239 235 271
f 237 236 268
f 237 268 269
f 179 177 209
f 179 209 211
f 236 237 269
f 237 204 236
f 205 204 237
f 240 208 242
f 208 210 242
f 240 242 274
f 272 240 274
f 270 238 240
f 270 240 272
f 394 360 363
f 391 363 394
f 391 360 363
f 301 270 303
f 303 270 272
f 303 272 274
f 303 274 305
f 396 363 365
f 394 363 396
f 363 332 334
f 363 334 365
f 334 301 303
f 301 334 332
f 206 238 240
f 208 206 240
f 334 365 336
f 336 365 367
f 307 305 336
f 307 336 338
f 272 301 303
f 272 270 301
f 303 301 332
f 334 303 332
f 210 240 242
f 210 208 240
f 610 574 575
f 610 575 611
f 493 560 574
f 491 560 493
f 367 398 369
f 398 400 369
f 429 427 460
f 427 458 460
f 427 425 456
f 458 427 456
f 575 561 562
f 575 562 576
f 458 489 460
f 460 489 491
f 560 561 574
f 574 561 575
f 611 575 612
f 576 577 612
f 612 577 613
f 612 575 576
f 425 422 456
f 422 453 456
f 489 456 487
f 453 487 484
f 456 453 484
f 489 458 456
f 363 329 360
f 329 363 332
f 391 394 425
f 422 391 425
f 487 453 456
f 453 425 456
f 422 425 453
f 183 180 215
f 215 180 212
f 394 422 425
f 394 391 422
f 396 394 425
f 396 425 427
f 429 460 431
f 431 460 462
f 367 365 396
f 398 367 396
f 519 520 533
f 534 533 520
f 518 519 533
f 550 564 551
f 551 564 565
f 554 553 567
f 554 567 568
f 535 534 549
f 534 548 549
f 534 520 535
f 520 521 535
f 519 534 520
f 519 533 534
f 536 549 550
f 586 573 587
f 558 572 559
f 559 572 573
f 545 544 558
f 545 558 559
f 587 586 622
f 587 622 623
f 571 585 586
f 572 571 586
f 585 621 622
f 586 585 622
f 573 572 586
f 552 553 566
f 566 553 567
f 551 552 566
f 551 566 565
f 553 554 568
f 567 553 568
f 424 423 454
f 424 454 455
f 393 392 424
f 392 423 424
f 362 361 392
f 578 577 614
f 614 577 613
f 576 575 611
f 576 611 612
f 575 574 611
f 574 610 611
f 563 562 577
f 562 576 577
f 564 563 577
f 577 578 564
f 540 554 555
f 541 540 555
f 555 554 569
f 569 554 568
f 544 543 558
f 543 557 558
f 543 542 557
f 541 555 556
f 542 541 556
f 557 542 556
f 527 541 528
f 528 541 542
f 541 527 540
f 529 543 530
f 530 543 544
f 543 528 542
f 529 528 543
f 558 557 572
f 557 571 572
f 551 537 538
f 551 538 552
f 537 523 538
f 538 523 524
f 550 536 537
f 550 537 551
f 522 523 537
f 537 536 522
f 541 526 527
f 526 541 540
f 552 538 539
f 552 539 553
f 526 539 540
f 525 539 526
f 527 526 540
f 539 540 554
f 539 554 553
f 540 525 526
f 539 525 540
f 538 524 525
f 539 538 525
f 555 541 542
f 555 542 556
f 580 566 579
f 566 565 579
f 568 582 583
f 569 568 583
f 583 582 618
f 583 618 619
f 567 566 580
f 581 567 580
f 615 629 616
f 631 632 618
f 618 617 631
f 620 583 619
f 583 620 584
f 570 569 583
f 570 583 584
f 571 558 572
f 557 558 571
f 566 552 565
f 551 565 552
f 521 522 536
f 535 521 536
f 553 538 552
f 538 553 539
f 523 537 524
f 524 537 538
f 539 524 538
f 525 524 539
f 522 535 536
f 521 535 522
f 537 551 552
f 537 552 538
f 579 614 615
f 578 614 579
f 455 454 486
f 486 454 485
f 485 530 531
f 486 485 531
f 531 544 545
f 531 530 544
f 529 530 544
f 543 529 544
f 542 529 543
f 528 529 542
f 158 195 159
f 195 158 194
f 160 159 196
f 159 195 196
f 160 196 197
f 161 160 197
f 98 97 129
f 128 97 98
f 128 98 129
f 129 97 128
f 96 97 128
f 97 83 96
f 127 128 96
f 97 96 127
f 97 127 128
f 96 95 127
f 95 126 127
f 126 125 160
f 95 94 125
f 95 125 126
f 125 158 159
f 125 124 158
f 160 125 159
f 127 126 161
f 126 160 161
f 83 82 96
f 149 113 115
f 147 113 149
f 185 147 149
f 182 147 185
f 184 185 216
f 216 185 217
f 184 216 217
f 185 184 217
f 216 217 249
f 248 216 249
f 217 248 249
f 217 216 248
f 278 281 309
f 246 217 249
f 278 246 249
f 278 249 281
f 249 248 280
f 249 280 281
f 309 281 312
f 281 280 312
f 371 343 374
f 311 342 343
f 312 311 343
f 280 311 312
f 311 280 281
f 311 281 312
f 182 185 217
f 182 217 214
f 214 217 246
f 309 312 343
f 340 309 343
f 371 340 343
f 90 91 122
f 419 405 418
f 418 404 419
f 419 404 405
f 587 637 623
f 637 587 589
f 433 402 405
f 371 374 405
f 402 371 405
f 587 495 589
f 162 161 197
f 162 197 198
f 199 163 162
f 162 198 199
f 149 199 185
f 149 163 199
f 185 184 198
f 185 198 199
f 128 162 129
f 129 162 163
f 198 197 230
f 217 185 199
f 217 231 263
f 262 231 230
f 263 231 262
f 217 199 231
f 199 198 230
f 231 199 230
f 127 161 162
f 128 127 162
f 95 96 82
f 80 94 81
f 81 94 95
f 94 125 126
f 95 94 126
f 82 81 95
f 79 93 94
f 80 79 94
f 93 124 94
f 94 124 125
f 91 92 122
f 122 92 123
f 343 357 388
f 343 388 374
f 312 326 343
f 343 326 357
f 387 374 388
f 387 373 374
f 373 342 374
f 342 343 374
f 388 405 374
f 373 405 374
f 405 373 404
f 374 388 373
f 405 404 418
f 373 388 387
f 113 70 115
f 70 84 115
f 343 342 373
f 374 343 373
f 84 83 97
f 84 97 98
f 115 163 149
f 163 115 129
f 115 84 98
f 115 98 129
f 249 217 263
f 295 281 249
f 249 263 295
f 312 281 326
f 326 281 295
f 274 305 276
f 307 276 305
f 33 32 47
f 32 46 47
f 32 45 46
f 32 31 45
f 141 176 178
f 143 141 178
f 145 178 180
f 145 143 178
f 210 178 176
f 176 208 210
f 178 210 212
f 180 178 212
f 271 267 273
f 241 207 209
f 239 207 241
f 209 177 211
f 211 177 179
f 211 213 245
f 243 211 245
f 275 243 245
f 275 245 277
f 211 179 243
f 213 179 181
f 211 179 213
f 181 144 146
f 179 144 181
f 273 241 243
f 273 243 275
f 140 103 106
f 140 106 142
f 140 142 175
f 175 142 177
f 463 464 495
f 494 463 495
f 463 433 464
f 463 432 433
f 109 112 144
f 144 112 146
f 142 106 109
f 142 109 144
f 401 402 433
f 432 401 433
f 46 45 59
f 46 59 60
f 34 33 48
f 33 47 48
f 38 37 51
f 52 51 66
f 66 51 65
f 39 38 53
f 53 38 52
f 52 38 51
f 40 39 53
f 40 53 54
f 40 54 41
f 41 54 55
f 55 54 69
f 54 68 69
f 68 53 67
f 68 54 53
f 52 66 67
f 53 52 67
f 51 50 65
f 50 64 65
f 50 49 63
f 50 63 64
f 51 36 50
f 37 36 51
f 277 245 278
f 245 246 278
f 308 278 309
f 371 339 340
f 339 371 370
f 308 309 340
f 47 46 60
f 47 60 61
f 49 48 63
f 48 62 63
f 48 47 62
f 47 61 62
f 112 70 113
f 112 69 70
f 69 68 83
f 68 82 83
f 69 83 70
f 70 83 84
f 146 147 182
f 181 146 182
f 213 214 245
f 245 214 246
f 214 213 182
f 181 182 213
f 112 113 147
f 146 112 147
f 145 180 143
f 143 180 178
f 234 206 238
f 234 202 206
f 202 174 206
f 170 174 202
f 208 174 176
f 206 174 208
f 206 202 238
f 238 202 234
f 266 298 270
f 270 298 301
f 298 329 301
f 270 234 266
f 234 270 238
f 301 266 270
f 298 266 301
f 329 301 332
f 105 29 43
f 105 43 108
f 15 29 105
f 102 15 105
f 139 99 102
f 136 99 139
f 139 141 176
f 174 139 176
f 139 102 141
f 102 105 141
f 266 238 270
f 234 238 266
f 136 139 170
f 170 139 174
f 108 111 145
f 143 108 145
f 143 105 108
f 141 105 143
f 43 57 108
f 108 57 111
f 31 30 45
f 30 44 45
f 16 30 17
f 17 30 31
f 19 18 32
f 33 19 32
f 17 31 32
f 18 17 32
f 45 44 58
f 45 58 59
f 44 30 29
f 29 43 44
f 111 108 143
f 111 143 145
f 44 43 57
f 44 57 58
f 31 32 46
f 45 31 46
f 35 34 49
f 34 48 49
f 36 49 50
f 35 49 36
f 43 29 30
f 43 30 44
f 16 17 31
f 30 16 31
f 29 15 16
f 29 16 30
f 99 15 102
f 99 1 15
f 15 29 30
f 16 15 30
f 2 15 16
f 1 15 2
f 31 17 18
f 141 174 176
f 141 139 174
f 139 136 174
f 174 136 170
f 19 4 18
f 4 19 5
f 3 2 16
f 17 3 16
f 4 3 18
f 18 3 17
f 20 19 34
f 19 33 34
f 25 24 38
f 25 38 39
f 26 25 40
f 40 25 39
f 1 16 15
f 1 2 16
f 18 17 4
f 17 3 4
f 20 21 34
f 21 35 34
f 20 6 21
f 47 33 34
f 47 34 48
f 60 45 46
f 45 60 59
f 58 44 59
f 44 45 59
f 43 44 58
f 58 57 43
f 61 46 47
f 21 22 8
f 8 7 21
f 19 6 20
f 5 6 19
f 23 22 37
f 22 36 37
f 7 6 20
f 7 20 21
f 21 20 35
f 20 34 35
f 22 21 36
f 36 21 35
f 31 18 32
f 6 7 21
f 24 23 37
f 38 24 37
f 23 9 22
f 9 8 22
f 602 651 603
f 602 650 651
f 601 649 650
f 602 650 636
f 601 650 602
f 648 633 634
f 599 647 600
f 600 647 648
f 647 633 648
f 256 288 289
f 257 256 289
f 289 319 320
f 289 288 319
f 256 255 287
f 256 287 288
f 287 318 288
f 288 318 319
f 318 287 286
f 318 286 317
f 317 348 349
f 318 317 349
f 319 349 350
f 319 318 349
f 346 345 377
f 345 376 377
f 596 644 630
f 645 630 631
f 591 639 592
f 592 639 640
f 641 642 593
f 593 642 594
f 591 499 498
f 498 590 591
f 500 591 592
f 499 591 500
f 228 227 260
f 227 259 260
f 195 194 227
f 258 290 259
f 259 290 291
f 320 290 289
f 321 290 320
f 291 290 322
f 321 322 290
f 194 226 227
f 292 259 291
f 260 259 292
f 227 226 258
f 227 258 259
f 258 257 290
f 289 290 257
f 226 225 257
f 226 257 258
f 193 225 194
f 194 225 226
f 229 228 260
f 228 195 227
f 195 228 196
f 196 228 197
f 197 228 229
f 261 229 260
f 262 293 294
f 261 293 262
f 384 415 385
f 385 415 416
f 354 353 385
f 385 353 384
f 353 352 384
f 352 383 384
f 322 352 353
f 322 321 352
f 382 383 352
f 351 382 352
f 351 350 381
f 351 381 382
f 319 350 320
f 320 350 351
f 320 351 321
f 321 351 352
f 384 383 415
f 383 414 415
f 383 382 414
f 382 413 414
f 415 414 446
f 414 445 446
f 405 404 436
f 404 435 436
f 497 511 603
f 589 497 603
f 466 467 480
f 436 450 481
f 467 436 481
f 467 435 436
f 466 435 467
f 436 435 466
f 436 466 467
f 435 404 405
f 436 435 405
f 467 466 481
f 480 467 481
f 511 467 481
f 497 467 511
f 467 433 436
f 464 433 467
f 433 405 436
f 495 464 467
f 495 467 497
f 495 497 589
f 508 507 599
f 508 599 600
f 597 645 646
f 597 646 598
f 645 597 631
f 630 645 596
f 503 595 596
f 504 503 596
f 501 592 593
f 501 500 592
f 506 505 597
f 506 597 598
f 506 599 507
f 599 506 598
f 476 506 477
f 477 506 507
f 472 440 471
f 441 440 472
f 475 444 474
f 443 474 444
f 443 442 473
f 443 473 474
f 444 475 445
f 445 475 476
f 476 475 506
f 475 505 506
f 473 503 474
f 474 503 504
f 230 229 262
f 262 229 261
f 197 229 230
f 450 418 449
f 419 418 450
f 450 405 419
f 602 511 510
f 511 602 603
f 481 480 510
f 481 510 511
f 450 449 480
f 450 480 481
f 436 405 450
f 466 480 481
f 257 224 256
f 224 257 225
f 478 477 507
f 478 507 508
f 355 386 356
f 356 386 387
f 354 385 386
f 355 354 386
f 385 417 386
f 417 385 416
f 509 508 601
f 508 600 601
f 416 415 447
f 447 415 446
f 326 325 356
f 357 326 356
f 388 356 387
f 357 356 388
f 345 344 376
f 376 344 375
f 375 406 407
f 376 375 407
f 449 448 480
f 448 479 480
f 448 447 479
f 447 478 479
f 418 417 449
f 417 448 449
f 417 416 448
f 416 447 448
f 418 387 386
f 386 417 418
f 479 510 480
f 509 478 508
f 479 478 509
f 479 509 510
f 440 439 471
f 471 439 470
f 408 407 439
f 407 438 439
f 409 408 440
f 440 408 439
f 469 438 470
f 293 292 324
f 324 292 323
f 294 324 325
f 323 355 324
f 292 291 323
f 291 322 323
f 261 260 293
f 293 260 292
f 294 293 324
f 510 509 602
f 602 509 601
f 409 410 441
f 411 412 443
f 411 410 442
f 410 441 442
f 379 378 409
f 409 410 379
f 323 354 355
f 325 324 356
f 356 324 355
f 295 263 262
f 295 262 294
f 323 322 353
f 323 353 354
f 387 388 418
f 418 388 419
f 404 373 387
f 404 387 418
f 407 406 438
f 406 437 438
f 468 498 499
f 469 468 499
f 326 295 325
f 325 295 294
f 377 376 407
f 377 407 408
f 602 601 608
f 602 608 609
f 509 510 517
f 281 246 278
f 249 246 281
f 185 214 217
f 217 214 249
f 214 246 249
f 390 388 419
f 388 405 419
f 357 390 359
f 357 388 390
f 326 357 328
f 328 357 359
f 603 510 511
f 602 510 603
f 481 480 482
f 481 482 483
f 483 482 452
f 482 451 452
f 589 587 623
f 589 623 637
f 481 497 511
f 467 497 481
f 405 402 436
f 402 433 436
f 374 402 405
f 371 402 374
f 497 464 495
f 467 464 497
f 419 436 450
f 405 436 419
f 452 481 483
f 452 450 481
f 420 421 452
f 451 420 452
f 452 419 450
f 421 419 452
f 249 231 217
f 263 231 249
f 263 295 265
f 297 265 295
f 295 326 328
f 297 295 328
f 304 273 275
f 306 304 275
f 302 271 273
f 302 273 304
f 308 277 278
f 306 275 277
f 306 277 308
f 339 308 340
f 401 371 402
f 401 370 371
f 118 119 131
f 118 131 130
f 119 120 132
f 131 119 132
f 132 165 166
f 131 165 132
f 165 153 166
f 131 119 165
f 119 153 165
f 153 154 166
f 153 165 154
f 154 165 166
f 119 131 120
f 120 131 132
f 154 120 121
f 154 121 155
f 120 89 90
f 121 120 90
f 253 221 222
f 222 190 223
f 223 190 191
f 189 153 190
f 153 154 190
f 253 222 254
f 285 254 286
f 350 351 382
f 350 382 381
f 351 319 320
f 350 319 351
f 352 320 321
f 351 320 352
f 349 318 350
f 318 319 350
f 289 290 321
f 320 289 321
f 354 355 385
f 385 355 386
f 354 324 355
f 323 324 354
f 293 261 294
f 261 262 294
f 323 292 293
f 323 293 324
f 417 387 418
f 417 386 387
f 355 387 386
f 355 356 387
f 322 292 323
f 322 291 292
f 416 385 386
f 416 386 417
f 384 385 416
f 415 384 416
f 383 353 384
f 383 352 353
f 480 481 511
f 480 511 510
f 321 291 322
f 290 291 321
f 196 161 197
f 194 195 226
f 226 195 227
f 157 158 194
f 193 157 194
f 157 123 124
f 157 124 158
f 158 124 159
f 124 125 159
f 195 196 227
f 227 196 228
f 160 161 196
f 196 195 160
f 195 159 160
f 124 93 125
f 125 93 94
f 126 127 133
f 133 127 134
f 127 135 134
f 169 168 134
f 134 135 169
f 255 223 224
f 255 224 256
f 197 198 229
f 229 198 230
f 226 227 259
f 258 226 259
f 288 257 289
f 256 257 288
f 256 224 225
f 256 225 257
f 327 296 297
f 327 297 328
f 358 328 359
f 358 327 328
f 421 418 419
f 449 418 451
f 420 418 421
f 418 420 451
f 419 418 390
f 418 389 390
f 418 387 389
f 388 387 389
f 388 389 390
f 480 451 482
f 480 449 451
f 193 194 226
f 192 156 157
f 192 157 193
f 225 193 226
f 417 418 448
f 448 418 449
f 96 95 81
f 96 81 82
f 129 149 163
f 129 115 149
f 126 95 96
f 126 96 127
f 135 127 128
f 262 264 294
f 294 264 296
f 325 294 327
f 327 294 296
f 389 356 358
f 389 387 356
f 325 327 358
f 356 325 358
f 126 133 160
f 160 133 167
f 167 133 134
f 167 134 168
f 160 167 161
f 168 161 167
f 233 201 199
f 199 231 233
f 233 231 265
f 231 263 265
f 390 328 359
f 389 358 359
f 389 359 390
f 135 128 169
f 232 200 201
f 232 201 233
f 262 230 232
f 262 232 264
f 128 162 169
f 200 198 199
f 199 201 200
f 296 265 297
f 296 264 265
f 232 233 264
f 264 233 265
f 198 200 232
f 230 198 232
f 161 168 162
f 162 168 169
f 267 299 300
f 268 267 300
f 362 392 393
f 300 299 330
f 300 330 331
f 362 330 361
f 331 330 362
f 337 306 308
f 213 243 245
f 213 211 243
f 243 275 277
f 245 243 277
f 271 302 304
f 273 271 304
f 268 236 269
f 308 337 339
f 56 42 107
f 56 107 110
f 41 42 55
f 55 42 56
f 107 106 109
f 110 107 109
f 41 27 42
f 42 28 107
f 28 104 107
f 104 106 107
f 103 106 104
f 40 26 27
f 41 40 27
f 27 28 42
f 69 55 56
f 69 56 70
f 70 56 113
f 56 110 113
f 54 39 40
f 53 39 54
f 66 53 67
f 66 52 53
f 28 101 104
f 68 55 69
f 54 55 68
f 149 147 182
f 67 66 65
f 65 51 52
f 65 52 66
f 70 113 84
f 84 113 115
f 203 204 236
f 235 203 236
f 267 235 268
f 235 236 268
f 204 171 172
f 203 171 204
f 236 235 267
f 236 267 268
f 41 26 40
f 27 26 41
f 137 100 138
f 175 137 171
f 175 140 137
f 140 100 103
f 140 100 137
f 100 101 138
f 104 100 103
f 101 100 104
f 171 100 137
f 78 63 64
f 64 65 78
f 78 65 79
f 77 63 78
f 60 46 61
f 138 171 172
f 171 137 138
f 172 203 204
f 171 203 172
f 101 137 138
f 100 137 101
f 10 11 24
f 24 11 25
f 9 10 23
f 37 23 38
f 38 23 24
f 24 23 10
f 11 26 12
f 11 25 26
f 36 22 23
f 36 23 37
f 55 69 112
f 109 55 112
f 106 41 55
f 106 55 109
f 106 27 41
f 103 27 106
f 13 12 26
f 13 26 27
f 11 10 25
f 10 24 25
f 10 9 24
f 24 9 23
f 64 51 65
f 64 50 51
f 37 38 52
f 51 37 52
f 173 204 205
f 173 172 204
f 172 173 205
f 204 172 205
f 110 109 113
f 144 179 146
f 146 179 181
f 109 112 113
f 113 147 182
f 213 245 246
f 214 213 246
f 147 146 181
f 147 181 182
f 182 181 214
f 214 181 213
f 13 27 103
f 100 13 103
f 27 13 28
f 13 14 28
f 14 101 28
f 26 12 27
f 12 13 27
f 14 13 100
f 14 100 101
f 179 211 181
f 181 211 213
f 494 495 587
f 586 494 587
f 461 463 494
f 430 432 463
f 544 488 490
f 544 490 558
f 558 490 492
f 558 492 572
f 492 461 494
f 586 492 494
f 572 492 586
f 490 459 492
f 459 461 492
f 430 463 461
f 459 430 461
f 306 304 335
f 306 335 337
f 335 304 337
f 304 306 337
f 335 302 304
f 333 302 335
f 337 335 368
f 368 335 366
f 337 368 339
f 370 368 339
f 366 337 368
f 366 335 337
f 399 368 401
f 364 333 366
f 333 335 366
f 368 370 401
f 277 309 278
f 340 339 370
f 340 370 371
f 433 432 464
f 432 463 464
f 494 586 495
f 495 586 587
f 463 494 464
f 464 494 495
f 544 545 559
f 558 544 559
f 558 559 573
f 572 558 573
f 454 423 457
f 392 485 454
f 485 392 423
f 457 423 426
f 423 392 454
f 426 392 395
f 423 392 426
f 485 423 454
f 454 457 488
f 485 454 488
f 459 428 430
f 457 428 459
f 457 426 428
f 428 395 397
f 395 428 426
f 544 530 488
f 392 361 395
f 361 364 395
f 330 333 364
f 330 364 361
f 457 459 488
f 488 459 490
f 530 485 488
f 271 267 268
f 586 494 572
f 494 492 572
f 544 488 485
f 490 488 558
f 558 488 544
f 459 457 490
f 457 488 490
f 530 544 485
f 299 271 302
f 299 267 271
f 330 299 302
f 330 302 333
f 339 337 370
f 371 370 402
f 402 370 401
f 302 271 267
f 299 302 267
f 309 277 308
f 333 330 361
f 364 333 361
f 361 330 331
f 361 331 362
f 333 364 335
f 335 364 366
f 395 364 366
f 397 395 366
f 423 424 455
f 454 423 455
f 430 399 432
f 399 401 432
f 430 428 461
f 428 459 461
f 430 461 432
f 463 432 461
f 428 397 399
f 430 428 399
f 397 368 399
f 366 397 368
f 337 368 370
f 366 364 397
f 397 364 395
f 335 304 333
f 304 302 333
