mtllib P-05_tex.mtl
v 0.128899 0.520311 -0.423016
v 0.009679 0.509156 -0.063926
v 0.357898 0.529211 -0.210102
v 0.128899 0.520311 -0.423016
v -0.253598 0.529352 -0.285041
v 0.009679 0.509156 -0.063926
v -0.056070 0.534021 0.266696
v 0.350858 0.554902 -0.255842
v 0.150278 0.560796 -0.052679
v -0.023240 0.532910 0.360690
v 0.117218 0.526924 0.228361
v 0.154489 0.502414 0.402335
v 0.146519 0.796942 0.356426
v 0.129638 0.796406 0.364860
v 0.359302 0.788910 0.186253
v 0.403046 0.791162 -0.051313
v 0.161547 0.784625 -0.389182
v 0.326295 0.787339 -0.250664
v -0.023240 0.532910 0.360690
v 0.154489 0.502414 0.402335
v 0.232648 0.421679 0.387808
v -0.447745 0.151763 -0.063861
v -0.254443 0.075124 -0.012507
v -0.315403 0.223410 -0.211122
v 0.150550 0.000116 -0.391503
v -0.055031 0.029426 -0.110814
v 0.034942 0.157987 -0.242377
v 0.359522 0.001148 -0.221986
v 0.150550 0.000116 -0.391503
v 0.034942 0.157987 -0.242377
v 0.160421 0.198207 0.201576
v 0.362456 0.345388 0.263794
v 0.421028 0.412884 0.156178
v 0.077752 0.733663 -0.052521
v -0.050176 0.725731 0.143703
v -0.020888 0.727514 0.146758
v -0.054711 0.736986 -0.083575
v -0.415686 0.785427 -0.041316
v -0.073776 0.714795 -0.217533
v -0.247672 0.798174 0.292577
v -0.375608 0.788855 0.160743
v -0.379504 0.721240 -0.250362
v 0.146519 0.796942 0.356426
v 0.129638 0.796406 0.364860
v -0.085370 0.800000 0.363392
v 0.359302 0.788910 0.186253
v 0.326295 0.787339 -0.250664
v 0.356768 0.797842 0.140302
v 0.403516 0.791584 -0.040938
v 0.403046 0.791162 -0.051313
v -0.231182 0.778718 -0.367828
v 0.367985 0.789454 0.168159
v 0.009679 0.509156 -0.063926
v -0.008947 0.179036 -0.250680
v 0.357245 0.237391 -0.253072
v 0.357898 0.529211 -0.210102
v -0.007218 0.138094 0.131509
v 0.034942 0.157987 -0.242377
v 0.359522 0.001148 -0.221986
v -0.134836 0.586706 0.133573
v 0.142179 0.558041 0.019381
v 0.057433 0.557097 0.307903
v 0.358611 0.533770 0.013121
v -0.056070 0.534021 0.266696
v -0.129927 0.526878 0.224677
v -0.248492 0.515179 0.096611
v -0.171454 0.523823 -0.244232
v -0.008947 0.179036 -0.250680
v -0.248492 0.515179 0.096611
v -0.247488 0.205320 0.096453
v -0.073776 0.714795 -0.217533
v -0.134836 0.586706 0.133573
v 0.344320 0.528490 -0.036446
v 0.357245 0.237391 -0.253072
v 0.189565 0.185033 -0.029670
v 0.357898 0.529211 -0.210102
v 0.357168 0.411655 0.273519
v 0.160421 0.198207 0.201576
v 0.146519 0.796942 0.356426
v -0.056070 0.534021 0.266696
v 0.057433 0.557097 0.307903
v -0.247672 0.798174 0.292577
v 0.057433 0.557097 0.307903
v -0.247672 0.798174 0.292577
v 0.146519 0.796942 0.356426
v -0.056070 0.534021 0.266696
v 0.021962 0.285083 -0.006363
v -0.008947 0.179036 -0.250680
v 0.009679 0.509156 -0.063926
v 0.081015 0.419742 0.030866
v -0.171454 0.523823 -0.244232
v 0.104714 0.062244 0.244730
v -0.007218 0.138094 0.131509
v 0.184356 0.168482 -0.029931
v 0.207513 0.066757 0.163821
v 0.433116 0.012831 -0.046227
v 0.402480 0.094339 -0.213819
v 0.154679 0.095942 0.425250
v 0.184091 0.095113 0.413203
v -0.049622 0.159940 0.236113
v -0.249951 0.161857 0.380560
v -0.368977 0.162384 0.270162
v -0.254443 0.075124 -0.012507
v -0.279991 0.164793 0.359442
v 0.360297 0.137809 0.277581
v -0.248492 0.515179 0.096611
v -0.247488 0.205320 0.096453
v 0.021962 0.285083 -0.006363
v 0.081015 0.419742 0.030866
v -0.255041 0.581288 0.005309
v -0.266089 0.517394 0.001117
v -0.274579 0.492305 0.199928
v -0.256118 0.206878 0.081182
v -0.259276 0.196720 0.156725
v -0.279398 0.173169 0.358845
v -0.279991 0.164793 0.359442
v -0.258258 0.409666 0.373061
v -0.336062 0.523483 -0.252847
v -0.315403 0.223410 -0.211122
v -0.254443 0.075124 -0.012507
v -0.368977 0.162384 0.270162
v 0.009679 0.509156 -0.063926
v 0.185285 0.526430 -0.378555
v 0.357898 0.529211 -0.210102
v 0.128899 0.520311 -0.423016
v -0.048428 0.537164 -0.373832
v -0.050189 0.177778 0.240386
v -0.129927 0.526878 0.224677
v 0.089822 0.192568 0.221922
v 0.117218 0.526924 0.228361
v 0.160421 0.198207 0.201576
v -0.049622 0.159940 0.236113
v 0.104714 0.062244 0.244730
v 0.357168 0.411655 0.273519
v -0.247488 0.205320 0.096453
v -0.248492 0.515179 0.096611
v 0.161547 0.784625 -0.389182
v -0.048428 0.537164 -0.373832
v -0.049245 0.720743 -0.452594
v 0.263848 0.535646 -0.308616
v 0.361624 0.604715 -0.265334
v 0.368049 0.733754 -0.256709
v 0.372232 0.569116 -0.232458
v -0.058466 0.533226 -0.384433
v -0.247488 0.205320 0.096453
v -0.216729 0.194820 -0.062764
v -0.008947 0.179036 -0.250680
v 0.021962 0.285083 -0.006363
v 0.081015 0.419742 0.030866
v -0.056070 0.534021 0.266696
v -0.248492 0.515179 0.096611
v 0.057433 0.557097 0.307903
v -0.049245 0.720743 -0.452594
v -0.231182 0.778718 -0.367828
v -0.054711 0.736986 -0.083575
v -0.073776 0.714795 -0.217533
v -0.171454 0.523823 -0.244232
v 0.150278 0.560796 -0.052679
v 0.009679 0.509156 -0.063926
v 0.344320 0.528490 -0.036446
v 0.117218 0.526924 0.228361
v 0.081015 0.419742 0.030866
v 0.357168 0.411655 0.273519
v 0.205513 0.579004 0.154729
v 0.431286 0.413989 0.124036
v 0.421028 0.412884 0.156178
v 0.450484 0.409779 -0.056980
v 0.372232 0.569116 -0.232458
v 0.431286 0.413989 0.124036
v 0.364422 0.533276 0.013038
v 0.421028 0.412884 0.156178
v 0.403046 0.791162 -0.051313
v 0.361624 0.604715 -0.265334
v 0.368049 0.733754 -0.256709
v 0.403516 0.791584 -0.040938
v 0.421788 0.696353 0.156182
v 0.350858 0.554902 -0.255842
v 0.367985 0.789454 0.168159
v 0.205513 0.579004 0.154729
v 0.421788 0.696353 0.156182
v 0.367985 0.789454 0.168159
v 0.421028 0.412884 0.156178
v -0.108160 0.090645 -0.441661
v 0.150550 0.000116 -0.391503
v 0.034942 0.157987 -0.242377
v 0.165489 0.539587 0.376341
v 0.205513 0.579004 0.154729
v 0.212133 0.781644 0.364686
v 0.359302 0.788910 0.186253
v 0.367985 0.789454 0.168159
v -0.085370 0.800000 0.363392
v -0.054939 0.540843 0.359801
v -0.023240 0.532910 0.360690
v 0.129638 0.796406 0.364860
v -0.255115 0.587561 0.362441
v -0.257172 0.745012 0.361586
v 0.165489 0.539587 0.376341
v 0.212133 0.781644 0.364686
v 0.232648 0.421679 0.387808
v -0.171454 0.523823 -0.244232
v -0.073776 0.714795 -0.217533
v -0.377628 0.697327 -0.253431
v -0.336062 0.523483 -0.252847
v 0.192822 0.350664 0.404391
v 0.160421 0.198207 0.201576
v 0.357168 0.411655 0.273519
v 0.421028 0.412884 0.156178
v 0.232648 0.421679 0.387808
v 0.207513 0.066757 0.163821
v 0.184091 0.095113 0.413203
v -0.055031 0.029426 -0.110814
v -0.007218 0.138094 0.131509
v -0.215461 0.167086 0.027766
v -0.247488 0.205320 0.096453
v -0.254443 0.075124 -0.012507
v -0.447745 0.151763 -0.063861
v -0.108160 0.090645 -0.441661
v 0.150550 0.000116 -0.391503
v -0.294874 0.095474 -0.352944
v -0.050892 0.290779 0.428438
v -0.050189 0.177778 0.240386
v 0.089822 0.192568 0.221922
v 0.067178 0.291438 0.425734
v -0.259276 0.196720 0.156725
v -0.279398 0.173169 0.358845
v -0.007218 0.138094 0.131509
v -0.055031 0.029426 -0.110814
v 0.034942 0.157987 -0.242377
v -0.108160 0.090645 -0.441661
v -0.007218 0.138094 0.131509
v 0.359522 0.001148 -0.221986
v 0.184356 0.168482 -0.029931
v 0.402480 0.094339 -0.213819
v -0.056070 0.534021 0.266696
v 0.142179 0.558041 0.019381
v -0.134836 0.586706 0.133573
v -0.248492 0.515179 0.096611
v -0.377628 0.697327 -0.253431
v -0.266089 0.517394 0.001117
v -0.255041 0.581288 0.005309
v -0.379504 0.721240 -0.250362
v -0.336062 0.523483 -0.252847
v -0.415686 0.785427 -0.041316
v -0.375608 0.788855 0.160743
v -0.302619 0.556765 0.168295
v -0.255115 0.587561 0.362441
v -0.274579 0.492305 0.199928
v -0.257172 0.745012 0.361586
v 0.081015 0.419742 0.030866
v 0.142179 0.558041 0.019381
v 0.057433 0.557097 0.307903
v 0.403046 0.791162 -0.051313
v 0.368049 0.733754 -0.256709
v 0.161547 0.784625 -0.389182
v 0.081015 0.419742 0.030866
v -0.248492 0.515179 0.096611
v -0.134836 0.586706 0.133573
v 0.142179 0.558041 0.019381
v 0.205513 0.579004 0.154729
v 0.232648 0.421679 0.387808
v 0.357168 0.411655 0.273519
v 0.165489 0.539587 0.376341
v 0.077752 0.733663 -0.052521
v 0.150278 0.560796 -0.052679
v -0.073776 0.714795 -0.217533
v 0.160421 0.198207 0.201576
v 0.207513 0.066757 0.163821
v 0.362456 0.345388 0.263794
v 0.360297 0.137809 0.277581
v -0.375608 0.788855 0.160743
v -0.257172 0.745012 0.361586
v -0.085370 0.800000 0.363392
v -0.058466 0.533226 -0.384433
v -0.073776 0.714795 -0.217533
v -0.171454 0.523823 -0.244232
v -0.248492 0.515179 0.096611
v -0.134836 0.586706 0.133573
v -0.315403 0.223410 -0.211122
v -0.299843 0.224256 -0.260820
v -0.294874 0.095474 -0.352944
v -0.267401 0.528914 -0.281408
v -0.447745 0.151763 -0.063861
v -0.049684 0.232085 -0.441750
v -0.108160 0.090645 -0.441661
v -0.336062 0.523483 -0.252847
v -0.253598 0.529352 -0.285041
v 0.128899 0.520311 -0.423016
v -0.266998 0.697915 -0.366996
v -0.377628 0.697327 -0.253431
v -0.254700 0.778692 -0.351835
v -0.379504 0.721240 -0.250362
v -0.058466 0.533226 -0.384433
v -0.231182 0.778718 -0.367828
v -0.049245 0.720743 -0.452594
v 0.089822 0.192568 0.221922
v -0.050189 0.177778 0.240386
v 0.067178 0.291438 0.425734
v 0.160421 0.198207 0.201576
v -0.050892 0.290779 0.428438
v 0.192822 0.350664 0.404391
v 0.205513 0.579004 0.154729
v 0.357168 0.411655 0.273519
v 0.421028 0.412884 0.156178
v 0.450484 0.409779 -0.056980
v 0.185285 0.526430 -0.378555
v 0.357898 0.529211 -0.210102
v 0.350858 0.554902 -0.255842
v 0.376332 0.425033 -0.259111
v 0.433116 0.012831 -0.046227
v 0.452255 0.169576 -0.050373
v 0.362456 0.345388 0.263794
v 0.360297 0.137809 0.277581
v 0.402480 0.094339 -0.213819
v 0.437185 0.168751 -0.127481
v 0.376611 0.175577 -0.257178
v 0.431286 0.413989 0.124036
v 0.421028 0.412884 0.156178
v 0.375549 0.094603 -0.259570
v 0.357245 0.237391 -0.253072
v 0.150550 0.000116 -0.391503
v 0.024973 0.237387 -0.440150
v 0.358741 0.224660 -0.261780
v 0.228518 0.000000 -0.350789
v 0.128899 0.520311 -0.423016
v -0.108160 0.090645 -0.441661
v -0.049684 0.232085 -0.441750
v 0.359522 0.001148 -0.221986
v 0.021962 0.285083 -0.006363
v 0.104714 0.062244 0.244730
v 0.089822 0.192568 0.221922
v 0.021962 0.285083 -0.006363
v -0.007218 0.138094 0.131509
v 0.104714 0.062244 0.244730
v -0.247488 0.205320 0.096453
v 0.452255 0.169576 -0.050373
v 0.160421 0.198207 0.201576
v 0.362456 0.345388 0.263794
v 0.189565 0.185033 -0.029670
v 0.357245 0.237391 -0.253072
v -0.008947 0.179036 -0.250680
v 0.089822 0.192568 0.221922
v -0.216729 0.194820 -0.062764
v -0.315403 0.223410 -0.211122
v -0.256118 0.206878 0.081182
v -0.253598 0.529352 -0.285041
v -0.171454 0.523823 -0.244232
v 0.009679 0.509156 -0.063926
v 0.128899 0.520311 -0.423016
v 0.421028 0.412884 0.156178
v 0.344320 0.528490 -0.036446
v 0.357168 0.411655 0.273519
v 0.431286 0.413989 0.124036
v -0.049622 0.159940 0.236113
v -0.254443 0.075124 -0.012507
v -0.215461 0.167086 0.027766
v -0.023240 0.532910 0.360690
v -0.054282 0.451686 0.447406
v 0.154489 0.502414 0.402335
v -0.054939 0.540843 0.359801
v -0.050892 0.290779 0.428438
v 0.067178 0.291438 0.425734
v 0.232648 0.421679 0.387808
v 0.192822 0.350664 0.404391
v 0.184091 0.095113 0.413203
v 0.154679 0.095942 0.425250
v -0.249951 0.161857 0.380560
v -0.258258 0.409666 0.373061
v -0.279398 0.173169 0.358845
v -0.279991 0.164793 0.359442
v -0.129927 0.526878 0.224677
v -0.256118 0.206878 0.081182
v -0.216729 0.194820 -0.062764
v -0.247488 0.205320 0.096453
v -0.315403 0.223410 -0.211122
v -0.215461 0.167086 0.027766
v -0.247488 0.205320 0.096453
v -0.049622 0.159940 0.236113
v -0.259276 0.196720 0.156725
v -0.368977 0.162384 0.270162
v -0.279991 0.164793 0.359442
v -0.256118 0.206878 0.081182
v 0.402480 0.094339 -0.213819
v 0.359522 0.001148 -0.221986
v 0.433116 0.012831 -0.046227
v -0.253598 0.529352 -0.285041
v -0.058466 0.533226 -0.384433
v -0.171454 0.523823 -0.244232
v -0.267401 0.528914 -0.281408
v -0.266998 0.697915 -0.366996
v -0.056070 0.534021 0.266696
v -0.129927 0.526878 0.224677
v -0.054282 0.451686 0.447406
v -0.274579 0.492305 0.199928
v -0.258258 0.409666 0.373061
v -0.302619 0.556765 0.168295
v 0.359302 0.788910 0.186253
v 0.129638 0.796406 0.364860
v 0.212133 0.781644 0.364686
v 0.358611 0.533770 0.013121
v 0.205513 0.579004 0.154729
v 0.057433 0.557097 0.307903
v -0.056070 0.534021 0.266696
v 0.150278 0.560796 -0.052679
v 0.142179 0.558041 0.019381
v 0.150278 0.560796 -0.052679
v 0.081015 0.419742 0.030866
v 0.142179 0.558041 0.019381
v 0.358611 0.533770 0.013121
v 0.344320 0.528490 -0.036446
v 0.205513 0.579004 0.154729
v 0.357898 0.529211 -0.210102
v -0.054939 0.540843 0.359801
v -0.056070 0.534021 0.266696
v -0.023240 0.532910 0.360690
v -0.302619 0.556765 0.168295
v -0.255115 0.587561 0.362441
v 0.057433 0.557097 0.307903
v 0.117218 0.526924 0.228361
v -0.129927 0.526878 0.224677
v -0.023240 0.532910 0.360690
v 0.057433 0.557097 0.307903
v 0.117218 0.526924 0.228361
v 0.205513 0.579004 0.154729
v -0.054939 0.540843 0.359801
v -0.056070 0.534021 0.266696
v -0.054282 0.451686 0.447406
v -0.266089 0.517394 0.001117
v -0.255041 0.581288 0.005309
v -0.248492 0.515179 0.096611
v -0.134836 0.586706 0.133573
v -0.377628 0.697327 -0.253431
v -0.073776 0.714795 -0.217533
v -0.336062 0.523483 -0.252847
v 0.359522 0.001148 -0.221986
v 0.150550 0.000116 -0.391503
v 0.228518 0.000000 -0.350789
v -0.231182 0.778718 -0.367828
v -0.254700 0.778692 -0.351835
v -0.379504 0.721240 -0.250362
v 0.372232 0.569116 -0.232458
v 0.350858 0.554902 -0.255842
v 0.263848 0.535646 -0.308616
v 0.150278 0.560796 -0.052679
v -0.048428 0.537164 -0.373832
v 0.350858 0.554902 -0.255842
v 0.263848 0.535646 -0.308616
v -0.134836 0.586706 0.133573
v 0.142179 0.558041 0.019381
v 0.358611 0.533770 0.013121
v -0.058466 0.533226 -0.384433
v 0.350858 0.554902 -0.255842
v -0.073776 0.714795 -0.217533
v 0.150278 0.560796 -0.052679
v 0.358611 0.533770 0.013121
v 0.142179 0.558041 0.019381
v -0.048428 0.537164 -0.373832
v 0.150278 0.560796 -0.052679
v 0.263848 0.535646 -0.308616
v 0.128899 0.520311 -0.423016
v 0.185285 0.526430 -0.378555
v 0.350858 0.554902 -0.255842
v 0.009679 0.509156 -0.063926
v 0.081015 0.419742 0.030866
v -0.248492 0.515179 0.096611
v -0.171454 0.523823 -0.244232
v -0.336062 0.523483 -0.252847
v -0.058466 0.533226 -0.384433
v 0.150278 0.560796 -0.052679
v -0.073776 0.714795 -0.217533
v 0.077752 0.733663 -0.052521
v -0.054711 0.736986 -0.083575
v 0.117218 0.526924 0.228361
v -0.129927 0.526878 0.224677
v 0.154489 0.502414 0.402335
v 0.350858 0.554902 -0.255842
v 0.357898 0.529211 -0.210102
v 0.358611 0.533770 0.013121
v -0.054939 0.540843 0.359801
v -0.023240 0.532910 0.360690
v 0.154489 0.502414 0.402335
v -0.054282 0.451686 0.447406
v -0.129927 0.526878 0.224677
v -0.056070 0.534021 0.266696
v 0.437185 0.168751 -0.127481
v 0.357245 0.237391 -0.253072
v 0.358741 0.224660 -0.261780
v 0.376611 0.175577 -0.257178
v 0.358741 0.224660 -0.261780
v 0.437185 0.168751 -0.127481
v -0.256118 0.206878 0.081182
v -0.259276 0.196720 0.156725
v -0.247488 0.205320 0.096453
v -0.050189 0.177778 0.240386
v -0.049684 0.232085 -0.441750
v -0.299843 0.224256 -0.260820
v -0.216729 0.194820 -0.062764
v -0.315403 0.223410 -0.211122
v 0.024973 0.237387 -0.440150
v -0.008947 0.179036 -0.250680
v -0.058466 0.533226 -0.384433
v -0.253598 0.529352 -0.285041
v -0.048428 0.537164 -0.373832
v 0.128899 0.520311 -0.423016
v 0.358611 0.533770 0.013121
v 0.431286 0.413989 0.124036
v 0.364422 0.533276 0.013038
v 0.358611 0.533770 0.013121
v 0.344320 0.528490 -0.036446
v 0.431286 0.413989 0.124036
v 0.357898 0.529211 -0.210102
v 0.450484 0.409779 -0.056980
v 0.431286 0.413989 0.124036
v 0.344320 0.528490 -0.036446
v 0.358741 0.224660 -0.261780
v 0.024973 0.237387 -0.440150
v 0.357245 0.237391 -0.253072
v 0.024973 0.237387 -0.440150
v 0.357245 0.237391 -0.253072
v -0.008947 0.179036 -0.250680
v -0.216729 0.194820 -0.062764
v -0.055031 0.029426 -0.110814
v -0.008947 0.179036 -0.250680
v 0.034942 0.157987 -0.242377
v 0.034942 0.157987 -0.242377
v -0.055031 0.029426 -0.110814
v -0.216729 0.194820 -0.062764
v -0.008947 0.179036 -0.250680
v 0.150278 0.560796 -0.052679
v 0.142179 0.558041 0.019381
v 0.009679 0.509156 -0.063926
v 0.081015 0.419742 0.030866
v 0.117218 0.526924 0.228361
v -0.129927 0.526878 0.224677
v 0.057433 0.557097 0.307903
v -0.056070 0.534021 0.266696
v -0.274579 0.492305 0.199928
v -0.266089 0.517394 0.001117
v -0.129927 0.526878 0.224677
v -0.266089 0.517394 0.001117
v -0.248492 0.515179 0.096611
v -0.129927 0.526878 0.224677
v 0.009679 0.509156 -0.063926
v 0.357898 0.529211 -0.210102
v 0.350858 0.554902 -0.255842
v 0.350858 0.554902 -0.255842
v 0.150278 0.560796 -0.052679
v 0.009679 0.509156 -0.063926
v 0.357168 0.411655 0.273519
v 0.117218 0.526924 0.228361
v 0.154489 0.502414 0.402335
v 0.232648 0.421679 0.387808
v -0.171454 0.523823 -0.244232
v -0.336062 0.523483 -0.252847
v -0.253598 0.529352 -0.285041
v -0.267401 0.528914 -0.281408
v -0.253598 0.529352 -0.285041
v -0.058466 0.533226 -0.384433
v 0.128899 0.520311 -0.423016
v -0.058466 0.533226 -0.384433
v -0.048428 0.537164 -0.373832
v 0.128899 0.520311 -0.423016
v 0.128899 0.520311 -0.423016
v 0.185285 0.526430 -0.378555
v 0.357898 0.529211 -0.210102
v -0.247488 0.205320 0.096453
v -0.256118 0.206878 0.081182
v -0.050189 0.177778 0.240386
v -0.256118 0.206878 0.081182
v -0.259276 0.196720 0.156725
v -0.050189 0.177778 0.240386
v -0.447745 0.151763 -0.063861
v -0.055031 0.029426 -0.110814
v -0.215461 0.167086 0.027766
v -0.254443 0.075124 -0.012507
v -0.447745 0.151763 -0.063861
v -0.215461 0.167086 0.027766
v 0.077752 0.733663 -0.052521
v -0.049245 0.720743 -0.452594
v 0.326295 0.787339 -0.250664
v -0.054711 0.736986 -0.083575
v 0.161547 0.784625 -0.389182
v -0.255041 0.581288 0.005309
v -0.302619 0.556765 0.168295
v -0.056070 0.534021 0.266696
v -0.134836 0.586706 0.133573
v -0.336062 0.523483 -0.252847
v -0.255041 0.581288 0.005309
v -0.266089 0.517394 0.001117
v -0.377628 0.697327 -0.253431
v -0.171454 0.523823 -0.244232
v -0.073776 0.714795 -0.217533
v 0.009679 0.509156 -0.063926
v 0.150278 0.560796 -0.052679
v -0.375608 0.788855 0.160743
v -0.247672 0.798174 0.292577
v -0.085370 0.800000 0.363392
v -0.171454 0.523823 -0.244232
v -0.216729 0.194820 -0.062764
v 0.009679 0.509156 -0.063926
v 0.009679 0.509156 -0.063926
v -0.216729 0.194820 -0.062764
v -0.008947 0.179036 -0.250680
v -0.216729 0.194820 -0.062764
v -0.171454 0.523823 -0.244232
v -0.248492 0.515179 0.096611
v -0.247488 0.205320 0.096453
vt 0.305930 0.880952
vt 0.202606 0.834109
vt 0.305930 0.787511
vt 0.481132 0.825247
vt 0.603324 0.825247
vt 0.551339 0.736298
vt 0.327493 0.836927
vt 0.525157 0.836927
vt 0.440676 0.825247
vt 0.455076 0.535040
vt 0.513477 0.535040
vt 0.485840 0.488320
vt 0.826290 0.591644
vt 0.820755 0.593441
vt 0.907907 0.593441
vt 0.974394 0.092992
vt 0.974394 0.216981
vt 0.958221 0.154738
vt 0.799191 0.889039
vt 0.745456 0.873765
vt 0.714735 0.889039
vt 0.309524 0.503594
vt 0.309524 0.568284
vt 0.248428 0.521260
vt 0.840521 0.855795
vt 0.840521 0.960018
vt 0.797394 0.915855
vt 0.881851 0.002910
vt 0.962713 0.001348
vt 0.962713 0.075022
vt 0.260108 0.996855
vt 0.231357 0.924999
vt 0.260108 0.894429
vt 0.227009 0.306568
vt 0.203573 0.240994
vt 0.211598 0.241900
vt 0.185709 0.306262
vt 0.083291 0.266497
vt 0.170678 0.345143
vt 0.155768 0.181088
vt 0.109198 0.210459
vt 0.079515 0.332925
vt 0.275277 0.188726
vt 0.270905 0.185122
vt 0.207941 0.171159
vt 0.326942 0.252913
vt 0.290211 0.379605
vt 0.323280 0.266736
vt 0.325976 0.322868
vt 0.325190 0.325887
vt 0.116105 0.379605
vt 0.328392 0.258804
vt 0.811770 0.372417
vt 0.811770 0.258311
vt 0.701733 0.276412
vt 0.698562 0.363815
vt 0.752471 0.258311
vt 0.675202 0.175949
vt 0.752471 0.100180
vt 0.068509 0.330356
vt 0.079515 0.240859
vt 0.002246 0.288027
vt 0.063964 0.177448
vt 0.020298 0.320193
vt 0.036961 0.339650
vt 0.079515 0.370620
vt 0.690389 0.314954
vt 0.694070 0.200809
vt 0.585927 0.320807
vt 0.570979 0.229193
vt 0.694070 0.379605
vt 0.582038 0.362351
vt 0.116352 0.619580
vt 0.020582 0.568686
vt 0.003145 0.647763
vt 0.106247 0.566487
vt 0.105564 0.718329
vt 0.019438 0.718329
vt 0.880054 0.857592
vt 0.799191 0.793679
vt 0.807371 0.829218
vt 0.880054 0.738095
vt 0.786084 0.794717
vt 0.694969 0.867475
vt 0.814465 0.867475
vt 0.750533 0.786613
vt 0.438844 0.093480
vt 0.516173 0.117251
vt 0.444148 0.024182
vt 0.413747 0.058729
vt 0.516173 0.001348
vt 0.361609 0.211347
vt 0.407173 0.185867
vt 0.438239 0.256301
vt 0.376321 0.249088
vt 0.416861 0.337593
vt 0.471249 0.340970
vt 0.304133 0.207721
vt 0.304997 0.217562
vt 0.380462 0.162627
vt 0.355955 0.089882
vt 0.399680 0.065139
vt 0.471249 0.129086
vt 0.365048 0.082888
vt 0.330071 0.280530
vt 0.693172 0.888140
vt 0.599730 0.888140
vt 0.622961 0.800971
vt 0.664568 0.786613
vt 0.624888 0.437935
vt 0.606251 0.443458
vt 0.585995 0.386250
vt 0.508814 0.439721
vt 0.500932 0.418023
vt 0.480985 0.359881
vt 0.478463 0.360254
vt 0.550166 0.340072
vt 0.624888 0.519239
vt 0.532969 0.526056
vt 0.475741 0.476014
vt 0.484038 0.388001
vt 0.861186 0.251123
vt 0.794649 0.166006
vt 0.861186 0.137916
vt 0.775881 0.176452
vt 0.768643 0.230945
vt 0.420290 0.641064
vt 0.482857 0.549097
vt 0.383623 0.621508
vt 0.412856 0.521563
vt 0.365649 0.612344
vt 0.418413 0.646231
vt 0.363361 0.657233
vt 0.329290 0.527576
vt 0.488440 0.657233
vt 0.523360 0.567633
vt 0.749775 0.083134
vt 0.826521 0.144392
vt 0.766991 0.150494
vt 0.827044 0.048272
vt 0.808537 0.015320
vt 0.771305 0.011429
vt 0.821221 0.009434
vt 0.827044 0.148339
vt 0.942048 0.929470
vt 0.918212 0.887043
vt 0.842318 0.848607
vt 0.851029 0.929470
vt 0.224169 0.929470
vt 0.162404 0.865266
vt 0.119048 0.929470
vt 0.190576 0.842318
vt 0.889039 0.656334
vt 0.951932 0.656334
vt 0.936901 0.556604
vt 0.968104 0.389488
vt 0.903414 0.389488
vt 0.963781 0.294250
vt 0.924205 0.315608
vt 0.027051 0.845912
vt 0.108038 0.777288
vt 0.116352 0.845912
vt 0.032906 0.747080
vt 0.083844 0.803960
vt 0.002246 0.786483
vt 0.007160 0.777667
vt 0.645203 0.627583
vt 0.694870 0.684214
vt 0.590345 0.628261
vt 0.622329 0.669838
vt 0.579361 0.630591
vt 0.636595 0.748793
vt 0.704819 0.695439
vt 0.700164 0.734322
vt 0.632575 0.748877
vt 0.574394 0.716563
vt 0.704852 0.681071
vt 0.568284 0.748877
vt 0.346361 0.938455
vt 0.316399 0.870862
vt 0.346307 0.858491
vt 0.264600 0.938455
vt 0.893531 0.317610
vt 0.845249 0.249326
vt 0.817161 0.317610
vt 0.957323 0.738095
vt 0.891060 0.749764
vt 0.957323 0.810363
vt 0.890637 0.829634
vt 0.884546 0.830638
vt 0.349057 0.622985
vt 0.271889 0.633318
vt 0.269676 0.642841
vt 0.349057 0.687292
vt 0.284814 0.573271
vt 0.331793 0.571878
vt 0.272546 0.699369
vt 0.345066 0.712024
vt 0.237646 0.720126
vt 0.418347 0.915993
vt 0.451482 0.971698
vt 0.359838 0.971698
vt 0.369193 0.918898
vt 0.729706 0.625953
vt 0.797512 0.662421
vt 0.772711 0.576267
vt 0.809973 0.561096
vt 0.728212 0.601100
vt 0.809973 0.703953
vt 0.734012 0.702495
vt 0.545751 0.224082
vt 0.584456 0.153168
vt 0.514382 0.155204
vt 0.512815 0.129829
vt 0.493963 0.180146
vt 0.429919 0.180344
vt 0.501309 0.315879
vt 0.584456 0.321204
vt 0.453227 0.276946
vt 0.814465 0.677428
vt 0.881491 0.665807
vt 0.892633 0.708707
vt 0.821424 0.713836
vt 0.892633 0.597934
vt 0.835491 0.600140
vt 0.756617 0.546721
vt 0.796496 0.476214
vt 0.750674 0.433793
vt 0.796496 0.374214
vt 0.799191 0.929470
vt 0.641170 0.929470
vt 0.729265 0.900127
vt 0.641060 0.898023
vt 0.404100 0.761456
vt 0.481132 0.817161
vt 0.391615 0.808811
vt 0.350854 0.817161
vt 0.684070 0.381402
vt 0.740791 0.466605
vt 0.723822 0.467403
vt 0.676952 0.381901
vt 0.738469 0.385959
vt 0.647930 0.443233
vt 0.645553 0.506604
vt 0.720070 0.515506
vt 0.711047 0.576370
vt 0.740791 0.527331
vt 0.666060 0.573667
vt 0.951932 0.609614
vt 0.997754 0.609614
vt 0.980565 0.520665
vt 0.532345 0.699461
vt 0.500000 0.643242
vt 0.532345 0.575472
vt 0.970800 0.834734
vt 0.970800 0.941150
vt 0.937738 0.917614
vt 0.925876 0.827044
vt 0.161276 0.995058
vt 0.230706 0.944295
vt 0.238544 0.995058
vt 0.192743 0.933064
vt 0.312152 0.946541
vt 0.271788 0.986074
vt 0.367026 0.986074
vt 0.520379 0.929179
vt 0.527853 0.971698
vt 0.443396 0.912399
vt 0.466461 0.971698
vt 0.771339 0.970800
vt 0.708294 0.937556
vt 0.665319 0.970800
vt 0.235849 0.779425
vt 0.269589 0.713836
vt 0.286182 0.779425
vt 0.391285 0.752372
vt 0.386574 0.715701
vt 0.196155 0.491216
vt 0.192907 0.476012
vt 0.229543 0.445895
vt 0.102279 0.491884
vt 0.229560 0.543127
vt 0.163136 0.388467
vt 0.208786 0.387845
vt 0.108952 0.512982
vt 0.100648 0.487940
vt 0.062886 0.372417
vt 0.045912 0.495446
vt 0.062810 0.539557
vt 0.022963 0.504883
vt 0.056548 0.543127
vt 0.056158 0.416515
vt 0.018126 0.497893
vt 0.000449 0.438016
vt 0.969906 0.691537
vt 0.967357 0.734501
vt 0.901210 0.699307
vt 0.974394 0.669626
vt 0.900750 0.734501
vt 0.898023 0.658131
vt 0.424528 0.346361
vt 0.357551 0.308625
vt 0.342767 0.346361
vt 0.216306 0.045011
vt 0.091408 0.016996
vt 0.162377 0.011558
vt 0.151487 0.000449
vt 0.154262 0.050169
vt 0.231727 0.165557
vt 0.226233 0.117281
vt 0.321721 0.056119
vt 0.331087 0.119523
vt 0.176110 0.145739
vt 0.202772 0.119636
vt 0.159431 0.121302
vt 0.271788 0.038220
vt 0.282642 0.037612
vt 0.159309 0.145285
vt 0.158944 0.097309
vt 0.080340 0.175494
vt 0.039408 0.104286
vt 0.152427 0.107224
vt 0.107342 0.175651
vt 0.069288 0.018821
vt 0.000449 0.149528
vt 0.016824 0.106368
vt 0.164598 0.175651
vt 0.991464 0.000449
vt 0.991464 0.103774
vt 0.966307 0.072660
vt 0.335282 0.437338
vt 0.309130 0.382770
vt 0.329965 0.334681
vt 0.247409 0.424980
vt 0.473046 0.455356
vt 0.387250 0.379106
vt 0.456289 0.346324
vt 0.393446 0.449524
vt 0.444452 0.518868
vt 0.333793 0.516960
vt 0.367867 0.369295
vt 0.264958 0.470061
vt 0.242138 0.518868
vt 0.245593 0.429904
vt 0.143306 0.817683
vt 0.170637 0.821572
vt 0.239443 0.855795
vt 0.239443 0.742588
vt 0.593489 0.182964
vt 0.660827 0.207098
vt 0.561096 0.207098
vt 0.602529 0.178347
vt 0.141509 0.792004
vt 0.141509 0.891734
vt 0.119048 0.868547
vt 0.557867 0.068929
vt 0.593738 0.061654
vt 0.570192 0.122665
vt 0.556558 0.059280
vt 0.641526 0.070083
vt 0.636684 0.105262
vt 0.590440 0.149596
vt 0.613275 0.140225
vt 0.688958 0.149596
vt 0.690375 0.140394
vt 0.691017 0.017163
vt 0.618173 0.000449
vt 0.689016 0.006053
vt 0.691375 0.006275
vt 0.526056 0.032744
vt 0.994160 0.332500
vt 0.972597 0.372087
vt 0.992501 0.327493
vt 0.994160 0.421833
vt 0.530548 0.864780
vt 0.520715 0.841420
vt 0.450584 0.864780
vt 0.997754 0.449096
vt 0.968104 0.487323
vt 0.997754 0.510782
vt 0.996332 0.426325
vt 0.901617 0.251123
vt 0.871069 0.243330
vt 0.901617 0.194519
vt 0.952569 0.271805
vt 0.998652 0.225067
vt 0.948338 0.244541
vt 0.950277 0.275424
vt 0.998652 0.305031
vt 0.054003 0.921384
vt 0.043207 0.898260
vt 0.113657 0.921384
vt 0.040365 0.853263
vt 0.098072 0.857104
vt 0.017520 0.849506
vt 0.643756 0.373315
vt 0.643756 0.460467
vt 0.627583 0.440827
vt 0.607817 0.986972
vt 0.544592 0.976190
vt 0.481132 0.986972
vt 0.047170 0.979784
vt 0.161276 0.979784
vt 0.141832 0.969901
vt 0.517969 0.026505
vt 0.571878 0.026505
vt 0.529832 0.007637
vt 0.358177 0.012129
vt 0.370631 0.021868
vt 0.298742 0.039982
vt 0.420934 0.039982
vt 0.881391 0.488037
vt 0.909163 0.491495
vt 0.882168 0.478782
vt 0.927673 0.569182
vt 0.871069 0.548408
vt 0.900314 0.455750
vt 0.927673 0.441599
vt 0.919835 0.514707
vt 0.978984 0.915993
vt 0.985175 0.886937
vt 0.972597 0.858317
vt 0.985175 0.822552
vt 0.141707 0.769542
vt 0.117251 0.783019
vt 0.176550 0.783019
vt 0.492863 0.679185
vt 0.476741 0.690047
vt 0.474924 0.656334
vt 0.433421 0.660184
vt 0.517138 0.773136
vt 0.425427 0.773136
vt 0.546721 0.736745
vt 0.622192 0.938455
vt 0.703055 0.938455
vt 0.677151 0.933064
vt 0.818059 0.991464
vt 0.809918 0.988769
vt 0.758760 0.991464
vt 0.880952 0.020216
vt 0.870827 0.016622
vt 0.839623 0.020216
vt 0.624883 0.585787
vt 0.538436 0.658853
vt 0.556033 0.535255
vt 0.542973 0.563385
vt 0.692273 0.662624
vt 0.646551 0.584968
vt 0.635357 0.520665
vt 0.535939 0.662624
vt 0.807278 0.785714
vt 0.670710 0.785714
vt 0.744607 0.726809
vt 0.805743 0.704852
vt 0.741017 0.705361
vt 0.218843 0.531455
vt 0.134518 0.606878
vt 0.123777 0.523624
vt 0.172166 0.501797
vt 0.152164 0.509829
vt 0.093890 0.531721
vt 0.178316 0.616928
vt 0.156212 0.655436
vt 0.260723 0.655436
vt 0.225871 0.556963
vt 0.274483 0.548644
vt 0.470350 0.911500
vt 0.352416 0.911500
vt 0.426674 0.851478
vt 0.350854 0.855177
vt 0.387844 0.837826
vt 0.591001 0.914196
vt 0.527853 0.952830
vt 0.628482 0.952830
vt 0.723720 0.995058
vt 0.709401 0.987871
vt 0.642857 0.995058
vt 0.960300 0.492290
vt 0.964231 0.483330
vt 0.975292 0.429021
vt 0.927673 0.474161
vt 0.963781 0.538634
vt 0.975292 0.515857
vt 0.072327 0.013926
vt 0.023527 0.008535
vt 0.022911 0.013926
vt 0.546354 0.827044
vt 0.537736 0.840521
vt 0.587152 0.840521
vt 0.997754 0.121743
vt 0.978886 0.135043
vt 0.995696 0.126589
vt 0.997754 0.199910
vt 0.901617 0.142444
vt 0.901617 0.049492
vt 0.837826 0.034591
vt 0.892340 0.036916
vt 0.888375 0.160377
vt 0.845771 0.118328
vt 0.333405 0.989668
vt 0.398473 0.999551
vt 0.331507 0.993830
vt 0.276280 0.999551
vt 0.258311 0.015723
vt 0.312219 0.015723
vt 0.259108 0.013926
vt 0.123833 0.949236
vt 0.111860 0.960018
vt 0.176550 0.960018
vt 0.944744 0.933560
vt 0.880525 0.930368
vt 0.843217 0.970800
vt 0.907613 0.970800
vt 0.739902 0.981581
vt 0.626685 0.986972
vt 0.740791 0.986972
vt 0.880054 0.292740
vt 0.939353 0.194519
vt 0.939353 0.305930
vt 0.426325 0.746181
vt 0.426325 0.674304
vt 0.364331 0.687967
vt 0.364565 0.674721
vt 0.999051 0.938372
vt 0.999551 0.999551
vt 0.928571 0.999551
vt 0.984315 0.936658
vt 0.956424 0.391285
vt 0.934382 0.392222
vt 0.956424 0.436208
vt 0.911500 0.431601
vt 0.663522 0.624888
vt 0.588949 0.624888
vt 0.645846 0.598832
vt 0.610961 0.611498
vt 0.001348 0.390020
vt 0.036388 0.340970
vt 0.036388 0.419137
vt 0.673405 0.763252
vt 0.646377 0.752471
vt 0.595238 0.763252
vt 0.017520 0.969901
vt 0.002246 0.857924
vt 0.017520 0.852201
vt 0.723720 0.697664
vt 0.697664 0.616467
vt 0.723720 0.579964
vt 0.893531 0.451482
vt 0.809973 0.451482
vt 0.832315 0.400270
vt 0.864198 0.408749
vt 0.878257 0.163971
vt 0.878257 0.213387
vt 0.866577 0.189200
vt 0.867957 0.193275
vt 0.863881 0.980683
vt 0.798645 0.971698
vt 0.741689 0.980683
vt 0.115454 0.709344
vt 0.110961 0.707121
vt 0.115454 0.651842
vt 0.331087 0.006739
vt 0.309665 0.004043
vt 0.237646 0.006739
vt 0.984277 0.627039
vt 0.986972 0.622192
vt 0.986972 0.700359
vt 0.634771 0.972597
vt 0.621471 0.953729
vt 0.556604 0.972597
vt 0.140611 0.383199
vt 0.264600 0.383199
vt 0.202133 0.340072
vt 0.474845 0.141509
vt 0.416442 0.169362
vt 0.491914 0.169362
vt 0.171459 0.659838
vt 0.101078 0.765948
vt 0.228661 0.739054
vt 0.131155 0.658131
vt 0.169846 0.765948
vt 0.693172 0.107367
vt 0.744385 0.101892
vt 0.744385 0.022013
vt 0.710697 0.057628
vt 0.025976 0.968104
vt 0.107367 0.949515
vt 0.105326 0.968104
vt 0.021114 0.914196
vt 0.888140 0.190925
vt 0.953729 0.190925
vt 0.914407 0.118957
vt 0.950539 0.094789
vt 0.990566 0.801887
vt 0.979784 0.747831
vt 0.990566 0.695867
vt 0.564592 0.841420
vt 0.476640 0.913297
vt 0.592543 0.913297
vt 0.899820 0.433513
vt 0.820755 0.348237
vt 0.899820 0.319407
vt 0.819612 0.460467
vt 0.763252 0.559299
vt 0.868374 0.556822
vt 0.868374 0.463691
usemtl baked
f 309/309 313/313 310/310
f 313/313 315/315 314/314
f 313/313 314/314 310/310
f 321/321 325/325 326/326
f 325/325 321/321 320/320
f 320/320 321/321 322/322
f 323/323 320/320 322/322
f 318/318 323/323 322/322
f 318/318 322/322 315/315
f 313/313 318/318 315/315
f 313/313 327/327 323/323
f 313/313 323/323 318/318
f 484/484 485/485 486/486
f 487/487 488/488 489/489
f 490/490 491/491 492/492
f 334/334 343/343 344/344
f 342/342 343/343 334/334
f 494/494 495/495 496/496
f 496/496 495/495 497/497
f 500/500 501/501 502/502
f 501/501 503/503 502/502
f 504/504 505/505 506/506
f 507/507 508/508 509/509
f 510/510 511/511 512/512
f 510/510 512/512 513/513
f 492/492 491/491 493/493
f 133/133 132/132 129/129
f 132/132 127/127 129/129
f 514/514 515/515 516/516
f 205/205 207/207 206/206
f 357/357 360/360 358/358
f 358/358 361/361 362/362
f 362/362 361/361 363/363
f 360/360 361/361 358/358
f 204/204 205/205 206/206
f 31/31 32/32 33/33
f 208/208 204/204 206/206
f 143/143 140/140 141/141
f 440/440 441/441 442/442
f 291/291 290/290 289/289
f 288/288 289/289 290/290
f 138/138 144/144 139/139
f 292/292 293/293 294/294
f 460/460 459/459 458/458
f 459/459 456/456 458/458
f 292/292 290/290 293/293
f 288/288 290/290 292/292
f 517/517 518/518 519/519
f 521/521 523/523 522/522
f 498/498 494/494 496/496
f 499/499 498/498 496/496
f 520/520 521/521 522/522
f 331/331 341/341 336/336
f 92/92 93/93 94/94
f 92/92 94/94 95/95
f 328/328 329/329 330/330
f 331/331 332/332 333/333
f 524/524 525/525 526/526
f 524/524 526/526 527/527
f 339/339 340/340 338/338
f 331/331 338/338 340/340
f 340/340 342/342 331/331
f 342/342 334/334 331/331
f 57/57 58/58 59/59
f 230/230 231/231 232/232
f 132/132 135/135 127/127
f 375/375 376/376 377/377
f 214/214 213/213 212/212
f 334/334 332/332 331/331
f 227/227 229/229 228/228
f 183/183 184/184 185/185
f 211/211 212/212 213/213
f 226/226 227/227 228/228
f 338/338 331/331 336/336
f 73/73 74/74 75/75
f 378/378 379/379 380/380
f 120/120 121/121 113/113
f 381/381 379/379 378/378
f 22/22 23/23 24/24
f 119/119 120/120 113/113
f 284/284 280/280 283/283
f 283/283 280/280 279/279
f 266/266 267/267 268/268
f 267/267 269/269 268/268
f 309/309 310/310 311/311
f 312/312 309/309 311/311
f 361/361 365/365 364/364
f 361/361 364/364 363/363
f 368/368 369/369 360/360
f 369/369 366/366 360/360
f 360/360 366/366 361/361
f 366/366 365/365 361/361
f 114/114 116/116 115/115
f 205/205 204/204 209/209
f 210/210 209/209 204/204
f 280/280 282/282 278/278
f 278/278 279/279 280/280
f 252/252 253/253 254/254
f 16/16 17/17 18/18
f 141/141 137/137 142/142
f 173/173 174/174 172/172
f 168/168 173/173 172/172
f 141/141 140/140 137/137
f 137/137 138/138 139/139
f 138/138 137/137 140/140
f 170/170 172/172 175/175
f 170/170 168/168 172/172
f 13/13 14/14 15/15
f 40/40 45/45 44/44
f 49/49 46/46 52/52
f 48/48 46/46 49/49
f 47/47 48/48 49/49
f 47/47 49/49 50/50
f 448/448 443/443 445/445
f 449/449 448/448 445/445
f 453/453 455/455 454/454
f 528/528 529/529 530/530
f 530/530 529/529 531/531
f 475/475 476/476 477/477
f 408/408 411/411 409/409
f 408/408 409/409 410/410
f 160/160 163/163 164/164
f 164/164 163/163 161/161
f 423/423 422/422 421/421
f 535/535 534/534 533/533
f 532/532 533/533 534/534
f 536/536 537/537 538/538
f 539/539 540/540 541/541
f 542/542 543/543 544/544
f 456/456 462/462 457/457
f 545/545 546/546 547/547
f 456/456 457/457 458/458
f 458/458 457/457 461/461
f 349/349 350/350 351/351
f 352/352 350/350 349/349
f 548/548 550/550 551/551
f 553/553 555/555 554/554
f 552/552 553/553 554/554
f 556/556 557/557 558/558
f 559/559 560/560 561/561
f 1/1 2/2 3/3
f 562/562 563/563 564/564
f 472/472 473/473 474/474
f 370/370 357/357 358/358
f 548/548 549/549 550/550
f 224/224 220/220 225/225
f 224/224 221/221 220/220
f 367/367 368/368 360/360
f 357/357 367/367 360/360
f 112/112 114/114 115/115
f 112/112 115/115 117/117
f 393/393 394/394 392/392
f 308/308 305/305 304/304
f 304/304 305/305 306/306
f 393/393 392/392 391/391
f 295/295 297/297 298/298
f 300/300 298/298 297/297
f 296/296 299/299 297/297
f 335/335 336/336 337/337
f 295/295 296/296 297/297
f 220/220 221/221 222/222
f 220/220 222/222 223/223
f 565/565 566/566 567/567
f 568/568 569/569 570/570
f 105/105 95/95 96/96
f 94/94 96/96 95/95
f 104/104 102/102 101/101
f 571/571 572/572 573/573
f 574/574 575/575 576/576
f 101/101 100/100 98/98
f 98/98 100/100 92/92
f 98/98 92/92 95/95
f 102/102 103/103 100/100
f 353/353 354/354 355/355
f 215/215 211/211 213/213
f 102/102 100/100 101/101
f 215/215 216/216 211/211
f 216/216 219/219 217/217
f 216/216 217/217 211/211
f 211/211 217/217 218/218
f 25/25 26/26 27/27
f 28/28 29/29 30/30
f 434/434 435/435 436/436
f 98/98 95/95 99/99
f 94/94 97/97 96/96
f 382/382 383/383 384/384
f 232/232 231/231 233/233
f 43/43 40/40 44/44
f 36/36 43/43 46/46
f 46/46 48/48 36/36
f 153/153 154/154 155/155
f 580/580 578/578 577/577
f 577/577 578/578 579/579
f 47/47 34/34 36/36
f 47/47 36/36 48/48
f 35/35 38/38 40/40
f 40/40 38/38 41/41
f 34/34 39/39 37/37
f 263/263 264/264 265/265
f 470/470 471/471 468/468
f 468/468 471/471 469/469
f 437/437 438/438 439/439
f 51/51 42/42 37/37
f 578/578 581/581 579/579
f 37/37 42/42 38/38
f 35/35 37/37 38/38
f 83/83 84/84 85/85
f 82/82 80/80 79/79
f 86/86 84/84 83/83
f 79/79 80/80 81/81
f 35/35 40/40 43/43
f 36/36 35/35 43/43
f 34/34 37/37 35/35
f 34/34 35/35 36/36
f 61/61 63/63 62/62
f 399/399 400/400 401/401
f 443/443 444/444 445/445
f 444/444 446/446 445/445
f 582/582 584/584 585/585
f 66/66 60/60 65/65
f 60/60 64/64 65/65
f 427/427 428/428 429/429
f 429/429 428/428 430/430
f 582/582 583/583 584/584
f 430/430 431/431 432/432
f 430/430 428/428 431/431
f 467/467 468/468 469/469
f 443/443 450/450 444/444
f 589/589 587/587 586/586
f 586/586 587/587 588/588
f 200/200 202/202 203/203
f 200/200 201/201 202/202
f 273/273 274/274 275/275
f 385/385 386/386 387/387
f 126/126 125/125 122/122
f 237/237 234/234 236/236
f 53/53 54/54 55/55
f 53/53 55/55 56/56
f 69/69 71/71 67/67
f 71/71 69/69 72/72
f 590/590 591/591 592/592
f 592/592 591/591 593/593
f 125/125 123/123 122/122
f 122/122 123/123 124/124
f 346/346 345/345 348/348
f 345/345 346/346 347/347
f 4/4 5/5 6/6
f 111/111 113/113 112/112
f 113/113 114/114 112/112
f 118/118 119/119 113/113
f 118/118 113/113 111/111
f 335/335 338/338 336/336
f 339/339 338/338 335/335
f 314/314 319/319 310/310
f 494/494 497/497 496/496
f 494/494 495/495 497/497
f 322/322 321/321 324/324
f 322/322 324/324 305/305
f 324/324 321/321 326/326
f 283/283 286/286 287/287
f 279/279 281/281 283/283
f 283/283 281/281 286/286
f 281/281 278/278 285/285
f 279/279 278/278 281/281
f 310/310 314/314 316/316
f 316/316 314/314 304/304
f 317/317 310/310 316/316
f 311/311 310/310 317/317
f 315/315 322/322 308/308
f 322/322 305/305 308/308
f 314/314 315/315 308/308
f 314/314 308/308 304/304
f 281/281 285/285 288/288
f 289/289 288/288 285/285
f 385/385 388/388 386/386
f 388/388 389/389 386/386
f 241/241 240/240 243/243
f 238/238 240/240 241/241
f 396/396 397/397 398/398
f 460/460 458/458 461/461
f 305/305 307/307 306/306
f 186/186 187/187 188/188
f 188/188 187/187 189/189
f 190/190 189/189 187/187
f 179/179 180/180 181/181
f 171/171 169/169 170/170
f 170/170 176/176 171/171
f 180/180 179/179 182/182
f 301/301 302/302 303/303
f 160/160 165/165 163/163
f 166/166 163/163 165/165
f 304/304 306/306 307/307
f 167/167 177/177 168/168
f 240/240 244/244 243/243
f 240/240 245/245 244/244
f 176/176 175/175 178/178
f 176/176 170/170 175/175
f 110/110 111/111 112/112
f 240/240 247/247 245/245
f 169/169 168/168 170/170
f 167/167 168/168 169/169
f 259/259 260/260 261/261
f 19/19 20/20 21/21
f 197/197 193/193 199/199
f 259/259 262/262 260/260
f 191/191 192/192 193/193
f 191/191 193/193 194/194
f 194/194 197/197 198/198
f 193/193 197/197 194/194
f 195/195 192/192 191/191
f 196/196 195/195 191/191
f 244/244 245/245 246/246
f 244/244 246/246 248/248
f 594/594 595/595 596/596
f 270/270 271/271 272/272
f 393/393 391/391 395/395
f 413/413 415/415 419/419
f 390/390 391/391 392/392
f 424/424 425/425 426/426
f 481/481 478/478 480/480
f 478/478 479/479 480/480
f 412/412 413/413 414/414
f 414/414 413/413 417/417
f 420/420 421/421 422/422
f 10/10 11/11 12/12
f 415/415 412/412 416/416
f 481/481 482/482 478/478
f 482/482 483/483 478/478
f 356/356 357/357 358/358
f 359/359 357/357 356/356
f 415/415 413/413 412/412
f 238/238 242/242 239/239
f 238/238 239/239 240/240
f 413/413 418/418 417/417
f 413/413 419/419 418/418
f 427/427 429/429 433/433
f 465/465 466/466 464/464
f 127/127 135/135 136/136
f 127/127 136/136 128/128
f 606/606 603/603 605/605
f 603/603 604/604 605/605
f 371/371 374/374 372/372
f 371/371 372/372 373/373
f 67/67 68/68 69/69
f 91/91 89/89 88/88
f 597/597 598/598 599/599
f 600/600 601/601 602/602
f 69/69 68/68 70/70
f 106/106 107/107 108/108
f 145/145 147/147 148/148
f 109/109 106/106 108/108
f 465/465 464/464 462/462
f 462/462 464/464 463/463
f 76/76 74/74 73/73
f 129/129 130/130 131/131
f 131/131 130/130 134/134
f 160/160 163/163 161/161
f 160/160 161/161 162/162
f 73/73 75/75 77/77
f 75/75 78/78 77/77
f 127/127 128/128 129/129
f 129/129 128/128 130/130
f 87/87 88/88 89/89
f 87/87 89/89 90/90
f 249/249 250/250 251/251
f 149/149 152/152 150/150
f 149/149 150/150 151/151
f 145/145 146/146 147/147
f 451/451 453/453 454/454
f 60/60 61/61 62/62
f 64/64 60/60 62/62
f 447/447 448/448 449/449
f 156/156 157/157 158/158
f 158/158 157/157 159/159
f 255/255 256/256 257/257
f 255/255 257/257 258/258
f 276/276 275/275 277/277
f 277/277 275/275 274/274
f 462/462 463/463 457/457
f 405/405 406/406 407/407
f 7/7 8/8 9/9
f 402/402 403/403 404/404
f 234/234 235/235 236/236
f 451/451 452/452 453/453
